<svg fill="none" height="41" viewBox="0 0 40 41" width="40" xmlns="http://www.w3.org/2000/svg"><circle cx="20" cy="20.687" r="18.5" stroke="#f94409"/><path clip-rule="evenodd" d="m25.6989 10.687c-2.3423 0-4.3005 1.9582-4.3005 4.3004v.735c0 .2761-.2238.5-.5.5-.2761 0-.5-.2239-.5-.5v-.735c0-2.8945 2.4059-5.30039 5.3005-5.30039 1.8927 0 3.5707 1.02819 4.5077 2.53799.1886.3038.3476.6277.4725.9675.0954.2591-.0375.5465-.2966.6418-.2592.0954-.5466-.0375-.6419-.2966-.1012-.2751-.2302-.5381-.3836-.7853-.767-1.2359-2.1341-2.0654-3.6581-2.0654zm-16.6989 9.1001c0-1.2362 1.0094-2.2456 2.2456-2.2456h11.3464c1.2363 0 2.2456 1.0094 2.2456 2.2456v6.2199c0 1.2603-.5782 2.4459-1.443 3.3107s-2.0504 1.443-3.3107 1.443h-6.3302c-1.2602 0-2.4459-.5782-3.3107-1.443s-1.443-2.0504-1.443-3.3107zm2.2456-1.2456c-.6839 0-1.2456.5617-1.2456 1.2456v6.2199c0 .9539.4416 1.8951 1.1501 2.6036.7085.7086 1.6497 1.1501 2.6036 1.1501h6.3302c.9539 0 1.8951-.4415 2.6036-1.1501.7086-.7085 1.1501-1.6497 1.1501-2.6036v-6.2199c0-.6839-.5616-1.2456-1.2456-1.2456zm19.2544-3.0908c.2761 0 .5-.2239.5-.5 0-.2762-.2239-.5-.5-.5s-.5.2238-.5.5c0 .2761.2239.5.5.5zm-13.5776 7.6294c-.3023 0-.5474.245-.5474.5473 0 .2953.2338.536.5264.547.0081-.0004.0162-.0006.0244-.0006.0071 0 .0141.0002.0211.0005.2909-.0129.5228-.2528.5228-.5469 0-.3023-.245-.5473-.5473-.5473zm.5034 2.011c.6074-.2089 1.0439-.7853 1.0439-1.4637 0-.8545-.6928-1.5473-1.5473-1.5473-.8546 0-1.5474.6928-1.5474 1.5473 0 .6809.4398 1.2591 1.0508 1.466v.7151c0 .2761.2238.5.5.5.2761 0 .5-.2239.5-.5z" fill="#f94409" fill-rule="evenodd"/></svg>