<svg fill="none" height="78" viewBox="0 0 78 78" width="78" xmlns="http://www.w3.org/2000/svg"><path d="m0 0h78v78h-78z" fill="#fff"/><circle cx="39" cy="39" fill="#09f9bf" r="38" stroke="#18303f" stroke-width="2"/><path clip-rule="evenodd" d="m54.6843 21.6556c.3047-.3046.7985-.3046 1.1031 0s.3046.7985 0 1.1031l-8.3554 8.3555c.8884 1.3824 1.4475 3.0009 1.563 4.7486l.7487 11.3238c.0187.2838-.0138.5585-.0894.8154l7.2385 7.2384c.3046.3046.3046.7985 0 1.1031s-.7985.3046-1.1031 0l-7.0663-7.0663c-.3738.2545-.8258.4038-1.3146.4038h-4.6105c-.2348 1.887-1.8443 3.3473-3.7948 3.3473-1.9506 0-3.56-1.4603-3.7948-3.3473h-4.6151c-.4915 0-.9457-.1509-1.3206-.4078l-7.0704 7.0703c-.3046.3046-.7984.3046-1.103 0-.3047-.3046-.3047-.7985 0-1.1031l7.2461-7.2462c-.0739-.2546-.1056-.5266-.087-.8076l.7486-11.3238c.1154-1.7452.673-3.3615 1.5592-4.7425l-8.3616-8.3616c-.3046-.3046-.3046-.7985 0-1.1031s.7985-.3046 1.1031 0l8.2102 8.2103c1.8399-2.066 4.5187-3.3581 7.483-3.3581 2.9618 0 5.6385 1.2898 7.4782 3.3528zm-9.3102 9.3102c-1.5546-1.7809-3.8403-2.898-6.3729-2.898-2.5352 0-4.8229 1.1194-6.3777 2.9034l6.3727 6.3726zm-13.6734 1.2887c-.6438 1.0993-1.0474 2.3594-1.1368 3.7112l-.6945 10.5048 8.0237-8.0236zm-1.2605 15.8515c.0495.0098.1008.015.1534.015h16.8152c.0496 0 .098-.0046.145-.0134l-8.5576-8.5576zm17.6934-1.6247-.6952-10.5156c-.0895-1.3543-.4945-2.6168-1.1405-3.7175l-6.1987 6.1987zm-11.344 3.1997c.219 1.0215 1.127 1.7873 2.2139 1.7873s1.9949-.7658 2.2139-1.7873z" fill="#18303f" fill-rule="evenodd"/></svg>