<svg fill="none" height="50" viewBox="0 0 50 50" width="50" xmlns="http://www.w3.org/2000/svg"><circle cx="25" cy="25" fill="#fff" r="24" stroke="#f18303" stroke-width="2"/><path clip-rule="evenodd" d="m28.0207 20.8963c-2.8894-1.6682-6.5775-.8094-8.4326 1.9637l-4.3342 6.4786c-.3409.5095-.1798 1.201.351 1.5074l3.375 1.9486c-.5178.8991-.2094 2.048.6894 2.5669.8987.5189 2.0478.2115 2.5676-.6865l3.3749 1.9485c.5309.3065 1.2102.1002 1.481-.4497l3.4436-6.9928c1.4739-2.9932.3737-6.6165-2.5157-8.2847z" fill="#f18303" fill-rule="evenodd"/><g fill="#18303f"><path d="m20.8096 12.9695c0-.2928-.2372-.53-.53-.53-3.7907 0-6.89 3.0992-6.89 6.89 0 .2927.2373.53.53.53.2928 0 .53-.2373.53-.53 0-3.2053 2.6248-5.83 5.83-5.83.2928 0 .53-.2373.53-.53z"/><path d="m22.528 16.1495c0-.2928-.2373-.53-.53-.53-3.0396 0-5.4267 2.387-5.4267 5.4267 0 .2927.2373.53.53.53s.53-.2373.53-.53c0-2.4543 1.9125-4.3667 4.3667-4.3667.2927 0 .53-.2373.53-.53z"/><path d="m29.1075 15.6195c-.2928 0-.53.2372-.53.53 0 .2927.2372.53.53.53 2.4542 0 4.3667 1.9124 4.3667 4.3667 0 .2927.2373.53.53.53s.53-.2373.53-.53c0-3.0397-2.3871-5.4267-5.4267-5.4267z"/><path d="m29.3186 12.9695c0-.2928.2373-.53.53-.53 4.3273 0 7.8657 3.5383 7.8657 7.8656 0 .2927-.2373.53-.53.53s-.53-.2373-.53-.53c0-3.7419-3.0638-6.8056-6.8057-6.8056-.2927 0-.53-.2373-.53-.53z"/><path clip-rule="evenodd" d="m19.4022 35.8214c-.9947-.5742-1.4252-1.7503-1.0973-2.8026l-2.9674-1.7133c-.7962-.4597-1.0378-1.4969-.5265-2.2611l4.3342-6.4786c1.0692-1.5983 2.7004-2.6098 4.4643-2.9346 1.5533-.2866 3.2098-.0407 4.6764.8061 3.1312 1.8078 4.3235 5.7343 2.7262 8.9778l-3.4436 6.9929c-.2326.4724-.6663.7758-1.1441.8624-.3571.0653-.7389.0095-1.0799-.1874l-2.9656-1.7121c-.2555.2765-.5677.4836-.9077.6134-.6553.2511-1.414.2153-2.069-.1629zm-.1339-2.2465c-.061.5195.1845 1.0495.6662 1.3276.367.2119.7922.2319 1.1593.0912.1145-.0441.2233-.1039.3229-.1784zm6.9677 2.6523c-.1187.0215-.2456.0028-.3589-.0626l-3.3749-1.9486c-.0126-.0073-.0254-.014-.0384-.0201l-3.182-1.8371c-.0118-.0082-.024-.0159-.0366-.0232l-3.3751-1.9486c-.2654-.1532-.3459-.4989-.1755-.7537l4.3342-6.4786c.9045-1.352 2.2845-2.2075 3.7767-2.4818 1.3116-.2404 2.7097-.0319 3.9478.6829 2.6477 1.5286 3.6559 4.8488 2.3052 7.5915l-3.4436 6.9929c-.0771.1567-.2206.2575-.3789.287z" fill-rule="evenodd"/></g><g stroke="#18303f" stroke-linecap="round" stroke-linejoin="round" stroke-width=".5"><path d="m20.8096 12.9695c0-.2928-.2372-.53-.53-.53-3.7907 0-6.89 3.0992-6.89 6.89 0 .2927.2373.53.53.53.2928 0 .53-.2373.53-.53 0-3.2053 2.6248-5.83 5.83-5.83.2928 0 .53-.2373.53-.53z"/><path d="m22.528 16.1495c0-.2928-.2373-.53-.53-.53-3.0396 0-5.4267 2.387-5.4267 5.4267 0 .2927.2373.53.53.53s.53-.2373.53-.53c0-2.4543 1.9125-4.3667 4.3667-4.3667.2927 0 .53-.2373.53-.53z"/><path d="m29.1075 15.6195c-.2928 0-.53.2372-.53.53 0 .2927.2372.53.53.53 2.4542 0 4.3667 1.9124 4.3667 4.3667 0 .2927.2373.53.53.53s.53-.2373.53-.53c0-3.0397-2.3871-5.4267-5.4267-5.4267z"/><path d="m29.3186 12.9695c0-.2928.2373-.53.53-.53 4.3273 0 7.8657 3.5383 7.8657 7.8656 0 .2927-.2373.53-.53.53s-.53-.2373-.53-.53c0-3.7419-3.0638-6.8056-6.8057-6.8056-.2927 0-.53-.2373-.53-.53z"/><path clip-rule="evenodd" d="m19.4022 35.8214c-.9947-.5742-1.4252-1.7503-1.0973-2.8026l-2.9674-1.7133c-.7962-.4597-1.0378-1.4969-.5265-2.2611l4.3342-6.4786c1.0692-1.5983 2.7004-2.6098 4.4643-2.9346 1.5533-.2866 3.2098-.0407 4.6764.8061 3.1312 1.8078 4.3235 5.7343 2.7262 8.9778l-3.4436 6.9929c-.2326.4724-.6663.7758-1.1441.8624-.3571.0653-.7389.0095-1.0799-.1874l-2.9656-1.7121c-.2555.2765-.5677.4836-.9077.6134-.6553.2511-1.414.2153-2.069-.1629zm-.1339-2.2465c-.061.5195.1845 1.0495.6662 1.3276.367.2119.7922.2319 1.1593.0912.1145-.0441.2233-.1039.3229-.1784zm6.9677 2.6523c-.1187.0215-.2456.0028-.3589-.0626l-3.3749-1.9486c-.0126-.0073-.0254-.014-.0384-.0201l-3.182-1.8371c-.0118-.0082-.024-.0159-.0366-.0232l-3.3751-1.9486c-.2654-.1532-.3459-.4989-.1755-.7537l4.3342-6.4786c.9045-1.352 2.2845-2.2075 3.7767-2.4818 1.3116-.2404 2.7097-.0319 3.9478.6829 2.6477 1.5286 3.6559 4.8488 2.3052 7.5915l-3.4436 6.9929c-.0771.1567-.2206.2575-.3789.287z" fill-rule="evenodd"/></g></svg>