<svg fill="none" height="50" viewBox="0 0 50 50" width="50" xmlns="http://www.w3.org/2000/svg"><circle cx="25" cy="25" fill="#f18303" r="24.25" stroke="#18303f" stroke-width="1.5"/><path clip-rule="evenodd" d="m22.3424 13.724c0 .4602-.373.8333-.8333.8333-.4602 0-.8333-.3731-.8333-.8333 0-.4603.3731-.8334.8333-.8334.4603 0 .8333.3731.8333.8334zm1.8249-.0886c-.3795-.1659-.8217.0073-.9876.3869-.1659.3795.0073.8217.3869.9876 3.7948 1.6586 6.4902 5.2676 6.9745 9.5576.0426.3775.0696 1.0674.0765 1.4891.0039.2428.1252.4687.3254.6061.2002.1375.4546.1695.6826.0859.4005-.1468.7996-.3184 1.1892-.5103.3715-.1831.5244-.6327.3413-1.0042-.1831-.3716-.6327-.5244-1.0042-.3414-.0256.0126-.0512.0251-.0768.0375-.0119-.1948-.0264-.3795-.0435-.5309-.5438-4.8172-3.5743-8.8888-7.8643-10.7639zm-1.2905 2.1246c-.1039-.4009-.5131-.6418-.9141-.5379s-.6418.5132-.5379.9142c.1955.7545.303 1.5383.303 2.3416 0 1.0455-.1847 2.0994-.5263 3.1281-.0717-.1156-.1402-.2317-.2056-.3487-.2024-.3614-.6594-.4903-1.0208-.288-.3615.2024-.4904.6594-.288 1.0208.3166.5655.6882 1.1055 1.1219 1.6398.1631.2009.4183.3036.6751.2715.2569-.032.479-.1942.5878-.4291.7304-1.5776 1.1559-3.2776 1.1559-4.9944 0-.9378-.1256-1.8481-.351-2.7179zm-4.475 6.2648c.2215-.35.1173-.8133-.2327-1.0348s-.8133-.1173-1.0348.2327c-1.1393 1.8003-1.7281 4.1801-1.7281 6.2155 0 .0096.0002.0191.0006.0286.2132 5.5862 4.8009 9.8886 10.3451 9.7812l.0151-.0005c5.4435-.2151 9.8076-4.731 9.8076-10.3071 0-.4142-.3358-.75-.75-.75s-.75.3358-.75.75c0 3.2794-1.7596 6.1203-4.3609 7.6389.3362-.6801.5215-1.4363.5252-2.2378.1085-1.7882-.8459-3.4516-2.4866-4.2785-.1047-.0528-.2203-.0802-.3376-.0802h-.0005-.0006-.0006-.0006-.0005-.0006-.0006-.0005-.0006-.0005-.0006-.0006-.0005-.0006-.0005-.0005-.0006-.0005-.0006-.0005-.0005-.0006-.0005-.0005-.0006-.0005-.0005-.0005-.0005-.0006-.0005-.0005-.0005-.0005-.0005-.0005-.0005-.0005-.0005-.0005-.0005-.0005-.0005-.0005-.0005-.0004-.0005-.0005-.0005-.0005-.0004-.0005-.0005-.0005-.0004-.0005-.0005-.0004-.0005-.0004-.0005-.0005-.0004-.0005-.0004-.0005-.0004-.0005-.0004-.0004-.0005-.0004-.0005-.0004-.0004-.0005-.0004-.0004-.0005-.0004-.0004-.0004-.0005-.0004-.0004-.0004-.0004-.0004-.0005-.0004-.0004-.0004-.0004-.0004-.0004-.0004-.0004-.0004-.0004-.0004-.0004-.0004-.0004-.0004-.0004-.0004-.0004-.0003-.0004-.0004-.0004-.0004-.0004-.0003-.0004-.0004-.0004-.0003-.0004-.0004-.0004-.0003-.0004-.0004-.0003-.0004-.0004-.0003-.0004-.0003-.0004-.0004-.0003-.0004-.0003-.0004-.0003-.0004-.0003-.0004-.0003-.0004-.0003-.0004-.0003-.0003-.0004-.0003-.0004-.0003-.0004-.0003-.0003-.0004-.0003-.0003-.0004-.0003-.0003-.0004-.0003-.0003-.0003-.0004-.0003-.0003-.0003-.0004-.0003-.0003-.0003-.0004-.0003-.0003-.0003-.0003-.0004-.0003-.0003-.0003-.0003-.0003-.0003-.0004-.0003-.0003-.0003-.0003-.0003-.0003-.0003-.0003-.0003-.0003-.0004-.0003-.0003-.0003-.0003-.0003-.0003-.0003-.0003-.0003-.0003-.0003-.0003-.0003-.0003-.0003-.0003-.0003-.0003-.0003-.0003-.0003-.0003-.0003-.0003-.0003-.0002-.0003-.0003-.0003-.0003-.0003-.0003-.0003-.0003-.0003-.0003-.0003-.0003-.0003-.0002-.0003-.0003-.0003-.0003-.0003-.0003-.0003-.0003-.0003-.0003-.0002-.0003-.0003-.0003-.0003-.0003-.0003-.0003-.0003-.0003-.0002-.0003-.0003-.0003-.0003-.0003-.0003-.0003-.0003-.0002-.0003-.0003-.0003-.0003-.0003-.0003-.0003-.0003-.0003-.0002-.0003-.0003-.0003-.0003-.0003-.0003-.0003-.0003-.0003-.0003-.0003-.0003-.0002-.0003-.0003-.0003-.0003-.0003-.0003-.0003-.0003-.0003-.0003-.0003-.0003-.0003-.0003-.0003-.0003-.0003-.0003-.0003-.0003-.0003-.0003-.0003-.0003-.0003-.0003-.0003-.0003-.0003-.0003-.0003-.0003-.0004-.0003-.0003-.0003-.0003-.0003-.0003-.0003-.0003-.0003-.0004-.0003-.0003-.0003-.0003-.0003-.0004-.0003-.0003-.0003-.0003-.0004-.0003-.0003-.0003-.0004-.0003-.0003-.0003-.0004-.0003-.0003-.0004-.0003-.0003-.0003-.0004-.0003-.0004-.0003-.0003-.0004-.0003-.0003-.0004-.0003-.0004-.0003-.0004-.0003-.0004-.0003-.0004-.0003-.0004-.0003-.0004-.0003-.0004-.0003-.0004-.0003-.0004-.0004-.0003-.0004-.0004-.0003-.0004-.0004-.0003-.0004-.0004-.0003-.0004-.0004-.0004-.0003-.0004-.0004-.0004-.0004-.0004-.0003-.0004-.0004-.0004-.0004-.0004-.0004-.0004-.0004-.0004-.0004-.0004-.0004-.0004-.0004-.0004-.0004-.0004-.0004-.0004-.0004-.0004-.0005-.0004-.0004-.0004-.0004-.0005-.0004-.0004-.0004-.0005-.0004-.0004-.0005-.0004-.0005-.0004-.0004-.0005-.0004-.0005-.0004-.0005-.0004-.0005-.0004-.0005-.0004-.0005-.0005-.0004-.0005-.0005-.0004-.0005-.0005-.0004-.0005-.0005-.0005-.0005-.0004-.0005-.0005-.0005-.0005-.0005-.0005-.0005-.0005-.0005-.0005-.0005-.0005-.0005-.0005-.0005-.0005-.0005-.0006-.0005-.0005-.0005-.0006-.0005-.0005-.0005-.0006-.0005-.0006-.0005-.0005-.0006-.0005-.0006-.0005-.0006-.0005-.0006-.0006-.0005-.0006-.0005-.0006-.0006-.0006-.0005-.0006c-.3023 0-.5629.1788-.6816.4365-.0149.0204-.0307.0437-.0462.0698-.033.0554-.0628.1196-.0846.1925-.02-.1818-.0242-.3655-.0133-.5494.0247-.4134-.2906-.7686-.7041-.7932-.4134-.0246-.7686.2906-.7932.7041-.0515.8648.1282 1.7489.584 2.5529.1066.188.289.3209.5006.3646.2116.0438.4318-.0059.6041-.1362.3421-.2585.7217-.6097 1.0021-1.1036.7951.6108 1.2214 1.552 1.1556 2.5466-.0011.0165-.0016.033-.0016.0495 0 .8984-.3188 1.7142-.8866 2.3766-.6455.6421-1.4123.9353-2.2459.8589-.0228-.0021-.0456-.0031-.0685-.0031-.8893 0-1.6846-.3204-2.332-.973-.0117-.0118-.0239-.0232-.0363-.0342-.6062-.5347-.9314-1.3133-.9314-2.2252 0-2.0332.9743-3.927 2.5535-5.1956.3229-.2594.3744-.7315.115-1.0544-.2595-.3229-.7315-.3744-1.0544-.115-1.9076 1.5324-3.1141 3.8448-3.1141 6.365 0 .8424.2019 1.6562.6184 2.3592-2.5578-1.4118-4.3247-4.0877-4.4504-7.2522.0028-1.7887.5309-3.8748 1.4955-5.3991zm16.9511 2.2538c0 .4603-.3731.8333-.8334.8333-.4602 0-.8333-.373-.8333-.8333 0-.4602.3731-.8333.8333-.8333.4603 0 .8334.3731.8334.8333zm-9.0292 2.0466c.4603 0 .8334-.3731.8334-.8333 0-.4603-.3731-.8334-.8334-.8334-.4602 0-.8333.3731-.8333.8334 0 .4602.3731.8333.8333.8333zm-7.0496-5.7162c.4602 0 .8333-.373.8333-.8333 0-.4602-.3731-.8333-.8333-.8333-.4603 0-.8334.3731-.8334.8333 0 .4603.3731.8333.8334.8333z" fill="#18303f" fill-rule="evenodd"/></svg>