<svg fill="none" height="50" viewBox="0 0 50 50" width="50" xmlns="http://www.w3.org/2000/svg"><circle cx="25" cy="25" fill="#fff" r="24.25" stroke="#f18303" stroke-width="1.5"/><path clip-rule="evenodd" d="m30.8523 12.8003c-.2935 0-.5044.142-.5962.2109-.0931.0698-.1759.1528-.2181.1952l-.0084.0084c-.0461.0462-.0861.0981-.1188.1546-.0721.1245-.1571.2704-.2531.4349l-.0006.0011-.0017.0029-.0005.0009-.0021.0035-.0002.0004c-.6103 1.0463-1.6548 2.8369-2.5986 4.6819-.5477 1.0708-1.0692 2.1746-1.4555 3.1742-.3766.9744-.661 1.9389-.661 2.6973 0 3.2401 2.6746 5.9145 5.9148 5.9145 3.2401 0 5.9147-2.6744 5.9147-5.9145 0-.7576-.2839-1.7276-.6603-2.7092-.3861-1.007-.9074-2.1198-1.4554-3.1973-1.0967-2.1563-2.3261-4.2213-2.8667-5.1059-.031-.0506-.0678-.0973-.1097-.1393l-.0084-.0084c-.0422-.0424-.125-.1254-.2181-.1952-.0918-.0689-.3027-.2109-.5961-.2109zm-2.4629 6.3778c.8807-1.7217 1.8506-3.3943 2.4693-4.4556.6139 1.027 1.5799 2.6958 2.4556 4.4175.5361 1.0542 1.0319 2.1155 1.3918 3.0544.3698.9642.5609 1.7116.5609 2.1721 0 2.4116-2.0029 4.4145-4.4147 4.4145-2.4119 0-4.4148-2.0029-4.4148-4.4145 0-.4596.1906-1.2005.5602-2.1566.3598-.931.8554-1.9832 1.3917-3.0318zm-9.127.5392c-.2934 0-.5043.142-.5961.2109-.0931.0698-.1759.1528-.2182.1952l-.0084.0084c-.0461.0462-.086.0981-.1187.1546-.0734.1267-.1602.2755-.2582.4435l-.0001.0002c-.6103 1.0463-1.6548 2.8369-2.5985 4.6819-.5478 1.0708-1.0693 2.1746-1.4555 3.1742-.3766.9744-.661 1.9389-.661 2.6973 0 3.2401 2.6745 5.9145 5.9147 5.9145 3.2354 0 5.9069-2.6665 5.9147-5.9001.0266-.7666-.2403-1.7393-.6025-2.7159-.3747-1.0103-.8912-2.1257-1.4401-3.205-1.0488-2.0621-2.2436-4.0457-2.872-5.0043-.1501-.478-.6657-.6554-1.0001-.6554zm-2.4628 6.3778c.8862-1.7325 1.8627-3.4152 2.4809-4.4755.6384 1.0125 1.6314 2.6961 2.517 4.4374.5352 1.0524 1.0237 2.1112 1.3707 3.0467.3571.9625.5275 1.7007.5096 2.1498-.0004.01-.0006.02-.0006.03 0 2.4116-2.003 4.4145-4.4148 4.4145s-4.4147-2.0029-4.4147-4.4145c0-.4596.1906-1.2005.5601-2.1566.3598-.931.8554-1.9832 1.3918-3.0318zm14.552 1.2916c0 .2762-.2239.5-.5.5-.2762 0-.5-.2238-.5-.5 0-.2761.2238-.5.5-.5.2761 0 .5.2239.5.5zm-2.0039 0c.2761 0 .5-.2238.5-.5 0-.2761-.2239-.5-.5-.5-.2762 0-.5.2239-.5.5 0 .2762.2238.5.5.5zm-9.6602 7.0078c0 .2762-.2239.5-.5.5s-.5-.2238-.5-.5c0-.2761.2239-.5.5-.5s.5.2239.5.5zm-2.0039 0c.2761 0 .5-.2238.5-.5 0-.2761-.2239-.5-.5-.5s-.5.2239-.5.5c0 .2762.2239.5.5.5z" fill="#f18303" fill-rule="evenodd"/></svg>