<svg fill="none" height="45" viewBox="0 0 45 45" width="45" xmlns="http://www.w3.org/2000/svg"><circle cx="22.5" cy="22.5" r="22" stroke="#18303f"/><g fill="#18303f"><path d="m19.1758 10.8906c0 .2762-.2239.5-.5.5-.2762 0-.5-.2238-.5-.5 0-.2761.2238-.5.5-.5.2761 0 .5.2239.5.5z"/><path d="m20.3317 10.8987c-.2631-.084-.5444.0612-.6284.3242-.084.2631.0611.5444.3242.6284 4.4716 1.4277 7.7207 5.3928 8.262 10.1882.044.39.0712 1.0899.078 1.513.0027.1619.0835.3125.217.4041s.303.113.4551.0573c.3919-.1437.7828-.3117 1.1647-.4999.2865-.1411.5683-.2938.842-.4563.2375-.1409.3157-.4477.1747-.6852-.1409-.2374-.4477-.3156-.6851-.1747-.2512.1491-.5102.2894-.7736.4192-.1382.0681-.2775.1332-.4175.1952-.0141-.3181-.0346-.6457-.0616-.8849-.5848-5.1801-4.0982-9.479-8.9515-11.0286z"/><path d="m19.83 12.3354c-.0932-.2599-.3796-.3949-.6395-.3017-.2599.0933-.395.3797-.3017.6396.3742 1.0424.589 2.1535.589 3.3046 0 1.2384-.252 2.4843-.7095 3.6851-.2981-.4298-.5509-.864-.7661-1.3162-.1187-.2493-.417-.3553-.6664-.2366-.2493.1187-.3552.417-.2366.6664.3667.7703.8278 1.4861 1.4039 2.1957.1087.134.2789.2024.4501.181.1712-.0213.3193-.1295.3918-.286.7174-1.5496 1.1328-3.2139 1.1328-4.8894 0-1.2765-.2383-2.5018-.6478-3.6425z"/><path clip-rule="evenodd" d="m16.1969 18.6908c.1763-.2124.147-.5277-.0654-.704-.2125-.1764-.5278-.1471-.7041.0654-1.496 1.8023-2.2712 4.5798-2.2712 6.886 0 .0064.0002.0127.0004.0191.208 5.4498 4.6822 9.6455 10.0904 9.5407l.0101-.0003c5.3082-.2098 9.5675-4.6142 9.5675-10.0573 0-.4172-.0206-.8394-.0721-1.256-.0338-.2741-.2835-.4688-.5575-.4349-.2741.0339-.4688.2835-.4349.5575.0454.368.0645.7483.0645 1.1334 0 3.6978-2.1772 6.8556-5.2877 8.2706.6049-.8212.9486-1.8069.9521-2.8777.1052-1.69-.7945-3.2635-2.3492-4.047-.0698-.0352-.1469-.0535-.2251-.0535h-.1969c-.2105 0-.3911.1299-.4649.314-.0159.02-.033.0438-.0487.0702-.0252.0423-.0476.0916-.0633.148-.005.018-.0091.036-.0124.0539-.078.2173-.1906.4031-.3259.5665-.2149-.6535-.2177-1.3547-.0357-2.026.0723-.2665-.0852-.5411-.3517-.6134s-.5412.0852-.6134.3517c-.3 1.1065-.2079 2.3135.3939 3.375.071.1253.1927.2139.3337.2431.1411.0291.2879-.0039.4028-.0908.3825-.2891.7994-.6885 1.0597-1.2741 1.016.6463 1.5761 1.7546 1.4982 2.933-.0007.011-.0011.022-.0011.033 0 .964-.3442 1.8396-.9532 2.5468-.6939.6937-1.5344 1.0217-2.4522.9376-.0151-.0014-.0303-.002-.0456-.002-.9551 0-1.8145-.3464-2.5095-1.0469-.0078-.0079-.0159-.0155-.0242-.0229-.6675-.5887-1.016-1.4396-1.016-2.4126 0-2.4149 1.3221-4.6338 3.3791-5.9085.2347-.1455.3071-.4537.1616-.6884-.1454-.2347-.4536-.3071-.6884-.1616-2.3294 1.4436-3.8523 3.9726-3.8523 6.7585 0 1.1573.3993 2.2451 1.2232 3.0413-3.1509-1.2665-5.4124-4.2836-5.5552-7.9295.0021-2.1323.7305-4.6595 2.0406-6.2379zm8.1215 7.2835c.0002-.0001-.0011.0013-.004.0043z" fill-rule="evenodd"/><path d="m32.5586 21.7432c0 .2761-.2239.5-.5.5s-.5-.2239-.5-.5c0-.2762.2239-.5.5-.5s.5.2238.5.5z"/><path d="m23.9492 23.3457c.2762 0 .5-.2239.5-.5s-.2238-.5-.5-.5c-.2761 0-.5.2239-.5.5s.2239.5.5.5z"/><path d="m17 17.6299c.2761 0 .5-.2239.5-.5 0-.2762-.2239-.5-.5-.5s-.5.2238-.5.5c0 .2761.2239.5.5.5z"/></g></svg>