<svg fill="none" height="78" viewBox="0 0 78 78" width="78" xmlns="http://www.w3.org/2000/svg"><circle cx="39" cy="39" fill="#fff" r="38" stroke="#f18303" stroke-width="2"/><g fill="#f18303"><path d="m48.4085 43.2233c0 .4308-.3492.78-.78.78s-.78-.3492-.78-.78.3492-.78.78-.78.78.3492.78.78z"/><path d="m45.2824 43.2233c.4308 0 .78-.3492.78-.78s-.3492-.78-.78-.78-.78.3492-.78.78.3492.78.78.78z"/><path clip-rule="evenodd" d="m47.6296 20.8585c-.3305 0-.5752.1603-.696.251-.1217.0912-.2324.2021-.2998.2696l-.0118.0118c-.048.048-.0895.102-.1235.1608-.115.1985-.2507.4312-.4037.6936-.9525 1.633-2.5764 4.4169-4.0433 7.2846-.8515 1.6646-1.6583 3.3731-2.254 4.9146-.5856 1.5154-1.0049 2.9618-1.0049 4.0672 0 4.8392 3.9977 8.8366 8.837 8.8366s8.837-3.9974 8.837-8.8366c0-1.1045-.4188-2.5599-1.0042-4.0866-.5955-1.5532-1.4022-3.2759-2.254-4.9506-1.7043-3.3511-3.6163-6.5627-4.4572-7.9388-.0322-.0526-.0704-.1012-.114-.1448l-.0117-.0117c-.0675-.0675-.1782-.1785-.2999-.2697-.1208-.0907-.3655-.251-.696-.251zm-.1911 2.1793.196-.3361c.9116 1.5059 2.6369 4.4392 4.1834 7.48.8395 1.6505 1.6195 3.3196 2.1879 4.8019.5785 1.5087.9008 2.7325.9008 3.5281 0 3.9775-3.2992 7.2766-7.277 7.2766s-7.277-3.2991-7.277-7.2766c0-.7947.3217-2.0085.9-3.5048.5682-1.4703 1.3481-3.125 2.1878-4.7666 1.4451-2.8252 3.0437-5.5661 3.9981-7.2025z" fill-rule="evenodd"/><path d="m30.2126 54.1555c0 .4308-.3493.78-.78.78-.4308 0-.78-.3492-.78-.78s.3492-.78.78-.78c.4307 0 .78.3492.78.78z"/><path d="m27.0865 54.1555c.4307 0 .78-.3492.78-.78s-.3493-.78-.78-.78c-.4308 0-.78.3492-.78.78s.3492.78.78.78z"/><path clip-rule="evenodd" d="m29.5494 31.649c-.3305 0-.5752.1604-.696.251-.1217.0912-.2324.2022-.2999.2697l-.0117.0117c-.0479.048-.0895.102-.1235.1608-.115.1987-.2509.4316-.4041.6942-.9525 1.633-2.576 4.4163-4.0428 7.284-.8515 1.6646-1.6583 3.3731-2.2541 4.9146-.5856 1.5154-1.0049 2.9618-1.0049 4.0672 0 4.8392 3.9977 8.8366 8.837 8.8366 4.8343 0 8.8287-3.9891 8.837-8.8214.0403-1.1143-.3514-2.5727-.9156-4.0938-.5774-1.5567-1.3758-3.282-2.2285-4.9586-1.6503-3.2447-3.5334-6.3641-4.4951-7.8247-.1559-.5619-.7558-.7913-1.1978-.7913zm-.1911 2.1794.2039-.3498c.9612 1.4799 2.7313 4.4297 4.2896 7.4936.8385 1.6486 1.6078 3.3151 2.1563 4.7939.559 1.507.8503 2.7212.819 3.505-.0005.0103-.0007.0207-.0007.0311 0 3.9775-3.2992 7.2766-7.277 7.2766s-7.277-3.2991-7.277-7.2766c0-.7947.3218-2.0085.9001-3.5048.5681-1.4703 1.348-3.125 2.1877-4.7666 1.4452-2.8252 3.0438-5.5661 3.9981-7.2024z" fill-rule="evenodd"/></g></svg>