<svg fill="none" height="78" viewBox="0 0 79 78" width="79" xmlns="http://www.w3.org/2000/svg"><circle cx="39.5" cy="39" r="38.25" stroke="#18303f" stroke-width="1.5"/><g fill="#18303f"><path d="m34.3143 20.8894c0 .4308-.3492.78-.78.78s-.78-.3492-.78-.78.3492-.78.78-.78.78.3492.78.78z"/><path d="m36.1175 20.902c-.4104-.1311-.8493.0954-.9803.5058-.1311.4103.0954.8492.5058.9802 6.9756 2.2273 12.0442 8.4128 12.8887 15.8936.0687.6085.111 1.7002.1218 2.3603.0041.2526.1302.4875.3384.6304.2082.143.4728.1762.7099.0893.6114-.2241 1.2212-.4862 1.817-.7797.4469-.2202.8866-.4584 1.3136-.7119.3704-.2199.4924-.6984.2725-1.0689-.2199-.3704-.6985-.4924-1.0689-.2725-.3918.2326-.7958.4515-1.2067.6539-.2156.1062-.433.2079-.6513.3045-.0221-.4962-.054-1.0072-.0961-1.3804-.9123-8.081-6.3932-14.7872-13.9644-17.2046z"/><path d="m35.335 23.1433c-.1456-.4055-.5922-.6162-.9977-.4707-.4054.1456-.6162.5922-.4706.9977.5836 1.6261.9187 3.3595.9187 5.1552 0 1.932-.393 3.8756-1.1068 5.7488-.465-.6705-.8594-1.3479-1.1951-2.0533-.1851-.3889-.6505-.5542-1.0395-.3691-.389.1852-.5542.6506-.3691 1.0395.572 1.2018 1.2914 2.3183 2.19 3.4254.1696.209.435.3157.7022.2824.2671-.0333.4981-.202.6112-.4463 1.1191-2.4172 1.7671-5.0136 1.7671-7.6274 0-1.9914-.3718-3.9027-1.0104-5.6822z"/><path clip-rule="evenodd" d="m29.6672 33.0577c.2751-.3315.2294-.8232-.102-1.0984-.3315-.2751-.8233-.2294-1.0984.1021-2.3337 2.8116-3.543 7.1445-3.543 10.7422 0 .01.0002.0199.0006.0298.3244 8.5017 7.3042 15.047 15.7411 14.8835l.0157-.0005c8.2807-.3273 14.9252-7.1981 14.9252-15.6893 0-.651-.0321-1.3095-.1124-1.9594-.0528-.4276-.4422-.7313-.8698-.6785-.4275.0528-.7312.4423-.6784.8698.0709.574.1006 1.1672.1006 1.7681 0 5.7685-3.3963 10.6947-8.2488 12.9021.9437-1.2811 1.4798-2.8189 1.4853-4.4892.1642-2.6364-1.2394-5.0911-3.6648-6.3134-.1089-.0549-.2291-.0835-.351-.0835h-.3073c-.3283 0-.6101.2028-.7252.4899-.0248.0312-.0514.0683-.076.1095-.0392.066-.0743.1429-.0987.2309-.0078.028-.0142.0561-.0193.0841-.1217.339-.2974.6288-.5085.8838-.3351-1.0196-.3395-2.1135-.0556-3.1606.1127-.4158-.1329-.8442-.5487-.9569-.4158-.1128-.8442.1329-.9569.5487-.4681 1.7261-.3244 3.6089.6145 5.265.1108.1954.3005.3336.5206.3791s.449-.0061.6283-.1416c.5967-.4511 1.2471-1.0741 1.6532-1.9877 1.5849 1.0084 2.4587 2.7372 2.3371 4.5756-.0011.0171-.0017.0343-.0017.0514 0 1.5039-.5369 2.8699-1.487 3.9731-1.0825 1.0821-2.3936 1.5939-3.8253 1.4627-.0237-.0022-.0474-.0033-.0712-.0033-1.4899 0-2.8306-.5402-3.9148-1.6331-.0122-.0123-.0248-.0241-.0378-.0356-1.0414-.9184-1.585-2.2459-1.585-3.7638 0-3.7671 2.0625-7.2286 5.2714-9.2172.3662-.2269.4791-.7077.2522-1.0739-.227-.3661-.7078-.479-1.0739-.2521-3.634 2.252-6.0097 6.1973-6.0097 10.5432 0 1.8055.6229 3.5024 1.9082 4.7446-4.9154-1.9759-8.4433-6.6825-8.6662-12.3701.0034-3.3264 1.1397-7.2688 3.1834-9.7311zm12.6696 11.3622c.0002-.0001-.0017.002-.0062.0067z" fill-rule="evenodd"/><path d="m55.1915 37.8193c0 .4308-.3492.78-.78.78s-.78-.3492-.78-.78c0-.4307.3492-.78.78-.78s.78.3493.78.78z"/><path d="m41.7609 40.3193c.4307 0 .78-.3492.78-.78s-.3493-.78-.78-.78c-.4308 0-.78.3492-.78.78s.3492.78.78.78z"/><path d="m30.9201 31.4026c.4308 0 .78-.3492.78-.78s-.3492-.78-.78-.78-.78.3492-.78.78.3492.78.78.78z"/></g></svg>