<svg fill="none" height="25" viewBox="0 0 25 25" width="25" xmlns="http://www.w3.org/2000/svg"><g fill="#18303f"><path clip-rule="evenodd" d="m9.49859 6.78809c-1.34281 0-2.5 1.15719-2.5 2.5s1.15719 2.50001 2.5 2.50001 2.50001-1.1572 2.50001-2.50001-1.1572-2.5-2.50001-2.5zm-1.5 2.5c0-.79053.70948-1.5 1.5-1.5.79051 0 1.50001.70947 1.50001 1.5 0 .79051-.7095 1.50001-1.50001 1.50001-.79052 0-1.5-.7095-1.5-1.50001z" fill-rule="evenodd"/><path clip-rule="evenodd" d="m16.4986 6.78809c-1.3428 0-2.5 1.15719-2.5 2.5s1.1572 2.50001 2.5 2.50001 2.5-1.1572 2.5-2.50001-1.1572-2.5-2.5-2.5zm-1.5 2.5c0-.79053.7095-1.5 1.5-1.5s1.5.70947 1.5 1.5c0 .79051-.7095 1.50001-1.5 1.50001s-1.5-.7095-1.5-1.50001z" fill-rule="evenodd"/><path d="m11.8602 14.9481c.3248 0 .5882-.2634.5882-.5882 0-.3249-.2634-.5882-.5882-.5882-.3249 0-.5882.2633-.5882.5882 0 .3248.2633.5882.5882.5882z"/><path d="m10.6844 17.1238c.3248 0 .5882-.2633.5882-.5881 0-.3249-.2634-.5882-.5882-.5882s-.5882.2633-.5882.5882c0 .3248.2634.5881.5882.5881z"/><path d="m13.6241 16.5357c0 .3248-.2633.5881-.5881.5881-.3249 0-.5882-.2633-.5882-.5881 0-.3249.2633-.5882.5882-.5882.3248 0 .5881.2633.5881.5882z"/><path d="m14.2118 14.9481c.3248 0 .5881-.2634.5881-.5882 0-.3249-.2633-.5882-.5881-.5882-.3249 0-.5882.2633-.5882.5882 0 .3248.2633.5882.5882.5882z"/><path d="m15.3875 17.1238c.3249 0 .5882-.2633.5882-.5881 0-.3249-.2633-.5882-.5882-.5882-.3248 0-.5881.2633-.5881.5882 0 .3248.2633.5881.5881.5881z"/><path d="m14.2118 19.1941c.3248 0 .5881-.2633.5881-.5881 0-.3249-.2633-.5882-.5881-.5882-.3249 0-.5882.2633-.5882.5882 0 .3248.2633.5881.5882.5881z"/><path d="m11.8602 19.1941c.3248 0 .5882-.2633.5882-.5881 0-.3249-.2634-.5882-.5882-.5882-.3249 0-.5882.2633-.5882.5882 0 .3248.2633.5881.5882.5881z"/><path clip-rule="evenodd" d="m18.1201 16.7318c.1989-.2104.5395-.6049.8492-1.0019.1768-.2265.3512-.4636.4875-.6762.0681-.106.1312-.2129.1811-.3141.029-.0587.0613-.1306.0858-.2092.4679-.6945.8186-1.6697 1.0553-2.6465.2481-1.0237.3841-2.10434.3841-2.97081 0-4.48732-3.6377-8.125004-8.125-8.125004-4.48733 0-8.12501 3.637684-8.12501 8.125004 0 .86647.13595 1.94711.38405 2.97081.23672.9768.58744 1.952 1.05532 2.6465.02446.0786.05678.1505.08579.2092.04994.1012.11305.2081.18108.3141.13637.2126.31078.4497.48749.6762.2769.3549.57847.7078.78141.9289.02949.7265.32156 1.4442.87619 1.9989l2.12038 2.1203c1.1715 1.1716 3.071 1.1716 4.2426 0l2.1203-2.1203c.5361-.5361.8269-1.2246.8724-1.9259zm-5.082-14.94371c-3.93504 0-7.12501 3.18997-7.12501 7.125 0 .77578.12363 1.77681.35592 2.73531.23445.9674.56662 1.837.95421 2.3831.04333.0611.07236.1311.08502.2048l.00052.0014c.00223.006.00921.0249.02614.0592.02756.0558.06945.1285.12609.2168.11299.1761.26666.3863.43424.601.07241.0928.14597.1847.21824.2731.1464-.3538.36338-.6852.65095-.9728l2.12038-2.1203c1.1715-1.1716 3.071-1.1716 4.2426 0l2.1203 2.1203c.3017.3017.5257.6517.6721 1.0251.0859-.1042.1743-.2141.2611-.3254.1676-.2147.3213-.4249.4343-.601.0566-.0883.0985-.161.1261-.2168.0169-.0343.0239-.0532.0261-.0592l.0005-.0014c.0127-.0737.0417-.1437.0851-.2048.3875-.5461.7197-1.4157.9542-2.3831.2323-.9585.3559-1.95953.3559-2.73531 0-3.93503-3.19-7.125-7.125-7.125zm-1.4462 11.21371-2.12037 2.1203c-.78105.7811-.78105 2.0474 0 2.8285l2.12037 2.1203c.781.781 2.0473.781 2.8284 0l2.1203-2.1203c.7811-.7811.7811-2.0474 0-2.8285l-2.1203-2.1203c-.7811-.781-2.0474-.781-2.8284 0z" fill-rule="evenodd"/></g><g stroke="#18303f" stroke-linecap="round" stroke-linejoin="round"><path d="m16.1045 19.2458 1.9046 1.9034c0 .4519.3146 1.5228.905 1.8068.5903.284 1.3442.082 1.6265-.5095l1.0291-1.6082c.3508-.6098 1.1004-2.1379.0569-2.8548-.5402-.3711-1.8088.0004-2.1801.2818l-1.622-.7341"/><path d="m9.80481 19.4066-1.74184 1.7418c-.0008.4518-.31148 1.5316-.90052 1.8108-.58904.2793-1.34297.0773-1.62672-.5087l-1.01453-1.6625c-.35229-.6043-1.35187-1.9388-.07599-2.8049.53871-.3656 1.3568 0 2.15851.251l1.54708-.656"/><path d="m19.2607 14.3209c.8832-1.2446 1.4024-3.7656 1.4024-5.40781 0-4.21118-3.4138-7.625-7.625-7.625-4.21119 0-7.62501 3.41382-7.62501 7.625 0 1.64221.51918 4.16321 1.40237 5.40781.05884.4139.24743 1.8128.56577 2.1312l4.24267 4.2426c.781.7811 2.0474.7811 2.8284 0l4.2426-4.2426c.3184-.3184.507-1.7173.5658-2.1312z"/></g></svg>