<svg fill="none" height="26" viewBox="0 0 26 26" width="26" xmlns="http://www.w3.org/2000/svg"><g fill="#18303f"><path d="m8.70703 1.27148c0-.276138-.22386-.499996-.5-.499996-3.57614 0-6.5 2.923856-6.5 6.499996 0 .27615.22386.5.5.5s.5-.22385.5-.5c0-3.02385 2.47614-5.5 5.5-5.5.27614 0 .5-.22385.5-.5z"/><path d="m10.3281 4.27148c0-.27614-.2238-.5-.49998-.5-2.86758 0-5.11953 2.25195-5.11953 5.11954 0 .27614.22386.5.5.5.27615 0 .5-.22386.5-.5 0-2.31531 1.80423-4.11954 4.11953-4.11954.27618 0 .49998-.22385.49998-.5z"/><path d="m16.5352 3.77148c-.2762 0-.5.22386-.5.5 0 .27615.2238.5.5.5 2.3153 0 4.1195 1.80423 4.1195 4.11954 0 .27614.2238.5.5.5.2761 0 .5-.22386.5-.5 0-2.86759-2.252-5.11954-5.1195-5.11954z"/><path d="m16.7344 1.27148c0-.276138.2238-.499996.5-.499996 4.0823 0 7.4204 3.338046 7.4204 7.420406 0 .27615-.2239.5-.5.5-.2762 0-.5-.22385-.5-.5 0-3.53008-2.8903-6.42041-6.4204-6.42041-.2762 0-.5-.22385-.5-.5z"/><path clip-rule="evenodd" d="m7.3792 22.8299c-.93831-.5417-1.34448-1.6512-1.0351-2.644l-2.79947-1.6163c-.75116-.4336-.97902-1.4121-.49673-2.1331l4.08886-6.1119c1.00874-1.50783 2.54755-2.46207 4.21164-2.76845 1.4654-.27038 3.0281-.03835 4.4117.76047 2.9539 1.70548 4.0788 5.40968 2.5719 8.46968l-3.2487 6.597c-.2195.4457-.6286.7319-1.0793.8136-.3369.0616-.6971.009-1.0188-.1768l-2.7977-1.6152c-.24108.2609-.53563.4562-.85639.5787-.61815.2369-1.33395.2031-1.95191-.1537zm-.12631-2.1193c-.0575.49.17414.9901.62856 1.2524.34623.1999.7473.2188 1.09364.0861.10802-.0416.21068-.098.30465-.1683zm6.57341 2.5022c-.112.0202-.2317.0026-.3387-.0591l-3.1839-1.8383c-.0119-.0068-.0239-.0132-.0361-.019l-3.00194-1.7331c-.01111-.0077-.02262-.015-.03451-.0218l-3.18403-1.8383c-.25039-.1446-.32634-.4708-.16558-.7111l4.08887-6.1119c.85329-1.2755 2.15519-2.08252 3.56289-2.34127 1.2374-.22685 2.5563-.03018 3.7243.64417 2.4978 1.4421 3.449 4.5744 2.1748 7.1619l-3.2487 6.597c-.0728.1478-.2081.243-.3574.2708z" fill-rule="evenodd"/></g></svg>