<svg fill="none" height="26" viewBox="0 0 26 26" width="26" xmlns="http://www.w3.org/2000/svg"><g stroke="#92a0a9" stroke-linecap="round" stroke-linejoin="round" stroke-miterlimit="10"><path d="m9.49805 10.3912c.29437-3.97397 3.67965-7.21203 7.80075-7.21203h3.4811v5.15146h-3.4811c-1.1775 0-2.3549.8831-2.5021 2.06057"/><path d="m7.44064 18.292c1.17748-.2943 2.06059-1.3246 2.06059-2.5021v-.5093h5.15147v.5093c0 3.974-3.0909 7.3592-7.21206 7.6536"/><path d="m15.2948 11.3647c.7192 0 1.2587.8391 1.2587 1.958 0 1.1188-.5395 1.9579-1.2587 1.9579h-6.29344c-.71925 0-1.25868-.8391-1.25868-1.9579 0-1.1189.53943-1.958 1.25868-1.958z"/><path d="m24.6952 8.76949c0 .71925-.8391 1.25871-1.9579 1.25871-1.1189 0-1.958-.53946-1.958-1.25871v-6.29343c0-.71925.8391-1.25868 1.958-1.25868 1.1188 0 1.9579.53943 1.9579 1.25868z"/><path d="m5.49037 23.9322c0 .7192-.83912 1.2587-1.95795 1.2587s-1.95796-.5395-1.95796-1.2587v-6.2934c0-.7193.83913-1.2587 1.95796-1.2587s1.95795.5394 1.95795 1.2587z"/></g></svg>