<svg fill="none" height="26" viewBox="0 0 26 26" width="26" xmlns="http://www.w3.org/2000/svg"><g stroke="#92a0a9" stroke-linecap="round" stroke-linejoin="round"><path d="m9.385 20.7366-1.74939.9674c-.00089.4994-.34441 1.6934-.99572 2.0022-.65132.3088-1.48496.0854-1.79871-.5625l-1.12179-1.8383c-.38954-.6682-1.4948-2.1438-.08402-3.1014.59566-.4042 1.50024 0 2.38671.2774l1.71064-.7252"/><path d="m16.8775 20.692 1.7553 1.0123c0 .4996.348 1.6837 1.0007 1.9977.6527.3141 1.4864.0907 1.7985-.5633l1.1379-1.7782c.3879-.6744 1.2168-2.3639.0629-3.1566-.5973-.4104-2 .0004-2.4106.3116l-1.7935-.8117"/><path d="m8.13647 17.7038-1.27578-2.8287c-1.72596-2.1713-2.05853-6.23472-.41163-9.29326 1.6469-3.05853 5.17594-4.47016 8.58744-3.64671 3.4114.94109 5.7641 3.88199 5.7641 7.41106 0 2.11741-.1659 3.35761-1.3527 5.52891l-1.3114 2.8287"/><path d="m9.63477 11.7038c1.06663 0 2.00003-.9334 2.00003-2.00002 0-1.06667-.9334-2-2.00003-2-1.06667 0-2 .93333-2 2 0 1.06662.93333 2.00002 2 2.00002z"/><path d="m16.6348 11.7038c1.0666 0 2-.9334 2-2.00002 0-1.06667-.9334-2-2-2-1.0667 0-2 .93333-2 2 0 1.06662.9333 2.00002 2 2.00002z"/><rect height="8.14993" rx="2.5" transform="matrix(.70710678 -.70710678 .70710678 .70710678 -10.607958 10.508523)" width="8.14993" x="7.38093" y="18.0592"/></g><g fill="#92a0a9"><circle cx="13.1331" cy="18.0068" r=".58818"/><circle cx="10.7815" cy="18.0068" r=".58818"/><circle cx="11.9573" cy="15.6543" r=".58818"/><circle cx="14.3089" cy="15.6543" r=".58818"/><circle cx="15.4847" cy="18.0068" r=".58818"/><circle cx="14.3089" cy="20.3603" r=".58818"/><circle cx="11.9573" cy="20.3603" r=".58818"/></g></svg>