<svg fill="none" height="26" viewBox="0 0 25 26" width="25" xmlns="http://www.w3.org/2000/svg" xmlns:xlink="http://www.w3.org/1999/xlink"><mask id="a" fill="#fff"><path clip-rule="evenodd" d="m8.7804 3.80658c-1.65686 0-3.00001 1.34315-3.00001 3l.00001 14.86952c0 1.6569 1.34314 3 3 3h7.44c1.6569 0 3-1.3431 3-3v-14.86952c0-1.65685-1.3432-3-3-3-.0562 0-.1018-.04559-.1018-.10182v-1.02943c0-1.10457-.8955-1.999997-2-1.999997h-3.237c-1.10452 0-1.99995.895427-1.99995 1.999997v1.03c0 .05592-.04534.10125-.10125.10125z" fill="#fff" fill-rule="evenodd"/></mask><path d="m13.2537 9.40601-.72 3.23999h2.88l-3.6 5.04.72-3.24h-2.84721m-.00168-.0374 3.56749-5.00259" stroke="#18303f" stroke-linecap="round" stroke-linejoin="round" stroke-miterlimit="10"/><path clip-rule="evenodd" d="m19.2204 21.6786c0-.0008 0-.0016 0-.0025v-.2179h-13.44v.2179c0 1.6569 1.34314 3 3 3h7.44c1.656 0 2.9987-1.3418 3-2.9975z" fill="#f18303" fill-rule="evenodd"/><path d="m5.78039 6.80658h-1zm.00001 14.86952h1zm3 3v1zm7.44 0v-1zm3-3h-1zm0-14.86952h1zm-12.44001 0c0-1.10457.89544-2 2.00001-2v-2c-2.20914 0-4.00001 1.79086-4.00001 4zm.00001 14.86952-.00001-14.86952h-2l.00001 14.86952zm2 2c-1.10457 0-2-.8954-2-2h-2c0 2.2092 1.79086 4 4 4zm7.44 0h-7.44v2h7.44zm2-2c0 1.1046-.8954 2-2 2v2c2.2091 0 4-1.7908 4-4zm0-14.86952v14.86952h2v-14.86952zm-2-2c1.1046 0 2 .89543 2 2h2c0-2.20913-1.7909-4-4-4zm-1.1018-2.13125v1.02943h2v-1.02943zm-1-1c.5523 0 1 .44772 1 1h2c0-1.65685-1.3432-2.999997-3-2.999997zm-3.237 0h3.237v-1.999997h-3.237zm-.99995 1c0-.55228.44775-1 .99995-1v-1.999997c-1.65681 0-2.99995 1.343147-2.99995 2.999997zm0 1.03v-1.03h-2v1.03zm-2 0c0-.49636.40238-.89875.89875-.89875v2c.6082 0 1.10125-.49304 1.10125-1.10125zm8.33875-.89875c.496 0 .8982.40213.8982.89818h-2c0 .60852.4933 1.10182 1.1018 1.10182z" fill="#18303f" mask="url(#a)"/></svg>