<svg fill="none" height="25" viewBox="0 0 25 25" width="25" xmlns="http://www.w3.org/2000/svg"><g clip-rule="evenodd" fill="#18303f" fill-rule="evenodd"><path d="m12 8.5v6.5c0 .2761.2239.5.5.5s.5-.2239.5-.5v-6.5h.5c.4136 0 .7972-.14006 1.0786-.42145.2813-.28139.4214-.66493.4214-1.07855s-.1401-.79716-.4214-1.07855c-.2814-.28139-.665-.42145-1.0786-.42145h-.5v-1.5c0-.27614-.2239-.5-.5-.5s-.5.22386-.5.5v1.5h-.5c-.4136 0-.7972.14006-1.0786.42145-.2813.28139-.4214.66493-.4214 1.07855s.1401.79716.4214 1.07855c.2814.28139.665.42145 1.0786.42145zm1.5-1c.1864 0 .3028-.05994.3714-.12855.0687-.06861.1286-.18507.1286-.37145s-.0599-.30284-.1286-.37145c-.0686-.06861-.185-.12855-.3714-.12855h-2c-.1864 0-.3028.05994-.3714.12855-.0687.06861-.1286.18507-.1286.37145s.0599.30284.1286.37145c.0686.06861.185.12855.3714.12855z"/><path d="m18.5 15v-1.5h-.5c-.7431 0-1.5-.5919-1.5-1.5 0-.4136.1401-.7972.4214-1.0786.2814-.2813.665-.4214 1.0786-.4214h.5v-6.5c0-.27614.2239-.5.5-.5s.5.22386.5.5v6.5h.5c.4136 0 .7972.1401 1.0786.4214.2813.2814.4214.665.4214 1.0786s-.1401.7972-.4214 1.0786c-.2814.2813-.665.4214-1.0786.4214h-.5v1.5c0 .2761-.2239.5-.5.5s-.5-.2239-.5-.5zm1.8714-2.6286c-.0686.0687-.185.1286-.3714.1286h-2c-.2569 0-.5-.2081-.5-.5 0-.1864.0599-.3028.1286-.3714.0686-.0687.185-.1286.3714-.1286h2c.1864 0 .3028.0599.3714.1286.0687.0686.1286.185.1286.3714s-.0599.3028-.1286.3714z"/><path d="m6 3.5c.27614 0 .5.22386.5.5v4.5h.5c.41362 0 .79716.14006 1.07855.42145s.42145.66493.42145 1.07855c0 .4136-.14006.7972-.42145 1.0786-.28139.2813-.66493.4214-1.07855.4214h-.5v3.5c0 .2761-.22386.5-.5.5s-.5-.2239-.5-.5v-3.5h-.5c-.41362 0-.79716-.1401-1.07855-.4214-.28139-.2814-.42145-.665-.42145-1.0786 0-.41362.14006-.79716.42145-1.07855s.66493-.42145 1.07855-.42145h.5v-4.5c0-.27614.22386-.5.5-.5zm1.37145 6.8714c-.06861.0687-.18507.1286-.37145.1286h-2c-.18638 0-.30284-.0599-.37145-.1286-.06861-.0686-.12855-.185-.12855-.3714 0-.18638.05994-.30284.12855-.37145s.18507-.12855.37145-.12855h2c.18638 0 .30284.05994.37145.12855s.12855.18507.12855.37145c0 .1864-.05994.3028-.12855.3714z"/><path d="m19 17.8769c-.8752 0-1.6232.748-1.6232 1.6232s.748 1.6232 1.6232 1.6232 1.6232-.748 1.6232-1.6232-.748-1.6232-1.6232-1.6232zm-.6232 1.6232c0-.3229.3003-.6232.6232-.6232s.6232.3003.6232.6232-.3003.6232-.6232.6232-.6232-.3003-.6232-.6232z"/><path d="m10.8563 19.4984c0-.8762.7488-1.625 1.625-1.625.8761 0 1.625.7488 1.625 1.625 0 .8761-.7489 1.625-1.625 1.625-.8762 0-1.625-.7489-1.625-1.625zm1.625-.625c-.3239 0-.625.3011-.625.625 0 .3238.3011.625.625.625.3238 0 .625-.3012.625-.625 0-.3239-.3012-.625-.625-.625z"/><path d="m6.00005 17.8768c-.87522 0-1.62328.748-1.62328 1.6233 0 .8752.74806 1.6232 1.62328 1.6232.87523 0 1.62328-.748 1.62328-1.6232 0-.8753-.74805-1.6233-1.62328-1.6233zm-.62328 1.6233c0-.323.30034-.6233.62328-.6233s.62328.3003.62328.6233c0 .3229-.30034.6232-.62328.6232s-.62328-.3003-.62328-.6232z"/><path d="m.5 6c0-3.03757 2.46243-5.5 5.5-5.5h13c3.0376 0 5.5 2.46243 5.5 5.5v13c0 3.0376-2.4624 5.5-5.5 5.5h-13c-3.03757 0-5.5-2.4624-5.5-5.5zm5.5-4.5c-2.48528 0-4.5 2.01472-4.5 4.5v13c0 2.4853 2.01472 4.5 4.5 4.5h13c2.4853 0 4.5-2.0147 4.5-4.5v-13c0-2.48528-2.0147-4.5-4.5-4.5z"/></g></svg>