<svg fill="none" height="26" viewBox="0 0 25 26" width="25" xmlns="http://www.w3.org/2000/svg"><g stroke="#92a0a9" stroke-linecap="round" stroke-linejoin="round"><path d="m17.7926 11.9074c0 2.9141-2.3057 5.2037-5.2402 5.2037-2.93447 0-5.24014-2.2896-5.24014-5.2037 0-2.39363 3.56334-7.90946 4.82094-9.78277.2096-.20814.524-.31221.7336-.10407.1048 0 .1048.10407.1048.10407 1.2577 1.87331 4.821 7.38914 4.821 9.78277z"/><path d="m19.8886 18.6721c-2.2009 1.457-4.7162 2.1855-7.3363 2.0815-2.62008.104-5.13536-.7285-7.33624-2.0815"/><path d="m23.9759 20.3373c-3.3537 2.3937-7.3363 3.7466-11.4236 3.5384-4.19213.1041-8.17466-1.1447-11.52837-3.6425"/></g></svg>