<svg fill="none" height="26" viewBox="0 0 25 26" width="25" xmlns="http://www.w3.org/2000/svg"><g stroke="#92a0a9" stroke-linecap="round" stroke-linejoin="round"><path d="m5.91985 6.94867c1.24141-2.06842 3.52282-4.13683 5.04555-5.38748.6286-.51625 1.5336-.06175 1.5336.75165v10.55706m-6.57915-5.92123c-.45047 2.02712-.28407 4.05423-.13435 5.13103.06454.4642.46782.7902.93652.7902h5.77698m-6.57915-5.92123 6.57915 5.92123"/><path d="m18.4208 6.34331c2.0685 1.24141 4.1369 3.52282 5.3875 5.04559.5163.6286.0618 1.5336-.7516 1.5336h-10.5571m5.9212-6.57919c-2.0271-.45047-4.0542-.28407-5.131-.13435-.4642.06454-.7902.46782-.7902.93652v5.77702m5.9212-6.57919-5.9212 6.57919"/><path d="m19.0802 18.8433c-1.2415 2.0684-3.5229 4.1368-5.0456 5.3874-.6286.5163-1.5336.0618-1.5336-.7516v-10.5571m6.5792 5.9213c.4504-2.0272.284-4.0543.1343-5.1311-.0645-.4642-.4678-.7902-.9365-.7902h-5.777m6.5792 5.9213-6.5792-5.9213"/><path d="m6.57916 19.4487c-2.06842-1.2414-4.13683-3.5228-5.38747-5.0456-.516252-.6286-.06176-1.5336.75164-1.5336h10.55707m-5.92124 6.5792c2.02712.4505 4.05424.2841 5.13104.1343.4642-.0645.7902-.4678.7902-.9365v-5.777m-5.92124 6.5792 5.92124-6.5792"/></g></svg>