<svg fill="none" height="26" viewBox="0 0 25 26" width="25" xmlns="http://www.w3.org/2000/svg"><g stroke="#92a0a9"><path d="m5.68166 13.2822 3.50714 5.4m-3.50714-5.4h7.01424m-7.01424 0 3.50714-5.7857m-3.50714 5.7857-2.11745-5.7857h5.62459m-3.50714 5.7857-2.11745 5.4h5.62459m0 0 3.5071-5.4m-3.5071 5.4h6.6246m-6.6246 0 3.5071 4.0143 3.1175-4.0143m-3.1175-5.4 3.1175 5.4m-3.1175-5.4h6.6246m-6.6246 0-3.5071-5.7857m3.5071 5.7857 3.1175-5.7857m0 11.1857 3.5071-5.4m-3.5071 5.4h5.6246l-2.1175-5.4m0 0-3.5071-5.7857m3.5071 5.7857 2.1175-5.7857h-5.6246m-6.6246 0h6.6246m-6.6246 0 3.5071-4.4 3.1175 4.4" stroke-linecap="round" stroke-linejoin="round"/><path d="m13.404 13.3346c0 .3951-.3122.7-.6787.7-.3664 0-.6787-.3049-.6787-.7s.3123-.7.6787-.7c.3665 0 .6787.3049.6787.7z"/><path d="m22.1189 7.59655c0 .39507-.3123.7-.6787.7-.3665 0-.6787-.30493-.6787-.7 0-.39508.3122-.7.6787-.7.3664 0 .6787.30492.6787.7z"/><path d="m22.1186 18.496c0 .395-.3122.7-.6787.7-.3664 0-.6787-.305-.6787-.7 0-.3951.3123-.7.6787-.7.3665 0 .6787.3049.6787.7z"/><path d="m9.72069 18.7203c0 .3951-.31226.7-.6787.7s-.67871-.3049-.67871-.7.31227-.7.67871-.7.6787.3049.6787.7z"/><path d="m16.5915 18.7203c0 .3951-.3122.7-.6787.7-.3664 0-.6787-.3049-.6787-.7s.3123-.7.6787-.7c.3665 0 .6787.3049.6787.7z"/><path d="m20.0781 13.3346c0 .3951-.3123.7-.6787.7s-.6787-.3049-.6787-.7.3123-.7.6787-.7.6787.3049.6787.7z"/><path d="m6.1809 13.3346c0 .3951-.31227.7-.67871.7-.36643 0-.6787-.3049-.6787-.7s.31227-.7.6787-.7c.36644 0 .67871.3049.67871.7z"/><path d="m9.72069 7.59728c0 .39507-.31226.7-.6787.7s-.67871-.30493-.67871-.7c0-.39508.31227-.7.67871-.7s.6787.30492.6787.7z"/><path d="m16.5915 7.59728c0 .39507-.3122.7-.6787.7-.3664 0-.6787-.30493-.6787-.7 0-.39508.3123-.7.6787-.7.3665 0 .6787.30492.6787.7z"/><path d="m4.19506 18.496c0 .395-.31227.7-.67871.7-.36643 0-.6787-.305-.6787-.7 0-.3951.31227-.7.6787-.7.36644 0 .67871.3049.67871.7z"/><path d="m4.19115 7.59752c0 .39508-.31227.7-.6787.7-.36644 0-.67871-.30492-.67871-.7 0-.39507.31227-.7.67871-.7.36643 0 .6787.30493.6787.7z"/><path d="m13.404 2.9735c0 .39508-.3122.7-.6787.7-.3664 0-.6787-.30492-.6787-.7s.3123-.7.6787-.7c.3665 0 .6787.30492.6787.7z"/><path d="m13.404 22.6968c0 .395-.3122.7-.6787.7-.3664 0-.6787-.305-.6787-.7 0-.3951.3123-.7.6787-.7.3665 0 .6787.3049.6787.7z"/></g></svg>