<svg fill="none" height="26" viewBox="0 0 25 26" width="25" xmlns="http://www.w3.org/2000/svg" xmlns:xlink="http://www.w3.org/1999/xlink"><mask id="a" fill="#fff"><path clip-rule="evenodd" d="m1.58431 1.89612c-1.089983 0-1.476768 1.68703-.600801 2.33567.764671.56624 1.424761 1.1888 2.019411 1.91131l1.21979 14.9962c.12668 1.5574 1.42758 2.7568 2.99012 2.7568h7.88927c1.5626 0 2.8635-1.1994 2.9901-2.7568l1.3015-15.99997c.0066-.08166.0099-.16277.01-.24321h2.3939v4.5c0 .82838.6716 1.49998 1.5 1.49998s1.5-.6716 1.5-1.49998v-5.99758c0-.00081 0-.00162 0-.00242 0-.05178-.0026-.10294-.0077-.15337-.0769-.75638-.7156-1.34663-1.4923-1.34663h-6.8941-10.4921-1.25589-.35791z" fill="#fff" fill-rule="evenodd"/></mask><path d="m.983509 4.23179.595101-.80365zm2.019411 1.91131.99671-.08107c-.01655-.20339-.09492-.39685-.22459-.55441zm1.21979 14.9962-.99671.0811zm13.86949 0 .9967.0811zm1.3015-15.99997-.9967-.08108v.00001zm.01-.24321v-1c-.5517 0-.9992.44688-1 .99862zm2.3939 0h1c0-.55229-.4477-1-1-1zm2.9923-1.65337-.9949.10104zm-23.21129.18539c-.0166-.01229-.04263-.03871-.06116-.10481-.02011-.07176-.02326-.16785.00039-.26419.02404-.09793.06398-.15055.08098-.16683.00653-.00624.00583-.00372-.00293-.00005-.00997.00418-.01609.00386-.01158.00386v-2.000002c-1.161467 0-1.81775.908002-2.008794 1.686172-.190127.77444-.037791 1.82323.812895 2.45316zm2.19643 2.07948c-.64852-.78795-1.36862-1.46649-2.19643-2.07948l-1.190199 1.60731c.701529.51947 1.301609 1.08607 1.842389 1.74313zm1.44438 15.55068-1.21979-14.99627-1.99342.16214 1.21979 14.99623zm1.99341 1.8378c-1.04169 0-1.90896-.7996-1.99341-1.8378l-1.99342.1621c.16891 2.0765 1.90344 3.6757 3.98683 3.6757zm7.88927 0h-7.88927v2h7.88927zm1.9934-1.8378c-.0844 1.0382-.9517 1.8378-1.9934 1.8378v2c2.0834 0 3.8179-1.5992 3.9868-3.6757zm1.3015-16.00004-1.3015 16.00004 1.9934.1621 1.3015-15.99999zm.0067-.16352c0 .05387-.0023.10839-.0067.16351l1.9934.16217c.0088-.10821.0132-.21591.0133-.32293zm3.3939-.99862h-2.3939v2h2.3939zm1 5.5v-4.5h-2v4.5zm.5.5c-.2761 0-.5-.22386-.5-.5h-2c0 1.38068 1.1193 2.49998 2.5 2.49998zm.5-.5c0 .27614-.2239.5-.5.5v1.99998c1.3807 0 2.5-1.1193 2.5-2.49998zm0-5.99758v5.99758h2v-5.99758zm0-.00242c0-.00029 0-.00048 0 .00002v.0024h2c0 .00028 0 .00047 0-.00003 0-.0003 0-.0013 0-.00239zm-.0026-.05233c.0017.0169.0026.03434.0026.05233h2c0-.08557-.0043-.17046-.0129-.25441zm-.4974-.44767c.2583 0 .4719.19661.4974.44767l1.9897-.20207c-.1281-1.26171-1.1921-2.245602-2.4871-2.245602zm-6.8941 0h6.8941v-2.000002h-6.8941zm-10.4921 0h10.4921v-2.000002h-10.4921zm-1.25589 0h1.25589v-2.000002h-1.25589zm-.35791 0h.35791v-2.000002h-.35791zm-2.71329 0h2.71329v-2.000002h-2.71329z" fill="#18303f" mask="url(#a)"/><g stroke="#18303f" stroke-linecap="round" stroke-linejoin="round"><path d="m5.29688 9.39612h3"/><path d="m6.29688 11.3961h2"/><path d="m6.29688 13.3961h2"/><path d="m6.29688 15.3961h2"/><path d="m6.29688 17.3961h2"/><path d="m6.29688 19.3961h2"/></g></svg>