<svg fill="none" height="26" viewBox="0 0 25 26" width="25" xmlns="http://www.w3.org/2000/svg"><g clip-rule="evenodd" fill-rule="evenodd"><path d="m18.6019 1.1875c-1.3606 0-2.5 1.05987-2.5 2.41304v12.66886c-1.1988.7709-2 2.085-2 3.592 0 2.4097 2.035 4.3261 4.5 4.3261 2.464 0 4.5-1.9163 4.5-4.3261 0-1.5073-.8031-2.8211-2-3.5918v-12.66906c0-1.35317-1.1393-2.41304-2.5-2.41304zm-1.5 2.41304c0-.75978.6497-1.41304 1.5-1.41304.8504 0 1.5.65326 1.5 1.41304v12.95226c0 .1818.0987.3492.2577.4373 1.0491.5815 1.7423 1.654 1.7423 2.8713 0 1.8161-1.5459 3.3261-3.5 3.3261-1.9549 0-3.5-1.5099-3.5-3.3261 0-1.2176.6916-2.2899 1.7421-2.8711.1591-.0881.2579-.2556.2579-.4375zm1.5076 16.26076c0 .0061-.0014.0128-.0039.0185-.0012.0028-.0025.0049-.0037.0065l-.0001.0001c-.0011-.0015-.0023-.0035-.0035-.0062-.0025-.0057-.004-.0125-.004-.0189s.0015-.0132.004-.0189c.0012-.0026.0024-.0047.0035-.0062l.0001.0001c.0012.0016.0025.0037.0037.0065.0025.0057.0039.0124.0039.0185zm-.0076-.971c-.5278 0-.9924.4143-.9924.971 0 .5568.4646.971.9924.971.5266 0 .9924-.4138.9924-.971s-.4658-.971-.9924-.971zm0-3.0817c.2762 0 .5-.2239.5-.5s-.2238-.5-.5-.5c-.2761 0-.5.2239-.5.5s.2239.5.5.5zm0 2c.2762 0 .5-.2239.5-.5s-.2238-.5-.5-.5c-.2761 0-.5.2239-.5.5s.2239.5.5.5z" fill="#18303f"/><path d="m7.60452 2.74512c.27615 0 .5-.22386.5-.5 0-.27615-.22385-.5-.5-.5-.27614 0-.5.22385-.5.5 0 .27614.22386.5.5.5zm-5.37623 3.04919c.27615 0 .5-.22386.5-.5s-.22385-.5-.5-.5c-.27614 0-.5.22386-.5.5s.22386.5.5.5zm11.23351-.5c0 .27614-.2238.5-.5.5-.2761 0-.5-.22386-.5-.5s.2239-.5.5-.5c.2762 0 .5.22386.5.5zm-7.44304.83559c.27614 0 .5-.22386.5-.5s-.22386-.5-.5-.5c-.27615 0-.5.22386-.5.5s.22385.5.5.5zm-3.29183 5.3072c0 .2762-.22386.5-.5.5s-.5-.2238-.5-.5c0-.2761.22386-.5.5-.5s.5.2239.5.5zm10.23487.5c.2762 0 .5-.2238.5-.5 0-.2761-.2238-.5-.5-.5-.2761 0-.5.2239-.5.5 0 .2762.2239.5.5.5zm-4.85728 2.7143c0 .2762-.22385.5-.5.5-.27614 0-.5-.2238-.5-.5 0-.2761.22386-.5.5-.5.27615 0 .5.2239.5.5zm1.08577-8.5215c.27614 0 .5-.22386.5-.5s-.22386-.5-.5-.5-.5.22386-.5.5.22386.5.5.5zm.5 5.093c0 .2762-.22386.5-.5.5s-.5-.2238-.5-.5c0-.2761.22386-.5.5-.5s.5.2239.5.5zm-3.67153.5c.27614 0 .5-.2238.5-.5 0-.2761-.22386-.5-.5-.5-.27615 0-.5.2239-.5.5 0 .2762.22385.5.5.5zm-1.1072-3.2429c0 .27614-.22386.5-.5.5s-.5-.22386-.5-.5.22386-.5.5-.5.5.22386.5.5zm5.88594.5c.2761 0 .5-.22386.5-.5s-.2239-.5-.5-.5c-.2762 0-.5.22386-.5.5s.2238.5.5.5zm-4.19294-6.04254c-.19526-.19526-.51184-.19526-.70711 0-.19526.19526-.19526.51185 0 .70711l1.20512 1.20511v2.21953c0 .27615.22386.5.5.5s.5-.22385.5-.5v-2.21432l1.21032-1.21032c.19527-.19526.19527-.51185 0-.70711-.19526-.19526-.51184-.19526-.7071 0l-1.00062 1.00062zm1.49801 6.85418c0-.27614-.22386-.5-.5-.5s-.5.22386-.5.5v2.23196l-1.20526 1.2062c-.19518.1954-.19506.5119.00028.7071.19535.1952.51193.1951.70711-.0003l1.00007-1.0008 1.00102 1.001c.19526.1952.51184.1952.7071 0 .19527-.1953.19527-.5119 0-.7071l-1.21032-1.2104zm.47638-2.49499 1.87995-1.08539.4426-1.64945c.0716-.26671.3458-.42489.6125-.35332.2667.07158.4249.34581.3533.61251l-.3669 1.36744 1.3673.36533c.2668.07128.4252.34534.354.61212-.0713.26679-.3454.42527-.6122.35399l-1.6525-.44154-1.87805 1.08433c-.23914.13808-.54494.05614-.68301-.183-.13807-.23915-.05614-.54494.18301-.68302zm-1.92382 2.26544c.23914-.13807.32108-.44386.183-.68301-.13807-.23915-.44387-.32108-.68301-.18301l-1.90611 1.10051-1.65066-.44165c-.26676-.07138-.54087.08701-.61224.35377-.07138.26676.08701.5409.35377.6122l1.36706.3658-.3666 1.3672c-.07152.2667.08672.5409.35344.6124s.54092-.0867.61244-.3534l.44246-1.6501zm-.528-1.39942-1.87869-1.08467-1.64996.44195c-.26673.07145-.54089-.08687-.61234-.35361s.08687-.54089.35361-.61234l1.36719-.36621-.36659-1.3667c-.07154-.26671.08668-.54092.3534-.61246.26671-.07154.54092.08668.61246.35339l.44263 1.65018 1.8783 1.08445c.23914.13808.32108.44387.18301.68302-.13808.23914-.44387.32108-.68302.183zm2.24082.71641c-.13807.23915-.05614.54494.18301.68301l1.90774 1.10141.4434 1.6496c.0717.2667.346.4248.6127.3531s.4247-.346.353-.6127l-.3673-1.3664 1.3679-.3662c.2668-.0714.4251-.34556.3537-.61231s-.3455-.4251-.6123-.35369l-1.6518.4422-1.90703-1.10103c-.23915-.13807-.54494-.05614-.68302.18301z" fill="#03a9f1"/></g></svg>