<svg fill="none" height="26" viewBox="0 0 25 26" width="25" xmlns="http://www.w3.org/2000/svg"><g clip-rule="evenodd" fill-rule="evenodd"><path d="m18.6016 1.09375c-1.3607 0-2.5 1.05987-2.5 2.41304v12.66881c-1.1989.771-2 2.085-2 3.5921 0 2.4097 2.0349 4.3261 4.5 4.3261 2.4639 0 4.5-1.9163 4.5-4.3261 0-1.5074-.8032-2.8211-2-3.5919v-12.66901c0-1.35317-1.1394-2.41304-2.5-2.41304zm-1.5 2.41304c0-.75978.6496-1.41304 1.5-1.41304.8503 0 1.5.65326 1.5 1.41304v12.95231c0 .1817.0986.3492.2576.4373 1.0491.5814 1.7424 1.654 1.7424 2.8713 0 1.8161-1.546 3.3261-3.5 3.3261-1.955 0-3.5-1.51-3.5-3.3261 0-1.2177.6915-2.2899 1.742-2.8711.1592-.0881.258-.2557.258-.4375zm1.5076 16.26081c0 .0061-.0015.0127-.004.0185-.0012.0027-.0025.0049-.0036.0065l-.0001.0001c-.0011-.0015-.0023-.0036-.0035-.0062-.0026-.0058-.004-.0126-.004-.0189 0-.0064.0014-.0132.004-.0189.0012-.0027.0024-.0047.0035-.0063l.0001.0002c.0011.0016.0024.0037.0036.0065.0025.0057.004.0123.004.0185zm-.0076-.971c-.5279 0-.9924.4142-.9924.971 0 .5567.4645.9709.9924.9709.5266 0 .9924-.4137.9924-.9709 0-.5573-.4658-.971-.9924-.971zm.5-13.47726c0 .27614-.2239.5-.5.5-.2762 0-.5-.22386-.5-.5 0-.27615.2238-.5.5-.5.2761 0 .5.22385.5.5zm0 2c0 .27614-.2239.5-.5.5-.2762 0-.5-.22386-.5-.5 0-.27615.2238-.5.5-.5.2761 0 .5.22385.5.5zm-.5 2.5c.2761 0 .5-.22386.5-.5 0-.27615-.2239-.5-.5-.5-.2762 0-.5.22385-.5.5 0 .27614.2238.5.5.5zm.5 1.49996c0 .2762-.2239.5-.5.5-.2762 0-.5-.2238-.5-.5 0-.2761.2238-.5.5-.5.2761 0 .5.2239.5.5zm-.5 2.5c.2761 0 .5-.2238.5-.5 0-.2761-.2239-.5-.5-.5-.2762 0-.5.2239-.5.5 0 .2762.2238.5.5.5zm.5 1.5c0 .2762-.2239.5-.5.5-.2762 0-.5-.2238-.5-.5 0-.2761.2238-.5.5-.5.2761 0 .5.2239.5.5zm-.5 2.5c.2761 0 .5-.2238.5-.5 0-.2761-.2239-.5-.5-.5-.2762 0-.5.2239-.5.5 0 .2762.2238.5.5.5z" fill="#18303f"/><path d="m8.29297 1.70605c.27614 0 .5-.22385.5-.5 0-.276138-.22386-.499995-.5-.499995s-.5.223857-.5.499995c0 .27615.22386.5.5.5zm-1.39897.68438c.23181-.15007.29807-.45964.14801-.69145-.15007-.2318-.45964-.29807-.69145-.148-2.6381 1.70784-4.35056 4.61782-4.35056 7.81413 0 1.41209.50995 2.72979 1.55896 3.66179 1.02261 1.0249 2.30668 1.5439 3.70929 1.5495 1.43987.125 2.74305-.4119 3.76645-1.4435.0078-.0078.0154-.016.0226-.0243.8902-1.0254 1.4039-2.3125 1.4078-3.72704.1234-1.96334-.921-3.792-2.72885-4.70312-.06979-.03518-.14686-.0535-.22502-.0535h-.00068-.00068-.00068-.00068-.00067-.00067-.00067-.00066-.00067-.00066-.00065-.00066-.00065-.00065-.00065-.00064-.00064-.00064-.00064-.00063-.00064-.00063-.00062-.00063-.00062-.00062-.00062-.00061-.00061-.00061-.00061-.00061-.0006-.0006-.0006-.0006-.00059-.00059-.00059-.00059-.00059-.00058-.00058-.00058-.00057-.00058-.00057-.00057-.00056-.00057-.00056-.00056-.00056-.00056-.00055-.00056-.00055-.00054-.00055-.00054-.00055-.00054-.00053-.00054-.00053-.00054-.00053-.00052-.00053-.00052-.00053-.00052-.00051-.00052-.00051-.00052-.00051-.00051-.0005-.00051-.0005-.0005-.0005-.0005-.0005-.00049-.00049-.00049-.00049-.00049-.00049-.00048-.00048-.00048-.00048-.00048-.00047-.00048-.00047-.00047-.00047-.00046-.00047-.00046-.00047-.00046-.00046-.00045-.00046-.00045-.00046-.00045-.00045-.00045-.00044-.00045-.00044-.00044-.00045-.00044-.00043-.00044-.00044-.00043-.00043-.00043-.00043-.00043-.00043-.00043-.00042-.00042-.00043-.00042-.00042-.00041-.00042-.00042-.00041-.00041-.00042-.00041-.00041-.00041-.0004-.00041-.0004-.00041-.0004-.0004-.0004-.0004-.0004-.0004-.00039-.0004-.00039-.0004-.00039-.00039-.00039-.00039-.00039-.00038-.00039-.00038-.00039-.00038-.00038-.00039-.00038-.00038-.00037-.00038-.00038-.00038-.00037-.00038-.00037-.00037-.00037-.00038-.00037-.00037-.00036-.00037-.00037-.00037-.00036-.00037-.00036-.00037-.00036-.00036-.00037-.00036-.00036-.00036-.00036-.00036-.00036-.00035-.00036-.00036-.00035-.00036-.00035-.00036-.00035-.00036-.00035-.00035-.00036-.00035-.00035-.00035-.00035-.00035-.00035-.00035-.00035-.00035-.00034-.00035-.00035-.00035-.00034-.00035-.00035-.00034-.00035-.00034-.00035-.00034-.00035-.00034-.00035-.00034-.00035-.00034-.00034-.00035-.00034-.00034-.00035-.00034-.00034-.00034-.00035-.00034-.00034-.00035-.00034-.00034-.00034-.00034-.00035-.00034-.00034-.00034-.00035-.00034-.00034-.00034-.00035-.00034-.00034-.00035-.00034-.00034-.00035-.00034-.00034-.00035-.00034-.00035-.00034-.00034-.00035-.00034-.00035-.00035-.00034-.00035-.00034-.00035-.00035-.00035-.00034-.00035-.00035-.00035-.00035-.00035-.00035-.00035-.00035-.00035-.00035-.00036-.00035-.00035-.00036-.00035-.00035-.00036-.00036-.00035-.00036-.00036-.00035-.00036-.00036-.00036-.00036-.00036-.00036-.00036-.00037-.00036-.00037-.00036-.00037-.00036-.00037-.00037-.00036-.00037-.00037-.00037-.00038-.00037-.00037-.00037-.00038-.00037-.00038-.00038-.00038-.00037-.00038-.00038-.00039-.00038-.00038-.00038-.00039-.00039-.00038-.00039-.00039-.00039-.00039-.00039-.0004-.00039-.0004-.00039-.0004-.0004-.0004-.0004-.0004-.0004-.00041-.0004-.00041-.0004-.00041-.00041-.00041-.00041-.00042-.00041-.00042-.00041-.00042-.00042-.00042-.00043-.00042-.00042-.00043-.00043-.00042-.00043-.00044-.00043-.00043-.00044-.00044-.00043-.00044-.00044-.00045-.00044-.00045-.00044-.00045-.00045-.00045-.00046-.00045-.00046-.00045-.00046-.00046-.00047-.00046-.00047-.00046-.00047-.00047-.00047-.00048-.00047-.00048-.00048-.00048-.00048-.00048-.00049-.00049-.00048-.0005-.00049-.00049-.0005-.0005-.0005-.0005-.0005-.00051-.0005-.00051-.00051-.00051-.00052-.00052-.00051-.00052-.00053-.00052-.00053-.00052-.00053-.00054-.00053-.00054-.00053-.00054-.00054-.00055-.00055-.00054-.00055-.00056-.00055-.00056-.00056-.00056-.00056-.00056-.00057-.00057-.00057-.00058-.00057-.00058-.00058-.00058-.00059-.00059-.00059-.00059-.00059-.0006-.0006-.0006-.0006-.00061-.0006-.00061-.00062-.00061-.00062-.00062-.00062-.00063-.00062-.00063-.00064-.00063-.00064-.00064-.00064-.00064-.00065-.00065-.00065-.00066-.00065-.00066-.00067-.00066-.00067-.00067-.00067-.00068-.00067-.00069-.00068c-.21504 0-.39837.13575-.46897.32622-.01892.02298-.04008.05142-.05926.08366-.0386.06484-.06603.13722-.07939.21553-.11604.32699-.29525.59507-.50896.82461-.31125-.83336-.32944-1.73751-.09594-2.59868.07227-.26652-.08521-.54116-.35173-.61342-.26652-.07227-.54115.08521-.61342.35173-.34932 1.28834-.24153 2.69097.45732 3.92367.07104.12531.19267.21389.33373.24306.14106.02916.28784-.00393.40275-.09079.46674-.35284.97128-.84182 1.26638-1.56821 1.28747.77301 2.00297 2.1466 1.90627 3.60979-.0008.01098-.0011.02199-.0011.033 0 1.16439-.4165 2.22229-1.1521 3.07529-.83861.8395-1.85983 1.2404-2.97647 1.1381-.01517-.0014-.03039-.0021-.04562-.0021-1.15397 0-2.19417-.4192-3.03381-1.2655-.00782-.0079-.0159-.0155-.02423-.0229-.81216-.7163-1.23297-1.7494-1.23297-2.92289 0-2.83275 1.51945-5.43746 3.894-6.97468zm1.97724 2.49274c.00009-.00006-.00088.00103-.00318.00341z" fill="#f18303"/></g></svg>