<svg fill="none" height="26" viewBox="0 0 25 26" width="25" xmlns="http://www.w3.org/2000/svg"><path clip-rule="evenodd" d="m9.17578 1.17188c0 .27614-.22386.5-.5.5s-.5-.22386-.5-.5c0-.276147.22386-.500005.5-.500005s.5.223858.5.500005zm1.15592.00806c-.2631-.08399-.54444.06117-.62843.32423s.06117.5444.32423.62839c4.4716 1.42773 7.7207 5.39278 8.262 10.18814.044.3901.0712 1.0899.078 1.5131.0027.1619.0835.3124.217.4041.1335.0916.303.1129.4551.0572.3919-.1436.7828-.3117 1.1647-.4998.2865-.1412.5683-.2938.842-.4563.2375-.141.3157-.4478.1747-.6852-.1409-.2375-.4477-.3157-.6851-.1747-.2512.1491-.5102.2894-.7736.4191-.1382.0681-.2775.1333-.4175.1952-.0141-.3181-.0346-.6456-.0616-.8848-.5848-5.18017-4.0982-9.47902-8.9515-11.02866zm-.50165 1.43675c-.09329-.2599-.37961-.39498-.63952-.30169-.25991.09328-.39498.37961-.30169.63951.37414 1.04241.58896 2.15351.58896 3.30464 0 1.23842-.25197 2.48432-.70952 3.68512-.2981-.4298-.5509-.86406-.76609-1.31621-.11867-.24934-.41701-.35527-.66635-.2366s-.35527.41701-.2366.66635c.36664.77036.8278 1.48609 1.40384 2.19569.10875.134.27889.2024.45011.1811.17122-.0214.31933-.1295.39182-.2861.71739-1.5495 1.13279-3.21386 1.13279-4.88935 0-1.27655-.2383-2.50177-.64775-3.64246zm-3.63318 6.3554c.17636-.21249.14708-.52771-.06541-.70408-.21249-.17636-.52771-.14708-.70407.06541-1.49595 1.80238-2.27114 4.57978-2.27114 6.88608 0 .0063.00012.0127.00036.019.20796 5.4499 4.68219 9.6456 10.09039 9.5408v.0001l.0101-.0004c5.3082-.2098 9.5675-4.6142 9.5675-10.0573 0-.4173-.0206-.8394-.0721-1.256-.0338-.2741-.2835-.4688-.5575-.435-.2741.0339-.4688.2835-.4349.5576.0454.3679.0645.7482.0645 1.1334 0 3.6978-2.1772 6.8556-5.2877 8.2706.6049-.8212.9486-1.807.9521-2.8777.1052-1.69-.7945-3.2635-2.3492-4.0471-.0698-.0352-.1469-.0535-.2251-.0535h-.1975c-.2104 0-.3905.13-.4643.314-.0159.0201-.033.0438-.0487.0703-.0252.0422-.0476.0915-.0633.1479-.005.018-.0091.036-.0124.0539-.078.2174-.1906.4031-.3259.5666-.2149-.6536-.2177-1.3548-.0357-2.026.0723-.2665-.0852-.5412-.3517-.6135-.2665-.0722-.5412.0853-.6134.3518-.3 1.1065-.2079 2.3134.3939 3.375.071.1253.1927.2139.3337.243.1411.0292.2879-.0039.4028-.0908.3825-.2891.7994-.6885 1.0597-1.2741 1.016.6464 1.5761 1.7546 1.4982 2.933-.0007.011-.0011.022-.0011.033 0 .964-.3442 1.8397-.9532 2.5469-.6939.6936-1.5344 1.0217-2.4522.9376-.0151-.0014-.0303-.0021-.0456-.0021-.9551 0-1.8145-.3463-2.5095-1.0469-.0078-.0078-.0159-.0155-.0242-.0228-.66753-.5887-1.01602-1.4396-1.01602-2.4127 0-2.4148 1.32212-4.6337 3.37912-5.9084.2347-.1455.3071-.4537.1616-.6884-.1454-.2348-.4536-.3071-.6884-.1617-2.3294 1.4436-3.85232 3.9727-3.85232 6.7585 0 1.1574.39929 2.2451 1.22318 3.0414-3.15087-1.2666-5.41235-4.2837-5.55521-7.9296.00217-2.1322.73055-4.6594 2.04062-6.23781zm8.12153 7.28351c.0002-.0001-.0011.0012-.004.0042zm8.2402-4.2312c0 .2762-.2239.5-.5.5s-.5-.2238-.5-.5c0-.2761.2239-.5.5-.5s.5.2239.5.5zm-8.6094 1.6026c.2762 0 .5-.2239.5-.5 0-.2762-.2238-.5-.5-.5-.2761 0-.5.2238-.5.5 0 .2761.2239.5.5.5zm-6.9492-5.71587c.27614 0 .5-.22385.5-.5 0-.27614-.22386-.5-.5-.5s-.5.22386-.5.5c0 .27615.22386.5.5.5z" fill="#18303f" fill-rule="evenodd"/></svg>