<svg fill="none" height="25" viewBox="0 0 25 25" width="25" xmlns="http://www.w3.org/2000/svg"><path d="m0 0h25v25h-25z" fill="#fff"/><path clip-rule="evenodd" d="m6.50147 1.77344c-2.69752 0-4.88428 2.18676-4.88428 4.88428 0 2.69751 2.18676 4.88428 4.88428 4.88428 2.69751 0 4.88423-2.18677 4.88423-4.88428 0-2.69752-2.18672-4.88428-4.88423-4.88428zm-5.884282 4.88428c0-3.2498 2.634482-5.884282 5.884282-5.884282s5.88423 2.634482 5.88423 5.884282-2.63444 5.88428-5.88423 5.88428c-3.2498 0-5.884282-2.63449-5.884282-5.88428z" fill="#92a0a9" fill-rule="evenodd"/><path d="m5.35711 3.22647c-.3168.176-.4752.35552-.4752.53856 0 .08448.02816.15488.08448.2112.05632.04928.11616.07392.17952.07392s.1408-.04224.23232-.12672.22528-.16896.40128-.25344c.18304-.09152.41184-.13728.6864-.13728.4576 0 .8096.11968 1.056.35904s.3696.57024.3696.99264c0 .25344-.0528.4928-.1584.71808-.09856.22528-.20064.39776-.30624.51744s-.25696.27104-.45408.45408c-.19008.176-.31328.29216-.3696.34848-.14784.16896-.26048.38368-.33792.64416-.07744.25344-.11616.6512-.11616 1.19328 0 .20416.09504.30624.28512.30624s.28512-.08096.28512-.24288c0-.4576.02112-.79552.06336-1.01376s.14432-.41536.30624-.59136c.04928-.06336.17248-.18656.3696-.3696.19712-.19008.35904-.35904.48576-.50688.13376-.14784.25696-.35904.3696-.6336.11968-.2816.17952-.57376.17952-.87648 0-.54912-.176-.99968-.528-1.35168-.34496-.352-.83424-.528-1.46784-.528-.43648 0-.81664.09152-1.14048.27456z" fill="#18303f"/><path d="m6.46514 10.7341c.18999 0 .34401-.154.34401-.344s-.15402-.344-.34401-.344-.34401.154-.34401.344.15402.344.34401.344z" fill="#18303f"/><path d="m5.35711 3.22647c-.3168.176-.4752.35552-.4752.53856 0 .08448.02816.15488.08448.2112.05632.04928.11616.07392.17952.07392s.1408-.04224.23232-.12672.22528-.16896.40128-.25344c.18304-.09152.41184-.13728.6864-.13728.4576 0 .8096.11968 1.056.35904s.3696.57024.3696.99264c0 .25344-.0528.4928-.1584.71808-.09856.22528-.20064.39776-.30624.51744s-.25696.27104-.45408.45408c-.19008.176-.31328.29216-.3696.34848-.14784.16896-.26048.38368-.33792.64416-.07744.25344-.11616.6512-.11616 1.19328 0 .20416.09504.30624.28512.30624s.28512-.08096.28512-.24288c0-.4576.02112-.79552.06336-1.01376s.14432-.41536.30624-.59136c.04928-.06336.17248-.18656.3696-.3696.19712-.19008.35904-.35904.48576-.50688.13376-.14784.25696-.35904.3696-.6336.11968-.2816.17952-.57376.17952-.87648 0-.54912-.176-.99968-.528-1.35168-.34496-.352-.83424-.528-1.46784-.528-.43648 0-.81664.09152-1.14048.27456z" stroke="#18303f" stroke-width=".5"/><path d="m6.46514 10.7341c.18999 0 .34401-.154.34401-.344s-.15402-.344-.34401-.344-.34401.154-.34401.344.15402.344.34401.344z" stroke="#18303f" stroke-width=".5"/><path clip-rule="evenodd" d="m13.7541 5.5083c-.2761 0-.5.22386-.5.5s.2239.5.5.5h5.7459c1.933 0 3.5 1.567 3.5 3.5v9.4917c0 1.933-1.567 3.5-3.5 3.5h-9.4917c-1.933 0-3.5-1.567-3.5-3.5v-5.7459c0-.2761-.22386-.5-.5-.5s-.5.2239-.5.5v5.7459c0 2.4853 2.01472 4.5 4.5 4.5h9.4917c2.4853 0 4.5-2.0147 4.5-4.5v-9.4917c0-2.48528-2.0147-4.5-4.5-4.5zm1 5.3236h.7606c.1145 0 .1711-.036.1978-.0627s.0627-.0833.0627-.1979c0-.1145-.036-.1711-.0627-.1978s-.0833-.0627-.1978-.0627h-.7606-.7605c-.1145 0-.1711.036-.1978.0627s-.0627.0833-.0627.1978c0 .1146.036.1712.0627.1979s.0833.0627.1978.0627zm.5-1.52106v-1.02102c0-.27614-.2238-.5-.5-.5-.2761 0-.5.22386-.5.5v1.02102h-.2605c-.3417 0-.6654.11611-.9049.35559s-.3556.56317-.3556.90487c0 .3418.1161.6655.3556.905.2395.2394.5632.3556.9049.3556h.2605v4.8235c0 .2762.2239.5.5.5.2762 0 .5-.2238.5-.5v-4.8235h.2606c.3417 0 .6654-.1162.9049-.3556.2395-.2395.3556-.5632.3556-.905 0-.3417-.1161-.66539-.3556-.90487s-.5632-.35559-.9049-.35559zm5.2039 5.32356h-.7606-.7605c-.0599 0-.129-.0255-.1817-.0747-.0476-.0445-.0788-.1047-.0788-.1858 0-.1145.036-.1711.0627-.1978s.0833-.0627.1978-.0627h.7605.7606c.1145 0 .1711.036.1978.0627s.0627.0833.0627.1978-.036.1711-.0627.1978-.0833.0627-.1978.0627zm-.2606-6.34458v4.82358h.2606c.3417 0 .6654.1161.9049.3556.2395.2394.3556.5631.3556.9049s-.1161.6654-.3556.9049-.5632.3556-.9049.3556h-.2606v1.021c0 .2762-.2238.5-.5.5-.2761 0-.5-.2238-.5-.5v-1.021h-.2605c-.6233 0-1.2605-.4961-1.2605-1.2605 0-.3418.1161-.6655.3556-.9049.2395-.2395.5632-.3556.9049-.3556h.2605v-4.82358c0-.27614.2239-.5.5-.5.2762 0 .5.22386.5.5zm-9.6261 5.82358h-.2605v2.542c0 .2762-.2238.5-.49996.5-.27614 0-.5-.2238-.5-.5v-2.542h-.26051c-.27614 0-.5-.2239-.5-.5 0-.2762.22386-.5.5-.5h.76051.76046c.1146 0 .1712-.036.1979-.0627s.0627-.0833.0627-.1978c0-.2762.2238-.5.5-.5.2761 0 .5.2238.5.5 0 .3417-.1162.6654-.3556.9049-.2395.2395-.5632.3556-.905.3556zm9.1262 4.6102c-.7317 0-1.3542.6225-1.3542 1.3542s.6225 1.3542 1.3542 1.3542 1.3542-.6225 1.3542-1.3542-.6225-1.3542-1.3542-1.3542zm-.3542 1.3542c0-.1795.1747-.3542.3542-.3542.1794 0 .3542.1747.3542.3542 0 .1794-.1748.3542-.3542.3542-.1795 0-.3542-.1748-.3542-.3542zm-5.9589-.0014c0-.7324.6231-1.3555 1.3555-1.3555.7325 0 1.3556.6231 1.3556 1.3555 0 .7325-.6231 1.3556-1.3556 1.3556-.7324 0-1.3555-.6231-1.3555-1.3556zm1.3555-.3555c-.1801 0-.3555.1754-.3555.3555 0 .1802.1754.3556.3555.3556.1802 0 .3556-.1754.3556-.3556 0-.1801-.1754-.3555-.3556-.3555zm-4.92898-.9974c-.73174 0-1.35426.6225-1.35426 1.3542 0 .7318.62252 1.3543 1.35426 1.3543.73178 0 1.35428-.6225 1.35428-1.3543 0-.7317-.6225-1.3542-1.35428-1.3542zm-.35426 1.3542c0-.1794.1748-.3542.35426-.3542.17947 0 .35428.1748.35428.3542 0 .1795-.17481.3543-.35428.3543-.17946 0-.35426-.1748-.35426-.3543z" fill="#18303f" fill-rule="evenodd"/></svg>