<svg fill="none" height="26" viewBox="0 0 25 26" width="25" xmlns="http://www.w3.org/2000/svg"><path clip-rule="evenodd" d="m3.44531 1.375h-.00065-.00065c-.13261 0-.25978.05268-.35355.14645l-1.82292 1.82291c-.19526.19527-.19526.51185 0 .70711s.51185.19526.70711 0l.97066-.97067v3.4817c0 2.04698 1.57803 3.625 3.625 3.625h4.16669c.2761 0 .5-.22386.5-.5s-.2239-.5-.5-.5h-4.16669c-1.49469 0-2.625-1.13031-2.625-2.625v-3.47909l.96806.96806c.19527.19526.51185.19526.70711 0s.19526-.51184 0-.70711l-1.80075-1.80075c-.09161-.10342-.2254-.16861-.37442-.16861zm12.68359 4.22559c0 .27614-.2239.5-.5.5s-.5-.22386-.5-.5c0-.27615.2239-.5.5-.5s.5.22385.5.5zm0 2c0 .27614-.2239.5-.5.5s-.5-.22386-.5-.5c0-.27615.2239-.5.5-.5s.5.22385.5.5zm-.5 2.50001c.2761 0 .5-.22387.5-.50001 0-.27615-.2239-.5-.5-.5s-.5.22385-.5.5c0 .27614.2239.50001.5.50001zm.5 1.5c0 .2761-.2239.5-.5.5s-.5-.2239-.5-.5c0-.2762.2239-.5.5-.5s.5.2238.5.5zm-.5 2.5c.2761 0 .5-.2239.5-.5 0-.2762-.2239-.5-.5-.5s-.5.2238-.5.5c0 .2761.2239.5.5.5zm.5 1.5c0 .2761-.2239.5-.5.5s-.5-.2239-.5-.5c0-.2762.2239-.5.5-.5s.5.2238.5.5zm-.5 2.5c.2761 0 .5-.2239.5-.5 0-.2762-.2239-.5-.5-.5s-.5.2238-.5.5c0 .2761.2239.5.5.5zm-.0273-16.7256c-1.3607 0-2.5 1.05987-2.5 2.41304v12.66886c-1.1989.7709-2 2.085-2 3.592 0 2.4097 2.0349 4.3261 4.5 4.3261 2.4639 0 4.5-1.9163 4.5-4.3261 0-1.5073-.8032-2.8211-2-3.5918v-12.66906c0-1.35317-1.1394-2.41304-2.5-2.41304zm-1.5 2.41304c0-.75978.6496-1.41304 1.5-1.41304.8503 0 1.5.65326 1.5 1.41304v12.95226c0 .1818.0986.3492.2576.4373 1.0491.5815 1.7424 1.654 1.7424 2.8713 0 1.8161-1.546 3.3261-3.5 3.3261-1.955 0-3.5-1.5099-3.5-3.3261 0-1.2176.6915-2.2899 1.742-2.8711.1592-.0881.258-.2556.258-.4375zm5.5002-.50009c-.2761 0-.5.22386-.5.5s.2239.5.5.5h4.6676c.2761 0 .5-.22386.5-.5s-.2239-.5-.5-.5zm0 4.78277c-.2761 0-.5.22385-.5.5 0 .27614.2239.5.5.5h3c.2762 0 .5-.22386.5-.5 0-.27615-.2238-.5-.5-.5zm0 4.78198c-.2761 0-.5.2238-.5.5 0 .2761.2239.5.5.5h1c.2762 0 .5-.2239.5-.5 0-.2762-.2238-.5-.5-.5zm-3.9926 7.1961c0 .0061-.0015.0128-.004.0185-.0002.0005-.0005.001-.0007.0015-.001.0021-.002.0037-.0029.005l-.0001.0001c-.0011-.0015-.0023-.0035-.0035-.0062-.0026-.0057-.004-.0125-.004-.0189s.0014-.0132.004-.0189c.0012-.0026.0024-.0047.0035-.0062l.0001.0001c.0011.0016.0024.0037.0036.0065.0025.0057.004.0124.004.0185zm-.0076-.971c-.5279 0-.9924.4143-.9924.971 0 .5568.4645.971.9924.971.5266 0 .9924-.4138.9924-.971s-.4658-.971-.9924-.971z" fill="#18303f" fill-rule="evenodd"/></svg>