<svg fill="none" height="15" viewBox="0 0 15 15" width="15" xmlns="http://www.w3.org/2000/svg"><path d="m.499999 7.5c0 3.866 3.134011 7 7.000001 7 3.866 0 7-3.134 7-7 0-3.86599-3.134-7-7-7-3.86599 0-7.000001 3.13401-7.000001 7z" stroke="#2d3436"/><g clip-rule="evenodd" fill="#2d3436" fill-rule="evenodd"><path d="m7 0c-.12359 0-.24456.0112098-.36195.032668-.25539.0466849-.52071.046685-.7761.0000001-.11739-.0214583-.23836-.0326681-.36195-.0326681-1.10457 0-2 .895431-2 2 0 .65976.31946 1.24491.81214 1.6092.34334.25385.68786-.18221.68786-.6092 0-.13442.18438-.14939.24954-.03182.17569.31696.43496.58117.74805.76286.28977.16816.55124-.17648.51454-.50949-.00802-.07275-.01213-.14667-.01213-.22155 0-.13443.18438-.14939.24955-.03182.17568.31696.43495.58116.74804.76286.28978.16816.55124-.17648.51454-.5095-.00801-.07274-.01213-.14666-.01213-.22154 0-1.10457.89543-2 2-2 .0999 0 .1686-.107442.1092-.187797-.36424-.492713-.94941-.812203-1.6092-.812203-.12359 0-.24456.0112098-.36195.0326682-.25539.0466853-.52071.0466854-.7761.0000001-.11739-.0214584-.23836-.0326683-.36195-.0326683z"/><path d="m7 6.75c0 1.24264-1.00736 2.25-2.25 2.25s-2.25-1.00736-2.25-2.25 1.00736-2.25 2.25-2.25c.79011 0 1.48511.40726 1.88651 1.02331.24416-.17218.54201-.27331.86349-.27331.32147 0 .61933.10113.86348.27331.40141-.61605 1.0964-1.02331 1.88652-1.02331 1.2426 0 2.25 1.00736 2.25 2.25s-1.0074 2.25-2.25 2.25c-1.24265 0-2.25001-1.00736-2.25001-2.25 0-.00084 0-.00168 0-.00253-.00136-.27498-.22469-.49747-.49999-.49747-.27614 0-.5.22386-.5.5z"/></g></svg>