<svg fill="none" height="15" viewBox="0 0 15 15" width="15" xmlns="http://www.w3.org/2000/svg"><path d="m.499999 7.5c0 3.866 3.134011 7 7.000001 7 3.866 0 7-3.134 7-7 0-3.86599-3.134-7-7-7-3.86599 0-7.000001 3.13401-7.000001 7z" stroke="#2d3436"/><path clip-rule="evenodd" d="m7.50358 3.00003c.96906 0 1.91972-.07877 2.84592-.23025.6127-.1002 1.1955.33782 1.3122.94762.3209 1.67633 1.1016 3.15604 2.1836 4.25768.4448.45297 1.1547.15984 1.1547-.47504 0-2.07631-.8437-3.95556-2.207-5.3136-.3807-.37919-.8018-.71775-1.2565-1.00862-1.1653-.745577-2.55042-1.17778948-4.0365-1.17778948-1.48604 0-2.87115.43219448-4.03646 1.17773948-.00001.00001-.00002 0-.00002-.00001 0 0-.00001-.00001-.00002 0-2.08281 1.33256-3.4635 3.66615-3.4635 6.32223 0 .63469.709664.92777 1.15443.47497 1.08224-1.10179 1.8632-2.58182 2.18402-4.25853.11672-.61003.6998-1.04818 1.31271-.94771.92826.15218 1.8811.23131 2.85242.23131zm-4.40841 6.99343c-.02826.03564-.02667.08654.00345.12054 1.03142 1.1659 2.46529 1.4671 3.70246.9064.4186-.1897.91481-.1866 1.33059.0092 1.24743.5874 2.70333.2922 3.74673-.8887.0307-.0348.0323-.0867.0035-.123-1.0115-1.27315-2.47847-1.64307-3.75671-1.10671-.39165.16434-.84477.16158-1.23413-.00815-1.28742-.5612-2.77424-.19665-3.79589 1.09042z" fill="#2d3436" fill-rule="evenodd"/></svg>