<svg fill="none" height="40" viewBox="0 0 40 40" width="40" xmlns="http://www.w3.org/2000/svg"><circle cx="20" cy="20" fill="#18303f" r="19.5" stroke="#09f9bf"/><path clip-rule="evenodd" d="m30.5833 8.79673c.2055-.20554.5388-.20554.7443 0 .2056.20554.2056.53879 0 .74433l-5.638 5.63794c.5995.9328.9768 2.0249 1.0548 3.2042l.5051 7.641c.0127.1914-.0093.3768-.0603.5501l4.8843 4.8842c.2055.2056.2055.5388 0 .7444-.2056.2055-.5388.2055-.7444 0l-4.768-4.7681c-.2522.1717-.5573.2725-.8871.2725h-3.111c-.1584 1.2732-1.2444 2.2586-2.5606 2.2586-1.3161 0-2.4022-.9854-2.5606-2.2586h-3.1141c-.3316 0-.6381-.1019-.8911-.2752l-4.77079 4.7708c-.20554.2055-.53878.2055-.74432 0-.20554-.2056-.20554-.5388 0-.7444l4.88951-4.8894c-.05-.1719-.0713-.3554-.0588-.5449l.5052-7.641c.0778-1.1775.4541-2.2682 1.052-3.2001l-5.64207-5.64204c-.20554-.20554-.20554-.53879 0-.74433s.53879-.20554.74432 0l5.53995 5.53997c1.2415-1.394 3.049-2.2659 5.0493-2.2659 1.9985 0 3.8046.8704 5.046 2.2623zm-6.2822 6.28217c-1.049-1.2017-2.5913-1.9554-4.3002-1.9554-1.7107 0-3.2544.7552-4.3034 1.959l4.3 4.3001zm-9.2263.8696c-.4344.7417-.7068 1.5921-.7671 2.5042l-.4686 7.0882 5.414-5.414zm-.8506 10.696c.0334.0066.068.0101.1035.0101h11.3463c.0335 0 .0662-.0031.0978-.009l-5.7743-5.7744zm11.9389-1.0963-.4691-7.0955c-.0604-.9139-.3337-1.7657-.7696-2.5085l-4.1826 4.1827zm-7.6546 2.1591c.1478.6892.7605 1.2059 1.4939 1.2059s1.3461-.5167 1.4939-1.2059z" fill="#09f9bf" fill-rule="evenodd"/></svg>