<svg fill="none" height="26" viewBox="0 0 25 26" width="25" xmlns="http://www.w3.org/2000/svg"><path clip-rule="evenodd" d="m14.6797 2.77222c0-.27615-.2239-.5-.5-.5-.2762 0-.5.22385-.5.5v3.20332l-.4725.16699c-.5994.21184-1.0002.77853-1.0002 1.41427v1.28741l-8.11038-.9513c-.89157-.10458-1.67474.5921-1.67474 1.48978v14.21581c0 .2761.22385.5.5.5h9.78512c.0073 0 .0146-.0002.0218-.0005h3.1306 2.9221 3.8183c.2762 0 .5-.2238.5-.5v-18.83069c0-1.0352-1.0237-1.75923-1.9998-1.41427l-6.4203 2.26908zm7.4201 1.99509c0-.34507-.3412-.58641-.6666-.47143l-7.8928 2.7895c-.1998.07061-.3334.25951-.3334.47142v1.84949 13.69171h2.1524v-3.985c0-.6903.5596-1.25 1.25-1.25h1.4221c.6904 0 1.25.5597 1.25 1.25v.0728c0 .2761-.2238.5-.5.5-.2761 0-.5-.2239-.5-.5v-.0728c0-.138-.1119-.25-.25-.25h-1.4221c-.1381 0-.25.112-.25.25v3.985h1.9221v-.8087c0-.2762.2239-.5.5-.5.2762 0 .5.2238.5.5v.8087h2.8183v-8.8912h-5.7404c-.2762 0-.5-.2239-.5-.5 0-.2762.2238-.5.5-.5h5.7404v-3h-3.592c-.2761 0-.5-.22387-.5-.50001 0-.27615.2239-.5.5-.5h3.592zm-18.11968 4.11879 8.22688.96497v13.24743h-3.92547v-1.9855c0-.6903-.55964-1.25-1.25-1.25h-.71108c-.27614 0-.5.2239-.5.5 0 .2762.22386.5.5.5h.71108c.13807 0 .25.112.25.25v1.985h-1.92215v-1.1175c0-.2761-.22386-.5-.5-.5-.27615 0-.5.2239-.5.5v1.118h-.9375v-4.8917h3.59346c.27615 0 .5-.2239.5-.5 0-.2762-.22385-.5-.5-.5h-3.59346v-3h3.59346c.27615 0 .5-.2239.5-.5 0-.2762-.22385-.5-.5-.5h-3.59346v-3.82411c0-.29922.26105-.53145.55824-.49659zm5.50035 4.3207c-.27614 0-.5.2238-.5.5 0 .2761.22386.5.5.5h1.03493c.2761 0 .5-.2239.5-.5 0-.2762-.2239-.5-.5-.5zm0 4c-.27614 0-.5.2238-.5.5 0 .2761.22386.5.5.5h1.03493c.2761 0 .5-.2239.5-.5 0-.2762-.2239-.5-.5-.5zm-4.13281 3.1807c0 .2761-.22386.5-.5.5-.27615 0-.5-.2239-.5-.5 0-.2762.22385-.5.5-.5.27614 0 .5.2238.5.5zm13.50004.8125c.2761 0 .5-.2239.5-.5 0-.2762-.2239-.5-.5-.5-.2762 0-.5.2238-.5.5 0 .2761.2238.5.5.5z" fill="#18303f" fill-rule="evenodd"/></svg>