<svg fill="none" height="54" viewBox="0 0 53 54" width="53" xmlns="http://www.w3.org/2000/svg"><path clip-rule="evenodd" d="m22.1994 5.19446c-1.225 0-2.2875.69945-2.8083 1.72307-.0964.18958-.3023.29738-.5131.26869-.1066-.01451-.2156-.02204-.3267-.02204-1.3227 0-2.3951 1.07232-2.3951 2.39509 0 1.32233 1.0716 2.39433 2.3937 2.39503l.0346-.0002h.0031 7.6497c.0215-.0019.0431-.0024.0649-.0015.0238.001.0477.0015.0718.0015.9357 0 1.6942-.7586 1.6942-1.6943s-.7585-1.69425-1.6942-1.69425c-.1425 0-.2801.01746-.4112.05012-.1445.03597-.2974.00571-.4173-.08255s-.1942-.22534-.2027-.37395c-.095-1.65311-1.4662-2.96471-3.1434-2.96471zm4.1104 7.75884c-.0094.0006-.0188.0008-.0283.0008h-7.6922-.0017l-.0332.0002h-.0031c-1.875 0-3.3951-1.52-3.3951-3.39503 0-1.87506 1.5201-3.39509 3.3951-3.39509.0388 0 .0775.00066.116.00195.7302-1.18238 2.0386-1.97167 3.5321-1.97167 2.0261 0 3.7128 1.45224 4.0762 3.37287.0326-.00118.0654-.00178.0984-.00178 1.488 0 2.6942 1.20627 2.6942 2.69425 0 1.488-1.2062 2.6943-2.6942 2.6943-.0215 0-.0429-.0003-.0642-.0008zm7.4547.6767c.1513.0011.294.0707.388.1891l5.4021 6.8053c1.0915 1.0563.9321 2.4643.2473 3.327-.3427.4317-.8388.7581-1.4107.8258l2.1247 2.974 1.4138-1.7297c.096-.1175.2401-.185.3917-.1836.1517.0014.2945.0716.3883.1908l3.8314 4.868c.8696.7662.7476 1.8622.238 2.5264-.2165.2822-.5219.516-.884.6184l2.4469 3.4643c.3777.3761.5326.8364.5099 1.2867-.0228.4512-.2213.8686-.5018 1.1793-.216.2393-.5011.4374-.8269.5316l1.7238 2.4884c.4968.5819.5324 1.3383.2903 1.9325-.2441.599-.8095 1.1173-1.5769 1.1173h-11.2872c-.7909 0-1.3615-.4619-1.611-1.0623v4.0588c0 .2761-.2238.5-.5.5h-10.402c-.2762 0-.5-.2239-.5-.5s.2238-.5.5-.5h1.2079v-2.047c0-.2762.2239-.5.5-.5.2762 0 .5.2238.5.5v2.047h7.6941v-13.4113l-11.0643-10.4447c-.0389-.0368-.0717-.0795-.0971-.1266l-.0034-.003c-.0118-.0096-.0336-.0239-.0671-.0386-.0717-.0315-.1509-.0452-.1973-.0452-.0588 0-.1758.0267-.3566.2055l-.0082.008-.0001-.0001-10.8267 10.2204v13.6348h5.8349c.2761 0 .5.2239.5.5s-.2239.5-.5.5h-6.3349c-.2761 0-.5-.2239-.5-.5v-13.1908l-1.39114 1.3132c-.20081.1896-.51726.1805-.70682-.0203-.18955-.2008-.18044-.5173.02037-.7068l13.21399-12.474c.2904-.2855.644-.4899 1.0552-.4899.1897 0 .4055.0445.5994.1296.1645.0722.3664.1977.5027.4045l3.4546 3.2611 1.7975-2.516c-.5486-.0926-1.0297-.4299-1.3686-.853-.3488-.4354-.5823-1.0041-.5823-1.6009 0-.5985.2362-1.2007.7762-1.6808l5.5614-6.7997c.0957-.1171.2394-.1846.3906-.1835zm1.2977 29.8931c.0764-.1874.184-.3672.3245-.5314l1.7237-2.4883c-.3258-.0942-.6109-.2923-.8269-.5316-.2804-.3107-.479-.7281-.5018-1.1793-.0226-.4486.1311-.9072.5057-1.2826l.1536-.2278c-.0818-.0198-.1596-.0605-.2252-.1224l-1.1536-1.0889zm1.9031-7.0186 1.62-2.4028c-.367-.1023-.6715-.3457-.8842-.6325-.5005-.6749-.6304-1.8056.2465-2.5757l1.9125-2.34-3.2191-4.5059c-.1523-.2132-.1142-.5078.0873-.6752.2015-.1675.4981-.1509.6798.0379.3153.3277.6173.4026.8635.374.2633-.0305.536-.1887.7471-.4547.4189-.5277.509-1.3552-.1778-2.0041-.0173-.0164-.0334-.0339-.0482-.0526l-5.0376-6.346-5.1949 6.3517c-.0185.0227-.039.0437-.0613.0627-.3392.2914-.4626.6274-.4626.9527 0 .3397.1363.6929.3628.9757.2285.2854.5139.4568.7715.4948.2307.0341.4955-.0282.7611-.3349.1748-.2019.4774-.2307.6873-.0655.2098.1653.2527.4662.0975.6835l-2.7929 3.9092 8.9786 8.4758c.0237.0223.0448.0464.0631.0719zm-27.12155-13.5561c-.27614 0-.5.2238-.5.5 0 .2761.22386.5.5.5.91975 0 1.64245.7226 1.64245 1.617 0 .2761.2239.5.5.5.2762 0 .5-.2239.5-.5 0-.8946.7223-1.617 1.6419-1.617.2761 0 .5-.2239.5-.5 0-.2762-.2239-.5-.5-.5-.8823 0-1.6624.4227-2.142 1.0787-.4798-.656-1.2602-1.0787-2.14235-1.0787zm6.00475-3.2441c0-.2761.2239-.5.5-.5.8822 0 1.6626.4228 2.1424 1.0787.4796-.6559 1.2597-1.0787 2.1419-1.0787.2762 0 .5.2239.5.5 0 .2762-.2238.5-.5.5-.9195 0-1.6418.7225-1.6418 1.617 0 .2762-.2238.5-.5.5-.2761 0-.5-.2238-.5-.5 0-.8943-.7227-1.617-1.6425-1.617-.2761 0-.5-.2238-.5-.5zm14.2687 17.2353c.2761 0 .5-.2239.5-.5 0-.2762-.2239-.5-.5-.5-.2762 0-.5.2238-.5.5 0 .2761.2238.5.5.5zm12.7121 12.0985c0 .2761-.2239.5-.5.5-.2762 0-.5-.2239-.5-.5s.2238-.5.5-.5c.2761 0 .5.2239.5.5zm-16.961-3.7693c.2761 0 .5-.2238.5-.5 0-.2761-.2239-.5-.5-.5s-.5.2239-.5.5c0 .2762.2239.5.5.5zm-6.5636-2.3245c0-.8284.6716-1.5 1.5-1.5h4.0634c.8285 0 1.5.6716 1.5 1.5v.1225c0 .2761-.2238.5-.5.5-.2761 0-.5-.2239-.5-.5v-.1225c0-.2761-.2238-.5-.5-.5h-4.0634c-.2762 0-.5.2239-.5.5v5.5936h.5317c.2762 0 .5.2238.5.5 0 .2761-.2238.5-.5.5h-1.0317c-.2762 0-.5-.2239-.5-.5zm19.3893-11.3839 3.6154-4.4234 3.4759 4.4162c.0212.027.0452.0517.0715.0738.4217.3538.391.8458.1289 1.1874-.1309.1707-.2926.2616-.4331.2791-.1211.0151-.2933-.0151-.4956-.2299-.18-.1911-.4771-.2105-.6804-.0444-.2032.1662-.2434.4612-.092.6756l3.2674 4.6258c.0192.0271.041.0523.0652.0751.1884.1779.245.3678.236.5464-.0097.1928-.0989.3974-.2454.5597-.1481.164-.3199.2479-.4609.2594-.118.0096-.2695-.0249-.4343-.2248-.1705-.2069-.4737-.2425-.6875-.0808s-.262.4631-.1094.6835l2.5248 3.6445c.0111.0161.0232.0315.0361.0462.2261.256.2604.6084.1346.9171-.1272.3121-.3787.4947-.6508.4947h-11.2872c-.366 0-.5987-.2018-.7001-.4781-.1069-.2914-.0603-.6572.1839-.9337.0129-.0147.025-.0301.0362-.0462l2.5247-3.6445c.1527-.2204.1044-.5218-.1094-.6835s-.517-.1261-.6875.0808c-.1647.1999-.3163.2344-.4343.2248-.141-.0115-.3128-.0954-.4608-.2594-.1466-.1623-.2357-.3669-.2455-.5597-.009-.1786.0476-.3685.236-.5464.0269-.0253.0508-.0535.0714-.0841l3.1188-4.6257c.1484-.2201.0989-.5178-.1127-.6781s-.5116-.1272-.6833.0753c-.2121.2503-.3844.279-.4889.2683-.1265-.013-.2841-.0981-.4174-.2779-.2721-.3669-.2942-.8957.124-1.2465.0239-.0201.046-.0424.0657-.0666zm-35.54166-16.8222c0-1.6379 1.32775-2.9656 2.9656-2.9656 1.54531 0 2.81505 1.1823 2.95311 2.6913.01869.2043.16024.3764.35705.4342.19682.0578.40896-.0105.53512-.1722.33828-.4337.86428-.7111 1.45518-.7111 1.0186 0 1.8443.8257 1.8443 1.8442 0 .9732-.7542 1.7707-1.7096 1.8394-.0141.001-.028.0026-.0417.0047h-.0746l-.0038.0001h-.0146-.0145v-.0001h-.0038-5.21585l-.00938.0001c-.01893.0004-.03791.0006-.05693.0006-.01903 0-.03801-.0002-.05694-.0006l.00001-.0001h-.00939-.01698c-.00705-.0005-.01415-.0009-.02128-.0011-1.58925-.0549-2.86102-1.361-2.86102-2.9638zm8.26606 3.965.0184-.0001h.1522c.0417 0 .0822-.0051.1209-.0147 1.4341-.1462 2.5528-1.3569 2.5528-2.8294 0-1.5708-1.2734-2.8442-2.8443-2.8442-.5685 0-1.0982.167-1.5424.4542-.5293-1.5678-2.01168-2.6964-3.75806-2.6964-2.19014 0-3.9656 1.7754-3.9656 3.9656 0 2.1295 1.67844 3.8669 3.78485 3.9615.01932.0023.03898.0034.0589.0034h.05101c.02357.0005.04718.0007.07084.0007s.04727-.0002.07084-.0007h5.21132z" fill="#18303f" fill-rule="evenodd"/></svg>