<svg fill="none" height="46" viewBox="0 0 45 46" width="45" xmlns="http://www.w3.org/2000/svg"><g stroke="#18303f" stroke-linecap="round" stroke-linejoin="round"><path d="m23.2747 23.5031 2.4597-3.4428c-1.2559 1.4502-3.3489-1.0547-1.814-2.3731l4.7443-5.8008 4.6048 5.8008c1.5349 1.4502-.4186 3.8233-1.814 2.3731l2.8637 4.0084"/><path d="m9.28987 29.4453v12.0794h5.37863"/><path d="m29.3453 29.5663v11.9591h-8.832"/><path d="m7.39276 31.1313 11.22274-10.5943c.2004-.198.4008-.297.6012-.297s.501.099.6012.297l11.2228 10.5943"/><path d="m8.35789 19.7983c1.01061 0 1.81911.7988 1.81911 1.7974 0-.9986.8079-1.7974 1.8185-1.7974"/><path d="m13.881 16.6194c1.0106 0 1.8191.7988 1.8191 1.7974 0-.9986.8079-1.7974 1.8185-1.7974"/></g><g fill="#18303f"><ellipse cx="25.5712" cy="30.8285" rx=".424529" ry=".424528"/><circle cx="35.9401" cy="41.5254" r=".424528"/><ellipse cx="21.9638" cy="37.9006" rx=".424527" ry=".42453"/></g><path d="m21.9635 41.5252v-2.1624m0-2.8377v-.0228c0-.5522-.4477-1-1-1h-3.1482c-.5523 0-1 .4478-1 1.0001v5.0228h.876" stroke="#18303f" stroke-linecap="round" stroke-linejoin="round"/><path d="m37.9471 28.0833c1.0088 1.0712 2.3959-.714 1.261-1.6662l-3.2786-4.1655-3.4046 4.1655c-1.1349.9522.2522 2.8564 1.261 1.6662l-2.6481 3.9275c-1.0087.9522.5044 2.6184 1.3871 1.5472l-2.1436 3.0944c-.6305.7141-.2522 1.9043.7565 1.9043h9.5835c.8826 0 1.387-1.1902.7565-1.9043l-2.1436-3.0944c.8827 1.0712 2.3958-.595 1.3871-1.5472z" stroke="#010101" stroke-linecap="round" stroke-linejoin="round"/><g fill="#18303f"><path d="m22.3145 10.4619.0207-.49959c-.1361-.00565-.2686.04449-.3669.13879s-.1538.2246-.1538.3608zm0 .0016v.5c.2761 0 .5-.2238.5-.5zm-6.5327 0v-.49997l-.003.00002zm-.0307.0002v.5h.0031zm.3347-4.89356-.0675.49543c.2108.02869.4167-.07911.5131-.2687zm5.8555 1.22238-.4992.02868c.0085.14862.0829.2857.2027.37396.1199.08826.2729.11851.4173.08254zm-.1268 3.66938v.0016h1v-.0016zm.5-.49836h-6.5327v.99996h6.5327zm-6.5357.00001-.0307.00018.0061.99997.0307-.0002zm-.0277.00017c-1.0814 0-1.9581-.87666-1.9581-1.95808h-1c0 1.6337 1.3244 2.95806 2.9581 2.95806zm-1.9581-1.95808c0-1.08143.8767-1.95809 1.9581-1.95809v-1c-1.6337 0-2.9581 1.32438-2.9581 2.95809zm1.9581-1.95809c.0909 0 .1801.00616.2672.01802l.1349-.99086c-.1317-.01793-.2659-.02716-.4021-.02716zm.7803-.25068c.4298-.84479 1.3066-1.42173 2.3172-1.42173v-1c-1.4014 0-2.6147.80123-3.2085 1.96826zm2.3172-1.42173c1.3838 0 2.5151 1.08218 2.5935 2.44606l.9984-.05736c-.1086-1.88994-1.6751-3.3887-3.5919-3.3887zm3.2135 2.90256c.1054-.02625.2162-.04031.3309-.04031v-1c-.1968 0-.3887.02417-.5725.06995zm.3309-.04031c.7528 0 1.363.61026 1.363 1.36305h1c0-1.30508-1.0579-2.36305-2.363-2.36305zm1.363 1.36305c0 .7528-.6102 1.36306-1.363 1.36306v1c1.3051 0 2.363-1.05797 2.363-2.36306zm-1.363 1.36306c-.0194 0-.0387-.0004-.0578-.00119l-.0414.99909c.0329.0014.066.0021.0992.0021z"/><path d="m5.09102 15.3435h.5c0-.2694-.21348-.4904-.48274-.4997zm0 .0013h-.5c0 .2761.22385.5.5.5zm.04712 0 .0094-.5h-.0094zm.11266 0v-.5001l-.0094.0002zm4.4286 0 .00383-.5h-.00383zm.031 0v-.5h-.00383zm.12931 0v.5c.27619 0 .49999-.2239.49999-.5zm0-.0051-.03586-.4988c-.26155.0189-.46414.2365-.46414.4988zm-1.71512-3.2084-.49792.0456c.01869.2042.16024.3764.35705.4342.19682.0577.40896-.0105.53512-.1723zm-3.01631 2.7125c-1.30885-.0452-2.3563-1.1209-2.3563-2.441h-1c0 1.8609 1.47627 3.3767 3.32177 3.4404zm.48274.501v-.0013h-1v.0013zm-.45288-.5h-.04712v1h.04712zm.05633.0005c-.01569 0-.03134-.0001-.04694-.0004l-.01878.9998c.02187.0004.04378.0006.06572.0006zm.04693-.0004c-.01559.0003-.03124.0004-.04693.0004v1c.02194 0 .04385-.0002.06572-.0006zm4.438-.0001h-4.4286v1h4.4286zm.0155 0c-.00391 0-.0078 0-.01167 0l-.00767 1h.01934zm.01167 0c-.00387 0-.00776 0-.01167 0v1h.01934zm.13314 0h-.12931v1h.12931zm-.5.4949v.0051h.99999v-.0051zm1.84559-1.9852c0 .7864-.6095 1.4309-1.38145 1.4864l.07172.9975c1.29133-.0929 2.30973-1.1692 2.30973-2.4839zm-1.4904-1.4904c.8231 0 1.4904.6673 1.4904 1.4904h1c0-1.3754-1.115-2.4904-2.4904-2.4904zm-1.17606.5747c.27357-.3507.69852-.5747 1.17606-.5747v-1c-.79866 0-1.50964.3765-1.96455.9597zm-3.32437-2.47846c1.27268 0 2.3185.97376 2.4322 2.21656l.99584-.0911c-.16037-1.7529-1.63363-3.12546-3.42804-3.12546zm-2.44249 2.44246c0-1.3489 1.09354-2.44246 2.44249-2.44246v-1c-1.90123 0-3.44249 1.54126-3.44249 3.44246z"/></g></svg>