<svg fill="none" height="46" viewBox="0 0 45 46" width="45" xmlns="http://www.w3.org/2000/svg"><path clip-rule="evenodd" d="m15.8958 8.33983c0-1.34895 1.0935-2.44249 2.4425-2.44249 1.2727 0 2.3185.97376 2.4322 2.21652.0187.20427.1602.3764.357.43419s.409-.01048.5351-.17222c.2736-.35072.6986-.57475 1.1761-.57475.8231 0 1.4904.66727 1.4904 1.49038 0 .78644-.6094 1.43094-1.3814 1.48644-.0121.0009-.024.0022-.0357.0039h-.0578-.0038-.0117-.0117-.0038-4.4286v-.0001l-.0094.0002c-.0156.0003-.0312.0004-.0469.0004s-.0314-.0001-.047-.0004v-.0001h-.0093-.0117c-.006-.0004-.0121-.0008-.0182-.001-1.3089-.0452-2.3563-1.12087-2.3563-2.44097zm6.9429 3.44197h.0155.1293c.0398 0 .0785-.0047.1156-.0134 1.2533-.1305 2.23-1.1894 2.23-2.47694 0-1.3754-1.115-2.49038-2.4904-2.49038-.4638 0-.898.12697-1.2697.34765-.4847-1.31436-1.7481-2.25139-3.2307-2.25139-1.9013 0-3.4425 1.54125-3.4425 3.44249 0 1.84777 1.4556 3.35527 3.2829 3.43887.0184.002.0372.0031.0561.0031h.0426c.0203.0003.0406.0005.0609.0005s.0406-.0002.0608-.0005h4.4241zm-13.87368 1.9668c-1.0106 0-1.88732.577-2.31715 1.4218-.09646.1895-.3023.2973-.51307.2687-.08714-.0119-.17632-.0181-.26721-.0181-1.08142 0-1.95809.8767-1.95809 1.9581 0 1.081.87589 1.9573 1.95666 1.9581l.02915-.0002h.00306 6.49183c.0203-.0016.0408-.0021.0614-.0012.0192.0008.0384.0012.0578.0012.7528 0 1.3631-.6103 1.3631-1.3631s-.6103-1.363-1.3631-1.363c-.1147 0-.2254.014-.3308.0403-.1445.036-.2974.0057-.4173-.0826-.1199-.0882-.1942-.2253-.2027-.3739-.0784-1.3639-1.2098-2.4461-2.59358-2.4461zm3.49108 6.5878c-.0083.0004-.0167.0006-.0252.0006h-6.53101l-.02923.0002h-.00307c-1.63371 0-2.95809-1.3244-2.95809-2.9581s1.32438-2.9581 2.95809-2.9581c.01915 0 .03826.0002.05733.0006.63748-1.0048 1.76039-1.673 3.0401-1.673 1.73498 0 3.18298 1.2279 3.52258 2.8624l.0218-.0001c1.3051 0 2.3631 1.058 2.3631 2.363 0 1.3051-1.058 2.3631-2.3631 2.3631-.0178 0-.0355-.0002-.0533-.0006zm20.3603-6.3134c-.8284 0-1.5.6716-1.5 1.5v1.9611c0 .0193.0011.0383.0032.057l-9.1055-3.3975c-.9802-.3658-2.0244.3591-2.0244 1.4053v6.2231c-.2987-.1065-.6358-.12-.9696-.0101l-9.26948 3.0517c-.20507.0675-.34365.259-.34365.4749v10.738l-.15159-.1153c-.53673-.4085-1.28011-.4085-1.81685 0l-.49912.3798c-.03164.0241-.06218.0493-.09157.0756-.02939-.0263-.05992-.0515-.09157-.0756l-.49912-.3798c-.53673-.4085-1.28012-.4085-1.81685 0l-.49912.3798c-.37275.2837-.59157.7252-.59157 1.1936v3.404c0 .2761.22386.5.5.5s.5-.2239.5-.5v-3.404c0-.1561.07294-.3033.19719-.3978l.49912-.3799c.17891-.1362.4267-.1362.60561 0l.49912.3799c.12425.0945.19719.2417.19719.3978v3.7872c0 .2761-.22386.5-.5.5h-.49912c-.27614 0-.5.2238-.5.5 0 .2761.22386.5.5.5h.49912c.38418 0 .73463-.1445 1.00001-.382.26537.2375.61581.382.99999.382h.99823c.24817 0 .48225-.0603.68843-.167.09154.1022.2245.1664.3725.1664h10.5601c.0075.0004.0151.0005.0226.0005h16.5196c.1379 0 .2628-.0558.3532-.1461.1959.0937.4152.1462.6468.1462h1.9982c.2761 0 .5-.2239.5-.5 0-.2762-.2239-.5-.5-.5h-1.9982c-.2762 0-.5-.2239-.5-.5v-3.7872c0-.1561.0729-.3033.1971-.3978l.4992-.3799c.1789-.1362.4267-.1362.6056 0l.4991.3799c.1242.0945.1972.2417.1972.3978v1.6742c0 .2761.2238.5.5.5.2761 0 .5-.2239.5-.5v-1.6742c0-.4684-.2188-.9099-.5916-1.1936l-.4991-.3798c-.5367-.4085-1.2801-.4085-1.8169 0l-.0906.069v-15.0136c0-.6261-.389-1.1864-.9757-1.4053l-1.1374-.4244c.0102-.0398.0156-.0815.0156-.1245v-3.4894c0-.8284-.6716-1.5-1.5-1.5zm-25.26856 27.2488v-3.7872c0-.1561.07294-.3033.19719-.3978l.49912-.3799c.17891-.1362.4267-.1362.60562 0l.49911.3799c.12425.0945.19719.2417.19719.3978v3.7872c0 .2761-.22386.5-.5.5h-.99823c-.27614 0-.5-.2239-.5-.5zm29.16146-3.7872v-16.518c0-.2087-.1297-.3955-.3253-.4684l-14.5195-5.4177c-.3267-.1219-.6748.1197-.6748.4684v26.2228h2.2507c-.0554-.1565-.0856-.325-.0856-.5006v-4.1118c0-.8285.6716-1.5 1.5-1.5h8.0591c.8285 0 1.5.6715 1.5 1.5v.5279c0 .2762-.2238.5-.5.5-.2761 0-.5-.2238-.5-.5v-.5279c0-.2762-.2238-.5-.5-.5h-3.7279c.0013.0149.002.0301.002.0454v5.0664h3.7259c.2762 0 .5-.2239.5-.5v-.528c0-.2761.2239-.5.5-.5.2762 0 .5.2239.5.5v.528c0 .1756-.0301.3441-.0856.5006h2.381v-.4999zm-8.5213 4.2865v-5.0664c0-.0153.0007-.0305.0021-.0454h-3.3353c-.2761 0-.5.2238-.5.5v4.1118c0 .2761.2239.5.5.5zm6.4238-23.0015v-3.2466c0-.2761-.2238-.5-.5-.5h-1.2954c-.2761 0-.5.2239-.5.5v1.9611c0 .1459-.0624.2771-.162.3685zm-15.079 3.9422c.3234-.1065.6563.1344.6563.4749v18.5845h-2.2523v-4.5655c0-.8285-.6715-1.5-1.5-1.5h-2.1073c-.8284 0-1.5.6715-1.5 1.5v4.5655h-2.2225v-16.1209zm14.4236 17c.2761 0 .5-.2239.5-.5 0-.2762-.2239-.5-.5-.5-.2762 0-.5.2238-.5.5 0 .2761.2238.5.5.5zm-29.20315 2.5488c0 .2762-.22386.5-.5.5s-.5-.2238-.5-.5c0-.2761.22386-.5.5-.5s.5.2239.5.5zm35.44925-1.0478c.2761 0 .5-.2239.5-.5 0-.2762-.2239-.5-.5-.5-.2762 0-.5.2238-.5.5 0 .2761.2238.5.5.5zm-25.873-4.5071c-.2761 0-.5.2238-.5.5v4.5654h3.1073v-4.5654c0-.2762-.2238-.5-.5-.5zm12.352-9.0248c0-.9767.7918-1.7685 1.7685-1.7685.9768 0 1.7686.7918 1.7686 1.7685 0 .9768-.7918 1.7686-1.7686 1.7686-.9767 0-1.7685-.7918-1.7685-1.7686zm1.7685-2.7685c-1.529 0-2.7685 1.2395-2.7685 2.7685 0 1.5291 1.2395 2.7686 2.7685 2.7686 1.5291 0 2.7686-1.2395 2.7686-2.7686 0-1.529-1.2395-2.7685-2.7686-2.7685z" fill="#18303f" fill-rule="evenodd"/></svg>