<svg fill="none" height="54" viewBox="0 0 53 54" width="53" xmlns="http://www.w3.org/2000/svg"><path clip-rule="evenodd" d="m18.6328 9.86135c0-1.63786 1.3278-2.9656 2.9656-2.9656 1.5453 0 2.8151 1.18232 2.9531 2.69136.0187.20427.1603.3764.3571.43419.1968.0578.4089-.0105.5351-.17222.3383-.43373.8642-.71114 1.4552-.71114 1.0185 0 1.8442.82569 1.8442 1.84426 0 .9732-.7541 1.7707-1.7095 1.8394-.0141.001-.028.0026-.0418.0047h-.0745-.0039l-.0145.0001-.0145-.0001h-.0039-5.2158v-.0001l-.0094.0002c-.0189.0004-.0379.0005-.0569.0005s-.038-.0001-.0569-.0005v-.0001h-.0094-.017c-.007-.0005-.0141-.0009-.0213-.0012-1.5892-.0549-2.861-1.3609-2.861-2.96375zm8.2661 3.96505.0184-.0001h.1522c.0417 0 .0822-.0051.1209-.0147 1.4341-.1462 2.5527-1.357 2.5527-2.8294 0-1.57086-1.2734-2.84426-2.8442-2.84426-.5686 0-1.0982.16706-1.5424.45427-.5293-1.56785-2.0117-2.69646-3.7581-2.69646-2.1901 0-3.9656 1.77546-3.9656 3.9656 0 2.12955 1.6784 3.86685 3.7849 3.96155.0193.0023.0389.0034.0589.0034h.051c.0235.0004.0471.0006.0708.0006s.0473-.0002.0708-.0006h5.2113zm-16.3401 2.3164c-1.225 0-2.2875.6995-2.80831 1.7231-.09646.1896-.30231.2974-.51308.2687-.10659-.0145-.21563-.0221-.3267-.0221-1.32277 0-2.39509 1.0724-2.39509 2.3951 0 1.3223 1.07154 2.3943 2.39364 2.3951l.03466-.0002h.00307 7.64971c.0215-.0019.0431-.0024.0649-.0015.0237.001.0477.0015.0717.0015.9358 0 1.6943-.7586 1.6943-1.6943s-.7585-1.6943-1.6943-1.6943c-.1424 0-.28.0175-.4111.0501-.1445.036-.2975.0057-.4173-.0825-.1199-.0883-.1942-.2254-.2027-.374-.095-1.6531-1.4662-2.9647-3.1434-2.9647zm4.1104 7.7589c-.0094.0005-.0188.0008-.0283.0008h-7.69224-.00167l-.03321.0002h-.00307c-1.87505 0-3.39509-1.52-3.39509-3.3951 0-1.875 1.52004-3.3951 3.39509-3.3951.03878 0 .07743.0007.11593.002.73022-1.1824 2.03864-1.9717 3.53216-1.9717 2.0261 0 3.7128 1.4523 4.0762 3.3729.0326-.0012.0654-.0018.0983-.0018 1.488 0 2.6943 1.2063 2.6943 2.6943s-1.2063 2.6943-2.6943 2.6943c-.0214 0-.0428-.0003-.0641-.0008zm10.1987-5.8057c0-.3488.3481-.5904.6748-.4685l17.4563 6.5135c.1956.073.3252.2598.3252.4685v19.4899 4.7262.5h-2.9857c.0439-.141.0675-.2909.0675-.4463v-.7996c0-.2762-.2239-.5-.5-.5s-.5.2238-.5.5v.7996c0 .1949-.1116.3639-.2744.4463h-4.9324v-6.1447h4.7068c.2761 0 .5.2239.5.5v.7996c0 .2761.2239.5.5.5s.5-.2239.5-.5v-.7996c0-.8284-.6716-1.5-1.5-1.5h-9.8474c-.8284 0-1.5.6716-1.5 1.5v5.1984c0 .1554.0236.3053.0675.4463h-2.7582zm3.9651 31.2296h4.3662v-6.1447h-4.1406c-.2761 0-.5.2239-.5.5v5.1984c0 .1949.1116.3639.2744.4463zm-.1735 1h-4.2916c-.0082 0-.0163-.0002-.0244-.0006h-12.4397c-.1498 0-.2842-.0659-.3759-.1702-.208.1091-.4447.1708-.6959.1708h-1.53122c-.38418 0-.73462-.1444-.99999-.3819-.26538.2375-.61583.3819-1.00001.3819h-.76562c-.27615 0-.5-.2238-.5-.5 0-.2761.22385-.5.5-.5h.76562c.27614 0 .5-.2238.5-.5v-4.7262c0-.1562-.07294-.3033-.19719-.3979l-.76562-.5827c-.17892-.1362-.42671-.1362-.60562 0l-.76563.5827c-.12425.0946-.19719.2417-.19719.3979v4.0971c0 .2762-.22386.5-.5.5s-.5-.2238-.5-.5v-4.0971c0-.4685.21883-.91.59157-1.1937l.76563-.5827c.53673-.4084 1.28012-.4084 1.81685 0l.76563.5827c.03165.0241.06218.0493.09157.0756.02939-.0263.05993-.0515.09157-.0756l.76563-.5827c.53673-.4084 1.28012-.4084 1.81682 0l.429.3265v-12.8263c0-.2159.1385-.4074.3436-.475l11.1507-3.671c.3339-.1099.6711-.0964.9698.0101v-7.5913c0-1.0463 1.0441-1.7711 2.0244-1.4054l11.127 4.1519c-.0299-.0642-.0466-.1357-.0466-.2112v-2.4875c0-.8284.6715-1.5 1.5-1.5h1.8812c.8284 0 1.5.6716 1.5 1.5v4.2875c0 .071-.0148.1385-.0414.1997l1.5361.5731c.5867.2189.9756.7792.9756 1.4054v17.9854l.3572-.2719c.5368-.4084 1.2801-.4084 1.8169 0l.7656.5827c.3727.2837.5916.7252.5916 1.1937v2.0598c0 .2762-.2239.5-.5.5-.2762 0-.5-.2238-.5-.5v-2.0598c0-.1562-.073-.3033-.1972-.3979l-.7656-.5827c-.179-.1362-.4268-.1362-.6057 0l-.7656.5827c-.1242.0946-.1972.2417-.1972.3979v4.7262c0 .2762.2239.5.5.5h2.5313c.2761 0 .5.2239.5.5 0 .2762-.2239.5-.5.5h-2.5313c-.2316 0-.4509-.0525-.6467-.1462-.0905.0904-.2153.1462-.3533.1462h-4.5191c-.1271.035-.2609.0537-.3991.0537h-9.8474c-.1382 0-.272-.0187-.3991-.0537zm-19.35872-1c-.27614 0-.5-.2238-.5-.5v-4.7262c0-.1562.07294-.3033.19719-.3979l.76563-.5827c.17891-.1362.4267-.1362.6056 0l.7656.5827c.1243.0946.1972.2417.1972.3979v4.7262c0 .2762-.2238.5-.5.5zm28.37612-28.2378 3.177 1.1855v-4.1295c0-.2761-.2239-.5-.5-.5h-1.8812c-.2762 0-.5.2239-.5.5v2.4875c0 .2034-.1215.3784-.2958.4565zm-14.4661 5.5393c.3235-.1065.6564.1344.6564.4749v22.223h-2.8305v-5.6441c0-.8284-.6716-1.5-1.5-1.5h-2.8375c-.8284 0-1.5.6716-1.5 1.5v5.6441h-2.7954v-19.14zm16.6954 20.1534c.2762 0 .5-.2238.5-.5 0-.2761-.2238-.5-.5-.5-.2761 0-.5.2239-.5.5 0 .2762.2239.5.5.5zm-34.44917 3.044c0 .2761-.22386.5-.5.5s-.5-.2239-.5-.5c0-.2762.22386-.5.5-.5s.5.2238.5.5zm41.89847-1.1944c.2761 0 .5-.2238.5-.5 0-.2761-.2239-.5-.5-.5-.2762 0-.5.2239-.5.5 0 .2762.2238.5.5.5zm-30.6563-5.4492c-.2761 0-.5.2239-.5.5v5.6438h3.8375v-5.6438c0-.2761-.2238-.5-.5-.5zm14.6367-10.54c0-1.1995.9724-2.1719 2.1719-2.1719s2.1719.9724 2.1719 2.1719-.9724 2.1718-2.1719 2.1718-2.1719-.9723-2.1719-2.1718zm2.1719-3.1719c-1.7518 0-3.1719 1.4201-3.1719 3.1719 0 1.7517 1.4201 3.1718 3.1719 3.1718s3.1719-1.4201 3.1719-3.1718c0-1.7518-1.4201-3.1719-3.1719-3.1719z" fill="#18303f" fill-rule="evenodd"/></svg>