<svg fill="none" height="26" viewBox="0 0 25 26" width="25" xmlns="http://www.w3.org/2000/svg"><path clip-rule="evenodd" d="m7.81641 1.98547c0-.27614-.22386-.5-.5-.5-.27615 0-.5.22386-.5.5v.36524h-4.06927c-.14015 0-.30123.01373-.44528.06037-.07052.02283-.17084.06417-.26216.14369-.10034.08738-.20376.23664-.20376.44017v6.82692c0 .1272.0475.24334.12573.33154-.08105.1783-.12573.3763-.12573.5822v1.7792 2.6445 7.4513c0 .4922.38292.9327.9112.9327h1.25879c.0071.0003.01424.0005.02141.0005.00718 0 .01431-.0002.02141-.0005h2.42442c.0071.0003.01424.0005.02141.0005.00718 0 .01431-.0002.02141-.0005h4.13551l.0173-.0003h2.4716c.0091.0005.0183.0008.0276.0008.0092 0 .0184-.0003.0275-.0008h2.4122c.0091.0005.0183.0008.0275.0008.0093 0 .0184-.0003.0276-.0008h1.2493c.1666 0 .3187-.0438.4489-.1191.0399.0127.0813.0204.1231.0228.0652.0311.1381.0485.2151.0485h4.8333c.5708 0 .8399-.5354.8399-.9327v-2.9773c.0017-.0167.0026-.0334.0026-.0504 0-.0174-.0009-.0347-.0026-.0518v-10.33392c0-.0943-.0155-.19793-.046-.29587-.0143-.0676-.0422-.13016-.0808-.18466-.0308-.05226-.0717-.10784-.126-.15844l-2.5376-3.23085v-2.42855c0-.27614-.2238-.5-.5-.5-.2761 0-.5.22386-.5.5v2.51475l-1.7587 2.23919v-3.88856c0-.73261-.5657-1.36538-1.3224-1.36538h-6.67067c-.23061 0-.44348.05876-.628.16121-.07489-.0523-.15065-.08253-.20722-.10084-.14405-.04664-.30513-.06037-.44528-.06037h-.73332zm10.60889 6.47168h3.3811l-1.6905-2.15243zm3.9471 1h-3.2481l3.2481 2.11115zm0 3.89825-4.1194 2.6224 4.1194 2.6402zm0 7.0914-3.2178 2.0484h3.2178zm-.4262-.9142-4.1229 2.6247v-5.2671zm-.0332-7.0702-4.0897 2.6035v-5.26164zm-19.07706-9.11169v5.97115h5.625v-5.97115zm1.14483 12.30859h-1.14483v6.884h.6914v-1.7111c0-.4922.38293-.9327.91121-.9327h1.64483c.52828 0 .9112.4405.9112.9327v1.7111h3.15692v-11.8077c0-.2289-.16539-.3654-.32245-.3654h-6.6707c-.15706 0-.32241.1365-.32241.3654v1.2792h2.83534c.27615 0 .5.2238.5.5 0 .2761-.22385.5-.5.5h-2.83534v1.6445h1.14483c.27614 0 .5.2239.5.5s-.22386.5-.5.5zm2.01381 6.884h-1.46724v-1.6438h1.46724zm7.67342-.0003h1.4672v-1.6435h-1.4672zm2.4672 0v-1.7108c0-.4922-.3829-.9327-.9112-.9327h-1.6448c-.5283 0-.9112.4405-.9112.9327v1.7108h-1.5165v-6.0185h.7334c.2762 0 .5-.2238.5-.5 0-.2761-.2238-.5-.5-.5h-.7334v-1.6445h.7334c.2762 0 .5-.2239.5-.5s-.2238-.5-.5-.5h-.7334v-1.6445h.7334c.2762 0 .5-.2239.5-.5 0-.2762-.2238-.5-.5-.5h-.8224-.0026c-.1893-.49844-.6547-.86526-1.23085-.86526h-.32124v-.77832h2.83539c.2761 0 .5-.22386.5-.5s-.2239-.5-.5-.5h-2.83539v-1.64453h4.48019c.2761 0 .5-.22386.5-.5s-.2239-.5-.5-.5h-4.48019v-1.2313c0-.22893.16535-.36538.32242-.36538h6.67067c.1571 0 .3224.13646.3224.36538v18.82691zm-11.60786-17.913c0-.27614-.22385-.5-.5-.5-.27614 0-.5.22386-.5.5v.86539c0 .27614.22386.5.5.5.27615 0 .5-.22386.5-.5zm1.14454-.5c.27614 0 .5.22386.5.5v.86539c0 .27614-.22386.5-.5.5-.27615 0-.5-.22386-.5-.5v-.86539c0-.27614.22385-.5.5-.5zm2.14453.5c0-.27614-.22386-.5-.5-.5-.27615 0-.5.22386-.5.5v.86539c0 .27614.22385.5.5.5.27614 0 .5-.22386.5-.5zm-3.78907 2.09571c.27615 0 .5.22386.5.5v.86538c0 .27614-.22385.5-.5.5-.27614 0-.5-.22386-.5-.5v-.86538c0-.27614.22386-.5.5-.5zm2.14454.5c0-.27614-.22386-.5-.5-.5-.27615 0-.5.22386-.5.5v.86538c0 .27614.22385.5.5.5.27614 0 .5-.22386.5-.5zm1.14453-.5c.27614 0 .5.22386.5.5v.86538c0 .27614-.22386.5-.5.5-.27615 0-.5-.22386-.5-.5v-.86538c0-.27614.22385-.5.5-.5zm-.08985 5.78909c0-.2762.22386-.5.5-.5h.82242c.27614 0 .5.2238.5.5 0 .2761-.22386.5-.5.5h-.82242c-.27614 0-.5-.2239-.5-.5zm.5 2.1445c-.27614 0-.5.2239-.5.5s.22386.5.5.5h.82242c.27614 0 .5-.2239.5-.5s-.22386-.5-.5-.5zm-.5 3.0957c0-.2761.22386-.5.5-.5h.82242c.27614 0 .5.2239.5.5s-.22386.5-.5.5h-.82242c-.27614 0-.5-.2239-.5-.5zm7.17184-7.5195c-.2761 0-.5.2238-.5.5 0 .2761.2239.5.5.5h.8225c.2761 0 .5-.2239.5-.5 0-.2762-.2239-.5-.5-.5zm-.5 3.1445c0-.2761.2239-.5.5-.5h.8225c.2761 0 .5.2239.5.5s-.2239.5-.5.5h-.8225c-.2761 0-.5-.2239-.5-.5zm.5 2.1445c-.2761 0-.5.2239-.5.5 0 .2762.2239.5.5.5h.8225c.2761 0 .5-.2238.5-.5 0-.2761-.2239-.5-.5-.5zm0-7.93258c-.2761 0-.5.22386-.5.5s.2239.5.5.5h.8225c.2761 0 .5-.22386.5-.5s-.2239-.5-.5-.5z" fill="#18303f" fill-rule="evenodd"/></svg>