<svg fill="none" height="50" viewBox="0 0 50 50" width="50" xmlns="http://www.w3.org/2000/svg"><g fill="#895d25"><path d="m27.9102 30.2256c0 .2761-.2239.5-.5.5-.2762 0-.5-.2239-.5-.5 0-.2762.2238-.5.5-.5.2761 0 .5.2238.5.5z"/><path d="m13.2734 33.4639c.2762 0 .5-.2239.5-.5 0-.2762-.2238-.5-.5-.5-.2761 0-.5.2238-.5.5 0 .2761.2239.5.5.5z"/><path d="m44.375 9.72363c.2761 0 .5-.22385.5-.5 0-.27614-.2239-.5-.5-.5s-.5.22386-.5.5c0 .27615.2239.5.5.5z"/><path clip-rule="evenodd" d="m25.9714 5.29883c-.3776 0-.743.14485-1.015.4078-.2726.26351-.4291.62459-.4291 1.00482v2.36033c-.0202.0543-.0312.11305-.0312.17439 0 .06133.011.12008.0312.17438v10.50285h-4.2526c-.5043 0-.9913.1936-1.353.5432-.3598.3478-.5662.8224-.5689 1.3215-.0046.1117-.0315.222-.0796.325-.0492.105-.1198.2008-.2087.2813-.089.0805-.1944.1442-.3106.1865-.1163.0422-.2405.0621-.3654.0581l-.016-.0002h-6.5504l-.012.0001c-.2535.0062-.4964-.0846-.6766-.2479-.17619-.1595-.27842-.375-.29135-.6001.0074-.493-.18446-.9665-.53003-1.3203-.34969-.3581-.82814-.5649-1.32987-.5807-.00808-.0003-.01617-.0003-.02425-.0002l-1.97361.0338c-.2761.0048-.49609.2324-.49137.5085.00473.2761.23239.4961.50849.4914l1.96023-.0336c.24439.0104.47178.1124.63494.2795.16502.1689.25125.3905.24539.6157-.00029.0113-.0002.0225.00026.0337.02085.5032.24561.9745.61982 1.3135.37206.337.86245.5171 1.36565.5066h6.5373c.2488.0069.4969-.0332.7306-.1182.2365-.086.4541-.2166.6401-.385.186-.1686.3369-.3718.443-.5986.1062-.2268.1654-.4724.1737-.7224l.0003-.0166c0-.2264.0928-.447.264-.6125.1717-.1659.408-.2621.6579-.2621h4.1739v4.9532c0 .1039-.0426.2071-.1241.2859-.082.0793-.1969.1268-.32.1268h-19.81431c-.12315 0-.23799-.0475-.32007-.1268-.0815-.0788-.12403-.182-.12403-.2859v-2.8259c0-.2761-.22385-.5-.5-.5-.27614 0-.5.2239-.5.5v2.8259c0 .345.12877.6743.35627.9292-.10641.1192-.19217.2557-.25293.4043-.07374.1803-.10881.3738-.10264.5685v2.4204c-.00046.0088-.0007.0177-.0007.0266s.00024.0177.0007.0265v16.6715c-.00002.3802.1551.7416.42609 1.0067.27043.2647.6344.4128 1.0121.4172h.0059l19.81432.0001.0059-.0001c.3617-.0043.7109-.1403.9773-.3842.2664.2438.6155.3798.9771.384l.0059.0001h19.8143c.1889 0 .3763-.036.5516-.1062.1754-.0702.3358-.1736.4718-.3049.1359-.1315.2447-.2884.3192-.4623.0746-.174.1132-.3611.1132-.5505v-16.5465c.0091-.0377.0139-.0771.0139-.1176s-.0048-.0799-.0139-.1177v-2.3664c.0038-.19-.0312-.3784-.1028-.5544-.063-.155-.153-.2971-.2652-.4204.2307-.2538.3636-.5828.3679-.9289l.0001-.0063v-19.15385l-.0001-.00631c-.0048-.38012-.1644-.7395-.4386-1.00132-.2737-.26129-.6394-.40501-1.0171-.40499zm20.2701 24.46057v-2.0024c.0013-.054-.0083-.1082-.0292-.1595-.0208-.0513-.0526-.0992-.0942-.1405-.0417-.0412-.0924-.0749-.1497-.0982-.0573-.0234-.1194-.0356-.1825-.0356h-19.811c-.1233.0021-.2378.0504-.3202.1301-.0817.079-.1254.182-.1274.2863v19.1839c0 .106.0431.2113.1256.292.0824.0807.1977.1298.3219.1319h19.8109c.0622 0 .1234-.0119.1799-.0345.0565-.0227.1068-.0554.1484-.0956s.0736-.087.0951-.1372.0324-.1034.0324-.1566v-16.1641h-4.2222c-.1225-.001-.2436.0215-.3563.0658-.1126.0443-.2139.1093-.2985.1904s-.1507.1766-.1956.2806c-.0448.104-.0676.2149-.0676.3265l-.0003.0166c-.0167.503-.2386.9754-.6111 1.3155-.3704.3382-.8601.5191-1.3628.5087h-6.5042c-.5026.0104-.9924-.1705-1.3628-.5087-.3725-.3401-.5943-.8125-.6111-1.3155-.0003-.0084-.0004-.0168-.0002-.0252.0039-.2252-.0842-.4461-.2507-.6139-.1671-.1682-.3997-.2689-.6482-.2748-.2761-.0065-.4946-.2356-.488-.5116.0065-.2761.2356-.4946.5116-.4881.5017.0119.9817.2149 1.3342.57.3496.3521.5456.8258.5411 1.3205.0103.2246.1105.4403.2856.6001.1782.1627.4192.2534.6709.2473l.012-.0003 6.5275.0002c.2516.006.4926-.0845.6709-.2472.1759-.1606.2763-.3778.2856-.6036.0014-.245.0522-.487.1493-.7122.0984-.2283.242-.4343.4219-.6067.1797-.1724.3921-.3078.6244-.3992.2317-.0911.4791-.1369.7282-.1352zm-21.7922 0v-1.9896l.0001-.01.0003-.0097c.004-.1031-.0338-.2067-.1107-.2878-.0754-.0795-.1828-.1309-.3011-.1389h-19.8004c-.00808 0-.01615-.0002-.02422-.0006-.06398-.0031-.12763.0068-.1867.0286-.05903.0217-.11153.0547-.15463.0959-.04305.0411-.07572.0894-.09694.1413-.0212.0519-.03078.1068-.02862.1614.00027.0066.0004.0132.0004.0198v1.9558h4.22755c.24974.0039.49661.0559.72633.1532.22975.0974.43825.2384.61289.4158.17467.1775.31195.3877.40296.6189.08824.2242.13103.4632.12573.7038.01335.2244.11551.4392.29125.5984.1802.1633.4231.254.6766.2479.276-.0067.5052.2117.5119.4878.0067.276-.2117.5052-.4878.5119-.5054.0122-.99839-.168-1.37205-.5064-.37421-.339-.59897-.8103-.61982-1.3135-.00052-.0127-.00057-.0254-.00013-.038.00384-.1107-.01513-.2213-.0562-.3256-.04108-.1044-.10369-.201-.18508-.2836-.08142-.0827-.17999-.1499-.29043-.1967-.10941-.0463-.22779-.0716-.34823-.0739h-4.21547v16.1981c-.00001.106.04305.2112.1255.2919.08249.0807.19778.1299.32207.1319h19.80734c.1243-.002.2396-.0512.3221-.1319.0824-.0807.1255-.1859.1255-.2919v-16.1643h-4.1826c-.1223-.002-.2434.0197-.356.0634-.1125.0438-.2138.1085-.2982.1894s-.1502.1764-.1945.2803c-.0442.1038-.0662.2146-.0653.3258v.0125l-.0002.0084c-.0083.2501-.0675.4957-.1737.7225-.1061.2268-.257.43-.443.5985s-.4036.2991-.6401.3851c-.2337.085-.4818.125-.7306.1182h-1.3857c-.2761 0-.5-.2239-.5-.5 0-.2762.2239-.5.5-.5h1.3931l.016.0002c.1249.004.2491-.0159.3654-.0582.1162-.0422.2216-.1059.3106-.1864.0889-.0806.1595-.1763.2087-.2814.0479-.1024.0747-.2121.0795-.3232-.0004-.2453.0491-.4879.1453-.7138.0978-.2298.2418-.4372.4224-.6103.1806-.1732.3943-.3088.6281-.3996.2324-.0904.4805-.1349.73-.1314zm1.078-20.01323v16.11913c0 .1038.0426.207.1241.2858.0821.0793.1969.1268.32.1268h19.8143c.1252 0 .2423-.0479.3265-.1282.0829-.0792.1273-.1831.1293-.2882v-19.14627c-.002-.10516-.0464-.20897-.1293-.28818-.0842-.08037-.2012-.12823-.3265-.12822h-19.8143c-.1231 0-.2379.04745-.32.12679-.0815.07879-.1241.18197-.1241.28583v2.03472h4.2359l.0156.00024c.5021.01573.9811.22164 1.3325.57848.3485.35379.5435.82811.539 1.32321.0102.2245.1105.4403.2855.6001.1783.1627.4192.2533.6709.2472l.0121-.0002 6.5272.0001c.1275.003.254-.0187.3718-.0637.1177-.045.2238-.112.3124-.1962.0884-.0842.1575-.1838.204-.2923.0464-.1085.0696-.2242.0686-.3405v-.0044c0-.5027.2067-.98132.5689-1.33146.3617-.34958.8487-.54311 1.353-.54311.2762 0 .5.22386.5.5 0 .27615-.2238.5-.5.5-.2499 0-.4862.09612-.6579.2621-.1707.16497-.2636.38497-.264.61077.0018.2544-.0491.5062-.1494.7403-.1005.2348-.2485.4466-.434.6231s-.4049.3142-.6446.4058c-.2378.0909-.4914.1348-.7461.1296h-6.5043c-.5027.0105-.9924-.1705-1.3628-.5086-.3726-.3401-.5944-.8125-.6111-1.3155-.0003-.0084-.0004-.0169-.0002-.0253.0039-.227-.0844-.4497-.2514-.6193-.166-.16859-.3968-.27091-.6443-.28043z" fill-rule="evenodd"/><path d="m3.74609 20.5059c0 .2761-.22385.5-.5.5-.27614 0-.5-.2239-.5-.5 0-.2762.22386-.5.5-.5.27615 0 .5.2238.5.5z"/></g></svg>