<svg fill="none" height="15" viewBox="0 0 15 15" width="15" xmlns="http://www.w3.org/2000/svg"><g fill="#895d25"><path d="m8.79142 9.06796c0 .16568-.13432.3-.3.3-.16569 0-.3-.13432-.3-.3 0-.16569.13431-.3.3-.3.16568 0 .3.13431.3.3z"/><path d="m3.77345 10.1894c.16569 0 .3-.1343.3-.29996 0-.16568-.13431-.3-.3-.3s-.3.13432-.3.3c0 .16566.13431.29996.3.29996z"/><path d="m13.0242 3.07382c.1657 0 .3-.13432.3-.3 0-.16569-.1343-.3-.3-.3s-.3.13431-.3.3c0 .16568.1343.3.3.3z"/><path clip-rule="evenodd" d="m7.79027 1.43964c-.15146 0-.29868.05806-.40878.16449-.11044.10676-.17445.25377-.17445.40929v.68569c-.00612.02388-.00937.04892-.00937.07471s.00325.05082.00937.0747v2.9788h-1.12578c-.18949 0-.37317.07266-.51015.20508-.13562.13109-.21446.31047-.2164.5001-.00078.01286-.004.02576-.00978.0381-.00619.01325-.01535.02586-.02745.03682-.01213.01098-.02692.02003-.04376.02616-.01685.00613-.03508.00908-.05354.00849l-.00958-.00015h-1.96512l-.00724.00008c-.03825.00093-.07358-.01288-.09866-.03559-.02309-.02091-.03554-.04734-.03804-.07354.00095-.18601-.07227-.36363-.20175-.49622-.13252-.1357-.31307-.21341-.50157-.21933-.00614-.00019-.01229-.00019-.01844-.00001l-.33692.01014c-.16561.00499-.29582.14328-.29084.30889.00499.16561.14328.29582.30889.29084l.32515-.00979c.03385.00266.06376.01726.08447.03847.02172.02224.03167.04971.03098.07603-.00017.00674-.00012.01348.00016.02021.00795.19196.09368.3709.23512.49901.14009.12689.32387.19432.51186.19081h1.95777c.0927.00228.18517-.01275.27242-.04449.08895-.03236.17107-.08158.24143-.14531.07039-.06375.12767-.14083.16807-.22714.04042-.08633.06301-.17993.06617-.27537l.00016-.00992c0-.02646.01078-.05398.03345-.0759.02302-.02225.05635-.03647.09314-.03647h1.10215v1.30974h-5.91074v-.60591c0-.16569-.13432-.3-.300001-.3-.165686 0-.300001.13431-.300001.3v.63213c0 .09904.025961.19464.073344.27858-.011688.02071-.022111.04219-.031178.06436-.029743.07272-.044094.15084-.041958.22955v.72091c-.000138.00374-.000208.0075-.000208.01128 0 .00377.00007.00753.000208.01127v4.99787c-.000005.1551.063342.302.172915.4092.109243.1069.255589.1661.406779.1679h.00353 5.94429.00354c.10266-.0012.2031-.0289.29119-.08.0882.0513.18879.0791.29162.0803h.00353 5.94433c.0756 0 .1508-.0144.2212-.0426s.1351-.0698.19-.1229c.055-.0531.0991-.1167.1294-.1875.0303-.0707.0461-.1469.0461-.2242v-4.94313c.0034-.01822.0052-.03702.0052-.05624s-.0018-.03802-.0052-.05624v-.68743c.0013-.07691-.013-.15313-.0419-.22422-.0098-.0241-.0212-.0474-.0341-.0698.0479-.08328.0747-.17823.076-.27689v-.00378-5.74615-.00378c-.002-.15515-.0672-.30115-.178-.40699-.1105-.10552-.2576-.16302-.4087-.16301zm5.93103 7.33829v-.43068h-5.91426v5.70725h5.91426v-4.67657h-1.1168c-.0176-.00014-.0349.0031-.0507.00933-.0159.00622-.0296.01516-.0407.02581-.0111.01063-.0193.02272-.0247.03529-.0054.01254-.0081.02561-.0081.03855l-.0001.01001c-.0065.19211-.0912.3717-.2322.50042-.1396.12746-.3234.19536-.5114.19186h-1.94833c-.18803.0035-.3718-.0644-.51144-.19186-.14099-.12872-.22572-.30831-.23212-.50042-.00552-.1656.12424-.30431.28984-.30983.16559-.00552.30431.12424.30983.28984.00091.02724.01292.05532.03699.0773.02441.02229.059.03591.09653.03501l.00722-.00018 1.96188.00009c.0375.00091.0721-.01263.0965-.03492.0233-.02124.0353-.04818.0369-.07456.0009-.09257.0204-.18386.057-.26878.0375-.08712.0922-.16551.1605-.23092.0682-.0654.1485-.11657.2362-.15105.0872-.03432.1802-.05156.2739-.05099zm-6.53768.00017v-.43109h-5.91074v.42095h1.1206c.09414.00146.18728.02106.27409.05785.08682.03679.16586.09021.23223.15763.0664.06744.11878.14757.15357.23596.0348.08841.05116.18298.04786.27807-.00573.16559-.14462.29517-.3102.28944-.16559-.00574-.29517-.14462-.28944-.31021.00044-.01256-.0017-.02529-.00653-.03755-.00483-.01229-.01242-.0242-.02284-.03479-.01044-.01061-.02352-.01965-.03876-.02611-.01476-.00625-.03096-.00983-.04765-.01029h-1.11293v4.68624h5.91074v-4.6761h-1.1072c-.01737-.00028-.03441.00277-.05002.00884-.01559.00606-.02911.01483-.04001.02527-.01087.01043-.01889.02228-.02413.03458-.00522.01227-.00771.02504-.0076.03767.00003.00418-.00002.00837-.00015.01255-.00316.09544-.02575.18904-.06617.27537-.0404.08631-.09768.16339-.16807.22714-.07036.06378-.15248.11298-.24143.14528-.08725.0318-.17972.0468-.27242.0445h-.41375c-.16568 0-.3-.1343-.3-.29998 0-.16569.13432-.3.3-.3h.41793l.00958.00015c.01846.00059.03669-.00236.05354-.00849.01684-.00613.03164-.01518.04376-.02616.0121-.01096.02126-.02357.02745-.03682.00568-.01211.00888-.02476.00973-.03739.00041-.09251.01936-.18386.05557-.26891.03739-.0878.09229-.16679.16093-.23259.06861-.06578.14958-.11709.23788-.15141.08744-.03399.18064-.05077.27433-.0496zm.62342-5.70428v4.65953h5.91426v-5.69371h-5.91426v.43418h1.12075l.0094.00014c.1884.0059.36892.08316.50193.21822.13077.13278.20515.31117.20484.49833.00194.02592.01392.05227.03676.07313.02442.02229.059.03591.09653.035l.00722-.00017 1.96173.00009c.0188.00044.0374-.00272.0544-.00923.0171-.00651.0319-.01601.0439-.02743.012-.0114.0209-.02444.0267-.03805.0058-.01358.0086-.02776.0085-.04181-.0015-.16568.1317-.30116.2974-.3026.1656-.00145.3011.13169.3026.29737.0008.09744-.0186.1938-.0569.28324-.0383.08941-.0945.16975-.1648.23656-.0701.06678-.153.1187-.2432.15319-.089.034-.1837.05049-.2788.04876h-1.94838c-.18803.0035-.3718-.06433-.51144-.19181-.14099-.12872-.22571-.30831-.23212-.50043-.00017-.00506-.00021-.01013-.00012-.0152.00047-.02708-.00995-.05522-.03232-.07793-.02199-.02234-.0539-.03741-.0898-.03937z" fill-rule="evenodd"/><path d="m1.27267 6.11718c0 .16568-.13432.29999-.300001.29999-.165686 0-.300001-.13431-.300001-.29999 0-.16569.134315-.3.300001-.3.165681 0 .300001.13431.300001.3z"/></g></svg>