<svg fill="none" height="25" viewBox="0 0 25 25" width="25" xmlns="http://www.w3.org/2000/svg"><g fill="#895d25"><path d="m14.6523 15.1133c0 .2761-.2238.5-.5.5-.2761 0-.5-.2239-.5-.5 0-.2762.2239-.5.5-.5.2762 0 .5.2238.5.5z"/><path d="m6.28906 16.9824c.27615 0 .5-.2238.5-.5 0-.2761-.22385-.5-.5-.5-.27614 0-.5.2239-.5.5 0 .2762.22386.5.5.5z"/><path d="m21.707 5.12305c.2762 0 .5-.22386.5-.5 0-.27615-.2238-.5-.5-.5-.2761 0-.5.22385-.5.5 0 .27614.2239.5.5.5z"/><path clip-rule="evenodd" d="m12.9838 2.39941c-.2525 0-.4978.09678-.6813.27416-.1841.17794-.2908.42295-.2908.68216v1.14281c-.0102.03981-.0156.08152-.0156.12451 0 .04298.0054.0847.0156.1245v4.96466h-1.8763c-.3158 0-.62194.12112-.85024.34179-.22603.2185-.35743.5175-.36067.8335-.00129.0215-.00666.043-.01629.0635-.01033.0221-.02559.0431-.04576.0614-.0202.0183-.04486.0334-.07292.0436-.02809.0102-.05847.0151-.08925.0141l-.01596-.0002h-3.27519l-.01208.0001c-.06375.0016-.12263-.0214-.16442-.0593-.03849-.0348-.05925-.0789-.06341-.1226.00159-.31-.12045-.606-.33624-.827-.22088-.22617-.52178-.35567-.83595-.36554-.01024-.00032-.02049-.00033-.03074-.00002l-.56153.0169c-.27602.00831-.49304.2388-.48473.51486.00831.276.2388.493.51482.4847l.54191-.0163c.0564.0044.10627.0287.14078.0641.0362.0371.05278.0828.05164.1267-.00029.0112-.00021.0225.00026.0337.01325.3199.15613.6182.39186.8317.23349.2115.53979.3238.85311.318h3.26295c.1545.0038.30861-.0213.45403-.0742.14826-.0539.28512-.1359.40239-.2421.1173-.1063.21278-.2348.28011-.3786.06736-.1439.10501-.2999.11028-.459l.00027-.0165c0-.0441.01796-.09.05575-.1265.03832-.0371.09392-.0608.15522-.0608h1.8369v2.1829h-9.85121v-1.0098c0-.2762-.22385-.5-.5-.5-.27614 0-.5.2238-.5.5v1.0535c0 .1651.04327.3244.12224.4643-.01948.0345-.03685.0703-.05196.1073-.04957.1212-.07349.2514-.06993.3826v1.2015c-.00023.0062-.00035.0125-.00035.0188s.00012.0125.00035.0188v8.3297c-.00001.2586.10557.5033.28819.6821.18207.1781.42599.2769.67796.2798l.0059.0001h9.90711l.0059-.0001c.1711-.002.3385-.0482.4854-.1334.147.0855.3146.1318.486.1338l.0059.0001h9.9071c.1261 0 .2514-.024.3687-.071.1174-.047.2252-.1164.3167-.2048.0916-.0885.1652-.1946.2157-.3125s.0768-.2449.0768-.3737v-8.2386c.0057-.0303.0088-.0617.0088-.0937s-.0031-.0634-.0088-.0937v-1.1457c.0022-.1282-.0216-.2553-.0698-.3737-.0163-.0402-.0353-.0791-.0568-.1164.0798-.1388.1245-.297.1265-.4615l.0001-.0063v-9.57687l-.0001-.00631c-.0032-.25859-.1119-.50191-.2966-.67832-.1842-.17587-.4292-.2717-.6812-.27169zm9.885 12.23049v-.7178h-9.8571v9.5121h9.8571v-7.7943h-1.8613c-.0294-.0002-.0582.0052-.0846.0156-.0264.0103-.0493.0252-.0678.043-.0184.0177-.0322.0378-.0412.0588-.009.0209-.0134.0427-.0134.0642l-.0003.0167c-.0106.3202-.1518.6195-.3868.8341-.2328.2124-.5391.3255-.8524.3196h-3.2472c-.3134.0059-.6197-.1072-.8524-.3196-.235-.2146-.3762-.5139-.3869-.8341-.0092-.276.2071-.5072.4831-.5164.2759-.0092.5071.2071.5163.4831.0016.0454.0216.0922.0617.1288.0407.0372.0983.0599.1609.0584l.012-.0003 3.2698.0001c.0625.0015.1201-.021.1608-.0582.0388-.0354.0588-.0803.0615-.1242.0016-.1543.034-.3065.095-.448.0625-.1452.1538-.2758.2675-.3849.1137-.109.2476-.1942.3937-.2517.1454-.0572.3004-.086.4564-.085zm-10.8961.0003v-.7185h-9.85126v.7016h1.86767c.1569.0024.31214.0351.45682.0964.1447.0613.27643.1504.38705.2627.11066.1124.19797.246.25595.3933.058.1473.08526.305.07977.4634-.00956.276-.24103.492-.51701.4824-.27598-.0095-.49195-.241-.48239-.517.00072-.0209-.00284-.0421-.01088-.0626-.00806-.0204-.0207-.0403-.03807-.0579-.01741-.0177-.03921-.0328-.0646-.0436-.0246-.0104-.05161-.0163-.07943-.0171h-1.85488v7.8105h9.85126v-7.7936h-1.8454c-.0289-.0005-.0573.0046-.0833.0147s-.04854.0247-.0667.0421c-.01812.0174-.03149.0372-.04022.0577-.00871.0204-.01286.0417-.01267.0627.00006.007-.00002.014-.00025.021-.00527.159-.04292.315-.11028.4589-.06733.1439-.16281.2723-.28011.3786-.11727.1062-.25413.1882-.40239.2422-.14541.0529-.29953.0779-.45403.0741h-.68958c-.27614 0-.5-.2238-.5-.5 0-.2761.22386-.5.5-.5h.69654l.01596.0003c.03078.001.06116-.004.08925-.0142.02806-.0102.05272-.0253.07292-.0436.02017-.0182.03543-.0393.04576-.0613.00946-.0202.0148-.0413.01621-.0624.00068-.1541.03226-.3064.09262-.4481.06232-.1464.15382-.278.26821-.3877.11435-.1096.2493-.1951.39648-.2524.14572-.0566.30107-.0846.45718-.0826zm1.039-9.50715v7.76585h9.8571v-9.48949h-9.8571v.72364h1.8679l.0157.00024c.314.00984.6149.1386.8365.3637.218.22131.342.51861.3414.83055.0033.0432.0232.08712.0613.12188.0407.03714.0983.05985.1609.05834l.012-.00029 3.2695.00015c.0315.00074.0624-.00453.0908-.01538s.0531-.02669.0731-.04573c.02-.019.0348-.04073.0445-.0634.0097-.02263.0144-.04627.0141-.06969-.0024-.27613.2195-.50193.4957-.50434.2761-.0024.5019.21949.5043.49562.0014.16241-.031.323-.0948.47207-.0638.14901-.1575.28293-.2745.39427-.117.1113-.255.19784-.4054.25531-.1483.05667-.3062.08416-.4647.08127h-3.2473c-.3134.00583-.6197-.10721-.8524-.31969-.235-.21453-.3762-.51384-.3869-.83404-.0003-.00844-.0003-.01689-.0002-.02534.0008-.04512-.0166-.09204-.0538-.12988-.0367-.03723-.0899-.06235-.1497-.06562z" fill-rule="evenodd"/><path d="m2.12109 10.1953c0 .2762-.22385.5-.5.5-.27614 0-.5-.2238-.5-.5 0-.27613.22386-.49999.5-.49999.27615 0 .5.22386.5.49999z"/></g></svg>