<svg fill="none" height="34" viewBox="0 0 34 34" width="34" xmlns="http://www.w3.org/2000/svg"><g fill="#03a9f1"><g clip-rule="evenodd" fill-rule="evenodd"><path d="m16.1875 15.8672c0-.2762.2239-.5.5-.5h6.0067c.2761 0 .5.2238.5.5 0 .2761-.2239.5-.5.5h-6.0067c-.2761 0-.5-.2239-.5-.5z"/><path d="m30.3477 11.4004c.2762 0 .5.2238.5.5 0 1.2966-.9075 2.4742-2.4575 3.2773-1.5515.8038-3.6428 1.1894-5.6988 1.1894-.2761 0-.5-.2239-.5-.5 0-.2762.2239-.5.5-.5 1.9545 0 3.8737-.3701 5.2388-1.0773 1.3667-.7081 1.9175-1.6083 1.9175-2.3894 0-.2762.2239-.5.5-.5z"/><path d="m27.0211 9.94723c.1398-.23815.4462-.3179.6843-.17812l2.8964 1.69999c.2382.1398.3179.4462.1781.6843-.1397.2382-.4461.3179-.6843.1781l-2.8963-1.7c-.2382-.1397-.3179-.4461-.1782-.68427z"/><path d="m23.0036 8.93002c.0759-.26552.3526-.41926.6181-.3434l3.9667 1.13333c.2655.07587.4193.35265.3434.61815s-.3526.4192-.6181.3434l-3.9667-1.13336c-.2655-.07586-.4192-.3526-.3434-.61812z"/><path d="m19.5857 5.66699c0-.27614.2238-.5.5-.5 2.2028 0 3.9 1.69719 3.9 3.9 0 .27615-.2239.5-.5.5-.2762 0-.5-.22385-.5-.5 0-1.65052-1.2495-2.9-2.9-2.9-.2762 0-.5-.22386-.5-.5z"/><path d="m20.0875 6.16699c-1.6505 0-2.9 1.24948-2.9 2.9 0 .27615-.2239.5-.5.5s-.5-.22385-.5-.5c0-2.20281 1.6972-3.9 3.9-3.9.2761 0 .5.22386.5.5s-.2239.5-.5.5z"/><path d="m16.6875 8.56738c.2761 0 .5.22347.5.49961 0 .74405.3771 1.53031.9869 2.14021.1953.1952.1953.5118 0 .7071-.1953.1952-.5119.1952-.7071 0-.7502-.7502-1.2798-1.778-1.2798-2.84731 0-.27614.2239-.49961.5-.49961z"/><path d="m8.91416 9.90466c1.36884-1.86664 3.71644-2.71755 6.03454-2.35153.2727.04307.4589.2991.4159.57186-.0431.27276-.2991.45897-.5719.4159-1.9886-.31399-3.9477.42177-5.07213 1.95511-1.14097 1.5559-1.34167 3.736-.52266 5.3741l.00533.0106c.82046 1.7435 2.67886 2.8863 4.64746 2.8863 1.3105 0 2.3333-1.0228 2.3333-2.3333s-1.0228-2.3334-2.3333-2.3334c-.2761 0-.5-.2238-.5-.5 0-.2761.2239-.5.5-.5 1.8628 0 3.3333 1.4706 3.3333 3.3334s-1.4705 3.3333-3.3333 3.3333c-2.3361 0-4.55577-1.3483-5.54987-3.455-.99121-1.988-.73783-4.5648.61333-6.40734z"/><path d="m21.1296 15.3751c.2717-.0494.5319.1308.5813.4024l.4525 2.4886c.0642.3133.2972.5009.6423.5009h.68c.2761 0 .5.2238.5.5 0 .2761-.2239.5-.5.5h-.68c-.7869 0-1.4601-.4909-1.6236-1.3086l-.0018-.0086-.4532-2.4934c-.0494-.2717.1308-.5319.4025-.5813z"/><path d="m13.3523 19.267c0-.2762.2239-.5.5-.5h3.9667c.2762 0 .5.2238.5.5 0 .2761-.2238.5-.5.5h-3.9667c-.2761 0-.5-.2239-.5-.5z"/><path d="m3.15234 19.267c0-2.7853 2.39331-5.0333 5.14667-5.0333.27614 0 .5.2238.5.5 0 .2761-.22386.5-.5.5-2.2333 0-4.14667 1.8319-4.14667 4.0333 0 2.2172 1.81615 4.0333 4.03334 4.0333h10.20002c1.5228 0 2.7666 1.2439 2.7666 2.7667s-1.2438 2.7667-2.7666 2.7667h-6.8c-.2762 0-.5-.2239-.5-.5 0-.2762.2238-.5.5-.5h6.8c.9705 0 1.7666-.7962 1.7666-1.7667s-.7961-1.7667-1.7666-1.7667h-10.20002c-2.76948 0-5.03334-2.2638-5.03334-5.0333z"/></g><path d="m23.0234 10.5566c.3359 0 .6719.336.6719.6719s-.336.6719-.6719.6719-.6718-.336-.6718-.6719.3359-.6719.6718-.6719z"/></g></svg>