<svg fill="none" height="15" viewBox="0 0 15 15" width="15" xmlns="http://www.w3.org/2000/svg"><g fill="#03a9f1"><path d="m8.85937 2.8002c-.68432 0-1.2.51568-1.2 1.2 0 .30243.15424.62997.41213.88786.11716.11716.11716.30711 0 .42427-.11716.11715-.3071.11715-.42426 0-.34211-.34211-.58787-.81456-.58787-1.31213 0-1.01569.78431-1.8 1.8-1.8.93749 0 1.67783.6682 1.78633 1.56979l1.5304.43726c.0295.00665.0584.01791.0859.03402l1.2739.7477c.0069.00393.0137.00811.0202.01256.043.02905.0763.06765.0987.11126.0229.04471.0344.09468.0331.14506-.0036.60976-.4316 1.14824-1.127 1.50852-.6967.36094-1.6286.53234-2.5404.53362-.0037.00014-.0074.00021-.0111.00021h-.289l.13514.74327c.02041.09812.08838.15673.20536.15673h.3c.1657 0 .3.13431.3.3 0 .16568-.1343.3-.3.3h-.3c-.38212 0-.71402-.24056-.79414-.64117l-.00104-.00516-.15516-.85367h-1.45162c-.0104.34052-.12693.65098-.31822.9h.51943c.16569 0 .3.13431.3.3 0 .16568-.13431.3-.3.3h-1.73137l-.01908.00011c-1.05968 0-2.06747-.611-2.51993-1.56904-.06639-.13328-.12049-.27227-.16251-.41507-.83991.11452-1.51711.8365-1.51711 1.68419 0 .93432.76569 1.70001 1.7 1.70001h4.5c.71569 0 1.3.5843 1.3 1.3s-.58431 1.3-1.3 1.3h-3c-.16569 0-.3-.1343-.3-.3s.13431-.3.3-.3h3c.38431 0 .7-.3157.7-.7s-.31569-.7-.7-.7h-4.5c-1.26569 0-2.3-1.03432-2.3-2.30001 0-1.15942.90436-2.11186 2.01261-2.27524-.04451-.66513.14373-1.35504.54502-1.90225.62332-.84999 1.68986-1.23453 2.73871-1.06892.16366.02584.27538.17946.24954.34312-.02584.16365-.17946.27538-.34312.24954-.85115-.1344-1.68461.18106-2.16129.83108-.36892.50306-.50665 1.15938-.40028 1.7502.00271.01093.00482.02209.0063.03345.03468.1765.09136.34672.17039.50477l.00319.00639c.34726.73792 1.13467 1.22489 1.97103 1.22776l.0079-.00009h.01466c.52702-.00776.93489-.42063.93489-.94989 0-.53432-.41569-.95-.95-.95-.16569 0-.3-.13432-.3-.3 0-.16569.13431-.3.3-.3.67127 0 1.23348.41146 1.45215.99989h1.79386l.00499-.00006.00615.00006h.63238c.00367-.00013.00727-.0002.01097-.0002.8542 0 1.6872-.16201 2.2747-.46637.4883-.25302.7193-.55444.7837-.82326l-1.0761-.63155-1.7091-.48834c-.0229-.00596-.0446-.01455-.065-.02541-.0391-.02076-.0723-.04955-.0981-.08364-.0265-.0349-.0455-.07578-.0547-.12026-.0046-.02179-.0067-.04422-.0062-.06694-.003-.68135-.51771-1.19403-1.20003-1.19403z"/><path d="m10.4602 4.95703c0-.15-.15-.3-.3-.3s-.30005.15-.30005.3.15005.3.30005.3.3-.15.3-.3z"/></g></svg>