<svg fill="none" height="25" viewBox="0 0 25 25" width="25" xmlns="http://www.w3.org/2000/svg"><g fill="#03a9f1"><path d="m13.9131 14.5334c-.2761 0-.5.2239-.5.5 0 .2762.2239.5.5.5zm8.912.5.0164-.4997c-.0055-.0002-.011-.0003-.0164-.0003zm.4699.5023.4993.0297.0004-.0127zm-8.4502 7.9641v.5h.0001zm-4.699 0-.0001.5h.0001zm-8.44202-7.9641-.49933.026.00019.0032zm.12963-.3564-.35724-.3501-.00875.0094zm.34027-.1459v-.5l-.00712.0001zm5.16083.5c.27614 0 .5-.2238.5-.5 0-.2761-.22386-.5-.5-.5zm9.81559-12.31741c-.1953.19526-.1953.51185 0 .70711s.5118.19526.7071 0zm1.1637-.45662-.3355-.3707c-.0062.00556-.0122.01128-.018.01714zm3.1273 1.4097-.5-.00592v.00592zm-.5 10.87253c0 .2762.2239.5.5.5s.5-.2238.5-.5zm-3.4886-8.27996-.3509-.35616c-.0082.00802-.016.01632-.0236.02487zm-.9884-3.72681-.1315.48241.0032.00085zm-2.1551.59143.3536.3536.0057-.00588zm-.1944.19444.3474.35971.0061-.00615zm0 .66435.3536-.35361-.0063-.00604zm2.4872 2.48724.3617-.34542-.0081-.00814zm.3322.13773-.0002-.50012-.011.00024zm.3322-.13773.3536.35345c.0072-.00718.0141-.01457.0209-.02216zm-3.3519 7.12171h-.5v.0008zm-6.5786 0h-.5zm0 5.1771h-.5c0 .0055.00009.011.00028.0165zm.4456.4537-.02559.4993c.00853.0004.01706.0007.02559.0007zm5.6712 0v-.5zm.4699-.47h.5v-.0007zm-.0093-3.7214h8.912v-1h-8.912zm8.8956-.0002c-.0018-.0001-.0036-.0005-.0053-.0013l.413-.9107c-.118-.0535-.2454-.0833-.3749-.0875zm-.0053-.0013c-.0017-.0007-.0032-.0018-.0044-.0031l.7303-.6832c-.0886-.0946-.1949-.1709-.3129-.2244zm-.0044-.0031c-.0012-.0014-.0022-.0029-.0029-.0046l.9363-.3515c-.0456-.1213-.1146-.2325-.2031-.3271zm-.0029-.0046c-.0006-.0018-.0009-.0036-.0008-.0054l.9994.0339c.0044-.1295-.0168-.2587-.0623-.38zm-.0002-.0181c-.1205 2.0272-1.0107 3.9318-2.4885 5.3247l.6858.7277c1.6634-1.5677 2.6653-3.7114 2.8009-5.9931zm-2.4885 5.3247c-1.4779 1.3928-3.4319 2.1687-5.4626 2.169l.0001 1c2.2857-.0004 4.485-.8736 6.1483-2.4413zm-5.4626 2.169h-4.699v1h4.699zm-4.6989 0c-2.02986-.0005-3.98285-.7765-5.45938-2.1694l-.68621.7274c1.66206 1.5679 3.86046 2.4415 6.14539 2.442zm-5.45938-2.1694c-1.47653-1.393-2.36499-3.2975-2.48359-5.3239l-.99829.0584c.1335 2.2811 1.1336 4.4249 2.79567 5.9929zm-2.48341-5.3207c.00009.0019-.00018.0038-.00082.0055l-.93979-.3417c-.04518.1242-.06492.2562-.05804.3882zm-.00082.0055c-.00064.0018-.00162.0034-.00289.0047l-.73198-.6813c-.09006.0968-.15975.2106-.20492.3349zm-.01176.014c-.00256.0026-.00606.0041-.00972.0042l-.01425-.9999c-.2601.0037-.50821.11-.69027.2958zm-.01685.0042h5.16083v-1h-5.16083zm15.68352-11.6103.8102-.81018-.7071-.70711-.8102.81018zm.7921-.79303c.1979-.17907.4436-.29653.7072-.33801l-.1554-.98784c-.4558.07171-.8807.27483-1.2228.58445zm.7072-.33801c.2636-.04147.5336-.00516.7768.1045l.411-.91166c-.4206-.18961-.8874-.2524-1.3432-.18068zm.7768.1045c.2433.10965.4493.28789.5928.51286l.8431-.53771c-.2481-.38901-.6043-.6972-1.0249-.88681zm.5928.51286c.1435.22497.2182.48692.215.75373l1 .01185c.0054-.46136-.1238-.91429-.3719-1.30329zm.215.75965v10.87253h1v-10.87253zm-3.1377 2.94873c.3417-.33666.5883-.7577.7147-1.2204l-.9646-.26362c-.08.29258-.2359.55882-.4519.7717zm.7147-1.2204c.1265-.46271.1283-.95062.0053-1.41427l-.9665.25635c.0777.29318.0766.60171-.0034.8943zm.0053-1.41427c-.1229-.46364-.3663-.88652-.7055-1.22574l-.7072.70701c.2145.2145.3684.48191.4462.77508zm-.7055-1.22574c-.3391-.33923-.7619-.58273-1.2255-.70582l-.2566.96652c.2931.07783.5605.23181.7749.44631zm-1.2223-.70496c-.4657-.12691-.9568-.12648-1.4223.00124l.2647.96435c.2928-.08034.6017-.08061.8946-.00079zm-1.4223.00124c-.4654.12773-.888.37807-1.2236.72487l.7186.69544c.2111-.21815.4769-.37562.7697-.45596zm-1.2178.71904-.1945.19444.7071.70711.1945-.19445zm-.1883.18834c-.0929.0897-.1667.19719-.2172.31605l.9205.3907c-.002.00472-.0049.00899-.0086.01255zm-.2172.31605c-.0504.11886-.0764.24666-.0764.37577h1c0 .00513-.001.01021-.0031.01493zm-.0764.37577c0 .12912.026.25692.0764.37578l.9205-.3907c.0021.00472.0031.0098.0031.01492zm.0764.37578c.0505.11886.1243.22634.2172.31605l.6947-.7193c.0037.00356.0066.00783.0086.01255zm.211.30995 2.4873 2.48724.7071-.70711-2.4873-2.48724zm2.4792 2.47902c.0908.09502.2003.17008.3217.2204l.383-.92374c.007.00289.0133.00721.0185.01268zm.3217.2204c.1213.05032.2519.0748.3832.07187l-.0223-.99975c.0076-.00017.0151.00124.0221.00414zm.3723.072c.2572-.00011.5038-.10237.6856-.28428l-.7073-.7069c.0056-.00565.0133-.00882.0213-.00882zm.7065-.30644.1863-.21065-.749-.66258-.1863.21065zm-3.2264 6.79042c0-.3818-.1517-.7481-.4217-1.0181l-.7071.7071c.0825.0825.1288.1944.1288.311zm-.4217-1.0181c-.27-.27-.6362-.4217-1.0181-.4217v1c.1167 0 .2285.0464.311.1288zm-1.0181-.4217h-4.69899v1h4.69899zm-4.69899 0c-.38186 0-.74808.1517-1.0181.4217l.70711.7071c.08248-.0824.19434-.1288.31099-.1288zm-1.0181.4217c-.27001.27-.42171.6363-.42171 1.0181h1c0-.1166.04634-.2285.12882-.311zm-.42171 1.0181v5.1771h1v-5.1771zm.00028 5.1936c.00806.243.10706.4741.27739.6475l.71345-.7007c.00528.0054.00836.0125.00861.0201zm.27739.6475c.17033.1734.39958.2766.64234.289l.05118-.9987c.00753.0004.01464.0036.01993.009zm.66793.2897h5.6712v-1h-5.6712zm5.6712 0c.2573 0 .504-.1022.6859-.2841l-.7072-.7071c.0057-.0057.0134-.0088.0213-.0088zm.6859-.2841c.1818-.1819.284-.4286.284-.6859h-1c0-.0079.0032-.0156.0088-.0212zm.284-.6866-.0081-5.1609-1 .0016.0081 5.1608z"/><path d="m12.1133 5.53418c.2761 0 .5-.22386.5-.5s-.2239-.5-.5-.5c-.2762 0-.5.22386-.5.5s.2238.5.5.5z"/><path d="m13.9727 7.59082c.2761 0 .5-.22386.5-.5s-.2239-.5-.5-.5c-.2762 0-.5.22386-.5.5s.2238.5.5.5z"/><path d="m16.543 8.66992c0 .27614-.2239.5-.5.5-.2762 0-.5-.22386-.5-.5s.2238-.5.5-.5c.2761 0 .5.22386.5.5z"/><path d="m14.2852 9.66992c0 .27614-.2239.49998-.5.49998-.2762 0-.5-.22384-.5-.49998s.2238-.5.5-.5c.2761 0 .5.22386.5.5z"/><path d="m12.1133 7.61035c0 .27614-.2239.5-.5.5-.2762 0-.5-.22386-.5-.5s.2238-.5.5-.5c.2761 0 .5.22386.5.5z"/></g></svg>