<svg fill="none" height="50" viewBox="0 0 50 50" width="50" xmlns="http://www.w3.org/2000/svg"><g fill="#03a9f1"><path clip-rule="evenodd" d="m38.6357 5.0902c.6233-.09807 1.2616-.0122 1.8368.24708s1.0623.68072 1.4015 1.21267c.3393.53195.516 1.15132.5085 1.7822v21.23435h-14.0508l-.0021-1.3801c-.0003-.6308-.2509-1.2357-.697-1.6818-.4463-.4463-1.0515-.697-1.6826-.697h-9.3979c-.6311 0-1.2363.2507-1.6826.697-.4462.4462-.6969 1.0515-.6969 1.6826v1.3793h-9.82133l-.00712.0001c-.38832.0055-.75885.1641-1.03066.4415l-.00875.0094c-.13446.1445-.2385.3145-.30594.4999-.06744.1855-.09692.3826-.08665.5797l.00019.0032c.25955 4.4347 2.20389 8.6026 5.43519 11.6509 3.23127 3.0484 7.50547 4.7467 11.94767 4.7477h9.398c4.4438-.0007 8.7196-1.6985 11.9535-4.7464 3.2339-3.0478 5.1819-7.2157 5.4456-11.6517l.0004-.0128c.0066-.1933-.025-.3861-.093-.5672s-.1711-.3471-.3032-.4884c-.1322-.1412-.2909-.2551-.4671-.335s-.3664-.1243-.5598-.1306l-.0164-.0003h-2.2707v-21.22549c.0092-.82439-.222-1.63363-.6654-2.32877-.4438-.69599-1.0811-1.24738-1.8336-1.58662-.7526-.33923-1.5878-.45158-2.4032-.32326-.8155.12831-1.5758.49171-2.1878 1.04566-.0061.00556-.0121.01128-.018.01714l-1.3631 1.36314c-.5409-.43981-1.1702-.76144-1.8476-.94151-.8444-.22984-1.735-.22891-2.579.0027-.8431.23139-1.6088.68454-2.2173 1.31227l-.3833.38324c-.1358.1321-.244.29001-.318.46447-.0747.17593-.1132.36509-.1132.5562s.0385.38027.1132.5562c.074.17445.1822.33234.318.46444l4.968 4.96809c.1327.1375.2922.2464.4688.3196.1769.0733.367.1093.5584.1058.3798-.0016.7437-.1532 1.0123-.422.0072-.0071.0141-.0145.0208-.0221l.3617-.4088c.614-.6094 1.0573-1.3694 1.2854-2.2041.2297-.8403.233-1.72642.0097-2.56846-.181-.68237-.5056-1.31612-.95-1.8598l1.3532-1.35316c.4662-.41887 1.0439-.69373 1.6632-.79118zm-4.7563 9.6296.0055-.0001-.0112-.4999.0002.5zm-1.0272-.4254-.0044-.0047.3616-.3453-.3536.3535zm-4.968-4.96809-.0027-.00275.3535-.35356-.3473.35965zm0-2.04131.0035-.00331.3473.35965-.3535-.35355zm.3833-.38324.0028-.00285.3536.35355-.3593-.34771zm4.7963-1.31497.0016.00044-.1315.4824.1283-.48326zm-4.7305 24.97971h14.6762l-22.7143 15.9324c-4.1871-.0009-8.2157-1.6018-11.26145-4.4751-3.04532-2.8729-4.87792-6.8007-5.12301-10.98-.00309-.0628.00638-.1256.02786-.1846.0209-.0575.05276-.1104.09379-.1557.08604-.0854.20171-.1345.32304-.137h9.81717v7.9745l.0002.0166c.012.3607.159.7037.4118.9611.2529.2575.5932.4106.9535.4291.0086.0004.0171.0006.0256.0006h11.3423c.3818 0 .748-.1517 1.0181-.4217.27-.27.4217-.637.4217-1.0189zm14.6762 0s-.0831.0163-.127.0163.1675-.0057.127-.0163zm0 0-22.7143 15.9324h9.3979c4.1889-.0007 8.2194-1.6011 11.2678-4.4741 3.0466-2.8713 4.8823-6.7971 5.1326-10.9759.0013-.0602-.0089-.1202-.03-.1767-.0218-.0581-.0549-.1113-.0973-.1566s-.0933-.0818-.1498-.1075c-.0545-.0247-.1131-.0388-.1728-.0416zm-27.8369 7.9647v-8.4522l.0001-.0125-.0001-.0125v-1.8668c0-.3659.1453-.7168.404-.9755s.6096-.4041.9755-.4041h9.3979c.3659 0 .7168.1454.9755.4041s.4041.6104.4041.9763l.0028 1.8261c-.0018.0172-.0027.0347-.0027.0524 0 .0182.001.0363.0029.054l.0132 8.3887c-.0002.1164-.0465.2281-.1289.3104-.0824.0825-.1943.1288-.3109.1288h-11.3271c-.1062-.008-.206-.0542-.2808-.1304-.0757-.077-.1203-.1791-.1255-.2868zm15.5769-31.97737c.6718-.18437 1.3808-.18499 2.053-.0018l.0031.00086c.6716.17828 1.284.53099 1.7752 1.02235.4913.49136.8438 1.10388 1.0219 1.77546.1781.6716.1755 1.3783-.0077 2.0485-.1831.6702-.5403 1.2801-1.0352 1.7677-.0046.0045-.009.0091-.0134.0138-.0035.0036-.0068.0074-.0102.0111l-.3607.4078c-.0815.0771-.1895.1201-.302.1201l-.0109.0003c-.0544.0012-.1084-.0089-.1586-.0298-.0502-.0208-.0954-.0519-.1329-.0912l-4.9825-4.9826-.0062-.00605c-.0409-.0395-.0735-.08684-.0957-.13918s-.0337-.10863-.0337-.1655.0115-.11315.0337-.16549c.0222-.05235.0548-.09963.0957-.13914l.3951-.39497.0057-.00589c.4845-.50061 1.0945-.86198 1.7663-1.04635z" fill-rule="evenodd"/><path d="m24.9609 9.5166c0 .27614-.2238.5-.5.5-.2761 0-.5-.22386-.5-.5s.2239-.5.5-.5c.2762 0 .5.22386.5.5z"/><path d="m27.8672 12.2793c0 .2761-.2239.5-.5.5-.2762 0-.5-.2239-.5-.5s.2238-.5.5-.5c.2761 0 .5.2239.5.5z"/><path d="m29.9883 15.543c.2761 0 .5-.2239.5-.5 0-.2762-.2239-.5-.5-.5-.2762 0-.5.2238-.5.5 0 .2761.2238.5.5.5z"/><path d="m27.0234 16.1592c.2762 0 .5-.2239.5-.5 0-.2762-.2238-.5-.5-.5-.2761 0-.5.2238-.5.5 0 .2761.2239.5.5.5z"/><path d="m30.4883 17.8877c0 .2761-.2239.5-.5.5-.2762 0-.5-.2239-.5-.5s.2238-.5.5-.5c.2761 0 .5.2239.5.5z"/><path d="m32.9531 17.7715c.2762 0 .5-.2239.5-.5 0-.2762-.2238-.5-.5-.5-.2761 0-.5.2238-.5.5 0 .2761.2239.5.5.5z"/><path d="m26.5234 19.4229c.2762 0 .5-.2239.5-.5 0-.2762-.2238-.5-.5-.5-.2761 0-.5.2238-.5.5 0 .2761.2239.5.5.5z"/><path d="m24.4023 16.1592c0 .2761-.2238.5-.5.5-.2761 0-.5-.2239-.5-.5 0-.2762.2239-.5.5-.5.2762 0 .5.2238.5.5z"/><path d="m24.2539 13.3945c.2761 0 .5-.2238.5-.5 0-.2761-.2239-.5-.5-.5s-.5.2239-.5.5c0 .2762.2239.5.5.5z"/></g></svg>