<svg fill="none" height="34" viewBox="0 0 34 34" width="34" xmlns="http://www.w3.org/2000/svg"><g stroke="#03a9f1" stroke-linecap="round" stroke-linejoin="round"><path d="m18.9217 20.4455h12.12c.0868.0028.1722.0228.2514.0587.0791.0358.1504.087.2097.1504.0594.0634.1056.138.1362.2193.0305.0813.0447.1679.0417.2547-.1741 2.93-1.4606 5.6829-3.5966 7.696s-4.9602 3.1344-7.8953 3.1349h-6.3906c-2.934-.0006-5.75687-1.1224-7.89107-3.1357-2.13421-2.0134-3.4184-4.7662-3.58983-7.6952-.00461-.0885.00862-.177.03891-.2603.03028-.0833.077-.1596.13738-.2245.12206-.1245.28839-.1958.46277-.1983h7.01857"/><path d="m23.8047 4.85474 1.1018-1.10182c.3671-.3323.8232-.55029 1.3124-.62726.4891-.07697.9901-.00958 1.4416.19392.4514.2035.8337.53426 1.0999.95176.2663.4175.405.9036.3991 1.39875v14.78641"/><path d="m23.7351 9.19591c.3793-.37369.653-.84102.7933-1.35461.1404-.51359.1424-1.05516.0059-1.56979s-.4066-.98401-.783-1.36054c-.3765-.37652-.8458-.6468-1.3604-.78342-.5158-.14058-1.0598-.14011-1.5754.00138-.5155.14148-.9836.41878-1.3554.80294l-.2645.26444c-.0606.05857-.1088.12876-.1418.20637-.0329.07761-.0499.16106-.0499.24537 0 .08432.017.16777.0499.24538.033.07761.0812.1478.1418.20637l3.3826 3.38258c.0582.06089.1284.109.2062.14125.0777.03225.1614.04794.2456.04606.1694-.00007.3319-.06745.4517-.18731z"/><path d="m18.9233 19.1678c0-.339-.1346-.6641-.3743-.9038s-.5648-.3744-.9038-.3744h-6.3905c-.339 0-.6641.1347-.9038.3744s-.37434.5648-.37434.9038v7.0406c.00532.1601.07054.3123.18274.4266.1123.1142.2633.1822.4233.1904h7.7127c.1695 0 .332-.0673.4519-.1872.1198-.1198.1871-.2824.1871-.4519z"/></g><g fill="#03a9f1"><path clip-rule="evenodd" d="m15.9414 7.44531c.2761 0 .5-.22386.5-.5s-.2239-.5-.5-.5-.5.22386-.5.5.2239.5.5.5zm2.9063 2.76269c.2761 0 .5-.22385.5-.49999s-.2239-.5-.5-.5c-.2762 0-.5.22386-.5.5s.2238.49999.5.49999zm3.1211 2.2637c0 .2761-.2239.5-.5.5-.2762 0-.5-.2239-.5-.5 0-.2762.2238-.5.5-.5.2761 0 .5.2238.5.5zm-2.9649.6162c0 .2761-.2239.5-.5.5s-.5-.2239-.5-.5c0-.2762.2239-.5.5-.5s.5.2238.5.5zm-2.7695-2.7647c0 .2762-.2239.5-.5.5-.2762 0-.5-.2238-.5-.5 0-.2761.2238-.49996.5-.49996.2761 0 .5.22386.5.49996z" fill-rule="evenodd"/><path d="m15.9414 7.44531c.2761 0 .5-.22385.5-.5 0-.27614-.2239-.5-.5-.5s-.5.22386-.5.5c0 .27615.2239.5.5.5z"/><path d="m18.8476 10.208c.2762 0 .5-.22385.5-.49999s-.2238-.5-.5-.5c-.2761 0-.5.22386-.5.5s.2239.49999.5.49999z"/><path d="m21.4687 12.9717c.2762 0 .5-.2239.5-.5 0-.2762-.2238-.5-.5-.5-.2761 0-.5.2238-.5.5 0 .2761.2239.5.5.5z"/><path d="m19.0039 13.0879c0 .2761-.2239.5-.5.5s-.5-.2239-.5-.5c0-.2762.2239-.5.5-.5s.5.2238.5.5z"/><path d="m15.7344 10.8232c.2761 0 .5-.2238.5-.5 0-.2761-.2239-.49996-.5-.49996-.2762 0-.5.22386-.5.49996 0 .2762.2238.5.5.5z"/><path clip-rule="evenodd" d="m27.455 3.77541c-.3628-.16352-.7653-.21767-1.1584-.15582-.3892.06124-.7523.23357-1.0458.49616l-.8189.81891c.2701.36031.4695.77042.5857 1.20867.1591.59987.1567 1.23113-.0069 1.82978-.162.59293-.4765 1.13296-.912 1.56644l-.2425.27412c-.0067.0076-.0137.01499-.0208.02216-.2123.21237-.4997.33227-.7998.33387-.1518.0026-.3025-.026-.4428-.0842-.1399-.058-.2663-.14414-.3716-.25301l-3.3765-3.37651c-.1072-.1045-.1926-.22932-.2511-.3672-.0592-.1394-.0897-.28929-.0897-.44073 0-.15143.0305-.30132.0897-.44072.0585-.13787.1439-.26269.2511-.36718l.2591-.25908c.4335-.44689.9789-.76952 1.5794-.93432.6013-.16502 1.2359-.16573 1.8376-.00204.4363.11605.8446.31454 1.2036.58317l.8285-.82851c.0059-.00586.0119-.01158.0181-.01715.4392-.39757.9849-.65839 1.5701-.75048.5853-.09209 1.1847-.01146 1.7248.23201.5401.24348.9975.63922 1.3161 1.13873.318.49867.4839 1.07914.4775 1.67051v14.27251h1.3822l.0164.0002c.1525.005.3025.04.4415.1031.1389.063.2641.1528.3683.2642.1043.1114.1855.2423.2392.3852.0536.1428.0785.2948.0734.4473l-.0006.0128c-.1817 3.0572-1.5241 5.9296-3.7529 8.0301-2.2287 2.1005-5.1756 3.2706-8.2382 3.2711h-6.3907c-3.0615-.0007-6.00711-1.1712-8.23408-3.272-2.22698-2.1009-3.56699-4.9734-3.74587-8.0297l-.00018-.0032c-.00809-.1554.01514-.3109.06833-.4572.0532-.1463.13525-.2803.2413-.3943l.00886-.0093c.21438-.2187.50651-.3439.81277-.3483h.00712 6.52021v-.7777c0-.4716.18733-.9239.52079-1.2574.33345-.3334.78575-.5208 1.25735-.5208h6.3905c.4716 0 .9239.1874 1.2573.5208.3333.3333.5206.7853.5208 1.2566l.0012.7785h9.235v-14.28134c.0047-.39787-.1067-.78848-.3206-1.12396-.214-.33549-.5212-.60127-.8839-.76479zm1.5996 17.17009h-9.6285l.0082 5.2408c0 .3021-.12.5919-.3336.8055s-.5033.3336-.8054.3336h-7.7127l-.0128-.0002-.0128-.0005c-.2851-.0146-.5544-.1357-.7544-.3394-.20003-.2037-.3163-.475-.32577-.7603l-.00027-.0166v-5.2629h-6.51547c-.03948.0011-.07711.0167-.10579.0437-.01266.0148-.02255.0317-.0292.05-.00726.0199-.0105.0411-.00954.0623.16448 2.8009 1.39275 5.4332 3.43367 7.3586 2.04141 1.9258 4.74157 2.9988 7.54797 2.9994h6.3905c2.8077-.0005 5.5092-1.0732 7.5524-2.9988 2.0412-1.9238 3.2715-4.5537 3.44-7.3533.0002-.0197-.0033-.0393-.0103-.0578-.0074-.0198-.0187-.038-.0331-.0534-.0145-.0155-.0319-.028-.0511-.0367-.0177-.008-.0366-.0127-.0559-.014h-1.7663zm-10.6294-.5598c-.0023.0196-.0035.0395-.0035.0598 0 .0207.0013.0412.0037.0613l.0089 5.6799c-.0001.0368-.0147.072-.0407.098-.0261.026-.0614.0407-.0983.0407h-7.6953c-.0317-.0035-.0614-.0179-.0839-.0408-.0232-.0236-.0372-.0546-.0395-.0875v-7.0293c0-.2064.0819-.4043.2279-.5502.1459-.146.3438-.228.5502-.228h6.3905c.2064 0 .4043.082.5502.228.1459.1459.2279.3446.2279.5509zm3.8342-15.77575c-.4294-.11704-.8824-.11664-1.3116.00115s-.8189.34866-1.1284.66849l-.0058.00584-.2644.26443-.0062.0061c-.0124.01194-.0222.02625-.0289.04207s-.0102.03283-.0102.05002c0 .0172.0035.03421.0102.05003s.0165.03013.0289.04207l.0062.0061 3.3826 3.38258.008.00822c.0102.01065.0225.01907.0361.02471s.0282.00838.0429.00805l.011-.00012c.0336-.00001.066-.01221.0912-.03415l.2396-.27092c.0076-.00856.0155-.01685.0236-.02487.3164-.31179.5448-.70173.6619-1.13026s.1188-.8804.0049-1.3098-.3393-.82104-.6534-1.13521c-.314-.31416-.7056-.53968-1.135-.65368z" fill-rule="evenodd"/></g></svg>