<svg fill="none" height="34" viewBox="0 0 34 34" width="34" xmlns="http://www.w3.org/2000/svg"><g fill="#f18303"><path d="m15.0804 21.0793c.5713-.3742 1.2394-.5734 1.9222-.5734.6829 0 1.351.1992 1.9222.5734.5713.3741 1.021.9069 1.2939 1.5328.1104.2532.405.3689.6582.2585.2531-.1103.3688-.405.2585-.6581-.3507-.8044-.9286-1.489-1.6627-1.9698-.7341-.4807-1.5925-.7368-2.4701-.7368-.8775 0-1.7359.2561-2.47.7368-.7341.4808-1.312 1.1654-1.6627 1.9698-.1103.2531.0054.5478.2585.6581.2532.1104.5478-.0053.6582-.2585.2729-.6259.7226-1.1587 1.2938-1.5328z"/><path d="m17.0007 11.4473c.4164 0 .8327.4163.8327.8327s-.4163.8327-.8327.8327-.8327-.4163-.8327-.8327.4163-.8327.8327-.8327z"/><path d="m14.321 8.44629c.4164 0 .8327.41636.8327.83273 0 .41636-.4163.83268-.8327.83268s-.8327-.41632-.8327-.83268c0-.41637.4163-.83273.8327-.83273z"/><path d="m20.5248 9.27902c0-.41637-.4163-.83273-.8327-.83273s-.8327.41636-.8327.83273c0 .41636.4163.83268.8327.83268s.8327-.41632.8327-.83268z"/><path clip-rule="evenodd" d="m24.347 10.3425c.4448-.2749.8393-.62531 1.1653-1.03631.3719-.44972.6501-.96928.8182-1.52813.1687-.56068.2233-1.14952.1603-1.73164-.0629-.58213-.242-1.14571-.5266-1.65739s-.669-.96105-1.1304-1.32152-.9905-.62471-1.5558-.77707-1.1555-.18975-1.7356-.10995c-.58.0798-1.1382.27516-1.6414.57452-.4029.23968-.764.54213-1.07.89527-.688-.17669-1.401-.25365-2.1171-.22576-.5298.02063-1.0534.09834-1.5621.23034-.7094-.73508-1.6566-1.20158-2.6792-1.31211-1.1323-.1224-2.2677.20135-3.16518.9025-.89749.70116-1.48635 1.72451-1.64156 2.85279-.15522 1.12828.13543 2.27262.81024 3.19008.00347.00472.00702.00937.01066.01396.32618.41231.72123.76382 1.16685 1.03952-.01999.3361-.01696.6744.00954 1.0124.10356 1.3205.56165 2.5887 1.32585 3.6706.3467.4909.7506.9351 1.2014 1.3244-.6167-.1004-1.2664-.1888-1.9018-.2375-.98045-.0752-1.97669-.0606-2.78056.1805-.82237.2466-1.522.7621-1.69944 1.7098-.10893.5855-.06752 1.092.1386 1.5193.20629.4278.54759.7147.92063.9177.36698.1997.79005.3318 1.19818.44.18202.0483.36872.0936.55078.1378l.07149.0174c.09238.0225.18362.0448.27375.0675-.01157.0283-.02071.0581-.02708.0892-.20983 1.0235-.24137 2.0755-.09332 3.1096-2.03853.0567-3.67366 1.727-3.67366 3.7792 0 2.0881 1.69268 3.7807 3.7807 3.7807 1.59793 0 2.96433-.9913 3.51773-2.3925 1.4525 1.1484 2.9967 1.7481 4.5705 1.7481 1.5544 0 3.0798-.5849 4.5166-1.7057.564 1.3788 1.9189 2.3501 3.5006 2.3501 2.0881 0 3.7807-1.6926 3.7807-3.7807 0-2.0516-1.6341-3.7215-3.6718-3.7791.1464-1.0304.1143-2.0784-.095-3.0981-.0071-.0347-.0177-.0679-.0313-.0992.1091-.0275.2251-.0559.343-.0847.2368-.0578.4813-.1176.6931-.1763.3919-.1088.795-.2443 1.1437-.4481.3554-.2076.6735-.4973.8623-.9179.1879-.4185.2221-.9097.1166-1.4743-.1774-.9477-.877-1.4632-1.6994-1.7098-.8039-.2411-1.8001-.2557-2.7805-.1805-.637.0488-1.2882.1375-1.9061.2382.523-.4515.9826-.9768 1.3629-1.5622.7745-1.1926 1.187-2.5839 1.1876-4.0059.0001-.1467-.0042-.2932-.0129-.4391zm-1.3292-7.08651c-.4362-.11755-.8915-.1464-1.3391-.08483-.4475.06157-.8782.2123-1.2664.44326-.1901.11311-.3682.24432-.5318.39152.2155.09164.427.19375.6338.30615 1.1639.63247 2.1355 1.56735 2.8123 2.70599.4086.68727.7006 1.4334.8678 2.20823.1978-.16117.378-.34381.5372-.54503l.0071-.009c.2884-.34777.5041-.74976.6342-1.18235.1302-.4326.1723-.88691.1237-1.33604-.0485-.44913-.1867-.88396-.4063-1.27875-.2196-.39478-.5162-.74149-.8722-1.01961s-.7641-.48199-1.2003-.59954zm1.1452 17.76821c-.4148-.1394-.8088-.3367-1.1701-.5866-.2271-.1571-.2838-.4685-.1267-.6956s.4685-.2839.6956-.1268c.3547.2454.7495.4262 1.1662.5345.1593-.041.3067-.0768.4497-.1114.211-.0512.4122-.1.6277-.1598.3672-.1019.6709-.2102.9067-.3479.2292-.1339.3733-.2833.4544-.464.0821-.1829.1254-.4554.046-.8808-.0851-.4539-.398-.7543-1.0038-.936-.6243-.1872-1.472-.2137-2.4168-.1412l-2.7892.398-.6948.1322c-.549.1056-1.0344.199-1.377.2423-.6277.1713-1.277.2587-1.931.2587-.6553 0-1.3059-.0878-1.9347-.2597-.3422-.0437-.8242-.1365-1.369-.2413-.2229-.0429-.4563-.0878-.6949-.1322-.8726-.1623-1.8543-.3263-2.7892-.398-.94478-.0725-1.79244-.046-2.41679.1412-.60572.1817-.91863.4818-1.00373.9357-.08188.4403-.03243.7172.05633.9012.08859.1837.24611.3367.49789.4737.25785.1403.58561.2482.97641.3518.17123.0454.34718.0881.53046.1326l.07199.0175c.17369.0423.35302.0864.53196.1343.41099-.1057.80558-.2681 1.17218-.4826.2384-.1394.5447-.0592.6841.1791.1394.2384.0593.5446-.1791.6841-.391.2287-.8079.4087-1.24153.5365.03263.0857.04209.1813.02231.2778-.18877.9208-.21539 1.8675-.07864 2.7974.01073.073.0051.1447-.01413.2113 1.66709.3941 2.90759 1.8918 2.90759 3.6793 0 .1001-.0039.1993-.0116.2974 1.4318 1.2481 2.8932 1.8389 4.3191 1.8389 1.404 0 2.8424-.5727 4.2529-1.7817-.0108-.1168-.0164-.235-.0164-.3546 0-1.7864 1.2391-3.2835 2.9047-3.6787-.0167-.0634-.0212-.1313-.011-.2003.1369-.9298.1103-1.8765-.0787-2.7971-.028-.1367.0026-.2718.0746-.3792zm-7.1631-3.8844c-.5583 0-1.1127-.0738-1.6489-.2183-.0267-.01-.0545-.0177-.0833-.0231-.2597-.0738-.515-.1643-.7642-.2711-.4218-.4655-.7059-1.0399-.8193-1.659-.1192-.6507-.0447-1.3221.2143-1.9308.259-.6088.691-1.128 1.2425-1.4934.5513-.3652 1.1976-.5605 1.8589-.5617.6612.0012 1.3076.1965 1.8589.5617.5515.3654.9835.8846 1.2425 1.4934.259.6087.3335 1.2801.2143 1.9308-.1135.6191-.3975 1.1935-.8193 1.659-.2525.1082-.5113.1997-.7746.2741-.0189.0041-.0373.0092-.0552.0153-.5418.1477-1.1022.2231-1.6666.2231zm-6.3287-6.9844c.0046-.0252.0073-.0505.008-.0758.081-.73275.2892-1.44896.6181-2.11553.5066-1.02644 1.2808-1.89714 2.241-2.52024.9602-.62311 2.0707-.97552 3.2145-1.02007 1.1437-.04454 2.2783.22043 3.2841.76697 1.0057.54654 1.8453 1.35438 2.4301 2.33832.5849.98393.8934 2.10748.8929 3.25215-.0005 1.2287-.3569 2.4311-1.0263 3.4615-.3147.4846-.6923.9214-1.1207 1.3003.0366-.1297.0672-.2613.0918-.3945.156-.8446.06-1.7164-.276-2.5069-.336-.7904-.897-1.4645-1.6134-1.9384-.7163-.4739-1.5562-.72654-2.415-.72654-.8589 0-1.6988.25264-2.4151.72654s-1.2774 1.148-1.6133 1.9384c-.336.7905-.432 1.6623-.2761 2.5069.0246.1332.0553.2648.0919.3945-.367-.3245-.6968-.6917-.9819-1.0953-.6604-.935-1.0562-2.0308-1.1457-3.1719-.0294-.3746-.0254-.7495.0111-1.1204zm-.86477-.93021c-.19483-.15896-.3726-.33877-.52995-.53665-.51695-.70666-.73931-1.5866-.61995-2.45421.11975-.87052.57408-1.66008 1.26653-2.20105.69244-.54097 1.56844-.79076 2.44214-.69632.6267.06774 1.2168.30882 1.7073.68941-.3735.16196-.7344.35526-1.0786.57861-1.1111.72109-2.0071 1.72869-2.5933 2.91653-.2684.54382-.4673 1.11617-.59417 1.70368zm-3.63846 18.85431c0-1.5357 1.24496-2.7807 2.7807-2.7807 1.53573 0 2.78073 1.245 2.78073 2.7807 0 1.5358-1.245 2.7807-2.78073 2.7807-1.53574 0-2.7807-1.2449-2.7807-2.7807zm18.88613-2.7807c-1.5357 0-2.7807 1.245-2.7807 2.7807 0 1.5358 1.245 2.7807 2.7807 2.7807 1.5358 0 2.7807-1.2449 2.7807-2.7807 0-1.5357-1.2449-2.7807-2.7807-2.7807z" fill-rule="evenodd"/></g></svg>