<svg fill="none" height="15" viewBox="0 0 15 15" width="15" xmlns="http://www.w3.org/2000/svg"><g fill="#f18303"><path d="m6.69703 9.36659c.2391-.15659.5187-.24.80452-.24.28581 0 .56542.08341.80452.24s.4273.37956.54153.64151c.06622.1519.24302.2214.39489.1552.15188-.0663.22133-.24306.15511-.39494-.1609-.36905-.42601-.68313-.7628-.9037-.3368-.22058-.73065-.33807-1.13325-.33807s-.79645.11749-1.13325.33807c-.3368.22057-.60191.53465-.76281.9037-.06621.15188.00323.32864.15511.39494.15188.0662.32868-.0033.39489-.1552.11423-.26195.30244-.48492.54154-.64151z"/><path d="m7.50178 5.05081c.18369 0 .36738.18369.36738.36738s-.18369.36737-.36738.36737-.36738-.18368-.36738-.36737.18369-.36738.36738-.36738z"/><path d="m6.31819 3.72717c.18369 0 .36738.18369.36738.36738s-.18369.36738-.36738.36738-.36738-.18369-.36738-.36738.18369-.36738.36738-.36738z"/><path d="m9.0551 4.09455c0-.18369-.18369-.36738-.36738-.36738s-.36738.18369-.36738.36738.18369.36738.36738.36738.36738-.18369.36738-.36738z"/><path clip-rule="evenodd" d="m10.8235 4.606c.1879-.12199.3552-.27387.495-.45002.1706-.20643.2982-.44485.3753-.70128.0775-.25754.1026-.528.0737-.79538s-.1112-.52625-.2419-.76127c-.1308-.23502-.3073-.44143-.5192-.607-.212-.16557-.455-.28694-.7146-.35692-.2597-.069982-.53079-.087155-.79722-.050503-.26643.036653-.52279.126383-.75392.263883-.17099.10172-.32559.22806-.45899.37463-.29658-.07165-.60293-.10247-.91056-.09049-.22428.00873-.44611.0401-.66228.09307-.32205-.31893-.74415-.52115-1.1986-.570272-.52009-.056221-1.04162.092482-1.45385.414542-.41223.32205-.6827.7921-.754 1.31033-.07129.51824.06221 1.04386.37217 1.46527.00208.00283.00421.00562.00639.00837.14014.17716.30801.32986.49669.45243-.00615.13627-.00394.27323.0068.4101.0468.59685.25382 1.17001.59922 1.65901.10631.1505.22451.29131.35315.42125-.19487-.02786-.39403-.05139-.59037-.06645-.43536-.03338-.88668-.0279-1.25559.08274-.38.11397-.71937.35848-.80499.81578-.0502.26982-.03258.51157.06767.71942.10036.20807.26553.34529.43973.44009.17057.09282.36479.15306.54622.20115.08116.02151.16438.04172.24461.0612l.07272.01772c-.08259.42125-.09823.8527-.04646 1.2786-.90062.0703-1.60953.8234-1.60953 1.742 0 .9651.78232 1.7474 1.74736 1.7474.70147 0 1.30639-.4133 1.5845-1.0097.62864.4749 1.29862.7259 1.98495.7259.67758 0 1.33921-.2446 1.96086-.7079.28183.5867.88162.9917 1.57592.9917.9651 0 1.7474-.7823 1.7474-1.7474 0-.9193-.71-1.6729-1.6116-1.7422.0512-.4255.035-.85656-.0481-1.27734.0229-.00564.0464-.01138.0701-.01718.1064-.02603.2183-.05342.3115-.07926.1748-.04852.3606-.1105.5234-.20561.1668-.09746.321-.23642.4128-.44104.0913-.20333.1056-.43728.0571-.69741-.0857-.4573-.4251-.70195-.8051-.81592-.3689-.11064-.8202-.11612-1.2555-.08274-.197.01511-.3969.03874-.59236.06672.15896-.16048.30186-.33748.42606-.52871.3501-.53898.5365-1.16783.5368-1.81052 0-.05036-.0011-.10063-.0034-.15079zm-.6879-3.09254c-.18215-.0491-.37233-.06115-.55925-.03543-.18692.02571-.36678.08867-.52893.18513-.04364.02597-.08577.05422-.1262.08461.05655.02671.11244.05506.16758.08503.52603.28585.9652.70839 1.2711 1.22302.1616.27196.2829.56431.3613.86791.0459-.0446.089-.09226.1289-.14271l.0043-.00539c.1204-.14525.2105-.31314.2649-.49381.0544-.18068.0719-.37043.0516-.55802-.0202-.18758-.0779-.36919-.1697-.53408-.0917-.16489-.2155-.3097-.3642-.42585-.1487-.11616-.3192-.20131-.5014-.25041zm.4167 7.8083c-.1604-.0612-.3132-.14158-.455-.23966-.13623-.09426-.17029-.28113-.076-.41739.0942-.13626.2811-.17032.4174-.07606.1435.09931.3027.17341.4708.21932.0651-.0166.1244-.03096.1816-.04482.091-.02204.1768-.04282.2721-.06928.16-.04441.2861-.09.3812-.14554.0911-.0532.1409-.10799.1681-.16866.0278-.06197.0477-.16486.0147-.34157-.0302-.16105-.1376-.27636-.3876-.35135-.2612-.07834-.6234-.09095-1.0374-.0592-.408.03129-.83773.10301-1.22205.17451-.10319.0192-.20485.03876-.30247.05754-.2396.0461-.45488.08752-.60866.10742-.28205.07645-.57371.11548-.86746.11548-.29363 0-.58519-.039-.86715-.1154-.15382-.01986-.36936-.06133-.60929-.1075-.09762-.01878-.1993-.03834-.30248-.05754-.38432-.0715-.81404-.14322-1.22209-.17451-.41398-.03175-.77615-.01914-1.03734.0592-.25002.07498-.35738.19029-.38758.35134-.03396.18269-.01152.28663.01832.34849.02974.06167.08464.11852.18609.17372.10508.05719.24212.10287.41315.1482.07467.01979.15142.03844.23236.0581l.03185.00774c.06972.01696.14213.03473.21485.05395.16677-.04486.32693-.1118.47621-.19912.14301-.08367.32676-.03556.41043.10745.08366.14301.03555.32677-.10746.41043-.1567.09167-.32256.16618-.4947.22238.00217.02745.00056.05567-.00525.08401-.08142.39717-.0929.80546-.03392 1.20666.00224.0152.00329.0303.00323.0452.73543.2061 1.27475.8815 1.27475 1.6827 0 .0324-.00088.0646-.00262.0966.61139.524 1.22836.767 1.8247.767.58626 0 1.19246-.2348 1.79369-.7407-.00282-.0406-.00425-.0816-.00425-.1229 0-.8002.53796-1.4749 1.27194-1.6819.0002-.0133.0013-.0267.0033-.0402.059-.4011.0476-.80942-.034-1.20653-.0096-.04718-.0077-.09405.004-.13761zm-3.05074-1.83926c-.23961 0-.47753-.03171-.70767-.09382-.01109-.00379-.02251-.00697-.0342-.00947-.10597-.03009-.21022-.06666-.31214-.10958-.16983-.19209-.28434-.42716-.33068-.68007-.04979-.27177-.01867-.55218.08949-.80642.10817-.25424.28863-.47112.51897-.6237.2302-.1525.50011-.23407.77623-.23461.27613.00054.54603.08211.77624.23461.23034.15258.4108.36946.51896.6237.10817.25424.13929.53465.0895.80642-.03488.19035-.10837.37058-.21499.52999-.03532.05256-.07425.10284-.11659.15045-.10133.04263-.20496.07898-.31029.10894-.01258.00263-.02483.00604-.03672.01016-.22965.06184-.46704.0934-.70611.0934zm-3.22149-3.5594c.05683-.21991.13628-.43433.23765-.63975.26496-.53686.66989-.99227 1.1721-1.31817.11601-.07529.23622-.14302.35988-.20296-.18087-.11472-.38717-.18781-.60396-.21125-.36488-.03944-.73076.06489-1.01997.29083s-.47897.55571-.52898.91929c-.04978.36185.04275.72882.25798 1.02375.0389.0488.08075.09496.1253.13826zm-1.47926 8.4649c0-.6337.51369-1.1474 1.14736-1.1474.63368 0 1.14737.5137 1.14737 1.1474s-.51369 1.1474-1.14737 1.1474c-.63367 0-1.14736-.5137-1.14736-1.1474zm8.25359-1.1474c-.6336 0-1.14734.5137-1.14734 1.1474s.51374 1.1474 1.14734 1.1474c.6337 0 1.1474-.5137 1.1474-1.1474s-.5137-1.1474-1.1474-1.1474zm-3.65994-9.20941c.49032-.01909.97671.0945 1.40786.32879.43114.2343.79106.58061 1.04179 1.00241.25069.42181.38299.90346.38279 1.39415-.0002.52677-.153 1.04219-.43998 1.48395-.08782.13521-.18706.26175-.2963.37841.05221-.36308.00415-.73408-.13973-1.07259-.15432-.36306-.41203-.6727-.74105-.89036-.32901-.21766-.71479-.33371-1.10928-.33371s-.78027.11605-1.10929.33371c-.32901.21766-.58672.5273-.74104.89036-.14388.33851-.19194.70951-.13973 1.07259-.08521-.091-.16436-.18804-.23677-.29056-.2831-.40079-.45278-.87057-.49114-1.35976s.05601-.97967.27318-1.41969c.21716-.44003.54905-.81329.96067-1.08041s.8877-.41819 1.37802-.43729z" fill-rule="evenodd"/></g></svg>