<svg fill="none" height="25" viewBox="0 0 25 25" width="25" xmlns="http://www.w3.org/2000/svg"><g fill="#f18303"><path d="m11.1617 15.6109c.3985-.2609.8645-.4 1.3408-.4.4764 0 .9424.1391 1.3409.4.3985.261.7122.6326.9026 1.0693.1103.2531.405.3689.6581.2585.2531-.1103.3689-.405.2585-.6581-.2681-.6151-.71-1.1386-1.2713-1.5062s-1.2178-.5635-1.8888-.5635-1.3274.1959-1.8887.5635-1.00318.8911-1.27135 1.5062c-.11036.2531.00537.5478.25851.6581.25313.1104.54784-.0054.65814-.2585.1904-.4367.5041-.8083.9026-1.0693z"/><path d="m12.5029 8.41797c.3062 0 .6123.30615.6123.6123s-.3061.6123-.6123.6123c-.3061 0-.6123-.30615-.6123-.6123s.3062-.6123.6123-.6123z"/><path d="m10.5303 6.21191c.3061 0 .6123.30615.6123.6123s-.3062.6123-.6123.6123c-.3062 0-.61233-.30615-.61233-.6123s.30613-.6123.61233-.6123z"/><path d="m15.0918 6.82421c0-.30615-.3062-.6123-.6123-.6123-.3062 0-.6123.30615-.6123.6123s.3061.6123.6123.6123c.3061 0 .6123-.30615.6123-.6123z"/><path clip-rule="evenodd" d="m18.0392 7.67663c.3131-.20332.5919-.45646.825-.75004.2842-.34404.4969-.74142.6255-1.1688.1292-.42923.1709-.88.1227-1.32563-.0482-.44564-.1853-.87708-.4031-1.26878-.2179-.39171-.5122-.73572-.8654-1.01167s-.7582-.47823-1.191-.59487c-.4328-.11663-.8846-.14526-1.3286-.08417-.4441.06109-.8714.21064-1.2566.43981-.285.16954-.5426.38009-.765.62438-.4943-.11941-1.0048-.17079-1.5176-.15082-.3738.01455-.7435.06683-1.1038.15512-.5367-.53156-1.2402-.86858-1.99763-.95045-.86682-.09371-1.73602.15413-2.42307.69089s-1.13785 1.32017-1.25667 2.1839.10368 1.73976.62027 2.4421c.00347.00472.00702.00937.01065.01396.23358.29526.51336.54977.82782.75404-.01025.22713-.00656.45539.01133.68351.07801.99475.42304 1.94999.99871 2.76499.17717.2509.37417.4855.58858.7021-.32479-.0464-.65671-.0856-.98395-.1107-.7256-.0557-1.4778-.0465-2.09265.1379-.63333.1899-1.19895.5974-1.34165 1.3596-.08367.4497-.0543.8526.11279 1.199.16726.3468.44254.5755.73289.7335.28428.1547.60797.2551.91036.3353.13527.0358.27397.0695.40767.102l.12121.0295c-.13765.7021-.16372 1.4212-.07744 2.131-1.50102.1171-2.68255 1.3723-2.68255 2.9034 0 1.6084 1.30387 2.9122 2.91228 2.9122 1.1691 0 2.17731-.6888 2.64083-1.6828 1.04772.7916 2.16432 1.2098 3.30822 1.2098 1.1293 0 2.232-.4076 3.2681-1.1797.4697.9777 1.4693 1.6527 2.6266 1.6527 1.6084 0 2.9123-1.3038 2.9123-2.9122 0-1.5323-1.1833-2.7882-2.686-2.9037.0853-.7092.0583-1.4276-.0802-2.1289.0382-.0094.0773-.019.1168-.0287.1774-.0434.364-.089.5192-.1321.2914-.0808.601-.1841.8723-.3427.2781-.1624.535-.394.6881-.735.1521-.3389.176-.7288.0951-1.1624-.1427-.7621-.7084-1.1699-1.3417-1.3598-.6149-.1844-1.3671-.1936-2.0927-.1379-.3283.0251-.6613.0645-.9872.1112.2649-.2675.5031-.5625.7101-.8812.5835-.8983.8942-1.94641.8947-3.01756 0-.08392-.0019-.16771-.0056-.25131zm-1.1465-5.15424c-.3037-.08183-.6206-.10191-.9322-.05905-.3115.04286-.6113.14778-.8815.30856-.0727.04327-.143.09036-.2103.141.0942.04453.1874.09177.2793.14172.8767.47643 1.6086 1.18065 2.1184 2.03837.2694.45327.4716.94053.6023 1.44652.0765-.07434.1483-.15377.2148-.23784l.0071-.009c.2007-.24208.3509-.52189.4415-.82302s.1199-.61737.0861-.93002c-.0338-.31264-.13-.61533-.2828-.89014-.1529-.27481-.3594-.51616-.6072-.70975-.2478-.1936-.5319-.33552-.8355-.41735zm.6944 13.01381c-.2673-.102-.5219-.2359-.7583-.3994-.2271-.1571-.2838-.4686-.1267-.6957s.4685-.2838.6956-.1267c.2393.1655.5047.289.7847.3655.1085-.0277.2073-.0516.3027-.0747.1516-.0367.2947-.0714.4536-.1155.2667-.074.4768-.1499.6353-.2425.1518-.0887.2348-.18.2801-.2811.0464-.1033.0795-.2748.0245-.5693-.0504-.2684-.2293-.4606-.646-.5856-.4353-.1306-1.0389-.1516-1.7289-.0987-.6801.0522-1.3963.1717-2.0368.2909-.172.032-.3414.0646-.5041.0959-.3994.0768-.7582.1459-1.0145.179-.4701.1274-.9562.1925-1.4457.1925-.4894 0-.9754-.065-1.4453-.1923-.2564-.0331-.6156-.1023-1.0155-.1792-.16267-.0313-.33214-.0639-.5041-.0959-.64054-.1192-1.35674-.2387-2.03683-.2909-.68997-.0529-1.29358-.0319-1.7289.0987-.4167.125-.59562.3172-.64596.5856-.0566.3045-.0192.4777.03053.5808.04957.1028.14107.1975.31015.2895.17514.0953.40353.1715.68859.247.12444.033.25236.0641.38726.0969l.05309.0129c.11619.0282.23687.0579.35808.0899.27795-.0748.54489-.1863.79368-.3319.23835-.1394.54461-.0593.68405.1791.13944.2383.05925.5446-.1791.684-.26116.1528-.5376.277-.8245.3707.00362.0457.00094.0928-.00874.14-.13571.6619-.15484 1.3425-.05654 2.011.00373.0254.00548.0506.00538.0754 1.22572.3436 2.12459 1.4691 2.12459 2.8046 0 .054-.00147.1076-.00437.1609 1.01894.8734 2.04724 1.2783 3.04114 1.2783.9771 0 1.9875-.3913 2.9895-1.2344-.0047-.0677-.0071-.136-.0071-.2048 0-1.3338.8966-2.4582 2.12-2.8033.0003-.0221.002-.0445.0054-.067.0984-.6685.0793-1.349-.0566-2.0108-.0161-.0787-.0128-.1568.0066-.2294zm-5.0845-3.0654c-.3994 0-.7959-.0528-1.1795-.1564-.0185-.0063-.0375-.0116-.057-.0158-.1766-.0501-.3504-.1111-.5202-.1826-.2831-.3201-.4739-.7119-.5512-1.1334-.0829-.453-.0311-.9203.1492-1.34407.1803-.42374.481-.7852.8649-1.03951.3837-.25416.8336-.39012 1.2938-.39101.4602.00089.91.13685 1.2937.39101.3839.25431.6847.61577.8649 1.03951.1803.42377.2322.89107.1492 1.34407-.0581.3172-.1806.6176-.3583.8833-.0589.0876-.1238.1714-.1943.2507-.1689.0711-.3416.1317-.5172.1816-.021.0044-.0414.0101-.0612.0169-.3827.1031-.7784.1557-1.1768.1557zm-5.3692-5.93234c.09473-.36651.22713-.72389.3961-1.06625.44159-.89477 1.11648-1.65378 1.95349-2.19696.19336-.12548.39371-.23836.59981-.33826-.30146-.1912-.64529-.31302-1.0066-.35208-.60814-.06573-1.21794.10814-1.69996.48472-.48201.37657-.79828.92619-.88164 1.53215-.08296.60308.07125 1.2147.42998 1.70624.06482.08133.13459.15828.20882.23044zm-2.46543 14.10824c0-1.0562.85616-1.9123 1.91228-1.9123s1.91228.8561 1.91228 1.9123c0 1.0561-.85616 1.9122-1.91228 1.9122s-1.91228-.8561-1.91228-1.9122zm13.75603-1.9123c-1.0561 0-1.9123.8561-1.9123 1.9123 0 1.0561.8562 1.9122 1.9123 1.9122s1.9123-.8561 1.9123-1.9122c0-1.0562-.8562-1.9123-1.9123-1.9123zm-6.0999-15.34912c.8172-.03183 1.6278.15749 2.3464.54798.7186.3905 1.3184.96769 1.7363 1.67069s.6383 1.50576.638 2.32358c-.0004.87794-.2551 1.73698-.7333 2.47327-.1464.2253-.3118.4362-.4938.6307.087-.6052.0069-1.22351-.2329-1.78769-.2572-.6051-.6867-1.12117-1.2351-1.48393-.5484-.36277-1.1913-.55619-1.8488-.55619s-1.3005.19342-1.8488.55619c-.5484.36276-.9779.87883-1.23508 1.48393-.2398.56418-.31991 1.18249-.2329 1.78769-.142-.1517-.27392-.3134-.39462-.4843-.47183-.668-.75462-1.45095-.81856-2.26627s.09336-1.63279.4553-2.36616c.36193-.73338.91509-1.35547 1.60116-1.80067.686-.4452 1.4795-.69699 2.2967-.72882z" fill-rule="evenodd"/></g></svg>