<svg fill="none" height="34" viewBox="0 0 34 34" width="34" xmlns="http://www.w3.org/2000/svg"><g stroke="#f94409" stroke-linecap="round" stroke-linejoin="round"><path d="m7.38548 19.6136-3.78754 11.1012c-.05733.181-.05187.3762.01549.5537.06736.1776.19267.3273.35567.4248.08138.0384.16956.0604.25946.0647.08991.0042.17977-.0093.26442-.0399.08466-.0306.16244-.0776.22888-.1383s.12023-.1339.15827-.2155l6.21697-12.1387"/><path d="m27.7913 23.7725 2.3619 6.9424c.0605.1774.0602.3699-.0009.5471s-.1795.329-.3365.4314c-.0812.0396-.1695.0625-.2597.0674-.0902.0048-.1804-.0085-.2654-.0392-.0849-.0307-.1629-.0781-.2292-.1394-.0663-.0614-.1196-.1354-.1567-.2178l-3.5767-6.9761"/><path d="m31.4268 21.8832-2.168-4.7661c-.5736-1.2653-1.3497-1.9823-2.1595-1.9823h-20.43922c-.84356 0-1.59432.717-2.16793 1.9823l-2.16793 4.7661s8.51988-6.0314 14.55128 0 14.5513 0 14.5513 0z"/><path d="m4.22266 12.6035 1.1894 1.8137c.1538.2305.36201.4196.60624.5505s.51695.1997.79406.2002h12.53514c.2786.0009.553-.0672.7988-.1982s.4554-.3208.61-.5525l1.1809-1.7799"/><path d="m3.37891 12.6035h19.40169"/><path d="m13.0778 5.0121c.2503 0 .4949-.07421.703-.21325.2081-.13903.3703-.33665.466-.56786.0958-.23121.1209-.48562.072-.73107-.0488-.24545-.1693-.47091-.3462-.64787-.177-.17696-.4025-.29747-.6479-.34629-.2455-.04882-.4999-.02377-.7311.072s-.4288.25795-.5679.46604c-.139.20808-.2132.45272-.2132.70297 0 .33559.1333.65743.3706.89473.2373.23729.5591.3706.8947.3706z"/><path d="m5.48438 12.6037c0-2.0135.79986-3.94458 2.22363-5.36835s3.35479-2.22363 5.36829-2.22363c2.0136 0 3.9446.79986 5.3684 2.22363 1.4237 1.42377 2.2236 3.35485 2.2236 5.36835"/><path d="m10.4141 7.79594c.8074-.44051 1.7121-.67247 2.6318-.67485"/><path d="m26.1445 5.19727v9.34653"/><path d="m24.1211 14.5439h4.0406"/><path d="m30.1097 5.19727v1.41716c-.0471 1.02097-.4858 1.98453-1.225 2.69039-.7391.70588-1.7219 1.09968-2.7439 1.09968-1.0221 0-2.0048-.3938-2.744-1.09968-.7391-.70586-1.1778-1.66942-1.2249-2.69039v-1.41716"/></g><g fill="#f94409"><path d="m26.787 2.83536c.0105.09094.0015.18305-.0261.2703-.0277.08725-.0735.16767-.1345.23597-.0609.06831-.1356.12297-.2191.16039-.0835.03743-.174.05677-.2656.05677-.0915 0-.182-.01934-.2655-.05677-.0836-.03742-.1583-.09208-.2192-.16039-.0609-.0683-.1067-.14872-.1344-.23597s-.0366-.17936-.0262-.2703c.1054-.42455.2792-.82912.5146-1.19785.0209-.03271.0535-.05618.0911-.06559.0377-.00942.0775-.00405.1113.01498.0252.00909.0462.0271.0591.05061.2353.36873.4091.7733.5145 1.19785z"/><path d="m30.583 2.83514c.0023.17083-.0629.33569-.1813.45885-.1184.12315-.2806.19469-.4514.19912-.0842.00111-.1678-.01437-.246-.04556s-.1495-.07749-.2098-.13624-.1085-.1288-.1417-.20616-.0509-.16052-.052-.24471c.0989-.4346.273-.84856.5145-1.22315.0087-.01678.0209-.03155.0357-.04334.0147-.01179.0318-.02035.0501-.02513.0183-.00477.0374-.00564.056-.00257.0187.00308.0365.01004.0523.02043.0252.00909.0462.02709.059.05061.2354.36873.4092.7733.5146 1.19785z"/><path d="m22.9892 2.83514c.0023.17083-.0628.33569-.1812.45885-.1185.12315-.2806.19469-.4514.19912-.0842.00111-.1678-.01437-.246-.04556s-.1495-.07749-.2098-.13624c-.0604-.05875-.1085-.1288-.1418-.20616-.0332-.07736-.0509-.16052-.052-.24471.0989-.4346.2731-.84856.5146-1.22315.0087-.01678.0208-.03155.0356-.04334s.0319-.02035.0501-.02513c.0183-.00477.0374-.00564.0561-.00257.0186.00308.0364.01004.0522.02043.0252.00909.0462.02709.0591.05061.2353.36873.4091.7733.5145 1.19785z"/></g></svg>