<svg fill="none" height="50" viewBox="0 0 50 50" width="50" xmlns="http://www.w3.org/2000/svg"><g fill="#f94409"><path d="m44.975 4.16943c.0033.25123-.0924.49367-.2666.67478-.1741.18112-.4126.28632-.6638.29283-.1238.00164-.2467-.02113-.3617-.067s-.2199-.11395-.3086-.20035c-.0887-.08639-.1595-.18942-.2084-.30318-.0489-.11377-.0749-.23605-.0765-.35986.1454-.63913.4015-1.24789.7567-1.79875.0128-.02468.0307-.0464.0524-.06374.0217-.01735.0468-.02993.0737-.03695s.055-.00831.0824-.00378c.0275.00452.0536.01475.0768.03004.0371.01336.068.03984.0869.07443.3461.54224.6017 1.13719.7567 1.76153z"/><path d="m39.3542 4.56726c.0407-.1283.0539-.26377.0385-.3975-.155-.62434-.4106-1.21929-.7567-1.76154-.0189-.03458-.0497-.06106-.0868-.07443-.0498-.02799-.1083-.03588-.1637-.02203-.0554.01384-.1033.04836-.134.09646-.3462.54225-.6017 1.1372-.7568 1.76154-.0153.13373-.0021.2692.0386.3975.0407.12831.108.24657.1976.34702s.1995.18083.3223.23587c.1228.05503.2559.08349.3905.08349.1347 0 .2677-.02846.3906-.08349.1228-.05504.2327-.13542.3223-.23587s.1569-.21871.1976-.34702z"/><path d="m19.1865 10.9723c.2762-.0007.4995-.2251.4987-.5013-.0007-.2761-.2251-.4994-.5012-.49869-1.4359.00371-2.8481.36579-4.1086 1.05349-.2424.1322-.3318.436-.1995.6784.1322.2424.436.3317.6784.1995 1.1143-.608 2.3628-.9281 3.6322-.9314z"/><path clip-rule="evenodd" d="m19.6927 3.19466c-.458-.09109-.9326-.04434-1.364.13434-.4314.17869-.8001.48127-1.0595.8695s-.3978.84466-.3978 1.31158c0 .55073.1924 1.08163.54 1.50278-2.42.38194-4.6754 1.51972-6.4296 3.27394-2.06937 2.0693-3.28091 4.8361-3.40579 7.7479h-2.607c-.27614 0-.5.2239-.5.5s.22386.5.5.5h.97078l1.60105 2.4413.00218.0033c.19291.2891.43426.5414.71243.7462-.71872.4607-1.33554 1.235-1.84397 2.2053-.09029.1723-.17716.3507-.26057.5347l-3.18804 7.0087c-.09354.2057-.03757.4485.13654.5924.17405.1439.42294.1533.60731.0229l.00117-.0008.00551-.0039.02439-.0169c.02215-.0153.05597-.0383.10097-.0684.09002-.0602.22471-.1484.40014-.2582.35097-.2196.86437-.5251 1.50872-.8651 1.11396-.5878 2.61278-1.2752 4.33548-1.8008l-5.26521 15.432-.00346.0106c-.11828.3736-.10702.7762.03196 1.1426.13899.3664.39756.6752.73387.8764.01399.0083.02839.016.04314.023.17923.0846.37343.1331.57143.1424.19801.0094.39591-.0204.58235-.0877.18644-.0674.35774-.1709.50406-.3046.14383-.1314.26073-.2895.34426-.4655l8.9874-17.548c2.6699.2441 5.4044 1.2922 7.8505 3.7382 3.9239 3.924 8.5397 4.4934 12.5016 3.8758l5.092 9.9318c.0819.1771.1977.3364.3409.469.1467.1357.319.2406.5069.3084.1879.0679.3875.0973.587.0866.1994-.0107.3947-.0614.5743-.149.0186-.009.0366-.0193.054-.0306.3239-.2114.5681-.5246.6942-.8902.126-.3656.1268-.7628.002-1.1288l-3.3432-9.8267c1.1142-.4285 2.0916-.8944 2.8798-1.3103.6689-.353 1.2036-.6711 1.5725-.9019.1845-.1154.3276-.2091.4255-.2745l.0495-.0333c.0255-.0173.0465-.0316.0628-.0429l.0298-.0206.0082-.0057.0023-.0017c.0003-.0002.0012-.0008-.2877-.4089l.2889.4081c.1958-.1387.2656-.3968.1663-.6152l-3.1879-7.0083c-.7013-1.5469-1.6703-2.7016-2.8178-3.0776h.749c.2761 0 .5-.2239.5-.5 0-.2762-.2239-.5-.5-.5h-2.4664v-5.1076c1.4475-.1156 2.8174-.7255 3.875-1.7354 1.18-1.1269 1.8804-2.6651 1.9556-4.29505.0003-.00767.0005-.01535.0005-.02303v-2.08407c0-.27614-.2239-.5-.5-.5s-.5.22386-.5.5v2.07228c-.066 1.36877-.6555 2.66007-1.6467 3.60667-.8714.8321-1.9946 1.3418-3.1844 1.4549v-7.13385c0-.27614-.2239-.5-.5-.5-.2762 0-.5.22386-.5.5v7.13485c-1.1939-.111-2.3214-.6212-3.1955-1.4559-.9912-.9466-1.5807-2.2379-1.6467-3.60666v-2.07229c0-.27614-.2238-.5-.5-.5-.2761 0-.5.22386-.5.5v2.08407c0 .00768.0002.01536.0006.02303.0751 1.62995.7755 3.16815 1.9555 4.29505 1.0603 1.0125 2.4345 1.6229 3.8861 1.7363v5.1067h-2.4757c-.2761 0-.5.2238-.5.5 0 .146.0626.2774.1625.3688h-4.4046c.0751-.0882.1452-.1809.2098-.2778l.0007-.0011 1.6213-2.4435h.939c.2762 0 .5-.2239.5-.5s-.2238-.5-.5-.5h-2.617c-.1249-2.9118-1.3365-5.6786-3.4058-7.7479-1.7533-1.75329-4.0072-2.89079-6.4258-3.27333.1487-.17997.2706-.38196.3609-.59996.1787-.43138.2254-.90605.1343-1.364-.091-.45794-.3159-.87859-.646-1.20875-.3302-.33017-.7509-.55501-1.2088-.6461zm-.4628 3.67563.039.00006c.2563-.00692.5057-.08613.7192-.22883.2238-.14952.3982-.36205.5012-.6107s.13-.52225.0775-.78622c-.0525-.26396-.1821-.50643-.3725-.69674-.1903-.19031-.4327-.31991-.6967-.37241-.264-.05251-.5376-.02556-.7862.07743-.2487.103-.4612.27741-.6107.50119s-.2293.48687-.2293.75601c0 .3609.1433.70701.3985.96221.2464.2464.5776.38855.925.39805zm-7.541 4.12361c1.9894-1.98944 4.6839-3.11171 7.4962-3.12352.0157.00032.0313.00047.047.00047.0155 0 .0309-.00015.0463-.00045 2.8109.01274 5.504 1.1349 7.4926 3.1235 1.8818 1.8818 2.9877 4.3944 3.1119 7.0408h-21.30589c.12417-2.6464 1.2301-5.159 3.11189-7.0408zm-3.60772 8.0408h22.29752l.0159.0002.0159-.0002h.9513l-1.2538 1.8896c-.1815.272-.4276.495-.7162.6488-.1566.0835-.3231.1452-.4949.184h-19.10264c-.06081 0-.12112.002-.18093.006-.18309-.0387-.36046-.1033-.5266-.1923-.28622-.1535-.53032-.375-.71081-.6449l-1.24026-1.8912h.91373l.0159.0002zm20.36972 3.7224h.0014v.0488c.1836.0005.3654-.0159.5448-.0488h10.8549c.8777 0 1.8947.8004 2.7203 2.6217l3.0122 6.6222c-.0566.0364-.1198.0766-.1896.1202-.3509.2196-.8643.5251-1.5087.8652-1.2904.6809-3.0972 1.4953-5.1701 2.0373-4.1455 1.0837-9.2835 1.0661-13.5456-3.196-4.6076-4.6076-10.1691-4.59-14.5056-3.4563-2.16809.5668-4.04795 1.4154-5.38397 2.1203-.26346.1391-.50611.2727-.72601.3977l2.50634-5.51c.76177-1.6804 1.65411-2.4904 2.51369-2.6074.14594.0222.29378.0336.44235.0339h18.4334zm10.5181 13.234c.5404-.1412 1.0629-.3 1.5636-.4697l3.3371 9.8087c.0531.1558.0528.325-.0008.4805-.0501.1453-.144.2711-.2684.3603-.0516.0214-.1065.0339-.1624.037-.0658.0035-.1317-.0062-.1937-.0286s-.1188-.057-.1672-.1018c-.0484-.0447-.0873-.0988-.1144-.1589-.0034-.0075-.007-.015-.0108-.0224l-4.9599-9.6742c.3317-.07.6576-.1474.9769-.2309zm-27.7201-6.7359c1.3467-.3283 2.7904-.5347 4.2695-.5153l-8.78673 17.1563c-.0028.0054-.0055.0109-.0081.0165-.02811.0603-.06785.1144-.11694.1592-.04909.0449-.10655.0796-.1691.1022s-.12894.0326-.19536.0295c-.0586-.0028-.11621-.0158-.17026-.0383-.13251-.0856-.23441-.2115-.29052-.3594-.05856-.1544-.06383-.3238-.01504-.4815z" fill-rule="evenodd"/><path d="m33.5411 4.84421c.1742-.18111.27-.42355.2666-.67478-.155-.62434-.4106-1.21929-.7567-1.76153-.0189-.03459-.0498-.06107-.0868-.07443-.0233-.01529-.0494-.02552-.0769-.03004-.0274-.00453-.0555-.00324-.0824.00378-.0268.00702-.052.0196-.0737.03695-.0217.01734-.0396.03906-.0523.06374-.3553.55086-.6114 1.15962-.7568 1.79875.0017.12381.0276.24609.0765.35986.0489.11376.1197.21679.2084.30318.0887.0864.1936.15448.3086.20035s.2379.06864.3617.067c.2512-.00651.4897-.11171.6638-.29283z"/></g></svg>