<svg fill="none" height="25" viewBox="0 0 25 25" width="25" xmlns="http://www.w3.org/2000/svg"><g fill="#f94409"><g clip-rule="evenodd" fill-rule="evenodd"><path d="m8.32723 13.8092c.18072.0926.25219.3141.15963.4948l-4.56864 8.9204c-.04824.101-.11555.1919-.19825.2674-.0846.0774-.18365.1372-.29144.1761-.1078.039-.22222.0562-.33671.0508-.11448-.0055-.22676-.0334-.33039-.0824-.01084-.0051-.02143-.0108-.03172-.0169-.19088-.1142-.33765-.2895-.41654-.4974-.07888-.208-.08527-.4365-.01814-.6486l.00247-.0078 2.78504-8.1625c.06557-.1922.2745-.2948.46667-.2293.19217.0656.2948.2745.22924.4667l-2.78336 8.1579c-.01616.0533-.01421.1106.00558.1628.01781.0469.04914.0873.08982.1163.01166.0038.02382.0061.03615.0067.01772.0008.03545-.0018.05215-.0079.01669-.006.03203-.0153.04514-.0272.0131-.012.02371-.0265.03121-.0425.00191-.0041.0039-.0082.00596-.0122l4.57131-8.9255c.09256-.1808.31409-.2522.49482-.1597z"/><path d="m20.3164 17.1317c.1922-.0654.401.0374.4664.2296l1.7367 5.1046c.0707.2077.0704.4332-.0012.6407-.0715.2075-.2102.3853-.394.5053-.0127.0083-.026.0158-.0397.0225-.1039.0507-.217.08-.3324.0862-.1155.0062-.231-.0108-.3398-.0501-.1087-.0393-.2085-.1-.2934-.1785-.0823-.0762-.1489-.1676-.1963-.2692l-2.6262-5.1225c-.0927-.1807-.0213-.4023.1594-.4949.1807-.0927.4022-.0213.4949.1594l2.6299 5.1295c.0028.0055.0054.011.0079.0166.0071.0157.0173.0298.0299.0415.0126.0116.0275.0207.0437.0265.0161.0059.0333.0084.0505.0075.0104-.0006.0206-.0024.0305-.0054.0367-.0297.0645-.0691.08-.1141.0183-.0531.0184-.1107.0003-.1638l-1.7368-5.1049c-.0654-.1923.0374-.4011.2297-.4665z"/><path d="m2.96831 12.4341c.43409-.9575 1.07709-1.6732 1.9288-1.6732h15.02889c.8257 0 1.4877.7139 1.9227 1.6734l1.5939 3.504c.073.1606.0217.3504-.1223.4523l-.2124-.3c.2124.3.2124.3.2124.3l-.0021.0015-.0044.0031-.0155.0108c-.0133.0091-.0326.0223-.0575.0389-.0498.0334-.1224.0808-.2157.1392-.1866.1168-.4564.2773-.7938.4553-.6733.3553-1.6219.7836-2.7171 1.0699-2.1907.5728-5.0213.5857-7.3657-1.7588-2.0904-2.0904-4.60961-2.1033-6.65987-1.5673-1.0253.268-1.92011.6713-2.55994 1.0089-.31929.1685-.57348.3198-.74686.4282-.08665.0543-.153.0977-.19708.1272-.02204.0147-.03851.0259-.04915.0333l-.01156.008-.00245.0017s-.00019.0001-.21261-.2999c-.21243-.3001-.21212-.3003-.21212-.3003l.00179-.0013.00438-.003.01554-.0108c.01333-.0092.03259-.0223.05751-.039.04985-.0333.12242-.0808.21573-.1392.17645-.1104.42746-.26.73957-.4265.01786-.0095.03591-.0191.05416-.0287.67338-.3554 1.6219-.7837 2.71711-1.07 2.19076-.5727 5.02135-.5856 7.36575 1.7588 2.0904 2.0904 4.6096 2.1033 6.6599 1.5673 1.0253-.268 1.9201-.6712 2.5599-1.0088.3193-.1685.5735-.3198.7468-.4283.0026-.0016.0052-.0032.0078-.0048l-1.4636-3.2177c-.4086-.9013-.8881-1.2422-1.2532-1.2422h-15.02889c-.38874 0-.84976.3386-1.25922 1.2418l-1.10651 2.4326m.43693-2.7364-1.59399 3.5042zm-1.59399 3.5042c-.06877.1512-.02762.3298.1004.4356zm.1004.4356c.12797.1058.31132.1125.44687.0166z"/><path d="m2.90327 8.95985c.16979-.11135.3977-.06397.50905.10582l.8737 1.33223c.0795.1188.18695.2162.31291.2837.12628.0677.26729.1033.41057.1036h9.2166.0012c.1441.0005.2861-.0348.4133-.1025.1271-.0678.2355-.1659.3154-.2857l.868-1.30817c.1122-.16919.3404-.21534.5096-.10308s.2153.34042.1031.50961l-.8684 1.30874-.0005.0008c-.1474.2208-.3471.4018-.5814.5267-.2341.1247-.4955.1896-.7608.1889h-9.21652c-.26415-.0005-.52479-.066-.75759-.1908-.23279-.1248-.43126-.3051-.57787-.5248l-.00161-.0024-.87456-1.33359c-.11135-.16979-.06397-.3977.10582-.50906z"/><path d="m2.11684 9.26729c0-.20305.1646-.36765.36764-.36765h14.26592c.2031 0 .3677.1646.3677.36765 0 .20304-.1646.36764-.3677.36764h-14.26592c-.20304 0-.36764-.1646-.36764-.36764z"/><path d="m9.11931 1.55575c.23718-.09825.49817-.12395.74997-.07387.25182.05009.48312.17371.66462.35525.1815.18153.3052.41282.3552.66461.0501.2518.0244.51279-.0738.74997-.0983.23719-.2646.43991-.4781.58254s-.46443.21876-.72116.21876c-.34426 0-.67442-.13675-.91785-.38018s-.38018-.57359-.38018-.91785c0-.25673.07613-.50769.21876-.72115s.34535-.37984.58254-.47808zm.60652.6473c-.10916-.02171-.22231-.01057-.32514.03202s-.19071.11472-.25255.20726c-.06183.09255-.09484.20135-.09484.31265 0 .14925.05929.29238.16482.39791.10554.10554.24867.16483.39792.16483.1113 0 .2201-.03301.31265-.09484.09251-.06184.16471-.14972.20721-.25255.0426-.10283.0538-.21598.0321-.32514s-.0753-.20943-.154-.28813c-.07874-.0787-.17901-.1323-.28817-.15401z"/><path d="m9.61495 4.05273c-1.38302 0-2.70939.5494-3.68734 1.52735-.97794.97794-1.52734 2.30431-1.52734 3.68733 0 .20305-.1646.36765-.36765.36765-.20304 0-.36765-.1646-.36765-.36765 0-1.57803.62688-3.09143 1.74271-4.20727 1.11584-1.11583 2.62924-1.7427 4.20727-1.7427 1.57805 0 3.09145.62687 4.20725 1.7427 1.1159 1.11584 1.7427 2.62924 1.7427 4.20727 0 .20305-.1646.36765-.3676.36765-.2031 0-.3677-.1646-.3677-.36765 0-1.38302-.5494-2.70939-1.5273-3.68733-.978-.97795-2.3043-1.52735-3.68735-1.52735z"/><path d="m9.96025 5.23514c.00052.20305-.16366.36808-.3667.3686-.61511.00159-1.2201.15671-1.76008.4513-.17825.09725-.40158.03158-.49882-.14667-.09724-.17824-.03158-.40157.14667-.49881.64744-.35321 1.37281-.53921 2.11033-.54111.20304-.00053.36807.16365.3686.36669z"/><path d="m19.2239 3.45387c.2031 0 .3677.1646.3677.36764v6.87249c0 .203-.1646.3676-.3677.3676-.203 0-.3676-.1646-.3676-.3676v-6.87249c0-.20304.1646-.36764.3676-.36764z"/><path d="m17.3684 10.6941c0-.2031.1646-.3677.3677-.3677h2.971c.2031 0 .3677.1646.3677.3677 0 .203-.1646.3676-.3677.3676h-2.971c-.2031 0-.3677-.1646-.3677-.3676z"/><path d="m16.3028 3.45387c.2031 0 .3677.1646.3677.36764v1.03328c.0322.65321.3138 1.26928.787 1.7211.4751.45369 1.1067.70686 1.7637.70686.6569 0 1.2886-.25317 1.7637-.70686.4731-.45182.7547-1.06789.7869-1.7211v-1.03328c0-.20304.1646-.36764.3677-.36764.203 0 .3676.1646.3676.36764v1.04204c0 .00565-.0001.01129-.0004.01694-.0389.84518-.4021 1.64284-1.014 2.22717s-1.4255.91038-2.2715.91038c-.8461 0-1.6597-.32605-2.2716-.91038s-.975-1.38199-1.014-2.22717c-.0003-.00565-.0004-.01129-.0004-.01694v-1.04204c0-.20304.1646-.36764.3676-.36764z"/></g><path d="m19.6963 2.08482c.0077.06687.0011.1346-.0192.19875-.0204.06415-.054.12328-.0988.17351s-.0998.09041-.1612.11793-.1279.04175-.1953.04175c-.0673 0-.1338-.01423-.1952-.04175s-.1164-.0677-.1612-.11793-.0784-.10936-.0988-.17351c-.0203-.06415-.0269-.13188-.0193-.19875.0776-.31217.2053-.60965.3784-.88077.0154-.02405.0393-.04131.067-.04823s.057-.00298.0819.01102c.0185.00668.0339.01992.0434.03721.173.27112.3008.5686.3783.88077z"/><path d="m22.4875 2.08465c.0017.12562-.0462.24684-.1333.3374-.0871.09055-.2063.14315-.3319.14641-.0619.00082-.1234-.01057-.1809-.0335-.0575-.02294-.1099-.05698-.1543-.10017-.0443-.0432-.0797-.09471-.1042-.1516-.0244-.05688-.0374-.11802-.0382-.17993.0727-.31956.2007-.62394.3783-.89937.0064-.01234.0154-.0232.0262-.03187.0109-.00867.0234-.01497.0369-.01848.0134-.00351.0275-.00415.0412-.00189s.0268.00738.0384.01502c.0185.00669.034.01992.0434.03722.1731.27112.3009.5686.3784.88076z"/><path d="m16.9038 2.08465c.0017.12562-.0462.24684-.1332.3374-.0871.09055-.2064.14315-.332.14641-.0619.00082-.1233-.01057-.1808-.0335-.0575-.02294-.11-.05698-.1543-.10017-.0444-.0432-.0798-.09471-.1042-.1516-.0244-.05688-.0374-.11802-.0383-.17993.0727-.31956.2008-.62394.3784-.89937.0064-.01234.0153-.0232.0262-.03187.0108-.00867.0234-.01497.0369-.01848.0134-.00351.0274-.00415.0412-.00189.0137.00226.0268.00738.0384.01502.0185.00669.0339.01992.0434.03722.173.27112.3008.5686.3783.88076z"/></g></svg>