<svg fill="none" height="50" viewBox="0 0 50 50" width="50" xmlns="http://www.w3.org/2000/svg"><g fill="#f94409"><path d="m27.0117 1c.2761 0 .5.22386.5.5v2.44554h.3946c.2761 0 .5.22385.5.5 0 .27614-.2239.5-.5.5h-1.7929c-.2762 0-.5-.22386-.5-.5 0-.27615.2238-.5.5-.5h.3983v-2.44554c0-.27614.2239-.5.5-.5z"/><path d="m22.4784 13.8115c0-.3677-.3677-.7353-.7353-.7353-.3677 0-.7353.3676-.7353.7353 0 .3676.3676.7353.7353.7353.3676 0 .7353-.3677.7353-.7353z"/><path d="m31.7431 13.0762c.3676 0 .7353.3676.7353.7353 0 .3676-.3677.7353-.7353.7353-.3677 0-.7353-.3677-.7353-.7353 0-.3677.3676-.7353.7353-.7353z"/><path d="m26.7392 15.8525c.3676 0 .7353.3677.7353.7353 0 .3677-.3677.7353-.7353.7353-.3677 0-.7353-.3676-.7353-.7353 0-.3676.3676-.7353.7353-.7353z"/><path clip-rule="evenodd" d="m2.41725 17.5715c.2169-.155.45741-.2102.67528-.2102h2.54209c1.45141 0 2.55035.9711 3.01026 2.1975.00364.0097.00698.0196.01001.0295l2.94251 9.6301.0005.0015c.6073 1.9412 2.4277 3.3939 4.6065 3.3939h8.429c.2157 0 .3809.0552.4825.0892l.0101.0034c.1002.0334.1318.0412.1764.0412.1894 0 .3625.107.4472.2764.0783.1566.1531.3409.1531.5581 0 .2118-.0712.3924-.1474.5465l-1.467 3.3342-.0071.0155-.0033.0068c-.2303.4604-.687.6777-1.1162.6777h-3.7365l1.1067 2.856c.0666.0532.1205.1242.1536.2095.0331.0854.0412.1743.0278.2587l2.1953 5.6652c.0406.0609.0676.1303.0786.2029l.3737.9642c.0997.2575-.0281.5471-.2856.6469-.2575.0997-.5471-.0281-.6469-.2856l-.3372-.8701-8.4953-3.2956-8.49807 3.2966-.33489.8686c-.09933.2577-.38873.386-.64639.2867s-.386-.3887-.28666-.6464l.37684-.9774c.0113-.0637.03483-.1245.06904-.1791l2.19929-5.7044c-.00775-.0761.00188-.155.03142-.2312.02927-.0754.07484-.1397.13113-.1904l1.36073-3.5294c-1.8078-.9365-3.02961-2.7823-3.13074-4.9061l-.00025-.0052-.40135-10.8374c-.00023-.0062-.00035-.0123-.00035-.0185 0-.6136-.42453-1.2228-.88984-1.4089-.02758-.011-.05412-.0245-.07931-.0402l-1.07035-.669c-.03209-.02-.0618-.0437-.08855-.0704-.15672-.1567-.3129-.35-.39893-.5794-.0895-.2387-.09757-.5054.02123-.7661.09492-.2677.24736-.4858.45735-.6358zm8.30155 20.5913h7.634l1.1568 2.9854-5.9137 2.294-5.92706-2.2992 1.25414-3.253c.56254.1771 1.16522.2728 1.79582.2728zm4.2596 5.8158 4.8925-1.898 1.7312 4.4675zm-7.66929-1.9026-1.72502 4.4743 6.62931-2.5717zm-4.31062-23.6908c-.01608.0115-.06076.0499-.10059.1694-.007.021-.01538.0415-.0251.0613l.0022.0064c.01261.0336.04861.0952.13269.1851l.98379.6149c.84726.3633 1.46998 1.3374 1.47415 2.3092l.40096 10.8259c.12263 2.5474 2.18199 4.6054 4.85221 4.6054h12.4429c.1022 0 .1788-.0468.2177-.1172l1.4653-3.3304c.0033-.0075.0068-.0149.0105-.0222l.0096-.0197-.029-.0095-.026-.0087c-.1002-.0334-.1318-.0413-.1764-.0413h-8.429c-2.6373 0-4.8304-1.7576-5.5614-4.0971l-.001-.003-2.93873-9.6177c-.34547-.9068-1.11664-1.5347-2.06865-1.5347h-2.54209c-.04971 0-.0768.0116-.09404.0239z" fill-rule="evenodd"/><path d="m43.1698 31.6445c0-.3677-.3677-.7353-.7353-.7353-.3677 0-.7353.3676-.7353.7353 0 .3676.3676.7353.7353.7353.3676 0 .7353-.3677.7353-.7353z"/><path d="m42.4345 41.0303c.3676 0 .7353.3676.7353.7353 0 .3676-.3677.7353-.7353.7353-.3677 0-.7353-.3677-.7353-.7353 0-.3677.3676-.7353.7353-.7353z"/><g clip-rule="evenodd" fill-rule="evenodd"><path d="m29.84 28.9059v16.2643c0 .7884.6081 1.3964 1.3965 1.3964h1.1649v1.9335c0 .2762.2238.5.5.5.2761 0 .5-.2238.5-.5v-1.9335h11.9345v1.9331c0 .2761.2239.5.5.5.2762 0 .5-.2239.5-.5v-1.9331h.3965c.7884 0 1.3965-.608 1.3965-1.3964v-16.2643c0-.7884-.6081-1.3965-1.3965-1.3965h-15.4959c-.7884 0-1.3965.6081-1.3965 1.3965zm1 0c0-.2361.1604-.3965.3965-.3965h15.4959c.2361 0 .3965.1604.3965.3965v7.568h-16.2889zm0 8.568h16.2889v7.6963c0 .2361-.1604.3964-.3965.3964h-.8812l-.0153-.0002-.0153.0002h-14.5841c-.2361 0-.3965-.1603-.3965-.3964z"/><path d="m25.9852 6.88427c-.2267 0-.4115.10829-.5297.22649s-.2264.303-.2264.52965v.33006l-.0113.02262-.0026.00514c-.0066.01327-.0158.03166-.0259.05325-.9608.5062-1.369 1.42116-1.369 2.40632 0 1.395 1.0687 2.7496 2.5791 3.0516 1.519.3038 2.8969-.466 3.5005-1.824.5916-1.3312.1811-2.83262-.9814-3.63049l-.0001-.03031v-.38419c0-.22665-.1083-.41145-.2265-.52965-.1181-.1182-.3029-.22649-.5296-.22649zm.2439 1.14033v-.14033h1.6893v.14033.01215c-.0002.14167-.0008.45024.2745.7256.0268.02676.0565.05039.0886.07045.8051.50321 1.1196 1.5127.7046 2.4465-.421.9472-1.3483 1.458-2.3906 1.2496-1.0509-.2102-1.7752-1.1608-1.7752-2.0711 0-.73718.2998-1.29893.9777-1.58943.1646-.07055.2773-.22286.2991-.39753l.0151-.03053.0026-.00514c.0144-.02878.0409-.08164.0624-.13896.0237-.06307.0519-.15769.0519-.27161z"/></g></g></svg>