<svg fill="none" height="15" viewBox="0 0 15 15" width="15" xmlns="http://www.w3.org/2000/svg"><g fill="#f94409"><path d="m8.10233.150024c.16569 0 .3.134315.3.3v.585246c.15081.01581.26834.14336.26834.29835 0 .16568-.13431.3-.3.3h-.26241l-.00593.00006-.00593-.00006h-.2636c-.16569 0-.3-.13432-.3-.3 0-.1554.11816-.28321.26953-.29847v-.585126c0-.165685.13432-.3.3-.3z"/><path d="m6.90233 4.22288c0-.15-.15-.3-.3-.3s-.3.15-.3.3.15.3.3.3.3-.15.3-.3z"/><path d="m9.60233 3.92288c.15 0 .3.15.3.3s-.15.3-.3.3-.3-.15-.3-.3.15-.3.3-.3z"/><path d="m8.10233 4.75549c.15 0 .3.15.3.3s-.15.3-.3.3-.3-.15-.3-.3.15-.3.3-.3z"/><path clip-rule="evenodd" d="m.636813 5.14942c.095018-.06787.199181-.091.289768-.091h.762629c.5096 0 .88799.34185 1.04353.7566.00218.00583.00418.01172.006.01767l.88275 2.88898c.16369.52255.65386.91252 1.23864.91252h2.52872c.08951 0 .15864.0232.19097.03404l.00424.00142.00865.00284.00634.00199c.10989.00347.20942.06689.25882.16568.02692.05385.06177.13432.06177.23454 0 .0958-.0319.1736-.05823.2273l-.4388.9973c-.00198.0045-.00407.0089-.00626.0133-.098.196-.29175.2863-.46902.2863h-.90246l.24076.6213c.02442.0267.04439.0583.05826.094.0139.0359.02045.0727.02039.109l.64035 1.6525c.01702.0287.02922.0601.03598.0929l.10586.2731c.05986.1545-.01685.3283-.17134.3882-.15449.0598-.32826-.0169-.38813-.1714l-.07741-.1997-2.43215-.9435-2.43167.9433-.0768.1992c-.05961.1546-.23325.2316-.38784.172s-.231599-.2333-.172-.3879l.10483-.2719c.00674-.0334.01913-.0655.03654-.0947l.6402-1.6606c.0009-.0335.00747-.0674.02029-.1005.01266-.0326.03041-.0618.05198-.0869l.34977-.9072c-.52435-.3209-.87276-.8874-.90347-1.5322l-.00015-.00316-.1204-3.2512c-.00013-.0037-.0002-.0074-.0002-.01111 0-.12735-.09417-.25199-.17266-.28339-.016551-.00662-.032474-.0147-.047587-.02414l-.321106-.20069c-.019253-.01204-.037078-.02622-.053132-.04227-.05389-.05389-.117496-.12971-.154061-.22721-.038652-.10307-.043373-.22243.007603-.33863.037161-.10164.098828-.1921.189236-.25668zm2.577647 6.44948h2.18693l.25575.66-1.5797.6128-1.58309-.6141.27364-.7098c.14256.0334.29195.0511.44647.0511zm1.69246 1.5946.96701-.3752.34216.883zm-2.6284-.3761-.34099.8844 1.31043-.5083zm4.95723-2.5832h-2.37562c-.85988 0-1.57364-.57295-1.81159-1.3344l-.00057-.00182-.88007-2.88025c-.08657-.22275-.2683-.35931-.47869-.35931h-.47922l.05653.03533c.30618.13723.51944.48051.52197.82251l.12018 3.2446c.03341.68554.58668 1.23804 1.30579 1.23804h3.68482z" fill-rule="evenodd"/><path d="m12.8109 12.3094c.15 0 .3.15.3.3s-.15.3-.3.3-.3-.15-.3-.3.15-.3.3-.3z"/><path d="m13.1109 9.57307c0-.15-.15-.3-.3-.3s-.3.15-.3.3.15.3.3.3.3-.15.3-.3z"/><g clip-rule="evenodd" fill-rule="evenodd"><path d="m8.80077 8.67189v4.87931c0 .3193.24957.5689.56894.5689h.19981v.4298c0 .1657.13431.3.3.3.16568 0 .29998-.1343.29998-.3v-.4298h3.2813v.4298c0 .1657.1343.3.3.3s.3-.1343.3-.3v-.4306c.3037-.0162.5366-.2596.5366-.5681v-4.87931c0-.31936-.2496-.56894-.5689-.56894h-4.64879c-.31937 0-.56894.24958-.56894.56894zm.6 4.84821v-2.1277h4.58663v2.1277h-.2264l-.0102-.0002-.0103.0002h-3.8607l-.01028-.0002-.01028.0002zm0-4.81715v2.08945h4.58663v-2.08945z"/><path d="m7.79319 1.91545c-.11678 0-.20845.05537-.26496.11189-.05651.05651-.11188.14818-.11188.26495v.02997c-.29678.18799-.42261.49784-.42261.81527 0 .49117.37223.95815.8943 1.06256.5272.10544 1.00819-.16439 1.21663-.63337.19457-.43778.07826-.93442-.2815-1.22524v-.04919c0-.11677-.05537-.20844-.11188-.26495-.05651-.05652-.14818-.11189-.26496-.11189zm.19806.62625c.0028-.00747.00588-.01626.00889-.02625h.23175c.01262.06421.04328.14521.11756.21949.01606.01606.03388.03024.05314.04227.17572.10983.24913.33131.15379.54583-.09892.22257-.30948.33694-.55067.2887-.24633-.04926-.41197-.27383-.41197-.47421 0-.1734.06461-.27993.20237-.33898.08946-.03834.15341-.11693.17439-.20929.0054-.01103.01362-.02853.02075-.04756z"/></g></g></svg>