<svg fill="none" height="34" viewBox="0 0 34 34" width="34" xmlns="http://www.w3.org/2000/svg"><g fill="#f94409"><path d="m18.3679.520508c.2761 0 .5.223857.5.500002v1.50298h.1094c.2762 0 .5.22386.5.5s-.2238.5-.5.5h-1.2192c-.2761 0-.5-.22386-.5-.5s.2239-.5.5-.5h.1098v-1.50298c0-.276145.2238-.500002.5-.500002z"/><path d="m15.2851 9.3916c0-.25-.25-.5-.5-.5s-.5.25-.5.5.25.5.5.5.5-.25.5-.5z"/><path d="m21.5859 8.8916c.25 0 .5.25.5.5s-.25.5-.5.5-.5-.25-.5-.5.25-.5.5-.5z"/><path d="m18.1836 10.7793c.25 0 .5.25.5.5s-.25.5-.5.5-.5-.25-.5-.5.25-.5.5-.5z"/><path clip-rule="evenodd" d="m1.55167 11.8188c.17943-.1282.37712-.1728.55218-.1728h1.72863c1.06608 0 1.86531.7143 2.19678 1.5982.00364.0097.00698.0195.01001.0294l2.00107 6.549c.39324 1.2562 1.57145 2.1952 2.97956 2.1952h5.7318c.173 0 .3062.0446.3771.0683l.0084.0028c.0625.0208.0672.0201.0689.0199.1894 0 .363.1069.4477.2763.0569.1139.121.266.121.4511 0 .1787-.0598.3268-.1152.4393l-.9962 2.264c-.0033.0075-.0068.0149-.0104.0223-.1874.3748-.5585.5493-.9021.5493h-2.3061l.6554 1.6913c.0489.0482.0886.1072.115.1753.0265.0682.037.1387.0333.2073l1.4768 3.8112c.0289.0484.0495.1015.0609.157l.2504.6462c.0998.2575-.0281.5471-.2856.6469s-.5471-.028-.6469-.2855l-.2035-.5253-5.65486-2.1937-5.65392 2.1934-.2025.5252c-.09934.2576-.38874.386-.64639.2867-.25766-.0994-.386-.3888-.28666-.6464l.24843-.6444c.01126-.0571.03238-.1117.06222-.1614l1.47543-3.8269c-.00122-.0632.00961-.1277.03389-.1903.02401-.0619.059-.1163.10188-.1618l.86197-2.2358c-1.20937-.6814-2.01986-1.9503-2.08901-3.4025l-.00025-.0053-.27291-7.3693c-.00023-.0062-.00035-.0124-.00035-.0185 0-.3568-.25328-.709-.50451-.8095-.02758-.0111-.05412-.0245-.07931-.0403l-.72784-.4549c-.03209-.02-.06179-.0437-.08855-.0704-.1139-.1139-.23797-.2644-.30795-.451-.07344-.1958-.0814-.4192.01577-.637.07376-.2046.19437-.3797.36649-.5026zm5.73805 14.2923h5.08268l.6889 1.7779-3.81556 1.4802-3.82299-1.483.74229-1.9253c.35574.0978.73259.1502 1.12468.1502zm3.33848 3.7944 2.7945-1.084.9887 2.5517zm-5.56518-1.0863-.98494 2.5547 3.78519-1.4684zm11.61748-5.8014h-5.6606c-1.86663 0-3.41747-1.2439-3.93448-2.8983l-.00095-.0031-1.99672-6.5347c-.21681-.5642-.68828-.9357-1.25527-.9357h-1.69936c.00484.006.0103.0124.01642.0193l.64025.4002c.63193.2773 1.08355.9942 1.08776 1.7089l.27252 7.3582c.0798 1.6483 1.41132 2.9785 3.13965 2.9785h8.46118c.0034 0 .0065-.0004.0089-.0009z" fill-rule="evenodd"/><path d="m29.3554 21.5186c0-.25-.25-.5-.5-.5s-.5.25-.5.5.25.5.5.5.5-.25.5-.5z"/><path d="m28.8554 27.9004c.25 0 .5.25.5.5s-.25.5-.5.5-.5-.25-.5-.5.25-.5.5-.5z"/><g clip-rule="evenodd" fill-rule="evenodd"><path d="m20.1319 30.7162v-11.0597c0-.6245.4851-1.1096 1.1096-1.1096h10.5372c.6245 0 1.1096.4851 1.1096 1.1096v11.0597c0 .6245-.4851 1.1096-1.1096 1.1096h-.1108v1.155c0 .2761-.2238.5-.5.5-.2761 0-.5-.2239-.5-.5v-1.155h-7.7929v1.155c0 .2761-.2239.5-.5.5-.2762 0-.5-.2239-.5-.5v-1.155h-.6335c-.6245 0-1.1096-.4851-1.1096-1.1096zm1-11.0597c0-.0458.0155-.0697.0277-.0818.0121-.0122.0361-.0278.0819-.0278h10.5372c.0458 0 .0697.0156.0818.0278.0122.0121.0278.036.0278.0818v4.9864h-10.7564zm0 5.9864h10.7564v5.0733c0 .0458-.0156.0698-.0278.0819-.0121.0122-.036.0277-.0818.0277h-10.5372c-.0458 0-.0698-.0155-.0819-.0277-.0122-.0121-.0277-.0361-.0277-.0819z"/><path d="m17.6707 4.52197c-.2061 0-.3704.09804-.4733.20088-.1028.10283-.2008.26713-.2008.47329v.16986c-.6728.3822-.958 1.04773-.958 1.746 0 1.02608.7818 2.01185 1.8824 2.23198 1.1092.22183 2.1183-.34314 2.5579-1.33224.4207-.94656.1491-2.01748-.6536-2.61601v-.19959c0-.20616-.098-.37046-.2008-.47329-.1029-.10284-.2672-.20088-.4733-.20088zm.2804 1.1763c.0155-.04138.0346-.1021.0422-.1763h.8326c.0039.12523.0325.34976.233.55023.0267.02676.0564.05039.0885.07044.4773.29831.6688.89797.4177 1.46296-.2571.57842-.8155.8843-1.448.7578-.641-.12822-1.0785-.70997-1.0785-1.2514 0-.45036.1769-.76622.5678-.93378.1554-.06659.2646-.20601.2947-.36833l.001-.00203c.0097-.01936.0313-.06226.049-.10959z"/></g></g></svg>