<svg fill="none" height="50" viewBox="0 0 50 50" width="50" xmlns="http://www.w3.org/2000/svg"><path clip-rule="evenodd" d="m32.5402 8.4598c-2.3192-1.07568-4.9884-1.60352-7.5372-1.548-2.5425-.08096-5.2114.41908-7.5371 1.46668-.0102.00462-.0203.00958-.0303.01488l-10.94448 5.84764-.00005-.0001-.00869.0049c-.23763.1331-.43353.3297-.5658.5678-.13022.2344-.19372.4999-.18372.7677v2.3048c-.01352.2334.03054.4647.12597.6744-.07747.0881-.12445.2036-.12445.3301v23.2051h-3.45313c-.27614 0-.5.2239-.5.5s.22386.5.5.5h3.91466c.0127.001.02552.0015.03847.0015.01294 0 .02576-.0005.03846-.0015h4.85766c.0136.0004.0272.0006.0409.0006.008 0 .0159-.0002.0239-.0006h27.6098c.0079.0004.0159.0006.0239.0006.0136 0 .0273-.0002.0409-.0006h4.5231c.0652 0 .1274-.0125.1845-.0351.0581.0236.1216.0366.1881.0366.2762 0 .5-.2239.5-.5v-23.7066c0-.1234-.0447-.2364-.1188-.3236.0964-.2131.1391-.4487.1214-.6855v-2.3002c.01-.2678-.0535-.5333-.1837-.7677-.1323-.2381-.3282-.4347-.5658-.5678l.0001-.0002-.0113-.0059-10.9446-5.76863c-.0074-.00395-.015-.00771-.0227-.01127zm10.7254 10.8764c-.0827.0247-.1681.0418-.2552.051-.0173.0018-.0347.0027-.0522.0027h-35.91537c-.02091 0-.0418-.0013-.06254-.0039-.08393-.0106-.16618-.0286-.24591-.0534v22.7631h3.03125c-.05381-.1552-.08204-.3198-.08204-.4872v-17.7799c0-.3946.15675-.773.43581-1.052.279-.279.6574-.4358 1.052-.4358h27.6576c.3946 0 .773.1568 1.052.4358s.4358.6574.4358 1.052v17.7799c0 .1674-.0283.332-.0821.4872h3.0309zm-36.29805-4.216 10.92435-5.83681c2.1806-.9792 4.6964-1.44997 7.0923-1.37168.0092.0003.0184.00034.0276.00014 2.4035-.05435 4.921.44329 7.0962 1.44983l10.9265 5.75912c.0737.0424.1345.104.1758.1784.0422.0759.0624.1621.0584.2488-.0003.0077-.0005.0153-.0005.023v2.3311c0 .0154.0007.0309.0021.0462.01.1071-.0227.2138-.0909.297-.0637.0777-.1537.129-.2525.1446h-35.84665c-.09891-.0185-.18848-.0713-.25262-.1495-.06954-.0848-.10392-.1931-.09606-.3024.00086-.012.00129-.0239.00129-.0359v-2.3311c0-.0077-.00018-.0153-.00053-.023-.00399-.0867.01623-.1729.0584-.2488.04151-.0747.10267-.1366.17682-.179zm31.88485 26.9755h-27.7044c-.1209-.0058-.2356-.0563-.3215-.1423-.0915-.0915-.1429-.2155-.1429-.3449v-17.7799c0-.1294.0514-.2534.1429-.3449.0914-.0915.2155-.1429.3449-.1429h27.6576c.1294 0 .2534.0514.3449.1429s.1429.2155.1429.3449v17.7799c0 .1294-.0514.2534-.1429.3449-.0859.086-.2007.1365-.3215.1423zm-24.7157-14.5635c-.2761 0-.5.2239-.5.5 0 .2762.2239.5.5.5h19.1703c.2762 0 .5-.2238.5-.5 0-.2761-.2238-.5-.5-.5zm1.8125 5.4541c0-.2761.2239-.5.5-.5h19.415c.2761 0 .5.2239.5.5 0 .2762-.2239.5-.5.5h-19.415c-.2761 0-.5-.2238-.5-.5zm19.918-4.4541c.2761 0 .5-.2238.5-.5 0-.2761-.2239-.5-.5-.5-.2762 0-.5.2239-.5.5 0 .2762.2238.5.5.5zm-21.2305 4.4541c0 .2762-.2238.5-.5.5-.2761 0-.5-.2238-.5-.5 0-.2761.2239-.5.5-.5.2762 0 .5.2239.5.5zm33.0664 10.1104c.2762 0 .5-.2239.5-.5 0-.2762-.2238-.5-.5-.5-.2761 0-.5.2238-.5.5 0 .2761.2239.5.5.5zm-34.0664-5.1572c0-.2762.2239-.5.5-.5h21.731c.2762 0 .5.2238.5.5 0 .2761-.2238.5-.5.5h-21.731c-.2761 0-.5-.2239-.5-.5z" fill="#895d25" fill-rule="evenodd"/></svg>