<svg fill="none" height="25" viewBox="0 0 25 25" width="25" xmlns="http://www.w3.org/2000/svg"><path clip-rule="evenodd" d="m12.5008 3.20532c1.3086-.02748 2.6786.24355 3.8725.7973.0077.00356.0153.00732.0228.01126l5.4836 2.89026c.1592.08923.2905.22115.3791.38075.0865.15565.1291.33177.1234.50957v1.1372c.007.11088-.0053.22119-.0357.32621.0234.05789.0363.12115.0363.18744v11.85329c0 .2761-.2238.5-.5.5-.0091 0-.0182-.0003-.0272-.0007h-18.71122c-.009.0004-.01807.0007-.02719.0007s-.01819-.0003-.02719-.0007h-1.94938c-.276137 0-.499995-.2239-.499995-.5 0-.2762.223858-.5.499995-.5h1.47657v-11.35259c0-.06603.0128-.12906.03605-.18677-.03085-.10378-.04424-.21282-.03876-.32267v-1.1414c-.00574-.1778.03684-.35393.12332-.50958.08866-.1596.21997-.29138.37925-.38061l.0087-.00487 5.4723-2.92371c.00993-.00531.02002-.01027.03028-.01489 1.19715-.53925 2.56697-.79603 3.87247-.75549zm-8.88361 6.73914h17.76561v10.85344h-.9764v-8.8841c0-.2636-.1047-.5164-.2911-.7028s-.4392-.2911-.7028-.2911h-13.82877c-.26359 0-.51639.1047-.70278.2911s-.29111.4392-.29111.7028v8.8841h-.97265zm5.43697-5.07867-5.43985 2.90648.00017.01273v1.15946h17.76772v-1.15946l.0001-.0126-5.441-2.86785c-1.05-.48465-2.2683-.72549-3.4317-.69918-.0092.00021-.0184.00016-.0276-.00014-1.1589-.03787-2.3756.18964-3.42784.66056zm10.34374 15.93211h-13.79953l-.00853-.0002v-8.8778h13.81656v8.8778zm-12.33149-7.2823c-.27615 0-.5.2239-.5.5 0 .2762.22385.5.5.5h9.08119c.2762 0 .5-.2238.5-.5 0-.2761-.2238-.5-.5-.5zm1.1875 2.9766c0-.2762.22385-.5.5-.5h9.17919c.2762 0 .5.2238.5.5 0 .2761-.2238.5-.5.5h-9.17919c-.27615 0-.5-.2239-.5-.5zm-1.1875 1.9765c-.27615 0-.5.2239-.5.5 0 .2762.22385.5.5.5h10.86549c.2761 0 .5-.2238.5-.5 0-.2761-.2239-.5-.5-.5zm10.86719-3.9531c.2761 0 .5-.2238.5-.5 0-.2761-.2239-.5-.5-.5s-.5.2239-.5.5c0 .2762.2239.5.5.5zm6.418 6.7823c0 .2761-.2239.5-.5.5-.2762 0-.5-.2239-.5-.5 0-.2762.2238-.5.5-.5.2761 0 .5.2238.5.5zm-17.28519-4.3057c.27614 0 .5-.2239.5-.5 0-.2762-.22386-.5-.5-.5-.27615 0-.5.2238-.5.5 0 .2761.22385.5.5.5z" fill="#895d25" fill-rule="evenodd"/></svg>