<svg fill="none" height="34" viewBox="0 0 34 34" width="34" xmlns="http://www.w3.org/2000/svg"><g fill="#895d25"><path d="m9.61328 18.5615c-.27614 0-.5.2239-.5.5 0 .2762.22386.5.5.5h13.03582c.2761 0 .5-.2238.5-.5 0-.2761-.2239-.5-.5-.5z"/><path d="m10.6875 22.4307c0-.2762.2239-.5.5-.5h13.2022c.2761 0 .5.2238.5.5 0 .2761-.2239.5-.5.5h-13.2022c-.2761 0-.5-.2239-.5-.5z"/><path d="m9.60938 25.2988c-.27615 0-.5.2239-.5.5 0 .2762.22385.5.5.5h14.77712c.2761 0 .5-.2238.5-.5 0-.2761-.2239-.5-.5-.5z"/><path d="m24.8906 19.0615c0 .2762-.2238.5-.5.5-.2761 0-.5-.2238-.5-.5 0-.2761.2239-.5.5-.5.2762 0 .5.2239.5.5z"/><path d="m10.0977 22.4307c0 .2761-.2239.5-.50004.5-.27615 0-.5-.2239-.5-.5 0-.2762.22385-.5.5-.5.27614 0 .50004.2238.50004.5z"/><path clip-rule="evenodd" d="m21.9975 5.56127c-1.5682-.70907-3.2756-1.05824-4.997-1.02138-1.7179-.05408-3.4259.27668-4.9989.96756-.0779.00194-.1543.02207-.2231.05884l-7.44228 3.97638-.00875.00478c-.18748.10503-.34204.26015-.44641.448-.10224.18405-.15235.39235-.14506.60265v1.5599c-.00817.1522.01455.3032.06542.4443-.04022.072-.06314.155-.06314.2434v15.6191h-2.1875c-.27614 0-.5.2239-.5.5 0 .2762.22386.5.5.5h2.65108c.01203.0009.02417.0014.03642.0014s.0244-.0005.03643-.0014h3.27227c.01678.0008.03362.0011.05049.0011.01116 0 .02225-.0003.03323-.0011h18.7407c.011.0008.0221.0011.0333.0011.0168 0 .0337-.0003.0504-.0011h3.0517c.0431 0 .085-.0054.125-.0157.0414.0111.085.0171.1299.0171.2762 0 .5-.2239.5-.5v-16.1205c0-.0882-.0228-.171-.0628-.2429.0504-.1428.0717-.2956.0611-.4492v-1.5556c.0073-.2102-.0428-.4185-.145-.60255-.1044-.18785-.2589-.34297-.4464-.448l-.0113-.0061-7.4422-3.92265c-.0673-.03546-.1418-.05508-.2176-.05743zm7.2642 7.78103c-.0173.0018-.035.0027-.0524.0027h-24.42252c-.0162 0-.03238-.0007-.0485-.0023v15.1221h1.69998c-.00826-.0561-.01248-.1131-.01248-.1706v-12.0903c0-.3107.12345-.6088.34318-.8285s.51776-.3432.82851-.3432h18.80723c.3107 0 .6087.1235.8285.3432.2197.2197.3431.5178.3431.8285v12.0903c0 .0575-.0042.1145-.0124.1706h1.6978zm-16.9482-6.87913c1.4652-.66 3.0621-.97585 4.6682-.92337.0092.0003.0184.00034.0276.00014 1.6102-.03641 3.2072.29703 4.6682.97467.0564.02614.117.04151.1788.04542l7.3272 3.86197c.0239.0143.0437.0347.0573.0591.0143.0257.0211.0548.0198.0841-.0004.0077-.0006.0153-.0006.023v1.5852c0 .0154.0008.0308.0022.0462.0028.0309-.0066.0617-.0263.0857-.0162.0198-.0385.0337-.0631.0397h-24.3428c-.02568-.0072-.04871-.0222-.06583-.0431-.02133-.026-.03187-.0592-.02946-.0927.00086-.0119.00129-.0239.00129-.0358v-1.5852c0-.0077-.00018-.0153-.00053-.023-.00135-.0293.00549-.0584.01975-.0841.01373-.0247.03381-.0453.05815-.0596l7.32803-3.91532c.0594-.00395.1177-.01849.1721-.04301zm14.1105 22.00163h-18.84583c-.03843-.0043-.07449-.0215-.1021-.0492-.0322-.0322-.05029-.0758-.05029-.1214v-12.0903c0-.0455.01809-.0892.05029-.1214.03219-.0322.07586-.0503.1214-.0503h18.80723c.0455 0 .0892.0181.1214.0503s.0502.0759.0502.1214v12.0903c0 .0456-.018.0892-.0502.1214-.0277.0277-.0637.0449-.1021.0492z" fill-rule="evenodd"/><path d="m32.4375 29.4658c.2761 0 .5-.2238.5-.5 0-.2761-.2239-.5-.5-.5s-.5.2239-.5.5c0 .2762.2239.5.5.5z"/></g></svg>