<svg fill="none" height="15" viewBox="0 0 15 15" width="15" xmlns="http://www.w3.org/2000/svg"><g fill="#00ac83"><path clip-rule="evenodd" d="m6.18202 2.81408c.29966-.29966.70609-.46801 1.12988-.46801h5.4407c.4237 0 .8302.16835 1.1298.46801.2997.29966.468.70609.468 1.12987v2.34996c.1325.0466.2541.1225.3553.22365.1776.17758.2773.41844.2773.66958v3.24186c.0001.2471-.096.4848-.268.6622-.1721.1776-.4065.2811-.6536.2887l-.0092.0002h-8.03829c-.25124-.0016-.49176-.102-.66942-.2797s-.27815-.4182-.27969-.6694l-.00001-.0019.00001-3.24196h.29999l-.29999-.00176c.00145-.24717.09909-.48407.27222-.66049.1062-.10822.2357-.18847.37699-.23574v-2.3452c0-.42378.16835-.83021.46801-1.12987zm8.20098 6.66812h-8.7182v-2.29404c.00072-.09095.03673-.17808.10045-.24301.06316-.06436.14865-.10191.23869-.10494h8.03216c.092 0 .1803.03655.2453.10161.0651.06507.1016.15331.1016.24532zm-8.7182.6007v.3452c.00077.0931.0381.1822.10395.248.06585.0659.15494.1032.24805.104h8.03c.0898-.0038.1747-.0418.2373-.1064.0635-.0655.099-.1532.0989-.2444v-.3464zm1.6471-7.13683c-.26466 0-.51847.10513-.70561.29227s-.29228.44096-.29228.70561v1.89589c.35345-.92386 1.38796-1.54904 2.52979-1.54904h2.3587c1.1605 0 2.2086.6423 2.5479 1.58724v-1.93409c0-.26465-.1051-.51847-.2922-.70561-.1872-.18714-.441-.29227-.7056-.29227zm1.5319 1.94473c-1.05195 0-1.85.61383-2.02349 1.34892h6.40969c-.1735-.73491-.9717-1.34892-2.0275-1.34892z" fill-rule="evenodd"/><path d="m2.13042 10.3676c.16569 0 .3-.1344.3-.3 0-.16573-.13431-.30005-.3-.30005s-.3.13432-.3.30005c0 .1656.13431.3.3.3z"/><path clip-rule="evenodd" d="m4.2572 9.38481v2.51479c-.0018.131-.05218.2567-.14134.3527-.08917.0961-.21079.1556-.34132.1671-.00874.0007-.01751.0011-.02629.0011h-3.212461c-.068634.0008-.136772-.0119-.200552-.0373-.064785-.0258-.123774-.0643-.173524-.1132-.04975-.0488-.0892634-.1071-.116232-.1715-.0269628-.0643-.04084708-.1333-.04084233-.203v-2.51068c-.00000465-.1999.07894983-.39173.21967933-.5337.140732-.14198.331847-.22262.531748-.22437l.002631-.00003.501213.00001c-.0125-.04473-.02252-.09028-.02998-.13643-.03842-.2379-.00693-.48183.09063-.70218.04505-.10172.10328-.19639.1728-.28178h-.21016c-.09534-.00122-.18905-.02497-.27349-.06926-.081934-.04299-.152895-.10416-.207461-.17879-.056081-.07227-.095426-.15613-.115146-.24553-.020323-.09213-.019263-.18769.003098-.27935l.000565-.00231.317364-1.25735.59233-.46402 1.71338.00001c.13597.00074.26789.04634.37529.12971.1074.08338.18428.19988.2187.33142l.00089.0034.31213 1.25262c.02535.09013.02974.1849.01279.27704-.01739.09453-.05676.18366-.11492.26019-.05816.07654-.1335.13833-.21993.18039-.08564.04169-.1798.06285-.27502.06183h-.20054c.06952.08539.12775.18006.1728.28178.09756.22035.12905.46428.09063.70218-.00832.05154-.01985.10231-.03445.15205.14399.02969.27743.10089.38295.20642.14217.14217.22204.33499.22204.53604zm-3.652561 0v1.52359h3.052561v-1.52359c0-.04192-.01666-.08213-.0463-.11178-.02965-.02964-.06985-.0463-.11178-.0463h-2.738765c-.04133.00062-.08079.0174-.109908.04678-.029346.0296-.04581.06962-.045808.1113zm3.052561 2.12429h-3.052561v.3114h3.052561zm-2.06242-5.8965c.00222-.00175.00493-.00274.00775-.00286h1.70838c.00373.00009.00733.00137.01029.00366.00286.00222.00495.00527.00599.00872l.31274 1.25494c.00101.00406.0021.00809.00328.01211.0006.00201.00071.00414.00033.00621s-.00124.00402-.00252.00569c-.00127.00168-.00292.00303-.00481.00395s-.00397.00138-.00607.00135l-.0045-.00003h-2.33522c-.00069-.00007-.00136-.00027-.00198-.00059-.00075-.0004-.0014-.00096-.00189-.00165-.00325-.00459-.00663-.00907-.01013-.01347-.00167-.00208-.00283-.00452-.0034-.00712-.00054-.00245-.00055-.00499-.00002-.00745l.31697-1.25583c.00072-.00288.00247-.00579.00481-.00763zm.86352 2.03503c-.12478 0-.24687.03623-.35145.1043-.10458.06806-.18714.16503-.23766.27912-.05053.1141-.06683.2404-.04693.36358.01332.0825.04249.16122.08551.23197h1.10105c.04302-.07075.07219-.14947.08551-.23197.0199-.12318.0036-.24948-.04692-.36358-.05053-.11409-.13309-.21106-.23767-.27912-.10457-.06807-.22667-.1043-.35144-.1043z" fill-rule="evenodd"/><path d="m6.88589 12.1213c0 .1657-.13432.3-.3.3-.16569 0-.3-.1343-.3-.3s.13431-.3.3-.3c.16568 0 .3.1343.3.3z"/><path d="m13.4789 12.4213c.1656 0 .3-.1343.3-.3s-.1344-.3-.3-.3c-.1657 0-.3.1343-.3.3s.1343.3.3.3z"/></g></svg>