<svg fill="none" height="34" viewBox="0 0 34 34" width="34" xmlns="http://www.w3.org/2000/svg"><g fill="#895d25"><path clip-rule="evenodd" d="m2.11048 1.57715c-.3175 0-.70562.11005-.9627.48857-.08544.1258-.181997.29665-.216591.50039-.034364.2024-.002928.41101.108321.60451l2.36391 6.63899c-.00446.02685-.00678.05442-.00678.08253v1.95376c0 .3186.11062.6216.33849.8453.22705.2229.53109.3284.84786.3284h1.58345c-.01451.0469-.02233.0967-.02232.1483l.00174 18.2553h-2.24922c-.27614 0-.5.2239-.5.5 0 .2762.22386.5.5.5h5.49077c.27615 0 .5-.2238.5-.5 0-.2761-.22385-.5-.5-.5h-2.24155l-.00174-18.2554c-.00001-.0516-.00782-.1013-.02233-.1482h1.57928c.71141 0 1.18634-.5847 1.18634-1.1737v-1.7036c.01567-.0271.02894-.056.03947-.0864l2.40222-6.93935.0009-.00279c.1065-.31362.1168-.68701-.1284-1.04804-.2571-.37852-.6452-.48857-.9627-.48857zm2.28616 8.81515h4.49077v1.4536c0 .0353-.01593.0817-.05109.1187-.03057.0321-.07321.055-.13525.055h-4.11808c-.09504 0-.13417-.0291-.14735-.042-.01234-.0122-.039-.046-.039-.1317zm4.70178-1.00016 2.28478-6.59993.0004-.0012c.0178-.05298.019-.08327.0177-.0989-.001-.01177-.0043-.03123-.027-.06456-.0149-.02193-.027-.02955-.0389-.03484-.0161-.0072-.0465-.01556-.0965-.01556h-9.12842c-.05006 0-.0804.00836-.09654.01556-.01187.00529-.02401.01291-.03891.03484-.02283.03362-.03771.05965-.04709.0792.01418.02507.02618.05134.03586.07852l2.35247 6.60687z" fill-rule="evenodd"/><path clip-rule="evenodd" d="m25.2086 16.2062c-.1223-.2476-.4222-.3491-.6698-.2268-.2476.1222-.3491.4221-.2268.6697l.6707 1.358c-.709-.058-1.4318.0747-2.089.3972-.2479.1217-.3502.4213-.2285.6692.1216.2479.4212.3502.6691.2285.9399-.4613 2.0519-.4037 2.9293.1662.6843.4908 1.2184 1.1466 1.4523 1.8925.0022.0072.0046.0144.0072.0214l.2249.6182c-.1774.0272-.3173.1159-.4092.1932-.1155.0971-.2074.219-.2695.3409-.0121.0238-.0223.0485-.0305.0738-.4273 1.3284-.6417 2.6601-.6417 4.0607v.7125h-9.1129c-.3168 0-.6208.1055-.8479.3284-.2279.2237-.3385.5267-.3385.8453v.6737c0 .3186.1106.6216.3385.8453.2271.2228.5311.3284.8479.3284h.9002l-.6584 1.2926c-.1253.2461-.0274.5472.2186.6725.2461.1253.5471.0275.6725-.2186l.8896-1.7465h10.3682l.8896 1.7465c.1254.2461.4264.3439.6725.2186s.3439-.4264.2186-.6725l-.6584-1.2926h.9002c.3168 0 .6208-.1056.8479-.3284.2279-.2237.3385-.5267.3385-.8453v-.6737c0-.3186-.1106-.6216-.3385-.8453-.2271-.2229-.5311-.3284-.8479-.3284h-1.4863v-.7125c0-1.4006-.2144-2.7323-.6417-4.0607l-.0025-.0076c-.0624-.1838-.171-.3461-.3323-.4592-.1092-.0766-.2253-.1184-.336-.1371l.3993-1.6167.0022-.0095c.2529-1.1171.82-2.1027 1.6326-2.839.0049-.0045.0098-.0091.0145-.0137l.6864-.6737c.197-.1935.2-.51.0065-.7071-.1934-.1971-.51-.2-.7071-.0066l-.6793.6669c-.9666.8787-1.6318 2.0446-1.9278 3.3475l-.0837.339c-.3656-.7473-.9458-1.3718-1.6059-1.8431l-.0093-.0064-.0075-.005c-.1804-.1181-.3681-.2199-.5612-.3054zm2.9576 6.7857c-.3799 1.2058-.5691 2.4099-.5691 3.677v.7125h1.814v-.7125c0-1.2671-.1892-2.4712-.569-3.677zm-10.682 5.3895h9.5962l.0167.0002h2.814l.0168-.0002h1.9695c.0951 0 .1342.0291.1474.0421.0123.0121.039.0459.039.1316v.6737c0 .0857-.0267.1195-.039.1316-.0132.013-.0523.0421-.1474.0421h-1.6758c-.0274-.0023-.0552-.0023-.0829 0h-10.8958c-.0277-.0023-.0555-.0023-.0829 0h-1.6758c-.0951 0-.1342-.0291-.1474-.0421-.0123-.0121-.039-.0459-.039-.1316v-.6737c0-.0857.0267-.1195.039-.1316.0132-.013.0523-.0421.1474-.0421z" fill-rule="evenodd"/><path d="m30.1038 15.9941c0 .2762-.2238.5-.5.5-.2761 0-.5-.2238-.5-.5 0-.2761.2239-.5.5-.5.2762 0 .5.2239.5.5z"/><path d="m23.9639 15.5453c.2762 0 .5-.2239.5-.5s-.2238-.5-.5-.5c-.2761 0-.5.2239-.5.5s.2239.5.5.5z"/><path d="m31.5908 19.2879c0 .2761-.2239.5-.5.5-.2762 0-.5-.2239-.5-.5 0-.2762.2238-.5.5-.5.2761 0 .5.2238.5.5z"/><path d="m25 20.8535c.2761 0 .5-.2238.5-.5 0-.2761-.2239-.5-.5-.5s-.5.2239-.5.5c0 .2762.2239.5.5.5z"/></g></svg>