<svg fill="none" height="25" viewBox="0 0 25 25" width="25" xmlns="http://www.w3.org/2000/svg"><g fill="#895d25"><path clip-rule="evenodd" d="m1.2797.753906c-.26677 0-.604166.093451-.827422.422174-.068525.1009-.152402.24685-.182768.4257-.029983.17658-.003218.35916.090611.52756l1.767379 4.96365c-.00167.01663-.00252.0335-.00252.05056v1.47241c0 .26876.0937.53029.29198.72492.19746.19382.45922.28281.72526.28281h1.05307l.0013 13.62241h-1.57161c-.27614 0-.5.2239-.5.5s.22386.5.5.5h4.13793c.27614 0 .5-.2239.5-.5s-.22386-.5-.5-.5h-1.56632l-.0013-13.62241h1.05038c.60994 0 1.01724-.50178 1.01724-1.00773v-1.25184c.009-.01833.01695-.03736.02376-.05703l1.81034-5.22958.00096-.00279c.08959-.26382.09983-.58741-.11155-.89864-.22325-.328724-.56065-.422174-.82741-.422174zm1.74927 5.889624-1.74103-4.88962h6.86288l-1.69267 4.88962zm.09601 1.00002v.97241l.00015.00695c.00469.00046.01036.00078.01709.00078h3.10345c.00456 0 .00723-.00045.00841-.0007l.00179-.00052.00245-.00198c.00179-.00189.00342-.00442.00438-.00678l.00021-.97016z" fill-rule="evenodd"/><path clip-rule="evenodd" d="m18.7959 11.8469c-.1223-.2476-.4221-.3491-.6697-.2268s-.3492.4221-.2269.6697l.4132.8364c-.4863-.0061-.9745.1014-1.4234.3217-.2479.1217-.3503.4213-.2286.6692s.4213.3502.6692.2285c.6693-.3285 1.46-.2876 2.0838.1164.4981.3579.8801.8311 1.0463 1.3614.0023.0071.0047.0143.0073.0214l.1234.3392c-.0959.0366-.1728.0894-.2276.1355-.1006.0847-.1799.19-.2336.2953-.0121.0238-.0222.0485-.0304.0738-.3259 1.013-.4895 2.0293-.4895 3.098v.4136h-6.7445c-.2661 0-.5278.089-.7253.2828-.1983.1946-.292.4562-.292.7249v.5077c0 .2688.0937.5303.292.725.1975.1938.4592.2828.7253.2828h.4776l-.4052.7955c-.1254.2461-.0275.5471.2186.6725.246.1253.5471.0274.6724-.2186l.6364-1.2494h7.6628l.6364 1.2494c.1253.246.4264.3439.6725.2186.246-.1254.3439-.4264.2186-.6725l-.4052-.7955h.4771c.2661 0 .5278-.089.7253-.2828.1983-.1947.292-.4562.292-.725v-.5077c0-.2687-.0937-.5303-.292-.7249-.1975-.1938-.4592-.2828-.7253-.2828h-.9969v-.4136c0-1.0687-.1636-2.085-.4895-3.098l-.0025-.0076c-.054-.1589-.1498-.3046-.2963-.4073-.0568-.0398-.1155-.0691-.1739-.0901l.272-1.1013.0023-.0095c.1852-.8183.6001-1.5383 1.1929-2.0754l.0074-.0069.0071-.0068.5172-.5077c.1971-.1935.2-.51.0066-.7071-.1935-.1971-.51-.2-.7071-.0066l-.5103.5009c-.7337.6677-1.2418 1.5485-1.4759 2.5316-.2822-.46-.6679-.8485-1.0939-1.1527-.0055-.0039-.0111-.0077-.0168-.0114-.1296-.0849-.2641-.159-.4022-.2224zm2.2099 5.2918c-.2647.8682-.3964 1.736-.3964 2.6479v.4136h1.1206v-.4136c0-.9119-.1317-1.7797-.3964-2.6479zm-8.1409 4.0615h7.2274l.0171.0003h2.1206l.0171-.0003h1.4798c.0068 0 .0124.0003.0171.0008l.0002.0069v.5077l-.0002.007c-.0047.0005-.0103.0008-.0171.0008h-1.265c-.0191-.0011-.0382-.0011-.0574 0h-8.2168c-.0192-.0011-.0383-.0011-.0573 0h-1.2655c-.0068 0-.0124-.0003-.0171-.0008l-.0002-.007v-.5077l.0002-.0069.0085-.0006z" fill-rule="evenodd"/><path d="m22.1679 11.6191c0 .2762-.2238.5-.5.5-.2761 0-.5-.2238-.5-.5 0-.2761.2239-.5.5-.5.2762 0 .5.2239.5.5z"/><path d="m17.7969 11.1191c.2761 0 .5-.2238.5-.5 0-.2761-.2239-.5-.5-.5-.2762 0-.5.2239-.5.5 0 .2762.2238.5.5.5z"/><path d="m23.8203 14.6504c0 .2761-.2239.5-.5.5-.2762 0-.5-.2239-.5-.5 0-.2762.2238-.5.5-.5.2761 0 .5.2238.5.5z"/><path d="m18.6523 15.6504c.2762 0 .5-.2239.5-.5 0-.2762-.2238-.5-.5-.5-.2761 0-.5.2238-.5.5 0 .2761.2239.5.5.5z"/></g></svg>