<svg fill="none" height="15" viewBox="0 0 15 15" width="15" xmlns="http://www.w3.org/2000/svg"><g fill="#895d25"><path clip-rule="evenodd" d="m.767793.452332c-.160059 0-.362497.05607-.49645.253303-.041116.060539-.091442.148111-.109662.255419-.017989.105956-.00193.215496.054367.316536l1.060432 2.97819c-.001.00998-.00152.0201-.00152.03034v.88344c0 .16126.05623.31818.17519.43496.11847.11629.27553.16968.43516.16968h.63184l.00078 8.1734h-.94297c-.16568 0-.3.1344-.3.3 0 .1657.13432.3.3.3h2.48276c.16569 0 .3-.1343.3-.3 0-.1656-.13431-.3-.3-.3h-.93979l-.00078-8.1734h.63023c.36596 0 .61034-.30107.61034-.60464v-.7511c.0054-.011.01017-.02242.01426-.03422l1.0862-3.13774.00058-.00168c.05375-.15829.05989-.352447-.06693-.539185-.13395-.197233-.33639-.253303-.49645-.253303zm1.049557 3.533778-1.044609-2.93378h4.117719l-1.01559 2.93378zm.05761.60001v.58344l.00009.00417c.00282.00028.00622.00047.01026.00047h1.86207c.00273 0 .00434-.00027.00504-.00042l.00108-.00031.00147-.00119c.00107-.00113.00205-.00265.00263-.00407l.00012-.58209z" fill-rule="evenodd"/><path clip-rule="evenodd" d="m11.2775 7.10815c-.0733-.14856-.2532-.2095-.4018-.13612-.1486.07337-.2095.25328-.1361.40183l.2479.50187c-.2918-.00367-.5847.06079-.8541.193-.14873.073-.21012.25276-.13712.40149.07302.14874.25272.21014.40152.13714.4016-.19712.876-.17254 1.2502.06985.299.21473.5281.49865.6279.81679.0013.00431.0028.0086.0043.01284l.0741.20354c-.0576.02197-.1037.05367-.1366.08133-.0604.0508-.1079.11395-.1401.17717-.0073.01425-.0134.02906-.0183.04432-.1955.6078-.2937 1.2175-.2937 1.8587v.2482h-4.0467c-.15962 0-.31668.0534-.43515.1697-.11897.1168-.17519.2737-.17519.4349v.3047c0 .1612.05622.3181.17519.4349.11847.1163.27553.1697.43515.1697h.28656l-.24313.4773c-.0752.1477-.01648.3283.13116.4035.14763.0752.32828.0165.40348-.1311l.38184-.7497h4.59769l.3818.7497c.0752.1476.2559.2063.4035.1311s.2064-.2558.1312-.4035l-.2432-.4773h.2863c.1597 0 .3167-.0534.4352-.1697.119-.1168.1752-.2737.1752-.4349v-.3047c0-.1612-.0562-.3181-.1752-.4349-.1185-.1163-.2755-.1697-.4352-.1697h-.5981v-.2482c0-.6412-.0982-1.2509-.2937-1.8587l-.0015-.0046c-.0324-.09532-.0899-.18276-.1778-.24439-.0341-.02388-.0693-.04149-.1043-.05407l.1632-.66078.0013-.00569c.1112-.49096.3601-.92298.7157-1.24525l.0045-.00414.0043-.00408.3103-.30464c.1182-.11606.12-.306.0039-.42424-.116-.11824-.306-.12001-.4242-.00394l-.3062.30055c-.4402.40062-.7451.92908-.8855 1.51895-.1694-.27604-.4008-.50912-.6564-.69161-.0033-.00235-.0066-.00464-.01-.00686-.0778-.05092-.1585-.09541-.2413-.13346zm1.326 3.17505c-.1589.5209-.2379 1.0416-.2379 1.5887v.2482h.6724v-.2482c0-.5471-.079-1.0678-.2379-1.5887zm-4.8846 2.4369h4.3364l.0103.0002h1.2724l.0102-.0002h.8879c.0041 0 .0075.0002.0103.0005l.0001.0041v.3047l-.0001.0041c-.0028.0003-.0062.0005-.0103.0005h-.759c-.0114-.0006-.0229-.0007-.0344 0h-4.93009c-.01151-.0007-.023-.0006-.03442 0h-.75929c-.00404 0-.00744-.0002-.01026-.0005l-.00008-.0041v-.3047l.00008-.0041.00513-.0004z" fill-rule="evenodd"/><path d="m13.3007 6.97147c0 .16569-.1343.3-.3.3-.1656 0-.3-.13431-.3-.3 0-.16568.1344-.3.3-.3.1657 0 .3.13432.3.3z"/><path d="m10.6781 6.67147c.1657 0 .3-.13431.3-.3 0-.16568-.1343-.3-.3-.3s-.3.13432-.3.3c0 .16569.1343.3.3.3z"/><path d="m14.2921 8.79022c0 .16569-.1343.3-.3.3-.1656 0-.3-.13431-.3-.3 0-.16568.1344-.3.3-.3.1657 0 .3.13432.3.3z"/><path d="m11.1914 9.39022c.1657 0 .3-.13431.3-.3 0-.16568-.1343-.3-.3-.3s-.3.13432-.3.3c0 .16569.1343.3.3.3z"/></g></svg>