<svg fill="none" height="50" viewBox="0 0 50 50" width="50" xmlns="http://www.w3.org/2000/svg"><g fill="#f94409"><g clip-rule="evenodd" fill-rule="evenodd"><path d="m40.3242 27.7334c0-.2761.2239-.5.5-.5h5.5829c.2762 0 .5.2239.5.5s-.2238.5-.5.5h-5.5829c-.2761 0-.5-.2239-.5-.5z"/><path d="m3.08984 27.7339c0-.2762.22386-.5.5-.5h5.61497c.27615 0 .5.2238.5.5 0 .2761-.22385.5-.5.5h-5.61497c-.27614 0-.5-.2239-.5-.5z"/><path d="m22.1993 14.0605c.2762 0 .5.2239.5.5v3.8888c0 .2762-.2238.5-.5.5-.2761 0-.5-.2238-.5-.5v-3.8888c0-.2761.2239-.5.5-.5z"/><path d="m27.7812 14.0605c.2762 0 .5.2239.5.5v3.8888c0 .2762-.2238.5-.5.5-.2761 0-.5-.2238-.5-.5v-3.8888c0-.2761.2239-.5.5-.5z"/><path d="m19.8398 14.5605c0-.2761.2239-.5.5-.5h9.3049c.2761 0 .5.2239.5.5 0 .2762-.2239.5-.5.5h-9.3049c-.2761 0-.5-.2238-.5-.5z"/><path d="m23.7439 32.169c.6061-.2525 1.273-.3177 1.9161-.187.6431.1306 1.2326.451 1.694.9198.4614.4687.7741 1.0646.8992 1.712.1251.6473.0572 1.3176-.1954 1.9261-.2526.6086-.6788 1.1285-1.2253 1.4934-.5465.3648-1.1885.5579-1.8446.5541-.8755-.0051-1.7125-.3599-2.3283-.9855-.6156-.6253-.9603-1.4703-.9603-2.3501.0001-.6594.1939-1.3044.5575-1.8532.3637-.5488.8811-.977 1.4871-1.2296zm1.717.793c-.447-.0908-.9106-.0456-1.3324.1301-.4218.1758-.7833.4744-1.0381.8589-.2547.3845-.391.8372-.3911 1.3008 0 .6187.2425 1.2113.673 1.6486.4303.4371 1.0133.6835 1.6214.687.4558.0026.9025-.1315 1.2836-.3858.3811-.2545.6796-.618.8569-1.0451s.2251-.8981.1372-1.353-.3074-.8725-.63-1.2002c-.3225-.3276-.7335-.5505-1.1805-.6413z"/><path d="m31.9492 32.4326c0-.2761.2239-.5.5-.5h1.861c.2761 0 .5.2239.5.5 0 .2762-.2239.5-.5.5h-1.861c-.2761 0-.5-.2238-.5-.5z"/><path d="m31.9492 38.0713c0-.2762.2239-.5.5-.5h1.861c.2761 0 .5.2238.5.5 0 .2761-.2239.5-.5.5h-1.861c-.2761 0-.5-.2239-.5-.5z"/><path d="m9.70312 25.946v14.9292c-.00003.8611.33678 1.6864.93558 2.2965.5982.6093 1.4092.9547 2.2565.9626h24.2063c.8529 0 1.6719-.3421 2.2765-.9528.6048-.6108.9454-1.4404.9454-2.3063v-14.9278c-.0226-.0471-.0555-.113-.0997-.1954-.102-.1899-.2638-.4668-.4976-.802-.4678-.6703-1.2234-1.573-2.3657-2.4788-2.2773-1.8058-6.125-3.6509-12.3712-3.6509s-10.0813 1.8451-12.3461 3.6502c-1.1361.9054-1.8857 1.8077-2.3489 2.4777-.2316.335-.39154.6119-.49219.8016-.04393.0829-.07655.149-.09889.1962zm31.12028-.1074.4617-.1921c.0253.0609.0383.1262.0383.1921v15.0366c0 1.128-.4436 2.2108-1.2348 3.0099-.7914.7993-1.8657 1.2492-2.9871 1.2492h-24.2129c-1.115-.0097-2.18-.4639-2.96354-1.2621-.78335-.7981-1.22198-1.8754-1.22194-2.997v-15.0366c0-.065.01268-.1294.03733-.1896l.46267.1896c-.46267-.1896-.46283-.1892-.46267-.1896l.00068-.0016.00097-.0024.00283-.0067.00925-.0215c.00779-.0178.01887-.0426.03344-.0738.02913-.0626.07224-.151.13096-.2617.11743-.2214.29741-.532.55308-.9018.51139-.7397 1.32594-1.7169 2.54814-2.691 2.4518-1.9541 6.5098-3.8682 12.9694-3.8682 6.4597 0 10.5291 1.914 12.9925 3.8674 1.228.9738 2.0485 1.9507 2.5645 2.6901.2579.3696.4398.68.5585.9013.0594.1106.1031.199.1326.2615.0147.0312.026.056.0339.0738l.0093.0214.0029.0067.001.0024.0007.0016c.0001.0004 0 0-.4617.1921z"/><path d="m8.70312 25.8386c0-.2761.22386-.5007.5-.5007h31.62028c.2762 0 .5.2246.5.5007s-.2238.4993-.5.4993h-31.62028c-.27614 0-.5-.2232-.5-.4993z"/></g><path d="m28.3125 3.18262c0 .27614-.2239.5-.5.5s-.5-.22386-.5-.5c0-.27615.2239-.5.5-.5s.5.22385.5.5z"/><path d="m19.8125 11.6826c.2761 0 .5-.2238.5-.5 0-.2761-.2239-.5-.5-.5s-.5.2239-.5.5c0 .2762.2239.5.5.5z"/><path d="m24.3125 11.1826c0 .2762-.2239.5-.5.5s-.5-.2238-.5-.5c0-.2761.2239-.5.5-.5s.5.2239.5.5z"/><path d="m28.3125 11.1826c0 .2762-.2239.5-.5.5s-.5-.2238-.5-.5c0-.2761.2239-.5.5-.5s.5.2239.5.5z"/><path d="m23.8125 3.68262c.2761 0 .5-.22386.5-.5 0-.27615-.2239-.5-.5-.5s-.5.22385-.5.5c0 .27614.2239.5.5.5z"/><path d="m20.3125 3.18262c0 .27614-.2239.5-.5.5s-.5-.22386-.5-.5c0-.27615.2239-.5.5-.5s.5.22385.5.5z"/><path d="m25.8125 7.68262c.2761 0 .5-.22386.5-.5 0-.27615-.2239-.5-.5-.5s-.5.22385-.5.5c0 .27614.2239.5.5.5z"/><path d="m22.3125 7.18262c0 .27614-.2239.5-.5.5s-.5-.22386-.5-.5c0-.27615.2239-.5.5-.5s.5.22385.5.5z"/><path d="m17.8125 7.68262c.2761 0 .5-.22386.5-.5 0-.27615-.2239-.5-.5-.5s-.5.22385-.5.5c0 .27614.2239.5.5.5z"/></g></svg>