<svg fill="none" height="34" viewBox="0 0 34 34" width="34" xmlns="http://www.w3.org/2000/svg"><g fill="#f94409"><g clip-rule="evenodd" fill-rule="evenodd"><path d="m27.2614 18.8591c0-.2761.2239-.5.5-.5h3.7964c.2761 0 .5.2239.5.5 0 .2762-.2239.5-.5.5h-3.7964c-.2761 0-.5-.2238-.5-.5z"/><path d="m1.94141 18.8591c0-.2761.22385-.5.5-.5h3.81818c.27614 0 .5.2239.5.5 0 .2762-.22386.5-.5.5h-3.81818c-.27615 0-.5-.2238-.5-.5z"/><path d="m15.0977 9.40137c.2761 0 .5.22385.5.5v2.64433c0 .2762-.2239.5-.5.5-.2762 0-.5-.2238-.5-.5v-2.64433c0-.27615.2238-.5.5-.5z"/><path d="m18.8906 9.40137c.2762 0 .5.22385.5.5v2.64433c0 .2762-.2238.5-.5.5-.2761 0-.5-.2238-.5-.5v-2.64433c0-.27615.2239-.5.5-.5z"/><path d="m13.332 9.90137c0-.27615.2239-.5.5-.5h6.3273c.2761 0 .5.22385.5.5 0 .27613-.2239.50003-.5.50003h-6.3273c-.2761 0-.5-.2239-.5-.50003z"/><path d="m16.0864 21.7271c.4416-.184.9277-.2315 1.3964-.1363.4686.0953.898.3287 1.2341.6701.3359.3413.5635.775.6545 1.246.091.4709.0416.9586-.1422 1.4015-.1839.4428-.4941.8214-.8922 1.0872-.3981.2657-.8659.4065-1.344.4037-.6382-.0037-1.2479-.2624-1.6964-.7179-.4482-.4553-.699-1.0703-.6989-1.7103 0-.4797.141-.9491.4057-1.3485.2647-.3996.6414-.7115 1.083-.8955zm1.1973.8437c-.2726-.0554-.5554-.0278-.8127.0794-.2574.1073-.4782.2896-.634.5247-.1559.2352-.2393.5123-.2393.7962 0 .379.1485.7416.4116 1.0088.2629.2671.6187.4173.9894.4194.2779.0016.5505-.0801.7831-.2354.2327-.1554.4153-.3775.5238-.6389s.1378-.5498.084-.8284c-.0539-.2785-.1882-.534-.3854-.7342-.197-.2002-.4479-.3362-.7205-.3916z"/><path d="m21.5669 22.0544c0-.2761.2238-.5.5-.5h1.2654c.2762 0 .5.2239.5.5 0 .2762-.2238.5-.5.5h-1.2654c-.2762 0-.5-.2238-.5-.5z"/><path d="m21.5669 25.8887c0-.2761.2238-.5.5-.5h1.2654c.2762 0 .5.2239.5.5 0 .2762-.2238.5-.5.5h-1.2654c-.2762 0-.5-.2238-.5-.5z"/><path d="m6.71979 17.7617c-.00015.0003-.00011.0003 0 0zm.03802-.0817c.01277-.026.02889-.0578.04859-.0949.06576-.124.1713-.3069.32496-.5291.30728-.4445.80661-1.046 1.56536-1.6508 1.51018-1.2036 4.08238-2.4472 8.29568-2.4472 4.2132 0 6.7941 1.2437 8.3129 2.448.7631.6051 1.2666 1.207 1.5769 1.6517.1552.2225.262.4054.3286.5296.0197.0367.0359.0683.0488.0942v10.1138c0 .547-.2151 1.0705-.5966 1.4557-.3812.3851-.8973.6005-1.4343.6005h-16.45951c-.53325-.0052-1.04399-.2226-1.42099-.6067-.37766-.3847-.59041-.9056-.59039-1.4495zm21.00179-.1096.4617-.192c.0253.0608.0383.1261.0383.192v10.2249c0 .809-.3181 1.5858-.886 2.1593-.568.5737-1.3394.8969-2.1449.8969h-16.46615c-.80091-.0069-1.56564-.3332-2.12801-.9062-.5622-.5727-.87675-1.3456-.87673-2.15v-10.2249c0-.065.01268-.1294.03733-.1895l.46267.1895c-.46267-.1895-.46282-.1891-.46267-.1895l.00063-.0016.00084-.002.00228-.0054.00702-.0163c.00581-.0133.01387-.0313.02433-.0538.02092-.0449.05146-.1075.09274-.1853.08253-.1556.20813-.3722.38583-.6292.35545-.5141.91976-1.1907 1.76464-1.8641 1.69713-1.3526 4.49215-2.6652 8.91895-2.6652 4.4267 0 7.2294 1.3126 8.9343 2.6644.8487.6731 1.4171 1.3493 1.7756 1.8631.1792.2569.3061.4733.3896.6288.0417.0777.0726.1403.0938.1851.0106.0225.0188.0405.0247.0537l.0071.0163.0023.0054.0015.0036c.0001.0003 0 0-.4617.192z"/><path d="m5.75781 17.5704c0-.2761.22386-.5001.5-.5001h21.50179c.2762 0 .5.224.5.5001 0 .2762-.2238.4999-.5.4999h-21.50179c-.27614 0-.5-.2237-.5-.4999z"/></g><path d="m19.7148 2.62012c0 .27614-.2238.5-.5.5-.2761 0-.5-.22386-.5-.5 0-.27615.2239-.5.5-.5.2762 0 .5.22385.5.5z"/><path d="m14.3086 2.62012c0 .27614-.2239.5-.5.5s-.5-.22386-.5-.5c0-.27615.2239-.5.5-.5s.5.22385.5.5z"/><path d="m17.0117 2.62012c0 .27614-.2238.5-.5.5-.2761 0-.5-.22386-.5-.5 0-.27615.2239-.5.5-.5.2762 0 .5.22385.5.5z"/><path d="m19.7148 7.62012c0 .27614-.2238.5-.5.5-.2761 0-.5-.22386-.5-.5 0-.27615.2239-.5.5-.5.2762 0 .5.22385.5.5z"/><path d="m14.3086 7.62012c0 .27614-.2239.5-.5.5s-.5-.22386-.5-.5c0-.27615.2239-.5.5-.5s.5.22385.5.5z"/><path d="m17.0117 7.62012c0 .27614-.2238.5-.5.5-.2761 0-.5-.22386-.5-.5 0-.27615.2239-.5.5-.5.2762 0 .5.22385.5.5z"/><path d="m18.7148 5.12012c0 .27614-.2238.5-.5.5-.2761 0-.5-.22386-.5-.5 0-.27615.2239-.5.5-.5.2762 0 .5.22385.5.5z"/><path d="m13.3086 5.12012c0 .27614-.2239.5-.5.5s-.5-.22386-.5-.5c0-.27615.2239-.5.5-.5s.5.22385.5.5z"/><path d="m16.0117 5.12012c0 .27614-.2238.5-.5.5-.2761 0-.5-.22386-.5-.5 0-.27615.2239-.5.5-.5.2762 0 .5.22385.5.5z"/></g></svg>