<svg fill="none" height="25" viewBox="0 0 25 25" width="25" xmlns="http://www.w3.org/2000/svg"><g fill="#03a9f1"><path clip-rule="evenodd" d="m6.66494 4.19918-.00651.00008c-.13377.00174-.26566.03172-.38704.08796-.00582.0027-.01158.00551-.01729.00843-.21342.10905-.37617.29668-.45399.52335-.07781.22668-.06461.47471.03683.69184l.00579.01199.53333 1.06666c.0847.16939.25783.2764.44722.2764h3.11667l.0051-.00003c.16955-.00173.33525-.05001.47925-.13957.1439-.08957.2605-.21696.3369-.36827l.001-.00186.4166-.83333c.0193-.03859.0335-.07952.0423-.12176.0231-.11104.0261-.22518.009-.33702-.0126-.22422-.1073-.4367-.267-.59635-.1719-.1719-.405-.26848-.6482-.26848zm.46736 1.66671-.33334-.66667h3.42364l-.33334.66667z" fill-rule="evenodd"/><path d="m13.4141 5.46777c0-.25-.25-.5-.5-.5s-.5.25-.5.5.25.5.5.5.5-.25.5-.5z"/><path d="m15.4062 4.96777c.25 0 .5.25.5.5s-.25.5-.5.5-.5-.25-.5-.5.25-.5.5-.5z"/><path d="m18.4023 5.46777c0-.25-.25-.5-.5-.5s-.5.25-.5.5.25.5.5.5.5-.25.5-.5z"/><g clip-rule="evenodd" fill-rule="evenodd"><path d="m17.5807 15.1156c0-2.8062-2.2738-5.0813-5.0795-5.0834h-.0038c-2.80745 0-5.08334 2.2759-5.08334 5.0834 0 2.8074 2.27589 5.0833 5.08334 5.0833 1.6514 0 3.1189-.7875 4.0474-2.0074.0097-.0107.0189-.0219.0277-.0336.0097-.0129.0186-.026.0269-.0394.617-.8414.9813-1.8796.9813-3.0029zm-9.16664 0c0-2.0868 1.56538-3.808 3.58594-4.0534v1.9447c-.9562.2252-1.668 1.084-1.668 2.109 0 .3012.0615.5881.1726.8487l-1.55585 1.1725c-.34026-.5961-.53469-1.2861-.53469-2.0215zm8.16664 0c0-2.085-1.5627-3.805-3.5807-4.0527v1.9446c.9549.2262 1.6654 1.0843 1.6654 2.1084 0 .3012-.0615.5881-.1726.8487l1.554 1.1711c.3398-.5957.5339-1.2853.5339-2.0201zm-3.1402.6821c.0096-.0127.0197-.0248.0302-.0364.123-.1848.1947-.4067.1947-.6454 0-.6443-.5224-1.1667-1.1667-1.1667s-1.1667.5224-1.1667 1.1667c0 .2387.0717.4606.1947.6454.0105.0116.0206.0237.0302.0364.0122.0163.0233.033.0333.0502.2138.2651.5414.4347.9085.4347s.6946-.1696.9085-.4347c.01-.0172.0211-.0339.0333-.0502zm-.9418 1.4849c-.5339 0-1.0227-.1931-1.4003-.5133l-1.55145 1.1691c.74335.7768 1.79045 1.2605 2.95045 1.2605 1.1606 0 2.2081-.4842 2.9515-1.2616l-1.5499-1.168c-.3776.3202-.8664.5133-1.4003.5133z"/><path d="m4.08203 4.69889v15.83331c0 1.1966.97005 2.1667 2.16667 2.1667h12.5c1.1966 0 2.1667-.9701 2.1667-2.1667v-15.83331c0-1.19661-.9701-2.16666-2.1667-2.16666h-12.5c-1.19662 0-2.16667.97005-2.16667 2.16666zm2.16667-1.16666c-.64433 0-1.16667.52233-1.16667 1.16666v2.83334h14.83337v-2.83334c0-.64433-.5224-1.16666-1.1667-1.16666zm13.6667 16.99997v-11.99997h-14.83337v11.99997c0 .6444.52234 1.1667 1.16667 1.1667h12.5c.6443 0 1.1667-.5223 1.1667-1.1667z"/></g></g></svg>