<svg fill="none" height="34" viewBox="0 0 34 34" width="34" xmlns="http://www.w3.org/2000/svg"><g fill="#03a9f1"><path clip-rule="evenodd" d="m9.06823 5.89058-.00651.00009c-.15658.00204-.31096.03712-.45304.10296-.00582.0027-.01159.00551-.0173.00842-.24871.1271-.43838.34576-.52907.60993-.09068.26416-.0753.55322.04291.80627l.0058.01198.72533 1.45067c.0847.16939.25783.27639.44721.27639h4.23864l.0051-.00002c.1976-.00202.3908-.05829.5585-.16266.1678-.10438.3036-.25285.3927-.42919l.0009-.00185.5667-1.13334c.0193-.03859.0335-.07951.0423-.12175.0276-.13278.0307-.26935.0092-.40297-.0128-.26405-.1233-.51467-.3111-.70247-.2001-.20003-.4714-.31242-.7543-.31242zm-.02951 1.00645c.01094-.00388.02244-.00605.03407-.00641h4.95941c.0177 0 .0347.00703.0472.01953s.0195.02946.0195.04714c0 .03422.0035.06835.0105.10185l.0011.00625-.5245 1.0491c-.0065.01254-.0165.02361-.0285.03106-.0117.00731-.0252.01136-.039.01174h-3.92592l-.58278-1.16557c-.00722-.0175-.00784-.03708-.00167-.05506.00559-.01629.01639-.03019.03059-.03963z" fill-rule="evenodd"/><path d="m19.2422 7.25586c0-.25-.25-.5-.5-.5s-.5.25-.5.5.25.5.5.5.5-.25.5-.5z"/><path d="m21.2344 6.75586c.25 0 .5.25.5.5s-.25.5-.5.5-.5-.25-.5-.5.25-.5.5-.5z"/><path d="m24.2305 7.25586c0-.25-.25-.5-.5-.5s-.5.25-.5.5.25.5.5.5.5-.25.5-.5z"/><g clip-rule="evenodd" fill-rule="evenodd"><path d="m17.0029 13.8242h-.0023c-3.7177.0012-6.7311 3.0154-6.7311 6.7334 0 1.491.4847 2.8689 1.3051 3.9846.0091.0152.0191.0301.03.0446.0101.0133.0206.026.0317.0381 1.2297 1.6199 3.176 2.666 5.3666 2.666 3.7187 0 6.7333-3.0146 6.7333-6.7333 0-3.7188-3.0146-6.7334-6.7333-6.7334zm-5.7334 6.7334c0-2.997 2.2996-5.457 5.2305-5.7116v2.9903c-1.2888.2357-2.2656 1.3645-2.2656 2.7214 0 .4344.1001.8455.2786 1.2113l-2.3894 1.8006c-.5415-.8753-.8541-1.9072-.8541-3.012zm11.4667 0c0-2.999-2.3025-5.4602-5.2362-5.7121v2.9904c1.2898.2349 2.2677 1.3641 2.2677 2.7218 0 .4346-.1002.8457-.2787 1.2117l2.3918 1.8024c.5423-.8758.8554-1.9084.8554-3.0142zm-4.3113 1.036c.0127-.0169.0263-.0327.0407-.0475.1907-.2821.3021-.6222.3021-.9884 0-.9757-.791-1.7667-1.7667-1.7667s-1.7666.791-1.7666 1.7667c0 .3671.112.7081.3036.9906.0136.0142.0265.0293.0386.0453.0147.0196.0277.0398.0392.0606.3236.4083.8238.6702 1.3852.6702.5603 0 1.0596-.2608 1.3833-.6676.0118-.0218.0253-.0429.0406-.0632zm-1.4239 1.7308c-.733 0-1.3995-.2851-1.8945-.7505l-2.3849 1.7972c1.0501 1.178 2.579 1.9198 4.2813 1.9198 1.7013 0 3.2295-.741 4.2795-1.9179l-2.3871-1.7988c-.495.4652-1.1614.7502-1.8943.7502z"/><path d="m5.73438 6.39069v21.53331c0 1.528 1.23867 2.7667 2.76666 2.7667h16.99996c1.528 0 2.7667-1.2387 2.7667-2.7667v-21.53331c0-1.52799-1.2387-2.76667-2.7667-2.76667h-16.99996c-1.52799 0-2.76666 1.23868-2.76666 2.76667zm2.76666-1.76667c-.9757 0-1.76666.79097-1.76666 1.76667v4.03311h20.53332v-4.03311c0-.9757-.791-1.76667-1.7667-1.76667zm18.76666 23.29998v-16.5002h-20.53332v16.5002c0 .9757.79096 1.7667 1.76666 1.7667h16.99996c.9757 0 1.7667-.791 1.7667-1.7667z"/></g></g></svg>