<svg fill="none" height="25" viewBox="0 0 25 25" width="25" xmlns="http://www.w3.org/2000/svg" xmlns:xlink="http://www.w3.org/1999/xlink"><mask id="a" fill="#fff"><path d="m9.85712 8.44412c-.19105-.19939-.50756-.20615-.70695-.01511-.19938.19105-.20615.50756-.0151.70695l.27016.28195-.27016.28196c-.19105.19939-.18428.51593.0151.70693.19939.1911.5159.1843.70695-.0151l.24058-.2511.2406.2511c.191.1994.5075.2062.7069.0151.1994-.191.2062-.50754.0151-.70693l-.2701-.28196.2701-.28195c.1911-.19939.1843-.5159-.0151-.70695-.1994-.19104-.5159-.18428-.7069.01511l-.2406.25108z" fill="#fff"/><path d="m14.6678 8.43825c-.1943-.19623-.5109-.19781-.7071-.00352s-.1978.51087-.0035.7071l.2533.25583-.2533.25583c-.1943.19623-.1927.51281.0035.70711s.5128.1927.7071-.0035l.2463-.2488.2463.2488c.1943.1962.5109.1978.7071.0035s.1978-.51088.0035-.70711l-.2533-.25583.2533-.25583c.1943-.19623.1927-.51281-.0035-.7071s-.5128-.19271-.7071.00352l-.2463.24876z" fill="#fff"/><path d="m12.5195 9.29004c.2762 0 .5-.22386.5-.5s-.2238-.5-.5-.5c-.2761 0-.5.22386-.5.5s.2239.5.5.5z" fill="#fff"/><path clip-rule="evenodd" d="m8.66434 1.90122c1.20249-.5879 2.52136-.89341 3.85776-.89341 1.3365 0 2.6554.30551 3.8578.89341 1.2025.58789 2.2572 1.44281 3.0853 2.50034.8281 1.05751 1.4083 2.29026 1.6973 3.60578.2532 1.15273.2773 2.34306.0725 3.50226.2521.0652.4968.1607.7288.2853.5719.3072 1.0406.7775 1.3482 1.3514.3075.5739.4405 1.2261.3827 1.8753-.0579.6493-.304 1.2674-.7083 1.777-.311.3919-.7051.7063-1.1514.9213.0081.0797.0123.1601.0123.2408v1.4667.0022c-.0013.3103-.0635.6175-.183.9037-.1196.2862-.2942.546-.5141.7643s-.4807.3906-.7675.5069c-.2857.1159-.5913.1737-.8995.1701h-.4285v1.3794c0 .2761-.2239.5-.5.5-.2762 0-.5-.2239-.5-.5v-1.3794h-11.10548v1.3794c0 .2761-.22386.5-.5.5s-.5-.2239-.5-.5v-1.3794h-.42604c-.30784.0024-.61305-.0563-.89823-.1727-.2859-.1166-.54592-.2889-.76534-.5067-.21941-.2178-.39394-.4768-.51385-.7622s-.18293-.5916-.18559-.9013l-.00003-.0043.00002-1.4663v-.0011c.00017-.08.00434-.1597.01242-.2387-.44745-.215-.84251-.53-1.15418-.9227-.40433-.5096-.65049-1.1277-.70832-1.777-.05783-.6492.07514-1.3014.38268-1.8753.30757-.5739.77631-1.0442 1.34825-1.3514.24357-.1308.50119-.2295.76656-.2949-.20291-1.1562-.17833-2.3431.07423-3.49266.28901-1.31552.86914-2.54827 1.69725-3.60578.82812-1.05753 1.88281-1.91245 3.08529-2.50034zm11.52146 6.3207c.2306 1.04957.2474 2.13428.0509 3.18828-.0466.0026-.0932.0062-.1398.0108-.6455.0635-1.2575.3178-1.7596.7304-.502.4125-.8718.9648-1.0638 1.5875-.1106.3585-.1594.7313-.1465 1.1025-1.5106-.3289-3.047-.534-4.594-.6122-.0168-.0009-.0337-.0009-.0505 0-1.5507.0784-3.0907.2843-4.60486.6146.01325-.3721-.03558-.7457-.14637-1.1049-.19201-.6226-.56178-1.175-1.06382-1.5875-.50211-.4126-1.11412-.6669-1.75956-.7304-.03329-.0033-.06659-.0061-.09988-.0083-.19695-1.0548-.18027-2.1404.05049-3.19078.25695-1.16954.77256-2.26481 1.50788-3.20382.7353-.939 1.67115-1.69733 2.73717-2.2185 1.06605-.52117 2.23475-.79179 3.41855-.79179 1.1839 0 2.3526.27062 3.4186.79179 1.066.52118 2.0019 1.2795 2.7372 2.2185.7353.93901 1.2509 2.03428 1.5079 3.20382zm-13.72243 12.55268-.01415-.0002-.01415.0002h-.91395-.00441c-.17593.0016-.35054-.0319-.51393-.0985-.16339-.0667-.31251-.1654-.4387-.2906-.1262-.1253-.22701-.2747-.29641-.4399-.06916-.1646-.10572-.3414-.10751-.5205v-1.4635c.00073-.2947.09455-.581.26708-.8173.17258-.2363.41467-.41.69046-.4967l.01067-.0035c.70413-.2391 1.41684-.449 2.13634-.6296.08407.0006.16566-.0202.23785-.0585 1.64119-.3962 3.31654-.6398 5.00514-.7268 1.682.0866 3.3509.3287 4.986.7221.0771.0429.1654.0655.2564.0631.7197.1805 1.4327.3906 2.137.6297l.0085.0028c.2747.0878.5155.2619.687.4982s.2645.5222.2647.8164v1.4647c-.0009.1793-.0368.3567-.1058.5217-.069.1653-.1696.3147-.2958.44-.1261.1252-.2753.2236-.4388.2899-.1634.0663-.3381.0992-.5139.0969l-.0066-.0001h-.9176l-.0141-.0002-.0142.0002zm11.68943-5.6897c.6906.1775 1.375.3813 2.0518.6109.4769.1535.8924.4556 1.1873.8619.0467.0642.0899.1306.1297.1987.2609-.1454.4928-.3417.6814-.5794.2824-.3559.4551-.7886.4956-1.2441.0406-.4554-.0528-.9126-.268-1.3142-.2152-.4015-.5424-.7292-.94-.9428s-.8483-.3038-1.2958-.2597c-.4476.044-.8729.2204-1.2226.5078-.3498.2874-.6086.6732-.7431 1.1096-.1052.3411-.1307.7009-.0763 1.0513zm-13.34086.6105c.67277-.2282 1.35311-.4309 2.03956-.6076.05502-.3514.02967-.7122-.07582-1.0542-.13456-.4364-.39332-.8222-.74311-1.1096-.34974-.2874-.77504-.4638-1.22258-.5078-.44753-.0441-.89821.0461-1.29578.2597-.39764.2136-.72486.5413-.94006.9428-.21522.4016-.30859.8588-.26801 1.3142.04057.4555.2132.8882.49562 1.2441.18936.2386.42239.4356.68461.5812.0408-.0699.08526-.1379.13328-.2036.29659-.4062.71393-.7073 1.19229-.8592z" fill="#fff" fill-rule="evenodd"/></mask><g fill="#895d25"><path d="m9.85712 8.44412c-.19105-.19939-.50756-.20615-.70695-.01511-.19938.19105-.20615.50756-.0151.70695l.27016.28195-.27016.28196c-.19105.19939-.18428.51593.0151.70693.19939.1911.5159.1843.70695-.0151l.24058-.2511.2406.2511c.191.1994.5075.2062.7069.0151.1994-.191.2062-.50754.0151-.70693l-.2701-.28196.2701-.28195c.1911-.19939.1843-.5159-.0151-.70695-.1994-.19104-.5159-.18428-.7069.01511l-.2406.25108z"/><path d="m14.6678 8.43825c-.1943-.19623-.5109-.19781-.7071-.00352s-.1978.51087-.0035.7071l.2533.25583-.2533.25583c-.1943.19623-.1927.51281.0035.70711s.5128.1927.7071-.0035l.2463-.2488.2463.2488c.1943.1962.5109.1978.7071.0035s.1978-.51088.0035-.70711l-.2533-.25583.2533-.25583c.1943-.19623.1927-.51281-.0035-.7071s-.5128-.19271-.7071.00352l-.2463.24876z"/><path d="m12.5195 9.29004c.2762 0 .5-.22386.5-.5s-.2238-.5-.5-.5c-.2761 0-.5.22386-.5.5s.2239.5.5.5z"/><path clip-rule="evenodd" d="m8.66434 1.90122c1.20249-.5879 2.52136-.89341 3.85776-.89341 1.3365 0 2.6554.30551 3.8578.89341 1.2025.58789 2.2572 1.44281 3.0853 2.50034.8281 1.05751 1.4083 2.29026 1.6973 3.60578.2532 1.15273.2773 2.34306.0725 3.50226.2521.0652.4968.1607.7288.2853.5719.3072 1.0406.7775 1.3482 1.3514.3075.5739.4405 1.2261.3827 1.8753-.0579.6493-.304 1.2674-.7083 1.777-.311.3919-.7051.7063-1.1514.9213.0081.0797.0123.1601.0123.2408v1.4667.0022c-.0013.3103-.0635.6175-.183.9037-.1196.2862-.2942.546-.5141.7643s-.4807.3906-.7675.5069c-.2857.1159-.5913.1737-.8995.1701h-.4285v1.3794c0 .2761-.2239.5-.5.5-.2762 0-.5-.2239-.5-.5v-1.3794h-11.10548v1.3794c0 .2761-.22386.5-.5.5s-.5-.2239-.5-.5v-1.3794h-.42604c-.30784.0024-.61305-.0563-.89823-.1727-.2859-.1166-.54592-.2889-.76534-.5067-.21941-.2178-.39394-.4768-.51385-.7622s-.18293-.5916-.18559-.9013l-.00003-.0043.00002-1.4663v-.0011c.00017-.08.00434-.1597.01242-.2387-.44745-.215-.84251-.53-1.15418-.9227-.40433-.5096-.65049-1.1277-.70832-1.777-.05783-.6492.07514-1.3014.38268-1.8753.30757-.5739.77631-1.0442 1.34825-1.3514.24357-.1308.50119-.2295.76656-.2949-.20291-1.1562-.17833-2.3431.07423-3.49266.28901-1.31552.86914-2.54827 1.69725-3.60578.82812-1.05753 1.88281-1.91245 3.08529-2.50034zm11.52146 6.3207c.2306 1.04957.2474 2.13428.0509 3.18828-.0466.0026-.0932.0062-.1398.0108-.6455.0635-1.2575.3178-1.7596.7304-.502.4125-.8718.9648-1.0638 1.5875-.1106.3585-.1594.7313-.1465 1.1025-1.5106-.3289-3.047-.534-4.594-.6122-.0168-.0009-.0337-.0009-.0505 0-1.5507.0784-3.0907.2843-4.60486.6146.01325-.3721-.03558-.7457-.14637-1.1049-.19201-.6226-.56178-1.175-1.06382-1.5875-.50211-.4126-1.11412-.6669-1.75956-.7304-.03329-.0033-.06659-.0061-.09988-.0083-.19695-1.0548-.18027-2.1404.05049-3.19078.25695-1.16954.77256-2.26481 1.50788-3.20382.7353-.939 1.67115-1.69733 2.73717-2.2185 1.06605-.52117 2.23475-.79179 3.41855-.79179 1.1839 0 2.3526.27062 3.4186.79179 1.066.52118 2.0019 1.2795 2.7372 2.2185.7353.93901 1.2509 2.03428 1.5079 3.20382zm-13.72243 12.55268-.01415-.0002-.01415.0002h-.91395-.00441c-.17593.0016-.35054-.0319-.51393-.0985-.16339-.0667-.31251-.1654-.4387-.2906-.1262-.1253-.22701-.2747-.29641-.4399-.06916-.1646-.10572-.3414-.10751-.5205v-1.4635c.00073-.2947.09455-.581.26708-.8173.17258-.2363.41467-.41.69046-.4967l.01067-.0035c.70413-.2391 1.41684-.449 2.13634-.6296.08407.0006.16566-.0202.23785-.0585 1.64119-.3962 3.31654-.6398 5.00514-.7268 1.682.0866 3.3509.3287 4.986.7221.0771.0429.1654.0655.2564.0631.7197.1805 1.4327.3906 2.137.6297l.0085.0028c.2747.0878.5155.2619.687.4982s.2645.5222.2647.8164v1.4647c-.0009.1793-.0368.3567-.1058.5217-.069.1653-.1696.3147-.2958.44-.1261.1252-.2753.2236-.4388.2899-.1634.0663-.3381.0992-.5139.0969l-.0066-.0001h-.9176l-.0141-.0002-.0142.0002zm11.68943-5.6897c.6906.1775 1.375.3813 2.0518.6109.4769.1535.8924.4556 1.1873.8619.0467.0642.0899.1306.1297.1987.2609-.1454.4928-.3417.6814-.5794.2824-.3559.4551-.7886.4956-1.2441.0406-.4554-.0528-.9126-.268-1.3142-.2152-.4015-.5424-.7292-.94-.9428s-.8483-.3038-1.2958-.2597c-.4476.044-.8729.2204-1.2226.5078-.3498.2874-.6086.6732-.7431 1.1096-.1052.3411-.1307.7009-.0763 1.0513zm-13.34086.6105c.67277-.2282 1.35311-.4309 2.03956-.6076.05502-.3514.02967-.7122-.07582-1.0542-.13456-.4364-.39332-.8222-.74311-1.1096-.34974-.2874-.77504-.4638-1.22258-.5078-.44753-.0441-.89821.0461-1.29578.2597-.39764.2136-.72486.5413-.94006.9428-.21522.4016-.30859.8588-.26801 1.3142.04057.4555.2132.8882.49562 1.2441.18936.2386.42239.4356.68461.5812.0408-.0699.08526-.1379.13328-.2036.29659-.4062.71393-.7073 1.19229-.8592z" fill-rule="evenodd"/></g><g stroke="#895d25" stroke-width="2"><path d="m9.85712 8.44412c-.19105-.19939-.50756-.20615-.70695-.01511-.19938.19105-.20615.50756-.0151.70695l.27016.28195-.27016.28196c-.19105.19939-.18428.51593.0151.70693.19939.1911.5159.1843.70695-.0151l.24058-.2511.2406.2511c.191.1994.5075.2062.7069.0151.1994-.191.2062-.50754.0151-.70693l-.2701-.28196.2701-.28195c.1911-.19939.1843-.5159-.0151-.70695-.1994-.19104-.5159-.18428-.7069.01511l-.2406.25108z" mask="url(#a)"/><path d="m14.6678 8.43825c-.1943-.19623-.5109-.19781-.7071-.00352s-.1978.51087-.0035.7071l.2533.25583-.2533.25583c-.1943.19623-.1927.51281.0035.70711s.5128.1927.7071-.0035l.2463-.2488.2463.2488c.1943.1962.5109.1978.7071.0035s.1978-.51088.0035-.70711l-.2533-.25583.2533-.25583c.1943-.19623.1927-.51281-.0035-.7071s-.5128-.19271-.7071.00352l-.2463.24876z" mask="url(#a)"/><path d="m12.5195 9.29004c.2762 0 .5-.22386.5-.5s-.2238-.5-.5-.5c-.2761 0-.5.22386-.5.5s.2239.5.5.5z" mask="url(#a)"/><path clip-rule="evenodd" d="m8.66434 1.90122c1.20249-.5879 2.52136-.89341 3.85776-.89341 1.3365 0 2.6554.30551 3.8578.89341 1.2025.58789 2.2572 1.44281 3.0853 2.50034.8281 1.05751 1.4083 2.29026 1.6973 3.60578.2532 1.15273.2773 2.34306.0725 3.50226.2521.0652.4968.1607.7288.2853.5719.3072 1.0406.7775 1.3482 1.3514.3075.5739.4405 1.2261.3827 1.8753-.0579.6493-.304 1.2674-.7083 1.777-.311.3919-.7051.7063-1.1514.9213.0081.0797.0123.1601.0123.2408v1.4667.0022c-.0013.3103-.0635.6175-.183.9037-.1196.2862-.2942.546-.5141.7643s-.4807.3906-.7675.5069c-.2857.1159-.5913.1737-.8995.1701h-.4285v1.3794c0 .2761-.2239.5-.5.5-.2762 0-.5-.2239-.5-.5v-1.3794h-11.10548v1.3794c0 .2761-.22386.5-.5.5s-.5-.2239-.5-.5v-1.3794h-.42604c-.30784.0024-.61305-.0563-.89823-.1727-.2859-.1166-.54592-.2889-.76534-.5067-.21941-.2178-.39394-.4768-.51385-.7622s-.18293-.5916-.18559-.9013l-.00003-.0043.00002-1.4663v-.0011c.00017-.08.00434-.1597.01242-.2387-.44745-.215-.84251-.53-1.15418-.9227-.40433-.5096-.65049-1.1277-.70832-1.777-.05783-.6492.07514-1.3014.38268-1.8753.30757-.5739.77631-1.0442 1.34825-1.3514.24357-.1308.50119-.2295.76656-.2949-.20291-1.1562-.17833-2.3431.07423-3.49266.28901-1.31552.86914-2.54827 1.69725-3.60578.82812-1.05753 1.88281-1.91245 3.08529-2.50034zm11.52146 6.3207c.2306 1.04957.2474 2.13428.0509 3.18828-.0466.0026-.0932.0062-.1398.0108-.6455.0635-1.2575.3178-1.7596.7304-.502.4125-.8718.9648-1.0638 1.5875-.1106.3585-.1594.7313-.1465 1.1025-1.5106-.3289-3.047-.534-4.594-.6122-.0168-.0009-.0337-.0009-.0505 0-1.5507.0784-3.0907.2843-4.60486.6146.01325-.3721-.03558-.7457-.14637-1.1049-.19201-.6226-.56178-1.175-1.06382-1.5875-.50211-.4126-1.11412-.6669-1.75956-.7304-.03329-.0033-.06659-.0061-.09988-.0083-.19695-1.0548-.18027-2.1404.05049-3.19078.25695-1.16954.77256-2.26481 1.50788-3.20382.7353-.939 1.67115-1.69733 2.73717-2.2185 1.06605-.52117 2.23475-.79179 3.41855-.79179 1.1839 0 2.3526.27062 3.4186.79179 1.066.52118 2.0019 1.2795 2.7372 2.2185.7353.93901 1.2509 2.03428 1.5079 3.20382zm-13.72243 12.55268-.01415-.0002-.01415.0002h-.91395-.00441c-.17593.0016-.35054-.0319-.51393-.0985-.16339-.0667-.31251-.1654-.4387-.2906-.1262-.1253-.22701-.2747-.29641-.4399-.06916-.1646-.10572-.3414-.10751-.5205v-1.4635c.00073-.2947.09455-.581.26708-.8173.17258-.2363.41467-.41.69046-.4967l.01067-.0035c.70413-.2391 1.41684-.449 2.13634-.6296.08407.0006.16566-.0202.23785-.0585 1.64119-.3962 3.31654-.6398 5.00514-.7268 1.682.0866 3.3509.3287 4.986.7221.0771.0429.1654.0655.2564.0631.7197.1805 1.4327.3906 2.137.6297l.0085.0028c.2747.0878.5155.2619.687.4982s.2645.5222.2647.8164v1.4647c-.0009.1793-.0368.3567-.1058.5217-.069.1653-.1696.3147-.2958.44-.1261.1252-.2753.2236-.4388.2899-.1634.0663-.3381.0992-.5139.0969l-.0066-.0001h-.9176l-.0141-.0002-.0142.0002zm11.68943-5.6897c.6906.1775 1.375.3813 2.0518.6109.4769.1535.8924.4556 1.1873.8619.0467.0642.0899.1306.1297.1987.2609-.1454.4928-.3417.6814-.5794.2824-.3559.4551-.7886.4956-1.2441.0406-.4554-.0528-.9126-.268-1.3142-.2152-.4015-.5424-.7292-.94-.9428s-.8483-.3038-1.2958-.2597c-.4476.044-.8729.2204-1.2226.5078-.3498.2874-.6086.6732-.7431 1.1096-.1052.3411-.1307.7009-.0763 1.0513zm-13.34086.6105c.67277-.2282 1.35311-.4309 2.03956-.6076.05502-.3514.02967-.7122-.07582-1.0542-.13456-.4364-.39332-.8222-.74311-1.1096-.34974-.2874-.77504-.4638-1.22258-.5078-.44753-.0441-.89821.0461-1.29578.2597-.39764.2136-.72486.5413-.94006.9428-.21522.4016-.30859.8588-.26801 1.3142.04057.4555.2132.8882.49562 1.2441.18936.2386.42239.4356.68461.5812.0408-.0699.08526-.1379.13328-.2036.29659-.4062.71393-.7073 1.19229-.8592z" fill-rule="evenodd" mask="url(#a)"/></g></svg>