<svg fill="none" height="34" viewBox="0 0 34 34" width="34" xmlns="http://www.w3.org/2000/svg"><g fill="#895d25"><path d="m12.5681 11.5931c.1994-.1911.5159-.1843.707.0151l.4571.4771.4572-.4771c.191-.1994.5076-.2062.7069-.0151.1994.191.2062.5075.0152.7069l-.4868.508.4868.508c.191.1994.1842.5159-.0152.7069-.1993.1911-.5159.1843-.7069-.0151l-.4572-.4771-.4571.4771c-.1911.1994-.5076.2062-.707.0151-.1993-.191-.2061-.5075-.0151-.7069l.4868-.508-.4868-.508c-.191-.1994-.1842-.5159.0151-.7069z"/><path d="m19.8162 11.7566c-.1942-.1962-.5108-.1978-.7071-.0035-.1962.1943-.1978.5109-.0035.7071l.4699.4746-.4699.4745c-.1943.1963-.1927.5128.0035.7071.1963.1943.5129.1927.7071-.0035l.4629-.4675.4629.4675c.1943.1962.5109.1978.7071.0035s.1978-.5108.0035-.7071l-.4699-.4745.4699-.4746c.1943-.1962.1927-.5128-.0035-.7071s-.5128-.1927-.7071.0035l-.4629.4675z"/><path d="m17 12.6084c.2761 0 .5-.2239.5-.5s-.2239-.5-.5-.5-.5.2239-.5.5.2239.5.5.5z"/><path clip-rule="evenodd" d="m11.8607 2.74752c1.6108-.78753 3.3775-1.19674 5.1675-1.19674 1.7901 0 3.5568.40921 5.1676 1.19674 1.6108.78752 3.0238 1.93283 4.1333 3.34974 1.1095 1.41688 1.8869 3.06868 2.2742 4.83154.3515 1.5999.3735 3.254.0666 4.8597.3851.0841.759.2216 1.1105.4104.7464.401 1.3585 1.0149 1.7601 1.7644.4017.7494.5754 1.6014.4998 2.4494-.0755.8481-.3971 1.6554-.925 2.3207-.433.5456-.989.976-1.6194 1.2567.0206.1438.0312.2895.0313.436v1.9947.0021c-.0017.3986-.0815.793-.235 1.1605s-.3777.701-.6599.9811c-.2821.2801-.6167.5012-.9846.6504-.3667.1487-.7591.2228-1.1545.2181h-.7627v2.0568c0 .2762-.2239.5-.5.5-.2762 0-.5-.2238-.5-.5v-2.0568h-15.46097v2.0568c0 .2762-.22386.5-.5.5s-.5-.2238-.5-.5v-2.0568h-.7638c-.39509.0031-.78684-.0722-1.15293-.2215-.36677-.1497-.70043-.3708-.98207-.6503-.28162-.2795-.5057-.6121-.65969-.9786-.15399-.3664-.23494-.7597-.23835-1.1575l-.00003-.0043.00001-1.9943.00001-.001c.00031-.1462.01101-.2914.03176-.4348-.63095-.2806-1.18751-.7113-1.62075-1.2573-.52795-.6653-.84949-1.4726-.92504-2.3207-.07554-.848.09817-1.7.49981-2.4494.40167-.7495 1.01368-1.3634 1.76015-1.7644.36827-.1978.76111-.3394 1.16576-.4221-.30455-1.6021-.28185-3.2519.06881-4.848.38728-1.76286 1.16465-3.41466 2.27417-4.83154 1.10954-1.41691 2.52255-2.56222 4.13335-3.34974zm15.7659 8.39578c.329 1.4977.3432 3.047.0433 4.5481-.1085.0023-.2171.0088-.3257.0195-.8422.0828-1.6409.4147-2.2963.9533-.6554.5385-1.1383 1.2597-1.3891 2.073-.1676.5435-.2267 1.1123-.1769 1.674-2.1197-.4755-4.2777-.7703-6.4512-.8803-.0169-.0008-.0337-.0008-.0506 0-2.1776.1102-4.3397.406-6.4633.883.0502-.5625-.0087-1.1323-.1766-1.6767-.2508-.8133-.73372-1.5345-1.3891-2.073-.65543-.5386-1.45415-.8705-2.29633-.9533-.08929-.0088-.17863-.0147-.2679-.0179-.30023-1.5016-.28613-3.0515.04301-4.5497.35522-1.6168 1.06807-3.13112 2.0848-4.42951 1.01671-1.29837 2.31082-2.34708 3.78522-3.06789 1.4743-.7208 3.0908-1.09512 4.7283-1.09512 1.6376 0 3.254.37432 4.7284 1.09512 1.4743.72081 2.7685 1.76952 3.7852 3.06789 1.0167 1.29839 1.7296 2.81271 2.0848 4.42951zm1.5642 11.8859c.4413-.2149.8318-.5275 1.1411-.9174.4061-.5117.6541-1.1335.7124-1.7878s-.0759-1.3112-.3852-1.8883-.7798-1.0485-1.3519-1.3558-1.2208-.4372-1.8651-.3738-1.2563.3173-1.7593.7307c-.5032.4134-.8751.9681-1.0684 1.5951-.163.5285-.1929 1.0882-.0891 1.6286.9735.2471 1.938.5327 2.8913.8562.6126.1968 1.1466.5848 1.5256 1.107.0937.129.1767.2647.2486.4055zm-5.039-1.4315c.9928.2483 1.976.5376 2.9474.8673l.0085.0028c.4104.1311.7696.3911 1.0252.7432.2556.3522.394.7781.3943 1.2159v1.9927c-.0012.2675-.0549.5321-.1578.7784-.1029.2465-.2531.4697-.4415.6567-.1885.1871-.4114.3343-.6559.4335-.2446.0991-.5059.1482-.7691.1448l-18.99932-.0001-.00441.0001c-.26314.0023-.52428-.0477-.76853-.1474-.24427-.0997-.46703-.2471-.65543-.4341-.18842-.1871-.33878-.41-.44226-.6563-.10323-.2456-.15772-.5095-.16028-.7766v-1.9915c.00105-.4388.14069-.8653.39787-1.2175.25724-.3522.61845-.6114 1.03041-.741l.01063-.0036c.97052-.3295 1.95297-.6185 2.94485-.8667.09968.0052.19677-.0198.27987-.0689 2.2522-.545 4.5515-.8797 6.8691-.9985 2.3109.1185 4.6036.4516 6.8495.9939.0874.0537.1909.0805.2969.0729zm-20.48476.5141c.30984.3905.70111.7036 1.14326.9184.073-.1426.15737-.2798.25265-.4103.38126-.5221.91771-.9089 1.53227-1.1036.9489-.322 1.90892-.6063 2.87783-.8526.1045-.5414.07486-1.1022-.08846-1.6318-.19335-.627-.56524-1.1817-1.06836-1.5951-.50307-.4134-1.11509-.6673-1.75937-.7307-.64426-.0634-1.29296.0665-1.86506.3738-.57215.3073-1.04265.7787-1.35195 1.3558-.30932.5771-.44343 1.234-.38514 1.8883.05828.6543.30629 1.2761.71233 1.7878z" fill-rule="evenodd"/></g></svg>