<svg fill="none" height="15" viewBox="0 0 15 15" width="15" xmlns="http://www.w3.org/2000/svg" xmlns:xlink="http://www.w3.org/1999/xlink"><mask id="a" fill="#fff"><path d="m5.91422 5.06646c-.11462-.11963-.30453-.12369-.42416-.00906-.11964.11462-.12369.30453-.00907.42416l.1621.16918-.1621.16917c-.11462.11963-.11057.30954.00907.42417.11963.11462.30954.11057.42416-.00907l.14435-.15065.14435.15065c.11463.11964.30453.12369.42416.00907.11964-.11463.1237-.30454.00907-.42417l-.1621-.16917.1621-.16918c.11463-.11963.11057-.30954-.00907-.42416-.11963-.11463-.30953-.11057-.42416.00906l-.14435.15065z" fill="#fff"/><path d="m8.80064 5.06294c-.11658-.11774-.30652-.11869-.42426-.00211-.11774.11657-.11869.30652-.00211.42426l.15198.15349-.15198.1535c-.11658.11774-.11563.30769.00211.42426s.30768.11563.42426-.00211l.14777-.14926.14778.14926c.11657.11774.30652.11868.42426.00211s.11868-.30652.00211-.42426l-.15198-.1535.15198-.15349c.11657-.11774.11563-.30769-.00211-.42426-.11774-.11658-.30769-.11563-.42426.00211l-.14778.14925z" fill="#fff"/><path d="m7.51167 5.57401c.16569 0 .3-.13431.3-.3 0-.16568-.13431-.3-.3-.3s-.3.13432-.3.3c0 .16569.13431.3.3.3z" fill="#fff"/><path clip-rule="evenodd" d="m5.19855 1.14072c.7215-.352742 1.51284-.536045 2.31469-.536045.80184 0 1.59318.183303 2.31468.536045.72148.35273 1.35428.86569 1.85118 1.5002s.8449 1.37416 1.0183 2.16347c.152.69164.1664 1.40583.0436 2.10134.1512.03915.298.09645.4372.17121.3432.18433.6244.46651.809.81084.1845.3443.2643.73566.2296 1.12519-.0347.38954-.1824.76042-.425 1.06613-.1866.2352-.4231.4238-.6908.5528.0048.0479.0073.0961.0073.1445v.8801.0012c-.0008.1862-.038.3705-.1098.5423-.0717.1717-.1765.3276-.3084.4585-.132.131-.2884.2344-.4605.3042-.1714.0695-.3548.1042-.5397.1021h-.2571v.8276c0 .1657-.1344.3-.3.3-.1657 0-.3-.1343-.3-.3v-.8276h-6.66332v.8276c0 .1657-.13431.3-.3.3-.16568 0-.3-.1343-.3-.3v-.8276h-.25562c-.18471.0014-.36783-.0338-.53894-.1037-.17154-.07-.32755-.1733-.4592-.304s-.23637-.2861-.30831-.4573c-.07195-.1712-.10976-.355-.11135-.5408l-.00003-.0025.00001-.8799.00001-.0006c.0001-.048.0026-.0958.00745-.1433-.26847-.129-.50551-.3179-.69251-.5536-.242598-.30571-.39029-.67659-.424991-1.06613-.034701-.38953.045082-.78089.229611-1.12519.18454-.34433.46578-.62651.80895-.81084.14614-.0785.30071-.13774.45993-.17695-.12174-.6937-.10699-1.40586.04454-2.0956.17341-.78931.52149-1.52896 1.01835-2.16347.49687-.63451 1.12969-1.14747 1.85117-1.5002zm6.91285 3.79242c.1384.62974.1485 1.28056.0306 1.91298-.028.00155-.056.00369-.0839.00644-.3873.0381-.7545.19068-1.0558.43824-.3012.24753-.523.57894-.6383.95251-.0663.21509-.0956.43878-.0878.66155-.90643-.19739-1.82824-.32043-2.75644-.36738-.0101-.00051-.02022-.00051-.03032 0-.93042.04707-1.85441.17058-2.7629.36879.00795-.22324-.02135-.44742-.08783-.66296-.1152-.37357-.33706-.70498-.63829-.95251-.30126-.24756-.66847-.40014-1.05573-.43824-.01998-.00196-.03996-.00362-.05993-.00497-.11817-.63288-.10817-1.28422.03029-1.91445.15417-.70172.46354-1.35889.90473-1.9223.44118-.56339 1.00269-1.01839 1.6423-1.33109.6396-.3127 1.34083-.47507 2.05116-.47507.71032 0 1.41155.16237 2.05115.47507.63961.3127 1.20111.7677 1.64231 1.33109.4412.56341.7506 1.22058.9047 1.9223zm-8.23343 7.53166-.00849-.0002-.00849.0002-.54837-.0001-.00264.0001c-.10556.0009-.21033-.0192-.30836-.0592-.09804-.04-.1875-.0992-.26322-.1743-.07572-.0752-.1362-.1649-.17785-.264-.04149-.0987-.06343-.2048-.06451-.3122v-.8781c.00045-.1769.05674-.3487.16026-.4904.10354-.1418.2488-.246.41427-.29808l.0064-.00209c.42248-.14342.85011-.2694 1.28181-.37772.05044.00036.09939-.01212.14271-.03513.98471-.23773 1.98995-.3839 3.00311-.43609 1.0092.05199 2.01053.19721 2.9915.4333.0463.02574.0993.03931.1539.03781.4318.10835.8596.23436 1.2822.37783l.0051.00167c.1648.0527.3093.1572.4122.2989.1029.1418.1587.3134.1588.4899v.8788c-.0005.1076-.0221.214-.0634.313-.0414.0992-.1018.1889-.1775.264s-.1652.1342-.2633.174-.2029.0595-.3084.0581h-.0039-.5505l-.0085-.0002-.0085.0002zm7.01363-3.41387c.4144.10652.825.22875 1.2311.36652.2862.0921.5355.27336.7124.51714.028.03855.0539.07841.0778.11921.1565-.0872.2957-.205.4089-.34762.1694-.21355.273-.47318.2973-.74644.0244-.27328-.0316-.54759-.1608-.78853-.1291-.24092-.3254-.43755-.564-.56569s-.509-.18226-.7775-.15584-.5237.13225-.7335.30469c-.2099.17246-.3652.40395-.4459.66575-.0631.20468-.0784.42055-.0458.63081zm-8.00449.36632c.40367-.13695.81187-.25854 1.22374-.3646.03302-.2108.0178-.42729-.04549-.63253-.08074-.2618-.23599-.49329-.44587-.66575-.20984-.17244-.46502-.27827-.73355-.30469-.26851-.02642-.53892.0277-.77747.15584-.23857.12814-.43491.32477-.56403.56569-.12913.24094-.18515.51525-.16081.78853.02435.27326.12792.53289.29737.74644.11363.14319.25344.26137.41077.34872.02448-.0419.05116-.0827.07997-.12216.17795-.24368.42836-.4244.71537-.51549z" fill="#fff" fill-rule="evenodd"/></mask><g fill="#895d25"><path d="m5.91422 5.06646c-.11462-.11963-.30453-.12369-.42416-.00906-.11964.11462-.12369.30453-.00907.42416l.1621.16918-.1621.16917c-.11462.11963-.11057.30954.00907.42417.11963.11462.30954.11057.42416-.00907l.14435-.15065.14435.15065c.11463.11964.30453.12369.42416.00907.11964-.11463.1237-.30454.00907-.42417l-.1621-.16917.1621-.16918c.11463-.11963.11057-.30954-.00907-.42416-.11963-.11463-.30953-.11057-.42416.00906l-.14435.15065z"/><path d="m8.80064 5.06294c-.11658-.11774-.30652-.11869-.42426-.00211-.11774.11657-.11869.30652-.00211.42426l.15198.15349-.15198.1535c-.11658.11774-.11563.30769.00211.42426s.30768.11563.42426-.00211l.14777-.14926.14778.14926c.11657.11774.30652.11868.42426.00211s.11868-.30652.00211-.42426l-.15198-.1535.15198-.15349c.11657-.11774.11563-.30769-.00211-.42426-.11774-.11658-.30769-.11563-.42426.00211l-.14778.14925z"/><path d="m7.51167 5.57401c.16569 0 .3-.13431.3-.3 0-.16568-.13431-.3-.3-.3s-.3.13432-.3.3c0 .16569.13431.3.3.3z"/><path clip-rule="evenodd" d="m5.19855 1.14072c.7215-.352742 1.51284-.536045 2.31469-.536045.80184 0 1.59318.183303 2.31468.536045.72148.35273 1.35428.86569 1.85118 1.5002s.8449 1.37416 1.0183 2.16347c.152.69164.1664 1.40583.0436 2.10134.1512.03915.298.09645.4372.17121.3432.18433.6244.46651.809.81084.1845.3443.2643.73566.2296 1.12519-.0347.38954-.1824.76042-.425 1.06613-.1866.2352-.4231.4238-.6908.5528.0048.0479.0073.0961.0073.1445v.8801.0012c-.0008.1862-.038.3705-.1098.5423-.0717.1717-.1765.3276-.3084.4585-.132.131-.2884.2344-.4605.3042-.1714.0695-.3548.1042-.5397.1021h-.2571v.8276c0 .1657-.1344.3-.3.3-.1657 0-.3-.1343-.3-.3v-.8276h-6.66332v.8276c0 .1657-.13431.3-.3.3-.16568 0-.3-.1343-.3-.3v-.8276h-.25562c-.18471.0014-.36783-.0338-.53894-.1037-.17154-.07-.32755-.1733-.4592-.304s-.23637-.2861-.30831-.4573c-.07195-.1712-.10976-.355-.11135-.5408l-.00003-.0025.00001-.8799.00001-.0006c.0001-.048.0026-.0958.00745-.1433-.26847-.129-.50551-.3179-.69251-.5536-.242598-.30571-.39029-.67659-.424991-1.06613-.034701-.38953.045082-.78089.229611-1.12519.18454-.34433.46578-.62651.80895-.81084.14614-.0785.30071-.13774.45993-.17695-.12174-.6937-.10699-1.40586.04454-2.0956.17341-.78931.52149-1.52896 1.01835-2.16347.49687-.63451 1.12969-1.14747 1.85117-1.5002zm6.91285 3.79242c.1384.62974.1485 1.28056.0306 1.91298-.028.00155-.056.00369-.0839.00644-.3873.0381-.7545.19068-1.0558.43824-.3012.24753-.523.57894-.6383.95251-.0663.21509-.0956.43878-.0878.66155-.90643-.19739-1.82824-.32043-2.75644-.36738-.0101-.00051-.02022-.00051-.03032 0-.93042.04707-1.85441.17058-2.7629.36879.00795-.22324-.02135-.44742-.08783-.66296-.1152-.37357-.33706-.70498-.63829-.95251-.30126-.24756-.66847-.40014-1.05573-.43824-.01998-.00196-.03996-.00362-.05993-.00497-.11817-.63288-.10817-1.28422.03029-1.91445.15417-.70172.46354-1.35889.90473-1.9223.44118-.56339 1.00269-1.01839 1.6423-1.33109.6396-.3127 1.34083-.47507 2.05116-.47507.71032 0 1.41155.16237 2.05115.47507.63961.3127 1.20111.7677 1.64231 1.33109.4412.56341.7506 1.22058.9047 1.9223zm-8.23343 7.53166-.00849-.0002-.00849.0002-.54837-.0001-.00264.0001c-.10556.0009-.21033-.0192-.30836-.0592-.09804-.04-.1875-.0992-.26322-.1743-.07572-.0752-.1362-.1649-.17785-.264-.04149-.0987-.06343-.2048-.06451-.3122v-.8781c.00045-.1769.05674-.3487.16026-.4904.10354-.1418.2488-.246.41427-.29808l.0064-.00209c.42248-.14342.85011-.2694 1.28181-.37772.05044.00036.09939-.01212.14271-.03513.98471-.23773 1.98995-.3839 3.00311-.43609 1.0092.05199 2.01053.19721 2.9915.4333.0463.02574.0993.03931.1539.03781.4318.10835.8596.23436 1.2822.37783l.0051.00167c.1648.0527.3093.1572.4122.2989.1029.1418.1587.3134.1588.4899v.8788c-.0005.1076-.0221.214-.0634.313-.0414.0992-.1018.1889-.1775.264s-.1652.1342-.2633.174-.2029.0595-.3084.0581h-.0039-.5505l-.0085-.0002-.0085.0002zm7.01363-3.41387c.4144.10652.825.22875 1.2311.36652.2862.0921.5355.27336.7124.51714.028.03855.0539.07841.0778.11921.1565-.0872.2957-.205.4089-.34762.1694-.21355.273-.47318.2973-.74644.0244-.27328-.0316-.54759-.1608-.78853-.1291-.24092-.3254-.43755-.564-.56569s-.509-.18226-.7775-.15584-.5237.13225-.7335.30469c-.2099.17246-.3652.40395-.4459.66575-.0631.20468-.0784.42055-.0458.63081zm-8.00449.36632c.40367-.13695.81187-.25854 1.22374-.3646.03302-.2108.0178-.42729-.04549-.63253-.08074-.2618-.23599-.49329-.44587-.66575-.20984-.17244-.46502-.27827-.73355-.30469-.26851-.02642-.53892.0277-.77747.15584-.23857.12814-.43491.32477-.56403.56569-.12913.24094-.18515.51525-.16081.78853.02435.27326.12792.53289.29737.74644.11363.14319.25344.26137.41077.34872.02448-.0419.05116-.0827.07997-.12216.17795-.24368.42836-.4244.71537-.51549z" fill-rule="evenodd"/></g><g stroke="#895d25" stroke-width="2"><path d="m5.91422 5.06646c-.11462-.11963-.30453-.12369-.42416-.00906-.11964.11462-.12369.30453-.00907.42416l.1621.16918-.1621.16917c-.11462.11963-.11057.30954.00907.42417.11963.11462.30954.11057.42416-.00907l.14435-.15065.14435.15065c.11463.11964.30453.12369.42416.00907.11964-.11463.1237-.30454.00907-.42417l-.1621-.16917.1621-.16918c.11463-.11963.11057-.30954-.00907-.42416-.11963-.11463-.30953-.11057-.42416.00906l-.14435.15065z" mask="url(#a)"/><path d="m8.80064 5.06294c-.11658-.11774-.30652-.11869-.42426-.00211-.11774.11657-.11869.30652-.00211.42426l.15198.15349-.15198.1535c-.11658.11774-.11563.30769.00211.42426s.30768.11563.42426-.00211l.14777-.14926.14778.14926c.11657.11774.30652.11868.42426.00211s.11868-.30652.00211-.42426l-.15198-.1535.15198-.15349c.11657-.11774.11563-.30769-.00211-.42426-.11774-.11658-.30769-.11563-.42426.00211l-.14778.14925z" mask="url(#a)"/><path d="m7.51167 5.57401c.16569 0 .3-.13431.3-.3 0-.16568-.13431-.3-.3-.3s-.3.13432-.3.3c0 .16569.13431.3.3.3z" mask="url(#a)"/><path clip-rule="evenodd" d="m5.19855 1.14072c.7215-.352742 1.51284-.536045 2.31469-.536045.80184 0 1.59318.183303 2.31468.536045.72148.35273 1.35428.86569 1.85118 1.5002s.8449 1.37416 1.0183 2.16347c.152.69164.1664 1.40583.0436 2.10134.1512.03915.298.09645.4372.17121.3432.18433.6244.46651.809.81084.1845.3443.2643.73566.2296 1.12519-.0347.38954-.1824.76042-.425 1.06613-.1866.2352-.4231.4238-.6908.5528.0048.0479.0073.0961.0073.1445v.8801.0012c-.0008.1862-.038.3705-.1098.5423-.0717.1717-.1765.3276-.3084.4585-.132.131-.2884.2344-.4605.3042-.1714.0695-.3548.1042-.5397.1021h-.2571v.8276c0 .1657-.1344.3-.3.3-.1657 0-.3-.1343-.3-.3v-.8276h-6.66332v.8276c0 .1657-.13431.3-.3.3-.16568 0-.3-.1343-.3-.3v-.8276h-.25562c-.18471.0014-.36783-.0338-.53894-.1037-.17154-.07-.32755-.1733-.4592-.304s-.23637-.2861-.30831-.4573c-.07195-.1712-.10976-.355-.11135-.5408l-.00003-.0025.00001-.8799.00001-.0006c.0001-.048.0026-.0958.00745-.1433-.26847-.129-.50551-.3179-.69251-.5536-.242598-.30571-.39029-.67659-.424991-1.06613-.034701-.38953.045082-.78089.229611-1.12519.18454-.34433.46578-.62651.80895-.81084.14614-.0785.30071-.13774.45993-.17695-.12174-.6937-.10699-1.40586.04454-2.0956.17341-.78931.52149-1.52896 1.01835-2.16347.49687-.63451 1.12969-1.14747 1.85117-1.5002zm6.91285 3.79242c.1384.62974.1485 1.28056.0306 1.91298-.028.00155-.056.00369-.0839.00644-.3873.0381-.7545.19068-1.0558.43824-.3012.24753-.523.57894-.6383.95251-.0663.21509-.0956.43878-.0878.66155-.90643-.19739-1.82824-.32043-2.75644-.36738-.0101-.00051-.02022-.00051-.03032 0-.93042.04707-1.85441.17058-2.7629.36879.00795-.22324-.02135-.44742-.08783-.66296-.1152-.37357-.33706-.70498-.63829-.95251-.30126-.24756-.66847-.40014-1.05573-.43824-.01998-.00196-.03996-.00362-.05993-.00497-.11817-.63288-.10817-1.28422.03029-1.91445.15417-.70172.46354-1.35889.90473-1.9223.44118-.56339 1.00269-1.01839 1.6423-1.33109.6396-.3127 1.34083-.47507 2.05116-.47507.71032 0 1.41155.16237 2.05115.47507.63961.3127 1.20111.7677 1.64231 1.33109.4412.56341.7506 1.22058.9047 1.9223zm-8.23343 7.53166-.00849-.0002-.00849.0002-.54837-.0001-.00264.0001c-.10556.0009-.21033-.0192-.30836-.0592-.09804-.04-.1875-.0992-.26322-.1743-.07572-.0752-.1362-.1649-.17785-.264-.04149-.0987-.06343-.2048-.06451-.3122v-.8781c.00045-.1769.05674-.3487.16026-.4904.10354-.1418.2488-.246.41427-.29808l.0064-.00209c.42248-.14342.85011-.2694 1.28181-.37772.05044.00036.09939-.01212.14271-.03513.98471-.23773 1.98995-.3839 3.00311-.43609 1.0092.05199 2.01053.19721 2.9915.4333.0463.02574.0993.03931.1539.03781.4318.10835.8596.23436 1.2822.37783l.0051.00167c.1648.0527.3093.1572.4122.2989.1029.1418.1587.3134.1588.4899v.8788c-.0005.1076-.0221.214-.0634.313-.0414.0992-.1018.1889-.1775.264s-.1652.1342-.2633.174-.2029.0595-.3084.0581h-.0039-.5505l-.0085-.0002-.0085.0002zm7.01363-3.41387c.4144.10652.825.22875 1.2311.36652.2862.0921.5355.27336.7124.51714.028.03855.0539.07841.0778.11921.1565-.0872.2957-.205.4089-.34762.1694-.21355.273-.47318.2973-.74644.0244-.27328-.0316-.54759-.1608-.78853-.1291-.24092-.3254-.43755-.564-.56569s-.509-.18226-.7775-.15584-.5237.13225-.7335.30469c-.2099.17246-.3652.40395-.4459.66575-.0631.20468-.0784.42055-.0458.63081zm-8.00449.36632c.40367-.13695.81187-.25854 1.22374-.3646.03302-.2108.0178-.42729-.04549-.63253-.08074-.2618-.23599-.49329-.44587-.66575-.20984-.17244-.46502-.27827-.73355-.30469-.26851-.02642-.53892.0277-.77747.15584-.23857.12814-.43491.32477-.56403.56569-.12913.24094-.18515.51525-.16081.78853.02435.27326.12792.53289.29737.74644.11363.14319.25344.26137.41077.34872.02448-.0419.05116-.0827.07997-.12216.17795-.24368.42836-.4244.71537-.51549z" fill-rule="evenodd" mask="url(#a)"/></g></svg>