<svg fill="none" height="15" viewBox="0 0 15 15" width="15" xmlns="http://www.w3.org/2000/svg"><g fill="#f18303"><path clip-rule="evenodd" d="m14.3482 8.42037c-.1114-.11246-.2467-.19532-.3941-.24353v-2.50028c0-.44474-.1749-.87186-.4872-1.18724-.3124-.3155-.7367-.49323-1.1797-.49323h-9.5727c-.44302 0-.86731.17773-1.17969.49323-.31226.31538-.48715.7425-.48715 1.18724v2.49967c-.148111.04812-.284163.1312-.395983.24414-.18339.18522-.286574.43546-.288371.69592l.000033.00706-.000041.00497v2.75568l.00007.0065-.000019.0034v.6884c-.001511.1301.022338.2592.070221.3801.048045.1213.119541.2327.210851.3269.091071.0939.199804.1689.320018.2204.120521.0517.249791.0784.380241.0794h.00209 12.30643.0021c.1304-.001.2597-.0277.3802-.0794.1202-.0515.229-.1265.32-.2204.0913-.0942.1628-.2056.2109-.3269.0479-.1209.0717-.25.0702-.3801v-.6884l-.0001-.0065.0001-.0034v-2.76564-.00207c-.0018-.26046-.105-.5107-.2884-.69592zm-12.38702-3.50891c.20029-.20229.47132-.31537.75332-.31537h9.5727c.282 0 .5531.11308.7533.31537.2005.20242.3136.47757.3136.7651v1.17975c-.0279-.0314-.0567-.06212-.0863-.09213-.4366-.44205-1.0288-.69298-1.6484-.69738h-2.05131c-.30904-.00206-.6155.05723-.90184.17484-.28684.11781-.54734.29197-.76684.51108-.15752.15724-.29192.33559-.39948.52998-.10756-.19439-.24196-.37274-.39948-.52998-.2195-.21911-.48-.39327-.76684-.51108-.28634-.11761-.59281-.1769-.90184-.17484h-2.04923-.00213c-.61951.0044-1.21172.25533-1.64836.69738-.02897.02933-.05711.05936-.08439.09003v-1.17765c0-.28753.11311-.56268.31352-.7651zm10.87972 2.27436c.2547.25786.423.58747.4853.9423h-5.49694c.0227-.12955.05963-.25644.11025-.37807.08936-.21469.21975-.40895.38379-.57269.16408-.16379.35818-.29334.57091-.38072.21291-.08744.44081-.13149.6707-.12985l.00214.00001h2.04915c.4593.00353.8994.18965 1.2247.51902zm.811 1.5423c.1011.00095.1979.04172.2699.1144.0722.07292.1138.17247.1148.27705v2.46443h-13.073302v-2.45568l-.00004-.00498.000034-.00291c.000723-.10489.042358-.20479.114758-.27791.07196-.07268.16884-.11345.26988-.1144zm-6.4813-.6h-5.49695c.06228-.35483.23057-.68444.48527-.9423.32534-.32937.76542-.51549 1.22473-.51902h2.04916l.00213-.00001c.2299-.00164.4578.04241.6707.12985.21274.08738.40684.21693.57092.38072.16404.16374.29443.358.38379.57269.05062.12163.08755.24852.11025.37807zm-6.207251 4.45608v-.4002h13.073251v.4002.0041c.0008.0525-.0088.1045-.0281.1532-.0194.049-.048.0933-.0837.1301-.036.0371-.0787.0665-.1257.0866-.0463.0199-.0963.0304-.1471.0309h-12.30405c-.05081-.0005-.10077-.011-.14712-.0309-.04694-.0201-.08967-.0495-.12565-.0866-.03574-.0368-.06437-.0811-.083757-.1301-.019272-.0487-.028831-.1007-.028103-.1532z" fill-rule="evenodd"/><path d="m2.1 14.1492c0 .1657-.13431.3-.3.3s-.3-.1343-.3-.3.13431-.3.3-.3.3.1343.3.3z"/><path d="m13.5 14.1492c0 .1657-.1343.3-.3.3s-.3-.1343-.3-.3.1343-.3.3-.3.3.1343.3.3z"/></g></svg>