<svg fill="none" height="25" viewBox="0 0 25 25" width="25" xmlns="http://www.w3.org/2000/svg"><g fill="#f18303"><path clip-rule="evenodd" d="m23.9136 14.034c-.1855-.1875-.4112-.3256-.6568-.4059v-4.16716c0-.74124-.2915-1.45311-.8119-1.97875-.5207-.52583-1.2278-.82203-1.9662-.82203h-15.95453c-.73836 0-1.44552.2962-1.96615.82203-.52043.52564-.81193 1.23751-.81193 1.97875v4.16606c-.24684.0802-.47359.2187-.65996.407-.305651.3087-.477625.7257-.48062 1.1598l.000055.0118-.000068.0083v4.5927l.000116.0109-.000032.0057v1.1473c-.002518.2168.03723.432.117035.6335.080076.2022.199235.3879.351424.5448.15178.1566.333.2815.53336.3674.20087.0861.41631.1307.63374.1322h.00348 20.51068.0035c.2174-.0015.4329-.0461.6337-.1322.2004-.0859.3816-.2108.5334-.3674.1522-.1569.2713-.3426.3514-.5448.0798-.2015.1196-.4167.117-.6336v-1.1472l-.0001-.0108.0001-.0058v-4.6093-.0035c-.003-.4341-.175-.8511-.4807-1.1598zm-20.64497-5.84823c.33382-.33715.78553-.52561 1.25554-.52561h15.95453c.47 0 .9217.18846 1.2555.52561.3341.33736.5226.79595.5226 1.27517v1.96626c-.0465-.0524-.0944-.1036-.1438-.1536-.7277-.7367-1.7147-1.1549-2.7473-1.1623h-3.4189c-.515-.0034-1.0258.0954-1.503.2914-.4781.1964-.9123.4866-1.2781.8518-.2626.2621-.4865.5593-.6658.8833-.1793-.324-.4033-.6212-.6658-.8833-.3659-.3652-.8-.6554-1.2781-.8518-.4772-.196-.98799-.2948-1.50305-.2914h-3.41538-.00355c-1.03252.0074-2.01953.4256-2.74726 1.1623-.0483.0489-.0952.099-.14067.1501v-1.96276c0-.47922.18853-.93781.52254-1.27517zm18.13297 3.79063c.4245.4297.7049.9791.8087 1.5705h-9.1615c.0378-.216.0993-.4274.1837-.6302.149-.3578.3663-.6815.6397-.9544.2734-.273.5969-.4889.9515-.6346.3548-.1457.7347-.2191 1.1178-.2164h.0036 3.4153c.7655.0059 1.4989.3161 2.0412.8651zm1.3516 2.5705c.1684.0016.3299.0695.4498.1906.1204.1216.1897.2875.1913.4618v4.1073h-21.7888v-4.0927l-.00007-.0083.00006-.0049c.0012-.1748.07059-.3413.19125-.4632.11994-.1211.28142-.189.44981-.1906zm-10.8022-1h-9.16158c.10379-.5914.38428-1.1408.80878-1.5705.54224-.549 1.2757-.8592 2.04121-.8651h3.41527.00356c.38316-.0027.76299.0707 1.11786.2164.3545.1457.678.3616.9515.6346.2734.2729.4907.5966.6396.9544.0844.2028.146.4142.1838.6302zm-10.34542 7.4267v-.667h21.78872v.667l.0001.007c.0012.0875-.0147.1741-.0468.2552-.0324.0816-.0801.1555-.1396.2169-.06.0619-.1312.1108-.2095.1444-.0772.0331-.1605.0505-.2452.0513h-20.50672c-.08469-.0008-.16794-.0182-.2452-.0513-.07823-.0336-.14945-.0825-.20941-.1444-.05957-.0614-.10729-.1353-.1396-.2169-.03212-.0811-.04805-.1677-.04684-.2552z" fill-rule="evenodd"/><path d="m3.5 23.582c0 .2762-.22386.5-.5.5s-.5-.2238-.5-.5c0-.2761.22386-.5.5-.5s.5.2239.5.5z"/><path d="m22.5 23.582c0 .2762-.2239.5-.5.5s-.5-.2238-.5-.5c0-.2761.2239-.5.5-.5s.5.2239.5.5z"/></g></svg>