<svg fill="none" height="25" viewBox="0 0 25 25" width="25" xmlns="http://www.w3.org/2000/svg"><path d="m2.28812 16.3724-.45858.1992c.00327.0076.00673.015.01036.0224zm.20642-.5898.23423.4418.00478-.0026zm.21232-.0531-.00423.5h.00423zm19.59844 0v-.5zm.4601.46.5.0008v-.0008zm-.0531.2065-.4384-.2405c-.0032.0059-.0063.0118-.0093.0179zm-1.038 2.0878v.5c.1898 0 .3632-.1075.4477-.2774zm-18.34227 0-.44821.2216c.08429.1705.25802.2784.44821.2784zm.00324-.0238.00161-.5c-.22218-.0008-.41818.1452-.48112.3583zm-1.17956 3.9928.47561.1548.0039-.0132zm.30668.5898-.14632.4781c.02572.0079.05203.0136.07867.0173zm.13565 0v-.5c-.02262 0-.04523.0015-.06764.0046zm.85519 0 .00502-.5h-.00502zm.44233-.3185.47587.1538.00316-.0105zm1.27394-4.2582.47902.1433c.0452-.1511.01647-.3147-.07751-.4413-.09399-.1267-.24221-.2015-.39991-.202zm16.5046-.0059.4796-.1417c-.0628-.2125-.258-.3583-.4796-.3583zm1.1796 3.9928-.4797.1417.0043.0131zm-.3067.5898.0632.496c.0282-.0036.056-.0096.0831-.0179zm-.1356 0 .0632-.496c-.021-.0027-.0421-.004-.0632-.004zm-.867 0v-.5001l-.0078.0001zm-.4423-.3244.4791-.1428-.0001-.0005zm-1.274-4.2582v-.5c-.158 0-.3067.0746-.401.2013-.0944.1268-.1233.2906-.078.442zm-13.28513-5.503v-.5c-.27614 0-.5.2239-.5.5zm2.74839 0h.5c0-.2761-.22386-.5-.5-.5zm0 2.7484v.5c.27614 0 .5-.2238.5-.5zm-2.74839 0h-.5c0 .2762.22386.5.5.5zm11.91793-2.7484v-.5c-.2761 0-.5.2239-.5.5zm2.7484 0h.5c0-.2761-.2238-.5-.5-.5zm0 2.7484v.5c.2762 0 .5-.2238.5-.5zm-2.7484 0h-.5c0 .2762.2239.5.5.5zm.4141-2.7481c0 .2761.2239.5.5.5s.5-.2239.5-.5zm1-1.8343c0-.2761-.2239-.5-.5-.5s-.5.2239-.5.5zm.0217 1.5345c-.1656.221-.1206.5344.1004.6999.221.1656.5344.1207.6999-.1003zm2.1745-1.2347c.1656-.221.1207-.5343-.1003-.6999s-.5344-.1206-.7.1004zm-2.1962-7.63667c0-.27614-.2239-.5-.5-.5s-.5.22386-.5.5zm-.5 1.83423h-.5c0 .16717.0836.32329.2226.41602zm1.1027 1.33608c.2298.15318.5402.09109.6934-.13867.1532-.22977.0911-.5402-.1387-.69338zm-13.02067 3.66656c-.27614 0-.5.2239-.5.5 0 .2762.22386.5.5.5zm.92006 1c.27614 0 .5-.2238.5-.5 0-.2761-.22386-.5-.5-.5zm-5.6304 4.5501c.00401.0092.00439.0196.00107.0291l-.94386-.3303c-.07986.2281-.0707.478.02564.6997zm.00107.0291c-.00333.0095-.01011.0174-.01901.0221l-.46843-.8835c-.21357.1133-.37656.3029-.45642.5311zm-.01421.0196c-.00948.0051-.02012.0078-.03092.0077l.00846-1c-.15907-.0013-.31585.0379-.45557.1139zm-.02669.0077h19.59844v-1h-19.59844zm19.59844 0c-.0106 0-.0207-.0042-.0282-.0117l.7071-.7071c-.1801-.18-.4242-.2812-.6789-.2812zm-.0282-.0117c-.0075-.0075-.0117-.0177-.0117-.0283h1c0-.2546-.1012-.4988-.2812-.6788zm-.0117-.029c0-.0117.0029-.0231.0085-.0333l.8767.481c.0751-.1368.1145-.2902.1148-.4462zm-.0008-.0154-1.038 2.0878.8954.4452 1.038-2.0878zm-.5903 1.8104h-18.34227v1h18.34227zm-17.89406.2784-1.04391-2.1114-.89643.4432 1.04392 2.1114zm-.92448.0561-1.17957 3.9928.95903.2833 1.17956-3.9928zm-1.17549 3.9797c-.03972.122-.05474.2507-.04418.3785l.99661-.0823c.00037.0045-.00016.0091-.00156.0134zm-.04418.3785c.01055.1279.04647.2524.10566.3662l.88722-.4614c.00209.004.00335.0084.00373.0129zm.10566.3662c.05919.1138.14046.2147.23907.2968l.63972-.7686c.00348.0028.00634.0064.00843.0104zm.23907.2968c.09861.082.21258.1436.33525.1812l.29264-.9562c.00433.0013.00835.0035.01183.0064zm.41392.1985c.0899.0123.18105.0123.27095 0l-.13529-.9908h-.00036zm.2033.0046h.85519v-1h-.85519zm.85017-.0001c.20461.0021.40452-.0613.57058-.1808l-.5843-.8116c.00692-.005.01524-.0076.02376-.0075zm.57058-.1808c.16606-.1196.28957-.2891.35253-.4838l-.95151-.3076c.00262-.0081.00777-.0152.01468-.0202zm.3558-.4943 1.27393-4.2582-.95805-.2867-1.27393 4.2583zm.79651-4.9015-1.83422-.0059-.00322 1 1.83423.0059zm16.0235.6357 1.1796 3.9929.959-.2834-1.1795-3.9928zm1.1837 4.006c-.0014-.0043-.002-.0088-.0016-.0134l.9966.0823c.0106-.1278-.0044-.2565-.0442-.3785zm-.0016-.0134c.0004-.0045.0017-.0089.0037-.0129l.8873.4614c.0591-.1138.0951-.2383.1056-.3662zm.0037-.0129c.0021-.004.005-.0075.0085-.0104l.6397.7686c.0986-.0821.1799-.183.2391-.2968zm.0085-.0104c.0035-.0029.0075-.0051.0118-.0064l.2926.9562c.1227-.0376.2367-.0992.3353-.1812zm.0949-.0243c-.003.0004-.0062.0004-.0092 0l-.1264.992c.087.011.175.011.262 0zm-.0724-.004h-.867v1h.867zm-.8748 0c.01-.0001.0197.003.0278.0089l-.5914.8064c.1678.1231.3712.1879.5792.1846zm.0278.0089c.0081.0059.014.0143.0168.0239l-.9583.2856c.0594.1994.1824.3739.3501.4969zm.0167.0234-1.274-4.2582-.958.2866 1.2739 4.2582zm-1.753-3.6149h1.846v-1h-1.846zm-16.96081-13.75395h10.09121v-1h-10.09121zm10.09121 0c.2287 0 .4141.18543.4141.41417h1c0-.78102-.6331-1.41417-1.4141-1.41417zm.4141.41417v6.42278h1v-6.42278zm0 6.42278c0 .2287-.1854.4141-.4141.4141v1c.781 0 1.4141-.6331 1.4141-1.4141zm-.4141.4141h-10.09121v1h10.09121zm-10.09121 0c-.22874 0-.41417-.1854-.41417-.4141h-1c0 .781.63315 1.4141 1.41417 1.4141zm-.41417-.4141v-6.42278h-1v6.42278zm0-6.42278c0-.22874.18543-.41417.41417-.41417v-1c-.78102 0-1.41417.63315-1.41417 1.41417zm4.08985 7.83678h2.74839v-1h-2.74839zm2.24839-.5v2.7484h1v-2.7484zm.5 2.2484h-2.74839v1h2.74839zm-2.24839.5v-2.7484h-1v2.7484zm11.41793-2.2484h2.7484v-1h-2.7484zm2.2484-.5v2.7484h1v-2.7484zm.5 2.2484h-2.7484v1h2.7484zm-2.2484.5v-2.7484h-1v2.7484zm.9141-2.7481v-1.8343h-1v1.8343zm.822.2998 1.3742-1.8343-.8003-.5995-1.3742 1.8342zm-1.822-9.47097v1.83423h1v-1.83423zm.2226 2.25025 1.3801.92006.5547-.83205-1.38-.92006zm3.4463-.41578c0 1.74988-1.4185 3.16845-3.1684 3.16845v1c2.3022 0 4.1684-1.86628 4.1684-4.16845zm-3.1684 3.16845c-1.7499 0-3.1685-1.41857-3.1685-3.16845h-1c0 2.30217 1.8663 4.16845 4.1685 4.16845zm-3.1685-3.16845c0-1.74989 1.4186-3.16845 3.1685-3.16845v-1c-2.3022 0-4.1685 1.86628-4.1685 4.16845zm3.1685-3.16845c1.7499 0 3.1684 1.41856 3.1684 3.16845h1c0-2.30217-1.8662-4.16845-4.1684-4.16845zm-11.91847 9.17085h.92006v-1h-.92006z" fill="#00ac83"/></svg>