<svg fill="none" height="15" viewBox="0 0 15 15" width="15" xmlns="http://www.w3.org/2000/svg"><path d="m1.37287 9.8234-.29807.12953c.00212.00489.00437.00973.00673.01451zm.12385-.35387.15225.28715.00311-.00169zm.1274-.03185-.00275.325h.00275zm11.75908 0v-.325zm.276.27602.325.00051v-.00051zm-.0318.12385-.2852-.15646-.0058.01178zm-.6228 1.25275v.325c.1233 0 .2361-.0699.291-.1804zm-11.00538 0-.29134.144c.05479.1108.16771.181.29134.181zm.00194-.0143.00105-.325c-.14442-.0005-.27182.0944-.31273.2329zm-.70774 2.3956.30915.1007.00254-.0086zm.18402.3539-.09511.3108c.01671.0051.03381.0089.05113.0112zm.08139 0v-.325c-.01471 0-.0294.001-.04398.003zm.51311 0 .00326-.325h-.00326zm.2654-.1911.30931.1.00205-.0068zm.76436-2.5549.31136.0931c.02938-.0982.01071-.2045-.05038-.2868s-.15743-.131-.25994-.1313zm9.9028-.0035.3117-.0921c-.0408-.1382-.1677-.2329-.3117-.2329zm.7077 2.3957-.3118.0921.0028.0085zm-.184.3538.0411.3224c.0183-.0023.0364-.0062.054-.0116zm-.0814 0 .0411-.3224c-.0136-.0017-.0273-.0026-.0411-.0026zm-.5202 0v-.325l-.0051.0001zm-.2654-.1946.3115-.0928-.0001-.0004zm-.7643-2.5549v-.325c-.1027 0-.1994.0485-.2607.1308-.0613.0824-.0801.1889-.0507.2873zm-7.97112-3.30181v-.325c-.17949 0-.325.14551-.325.325zm1.64903 0h.325c0-.17949-.1455-.325-.325-.325zm0 1.64904v.325c.1795 0 .325-.14551.325-.325zm-1.64903 0h-.325c0 .17949.14551.325.325.325zm7.15082-1.64904v-.325c-.1795 0-.325.14551-.325.325zm1.649 0h.325c0-.17949-.1455-.325-.325-.325zm0 1.64904v.325c.1795 0 .325-.14551.325-.325zm-1.649 0h-.325c0 .17949.1455.325.325.325zm.2234-1.64889c0 .17949.1455.325.325.325s.325-.14551.325-.325zm.65-1.10054c0-.17949-.1455-.325-.325-.325s-.325.14551-.325.325zm-.032.90567c-.1076.14365-.0784.34735.0653.45497.1436.10762.3473.07841.4549-.06524zm1.3447-.7108c.1077-.14365.0785-.34735-.0652-.45497-.1436-.10762-.3473-.07841-.455.06524zm-1.3127-4.59701c0-.1795-.1455-.325-.325-.325s-.325.1455-.325.325zm-.325 1.10053h-.325c0 .10866.0543.21014.1447.27042zm.6478.82245c.1493.09957.3511.05921.4507-.09014.0995-.14934.0592-.35113-.0902-.45069zm-7.79858 2.15416c-.17949 0-.325.14551-.325.325 0 .1795.14551.325.325.325zm.55204.65c.17949 0 .325-.1455.325-.325 0-.17949-.14551-.325-.325-.325zm-3.35532 2.69507c.00492.01131.00538.02406.00131.0357l-.61351-.21473c-.04999.14284-.04426.29929.01606.43809zm.00131.0357c-.00407.01164-.01239.02132-.02329.0271l-.30448-.57428c-.1337.07089-.23574.18961-.28574.33245zm-.02017.02542c-.00942.00513-.01999.00777-.03071.00768l.00549-.64998c-.09968-.00084-.19794.02372-.2855.07138zm-.02796.00769h11.75908v-.65h-11.75908zm11.75908 0c-.013 0-.0254-.00516-.0346-.01435l.4596-.45962c-.1127-.11271-.2656-.17603-.425-.17603zm-.0346-.01435c-.0092-.00918-.0144-.02164-.0144-.03463h.65c0-.1594-.0633-.31227-.176-.42499zm-.0144-.03514c0-.01117.0029-.02217.0082-.03197l.5699.31266c.047-.08572.0718-.1819.0719-.27967zm.0022-.02032-.6229 1.25273.5821.2893.6228-1.25266zm-.3318 1.07243h-11.00538v.65h11.00538zm-10.71404.1809-.62635-1.26684-.58268.28808.62635 1.26686zm-.60108.0377-.707741 2.3957.623371.1841.70774-2.3957zm-.705089 2.3871c-.02486.0764-.03426.1569-.027654.2369l.647793-.0534c.0005.006-.00021.012-.00208.0178zm-.027654.2369c.006607.0801.029089.158.066133.2292l.57669-.2999c.00279.0054.00448.0112.00497.0173zm.066133.2292c.03705.0713.08791.1344.14963.1858l.41582-.4996c.00463.0038.00846.0086.01124.0139zm.14963.1858c.06172.0513.13305.0899.20983.1134l.19021-.6216c.00577.0018.01113.0047.01578.0086zm.26096.1246c.05619.0077.11315.0077.16934 0l-.08795-.644c.00218-.0003.00438-.0003.00656 0zm.12537.003h.51311v-.65h-.51311zm.50984 0c.1281.0013.25325-.0384.35721-.1132l-.37979-.5275c.00847-.0061.01867-.0094.02911-.0093zm.35721-.1132c.10396-.0749.18129-.181.2207-.3029l-.61848-.2c.00321-.0099.00951-.0185.01799-.0246zm.22282-.3097.76436-2.555-.62273-.1863-.76436 2.555zm.45404-2.9731-1.10053-.0035-.00209.6499 1.10053.0036zm9.59006.4135.7077 2.3957.6234-.1841-.7077-2.3957zm.7104 2.4043c-.0019-.0058-.0026-.0118-.0021-.0178l.6478.0534c.0066-.08-.0028-.1605-.0276-.2369zm-.0021-.0178c.0005-.0061.0022-.0119.005-.0173l.5767.2999c.037-.0712.0595-.1491.0661-.2292zm.005-.0173c.0028-.0053.0066-.0101.0112-.0139l.4159.4996c.0617-.0514.1125-.1145.1496-.1858zm.0112-.0139c.0047-.0039.01-.0068.0158-.0086l.1902.6216c.0768-.0235.1481-.0621.2099-.1134zm.0698-.0202h.0008l-.0821.6448c.0542.0069.1092.0069.1635 0zm-.0403-.0026h-.5202v.65h.5202zm-.5253.0001c.0115-.0002.0227.0033.0319.0101l-.3844.5242c.1051.077.2325.1176.3627.1156zm.0319.0101c.0093.0068.016.0164.0193.0274l-.6229.1856c.0372.1249.1142.2341.2192.3112zm.0192.027-.7644-2.5549-.6227.1863.7644 2.5549zm-1.0757-2.1367h1.1076v-.65h-1.1076zm-10.17653-8.25239h6.05471v-.65h-6.05471zm6.05471 0c.12344 0 .2235.10006.2235.2235h.65c0-.48242-.39108-.8735-.8735-.8735zm.2235.2235v3.85364h.65v-3.85364zm0 3.85364c0 .12343-.10006.22349-.2235.22349v.65c.48242 0 .8735-.39108.8735-.87349zm-.2235.22349h-6.05471v.65h6.05471zm-6.05471 0c-.12343 0-.2235-.10006-.2235-.22349h-.649995c0 .48242.391075.87349.873495.87349zm-.2235-.22349v-3.85364h-.649995v3.85364zm0-3.85364c0-.12344.10007-.2235.2235-.2235v-.65c-.48242 0-.873495.39108-.873495.8735zm2.42891 4.72708h1.64903v-.65h-1.64903zm1.32403-.325v1.64904h.65v-1.64904zm.325 1.32404h-1.64903v.65h1.64903zm-1.32403.325v-1.64904h-.65v1.64904zm6.82582-1.32404h1.649v-.65h-1.649zm1.324-.325v1.64904h.65v-1.64904zm.325 1.32404h-1.649v.65h1.649zm-1.324.325v-1.64904h-.65v1.64904zm.5484-1.64889v-1.10054h-.65v1.10054zm.4882.19486.8245-1.10053-.5202-.38973-.8245 1.10053zm-1.1382-5.69754v1.10053h.65v-1.10053zm.1447 1.37095.8281.55203.3605-.54083-.828-.55204zm2.0567-.27028c0 1.03613-.84 1.87607-1.8761 1.87607v.65c1.3951 0 2.5261-1.13096 2.5261-2.52607zm-1.8761 1.87607c-1.0361 0-1.87608-.83994-1.87608-1.87607h-.65c0 1.39511 1.13098 2.52607 2.52608 2.52607zm-1.87608-1.87607c0-1.03612.83998-1.87607 1.87608-1.87607v-.649995c-1.3951 0-2.52608 1.130955-2.52608 2.526065zm1.87608-1.87607c1.0361 0 1.8761.83995 1.8761 1.87607h.65c0-1.39511-1.131-2.526065-2.5261-2.526065zm-7.15108 5.50254h.55204v-.65h-.55204z" fill="#00ac83"/></svg>