<svg fill="none" height="15" viewBox="0 0 15 15" width="15" xmlns="http://www.w3.org/2000/svg"><path d="m8.84916 5.13663c-.01608.13713.08206.26133.21919.2774.13713.01608.26133-.08206.27741-.21919zm1.35594-1.86796c.0908-.10397.0802-.26191-.0238-.35275s-.26194-.08019-.35278.02379zm1.6352-.92864.1889.1638.001-.00116zm-.1579-.35274.0147-.24957-.0015-.00007zm-.6642-.03527-.2429.05924c.0261.10718.1195.18456.2296.19041zm-.1539-.631-.244.05479.0011.00444zm-.162-.1607.0573-.243461-.0078-.001573zm-.2228.07055-.1833-.17025-.006.00701zm-.57099.66236.18889.1638.0005-.00056zm1.36079 1.10524.1888.1638zm-8.76881 3.3041h.25v-.00001zm.44144-.43112v-.25001l-.0022.00002zm9.76037.43112h.25zm0 5.16953h-.25zm-.4455.4272.0022-.25h-.0022zm-8.39781-.0258c-.01422-.1373-.13708-.2371-.27442-.2229s-.23714.1371-.22292.2744zm-.07047 1.7463.24891-.0234-.00024-.0023zm.97603 0-.24868-.0257-.00022.0023zm.42687-1.6948c.01422-.1373-.08558-.2602-.22292-.2744-.13733-.0142-.2602.0856-.27442.2229zm6.66588 0c.0142-.1373-.0856-.2602-.2229-.2744s-.2602.0856-.2744.2229zm-.4268 1.6948.2479.0331.0007-.0073zm-.4901.4171v-.25zm-.49-.4171-.2489.0252.0011.0078zm.0746-1.7457c-.014-.1374-.1366-.2374-.274-.2235-.1373.0139-.2374.1365-.2235.2739zm-8.02451-3.66203c-.13807 0-.25.11193-.25.25s.11193.25.25.25zm10.21801.5c.138 0 .25-.11193.25-.25s-.112-.25-.25-.25zm-5.78384-1.78949c-.13807 0-.25.11193-.25.25s.11193.25.25.25zm1.33242.5c.13807 0 .25-.11193.25-.25s-.11193-.25-.25-.25zm1.3408-1.54357v-.25zm-.44549 0v-.25zm-.88693-.85833h-.25zm0-.64276h.25004l-.00009-.00483zm.22274-.21556-.00452.25h.00452zm1.7779 0v.25h.0001zm.2187.21556-.25-.00478v.00478zm-7.10679 5.15794h-.25zm.66824-.21556.0044-.25h-.0044zm.2187.21556-.25-.00004v.00004zm0 2.15164h-.25zm-.66419.2117v-.25h-.00004zm-.22275-.2117h-.25004l.00009.0047zm.8858-2.15193-.25.00017v.00077zm.23085-.21556-.00881.25h.00881zm.66823.21556h.25zm0 2.15173.25.0047v-.0047zm-.22274.2116.00004-.25h-.00004zm-.44549 0v-.25h-.00004zm-.22275-.2116-.25003.0009.00007.0038zm.88287-2.15144h-.25zm.88694 2.15164h-.25v.0001zm-.22275.2117.00448-.25h-.00448zm-.44144 0v-.2501l-.00448.0001zm-.22275-.2117.25.0001v-.0001zm.93205-1.6228.20085-.14887-.00214-.0028zm.0486-.29783.14236.20551.00044-.00031zm.36044-.25083-.14107-.20641-.00173.0012zm.31185.04703.20088-.14894-.00377-.00483zm1.29597 1.74803.2031-.1459-.00227-.003zm-.05264.2978.1428.2052.00025-.0001zm-.36045.2509-.14281-.2053-.0026.0019zm-.30779-.0471.20099-.1486-.00017-.0003zm1.95295-6.61786c.08312-.70915.38172-1.37953.85934-1.92617l-.37658-.32896c-.54306.62158-.88431 1.38601-.97936 2.19692zm2.68444-2.69217c.0565-.06596.0937-.14665.1065-.23334l-.4947-.07289c.0012-.00787.0045-.01439.0085-.01905zm.1065-.23334c.0128-.08673.0004-.175-.0353-.25475l-.4564.20434c-.0029-.0067-.0041-.01457-.003-.02248zm-.0353-.25475c-.0357-.07968-.0929-.14708-.1644-.19553l-.2807.41378c-.004-.00275-.0083-.0073-.0113-.01391zm-.1644-.19553c-.0713-.04841-.1544-.07628-.2399-.08132l-.0294.49913c-.0034-.0002-.0074-.00132-.0114-.00403zm-.2414-.0814-.6642-.03528-.0265.4993.6642.03527zm-.4345.15513-.1539-.631-.4858.11847.1539.63101zm-.1529-.62655c-.0193-.08606-.063-.16407-.125-.22555l-.3521.35498c-.0047-.00465-.0088-.01139-.0107-.01986zm-.125-.22555c-.0619-.061408-.1395-.103904-.2236-.123698l-.1146.486688c-.0044-.00102-.0093-.00343-.0139-.00801zm-.2314-.125394c-.0817-.016535-.1665-.012036-.2461.013175l.151.476669c-.0015.00045-.0027.00048-.004.00023zm-.2461.013175c-.0796.025221-.152.070525-.2093.132269l.3663.34028c-.0023.00254-.0046.00366-.006.00412zm-.2155.139169-.57104.66236.37874.32648.571-.66236zm-.57056.6618c-.19529.22518-.29134.51789-.26463.81373l.49798-.04496c-.0143-.1584.03677-.31709.14441-.44117zm-.26463.81373c.02671.29575.17357.56703.40523.75519l.31526-.38812c-.1293-.10497-.2082-.25355-.22251-.41203zm.40523.75519c.23136.18792.52886.27817.82706.25296l-.0422-.49822c-.1711.01447-.3401-.03766-.4696-.14286zm.82706.25296c.2982-.02522.5758-.16417.7708-.38904l-.3777-.3276c-.1079.12439-.2641.20395-.4353.21842zm.7708-.38904.5711-.65844-.3777-.3276-.5711.65844zm-8.70761 3.14029c0-.04508.01831-.09003.05372-.1246l-.34935-.35771c-.12994.1269-.20438.30008-.20437.48233zm.05372-.1246c.03567-.03484.08581-.05604.13992-.05652l-.0044-.49998c-.18078.00159-.3552.07215-.48487.19879zm.13772-.05651h9.31487v-.5h-9.31487zm9.31487 0c.0544 0 .105.02101.1411.05593l.3477-.3593c-.131-.12679-.307-.19663-.4888-.19663zm.1411.05593c.0358.03464.0544.07985.0544.12519h.5c0-.18333-.0754-.35744-.2067-.48449zm.0544.12519v5.16953h.5v-5.16953zm0 5.16953c0 .0223-.0046.0445-.0136.0655l.4592.1978c.0358-.0832.0544-.1727.0544-.2633zm-.0136.0655c-.0091.021-.0226.0407-.0402.0575l.3461.3609c.0652-.0625.1175-.1375.1533-.2206zm-.0402.0575c-.0176.0169-.039.0307-.063.0402l.1829.4653c.084-.033.1609-.082.2262-.1446zm-.063.0402c-.0241.0094-.0501.0143-.0765.014l-.0045.5c.0903.0008.1799-.0157.2639-.0487zm-.0787.014h-9.31487v.5h9.31487zm-9.31487 0c-.05337 0-.10297-.0206-.13829-.0548l-.34771.3593c.13025.1261.30522.1955.486.1955zm-.13829-.0548c-.03504-.0339-.05315-.0781-.05315-.1224h-.5c0 .1823.07491.3554.20544.4817zm-.05315-.1224v-5.16953h-.5v5.16953zm.61116.4529.1782 1.7206.49734-.0515-.1782-1.7206zm.17797 1.7183c.01718.1823.10404.3501.24099.4711l.33105-.3747c-.04364-.0386-.06922-.09-.07424-.1433zm.24099.4711c.13672.1208.31368.1866.49593.1866v-.5c-.06229 0-.12101-.0226-.16488-.0613zm.49593.1866c.18224 0 .3592-.0658.49593-.1866l-.33106-.3747c-.04386.0387-.10259.0613-.16487.0613zm.49593-.1866c.13694-.121.2238-.2888.24098-.4711l-.4978-.0469c-.00502.0533-.03059.1047-.07424.1433zm.24075-.4688.1782-1.7206-.49734-.0515-.1782 1.7206zm6.34678-1.7721-.1782 1.7206.4973.0515.1782-1.7206zm-.1774 1.7134c-.007.0527-.0338.103-.0779.1405l.324.3808c.1363-.116.2259-.2776.2496-.4554zm-.0779.1405c-.0443.0377-.1026.0595-.1643.0595v.5c.1786 0 .3522-.0629.4883-.1787zm-.1643.0595c-.0616 0-.12-.0218-.1643-.0595l-.324.3808c.1361.1158.3098.1787.4883.1787zm-.1643-.0595c-.044-.0375-.0709-.0878-.0779-.1405l-.4956.0659c.0236.1778.1132.3394.2495.4554zm-.077-.1327-.1741-1.7206-.4975.0504.1741 1.7205zm-8.19861-4.88263h10.21801v-.5h-10.21801zm4.43417-1.28949h1.33242v-.5h-1.33242zm3.31014-2.4019c0 .15865-.065.31252-.1836.42728l.3477.3593c.2141-.20717.3359-.48994.3359-.78658zm-.1836.42728c-.11888.11503-.28179.18105-.45332.18105v.5c.29894 0 .58722-.11485.80102-.32175zm-.45332.18105h-.44549v.5h.44549zm-.44549 0c-.08476 0-.16851-.01617-.24639-.04739l-.18604.4641c.13733.05505.28424.08329.43243.08329zm-.24639-.04739c-.07788-.03122-.14812-.07676-.20691-.13366l-.34771.3593c.10593.10251.23124.18341.36858.23846zm-.20691-.13366c-.05877-.05688-.10494-.12396-.13629-.19718l-.45966.19674c.0578.13505.1423.25722.24824.35974zm-.13629-.19718c-.03133-.07321-.04734-.15137-.04734-.2301h-.5c0 .14671.02987.29178.08768.42684zm-.04734-.2301v-.64276h-.5v.64276zm-.00005-.64759c.00012.00635-.00109.01246-.00335.01789l-.46153-.19234c-.02426.05821-.03625.12086-.03503.18411zm-.00335.01789c-.00226.0054-.00537.00974-.00873.01298l-.34771-.3593c-.04495.0435-.08084.09579-.10509.15398zm-.00873.01298c-.00334.00323-.00685.00534-.01012.00662l-.18179-.46578c-.05781.02256-.11088.05639-.1558.09986zm-.01012.00662c-.00325.00127-.00647.0018-.00953.00174l.00905-.49992c-.06187-.00112-.12351.00984-.18131.0324zm-.00501.00178h1.7779v-.5h-1.7779zm1.778 0c-.0031 0-.0063-.00057-.0095-.00188l.1881-.46328c-.0568-.02307-.1176-.03485-.1787-.03484zm-.0095-.00188c-.0032-.00132-.0067-.00346-.01-.0067l.351-.3561c-.044-.04338-.0961-.07741-.1529-.10048zm-.01-.0067c-.0033-.00327-.0064-.00759-.0086-.01295l.4625-.19021c-.0238-.05762-.0589-.10954-.1029-.15294zm-.0086-.01295c-.0022-.00538-.0034-.01142-.0032-.01769l.4999.00957c.0012-.06252-.0105-.12445-.0342-.18209zm-.0033-.01291v.64276h.5v-.64276zm-6.60679 5.15794c0 .01183-.00493.02145-.0109.02722l-.34771-.3593c-.08952.08663-.14139.20591-.14139.33208zm-.0109.02722c-.0057.00551-.01172.00722-.01635.00722v-.5c-.12279 0-.24212.04712-.33136.13348zm-.01635.00722h.44549v-.5h-.44549zm.44109-.00004c-.00459-.00008-.01058-.00186-.0162-.00741l.35099-.3561c-.08743-.08617-.20466-.13428-.32599-.13641zm-.0162-.00741c-.00589-.0058-.01071-.01535-.0107-.02703l.5.00008c.00002-.12467-.05062-.24271-.13831-.32915zm-.0107-.02699v2.15164h.5v-2.15164zm0 2.15164c0-.0128.00535-.0234.01209-.03l.34771.3593c.08875-.0858.1402-.2041.1402-.3293zm.01209-.03c.00645-.0062.0135-.0083.01921-.0083v.5c.12171 0 .24002-.0467.3285-.1324zm.01921-.0083h-.44549v.5h.44549zm-.44553 0c.00459 0 .01052.0017.01615.007l-.3444.3625c.08895.0845.20698.1305.32833.1305zm.01615.007c.0059.0056.01088.015.0111.0266l-.49991.0094c.00234.1247.05519.2417.14441.3265zm.01114.0313v-2.15164h-.5v2.15164zm.8858-2.1521c0 .00582-.00122.01136-.00334.01622l-.45792-.20078c-.02552.05821-.03878.12112-.03874.1849zm-.00334.01622c-.00212.00483-.00498.00863-.00796.01141l-.34124-.36545c-.04608.04303-.08321.09507-.10872.15326zm-.00796.01141c-.00296.00276-.006.0045-.00874.00551l-.17369-.46886c-.05867.02174-.11276.0549-.15881.0979zm-.00874.00551c-.00273.00102-.00539.0014-.00791.00131l.01759-.49969c-.06237-.00219-.12471.00779-.18337.02952zm.00089.00147h.44549v-.5h-.44549zm.44549 0c-.00463 0-.01066-.0017-.01635-.00721l.34771-.3593c-.08924-.08637-.20858-.13349-.33136-.13349zm-.01635-.00721c-.00597-.00578-.01091-.0154-.01091-.02723h.5c0-.12617-.05186-.24544-.14138-.33207zm-.01091-.02723v2.15173h.5v-2.15173zm.00005 2.14703c.00022-.0117.0052-.0211.0111-.0267l.3444.3625c.08922-.0848.14207-.2018.14441-.3264zm.0111-.0267c.00563-.0053.01156-.007.01615-.007l-.00008.5c.12135 0 .23938-.046.32833-.1305zm.01611-.007h-.44549v.5h.44549zm-.44553 0c.00459 0 .01051.0017.01615.007l-.3444.3625c.08894.0845.20698.1305.32833.1305zm.01615.007c.0059.0056.01088.015.0111.0267l-.49992.0094c.00235.1246.0552.2416.14442.3264zm.01114.0304-.0081-2.15167-.5.00188.0081 2.15169zm.88287-2.15044c0 .01183-.00493.02144-.0109.02722l-.34771-.3593c-.08952.08663-.14139.20591-.14139.33208zm-.0109.02722c-.0057.00552-.01172.00722-.01635.00722v-.5c-.12279 0-.24212.04712-.33136.13348zm-.01635.00722h.44144v-.5h-.44144zm.44144 0c-.00463 0-.01066-.00171-.01635-.00722l.34771-.3593c-.08924-.08636-.20858-.13348-.33136-.13348zm-.01635-.00722c-.00597-.00578-.0109-.01539-.0109-.02722h.5c0-.12617-.05187-.24545-.14139-.33208zm-.0109-.02722v2.15164h.5v-2.15164zm0 2.15174c-.00001-.0063.0013-.0123.00359-.0176l.45876.1989c.02478-.0572.03766-.1189.03765-.1814zm.00359-.0176c.00229-.0053.0054-.0095.00872-.0126l.34441.3624c.0448-.0425.08085-.0938.10563-.1509zm.00872-.0126c.00331-.0032.00678-.0052.01-.0065l.17975.4666c.05723-.022.10987-.0551.15466-.0977zm.01-.0065c.00321-.0012.00639-.0017.00942-.0017l-.00896.4999c.06115.0011.12207-.0096.17929-.0316zm.00494-.0017h-.44144v.5h.44144zm-.44592 0c.00303 0 .0062.0005.00941.0017l-.17974.4666c.05722.022.11814.0327.17929.0316zm.00941.0017c.00323.0013.00669.0033.01.0065l-.3444.3624c.04478.0426.09743.0757.15466.0977zm.01.0065c.00332.0031.00644.0073.00872.0126l-.45875.1989c.02477.0571.06083.1084.10563.1509zm.00872.0126c.0023.0053.0036.0113.0036.0176l-.5-.0001c-.00001.0625.01287.1242.03765.1814zm.0036.0175v-2.15164h-.5v2.15164zm.88076-1.77447c.00308.00404.00564.00909.00713.01496l-.48476.12251c.01526.0604.04267.1168.08022.1659zm.00713.01496c.00149.00589.00177.01213.00077.01823l-.49347-.08052c-.01004.06154-.00733.1244.00794.1848zm.00077.01823c-.00099.00608-.00317.01152-.00604.01602l-.42154-.2689c-.03333.05226-.05586.11084-.06589.17236zm-.00604.01602c-.00286.00448-.00625.00781-.00961.01014l-.28472-.41102c-.05052.03499-.09388.07974-.12721.13198zm-.00917.00983.36044-.25083-.2856-.41041-.36044.25084zm.35871-.24964c-.00462.00316-.00901.00376-.01259.00322l.07457-.49441c-.11998-.01809-.24327.00947-.34412.0784zm-.01259.00322c-.00365-.00055-.00901-.00274-.01375-.00881l.39423-.30754c-.07572-.09707-.18585-.15995-.30591-.17806zm-.01746-.01369 1.29598 1.74804.40165-.2978-1.29598-1.74803zm1.29374 1.74494c-.00553-.0077-.00849-.0186-.00648-.03l.49237.087c.0217-.1228-.00758-.2481-.07976-.3487zm-.00648-.03c.00198-.0112.00804-.0189.01384-.023l.28611.4101c.10055-.0702.17074-.1774.19242-.3001zm.01409-.0232-.36044.2509.2856.4104.36045-.2509zm-.36305.2527c.00334-.0024.00671-.0038.00983-.0045l.11516.4865c.05944-.0141.11584-.0395.16583-.0753zm.00983-.0045c.0031-.0008.00622-.0009.00927-.0004l-.07552.4942c.06034.0093.12197.0068.18141-.0073zm.00927-.0004c.00307.0004.00636.0015.00969.0035l-.25644.4293c.05267.0314.11088.0522.17123.0614zm.00969.0035c.00333.002.00678.005.00982.0091l-.40199.2973c.03679.0497.08304.0914.13573.1229zm.00965.0088-1.29597-1.74796-.40165.29776 1.29597 1.748z" fill="#f18303"/></svg>