<svg fill="none" height="15" viewBox="0 0 15 15" width="15" xmlns="http://www.w3.org/2000/svg"><g fill="#00ac83"><path d="m11.6064 5.82245c.1656 0 .3-.13432.3-.3 0-.16569-.1344-.3-.3-.3-.1657 0-.3.13431-.3.3 0 .16568.1343.3.3.3z"/><path d="m11.0696 8.00448c0 .16568-.1343.3-.3.3-.1656 0-.3-.13432-.3-.3 0-.16569.1344-.3.3-.3.1657 0 .3.13431.3.3z"/><path d="m13.2564 8.966c.1656 0 .3-.13431.3-.3 0-.16568-.1344-.3-.3-.3-.1657 0-.3.13432-.3.3 0 .16569.1343.3.3.3z"/><g clip-rule="evenodd" fill-rule="evenodd"><path d="m11.3273.538169c.0813-.057743.1785-.088767.2781-.088767.0997 0 .1969.031025.2781.088767.0788.056024.1388.134504.1723.225101.3165.78648 1.014 2.54804 1.6334 4.28035.3102.86768.602 1.7315.8167 2.46334.2105.71754.3595 1.34832.3595 1.72828l-.0001.00873c-.0246.84253-.3826 1.64083-.9954 2.21953-.5375.5075-1.2324.8097-1.9635.8603v1.9664c0 .1657-.1344.3-.3.3-.1657 0-.3-.1343-.3-.3v-1.9588c-.3563-.0169-.7075-.0977-1.0368-.2392-.2013-.0865-.39169-.1946-.56814-.322v2.3332c.00091.057-.00794.1141-.02657.1686-.01914.056-.04861.1092-.08813.1558-.03956.0467-.08875.0864-.14581.1148-.05719.0286-.12035.0449-.18561.0469l-.00917.0002h-1.54852l-.00917-.0002c-.06526-.002-.12842-.0183-.18561-.0469-.05706-.0284-.10625-.068-.14581-.1148-.03952-.0466-.06899-.0998-.08813-.1558-.01863-.0545-.02748-.1116-.02657-.1686v-.9034h-.58455l-.00246.9039c.00084.0568-.00801.1138-.02659.1681-.01914.056-.04861.1092-.08812.1558-.03957.0468-.08875.0864-.14582.1149-.05719.0285-.12034.0449-.1856.0469l-.00918.0001h-1.5352l-.00918-.0001c-.06526-.002-.12841-.0184-.1856-.0469-.05706-.0285-.10625-.0681-.14581-.1149-.03952-.0466-.06899-.0998-.08813-.1558-.01864-.0545-.02748-.1116-.02658-.1686v-.9101c-.02037.0044-.04151.0067-.06319.0067h-.715c-.03166 0-.06217-.0049-.09083-.014v.9174c.00091.057-.00794.1141-.02657.1686-.01914.056-.04861.1092-.08813.1558-.03956.0468-.08875.0864-.14581.1148-.05719.0286-.12035.0449-.18561.0469l-.00917.0002h-1.54852l-.00917-.0002c-.06526-.002-.12842-.0183-.18561-.0469-.05706-.0284-.10624-.068-.14581-.1148-.039517-.0466-.068989-.0998-.088129-.1558-.018631-.0545-.027481-.1116-.026573-.1686v-4.88196c.001306-.10959.036232-.21915.10416-.30994.003618-.00484.00738-.00957.011283-.01417l.773539-.91333c.03817-.04731.08644-.08769.14314-.11672.05929-.03035.12544-.04702.19369-.04737l.00192-.00001c.06753.0001.13319.01589.1925.04503.05846.02873.10853.0693.14833.11724l.7701.91449c.07968.09284.12004.2104.12044.32734l.00001.00102v.60928c.02865-.0091.05916-.014.09082-.014h.715c.02168 0 .04282.0023.06319.00667v-.60552c.00131-.10958.03624-.21915.10416-.30994.00362-.00484.00738-.00956.01129-.01417l.77449-.91446c.03969-.04843.08991-.08944.14877-.11837.0603-.02963.1272-.04531.19587-.04458.06779.00055.13348.0172.19241.04737.0567.02902.10497.0694.14313.11671l.77354.91333c.00391.00461.00767.00933.01129.01417.06793.09079.10283.20036.10414.30994l.00005.0044-.00165.59445h.57533v-.5963c.00039-.11695.04077-.23451.12044-.32735l.77009-.91448c.03981-.04793.08988-.08851.14834-.11724.05931-.02914.12497-.04493.1925-.04502h.00192c.04696.00024.09292.00821.13635.02304.59502-2.16538 2.047-5.84852 2.5431-7.079745.0334-.090566.0934-.169024.1722-.225036zm-4.66785 12.061831h.58291v-2.1797h-.57697zm1.89373-3.95761-.10182-.10691-.609.72318v4.73104h1.2591v-2.8493c-.0081-.0397-.00803-.0806 0-.1201v-1.76684l-.4628-.54836c-.03115-.01522-.06017-.03613-.08548-.06271zm1.14828 2.33111v-1.74848l-.00002-.00358c-.00131-.10959-.03621-.21915-.10414-.30994-.00215-.00288-.00435-.00571-.0066-.00851l-.00435-.00527-.4814-.5704c.47856-1.91883 1.89245-5.55357 2.50045-7.07506.348.87109.9652 2.44505 1.5188 3.99335.3085.86294.596 1.71444.806 2.43025.2131.7265.334 1.27388.3352 1.55519-.0211.68189-.3113 1.32775-.8075 1.79625-.4259.4021-.9736.6453-1.5515.6947v-1.1736l1.0298-1.1087c.1127-.12139.1057-.31121-.0157-.42397s-.3112-.10576-.424.01563l-.5901.63539v-3.27653c0-.16568-.1344-.3-.3-.3-.1657 0-.3.13432-.3.3v5.34038c-.2749-.0164-.5456-.0803-.7998-.1896-.3054-.1313-.57947-.3247-.80514-.5675zm-6.36094 1.6405c.02866-.0091.05917-.014.09083-.014h.715c.02168 0 .04282.0023.06319.0067v-2.1931c-.02037.0044-.04151.0067-.06319.0067h-.715c-.03166 0-.06217-.0049-.09082-.014zm-1.22989-4.10334-.62921.74291v4.73613h1.2591v-4.73104zm2.69891.74293.62956-.74332.62947.74322-.01292 4.73621h-1.24611z"/><path d="m3.64107 2.64411c-.28697-.73021-1.00552-1.20883-1.78027-1.17786l-.01022.00058c-.996789.07398-1.7539061.89297-1.718007 1.90017.035586.99842.82359 1.78607 1.830237 1.78607h2.31064c.62173 0 1.12795-.40913 1.28086-1.00499.00152-.00592.00285-.01188.00401-.01787.11345-.58947-.1509-1.19323-.69643-1.47667l-.00742-.00372c-.3962-.19213-.84433-.19461-1.2134-.00571zm-1.75123-.57853c-.68106.05313-1.181705.60509-1.157648 1.28004.024431.68543.556798 1.20745 1.230618 1.20745h2.31064c.33558 0 .60775-.21079.69737-.54527.06194-.34133-.09213-.66734-.38194-.81994-.33725-.16168-.68937-.08314-.89162.16904-.07601.09479-.20169.13437-.3183.10024s-.20112-.13522-.21403-.25603c-.07305-.68314-.65471-1.15763-1.27509-1.13553z"/></g></g></svg>