<svg fill="none" height="25" viewBox="0 0 25 25" width="25" xmlns="http://www.w3.org/2000/svg"><g fill="#00ac83"><path d="m19.3438 9.7041c.2761 0 .5-.22386.5-.5s-.2239-.5-.5-.5c-.2762 0-.5.22386-.5.5s.2238.5.5.5z"/><path d="m18.4492 13.3408c0 .2762-.2238.5-.5.5-.2761 0-.5-.2238-.5-.5 0-.2761.2239-.5.5-.5.2762 0 .5.2239.5.5z"/><path d="m22.0938 14.9434c.2761 0 .5-.2239.5-.5 0-.2762-.2239-.5-.5-.5-.2762 0-.5.2238-.5.5 0 .2761.2238.5.5.5z"/><g clip-rule="evenodd" fill-rule="evenodd"><path d="m18.8787.896969c.1354-.096239.2974-.147946.4635-.147946s.3281.051709.4635.147946c.1313.093372.2314.224171.2871.375171.5275 1.3108 1.69 4.24674 2.7223 7.13391.517 1.44614 1.0035 2.88585 1.3613 4.10555.3508 1.1959.5991 2.2472.5991 2.8805l-.0002.0145c-.0409 1.4043-.6376 2.7348-1.659 3.6993-.8958.8458-2.054 1.3494-3.2725 1.4338v3.2774c0 .2761-.2239.5-.5.5-.2762 0-.5-.2239-.5-.5v-3.2647c-.5938-.0283-1.1792-.1628-1.728-.3987-.3354-.1442-.6528-.3244-.9469-.5366v3.8886c.0016.0949-.0132.1902-.0442.281-.0319.0934-.0811.182-.1469.2597-.066.0779-.1479.1439-.2431.1914-.0953.0475-.2005.0748-.3093.0781l-.0153.0003h-2.5808l-.0153-.0003c-.1088-.0033-.2141-.0306-.3094-.0781-.0951-.0475-.1771-.1135-.243-.1914-.0659-.0777-.115-.1664-.1469-.2597-.031-.0908-.0458-.1861-.0443-.281v-1.5057h-.9742l-.0041 1.5065c.0014.0947-.0134.1897-.0443.2803-.0319.0933-.081.1819-.1469.2596-.0659.0779-.1479.1439-.243.1914-.0953.0476-.2006.0748-.3094.0781l-.0153.0003h-2.55863l-.01529-.0003c-.10877-.0033-.21403-.0305-.30935-.0781-.0951-.0475-.17707-.1135-.24302-.1914-.06586-.0777-.11498-.1663-.14688-.2596-.03105-.0909-.0458-.1861-.04429-.2811v-1.5168c-.03395.0073-.06918.0111-.10531.0111h-1.19167c-.05277 0-.10363-.0082-.15138-.0233v1.529c.00151.0949-.01324.1902-.04429.281-.0319.0933-.08102.1819-.14688.2597-.06595.0779-.14792.1439-.24303.1914-.09531.0475-.20057.0748-.30934.0781l-.01529.0003h-2.58086l-.01529-.0003c-.10876-.0033-.21402-.0306-.30934-.0781-.0951-.0475-.17708-.1135-.24302-.1914-.06587-.0778-.11498-.1664-.14688-.2597-.03106-.0908-.04581-.1861-.04429-.281v-8.1366c.00217-.1827.06038-.3653.1736-.5166.00603-.008.0123-.0159.0188-.0236l1.28924-1.5222c.0636-.0789.14406-.1462.23856-.1945.09883-.0506.20907-.0784.32281-.079h.0032c.11256.0002.222.0265.32083.075.09744.0479.18089.1155.24723.1954l1.2835 1.5242c.13279.1547.20007.3507.20073.5456l.00001.0017v1.0154c.04775-.0151.09861-.0233.15138-.0233h1.19167c.03613 0 .07136.0038.10531.0111v-1.0092c.00218-.1826.06039-.3652.1736-.5166.00603-.008.0123-.0159.01881-.0236l1.29083-1.5241c.06614-.0807.14984-.149.24794-.1973.10049-.0493.212-.0755.32645-.0743.11298.001.22247.0287.32068.079.09451.0484.17496.1157.23856.1945l1.28919 1.5222c.0066.0077.0128.0156.0189.0236.1132.1513.1713.334.1735.5166l.0001.0073-.0028.9908h.9589v-.9938c.0007-.195.068-.3909.2008-.5456l1.2835-1.5242c.0663-.0798.1498-.1475.2472-.1954.0988-.0485.2083-.0748.3208-.075h.0032c.0783.0004.1549.0137.2273.0384.9917-3.60896 3.4117-9.74753 4.2385-11.79957.0557-.15094.1557-.281707.287-.375061zm-7.7798 20.103031h.9715v-3.6328h-.9616zm3.1562-6.596-.1697-.1782-1.015 1.2053v7.8851h2.0985v-4.7488c-.0135-.0662-.0133-.1345 0-.2003v-2.9446l-.7713-.914c-.0519-.0253-.1003-.0602-.1425-.1045zm1.9138 3.8852v-2.9141-.006c-.0022-.1827-.0603-.3653-.1736-.5166-.0035-.0048-.0072-.0095-.011-.0142l-.0072-.0087-.8023-.9507c.7975-3.1981 3.154-9.25596 4.1673-11.79177.5801 1.45181 1.6088 4.07508 2.5314 6.65558.5142 1.43819.9934 2.85739 1.3433 4.05039.3553 1.2109.5567 2.1232.5587 2.592-.0351 1.1365-.5189 2.2129-1.3458 2.9937-.7098.6702-1.6227 1.0756-2.5859 1.1579v-1.9561l1.7163-1.8477c.1879-.2024.1763-.5187-.0261-.7067-.2023-.1879-.5186-.1762-.7066.0261l-.9836 1.059v-5.4609c0-.2762-.2239-.5-.5-.5-.2762 0-.5.2238-.5.5v8.9006c-.4581-.0273-.9093-.1339-1.333-.316-.5089-.2188-.9658-.5411-1.3419-.9458zm-10.60152 2.7341c.04775-.0151.09861-.0233.15138-.0233h1.19167c.03613 0 .07136.0038.10531.0111v-3.655c-.03395.0073-.06918.0111-.10531.0111h-1.19167c-.05277 0-.10363-.0082-.15138-.0233zm-2.04983-6.8388-1.04868 1.2381v7.8936h2.09851v-7.8851zm4.49819 1.2382 1.04926-1.2389 1.0491 1.2387-.0215 7.8937h-2.07686z"/><path d="m6.06828 4.40688c-.47827-1.21702-1.67587-2.01472-2.96711-1.96312l-.01704.00098c-1.66131.1233-2.92317 1.48828-2.863338 3.16694.059311 1.66404 1.372648 2.97679 3.050388 2.97679h3.85107c1.03623 0 1.87991-.68189 2.13477-1.67499.00253-.00985.00476-.01979.00668-.02978.18909-.98245-.25149-1.98871-1.16071-2.46111l-.01236-.0062c-.66034-.32022-1.40722-.32435-2.02235-.00951zm-2.91871-.96423c-1.13509.08855-1.96951 1.00849-1.92941 2.13341.04071 1.14238.92799 2.01241 2.05102 2.01241h3.85107c.5593 0 1.01292-.35132 1.16228-.90878.10323-.56888-.15355-1.11223-.63656-1.36657-.56209-.26947-1.14896-.13857-1.48603.28174-.12669.15797-.33615.22394-.5305.16706s-.3352-.22536-.35673-.42671c-.12174-1.13857-1.09117-1.92938-2.12514-1.89256z"/></g></g></svg>