<svg fill="none" height="50" viewBox="0 0 50 50" width="50" xmlns="http://www.w3.org/2000/svg"><g stroke="#03a9f1" stroke-linecap="round" stroke-linejoin="round"><path d="m38.3081 28.3011h-26.6195l-2.21831-3.2535c-.14789-.2958-.14789-.5916 0-.7394.14789-.2958.44366-.4437.59151-.4437h29.7252c.2958 0 .5915.1479.5915.4437.1479.2957.1479.5915 0 .7394z"/><path d="m11.6926 28.3008-2.66193 14.4928c-.14788.4437 0 .8874.29578 1.1831.29577.2958.73945.5916 1.18305.5916h28.9858c.4436 0 .8873-.1479 1.183-.5916.2958-.2957.4437-.7394.2958-1.1831l-2.6619-14.4928"/><path d="m25 28.3008v16.2675"/><path d="m22.0432 34.2161v4.4366"/><path d="m27.96 34.2161v2.6814"/><path d="m11.6942 44.5691-1.4789 3.6972"/><path d="m38.3115 44.5691 1.4789 3.6972"/><path d="m40.5272 10.7033h-31.05615c-.88732 0-1.47886-.4437-1.47886-1.03525v-7.39431c0-.29578.29577-.44366.73943-.44366h32.53498c.4437 0 .7394.14788.7394.44366v7.39431c0 .59155-.5915 1.03525-1.4788 1.03525z"/><path d="m21.3008 10.7033v-8.87322"/><path d="m31.6523 10.7033v-8.87322"/><path d="m21.302 1.83008h-13.30981"/><path d="m21.302 6.26624h-13.30981"/><path d="m22.7831 19.4283c0 2.5141-1.9225 4.4366-4.4366 4.4366h-2.2183c-2.514 0-4.4365-1.9225-4.4365-4.4366z"/><path d="m28.6992 16.4697h7.3943v7.3943h-7.3943z"/><path d="m36.0942 17.9491h1.331c.8873 0 1.4789.5915 1.6268 1.4789.1478.8873-.4437 1.6267-1.1831 1.7746l-1.6268.4437"/></g><g fill="#03a9f1"><path d="m26.1563 5.30469c.375 0 .75.375.75.75s-.375.75-.75.75c-.3751 0-.7501-.375-.7501-.75s.375-.75.7501-.75z"/><path d="m36.5078 5.30469c.375 0 .75.375.75.75s-.375.75-.75.75-.75-.375-.75-.75.375-.75.75-.75z"/><circle cx="27.9609" cy="38.6523" r=".5"/></g></svg>