<svg fill="none" height="34" viewBox="0 0 34 34" width="34" xmlns="http://www.w3.org/2000/svg"><g fill="#00ac83"><path clip-rule="evenodd" d="m8.78516 1.43945h-1.49219c-.27614 0-.5.22386-.5.5 0 .27615.22386.5.5.5h.69531v6.10743h-5.25c-.27614 0-.5.22385-.5.5v23.00562c0 .2761.22386.5.5.5h22.98722l.0167.0002h5.5213c.2762 0 .5-.2238.5-.5 0-.2761-.2238-.5-.5-.5h-5.0196v-5.267c0-.0497-.0073-.0978-.0208-.1432.0124-.0436.0191-.0897.0191-.1374v-6.6076h1.7261c.2761 0 .5-.2239.5-.5 0-.2762-.2239-.5-.5-.5h-2.018l-11.3677-11.36767c-.0117-.01307-.0242-.02551-.0372-.03728l-5.40411-5.40407c-.0087-.00882-.01772-.01732-.02704-.02548-.03979-.03485-.08377-.06232-.13018-.08243-.06096-.02645-.12823-.04112-.19891-.04112zm.20312 7.60763v-6.19739l4.72262 4.72265v6.72376h-4.72341v-5.22057c.00052-.00942.00079-.0189.00079-.02845zm5.72262 5.61932v-6.09406l4.7657 4.76566v6.7073h-4.7487v-5.2492c0-.0449-.0059-.0884-.017-.1297zm5.7657 5.8548v-6.1832l4.7656 4.7656v6.6821h-4.7651v-5.2404c0-.0081-.0002-.0161-.0005-.0241zm-17.23832-10.97432v22.00562h22.00562v-4.7668h-5.2668c-.2761 0-.5-.2238-.5-.5v-5.2404h-5.2492c-.2761 0-.5-.2239-.5-.5v-5.2492h-5.24041c-.27615 0-.5-.2239-.5-.5v-5.24922z" fill-rule="evenodd"/><path d="m6.21484 1.93945c0 .27615-.22385.5-.5.5-.27614 0-.5-.22385-.5-.5 0-.27614.22386-.5.5-.5.27615 0 .5.22386.5.5z"/><path d="m.5 32.5527c.276142 0 .5-.2238.5-.5 0-.2761-.223858-.5-.5-.5s-.5.2239-.5.5c0 .2762.223858.5.5.5z"/></g></svg>