<svg fill="none" height="15" viewBox="0 0 15 15" width="15" xmlns="http://www.w3.org/2000/svg"><g fill="#00ac83"><path clip-rule="evenodd" d="m9.61321 5.57016c.00784.00706.0153.01452.02235.02235l2.44484 2.44481h.8595c.1657 0 .3.13431.3.3 0 .16568-.1343.3-.3.3h-.682v2.83568c0 .0223-.0025.044-.0071.0649.0038.0191.0058.0387.0058.0589v2.2436h1.3138c.1657 0 .3.1344.3.3 0 .1657-.1343.3-.3.3h-1.5963c-.0058.0004-.0116.0005-.0175.0005h-10.14952c-.16569 0-.3-.1343-.3-.3v-10.14948c0-.16569.13431-.3.3-.3h2.23594v-2.53594h-.225c-.16569 0-.3-.13431-.3-.299999 0-.165685.13431-.3.3-.3h.65832c.09355 0 .1771.042821.23212.109931zm-4.97019-1.5958v-2.52586l1.92422 1.92421v2.85512h-1.92375v-2.23641c0-.00573-.00016-.01141-.00047-.01706zm2.52422 2.48103v-2.48268l1.94531 1.94532v2.84622h-1.93651v-2.23642c0-.02498-.00305-.04924-.0088-.07244zm2.54531 2.78669v-2.72405l1.94535 1.94531v2.83346h-1.94544v-2.04719zm-7.60547-4.95066v9.54948h9.54952v-1.9441h-2.24414c-.16569 0-.3-.1343-.3-.3v-2.23255h-2.23642c-.16568 0-.3-.13432-.3-.3v-2.23642h-2.23255c-.16568 0-.3-.13431-.3-.3v-2.23641z" fill-rule="evenodd"/><path d="m3.15239.855481c0 .165689-.13431.299999-.3.299999-.16568 0-.3-.13431-.3-.299999 0-.165685.13432-.3.3-.3.16569 0 .3.134315.3.3z"/><path d="m.600049 14.4404c.165685 0 .3-.1343.3-.3 0-.1656-.134315-.3-.3-.3-.165686 0-.3.1344-.3.3 0 .1657.134314.3.3.3z"/></g></svg>