<svg fill="none" height="25" viewBox="0 0 25 25" width="25" xmlns="http://www.w3.org/2000/svg"><g fill="#00ac83"><path clip-rule="evenodd" d="m16.0219 9.28358c.0131.01176.0255.0242.0373.03725l4.0747 4.07467h1.4326c.2761 0 .5.2239.5.5s-.2239.5-.5.5h-1.1368v4.7262c0 .0371-.0041.0733-.0117.1081.0063.0318.0096.0646.0096.0982v3.7394h2.1897c.2761 0 .5.2238.5.5 0 .2761-.2239.5-.5.5h-2.6606c-.0096.0005-.0193.0008-.0291.0008h-16.91588c-.27614 0-.5-.2238-.5-.5v-16.91586c0-.27614.22386-.5.5-.5h3.72656v-4.22656h-.375c-.27614 0-.5-.22386-.5-.5s.22386-.499999.5-.499999h1.09721c.15592 0 .29517.071368.38687.183219zm-8.28362-2.65966v-4.20978l3.20702 3.20703v4.75853h-3.20622v-3.72736c0-.00954-.00027-.01901-.0008-.02842zm4.20702 4.13508v-4.13783l3.2422 3.24219v4.74374h-3.2275v-3.7274c0-.0416-.0051-.0821-.0147-.1207zm4.2422 4.6444v-4.54l3.2422 3.2421v4.7225h-3.2424v-3.412zm-12.67578-8.25106v15.91586h15.91588v-3.2402h-3.7403c-.2761 0-.5-.2239-.5-.5v-3.7209h-3.7273c-.2762 0-.5-.2239-.5-.5v-3.7274h-3.72092c-.27615 0-.5-.2239-.5-.5v-3.72736z" fill-rule="evenodd"/><path d="m5.25391 1.42578c0 .27614-.22386.5-.5.5-.27615 0-.5-.22386-.5-.5s.22385-.499999.5-.499999c.27614 0 .5.223859.5.499999z"/><path d="m1 24.0674c.27614 0 .5-.2239.5-.5 0-.2762-.22386-.5-.5-.5-.276142 0-.5.2238-.5.5 0 .2761.223858.5.5.5z"/></g></svg>