<svg fill="none" height="25" viewBox="0 0 25 25" width="25" xmlns="http://www.w3.org/2000/svg"><g fill="#f94409"><path d="m14.9961 8.33594c.2762 0 .5-.22386.5-.5 0-.27615-.2238-.5-.5-.5-.2761 0-.5.22385-.5.5 0 .27614.2239.5.5.5z"/><path d="m19.7928 16.0918c.2761 0 .5.2239.5.5v4.6499c0 .2761-.2239.5-.5.5-.2762 0-.5-.2239-.5-.5v-3.4858h-.1786c-.2761 0-.5-.2239-.5-.5 0-.2762.2239-.5.5-.5h.1786v-.1641c0-.2761.2238-.5.5-.5z"/><path clip-rule="evenodd" d="m15.9707 16.3256c.1675.1638.2439.3816.2439.5983v3.9857c0 .2167-.0764.4345-.2439.5983-.1665.1628-.3836.2338-.5958.2338h-1.6987c-.3141 0-.6162-.1042-.8421-.3251-.227-.2219-.3373-.5228-.3373-.8392v-3.3213c0-.3164.1103-.6173.3373-.8392.2259-.2209.528-.3251.8421-.3251h1.6987c.2122 0 .4293.071.5958.2338zm-.7561.7662h-1.5384c-.0935 0-.1312.0286-.143.0402-.0109.0106-.0364.0419-.0364.1241v3.3213c0 .0822.0255.1135.0364.1241.0118.0116.0495.0402.143.0402h1.5384z" fill-rule="evenodd"/><path d="m18.3711 17.3135c0 .2761-.2238.5-.5.5-.2761 0-.5-.2239-.5-.5 0-.2762.2239-.5.5-.5.2762 0 .5.2238.5.5z"/><path clip-rule="evenodd" d="m3.69085 10.4787c-.13016.5845.116 1.2101.70307 1.4005-.13868.037-.26251.1102-.35743.1952-.0491.0439-.09693.0968-.13887.1581l-.0047-.0036c-.02404-.0185-.0497-.0347-.07667-.0485-.15144-.0774-.34969-.1217-.56037-.0786-.22071.0451-.41282.1779-.54678.38l-1.904884 2.7547c-.170265.1989-.20389.4413-.164147.6446.039298.2009.147536.3701.266034.4913.016588.017.034364.0328.053191.0472l.234426.1799c-.06582.2153-.09601.4665-.09606.7139v5.2325c0 .3029.06254.5884.15388.8104.04497.1092.10492.2226.18339.3185.05488.067.22181.2544.49486.2544h6.31058c.23762 0 .40912-.1255.51008-.2394.09802-.1105.16017-.2407.20114-.3544.08318-.231.12092-.5127.12092-.7895v-5.2319c0-.3029-.06254-.5884-.15389-.8103-.04496-.1092-.10491-.2226-.18338-.3185l-.00135-.0017c.00308-.0309.0046-.062.0046-.0929v-3.2388l5.59941 1.2468h-2.0225c-.923 0-1.7076.6737-1.8394 1.5633-.0432-.2322-.2469-.408-.49159-.408-.27615 0-.5.2239-.5.5s.22385.5.5.5c.21829 0 .40389-.1399.47209-.3349v.0082 5.9784.0075c-.0682-.1951-.2538-.335-.47209-.335-.27615 0-.5.2239-.5.5 0 .2762.22385.5.5.5.24459 0 .44819-.1756.49149-.4077.1316.8899.9163 1.5638 1.8395 1.5638h8.1536c1.0128 0 1.8589-.8111 1.8589-1.8286v-1.4925h1.3945v.494c0 .2761.2239.501.5.5024.2762.0013.5-.2215.5-.4977v-3.9856c0-.2761-.2238-.5011-.5-.5024-.2761-.0013-.5.2215-.5.4976v.4985h-1.3945v-1.4927c0-1.0175-.8461-1.8286-1.8589-1.8286h-2.5444c.0751-.1255.1311-.2658.164-.4138l1.5632-7.02006c.1376-.61774-.1452-1.28141-.8066-1.42868l-12.25453-2.72885c-.66136-.14727-1.19904.33369-1.3366.95143zm2.53931-6.8027c.02472-.11101.0711-.16147.0952-.17952.02128-.01593.03468-.01613.04795-.01317l.8738.19457-.50364 2.26174c-.00664.01883-.01222.03825-.01667.05823-.00445.01997-.00764.03993-.00961.05979l-.59927 2.69116c-.0064.01834-.0118.03724-.01612.05666-.00433.01942-.00746.03883-.00944.05815l-.50376 2.26219-.8738-.1945c-.01328-.003-.02532-.0089-.03783-.0323-.01417-.0266-.03475-.092-.01003-.203zm.74239 5.83561-.40786 1.83159 8.55141 1.9042.4078-1.8316zm9.63095 1.65679c.0021-.0076.004-.0153.0057-.0231.0018-.0078.0033-.0156.0047-.0234l1.1368-5.10509.8772.19534c.0133.00296.0253.00883.0378.03229.0142.02657.0348.09194.0101.20294l-1.5633 7.02002c-.0247.111-.0711.1615-.0952.1795-.0212.016-.0346.0162-.0479.0132l-.8773-.1953zm-.8622-.7287-8.55139-1.90418.40783-1.83148 5.57076 1.24048c.2695.06003.5367-.10982.5967-.37936s-.1098-.53671-.3794-.59673l-5.5707-1.24049.40811-1.8327 8.55139 1.90422zm-9.33136 2.4138h-.3277v3.0768h.3277zm-4.31228 9.6924v-4.2345l2.45315 1.8337v2.7841h-2.39193c-.03395-.0993-.06122-.2352-.06122-.3833zm2.95369-3.2751 2.98969-2.2348c-.00879-.0382-.01893-.0736-.02975-.1053h-5.70471c-.0559.0249-.11565.0448-.17882.0577l-.00141.0003c-.00513.0264-.00978.0549-.01377.0854zm3.02116-1.0098-2.5217 1.8849v2.7833h2.48015c.02374-.0941.04155-.2266.04155-.3833zm15.64989.1589h-1.3945v.9932h1.3945zm-20.56755-2.4892.59884-.8871v.8871zm1.59884-2.5121v2.5117h.32813v-3.0768h-.32813v.3879c.00637.0573.0068.117 0 .1772zm2.65667 2.5117h.32813v-3.0768h-.32813zm-5.7231-.2126 1.77137-2.5616.23896.1833-1.74359 2.5829zm19.64064.2095c0-.444-.3769-.8286-.8589-.8286h-8.1536c-.482 0-.8589.3846-.8589.8286v5.9784c0 .444.3769.8286.8589.8286h8.1536c.482 0 .8589-.3846.8589-.8286z" fill-rule="evenodd"/></g></svg>