<svg fill="none" height="15" viewBox="0 0 15 15" width="15" xmlns="http://www.w3.org/2000/svg"><g fill="#00ac83"><g clip-rule="evenodd" fill-rule="evenodd"><path d="m7.1999 8.55019v-2.74999h-.14843c-.38785 0-.7-.35738-.7-.75 0-.41569.33431-.75.75-.75h.09843v-.5502c0-.16569.13432-.3.3-.3.16569 0 .3.13431.3.3v.5502h.15156c.41569 0 .75.33431.75.75 0 .41568-.33431.75-.75.75h-.15156v2.74999c0 .16569-.13431.3-.3.3-.16568 0-.3-.13431-.3-.3zm-.14843-3.34999c-.00059 0-.02476-.00246-.05456-.03474-.02764-.02993-.04544-.07108-.04544-.11526 0-.08432.06568-.15.15-.15h.84999c.08432 0 .15.06568.15.15 0 .08431-.06568.15-.15.15z"/><path d="m10.0499 8.00039v.55c0 .16569.1343.3.3.3s.3-.13431.3-.3v-.55h.1c.4157 0 .75-.33431.75-.75s-.3343-.75-.75-.75h-.1v-2.75039c0-.16569-.1343-.3-.3-.3s-.3.13431-.3.3v2.75039h-.15c-.41568 0-.75.33431-.75.75s.33432.75.75.75zm.7-.6c.0843 0 .15-.06568.15-.15 0-.08431-.0657-.15-.15-.15h-.85c-.08431 0-.15.06569-.15.15s.06569.15.15.15z"/><path d="m4.9499 3.75c0-.16569-.13431-.3-.3-.3-.16568 0-.3.13431-.3.3v1.85039h-.09844c-.41568 0-.75.33432-.75.75 0 .41569.33432.75.75.75h.09844v1.45c0 .16569.13432.3.3.3.16569 0 .3-.13431.3-.3v-1.45h.15156c.41569 0 .75-.33431.75-.75 0-.41568-.33431-.75-.75-.75h-.15156zm-.29916 2.75039h.45072c.08432 0 .15-.06568.15-.15 0-.08431-.06568-.15-.15-.15h-.85c-.08431 0-.15.06569-.15.15 0 .08432.06569.15.15.15h.3976.00084z"/><path d="m9.40068 10.5002c0-.51569.43432-.95001.95002-.95001s.95.43432.95.95001c0 .5157-.4343.95-.95.95s-.95002-.4343-.95002-.95zm.95002-.35c-.1843 0-.35.1657-.35.35s.1657.35.35.35.35-.1657.35-.35-.1657-.35-.35-.35z"/><path d="m7.50068 9.55019c-.51568 0-.95.43432-.95.95001 0 .5157.43432.95.95.95.51569 0 .95-.4343.95-.95 0-.51569-.43431-.95001-.95-.95001zm-.35.95001c0-.1843.16569-.35.35-.35.18432 0 .35.1657.35.35s-.16568.35-.35.35c-.18431 0-.35-.1657-.35-.35z"/><path d="m3.70068 10.5002c0-.51569.43432-.95001.95-.95001.51569 0 .95.43432.95.95001 0 .5157-.43431.95-.95.95-.51568 0-.95-.4343-.95-.95zm.95-.35c-.18431 0-.35.1657-.35.35s.16569.35.35.35c.18432 0 .35-.1657.35-.35s-.16568-.35-.35-.35z"/><path d="m7.4999.700195c.16569 0 .3.134315.3.300005v1.15019h4.3008c.4157 0 .75.33432.75.75v9.15001c0 .4157-.3343.75-.75.75h-1.2492v1.0998c0 .1657-.1343.3-.3.3s-.3-.1343-.3-.3v-1.0998h-5.50082v1.0998c0 .1657-.13431.3-.3.3-.16568 0-.3-.1343-.3-.3v-1.0998h-1.2c-.41568 0-.75-.3343-.75-.75v-9.15001c0-.41568.33432-.75.75-.75h4.24922v-1.15019c0-.16569.13432-.300005.3-.300005zm-4.54922 2.050195c-.08431 0-.15.06569-.15.15v9.15001c0 .0843.06569.15.15.15h9.15002c.0843 0 .15-.0657.15-.15v-9.15001c0-.08431-.0657-.15-.15-.15z"/></g><path d="m4.45068 1.6002c.16569 0 .3-.13432.3-.3 0-.16569-.13431-.3-.3-.3-.16568 0-.3.13431-.3.3 0 .16568.13432.3.3.3z"/><path d="m7.7999 13.6002c0 .1657-.13431.3-.3.3-.16568 0-.3-.1343-.3-.3s.13432-.3.3-.3c.16569 0 .3.1343.3.3z"/><path d="m10.5515 1.6002c.1657 0 .3-.13432.3-.3 0-.16569-.1343-.3-.3-.3s-.3.13431-.3.3c0 .16568.1343.3.3.3z"/></g></svg>