<svg fill="none" height="25" viewBox="0 0 25 25" width="25" xmlns="http://www.w3.org/2000/svg"><g fill="#00ac83"><g clip-rule="evenodd" fill-rule="evenodd"><path d="m12 14.2503v-4.58331h-.2474c-.6464 0-1.1667-.59562-1.1667-1.25 0-.69281.5572-1.25 1.25-1.25h.1641v-.91699c0-.27614.2239-.5.5-.5s.5.22386.5.5v.91699h.2526c.6928 0 1.25.55719 1.25 1.25s-.5572 1.25-1.25 1.25h-.2526v4.58331c0 .2762-.2239.5-.5.5s-.5-.2238-.5-.5zm-.2474-5.58331c-.001 0-.0413-.00408-.0909-.05789-.0461-.04989-.0758-.11847-.0758-.19211 0-.14052.1095-.25.25-.25h1.4167c.1405 0 .25.10948.25.25 0 .14053-.1095.25-.25.25z"/><path d="m16.75 13.334v.9167c0 .2761.2239.5.5.5s.5-.2239.5-.5v-.9167h.1667c.6928 0 1.25-.5572 1.25-1.25s-.5572-1.25-1.25-1.25h-.1667v-4.584c0-.27614-.2239-.5-.5-.5s-.5.22386-.5.5v4.584h-.25c-.6928 0-1.25.5572-1.25 1.25s.5572 1.25 1.25 1.25zm1.1667-1c.1405 0 .25-.1095.25-.25s-.1095-.25-.25-.25h-1.4167c-.1405 0-.25.1095-.25.25s.1095.25.25.25z"/><path d="m8.25 6.25c0-.27614-.22386-.5-.5-.5s-.5.22386-.5.5v3.08398h-.16406c-.69281 0-1.25.5572-1.25 1.25002 0 .6928.55719 1.25 1.25 1.25h.16406v2.4167c0 .2761.22386.5.5.5s.5-.2239.5-.5v-2.4167h.2526c.69281 0 1.25-.5572 1.25-1.25 0-.69282-.55719-1.25002-1.25-1.25002h-.2526zm-.4986 4.584h.7512c.14053 0 .25-.1095.25-.25s-.10947-.25-.25-.25h-1.41666c-.14053 0-.25.1095-.25.25s.10947.25.25.25h.66266.0014z"/><path d="m15.668 17.5003c0-.8595.7238-1.5833 1.5833-1.5833s1.5833.7239 1.5833 1.5833c0 .8595-.7238 1.5834-1.5833 1.5834s-1.5833-.7239-1.5833-1.5834zm1.5833-.5833c-.3072 0-.5833.2761-.5833.5833s.2761.5834.5833.5834.5833-.2762.5833-.5834-.2761-.5833-.5833-.5833z"/><path d="m12.5013 15.917c-.8595 0-1.5833.7238-1.5833 1.5833s.7238 1.5834 1.5833 1.5834 1.5833-.7239 1.5833-1.5834-.7238-1.5833-1.5833-1.5833zm-.5833 1.5833c0-.3072.2761-.5833.5833-.5833s.5833.2761.5833.5833-.2761.5834-.5833.5834-.5833-.2762-.5833-.5834z"/><path d="m6.16797 17.5003c0-.8595.72386-1.5833 1.58333-1.5833.85948 0 1.58333.7238 1.58333 1.5833s-.72385 1.5834-1.58333 1.5834c-.85947 0-1.58333-.7239-1.58333-1.5834zm1.58333-.5833c-.30719 0-.58333.2761-.58333.5833s.27614.5834.58333.5834.58333-.2762.58333-.5834-.27614-.5833-.58333-.5833z"/><path d="m12.5 1.16699c.2761 0 .5.22386.5.5v1.91699h7.168c.6928 0 1.25.5572 1.25 1.25v15.25002c0 .6928-.5572 1.25-1.25 1.25h-2.0821v1.833c0 .2761-.2238.5-.5.5-.2761 0-.5-.2239-.5-.5v-1.833h-9.16793v1.833c0 .2761-.22386.5-.5.5s-.5-.2239-.5-.5v-1.833h-2c-.69281 0-1.25-.5572-1.25-1.25v-15.25002c0-.6928.55719-1.25 1.25-1.25h7.08203v-1.91699c0-.27614.2239-.5.5-.5zm-7.58203 3.41699c-.14053 0-.25.10948-.25.25v15.25002c0 .1405.10947.25.25.25h15.25003c.1405 0 .25-.1095.25-.25v-15.25002c0-.14052-.1095-.25-.25-.25z"/></g><path d="m7.41797 2.66699c.27614 0 .5-.22386.5-.5s-.22386-.5-.5-.5-.5.22386-.5.5.22386.5.5.5z"/><path d="m13 22.667c0 .2761-.2239.5-.5.5s-.5-.2239-.5-.5.2239-.5.5-.5.5.2239.5.5z"/><path d="m17.5859 2.66699c.2762 0 .5-.22386.5-.5s-.2238-.5-.5-.5c-.2761 0-.5.22386-.5.5s.2239.5.5.5z"/></g></svg>