<svg fill="none" height="50" viewBox="0 0 50 50" width="50" xmlns="http://www.w3.org/2000/svg"><g fill="#03a9f1"><path d="m17.0859 18.4707c0 .2761-.2238.5-.5.5-.2761 0-.5-.2239-.5-.5s.2239-.5.5-.5c.2762 0 .5.2239.5.5z"/><path d="m21.5859 18.9707c.2762 0 .5-.2239.5-.5s-.2238-.5-.5-.5c-.2761 0-.5.2239-.5.5s.2239.5.5.5z"/><path d="m27.0859 18.4707c0 .2761-.2238.5-.5.5-.2761 0-.5-.2239-.5-.5s.2239-.5.5-.5c.2762 0 .5.2239.5.5z"/><path d="m18.6523 28.6924c.2762 0 .5-.2239.5-.5 0-.2762-.2238-.5-.5-.5-.2761 0-.5.2238-.5.5 0 .2761.2239.5.5.5z"/><path d="m24.1523 28.1924c0 .2761-.2238.5-.5.5-.2761 0-.5-.2239-.5-.5 0-.2762.2239-.5.5-.5.2762 0 .5.2238.5.5z"/><path d="m28.6523 28.6924c.2762 0 .5-.2239.5-.5 0-.2762-.2238-.5-.5-.5-.2761 0-.5.2238-.5.5 0 .2761.2239.5.5.5z"/><g clip-rule="evenodd" fill-rule="evenodd"><path d="m36.3516 15.956c.3198-.6396.8541-1.2255 1.5929-1.2255.7389 0 1.2732.5859 1.593 1.2255.3347.6695.5274 1.5594.5274 2.5151s-.1927 1.8456-.5274 2.5151c-.3198.6396-.8541 1.2256-1.593 1.2256-.7388 0-1.2731-.586-1.5929-1.2256-.3348-.6695-.5274-1.5594-.5274-2.5151s.1926-1.8456.5274-2.5151zm.8944.4472c-.2517.5034-.4218 1.2338-.4218 2.0679s.1701 1.5645.4218 2.0679c.2667.5333.5425.6728.6985.6728.1561 0 .4319-.1395.6986-.6728.2517-.5034.4218-1.2338.4218-2.0679s-.1701-1.5645-.4218-2.0679c-.2667-.5333-.5425-.6727-.6986-.6727-.156 0-.4318.1394-.6985.6727z"/><path d="m32.7891 33.8748c.0439 1.627-.5564 3.206-1.6711 4.393-.555.5911-1.221 1.067-1.9599 1.4006-.739.3337-1.5364.5185-2.3468.544-.1576.0049-.3148.0038-.4713-.0032l-14.6009-.11c-.0637-.0005-.1267-.0131-.1857-.0373-2.35279-.9631-4.30835-2.6974-5.54578-4.9183-.00681-.0122-.0131-.0247-.01886-.0374-.07756-.1717-.11767-.3579-.11767-.5462s.04011-.3745.11767-.5461l.00534-.0119c.07565-.1564.18219-.296.31299-.4105.1308-.1144.28331-.2013.44844-.2556.16513-.0542.33949-.0746.51267-.0599.16799.0142.33152.061.48144.1379l1.56291.7169 3.03125-1.1745v-14.4854c0-2.7539.6478-5.2745 1.7246-7.1237 1.0699-1.83735 2.6231-3.09818 4.4465-3.09818h19.4453c1.8156 0 3.3687 1.26137 4.4401 3.09778 1.0788 1.849 1.731 4.3696 1.731 7.1241 0 2.754-.6479 5.2746-1.7247 7.1238-1.0698 1.8373-2.6231 3.0982-4.4464 3.0982l-.0307-.0001-.0314-.0004h-5.109zm-19.4453-15.4039c0-2.6093.6159-4.9497 1.5888-6.6205.9799-1.6829 2.2622-2.60138 3.5823-2.60138h16.7623c-.673.53413-1.2657 1.25548-1.7572 2.09778-1.0787 1.849-1.7309 4.3696-1.7309 7.1241v15.3684c-.0007.0131-.0008.0263-.0003.0397l.0003.01v.0722c0 .0157.0007.0313.0021.0466.0087 1.3259-.4923 2.6065-1.4022 3.5755-.4651.4953-1.0232.8941-1.6425 1.1737-.6163.2783-1.2812.4331-1.9571.4556l-.4223-.0032c-1.2237-.0592-2.3919-.5515-3.2915-1.3963-1.0003-.9393-1.5865-2.2375-1.6296-3.6091-.0005-.0151-.0016-.0302-.0035-.0453-.0393-.3196-.1964-.6131-.4405-.8231-.2442-.21-.5579-.3214-.8798-.3124l-.0091.0003c-.1681.0078-.3315.0564-.4763.1414l-1.9521.9615-3.5522-1.424c-.0199-.0079-.0403-.0146-.061-.02-.2382-.0615-.4848-.0788-.7277-.052zm19.4453 9.2215h2.4805c-.6732-.5341-1.2653-1.2553-1.7558-2.0977-.2696-.463-.5124-.968-.7247-1.5083zm5.1782.0005c-.0073-.0004-.0147-.0005-.0221-.0005h-.0377c-1.3015-.0241-2.5627-.9404-3.5296-2.6009-.9729-1.6708-1.5888-4.0112-1.5888-6.6206 0-2.6087.6197-4.9491 1.5947-6.6202.9823-1.6837 2.2648-2.60168 3.5764-2.60168 1.3115 0 2.594.91798 3.5764 2.60168.975 1.6711 1.5947 4.0115 1.5947 6.6202 0 2.6094-.6159 4.9498-1.5889 6.6206-.9781 1.6798-2.2575 2.5981-3.5751 2.6014zm-14.7641 11.4926c-.2864-.1901-.5582-.405-.8121-.6434-1.1867-1.1143-1.8849-2.6519-1.9436-4.2779-.012-.0662-.0464-.1264-.0976-.1704-.0538-.0463-.1226-.0715-.1934-.0711-.005.0006-.0099.0023-.0142.005-.0144.0091-.0293.0173-.0445.0249l-2.1712 1.0694c-.1273.0627-.2753.0683-.407.0155l-3.7263-1.4937c-.1507-.0344-.3071-.0342-.4577.0006l-3.85878 1.4952c-.12597.0489-.26633.0446-.38913-.0117l-1.76615-.8102c-.00846-.0038-.01681-.008-.02505-.0123-.03491-.0185-.07318-.0297-.11252-.033-.03935-.0033-.07896.0013-.11647.0136s-.07216.0321-.10188.0581c-.02811.0246-.05126.0543-.06823.0876-.01734.0405-.0263.0842-.0263.1283 0 .0409.00767.0813.02256.1192 1.11215 1.9844 2.85476 3.5399 4.95055 4.4208z"/></g></g></svg>