<svg fill="none" height="50" viewBox="0 0 50 50" width="50" xmlns="http://www.w3.org/2000/svg"><g fill="#895d25"><path d="m21.742 25.1621c0 .2761-.2239.5-.5.5-.2762 0-.5-.2239-.5-.5 0-.2762.2238-.5.5-.5.2761 0 .5.2238.5.5z"/><path d="m28.7537 25.664c.2761 0 .5-.2238.5-.5 0-.2761-.2239-.5-.5-.5-.2762 0-.5.2239-.5.5 0 .2762.2238.5.5.5z"/><path clip-rule="evenodd" d="m12.9998 43.9954v1.1671c0 .2761-.2239.5-.5.5-.2762 0-.5-.2239-.5-.5v-1.1671h-1.1652c-.6136 0-1.1638-.2067-1.56185-.6048-.39806-.398-.60478-.9482-.60478-1.5619v-33.3333c0-.61362.20672-1.16383.60478-1.56188.39805-.39806.94825-.60478 1.56185-.60478h28.3334c.6136 0 1.1638.20672 1.5619.60478.398.39805.6047.94826.6047 1.56188v33.3333c0 .6137-.2067 1.1639-.6047 1.5619-.3981.3981-.9483.6048-1.5619.6048h-1.1682v1.1671c0 .2761-.2239.5-.5.5-.2762 0-.5-.2239-.5-.5v-1.1671zm-3.33183-35.5c0-.38637.12661-.6695.31189-.85478.18524-.18527.46844-.31188.85474-.31188h13.6652v35.66666h-13.6652c-.3863 0-.6695-.1266-.85474-.3119-.18528-.1853-.31189-.4684-.31189-.8548zm15.83183 34.5v-35.66666h13.6682c.3863 0 .6695.12661.8548.31188.1852.18528.3118.46841.3118.85478v33.3333c0 .3864-.1266.6695-.3118.8548-.1853.1853-.4685.3119-.8548.3119z" fill-rule="evenodd"/></g></svg>