<svg fill="none" height="25" viewBox="0 0 25 25" width="25" xmlns="http://www.w3.org/2000/svg"><g fill="#895d25"><path d="m11.1255 12.5813c0-.2511-.2511-.5022-.5022-.5022s-.5022.2511-.5022.5022.2511.5022.5022.5022.5022-.2511.5022-.5022z"/><path d="m14.3811 12.0791c.2511 0 .5022.2511.5022.5022s-.2511.5022-.5022.5022-.5022-.2511-.5022-.5022.2511-.5022.5022-.5022z"/><path clip-rule="evenodd" d="m6.75 22.2484v.333c0 .2761-.22386.5-.5.5s-.5-.2239-.5-.5v-.333h-.33464c-.36362 0-.70549-.1234-.95772-.3756-.25222-.2523-.37561-.5941-.37561-.9578v-16.66663c0-.36362.12339-.70549.37561-.95772.25223-.25222.5941-.37561.95772-.37561h14.16664c.3637 0 .7055.12339.9578.37561.2522.25223.3756.5941.3756.95772v16.66663c0 .3637-.1234.7055-.3756.9578-.2523.2522-.5941.3756-.9578.3756h-.332v.333c0 .2761-.2239.5-.5.5s-.5-.2239-.5-.5v-.333zm-1.66797-18.00003c0-.13637.04328-.21117.08272-.25061.03945-.03944.11424-.08272.25061-.08272h6.58464v17.33336h-5.73182c-.00604-.0002-.0121-.0004-.01818-.0004s-.01214.0002-.01818.0004h-.81646c-.13637 0-.21116-.0433-.25061-.0827-.03944-.0395-.08272-.1143-.08272-.2507zm7.91797 17.00003v-17.33336h6.582c.1364 0 .2112.04328.2506.08272.0395.03944.0828.11424.0828.25061v16.66663c0 .1364-.0433.2112-.0828.2507-.0394.0394-.1142.0827-.2506.0827h-.8138c-.0061-.0002-.0121-.0004-.0182-.0004l-.0102.0001-.008.0003z" fill-rule="evenodd"/></g></svg>