<svg fill="none" height="15" viewBox="0 0 15 15" width="15" xmlns="http://www.w3.org/2000/svg"><g fill="#895d25"><path d="m6.67531 7.54879c0-.15067-.15066-.30133-.30133-.30133-.15066 0-.30132.15066-.30132.30133 0 .15066.15066.30132.30132.30132.15067 0 .30133-.15066.30133-.30132z"/><path d="m8.62867 7.24746c.15066 0 .30132.15066.30132.30133 0 .15066-.15066.30132-.30132.30132s-.30133-.15066-.30133-.30132c0-.15067.15067-.30133.30133-.30133z"/><path clip-rule="evenodd" d="m4.05 13.349v.1998c0 .1657-.13431.3-.3.3s-.3-.1343-.3-.3v-.1998h-.20078c-.21818 0-.4233-.074-.57463-.2253-.15134-.1514-.22537-.3565-.22537-.5747v-9.99998c0-.21817.07403-.42329.22537-.57463.15133-.15133.35645-.22537.57463-.22537h8.49998c.2182 0 .4233.07404.5747.22537.1513.15134.2253.35646.2253.57463v9.99998c0 .2182-.074.4233-.2253.5747-.1514.1513-.3565.2253-.5747.2253h-.1992v.1998c0 .1657-.1343.3-.3.3s-.3-.1343-.3-.3v-.1998zm-1.00078-10.79998c0-.08182.02596-.1267.04963-.15036.02367-.02367.06854-.04964.15037-.04964h3.95078v10.39998h-3.43909c-.00362-.0001-.00726-.0002-.01091-.0002s-.00729.0001-.01091.0002h-.48987c-.08183 0-.1267-.0259-.15037-.0496s-.04963-.0686-.04963-.1504zm4.75078 10.19998v-10.39998h3.9492c.0818 0 .1267.02597.1504.04964.0237.02366.0496.06854.0496.15036v9.99998c0 .0818-.0259.1267-.0496.1504s-.0686.0496-.1504.0496h-.4883c-.0036-.0001-.0072-.0002-.0109-.0002l-.0061.0001-.0048.0001z" fill-rule="evenodd"/></g></svg>