<svg fill="none" height="26" viewBox="0 0 26 26" width="26" xmlns="http://www.w3.org/2000/svg"><g fill="#18303f"><path clip-rule="evenodd" d="m9.75798 5.98938c-1.07614 0-2 .92386-2 2s.92386 2 2 2h1.00002v2.51632c0 .2761.2238.5.5.5.2761 0 .5-.2239.5-.5v-2.51632h2v3.33362l-.0001.0101c0 .6908-.4674 1.2737-1.1041 1.4474-.2664.0726-.4235.3475-.3509.6139.0727.2664.3476.4235.614.3508.9732-.2653 1.7104-1.1036 1.8254-2.1309.0102-.0399.0157-.0818.0157-.1249v-3.50002h1c1.0761 0 2-.92386 2-2s-.9239-2-2-2c-1.0762 0-2 .92386-2 2v1h-2v-1c0-1.07614-.9239-2-2.00002-2zm1.00002 2v1h-1.00002c-.52386 0-1-.47614-1-1s.47614-1 1-1c.52382 0 1.00002.47614 1.00002 1zm5 1h-1v-1c0-.52386.4761-1 1-1 .5238 0 1 .47614 1 1s-.4762 1-1 1z" fill-rule="evenodd"/><path d="m11.758 14.2511c0 .2761-.2239.5-.5.5-.2762 0-.5-.2239-.5-.5s.2238-.5.5-.5c.2761 0 .5.2239.5.5z"/><path clip-rule="evenodd" d="m4.76561 9.04803c.00647-4.52855 3.56298-8.2149 7.99239-8.2149 4.4294 0 7.9859 3.68635 7.9924 8.21491.1565 3.27066-2.1111 6.00486-4.1473 7.56626-.0553.0695-.1165.182-.1816.349-.0659.1692-.1216.3555-.1821.5579l-.0188.063c-.0634.2115-.1375.4547-.2327.6549-.0499.1049-.1296.2523-.2565.3757.0174.0738.0266.1509.0266.23v2c0 1.6723-1.3277 3-3 3s-3.00002-1.3277-3.00002-3v-2c0-.0791.00921-.1562.0266-.23-.12689-.1234-.20665-.2708-.25648-.3757-.09522-.2002-.16934-.4434-.23273-.6549l-.01884-.063c-.0605-.2024-.11619-.3887-.18208-.5579-.06502-.167-.12627-.2794-.1815-.349-2.03809-1.5615-4.30387-4.2957-4.14734-7.56627zm10.28099 8.83227-.0088.0042c-.0888-.0258-.1827-.0397-.2798-.0397h-4c-.0971 0-.191.0139-.2798.0397l-.0089-.0042c-.0088-.0137-.0217-.0361-.0381-.0705-.0567-.1194-.1105-.2877-.1779-.5126l-.0195-.0651c-.0584-.1958-.1259-.4222-.2075-.6317-.0894-.2295-.21351-.4883-.4026-.6923-.01971-.0213-.04124-.0408-.06433-.0584-1.95323-1.4836-3.93386-3.9593-3.79438-6.76447.00041-.00827.00061-.01655.00061-.02483 0-4.01124 3.14012-7.22727 6.9924-7.22727 3.8523 0 6.9924 3.21603 6.9924 7.22727 0 .00828.0002.01656.0006.02483.1395 2.80507-1.8427 5.28087-3.7946 6.76457-.023.0175-.0445.037-.0641.0583-.1891.204-.3132.4628-.4026.6923-.0816.2095-.1492.4359-.2076.6317l-.0194.0651c-.0674.2249-.1212.3932-.178.5126-.0163.0344-.0293.0568-.0381.0705zm-.2886 2.9645v-2h-4v2c0 1.12.88 2 2 2s2-.88 2-2z" fill-rule="evenodd"/><path d="m12.758 25.3331c.2761 0 .5-.2238.5-.5 0-.2761-.2239-.5-.5-.5-.2762 0-.5.2239-.5.5 0 .2762.2238.5.5.5z"/></g></svg>