<svg fill="none" height="26" viewBox="0 0 26 26" width="26" xmlns="http://www.w3.org/2000/svg"><g fill="#18303f"><path d="m12.7579 11.4238c.2762 0 .5-.2238.5-.5 0-.2761-.2238-.5-.5-.5-.2761 0-.5.2239-.5.5 0 .2762.2239.5.5.5z"/><path d="m13.2579 12.7144c0 .2761-.2238.5-.5.5-.2761 0-.5-.2239-.5-.5 0-.2762.2239-.5.5-.5.2762 0 .5.2238.5.5z"/><path d="m12.7579 15.0049c.2762 0 .5-.2239.5-.5 0-.2762-.2238-.5-.5-.5-.2761 0-.5.2238-.5.5 0 .2761.2239.5.5.5z"/><path clip-rule="evenodd" d="m12.7119 1.89795c-.1323 0-.2591.05236-.3528.14564-.5199.51752-1.3292 1.03458-2.2859 1.52232-.94934.48393-2.01102.92274-3.00977 1.29368-.99756.37049-1.92514.67062-2.60361.87818-.33901.1037-.61527.18413-.80631.23849-.0955.02718-.16967.04784-.21969.06163l-.05654.01549-.01402.00379-.00333.0009c-.21863.05854-.37153.25688-.37153.48321 0 3.64002.11029 7.16472 1.36512 10.18862 1.27136 3.0637 3.69396 5.5656 8.19308 7.2206.1115.041.2338.041.3453 0 4.4991-1.655 6.9217-4.1569 8.1931-7.2206 1.2548-3.0239 1.3651-6.5486 1.3651-10.18862 0-.22633-.1521-.42444-.3707-.48298l-.0042-.00113-.014-.00379-.0565-.01549c-.05-.01379-.1242-.03445-.2197-.06163-.1911-.05436-.4673-.13479-.8063-.23849-.6785-.20756-1.6061-.50769-2.6036-.87818-.9988-.37094-2.0605-.80975-3.0098-1.29368-.9567-.48774-1.766-1.0048-2.2859-1.52232-.0937-.09328-.2206-.14564-.3528-.14564zm-7.43475 14.44865c-1.12776-2.7177-1.27913-5.9173-1.28827-9.42613.19217-.05506.45215-.13121.76347-.22645.6915-.21153 1.63848-.51789 2.65924-.897 1.01957-.37867 2.11999-.83258 3.11571-1.34019.6126-.31225 1.1984-.65121 1.7053-1.01318l.0316 5.50773c.0016.27614.2267.49871.5029.49712.2761-.00158.4987-.22672.4971-.50285l-.0315-5.48289c.5008.3548 1.0767.68732 1.6785.99407.9957.50761 2.0961.96152 3.1157 1.34019 1.0208.37911 1.9677.68547 2.6592.897.3114.09524.5713.17139.7635.22645-.0091 3.50883-.1605 6.70843-1.2883 9.42613-1.0892 2.6249-3.1097 4.8418-6.938 6.4033l.0335-6.1119c.0015-.2761-.2211-.5012-.4973-.5027-.2761-.0016-.5012.2211-.5027.4972l-.0336 6.1207c-3.83347-1.5618-5.85602-3.7799-6.94605-6.4066z" fill-rule="evenodd"/></g></svg>