<svg fill="none" height="26" viewBox="0 0 26 26" width="26" xmlns="http://www.w3.org/2000/svg"><g fill="#18303f"><path d="m13.0294 3.4326c-2.4632-2.456032-6.37828-2.456032-8.84145 0-2.46398 2.45683-2.46398 6.36303 0 8.8199 1.94084 1.9352 4.80708 2.3174 7.11385 1.1934l2.0821 2.0739-1.3704 1.3664c-.1732.1728-.2948.405-.2948.6737 0 .2686.1216.5008.2948.6736l1.6764 1.6715c.1733.1728.4056.2934.6735.2934.268 0 .5002-.1206.6736-.2934l.506-.5061c.1953-.1952.1953-.5118 0-.7071-.1953-.1952-.5118-.1952-.7071 0l-.4725.4725-1.6092-1.6044 1.6911-1.6862c.0941-.0938.147-.2213.147-.3542-.0001-.1329-.053-.2603-.1472-.3541l-2.6979-2.6872c-.159-.1584-.404-.1914-.5993-.0808-1.97972 1.1216-4.54384.852-6.25387-.8531-2.07208-2.06604-2.07208-5.33749 0-7.40357 2.07288-2.06687 5.35637-2.06687 7.42927 0 1.6629 1.65807 1.9775 4.26264.8554 6.23187-.1117.196-.0783.4424.0814.6017l3.9911 3.9795 1.6738 1.7181.0051.0051 1.7257 1.7207c.0044.0044.0089.0087.0135.0129l.6505.602-2.5761 2.5686c-.1956.195-.196.5116-.0011.7071.195.1956.5116.196.7072.001l2.5885-2.581c.357-.3559.4275-.9701.0493-1.3472-.0044-.0044-.0089-.0087-.0135-.0129l-.7188-.6652-1.7165-1.7116-1.6739-1.718-.005-.0052-3.7324-3.7215c1.1238-2.30806.6931-5.20833-1.1981-7.0941z"/><path d="m18.1458 19.5644c.1956-.195.196-.5116.0011-.7071-.195-.1956-.5116-.1961-.7072-.0011l-1.7256 1.7207c-.1733.1727-.2949.405-.2949.6736 0 .2684.1214.5005.2945.6732l.5218.5219c.1953.1953.5119.1953.7071 0 .1953-.1953.1953-.5118 0-.7071l-.4879-.4879z"/><path clip-rule="evenodd" d="m11.34 7.87964c0 1.49289-1.2103 2.70316-2.70316 2.70316-1.49289 0-2.70312-1.21027-2.70312-2.70316 0-1.4929 1.21023-2.70313 2.70312-2.70313 1.49286 0 2.70316 1.21023 2.70316 2.70313zm-1 0c0 .94061-.76255 1.70312-1.70316 1.70312s-1.70312-.76251-1.70312-1.70312.76251-1.70313 1.70312-1.70313 1.70316.76252 1.70316 1.70313z" fill-rule="evenodd"/><path d="m16.922 17.8723c0 .2762-.2239.5-.5.5s-.5-.2238-.5-.5c0-.2761.2239-.5.5-.5s.5.2239.5.5z"/><path d="m17.8634 23.575c.2761 0 .5-.2239.5-.5 0-.2762-.2239-.5-.5-.5s-.5.2238-.5.5c0 .2761.2239.5.5.5z"/></g></svg>