<svg fill="none" height="26" viewBox="0 0 26 26" width="26" xmlns="http://www.w3.org/2000/svg"><g fill="#18303f"><path d="m6.75793 5.18738c.27615 0 .5-.22386.5-.5s-.22385-.5-.5-.5c-.27614 0-.5.22386-.5.5s.22386.5.5.5z"/><path d="m6.75793 7.18738c.27615 0 .5-.22386.5-.5s-.22385-.5-.5-.5c-.27614 0-.5.22386-.5.5s.22386.5.5.5z"/><path d="m19.2579 4.68738c0 .27614-.2238.5-.5.5-.2761 0-.5-.22386-.5-.5s.2239-.5.5-.5c.2762 0 .5.22386.5.5z"/><path d="m18.7579 7.18738c.2762 0 .5-.22386.5-.5s-.2238-.5-.5-.5c-.2761 0-.5.22386-.5.5s.2239.5.5.5z"/><path clip-rule="evenodd" d="m3.54309 5.72254c0-1.933 1.567-3.50001 3.5-3.50001h11.42921c1.933 0 3.5 1.56701 3.5 3.5v.56149c.0003.00725.0005.01454.0005.02186v1.17251c0 .01267-.0002.0253-.0005.03789v11.96272c0 1.933-1.567 3.5-3.5 3.5h-6.3714c-.2762 0-.5-.2239-.5-.5 0-.2762.2238-.5.5-.5h6.3714c1.3807 0 2.5-1.1193 2.5-2.5v-10.58579c-.1562.05517-.3244.08518-.4995.08518h-15.42924c-.17549 0-.34395-.03014-.50047-.08552v10.58613c0 1.3807 1.11929 2.5 2.5 2.5h2.12554c.27614 0 .5.2238.5.5 0 .2761-.22386.5-.5.5h-2.12554c-1.93299 0-3.5-1.567-3.5-3.5zm17.42921-.00001v1.77772c-.0114.266-.2307.47814-.4995.47814h-15.42924c-.27614 0-.5-.22386-.5-.5v-1.17251c0-.00732-.00016-.01461-.00047-.02186v-.56148c0-1.38072 1.11929-2.50001 2.5-2.50001h11.42921c1.3807 0 2.5 1.11929 2.5 2.5z" fill-rule="evenodd"/><path d="m9.05872 17.1874v-3.7938l-1.09176 1.0918c-.19527.1952-.51185.1952-.70711 0-.19526-.1953-.19526-.5119 0-.7071l1.94444-1.9445c.09377-.0937.22095-.1464.35356-.1464.14701 0 .28007.0634.37155.1644l1.9264 1.9265c.1953.1952.1953.5118 0 .7071-.1952.1952-.5118.1952-.7071 0l-1.09-1.09v3.792c0 .2761-.22384.5-.49998.5-.27615 0-.5-.2239-.5-.5z"/><path d="m17.5511 14.8894-1.09 1.09v-3.792c0-.2762-.2239-.5-.5-.5-.2762 0-.5.2238-.5.5v3.7937l-1.0918-1.0917c-.1953-.1953-.5118-.1953-.7071 0-.1953.1952-.1953.5118 0 .7071l1.9444 1.9444c.0938.0938.221.1465.3536.1465.147 0 .2801-.0635.3716-.1645l1.9264-1.9264c.1953-.1953.1953-.5119 0-.7071-.1953-.1953-.5119-.1953-.7071 0z"/><path d="m11.1424 22.479c0 .2761-.2239.5-.5.5-.2762 0-.5-.2239-.5-.5 0-.2762.2238-.5.5-.5.2761 0 .5.2238.5.5z"/><path d="m10.9064 8.95102c0-.26102.2116-.47263.4726-.47263h2.7573c.261 0 .4726.21161.4726.47263 0 .26103-.2116.47263-.4726.47263h-2.7573c-.261 0-.4726-.2116-.4726-.47263z"/></g></svg>