<svg fill="none" height="25" viewBox="0 0 25 25" width="25" xmlns="http://www.w3.org/2000/svg"><g fill="#92a0a9"><path d="m5.08457 15.5037c-2.89631-2.8837-2.89631-7.55907 0-10.44274 2.89631-2.88368 7.59213-2.88368 10.48843 0 2.5513 2.54015 2.8556 6.47154.9113 9.34284-.1184.1749-.1107.3976.0024.5615.0207.0347.046.0675.0759.0974l4.6482 4.6479c.3893.3893.3886 1.0189-.0015 1.4073-.3908.389-1.0243.389-1.415 0l-4.595-4.575c-.1957-.1948-.513-.1948-.7087 0s-.1957.5107 0 .7056l4.5951 4.575c.7821.7787 2.0501.7787 2.8322 0 .7809-.7775.7823-2.0377.0031-2.8169l-4.3865-4.3863c1.9613-3.2242 1.5442-7.48009-1.2528-10.2649-3.2877-3.27335-8.61809-3.27335-11.90578 0-3.28769 3.27334-3.28769 8.5805 0 11.8538 2.11343 2.1042 5.07093 2.8552 7.78548 2.2551.3494-.0773.6948-.1769 1.0341-.299.2603-.0936.395-.3796.301-.6387-.0941-.2592-.3813-.3933-.6416-.2997-.2987.1075-.603.1952-.9108.2633-2.39418.5293-4.9984-.1335-6.85953-1.9865z"/><path d="m6.79307 6.76297c-1.9522 1.94368-1.9522 5.09503 0 7.03873 1.89533 1.887 4.93433 1.942 6.89593.1648.2047-.1854.5216-.1705.7079.0333.1862.2038.1713.5193-.0334.7048-2.3556 2.134-6.00355 2.0682-8.27908-.1974-2.34357-2.3333-2.34357-6.11644 0-8.44979s6.14328-2.33335 8.48678 0c1.5961 1.58913 2.1045 3.85034 1.5278 5.86659-.0758.265-.353.4186-.6192.3431-.2661-.0754-.4205-.3515-.3447-.6165.4812-1.68206.0562-3.56474-1.2725-4.88763-1.9522-1.94368-5.11733-1.94368-7.06953 0z"/><path d="m15.0106 13.6583c.2761 0 .5-.2239.5-.5 0-.2762-.2239-.5-.5-.5s-.5.2238-.5.5c0 .2761.2239.5.5.5z"/></g></svg>