<svg fill="none" height="25" viewBox="0 0 25 25" width="25" xmlns="http://www.w3.org/2000/svg"><path clip-rule="evenodd" d="m13.0521 1.07584c0-.276139-.2238-.499996-.5-.499996-.2761 0-.5.223857-.5.499996v3.29855l-1.7452-1.67226c-.1994-.19105-.5159-.18429-.70695.01509-.19105.19939-.1843.5159.01509.70695l2.43706 2.33519v1.76961h-1.0495c-.2761 0-.5.22386-.5.5s.2239.5.5.5h1.0495v3.14483l-2.90852-1.6246.52212-.86714c.14243-.23657.06612-.54382-.17045-.68626s-.54382-.06613-.68626.17044l-.53892.89509-1.61959-.90462-.86846-3.14369c-.07353-.26618-.34892-.42234-.61509-.34881s-.42234.34891-.34881.61509l.60561 2.19221-2.99238-1.67138c-.24109-.13466-.54569-.04838-.68034.1927-.13466.24109-.04838.54569.1927.68034l2.98266 1.66596-2.34094.59376c-.26766.06789-.42961.33991-.36172.60761.06789.2676.33991.4296.60758.3617l3.36531-.85358 1.55738.86988-.50001.8304c-.14244.2366-.06613.5439.17044.6863.23658.1424.54382.0661.68626-.1704l.51682-.8584 2.84971 1.5917-2.80658 1.5675-.55995-.93c-.14244-.2365-.44968-.3128-.68626-.1704-.23657.1424-.31288.4497-.17044.6863l.54314.902-1.60596.897-3.35986-.8521c-.26767-.0679-.53969.094-.60758.3617-.06789.2676.09406.5397.36172.6076l2.33549.5923-2.97721 1.6629c-.24108.1347-.32736.4393-.1927.6804.13465.2411.43925.3273.68034.1927l2.99383-1.6722-.60706 2.1975c-.07353.2661.08264.5415.34881.615.26617.0736.54156-.0826.61509-.3488l.8699-3.1489 1.66128-.9279.49579.8235c.14244.2365.44969.3128.68626.1704s.31288-.4497.17045-.6863l-.47899-.7955 2.86539-1.6005v3.1471h-1.0495c-.2761 0-.5.2239-.5.5s.2239.5.5.5h1.0495v1.7709l-2.43706 2.3352c-.19939.191-.20614.5075-.01509.7069s.50755.2062.70695.0151l1.7452-1.6723v3.2976c0 .2761.2239.5.5.5.2762 0 .5-.2239.5-.5v-3.2986l1.7464 1.6733c.1993.1911.5158.1843.7069-.0151.191-.1994.1843-.5159-.0151-.7069l-2.4382-2.3363v-1.7698h1.0606c.2761 0 .5-.2239.5-.5s-.2239-.5-.5-.5h-1.0606v-3.0917l2.7808 1.5532-.4884.7799c-.1466.2341-.0756.5426.1584.6892.234.1465.5426.0756.6891-.1584l.515-.8224 1.651.9221.8691 3.1462c.0736.2662.349.4224.6151.3488.2662-.0735.4224-.3489.3488-.615l-.6063-2.1948 2.989 1.6695c.2411.1346.5457.0484.6803-.1927.1347-.2411.0484-.5457-.1927-.6804l-2.9759-1.6622 2.3383-.593c.2677-.0679.4296-.34.3617-.6076-.0678-.2677-.3399-.4296-.6075-.3617l-3.3627.8529-1.5768-.8808.5087-.8123c.1465-.2341.0756-.5426-.1585-.6891-.234-.1466-.5425-.0757-.6891.1584l-.5353.8548-2.8363-1.5842 2.8053-1.567.5617.9329c.1425.2366.4497.3129.6863.1705.2366-.1425.3129-.4497.1704-.6863l-.5449-.905 1.603-.8953 3.3682.8543c.2676.0679.5397-.0941.6075-.3617.0679-.2677-.094-.53972-.3617-.60761l-2.3437-.59447 2.9813-1.66525c.2411-.13465.3274-.43925.1927-.68034-.1346-.24108-.4392-.32736-.6803-.1927l-2.9875 1.66867.6048-2.1895c.0736-.26618-.0826-.54156-.3488-.61509-.2661-.07353-.5415.08263-.6151.34881l-.8677 3.14097-1.6687.93209-.4941-.82055c-.1424-.23657-.4497-.31288-.6862-.17045-.2366.14244-.3129.44969-.1705.68626l.4772.79266-2.765 1.5444v-3.08943h1.0606c.2761 0 .5-.22386.5-.5s-.2239-.5-.5-.5h-1.0606v-1.76853l2.4382-2.33627c.1994-.19105.2061-.50756.0151-.70695-.1911-.19938-.5076-.20614-.7069-.01509l-1.7464 1.67334z" fill="#92a0a9" fill-rule="evenodd"/></svg>