<svg fill="none" height="25" viewBox="0 0 25 25" width="25" xmlns="http://www.w3.org/2000/svg"><path clip-rule="evenodd" d="m12.641 1.38929c.069-.1969.0085-.415954-.1518-.549498s-.3867-.153505-.5679-.050073c-1.7781 1.014951-2.96818 2.812701-2.96818 4.819021 0 1.11923.36066 2.2522 1.09988 3.13446 1.0828 1.3707 2.3592 2.0343 5.3282 3.0543l.0061.002c2.0227.6661 3.607 2.2483 3.607 4.2231 0 .2465-.0043.397-.0542.5394-.069.1969-.0085.4159.1518.5495.1604.1335.3867.1535.5679.0501 1.7781-1.015 2.9682-2.8127 2.9682-4.8191 0-.0134-.0005-.0269-.0016-.0403-.0894-1.106-.4499-2.1385-1.1706-3.08146-.5983-.78785-1.3515-1.30138-2.22-1.71452-.7019-.33388-1.5058-.61334-2.3753-.91563l-.0009-.00031c-.188-.06534-.379-.13174-.5727-.19999-2.5026-.8931-3.7718-2.53916-3.7004-4.44288.0003-.00625.0004-.0125.0004-.01875 0-.24648.0043-.39699.0541-.53937zm-2.68788 4.21945c0-1.2789.61028-2.49059 1.63238-3.3662.0636 2.32274 1.7268 4.14827 4.3663 5.08993l.0018.00065c.2061.07262.4055.14198.5985.20915.867.30161 1.6064.55888 2.2542.86699.7773.36974 1.382.79563 1.8535 1.4168l.001.00134c.5916.7738.8893 1.6136.9672 2.5351-.0064 1.2762-.62 2.4839-1.6434 3.3557-.1535-2.4082-2.1158-4.1533-4.2815-4.8675-2.9502-1.01364-3.9785-1.60237-4.8697-2.73272l-.0099-.01225c-.5743-.68285-.87038-1.58301-.87038-2.49699zm-3.8941 2.82808c.06899-.19691.00846-.41596-.15185-.5495-.16031-.13355-.38669-.15351-.56789-.05008-1.7781 1.01495-2.96819 2.81266-2.96819 4.81906 0 1.1192.36066 2.2522 1.09983 3.1344 1.08285 1.3708 2.35923 2.0343 5.32826 3.0543l-.00002.0001.00608.002c2.02276.6661 3.60696 2.2482 3.60696 4.223 0 .2465-.0042.397-.0541.5394-.069.1969-.0085.416.1518.5495s.3867.1535.5679.0501c1.7781-1.015 2.9682-2.8127 2.9682-4.819 0-.0135-.0006-.0269-.0016-.0403-.0895-1.1061-.45-2.1386-1.1706-3.0815-.5983-.7879-1.3515-1.3014-2.22-1.7146-.7019-.3338-1.5058-.6133-2.3754-.9156h-.0002c-.1881-.0655-.37938-.1319-.57334-.2003-2.50261-.8931-3.77184-2.5391-3.70037-4.44286.00023-.00625.00035-.0125.00035-.01876 0-.24648.00429-.39698.05418-.53936zm-2.68793 4.21948c0-1.2789.61032-2.4906 1.63234-3.36623.06366 2.32273 1.7268 4.14823 4.36633 5.08993l.00184.0007c.20569.0724.40469.1417.5974.2087l.00111.0004h.00004c.86685.3016 1.60635.5589 2.25405.867.7773.3697 1.382.7956 1.8536 1.4168l.001.0013c.5915.7738.8893 1.6136.9671 2.5352-.0063 1.2761-.62 2.4838-1.6433 3.3556-.1535-2.4082-2.1159-4.1532-4.2815-4.8674-2.9502-1.0137-3.97858-1.6024-4.8697-2.7328l-.00997-.0122c-.57423-.6829-.87034-1.5831-.87034-2.497z" fill="#92a0a9" fill-rule="evenodd"/></svg>