<svg fill="none" height="60" viewBox="0 0 60 60" width="60" xmlns="http://www.w3.org/2000/svg"><rect fill="#f1f3fa" height="58" rx="19" stroke="#2d3436" stroke-width="2" width="58" x="1" y="1"/><rect fill="#d9eef9" height="16" rx="5" width="16" x="13" y="13"/><path d="m17 20v8h8l2-1 1-2v-8h-8c-1.6569 0-3 1.3431-3 3z" fill="#f0faff"/><rect height="14" rx="4" stroke="#2d3436" stroke-width="2" width="14" x="14" y="14"/><rect fill="#d9eef9" height="16" rx="5" width="16" x="13" y="31"/><path d="m17 38v8h8l2-1 1-2v-8h-8c-1.6569 0-3 1.3431-3 3z" fill="#f0faff"/><rect height="14" rx="4" stroke="#2d3436" stroke-width="2" width="14" x="14" y="32"/><rect fill="#d9eef9" height="16" rx="5" width="16" x="31" y="31"/><path d="m35 38v8h8l2-1 1-2v-8h-8c-1.6569 0-3 1.3431-3 3z" fill="#f0faff"/><rect height="14" rx="4" stroke="#2d3436" stroke-width="2" width="14" x="32" y="32"/><rect fill="#d9eef9" height="16" rx="5" width="16" x="31" y="13"/><path d="m35 20v8h8l2-1 1-2v-8h-8c-1.6569 0-3 1.3431-3 3z" fill="#f0faff"/><rect height="14" rx="4" stroke="#2d3436" stroke-width="2" width="14" x="32" y="14"/></svg>