<svg fill="none" height="60" viewBox="0 0 60 60" width="60" xmlns="http://www.w3.org/2000/svg"><rect fill="#f1f3fa" height="58" rx="19" stroke="#2d3436" stroke-width="2" width="58" x="1" y="1"/><path d="m19.4445 14.4444h22.2222c2.7614 0 5 2.2386 5 5v13.8889l-12.2222 12.2223h-15c-2.7615 0-5-2.2386-5-5v-21.1112c0-2.7614 2.2385-5 5-5z" fill="#f0faff"/><g stroke="#d9eef9" stroke-width="3"><path d="m21.6667 22.7778h19.1667"/><path d="m21.6667 29.4444h19.1667"/><path d="m21.6667 36.1111h7.2222"/></g><path d="m46.1111 34.7222v-11.8333c0-4.9706-4.0294-9-9-9h-13.6666c-4.9706 0-9 4.0294-9 9v13.6667c0 4.9705 4.0294 9 9 9h11.8333m10.8333-10.8334h-1.8333c-4.9706 0-9 4.0295-9 9v1.8334m10.8333-10.8334-10.8333 10.8334m-15-24.1667h20m-20 6.6667h20m-20 6.6666h10" stroke="#2d3436" stroke-linejoin="round" stroke-width="2"/></svg>