<svg fill="none" height="60" viewBox="0 0 60 60" width="60" xmlns="http://www.w3.org/2000/svg"><rect fill="#f1f3fa" height="58" rx="19" stroke="#2d3436" stroke-width="2" width="58" x="1" y="1"/><path clip-rule="evenodd" d="m34.9585 41.6808c0-.4602.3731-.8333.8333-.8333h1.5262c.4603 0 .8334.3731.8334.8333 0 .4603-.3731.8334-.8334.8334h-1.5262c-.4602 0-.8333-.3731-.8333-.8334z" fill="#2d3436" fill-rule="evenodd"/><path clip-rule="evenodd" d="m34.9585 37.0544c0-.4602.3731-.8333.8333-.8333h1.5262c.4603 0 .8334.3731.8334.8333 0 .4603-.3731.8334-.8334.8334h-1.5262c-.4602 0-.8333-.3731-.8333-.8334z" fill="#2d3436" fill-rule="evenodd"/><path clip-rule="evenodd" d="m30.2882 36.2867c.6677.1355 1.188.4723 1.6096.8939.4607.4607.7215.9935.8461 1.6098.1328.6066.0627 1.2617-.1969 1.8457-.2379.5354-.6186 1.0677-1.1784 1.4175-.4965.3104-1.0769.5082-1.7294.5082-.7974 0-1.6183-.2515-2.2411-.9435-.5525-.6139-.8816-1.3803-.8816-2.2268 0-.5965.1931-1.2251.5083-1.7294.3498-.5598.8821-.9404 1.4175-1.1784.5839-.2595 1.2391-.3298 1.8459-.197zm-.3528 1.6289c-.2493-.0554-.5445-.0296-.8162.0911-.3232.1437-.554.3353-.6811.5387-.1617.2588-.2549.584-.2549.8461 0 .3935.1478.7719.4538 1.1118.2357.2619.5596.3919 1.0022.3919.3015 0 .5796-.0883.8461-.2549.2034-.1271.3951-.3579.5387-.6811.1207-.2716.1464-.5668.091-.8162-.0013-.0058-.0025-.0115-.0037-.0173-.0668-.3341-.1871-.5617-.392-.7666-.2443-.2443-.4844-.3834-.7665-.4398-.0058-.0012-.0116-.0024-.0174-.0037z" fill="#2d3436" fill-rule="evenodd"/><path clip-rule="evenodd" d="m42.3512 34.0973c0-.4602.3731-.8333.8333-.8333h4.6264c.4602 0 .8333.3731.8333.8333 0 .4603-.3731.8334-.8333.8334h-4.6264c-.4602 0-.8333-.3731-.8333-.8334z" fill="#d9eef9" fill-rule="evenodd"/><path clip-rule="evenodd" d="m11.5881 34.0973c0-.4602.3731-.8333.8333-.8333h4.6264c.4602 0 .8333.3731.8333.8333 0 .4603-.3731.8334-.8333.8334h-4.6264c-.4602 0-.8333-.3731-.8333-.8334z" fill="#d9eef9" fill-rule="evenodd"/><path clip-rule="evenodd" d="m32.4054 21.9127c.4603 0 .8334.3731.8334.8333v3.1955c0 .4603-.3731.8334-.8334.8334-.4602 0-.8333-.3731-.8333-.8334v-3.1955c0-.4602.3731-.8333.8333-.8333z" fill="#d9eef9" fill-rule="evenodd"/><path clip-rule="evenodd" d="m27.7791 21.9127c.4602 0 .8333.3731.8333.8333v3.1955c0 .4603-.3731.8334-.8333.8334-.4603 0-.8334-.3731-.8334-.8334v-3.1955c0-.4602.3731-.8333.8334-.8333z" fill="#d9eef9" fill-rule="evenodd"/><path d="m32.5486 22.746h-4.7695v4.7695h4.7695z" fill="#f0faff"/><path d="m42.7076 31.5695v12.4484c0 .8108-.3339 1.6216-.9062 2.1939-.5723.5724-1.3832.9062-2.194.9062h-20.0318c-.8108 0-1.5739-.3338-2.1463-.9062-.5723-.5723-.9061-1.3831-.9061-2.1939v-12.4484s2.5278-6.2003 13.0683-6.2003 13.1161 6.2003 13.1161 6.2003z" fill="#d9eef9"/><path d="m34.5041 30.1387c-10.4928 0-13.0684 6.2003-13.0684 6.2003v10.779h17.8379c.8108 0 1.6215-.3338 2.1939-.9062.5723-.5723.9062-1.3831.9062-2.1939v-12.353c-1.9078-.9062-4.4833-1.5262-7.8696-1.5262z" fill="#f0faff"/><path clip-rule="evenodd" d="m34.9585 42.6347c0-.4602.3731-.8333.8333-.8333h1.5262c.4603 0 .8334.3731.8334.8333 0 .4603-.3731.8334-.8334.8334h-1.5262c-.4602 0-.8333-.3731-.8333-.8334z" fill="#d9eef9" fill-rule="evenodd"/><path clip-rule="evenodd" d="m34.9585 38.0083c0-.4602.3731-.8333.8333-.8333h1.5262c.4603 0 .8334.3731.8334.8333 0 .4603-.3731.8334-.8334.8334h-1.5262c-.4602 0-.8333-.3731-.8333-.8334z" fill="#d9eef9" fill-rule="evenodd"/><path d="m29.6393 42.6824c.4769 0 .9061-.1431 1.2877-.3815.3815-.2385.6677-.6201.8585-1.0493.1908-.4293.2384-.9062.143-1.3355-.0954-.4769-.2861-.8585-.6199-1.1923-.3339-.3339-.7155-.5724-1.1924-.6678-.4293-.0954-.9062-.0477-1.3355.1431-.4292.1908-.8108.477-1.0492.8585-.2385.3816-.3816.8585-.3816 1.2878 0 .62.2384 1.1924.6677 1.6693.4292.477 1.0016.6677 1.6217.6677z" fill="#f0faff"/><g clip-rule="evenodd" fill-rule="evenodd"><path d="m16.2144 32.5234c0-.4602.3731-.8333.8334-.8333h26.1367c.4603 0 .8333.3731.8333.8333 0 .4603-.373.8334-.8333.8334h-26.1367c-.4603 0-.8334-.3731-.8334-.8334z" fill="#d9eef9"/><path d="m25.4196 22.746c0-.4602.3731-.8333.8333-.8333h7.6789c.4602 0 .8333.3731.8333.8333s-.3731.8333-.8333.8333h-7.6789c-.4602 0-.8333-.3731-.8333-.8333z" fill="#d9eef9"/><path d="m33.7409 19.8675c-.0356 0-.0645.0289-.0645.0645s.0289.0645.0645.0645.0645-.0289.0645-.0645-.0288-.0645-.0645-.0645zm-1.1756.0645c0-.6493.5264-1.1756 1.1756-1.1756s1.1756.5263 1.1756 1.1756-.5263 1.1756-1.1756 1.1756c-.6492 0-1.1756-.5263-1.1756-1.1756z" fill="#d9eef9"/><path d="m30.4977 19.8675c-.0355 0-.0644.0288-.0644.0645 0 .0358.0289.0645.0644.0645.0356 0 .0645-.0289.0645-.0645s-.0289-.0645-.0645-.0645zm-1.1755.0645c0-.6492.5261-1.1756 1.1755-1.1756.6492 0 1.1756.5263 1.1756 1.1756s-.5264 1.1756-1.1756 1.1756c-.6494 0-1.1755-.5265-1.1755-1.1756z" fill="#d9eef9"/><path d="m27.2068 19.8675c-.0357 0-.0645.0289-.0645.0645s.0289.0645.0645.0645.0645-.0289.0645-.0645-.0289-.0645-.0645-.0645zm-1.1756.0645c0-.6493.5263-1.1756 1.1756-1.1756.6492 0 1.1756.5263 1.1756 1.1756s-.5264 1.1756-1.1756 1.1756c-.6493 0-1.1756-.5263-1.1756-1.1756z" fill="#d9eef9"/><path d="m32.5486 16.8628c-.0357 0-.0645.0289-.0645.0644 0 .0356.0288.0645.0645.0645.0356 0 .0645-.0289.0645-.0645 0-.0355-.0289-.0644-.0645-.0644zm-1.1756.0644c0-.6492.5263-1.1755 1.1756-1.1755.6492 0 1.1756.5263 1.1756 1.1755 0 .6493-.5264 1.1756-1.1756 1.1756-.6493 0-1.1756-.5263-1.1756-1.1756z" fill="#d9eef9"/><path d="m29.2577 16.8628c-.0357 0-.0645.0289-.0645.0644 0 .0356.0288.0645.0645.0645.0356 0 .0645-.0289.0645-.0645 0-.0355-.0289-.0644-.0645-.0644zm-1.1756.0644c0-.6492.5263-1.1755 1.1756-1.1755.6492 0 1.1756.5263 1.1756 1.1755 0 .6493-.5264 1.1756-1.1756 1.1756-.6493 0-1.1756-.5263-1.1756-1.1756z" fill="#d9eef9"/><path d="m25.9667 16.8628c-.0355 0-.0644.0287-.0644.0644 0 .0358.0289.0645.0644.0645.0356 0 .0645-.0289.0645-.0645 0-.0355-.0289-.0644-.0645-.0644zm-1.1755.0644c0-.6491.5261-1.1755 1.1755-1.1755.6492 0 1.1756.5263 1.1756 1.1755 0 .6493-.5264 1.1756-1.1756 1.1756-.6494 0-1.1755-.5264-1.1755-1.1756z" fill="#d9eef9"/><path d="m33.7409 13.8103c-.0356 0-.0645.0289-.0645.0645s.0289.0645.0645.0645c.0357 0 .0645-.0289.0645-.0645s-.0289-.0645-.0645-.0645zm-1.1756.0645c0-.6493.5264-1.1756 1.1756-1.1756.6493 0 1.1756.5263 1.1756 1.1756s-.5264 1.1756-1.1756 1.1756-1.1756-.5263-1.1756-1.1756z" fill="#d9eef9"/><path d="m30.4977 13.8103c-.0355 0-.0644.0288-.0644.0645s.0289.0645.0644.0645c.0356 0 .0645-.0289.0645-.0645s-.0289-.0645-.0645-.0645zm-1.1755.0645c0-.6491.5261-1.1756 1.1755-1.1756.6492 0 1.1756.5263 1.1756 1.1756s-.5264 1.1756-1.1756 1.1756c-.6494 0-1.1755-.5264-1.1755-1.1756z" fill="#d9eef9"/><path d="m27.2068 13.8103c-.0356 0-.0645.0289-.0645.0645s.0288.0645.0645.0645c.0356 0 .0645-.0289.0645-.0645s-.0289-.0645-.0645-.0645zm-1.1756.0645c0-.6493.5263-1.1756 1.1756-1.1756.6492 0 1.1756.5263 1.1756 1.1756s-.5264 1.1756-1.1756 1.1756c-.6493 0-1.1756-.5263-1.1756-1.1756z" fill="#d9eef9"/></g><g fill="#2d3436"><g clip-rule="evenodd" fill-rule="evenodd"><path d="m34.9585 41.6808c0-.4602.3731-.8333.8333-.8333h1.5262c.4603 0 .8334.3731.8334.8333 0 .4603-.3731.8334-.8334.8334h-1.5262c-.4602 0-.8333-.3731-.8333-.8334z"/><path d="m34.9585 37.0544c0-.4602.3731-.8333.8333-.8333h1.5262c.4603 0 .8334.3731.8334.8333 0 .4603-.3731.8334-.8334.8334h-1.5262c-.4602 0-.8333-.3731-.8333-.8334z"/><path d="m30.2882 36.2867c.6677.1355 1.188.4723 1.6096.8939.4607.4607.7215.9935.8461 1.6098.1328.6066.0627 1.2617-.1969 1.8457-.2379.5354-.6186 1.0677-1.1784 1.4175-.4965.3104-1.0769.5082-1.7294.5082-.7974 0-1.6183-.2515-2.2411-.9435-.5525-.6139-.8816-1.3803-.8816-2.2268 0-.5965.1931-1.2251.5083-1.7294.3498-.5598.8821-.9404 1.4175-1.1784.5839-.2595 1.2391-.3298 1.8459-.197zm-.3528 1.6289c-.2493-.0554-.5445-.0296-.8162.0911-.3232.1437-.554.3353-.6811.5387-.1617.2588-.2549.584-.2549.8461 0 .3935.1478.7719.4538 1.1118.2357.2619.5596.3919 1.0022.3919.3015 0 .5796-.0883.8461-.2549.2034-.1271.3951-.3579.5387-.6811.1207-.2716.1464-.5668.091-.8162-.0013-.0058-.0025-.0115-.0037-.0173-.0668-.3341-.1871-.5617-.392-.7666-.2443-.2443-.4844-.3834-.7665-.4398-.0058-.0012-.0116-.0024-.0174-.0037z"/><path d="m41.8742 33.1435c0-.4603.3731-.8334.8334-.8334h4.6263c.4603 0 .8334.3731.8334.8334 0 .4602-.3731.8333-.8334.8333h-4.6263c-.4603 0-.8334-.3731-.8334-.8333z"/><path d="m11.1111 33.1435c0-.4603.3731-.8334.8333-.8334h4.6264c.4603 0 .8333.3731.8333.8334 0 .4602-.373.8333-.8333.8333h-4.6264c-.4602 0-.8333-.3731-.8333-.8333z"/><path d="m31.9285 21.4357c.4602 0 .8333.3731.8333.8333v3.1956c0 .4602-.3731.8333-.8333.8333-.4603 0-.8333-.3731-.8333-.8333v-3.1956c0-.4602.373-.8333.8333-.8333z"/><path d="m27.3021 21.4357c.4603 0 .8334.3731.8334.8333v3.1956c0 .4602-.3731.8333-.8334.8333-.4602 0-.8333-.3731-.8333-.8333v-3.1956c0-.4602.3731-.8333.8333-.8333z"/><path d="m17.3565 31.7554v12.2625c0 .5914.2472 1.1897.6621 1.6047.4248.4248.9793.6621 1.557.6621h20.0318c.5914 0 1.1898-.2472 1.6047-.6621.415-.415.6621-1.0133.6621-1.6047v-12.2596c-.0096-.0186-.0203-.039-.0321-.061-.0769-.1433-.2019-.3575-.3848-.6193-.3657-.5234-.9627-1.2364-1.8718-1.9548-1.806-1.4272-4.9004-2.9206-9.994-2.9206s-8.1751 1.4933-9.9682 2.9191c-.9027.7177-1.4936 1.43-1.8549 1.9528-.1807.2615-.3038.4754-.3794.6184-.012.0226-.0228.0435-.0325.0625zm25.351-.1859.7696-.3196c.0421.1013.0638.2099.0638.3196v12.4484c0 1.0302-.4205 2.0535-1.1503 2.7832-.7297.7297-1.753 1.1503-2.7832 1.1503h-20.0318c-1.0439 0-2.0157-.4305-2.7355-1.1503-.7298-.7297-1.1503-1.753-1.1503-2.7832v-12.4484c0-.1078.021-.2147.0617-.3146l.7717.3146c-.7717-.3146-.7715-.3151-.7712-.3157l.0005-.0013.0013-.0031.0033-.0078.0095-.0223c.0078-.0178.0183-.0414.0317-.0704.0269-.0579.0656-.1374.1175-.2355.1038-.1961.2605-.4666.4815-.7864.4421-.6398 1.1419-1.4775 2.1887-2.3099 2.1059-1.6744 5.5586-3.2812 11.0055-3.2812s8.9105 1.6067 11.0274 3.2797c1.0524.8317 1.7581 1.6687 2.2046 2.3078.2233.3195.3819.5897.487.7856.0526.0979.0918.1774.1191.2352.0137.0289.0244.0524.0322.0701l.0097.0223.0033.0078.0013.003.0005.0013c.0003.0006.0005.0012-.7691.3208z"/><path d="m15.7375 31.5695c0-.4602.3731-.8333.8333-.8333h26.1368c.4602 0 .8333.3731.8333.8333 0 .4603-.3731.8334-.8333.8334h-26.1368c-.4602 0-.8333-.3731-.8333-.8334z"/><path d="m24.9426 22.269c0-.4602.3731-.8333.8333-.8333h7.6789c.4603 0 .8334.3731.8334.8333 0 .4603-.3731.8334-.8334.8334h-7.6789c-.4602 0-.8333-.3731-.8333-.8334z"/></g><path d="m32.3101 20.0751c.3424 0 .62-.2776.62-.62 0-.3425-.2776-.6201-.62-.6201s-.6201.2776-.6201.6201c0 .3424.2777.62.6201.62z"/><path clip-rule="evenodd" d="m32.3101 19.3906c-.0357 0-.0645.0289-.0645.0645s.0289.0645.0645.0645.0645-.0289.0645-.0645-.0289-.0645-.0645-.0645zm-1.1756.0645c0-.6493.5263-1.1756 1.1756-1.1756.6492 0 1.1756.5263 1.1756 1.1756 0 .6492-.5264 1.1756-1.1756 1.1756-.6493 0-1.1756-.5264-1.1756-1.1756z" fill-rule="evenodd"/><path d="m29.0668 20.0751c.3424 0 .6201-.2776.6201-.62 0-.3425-.2777-.6201-.6201-.6201s-.6199.2776-.6199.6201c0 .3424.2775.62.6199.62z"/><path clip-rule="evenodd" d="m29.0668 19.3906c-.0355 0-.0644.0288-.0644.0645s.0289.0645.0644.0645c.0356 0 .0645-.0289.0645-.0645s-.0288-.0645-.0645-.0645zm-1.1755.0645c0-.6492.5262-1.1756 1.1755-1.1756.6492 0 1.1756.5263 1.1756 1.1756 0 .6492-.5263 1.1756-1.1756 1.1756-.6494 0-1.1755-.5265-1.1755-1.1756z" fill-rule="evenodd"/><path d="m25.7759 20.0751c.3425 0 .6201-.2776.6201-.62 0-.3425-.2776-.6201-.6201-.6201-.3424 0-.62.2776-.62.6201 0 .3424.2776.62.62.62z"/><path clip-rule="evenodd" d="m25.7759 19.3906c-.0356 0-.0645.0289-.0645.0645s.0289.0645.0645.0645.0645-.0289.0645-.0645-.0288-.0645-.0645-.0645zm-1.1756.0645c0-.6493.5264-1.1756 1.1756-1.1756s1.1756.5263 1.1756 1.1756c0 .6492-.5263 1.1756-1.1756 1.1756-.6492 0-1.1756-.5264-1.1756-1.1756z" fill-rule="evenodd"/><path d="m31.1177 17.0703c.3424 0 .6201-.2776.6201-.62s-.2777-.62-.6201-.62-.62.2776-.62.62.2776.62.62.62z"/><path clip-rule="evenodd" d="m31.1177 16.3858c-.0356 0-.0645.0289-.0645.0645s.0289.0645.0645.0645c.0357 0 .0645-.0289.0645-.0645s-.0288-.0645-.0645-.0645zm-1.1756.0645c0-.6493.5264-1.1756 1.1756-1.1756s1.1756.5263 1.1756 1.1756-.5264 1.1756-1.1756 1.1756-1.1756-.5263-1.1756-1.1756z" fill-rule="evenodd"/><path d="m27.8268 17.0703c.3424 0 .6201-.2776.6201-.62s-.2777-.62-.6201-.62-.62.2776-.62.62.2776.62.62.62z"/><path clip-rule="evenodd" d="m27.8268 16.3858c-.0356 0-.0645.0289-.0645.0645s.0289.0645.0645.0645c.0357 0 .0645-.0289.0645-.0645s-.0288-.0645-.0645-.0645zm-1.1756.0645c0-.6493.5264-1.1756 1.1756-1.1756.6493 0 1.1756.5263 1.1756 1.1756s-.5263 1.1756-1.1756 1.1756c-.6492 0-1.1756-.5263-1.1756-1.1756z" fill-rule="evenodd"/><path d="m24.5358 17.0703c.3425 0 .6201-.2776.6201-.62s-.2776-.62-.6201-.62c-.3424 0-.6199.2776-.6199.62s.2775.62.6199.62z"/><path clip-rule="evenodd" d="m24.5358 16.3858c-.0355 0-.0644.0288-.0644.0645s.0289.0645.0644.0645c.0357 0 .0645-.0289.0645-.0645s-.0288-.0645-.0645-.0645zm-1.1755.0645c0-.6492.5262-1.1756 1.1755-1.1756.6492 0 1.1756.5263 1.1756 1.1756s-.5264 1.1756-1.1756 1.1756c-.6493 0-1.1755-.5265-1.1755-1.1756z" fill-rule="evenodd"/><path d="m32.3101 14.0179c.3424 0 .62-.2776.62-.6201 0-.3424-.2776-.62-.62-.62s-.6201.2776-.6201.62c0 .3425.2777.6201.6201.6201z"/><path clip-rule="evenodd" d="m32.3101 13.3333c-.0356 0-.0645.0289-.0645.0645s.0288.0645.0645.0645c.0356 0 .0645-.0289.0645-.0645s-.0289-.0645-.0645-.0645zm-1.1756.0645c0-.6492.5263-1.1756 1.1756-1.1756.6492 0 1.1756.5264 1.1756 1.1756 0 .6493-.5264 1.1756-1.1756 1.1756-.6493 0-1.1756-.5263-1.1756-1.1756z" fill-rule="evenodd"/><path d="m29.0668 14.0179c.3424 0 .6201-.2776.6201-.6201 0-.3424-.2777-.62-.6201-.62s-.6199.2776-.6199.62c0 .3425.2775.6201.6199.6201z"/><path clip-rule="evenodd" d="m29.0668 13.3333c-.0355 0-.0644.0288-.0644.0645 0 .0358.0289.0645.0644.0645.0357 0 .0645-.0289.0645-.0645s-.0289-.0645-.0645-.0645zm-1.1755.0645c0-.6491.5261-1.1756 1.1755-1.1756.6493 0 1.1756.5264 1.1756 1.1756 0 .6493-.5264 1.1756-1.1756 1.1756-.6493 0-1.1755-.5264-1.1755-1.1756z" fill-rule="evenodd"/><path d="m25.7759 14.0179c.3425 0 .6201-.2776.6201-.6201 0-.3424-.2776-.62-.6201-.62-.3424 0-.62.2776-.62.62 0 .3425.2776.6201.62.6201z"/><path clip-rule="evenodd" d="m25.7759 13.3333c-.0356 0-.0645.0289-.0645.0645s.0289.0645.0645.0645c.0357 0 .0645-.0289.0645-.0645s-.0289-.0645-.0645-.0645zm-1.1756.0645c0-.6492.5264-1.1756 1.1756-1.1756.6493 0 1.1756.5264 1.1756 1.1756 0 .6493-.5264 1.1756-1.1756 1.1756s-1.1756-.5263-1.1756-1.1756z" fill-rule="evenodd"/></g></svg>