<svg fill="none" height="60" viewBox="0 0 60 60" width="60" xmlns="http://www.w3.org/2000/svg"><rect fill="#f1f3fa" height="58" rx="19" stroke="#2d3436" stroke-width="2" width="58" x="1" y="1"/><path d="m46.1537 18.3664-4.9484 4.9484h-4.4727v-4.5202l4.9485-4.9484c-3.7113-1.8081-8.2315-1.0468-11.1816 1.9508-2.9976 2.9976-3.5685 7.4703-1.6653 11.1816l-15.0832 15.0833c-1.1896 1.1895-1.0468 2.9976 0 4.1871 1.1895 1.1896 2.9975 1.1896 4.187 0l15.0834-15.0832c3.7113 1.9508 8.2315 1.1895 11.1816-1.6654 2.9976-2.8073 3.7588-7.4227 1.9507-11.134z" fill="#d9eef9"/><path d="m47.0579 23.6003-.6186.6186h-4.4727v-1.713l-.7612.7614h-4.4727v-4.4727l4.8534-4.8533c-2.1888.2379-4.2824 1.1895-5.9002 2.8549-2.9976 2.9976-3.5686 7.4703-1.6653 11.1816l-15.0833 15.0833c-.8089.8089-.9992 1.9032-.7137 2.9024l14.7502-14.7502c1.6178.8565 3.4259 1.1896 5.1388 1.0468l.0951-.0952c.0476.0476.0952.0476.1428.0952 2.1412-.2379 4.1871-1.1419 5.8049-2.6645 1.7129-1.6178 2.6646-3.759 2.9025-5.9953z" fill="#f0faff"/><path clip-rule="evenodd" d="m30.0524 15.3888c3.2002-3.2498 8.1047-4.0781 12.1381-2.1131.2422.118.4124.3458.4569.6115s-.0421.5365-.2326.727l-4.7045 4.7043v3.3418h3.2942l4.7044-4.7044c.1915-.1916.4643-.2781.7312-.2319.267.0461.4948.2192.6109.464 1.9029 4.0115 1.1487 9.0207-2.129 12.0947-3.0525 2.9502-7.6601 3.843-11.5871 2.0712l-14.6632 14.6631c-1.515 1.515-3.8506 1.515-5.3656 0-.0125-.0125-.0246-.0254-.0363-.0387-1.2796-1.454-1.5223-3.7684.0363-5.3269l14.6666-14.6667c-1.7338-3.9017-1.0367-8.4777 2.0797-11.5959zm10.2957-1.065c-3.1455-1.0283-6.6997-.213-9.1102 2.2365l-.0047.0047c-2.7284 2.7284-3.26 6.8056-1.5131 10.2121.1651.3219.1036.7137-.1523.9695l-15.0832 15.0833c-.8145.8145-.7783 2.1035.0188 3.0272.8637.8455 2.1319.8393 2.9898-.0186l15.0833-15.0833c.258-.258.654-.3181.977-.1483 3.3797 1.7765 7.5122 1.0884 10.2143-1.5266l.0099-.0094c2.4202-2.2665 3.2158-5.8676 2.2118-9.0386l-4.0505 4.0505c-.1563.1563-.3683.2441-.5893.2441h-4.4727c-.4602 0-.8333-.3731-.8333-.8333v-4.5202c0-.221.0878-.433.244-.5893z" fill="#2d3436" fill-rule="evenodd"/></svg>