<svg fill="none" height="60" viewBox="0 0 60 60" width="60" xmlns="http://www.w3.org/2000/svg"><rect fill="#f1f3fa" height="58" rx="19" stroke="#2d3436" stroke-width="2" width="58" x="1" y="1"/><path d="m29.984 14c-2.1496-.0033-4.2772.432-6.2528 1.2793-1.9755.8474-3.7574 2.0889-5.2365 3.6487 9.36-1.1666 15.2013-.7773 17.7187-.4533 5.0026.7773 4.744 4.5387 4.744 4.5387l-15.9747 16.4693c3.0653.2933 9.196.488 18.3947-.8413 1.6667-2.5678 2.5523-5.5641 2.5493-8.6254 0-8.8506-7.1333-16.016-15.9427-16.016zm.3094 5.7467c-3.268-.0187-7.696.1947-13.284.964-1.8707 2.6267-2.936 5.836-2.936 9.3053 0 8.8187 7.1 15.984 15.9106 15.984 4.84 0 9.1334-2.1733 12.0707-5.576-9.7147 1.264-15.7507.8414-18.3333.5174-5.0334-.7467-4.7427-4.5387-4.7427-4.5387l15.9427-16.4373c-1.5387-.1419-3.0829-.2144-4.628-.2174z" fill="#2d3436"/></svg>