<svg fill="none" height="15" viewBox="0 0 15 15" width="15" xmlns="http://www.w3.org/2000/svg"><g fill="#92a0a9"><path d="m7.5-.00097656c.27614 0 .5.22385756.5.49999956v1.262567c0 .27614-.22386.5-.5.5s-.5-.22386-.5-.5v-1.262567c0-.276142.22386-.49999956.5-.49999956z"/><path d="m2.20895 2.21187c.19526-.19526.51185-.19525.70711.00001l.91821.91823c.19526.19526.19526.51185-.00001.70711-.19526.19526-.51184.19525-.7071-.00001l-.91822-.91823c-.19526-.19526-.19525-.51185.00001-.70711z"/><path d="m.5 7.00098c-.276142 0-.5.22385-.5.5 0 .27614.223858.5.5.5h1.26254c.27615 0 .5-.22386.5-.5 0-.27615-.22385-.5-.5-.5z"/><path d="m3.83426 11.2793c.19527.1952.19527.5118.00001.7071l-.91821.9182c-.19526.1953-.51185.1953-.70711 0s-.19527-.5118-.00001-.7071l.91822-.9182c.19526-.1953.51184-.1953.7071 0z"/><path d="m8 13.2383c0-.2762-.22386-.5-.5-.5s-.5.2238-.5.5v1.2625c0 .2762.22386.5.5.5s.5-.2238.5-.5z"/><path d="m11.2793 11.2793c.1952-.1953.5118-.1953.7071 0l.9182.9182c.1952.1953.1952.5118 0 .7071-.1953.1953-.5119.1953-.7071 0l-.9182-.9182c-.1953-.1953-.1953-.5119 0-.7071z"/><path d="m13.2383 7.00098c-.2762 0-.5.22385-.5.5 0 .27614.2238.5.5.5h1.2625c.2762 0 .5-.22386.5-.5 0-.27615-.2238-.5-.5-.5z"/><path d="m12.9046 2.21187c.1952.19526.1952.51185 0 .70711l-.9182.91823c-.1953.19526-.5119.19527-.7071.00001-.1953-.19526-.1953-.51185 0-.70711l.9182-.91823c.1952-.19526.5118-.19527.7071-.00001z"/><path clip-rule="evenodd" d="m7.52109 3.61914c-2.09179 0-3.9 1.69354-3.9 3.94266 0 2.27282 1.83283 3.8197 3.9 3.8197 2.09179 0 3.90001-1.69353 3.90001-3.94265 0-2.2615-1.69948-3.81971-3.90001-3.81971zm-2.9 3.94266c0-1.68535 1.34894-2.94266 2.9-2.94266 1.68519 0 2.90001 1.14673 2.90001 2.81971 0 1.68534-1.34894 2.94265-2.90001 2.94265-1.57567 0-2.9-1.15806-2.9-2.8197z" fill-rule="evenodd"/></g></svg>