<svg fill="none" height="25" viewBox="0 0 25 25" width="25" xmlns="http://www.w3.org/2000/svg"><g stroke="#18303f" stroke-linecap="round" stroke-linejoin="round"><path d="m3.30078 12.066c0-.9569.78291-1.7398 1.7398-1.7398h5.65432l-3.15456 3.4199 3.06126 4-1.50004 2.5 1.59334 2.2586h-3.15456c-2.20677 0-4.23956-2.0328-4.23956-4.2395z"/><path d="m10.6985 2.49609c-2.60969 0-4.78444 2.17475-4.78444 4.78444v3.04467"/><path d="m21.6992 12.066c0-.9569-.7829-1.7398-1.7398-1.7398h-5.6543l-2.8454 3.4199 2.9387 4-1.5 2.5 1.4067 2.2586h3.1546c2.2067 0 4.2395-2.0328 4.2395-4.2395z"/><path d="m14.3015 2.49609c2.6097 0 4.7844 2.17475 4.7844 4.78444v3.04467"/></g></svg>