<svg fill="none" height="25" viewBox="0 0 25 25" width="25" xmlns="http://www.w3.org/2000/svg"><g fill="#92a0a9"><path d="m18.8516 14.8867c0 .2762-.2239.5-.5.5-.2762 0-.5-.2238-.5-.5 0-.2761.2238-.5.5-.5.2761 0 .5.2239.5.5z"/><path d="m16.8477 14.8867c.2761 0 .5-.2238.5-.5 0-.2761-.2239-.5-.5-.5-.2762 0-.5.2239-.5.5 0 .2762.2238.5.5.5z"/><path clip-rule="evenodd" d="m18.3523.550293c-.2119 0-.3688.102809-.4462.160894-.078.058477-.149.129567-.1922.172863l-.0075.007567c-.0308.030755-.0574.065393-.0792.103034-.0737.127279-.1607.276429-.2588.444639-.6106 1.04679-1.6515 2.83137-2.5918 4.6696-.5459 1.06709-1.063 2.16227-1.4449 3.15041-.3754.9714-.6442 1.8986-.6442 2.6072 0 3.102 2.5626 5.6645 5.6648 5.6645 3.1021 0 5.6647-2.5625 5.6647-5.6645 0-.7081-.2685-1.641-.6437-2.61967-.3818-.99563-.8988-2.0999-1.4449-3.17345-1.0925-2.14811-2.3181-4.20687-2.8572-5.088936-.0206-.033722-.0451-.064882-.0731-.092827l-.0075-.007515c-.0432-.04329-.1142-.114413-.1922-.172914-.0774-.058085-.2343-.160895-.4461-.160895zm-.1225 1.397047.1256-.21547c.5844.96533 1.6903 2.84561 2.6817 4.79484.5381 1.05802 1.0381 2.12795 1.4025 3.07814.3708.96715.5774 1.75165.5774 2.26165 0 2.5497-2.1149 4.6645-4.6647 4.6645-2.5499 0-4.6648-2.1148-4.6648-4.6645 0-.5094.2063-1.2875.577-2.24672.3642-.94245.8641-2.00321 1.4024-3.05549.9263-1.81103 1.9511-3.56803 2.5629-4.61695z" fill-rule="evenodd"/><path d="m7.1875 21.8945c0 .2762-.22386.5-.5.5s-.5-.2238-.5-.5c0-.2761.22386-.5.5-.5s.5.2239.5.5z"/><path d="m5.18359 21.8945c.27615 0 .5-.2238.5-.5 0-.2761-.22385-.5-.5-.5-.27614 0-.5.2239-.5.5 0 .2762.22386.5.5.5z"/><path clip-rule="evenodd" d="m6.76241 7.46729c-.21186 0-.36871.10281-.44616.16089-.07801.0585-.14901.12963-.19223.17292l-.0075.00751c-.03076.03076-.05737.06539-.07916.10303-.07375.12738-.16083.27668-.25904.44505-.61059 1.04679-1.65129 2.83101-2.59158 4.66921-.54584 1.0671-1.06302 2.1623-1.44489 3.1504-.3754.9714-.64419 1.8986-.64419 2.6072 0 3.102 2.56264 5.6645 5.66475 5.6645 3.09888 0 5.65939-2.5572 5.66479-5.6548.0258-.7143-.2253-1.6491-.587-2.6242-.3701-.9979-.8819-2.1039-1.4285-3.1786-1.05786-2.08-2.26501-4.07955-2.88148-5.01584-.09994-.36018-.48451-.50727-.76781-.50727zm-.12249 1.39705.1307-.22421c.61616.94868 1.75084 2.83957 2.74973 4.80357.53745 1.0568 1.03065 2.1251 1.38225 3.073.3583.966.5451 1.7444.525 2.2468-.0003.0067-.0004.0133-.0004.02 0 2.5497-2.11491 4.6645-4.66479 4.6645s-4.66475-2.1148-4.66475-4.6645c0-.5094.20627-1.2875.57695-2.2467.36422-.9425.86415-2.0032 1.40242-3.0555.92637-1.811 1.95112-3.56804 2.56289-4.61696z" fill-rule="evenodd"/></g></svg>