<svg fill="none" height="25" viewBox="0 0 25 25" width="25" xmlns="http://www.w3.org/2000/svg"><circle r="12" stroke="#2d3436" transform="matrix(-1 0 0 1 12.4999 12.5)"/><g clip-rule="evenodd" fill="#2d3436" fill-rule="evenodd"><path d="m11.6667 0c-.2997 0-.5902.0395514-.8664.113719-.2508.067313-.5164.067313-.7672 0-.27624-.0741676-.5667-.113719-.8664-.113719-1.84094 0-3.33333 1.49238-3.33333 3.33333 0 1.0996.53244 2.07485 1.35357 2.68199.57222.42309 1.14643-.30368 1.14643-1.01533 0-.22404.30729-.24898.4159-.05303.29281.52826.72493.9686 1.24675 1.27143.48298.28027.91868-.29414.85758-.84916-.0134-.12124-.0202-.24444-.0202-.36924 0-.22404.3073-.24898.4159-.05303.2928.52826.7249.9686 1.2467 1.27143.483.28027.9187-.29414.8576-.84916-.0134-.12124-.0202-.24444-.0202-.36924 0-1.84095 1.4923-3.33333 3.3333-3.33333.1665 0 .2811-.17907.1821-.31299-.6072-.821188-1.5825-1.35367-2.6821-1.35367-.2997 0-.5902.0395517-.8665.11372-.2507.067313-.5163.067313-.7671 0-.2763-.0741684-.5667-.11372-.8664-.11372z"/><path d="m11.6666 11.25c0 2.071-1.67892 3.75-3.74998 3.75-2.07107 0-3.74999-1.679-3.74999-3.75 0-2.07109 1.67892-3.75002 3.74999-3.75002 1.4365 0 2.68438.80772 3.31418 1.99377.3567-.25822.7951-.41044 1.2691-.41044s.9125.15222 1.2692.41043c.6298-1.18604 1.8777-1.99376 3.3142-1.99376 2.071 0 3.7499 1.67893 3.7499 3.75002 0 2.071-1.6789 3.75-3.7499 3.75-2.0711 0-3.75-1.679-3.75-3.75 0-.2518.0248-.4979.0721-.7358-.2139-.2629-.5401-.4309-.9055-.4309s-.6915.168-.9054.4309c.0473.238.0721.484.0721.7358z"/></g></svg>