<svg fill="none" height="25" viewBox="0 0 25 25" width="25" xmlns="http://www.w3.org/2000/svg"><path d="m.500011 12.5c0 6.6274 5.372579 12 11.999989 12 6.6274 0 12-5.3726 12-12 0-6.62742-5.3726-12-12-12-6.62741 0-11.999989 5.37258-11.999989 12z" stroke="#2d3436"/><path clip-rule="evenodd" d="m7.5 15.8428c0-1.673 1.53595-2.5095 2.9167-2.5095.8695 0 1.6354.4457 2.0833 1.1219.4479-.6762 1.2138-1.1219 2.0833-1.1219 1.3807 0 2.9167.8365 2.9167 2.5095 0 1.5161.9124 1.723 1.6348 1.8868.4734.1073.8652.1961.8652.6227 0 1.0777-3.3333 1.673-5 .8365-1.2147-.6096-2.0448-1.2172-2.5-1.9216-.4552.7044-1.2853 1.312-2.5 1.9216-1.66667.8365-5 .2412-5-.8365 0-.4266.3918-.5154.86519-.6227.7224-.1638 1.63481-.3707 1.63481-1.8868z" fill="#2d3436" fill-rule="evenodd"/></svg>