<svg fill="none" height="26" viewBox="0 0 26 26" width="26" xmlns="http://www.w3.org/2000/svg"><g clip-rule="evenodd" fill="#18303f" fill-rule="evenodd"><path d="m5.97302 4.33325h3c1.10458 0 1.99998.89543 1.99998 2v3c0 1.10455-.8954 2.00005-1.99998 2.00005h-3c-1.10457 0-2-.8955-2-2.00005v-3c0-1.10457.89543-2 2-2zm-3 2c0-1.65685 1.34315-3 3-3h3c1.65688 0 2.99998 1.34315 2.99998 3v3c0 1.65685-1.3431 3.00005-2.99998 3.00005h-3c-1.65685 0-3-1.3432-3-3.00005zm13.99998-2h3c1.1046 0 2 .89543 2 2v3c0 1.10455-.8954 2.00005-2 2.00005h-3c-1.1045 0-2-.8955-2-2.00005v-3c0-1.10457.8955-2 2-2zm-3 2c0-1.65685 1.3432-3 3-3h3c1.6569 0 3 1.34315 3 3v3c0 1.65685-1.3431 3.00005-3 3.00005h-3c-1.6568 0-3-1.3432-3-3.00005zm-4.99998 9.00005h-3c-1.10457 0-2 .8954-2 2v3c0 1.1045.89543 2 2 2h3c1.10458 0 1.99998-.8955 1.99998-2v-3c0-1.1046-.8954-2-1.99998-2zm-3-1c-1.65685 0-3 1.3431-3 3v3c0 1.6568 1.34315 3 3 3h3c1.65688 0 2.99998-1.3432 2.99998-3v-3c0-1.6569-1.3431-3-2.99998-3zm10.99998 1h3c1.1046 0 2 .8954 2 2v3c0 1.1045-.8954 2-2 2h-3c-1.1045 0-2-.8955-2-2v-3c0-1.1046.8955-2 2-2zm-3 2c0-1.6569 1.3432-3 3-3h3c1.6569 0 3 1.3431 3 3v3c0 1.6568-1.3431 3-3 3h-3c-1.6568 0-3-1.3432-3-3z"/><path d="m2.97302 6.33325c0-1.65685 1.34315-3 3-3h3c1.65688 0 2.99998 1.34315 2.99998 3v3c0 1.65685-1.3431 3.00005-2.99998 3.00005h-3c-1.65685 0-3-1.3432-3-3.00005zm3-2h3c1.10458 0 1.99998.89543 1.99998 2v3c0 1.10455-.8954 2.00005-1.99998 2.00005h-3c-1.10457 0-2-.8955-2-2.00005v-3c0-1.10457.89543-2 2-2z"/><path d="m13.973 6.33325c0-1.65685 1.3432-3 3-3h3c1.6569 0 3 1.34315 3 3v3c0 1.65685-1.3431 3.00005-3 3.00005h-3c-1.6568 0-3-1.3432-3-3.00005zm3-2h3c1.1046 0 2 .89543 2 2v3c0 1.10455-.8954 2.00005-2 2.00005h-3c-1.1045 0-2-.8955-2-2.00005v-3c0-1.10457.8955-2 2-2z"/><path d="m5.97302 14.3333c-1.65685 0-3 1.3431-3 3v3c0 1.6568 1.34315 3 3 3h3c1.65688 0 2.99998-1.3432 2.99998-3v-3c0-1.6569-1.3431-3-2.99998-3zm3 1h-3c-1.10457 0-2 .8954-2 2v3c0 1.1045.89543 2 2 2h3c1.10458 0 1.99998-.8955 1.99998-2v-3c0-1.1046-.8954-2-1.99998-2z"/><path d="m13.973 17.3333c0-1.6569 1.3432-3 3-3h3c1.6569 0 3 1.3431 3 3v3c0 1.6568-1.3431 3-3 3h-3c-1.6568 0-3-1.3432-3-3zm3-2h3c1.1046 0 2 .8954 2 2v3c0 1.1045-.8954 2-2 2h-3c-1.1045 0-2-.8955-2-2v-3c0-1.1046.8955-2 2-2z"/></g></svg>