<svg fill="none" height="25" viewBox="0 0 25 25" width="25" xmlns="http://www.w3.org/2000/svg"><path d="m5.78125 21.2801v-14.86952l1.21875-1.41058 2-1h7l2 1 1.2213 1.41058v14.86952c0 1.6569-1.3432 3-3 3h-7.44005c-1.65685 0-3-1.3431-3-3z" fill="#00ac83"/><g stroke="#2d3436"><path d="m6.28125 6.41055c0-1.38071 1.11929-2.5 2.5-2.5.33206 0 .60125-.26919.60125-.60125v-1.03c0-.82843.6716-1.500003 1.5-1.500003h3.2369c.8285 0 1.5.671573 1.5 1.500003v1.02942c0 .33238.2695.60183.6019.60183 1.3807 0 2.5 1.11929 2.5 2.5v14.86955c0 1.3807-1.1193 2.5-2.5 2.5h-7.44005c-1.38071 0-2.5-1.1193-2.5-2.5z"/><path d="m13.2068 9.04564-3.5335 4.91866c-.02376.0331-.00012.0792.04061.0792h2.75139c.0321 0 .0559.0299.0487.0612l-.7157 3.124c-.0122.0534.058.0848.0896.04l3.4961-4.9528c.0234-.0332-.0003-.0789-.0409-.0789h-2.7514c-.0324 0-.0563-.0303-.0486-.0618l.7528-3.08854c.0131-.0534-.0571-.08565-.0891-.04102z" fill="#fff"/></g></svg>