<svg fill="none" height="25" viewBox="0 0 25 25" width="25" xmlns="http://www.w3.org/2000/svg"><path d="m8.5 1c1.38071 0 2.5 1.11931 2.5 2.5s-1.11929 2.5-2.5 2.5-2.5 1.11929-2.5 2.5 1.11929 2.5 2.5 2.5 2.5 1.1193 2.5 2.5-1.11929 2.5-2.5 2.5m0-15h3.75c2.0711 0 3.75 1.67892 3.75 3.75v7.5m-7.5-11.25h-3.75c-2.07108 0-3.75 1.67892-3.75 3.75v7.5c0 2.0711 1.67892 3.75 3.75 3.75h3.75m3.75 0h-3.75" stroke="#2d3436" stroke-linecap="round" stroke-linejoin="round"/><path d="m17.4719 21.3885c.0058.0065.0119.0129.0182.0192.158.158.3954.1882.5837.0905.0447-.0231.0866-.0533.1241-.0908.0035-.0035.007-.0071.0104-.0107l3.6935-3.6935c.1953-.1953.1953-.5119 0-.7071-.1953-.1953-.5118-.1953-.7071 0l-3.3505 3.3505-1.7094-1.7094c-.1953-.1952-.5118-.1952-.7071 0-.1953.1953-.1953.5119 0 .7071z" fill="#00ac83"/><path clip-rule="evenodd" d="m18.6655 14.1699c-2.6975 0-4.8843 2.1868-4.8843 4.8843s2.1868 4.8843 4.8843 4.8843 4.8843-2.1868 4.8843-4.8843-2.1868-4.8843-4.8843-4.8843zm-5.8843 4.8843c0-3.2498 2.6345-5.8843 5.8843-5.8843s5.8843 2.6345 5.8843 5.8843-2.6345 5.8843-5.8843 5.8843-5.8843-2.6345-5.8843-5.8843z" fill="#85949a" fill-rule="evenodd"/></svg>