<svg fill="none" height="25" viewBox="0 0 25 25" width="25" xmlns="http://www.w3.org/2000/svg"><g clip-rule="evenodd" fill-rule="evenodd"><path d="m12.5 24c6.3513 0 11.5-5.1487 11.5-11.5 0-6.35127-5.1487-11.5-11.5-11.5-6.35127 0-11.5 5.14873-11.5 11.5 0 6.3513 5.14873 11.5 11.5 11.5zm0 1c6.9036 0 12.5-5.5964 12.5-12.5 0-6.90356-5.5964-12.5-12.5-12.5-6.90356 0-12.5 5.59644-12.5 12.5 0 6.9036 5.59644 12.5 12.5 12.5z" fill="#85949a"/><path d="m17.9657 9.11919c.3905.39052.3905 1.02371 0 1.41421l-6.3626 6.3626c-.3919.3919-1.0278.3903-1.4177-.0035l-3.17348-3.2048c-.38859-.3925-.38547-1.0256.00697-1.4142s1.0256-.3855 1.4142.0069l2.46641 2.4908 5.652-5.65201c.3905-.39053 1.0237-.39053 1.4142 0z" fill="#00ac83"/></g></svg>