<svg fill="none" height="25" viewBox="0 0 25 25" width="25" xmlns="http://www.w3.org/2000/svg"><g fill="#2d3436"><path clip-rule="evenodd" d="m18.6016 18.7028c-.5279 0-.9924.4143-.9924.971 0 .5568.4645.971.9924.971.5266 0 .9924-.4138.9924-.971s-.4658-.971-.9924-.971zm.0076.971c0 .0061-.0015.0128-.004.0185-.0012.0028-.0025.0049-.0036.0065-.0011-.0015-.0024-.0034-.0036-.0061-.0026-.0057-.004-.0125-.004-.0189s.0014-.0132.004-.0189c.0012-.0026.0024-.0047.0035-.0062.0011.0016.0025.0038.0037.0066.0025.0057.004.0124.004.0185z" fill-rule="evenodd"/><path d="m18.6016 15.6211c.2761 0 .5-.2239.5-.5s-.2239-.5-.5-.5c-.2762 0-.5.2239-.5.5s.2238.5.5.5z"/><path d="m18.6016 17.6211c.2761 0 .5-.2239.5-.5s-.2239-.5-.5-.5c-.2762 0-.5.2239-.5.5s.2238.5.5.5z"/><path clip-rule="evenodd" d="m18.6016 1c-1.3607 0-2.5 1.05987-2.5 2.41304v12.66886c-1.1989.7709-2 2.085-2 3.592 0 2.4097 2.0349 4.3261 4.5 4.3261 2.4639 0 4.5-1.9163 4.5-4.3261 0-1.5073-.8032-2.8211-2-3.5918v-12.66906c0-1.35317-1.1394-2.41304-2.5-2.41304zm-1.5 2.41304c0-.75978.6496-1.41304 1.5-1.41304.8503 0 1.5.65326 1.5 1.41304v12.95226c0 .1818.0986.3492.2576.4373 1.0491.5815 1.7424 1.654 1.7424 2.8713 0 1.8161-1.546 3.3261-3.5 3.3261-1.955 0-3.5-1.5099-3.5-3.3261 0-1.2176.6915-2.2899 1.742-2.8711.1592-.0881.258-.2556.258-.4375z" fill-rule="evenodd"/></g><g fill="#03a9f1"><path d="m7.60416 2.55762c.27614 0 .5-.22386.5-.5 0-.27615-.22386-.5-.5-.5-.27615 0-.5.22385-.5.5 0 .27614.22385.5.5.5z"/><path d="m2.22793 5.60681c.27614 0 .5-.22386.5-.5s-.22386-.5-.5-.5c-.27615 0-.5.22386-.5.5s.22385.5.5.5z"/><path d="m13.4615 5.10681c0 .27614-.2239.5-.5.5-.2762 0-.5-.22386-.5-.5s.2238-.5.5-.5c.2761 0 .5.22386.5.5z"/><path d="m6.01839 5.9424c.27614 0 .5-.22386.5-.5s-.22386-.5-.5-.5-.5.22386-.5.5.22386.5.5.5z"/><path d="m2.72656 11.2496c0 .2762-.22386.5-.5.5s-.5-.2238-.5-.5c0-.2761.22386-.5.5-.5s.5.2239.5.5z"/><path d="m12.9615 11.7496c.2761 0 .5-.2238.5-.5 0-.2761-.2239-.5-.5-.5-.2762 0-.5.2239-.5.5 0 .2762.2238.5.5.5z"/><path d="m8.10416 14.4639c0 .2762-.22386.5-.5.5-.27615 0-.5-.2238-.5-.5 0-.2761.22385-.5.5-.5.27614 0 .5.2239.5.5z"/><path d="m9.18993 5.9424c.27614 0 .49999-.22386.49999-.5s-.22385-.5-.49999-.5c-.27615 0-.50001.22386-.50001.5s.22386.5.50001.5z"/><path d="m9.68992 11.0354c0 .2762-.22385.5-.49999.5-.27615 0-.50001-.2238-.50001-.5 0-.2761.22386-.5.50001-.5.27614 0 .49999.2239.49999.5z"/><path d="m6.01839 11.5354c.27614 0 .5-.2238.5-.5 0-.2761-.22386-.5-.5-.5s-.5.2239-.5.5c0 .2762.22386.5.5.5z"/><path d="m4.91119 8.2925c0 .27614-.22386.5-.5.5s-.5-.22386-.5-.5.22386-.5.5-.5.5.22386.5.5z"/><path d="m10.7971 8.7925c.2762 0 .5-.22386.5-.5s-.2238-.5-.5-.5c-.2761 0-.5.22386-.5.5s.2239.5.5.5z"/><path d="m6.60419 2.74996c-.19526-.19526-.51184-.19526-.7071 0s-.19526.51185 0 .70711l1.20511 1.20511v2.21953c0 .27615.22386.5.5.5.27615 0 .5-.22385.5-.5v-2.21432l1.21033-1.21032c.19526-.19526.19526-.51185 0-.70711s-.51185-.19526-.70711 0l-1.00061 1.00062z"/><path d="m8.1022 9.60414c0-.27614-.22385-.5-.5-.5-.27614 0-.5.22386-.5.5v2.23196l-1.20525 1.2062c-.19519.1954-.19506.5119.00028.7071s.51192.1951.70711-.0003l1.00007-1.0008 1.00101 1.001c.19526.1952.51185.1952.70711 0 .19526-.1953.19526-.5119 0-.7071l-1.21033-1.2104z"/><path d="m8.57858 7.10915 1.87992-1.08539.4427-1.64945c.0715-.26671.3458-.42489.6125-.35332.2667.07158.4249.34581.3533.61251l-.367 1.36744 1.3673.36533c.2668.07128.4253.34534.354.61212-.0713.26679-.3454.42527-.6121.35399l-1.6525-.44154-1.87811 1.08433c-.23915.13808-.54495.05614-.68302-.183-.13807-.23915-.05614-.54494.18301-.68302z"/><path d="m6.65476 9.37459c.23914-.13807.32108-.44386.18301-.68301-.13808-.23915-.44387-.32108-.68302-.18301l-1.90611 1.10051-1.65065-.44165c-.26676-.07138-.54087.08701-.61225.35377-.07137.26676.08702.5409.35377.6122l1.36706.3658-.36659 1.3672c-.07152.2667.08672.5409.35344.6124s.54091-.0867.61244-.3534l.44246-1.6501z"/><path d="m6.12677 7.97517-1.87869-1.08467-1.64996.44195c-.26674.07145-.5409-.08687-.61234-.35361-.07145-.26674.08686-.54089.3536-.61234l1.36719-.36621-.36658-1.3667c-.07154-.26671.08668-.54092.35339-.61246.26672-.07154.54093.08668.61247.35339l.44262 1.65018 1.8783 1.08445c.23915.13808.32108.44387.18301.68302-.13807.23914-.44387.32108-.68301.183z"/><path d="m8.36759 8.69158c-.13808.23915-.05614.54494.183.68301l1.90771 1.10141.4435 1.6496c.0716.2667.3459.4248.6126.3531s.4248-.346.3531-.6127l-.3673-1.3664 1.3679-.3662c.2667-.0714.4251-.34556.3537-.61231s-.3456-.4251-.6123-.35369l-1.6519.4422-1.907-1.10103c-.23915-.13807-.54494-.05614-.68301.18301z"/></g></svg>