<svg fill="none" height="25" viewBox="0 0 25 25" width="25" xmlns="http://www.w3.org/2000/svg"><g fill="#2d3436"><path d="m3.44466 1c-.13261 0-.26043.05268-.3542.14645l-1.82292 1.82291c-.19526.19527-.19526.51185 0 .70711s.51185.19526.70711 0l.97066-.97067v3.4817c0 2.04698 1.57803 3.625 3.625 3.625h4.16669c.2761 0 .5-.22386.5-.5s-.2239-.5-.5-.5h-4.16669c-1.49469 0-2.625-1.13031-2.625-2.625v-3.47909l.96806.96806c.19527.19526.51185.19526.70711 0s.19526-.51184 0-.70711l-1.80075-1.80075c-.09161-.10342-.22605-.16861-.37507-.16861z"/><path d="m16.1289 5.22559c0 .27614-.2239.5-.5.5s-.5-.22386-.5-.5c0-.27615.2239-.5.5-.5s.5.22385.5.5z"/><path d="m16.1289 7.22559c0 .27614-.2239.5-.5.5s-.5-.22386-.5-.5c0-.27615.2239-.5.5-.5s.5.22385.5.5z"/><path d="m15.6289 9.72559c.2761 0 .5-.22386.5-.5 0-.27615-.2239-.5-.5-.5s-.5.22385-.5.5c0 .27614.2239.5.5.5z"/><path d="m16.1289 11.2256c0 .2761-.2239.5-.5.5s-.5-.2239-.5-.5c0-.2762.2239-.5.5-.5s.5.2238.5.5z"/><path d="m15.6289 13.7256c.2761 0 .5-.2239.5-.5 0-.2762-.2239-.5-.5-.5s-.5.2238-.5.5c0 .2761.2239.5.5.5z"/><path d="m16.1289 15.2256c0 .2761-.2239.5-.5.5s-.5-.2239-.5-.5c0-.2762.2239-.5.5-.5s.5.2238.5.5z"/><path d="m15.6289 17.7256c.2761 0 .5-.2239.5-.5 0-.2762-.2239-.5-.5-.5s-.5.2238-.5.5c0 .2761.2239.5.5.5z"/><path clip-rule="evenodd" d="m15.6016 18.7028c-.5279 0-.9924.4143-.9924.971 0 .5568.4645.971.9924.971.5266 0 .9924-.4138.9924-.971s-.4658-.971-.9924-.971zm.0076.971c0 .0061-.0015.0128-.004.0185-.0002.0005-.0005.001-.0007.0015-.001.0021-.002.0037-.0029.005-.0011-.0015-.0024-.0034-.0036-.0061-.0026-.0057-.004-.0125-.004-.0189s.0014-.0132.004-.0189c.0012-.0026.0024-.0047.0035-.0062.0011.0016.0025.0038.0037.0066.0025.0057.004.0124.004.0185z" fill-rule="evenodd"/><path clip-rule="evenodd" d="m15.6016 1c-1.3607 0-2.5 1.05987-2.5 2.41304v12.66886c-1.1989.7709-2 2.085-2 3.592 0 2.4097 2.0349 4.3261 4.5 4.3261 2.4639 0 4.5-1.9163 4.5-4.3261 0-1.5073-.8032-2.8211-2-3.5918v-12.66906c0-1.35317-1.1394-2.41304-2.5-2.41304zm-1.5 2.41304c0-.75978.6496-1.41304 1.5-1.41304.8503 0 1.5.65326 1.5 1.41304v12.95226c0 .1818.0986.3492.2576.4373 1.0491.5815 1.7424 1.654 1.7424 2.8713 0 1.8161-1.546 3.3261-3.5 3.3261-1.955 0-3.5-1.5099-3.5-3.3261 0-1.2176.6915-2.2899 1.742-2.8711.1592-.0881.258-.2556.258-.4375z" fill-rule="evenodd"/><path d="m19.6018 2.91295c-.2761 0-.5.22386-.5.5s.2239.5.5.5h4.6676c.2761 0 .5-.22386.5-.5s-.2239-.5-.5-.5z"/><path d="m19.6018 7.69572c-.2761 0-.5.22385-.5.5 0 .27614.2239.5.5.5h3c.2762 0 .5-.22386.5-.5 0-.27615-.2238-.5-.5-.5z"/><path d="m19.6018 12.4777c-.2761 0-.5.2238-.5.5 0 .2761.2239.5.5.5h1c.2762 0 .5-.2239.5-.5 0-.2762-.2238-.5-.5-.5z"/></g></svg>