<svg fill="none" height="28" viewBox="0 0 27 28" width="27" xmlns="http://www.w3.org/2000/svg"><rect fill="#f1f3fa" height="27" rx="10" width="27" y=".5"/><g fill="#2d3436"><path d="m16.3437 4.49763c.051-.15313.1943-.25642.3557-.25642s.3047.10329.3558.25642l.1613.48408.4841.16137c.1532.05104.2564.19434.2564.35575 0 .16142-.1032.30472-.2564.35576l-.4841.16136-.1613.48409c-.0511.15313-.1944.25642-.3558.25642s-.3047-.10329-.3557-.25642l-.1614-.48409-.4841-.16136c-.1531-.05104-.2564-.19434-.2564-.35576 0-.16141.1033-.30471.2564-.35575l.4841-.16137z"/><path clip-rule="evenodd" d="m12.6407 6.95588c.056-.14414.1948-.23908.3495-.23908.1546 0 .2934.09494.3495.23908l.3356.863.863.33561c.1441.05606.239.19485.239.3495 0 .15466-.0949.29345-.239.34951l-.863.33561-.3356.86299c-.0561.1441-.1949.2391-.3495.2391-.1547 0-.2935-.095-.3495-.2391l-.3357-.86299-.863-.33561c-.1441-.05606-.239-.19485-.239-.34951 0-.15465.0949-.29344.239-.3495l.863-.33561zm.3954 1.28862-.0459-.11807-.046.11807c-.0381.09798-.1156.17547-.2135.21358l-.1181.04591.1181.04592c.0979.0381.1754.11559.2135.21358l.046.11806.0459-.11806c.0381-.09799.1156-.17548.2136-.21358l.118-.04592-.118-.04591c-.098-.03811-.1755-.1156-.2136-.21358z" fill-rule="evenodd"/><path d="m8.76008 6.0625c-.16141 0-.30471.10329-.35575.25641l-.13936.41808-.41808.13936c-.15313.05105-.25642.19435-.25642.35576s.10329.30471.25642.35576l.41808.13935.13936.41808c.05104.15313.19434.25642.35575.25642.16142 0 .30472-.10329.35576-.25642l.13936-.41808.41808-.13935c.15313-.05105.25641-.19435.25641-.35576s-.10328-.30471-.25641-.35576l-.41808-.13936-.13936-.41808c-.05104-.15312-.19434-.25641-.35576-.25641z"/><path clip-rule="evenodd" d="m19.9833 5.98117c-.0926-.12735-.0957-.29894-.0079-.4296.0878-.13065.2478-.19256.4007-.15499 1.548.38042 2.7941 1.74588 2.9406 3.48594l.0003.00361c.1461 1.96017-1.1667 3.78327-3.0888 4.16557-1.4928.3076-2.9611-.3892-3.8311-1.5866-.0944-.1299-.0956-.3055-.003-.4367.0925-.1312.2584-.1888.4124-.1434.4293.1266.8201.179 1.2613.0651.0068-.0018.0137-.0033.0207-.0047 1.5291-.3035 2.606-1.76805 2.4886-3.37039-.0608-.62096-.2378-1.10382-.5938-1.59384zm.0975 6.33523c1.5299-.3037 2.607-1.7695 2.4884-3.37272-.0884-1.04254-.6627-1.91572-1.4565-2.42414.109.30778.1769.63233.2113.98732l.0007.00829c.1458 1.9571-1.1626 3.77765-3.0799 4.16385-.179.0454-.3511.0706-.5175.0798.6776.5049 1.5203.7296 2.3507.5581z" fill-rule="evenodd"/><path clip-rule="evenodd" d="m9.79752 19.3847c.16695-.1671.39168-.247.62638-.247h1.9924c.2347 0 .4594.0799.6264.247.1669.167.2467.3917.2467.6264v3.1138h1.8678c.0642 0 .0885-.0198.0959-.0272s.0272-.0318.0272-.0962c0-.2071.1679-.375.375-.375s.375.1679.375.375c0 .2347-.0798.4594-.2467.6264-.167.1671-.3917.247-.6264.247h-7.47159c-.23471 0-.45942-.0799-.62637-.247-.16693-.167-.24673-.3917-.24673-.6264v-4.3095h-.8237c-.22097 0-.46242-.1126-.58451-.3569-.05472-.1095-.08318-.2441-.06838-.3773.01334-.1201.07059-.2839.22514-.3892l5.44774-5.104c.2436-.2384.6212-.2393.8658-.0027l1.4599 1.3216v-.2013c0-.1599.0549-.3224.1782-.4458.1234-.1234.2858-.1784.4458-.1784h.9962c.16 0 .3225.055.4458.1784.1234.1234.1783.2859.1783.4458v2.2839l1.7831 1.7372c.1087.1088.2715.3787.12.6819-.1221.2443-.3636.3569-.5845.3569h-.8703v1.5934c0 .2071-.1679.375-.375.375s-.375-.1679-.375-.375v-1.9684c0-.2071.1679-.375.375-.375h.9315l-1.6415-1.5992c-.0724-.0706-.1133-.1674-.1133-.2686v-2.3163h-.7443v.9208c0 .1483-.0874.2827-.223.3428-.1355.0601-.2938.0348-.4037-.0648l-2.0133-1.8226-5.18496 4.8578h.91667c.1982 0 .36048.1537.37408.3485.00797.0304.01222.0623.01222.0952v4.6158c0 .0644.01981.0888.02722.0962.00739.0074.03173.0272.09588.0272h1.86518v-3.1138c0-.2347.07981-.4594.24673-.6264zm.53048.5301c-.0074.0075-.0272.0319-.0272.0963v3.1138h2.2386v-3.1138c0-.0644-.0198-.0888-.0272-.0963-.0074-.0074-.0317-.0271-.0959-.0271h-1.9924c-.0642 0-.0885.0197-.0959.0271z" fill-rule="evenodd"/><path d="m15.6563 22.0713c.2071 0 .375-.1679.375-.375s-.1679-.375-.375-.375c-.2072 0-.375.1679-.375.375s.1678.375.375.375z"/></g></svg>