<svg fill="none" height="25" viewBox="0 0 25 25" width="25" xmlns="http://www.w3.org/2000/svg"><path clip-rule="evenodd" d="m15.9472 3.1691c-3.8071-.48441-6.59912-.49937-10.36118-.01035-1.07135.13926-1.91157.9922-2.04079 2.06848-.44734 3.72596-.47211 6.50637-.00882 10.36607.13077 1.0894.99339 1.9456 2.08343 2.0676 1.45368.1626 2.7723.2597 4.05671.294.27605.0074.49385.2372.48645.5132s-.23712.4938-.51317.4865c-1.31722-.0353-2.66438-.1348-4.14115-.2999-1.55172-.1736-2.77911-1.3924-2.96514-2.9422-.4732-3.9423-.44761-6.80276.00882-10.60447.18331-1.52685 1.37614-2.74223 2.90475-2.94093 3.85106-.50059 6.72889-.48463 10.61629.00999 1.5287.19452 2.7312 1.40067 2.9224 2.92945.2307 1.84412.3571 3.46275.3721 5.07486.0026.2761-.2192.5021-.4953.5046-.2761.0026-.5021-.2192-.5046-.4953-.0146-1.56437-.1372-3.14346-.3645-4.96005-.1346-1.07606-.9809-1.92472-2.0563-2.06155z" fill="#2d3436" fill-rule="evenodd"/><path d="m15.7258 19.6512c.0059.0065.0119.0129.0182.0192.158.158.3954.1882.5837.0905.0447-.0231.0866-.0533.1241-.0908.0035-.0035.007-.0071.0104-.0107l3.6935-3.6935c.1953-.1953.1953-.5119 0-.7071-.1953-.1953-.5118-.1953-.7071 0l-3.3505 3.3505-1.7094-1.7094c-.1953-.1952-.5118-.1952-.7071 0-.1953.1953-.1953.5119 0 .7071z" fill="#00ac83"/><path clip-rule="evenodd" d="m16.9194 12.4326c-2.6975 0-4.8842 2.1868-4.8842 4.8843s2.1867 4.8843 4.8842 4.8843 4.8843-2.1868 4.8843-4.8843-2.1868-4.8843-4.8843-4.8843zm-5.8842 4.8843c0-3.2498 2.6344-5.8843 5.8842-5.8843s5.8843 2.6345 5.8843 5.8843-2.6345 5.8843-5.8843 5.8843-5.8842-2.6345-5.8842-5.8843z" fill="#85949a" fill-rule="evenodd"/></svg>