<svg fill="none" height="25" viewBox="0 0 25 25" width="25" xmlns="http://www.w3.org/2000/svg"><path clip-rule="evenodd" d="m22.5541 1.3818c.1952-.19526.5118-.19526.7071 0 .1952.19526.1952.51184 0 .7071l-5.3561 5.35607c.5695.88616.9279 1.92366 1.002 3.04403l.4799 7.2588c.012.182-.0088.358-.0573.5227l4.64 4.64c.1953.1953.1953.5119 0 .7071-.1952.1953-.5118.1953-.7071 0l-4.5296-4.5296c-.2396.1631-.5294.2588-.8428.2588h-2.9554c-.1505 1.2096-1.1822 2.1457-2.4326 2.1457-1.2503 0-2.282-.9361-2.4325-2.1457h-2.95844c-.31502 0-.60619-.0968-.84654-.2614l-4.53226 4.5322c-.19526.1953-.51185.1953-.70711 0-.195259-.1952-.195259-.5118 0-.7071l4.645-4.645c-.04743-.1632-.06772-.3376-.05582-.5177l.47989-7.2588c.07396-1.11872.4314-2.15482.99946-3.04012l-5.35998-5.35998c-.19526-.19526-.19526-.51184 0-.7071.19527-.19526.51185-.19526.70711 0l5.26299 5.26299c1.17937-1.32437 2.8965-2.1526 4.7968-2.1526 1.8985 0 3.6144.82681 4.7937 2.1492zm-5.9681 5.96809c-.9966-1.14161-2.4618-1.8577-4.0852-1.8577-1.6251 0-3.09166.71752-4.08827 1.86113l4.08497 4.08498zm-8.76503.82608c-.41269.70464-.67144 1.51246-.72872 2.37893l-.44519 6.7339 5.14334-5.1434zm-.80805 10.16123c.03177.0063.06465.0096.09834.0096h10.77894c.0318 0 .0629-.003.093-.0086l-5.4857-5.4857zm11.34198-1.0415-.4456-6.7408c-.0574-.86813-.3171-1.67738-.7311-2.38298l-3.9736 3.97348zm-7.2719 2.0511c.1405.6548.7225 1.1457 1.4192 1.1457s1.2788-.4909 1.4192-1.1457z" fill="#2d3436" fill-rule="evenodd"/></svg>