<svg fill="none" height="25" viewBox="0 0 25 25" width="25" xmlns="http://www.w3.org/2000/svg"><path d="m15.4946 19.856c.0059.0066.0119.013.0182.0193.158.1579.3954.1881.5837.0905.0447-.0231.0866-.0534.1241-.0909.0035-.0035.007-.0071.0104-.0107l3.6935-3.6935c.1953-.1953.1953-.5119 0-.7071-.1953-.1953-.5118-.1953-.7071 0l-3.3505 3.3505-1.7094-1.7093c-.1953-.1953-.5118-.1953-.7071 0-.1953.1952-.1953.5118 0 .7071z" fill="#00ac83"/><path clip-rule="evenodd" d="m16.6882 12.6375c-2.6975 0-4.8842 2.1867-4.8842 4.8842s2.1867 4.8843 4.8842 4.8843 4.8843-2.1868 4.8843-4.8843-2.1868-4.8842-4.8843-4.8842zm-5.8842 4.8842c0-3.2498 2.6344-5.8842 5.8842-5.8842s5.8843 2.6344 5.8843 5.8842-2.6345 5.8843-5.8843 5.8843-5.8842-2.6345-5.8842-5.8843z" fill="#85949a" fill-rule="evenodd"/><g fill="#2d3436"><path d="m7.30349 5.21948c.27614 0 .5-.22386.5-.5s-.22386-.5-.5-.5zm-3.87576 6.50122c0-.2762-.22385-.5-.5-.5-.27614 0-.5.2238-.5.5zm11.75207-7.50122c-.2761 0-.5.22386-.5.5s.2239.5.5.5zm-3.9381 18.50302c.2761 0 .5-.2239.5-.5s-.2239-.5-.5-.5zm7.8139-11.585c0 .2761.2239.5.5.5s.5-.2239.5-.5zm-15.25271 10.585c-.14893 0-.23417-.0475-.28094-.0942-.04676-.0468-.09422-.132-.09422-.281h-1c0 .3762.12758.7285.38712.9881.25954.2595.61187.3871.98804.3871zm-.37516-.3752v-15.75267h-1v15.75267zm0-15.75267c0-.14892.04746-.23417.09422-.28093.04677-.04676.13201-.09422.28094-.09422v-1c-.37617 0-.7285.12757-.98804.38712-.25954.25954-.38712.61186-.38712.98803zm.37516-.37515h3.5006v-1h-3.5006zm-1.37516 6.50122v9.6266h1v-9.6266zm17.62787-6.12607c0-.37617-.1276-.72849-.3871-.98803-.2596-.25955-.6119-.38712-.9881-.38712v1c.149 0 .2342.04746.281.09422.0467.04676.0942.13201.0942.28093zm-1.3752-1.37515h-3.5006v1h3.5006zm-7.4387 17.50302h-7.43881v1h7.43881zm7.8139-16.12787v5.54287h1v-5.54287z"/><path d="m12.9919 3.8443h-.5c0 .27614.2239.5.5.5zm-3.50056 0v.5c.27615 0 .5-.22386.5-.5zm4.00056 0c0-1.23881-1.0114-2.25031-2.2503-2.25031v1c.6866 0 1.2503.56378 1.2503 1.25031zm-2.2503-2.25031c-1.2388 0-2.25026 1.0115-2.25026 2.25031h1c0-.68653.56376-1.25031 1.25026-1.25031zm-1.75026 1.75031h-1.7503v1h1.7503zm-1.7503 0c-.24489 0-.48783.08381-.67079.26678-.18297.18296-.26678.42589-.26678.67079h1c0-.00999.00161-.0087-.00188.00036-.00366.00951-.01123.02294-.02424.03595-.013.01301-.02644.02058-.03595.02424-.00906.00348-.01035.00188-.00036.00188zm-.93757.93757v1.7503h1v-1.7503zm0 1.7503c0 .2449.08381.48783.26678.6708.18296.18296.4259.26678.67079.26678v-1c-.00999 0-.0087-.00161.00036.00187.00951.00366.02295.01123.03595.02424.01301.01301.02058.02644.02424.03596.00349.00906.00188.01035.00188.00035zm8.87633-1.7503c0-.2449-.0838-.48783-.2668-.67079-.1829-.18297-.4259-.26678-.6708-.26678v1c.01 0 .0088.0016-.0003-.00188-.0095-.00366-.023-.01123-.036-.02424s-.0205-.02644-.0242-.03595c-.0035-.00906-.0019-.01035-.0019-.00036zm-.9376-.93757h-1.7503v1h1.7503zm-.0624.93757v1.7503h1v-1.7503zm0 1.7503c0 .01-.0016.00871.0019-.00035.0037-.00952.0112-.02295.0242-.03596s.0265-.02058.036-.02424c.0091-.00348.0103-.00187.0003-.00187v1c.2449 0 .4879-.08382.6708-.26678.183-.18297.2668-.4259.2668-.6708zm-6.93876.93758h7.00116v-1h-7.00116z"/></g></svg>