<svg fill="none" height="25" viewBox="0 0 25 25" width="25" xmlns="http://www.w3.org/2000/svg"><path d="m23.1259 13.0408c0-.2762-.2238-.5-.5-.5-.2761 0-.5.2238-.5.5zm-16.62785.9167c0-.2761-.22386-.5-.5-.5-.27615 0-.5.2239-.5.5zm11.75215-8.41795c-.2762 0-.5.22386-.5.5s.2238.5.5.5zm3.8757 7.50125v9.6266h1v-9.6266zm0 9.6266c0 .1489-.0474.2342-.0942.2809-.0468.0468-.132.0943-.2809.0943v1c.3761 0 .7285-.1276.988-.3871.2595-.2596.3871-.6119.3871-.9881zm-.3751.3752h-14.8776v1h14.8776zm-14.8776 0c-.14892 0-.23417-.0475-.28093-.0943-.04677-.0467-.09422-.132-.09422-.2809h-1c0 .3762.12757.7285.38711.9881.25954.2595.61187.3871.98804.3871zm-1.37515-9.0851v8.7099h1v-8.7099zm17.62785 8.7099v-15.7527h-1v15.7527zm0-15.7527c0-.37617-.1276-.7285-.3871-.98804s-.6119-.38711-.988-.38711v1c.1489 0 .2341.04746.2809.09422s.0942.13201.0942.28093zm-1.3751-1.37515h-3.5006v1h3.5006z" fill="#2d3436"/><path d="m16.0623 5.16436h-.5c0 .27615.2239.5.5.5zm-1.1881 2.12546c-.2761 0-.5.22385-.5.5 0 .27614.2239.5.5.5zm-1.3126-4.24648c-.2601.09258-.396.37854-.3034.6387s.3785.396.6387.30342zm3.0007 2.12102c0-1.2388-1.0115-2.2503-2.2503-2.2503v1c.6865 0 1.2503.56378 1.2503 1.2503zm2.1879.43758c0-.2449-.0838-.48783-.2668-.6708-.183-.18296-.4259-.26678-.6708-.26678v1c.01 0 .0087.00161-.0004-.00187-.0095-.00366-.0229-.01123-.0359-.02424s-.0206-.02644-.0243-.03595c-.0034-.00906-.0018-.01036-.0018-.00036zm-.9376-.93758h-1.7503v1h1.7503zm-.0624.93758v1.7503h1v-1.7503zm0 1.7503c0 .01-.0016.0087.0018-.00036.0037-.00951.0113-.02294.0243-.03595s.0264-.02058.0359-.02424c.0091-.00348.0104-.00187.0004-.00187v1c.2449 0 .4878-.08382.6708-.26678.183-.18297.2668-.4259.2668-.6708zm-2.876.93758h2.9384v-1h-2.9384zm-.5622-5.37576c-.2622 0-.5151.04554-.7504.12928l.3353.94212c.1297-.04615.2692-.0714.4151-.0714z" fill="#2d3436"/><g stroke="#2d3436" stroke-linecap="round" stroke-linejoin="round"><path d="m8.18604 21.3547 1.7503-1.7503 1.75026 1.7503 1.7503-1.7503 1.7503 1.7503 1.7503-1.7503 1.7503 1.7503 1.7503-1.7503"/><path d="m8.18604 18.0213 1.7503-1.7503 1.75026 1.7503 1.7503-1.7503 1.7503 1.7503 1.7503-1.7503 1.7503 1.7503 1.7503-1.7503"/><path d="m20.4382 12.9377-1.7503 1.7503-1.7503-1.7503-1.7503 1.7503-1.7503-1.7503-1.7503 1.7503-.8752-.8751"/><path d="m20.4381 9.60437-1.7503 1.75033-1.7503-1.75033-1.7503 1.75033-.8752-.8752"/></g><path d="m9.99758 8.32612c.19522.19526.19522.51184 0 .7071-.19526.19526-.51185.19526-.70711 0l-1.51649-1.51649-1.54347 1.54348c-.19527.19526-.51185.19526-.70711 0s-.19526-.51184 0-.70711l1.54348-1.54347-1.48098-1.48098c-.19526-.19526-.19526-.51184 0-.70711.19526-.19526.51184-.19526.70711 0l1.48097 1.48098 1.45399-1.45399c.19526-.19526.51185-.19526.70711 0 .19522.19527.19522.51185 0 .70711l-1.45399 1.45399z" fill="#f18303"/><path clip-rule="evenodd" d="m7.7583 11.7261c2.6975 0 4.8843-2.18679 4.8843-4.88431 0-2.69751-2.1868-4.88427-4.8843-4.88427-2.69751 0-4.88428 2.18676-4.88428 4.88427 0 2.69752 2.18677 4.88431 4.88428 4.88431zm5.8843-4.88431c0 3.24981-2.6345 5.88431-5.8843 5.88431s-5.88428-2.6345-5.88428-5.88431c0-3.24979 2.63448-5.884274 5.88428-5.884274s5.8843 2.634484 5.8843 5.884274z" fill="#85949a" fill-rule="evenodd"/></svg>