<svg fill="none" height="25" viewBox="0 0 25 25" width="25" xmlns="http://www.w3.org/2000/svg"><path d="m16.0951 15.5518h-.4539c-.0699 0-.1164.0569-.1164.1137v.4436c0 .307.256.5572.5703.5572.3142 0 .5703-.2502.5703-.5572 0-.3071-.2561-.5573-.5703-.5573z" fill="#f94409"/><path d="m15.9438 9.92234c-.0931-.07961-.2444-.17059-.3492-.22745l-2.1415-1.1259c-.1164-.06824-.2561-.11373-.3841-.15922-.3724-.10235-.7682-.10235-1.1406 0-.1397.03412-.2677.09098-.3841.15922l-2.15314 1.1259c-.10475.05686-.24442.14784-.34917.22745-.45391.37526-.70996.92116-.70996 1.51256v3.264c0 1.0917.90782 1.9674 2.01347 1.9674h3.7593c.3143 0 .5703-.2502.5703-.5572v-.4436c0-.0682-.0582-.1137-.1163-.1137h-4.2133c-.47716 0-.87287-.3867-.87287-.8529v-3.264c0-.3184.17458-.6027.45391-.7506l2.21136-1.14863c.2328-.10236.4772-.10236.71 0l2.2113 1.14863c.2793.1479.4539.4322.4539.7506v2.8659c0 .3071.2561.5573.5703.5573.3143 0 .5703-.2502.5703-.5573v-2.8659c.0117-.5914-.256-1.1373-.7099-1.51256z" fill="#f94409"/><g clip-rule="evenodd" fill-rule="evenodd"><path d="m17.0625 6.70914c-3.4051-.4541-5.7883-.46814-9.15093-.0076-.64012.08767-1.1427.59733-1.22374 1.24125-.41946 3.33311-.44358 5.70591-.00648 9.16301.08234.6513.59844 1.1633 1.25014 1.2404 3.34901.3958 5.80681.3829 9.12121-.0046.6501-.0761 1.1664-.5827 1.2531-1.2295.455-3.3961.4356-5.766-.0096-9.16556-.0843-.64371-.5907-1.15166-1.2337-1.2374zm-9.28662-.99835c3.45632-.47337 5.92972-.45817 9.41882.00712 1.0918.1456 1.9501 1.00722 2.093 2.09878.456 3.48141.4766 5.93971.0092 9.42821-.1476 1.1018-1.0258 1.961-2.128 2.0899-3.3892.3963-5.9254.4098-9.3548.0045-1.1082-.131-1.98491-1.0012-2.12485-2.1081-.44809-3.544-.42301-6.001.00641-9.41327.13721-1.09029.98862-1.95763 2.08022-2.10714z" fill="#2d3436"/><path d="m25 12.5c0 6.9036-5.5964 12.5-12.5 12.5-6.90356 0-12.5-5.5964-12.5-12.5 0-6.90356 5.59644-12.5 12.5-12.5 6.9036 0 12.5 5.59644 12.5 12.5zm-2.5 0c0 5.5228-4.4772 10-10 10-2.2511 0-4.32856-.7438-5.99986-1.9992l14.00066-14.00066c1.2554 1.6713 1.9992 3.74876 1.9992 5.99986zm-17.79685 6.2623 14.05915-14.05915c-1.7139-1.37832-3.8918-2.20315-6.2623-2.20315-5.52285 0-10 4.47715-10 10 0 2.3705.82483 4.5484 2.20315 6.2623z" fill="#f18303"/></g></svg>