<svg fill="none" height="25" viewBox="0 0 25 25" width="25" xmlns="http://www.w3.org/2000/svg"><path d="m15.9525 15.4301h-.4357c-.0671 0-.1118.0545-.1118.1091v.4258c0 .2948.2458.535.5475.535s.5475-.2402.5475-.535-.2458-.5349-.5475-.5349z" fill="#f94409"/><path d="m15.8073 10.0258c-.0894-.07647-.2347-.16381-.3352-.2184l-2.0559-1.08086c-.1117-.0655-.2458-.10917-.3687-.15285-.3576-.09825-.7374-.09825-1.095 0-.1341.03276-.257.08735-.3687.15285l-2.06704 1.08086c-.10056.05459-.23464.14193-.3352.2184-.43575.3602-.68156.8843-.68156 1.452v3.1334c0 1.0481.87151 1.8888 1.933 1.8888h3.6089c.3017 0 .5475-.2402.5475-.535v-.4258c0-.0655-.0559-.1091-.1117-.1091h-4.0447c-.45814 0-.83803-.3712-.83803-.8189v-3.1334c0-.3057.1676-.5786.43573-.7205l2.1229-1.10275c.2235-.09826.4581-.09826.6816 0l2.1229 1.10275c.2682.1419.4358.4148.4358.7205v2.7513c0 .2948.2458.535.5474.535.3017 0 .5475-.2402.5475-.535v-2.7513c.0112-.5677-.2458-1.0918-.6815-1.452z" fill="#f94409"/><path clip-rule="evenodd" d="m19.6065 2.51281c-5.2446-.67089-9.0775-.69175-14.26157-.01387-1.50481.19676-2.68344 1.39403-2.86573 2.90428-.6195 5.13228-.65399 8.94818-.01185 14.26638.18464 1.5292 1.39631 2.7311 2.92701 2.9033 5.15394.5801 9.08264.5615 14.18394-.0084 1.5255-.1704 2.7384-1.3589 2.9327-2.8788.669-5.2307.6404-9.0442-.0176-14.27783-.1899-1.51048-1.3775-2.70198-2.8869-2.89506zm-14.39123-1.00543c5.27363-.689583 9.19283-.667705 14.51813.01351 1.9625.25105 3.5055 1.79987 3.7522 3.76224.6679 5.31227.6976 9.21047.0174 14.52947-.2533 1.9801-1.8324 3.5245-3.8137 3.7458-5.1728.5778-9.1763.5969-14.40678.0083-1.99139-.2241-3.56774-1.7877-3.80796-3.7772-.652167-5.4013-.616839-9.2977.01184-14.50611.23662-1.96033 1.76742-3.51953 3.72887-3.77601z" fill="#2d3436" fill-rule="evenodd"/></svg>