<svg fill="none" height="25" viewBox="0 0 25 25" width="25" xmlns="http://www.w3.org/2000/svg"><circle cx="12.5" cy="12.5" fill="#00ac83" r="11.5" stroke="#09f9bf" stroke-width="2"/><g fill="#fff"><path clip-rule="evenodd" d="m12.4264 5.31494c-1.6719 0-3.06983 1.39792-3.06983 3.06979v1.81677h6.13963v-1.81677c0-1.67187-1.398-3.06979-3.0698-3.06979zm-3.81983 3.06979v1.81677h-.25391c-.89607 0-1.62765.7316-1.62765 1.6277v4.4634c0 .9094.41713 1.7641 1.04024 2.3873.62312.6231 1.47791 1.0402 2.38725 1.0402h4.5426c.9093 0 1.7641-.4171 2.3872-1.0402.6231-.6232 1.0402-1.4779 1.0402-2.3873v-4.4634c0-.8961-.7315-1.6277-1.6276-1.6277h-.2487v-1.81677c0-2.08608-1.7338-3.81979-3.8198-3.81979-2.0861 0-3.81983 1.73371-3.81983 3.81979zm-.25391 2.56677h.61298c.00528.0003.01059.0004.01593.0004h6.88963c.0053 0 .0106-.0001.0159-.0004h.6078c.4818 0 .8776.3958.8776.8777v4.4634c0 .6796-.3146 1.351-.8205 1.8569s-1.1774.8206-1.8569.8206h-4.5426c-.67956 0-1.35101-.3147-1.85692-.8206-.5059-.5059-.82057-1.1773-.82057-1.8569v-4.4634c0-.4819.3958-.8777.87765-.8777zm4.44924 4.3848c0-.2071-.1679-.375-.375-.375s-.375.1679-.375.375v.8143c0 .2071.1679.375.375.375s.375-.1679.375-.375z" fill-rule="evenodd"/><path d="m9.35657 10.2015h-.125c0 .0691.05596.125.125.125zm6.13963 0v.125c.069 0 .125-.0559.125-.125zm-6.88963 0v.125c.06903 0 .125-.0559.125-.125zm8.47573 8.4784.0884.0883zm-.8361-8.4784h-.125c0 .0691.0559.125.125.125zm-7.28056.75.00522-.125h-.00522zm6.92146 0v-.1251l-.0052.0003zm.6649 7.198-.0884-.0884zm-8.25642 0 .08839-.0884zm1.18599-9.76477c0-1.60283 1.34193-2.94479 2.94483-2.94479v-.25c-1.7409 0-3.19483 1.45389-3.19483 3.19479zm0 1.81677v-1.81677h-.25v1.81677zm6.01463-.125h-6.13963v.25h6.13963zm-.125-1.69177v1.81677h.25v-1.81677zm-2.9448-2.94479c1.6028 0 2.9448 1.34196 2.9448 2.94479h.25c0-1.7409-1.4539-3.19479-3.1948-3.19479zm-3.69483 4.76156v-1.81677h-.25v1.81677zm-.37891.125h.25391v-.25h-.25391zm-1.50265 1.5027c0-.827.67562-1.5027 1.50265-1.5027v-.25c-.9651 0-1.75265.7876-1.75265 1.7527zm0 4.4634v-4.4634h-.25v4.4634zm1.00363 2.2989c-.60361-.6036-1.00363-1.4279-1.00363-2.2989h-.25c0 .9477.43423 1.833 1.07686 2.4756zm2.29886 1.0036c-.87101 0-1.69525-.4-2.29886-1.0036l-.17677.1767c.64262.6427 1.52797 1.0769 2.47563 1.0769zm4.5426 0h-4.5426v.25h4.5426zm2.2988-1.0036c-.6036.6036-1.4278 1.0036-2.2988 1.0036v.25c.9476 0 1.833-.4342 2.4756-1.0769zm1.0036-2.2989c0 .871-.4 1.6953-1.0036 2.2989l.1768.1767c.6426-.6426 1.0768-1.5279 1.0768-2.4756zm0-4.4634v4.4634h.25v-4.4634zm-1.5026-1.5027c.827 0 1.5026.6757 1.5026 1.5027h.25c0-.9651-.7875-1.7527-1.7526-1.7527zm-.2487 0h.2487v-.25h-.2487zm-.125-1.94177v1.81677h.25v-1.81677zm-3.6948-3.69479c2.017 0 3.6948 1.67775 3.6948 3.69479h.25c0-2.15512-1.7897-3.94479-3.9448-3.94479zm-3.69483 3.69479c0-2.01704 1.67773-3.69479 3.69483-3.69479v-.25c-2.1552 0-3.94483 1.78967-3.94483 3.94479zm.23407 2.44177h-.61298v.25h.61298zm.01593.0004c-.0036 0-.00717-.0001-.01072-.0002l-.01043.2497c.00702.0003.01407.0005.02115.0005zm6.88963 0h-6.88963v.25h6.88963zm.0107-.0002c-.0036.0001-.0071.0002-.0107.0002v.25c.007 0 .0141-.0002.0211-.0005zm.613-.0002h-.6078v.25h.6078zm1.0026 1.0027c0-.5509-.4517-1.0027-1.0026-1.0027v.25c.4128 0 .7526.3399.7526.7527zm0 4.4634v-4.4634h-.25v4.4634zm-.8571 1.9453c.5254-.5255.8571-1.2275.8571-1.9453h-.25c0 .6413-.2976 1.2822-.7839 1.7685zm-1.9453.8572c.7178 0 1.4198-.3317 1.9453-.8572l-.1768-.1768c-.4864.4864-1.1272.784-1.7685.784zm-4.5426 0h4.5426v-.25h-4.5426zm-1.9453-.8572c.52547.5255 1.22748.8572 1.9453.8572v-.25c-.64131 0-1.28219-.2976-1.76853-.784zm-.85719-1.9453c0 .7178.33171 1.4198.85719 1.9453l.17677-.1768c-.48633-.4863-.78396-1.1272-.78396-1.7685zm0-4.4634v4.4634h.25v-4.4634zm1.00265-1.0027c-.55089 0-1.00265.4518-1.00265 1.0027h.25c0-.4128.33983-.7527.75265-.7527zm4.07424 4.2598c.1381 0 .25.112.25.25h.25c0-.2761-.2239-.5-.5-.5zm-.25.25c0-.138.1119-.25.25-.25v-.25c-.2762 0-.5.2239-.5.5zm0 .8143v-.8143h-.25v.8143zm.25.25c-.1381 0-.25-.112-.25-.25h-.25c0 .2761.2238.5.5.5zm.25-.25c0 .138-.1119.25-.25.25v.25c.2761 0 .5-.2239.5-.5zm0-.8143v.8143h.25v-.8143z"/><path d="m12.4247 15.3372c.4151 0 .7516-.3365.7516-.7516s-.3365-.7516-.7516-.7516-.7516.3365-.7516.7516.3365.7516.7516.7516z" stroke="#fff" stroke-linecap="round" stroke-linejoin="round" stroke-width=".25"/></g></svg>