<svg fill="none" height="25" viewBox="0 0 25 25" width="25" xmlns="http://www.w3.org/2000/svg"><g fill="#2d3436"><path d="m12.8561 1.69238c-.2761 0-.5.22386-.5.5 0 .27615.2239.5.5.5h6.4934l-.092.55221c-.0454.27238.1386.53.411.57539.2723.0454.53-.13861.5753-.41099l.1058-.63441c.0046-.02762.0068-.05509.0069-.0822h3.7012c.2761 0 .5-.22385.5-.5 0-.27614-.2239-.5-.5-.5z"/><path clip-rule="evenodd" d="m5.87091 16.7992c.01827.0183.0376.0349.05781.0498-.45451.3732-.92759.7602-1.42336 1.1647l-.01276.0108c-.96132.8393-1.05923 2.2839-.21994 3.2452l1.57842 1.808c.31127.3565.89269.5958 1.44686.6722.56282.0775 1.25935.0094 1.78537-.441.86033-.6597 1.65529-1.2765 2.40379-1.8674.2389.118.5151.1344.7515.1158.3639-.0287.7871-.15 1.2388-.3406.909-.3833 2.0272-1.0866 3.1872-2.0994 1.16-1.0127 2.0078-2.0258 2.5103-2.8747.2497-.422.427-.8249.5045-1.1816.05-.2301.0711-.5037-.0115-.7548.6866-.6627 1.4044-1.3687 2.1726-2.1351.4925-.4376.7097-1.0529.7303-1.6295.0206-.5756-.152-1.17818-.5237-1.60396l-1.5712-1.79966-.0022-.00241-.0009-.00105-.0025-.00287-.0007-.00084-.0008-.00088c-.0109-.01251-.0226-.02469-.0348-.03606-.8997-.84389-2.3185-.96294-3.2859-.11832-.0049.0042-.0096.0085-.0142.01288-4.0874 3.85437-6.6495 6.10247-10.45665 9.24447-.02386-.0507-.0567-.0982-.09853-.1401l-1.05396-1.056c-.19507-.1955-.51165-.1958-.70711-.0008-.19545.1951-.19577.5117-.0007.7072zm-.84495 3.8129c-.47437-.5434-.42135-1.3525.11853-1.8292 5.12031-4.1776 7.83721-6.5047 12.66791-11.05983.534-.46 1.3568-.42949 1.9204.08436l1.561 1.78789c.1731.19828.291.53678.2777.91058-.0132.3677-.1508.7043-.4021.9237-.0083.0073-.0164.0149-.0243.0227-4.6659 4.6554-7.4493 7.0605-12.68181 11.0718-.00843.0065-.01664.0132-.02464.0202-.2258.1971-.59085.2719-1.00423.2149-.42667-.0588-.73848-.2343-.83004-.3392zm8.06294-.3168c-.1139.048-.2209.0889-.3207.1232 2.045-1.6536 3.7892-3.1711 5.7045-4.9728-.0458.0903-.0985.1863-.1584.2875-.4361.7369-1.2074 1.6705-2.3073 2.6308-1.1.9603-2.1291 1.5986-2.9181 1.9313z" fill-rule="evenodd"/><path d="m19.3561 5.49476c.2762 0 .5-.22334.5-.49884 0-.27551-.2238-.49885-.5-.49885-.2761 0-.5.22334-.5.49885 0 .2755.2239.49884.5.49884z"/></g><path clip-rule="evenodd" d="m6.78662 11.5c2.69752 0 4.88428-2.18676 4.88428-4.88428 0-2.69751-2.18676-4.88427-4.88428-4.88427-2.69751 0-4.88428 2.18676-4.88428 4.88427 0 2.69752 2.18677 4.88428 4.88428 4.88428zm5.88428-4.88428c0 3.2498-2.6345 5.88428-5.88428 5.88428-3.24979 0-5.884276-2.63448-5.884276-5.88428 0-3.24979 2.634486-5.884275 5.884276-5.884275 3.24978 0 5.88428 2.634485 5.88428 5.884275z" fill="#85949a" fill-rule="evenodd"/><path d="m9.0259 8.10004c.19526.19526.19526.51185 0 .70711s-.51185.19526-.70711 0l-1.51649-1.51649-1.54347 1.54348c-.19527.19526-.51185.19526-.70711 0s-.19526-.51185 0-.70711l1.54348-1.54348-1.48098-1.48097c-.19526-.19527-.19526-.51185 0-.70711s.51184-.19526.70711 0l1.48097 1.48098 1.45399-1.45399c.19526-.19526.51185-.19526.70711 0s.19526.51184 0 .70711l-1.45399 1.45398z" fill="#f18303"/></svg>