<svg fill="none" height="25" viewBox="0 0 25 25" width="25" xmlns="http://www.w3.org/2000/svg"><path d="m17.2219 21.3885c.0058.0065.0119.0129.0182.0192.158.158.3954.1882.5837.0905.0447-.0231.0866-.0533.1241-.0908.0035-.0035.007-.0071.0104-.0107l3.6935-3.6935c.1953-.1953.1953-.5119 0-.7071-.1953-.1953-.5118-.1953-.7071 0l-3.3505 3.3505-1.7094-1.7094c-.1953-.1952-.5118-.1952-.7071 0-.1953.1953-.1953.5119 0 .7071z" fill="#00ac83"/><path clip-rule="evenodd" d="m18.4155 14.1699c-2.6975 0-4.8843 2.1868-4.8843 4.8843s2.1868 4.8843 4.8843 4.8843 4.8843-2.1868 4.8843-4.8843-2.1868-4.8843-4.8843-4.8843zm-5.8843 4.8843c0-3.2498 2.6345-5.8843 5.8843-5.8843s5.8843 2.6345 5.8843 5.8843-2.6345 5.8843-5.8843 5.8843-5.8843-2.6345-5.8843-5.8843z" fill="#85949a" fill-rule="evenodd"/><g fill="#2d3436"><path clip-rule="evenodd" d="m.699219.561523c0-.276142.223857-.4999996.500001-.4999996h20.62418c.2762 0 .5.2238576.5.4999996 0 .276143-.2238.499997-.5.499997h-1.7257c0 .02711-.0022.05458-.0068.0822l-.4939 2.96339c.3998-.01391.8105-.02898 1.2338-.04522.0064-.00024.0128-.00037.0192-.00037 1.2842 0 2.2748 1.02283 2.3975 2.25025.0017.01653.0025.03314.0025.04975v2.4c0 .56522-.2663 1.13267-.6603 1.55278-.3948.4207-.9631.7415-1.6219.7471-1.0829.0721-2.0882.1319-3.0413.1796-.103.2434-.2988.4356-.4877.576-.293.2177-.6915.4046-1.1572.5582-.9368.3091-2.2417.5147-3.7816.5147s-2.84483-.2056-3.78165-.5147c-.46563-.1536-.86415-.3405-1.15717-.5582-.19031-.1414-.38756-.3354-.4899-.5814-.95237-.0471-1.95675-.1052-3.03849-.1742-.69248-.0066-1.26198-.4134-1.63496-.8419-.36724-.42202-.64783-.98469-.64783-1.45798v-2.399l.5-.001.5.00002v2.39998c0 .13921.11941.47655.40217.80145.27393.31476.59808.49853.89783.49853.01061 0 .02122.0004.03182.001 6.57978.4196 10.25828.4384 16.83498.0001.011-.0007.0221-.0011.0332-.0011.3336 0 .6586-.16305.9103-.4314.256-.27281.3897-.60535.3897-.86858v-2.3734c-.0866-.75777-.6864-1.32189-1.3912-1.32657-6.6348.25438-10.2119.22054-16.8165 0-.72024.00406-1.2923.5787-1.2923 1.29999l-.5-.00002-.5.001c0-1.27614 1.02386-2.301 2.3-2.301l.01669.00028c.45802.0153.90137.0297 1.33209.04317l-.49354-2.96125c-.0046-.02762-.00685-.05509-.00688-.0822h-3.69914c-.276144 0-.500001-.223854-.500001-.499997zm5.693931 3.573477c4.49685.13066 7.68175.14692 12.21055.005-.0082-.0519-.0084-.10599.0008-.16068l.4863-2.9178h-13.18547l.4863 2.9178c.00883.05294.00899.10531.00152.15568zm2.31625 7.1725c.09765.0398.20501.0794.32225.1181.81318.2682 2.00825.4643 3.46835.4643s2.6552-.1961 3.4684-.4643c.1115-.0368.2141-.0744.3079-.1123-2.6273.0976-4.9391.0935-7.5669-.0058z" fill-rule="evenodd"/><path d="m23.2687.561523c0-.276142.2239-.4999996.5-.4999996h.0305c.2762 0 .5.2238576.5.4999996 0 .276143-.2238.499997-.5.499997h-.0305c-.2761 0-.5-.223854-.5-.499997z"/></g></svg>