<svg fill="none" height="30" viewBox="0 0 30 30" width="30" xmlns="http://www.w3.org/2000/svg"><path d="m15 29.375c7.9391 0 14.375-6.4359 14.375-14.375 0-7.93909-6.4359-14.375-14.375-14.375-7.93909 0-14.375 6.43591-14.375 14.375 0 7.9391 6.43591 14.375 14.375 14.375z" stroke="#f94409" stroke-linecap="round" stroke-linejoin="round" stroke-miterlimit="10"/><path d="m15.625 11.25c0-.3452-.2798-.625-.625-.625s-.625.2798-.625.625v3.125h-3.125c-.3452 0-.625.2798-.625.625s.2798.625.625.625h3.125v3.125c0 .3452.2798.625.625.625s.625-.2798.625-.625v-3.125h3.125c.3452 0 .625-.2798.625-.625s-.2798-.625-.625-.625h-3.125z" fill="#f94409"/></svg>