<svg fill="none" height="25" viewBox="0 0 26 25" width="26" xmlns="http://www.w3.org/2000/svg"><g fill="#18303f"><path d="m19.6937 20.5928c.2761 0 .5-.2239.5-.5 0-.2762-.2239-.5-.5-.5-.2762 0-.5.2238-.5.5 0 .2761.2238.5.5.5z"/><g clip-rule="evenodd" fill-rule="evenodd"><path d="m16.139 10.0312c-1.096 0-1.9844.8885-1.9844 1.9844 0 1.096.8884 1.9844 1.9844 1.9844 1.0959 0 1.9843-.8884 1.9843-1.9844 0-1.0959-.8884-1.9844-1.9843-1.9844zm-.9844 1.9844c0-.5436.4407-.9844.9844-.9844.5436 0 .9843.4408.9843.9844 0 .5437-.4407.9844-.9843.9844-.5437 0-.9844-.4407-.9844-.9844z"/><path d="m19.3421 2.90625c-.8284 0-1.5.67157-1.5 1.5v.72532l-5.2573-1.96168c-.9803-.36576-2.0244.35909-2.0244 1.40535v3.56259c-.2985-.10617-.63523-.11945-.96862-.00969l-5.61142 1.84739c-.20507.06747-.34364.25907-.34364.47497v11.1121c0 .2761.22386.5.5.5h17.73268c.2762 0 .5-.2239.5-.5v-13.70042c0-.62616-.3889-1.18645-.9756-1.40535l-.3955-.14757v-1.90301c0-.82843-.6715-1.5-1.5-1.5zm.6562 3.02988v-1.52988c0-.27614-.2238-.5-.5-.5h-.1562c-.2761 0-.5.22386-.5.5v.9375c0 .05305-.0083.10418-.0236.15215zm-7.7631-1.82934c-.3268-.12192-.6748.1197-.6748.46845v4.93941c.0003.0127.0004.02546.0004.03827v11.50968h1.0508v-2.6905c0-.6904.5597-1.25 1.25-1.25h5.0819c.6904 0 1.25.5596 1.25 1.25v.2225c0 .2761-.2238.5-.5.5-.2761 0-.5-.2239-.5-.5v-.2225c0-.1381-.1119-.25-.25-.25h-1.9764v2.9405h2.7264.004 1.6719v-13.20042c0-.20872-.1296-.39548-.3252-.46845zm1.6264 14.01531h2.1055v2.9405h-2.3555v-2.6905c0-.1381.112-.25.25-.25zm-3.3012-8.59125v11.53175h-1.12621v-2.4688c0-.8285-.67157-1.5-1.5-1.5h-.6875c-.82842 0-1.5.6715-1.5 1.5v2.4688h-1.10997v-10.2504l5.26777-1.73421c.31641-.10416.64191.12411.65591.45286zm-3.31371 8.56295c-.27614 0-.5.2238-.5.5v2.4687h1.6875v-2.4687c0-.2762-.22386-.5-.5-.5z"/></g></g></svg>