<svg fill="none" height="26" viewBox="0 0 26 26" width="26" xmlns="http://www.w3.org/2000/svg"><path clip-rule="evenodd" d="m13.0566 4.28757c2.0092-2.00917 5.0269-2.51381 7.5433-1.30593.1462.07017.2493.20686.2765.36669.0273.15984-.0247.32297-.1393.43763l-2.9219 2.92183v2.08224h2.0823l2.9218-2.92183c.1147-.11466.2778-.16659.4376-.13933.1599.02726.2966.13034.3667.27652 1.2048 2.50989.7098 5.62861-1.3151 7.55221-1.92 1.8241-4.765 2.3682-7.2155 1.2652l-9.13946 9.1394c-.93909.9391-2.37141.9391-3.3105 0-.00784-.0078-.01543-.0159-.02273-.0243-.78808-.9006-.94366-2.3198.02273-3.2862l9.13906-9.1391c-1.1055-2.44046-.6573-5.29327 1.2745-7.22503zm6.4394-.67476c-1.9798-.65204-4.1984-.15198-5.7323 1.38186-1.6989 1.69892-2.045 4.25007-.9327 6.38913.1006.1936.0642.43-.09.5842l-9.39085 9.3908c-.51753.5176-.49129 1.322.01176 1.908.54817.5369 1.33987.533 1.88452-.0117l9.39077-9.3908c.1543-.1542.3907-.1907.5843-.09 2.1271 1.1061 4.6868.6842 6.3983-.9417 1.5207-1.4446 2.0267-3.72418 1.3721-5.72274l-2.5337 2.53373c-.0938.09376-.221.14644-.3536.14644h-2.7894c-.2761 0-.5-.22385-.5-.5v-2.78934c0-.13261.0527-.25979.1465-.35356z" fill="#18303f" fill-rule="evenodd"/></svg>