<svg fill="none" height="26" viewBox="0 0 26 26" width="26" xmlns="http://www.w3.org/2000/svg"><g fill="#18303f"><path d="m5.47302 3.33325c-.82842 0-1.5.67158-1.5 1.5v16.00005c0 .8284.67158 1.5 1.5 1.5h14.99998c.8285 0 1.5-.6716 1.5-1.5v-16.00005c0-.82843-.6715-1.5-1.5-1.5h-1.4502c-.2762 0-.5-.22386-.5-.5s.2238-.5.5-.5h1.4502c1.3807 0 2.5 1.11929 2.5 2.5v16.00005c0 1.3807-1.1193 2.5-2.5 2.5h-14.99998c-1.38071 0-2.5-1.1193-2.5-2.5v-16.00005c0-1.38071 1.11929-2.5 2.5-2.5h1.65745c.27614 0 .5.22386.5.5s-.22386.5-.5.5z"/><path d="m8.97302 2.83325c0-.27614.22386-.5.5-.5h.99998c.2762 0 .5.22386.5.5s-.2238.5-.5.5h-.99998c-.27614 0-.5-.22386-.5-.5z"/><path d="m11.973 2.83325c0-.27614.2239-.5.5-.5h1c.2762 0 .5.22386.5.5s-.2238.5-.5.5h-1c-.2761 0-.5-.22386-.5-.5z"/><path d="m14.973 2.83325c0-.27614.2239-.5.5-.5h1c.2762 0 .5.22386.5.5s-.2238.5-.5.5h-1c-.2761 0-.5-.22386-.5-.5z"/><path d="m10.473 7.33325c0-.27614.2239-.5.5-.5h8c.2762 0 .5.22386.5.5s-.2238.5-.5.5h-8c-.2761 0-.5-.22386-.5-.5z"/><path d="m10.973 14.8333c-.2761 0-.5.2238-.5.5 0 .2761.2239.5.5.5h8c.2762 0 .5-.2239.5-.5 0-.2762-.2238-.5-.5-.5z"/><path d="m10.473 11.3333c0-.2762.2239-.5.5-.5h5c.2762 0 .5.2238.5.5 0 .2761-.2238.5-.5.5h-5c-.2761 0-.5-.2239-.5-.5z"/><path d="m10.973 18.8333c-.2761 0-.5.2238-.5.5 0 .2761.2239.5.5.5h5c.2762 0 .5-.2239.5-.5 0-.2762-.2238-.5-.5-.5z"/><path d="m7.47302 5.83325c-.55228 0-1 .44772-1 1 0 .55229.44772 1 1 1 .55229 0 1-.44771 1-1 0-.55228-.44771-1-1-1z"/><path d="m6.47302 10.8333c0-.5523.44772-1.00005 1-1.00005.55229 0 1 .44775 1 1.00005 0 .5522-.44771 1-1 1-.55228 0-1-.4478-1-1z"/><path d="m7.47302 13.8333c-.55228 0-1 .4477-1 1 0 .5522.44772 1 1 1 .55229 0 1-.4478 1-1 0-.5523-.44771-1-1-1z"/><path d="m6.47302 18.8333c0-.5523.44772-1 1-1 .55229 0 1 .4477 1 1 0 .5522-.44771 1-1 1-.55228 0-1-.4478-1-1z"/></g></svg>