<svg fill="none" height="26" viewBox="0 0 25 26" width="25" xmlns="http://www.w3.org/2000/svg"><g stroke="#18303f"><path d="m16.0696 17.8547-.0491.0492m1.4323 1.3309-1.7257 1.7206c-.1972.1967-.1972.4425 0 .6391l.522.522m2.5076-.1568 1.0108-1.0078 1.5778-1.5732c.1972-.1966.1972-.4916.0493-.6391l-.7257-.6715-1.7257-1.7206-1.6764-1.7207-3.9937-3.9821c1.2327-2.16317.8875-5.01456-.9368-6.83356-2.268-2.26145-5.86725-2.26145-8.13528 0s-2.26803 5.85028 0 8.11176c1.87359 1.8681 4.68398 2.1631 6.85338.9341l2.6979 2.6871-1.7257 1.7207c-.1972.1966-.1972.4424 0 .6391l1.6764 1.6715c.1972.1966.4437.1966.641 0l.5055-.5056m2.6622 4.0101-.023.0195" stroke-linecap="round" stroke-linejoin="round" stroke-miterlimit="10"/><circle cx="8.29688" cy="7.90411" r="2.20312"/></g></svg>