<svg fill="none" height="26" viewBox="0 0 25 26" width="25" xmlns="http://www.w3.org/2000/svg"><g fill="#c4c4c4"><path d="m9.17578 1.39062c0 .27615-.22386.5-.5.5s-.5-.22385-.5-.5c0-.27614.22386-.499995.5-.499995s.5.223855.5.499995z"/><path d="m10.3317 1.39869c-.2631-.08399-.54444.06117-.62843.32423s.06117.5444.32423.62839c4.4716 1.42773 7.7207 5.39278 8.262 10.18819.044.39.0712 1.0899.078 1.513.0027.1619.0835.3125.217.4041s.303.113.4551.0573c.3919-.1437.7828-.3117 1.1647-.4999.2865-.1411.5683-.2938.842-.4563.2375-.1409.3157-.4477.1747-.6852-.1409-.2374-.4477-.3156-.6851-.1747-.2512.1491-.5102.2894-.7736.4192-.1382.0681-.2775.1332-.4175.1952-.0141-.3181-.0346-.6457-.0616-.8849-.5848-5.18012-4.0982-9.47897-8.9515-11.02861z"/><path d="m9.83005 2.83544c-.09329-.2599-.37961-.39498-.63952-.30169-.25991.09328-.39498.37961-.30169.63951.37414 1.04241.58896 2.15351.58896 3.30464 0 1.23842-.25197 2.48432-.70952 3.6851-.2981-.42978-.5509-.86404-.76609-1.31619-.11867-.24934-.41701-.35527-.66635-.2366s-.35527.41701-.2366.66635c.36664.77034.8278 1.48614 1.40384 2.19574.10875.134.27889.2024.45011.181.17122-.0213.31933-.1295.39182-.286.71739-1.54955 1.13279-3.21391 1.13279-4.8894 0-1.27655-.2383-2.50177-.64775-3.64246z"/><path clip-rule="evenodd" d="m6.19687 9.19084c.17636-.21249.14708-.52771-.06541-.70408-.21249-.17636-.52771-.14708-.70407.06541-1.49595 1.80233-2.27114 4.57983-2.27114 6.88603 0 .0064.00012.0127.00036.0191.20796 5.4498 4.68219 9.6455 10.09039 9.5407l.0101-.0003c5.3082-.2098 9.5675-4.6142 9.5675-10.0573 0-.4172-.0206-.8394-.0721-1.256-.0338-.2741-.2835-.4688-.5575-.4349-.2741.0339-.4688.2835-.4349.5575.0454.368.0645.7483.0645 1.1334 0 3.6978-2.1772 6.8556-5.2877 8.2706.6049-.8212.9486-1.8069.9521-2.8777.1052-1.69-.7945-3.2635-2.3492-4.047-.0698-.0352-.1469-.0535-.2251-.0535h-.1969c-.2105 0-.3911.1299-.4649.314-.0159.02-.033.0438-.0487.0702-.0252.0423-.0476.0916-.0633.148-.005.018-.0091.036-.0124.0539-.078.2173-.1906.4031-.3259.5665-.2149-.6535-.2177-1.3547-.0357-2.026.0723-.2665-.0852-.5411-.3517-.6134s-.5412.0852-.6134.3517c-.3 1.1065-.2079 2.3135.3939 3.375.071.1253.1927.2139.3337.2431.1411.0291.2879-.0039.4028-.0908.3825-.2891.7994-.6885 1.0597-1.2741 1.016.6463 1.5761 1.7546 1.4982 2.933-.0007.011-.0011.022-.0011.033 0 .964-.3442 1.8396-.9532 2.5468-.6939.6937-1.5344 1.0217-2.4522.9376-.0151-.0014-.0303-.002-.0456-.002-.9551 0-1.8145-.3464-2.5095-1.0469-.0078-.0079-.0159-.0155-.0242-.0229-.66753-.5887-1.01602-1.4396-1.01602-2.4126 0-2.4149 1.32212-4.6338 3.37912-5.9085.2347-.1455.3071-.4537.1616-.6884-.1454-.2347-.4536-.3071-.6884-.1616-2.3294 1.4436-3.85232 3.9726-3.85232 6.7585 0 1.1573.39929 2.2451 1.22318 3.0413-3.15087-1.2665-5.41235-4.2836-5.55521-7.9295.00217-2.1323.73055-4.6595 2.04062-6.23786zm8.12153 7.28346c.0002-.0001-.0011.0013-.004.0043z" fill-rule="evenodd"/><path d="m22.5586 12.2432c0 .2761-.2239.5-.5.5s-.5-.2239-.5-.5c0-.2762.2239-.5.5-.5s.5.2238.5.5z"/><path d="m13.9492 13.8457c.2762 0 .5-.2239.5-.5s-.2238-.5-.5-.5c-.2761 0-.5.2239-.5.5s.2239.5.5.5z"/><path d="m7 8.12988c.27614 0 .5-.22385.5-.5 0-.27614-.22386-.5-.5-.5s-.5.22386-.5.5c0 .27615.22386.5.5.5z"/></g></svg>