<svg fill="none" height="26" viewBox="0 0 25 26" width="25" xmlns="http://www.w3.org/2000/svg"><g fill="#c4c4c4"><path d="m8.54688 1.65039c0-.27614-.22386-.5-.5-.5-3.57615 0-6.5 2.92386-6.5 6.5 0 .27614.22385.5.49999.5.27615 0 .5-.22386.5-.5 0-3.02386 2.47615-5.5 5.50001-5.5.27614 0 .5-.22386.5-.5z"/><path d="m10.168 4.65039c0-.27614-.22389-.5-.50003-.5-2.86759 0-5.11953 2.25195-5.11953 5.11953 0 .27614.22385.5.5.5.27614 0 .5-.22386.5-.5 0-2.3153 1.80423-4.11953 4.11953-4.11953.27614 0 .50003-.22386.50003-.5z"/><path d="m16.375 4.15039c-.2761 0-.5.22386-.5.5s.2239.5.5.5c2.3153 0 4.1195 1.80423 4.1195 4.11953 0 .27614.2239.5.5.5.2762 0 .5-.22386.5-.5 0-2.86758-2.2519-5.11953-5.1195-5.11953z"/><path d="m16.5742 1.65039c0-.27614.2239-.5.5-.5 4.0824 0 7.4204 3.33804 7.4204 7.42041 0 .27614-.2238.5-.5.5-.2761 0-.5-.22386-.5-.5 0-3.53008-2.8903-6.42041-6.4204-6.42041-.2761 0-.5-.22386-.5-.5z"/><path clip-rule="evenodd" d="m7.21905 23.2088c-.93832-.5417-1.34449-1.6512-1.0351-2.644l-2.79947-1.6162c-.75117-.4337-.97903-1.4122-.49674-2.1331l4.08887-6.112c1.00874-1.50782 2.54755-2.46206 4.21169-2.76844 1.4654-.27038 3.0281-.03835 4.4117.76046 2.9539 1.70548 4.0787 5.40968 2.5718 8.46968l-3.2486 6.597c-.2195.4457-.6287.7319-1.0794.8136-.3369.0616-.6971.009-1.0188-.1768l-2.7977-1.6152c-.24104.2609-.53558.4562-.85634.5787-.61815.2369-1.33396.2031-1.95191-.1537zm-.12631-2.1193c-.05751.49.17413.9901.62855 1.2524.34624.1999.74731.2188 1.09364.0861.10802-.0416.21068-.098.30466-.1683zm6.57336 2.5022c-.112.0202-.2317.0026-.3386-.0591l-3.1839-1.8383c-.0119-.0068-.024-.0132-.0362-.0189l-3.0019-1.7332c-.01111-.0077-.02261-.015-.03451-.0218l-3.18403-1.8383c-.25038-.1446-.32634-.4708-.16557-.7111l4.08886-6.1119c.8533-1.27549 2.15515-2.08251 3.56295-2.34127 1.2373-.22684 2.5563-.03017 3.7243.64418 2.4978 1.44209 3.4489 4.57439 2.1747 7.16189l-3.2486 6.597c-.0728.1478-.2082.243-.3575.2708z" fill-rule="evenodd"/></g></svg>