<svg fill="none" height="20" viewBox="0 0 20 20" width="20" xmlns="http://www.w3.org/2000/svg"><path d="m5.55246 3.6892-.53483 1.58604s-.53302 12.28766.7693 13.22736c1.16484.8404 7.41777.9965 8.61627 0 1.0113-.841.5365-13.22736.5365-13.22736l-.498-1.58604-1.8627-.71926-.1844-1.60451-.4426-.645459h-3.8176l-.59015.645459-.20287 1.60451z" fill="#f0faff"/><path clip-rule="evenodd" d="m9.105.624023h2.8573l.1831.499997h.3169l.1831.5h.1383v1.19942h-2.2777c-.4418 0-.8.35817-.8.8v.824c0 .48656-.39444.881-.881.881-.88366 0-1.6.71634-1.6 1.6v12.21246s-.79034.1023-1.201-.1628c-.07961-.0514-.14978-.1751-.2115-.3593-.10533-.04-.2048-.0867-.2885-.1407-1.01054-.6524-.5-12.94908-.5-12.94908 0-1.32548 1.07452-2.4 2.4-2.4.04473 0 .081-.03626.081-.081v-.824c0-.88365.71634-1.599997 1.6-1.599997z" fill="#d9eef9" fill-rule="evenodd"/><path clip-rule="evenodd" d="m7.025 2.72839c-1.32548 0-2.4 1.07452-2.4 2.4v11.89561c0 1.3255 1.07452 2.4 2.4 2.4h5.952c1.3255 0 2.4-1.0745 2.4-2.4v-11.89561c0-1.32548-1.0745-2.4-2.4-2.4-.045 0-.0815-.03647-.0815-.08146v-.82354c0-.883656-.7163-1.600001-1.6-1.600001h-2.5895c-.88366 0-1.6.716345-1.6 1.600001v.824c0 .04473-.03627.081-.081.081zm-1.6 2.4c0-.88366.71634-1.6 1.6-1.6.48656 0 .881-.39444.881-.881v-.824c0-.44183.35817-.8.8-.8h2.5895c.4419 0 .8.35817.8.8v.82354c0 .48681.3947.88146.8815.88146.8837 0 1.6.71634 1.6 1.6v11.89561c0 .8837-.7163 1.6-1.6 1.6h-5.952c-.88366 0-1.6-.7163-1.6-1.6z" fill="#2d3436" fill-rule="evenodd"/><path d="m7.76953 11.2044 2.74587-3.84429-.402 2.41248 2.128.06865-2.76549 3.92276.50996-2.4812z" fill="#f0faff"/><path d="m10.0345 8.19116-2.11821 2.87754h1.91628l1.15443-1.336h-.8155z" fill="#d9eef9"/><path clip-rule="evenodd" d="m10.9988 7.29911c.0479-.21565-.0881-.42932-.3037-.47724-.0409-.00909-.0818-.01156-.1214-.00814-.113.00953-.2212.0668-.2923.16637l-2.85392 4.0021c-.05344.0749-.07735.162-.07405.2474-.00018.0049-.00027.0098-.00027.0148 0 .2209.17908.4.4.4h1.78047l-.46782 2.1052c-.04125.1856.05389.3746.22757.4521.17367.0774.37787.0219.4884-.1329l2.88002-4.032c.0871-.12189.0987-.28226.0301-.41549-.0685-.13323-.2058-.21697-.3556-.21697h-1.8054zm-.9765 3.54529h-1.51395l1.28281-1.7989-.14935.67207c-.02632.11844.00254.24242.07846.33703.07591.0947.19068.1497.31203.1497h1.5267l-1.2859 1.8003.1497-.6735c.0479-.2156-.0881-.4293-.3037-.4772-.0325-.0073-.065-.0103-.0968-.0095z" fill="#2d3436" fill-rule="evenodd"/><path d="m13.2086 10.0146c.4429-.79714 1.5058-.79714 1.9486 0l4.0743 7.1743c.4428.7971-.1181 1.6828-1.0038 1.6828h-8.1781c-.88574 0-1.38766-.9447-1.00385-1.6828z" fill="#ffcd50"/><path d="m16.043 12.967c-.4429-.7971-1.5057-.7971-1.9486 0l-3.4248 5.9048h7.5581c.3839 0 .7086-.1772.9153-.4429z" fill="#ffda88"/><g clip-rule="evenodd" fill="#2d3436" fill-rule="evenodd"><path d="m14.793 10.2169c-.2841-.51141-.936-.51141-1.2201 0l-.0039.0067-4.15751 7.1651c-.24464.4834.09472 1.0663.63811 1.0663h8.1781c.5842 0 .9193-.5579.6404-1.0623zm.7274-.40653c-.6015-1.07989-2.0714-1.08049-2.674-.00182l-4.16105 7.17115c-.00322.0055-.00632.0112-.00928.0169-.51547.9913.14829 2.2917 1.37353 2.2917h8.1781c1.1866 0 1.9732-1.2124 1.368-2.3018z"/><path d="m13.7625 16.3725c.1079-.0913.2593-.1613.4205-.1613.1573 0 .3321.0488.468.1847.136.136.1848.3108.1848.4681 0 .1574-.0488.3322-.1848.4681-.1359.136-.3107.1848-.468.1848-.1574 0-.3322-.0489-.4681-.1848-.136-.136-.1848-.3107-.1848-.4681 0-.2243.1146-.3918.2324-.4915z"/><path d="m14.1829 12.1074c.2302 0 .4167.1866.4167.4167v2.6276c0 .2301-.1865.4167-.4167.4167-.2301 0-.4166-.1866-.4166-.4167v-2.6276c0-.2301.1865-.4167.4166-.4167z"/></g></svg>