<svg fill="none" height="40" viewBox="0 0 40 40" width="40" xmlns="http://www.w3.org/2000/svg"><path d="m11.105 7.37849-1.0697 3.17211s-1.06602 24.5752 1.5386 26.4546c2.3297 1.681 14.8356 1.9932 17.2325 0 2.0227-1.682 1.073-26.4546 1.073-26.4546l-.9959-3.17211-3.7254-1.43852-.3688-3.20902-.8853-1.29092h-7.6351l-1.1803 1.29092-.4058 3.20902z" fill="#f0faff"/><path clip-rule="evenodd" d="m18.21 1.24805h5.7146l.3662 1h.6338l.3662 1h.2766v2.39882h-4.5554c-.8837 0-1.6.71635-1.6 1.60001v1.648c0 .97312-.7889 1.76202-1.762 1.76202-1.7673 0-3.2 1.4327-3.2 3.2v24.4248s-1.5807.2048-2.402-.3255c-.1592-.1028-.2996-.3501-.423-.7186-.2107-.08-.4096-.1733-.577-.2814-2.02112-1.3049-1-25.8982-1-25.8982 0-2.65092 2.149-4.79995 4.8-4.79995.0894 0 .162-.07253.162-.162v-1.648c0-1.76731 1.4327-3.2 3.2-3.2z" fill="#d9eef9" fill-rule="evenodd"/><path clip-rule="evenodd" d="m14.05 5.45687c-2.651 0-4.8 2.14903-4.8 4.80003v23.7913c0 2.6509 2.149 4.8 4.8 4.8h11.904c2.651 0 4.8-2.1491 4.8-4.8v-23.7913c0-2.651-2.149-4.80003-4.8-4.80003-.09 0-.1629-.07294-.1629-.16293v-1.64707c0-1.76731-1.4327-3.200001-3.2-3.200001h-5.1791c-1.7673 0-3.2 1.432691-3.2 3.200001v1.648c0 .08947-.0725.162-.162.162zm-3.2 4.80003c0-1.76734 1.4327-3.20003 3.2-3.20003.9731 0 1.762-.78887 1.762-1.762v-1.648c0-.88366.7163-1.6 1.6-1.6h5.1791c.8836 0 1.6.71634 1.6 1.6v1.64707c0 .97364.7893 1.76293 1.7629 1.76293 1.7673 0 3.2 1.43269 3.2 3.20003v23.7913c0 1.7673-1.4327 3.2-3.2 3.2h-11.904c-1.7673 0-3.2-1.4327-3.2-3.2z" fill="#2d3436" fill-rule="evenodd"/><path d="m15.5391 22.4089 5.4918-7.6886-.8042 4.825 4.2562.1373-5.5311 7.8454 1.0199-4.9622z" fill="#f0faff"/><path d="m20.0689 16.3825-4.2364 5.7551h3.8326l2.3088-2.672h-1.631z" fill="#d9eef9"/><path clip-rule="evenodd" d="m21.9973 14.5984c.0959-.4313-.1761-.8586-.6074-.9545-.0818-.0181-.1634-.0231-.2427-.0162-.226.019-.4425.1335-.5845.3327l-5.7079 8.0042c-.1069.1499-.1547.3241-.1481.4948-.0004.0098-.0006.0197-.0006.0295 0 .4419.3582.8.8.8h3.561l-.9357 4.2104c-.0825.3713.1078.7493.4552.9042.3473.1549.7557.0439.9768-.2656l5.76-8.064c.1741-.2439.1974-.5646.0603-.8311-.1371-.2664-.4117-.4339-.7113-.4339h-3.6107zm-1.953 7.0905h-3.0278l2.5656-3.5977-.2987 1.3441c-.0526.2369.0051.4849.1569.6742.1519.1892.3814.2994.6241.2994h3.0534l-2.5718 3.6006.2993-1.3471c.0959-.4313-.1761-.8586-.6074-.9545-.065-.0144-.1299-.0205-.1936-.019z" fill="#2d3436" fill-rule="evenodd"/></svg>