<svg fill="none" height="52" viewBox="0 0 51 52" width="51" xmlns="http://www.w3.org/2000/svg"><path clip-rule="evenodd" d="m25.5 8.41515c.5633 0 1.02-.45667 1.02-1.02s-.4567-1.02-1.02-1.02c-.5634 0-1.02.45667-1.02 1.02s.4566 1.02 1.02 1.02zm-7.4995 2.02725c.2678.483.0934 1.0917-.3896 1.3595-5.0397 2.7942-8.45093 8.1799-8.45093 14.3655 0 9.0607 7.31893 16.3999 16.34003 16.3999s16.34-7.3392 16.34-16.3999c0-6.1856-3.4113-11.5713-8.4509-14.3655-.483-.2678-.6575-.8765-.3897-1.3595.2678-.48302.8765-.65747 1.3595-.3897 5.6518 3.1337 9.4811 9.1756 9.4811 16.1147 0 10.1587-8.2079 18.3999-18.34 18.3999-10.1322 0-18.34003-8.2412-18.34003-18.3999 0-6.9391 3.82923-12.981 9.48113-16.1147.483-.26777 1.0916-.09332 1.3594.3897zm7.4795.4849c.5523 0 1 .4477 1 1v14.32c0 .5523-.4477 1-1 1s-1-.4477-1-1v-14.32c0-.5523.4477-1 1-1z" fill="#92a0a9" fill-rule="evenodd"/></svg>