<svg fill="none" height="13" viewBox="0 0 13 13" width="13" xmlns="http://www.w3.org/2000/svg"><path clip-rule="evenodd" d="m10.1909 7.61437c-.1439 0-.27355-.06077-.36477-.15804l-.89429-.89429c-.19526-.19526-.19526-.51184 0-.7071.19526-.19527.51185-.19527.70711 0l.05196.05196v-.11243c0-1.54803-1.25186-2.76859-2.97216-2.76859-.27614 0-.5-.22386-.5-.5s.22386-.5.5-.5c2.21481 0 3.97215 1.61222 3.97215 3.76859v.11316l.0527-.05269c.1953-.19527.5119-.19527.7071 0 .1953.19526.1953.51184 0 .7071l-.9059.90589c-.0968.09686-.2236.14568-.3505.14643zm-7.38621-2.23009c.14387 0 .27355.06077.36478.15804l.89429.89429c.19526.19526.19526.51184 0 .7071-.19526.19527-.51185.19527-.70711 0l-.05196-.05196v.11243c0 1.54803 1.25185 2.76859 2.97216 2.76859.27614 0 .5.22383.5.50003 0 .2761-.22386.5-.5.5-2.21481 0-3.97216-1.61225-3.97216-3.76862v-.11316l-.0527.05269c-.19526.19527-.51184.19527-.70711 0-.19526-.19526-.19526-.51184 0-.7071l.90589-.90589c.09744-.09744.22509-.14625.3528-.14644z" fill="#03a9f1" fill-rule="evenodd"/></svg>