<svg fill="none" height="28" viewBox="0 0 28 28" width="28" xmlns="http://www.w3.org/2000/svg"><path clip-rule="evenodd" d="m13.7516 1.51895c.0682-.19739.0065-.41632-.1547-.549077-.1612-.132754-.3879-.151364-.5686-.046673-1.9292 1.1179-3.21305 3.09321-3.21305 5.28979 0 1.22697.38955 2.46859 1.18755 3.43529 1.1723 1.50662 2.5537 2.23852 5.7938 3.36852l.0061.0021c2.2141.7402 3.9695 2.5058 3.9695 4.7299 0 .2717-.0042.4487-.0625.6175-.0681.1974-.0064.4163.1548.549.1612.1328.3879.1514.5685.0467 1.9293-1.1179 3.2131-3.0932 3.2131-5.2898 0-.0132-.0005-.0265-.0016-.0397-.0967-1.2142-.4863-2.3471-1.266-3.3829-.6464-.86405-1.4612-1.42888-2.4053-1.8848-.7637-.36876-1.6382-.67739-2.587-1.01223l-.0002-.00005c-.2055-.07254-.4145-.14631-.6267-.2222-2.7393-.99234-4.1498-2.83056-4.0704-4.97541.0002-.00615.0003-.01231.0003-.01847 0-.2717.0042-.44868.0624-.61749zm-2.9363 4.69404c0-1.46719.7037-2.85026 1.8705-3.83255.0231 2.58826 1.8236 4.63645 4.7339 5.69044l.0018.00067c.2244.08025.4416.15696.652.23129l.0001.00002c.9461.33414 1.7557.62005 2.4647.96245.8518.41131 1.5188.88709 2.0398 1.58389l.001.0013c.6527.8667.9815 1.8087 1.067 2.8415-.0063 1.4634-.7124 2.8417-1.8792 3.82-.1194-2.6838-2.2588-4.642-4.644-5.4405-3.2196-1.123-4.3531-1.7784-5.335-3.04272l-.0099-.01228c-.6354-.76713-.9627-1.77795-.9627-2.80351zm-4.24597 3.11274c.06813-.19739.00642-.41632-.15476-.54908-.16118-.13275-.38789-.15136-.56856-.04667-1.92923 1.1179-3.21307 3.09322-3.21307 5.28982 0 1.2269.38951 2.4686 1.1876 3.4353 1.17224 1.5066 2.55362 2.2385 5.79374 3.3685h-.00001l.00613.0021c2.2141.7401 3.9694 2.5058 3.9694 4.7299 0 .2717-.0041.4486-.0624.6174-.0681.1974-.0064.4164.1548.5491.1611.1328.3878.1514.5685.0467 1.9292-1.1179 3.2131-3.0932 3.2131-5.2898 0-.0132-.0005-.0265-.0016-.0397-.0967-1.2142-.4863-2.3471-1.266-3.3829-.6464-.8641-1.4612-1.4289-2.4054-1.8848-.7636-.3688-1.6381-.6774-2.5869-1.0123-.2057-.0725-.4148-.1463-.627-.2222-2.73926-.9924-4.14968-2.8306-4.07036-4.97541.00023-.00615.00034-.01231.00034-.01848 0-.27169.00418-.44867.06245-.61748zm-2.93639 4.69407c0-1.4672.70372-2.8503 1.87057-3.8326.02305 2.5883 1.82354 4.6365 4.73379 5.6905l.0019.0006c.2244.0803.4416.157.6521.2313.9461.3342 1.7556.6201 2.4647.9625.8518.4113 1.5188.8871 2.0398 1.5839l.001.0013c.6527.8667.9815 1.8086 1.0669 2.8414-.0063 1.4635-.7123 2.8418-1.8791 3.8201-.1194-2.6838-2.2588-4.6421-4.64403-5.4405-3.21954-1.123-4.35312-1.7784-5.335-3.0427l-.00985-.0123c-.63547-.7671-.96278-1.778-.96278-2.8035z" fill="#c4c4c4" fill-rule="evenodd"/></svg>