<svg fill="none" height="25" viewBox="0 0 26 25" width="26" xmlns="http://www.w3.org/2000/svg"><path d="m15.6038 11.0957-.6071 1.5098c-.3373.6747.1125 1.4624.7873 1.7998l.8997.3369c.6747.2249.7872.8517.7872 1.6875-.1125.3374-.4499.6746-.7872.7871l-.8997.3369c-.6748.2249-1.1246 1.0127-.7873 1.6875l.4499 1.0117c.3374.6748.0534 1.2473-.6748 1.7998-.3374.225-1.1844.225-1.5218 0l-.6149-.2256c-.6748-.3373-1.462.0001-1.7994.6749l-.3374 1.0126c-.2249.6748-1.01213 1.1245-1.6869.7872-.33738-.1125-.67476-.4498-.78722-.7872l-.33739-.8994c-.22492-.6747-1.01214-1.1254-1.68691-.7881l-1.01214.4502c-.67477.3374-1.46199 0-1.79938-.6748-.22492-.3373-.22492-.7866 0-1.124l.44985-.9004c.33738-.6747 0-1.4614-.67477-1.7988l-1.01214-.3379c-.67477-.2249-.78831-.785-.78723-1.6865-.00082-.4735.22492-.9003.5623-1.0127l.89969-.3369c.67476-.2249 1.12461-1.0118.78723-1.6865v-.1133l-.44985-.8994c-.33738-.6748 0-1.4615.67477-1.79887.33738-.22492.78722-.22492 1.1246 0l.89969.44917c.67476.3374 1.46199 0 1.79937-.67476l.33738-1.01172c.22493-.67476 1.01215-.87718 1.68692-.78711.56233 0 .89973.33742 1.01213.67481l.3374.89941c.2249.67477 1.0121 1.12447 1.6869.78707l.9144-.56246m.3029-2.4834c.4793-.38344.4793-1.05406.0958-1.4375l-.0958-.0957-.5752-.47949c-.3835-.38344-.4793-1.05488 0-1.53418.1917-.19172.5752-.38297.8627-.28711l.7669.0957c.5752 0 1.0545-.38382 1.1503-.95898v-.09571-.7666c0-.57516.4793-1.054686 1.0545-1.054686.2876 0 .671.096208.8628.383789l.4793.575197c.3834.4793 1.0544.47914 1.4379.0957l.0958-.0957.4793-.575197c.3835-.383441 1.0545-.479302 1.5338 0 .1917.191717.3834.574727.2876.862307l-.0959.7666c0 .57516.3835 1.05453.9586 1.15039h.0959.7669c.5751 0 1.0544.47953 1.0544 1.05469 0 .28758-.0958.67156-.3834.86328l-.5752.47851c-.4793.38345-.4793 1.05504-.0958 1.43848l.0958.0957.5752.4795c.3834.38344.4793 1.0539 0 1.5332-.1917.19172-.5752.38397-.8628.28809l-.7668-.09571c-.5752 0-1.0545.38289-1.1504.95799v.0957.7676c0 .5752-.4793 1.0537-1.0544 1.0537-.2876 0-.6711-.0952-.8628-.3828l-.4793-.5752c-.3834-.4793-1.0544-.4791-1.4379-.0957l-.0958.0957-.4794.5752c-.3834.3834-1.0544.4793-1.5337 0-.1917-.1917-.3835-.5757-.2876-.8633l.0959-.7666c0-.5751-.3835-1.05451-.9586-1.15037h-.0959-.7669c-.5751 0-1.0545-.47953-1.0545-1.05469 0-.28758.0959-.67058.3835-.86231z" stroke="#92a0a9" stroke-linecap="round" stroke-linejoin="round"/><g clip-rule="evenodd" fill="#92a0a9" fill-rule="evenodd"><path d="m18.9149 3.15234c-1.8644 0-3.3758 1.51141-3.3758 3.37582s1.5114 3.37581 3.3758 3.37581 3.3758-1.5114 3.3758-3.37581-1.5114-3.37582-3.3758-3.37582zm-2.3758 3.37582c0-1.31213 1.0636-2.37582 2.3758-2.37582 1.3121 0 2.3758 1.06369 2.3758 2.37582 0 1.31212-1.0637 2.37581-2.3758 2.37581-1.3122 0-2.3758-1.06369-2.3758-2.37581z"/><path d="m9.1487 11.8799c-2.32578 0-4.2112 1.8854-4.2112 4.2112s1.88542 4.2112 4.2112 4.2112c2.3258 0 4.2112-1.8854 4.2112-4.2112s-1.8854-4.2112-4.2112-4.2112zm-3.2112 4.2112c0-1.7735 1.43771-3.2112 3.2112-3.2112 1.7735 0 3.2112 1.4377 3.2112 3.2112s-1.4377 3.2112-3.2112 3.2112c-1.77349 0-3.2112-1.4377-3.2112-3.2112z"/></g></svg>