<svg fill="none" height="25" viewBox="0 0 25 25" width="25" xmlns="http://www.w3.org/2000/svg" xmlns:xlink="http://www.w3.org/1999/xlink"><mask id="a" fill="#fff"><path clip-rule="evenodd" d="m12.4987 3.47168c-.9826 0-1.5394.61575-1.5989 1.125h3.1978c-.0595-.50925-.6163-1.125-1.5989-1.125zm0-2c-1.7994 0-3.54866 1.25364-3.60287 3.125h-1.76774-1.8413c-.87347 0-1.59929.70563-1.59929 1.5937v.74858 2.93409c0 .07985.00956.15945.02849.23695l2.64022 10.8238.00003.0001.0001.0004c.28513 1.171 1.14452 2.329 2.4654 2.329h7.36516c1.3258 0 2.1718-1.1651 2.4635-2.3213h.0001l.002-.0084 2.6317-10.8243c.0188-.0773.0283-.15665.0283-.23625v-2.94269-.74858c0-.88887-.7354-1.5851-1.5993-1.5851h-1.8413-1.7703c-.0542-1.87136-1.8035-3.125-3.6029-3.125zm2.1336 5.125h.4706 2.769 1.4406v.33368 2.82287l-2.6022 10.70327c-.0878.3455-.2256.5693-.3428.6907-.1146.1187-.1805.1161-.1806.1161h-7.36516-.00004c-.00262.0001-.07093.0003-.18521-.1176-.11721-.1209-.25386-.3432-.33699-.6848l-.00013-.0005-2.61187-10.70755v-2.81389-.34228h1.44059 2.76644.47317zm-4.2573 3.125c0-.55229-.44772-1-1-1s-1 .44771-1 1v4.25002c0 .5523.44772 1 1 1s1-.4477 1-1zm3.125 3.08302c0-.5523-.4477-1-1-1s-1 .4477-1 1v4.25c0 .5523.4477 1 1 1s1-.4477 1-1zm2.125-4.08302c.5523 0 1 .44771 1 1v4.25002c0 .5523-.4477 1-1 1s-1-.4477-1-1v-4.25002c0-.55229.4477-1 1-1zm-6.21094 9.30952c.55229 0 1.00004-.4477 1.00004-1 0-.5522-.44775-1-1.00004-1-.55228 0-1 .4478-1 1 0 .5523.44772 1 1 1zm4.08594-8.30952c0 .55232-.4477 1.00002-1 1.00002s-1-.4477-1-1.00002c0-.55229.4477-1 1-1s1 .44771 1 1z" fill="#fff" fill-rule="evenodd"/></mask><g fill="#f18303"><path clip-rule="evenodd" d="m12.4987 3.47168c-.9826 0-1.5394.61575-1.5989 1.125h3.1978c-.0595-.50925-.6163-1.125-1.5989-1.125zm0-2c-1.7994 0-3.54866 1.25364-3.60287 3.125h-1.76774-1.8413c-.87347 0-1.59929.70563-1.59929 1.5937v.74858 2.93409c0 .07985.00956.15945.02849.23695l2.64022 10.8238.00003.0001.0001.0004c.28513 1.171 1.14452 2.329 2.4654 2.329h7.36516c1.3258 0 2.1718-1.1651 2.4635-2.3213h.0001l.002-.0084 2.6317-10.8243c.0188-.0773.0283-.15665.0283-.23625v-2.94269-.74858c0-.88887-.7354-1.5851-1.5993-1.5851h-1.8413-1.7703c-.0542-1.87136-1.8035-3.125-3.6029-3.125zm2.1336 5.125h.4706 2.769 1.4406v.33368 2.82287l-2.6022 10.70327c-.0878.3455-.2256.5693-.3428.6907-.1146.1187-.1805.1161-.1806.1161h-7.36516-.00004c-.00262.0001-.07093.0003-.18521-.1176-.11721-.1209-.25386-.3432-.33699-.6848l-.00013-.0005-2.61187-10.70755v-2.81389-.34228h1.44059 2.76644.47317zm-4.2573 3.125c0-.55229-.44772-1-1-1s-1 .44771-1 1v4.25002c0 .5523.44772 1 1 1s1-.4477 1-1zm3.125 3.08302c0-.5523-.4477-1-1-1s-1 .4477-1 1v4.25c0 .5523.4477 1 1 1s1-.4477 1-1zm2.125-4.08302c.5523 0 1 .44771 1 1v4.25002c0 .5523-.4477 1-1 1s-1-.4477-1-1v-4.25002c0-.55229.4477-1 1-1zm-6.21094 9.30952c.55229 0 1.00004-.4477 1.00004-1 0-.5522-.44775-1-1.00004-1-.55228 0-1 .4478-1 1 0 .5523.44772 1 1 1zm4.08594-8.30952c0 .55232-.4477 1.00002-1 1.00002s-1-.4477-1-1.00002c0-.55229.4477-1 1-1s1 .44771 1 1z" fill-rule="evenodd"/><path d="m10.8998 4.59668-.99322-.11589-.1302 1.11589h1.12342zm3.1978 0v1h1.1234l-.1302-1.11589zm-5.20177 0v1h.97144l.02814-.97104zm-5.17984 5.51332-.97152.237zm2.64022 10.8238.97241-.2333-.00089-.0037zm.00003.0001-.97241.2333.00099.0041zm.0001.0004.97162-.2365-.0002-.0008zm12.29406.0077.206-.9785-.9404-.198-.2352.9319zm.0001 0-.206.9786.9486.1997.2291-.942zm.002-.0084.9717.2363v-.0001zm2.6317-10.8243-.9717-.23626v.00001zm-5.1826-5.51262-.9996.02896.0281.97104h.9715zm3.2109 2h1v-1h-1zm0 3.15655.9717.23625.0283-.11643v-.11982zm-2.6022 10.70327.9692.2463.0024-.01zm-.3428.6907-.7194-.6945zm-7.5458.1161v-1l-.00291.0001zm-.18521-.1176.71802-.696h-.00001zm-.33699-.6848.97165-.2364-.00011-.0005zm-.00013-.0005.97154-.2369-.00002-.0001zm-2.61187-10.70755h-1v.1202l.02849.11678zm0-3.15617v-1h-1v1zm6.2056-1.88411c-.0091.0776.0425-.24089.6056-.24089v-2c-1.402 0-2.4642.913-2.59212 2.00911zm2.2045-1.11589h-3.1978v2h3.1978zm-1.5989.875c.5631 0 .6146.31849.6056.24089l1.9865-.23178c-.1279-1.09611-1.1901-2.00911-2.5921-2.00911zm-2.60329.15396c.03416-1.17935 1.17969-2.15396 2.60329-2.15396v-2c-2.1753 0-4.52819 1.53268-4.60245 4.09604zm-2.76732.97104h1.76774v-2h-1.76774zm-1.8413 0h1.8413v-2h-1.8413zm-.59929.5937c0-.3253.26757-.5937.59929-.5937v-2c-1.41521 0-2.59929 1.14286-2.59929 2.5937zm0 .74858v-.74858h-2v.74858zm0 2.93409v-2.93409h-2v2.93409zm0 .00001v-.00001h-2c0 .15965.01913.31885.05697.47395zm2.64023 10.82374-2.64023-10.82375-1.94303.47395 2.64023 10.8238zm.00092.0038-.00003-.0001-1.94481.4666.00002.0001zm-.00089-.0036-.0001-.0004-1.94284.4747.0001.0004zm1.49398 1.5663c-.63977 0-1.25527-.586-1.49378-1.5655l-1.94323.4731c.33173 1.3624 1.43502 3.0924 3.43701 3.0924zm7.36516 0h-7.36516v2h7.36516zm1.4939-1.5659c-.2472.9798-.8539 1.5659-1.4939 1.5659v2c2.0115 0 3.0969-1.7441 3.4331-3.0766zm1.1757-.7339h-.0001l-.412 1.9571h.0001zm-1.1757.7338-.002.0085 1.9434.4725.002-.0084zm2.6317-10.82425-2.6317 10.82435 1.9434.4724 2.6317-10.8243zm0 0v-.00001l1.9434.47256c.0376-.1547.0566-.3134.0566-.47255zm0-2.94269v2.94269h2v-2.94269zm0-.74858v.74858h2v-.74858zm-.5993-.5851c.3336 0 .5993.27017.5993.5851h2c0-1.46282-1.205-2.5851-2.5993-2.5851zm-1.8413 0h1.8413v-2h-1.8413zm-1.7703 0h1.7703v-2h-1.7703zm-3.6029-3.125c1.4236 0 2.5691.97461 2.6033 2.15396l1.9992-.05792c-.0743-2.56336-2.4272-4.09604-4.6025-4.09604zm2.6042 3.125h-.4706v2h.4706zm2.769 0h-2.769v2h2.769zm1.4406 0h-1.4406v2h1.4406zm1 1.33368v-.33368h-2v.33368zm0 2.82287v-2.82287h-2v2.82287zm-2.6306 10.93957 2.6023-10.70332-1.9434-.47249-2.6022 10.70331zm-.5949 1.1489c.2604-.2697.4706-.6592.5925-1.1389l-1.9385-.4925c-.0259.1019-.0552.1701-.0763.2104-.0222.0423-.0326.0485-.0166.032zm-.9001.4216c-.0068 0 .0341.0006.0824-.0032.042-.0034.0848-.0093.1281-.0181.087-.0176.1726-.0458.2553-.084.165-.076.3089-.1864.4343-.3163l-1.4389-1.389c.0107-.0112.0643-.0635.1677-.1111.0519-.024.1138-.0455.1849-.0598.0353-.0072.0721-.0124.11-.0154.0189-.0015.038-.0025.0573-.0029.0063-.0001.0642-.0002.0189-.0002zm-7.36516 0h7.36516v-2h-7.36516zm-.00004 0h.00004v-2h-.00004zm-.90324-.4216c.12612.1301.26958.2391.43235.3145.08146.0377.16494.0656.24921.0835.04191.0089.08301.0151.12304.0189.02001.0019.03935.0032.058.0039.00932.0004.01814.0006.02641.0008h.01116.00417c.00104 0 .00193 0 .00181 0l-.00582-1.9999c-.00017 0 .00068-.0001.00166-.0001.00107 0 .00242 0 .00397.0001h.01063c.00785.0001.01612.0004.02478.0007.01729.0007.03479.0018.05245.0035.03536.0034.06979.0087.10315.0158.06715.0142.12592.0348.17569.0579.09939.046.15156.0962.16339.1084zm-.5906-1.1443c.11738.4823.3282.8736.59061 1.1443l1.43603-1.392c.01677.0173.00762.0127-.01285-.0265-.01945-.0372-.04687-.1016-.0705-.1987zm-.00003-.0002.00013.0006 1.94308-.4738-.00013-.0005zm-2.61184-10.70737 2.61187 10.70757 1.94303-.474-2.61188-10.70753zm-.02849-3.05087v2.81389h2v-2.81389zm0-.34228v.34228h2v-.34228zm2.44059-1h-1.44059v2h1.44059zm2.76644 0h-2.76644v2h2.76644zm.47317 0h-.47317v2h.47317zm4.2646 0h-4.2646v2h4.2646zm-5.2573 4.125h2c0-1.10457-.8954-2-2-2zm0 0v-2c-1.10457 0-2 .89543-2 2zm0 4.25002v-4.25002h-2v4.25002zm0 0h-2c0 1.1045.89543 2 2 2zm0 0v2c1.1046 0 2-.8955 2-2zm0-4.25002v4.25002h2v-4.25002zm3.125 3.08302h2c0-1.1046-.8954-2-2-2zm0 0v-2c-1.1046 0-2 .8954-2 2zm0 4.25v-4.25h-2v4.25zm0 0h-2c0 1.1046.8954 2 2 2zm0 0v2c1.1046 0 2-.8954 2-2zm0-4.25v4.25h2v-4.25zm5.125-3.08302c0-1.10457-.8954-2-2-2v2zm0 4.25002v-4.25002h-2v4.25002zm-2 2c1.1046 0 2-.8955 2-2h-2zm-2-2c0 1.1045.8954 2 2 2v-2zm0-4.25002v4.25002h2v-4.25002zm2-2c-1.1046 0-2 .89543-2 2h2zm-6.21094 9.30952v2c1.10454 0 2.00004-.8954 2.00004-2zm0 0h2.00004c0-1.1045-.8955-2-2.00004-2zm0 0v-2c-1.10457 0-2 .8955-2 2zm0 0h-2c0 1.1046.89543 2 2 2zm3.08594-5.3095c1.1046 0 2-.8955 2-2.00002h-2zm-2-2.00002c0 1.10452.8954 2.00002 2 2.00002v-2.00002zm2-2c-1.1046 0-2 .89543-2 2h2zm2 2c0-1.10457-.8954-2-2-2v2z" mask="url(#a)"/><path d="m19.7212 5.59668h-1.8433-3.2433-4.2692-3.24329-1.84335c-.29563 0-.54778.2245-.59126.52083.04348.29634.29563.52084.59126.52084h1.84335 3.24329 4.2692 3.2433 1.8433c.2957 0 .5478-.2245.5913-.52084-.0435-.29633-.2956-.52083-.5913-.52083z" stroke="#f18303" stroke-linecap="round" stroke-linejoin="round"/></g></svg>