<svg fill="none" height="13" viewBox="0 0 13 13" width="13" xmlns="http://www.w3.org/2000/svg"><g clip-rule="evenodd" fill="#c4c4c4" fill-rule="evenodd"><path d="m11.1272.809341c.5523 0 1 .447719 1 .999999v9.38106c0 .5523-.4477 1-1 1s-1-.4477-1-1v-9.38106c0-.55228.4477-.999999 1-.999999z"/><path d="m1.8728.809341c.55229 0 1 .447719 1 .999999v9.38106c0 .5523-.44771 1-1 1-.55228 0-.999997-.4477-.999997-1v-9.38106c0-.55228.447717-.999999.999997-.999999z"/><path d="m8.03116 6.42664 3.04254 3.04255c.3252.32524.6259.77671.857 1.12361.0096.0145.0192.0288.0286.0429.3063.4596.1821 1.0805-.2775 1.3868-.4595.3063-1.0804.1821-1.3867-.2775-.2724-.4087-.46746-.6934-.63561-.8616l-3.04255-3.04256c-.05341-.05341-.09173-.07508-.10878-.08287-.00336-.00154-.00606-.00262-.00812-.00338-.00207.00076-.00476.00184-.00813.00338-.01705.00779-.05536.02946-.10877.08287l-3.04252 3.04256c-.1307.1307-.25466.2557-.36103.3857-.11333.1385-.15136.2175-.15803.2375-.17466.524-.74098.8071-1.26492.6325-.52394-.1747-.807097-.741-.632445-1.2649.120095-.3603.335615-.6616.507525-.8717.17454-.21329.36257-.40125.48571-.52434l.00896-.00897 3.04252-3.04255c0-.00001 0 0 0 0 .40267-.40267.93088-.67322 1.53113-.67322.60024 0 1.12846.27055 1.53112.67322z"/></g></svg>