<svg fill="none" height="26" viewBox="0 0 25 26" width="25" xmlns="http://www.w3.org/2000/svg"><g stroke="#18303f" stroke-linecap="round" stroke-linejoin="round"><path d="m19.8298 10.2412 3.9099 2.737v10.1657c0 .782-.6843 1.4662-1.4662 1.4662h-19.54948c-.78198 0-1.46621-.6842-1.46621-1.4662v-10.2635l3.90989-2.7369"/><path d="m4.1914 21.6774-.02366.0231m16.64066-.0231-4.8873-3.9099h-6.84234l-3.51843 2.8148"/><path d="m23.7418 12.8798-5.8648 3.9099"/><path d="m1.25781 12.8798 5.86484 3.9099"/><path d="m19.832 15.5202v-12.41388c0-.58649-.391-.97747-.9775-.97747h-12.70711c-.58648 0-.97747.39098-.97747.97747v12.41388"/><path d="m12.5 10.6611c.8975 0 1.625-.72757 1.625-1.62503s-.7275-1.625-1.625-1.625-1.625.72754-1.625 1.625.7275 1.62503 1.625 1.62503z"/><path d="m14.1243 9.03582v.86667c0 .75831.65 1.30001 1.3 1.30001.7584 0 1.3-.65 1.3-1.30001v-.65c.1084-2.38334-1.7333-4.44167-4.1166-4.55-2.3834-.10834-4.4417 1.84166-4.4417 4.225-.10833 2.05831 1.3 3.90001 3.3583 4.33331.7584.2167 1.4084.1084 2.1667 0"/></g></svg>