<svg fill="none" height="43" viewBox="0 0 173 43" width="173" xmlns="http://www.w3.org/2000/svg"><g fill="#023b2e"><path d="m39.0008.652832c-1.512 0-2.73 1.259998-2.73 2.771998v12.68397c0 4.074-1.596 7.896-4.452 10.752l-9.996 10.038c-.42.42-1.134.42-1.554 0l-9.996-10.038c-2.85596-2.856-4.45196-6.678-4.45196-10.752v-12.68397c0-1.512-1.218-2.771998-2.73-2.771998s-2.73 1.259998-2.73 2.771998v12.68397c0 5.544 2.142 10.752 6.048 14.658l9.99596 9.996c1.26 1.26 2.94 1.89 4.62 1.89s3.402-.63 4.662-1.89l9.996-9.996c3.906-3.906 6.048-9.114 6.048-14.658v-12.68397c0-1.512-1.218-2.771998-2.73-2.771998z"/><path d="m56.283 6.23883h24.948c1.554 0 2.814-1.26 2.814-2.772 0-1.554-1.26-2.813998-2.814-2.813998h-24.948c-3.654 0-6.636 3.023998-6.636 6.677998v28.68597c0 3.654 2.982 6.636 6.636 6.636h24.948c1.554 0 2.814-1.218 2.814-2.772 0-1.512-1.26-2.772-2.814-2.772h-24.948c-.588 0-1.092-.504-1.092-1.092v-11.55h11.634c1.512 0 2.772-1.26 2.772-2.772 0-1.554-1.26-2.814-2.772-2.814h-11.634v-11.54997c0-.588.504-1.092 1.092-1.092z"/><path d="m123.85 37.9488-12.978-12.978c-.21-.21-.42-.378-.629-.588h2.561c6.552 0 11.844-5.334 11.844-11.844 0-6.55197-5.292-11.885968-11.844-11.885968h-19.6555c-1.554 0-2.772 1.259998-2.772 2.813998v18.14397c0 1.512 1.218 2.772 2.772 2.772h3.024c4.0735.042 7.8955 1.596 10.7515 4.494l13.021 12.978c.504.546 1.217.798 1.931.798s1.428-.252 1.974-.798c1.092-1.092 1.092-2.814 0-3.906zm-27.9295-31.70997h16.8835c3.486 0 6.3 2.814 6.3 6.29997 0 3.444-2.814 6.3-6.3 6.3h-16.6315c-.042 0-.084 0-.126 0h-.126z"/><path d="m172.332 40.8468c.084-.294.168-.63.168-.966v-18.186c0-11.592-9.408-21.041968-21-21.041968h-14.322c-.336 0-.672.083999-.966.209997-.084.042002-.168.084002-.252.126001-.252.126-.42.252-.63.42-.042.042-.126.084-.168.126-.21.252-.42.504-.546.798 0 .042 0 .126-.042.126-.084.294-.168.588-.168.882v.126 36.41397c0 1.554 1.218 2.772 2.772 2.772 1.512 0 2.772-1.218 2.772-2.772v-29.148l27.72 30.996c0 .042.042.042.042.042.21.21.462.378.714.546.042.042.126.084.21.126.336.126.714.21 1.092.21.336 0 .672-.042 1.008-.168 0 0 0 0 .042-.042.042 0 .126-.042.168-.084.252-.126.462-.252.63-.42.084-.084.168-.168.21-.252.168-.168.294-.336.378-.546.084-.084.126-.168.168-.294zm-20.832-34.60797c8.526 0 15.456 6.92997 15.456 15.45597v10.92l-23.562-26.37597z"/></g></svg>