<svg fill="none" height="53" viewBox="0 0 53 53" width="53" xmlns="http://www.w3.org/2000/svg"><circle cx="26.5" cy="26.5" r="26" stroke="#18303f"/><g fill="#18303f"><path d="m21.2184 12.5439c.3252 0 .5889.2637.5889.5889 0 .3253-.2637.5889-.5889.5889-3.5614 0-6.4778 2.9164-6.4778 6.4778 0 .3252-.2636.5889-.5889.5889-.3252 0-.5888-.2637-.5888-.5889 0-4.2119 3.4436-7.6556 7.6555-7.6556z"/><path d="m31.7954 12.5439c-.3252 0-.5889.2637-.5889.5889 0 .3253.2637.5889.5889.5889 3.5614 0 6.4778 2.9164 6.4778 6.4778 0 .3252.2636.5889.5889.5889.3252 0 .5889-.2637.5889-.5889 0-4.2119-3.4437-7.6556-7.6556-7.6556z"/><path d="m30.772 16.6535c-.317-.0725-.6328.1258-.7053.4428-.0725.3171.1257.6329.4428.7054 1.778.4065 3.1498 1.7614 3.5802 3.5288.0769.316.3955.5098.7115.4329.316-.077.5098-.3955.4328-.7115-.5358-2.2007-2.2489-3.8924-4.462-4.3984z"/><path d="m22.9471 17.0963c-.0725-.317-.3883-.5153-.7053-.4428-2.2131.506-3.9262 2.1977-4.462 4.3984-.077.316.1168.6345.4328.7115.316.0769.6346-.1169.7115-.4329.4304-1.7674 1.8022-3.1223 3.5802-3.5288.3171-.0725.5153-.3883.4428-.7054z"/><path clip-rule="evenodd" d="m23.449 38.0975h-3.4844c-1.0215 0-1.8302-.8639-1.7628-1.8832l.5652-8.5494c.2628-3.9739 3.5627-7.0628 7.5453-7.0628 3.9825 0 7.2825 3.0889 7.5452 7.0628l.5652 8.5494c.0674 1.0193-.7413 1.8832-1.7628 1.8832h-3.4809c-.1772 1.4246-1.3924 2.5271-2.865 2.5271s-2.6878-1.1025-2.865-2.5271zm4.5365 0c-.1654.7712-.8509 1.3493-1.6715 1.3493s-1.5061-.5781-1.6715-1.3493zm-8.0433-10.3549c.2218-3.3549 3.0078-5.9628 6.3701-5.9628 3.3622 0 6.1482 2.6079 6.37 5.9628l.5652 8.5494c.0224.3398-.2471.6277-.5876.6277h-12.6953c-.3405 0-.61-.2879-.5876-.6277z" fill-rule="evenodd"/></g></svg>