<svg fill="none" height="11" viewBox="0 0 92 11" width="92" xmlns="http://www.w3.org/2000/svg"><g clip-rule="evenodd" fill="#18303f" fill-rule="evenodd"><path d="m10.1997 2.73359c0-.75145.5757-1.55 1.55-1.55h2.9c.4142 0 .75.33579.75.75 0 .41422-.3358.75-.75.75h-2.9c-.0123 0-.0202.00121-.0244.0021-.0043.00089-.0064.00177-.0069.00201-.0001.00001 0-.00001 0 0-.0005.00021-.0014.0006-.0033.00269-.0026.00283-.0069.00869-.0104.01791-.0036.00935-.005.01844-.005.02529v5.77984c.005.0096.0148.0243.0303.03983.0156.01554.0303.02532.0399.03033h2.8798c.4142 0 .75.33579.75.75 0 .41422-.3358.75001-.75.75001h-2.9c-.4439 0-.8251-.21442-1.0803-.46968-.2553-.25526-.4697-.6364-.4697-1.08033z"/><path d="m10.1997 5.63379c0-.41421.3358-.75.75-.75h3.1c.4142 0 .75.33579.75.75s-.3358.75-.75.75h-3.1c-.4142 0-.75-.33579-.75-.75z"/><path d="m25.7739 2.73359c0-.75145.5757-1.55 1.55-1.55h2.9c.4142 0 .75.33579.75.75 0 .41422-.3358.75-.75.75h-2.9c-.0123 0-.0202.00121-.0244.0021-.0043.00089-.0064.00177-.0069.00201-.0005.00021-.0014.0006-.0033.00269-.0026.00283-.0068.00869-.0104.01791-.0036.00935-.005.01844-.005.02529v5.77984c.005.0096.0148.0243.0304.03983.0155.01554.0302.02532.0398.03033h2.8798c.4142 0 .75.33579.75.75 0 .41422-.3358.75001-.75.75001h-2.9c-.4439 0-.825-.21442-1.0803-.46968s-.4697-.6364-.4697-1.08033z"/><path d="m25.7739 5.63379c0-.41421.3358-.75.75-.75h3.1c.4142 0 .75.33579.75.75s-.3358.75-.75.75h-3.1c-.4142 0-.75-.33579-.75-.75z"/><path d="m36.1968 1.18359c.4142 0 .75.33579.75.75v7.4c0 .41422-.3358.75001-.75.75001s-.75-.33579-.75-.75001v-7.4c0-.41421.3358-.75.75-.75z"/><path d="m32.2466 1.93359c0-.41421.3358-.75.75-.75h6.5c.4142 0 .75.33579.75.75 0 .41422-.3358.75-.75.75h-6.5c-.4142 0-.75-.33578-.75-.75z"/><path d="m16.5005 3.73359c0-1.41421 1.1358-2.55 2.55-2.55h4c.4142 0 .75.33579.75.75 0 .41422-.3358.75-.75.75h-4c-.5858 0-1.05.46422-1.05 1.05 0 .58579.4642 1.05 1.05 1.05h1.1c.4142 0 .75.33579.75.75 0 .41422-.3358.75-.75.75h-1.1c-1.4142 0-2.55-1.13578-2.55-2.55z"/><path d="m19.4005 5.5332c0-.41421.3358-.75.75-.75h1.7c1.5397 0 2.65 1.26173 2.65 2.65 0 1.53969-1.2617 2.65-2.65 2.65h-4.1c-.4142 0-.75-.33578-.75-.75 0-.41421.3358-.75.75-.75h4.1c.6117 0 1.15-.48969 1.15-1.15 0-.61173-.4897-1.15-1.15-1.15h-1.7c-.4142 0-.75-.33578-.75-.75z"/><path d="m56.1997 1.18359c.4142 0 .75.33579.75.75v6.57984c.005.0096.0148.0243.0303.03983.0156.01553.0303.02532.0399.03033h2.8798c.4142 0 .75.33579.75.75 0 .41422-.3358.75001-.75.75001h-2.9c-.4439 0-.8251-.21442-1.0803-.46968-.2553-.25525-.4697-.6364-.4697-1.08033v-6.6c0-.41421.3358-.75.75-.75z"/><path d="m48.2694 1.60287c.5929-.59289 1.5677-.59289 2.1606 0l2 2c.8391.83905 1.3197 2.02916 1.3197 3.13033 0 .41422-.3358.75-.75.75s-.75-.33578-.75-.75c0-.69883-.3194-1.50871-.8803-2.06967l-2-2c-.0002-.00022-.0053-.00533-.0197-.00533-.0145 0-.0195.00518-.0197.00533l-2 2c-.5609.56096-.8803 1.37084-.8803 2.06967 0 .41422-.3358.75-.75.75s-.75-.33578-.75-.75c0-1.10117.4806-2.29128 1.3197-3.13033z"/><path d="m52.9995 5.9834c.4142 0 .75.33578.75.75v2.6c0 .41421-.3358.75-.75.75s-.75-.33579-.75-.75v-2.6c0-.41422.3358-.75.75-.75z"/><path d="m45.6997 5.9834c.4142 0 .75.33578.75.75v2.6c0 .41421-.3358.75-.75.75s-.75-.33579-.75-.75v-2.6c0-.41422.3358-.75.75-.75z"/><path d="m45.0513 5.83301c0-.41422.3358-.75.75-.75h7.1c.4142 0 .75.33578.75.75 0 .41421-.3358.75-.75.75h-7.1c-.4142 0-.75-.33579-.75-.75z"/><path d="m65.6678 1.60287c.5929-.59289 1.5678-.59289 2.1607 0l2 2c.839.83905 1.3196 2.02916 1.3196 3.13033 0 .41422-.3357.75-.75.75-.4142 0-.75-.33578-.75-.75 0-.69883-.3193-1.50871-.8803-2.06967l-2-2c-.0002-.00022-.0053-.00533-.0197-.00533s-.0195.00518-.0196.00533l-2 2c-.561.56096-.8804 1.37084-.8804 2.06967 0 .41422-.3357.75-.75.75-.4142 0-.75-.33578-.75-.75 0-1.10117.4807-2.29128 1.3197-3.13033z"/><path d="m70.3979 5.9834c.4143 0 .75.33578.75.75v2.6c0 .41421-.3357.75-.75.75-.4142 0-.75-.33579-.75-.75v-2.6c0-.41422.3358-.75.75-.75z"/><path d="m63.0981 5.9834c.4143 0 .75.33578.75.75v2.6c0 .41421-.3357.75-.75.75-.4142 0-.75-.33579-.75-.75v-2.6c0-.41422.3358-.75.75-.75z"/><path d="m62.4497 5.83301c0-.41422.3358-.75.75-.75h7.1c.4142 0 .75.33578.75.75 0 .41421-.3358.75-.75.75h-7.1c-.4142 0-.75-.33579-.75-.75z"/><path d="m83.0005 1.18262c.4142 0 .75.33578.75.75v7.4c0 .41421-.3358.74998-.75.74998s-.75-.33577-.75-.74998v-7.4c0-.41422.3358-.75.75-.75z"/><path d="m90.3008 1.18262c.4142 0 .75.33578.75.75v7.4c0 .41421-.3358.74998-.75.74998s-.75-.33577-.75-.74998v-7.4c0-.41422.3358-.75.75-.75z"/><path d="m90.5377 1.22131c.393.13098.6054.55572.4744.94868-.0926.27759-.2591.51092-.3936.67526-.1364.1667-.2835.31379-.3807.41097l-2.4069 2.40693c-.3118.31184-.7191.51967-1.1803.51967-.4613 0-.8685-.20783-1.1804-.51967l-2.4-2.4c-.2535-.25356-.4886-.60646-.6713-.88077-.0076-.01132-.015-.0225-.0224-.03353-.2297-.34465-.1366-.8103.208-1.04007.3447-.22976.8103-.13663 1.0401.20802.2143.32144.3703.54971.5063.68569l2.4 2.4c.045.04498.0789.06492.0971.07323.0091.00415.0151.0058.018.00645.0028.00064.0042.00065.0046.00065.0003 0 .0017-.00001.0045-.00065.003-.00065.0089-.0023.018-.00645.0182-.00831.0522-.02825.0971-.07323l2.4-2.4c.103-.10296.2021-.20281.2874-.3071.0905-.11065.124-.17733.1315-.19974.1309-.39296.5557-.60533.9486-.47434z"/><path d="m73.5513 5.63379c0-.41421.3358-.75.75-.75 1.1011 0 2.2913.48062 3.1303 1.31967l2.6 2.6c.2929.29289.2929.76777 0 1.06066-.2929.29288-.7678.29288-1.0607 0l-2.6-2.6c-.5609-.56095-1.3708-.88033-2.0696-.88033-.4142 0-.75-.33579-.75-.75z"/><path d="m73.6997 1.18359c.4142 0 .75.33579.75.75v7.3c0 .41422-.3358.75-.75.75s-.75-.33578-.75-.75v-7.3c0-.41421.3358-.75.75-.75z"/><path d="m72.9497 1.93359c0-.41421.3358-.75.75-.75h4c1.4406 0 2.55 1.16272 2.55 2.65 0 1.41422-1.1358 2.55-2.55 2.55h-4c-.4142 0-.75-.33578-.75-.75zm1.5.75v2.2h3.25c.5858 0 1.05-.46421 1.05-1.05 0-.71271-.4906-1.15-1.05-1.15z"/><path d="m1.55127 5.63379c0-.41421.33579-.75.75-.75 1.10117 0 2.29129.48062 3.13034 1.31967l2.59999 2.6c.2929.29289.2929.76777 0 1.06066-.29289.29288-.76776.29288-1.06066 0l-2.59999-2.6c-.56096-.56095-1.37085-.88033-2.06968-.88033-.41421 0-.75-.33579-.75-.75z"/><path d="m1.69971 1.18359c.41421 0 .75.33579.75.75v7.3c0 .41422-.33579.75-.75.75-.41422 0-.750003-.33578-.750003-.75v-7.3c0-.41421.335783-.75.750003-.75z"/><path d="m.949707 1.93359c0-.41421.335783-.75.750003-.75h4c1.44064 0 2.55 1.16272 2.55 2.65 0 1.41422-1.13579 2.55-2.55 2.55h-4c-.41422 0-.750003-.33578-.750003-.75zm1.500003.75v2.2h3.25c.58579 0 1.05-.46421 1.05-1.05 0-.71271-.49064-1.15-1.05-1.15z"/></g></svg>