<svg fill="none" height="24" viewBox="0 0 24 24" width="24" xmlns="http://www.w3.org/2000/svg"><path clip-rule="evenodd" d="m15.2364 8.28295c-2.6169-1.51082-5.95697-.73301-7.63712 1.77845l-3.92531 5.8675c-.30867.4613-.16284 1.0876.31791 1.3651l3.05666 1.7648c-.46895.8143-.1897 1.8548.62429 2.3247.81399.47 1.85468.1916 2.32541-.6217l3.05656 1.7647c.4807.2776 1.096.0907 1.3412-.4073l3.1187-6.3331c1.3349-2.7108.3385-5.99233-2.2783-7.50315z" fill="#f18303" fill-rule="evenodd"/><g fill="#18303f"><path d="m8.70535 1.10402c0-.265093-.2149-.479997-.48-.479997-3.4331 0-6.24 2.806907-6.24 6.239997 0 .2651.2149.48.48.48s.48-.2149.48-.48c0-2.9029 2.3771-5.28 5.28-5.28.2651 0 .48-.2149.48-.48z"/><path d="m10.2616 3.98402c0-.26509-.2149-.48-.48-.48-2.75288 0-4.91475 2.16187-4.91475 4.91475 0 .2651.2149.48.48.48s.48-.2149.48-.48c0-2.22269 1.73206-3.95475 3.95475-3.95475.2651 0 .48-.2149.48-.48z"/><path d="m16.2204 3.50402c-.2651 0-.48.21491-.48.48 0 .2651.2149.48.48.48 2.2226 0 3.9547 1.73206 3.9547 3.95475 0 .2651.2149.48.48.48s.48-.2149.48-.48c0-2.75288-2.1619-4.91475-4.9147-4.91475z"/><path d="m16.4116 1.10402c0-.265093.2149-.479997.48-.479997 3.9191 0 7.1236 3.204517 7.1236 7.123597 0 .26509-.2149.48-.48.48s-.48-.21491-.48-.48c0-3.38888-2.7747-6.1636-6.1636-6.1636-.2651 0-.48-.2149-.48-.48z"/><path clip-rule="evenodd" d="m7.43064 21.8001c-.90079-.52-1.29071-1.5851-.9937-2.5382l-2.68749-1.5516c-.72112-.4164-.93987-1.3557-.47687-2.0478l3.92531-5.86747c.96839-1.44753 2.44565-2.3636 4.04321-2.65772 1.4068-.25957 2.907-.03682 4.2352.73004 2.8358 1.63723 3.9156 5.19335 2.469 8.13085l-3.1187 6.3332c-.2107.4279-.6035.7026-1.0362.781-.3234.0592-.6692.0086-.978-.1697l-2.6858-1.5506c-.23144.2504-.5142.438-.82213.5556-.59342.2274-1.2806.1949-1.87383-.1476zm-.12126-2.0345c-.05521.4704.16717.9505.60341 1.2023.33239.1919.71741.2101 1.0499.0826.10369-.0399.20225-.0941.29246-.1615zm6.31042 2.402c-.1075.0195-.2224.0026-.3251-.0567l-3.0565-1.7647c-.0114-.0066-.023-.0127-.0347-.0182l-2.88187-1.6638c-.01066-.0074-.02171-.0144-.03313-.021l-3.05666-1.7648c-.24038-.1387-.31329-.4519-.15896-.6826l3.92531-5.8674c.81917-1.22448 2.06891-1.99922 3.42041-2.24763 1.1878-.21777 2.454-.02897 3.5753.61841 2.3979 1.38442 3.311 4.39142 2.0878 6.87542l-3.1187 6.3331c-.0699.1419-.1998.2333-.3432.2599z" fill-rule="evenodd"/></g></svg>