<svg fill="none" height="25" viewBox="0 0 25 25" width="25" xmlns="http://www.w3.org/2000/svg"><g fill="#2d3436"><path clip-rule="evenodd" d="m6.32861.972538c.36864-.128863.7623-.1991 1.16998-.1991 2.01588 0 3.68891 1.717332 3.68891 3.747962 0 1.62032-1.0652 3.04116-2.51989 3.5492-.36864.12886-.76229.1991-1.16998.1991-2.01587 0-3.68891-1.71733-3.68891-3.74796 0-1.62033 1.06524-3.04117 2.51989-3.549202zm.32593.946252c-1.05414.37119-1.84486 1.40942-1.84486 2.60261 0 1.49573 1.24254 2.74796 2.68891 2.74796.29221 0 .5761-.05111.8431-.14501 1.05413-.37119 1.84481-1.40943 1.84481-2.60261 0-1.49573-1.2425-2.74797-2.68887-2.74797-.2922 0-.57609.05111-.84309.14502z" fill-rule="evenodd"/><path d="m9.77703 17.1994c-.26153 0-.47887.2015-.49858.4623l-.42062 5.5649c-.00619 0 .00614-.0002 0 0l-2.71944.0003-.42061-5.5649c-.01971-.2608-.23706-.4623-.49858-.4623h-.65279c-.27615 0-.5.2239-.5.5 0 .2762.22385.5.5.5h.18915l.42062 5.5649c.01971.2608.23705.4623.49858.4623l3.64671-.0003c.00619 0-.00614.0002 0 0 .26152 0 .47886-.2015.49857-.4623l.42066-5.5649h.1891c.2762 0 .5-.2239.5-.5 0-.2762-.2238-.5-.5-.5z"/><path d="m3.44922 17.6836c0 .2761-.22386.5-.5.5s-.5-.2239-.5-.5.22386-.5.5-.5.5.2239.5.5z"/><path d="m12.5508 17.6836c0 .2761-.2239.5-.5.5-.2762 0-.5-.2239-.5-.5s.2238-.5.5-.5c.2761 0 .5.2239.5.5z"/><path d="m5.09606 10.5171-.00741.0059c-.99763.8077-1.64724 2.1196-1.64724 3.6608v1.8123c0 .2761-.22386.5-.5.5-.27615 0-.5-.2239-.5-.5v-1.8123c0-2.9105 1.99905-5.30742 4.68758-5.50895.12221-.00932.24568-.01405.37024-.01405 1.44697 0 2.71917.6297 3.62547 1.6436l-.6949.7237c-.1571-.1811-.3471-.3617-.52963-.5106-.0934-.0756-.18983-.1467-.28905-.2131-.42684-.2848-.90526-.48391-1.41566-.57934-.22609-.04204-.45937-.06393-.69847-.06393-.88245 0-1.70152.3036-2.36922.83057z"/></g><path clip-rule="evenodd" d="m19.9763 1.60692c.7739-.773076 2.0162-.616001 2.7366.10358.458.45753.8527 1.14997 1.0535 1.85157.1971.68826.2298 1.46916-.1548 2.05136-2.4117 3.97841-5.8682 7.42977-9.8465 9.93977-.009.0057-.0184.0109-.0279.0157-.6208.3101-1.4198.2701-2.1237.0703-.7042-.1999-1.39-.5808-1.8058-1.051-.7237-.7298-.85203-1.8475-.11294-2.7089.00538-.0063.01098-.0123.01682-.0182l1.55522-1.5536c.3671-.36673.8423-.57296 1.3416-.56364.4996.00933.9931.23372 1.3995.67164l.4099.4095c1.5996-1.33881 3.1086-2.84817 4.4464-4.44737l-.3737-.52264c-.2726-.38044-.4849-.8215-.5331-1.28627-.0494-.47614.0763-.95818.4468-1.38999.0054-.00626.011-.01231.0168-.01814z" fill-rule="evenodd" stroke="#2d3436" stroke-linecap="round" stroke-linejoin="round"/></svg>