<svg fill="none" height="30" viewBox="0 0 30 30" width="30" xmlns="http://www.w3.org/2000/svg"><g clip-rule="evenodd" fill="#2d3436" fill-rule="evenodd"><path d="m11.848 19.9876c-.4506-.4506-.4506-1.1812 0-1.6318l7.3462-7.3462c.4506-.4506 1.1811-.4506 1.6317 0s.4506 1.1812 0 1.6318l-7.3462 7.3462c-.4506.4506-1.1811.4506-1.6317 0z"/><path d="m13.4752 19.9887c-.4506.4506-1.1811.4506-1.6317 0l-3.67156-3.6715c-.45061-.4506-.45061-1.1812 0-1.6318.4506-.4506 1.18118-.4506 1.63178 0l3.67148 3.6715c.4506.4506.4506 1.1812 0 1.6318z"/></g></svg>