<svg fill="none" height="15" viewBox="0 0 15 15" width="15" xmlns="http://www.w3.org/2000/svg"><path d="m3.79289 9.79289c-.39052.39051-.39052 1.02371 0 1.41421.39053.3905 1.02369.3905 1.41422 0l2.29294-2.29294 2.29314 2.29314c.39051.3905 1.02371.3905 1.41421 0s.3905-1.0237 0-1.41422l-2.29313-2.29313 2.29283-2.29284c.3905-.39053.3905-1.02369 0-1.41422-.3905-.39052-1.0237-.39052-1.41421 0l-2.29284 2.29284-2.29265-2.29265c-.39052-.39052-1.02369-.39052-1.41421 0-.39052.39053-.39052 1.02369 0 1.41422l2.29265 2.29265z" fill="#2d3436"/></svg>