<svg fill="none" height="24" viewBox="0 0 24 24" width="24" xmlns="http://www.w3.org/2000/svg"><path d="m7.95429 11.0454c-.52695.0001-.9542.4273-.95429.9543-.00009.5269.42701.954.95396.9539l3.09294-.0005-.0005 3.0929c-.0001.527.427.9541.9539.954.527-.0001.9542-.4273.9543-.9543l.0005-3.0929 3.0906-.0006c.527-.0001.9542-.4273.9543-.9543.0001-.5269-.427-.954-.954-.9539l-3.0905.0005.0005-3.09054c.0001-.52695-.427-.95405-.9539-.95396-.527.00009-.9542.42734-.9543.95429l-.0006 3.09061z" fill="#2d3436"/></svg>