<svg width="25" height="25" viewBox="0 0 25 25" fill="none"><g id="admin"><path fill-rule="evenodd" clip-rule="evenodd" d="M16.665 2.147a4.649 4.649 0 0 1 5.305-.917.5.5 0 0 1 .137.804L20.17 3.97v1.187h1.187l1.937-1.937a.5.5 0 0 1 .805.137c.846 1.764.5 3.957-.927 5.314-1.323 1.256-3.273 1.65-4.974.933l-3.845 3.845c-.7.7-1.775.7-2.475 0l-.023-.024c-.58-.662-.705-1.723.023-2.45l3.844-3.845c-.72-1.693-.391-3.65.943-4.984Zm4.18-.266a3.657 3.657 0 0 0-3.473.974c-1.102 1.102-1.328 2.757-.604 4.15a.5.5 0 0 1-.09.585l-4.093 4.092c-.28.28-.282.726.012 1.072.309.299.743.295 1.049-.011l4.093-4.093a.5.5 0 0 1 .584-.09c1.38.718 3.045.446 4.16-.613.92-.875 1.27-2.228.963-3.464l-1.528 1.528a.5.5 0 0 1-.354.147H19.67a.5.5 0 0 1-.5-.5V3.764a.5.5 0 0 1 .147-.354l1.529-1.529ZM4.335.973c.368-.13.762-.2 1.17-.2 2.015 0 3.689 1.718 3.689 3.748 0 1.62-1.066 3.042-2.52 3.55-.37.128-.763.199-1.17.199-2.016 0-3.69-1.718-3.69-3.748a3.794 3.794 0 0 1 2.52-3.55Zm.326.946A2.79 2.79 0 0 0 2.815 4.52c0 1.496 1.242 2.748 2.689 2.748.292 0 .576-.05.843-.145a2.79 2.79 0 0 0 1.845-2.602c0-1.496-1.243-2.748-2.69-2.748-.292 0-.575.05-.842.145ZM3.1 10.517l-.006.006c-.998.808-1.648 2.12-1.648 3.66v1.813a.5.5 0 1 1-1 0v-1.812c0-2.91 1.999-5.308 4.688-5.51.122-.009.246-.013.37-.013 2.872 0 5.056 2.48 5.056 5.522v1.813a.5.5 0 0 1-1 0v-1.813c0-1.535-.645-2.842-1.636-3.65l-.008-.007a3.806 3.806 0 0 0-2.414-.865c-.882 0-1.702.304-2.37.83l-.031.026Zm4.183 7.145a.5.5 0 0 1 .499-.463h.653a.5.5 0 0 1 0 1h-.19l-.42 5.565a.5.5 0 0 1-.5.462h-.914a.36.36 0 0 1-.018 0H3.68a.5.5 0 0 1-.5-.461l-.42-5.566h-.19a.5.5 0 0 1 0-1h.654a.5.5 0 0 1 .499.463l.42 5.565h2.204a.43.43 0 0 1 .019 0h.497l.42-5.566Zm-6.33.522a.5.5 0 1 0 0-1 .5.5 0 0 0 0 1Zm9.103 0a.5.5 0 1 0 0-1 .5.5 0 0 0 0 1Z" fill="#18303F" yggColor="iconDefault"/></g></svg>