<svg width="25" height="25" viewBox="0 0 25 25" fill="none"><g id="arduino"><path fill-rule="evenodd" clip-rule="evenodd" d="m12.5 11.5.031-.049c.307-.485.761-1.134 1.347-1.785C15.036 8.379 16.788 7 19 7c1.426 0 2.845.547 3.935 1.528l.003.003.016.015c.982.983 1.652 2.413 1.546 3.972a5.928 5.928 0 0 1-1.528 3.916l-.018.02c-.983.982-2.413 1.651-3.972 1.546-2.205-.007-3.949-1.382-5.104-2.665-.586-.652-1.04-1.3-1.347-1.786l-.03-.05-.033.05a13.45 13.45 0 0 1-1.347 1.786C9.963 16.62 8.213 18 6 18a5.925 5.925 0 0 1-3.953-1.546C1.063 15.47.394 14.042.5 12.482a5.93 5.93 0 0 1 1.547-3.935C3.028 7.564 4.458 6.895 6.017 7c2.205.008 3.95 1.383 5.104 2.666.586.65 1.04 1.3 1.347 1.785l.032.05Zm-11 1c0-1.17.45-2.347 1.262-3.256C3.575 8.436 4.734 7.911 5.964 8L6 8c1.787 0 3.286 1.121 4.38 2.335A12.644 12.644 0 0 1 11.93 12.5a12.644 12.644 0 0 1-1.553 2.165C9.285 15.88 7.786 17 6 17c-1.17 0-2.347-.45-3.256-1.263-.808-.813-1.333-1.972-1.245-3.201A.424.424 0 0 0 1.5 12.5Zm11.876.514c-.133-.21-.236-.386-.308-.514a12.46 12.46 0 0 1 1.554-2.165C15.714 9.12 17.213 8 19 8c1.17 0 2.347.45 3.256 1.263.808.813 1.333 1.972 1.245 3.201v.036c0 1.17-.45 2.347-1.264 3.256-.813.808-1.972 1.333-3.2 1.245A.541.541 0 0 0 19 17c-1.787 0-3.286-1.121-4.378-2.334-.539-.6-.96-1.2-1.246-1.652Zm3.331-.52a.5.5 0 0 1 .5-.5h1.254V10.74a.5.5 0 0 1 1 0v1.254h1.254a.5.5 0 1 1 0 1h-1.254v1.255a.5.5 0 0 1-1 0v-1.255h-1.254a.5.5 0 0 1-.5-.5Zm-12.78-.488a.5.5 0 0 0 0 1h3.905a.5.5 0 0 0 0-1H3.926Z" fill="#18303F" yggColor="iconDefault"/></g></svg>