<svg width="25" height="25" viewBox="0 0 25 25" fill="none"><g id="attic"><path fill-rule="evenodd" clip-rule="evenodd" d="M12.985 1.488a.982.982 0 0 0-.682.274.948.948 0 0 0-.29.682v1.143a.516.516 0 0 0 0 .249V8.8h-1.877c-.315 0-.622.121-.85.342a1.18 1.18 0 0 0-.361.834.179.179 0 0 1-.062.125.215.215 0 0 1-.072.043.245.245 0 0 1-.09.014H5.398a.234.234 0 0 1-.164-.06.188.188 0 0 1-.064-.122c.002-.31-.12-.606-.336-.827a1.223 1.223 0 0 0-.867-.365l-.561.017a.5.5 0 0 0 .03 1l.542-.017a.223.223 0 0 1 .14.064.175.175 0 0 1 .052.127v.033c.014.32.157.619.392.832.234.212.54.324.853.318h3.263a1.236 1.236 0 0 0 .857-.316 1.194 1.194 0 0 0 .39-.838v-.016c0-.044.018-.09.056-.127a.225.225 0 0 1 .155-.06h1.837v2.182H2.122v-1.01a.5.5 0 0 0-1 0v1.054c0 .165.043.324.122.464a.962.962 0 0 0-.122.49v9.569c0 .258.106.503.289.682a.986.986 0 0 0 .678.28h9.919a.99.99 0 0 0 .485-.134.988.988 0 0 0 .486.134h9.913a.996.996 0 0 0 .685-.276.963.963 0 0 0 .293-.686v-8.238a.483.483 0 0 0 0-.188V12.98a.955.955 0 0 0-.127-.49.946.946 0 0 0 .127-.462V2.438a.957.957 0 0 0-.297-.679.986.986 0 0 0-.681-.271h-9.907Zm9.885 12.23V13h-9.857v9.512h9.857v-7.794h-1.862a.224.224 0 0 0-.152.059.186.186 0 0 0-.041.058.162.162 0 0 0-.013.065l-.001.016c-.01.32-.152.62-.387.834a1.23 1.23 0 0 1-.852.32h-3.247a1.232 1.232 0 0 1-.853-.32 1.185 1.185 0 0 1-.387-.834.5.5 0 0 1 1-.033.178.178 0 0 0 .062.129c.04.037.098.06.16.058h3.282a.23.23 0 0 0 .16-.058.185.185 0 0 0 .063-.124 1.167 1.167 0 0 1 .362-.833 1.212 1.212 0 0 1 .85-.337h1.856Zm-10.896 0V13H2.122v.701H3.99a1.221 1.221 0 0 1 .844.36 1.169 1.169 0 0 1 .336.856.5.5 0 0 1-1-.034.163.163 0 0 0-.049-.12.198.198 0 0 0-.064-.044.225.225 0 0 0-.08-.018H2.122v7.81h9.852v-7.793h-1.846a.218.218 0 0 0-.15.057.18.18 0 0 0-.04.058.155.155 0 0 0-.013.063v.02a1.175 1.175 0 0 1-.39.838 1.225 1.225 0 0 1-.857.316h-.69a.5.5 0 0 1 0-1h.713a.245.245 0 0 0 .09-.014.215.215 0 0 0 .118-.104.156.156 0 0 0 .016-.063 1.17 1.17 0 0 1 .758-1.088c.145-.057.3-.085.457-.083h1.834Zm1.039-9.507v7.766h9.857v-9.49h-9.857v.724h1.883c.314.01.615.139.837.364.218.221.342.519.34.83a.18.18 0 0 0 .063.123c.04.037.098.06.16.058h3.282a.223.223 0 0 0 .164-.061.18.18 0 0 0 .058-.133.5.5 0 0 1 1-.01 1.176 1.176 0 0 1-.37.867 1.223 1.223 0 0 1-.87.337h-3.246a1.232 1.232 0 0 1-.853-.32 1.184 1.184 0 0 1-.387-.834v-.025a.177.177 0 0 0-.054-.13.224.224 0 0 0-.15-.066h-1.857Zm9.195-.5a.5.5 0 1 1-1 0 .5.5 0 0 1 1 0Zm-7.555 10.49a.5.5 0 1 1-1 0 .5.5 0 0 1 1 0Zm-8.363 1.87a.5.5 0 1 0 0-1 .5.5 0 0 0 0 1ZM1.622 9.783a.5.5 0 1 0 0-1 .5.5 0 0 0 0 1Z" fill="#18303F" id="iconDefault"/></g></svg>