<svg width="25" height="25" viewBox="0 0 25 25" fill="none"><g id="autolock_open_colorful"><path d="M23 12.5C23 18.299 18.299 23 12.5 23S2 18.299 2 12.5 6.701 2 12.5 2 23 6.701 23 12.5Z" fill="#C70546" id="iconCritical"/><path fill-rule="evenodd" clip-rule="evenodd" d="M12.5 23C18.299 23 23 18.299 23 12.5S18.299 2 12.5 2 2 6.701 2 12.5 6.701 23 12.5 23Zm0 2C19.404 25 25 19.404 25 12.5S19.404 0 12.5 0 0 5.596 0 12.5 5.596 25 12.5 25Z" fill="#0BF9BD" id="backgroundSuccessDefault"/><path fill-rule="evenodd" clip-rule="evenodd" d="M13.646 8.396c0-1.609 1.347-2.956 2.957-2.956 1.045 0 1.986.57 2.514 1.42.106.17.195.352.264.54a.5.5 0 0 0 .939-.344 3.964 3.964 0 0 0-.353-.723c-.698-1.125-1.95-1.893-3.364-1.893-2.162 0-3.957 1.795-3.957 3.956v.53a.5.5 0 0 0 1 0v-.53Zm-2.108 6.221c0 .514-.31.956-.752 1.15v.42a.5.5 0 1 1-1 0v-.418a1.254 1.254 0 1 1 1.752-1.152Zm-1.508 0a.254.254 0 1 1 .27.254h-.031a.254.254 0 0 1-.24-.254Zm-3.834-4.522a1.76 1.76 0 0 0-1.757 1.757v4.478c0 .95.436 1.839 1.08 2.483.645.645 1.533 1.08 2.483 1.08h4.558c.95 0 1.838-.435 2.483-1.08.644-.644 1.08-1.532 1.08-2.483v-4.478a1.76 1.76 0 0 0-1.757-1.757h-8.17Zm-.757 1.757a.76.76 0 0 1 .757-.757h8.17a.76.76 0 0 1 .757.757v4.478c0 .644-.3 1.288-.787 1.776-.489.488-1.132.787-1.776.787H8.002c-.644 0-1.287-.299-1.775-.787-.489-.488-.788-1.132-.788-1.776v-4.478ZM20.42 8.37a.36.36 0 1 1-.72 0 .36.36 0 0 1 .72 0Z" fill="#fff" id="iconInverse"/></g></svg>