<svg width="25" height="25" viewBox="0 0 25 25" fill="none"><g id="autolock_locked_colorful"><path d="M23 12.5C23 18.299 18.299 23 12.5 23S2 18.299 2 12.5 6.701 2 12.5 2 23 6.701 23 12.5Z" fill="#038C6A" yggColor="iconSuccess"/><path fill-rule="evenodd" clip-rule="evenodd" d="M12.5 23C18.299 23 23 18.299 23 12.5S18.299 2 12.5 2 2 6.701 2 12.5 6.701 23 12.5 23Zm0 2C19.404 25 25 19.404 25 12.5S19.404 0 12.5 0 0 5.596 0 12.5 5.596 25 12.5 25Z" fill="#0BF9BD" yggColor="backgroundSuccessDefault"/><path fill-rule="evenodd" clip-rule="evenodd" d="M12.426 4.44c-2.155 0-3.945 1.79-3.945 3.945v1.691h-.129c-.965 0-1.752.788-1.752 1.753v4.464c0 .947.434 1.833 1.076 2.475.643.643 1.528 1.077 2.476 1.077h4.543c.947 0 1.833-.434 2.475-1.077.643-.642 1.077-1.528 1.077-2.475v-4.464c0-.965-.787-1.753-1.753-1.753h-.123V8.385c0-2.155-1.79-3.945-3.945-3.945Zm0 1c-1.603 0-2.945 1.342-2.945 2.945v1.691h5.89V8.385c0-1.603-1.342-2.945-2.945-2.945Zm3.46 5.386h.608c.551 0 1.003.452 1.003 1.003v4.464c0 .717-.332 1.42-.857 1.945-.526.525-1.228.857-1.945.857h-4.543c-.718 0-1.42-.332-1.945-.857-.526-.526-.857-1.228-.857-1.945v-4.464c0-.55.451-1.003 1.002-1.003h7.535Zm-4.338 3.76a.876.876 0 1 1 1.377.719l.002.031v.815a.5.5 0 0 1-1 0v-.843a.875.875 0 0 1-.38-.722Zm.876-.627a.627.627 0 0 0-.301 1.176c.05.027.075.085.061.14a.25.25 0 0 0-.007.061v.815a.25.25 0 0 0 .5 0v-.815a.25.25 0 0 0-.008-.062.125.125 0 0 1 .06-.14.626.626 0 0 0-.305-1.175Z" fill="#fff" yggColor="iconInverse"/></g></svg>