<svg width="25" height="25" viewBox="0 0 25 25" fill="none"><g id="autolock_open"><path fill-rule="evenodd" clip-rule="evenodd" d="M6.196 11.095a.76.76 0 0 0-.757.757v4.478c0 .644.3 1.288.788 1.776.488.488 1.131.787 1.775.787h4.558c.644 0 1.287-.299 1.775-.787.489-.488.788-1.132.788-1.776v-4.478a.76.76 0 0 0-.757-.757h-8.17ZM12.5 25C19.404 25 25 19.404 25 12.5S19.404 0 12.5 0 0 5.596 0 12.5 5.596 25 12.5 25Zm4.103-19.56c-1.61 0-2.957 1.347-2.957 2.956v.53a.5.5 0 1 1-1 0v-.53c0-2.161 1.795-3.956 3.957-3.956 1.414 0 2.666.768 3.364 1.893.14.227.26.469.353.723a.5.5 0 0 1-.939.345 2.964 2.964 0 0 0-.264-.54c-.528-.852-1.469-1.421-2.514-1.421ZM4.439 11.852c0-.967.79-1.757 1.757-1.757h8.17c.967 0 1.757.79 1.757 1.757v4.478c0 .95-.436 1.839-1.08 2.483-.645.645-1.533 1.08-2.483 1.08H8.002c-.95 0-1.838-.435-2.483-1.08-.644-.644-1.08-1.532-1.08-2.483v-4.478ZM20.06 8.73a.36.36 0 1 0 0-.72.36.36 0 0 0 0 .72Zm-8.521 5.887c0 .514-.31.956-.752 1.15v.42a.5.5 0 1 1-1 0v-.418a1.254 1.254 0 1 1 1.752-1.152Zm-1.254-.254a.254.254 0 1 0 .002.507h.014a.254.254 0 0 0-.016-.507Z" fill="#18303F" id="iconDefault"/></g></svg>