<svg width="25" height="25" viewBox="0 0 25 25" fill="none"><g id="battery_off_colorful"><path d="M9 3.131a3 3 0 0 0-3 3v14.87a3 3 0 0 0 3 3h7.44a3 3 0 0 0 3-3V6.13a3 3 0 0 0-3-3 .102.102 0 0 1-.102-.102V2a2 2 0 0 0-2-2h-3.237a2 2 0 0 0-2 2v1.03A.101.101 0 0 1 9 3.131Z" fill="#9CA8AD" id="iconDisabled"/><path fill-rule="evenodd" clip-rule="evenodd" d="M6 6.131a3 3 0 0 1 3-3 .101.101 0 0 0 .101-.101V2a2 2 0 0 1 2-2h3.237a2 2 0 0 1 2 2v1.03c0 .056.046.101.102.101a3 3 0 0 1 3 3v14.87a3 3 0 0 1-3 3H9a3 3 0 0 1-3-3V6.13Zm3-2a2 2 0 0 0-2 2v14.87a2 2 0 0 0 2 2h7.44a2 2 0 0 0 2-2V6.13a2 2 0 0 0-2-2 1.102 1.102 0 0 1-1.102-1.102V2a1 1 0 0 0-1-1h-3.237a1 1 0 0 0-1 1v1.03c0 .608-.493 1.101-1.101 1.101Zm4.588 4.117a.5.5 0 0 1 .38.597l-.585 2.631h2.256a.5.5 0 0 1 .407.79l-3.6 5.04a.5.5 0 0 1-.895-.398l.585-2.632H9.91a.5.5 0 0 1-.5-.518.498.498 0 0 1 .093-.31l3.567-5.002a.5.5 0 0 1 .518-.198Zm-2.734 5.028h1.893a.5.5 0 0 1 .5.609l-.187.842 1.608-2.25h-1.909a.5.5 0 0 1-.488-.61l.187-.84-1.604 2.25Z" fill="#6D7B82" id="iconWeak"/></g></svg>