<svg width="25" height="25" viewBox="0 0 25 25" fill="none"><g id="bee"><path fill-rule="evenodd" clip-rule="evenodd" d="M18.528.815a.5.5 0 0 1 .707 0c.601.602.843 1.36.921 2.066a.509.509 0 0 1 .003.055c0 .864-.353 1.551-.924 2.122l-.077.077c.263.205.503.44.716.698l.068-.068a2.976 2.976 0 0 1 4.243 0 .5.5 0 0 1-.707.707 1.976 1.976 0 0 0-2.829 0l-.215.215c.301.592.48 1.258.503 1.96v.017c0 2.352-1.909 4.292-4.28 4.451-.287 1.197-.959 2.439-1.953 3.53a.586.586 0 0 1-.114.123 8.689 8.689 0 0 1-.199.204c-1.227 1.228-2.692 2.025-4.082 2.303-1.208.241-2.408.097-3.315-.563l-1.548 1.549a.5.5 0 0 1-.707-.708l1.548-1.548c-.659-.906-.803-2.107-.562-3.314.278-1.39 1.075-2.855 2.302-4.083.068-.067.136-.133.205-.198a.525.525 0 0 1 .123-.114c1.133-1.032 2.428-1.717 3.667-1.984.124-2.312 2.11-4.18 4.463-4.108a4.297 4.297 0 0 1 1.794.395l.25-.248c.411-.413.623-.849.63-1.388-.066-.556-.249-1.059-.63-1.44a.5.5 0 0 1 0-.708Zm-5.493 7.373c.358-.01.707.021 1.038.093a.5.5 0 0 1-.212.978c-1.235-.269-2.95.215-4.496 1.485l4.891 4.891c1.27-1.546 1.754-3.261 1.485-4.496a.5.5 0 0 1 .977-.212c.081.372.11.764.09 1.17 1.768-.224 3.125-1.703 3.13-3.425-.068-1.934-1.627-3.468-3.46-3.468h-.017c-1.748-.057-3.24 1.29-3.426 2.984Zm.542 8.182L8.63 11.424a8.07 8.07 0 0 0-1.214 1.614l4.548 4.547a8.066 8.066 0 0 0 1.614-1.213Zm-2.576 1.667-4.038-4.038c-.113.3-.199.598-.257.888-.195.972-.073 1.818.325 2.433a.5.5 0 0 1 .648.65c.616.397 1.461.518 2.433.324.291-.058.59-.144.89-.257Zm-.883-10.544a.501.501 0 0 0 .414-.91C9.334 6.037 7.782 5.515 6.19 5.46c-1.605-.057-3.273.36-4.632 1.719a2.976 2.976 0 0 0 0 4.243 2.976 2.976 0 0 0 4.243 0 .5.5 0 0 0-.707-.708 1.977 1.977 0 0 1-2.829 0 1.977 1.977 0 0 1 0-2.828C3.38 6.77 4.754 6.41 6.154 6.46c1.412.05 2.83.518 3.964 1.034Zm8.3 6.974a.5.5 0 1 0-.91.414c.515 1.136.983 2.553 1.033 3.965.05 1.4-.31 2.773-1.427 3.89a1.976 1.976 0 0 1-2.829 0 1.977 1.977 0 0 1 0-2.829.5.5 0 0 0-.707-.707 2.976 2.976 0 0 0 0 4.242 2.976 2.976 0 0 0 4.243 0c1.358-1.358 1.776-3.026 1.72-4.631-.057-1.593-.579-3.145-1.124-4.344Z" fill="#18303F" id="iconDefault"/></g></svg>