<svg width="25" height="25" viewBox="0 0 25 25" fill="none"><g id="bees"><path fill-rule="evenodd" clip-rule="evenodd" d="M13.025.757a.5.5 0 1 0-.707.707c.088.087.143.212.166.384a.452.452 0 0 1-.13.293 2.027 2.027 0 0 0-.643-.107A2.06 2.06 0 0 0 9.72 3.41a.502.502 0 0 0-.288-.392c-.502-.227-1.167-.454-1.863-.478-.707-.025-1.467.16-2.087.78a1.497 1.497 0 0 0 0 2.13 1.496 1.496 0 0 0 1.912.183 3.176 3.176 0 0 0-.315.864c-.091.456-.064.938.143 1.348l-.458.458a.5.5 0 0 0 .707.707l.458-.458c.41.207.892.234 1.347.143.289-.058.582-.165.865-.315a1.496 1.496 0 0 0 .182 1.911 1.497 1.497 0 0 0 2.13 0c.62-.62.806-1.38.78-2.087-.023-.695-.25-1.36-.478-1.862a.496.496 0 0 0-.307-.27c.784-.31 1.349-1.061 1.349-1.943v-.017a2.169 2.169 0 0 0-.143-.707.495.495 0 0 1 .656.052.5.5 0 1 0 .707-.707 1.496 1.496 0 0 0-1.667-.319 1.412 1.412 0 0 0 .13-.664c-.036-.326-.15-.705-.456-1.01Zm-2.322 7.258a.5.5 0 0 1 .329.853.496.496 0 0 0 0 .716.496.496 0 0 0 .716 0c.377-.377.506-.841.488-1.344-.018-.515-.191-1.046-.39-1.484a.581.581 0 0 1-.031-.088 3.902 3.902 0 0 1-.592.861.538.538 0 0 1-.076.082l-.073.075a4.031 4.031 0 0 1-.371.329Zm.07-1.536c.317-.487.412-.967.342-1.29a.5.5 0 1 1 .977-.213c.01.05.02.1.027.151a1.11 1.11 0 0 0 .679-.99c-.025-.625-.528-1.103-1.095-1.103h-.016a1.058 1.058 0 0 0-.99.63c.034.005.068.011.1.019a.5.5 0 0 1-.211.977c-.323-.07-.803.025-1.29.34l1.478 1.48Zm-2.216-.803 1.542 1.542a2.467 2.467 0 0 1-1.018.496c-.256.051-.463.036-.62-.021a.496.496 0 0 0-.38-.379c-.056-.158-.071-.365-.02-.62.064-.321.229-.68.496-1.018Zm-.311-1.124a.494.494 0 0 0-.082.076l-.075.073a4.128 4.128 0 0 0-.33.37.5.5 0 0 0-.853-.329.496.496 0 0 1-.715.001.496.496 0 0 1 0-.717c.377-.377.84-.505 1.344-.487.515.018 1.045.19 1.484.39a.498.498 0 0 0 .088.03 3.896 3.896 0 0 0-.861.593Zm14.593 7.976a.5.5 0 1 0-.707.707c.088.088.143.213.166.384a.446.446 0 0 1-.128.293 2.034 2.034 0 0 0-.644-.107 2.062 2.062 0 0 0-1.99 1.377.498.498 0 0 0-.29-.392c-.5-.228-1.166-.454-1.861-.479-.707-.025-1.467.16-2.087.78a1.497 1.497 0 0 0 0 2.13 1.495 1.495 0 0 0 1.91.184c-.15.283-.256.575-.313.864-.091.456-.065.938.142 1.348l-.458.457a.5.5 0 0 0 .707.707l.458-.457c.41.207.892.233 1.348.142.289-.058.58-.164.864-.314a1.496 1.496 0 0 0 .183 1.911 1.497 1.497 0 0 0 2.13 0c.62-.62.806-1.38.78-2.087-.024-.695-.25-1.36-.478-1.862a.501.501 0 0 0-.307-.27c.783-.311 1.348-1.061 1.348-1.944v-.016a2.169 2.169 0 0 0-.143-.708.496.496 0 0 1 .657.053.5.5 0 0 0 .707-.707 1.496 1.496 0 0 0-1.667-.32 1.427 1.427 0 0 0 .13-.664c-.036-.325-.151-.704-.457-1.01Zm-2.322 7.258a.5.5 0 0 1 .329.853.498.498 0 0 0 0 .717.498.498 0 0 0 .717 0c.377-.377.505-.841.487-1.345-.018-.514-.19-1.045-.39-1.483a.483.483 0 0 1-.03-.088 3.91 3.91 0 0 1-.593.861.44.44 0 0 1-.064.072l-.011.01-.073.074a4.03 4.03 0 0 1-.372.33Zm.07-1.535c.317-.487.413-.968.342-1.29a.5.5 0 0 1 .978-.213c.01.05.019.1.026.15.402-.174.676-.563.679-.99-.024-.624-.527-1.102-1.094-1.102h-.016a1.059 1.059 0 0 0-.991.63l.102.018a.5.5 0 1 1-.213.977c-.323-.07-.803.026-1.29.341l1.478 1.479Zm-2.216-.803 1.542 1.541a2.47 2.47 0 0 1-1.017.497c-.256.05-.463.035-.621-.022a.503.503 0 0 0-.378-.378c-.057-.158-.073-.365-.022-.62.064-.322.23-.68.496-1.018Zm-.311-1.125a.487.487 0 0 0-.082.076 4.112 4.112 0 0 0-.403.444.5.5 0 0 0-.853-.328.498.498 0 0 1-.717 0 .498.498 0 0 1 0-.717c.377-.377.84-.505 1.345-.487.514.018 1.045.19 1.483.39a.529.529 0 0 0 .088.03 3.898 3.898 0 0 0-.861.592ZM7.3 14.41a.5.5 0 0 1 .708 0c.306.306.42.684.456 1.01a.51.51 0 0 1 .004.055c0 .226-.05.429-.134.61a1.496 1.496 0 0 1 1.667.318.5.5 0 0 1-.707.707.495.495 0 0 0-.656-.052c.085.221.135.46.142.707v.017c0 .882-.564 1.632-1.348 1.943.132.04.246.135.307.27.228.502.454 1.167.479 1.863.025.707-.16 1.467-.78 2.086a1.497 1.497 0 0 1-2.131 0 1.494 1.494 0 0 1-.182-1.91 3.2 3.2 0 0 1-.865.314c-.455.09-.937.064-1.347-.143l-.458.458a.5.5 0 1 1-.707-.707l.458-.458c-.207-.41-.234-.892-.143-1.348.058-.288.164-.58.315-.864a1.496 1.496 0 0 1-1.912-.183 1.497 1.497 0 0 1 0-2.13c.62-.62 1.38-.805 2.087-.78.696.024 1.36.25 1.863.478a.502.502 0 0 1 .289.392 2.06 2.06 0 0 1 1.989-1.376c.225 0 .44.038.644.107.088-.1.124-.19.129-.293a.646.646 0 0 0-.166-.384.499.499 0 0 1 0-.707Zm-1.286 7.404a.497.497 0 0 0-.328-.146 4.17 4.17 0 0 0 .444-.404.536.536 0 0 0 .076-.082 3.9 3.9 0 0 0 .592-.86c.008.029.018.058.03.087.2.438.372.97.39 1.484.018.503-.11.967-.487 1.344a.498.498 0 0 1-.717 0 .498.498 0 0 1 0-.716.499.499 0 0 0 0-.707Zm.084-2.972c.07.323-.025.803-.341 1.29l-1.478-1.478c.487-.316.967-.411 1.29-.341a.5.5 0 1 0 .212-.977 1.802 1.802 0 0 0-.101-.02c.168-.377.555-.643.99-.63h.016c.567 0 1.07.48 1.095 1.104a1.11 1.11 0 0 1-.68.99 1.892 1.892 0 0 0-.026-.15.5.5 0 0 0-.977.212ZM5.08 20.87 3.54 19.329a2.462 2.462 0 0 0-.496 1.017c-.052.256-.036.463.02.621a.497.497 0 0 1 .38.379c.157.057.364.072.62.021.32-.064.68-.23 1.017-.496Zm-1.91-2.617a3.923 3.923 0 0 1 .918-.642.507.507 0 0 1-.087-.03c-.44-.2-.97-.372-1.484-.39-.503-.018-.968.11-1.345.488a.498.498 0 0 0 0 .716.498.498 0 0 0 .717 0 .5.5 0 0 1 .853.329 3.962 3.962 0 0 1 .404-.445.415.415 0 0 1 .025-.026Z" fill="#18303F" yggColor="iconDefault"/></g></svg>