<svg width="25" height="25" viewBox="0 0 25 25" fill="none"><g id="blacklisted_not"><path d="M9.998 8.326a.5.5 0 0 1-.708.707L7.774 7.517 6.231 9.06a.5.5 0 1 1-.708-.707L7.067 6.81 5.586 5.329a.5.5 0 1 1 .707-.707l1.481 1.48L9.228 4.65a.5.5 0 1 1 .707.707L8.481 6.81l1.517 1.516Zm-2.24 4.4a5.884 5.884 0 1 0 0-11.769 5.884 5.884 0 0 0 0 11.77Zm4.885-5.884a4.884 4.884 0 1 1-9.769 0 4.884 4.884 0 0 1 9.769 0Zm1.669-3.928c-.262 0-.515.046-.75.13a.5.5 0 1 0 .335.941 1.255 1.255 0 0 1 1.665 1.179.5.5 0 0 0 .5.5h1.688V7.29h-2.876a.5.5 0 1 0 0 1h2.938a.937.937 0 0 0 .671-.267.937.937 0 0 0 .267-.67V6.54h3c.15 0 .235.047.282.094.046.046.094.132.094.28v15.753c0 .15-.048.235-.095.281-.046.047-.132.095-.28.095H6.872c-.149 0-.234-.048-.281-.095-.047-.046-.094-.132-.094-.28v-8.71a.5.5 0 1 0-1 0v8.71c0 .376.127.728.387.987.26.26.612.387.988.387H21.75c.377 0 .729-.127.989-.387s.387-.611.387-.988V6.915c0-.377-.128-.729-.387-.988a1.374 1.374 0 0 0-.989-.387h-3.002a.927.927 0 0 0-.265-.609.937.937 0 0 0-.67-.267h-1.307a2.257 2.257 0 0 0-2.194-1.75Zm-4.73 16.337a.5.5 0 0 1 .707 0l1.397 1.396 1.397-1.396a.5.5 0 0 1 .707 0l1.397 1.396 1.397-1.396a.5.5 0 0 1 .707 0l1.396 1.396 1.397-1.396a.5.5 0 1 1 .707.707l-1.75 1.75a.5.5 0 0 1-.707 0l-1.397-1.397-1.397 1.397a.5.5 0 0 1-.707 0l-1.396-1.397-1.397 1.397a.5.5 0 0 1-.707 0l-1.397-1.397-1.397 1.397a.5.5 0 0 1-.707-.707l1.75-1.75Zm.707-3.334a.5.5 0 0 0-.707 0l-1.75 1.75a.5.5 0 1 0 .707.708l1.397-1.397 1.397 1.397a.5.5 0 0 0 .707 0l1.397-1.397 1.396 1.397a.5.5 0 0 0 .707 0l1.397-1.397 1.397 1.397a.5.5 0 0 0 .707 0l1.75-1.75a.5.5 0 1 0-.707-.707l-1.396 1.396-1.397-1.396a.5.5 0 0 0-.707 0l-1.397 1.396-1.397-1.396a.5.5 0 0 0-.707 0l-1.397 1.396-1.396-1.396Zm2.794-3.333a.5.5 0 0 1 .707 0l1.397 1.397 1.397-1.397a.5.5 0 0 1 .707 0l1.396 1.397 1.397-1.397a.5.5 0 1 1 .707.707l-1.75 1.75a.5.5 0 0 1-.707 0l-1.397-1.396-1.397 1.397a.5.5 0 0 1-.707 0l-1.396-1.397-1.397 1.397a.5.5 0 0 1-.707 0l-.875-.876a.5.5 0 1 1 .707-.707l.521.522 1.397-1.397Zm4.208-3.333a.5.5 0 0 0-.707 0l-1.397 1.397-.522-.522a.5.5 0 1 0-.707.707l.875.875a.5.5 0 0 0 .707 0l1.397-1.396 1.397 1.396a.5.5 0 0 0 .707 0l1.75-1.75a.5.5 0 1 0-.707-.707l-1.396 1.397L17.29 9.25Z" fill="#18303F" id="iconDefault"/></g></svg>