<svg width="25" height="25" viewBox="0 0 25 25" fill="none"><g id="bomb"><path fill-rule="evenodd" clip-rule="evenodd" d="M21.927 2.909a.5.5 0 1 0-.674-.739l-1.434 1.31a.5.5 0 1 0 .675.738l1.433-1.31Zm-11.614 1.57c0-1.406 1.207-2.44 2.63-2.44 1.425 0 2.63 1.034 2.63 2.44 0 .534.499 1.051 1.206 1.051s1.205-.517 1.205-1.051a.5.5 0 1 1 1 0c0 1.172-1.037 2.051-2.205 2.051-1.168 0-2.205-.879-2.205-2.051 0-.767-.668-1.44-1.63-1.44-.963 0-1.631.673-1.631 1.44a.5.5 0 0 1-1 0ZM9.51 6.167c-.368 0-.717.119-.978.367-.262.25-.395.595-.395.966v.582c0 .04-.018.105-.068.175a.366.366 0 0 1-.072.075.152.152 0 0 1-.035.023.5.5 0 1 0 .303.953c.258-.082.47-.266.613-.464.146-.201.259-.468.259-.762V7.5c0-.13.042-.201.085-.242.045-.043.133-.09.288-.09h2.619c.155 0 .242.047.287.09.043.04.085.113.085.242v.582c0 .26.07.507.22.724a1.48 1.48 0 0 0 .622.491c1.799.702 3.18 2.022 3.91 3.724 1.366 3.298-.397 7.17-3.904 8.493-3.513 1.324-7.587-.4-8.963-3.719-.996-2.402-.38-5.097 1.407-6.9.063-.064.128-.128.195-.19a.5.5 0 0 0-.681-.732 6.883 6.883 0 0 0-.225.218c-2.053 2.074-2.78 5.192-1.62 7.987 1.592 3.84 6.246 5.777 10.239 4.272 3.998-1.508 6.075-5.956 4.475-9.815l-.002-.006c-.838-1.953-2.417-3.458-4.448-4.256a.468.468 0 0 1-.184-.14.246.246 0 0 1-.041-.15V7.5c0-.371-.132-.715-.395-.966a1.393 1.393 0 0 0-.977-.367h-2.62Zm10.219-.633a.501.501 0 0 1 .688-.167l1.433.873a.5.5 0 1 1-.52.854l-1.433-.873a.5.5 0 0 1-.168-.687ZM7.348 9.546a.5.5 0 1 1-1 0 .5.5 0 0 1 1 0Zm11.637-6.55a.5.5 0 1 1-1 0 .5.5 0 0 1 1 0Z" fill="#18303F" id="iconDefault"/></g></svg>