<svg width="25" height="25" viewBox="0 0 25 25" fill="none"><g id="calendar_pin"><path fill-rule="evenodd" clip-rule="evenodd" d="M8.833 2.083a.5.5 0 1 0-1 0v.542h-.708a4.5 4.5 0 0 0-4.5 4.5v12.417a2.833 2.833 0 0 0 2.833 2.833.5.5 0 0 0 0-1 1.833 1.833 0 0 1-1.833-1.833V9.875h17.75V15.5a.5.5 0 0 0 1 0V7.125a4.5 4.5 0 0 0-4.5-4.5h-.708v-.542a.5.5 0 0 0-1 0v.542H8.833v-.542Zm-1 1.542v.542a.5.5 0 0 0 1 0v-.542h7.334v.542a.5.5 0 1 0 1 0v-.542h.708a3.5 3.5 0 0 1 3.5 3.5v1.75H3.625v-1.75a3.5 3.5 0 0 1 3.5-3.5h.708ZM12.19 19.77a.5.5 0 0 0-.707-.707l-.72.718-.718-.718a.5.5 0 1 0-.707.707l.719.718-.762.762a.5.5 0 0 0 .707.707l.762-.762.762.762a.5.5 0 0 0 .707-.707l-.762-.762.719-.718Zm5-.707a.5.5 0 0 1 0 .707l-.719.718.762.762a.5.5 0 0 1-.707.707l-.762-.762-.762.762a.5.5 0 0 1-.707-.707l.762-.762-.719-.718a.5.5 0 0 1 .707-.707l.719.718.719-.718a.5.5 0 0 1 .707 0Zm1.841 2.03a.5.5 0 0 0 0 1h2.452a.5.5 0 0 0 0-1h-2.452ZM7 18.5A1.5 1.5 0 0 1 8.5 17h14a1.5 1.5 0 0 1 1.5 1.5v4a1.5 1.5 0 0 1-1.5 1.5h-14A1.5 1.5 0 0 1 7 22.5v-4Zm1.5-.5a.5.5 0 0 0-.5.5v4a.5.5 0 0 0 .5.5h14a.5.5 0 0 0 .5-.5v-4a.5.5 0 0 0-.5-.5h-14Z" fill="#18303F" id="iconDefault"/></g></svg>