<svg width="25" height="25" viewBox="0 0 25 25" fill="none"><g id="calendar_edit" fill-rule="evenodd" clip-rule="evenodd" fill="#18303F"><path d="M8.333 1.583a.5.5 0 0 1 .5.5v.542h7.334v-.542a.5.5 0 1 1 1 0v.542h.708a4.5 4.5 0 0 1 4.5 4.5V12.5a.5.5 0 0 1-1 0V9.875H3.625v8a3.5 3.5 0 0 0 3.5 3.5h4.333a.5.5 0 1 1 0 1H7.125a4.5 4.5 0 0 1-4.5-4.5V7.125a4.5 4.5 0 0 1 4.5-4.5h.708v-.542a.5.5 0 0 1 .5-.5Zm-.5 2.042h-.708a3.5 3.5 0 0 0-3.5 3.5v1.75h17.75v-1.75a3.5 3.5 0 0 0-3.5-3.5h-.708v.542a.5.5 0 0 1-1 0v-.542H8.833v.542a.5.5 0 1 1-1 0v-.542Zm14.56 13.562a1.5 1.5 0 0 0-.186-2.114l-1.66-1.392a1.5 1.5 0 0 0-2.113.185l-1.365 1.627-2.484 2.96a1.5 1.5 0 0 0-.342.8l-.215 1.94a1.5 1.5 0 0 0 1.913 1.605l1.874-.548a1.5 1.5 0 0 0 .728-.476l2.483-2.96 1.366-1.627Zm-.828-1.348a.5.5 0 0 1 .061.705l-1.044 1.245-2.426-2.036 1.045-1.245a.5.5 0 0 1 .704-.061l1.66 1.392Zm-4.052.68 2.426 2.036-2.162 2.577a.5.5 0 0 1-.243.158l-1.874.549a.5.5 0 0 1-.638-.535l.215-1.941a.5.5 0 0 1 .114-.267l2.162-2.577Z" yggColor="iconDefault"/><g id="iconDefault_2"><path d="M8.333 1.563a.52.52 0 0 1 .521.52v.521h7.292v-.52a.52.52 0 0 1 1.041 0v.52h.521a4.688 4.688 0 0 1 4.688 4.688V12.5a.52.52 0 0 1-1.042 0V9.896H3.646v7.812a3.646 3.646 0 0 0 3.646 3.646h4.166a.52.52 0 0 1 0 1.042H7.291a4.687 4.687 0 0 1-4.687-4.688V7.292a4.687 4.687 0 0 1 4.688-4.688h.52v-.52a.52.52 0 0 1 .521-.522Zm-.52 2.083h-.521a3.646 3.646 0 0 0-3.646 3.646v1.562h17.708V7.292a3.646 3.646 0 0 0-3.646-3.646h-.52v.52a.52.52 0 1 1-1.042 0v-.52H8.854v.52a.52.52 0 1 1-1.042 0v-.52Z"/><path d="M22.381 17.232a1.562 1.562 0 0 0-.192-2.201l-1.596-1.34a1.563 1.563 0 0 0-2.201.193l-3.815 4.546a1.562 1.562 0 0 0-.356.833l-.207 1.866a1.563 1.563 0 0 0 1.992 1.672l1.803-.528c.296-.086.56-.259.758-.495l3.814-4.546Zm-.862-1.403a.52.52 0 0 1 .065.733l-1.005 1.197-2.394-2.008 1.005-1.197a.52.52 0 0 1 .733-.065l1.596 1.34Zm-4.003.72 2.394 2.008-2.141 2.551a.521.521 0 0 1-.253.165l-1.802.528a.52.52 0 0 1-.664-.557l.206-1.867a.52.52 0 0 1 .119-.277l2.14-2.552Z"/></g></g></svg>