<svg width="25" height="25" viewBox="0 0 25 25" fill="none"><g id="calendar_add"><path fill-rule="evenodd" clip-rule="evenodd" d="M8.833 2.083a.5.5 0 1 0-1 0v.542h-.708a4.5 4.5 0 0 0-4.5 4.5v10.75a4.5 4.5 0 0 0 4.5 4.5h7.295a5.708 5.708 0 0 0 7.955-7.955V7.125a4.5 4.5 0 0 0-4.5-4.5h-.708v-.542a.5.5 0 0 0-1 0v.542H8.833v-.542ZM21.465 14.87l.02.027a4.708 4.708 0 1 1-.02-.027Zm-.09-1.537V9.875H3.625v8a3.5 3.5 0 0 0 3.5 3.5h6.208a5.708 5.708 0 0 1 8.042-8.042Zm0-4.458v-1.75a3.5 3.5 0 0 0-3.5-3.5h-.708v.542a.5.5 0 0 1-1 0v-.542H8.833v.542a.5.5 0 1 1-1 0v-.542h-.708a3.5 3.5 0 0 0-3.5 3.5v1.75h17.75Zm-3.667 6.25a.5.5 0 0 1 .5.5v1.583h1.584a.5.5 0 0 1 0 1h-1.584v1.584a.5.5 0 1 1-1 0v-1.584h-1.583a.5.5 0 1 1 0-1h1.583v-1.583a.5.5 0 0 1 .5-.5Z" fill="#18303F" id="iconDefault"/></g></svg>