<svg width="25" height="25" viewBox="0 0 25 25" fill="none"><g id="calendar_pin" fill-rule="evenodd" clip-rule="evenodd" fill="#18303F"><path d="M6.5 1a.5.5 0 0 0-1 0v1.5H3c-.385 0-.99.122-1.513.492C.937 3.379.5 4.027.5 5v12c0 .385.122.99.492 1.513.387.55 1.036.987 2.008.987h3a.5.5 0 0 0 0-1H3c-.627 0-.98-.262-1.191-.563a1.763 1.763 0 0 1-.31-.937V8.5h19v8a.5.5 0 0 0 1 0V5c0-.973-.436-1.62-.985-2.008A2.761 2.761 0 0 0 19 2.5h-2.5V1a.5.5 0 0 0-1 0v1.5h-9V1Zm14 6.5V5c0-.627-.262-.98-.563-1.192A1.765 1.765 0 0 0 19 3.5h-2.5V6a.5.5 0 0 1-1 0V3.5h-9V6a.5.5 0 0 1-1 0V3.5H3c-.215 0-.61.078-.936.308C1.763 4.021 1.5 4.373 1.5 5v2.5h19Zm-7.81 12.77a.5.5 0 0 0-.707-.707l-.72.718-.718-.718a.5.5 0 1 0-.707.707l.719.718-.762.762a.5.5 0 0 0 .707.707l.762-.762.762.762a.5.5 0 0 0 .707-.707l-.762-.762.719-.718Zm5-.707a.5.5 0 0 1 0 .707l-.72.718.763.762a.5.5 0 0 1-.707.707l-.762-.762-.762.762a.5.5 0 1 1-.707-.707l.762-.762-.72-.718a.5.5 0 0 1 .708-.707l.719.718.719-.718a.5.5 0 0 1 .707 0Zm1.84 2.03a.5.5 0 0 0 0 1h2.453a.5.5 0 0 0 0-1H19.53ZM7.5 19A1.5 1.5 0 0 1 9 17.5h14a1.5 1.5 0 0 1 1.5 1.5v4a1.5 1.5 0 0 1-1.5 1.5H9A1.5 1.5 0 0 1 7.5 23v-4Zm1.5-.5a.5.5 0 0 0-.5.5v4a.5.5 0 0 0 .5.5h14a.5.5 0 0 0 .5-.5v-4a.5.5 0 0 0-.5-.5H9Z" yggColor="iconDefault"/><path d="M8.833 2.083a.5.5 0 1 0-1 0v.542h-.708a4.5 4.5 0 0 0-4.5 4.5v12.417a2.833 2.833 0 0 0 2.833 2.833.5.5 0 0 0 0-1 1.833 1.833 0 0 1-1.833-1.833V9.875h17.75V15.5a.5.5 0 0 0 1 0V7.125a4.5 4.5 0 0 0-4.5-4.5h-.708v-.542a.5.5 0 0 0-1 0v.542H8.833v-.542Zm-1 1.542v.542a.5.5 0 0 0 1 0v-.542h7.334v.542a.5.5 0 1 0 1 0v-.542h.708a3.5 3.5 0 0 1 3.5 3.5v1.75H3.625v-1.75a3.5 3.5 0 0 1 3.5-3.5h.708ZM12.19 19.77a.5.5 0 0 0-.707-.707l-.72.718-.718-.718a.5.5 0 1 0-.707.707l.719.718-.762.762a.5.5 0 0 0 .707.707l.762-.762.762.762a.5.5 0 0 0 .707-.707l-.762-.762.719-.718Zm5-.707a.5.5 0 0 1 0 .707l-.719.718.762.762a.5.5 0 0 1-.707.707l-.762-.762-.762.762a.5.5 0 0 1-.707-.707l.762-.762-.719-.718a.5.5 0 0 1 .707-.707l.719.718.719-.718a.5.5 0 0 1 .707 0Zm1.841 2.03a.5.5 0 0 0 0 1h2.452a.5.5 0 0 0 0-1h-2.452ZM7 18.5A1.5 1.5 0 0 1 8.5 17h14a1.5 1.5 0 0 1 1.5 1.5v4a1.5 1.5 0 0 1-1.5 1.5h-14A1.5 1.5 0 0 1 7 22.5v-4Zm1.5-.5a.5.5 0 0 0-.5.5v4a.5.5 0 0 0 .5.5h14a.5.5 0 0 0 .5-.5v-4a.5.5 0 0 0-.5-.5h-14Z" yggColor="iconDefault_2"/></g></svg>