<svg width="25" height="25" viewBox="0 0 25 25" fill="none"><g id="call"><path fill-rule="evenodd" clip-rule="evenodd" d="M21.346 2.758c-.813-.812-2.103-.89-2.832-.16l-2.4 2.396c-.38.45-.494.918-.445 1.388.051.492.285 1.013.645 1.516l.805 1.126a.5.5 0 0 1-.02.608 56.43 56.43 0 0 1-7.63 7.621.5.5 0 0 1-.67-.032l-.966-.964a.479.479 0 0 1-.014-.015c-.469-.507-.987-.719-1.462-.728-.479-.009-.96.187-1.356.582l-2.399 2.396c-.767.907-.647 2.05.147 2.843a.553.553 0 0 1 .022.024c.482.55 1.362 1.064 2.334 1.34.967.274 1.909.28 2.554-.031 6.041-3.817 11.285-9.06 14.938-15.09a.6.6 0 0 1 .012-.018c.362-.542.392-1.4.117-2.362-.27-.945-.804-1.864-1.38-2.44Zm-3.54-.868c1.201-1.2 3.129-.956 4.247.16.71.71 1.322 1.785 1.634 2.873.306 1.068.357 2.28-.24 3.183-3.742 6.172-9.105 11.527-15.277 15.421a.512.512 0 0 1-.043.025c-.963.48-2.203.419-3.295.109-1.093-.31-2.157-.901-2.802-1.63-1.123-1.133-1.322-2.867-.175-4.204a.492.492 0 0 1 .026-.028l2.413-2.41c.57-.57 1.307-.89 2.082-.875.775.015 1.54.363 2.17 1.042l.637.636a55.51 55.51 0 0 0 6.898-6.9l-.58-.811c-.422-.59-.752-1.275-.827-1.996-.076-.739.119-1.487.694-2.157a.475.475 0 0 1 .026-.028l2.413-2.41Z" fill="#18303F" id="iconDefault"/></g></svg>