<svg width="25" height="25" viewBox="0 0 25 25" fill="none"><g id="charger_alt"><path fill-rule="evenodd" clip-rule="evenodd" d="M1.143 8.202a.5.5 0 0 1 .707-.006l1.5 1.473 2.198-2.206-.439-.431a.5.5 0 1 1 .701-.713l.444.436.674-.677.004-.004a1.209 1.209 0 0 1 1.716 0c.215.211.5.499.825.827l.01.009.182.184c.407.41.866.871 1.335 1.332l.006.007.01.01a4.563 4.563 0 0 1 .905 4.752.5.5 0 0 1 .164.107l1.179 1.159a.5.5 0 0 1 0 .713l-.7.687 3.938 3.938c.635.634 1.449 1.09 2.302 1.186.836.094 1.76-.15 2.662-1 .778-.734 1.031-1.65.942-2.547a4.064 4.064 0 0 0-1.143-2.402l-5.039-5.04c-1.049-1.048-1.62-2.085-1.674-3.117-.056-1.045.425-1.966 1.22-2.761.827-.827 1.791-1.173 2.743-1.111.94.06 1.818.515 2.503 1.2l2.937 2.937a.5.5 0 0 1-.707.707L20.31 4.915c-.545-.545-1.204-.868-1.86-.91-.645-.042-1.334.182-1.972.82-.667.668-.964 1.329-.929 2.002.037.686.424 1.504 1.383 2.463l5.039 5.039a5.064 5.064 0 0 1 1.43 3.01c.117 1.167-.219 2.4-1.25 3.374-1.104 1.04-2.314 1.394-3.46 1.265-1.127-.127-2.14-.715-2.897-1.472l-3.944-3.944-.838.824a.5.5 0 0 1-.7 0l-1.18-1.159a.498.498 0 0 1-.121-.191c-1.614.636-3.504.387-4.857-.827a.442.442 0 0 1-.016-.016l-2.32-2.279c-.101-.1-.199-.22-.267-.373a1.152 1.152 0 0 1-.1-.482c0-.166.03-.327.1-.482.068-.151.164-.271.266-.371l.825-.829L1.15 8.91a.5.5 0 0 1-.007-.707Zm9.56 6.714c.29-.253.54-.534.747-.835l.75.736-1.537 1.511-.765-.751c.286-.188.556-.408.804-.66Zm-8.24-2.787c.003.008.015.03.058.072l2.31 2.27c1.457 1.3 3.755 1.186 5.17-.268l.032-.03c1.512-1.3 1.587-3.602.257-5.042-.47-.462-.93-.925-1.335-1.332l-.184-.186c-.33-.332-.612-.617-.824-.826-.095-.093-.218-.093-.313-.001l-5.11 5.127-.003.004a.256.256 0 0 0-.058.072.163.163 0 0 0-.01.07c0 .047.007.064.01.07ZM4.35 5.045a.5.5 0 1 1 0 1 .5.5 0 0 1 0-1Z" fill="#18303F" id="iconDefault"/></g></svg>