<svg width="25" height="25" viewBox="0 0 25 25" fill="none"><g id="charger"><path fill-rule="evenodd" clip-rule="evenodd" d="M24.169 6.026a.5.5 0 0 1-.496.504l-2.101.018.005 3.115.615-.006a.5.5 0 1 1 .009 1l-.622.005.002.956v.005a1.209 1.209 0 0 1-1.213 1.213c-.302.003-.707.001-1.17 0h-.012l-.26-.002c-.577-.002-1.228-.003-1.885.002h-.023a4.563 4.563 0 0 1-4-2.72.5.5 0 0 1-.192.04l-1.653.014a.5.5 0 0 1-.504-.504l.008-.98H5.11c-.898 0-1.795.253-2.467.789-.657.524-1.138 1.35-1.175 2.589-.031 1.07.437 1.896 1.135 2.467.71.58 1.65.89 2.507.89h7.126c1.484 0 2.62.33 3.388 1.02.778.7 1.09 1.692 1.09 2.817 0 1.168-.438 2.095-1.154 2.724-.707.622-1.65.922-2.62.922H8.788a.5.5 0 1 1 0-1h4.152c.772 0 1.466-.239 1.96-.673.485-.426.814-1.072.814-1.973 0-.945-.257-1.622-.759-2.073-.511-.46-1.363-.764-2.72-.764H5.11a5.064 5.064 0 0 1-3.14-1.116C1.06 14.562.426 13.45.468 12.035c.044-1.516.65-2.623 1.55-3.342.887-.707 2.02-1.007 3.091-1.007h5.577l.01-1.175a.5.5 0 0 1 .496-.496L12.845 6c.079-.001.154.017.22.049.692-1.59 2.205-2.751 4.02-2.85h.022l3.252-.028c.143-.002.297.015.453.074.16.06.293.153.411.27.118.119.211.253.271.412.058.155.075.308.074.45l.002 1.17 2.095-.018a.5.5 0 0 1 .504.495Zm-11.507 2.01c-.027.386-.004.761.062 1.121l-1.051.01.019-2.156L12.764 7c-.07.335-.105.682-.102 1.036Zm7.797-3.854a.26.26 0 0 0-.091-.01l-3.24.028c-1.948.111-3.493 1.816-3.466 3.845l-.001.045c-.15 1.988 1.425 3.668 3.383 3.746.66-.005 1.312-.004 1.886-.002l.262.002c.468.001.87.003 1.167 0 .133 0 .22-.087.222-.22l-.013-7.238v-.006a.258.258 0 0 0-.01-.091.163.163 0 0 0-.042-.057.164.164 0 0 0-.057-.042Zm3.674 6.343a.5.5 0 1 1-.707-.706.5.5 0 0 1 .707.706Z" fill="#18303F" id="iconDefault"/></g></svg>