<svg width="25" height="25" viewBox="0 0 25 25" fill="none"><g id="charger_alt_disabled"><g id="iconDefault" fill="#18303F"><path d="M2.354 2.646a.5.5 0 1 0-.708.708l20 20a.5.5 0 0 0 .708-.708l-20-20ZM21.985 20.864l-.709-.71c.063-.053.127-.11.19-.169.778-.734 1.031-1.65.942-2.547a4.064 4.064 0 0 0-1.143-2.402l-5.039-5.04c-1.049-1.048-1.62-2.085-1.674-3.117-.056-1.045.425-1.966 1.22-2.761.827-.827 1.791-1.173 2.743-1.111.94.06 1.818.515 2.503 1.2l2.937 2.937a.5.5 0 0 1-.707.707L20.31 4.915c-.545-.545-1.204-.868-1.86-.91-.645-.042-1.334.182-1.972.82-.667.668-.964 1.329-.929 2.002.037.686.424 1.504 1.383 2.463l5.039 5.039a5.064 5.064 0 0 1 1.43 3.01c.117 1.167-.219 2.4-1.25 3.374-.056.052-.111.102-.167.15ZM10.495 9.374a3.564 3.564 0 0 0-.205-.243c-.47-.462-.93-.925-1.335-1.332l-.184-.186c-.33-.332-.612-.617-.824-.826a.246.246 0 0 0-.1-.061l-.773-.773c.48-.35 1.134-.31 1.574.121.214.211.499.498.824.825l.193.195c.407.41.866.871 1.335 1.332l.006.007.01.01a4.55 4.55 0 0 1 1.192 2.643l-1.713-1.712ZM4.946 8.067 3.349 9.67 1.85 8.196a.5.5 0 0 0-.7.713l1.493 1.468-.825.829c-.102.1-.198.22-.267.371-.07.155-.098.316-.098.482 0 .166.029.327.099.482.068.152.166.273.268.373l2.319 2.28.016.015c1.353 1.214 3.243 1.463 4.857.827.024.07.065.136.121.191l1.18 1.159a.5.5 0 0 0 .7 0l.838-.824 3.944 3.944c.757.757 1.77 1.345 2.897 1.472.06.007.12.012.181.016l-1.53-1.53a4.548 4.548 0 0 1-.841-.665l-3.937-3.938.088-.087-.707-.707-1.283 1.261-.765-.751c.286-.188.556-.408.804-.66.199-.173.378-.36.538-.556l-.712-.712a3.45 3.45 0 0 1-.527.554c-1.415 1.454-3.713 1.568-5.17.269L2.521 12.2a.261.261 0 0 1-.058-.072.164.164 0 0 1-.01-.07c0-.047.007-.064.01-.07a.256.256 0 0 1 .058-.072l.003-.004 3.129-3.139-.707-.707Z"/></g></g></svg>