<svg width="25" height="25" viewBox="0 0 25 25" fill="none"><g id="child_room"><path fill-rule="evenodd" clip-rule="evenodd" d="M18.862 6.926a3.459 3.459 0 0 1-.825.75 5.545 5.545 0 0 1-1.599 4.15c.326-.046.659-.086.987-.11.726-.056 1.478-.047 2.093.137.633.19 1.199.598 1.342 1.36.081.434.057.823-.096 1.162-.153.341-.41.573-.688.735a3.685 3.685 0 0 1-.872.343c-.148.041-.325.085-.495.126l-.024.006-.117.029c.139.701.166 1.42.08 2.129a2.912 2.912 0 1 1-2.853 4.163c-1.036.772-2.138 1.18-3.268 1.18-1.144 0-2.26-.419-3.308-1.21a2.912 2.912 0 1 1-2.87-4.133 6.775 6.775 0 0 1 .077-2.131l-.121-.03h-.002a20.316 20.316 0 0 1-.406-.102 4.132 4.132 0 0 1-.91-.335c-.291-.158-.566-.386-.733-.733-.167-.347-.197-.75-.113-1.2.143-.761.708-1.169 1.342-1.359.615-.184 1.367-.194 2.092-.138.328.025.66.065.984.11a5.558 5.558 0 0 1-1.598-4.15 3.436 3.436 0 0 1-.828-.754l-.006-.007A3.353 3.353 0 0 1 9.182 1.59a3.348 3.348 0 0 1 1.997.95 5.55 5.55 0 0 1 2.622-.003 3.344 3.344 0 0 1 2.021-1.065 3.353 3.353 0 0 1 3.666 4.285 3.363 3.363 0 0 1-.626 1.17Zm-2.903-4.463a2.351 2.351 0 0 1 2.13 3.83l-.008.008a2.45 2.45 0 0 1-.214.238 5.535 5.535 0 0 0-3-3.627 2.349 2.349 0 0 1 1.092-.45Zm.868 12.674c.236.163.491.297.758.399a.492.492 0 0 0-.006.23c.135.661.155 1.342.056 2.01a.509.509 0 0 0-.005.067 2.913 2.913 0 0 0-2.113 3.008c-1.002.843-2.013 1.235-2.99 1.235-.994 0-2.022-.405-3.041-1.279a2.914 2.914 0 0 0-2.12-2.966.645.645 0 0 0-.005-.075 5.783 5.783 0 0 1 .056-2.01.512.512 0 0 0 .009-.14c.287-.094.563-.218.824-.371a.499.499 0 1 0-.505-.863 3.218 3.218 0 0 1-.793.332 18.401 18.401 0 0 0-.358-.09l-.053-.013a20.365 20.365 0 0 1-.388-.097 3.171 3.171 0 0 1-.688-.247c-.169-.092-.261-.187-.31-.29-.05-.103-.088-.276-.031-.58.05-.269.229-.461.646-.586.435-.13 1.039-.152 1.729-.099.68.052 1.396.172 2.037.291l.45.085.054.011.013.003c.395.075.749.143 1.002.176a5.53 5.53 0 0 0 2.891 0c.252-.032.6-.1.99-.174l.025-.005.504-.096c.64-.12 1.357-.239 2.037-.29.69-.054 1.293-.033 1.729.098.416.125.595.317.646.585.055.295.022.466-.025.57-.045.1-.128.192-.28.28a2.736 2.736 0 0 1-.635.243c-.159.044-.302.08-.454.116l-.032.008-.271.067c-.28-.077-.545-.2-.784-.366a.5.5 0 0 0-.569.822Zm-5.506-2.823a4.526 4.526 0 0 0 2.935-.198 2.344 2.344 0 0 0 .552-1.134A2.345 2.345 0 0 0 13.794 8.6a2.347 2.347 0 0 0-1.293-.391 2.35 2.35 0 0 0-1.757 3.908 4.502 4.502 0 0 0 .577.198ZM7.527 5.472c-.168.342-.301.7-.396 1.066a2.37 2.37 0 0 1-.208-.23 2.35 2.35 0 0 1 3.158-3.371 5.548 5.548 0 0 0-2.554 2.535Zm-.949 13.262a1.912 1.912 0 1 0 0 3.824 1.912 1.912 0 0 0 0-3.824Zm9.932 1.912a1.912 1.912 0 1 1 3.824 0 1.912 1.912 0 0 1-3.824 0ZM14.668 3.933a4.541 4.541 0 0 0-6.244 1.981 4.542 4.542 0 0 0 .758 5.117 3.35 3.35 0 0 1 3.317-3.828 3.354 3.354 0 0 1 3.084 2.04c.24.565.32 1.183.233 1.788a4.544 4.544 0 0 0-1.148-7.098Zm-3.527 2.89c0-.305-.307-.611-.613-.611s-.612.306-.612.612.306.612.612.612.613-.306.613-.612Zm1.36 1.595c.306 0 .612.306.612.612s-.306.612-.612.612-.612-.306-.612-.612.306-.612.612-.612ZM11.16 15.61a2.446 2.446 0 0 1 3.584 1.069.5.5 0 1 0 .917-.4 3.45 3.45 0 0 0-6.321 0 .5.5 0 0 0 .917.4c.19-.437.504-.808.903-1.07Zm3.93-8.787c0-.306-.306-.612-.613-.612-.306 0-.612.306-.612.612s.306.612.612.612c.307 0 .613-.306.613-.612Z" fill="#18303F" id="iconDefault"/></g></svg>