<svg width="25" height="25" viewBox="0 0 25 25" fill="none"><g id="common_area"><path fill-rule="evenodd" clip-rule="evenodd" d="M15.919 3.28c0-.128.174-.415.66-.415h5.147c.486 0 .66.287.66.415v18.84a.207.207 0 0 1-.08.015h-8.833a.5.5 0 0 0 0 1h8.833c.481 0 1.08-.323 1.08-.958V3.28c0-.889-.857-1.415-1.66-1.415h-5.147c-.803 0-1.66.526-1.66 1.415v2.235c0 .016 0 .031.002.047v.912a.214.214 0 0 1-.08.014h-2.695c-.802 0-1.661.524-1.661 1.412l.002 3.441a.214.214 0 0 1-.08.014H7.712c-.802 0-1.661.524-1.661 1.412l.002 3.34a.21.21 0 0 1-.08.014H3.278c-.802 0-1.661.523-1.661 1.411v3.126a.5.5 0 0 0 1 0v-3.126c0-.124.173-.411.661-.411h2.695c.478 0 1.08-.32 1.08-.955l-.002-3.399c0-.124.173-.412.661-.412h2.695c.478 0 1.08-.32 1.08-.955l-.002-3.5c0-.125.173-.412.661-.412h2.695c.478 0 1.08-.32 1.08-.955v-3.05a.723.723 0 0 0-.002-.047V3.28ZM4.352 22.135a.5.5 0 1 0 0 1h1.066a.5.5 0 1 0 0-1H4.352Zm-2.235 1a.5.5 0 1 0 0-1 .5.5 0 0 0 0 1Z" fill="#18303F" yggColor="iconDefault"/></g></svg>