<svg width="25" height="25" viewBox="0 0 25 25" fill="none"><g id="copy"><path fill-rule="evenodd" clip-rule="evenodd" d="M3.629 1.379c-.069.068-.129.185-.129.371v11.5c0 .186.06.303.129.371.068.07.185.129.371.129h4.5a.5.5 0 0 1 0 1H4c-.414 0-.797-.14-1.079-.421-.281-.282-.421-.665-.421-1.079V1.75c0-.414.14-.797.421-1.079C3.203.391 3.586.25 4 .25h7.1c.208 0 .404.035.591.118.184.082.333.199.463.328l1.9 1.9c.129.13.246.28.328.463.083.187.118.383.118.591v4.8a.5.5 0 0 1-1 0v-4.8a.44.44 0 0 0-.032-.184.54.54 0 0 0-.122-.162l-1.9-1.9a.543.543 0 0 0-.162-.122.431.431 0 0 0-.184-.032H4c-.186 0-.303.06-.371.129ZM14 14.75a.5.5 0 0 0 0 1h5a.5.5 0 0 0 0-1h-5Zm-.5 3.5a.5.5 0 0 1 .5-.5h5a.5.5 0 0 1 0 1h-5a.5.5 0 0 1-.5-.5Zm-2.579-7.579c.282-.28.665-.421 1.079-.421h7.1c.208 0 .404.035.591.118.184.082.333.199.463.328l1.9 1.9c.129.13.246.28.328.463.083.187.118.383.118.591v9.6c0 .414-.14.797-.421 1.079-.282.28-.665.421-1.079.421h-9c-.414 0-.797-.14-1.079-.421-.281-.282-.421-.665-.421-1.079v-11.5c0-.414.14-.797.421-1.079Zm.708.708c-.069.068-.129.185-.129.371v11.5c0 .186.06.303.129.371.068.07.185.129.371.129h9c.186 0 .303-.06.371-.129.069-.068.129-.185.129-.371v-9.6a.44.44 0 0 0-.032-.184.54.54 0 0 0-.122-.162l-1.9-1.9a.543.543 0 0 0-.162-.122.431.431 0 0 0-.184-.032H12c-.186 0-.303.06-.371.129ZM6 4.75a.5.5 0 0 0 0 1h5a.5.5 0 0 0 0-1H6Zm-.5 3.5a.5.5 0 0 1 .5-.5h5a.5.5 0 0 1 0 1H6a.5.5 0 0 1-.5-.5Z" fill="#18303F" id="iconDefault"/></g></svg>