<svg width="25" height="25" viewBox="0 0 25 25" fill="none"><g id="cover_remove"><path fill-rule="evenodd" clip-rule="evenodd" d="M.5 12.5c0-6.676 5.324-12 12-12s12 5.324 12 12-5.324 12-12 12c-6.573 0-12-5.321-12-12Zm12-11c-6.124 0-11 4.876-11 11 0 6.121 4.973 11 11 11 6.124 0 11-4.876 11-11s-4.876-11-11-11Zm0 3.5c-2.156 0-4.22.939-5.625 2.531-1.403 1.59-2.06 3.745-1.78 5.904a.5.5 0 1 1-.99.13c-.32-2.441.423-4.886 2.02-6.696A8.534 8.534 0 0 1 12.5 4c1.493 0 2.98.426 4.252 1.168a.5.5 0 1 1-.504.864A7.517 7.517 0 0 0 12.5 5Zm7.75 11.116a.5.5 0 0 0-.9-.432c-1.13 2.353-3.287 3.94-5.805 4.219-2.543.283-5.078-.66-6.765-2.628a.5.5 0 1 0-.76.65c1.913 2.231 4.778 3.29 7.635 2.972 2.882-.32 5.325-2.134 6.596-4.78Zm-.993-8.053a.5.5 0 0 1 .68.194c.52.937.953 2.005 1.06 3.198a.5.5 0 1 1-.995.09c-.091-1.007-.46-1.939-.94-2.802a.5.5 0 0 1 .195-.68Zm-5.435.704c-1.847-.704-3.98.174-4.873 1.952-.896 1.887-.353 4.014 1.333 5.168a.5.5 0 0 1-.564.825c-2.112-1.445-2.77-4.115-1.67-6.427l.005-.009c1.11-2.219 3.774-3.34 6.125-2.444a.5.5 0 1 1-.356.935Zm2.957 2.248a.5.5 0 0 1 .606.364c.559 2.235-.56 4.573-2.671 5.573a.5.5 0 1 1-.428-.904c1.688-.8 2.57-2.662 2.129-4.427a.5.5 0 0 1 .364-.606ZM5.032 16.3a.5.5 0 1 0 0-1 .5.5 0 0 0 0 1ZM20.8 13.5a.5.5 0 1 1-1 0 .5.5 0 0 1 1 0Zm-2.762-6.25a.5.5 0 1 0 0-1 .5.5 0 0 0 0 1ZM16.264 9.5a.5.5 0 1 1-1 0 .5.5 0 0 1 1 0ZM12 17.3a.5.5 0 1 0 0-1 .5.5 0 0 0 0 1Z" fill="#18303F" id="iconDefault"/></g></svg>