<svg width="25" height="25" viewBox="0 0 25 25" fill="none"><g id="cube_offline_colorful"><path fill-rule="evenodd" clip-rule="evenodd" d="M7.833 21.51c3.807.485 6.6.5 10.361.01a2.367 2.367 0 0 0 2.041-2.067c.447-3.726.472-6.507.009-10.367A2.363 2.363 0 0 0 18.16 7.02a47.64 47.64 0 0 0-4.056-.294.5.5 0 0 1 .026-1 48.63 48.63 0 0 1 4.142.3 3.363 3.363 0 0 1 2.965 2.942c.473 3.942.447 6.803-.01 10.605a3.367 3.367 0 0 1-2.904 2.94c-3.85.501-6.729.485-10.616-.01a3.375 3.375 0 0 1-2.923-2.929c-.23-1.844-.357-3.463-.372-5.075a.5.5 0 1 1 1-.009c.015 1.564.138 3.143.365 4.96a2.375 2.375 0 0 0 2.056 2.062Z" fill="#18303F" id="iconDefault"/><path d="M8.97 5.94a.5.5 0 0 0-.708-.707L6.81 6.686l-1.48-1.48a.5.5 0 1 0-.708.707l1.48 1.48-1.543 1.544a.5.5 0 1 0 .707.707L6.809 8.1l1.517 1.517a.5.5 0 1 0 .707-.707L7.516 7.393 8.969 5.94Z" fill="#F28102" id="backgroundWarningDefault"/><path fill-rule="evenodd" clip-rule="evenodd" d="M6.794 12.31a4.884 4.884 0 1 0 0-9.768 4.884 4.884 0 0 0 0 9.768Zm5.885-4.884a5.884 5.884 0 1 1-11.769 0 5.884 5.884 0 0 1 11.769 0Z" fill="#6D7B82" id="iconWeak"/></g></svg>