<svg width="25" height="25" viewBox="0 0 25 25" fill="none"><g id="cube_online_colorful"><path fill-rule="evenodd" clip-rule="evenodd" d="M15.947 3.17c-3.807-.485-6.599-.5-10.361-.011a2.367 2.367 0 0 0-2.04 2.068c-.448 3.726-.473 6.507-.01 10.366a2.363 2.363 0 0 0 2.084 2.068 47.62 47.62 0 0 0 4.057.294.5.5 0 0 1-.027 1 48.701 48.701 0 0 1-4.141-.3 3.363 3.363 0 0 1-2.965-2.943c-.474-3.942-.448-6.802.008-10.604a3.367 3.367 0 0 1 2.905-2.94c3.851-.501 6.729-.486 10.616.01a3.375 3.375 0 0 1 2.923 2.929c.23 1.844.357 3.462.372 5.074a.5.5 0 1 1-1 .01c-.015-1.565-.137-3.144-.364-4.96a2.375 2.375 0 0 0-2.057-2.062Z" fill="#18303F" id="iconDefault"/><path d="M15.726 19.651a.5.5 0 0 0 .736.008l3.694-3.693a.5.5 0 1 0-.707-.707l-3.35 3.35-1.71-1.71a.5.5 0 0 0-.707.708l2.044 2.044Z" fill="#038C6A" id="iconSuccess"/><path fill-rule="evenodd" clip-rule="evenodd" d="M16.92 12.433a4.884 4.884 0 1 0 0 9.768 4.884 4.884 0 0 0 0-9.768Zm-5.885 4.884a5.884 5.884 0 1 1 11.769 0 5.884 5.884 0 0 1-11.769 0Z" fill="#6D7B82" id="iconWeak"/></g></svg>