<svg width="25" height="25" viewBox="0 0 25 25" fill="none"><g id="cube_message"><path d="M4.387 2.199c3.762-.49 6.554-.474 10.36.01a2.375 2.375 0 0 1 2.057 2.062c.228 1.816.35 3.395.365 4.96a.5.5 0 1 0 1-.01c-.015-1.612-.142-3.23-.372-5.074a3.375 3.375 0 0 0-2.923-2.93C10.987.723 8.11.707 4.258 1.207a3.367 3.367 0 0 0-2.905 2.941C.897 7.95.871 10.81 1.344 14.753a3.363 3.363 0 0 0 2.965 2.942c1.477.165 2.824.264 4.142.3a.5.5 0 1 0 .026-1 47.663 47.663 0 0 1-4.056-.294 2.363 2.363 0 0 1-2.084-2.068c-.463-3.86-.438-6.64.009-10.366.13-1.076.97-1.929 2.04-2.068Zm7.93 8.336a2.5 2.5 0 0 0-2.5 2.5v5.582a2.5 2.5 0 0 0 2.5 2.5h2.57c.204 0 .43.14.567.405a4.87 4.87 0 0 0 4.33 2.639c.364 0 .628-.23.735-.503a.865.865 0 0 0-.11-.828 3.85 3.85 0 0 1-.63-1.33.252.252 0 0 1 .065-.245.454.454 0 0 1 .334-.137h1.32a2.5 2.5 0 0 0 2.5-2.5v-5.583a2.5 2.5 0 0 0-2.5-2.5h-9.182Zm-1.5 2.5a1.5 1.5 0 0 1 1.5-1.5h9.181a1.5 1.5 0 0 1 1.5 1.5v5.582a1.5 1.5 0 0 1-1.5 1.5h-1.32c-.796 0-1.607.69-1.368 1.63.128.502.334.971.603 1.396a3.871 3.871 0 0 1-3.07-2.08c-.263-.51-.788-.945-1.455-.945h-2.572a1.5 1.5 0 0 1-1.5-1.5v-5.583Z" fill="#18303F" id="iconDefault"/></g></svg>