<svg width="25" height="25" viewBox="0 0 25 25" fill="none"><g id="cube_unknown_colorful" fill-rule="evenodd" clip-rule="evenodd"><path d="M6.501 1.773a4.884 4.884 0 1 0 0 9.769 4.884 4.884 0 0 0 0-9.769ZM.617 6.658a5.884 5.884 0 1 1 11.769 0 5.884 5.884 0 0 1-11.769 0Z" fill="#6D7B82" id="iconWeak"/><path d="M4.882 3.765c0-.183.158-.362.475-.538.324-.183.704-.275 1.14-.275.634 0 1.123.176 1.468.528.352.352.528.803.528 1.352 0 .303-.06.595-.18.876a2.178 2.178 0 0 1-.369.634 7.555 7.555 0 0 1-.486.507 4.24 4.24 0 0 0-.37.37 1.2 1.2 0 0 0-.306.59c-.042.219-.063.557-.063 1.015 0 .161-.095.242-.285.242-.19 0-.285-.102-.285-.306 0-.542.039-.94.116-1.193.077-.26.19-.475.338-.644.056-.057.18-.173.37-.349.197-.183.348-.334.454-.454.105-.12.207-.292.306-.517.105-.226.158-.465.158-.718 0-.423-.123-.754-.37-.993-.246-.24-.598-.359-1.055-.359-.275 0-.504.046-.687.137-.176.085-.31.17-.401.254-.092.084-.169.126-.232.126a.269.269 0 0 1-.264-.285Zm1.927 6.625a.344.344 0 1 1-.688 0 .344.344 0 0 1 .688 0Zm11.385 11.13c-3.762.49-6.554.475-10.361-.01a2.375 2.375 0 0 1-2.056-2.061c-.228-1.817-.35-3.396-.365-4.96a.5.5 0 1 0-1 .01c.015 1.611.142 3.23.372 5.074a3.375 3.375 0 0 0 2.923 2.93c3.887.494 6.765.51 10.616.01a3.367 3.367 0 0 0 2.905-2.941c.456-3.802.482-6.662.008-10.605a3.363 3.363 0 0 0-2.965-2.942 48.634 48.634 0 0 0-4.14-.3.5.5 0 0 0-.027 1c1.284.034 2.602.131 4.056.294a2.363 2.363 0 0 1 2.084 2.067c.463 3.86.438 6.64-.01 10.367a2.367 2.367 0 0 1-2.04 2.068Z" fill="#18303F" id="iconDefault"/></g></svg>