<svg width="25" height="25" viewBox="0 0 25 25" fill="none"><g id="delete_colorful"><path fill-rule="evenodd" clip-rule="evenodd" d="M9.855 9.222a.5.5 0 0 0-1 0v5.25a.5.5 0 0 0 1 0v-5.25Zm2.625 1.583a.5.5 0 0 1 .5.5v5.25a.5.5 0 0 1-1 0v-5.25a.5.5 0 0 1 .5-.5Zm3.625-1.583a.5.5 0 0 0-1 0v5.25a.5.5 0 1 0 1 0v-5.25Zm-6.21 7.31a.5.5 0 1 1-1 0 .5.5 0 0 1 1 0Zm2.605 2.745a.5.5 0 1 0 0-1 .5.5 0 0 0 0 1Zm.48-10.055a.5.5 0 1 1-1 0 .5.5 0 0 1 1 0ZM9.395 4.686v.41H5.287c-.602 0-1.1.487-1.1 1.094v3.683a.5.5 0 0 0 .015.119l2.64 10.824c.26 1.067.994 1.947 1.98 1.947h7.365c.988 0 1.711-.883 1.979-1.943L20.798 9.99a.5.5 0 0 0 .015-.118V6.182c0-.604-.503-1.085-1.1-1.085h-4.11v-.41c0-1.572-1.473-2.715-3.104-2.715-1.632 0-3.104 1.143-3.104 2.714Zm3.104-1.714c-1.238 0-2.104.841-2.104 1.714v.41h4.208v-.41c0-.873-.867-1.714-2.104-1.714ZM5.187 6.19c0-.046.041-.093.1-.093h14.426c.028 0 .054.01.073.03.02.02.026.04.026.055v3.631l-2.617 10.764c-.219.866-.694 1.186-1.008 1.186H8.822c-.317 0-.8-.324-1.008-1.184L5.187 9.813V6.19Z" fill="#F28102" id="backgroundWarningDefault"/></g></svg>