<svg width="25" height="25" viewBox="0 0 25 25" fill="none"><g id="device_ev_charger_colorful"><path d="M2 11.794C2 3.73 3.729 2 11.794 2h1.412C21.27 2 23 3.729 23 11.794v1.412C23 21.27 21.271 23 13.206 23h-1.412C3.73 23 2 21.271 2 13.206v-1.412Z" fill="#fff" id="iconInverse"/><path fill-rule="evenodd" clip-rule="evenodd" d="M19.49 16.654a.916.916 0 0 1 .509.835v1.375a.271.271 0 0 1-.273.268.271.271 0 0 1-.274-.268V17.49a.406.406 0 0 0-.219-.36l-1.063-.552a.413.413 0 0 0-.34 0l-1.064.552a.406.406 0 0 0-.218.36v1.567c0 .223.19.409.42.409h2.025c.028 0 .056.022.056.055v.213a.271.271 0 0 1-.274.267h-1.807a.957.957 0 0 1-.968-.944v-1.567a.933.933 0 0 1 .51-.835l1.034-.54a.688.688 0 0 1 .185-.077 1.039 1.039 0 0 1 .57.008c.055.019.113.04.162.068l1.03.54Zm.018 2.811h.218c.151 0 .274.12.274.268a.271.271 0 0 1-.274.267.271.271 0 0 1-.273-.267v-.213c0-.028.022-.055.055-.055Z" fill="#F9470B" id="backgroundAccentDefault"/><path fill-rule="evenodd" clip-rule="evenodd" d="M2.441 6.925C2.127 8.339 2 10.155 2 12.5s.127 4.16.441 5.575c.312 1.403.795 2.35 1.465 3.02.67.669 1.616 1.152 3.019 1.464 1.414.314 3.23.441 5.575.441s4.16-.127 5.575-.441c1.403-.312 2.35-.795 3.02-1.465.669-.67 1.152-1.616 1.464-3.019.314-1.414.441-3.23.441-5.575s-.127-4.16-.441-5.575c-.312-1.403-.795-2.35-1.465-3.02-.67-.669-1.616-1.152-3.019-1.464C16.661 2.127 14.845 2 12.5 2s-4.16.127-5.575.441c-1.403.312-2.35.795-3.02 1.465-.669.67-1.152 1.616-1.464 3.019ZM12.5 1C3.03 1 1 3.03 1 12.5S3.03 24 12.5 24 24 21.97 24 12.5 21.97 1 12.5 1Zm0 15a3.5 3.5 0 1 0 0-7 3.5 3.5 0 0 0 0 7Zm0 1a4.5 4.5 0 0 0 2.983-7.87A.502.502 0 0 0 15.5 9V7A1.5 1.5 0 0 0 14 5.5h-3A1.5 1.5 0 0 0 9.5 7v2a.5.5 0 0 0 .017.13A4.5 4.5 0 0 0 12.5 17Zm-2-8.532a4.482 4.482 0 0 1 2-.468c.718 0 1.398.168 2 .468V7a.5.5 0 0 0-.5-.5h-3a.5.5 0 0 0-.5.5v1.468Z" fill="#18303F" id="iconDefault"/></g></svg>