<svg width="25" height="25" viewBox="0 0 25 25" fill="none"><g id="device_no_hub"><path fill-rule="evenodd" clip-rule="evenodd" d="M8.26 5.07c-.38.212-.57.427-.57.647 0 .102.034.186.101.254.068.06.14.089.216.089.076 0 .169-.05.279-.152.11-.102.27-.203.482-.305.22-.11.495-.165.824-.165.55 0 .973.144 1.269.432.296.287.444.684.444 1.192 0 .304-.064.592-.19.862-.119.271-.242.478-.368.622a8.19 8.19 0 0 1-.546.545c-.228.212-.376.351-.444.419a2.04 2.04 0 0 0-.406.774c-.093.304-.14.782-.14 1.433 0 .245.115.368.343.368.229 0 .343-.097.343-.292 0-.55.025-.955.076-1.218a1.44 1.44 0 0 1 .368-.71c.059-.076.207-.224.444-.444.236-.228.431-.431.583-.609.16-.177.309-.431.444-.76.144-.339.216-.69.216-1.054 0-.66-.212-1.2-.634-1.623-.415-.423-1.002-.634-1.764-.634-.524 0-.98.11-1.37.33ZM9.59 14.09a.413.413 0 1 0 0-.826.413.413 0 0 0 0 .826ZM7.99 1.696a7.014 7.014 0 0 0-1.106 13.942c.166.026.308.14.372.297a6.452 6.452 0 0 0 2.938 3.26c.049.779.125 1.59.23 2.467l.001.004A2.748 2.748 0 0 0 12.76 24l.006.001c3.211.376 5.702.318 8.874-.028a2.69 2.69 0 0 0 2.372-2.308c.434-3.268.434-5.705 0-8.973l-.001-.008c-.193-1.22-1.13-2.164-2.334-2.327a40.994 40.994 0 0 0-3.066-.304 7.014 7.014 0 0 0-6.886-8.357H7.992Zm-.057 13.965a5.72 5.72 0 0 0 2.218 2.663l.644.355a5.678 5.678 0 0 0 2.42.539c.017 0 .02-.004.02-.004a.055.055 0 0 0 .017-.025.141.141 0 0 0-.02-.132 6.396 6.396 0 0 1-1.199-3.01c-.076-.615.402-1.07.913-1.171a6.294 6.294 0 0 0 4.76-4.232l.166-.624a6.284 6.284 0 0 0-6.147-7.594H7.99A6.284 6.284 0 0 0 7 14.916c.42.067.775.352.934.745Zm3.115 5.923a43.396 43.396 0 0 1-.204-2.088 6.41 6.41 0 0 0 2.372.452.76.76 0 0 0 .715-.49.87.87 0 0 0-.112-.833 5.666 5.666 0 0 1-1.061-2.668c-.018-.14.094-.319.33-.365a7.025 7.025 0 0 0 5.372-4.918c.989.053 2.01.157 3.133.306.917.124 1.643.842 1.796 1.799.426 3.211.426 5.592 0 8.803a2.061 2.061 0 0 1-1.816 1.766h-.001c-3.136.342-5.577.399-8.731.03a2.12 2.12 0 0 1-1.793-1.794Zm8.078-6.054a.507.507 0 0 1-.1-.072l-1.29-.66c-.087-.028-.173-.057-.23-.114a1.4 1.4 0 0 0-.689 0 .575.575 0 0 0-.23.114l-1.29.66a.514.514 0 0 0-.2.143c-.287.23-.402.517-.402.918v1.95c0 .689.545 1.176 1.176 1.176h2.237a.37.37 0 0 0 .344-.344v-.287c0-.057-.029-.086-.057-.057h-2.524c-.287 0-.516-.23-.488-.488v-1.95c0-.172.086-.373.287-.459l1.32-.688c.143-.086.286-.057.458 0l1.32.688a.615.615 0 0 1 .286.46v1.72a.37.37 0 0 0 .345.344.37.37 0 0 0 .344-.344v-1.72c-.058-.345-.258-.66-.517-.919a.507.507 0 0 0-.1-.071Zm.186 3.427h-.287c-.057 0-.086.029-.057.057v.287a.37.37 0 0 0 .344.344.37.37 0 0 0 .344-.344.37.37 0 0 0-.344-.344Z" fill="#18303F" id="iconDefault"/></g></svg>