<svg width="25" height="25" viewBox="0 0 25 25" fill="none"><g id="device_no_connection_colorful"><path d="M12.54 19.197h-.215a.055.055 0 0 0-.056.054v.211a.27.27 0 0 0 .272.266.27.27 0 0 0 .272-.266.27.27 0 0 0-.272-.265Zm-.071-2.683a1.093 1.093 0 0 0-.167-.108l-1.02-.537c-.056-.032-.122-.054-.183-.076a1.028 1.028 0 0 0-.544 0 .686.686 0 0 0-.183.076l-1.026.537a.927.927 0 0 0-.505.83v1.554c0 .52.433.938.96.938h1.791a.27.27 0 0 0 .272-.266v-.211a.055.055 0 0 0-.055-.054H9.8a.414.414 0 0 1-.416-.407v-1.555c0-.152.083-.287.216-.358l1.054-.547a.41.41 0 0 1 .338 0l1.054.547c.133.07.217.206.217.358v1.366a.27.27 0 0 0 .271.265.27.27 0 0 0 .272-.265v-1.366a.91.91 0 0 0-.338-.72Z" fill="#F9470B" yggColor="backgroundAccentDefault"/><path fill-rule="evenodd" clip-rule="evenodd" d="M19.095 6.771c-2.572-.317-4.69-.417-6.975-.289a.417.417 0 0 1-.047-.832c2.345-.13 4.513-.028 7.124.294a3.593 3.593 0 0 1 3.125 3.134c.448 3.69.468 6.48.014 10.173a3.581 3.581 0 0 1-3.175 3.12c-3.593.387-6.446.4-10.078.007a3.579 3.579 0 0 1-3.17-3.145c-.293-2.516-.38-4.602-.275-6.802a.417.417 0 1 1 .832.04c-.101 2.147-.018 4.187.27 6.665a2.745 2.745 0 0 0 2.433 2.413c3.57.386 6.363.374 9.899-.006a2.748 2.748 0 0 0 2.436-2.393c.446-3.624.427-6.345-.013-9.971a2.76 2.76 0 0 0-2.4-2.408Z" fill="#18303F" yggColor="iconDefault"/><path fill-rule="evenodd" clip-rule="evenodd" d="M6.041 11.212a4.792 4.792 0 1 0 0-9.583 4.792 4.792 0 0 0 0 9.583Zm0 .417a5.208 5.208 0 1 0 0-10.417 5.208 5.208 0 0 0 0 10.417Z" fill="#6D7B82" yggColor="iconWeak"/><path d="M4.497 7.376a.417.417 0 0 0 .59.59l.954-.956.956.955a.417.417 0 1 0 .59-.589l-.956-.955.955-.956a.417.417 0 1 0-.59-.59l-.955.956-.955-.955a.417.417 0 0 0-.59.59l.956.955-.955.955Z" fill="#F28102" yggColor="backgroundWarningDefault"/></g></svg>