<svg width="25" height="25" viewBox="0 0 25 25" fill="none"><g id="device_sync"><path fill-rule="evenodd" clip-rule="evenodd" d="M22.99 5.346a3.839 3.839 0 0 0-3.32-3.33c-5.285-.675-9.161-.697-14.39-.013a3.826 3.826 0 0 0-3.297 3.34c-.624 5.17-.66 9.027-.012 14.387a3.822 3.822 0 0 0 3.367 3.34c5.193.584 9.159.565 14.296-.009a3.826 3.826 0 0 0 3.373-3.312c.675-5.275.645-9.13-.017-14.403ZM5.41 2.995c5.139-.672 8.929-.652 14.133.014a2.837 2.837 0 0 1 2.454 2.461c.653 5.195.68 8.966.018 14.152a2.826 2.826 0 0 1-2.492 2.446c-5.066.566-8.957.584-14.073.008a2.823 2.823 0 0 1-2.486-2.466c-.637-5.277-.603-9.053.012-14.147A2.826 2.826 0 0 1 5.41 2.995Zm11.262 9.072-.294-.294a.5.5 0 0 0-.707.707l1.146 1.146a.499.499 0 0 0 .729-.022l1.124-1.124a.5.5 0 0 0-.707-.707l-.291.291v-.461c0-2.647-2.156-4.634-4.892-4.634a.5.5 0 0 0 0 1c2.242 0 3.892 1.595 3.892 3.634v.464Zm-9.348.86v.46c0 2.647 2.156 4.635 4.892 4.635a.5.5 0 0 0 0-1c-2.241 0-3.892-1.596-3.892-3.635v-.463l.294.293a.5.5 0 1 0 .707-.707l-1.146-1.146a.498.498 0 0 0-.73.022L6.327 12.51a.5.5 0 0 0 .707.707l.29-.29Zm3.842-4.948a.5.5 0 1 0 0-1 .5.5 0 0 0 0 1Zm2.898 10.043a.5.5 0 1 0 0-1 .5.5 0 0 0 0 1Z" fill="#18303F" id="iconDefault"/></g></svg>