<svg width="25" height="25" viewBox="0 0 25 25" fill="none"><g id="device_tablet"><path fill-rule="evenodd" clip-rule="evenodd" d="M16.5 13.965a.542.542 0 0 0-.547-.535h-.436a.11.11 0 0 0-.112.11v.425c0 .295.246.535.548.535.301 0 .547-.24.547-.535Zm-.693-5.94a2.195 2.195 0 0 0-.335-.218l-2.056-1.08a1.883 1.883 0 0 0-.325-.138l-.043-.015a2.07 2.07 0 0 0-1.095 0 1.375 1.375 0 0 0-.37.153l-2.066 1.08c-.1.055-.235.142-.335.219-.436.36-.682.884-.682 1.452v3.133c0 1.048.872 1.889 1.933 1.889h3.609c.302 0 .547-.24.547-.535v-.426a.11.11 0 0 0-.111-.109h-4.045a.835.835 0 0 1-.838-.819V9.478c0-.306.168-.579.436-.72l2.123-1.103a.825.825 0 0 1 .681 0l2.123 1.102a.811.811 0 0 1 .436.72v2.752c0 .295.246.535.547.535.302 0 .548-.24.548-.535V9.478a1.833 1.833 0 0 0-.682-1.452ZM12.5 22.465a.5.5 0 1 0 0-1 .5.5 0 0 0 0 1ZM3.5 3v19c0 1.376 1.124 2.5 2.5 2.5h13c1.376 0 2.5-1.124 2.5-2.5V3c0-1.376-1.124-2.5-2.5-2.5H6A2.506 2.506 0 0 0 3.5 3ZM6 1.5c-.824 0-1.5.676-1.5 1.5v16.5h16V3c0-.824-.676-1.5-1.5-1.5H6Zm14.5 19V22c0 .824-.676 1.5-1.5 1.5H6c-.824 0-1.5-.676-1.5-1.5v-1.5h16Z" fill="#18303F" id="iconDefault"/></g></svg>