<svg width="25" height="25" viewBox="0 0 25 25" fill="none"><g id="device_restore_colorful"><path d="M9.517 21.842h-.453a.115.115 0 0 0-.117.114v.443c0 .307.256.557.57.557.315 0 .57-.25.57-.557a.565.565 0 0 0-.57-.557Zm-.15-5.63a2.286 2.286 0 0 0-.35-.227l-2.142-1.126c-.116-.068-.256-.114-.384-.16a2.158 2.158 0 0 0-1.14 0c-.14.035-.268.092-.384.16l-2.153 1.126a3.046 3.046 0 0 0-.35.227c-.454.376-.71.922-.71 1.513v3.264c0 1.092.908 1.967 2.014 1.967h3.76c.313 0 .57-.25.57-.557v-.443a.115.115 0 0 0-.117-.114H3.768a.87.87 0 0 1-.873-.853v-3.264c0-.319.175-.603.454-.75l2.211-1.15a.86.86 0 0 1 .71 0l2.212 1.15c.279.147.453.431.453.75v2.866c0 .307.257.557.57.557.315 0 .571-.25.571-.557v-2.866a1.91 1.91 0 0 0-.71-1.513Z" fill="#F9470B" id="backgroundAccentDefault"/><path d="M21.479 5.264c-.391-2.086-2.305-3.567-4.437-3.567-1.517 0-3.01.896-3.789 2.207-.768.058-1.54.343-2.097.89-.762.62-1.07 1.41-1.07 2.31a3.202 3.202 0 0 0 2.977 3.21h4.48a.5.5 0 0 0 0-1h-4.456a2.202 2.202 0 0 1-2-2.21c0-.643.203-1.137.716-1.547a.508.508 0 0 0 .04-.037c.402-.401 1.037-.628 1.713-.628a.5.5 0 0 0 .447-.276c.564-1.129 1.816-1.919 3.039-1.919 1.827 0 3.392 1.369 3.503 3.146a.5.5 0 0 0 .597.46c.517-.104 1.016.001 1.41.297.364.273.574.754.574 1.278 0 .23-.003.387-.057.556-.051.161-.162.368-.436.634-.097.093-.314.177-.675.218-.284.032-.576.03-.84.03l-.161-.002h-.362a.5.5 0 1 0 0 1h.362l.138.001c.263.002.626.004.975-.035.397-.045.908-.154 1.258-.494.371-.359.584-.702.694-1.048a2.65 2.65 0 0 0 .104-.843v-.017c0-.768-.306-1.577-.975-2.078a2.69 2.69 0 0 0-1.672-.536ZM5.41 12.822c.092.109.23.178.383.178h.001a.499.499 0 0 0 .355-.146l1.823-1.823a.5.5 0 1 0-.707-.708l-.972.973V7.813c0-1.495 1.13-2.625 2.625-2.625a.5.5 0 0 0 0-1c-2.047 0-3.625 1.578-3.625 3.625v3.477l-.967-.966a.5.5 0 0 0-.707.707l1.791 1.79Zm13.671-2.472a.5.5 0 1 0 0-1 .5.5 0 0 0 0 1Z" fill="#18303F" id="iconDefault"/></g></svg>