<svg width="25" height="25" viewBox="0 0 25 25" fill="none"><g id="device_laptop_colorful"><path fill-rule="evenodd" clip-rule="evenodd" d="M2.5 6c0-.824.676-1.5 1.5-1.5h17c.824 0 1.5.676 1.5 1.5v11.5H15a.5.5 0 0 0-.5.5v.5h-4V18a.5.5 0 0 0-.5-.5H2.5V6Zm-1 11.5V6c0-1.376 1.124-2.5 2.5-2.5h17c1.376 0 2.5 1.124 2.5 2.5v11.5h.5a.5.5 0 0 1 .5.5v2c0 .414-.14.797-.421 1.079-.282.28-.665.421-1.079.421H2c-.414 0-.797-.14-1.079-.421C.641 20.797.5 20.414.5 20v-2a.5.5 0 0 1 .5-.5h.5Zm14 1v.5a.5.5 0 0 1-.5.5h-5a.5.5 0 0 1-.5-.5v-.5h-8V20c0 .186.06.303.129.371.068.07.185.129.371.129h21c.186 0 .303-.06.371-.129.07-.068.129-.185.129-.371v-1.5h-8Z" fill="#18303F" id="iconDefault"/><path d="M15.953 14.43h-.436a.11.11 0 0 0-.112.11v.425c0 .295.246.535.548.535.301 0 .547-.24.547-.535a.542.542 0 0 0-.547-.535Zm-.146-5.404a2.195 2.195 0 0 0-.335-.219l-2.056-1.08c-.111-.066-.246-.11-.369-.153a2.07 2.07 0 0 0-1.095 0 1.375 1.375 0 0 0-.368.153l-2.067 1.08c-.1.055-.235.142-.335.219-.436.36-.682.884-.682 1.452v3.133c0 1.048.872 1.889 1.933 1.889h3.609c.302 0 .547-.24.547-.535v-.426a.11.11 0 0 0-.111-.109h-4.045a.835.835 0 0 1-.838-.819v-3.133c0-.306.168-.579.436-.72l2.123-1.103a.825.825 0 0 1 .681 0l2.123 1.102a.811.811 0 0 1 .436.72v2.752c0 .295.246.535.547.535.302 0 .548-.24.548-.535v-2.751a1.833 1.833 0 0 0-.682-1.452Z" fill="#F9470B" id="backgroundAccentDefault"/></g></svg>