<svg width="25" height="25" viewBox="0 0 25 25" fill="none"><g id="device_touch_colorful"><path fill-rule="evenodd" clip-rule="evenodd" d="M.75 3.201a2.5 2.5 0 0 1 2.5-2.5h8.972a2.5 2.5 0 0 1 2.5 2.5V8.46a.5.5 0 0 1-1 0V3.201a1.5 1.5 0 0 0-1.5-1.5h-1.52v.186a1.5 1.5 0 0 1-1.5 1.5h-2.93a1.5 1.5 0 0 1-1.5-1.5V1.7H3.25a1.5 1.5 0 0 0-1.5 1.5V21.44a1.5 1.5 0 0 0 1.5 1.5h4.486a.5.5 0 1 1 0 1H3.25a2.5 2.5 0 0 1-2.5-2.5V3.201Zm5.023-1.5H9.7v.186a.5.5 0 0 1-.5.5H6.273a.5.5 0 0 1-.5-.5V1.7Zm7.307 19.497v-9.356c.095-.625.67-1.15 1.27-1.15.621 0 1.16.542 1.16 1.115v5.837a.5.5 0 0 0 .5.5h3.318c2.17 0 3.925 1.728 3.925 3.808v1.616a.5.5 0 1 0 1 0v-1.616c0-2.658-2.228-4.808-4.925-4.808H16.51v-5.337c0-1.15-1.01-2.116-2.16-2.116-1.16 0-2.126.966-2.265 2.052a.502.502 0 0 0-.004.064v8.023l-1.662-1.97-.003-.002c-.374-.437-.916-.675-1.453-.725-.536-.05-1.115.081-1.565.446-.876.71-1.027 2.11-.286 2.975l.007.008 2.987 3.339a.5.5 0 0 0 .745-.667L7.869 19.9c-.362-.427-.291-1.18.16-1.544.213-.174.52-.258.84-.228.32.03.607.17.786.379h.001l2.543 3.014a.5.5 0 0 0 .882-.323Z" fill="#18303F" yggColor="iconDefault"/><path d="M10.755 13.983h-.381a.097.097 0 0 0-.098.095v.373c0 .258.215.468.48.468.263 0 .478-.21.478-.468a.474.474 0 0 0-.479-.468Zm-.127-4.729a1.917 1.917 0 0 0-.293-.191l-1.799-.946c-.098-.057-.215-.095-.323-.134a1.812 1.812 0 0 0-.958 0 1.203 1.203 0 0 0-.322.134l-1.809.946a2.554 2.554 0 0 0-.293.191 1.634 1.634 0 0 0-.597 1.27v2.742c0 .917.763 1.653 1.692 1.653h3.158c.264 0 .479-.21.479-.468v-.373a.097.097 0 0 0-.098-.095h-3.54a.73.73 0 0 1-.733-.717v-2.742a.71.71 0 0 1 .382-.63l1.857-.965a.722.722 0 0 1 .597 0l1.857.965a.71.71 0 0 1 .382.63v2.408c0 .258.215.468.479.468.263 0 .479-.21.479-.468v-2.408a1.604 1.604 0 0 0-.597-1.27Z" fill="#F9470B" yggColor="backgroundAccentDefault"/></g></svg>