<svg width="25" height="25" viewBox="0 0 25 25" fill="none"><g id="device_api_colorful"><path d="M8.353 19.839h-.218a.055.055 0 0 0-.056.054v.213c0 .147.123.267.274.267.15 0 .273-.12.273-.267a.271.271 0 0 0-.273-.267Zm-.073-2.703a1.097 1.097 0 0 0-.167-.109l-1.028-.54c-.056-.033-.123-.055-.185-.077a1.036 1.036 0 0 0-.547 0 .69.69 0 0 0-.185.077l-1.033.54a.934.934 0 0 0-.508.835v1.567c0 .524.435.945.966.945h1.804c.151 0 .274-.12.274-.268v-.213a.055.055 0 0 0-.056-.054H5.593a.417.417 0 0 1-.42-.41v-1.567c0-.152.085-.289.219-.36l1.061-.551a.413.413 0 0 1 .341 0l1.062.551c.134.071.217.208.217.36v1.376c0 .148.123.268.274.268.151 0 .274-.12.274-.268v-1.376a.917.917 0 0 0-.34-.726Z" fill="#F9470B" id="backgroundAccentDefault"/><path fill-rule="evenodd" clip-rule="evenodd" d="M18.436 1.38c-.43 0-.82.164-1.096.472-.272.303-.402.707-.402 1.14v7.77c0 .433.13.837.402 1.14.277.308.665.471 1.096.471h3.992c.43 0 .819-.163 1.095-.47.273-.304.403-.708.403-1.14V2.99c0-.432-.13-.836-.403-1.14a1.445 1.445 0 0 0-1.095-.47h-3.992Zm-.498 1.611c0-.234.069-.385.146-.47a.447.447 0 0 1 .352-.14h.685a.75.75 0 0 0 .738.616h1.151a.75.75 0 0 0 .738-.616h.68c.168 0 .279.059.351.14.078.085.147.236.147.47v7.772c0 .234-.07.385-.146.47a.447.447 0 0 1-.352.14h-3.992a.447.447 0 0 1-.352-.14c-.077-.085-.146-.236-.146-.47V2.99ZM9.93 12.98c-2.42-.303-4.236-.313-6.634-.006a2.406 2.406 0 0 0-2.08 2.106c-.28 2.365-.296 4.17-.006 6.621a2.404 2.404 0 0 0 2.124 2.108c2.374.26 4.223.253 6.57-.004a2.406 2.406 0 0 0 2.127-2.09c.302-2.418.29-4.224-.008-6.636a2.413 2.413 0 0 0-2.093-2.099Zm-6.507.986c2.31-.296 4.043-.287 6.382.007.64.08 1.146.587 1.225 1.228.288 2.335.3 4.059.009 6.39a1.406 1.406 0 0 1-1.244 1.22c-2.277.249-4.052.257-6.351.004a1.404 1.404 0 0 1-1.241-1.231c-.28-2.37-.265-4.096.006-6.387a1.406 1.406 0 0 1 1.214-1.231Zm2.203-5.268a.5.5 0 0 0 1 0V8.12c0-1.494 1.13-2.625 2.625-2.625h3.48l-.967.967a.5.5 0 1 0 .707.707l1.799-1.799a.499.499 0 0 0 .022-.73l-1.821-1.82a.5.5 0 1 0-.707.706l.969.97H9.252c-2.047 0-3.625 1.577-3.625 3.624v.578Zm1 2.13a.5.5 0 1 0-1 0 .5.5 0 0 0 1 0Z" fill="#18303F" id="iconDefault"/></g></svg>