<svg width="25" height="25" viewBox="0 0 25 25" fill="none"><g id="device_restore_reverse_colorful"><path d="M22.154 8.3H21.7a.115.115 0 0 0-.117.114v.443c0 .307.256.557.57.557.315 0 .571-.25.571-.557a.565.565 0 0 0-.57-.557Zm-.152-5.63a2.29 2.29 0 0 0-.349-.227l-2.141-1.126c-.117-.068-.256-.114-.384-.16a2.157 2.157 0 0 0-1.141 0c-.14.035-.268.092-.384.16L15.45 2.443a3.04 3.04 0 0 0-.35.227c-.453.376-.71.922-.71 1.513v3.264c0 1.092.908 1.967 2.014 1.967h3.76c.314 0 .57-.25.57-.557v-.443a.115.115 0 0 0-.117-.114h-4.213a.87.87 0 0 1-.873-.853V4.183c0-.318.175-.603.454-.75l2.212-1.15a.86.86 0 0 1 .71 0l2.21 1.15c.28.147.455.432.455.75v2.866c0 .307.256.557.57.557.314 0 .57-.25.57-.557V4.183a1.91 1.91 0 0 0-.71-1.513Z" fill="#F9470B" yggColor="backgroundAccentDefault"/><path d="M7.164 12.875a.498.498 0 0 1-.73.023l-1.822-1.823a.5.5 0 1 1 .707-.707l.97.97V7.856c0-2.047 1.579-3.625 3.626-3.625h2.589a.5.5 0 1 1 0 1h-2.59c-1.494 0-2.624 1.13-2.624 2.625v3.48l.968-.969a.5.5 0 1 1 .707.708l-1.801 1.8Zm.574 1.744a.5.5 0 0 0 .447.547c1.8.182 3.062 1.669 3.156 3.177a.5.5 0 0 0 .597.46c.518-.104 1.016.001 1.41.297.364.273.574.754.574 1.278 0 .23-.003.387-.057.556-.05.161-.161.368-.436.634-.096.093-.313.177-.674.218-.285.032-.577.03-.841.03l-.16-.002H3.86c-1.145-.114-1.977-1.05-1.977-2.21 0-.642.203-1.137.716-1.547a.523.523 0 0 0 .041-.037c.402-.401 1.037-.628 1.712-.628a.5.5 0 0 0 .447-.276c.18-.36.667-.957 1.025-1.254a.5.5 0 0 0-.638-.77c-.375.31-.84.85-1.13 1.311-.77.058-1.544.343-2.103.89-.763.62-1.07 1.411-1.07 2.31 0 1.672 1.223 3.056 2.908 3.21l.045.002h8.055c.264.002.627.004.976-.035.397-.045.907-.155 1.258-.494.37-.359.583-.702.693-1.048.105-.328.104-.625.104-.843v-.017c0-.768-.306-1.577-.974-2.078a2.691 2.691 0 0 0-1.675-.536c-.348-1.784-1.888-3.38-3.988-3.592a.5.5 0 0 0-.547.447Zm-.948.55a.5.5 0 1 0 0-1 .5.5 0 0 0 0 1Z" fill="#18303F" yggColor="iconDefault"/></g></svg>