<svg width="25" height="25" viewBox="0 0 25 25" fill="none"><g id="dial_peak_off"><path fill-rule="evenodd" clip-rule="evenodd" d="M12.5.5C5.873.5.5 5.873.5 12.5c0 2.185.584 4.235 1.606 6 .54.935 1.561 1.4 2.573 1.4h.461a1.8 1.8 0 0 1 1.8 1.8 2.8 2.8 0 0 0 2.8 2.8h5.52a2.8 2.8 0 0 0 2.8-2.8 1.8 1.8 0 0 1 1.8-1.8h.461c1.012 0 2.033-.465 2.573-1.4a11.941 11.941 0 0 0 1.606-6c0-6.627-5.373-12-12-12Zm-11 12c0-6.075 4.925-11 11-11s11 4.925 11 11c0 2.004-.536 3.882-1.471 5.5-.33.569-.983.9-1.708.9h-.461a2.8 2.8 0 0 0-2.8 2.8 1.8 1.8 0 0 1-1.8 1.8H9.74a1.8 1.8 0 0 1-1.8-1.8 2.8 2.8 0 0 0-2.8-2.8h-.461c-.725 0-1.378-.331-1.708-.9A10.954 10.954 0 0 1 1.5 12.5Zm11-9a9.13 9.13 0 0 0-.354.007.5.5 0 0 1-.039-1 10.222 10.222 0 0 1 .786 0 .5.5 0 1 1-.039 1A9.13 9.13 0 0 0 12.5 3.5Zm-2.82-.088a.5.5 0 0 1-.296.642 9.057 9.057 0 0 0-.653.27.5.5 0 0 1-.419-.907c.237-.11.479-.21.726-.301a.5.5 0 0 1 .642.296Zm6.282-.296a.5.5 0 0 0-.346.938c.222.082.44.172.653.27a.5.5 0 1 0 .419-.907 9.876 9.876 0 0 0-.726-.301ZM6.419 5.184a.5.5 0 0 1-.028.707c-.173.16-.34.327-.5.5a.5.5 0 0 1-.734-.679c.178-.192.363-.377.555-.555a.5.5 0 0 1 .707.027Zm12.869-.027a.5.5 0 1 0-.679.734c.173.16.34.327.5.5a.5.5 0 0 0 .734-.679 9.864 9.864 0 0 0-.555-.555ZM4.08 8.067a.5.5 0 0 1 .245.664 8.77 8.77 0 0 0-.271.653.5.5 0 1 1-.938-.346c.091-.247.191-.489.301-.726a.5.5 0 0 1 .663-.244Zm17.503.245a.499.499 0 1 0-.907.42c.098.212.188.43.27.652a.5.5 0 0 0 .938-.346 9.696 9.696 0 0 0-.301-.726ZM3.027 11.627a.5.5 0 0 1 .48.519 8.333 8.333 0 0 0 .004.798.5.5 0 0 1-.999.049 10.078 10.078 0 0 1-.004-.886.5.5 0 0 1 .519-.48Zm19.465.48a.5.5 0 1 0-.999.039 8.333 8.333 0 0 1-.004.798.5.5 0 0 0 .999.049 10.078 10.078 0 0 0 .004-.886ZM3.704 16.131a.5.5 0 0 1 .667.236c.063.134.13.266.201.396a.5.5 0 1 1-.88.474 9.967 9.967 0 0 1-.224-.44.5.5 0 0 1 .236-.666Zm17.828.666a.5.5 0 1 0-.903-.43c-.063.134-.13.266-.2.396a.5.5 0 1 0 .88.474c.078-.144.152-.291.223-.44ZM12.999 5.963a.5.5 0 0 0-.998 0l-.777 10.5a.498.498 0 0 0 .222.454l.778.515a.5.5 0 0 0 .552 0l.778-.515a.498.498 0 0 0 .222-.454l-.777-10.5ZM12.5 16.416l-.258-.171.258-3.477.258 3.477-.258.17Z" fill="#18303F" yggColor="iconDefault"/></g></svg>