<svg width="25" height="25" viewBox="0 0 25 25" fill="none"><g id="dial_max_colorful" fill-rule="evenodd" clip-rule="evenodd"><path d="M1.519 14.481C1.519 8.416 6.435 3.5 12.499 3.5c6.065 0 10.981 4.916 10.981 10.981 0 2.001-.534 3.876-1.468 5.49-.329.568-.98.899-1.704.899H4.691c-.723 0-1.375-.33-1.704-.899a10.928 10.928 0 0 1-1.468-5.49ZM12.499 2.5C5.883 2.5.52 7.864.52 14.481c0 2.182.583 4.228 1.603 5.991.54.933 1.558 1.398 2.57 1.398h15.616c1.01 0 2.03-.465 2.57-1.398a11.929 11.929 0 0 0 1.602-5.991C24.48 7.864 19.116 2.5 12.5 2.5Zm3.519 3.985a1 1 0 0 1 1.333-.472c.39.186.76.397 1.11.63a1 1 0 1 1-1.112 1.663 6.86 6.86 0 0 0-.86-.488 1 1 0 0 1-.471-1.333Zm4.013 3.057a1 1 0 0 1 1.327.488c.177.384.327.784.449 1.198a1 1 0 1 1-1.919.564 6.715 6.715 0 0 0-.346-.923 1 1 0 0 1 .489-1.327Zm1.202 4.906a1 1 0 0 1 .863 1.12c-.026.201-.057.403-.093.607a1 1 0 1 1-1.969-.35c.03-.173.057-.344.079-.514a1 1 0 0 1 1.12-.863ZM14.751 18a2 2 0 1 1 0-2h3.268a1 1 0 0 1 0 2H14.75Z" fill="#C70546" yggColor="iconCritical"/><path d="M11.997 7.012a11.678 11.678 0 0 1 1.043 0 1 1 0 1 0 .09-1.998 13.681 13.681 0 0 0-1.223 0 1 1 0 0 0 .09 1.998Zm-2.978-.527a1 1 0 0 1-.472 1.333 6.859 6.859 0 0 0-.86.488 1 1 0 0 1-1.11-1.663c.349-.233.72-.444 1.11-.63a1 1 0 0 1 1.332.472ZM5.495 10.87a1 1 0 0 0-1.816-.839 8.721 8.721 0 0 0-.449 1.198 1 1 0 1 0 1.92.564c.094-.322.21-.63.345-.923Zm-1.691 3.58a1 1 0 0 1 1.12.862c.022.17.048.341.08.514a1 1 0 1 1-1.97.35 13.034 13.034 0 0 1-.093-.607 1 1 0 0 1 .863-1.12Z" fill="#18303F" yggColor="iconDefault"/></g></svg>