<svg width="25" height="25" viewBox="0 0 25 25" fill="none"><g id="door_closed"><path fill-rule="evenodd" clip-rule="evenodd" d="M8.503 1.5C7.489 1.5 6.5 2.28 6.5 3.318v17.397c0 1.04.989 1.819 2.003 1.819h8.517c1.014 0 2.003-.78 2.003-1.819V3.319c0-.53-.206-1-.584-1.331-.372-.327-.873-.487-1.419-.487H8.503ZM7.5 3.318c0-.367.414-.818 1.003-.818h8.517c.355 0 .606.103.76.238.148.13.243.32.243.58v17.397c0 .368-.414.819-1.003.819H8.503c-.589 0-1.003-.451-1.003-.819V3.319Zm1.605 7.056a.5.5 0 0 1 .5.5v1.406a.5.5 0 1 1-1 0v-1.406a.5.5 0 0 1 .5-.5Zm0 3.686a.5.5 0 1 0 .001-1 .5.5 0 0 0-.001 1Z" fill="#18303F" id="iconDefault"/></g></svg>