<svg width="25" height="25" viewBox="0 0 25 25" fill="none"><g id="door_lock_open_colorful" fill-rule="evenodd" clip-rule="evenodd"><path d="M4.5 1.012a2.5 2.5 0 0 0-2.5 2.5V21.5A2.5 2.5 0 0 0 4.5 24h7.238a2.5 2.5 0 0 0 2.5-2.5v-1.346a.5.5 0 1 0-1 0V21.5a1.5 1.5 0 0 1-1.5 1.5H4.5A1.5 1.5 0 0 1 3 21.5V3.512a1.5 1.5 0 0 1 1.5-1.5h7.238a1.5 1.5 0 0 1 1.5 1.5v8.191a.5.5 0 0 0 1 0V3.512a2.5 2.5 0 0 0-2.5-2.5H4.5ZM7.34 15.49h13.529a1 1 0 0 1 1 1v.398a1 1 0 0 1-1 1H7.339a1 1 0 0 1-1-1v-.398a1 1 0 0 1 1-1Zm-2 1a2 2 0 0 1 2-2h13.529a2 2 0 0 1 2 2v.398a2 2 0 0 1-2 2H7.339a2 2 0 0 1-2-2v-.398Zm8.907-3.142a.5.5 0 1 1-1 0 .5.5 0 0 1 1 0Zm-3.599-1.993a.5.5 0 1 0 0-1 .5.5 0 0 0 0 1Zm.5-3.431a.5.5 0 1 1-1 0 .5.5 0 0 1 1 0Zm-.5-2.432a.5.5 0 1 0 0-1 .5.5 0 0 0 0 1Zm-2.015 5.362a.5.5 0 1 1-1 0 .5.5 0 0 1 1 0Zm-.5-2.431a.5.5 0 1 0 0-1 .5.5 0 0 0 0 1Zm.5-3.432a.5.5 0 1 1-1 0 .5.5 0 0 1 1 0Zm-3.016 6.362a.5.5 0 1 0 0-1 .5.5 0 0 0 0 1Zm.5-3.431a.5.5 0 1 1-1 0 .5.5 0 0 1 1 0Zm-.5-2.432a.5.5 0 1 0 0-1 .5.5 0 0 0 0 1Z" fill="#18303F" id="iconDefault"/><path d="M5.617 5.491a.5.5 0 1 0 0-1 .5.5 0 0 0 0 1Zm3.016-.499a.5.5 0 1 1-1 0 .5.5 0 0 1 1 0Zm2.015.501a.5.5 0 1 0 0-1 .5.5 0 0 0 0 1Zm.5 2.432a.5.5 0 1 1-1 0 .5.5 0 0 1 1 0Zm0 2.931a.5.5 0 1 1-1 0 .5.5 0 0 1 1 0Zm-2.515 0a.5.5 0 1 1-1 0 .5.5 0 0 1 1 0Zm-.5-2.432a.5.5 0 1 0 0-1 .5.5 0 0 0 0 1Zm-2.516 2.93a.5.5 0 1 0 0-1 .5.5 0 0 0 0 1Zm.5-3.431a.5.5 0 1 1-1 0 .5.5 0 0 1 1 0Z" fill="#C70546" id="iconCritical"/></g></svg>