<svg width="25" height="25" viewBox="0 0 25 25" fill="none"><g id="door_unlocked"><path d="M2 3.512a2.5 2.5 0 0 1 2.5-2.5h7.238a2.5 2.5 0 0 1 2.5 2.5v8.566a.5.5 0 1 1-1 0V3.512a1.5 1.5 0 0 0-1.5-1.5H4.5a1.5 1.5 0 0 0-1.5 1.5V21.5A1.5 1.5 0 0 0 4.5 23h7.238a1.5 1.5 0 0 0 1.5-1.5v-2.123H7.34a2 2 0 0 1-2-2v-.397a2 2 0 0 1 2-2h13.529a2 2 0 0 1 2 2v.397a2 2 0 0 1-2 2h-6.63V21.5a2.5 2.5 0 0 1-2.5 2.5H4.5A2.5 2.5 0 0 1 2 21.5V3.512Zm18.869 12.467H7.339a1 1 0 0 0-1 1v.398a1 1 0 0 0 1 1h13.53a1 1 0 0 0 1-1v-.397a1 1 0 0 0-1-1Zm-6.63-2.123a.5.5 0 1 1-1 0 .5.5 0 0 1 1 0Zm-8.65-8.364a.5.5 0 1 0 0-1 .5.5 0 0 0 0 1Zm.382 1.654a.5.5 0 1 0-.707.708L7.41 10l-2.146 2.146a.5.5 0 1 0 .707.707l2.146-2.146 2.146 2.146a.5.5 0 1 0 .707-.707L8.824 10l2.147-2.146a.5.5 0 0 0-.707-.708L8.117 9.293 5.971 7.146Z" fill="#18303F" id="iconDefault"/></g></svg>