<svg width="25" height="25" viewBox="0 0 25 25" fill="none"><g id="dracula"><path fill-rule="evenodd" clip-rule="evenodd" d="M7.619 1.434c3.12-1.247 6.649-1.244 9.861 0 .024.009.046.02.068.032C18.367 1.934 19 2.78 19 3.8V6.044a6.87 6.87 0 0 1 4.477 2.526c.458.483.449 1.217.155 1.683-.457.862-1.378 2.53-2.285 4.12a92.403 92.403 0 0 1-1.813 3.072c1.916.643 3.204 1.456 3.975 2.062l.003.003c.61.487.988 1.227.988 1.99V24a.5.5 0 0 1-1 0v-2.5c0-.436-.221-.896-.611-1.208-.726-.57-2.026-1.394-4.036-2.016a.499.499 0 0 1-.538-.157 18.36 18.36 0 0 0-.551-.141l-4.058 5.314c-.318.466-.795.608-1.206.608-.5 0-.921-.314-1.154-.546a.54.54 0 0 1-.043-.05l-4.067-5.326c-.189.045-.372.092-.551.141a.499.499 0 0 1-.538.157c-2.01.622-3.31 1.445-4.036 2.016-.39.312-.611.772-.611 1.208V24a.5.5 0 0 1-1 0v-2.5c0-.763.378-1.503.988-1.99l.003-.003c.771-.606 2.059-1.42 3.975-2.062a92.403 92.403 0 0 1-1.813-3.072 180.849 180.849 0 0 1-2.285-4.12c-.294-.466-.303-1.2.155-1.683A6.87 6.87 0 0 1 6 6.044V3.8c0-.992.614-1.986 1.619-2.366ZM18 3.8v.145l-.039-.003c-.372-.029-.889-.055-1.472-.042-1.145.026-2.63.202-3.746.871a.41.41 0 0 1-.486 0c-1.116-.67-2.601-.845-3.746-.87-.583-.014-1.1.012-1.472.041L7 3.945V3.8c0-.606.384-1.21.976-1.432l.01-.004c2.867-1.147 6.121-1.153 9.097-.012.563.334.917.877.917 1.448ZM7 9V4.949l.117-.01c.347-.027.83-.051 1.372-.04 1.101.025 2.362.198 3.245.725a1.409 1.409 0 0 0 1.532 0c.883-.527 2.144-.7 3.245-.724A13.88 13.88 0 0 1 18 4.949V9c0 3.024-2.476 5.5-5.5 5.5-1.442 0-2.727-.628-3.862-1.669C7.55 11.834 7 10.471 7 9Zm11.541 8.144c.447-.69 1.181-1.94 1.937-3.267a179.78 179.78 0 0 0 2.306-4.154.403.403 0 0 0 .054-.242.346.346 0 0 0-.092-.227.46.46 0 0 1-.039-.045A5.869 5.869 0 0 0 19 7.054V9c0 3.576-2.924 6.5-6.5 6.5-1.758 0-3.273-.772-4.538-1.931C6.65 12.366 6 10.729 6 9V7.054a5.869 5.869 0 0 0-3.707 2.155.46.46 0 0 1-.039.045.346.346 0 0 0-.092.227.403.403 0 0 0 .054.242 179.78 179.78 0 0 0 2.306 4.155c.756 1.326 1.49 2.575 1.937 3.266 1.622-.44 3.619-.744 6.041-.744s4.419.304 6.041.744ZM13 22.57l3.679-4.818A23.23 23.23 0 0 0 13 17.404v5.165Zm-1-5.165v5.165l-3.679-4.818A23.23 23.23 0 0 1 12 17.404ZM10.991 8.51A.7.7 0 0 0 10.5 8.3a.7.7 0 0 0-.491.209.699.699 0 0 0-.207.541.699.699 0 0 0 .207.541.7.7 0 0 0 .491.21.5.5 0 0 0 .44-.264A.699.699 0 0 0 11.2 9a.699.699 0 0 0-.209-.491Zm4 0A.7.7 0 0 0 14.5 8.3a.7.7 0 0 0-.491.209.699.699 0 0 0-.207.541.699.699 0 0 0 .207.541.7.7 0 0 0 .491.21.5.5 0 0 0 .44-.264A.699.699 0 0 0 15.2 9a.699.699 0 0 0-.209-.491ZM9.542 11.7a.5.5 0 0 1 .258-.658 6.713 6.713 0 0 1 5.4 0 .5.5 0 1 1-.4.916 5.613 5.613 0 0 0-.3-.121v.663a.5.5 0 0 1-1 0v-.937a5.694 5.694 0 0 0-2 0v.937a.5.5 0 0 1-1 0v-.663a5.613 5.613 0 0 0-.3.121.5.5 0 0 1-.658-.258Z" fill="#18303F" id="iconDefault"/></g></svg>