<svg width="25" height="25" viewBox="0 0 25 25" fill="none"><g id="email"><path fill-rule="evenodd" clip-rule="evenodd" d="M6.15.76c-.405 0-.782.134-1.06.408-.279.274-.418.65-.418 1.054v6.79l-3.7 2.59a.5.5 0 0 0-.214.41v10.262c0 1.058.908 1.967 1.966 1.967h19.55c1.058 0 1.966-.909 1.966-1.967V12.11l-.003-.048a.498.498 0 0 0-.48-.55l-3.423-2.396V2.222c0-.405-.14-.78-.418-1.054-.278-.274-.655-.408-1.06-.408H6.15ZM2.143 12.002l2.528-1.77v3.455l-2.528-1.685ZM7.4 15.505l-1.728-1.152V2.222c0-.173.056-.279.12-.341.064-.064.175-.121.357-.121h12.707c.182 0 .294.057.358.12s.12.17.12.342v7.085a.499.499 0 0 0 0 .13v4.91l-1.736 1.158a.5.5 0 0 0 .554.832l5.088-3.392v9.33c0 .506-.461.966-.966.966H2.723c-.506 0-.966-.46-.966-.967v-9.328l5.087 3.39a.5.5 0 1 0 .555-.831Zm12.934-5.17 2.447 1.714-2.447 1.632v-3.346Zm-11.57 6.173a.5.5 0 0 1 .313-.11h6.842a.5.5 0 0 1 .313.11l4.887 3.91a.5.5 0 0 1-.625.781l-4.75-3.8H9.252l-3.381 2.704a.5.5 0 1 1-.625-.78l3.519-2.815Zm-4.596 4.823a.5.5 0 1 0 0-1 .5.5 0 0 0 0 1ZM14.625 8.167V9.033c0 .456.398.8.8.8.455 0 .8-.398.8-.8v-.65a.43.43 0 0 1 0-.022c.096-2.114-1.538-3.933-3.64-4.028-2.101-.096-3.919 1.63-3.919 3.725a3.707 3.707 0 0 0 2.961 3.844l.005.001.03.008c.62.177 1.15.102 1.893-.005l.065-.01a.5.5 0 1 1 .142.99l-.12.018c-.696.1-1.414.204-2.238-.027a4.707 4.707 0 0 1-3.738-4.832c.008-2.665 2.303-4.832 4.964-4.711 2.661.12 4.708 2.412 4.594 5.06v.64c0 .898-.739 1.8-1.8 1.8a1.842 1.842 0 0 1-1.61-.997 2.125 2.125 0 1 1 .81-1.67Zm-3.25 0a1.125 1.125 0 0 1 2.25 0v.04a1.125 1.125 0 0 1-2.25-.04Z" fill="#18303F" yggColor="iconDefault"/></g></svg>