<svg width="25" height="25" viewBox="0 0 25 25" fill="none"><g id="emergency_yes"><path fill-rule="evenodd" clip-rule="evenodd" d="M12.5 1.5a.5.5 0 0 1 .5.5v3a.5.5 0 0 1-1 0V2a.5.5 0 0 1 .5-.5Zm9.354 3.146a.5.5 0 0 0-.708 0l-2 2a.5.5 0 0 0 .708.708l2-2a.5.5 0 0 0 0-.708ZM9.3 6.5c-1.322 0-2.382 1.211-2.498 2.585v.006l-.77 10.453A2.508 2.508 0 0 0 4 22v.5a1 1 0 0 0 .284.716A1 1 0 0 0 5 23.5h15a1 1 0 0 0 .716-.284A1 1 0 0 0 21 22.5V22a2.508 2.508 0 0 0-2.032-2.456l-.77-10.453v-.006C18.082 7.711 17.022 6.5 15.7 6.5H9.3Zm8.662 13-.76-10.333C17.117 8.179 16.378 7.5 15.7 7.5H9.3c-.678 0-1.417.679-1.502 1.667L7.038 19.5H12V18a.5.5 0 0 1 .004-.063A2.008 2.008 0 0 1 10.5 16c0-1.1.9-2 2-2s2 .9 2 2c0 .929-.642 1.715-1.504 1.937A.5.5 0 0 1 13 18v1.5h4.962ZM5 22c0-.824.676-1.5 1.5-1.5h12c.824 0 1.5.676 1.5 1.5v.5H5V22Zm19-8.5h-2.5a.5.5 0 0 1 0-1H24a.5.5 0 0 1 0 1ZM3.854 4.646a.5.5 0 1 0-.708.708l2 2a.5.5 0 1 0 .708-.708l-2-2ZM.5 12.5A.5.5 0 0 1 1 12h2.5a.5.5 0 0 1 0 1H1a.5.5 0 0 1-.5-.5Z" fill="#18303F" id="iconDefault"/></g></svg>