<svg width="25" height="25" viewBox="0 0 25 25" fill="none"><g id="energy_level_2"><path fill-rule="evenodd" clip-rule="evenodd" d="M3.125 18.75a3.125 3.125 0 1 0 0 6.25 3.125 3.125 0 0 0 0-6.25Zm6.25 3.125a3.125 3.125 0 1 1 6.25 0 3.125 3.125 0 0 1-6.25 0Zm0-9.375a3.125 3.125 0 1 1 6.25 0 3.125 3.125 0 0 1-6.25 0Zm9.375 9.375a3.125 3.125 0 1 1 6.25 0 3.125 3.125 0 0 1-6.25 0Zm0-9.375a3.125 3.125 0 1 1 6.25 0 3.125 3.125 0 0 1-6.25 0Zm0-9.375a3.125 3.125 0 1 1 6.25 0 3.125 3.125 0 0 1-6.25 0Z" fill="#18303F" id="iconDefault"/></g></svg>