<svg width="25" height="25" viewBox="0 0 25 25" fill="none"><g id="energy"><path fill-rule="evenodd" clip-rule="evenodd" d="M14.444.033a.5.5 0 0 1 .38.597L12.959 9.02h7.377a.5.5 0 0 1 .407.79l-10 14a.5.5 0 0 1-.895-.398l1.865-8.392H6.46a.5.5 0 0 1 0-1h5.864a.501.501 0 0 1 .499.609l-1.467 6.601 8.007-11.21h-7.028a.5.5 0 0 1-.488-.608l1.467-6.602-7.283 10.212a.5.5 0 0 1-.814-.58L13.927.23a.5.5 0 0 1 .517-.198Zm-9.55 14.488a.5.5 0 1 1-1 0 .5.5 0 0 1 1 0Z" fill="#18303F" id="iconDefault"/></g></svg>