<svg width="25" height="25" viewBox="0 0 25 25" fill="none"><g id="export"><path d="M6.73 23c-.492 0-.904-.162-1.234-.487A1.634 1.634 0 0 1 5 21.298V11.007c0-.485.165-.89.496-1.215.33-.325.742-.487 1.235-.487h1.73a.523.523 0 0 1 .536.526.523.523 0 0 1-.536.527h-1.73a.635.635 0 0 0-.454.203.615.615 0 0 0-.206.446v10.291c0 .162.07.31.206.446a.635.635 0 0 0 .454.203h11.538a.635.635 0 0 0 .454-.203.615.615 0 0 0 .206-.446V11.007a.615.615 0 0 0-.206-.446.635.635 0 0 0-.454-.203h-1.73a.523.523 0 0 1-.536-.527c0-.15.05-.275.153-.375.103-.101.23-.151.383-.151h1.73c.493 0 .905.162 1.236.487.33.325.495.73.495 1.215v10.291c0 .485-.165.89-.495 1.215-.33.325-.743.487-1.236.487H6.731Zm5.234-18.316-1.87 1.84a.52.52 0 0 1-.758-.006.54.54 0 0 1-.175-.374.507.507 0 0 1 .174-.373l2.56-2.516A.837.837 0 0 1 12.5 3c.23 0 .433.085.606.255l2.559 2.516c.1.1.154.219.16.36a.503.503 0 0 1-.16.386.538.538 0 0 1-.382.174.539.539 0 0 1-.383-.174l-1.864-1.833v10.942a.523.523 0 0 1-.536.527.523.523 0 0 1-.536-.527V4.684Z" fill="#18303F" id="iconDefault"/></g></svg>