<svg width="25" height="25" viewBox="0 0 25 25" fill="none"><g id="fire_confirmed"><path fill-rule="evenodd" clip-rule="evenodd" d="M24 12.5C24 18.851 18.851 24 12.5 24S1 18.851 1 12.5 6.149 1 12.5 1 24 6.149 24 12.5ZM9.492 3.477a.407.407 0 1 1-.814 0 .407.407 0 0 1 .814 0Zm.97-.081a.5.5 0 1 0-.305.952c3.606 1.152 6.228 4.35 6.665 8.22.035.312.057.878.063 1.222a.5.5 0 0 0 .672.462 9.832 9.832 0 0 0 1.65-.786.5.5 0 1 0-.511-.86 9.144 9.144 0 0 1-.837.44 10.368 10.368 0 0 0-.044-.591c-.48-4.254-3.366-7.786-7.354-9.06Zm-.99.925a.5.5 0 0 1 .64.302c.337.938.533 1.946.533 2.997 0 1.38-.342 2.749-.931 4.021a.5.5 0 0 1-.842.105A8.938 8.938 0 0 1 7.717 9.94a.5.5 0 1 1 .903-.43c.148.312.319.613.516.911.33-.916.51-1.861.51-2.8a7.86 7.86 0 0 0-.475-2.66.5.5 0 0 1 .302-.639ZM7.138 9.889a.5.5 0 1 0-.769-.639c-1.235 1.489-1.87 3.773-1.87 5.667a.543.543 0 0 0 0 .02 8.134 8.134 0 0 0 8.311 7.858h.01c4.373-.173 7.88-3.801 7.88-8.283 0-.343-.016-.69-.059-1.034a.5.5 0 0 0-.992.122c.037.296.052.601.052.912a7.29 7.29 0 0 1-3.944 6.502 4.024 4.024 0 0 0 .599-2.107c.087-1.413-.666-2.728-1.964-3.382a.5.5 0 0 0-.225-.053h-.16a.501.501 0 0 0-.46.3.607.607 0 0 0-.11.245 1.392 1.392 0 0 1-.14.28 2.804 2.804 0 0 1 .024-1.42.5.5 0 1 0-.965-.261c-.25.922-.174 1.93.33 2.818a.5.5 0 0 0 .736.153c.297-.225.624-.532.846-.975a2.51 2.51 0 0 1 1.088 2.278c0 .761-.271 1.452-.752 2.011-.547.546-1.204.8-1.92.735a.497.497 0 0 0-.046-.002 2.71 2.71 0 0 1-2.002-.848c-.52-.46-.796-1.126-.796-1.896 0-1.932 1.058-3.71 2.708-4.732a.5.5 0 1 0-.527-.85c-1.922 1.19-3.18 3.28-3.18 5.582 0 .816.238 1.594.73 2.22a7.137 7.137 0 0 1-4.073-6.202c.002-1.72.591-3.755 1.64-5.019Zm12.846 2.834a.407.407 0 1 0 0-.815.407.407 0 0 0 0 .815Zm-6.604.897a.407.407 0 1 0 0-.814.407.407 0 0 0 0 .815ZM8.127 8.56a.407.407 0 1 1-.814 0 .407.407 0 0 1 .814 0Z" fill="#18303F" id="iconDefault"/></g></svg>