<svg width="26" height="26" viewBox="0 0 26 26" fill="none"><g id="fish_bone"><path fill-rule="evenodd" clip-rule="evenodd" d="M23.826.309a1.5 1.5 0 0 1 .152.134c.03.03.072.067.125.114l.023.021c.456.402 1.574 1.39 1.823 3.058.288 1.933-.577 4.6-4.22 8.26-.965.967-2.26 1.057-3.492.69-.943-.283-1.894-.841-2.743-1.547l-.889.893 1.61 1.617a.51.51 0 0 1-.722.719l-1.607-1.614-1.73 1.739 2.377 2.436a.51.51 0 1 1-.729.712l-2.368-2.426-1.61 1.618 1.666 1.674a.51.51 0 0 1-.722.719l-1.663-1.671-.924.928c.904 1.063 1.236 2.307 1.091 3.549-.156 1.351-.87 2.667-1.945 3.747-.192.193-.65.46-1.151.208-.117-.058-.324-.17-.448-.377a.74.74 0 0 1-.051-.65c.072-1.16-.419-2.342-1.321-3.249a.416.416 0 0 1-.038-.042c-.79-.992-1.974-1.491-3.274-1.391a.542.542 0 0 1-.04.002c-.437 0-.68-.245-.8-.367l-.011-.01a.502.502 0 0 1-.095-.132.82.82 0 0 1-.045-.684c.067-.17.191-.294.241-.343l.002-.002.01-.01c1.075-1.079 2.386-1.796 3.733-1.954a4.497 4.497 0 0 1 3.411.994l.936-.94-1.218-1.221a.51.51 0 0 1 .723-.72l1.214 1.22 1.618-1.626-2.433-2.493a.508.508 0 1 1 .729-.712l2.422 2.483 1.725-1.731-1.274-1.28a.51.51 0 0 1 .722-.719l1.27 1.277.857-.86c-1.002-1.013-1.824-2.247-2.185-3.468-.366-1.235-.277-2.534.687-3.502a.504.504 0 0 1 .19-.12L22.321.096l.01-.003c.284-.095.662-.14 1.032-.025a.505.505 0 0 1 .463.24Zm-9.935 3.87 8.767-3.12a.886.886 0 0 1 .055-.017l-1.156 3.675a.51.51 0 1 0 .972.306l1.105-3.512c.481.446 1.138 1.142 1.307 2.276.218 1.457-.378 3.817-3.935 7.39-.61.613-1.466.734-2.477.432-.834-.25-1.722-.779-2.527-1.475a.505.505 0 0 0-.369-.338c-.05-.048-.1-.096-.148-.145-.928-.933-1.647-2.035-1.95-3.058-.29-.974-.19-1.806.356-2.414ZM1.241 19.148c1.51-.038 2.906.582 3.859 1.764 1.052 1.067 1.671 2.492 1.6 3.954.895-.933 1.441-2.009 1.562-3.051.124-1.063-.19-2.123-1.093-3.028-.9-.905-1.955-1.22-3.01-1.096-.992.115-2.017.624-2.917 1.457ZM17.88 6.594a.838.838 0 0 0 .588-.235v-.001l.002-.002.004-.004.01-.01.002-.002.026-.029c.02-.024.047-.058.075-.1a.805.805 0 0 0 .14-.437l.002-.006a.721.721 0 0 0-.068-.334.764.764 0 0 0-.11-.159c-.025-.028-.055-.058-.079-.081l-.005-.005a.471.471 0 0 0-.04-.036l-.01-.01a.87.87 0 0 0-.1-.075.797.797 0 0 0-.437-.143h-.007c-.035-.001-.188-.005-.334.068a.708.708 0 0 0-.16.111 1.658 1.658 0 0 0-.08.08l-.006.004a.518.518 0 0 0-.04.044l-.002.005a.997.997 0 0 0-.076.1.796.796 0 0 0-.142.437v.006a.722.722 0 0 0 .068.334.692.692 0 0 0 .11.159l.063.066.002.002a.828.828 0 0 0 .604.254Z" fill="#18303F" id="iconDefault"/></g></svg>