<svg width="25" height="25" viewBox="0 0 25 25" fill="none"><g id="furnace"><path fill-rule="evenodd" clip-rule="evenodd" d="M12.78 7.119a.583.583 0 1 0 0-1.166.583.583 0 0 0 0 1.166Zm-1.079.693a.5.5 0 0 0-.707-.707l-.457.456a3.083 3.083 0 0 0 0 4.36 2.083 2.083 0 0 1 0 2.945.5.5 0 0 0 .707.707 3.083 3.083 0 0 0 0-4.36 2.083 2.083 0 0 1 0-2.945l.457-.456ZM8.026 9.974a.5.5 0 0 0-.707-.707 3.083 3.083 0 0 0 0 4.36 2.083 2.083 0 0 1 0 2.945.5.5 0 1 0 .707.707 3.083 3.083 0 0 0 0-4.36 2.083 2.083 0 0 1 0-2.945Zm10.669-2.162a.5.5 0 0 0-.708-.707l-.456.456a3.083 3.083 0 0 0 0 4.36 2.083 2.083 0 0 1 0 2.945.5.5 0 1 0 .707.707 3.083 3.083 0 0 0 0-4.36 2.083 2.083 0 0 1 0-2.945l.457-.456Zm-3.676 2.162a.5.5 0 1 0-.707-.707 3.083 3.083 0 0 0 0 4.36 2.083 2.083 0 0 1 0 2.945l-.507.507a.5.5 0 1 0 .707.707l.507-.507a3.083 3.083 0 0 0 0-4.36 2.083 2.083 0 0 1 0-2.945Zm-7.995 8.49a.583.583 0 1 1-1.165 0 .583.583 0 0 1 1.165 0Z" fill="#18303F" yggColor="iconDefault"/></g></svg>