<svg width="25" height="25" viewBox="0 0 25 25" fill="none"><g id="garage_closed"><path fill-rule="evenodd" clip-rule="evenodd" d="M16.175 4.09a8.477 8.477 0 0 0-3.675-.752 8.478 8.478 0 0 0-3.675.712.368.368 0 0 0-.164.043L3.188 7.017l-.006.003a.852.852 0 0 0-.435.773V8.94a.832.832 0 0 0 .048.326.366.366 0 0 0-.046.18V20.93H1.14a.368.368 0 1 0 0 .736h1.95a.398.398 0 0 0 .053 0H5.55a.914.914 0 0 0 .062 0h13.78a.392.392 0 0 0 .061 0h2.244a.371.371 0 0 0 .092-.012.367.367 0 0 0 .463-.355V9.445a.366.366 0 0 0-.046-.178.823.823 0 0 0 .045-.33V7.793a.851.851 0 0 0-.435-.773l-.008-.004-5.472-2.885a.368.368 0 0 0-.16-.042Zm5.341 5.72a.372.372 0 0 1-.039.003H3.52a.37.37 0 0 1-.036-.002v11.12h1.25a.873.873 0 0 1-.01-.126v-8.89a.861.861 0 0 1 .862-.862h13.83a.862.862 0 0 1 .86.862v8.89a.873.873 0 0 1-.008.125h1.248V9.81ZM9.054 4.753a7.742 7.742 0 0 1 3.453-.678 7.742 7.742 0 0 1 3.432.716c.042.02.086.03.132.034l5.387 2.84a.116.116 0 0 1 .057.105V8.95l.001.034a.087.087 0 0 1-.065.092H3.55a.097.097 0 0 1-.07-.1l.001-.026V7.77a.116.116 0 0 1 .057-.106l5.388-2.879a.368.368 0 0 0 .127-.032ZM19.43 20.93H5.572a.126.126 0 0 1-.112-.125v-8.89a.126.126 0 0 1 .126-.126h13.83a.126.126 0 0 1 .125.126v8.89a.127.127 0 0 1-.112.125ZM7.07 13.648a.368.368 0 0 0 0 .736h9.585a.368.368 0 0 0 0-.736H7.069Zm.79 2.845c0-.203.164-.367.367-.367h9.708a.368.368 0 0 1 0 .735H8.226a.368.368 0 0 1-.367-.368Zm-1.16 2.477c0-.203.164-.368.367-.368H17.93a.368.368 0 1 1 0 .735H7.066a.368.368 0 0 1-.368-.367Zm11.603-4.954a.368.368 0 1 1-.735 0 .368.368 0 0 1 .735 0ZM7.057 16.86a.368.368 0 1 0 0-.735.368.368 0 0 0 0 .735Zm17.162 4.438a.368.368 0 1 1-.736 0 .368.368 0 0 1 .736 0Z" fill="#18303F" id="iconDefault"/></g></svg>