<svg width="25" height="25" viewBox="0 0 25 25" fill="none"><g id="garage"><path fill-rule="evenodd" clip-rule="evenodd" d="M12.505 3.205a8.907 8.907 0 0 1 3.895.809l5.484 2.89a.984.984 0 0 1 .502.89v1.138a.956.956 0 0 1-.036.326.499.499 0 0 1 .037.187V21.3a.5.5 0 0 1-.527.499H3.148a.613.613 0 0 1-.054 0h-1.95a.5.5 0 0 1 0-1h1.477V9.445a.5.5 0 0 1 .036-.186.964.964 0 0 1-.039-.323V7.795a.983.983 0 0 1 .503-.89L3.13 6.9l5.472-2.924.03-.015a8.909 8.909 0 0 1 3.873-.756ZM3.62 9.945h17.766v10.853h-.977v-8.884a.994.994 0 0 0-.994-.994H5.588a.994.994 0 0 0-.994.994v8.884H3.62V9.945Zm5.437-5.08-5.44 2.907V8.945h17.768V7.773l-5.44-2.868a7.91 7.91 0 0 0-3.46-.7 7.912 7.912 0 0 0-3.428.66Zm10.344 15.933H5.594V11.92H19.41v8.878h-.008ZM7.07 13.516a.5.5 0 0 0 0 1h9.081a.5.5 0 1 0 0-1h-9.08Zm1.188 2.976a.5.5 0 0 1 .5-.5h9.179a.5.5 0 1 1 0 1h-9.18a.5.5 0 0 1-.5-.5ZM7.07 18.47a.5.5 0 0 0 0 1h10.866a.5.5 0 1 0 0-1H7.07Zm10.867-3.953a.5.5 0 1 0 0-1 .5.5 0 0 0 0 1Zm6.418 6.782a.5.5 0 1 1-1 0 .5.5 0 0 1 1 0ZM7.07 16.992a.5.5 0 1 0 0-1 .5.5 0 0 0 0 1Z" fill="#18303F" id="iconDefault"/></g></svg>