<svg width="25" height="25" viewBox="0 0 25 25" fill="none"><g id="general"><path fill-rule="evenodd" clip-rule="evenodd" d="M13.592 1.732c0 .18-.044.35-.122.501l2.54 3.223a1.09 1.09 0 0 1 1.115.57l4.314.065a1.092 1.092 0 1 1 .901 1.78l-1.501 4.271a1.09 1.09 0 0 1-.013 1.46l1.502 3.988a1.091 1.091 0 1 1-.919 1.74l-4.243.065a1.092 1.092 0 0 1-1.219.583L13.5 22.83a1.092 1.092 0 1 1-1.986-.03l-2.448-2.811a1.096 1.096 0 0 1-1.292-.595l-4.178-.064a1.092 1.092 0 1 1-.929-1.74l1.509-4.007a1.086 1.086 0 0 1 .036-1.28L2.655 7.87a1.092 1.092 0 1 1 .905-1.78l4.397-.067a1.092 1.092 0 0 1 1.042-.576l2.547-3.184a1.092 1.092 0 1 1 2.046-.532Zm-.868 20.467a1.105 1.105 0 0 0-.412-.007L9.887 19.41h5.231l-2.394 2.79ZM12.5 2.824c-.039 0-.078-.002-.116-.006L9.858 5.976a.553.553 0 0 1 .02.036h5.297l-2.521-3.199c-.05.007-.102.01-.154.01ZM3.57 7.459l1.507 4.29L7.9 7.025l-4.138.063c-.04.136-.106.262-.192.37Zm.008 10.55c.075.096.135.205.175.323l4.067.062.022-.037-2.748-4.297H5.065L3.578 18.01ZM15.177 7.012H9.905a1.138 1.138 0 0 1-.112.183l2.787 4.555a1.044 1.044 0 0 1 .196.006l2.498-4.58a1.11 1.11 0 0 1-.097-.164Zm.989.617-2.561 4.695c.017.032.032.064.046.097h5.372a1.2 1.2 0 0 1 .061-.117l-2.797-4.682c-.04.005-.08.007-.121.007Zm.952-.566 2.799 4.686 1.51-4.296a1.084 1.084 0 0 1-.188-.365l-4.101-.062-.02.037Zm-8.232.566a1.103 1.103 0 0 1-.171-.02l-2.79 4.67c.036.045.069.092.098.142h5.611c.023-.057.052-.112.084-.163l-2.832-4.63Zm-2.908 5.957 2.726 4.262a1.104 1.104 0 0 1 .179.005l2.869-4.381a1.02 1.02 0 0 1-.034-.051H6.072a1.036 1.036 0 0 1-.094.165Zm13.123-.132a.52.52 0 0 1-.02-.033h-5.5l2.569 4.4H16.186c.04 0 .08.002.118.006l2.797-4.373Zm-1.953 4.94 4.103-.062c.039-.115.097-.221.169-.315l-1.501-3.986-2.78 4.347.009.017Zm-1.871-.085-2.557-4.38a1.143 1.143 0 0 1-.074.003l-2.928 4.47.004.007h5.495a.999.999 0 0 1 .06-.1Z" fill="#18303F" id="iconDefault"/></g></svg>