<svg width="25" height="25" viewBox="0 0 25 25" fill="none"><g id="han_unknown_colorful" fill-rule="evenodd" clip-rule="evenodd"><path d="M6.501 1.773a4.884 4.884 0 1 0 0 9.769 4.884 4.884 0 0 0 0-9.769ZM.617 6.658a5.884 5.884 0 1 1 11.769 0 5.884 5.884 0 0 1-11.769 0Z" fill="#6D7B82" id="iconWeak"/><path d="M4.882 3.765c0-.183.158-.362.475-.538.324-.183.704-.275 1.14-.275.634 0 1.123.176 1.468.528.352.352.528.803.528 1.352 0 .303-.06.595-.18.876a2.178 2.178 0 0 1-.369.634 7.555 7.555 0 0 1-.486.507 4.24 4.24 0 0 0-.37.37 1.2 1.2 0 0 0-.305.59c-.043.219-.064.557-.064 1.015 0 .161-.095.242-.285.242-.19 0-.285-.102-.285-.306 0-.542.039-.94.116-1.193.078-.26.19-.475.338-.644.056-.057.18-.173.37-.349.197-.183.348-.334.454-.454.105-.12.207-.292.306-.517.106-.226.158-.465.158-.718 0-.423-.123-.754-.37-.993-.246-.24-.598-.359-1.055-.359-.275 0-.504.046-.687.137-.176.085-.31.17-.4.254-.092.084-.17.126-.233.126a.269.269 0 0 1-.264-.285Zm1.927 6.625a.344.344 0 1 1-.688 0 .344.344 0 0 1 .688 0Zm6.445-4.382a.5.5 0 0 1 .5-.5H19.5a4.5 4.5 0 0 1 4.5 4.5V19.5a4.5 4.5 0 0 1-4.5 4.5h-9.492a4.5 4.5 0 0 1-4.5-4.5v-5.746a.5.5 0 0 1 1 0V19.5a3.5 3.5 0 0 0 3.5 3.5H19.5a3.5 3.5 0 0 0 3.5-3.5v-9.492a3.5 3.5 0 0 0-3.5-3.5h-5.746a.5.5 0 0 1-.5-.5Zm2.26 4.824h-1.52c-.115 0-.172-.036-.199-.063-.026-.027-.062-.083-.062-.198 0-.114.036-.17.062-.197.027-.027.084-.063.198-.063h1.521c.115 0 .171.036.198.063.027.026.063.083.063.197 0 .115-.036.171-.063.198-.027.027-.083.063-.198.063Zm-.26-2.542v1.02h.26c.342 0 .666.117.905.356.24.24.356.564.356.905 0 .342-.116.666-.356.905a1.26 1.26 0 0 1-.905.356h-.26v4.823a.5.5 0 1 1-1 0v-4.823h-.26a1.26 1.26 0 0 1-.906-.356 1.26 1.26 0 0 1-.355-.905c0-.341.116-.665.355-.905.24-.24.563-.355.905-.355h.26V8.29a.5.5 0 1 1 1 0Zm4.443 6.344h.76c.115 0 .172-.036.198-.062.027-.027.063-.084.063-.198 0-.115-.036-.171-.063-.198-.026-.027-.083-.063-.198-.063h-1.52c-.115 0-.172.036-.198.063-.027.027-.063.083-.063.198 0 .081.031.141.079.186.052.049.122.074.181.074h.761Zm.5-1.52V8.29a.5.5 0 0 0-1 0v4.823h-.26a1.26 1.26 0 0 0-.905.356c-.24.24-.356.563-.356.905 0 .764.637 1.26 1.26 1.26h.261v1.021a.5.5 0 1 0 1 0v-1.02h.26c.342 0 .666-.117.905-.356.24-.24.356-.563.356-.905 0-.342-.116-.666-.356-.905a1.26 1.26 0 0 0-.904-.356h-.261Zm-9.887 1h.26c.343 0 .666-.117.906-.356.24-.24.355-.563.355-.905a.5.5 0 1 0-1 0c0 .114-.036.171-.062.198-.027.026-.084.062-.198.062H9.05a.5.5 0 1 0 0 1h.26v2.542a.5.5 0 1 0 1 0v-2.542Zm8.033 5.964c0-.732.622-1.354 1.354-1.354.732 0 1.354.622 1.354 1.354 0 .732-.622 1.354-1.354 1.354a1.376 1.376 0 0 1-1.354-1.354Zm1.354-.354a.377.377 0 0 0-.354.354c0 .18.175.354.354.354.18 0 .354-.175.354-.354a.377.377 0 0 0-.354-.354ZM14.74 18.72c-.733 0-1.356.623-1.356 1.355 0 .733.623 1.356 1.355 1.356.733 0 1.356-.623 1.356-1.356 0-.732-.623-1.355-1.355-1.355Zm-.356 1.355c0-.18.175-.355.355-.355s.356.175.356.355-.175.356-.356.356a.379.379 0 0 1-.355-.356Zm-5.928.002c0-.732.623-1.354 1.354-1.354.732 0 1.355.622 1.355 1.354 0 .732-.623 1.354-1.355 1.354a1.376 1.376 0 0 1-1.354-1.354Zm1.354-.354a.377.377 0 0 0-.354.354c0 .18.175.354.354.354.18 0 .355-.175.355-.354a.377.377 0 0 0-.355-.354Z" fill="#18303F" id="iconDefault"/></g></svg>