<svg width="25" height="25" viewBox="0 0 25 25" fill="none"><g id="handle"><path d="M8.334 1.666a2.292 2.292 0 1 0-.001 4.584 2.292 2.292 0 0 0 .001-4.584Zm8.332 0a2.292 2.292 0 1 0 .002 4.585 2.292 2.292 0 0 0-.002-4.585Zm-8.332 1.25A1.042 1.042 0 1 1 8.332 5a1.042 1.042 0 0 1 .002-2.084Zm8.332 0a1.042 1.042 0 1 1 .002 2.083 1.042 1.042 0 0 1-.002-2.083ZM8.334 10a2.292 2.292 0 1 0-.001 4.584A2.292 2.292 0 0 0 8.334 10Zm8.332 0a2.292 2.292 0 1 0 .002 4.584A2.292 2.292 0 0 0 16.666 10Zm-8.332 1.25a1.042 1.042 0 1 1-.002 2.084 1.042 1.042 0 0 1 .002-2.084Zm8.332 0a1.042 1.042 0 1 1 .002 2.084 1.042 1.042 0 0 1-.002-2.084Zm-8.332 7.084a2.292 2.292 0 1 0-.001 4.584 2.292 2.292 0 0 0 .001-4.584Zm8.332 0a2.29 2.29 0 1 0 0 4.582 2.292 2.292 0 1 0 0-4.582Zm-8.332 1.25a1.04 1.04 0 1 1 0 2.082 1.042 1.042 0 1 1 0-2.082Zm8.332 0a1.042 1.042 0 1 1 .002 2.084 1.042 1.042 0 0 1-.002-2.084Z" fill="#18303F" id="iconDefault"/></g></svg>