<svg width="25" height="25" viewBox="0 0 25 25" fill="none"><g id="health"><path fill-rule="evenodd" clip-rule="evenodd" d="M12.5.5a2.509 2.509 0 0 0-2.45 2H8.5a.998.998 0 0 0-.716.284.999.999 0 0 0-.284.716H4c-.414 0-.797.14-1.079.421C2.64 4.203 2.5 4.586 2.5 5v18c0 .414.14.797.421 1.079.282.28.665.421 1.079.421h17c.414 0 .797-.14 1.079-.421.281-.282.421-.665.421-1.079V5c0-.414-.14-.797-.421-1.079-.282-.28-.665-.421-1.079-.421h-3.5a.999.999 0 0 0-.284-.716.998.998 0 0 0-.716-.284h-1.55a2.509 2.509 0 0 0-2.45-2Zm-2 3h-2v3h8v-3h-2A.5.5 0 0 1 14 3c0-.824-.676-1.5-1.5-1.5S11 2.176 11 3a.5.5 0 0 1-.5.5Zm-3 3c0 .264.09.522.284.716A.998.998 0 0 0 8.5 7.5h8c.264 0 .522-.09.716-.284A.999.999 0 0 0 17.5 6.5v-2H21c.186 0 .303.06.371.129.069.068.129.185.129.371v18c0 .186-.06.303-.129.371-.068.07-.185.129-.371.129H4c-.186 0-.303-.06-.371-.129-.069-.068-.129-.185-.129-.371V5c0-.186.06-.303.129-.371.068-.07.185-.129.371-.129h3.5v2Zm11.5-1a.5.5 0 0 0 0 1h.5v6.6a.5.5 0 0 0 1 0V6.5a.999.999 0 0 0-.284-.716.998.998 0 0 0-.716-.284H19Zm-7.15 9.918 1.477-3.053 1.293 4.474c.008.029.019.057.033.084.065.13.143.255.256.368.112.112.237.19.367.256.07.035.146.053.224.053.362 0 .751-.184.947-.577l.8-1.6a.095.095 0 0 1 .019-.023H19.9a.5.5 0 0 0 0-1h-2.7a.887.887 0 0 0-.477.159 1.08 1.08 0 0 0-.37.417l-.777 1.553-.003-.004-.007-.012-1.271-4.4a.92.92 0 0 0-.266-.542.902.902 0 0 0-.629-.271c-.362 0-.751.183-.947.576l-.003.006-1.499 3.097-.006.012a.35.35 0 0 1-.074-.033l-1.163-1.646a.468.468 0 0 0-.054-.066l-.009-.009c-.109-.11-.337-.337-.745-.337a.998.998 0 0 0-.424.115c-.106.053-.23.132-.33.231a.563.563 0 0 0-.046.054l-.878 1.17a.72.72 0 0 1-.029.028l-.002.002H5a.5.5 0 0 0 0 1h2.2c.408 0 .636-.228.745-.338l.009-.009A.577.577 0 0 0 8 15.1l.868-1.158.004-.002a.482.482 0 0 1 .037-.023l.008.007 1.175 1.664a.474.474 0 0 0 .054.065c.188.188.513.347.854.347a.86.86 0 0 0 .55-.185c.148-.118.237-.271.297-.392l.003-.005ZM20.5 17a.5.5 0 0 0-1 0v3.5h-14v-3.4a.5.5 0 0 0-1 0v3.4c0 .264.09.522.284.716a.999.999 0 0 0 .716.284h14c.264 0 .522-.09.716-.284a.999.999 0 0 0 .284-.716V17ZM5.5 5.5a.998.998 0 0 0-.716.284.999.999 0 0 0-.284.716v6.6a.5.5 0 0 0 1 0V6.5H6a.5.5 0 0 0 0-1h-.5Z" fill="#18303F" id="iconDefault"/></g></svg>