<svg width="25" height="25" viewBox="0 0 25 25" fill="none"><g id="home_away"><path fill-rule="evenodd" clip-rule="evenodd" d="M7.478 2.15c1.448 0 2.757.982 3.073 2.387.388.014.767.14 1.091.383.486.364.703.948.703 1.493 0 .466-.22 1.016-.567 1.363-.388.388-.95.481-1.364.481a.463.463 0 0 1 0-.926c.322 0 .58-.08.71-.21.17-.17.295-.484.295-.708 0-.32-.128-.599-.333-.753a1.036 1.036 0 0 0-.84-.175.463.463 0 0 1-.553-.425c-.07-1.115-1.054-1.984-2.215-1.984-.767 0-1.56.5-1.917 1.212a.463.463 0 0 1-.414.256c-.426 0-.815.144-1.054.383a.507.507 0 0 1-.038.034c-.292.233-.43.599-.43 1.02 0 .71.504 1.277 1.2 1.35h2.653a.463.463 0 1 1 0 .926H4.802c-.014 0-.028 0-.042-.002-1.194-.108-2.062-1.091-2.062-2.274 0-.608.202-1.27.76-1.727.38-.372.896-.57 1.411-.622.552-.883 1.57-1.482 2.61-1.482Zm11.14 3.886c1.04 0 2.059.598 2.61 1.482.514.051 1.03.25 1.412.62.54.442.758 1.008.758 1.642 0 1.155-.84 2.25-2.06 2.36a.492.492 0 0 1-.043.002H15.77c-.39 0-.973-.091-1.364-.48a2.052 2.052 0 0 1-.566-1.364c0-.535.21-1.108.678-1.474.28-.266.654-.387 1.029-.401.316-1.405 1.626-2.387 3.073-2.387Zm1.918 2.138c-.357-.713-1.15-1.212-1.918-1.212-1.16 0-2.144.869-2.214 1.983a.464.464 0 0 1-.553.425c-.336-.067-.59.018-.705.133a.46.46 0 0 1-.049.043c-.204.153-.332.433-.332.752 0 .224.124.537.295.709.128.128.404.21.71.21h5.503c.67-.072 1.2-.7 1.2-1.437 0-.395-.122-.687-.43-.934a.365.365 0 0 1-.038-.034c-.24-.239-.628-.383-1.055-.383a.464.464 0 0 1-.415-.255ZM8.17 17.606h6.008c-.463-1.01-1.498-1.665-2.726-1.665-.745 0-1.49.3-2.004.815a.463.463 0 0 1-.655-.655 3.798 3.798 0 0 1 2.66-1.085c1.835 0 3.418 1.165 3.817 2.945a.467.467 0 0 1 .006.19.463.463 0 0 1-.457.381H8.17a.463.463 0 0 1 0-.926Zm-4.575 4.38h1.001c.313.511.88.864 1.502.864.624 0 1.19-.353 1.502-.864h5.804c.313.511.878.864 1.501.864.624 0 1.19-.353 1.502-.864h1.953a.463.463 0 1 0 0-.926h-.214l-.45-2.634c-.47-2.995-3.089-5.137-6.07-5.137-2.596 0-4.925 1.485-5.95 3.903l-.31.681c-.849.05-1.575.311-2.07.856-.552.607-.728 1.467-.595 2.484.01.232.1.46.312.61.192.138.417.163.582.163Zm4.261-.926c-.017-.933-.822-1.727-1.758-1.727s-1.74.794-1.758 1.727h-.725c-.104-.84.065-1.378.366-1.708.311-.342.851-.561 1.687-.561a.463.463 0 0 0 .421-.272l.437-.96c.875-2.069 2.862-3.345 5.1-3.345 2.543 0 4.76 1.828 5.154 4.358l.002.007.425 2.481h-.544c-.017-.933-.82-1.727-1.758-1.727-.936 0-1.74.794-1.757 1.727H7.856Zm-1.758-.8c.435 0 .833.396.833.831 0 .436-.398.833-.833.833-.435 0-.832-.397-.832-.832 0-.436.397-.833.832-.833Zm9.567 1.153a.476.476 0 0 1 .04-.105.75.75 0 0 0 .033-.216c0-.436-.397-.833-.833-.833-.435 0-.832.397-.832.832 0 .436.397.833.832.833.324 0 .626-.22.76-.511ZM1.887 17.828a.462.462 0 1 1 .654.655 3.459 3.459 0 0 0-.832 1.44.462.462 0 1 1-.89-.254 4.38 4.38 0 0 1 1.068-1.841Zm20.648 2.573c0-.749-.616-1.5-1.5-1.5a.463.463 0 1 0 0 .926c.325 0 .573.286.573.573a.584.584 0 0 1-.188.386.585.585 0 0 1-.385.188.587.587 0 0 1-.573-.573.463.463 0 0 0-.926 0c0 .748.614 1.499 1.5 1.499.409 0 .78-.2 1.038-.46.26-.259.46-.63.46-1.04ZM21.5 16.773a.463.463 0 0 0-.463-.462c-.748 0-1.5.614-1.5 1.499a.463.463 0 0 0 .927 0c0-.325.286-.574.573-.574a.463.463 0 0 0 .463-.463Zm2.698 2.716a.463.463 0 1 1-.926-.001.463.463 0 0 1 .926 0ZM9.47 7.794a.463.463 0 1 1-.926-.001.463.463 0 0 1 .926 0Z" fill="#18303F" id="iconDefault"/></g></svg>