<svg width="25" height="25" viewBox="0 0 25 25" fill="none"><g id="humidity"><path fill-rule="evenodd" clip-rule="evenodd" d="M19.677 3.888c-.669.118-1.34.453-2.032.937-1.8 1.26-3.961 1.25-5.836.007-.853-.566-1.486-.903-2.16-.97-.655-.065-1.434.122-2.572.815-1.121.716-2.058 1.13-3.007 1.127-.959-.003-1.832-.43-2.824-1.145a.5.5 0 0 1 .586-.811c.936.676 1.597.954 2.241.956.653.001 1.387-.28 2.47-.972l.009-.006c1.238-.755 2.239-1.054 3.196-.96.941.094 1.754.563 2.614 1.133 1.549 1.027 3.263 1.019 4.71.007.753-.527 1.562-.95 2.432-1.102.885-.156 1.8-.026 2.74.497a.5.5 0 1 1-.487.874c-.742-.414-1.425-.502-2.08-.387Zm.249 10.87c-.751.071-1.501.426-2.279.97-1.801 1.26-3.961 1.251-5.836.007-.853-.565-1.487-.903-2.16-.97-.656-.065-1.434.122-2.572.816-1.366.872-2.452 1.29-3.616 1.067a3.834 3.834 0 0 1-.717-.215.5.5 0 0 1 .375-.927c.185.075.361.127.531.16.773.148 1.579-.091 2.893-.93l.009-.006c1.238-.755 2.239-1.055 3.196-.96.94.093 1.754.562 2.613 1.132 1.55 1.028 3.263 1.02 4.71.007.845-.591 1.763-1.052 2.759-1.146 1.014-.096 2.049.195 3.103.995l.002.001.827.632a.5.5 0 1 1-.607.795l-.826-.631h-.001c-.882-.67-1.672-.865-2.404-.796Zm-.002-5.452c-.75.07-1.5.425-2.279.97-1.8 1.26-3.961 1.25-5.836.007-.853-.566-1.486-.903-2.16-.97-.655-.065-1.434.122-2.572.816-1.121.715-2.058 1.128-3.007 1.126-.959-.003-1.832-.429-2.824-1.145a.5.5 0 0 1 .586-.811c.936.676 1.597.954 2.241.956.653.002 1.387-.28 2.47-.972l.009-.006c1.238-.755 2.239-1.054 3.196-.96.941.094 1.754.563 2.614 1.133 1.549 1.027 3.263 1.019 4.71.007.845-.591 1.762-1.053 2.758-1.146 1.015-.096 2.049.195 3.104.995l.001.001.827.632a.5.5 0 1 1-.607.795l-.826-.631c-.882-.67-1.673-.866-2.405-.797Zm0 10.903c-.75.071-1.5.426-2.279.97-1.8 1.26-3.961 1.251-5.836.007-.853-.565-1.486-.903-2.16-.97-.655-.065-1.434.122-2.572.816-1.121.716-2.058 1.129-3.007 1.126-.959-.003-1.832-.429-2.824-1.145a.5.5 0 0 1 .586-.81c.936.675 1.597.953 2.241.955.653.002 1.387-.28 2.47-.972l.009-.005c1.238-.755 2.239-1.055 3.196-.96.941.093 1.754.562 2.614 1.132 1.549 1.028 3.263 1.02 4.71.007.845-.591 1.762-1.052 2.758-1.146 1.015-.096 2.049.195 3.104.995l.001.001.827.632a.5.5 0 1 1-.607.795l-.826-.631c-.883-.67-1.673-.866-2.405-.797Zm4.033-15.386a.5.5 0 1 1-1 0 .5.5 0 0 1 1 0ZM2.039 15.226a.5.5 0 1 1-1 0 .5.5 0 0 1 1 0Z" fill="#18303F" yggColor="iconDefault"/></g></svg>