<svg width="25" height="25" viewBox="0 0 25 25" fill="none"><g id="integration"><path fill-rule="evenodd" clip-rule="evenodd" d="M5.5 2.5a3 3 0 0 0-3 3v3a3 3 0 0 0 3 3h3a3 3 0 0 0 3-3v-3a3 3 0 0 0-3-3h-3Zm3 1h-3a2 2 0 0 0-2 2v3a2 2 0 0 0 2 2h3a2 2 0 0 0 2-2v-3a2 2 0 0 0-2-2Zm-6 13a3 3 0 0 1 3-3h3a3 3 0 0 1 3 3v3a3 3 0 0 1-3 3h-3a3 3 0 0 1-3-3v-3Zm3-2h3a2 2 0 0 1 2 2v3a2 2 0 0 1-2 2h-3a2 2 0 0 1-2-2v-3a2 2 0 0 1 2-2Zm11-1a3 3 0 0 0-3 3v3a3 3 0 0 0 3 3h3a3 3 0 0 0 3-3v-3a3 3 0 0 0-3-3h-3Zm5 3a2 2 0 0 0-2-2h-3a2 2 0 0 0-2 2v3a2 2 0 0 0 2 2h3a2 2 0 0 0 2-2v-3ZM18 2.5a.5.5 0 0 1 .5.5v3.5H22a.5.5 0 0 1 0 1h-3.5V11a.5.5 0 0 1-1 0V7.5H14a.5.5 0 0 1 0-1h3.5V3a.5.5 0 0 1 .5-.5Z" fill="#18303F" yggColor="iconDefault"/></g></svg>