<svg width="25" height="25" viewBox="0 0 25 25" fill="none"><g id="jar"><path fill-rule="evenodd" clip-rule="evenodd" d="M7.725 3.234c0-.202.168-.35.35-.35h8.84c.203 0 .35.168.35.35v1.785c0 .033.004.066.01.098.003.012.006.063-.064.133a.425.425 0 0 1-.295.12H8.075a.352.352 0 0 1-.35-.351V3.234Zm.35-1.35c-.668 0-1.35.532-1.35 1.35v1.785c0 .16.03.321.088.473a.558.558 0 0 0-.054.055L3.623 9.276c-.161.174-.371.558-.16.982.069.136.186.306.374.424.08.05.17.088.265.11-.007.118-.007.228-.007.324v6.23c0 3.166 2.604 5.77 5.77 5.77h5.27c3.168 0 5.772-2.604 5.772-5.77v-6.23c0-.092 0-.197-.006-.31a.966.966 0 0 0 .45-.248.911.911 0 0 0 .019-1.284l-3.134-3.727a.989.989 0 0 0-.03-.032c.062-.164.088-.346.06-.538V3.234c0-.668-.532-1.35-1.35-1.35H8.075Zm-2.98 9.256c0-.248.003-.417.049-.573.747-.275 1.268-.522 1.675-.715l.163-.077c.513-.24.788-.345 1.18-.345h.02c.77-.034 1.254.33 1.86.831l.07.057c.575.476 1.29 1.067 2.385 1.067 1.103 0 1.818-.578 2.402-1.05l.048-.039c.609-.491 1.102-.866 1.886-.866.347 0 .619.102 1.15.347l.154.07c.42.195.959.445 1.722.723.044.155.048.323.048.57v6.206c0 2.614-2.157 4.77-4.771 4.77H9.865c-2.614 0-4.77-2.156-4.77-4.77V11.14Zm2.279-4.77L4.563 9.712a17.434 17.434 0 0 0 1.829-.765l.165-.078c.526-.247.97-.438 1.594-.44 1.18-.048 1.926.563 2.528 1.06.625.515 1.088.895 1.818.895.737 0 1.203-.367 1.822-.867l.01-.008c.6-.484 1.339-1.08 2.504-1.08.588 0 1.039.195 1.569.438l.154.072c.458.212 1.03.477 1.876.773L17.62 6.37H7.374Zm.668 12.7c0 .365.227.653.465.815l.009.006 1.472.952c.335.224.732.187 1.044.028a.65.65 0 0 0 .042-.025l1.427-.916 1.422.913c.335.224.73.187 1.043.028a.477.477 0 0 0 .043-.025l1.72-1.105a.5.5 0 0 0 .23-.42v-2.26a.5.5 0 0 0-.23-.422L14.944 15.5v-1.754a.5.5 0 0 0-.231-.421l-1.968-1.255a.5.5 0 0 0-.538 0l-1.967 1.255a.5.5 0 0 0-.231.421v1.81l-1.433.878a.512.512 0 0 0-.096.076l-.02.02c-.14.14-.366.371-.37.774l-.048 1.752v.014Zm4.984.009v-1.771l1.463-.912 1.47.939v1.712l-1.465.941a.164.164 0 0 1-.034.011l-1.434-.92Zm-1.05-1.776-1.423-.908-1.401.859a1.307 1.307 0 0 0-.061.066v.006l-.048 1.71v.002a.197.197 0 0 0 .023.018l1.459.943a.175.175 0 0 0 .035-.01l1.416-.91v-1.776Zm-.967-1.822 1.467.937 1.468-.937v-1.46l-1.468-.937-1.467.937v1.46Z" fill="#18303F" id="iconDefault"/></g></svg>