<svg width="25" height="25" viewBox="0 0 25 25" fill="none"><g id="key"><path fill-rule="evenodd" clip-rule="evenodd" d="M13.189 3.35a6.225 6.225 0 0 0-8.841 0 6.186 6.186 0 0 0 0 8.82 6.212 6.212 0 0 0 7.114 1.193l2.082 2.074-1.37 1.367a.948.948 0 0 0-.295.673c0 .269.12.501.295.674l1.676 1.671a.953.953 0 0 0 .673.294c.268 0 .5-.121.674-.294l.506-.506a.5.5 0 0 0-.707-.707l-.473.473-1.61-1.605 1.692-1.686a.5.5 0 0 0 0-.708l-2.698-2.688a.5.5 0 0 0-.6-.08 5.212 5.212 0 0 1-6.253-.853 5.186 5.186 0 0 1 0-7.404 5.225 5.225 0 0 1 7.429 0c1.663 1.658 1.978 4.263.856 6.232a.499.499 0 0 0 .08.602l3.992 3.98 1.674 1.717.005.005 1.726 1.72a.109.109 0 0 0 .007.008l.002.002.004.004.65.602-2.575 2.568a.5.5 0 1 0 .706.709l2.588-2.581c.357-.356.428-.97.05-1.348l-.007-.005-.004-.005-.003-.003-.72-.665L19.8 15.89l-1.674-1.718-.005-.005-3.732-3.722c1.123-2.308.693-5.208-1.2-7.094Zm5.117 16.131a.5.5 0 0 0-.706-.708l-1.726 1.721a.952.952 0 0 0-.295.674c0 .268.122.5.295.673l.522.522a.5.5 0 1 0 .707-.707l-.488-.488 1.69-1.686ZM8.796 10.5a2.703 2.703 0 1 0 0-5.406 2.703 2.703 0 0 0 0 5.406Zm0-1a1.703 1.703 0 1 0 .001-3.406 1.703 1.703 0 0 0 0 3.406Zm8.286 8.29a.5.5 0 1 1-1 0 .5.5 0 0 1 1 0Zm1.44 5.202a.5.5 0 1 1-.998.001.5.5 0 0 1 .999 0Z" fill="#18303F" id="iconDefault"/></g></svg>