<svg width="25" height="25" viewBox="0 0 25 25" fill="none"><g id="khz"><path fill-rule="evenodd" clip-rule="evenodd" d="M.5 9A8.5 8.5 0 0 1 9 .5h7A8.5 8.5 0 0 1 24.5 9v7a8.5 8.5 0 0 1-8.5 8.5H9A8.5 8.5 0 0 1 .5 16V9ZM9 1.5A7.5 7.5 0 0 0 1.5 9v7A7.5 7.5 0 0 0 9 23.5h7a7.5 7.5 0 0 0 7.5-7.5V9A7.5 7.5 0 0 0 16 1.5H9Zm3.5 3.485a.5.5 0 0 0-.5.5v13.91a.5.5 0 0 0 1 0V5.485a.5.5 0 0 0-.5-.5Zm-2 1.49a.5.5 0 0 1 .5.5v10.929a.5.5 0 0 1-1 0V6.976a.5.5 0 0 1 .5-.5ZM9 7.97a.5.5 0 0 0-1 0v8.94a.5.5 0 0 0 1 0v-8.94ZM7 9.46a.5.5 0 0 0-1 0v5.958a.5.5 0 0 0 1 0V9.46Zm7.5-2.985a.5.5 0 0 0-.5.5v10.928a.5.5 0 0 0 1 0V6.976a.5.5 0 0 0-.5-.5Zm2 .993a.5.5 0 0 0-.5.5v8.94a.5.5 0 0 0 1 0v-8.94a.5.5 0 0 0-.5-.5Zm2 1.492a.5.5 0 0 0-.5.5v5.958a.5.5 0 0 0 1 0V9.46a.5.5 0 0 0-.5-.5Z" fill="#18303F" id="iconDefault"/></g></svg>