<svg width="25" height="25" viewBox="0 0 25 25" fill="none"><g id="leaf_water"><path fill-rule="evenodd" clip-rule="evenodd" d="M21.705 5.658a52.396 52.396 0 0 0-2.274-3.714 52.074 52.074 0 0 0-2.273 3.714 21.38 21.38 0 0 0-1.094 2.255c-.286.713-.438 1.291-.438 1.683 0 2.114 1.667 3.775 3.805 3.775s3.805-1.66 3.805-3.775c0-.392-.152-.97-.438-1.683-.28-.7-.668-1.479-1.093-2.255ZM19.291.898a.827.827 0 0 1 .632.123.571.571 0 0 1 .314.328 53.735 53.735 0 0 1 2.345 3.828c.435.795.844 1.613 1.144 2.364.296.737.51 1.463.51 2.055 0 2.673-2.12 4.775-4.805 4.775-2.683 0-4.805-2.102-4.805-4.775 0-.592.215-1.318.51-2.055.301-.751.71-1.57 1.145-2.364a53.495 53.495 0 0 1 2.391-3.896.496.496 0 0 1 .062-.076c.14-.138.331-.262.557-.307ZM.79 12.166C.979 9.82 2.196 7.552 4.947 6.057a40.546 40.546 0 0 0-2.55-2.047.5.5 0 0 1 .594-.804 41.52 41.52 0 0 1 2.762 2.228l.025-.02c1.412-1.977 3.421-2.695 5.292-2.719 1.866-.023 3.645.642 4.632 1.482a.5.5 0 0 1-.649.762c-.777-.663-2.313-1.265-3.97-1.244-1.634.02-3.336.643-4.53 2.356a.503.503 0 0 1-.05.06 41.897 41.897 0 0 1 8.724 11.457c1.711 2.854 2.664 4.098 4.21 4.937-.608-1.798-.605-3.453-.602-4.69.002-.088.002-.175.002-.259a.5.5 0 0 1 1 0c0 .08 0 .162-.002.245v.004c-.002 1.271-.004 2.82.59 4.498.11.225.108.461.093.612a2.514 2.514 0 0 1-.08.405l-.002.007a.705.705 0 0 1-.274.383c-.09.063-.186.109-.256.14l-.121.05-.03.013-.052.02a1 1 0 0 0-.117.054.501.501 0 0 1-.21.065c-2.547.207-6.004-.06-9.153-.895-3.115-.825-6.067-2.24-7.461-4.428C1.46 16.956.6 14.538.789 12.166Zm13.572 5.903c1.57 2.621 2.593 4.057 4.122 5.034-2.332.089-5.288-.193-8.006-.913-3.07-.813-5.703-2.15-6.88-4.01a.374.374 0 0 0-.02-.03c-1.188-1.614-1.958-3.806-1.79-5.904.166-2.068 1.242-4.08 3.83-5.412a.516.516 0 0 0 .1-.07l.01-.008a40.9 40.9 0 0 1 8.634 11.313Zm5.07-1.99a.5.5 0 1 0 0-1 .5.5 0 0 0 0 1Z" fill="#18303F" id="iconDefault"/></g></svg>