<svg width="25" height="25" viewBox="0 0 25 25" fill="none"><g id="link"><path d="M5.209 2.5A2.71 2.71 0 0 0 2.5 5.209v14.582A2.71 2.71 0 0 0 5.209 22.5h14.582a2.71 2.71 0 0 0 2.709-2.709v-5.207a.625.625 0 0 0-1.25 0v5.207a1.46 1.46 0 0 1-1.459 1.459H5.209a1.459 1.459 0 0 1-1.459-1.459V5.209A1.459 1.459 0 0 1 5.209 3.75h5.207a.625.625 0 0 0 0-1.25H5.209Zm11.457 0a.625.625 0 1 0 0 1.25h3.7l-6.745 6.746a.624.624 0 1 0 .883.883l6.746-6.744v3.699a.625.625 0 1 0 1.25 0V3.125a.622.622 0 0 0-.387-.578.618.618 0 0 0-.238-.047h-5.209Z" fill="#18303F" id="iconDefault"/></g></svg>