<svg width="25" height="25" viewBox="0 0 25 25" fill="none"><g id="lock_bad_colorful"><path fill-rule="evenodd" clip-rule="evenodd" d="M12.5 24C18.851 24 24 18.851 24 12.5S18.851 1 12.5 1 1 6.149 1 12.5 6.149 24 12.5 24Zm0 1C19.404 25 25 19.404 25 12.5S19.404 0 12.5 0 0 5.596 0 12.5 5.596 25 12.5 25Z" fill="#6D7B82" yggColor="iconWeak"/><path d="M8.793 14.793a1 1 0 1 0 1.414 1.414l2.293-2.293 2.293 2.293a1 1 0 0 0 1.414-1.414L13.914 12.5l2.293-2.293a1 1 0 0 0-1.414-1.414L12.5 11.086l-2.293-2.293a1 1 0 0 0-1.414 1.414l2.293 2.293-2.293 2.293Z" fill="#F28102" yggColor="backgroundWarningDefault"/></g></svg>