<svg width="25" height="25" viewBox="0 0 25 25" fill="none"><g id="login"><path fill-rule="evenodd" clip-rule="evenodd" d="M14.9.71C9.26-.439 3.733 2.593 1.443 7.8a.5.5 0 1 0 .915.403C4.467 3.407 9.541.639 14.701 1.69 19.866 2.742 23.5 7.236 23.5 12.5c0 5.265-3.634 9.758-8.799 10.81-5.166 1.052-10.332-1.722-12.34-6.503a.5.5 0 1 0-.922.387c2.192 5.219 7.826 8.244 13.461 7.096 5.635-1.148 9.6-6.054 9.6-11.79 0-5.735-3.965-10.642-9.6-11.79Zm-1.546 7.437a.5.5 0 1 0-.707.707L15.793 12H3a.5.5 0 0 0 0 1h12.793l-3.146 3.147a.5.5 0 0 0 .707.707l4-4a.5.5 0 0 0 0-.707l-4-4ZM1 13a.5.5 0 1 0 0-1 .5.5 0 0 0 0 1Z" fill="#18303F" yggColor="iconDefault"/></g></svg>