<svg width="25" height="25" viewBox="0 0 25 25" fill="none"><g id="lounge"><path fill-rule="evenodd" clip-rule="evenodd" d="M9.854 8.613a.5.5 0 0 0-.722.692l.27.282-.27.282a.5.5 0 0 0 .722.692l.241-.252.24.252a.5.5 0 1 0 .722-.692l-.27-.282.27-.282a.5.5 0 1 0-.722-.692l-.24.251-.24-.25Zm4.811-.006a.5.5 0 0 0-.71.704l.252.256-.253.255a.5.5 0 1 0 .711.704l.246-.249.246.249a.5.5 0 0 0 .711-.704l-.253-.255.253-.256a.5.5 0 1 0-.71-.704l-.247.249-.246-.249Zm-1.647.352a.5.5 0 1 1-1 0 .5.5 0 0 1 1 0Zm-.498-7.782a8.786 8.786 0 0 0-3.859.893 8.868 8.868 0 0 0-3.085 2.5 9.006 9.006 0 0 0-1.771 7.098 3.3 3.3 0 0 0-2.115 1.646 3.338 3.338 0 0 0 .325 3.654c.312.392.707.707 1.155.922a2.37 2.37 0 0 0-.013.239V19.6a2.385 2.385 0 0 0 .7 1.663 2.335 2.335 0 0 0 1.663.68h.426v1.379a.5.5 0 0 0 1 0v-1.38h11.106v1.38a.5.5 0 0 0 1 0v-1.38h.428a2.324 2.324 0 0 0 1.668-.677 2.357 2.357 0 0 0 .697-1.668V18.13c0-.081-.005-.162-.012-.241a3.331 3.331 0 0 0 1.86-2.698 3.338 3.338 0 0 0-.384-1.876 3.307 3.307 0 0 0-2.076-1.636 8.997 8.997 0 0 0-1.77-7.108 8.868 8.868 0 0 0-3.085-2.5 8.782 8.782 0 0 0-3.858-.894Zm7.715 10.402a8.035 8.035 0 0 0-.052-3.188 7.976 7.976 0 0 0-1.508-3.204 7.863 7.863 0 0 0-2.737-2.218 7.783 7.783 0 0 0-6.837 0 7.875 7.875 0 0 0-2.738 2.218 8.01 8.01 0 0 0-1.558 6.395l.1.008a3.276 3.276 0 0 1 1.76.73 3.321 3.321 0 0 1 1.21 2.693 28.311 28.311 0 0 1 4.604-.615h.052c1.546.078 3.082.283 4.594.612a3.32 3.32 0 0 1 1.21-2.69 3.276 3.276 0 0 1 1.9-.74ZM6.446 20.943H19.491a1.323 1.323 0 0 0 .953-.386 1.36 1.36 0 0 0 .4-.962V18.13c0-.294-.093-.58-.264-.816a1.367 1.367 0 0 0-.686-.498l-.01-.003c-.704-.24-1.416-.45-2.137-.63a.498.498 0 0 1-.256-.063 27.318 27.318 0 0 0-4.986-.722c-1.689.087-3.364.33-5.005.727a.503.503 0 0 1-.238.058c-.72.181-1.432.39-2.137.63l-.01.004c-.276.086-.518.26-.69.496a1.398 1.398 0 0 0-.268.818v1.463a1.387 1.387 0 0 0 .404.96 1.338 1.338 0 0 0 .953.39h.932Zm13.757-5.078a28.494 28.494 0 0 0-2.052-.611 2.341 2.341 0 0 1 .819-2.161 2.277 2.277 0 0 1 2.518-.248c.398.213.724.541.94.943a2.342 2.342 0 0 1-.228 2.558 2.313 2.313 0 0 1-.68.58 2.365 2.365 0 0 0-1.317-1.06Zm-13.355-.608c-.686.176-1.366.38-2.039.607a2.36 2.36 0 0 0-1.326 1.063 2.334 2.334 0 0 1-.912-3.14c.215-.4.543-.729.94-.942a2.268 2.268 0 0 1 2.52.248 2.329 2.329 0 0 1 .817 2.164Z" fill="#18303F" id="iconDefault"/></g></svg>