<svg width="25" height="25" viewBox="0 0 25 25" fill="none"><g id="luminance"><path fill-rule="evenodd" clip-rule="evenodd" d="M13 1a.5.5 0 0 0-1 0v2.074a.5.5 0 0 0 1 0V1ZM4.744 4.041a.5.5 0 1 0-.707.707l1.508 1.509a.5.5 0 1 0 .707-.708L4.744 4.041ZM1 12.001a.5.5 0 0 0 0 1h2.074a.5.5 0 0 0 0-1H1Zm5.252 7.64a.5.5 0 0 0-.707-.707l-1.508 1.509a.5.5 0 0 0 .707.707l1.508-1.508ZM13 21.927a.5.5 0 0 0-1 0V24a.5.5 0 0 0 1 0v-2.074Zm6.639-2.991a.5.5 0 0 0-.707.707l1.508 1.508a.5.5 0 1 0 .707-.707l-1.508-1.508ZM21.926 12a.5.5 0 0 0 0 1H24a.5.5 0 0 0 0-1h-2.074Zm-.779-7.253a.5.5 0 0 0-.707-.707L18.932 5.55a.5.5 0 1 0 .707.707l1.508-1.508ZM7 12.501C7 9.356 9.557 7 12.5 7c3.109 0 5.5 2.166 5.5 5.324 0 3.146-2.557 5.502-5.5 5.502-2.918 0-5.5-2.154-5.5-5.324Zm5.5 4.324V7.999C10.086 8 8 9.931 8 12.501c0 2.548 2.061 4.324 4.5 4.324Z" fill="#18303F" id="iconDefault"/></g></svg>