<svg width="26" height="25" viewBox="0 0 26 25" fill="none"><g id="manual_book"><path fill-rule="evenodd" clip-rule="evenodd" d="M.98 1.984c0-.196.061-.318.129-.388.064-.068.17-.124.336-.125 3.07.1 5.396.715 6.938 1.502.773.394 1.333.823 1.695 1.237.363.417.503.79.503 1.086v10.202a.49.49 0 1 0 .98 0V5.269c.01-.277.162-.636.546-1.046.392-.419.99-.851 1.79-1.248 1.597-.79 3.927-1.405 6.8-1.504.167.001.272.057.337.125.067.07.128.192.128.388v13.049a.49.49 0 0 0 .98 0V1.984c0-.406-.131-.786-.4-1.067A1.43 1.43 0 0 0 20.69.49h-.017c-2.99.103-5.465.742-7.21 1.607-.872.432-1.577.928-2.072 1.456-.11.117-.211.238-.302.363a3.811 3.811 0 0 0-.272-.35C10.352 3.033 9.68 2.534 8.829 2.1 7.126 1.23 4.647.593 1.468.49h-.016C1.046.49.672.634.401.917.13 1.198 0 1.577 0 1.984v14.253c0 .403.189.77.437 1.03.246.256.604.462 1.01.464 2.132.044 3.899.358 5.296.808a.49.49 0 1 0 .3-.933c-1.499-.483-3.363-.81-5.58-.856h-.01c-.074 0-.194-.043-.308-.162a.542.542 0 0 1-.165-.351V1.984Zm13.547 9.38v9.929a.49.49 0 0 1-.865.316l-2.4-2.844v-.002a1.098 1.098 0 0 0-.73-.35c-.3-.028-.584.05-.782.21-.417.339-.482 1.037-.148 1.432l2.816 3.148a.49.49 0 1 1-.731.653l-2.82-3.152-.007-.008c-.707-.825-.562-2.157.273-2.834.428-.348.98-.473 1.49-.425.51.048 1.027.273 1.384.69l.002.003 1.537 1.822v-8.623c0-.02.002-.042.004-.063.133-1.033 1.051-1.952 2.157-1.952 1.094 0 2.057.919 2.057 2.015v6.118h2.643c2.556 0 4.668 2.038 4.668 4.557v1.525a.49.49 0 0 1-.98 0v-1.525c0-1.953-1.649-3.576-3.688-3.576h-3.133a.49.49 0 0 1-.49-.49v-6.609c0-.53-.5-1.035-1.076-1.035-.556 0-1.092.488-1.181 1.07Z" fill="#18303F" id="iconDefault"/></g></svg>