<svg width="25" height="25" viewBox="0 0 25 25" fill="none"><g id="media"><path fill-rule="evenodd" clip-rule="evenodd" d="M19.507 5.225v7.758H17c-1.976 0-3.5 1.524-3.5 3.5s1.524 3.5 3.5 3.5h.031a3.726 3.726 0 0 0 3.468-3.469l.001-.015v-2.986a.466.466 0 0 0 .007-.083v-11c0-.405-.138-.873-.586-1.191a1.159 1.159 0 0 0-.688-.27 1.777 1.777 0 0 0-.716.098L9.439 4.808C8.761 5 8.5 5.664 8.5 6.183v10.8H6c-1.976 0-3.5 1.524-3.5 3.5s1.524 3.5 3.5 3.5h.031a3.726 3.726 0 0 0 3.468-3.469l.001-.031V9.319l10.007-4.094Zm-.628-3.226L9.791 5.745a.516.516 0 0 1-.07.023.233.233 0 0 0-.145.115.583.583 0 0 0-.076.3v2.055l10.007-4.094V2.43c0-.185-.055-.303-.177-.384a.428.428 0 0 1-.071-.058c-.006-.003-.035-.017-.103-.022a.783.783 0 0 0-.277.033ZM14.5 16.483c0-1.424 1.076-2.5 2.5-2.5h2.5v2.484a2.726 2.726 0 0 1-2.516 2.516c-1.416-.008-2.484-1.081-2.484-2.5Zm-11 4c0-1.424 1.076-2.5 2.5-2.5h2.5v2.484a2.726 2.726 0 0 1-2.516 2.516c-1.416-.008-2.484-1.081-2.484-2.5Z" fill="#18303F" yggColor="iconDefault"/></g></svg>