<svg width="25" height="25" viewBox="0 0 25 25" fill="none"><g id="movement_something"><path d="M2 3.999a1 1 0 0 0 0 2h3a1 1 0 1 0 0-2H2Zm6 0a1 1 0 1 0 0 2 1 1 0 0 0 0-2Zm3 0a1 1 0 1 0 0 2h3.51l-.608 1.574A1 1 0 0 0 13 7h-3a1 1 0 1 0 0 2h3a.991.991 0 0 0 .379-.076l-.346.896a.518.518 0 0 0-.017.059c-.056.22-.093.447-.123.676A1 1 0 0 0 12 9.999H6a1.002 1.002 0 0 0 0 2.002h1.93a10.04 10.04 0 0 0-1.58.365c-.944.318-1.403.038-1.94-.355-.19-.14-.378-.297-.584-.446A1.002 1.002 0 0 0 3 10H2c-.552 0-1 .45-1 1.002 0 .492.356.897.824.98-.235.624-.324 1.109-.324 2.026 0 .77.446 1.388.92 1.818.072.066.147.119.22.176H2a1 1 0 1 0 0 2h1c.158 0 .305-.04.438-.106.01.434.022.872.04 1.233A.987.987 0 0 0 3 19H1a1 1 0 1 0 0 2h2a.99.99 0 0 0 .611-.215c.051.448.11.845.178 1.215H3a1 1 0 1 0 0 2h1a.992.992 0 0 0 .625-.225c.027.035.053.071.082.106a.5.5 0 0 0 .385.181h2.607a.505.505 0 0 0 .084-.066H9.27a.5.5 0 0 0 .375-.172l1.203-1.37h.43c.2 0 .274.053.312.241a.445.445 0 0 0 .006.024l.24.965a.5.5 0 0 0 .484.379h1.88a.5.5 0 0 0 .491-.584s-.034-.229.106-.47c.14-.24.445-.556 1.539-.556.166 0 .301-.093.463-.115l1.984 1.55a.5.5 0 0 0 .309.108h1.605a.5.5 0 0 0 .492-.412c.287-1.58.178-2.673-.091-3.686-.215-.807-.519-1.676-.8-2.656.818.047 1.618.004 2.337-.256 1.182-.427 1.927-1.355 2.286-2.786a.5.5 0 0 0-.035-.341c-.371-.755-.57-2.315-1.294-3.785-.69-1.399-1.748-2.737-3.397-3.306-.018-.02-.487-.541-1.021-1-.272-.234-.545-.45-.854-.584-.154-.068-.33-.135-.576-.08-.227.05-.413.283-.486.49-.175-.175-.202-.223-.422-.412-.272-.234-.543-.451-.852-.586-.028-.013-.059-.024-.09-.035A.997.997 0 0 0 15 3.999h-4Zm4.766 1.639c.12.074.254.16.42.302.477.41.95.932.95.932a.5.5 0 0 0 .856-.213l.11-.43c.126.081.253.156.42.3.477.41.953.931.953.931a.5.5 0 0 0 .212.102.486.486 0 0 0 .022.039c1.42.401 2.32 1.564 2.986 2.916.53 1.077.875 2.178 1.229 3.072l-.319-.08a.5.5 0 0 0-.244.97l.23.057a2.196 2.196 0 0 1-.173.285 1.222 1.222 0 0 1-.443.397c-.157.075-.36.115-.64.045a.499.499 0 0 0-.405.894c-.866.217-1.918.178-2.977-.088l-2.6-.654c-1.01-.254-1.719-1.01-2.132-2.016a5.455 5.455 0 0 1-.239-3.26l1.708-4.417c.027-.026.051-.055.076-.084ZM2 6.999a1 1 0 1 0 0 2 1 1 0 0 0 0-2Zm3 0a1 1 0 0 0 0 2h2a1 1 0 1 0 0-2H5Zm15.408 4.379a.76.76 0 1 0-.065 1.518.76.76 0 0 0 .065-1.518Zm-7.57.166c.002.1.003.2.01.3-.097-.007-.193-.009-.29-.015.112-.075.207-.173.28-.285Zm-9.96.662c.056.02.092-.004.17.043.202.12.459.339.772.568.628.46 1.592.922 2.85.498 1.33-.447 3.932-.701 6.41-.472.074.314.095.642.217.937.503 1.222 1.448 2.263 2.812 2.606l2.6.652c.168.042.335.032.504.064.327 1.265.697 2.225.918 3.055.212.798.22 1.683.064 2.84h-.931l-1.23-.963c.04-.019.094-.013.134-.033a.5.5 0 1 0-.45-.895 3.178 3.178 0 0 1-1.382.348c-1.316 0-2.077.491-2.404 1.055-.16.275-.093.342-.11.555h-1.111l-.14-.563c-.124-.616-.692-1.047-1.294-1.047H8.502a.5.5 0 0 0-.379.225c-.323.186-.581.45-.668.799l-.146.585H5.387a3.987 3.987 0 0 1-.608-1.226c-.236-1.262-.394-2.448-.394-5.783a.5.5 0 0 0-.5-.5c.028 0-.118-.024-.276-.106a2.557 2.557 0 0 1-.52-.365c-.342-.31-.589-.715-.589-1.076 0-.923.134-1.21.379-1.8Zm13.077 4.957a.76.76 0 1 0-.065 1.518.76.76 0 0 0 .065-1.518ZM8.8 22.454h.719l-.475.543h-.54l.296-.543Z" fill="#18303F" id="iconDefault"/></g></svg>