<svg width="25" height="25" viewBox="0 0 25 25" fill="none"><g id="multiple_channels"><path fill-rule="evenodd" clip-rule="evenodd" d="M12.5 15a2.5 2.5 0 1 0 0-5 2.5 2.5 0 0 0 0 5Zm0 1a3.5 3.5 0 1 0 0-7 3.5 3.5 0 0 0 0 7Zm-9.857-2.5a1 1 0 1 0 0-2 1 1 0 0 0 0 2Zm0 1a2 2 0 1 0 0-4 2 2 0 0 0 0 4Zm20.714-2a1 1 0 1 1-2 0 1 1 0 0 1 2 0Zm1 0a2 2 0 1 1-4 0 2 2 0 0 1 4 0Zm-18.714-.04a.5.5 0 0 1 .5-.5H7.5a.5.5 0 0 1 0 1H6.143a.5.5 0 0 1-.5-.5Zm11.857-.5a.5.5 0 0 0 0 1h1.357a.5.5 0 0 0 0-1H17.5Z" fill="#18303F" id="iconDefault"/></g></svg>