<svg width="25" height="25" viewBox="0 0 25 25" fill="none"><g id="notification"><path fill-rule="evenodd" clip-rule="evenodd" d="M5.66 2.456a2.5 2.5 0 0 0-2.5 2.5v10.545a2.5 2.5 0 0 0 2.5 2.5h4.184c.663 0 1.203.431 1.448.979a6.024 6.024 0 0 0 5.431 3.564l-.001-.002a6.989 6.989 0 0 1-1.258-2.943c-.158-.91.601-1.598 1.414-1.598h2.46a2.5 2.5 0 0 0 2.5-2.5V4.956a2.5 2.5 0 0 0-2.5-2.5H5.66Zm-3.5 2.5a3.5 3.5 0 0 1 3.5-3.5h13.677a3.5 3.5 0 0 1 3.5 3.5v10.545a3.5 3.5 0 0 1-3.5 3.5h-2.459c-.305 0-.462.234-.428.426.162.932.539 1.79 1.078 2.523.223.304.257.685.133.999a.924.924 0 0 1-.87.595 7.024 7.024 0 0 1-6.412-4.156c-.11-.248-.328-.387-.535-.387H5.66a3.5 3.5 0 0 1-3.5-3.5V4.956Z" fill="#18303F" id="iconDefault"/></g></svg>