<svg width="25" height="25" viewBox="0 0 25 25" fill="none"><g id="omega"><path d="M12.501 2.43c-4.747 0-8.544 3.62-8.544 8.026 0 3.541 2.448 6.57 5.878 7.628a.5.5 0 0 1 .344.57v.974a.494.494 0 0 1-.019.137l-.988 3.443a.5.5 0 0 1-.481.363H2.25a.5.5 0 0 1-.5-.5v-4.824a.5.5 0 0 1 1 0v4.323h5.564l.865-3.013v-.636c-3.618-1.271-6.222-4.569-6.222-8.465 0-5.013 4.301-9.026 9.544-9.026s9.544 4.013 9.544 9.026c0 3.894-2.6 7.19-6.214 8.462v.63l.856 3.023h5.563v-4.324a.5.5 0 0 1 1 0v4.823a.5.5 0 0 1-.5.5h-6.441a.5.5 0 0 1-.481-.363l-.978-3.454a.483.483 0 0 1-.019-.136v-.928a.496.496 0 0 1 .05-.375.5.5 0 0 1 .45-.283h.002c3.343-1.103 5.712-4.091 5.712-7.575 0-4.406-3.797-8.026-8.544-8.026Z" fill="#18303F" id="iconDefault"/></g></svg>