<svg width="25" height="25" viewBox="0 0 25 25" fill="none"><g id="outdoors"><path fill-rule="evenodd" clip-rule="evenodd" d="M18.882.864a.8.8 0 0 1 1.214.375c.527 1.31 1.69 4.247 2.722 7.134a77.956 77.956 0 0 1 1.361 4.106c.351 1.195.6 2.247.6 2.88v.014a5.3 5.3 0 0 1-4.932 5.134v3.277a.5.5 0 0 1-1 0v-3.265a4.976 4.976 0 0 1-2.675-.935v3.889a.827.827 0 0 1-.191.54.768.768 0 0 1-.553.27h-2.611a.744.744 0 0 1-.553-.27.803.803 0 0 1-.19-.54v-1.506h-.975l-.004 1.506a.831.831 0 0 1-.191.54.768.768 0 0 1-.553.27H7.762a.743.743 0 0 1-.552-.27.804.804 0 0 1-.191-.54v-1.517a.5.5 0 0 1-.106.01H5.722a.501.501 0 0 1-.152-.022v1.529a.83.83 0 0 1-.19.54.768.768 0 0 1-.553.27H2.215a.744.744 0 0 1-.552-.27.806.806 0 0 1-.191-.54v-8.137a.88.88 0 0 1 .192-.54l1.29-1.522a.738.738 0 0 1 .56-.274h.004a.73.73 0 0 1 .568.27l1.283 1.525c.133.154.2.35.201.545v1.017a.501.501 0 0 1 .152-.023h1.191a.5.5 0 0 1 .106.011v-1.009a.881.881 0 0 1 .192-.54l1.29-1.524a.724.724 0 0 1 1.134.002l1.29 1.522a.88.88 0 0 1 .192.54v.007l-.003.991h.96v-.994c0-.195.067-.39.2-.545l1.284-1.524a.73.73 0 0 1 .568-.27h.003c.078 0 .155.013.227.038.992-3.61 3.412-9.748 4.239-11.8a.8.8 0 0 1 .287-.375Zm-7.78 20.103h.971v-3.633h-.961l-.01 3.633Zm3.156-6.596-.17-.178-1.015 1.205v7.885h2.099v-4.749a.502.502 0 0 1 0-.2v-2.945l-.772-.914a.498.498 0 0 1-.142-.104Zm1.914 3.885v-2.92a.88.88 0 0 0-.174-.517l-.01-.014-.008-.008-.802-.951c.797-3.198 3.154-9.256 4.167-11.792.58 1.452 1.609 4.075 2.531 6.656a76.881 76.881 0 0 1 1.344 4.05c.355 1.21.556 2.123.558 2.592a4.3 4.3 0 0 1-3.931 4.152v-1.957l1.716-1.847a.5.5 0 0 0-.733-.68l-.983 1.058v-5.46a.5.5 0 1 0-1 0v8.9a3.975 3.975 0 0 1-2.675-1.262ZM5.57 20.99a.501.501 0 0 1 .152-.023h1.191a.5.5 0 0 1 .106.011v-3.655a.5.5 0 0 1-.106.011H5.722a.501.501 0 0 1-.152-.023v3.68Zm-2.05-6.839L2.472 15.39v7.893H4.57v-7.885l-1.05-1.247ZM8.02 15.39l1.049-1.24 1.049 1.24-.022 7.893H8.02V15.39ZM19.347 9.67a.5.5 0 1 0 0-1 .5.5 0 0 0 0 1Zm-.895 3.637a.5.5 0 1 1-1 0 .5.5 0 0 1 1 0Zm4.145 1.102a.5.5 0 1 1-1 0 .5.5 0 0 1 1 0Zm-19.493-12c1.291-.05 2.489.747 2.967 1.964.615-.315 1.362-.31 2.022.01l.013.006c.91.472 1.35 1.478 1.16 2.46a.435.435 0 0 1-.006.03c-.255.994-1.099 1.675-2.135 1.675h-3.85C1.595 8.555.282 7.243.223 5.58.164 3.9 1.426 2.535 3.087 2.412l.017-.001Zm-1.88 3.133c-.041-1.125.793-2.045 1.928-2.133 1.034-.037 2.004.754 2.126 1.892a.5.5 0 0 0 .887.26c.337-.42.924-.551 1.486-.282.483.254.74.798.636 1.367-.149.557-.603.908-1.162.908h-3.85c-1.124 0-2.011-.87-2.052-2.012Z" fill="#18303F" id="iconDefault"/></g></svg>