<svg width="25" height="25" viewBox="0 0 25 25" fill="none"><g id="peak_timer_colorful"><path d="M6.25 12.5a3.125 3.125 0 1 1-6.25 0C0 19.387 5.57 24.974 12.452 25a3.125 3.125 0 0 1 .048-6.25V12.5H6.25Z" fill="#FED6E4" yggColor="backgroundCriticalWeak"/><path fill-rule="evenodd" clip-rule="evenodd" d="M3.125 13.702a1.202 1.202 0 1 0 0-2.404 1.202 1.202 0 0 0 0 2.404Zm9.375 9.375a1.202 1.202 0 1 0 0-2.404 1.202 1.202 0 0 0 0 2.404ZM6.25 12.5a3.125 3.125 0 1 1-6.25 0 3.125 3.125 0 0 1 6.25 0Zm9.375 9.375a3.125 3.125 0 1 1-6.25 0 3.125 3.125 0 0 1 6.25 0Z" fill="#C70546" yggColor="iconCritical"/><path fill-rule="evenodd" clip-rule="evenodd" d="M12.5 4.25a1.125 1.125 0 1 0 0-2.25 1.125 1.125 0 0 0 0 2.25Zm9.375 9.375a1.125 1.125 0 1 0 0-2.25 1.125 1.125 0 0 0 0 2.25Zm-6.25-10.5a3.125 3.125 0 1 1-6.25 0 3.125 3.125 0 0 1 6.25 0ZM25 12.5a3.125 3.125 0 1 1-6.25 0 3.125 3.125 0 0 1 6.25 0Z" fill="#18303F" yggColor="iconDefault"/></g></svg>