<svg width="25" height="25" viewBox="0 0 25 25" fill="none"><g id="pin_code"><path fill-rule="evenodd" clip-rule="evenodd" d="M3.11 5.785C3.11 2.899 5.508.5 8.394.5c2.887 0 5.285 2.399 5.285 5.285v2.57h.413a2.251 2.251 0 0 1 2.246 2.245v5.687a.5.5 0 0 1-1 0V10.6c0-.684-.562-1.246-1.246-1.246H2.746c-.684 0-1.246.562-1.246 1.246v6.22c0 .954.442 1.895 1.15 2.604.709.708 1.65 1.15 2.604 1.15h1.068a.5.5 0 0 1 0 1H5.254c-1.26 0-2.446-.579-3.311-1.443C1.078 19.266.5 18.08.5 16.82V10.6a2.251 2.251 0 0 1 2.246-2.246h.364v-2.57ZM8.394 1.5C6.06 1.5 4.11 3.451 4.11 5.785V8.33h8.569V5.785c0-2.334-1.951-4.285-4.285-4.285ZM9.94 14.398c0 .678-.437 1.254-1.045 1.462v.713a.5.5 0 0 1-1 0v-.714a1.545 1.545 0 1 1 2.045-1.461Zm-2.088 0a.544.544 0 1 1 .549.544h-.012a.544.544 0 0 1-.537-.544Zm4.838 5.872a.5.5 0 0 0-.707-.707l-.72.718-.718-.718a.5.5 0 1 0-.707.707l.719.718-.762.762a.5.5 0 0 0 .707.707l.762-.762.762.762a.5.5 0 0 0 .707-.707l-.762-.762.719-.718Zm5-.707a.5.5 0 0 1 0 .707l-.72.718.763.762a.5.5 0 0 1-.707.707l-.762-.762-.762.762a.5.5 0 1 1-.707-.707l.762-.762-.72-.718a.5.5 0 0 1 .708-.707l.719.718.719-.718a.5.5 0 0 1 .707 0Zm1.84 2.03a.5.5 0 0 0 0 1h2.453a.5.5 0 0 0 0-1H19.53ZM9 17.5A1.5 1.5 0 0 0 7.5 19v4A1.5 1.5 0 0 0 9 24.5h14a1.5 1.5 0 0 0 1.5-1.5v-4a1.5 1.5 0 0 0-1.5-1.5H9ZM8.5 19a.5.5 0 0 1 .5-.5h14a.5.5 0 0 1 .5.5v4a.5.5 0 0 1-.5.5H9a.5.5 0 0 1-.5-.5v-4Z" fill="#18303F" id="iconDefault"/></g></svg>