<svg width="25" height="25" viewBox="0 0 25 25" fill="none"><g id="placeholder"><path d="M4.688 2.54a2.148 2.148 0 0 0-2.149 2.147v1.954a.586.586 0 0 0 1.172 0V4.687c0-.539.437-.976.977-.976H6.64a.586.586 0 0 0 0-1.172H4.687Zm5.859 0a.586.586 0 0 0 0 1.17h3.906a.586.586 0 1 0 0-1.17h-3.906Zm7.812 0a.586.586 0 1 0 0 1.17h1.953c.54 0 .977.438.977.978V6.64a.586.586 0 1 0 1.172 0V4.687a2.148 2.148 0 0 0-2.148-2.148h-1.954ZM12.5 7.226a5.273 5.273 0 1 0 0 10.546 5.273 5.273 0 0 0 0-10.546Zm0 1.171a4.102 4.102 0 1 1 0 8.204 4.102 4.102 0 0 1 0-8.204ZM3.125 9.961a.586.586 0 0 0-.586.586v3.906a.586.586 0 1 0 1.172 0v-3.906a.586.586 0 0 0-.586-.586Zm18.75 0a.586.586 0 0 0-.586.586v3.906a.586.586 0 1 0 1.172 0v-3.906a.586.586 0 0 0-.586-.586Zm-18.75 7.812a.586.586 0 0 0-.586.586v1.953c0 1.187.962 2.149 2.148 2.149h1.954a.586.586 0 1 0 0-1.172H4.687a.977.977 0 0 1-.976-.977V18.36a.586.586 0 0 0-.586-.586Zm18.75 0a.586.586 0 0 0-.586.586v1.953c0 .54-.437.977-.977.977H18.36a.586.586 0 1 0 0 1.172h1.953a2.148 2.148 0 0 0 2.149-2.148v-1.954a.586.586 0 0 0-.586-.586ZM10.547 21.29a.586.586 0 1 0 0 1.172h3.906a.586.586 0 1 0 0-1.172h-3.906Z" fill="#18303F" yggColor="iconDefault"/></g></svg>