<svg width="25" height="25" viewBox="0 0 25 25" fill="none"><g id="plant"><path fill-rule="evenodd" clip-rule="evenodd" d="M12.595 1.32a.43.43 0 0 1 .026.015 45.397 45.397 0 0 1 2.419 4.62l-2.54 4.673-2.46-4.526c.694-1.644 1.573-3.206 2.555-4.782ZM9.412 4.946c.668-1.452 1.464-2.84 2.323-4.215.256-.477.754-.472.859-.47h.01c.178 0 .347.072.441.12.111.054.24.136.344.24a.49.49 0 0 1 .078.1 47.552 47.552 0 0 1 2.194 4.09l1.586-2.918c.095-.186.247-.35.436-.445a.735.735 0 0 1 .61-.029.86.86 0 0 1 .405.18c.154.123.247.283.309.408.003.006.007.012.009.019 1.012 2.247.784 4.82-.547 6.938-.518.926-1.284 1.682-2.193 2.234H21.354a.52.52 0 1 1 0 1.042h-.56l-.796 10.155c-.131 1.313-1.297 2.345-2.602 2.345H7.708c-1.305 0-2.47-1.033-2.601-2.345l-.001-.01L4.31 12.24h-.664a.52.52 0 1 1 0-1.042h5.12a6.742 6.742 0 0 1-2.229-2.225c-1.336-2.119-1.566-4.697-.553-6.947l.009-.02c.063-.124.155-.284.309-.407a.869.869 0 0 1 .405-.18.735.735 0 0 1 .61.03c.19.094.341.258.436.444l1.659 3.053Zm3.999 6.187c1.775-.256 3.353-1.246 4.154-2.688a2 2 0 0 1 .015-.025c1.149-1.82 1.344-4.003.514-5.904l-1.972 3.629a.517.517 0 0 1-.097.178l-2.614 4.81Zm-1.823-.001L6.906 2.516c-.83 1.9-.635 4.084.514 5.904l.004.006c.894 1.464 2.419 2.45 4.164 2.706Zm.867 1.108h-7.1l.789 10.057c.079.769.788 1.401 1.564 1.401h9.688c.777 0 1.485-.632 1.565-1.401l.788-10.057h-7.294Zm-4.067 2.995c.327-.654 1.077-.912 1.612-.912.663 0 1.293.275 1.612.912a.52.52 0 1 1-.932.466c-.098-.196-.301-.336-.68-.336-.298 0-.59.157-.68.336a.52.52 0 0 1-.932-.466Zm6.716.13c-.378 0-.582.14-.68.336a.52.52 0 0 1-.932-.466c.319-.637.949-.912 1.612-.912.535 0 1.285.258 1.612.912a.52.52 0 1 1-.932.466c-.089-.179-.381-.336-.68-.336Zm.826 3.165a.52.52 0 0 1 .28.68c-.608 1.461-2.164 2.405-3.71 2.405-1.57 0-2.991-.963-3.695-2.372a.52.52 0 1 1 .932-.465c.545 1.09 1.625 1.795 2.763 1.795 1.162 0 2.315-.723 2.748-1.763a.522.522 0 0 1 .682-.28Z" fill="#18303F" id="iconDefault"/></g></svg>