<svg width="25" height="25" viewBox="0 0 25 25" fill="none"><g id="play_question" fill-rule="evenodd" clip-rule="evenodd" fill="#18303F"><path d="M6.361 2.788a.625.625 0 0 1 .632.012l15 9.167a.625.625 0 0 1 0 1.066l-15 9.167a.625.625 0 0 1-.951-.533V3.333c0-.226.122-.434.319-.545Zm.93 1.66v16.104L20.469 12.5 7.292 4.448Z" yggColor="iconDefault"/><path d="M6.545 2.602a.6.6 0 0 0-.895.523v18.75a.6.6 0 0 0 .895.523l4.63-2.604a.6.6 0 0 0-.588-1.046L6.85 20.849V4.151l15.773 8.872a.6.6 0 1 0 .588-1.046L6.545 2.602ZM13.1 17.708a4.608 4.608 0 1 1 9.217 0 4.608 4.608 0 0 1-9.217 0Zm4.608-5.808a5.808 5.808 0 1 0 0 11.617 5.808 5.808 0 0 0 0-11.617Zm-.82 4.861a.82.82 0 1 1 .82.82.6.6 0 0 0-.6.6v.948a.6.6 0 0 0 1.2 0v-.438a2.021 2.021 0 1 0-2.62-1.93.6.6 0 0 0 1.2 0Zm1.42 4.262a.6.6 0 1 0-1.2 0v.094a.6.6 0 1 0 1.2 0v-.094Z" yggColor="iconDefault_2"/></g></svg>