<svg width="25" height="25" viewBox="0 0 25 25" fill="none"><g id="qr_code"><path fill-rule="evenodd" clip-rule="evenodd" d="M2.653.875C1.64.875.876 1.64.876 2.653a.348.348 0 0 1-.695 0C.18 1.257 1.257.18 2.653.18a.348.348 0 1 1 0 .694Zm-.27 1.51c-.05.05-.092.134-.092.268a.347.347 0 1 1-.694 0c0-.291.099-.561.296-.76.198-.197.468-.296.76-.296a.348.348 0 0 1 0 .695c-.134 0-.218.043-.27.093ZM.876 22.347a.347.347 0 1 0-.694 0c0 1.396 1.076 2.473 2.472 2.473a.347.347 0 1 0 0-.695c-1.012 0-1.778-.765-1.778-1.778ZM1.944 22c.192 0 .347.155.347.347 0 .134.043.218.093.268.05.05.135.093.269.093a.347.347 0 0 1 0 .695c-.292 0-.562-.099-.76-.297a1.058 1.058 0 0 1-.296-.759c0-.192.155-.347.347-.347ZM22.348.18a.348.348 0 1 0 0 .695c1.012 0 1.777.766 1.777 1.778a.348.348 0 0 0 .695 0c0-1.396-1.078-2.472-2.473-2.472ZM22 1.946c0-.192.155-.348.348-.348.29 0 .56.099.759.297.197.198.296.468.296.759a.347.347 0 1 1-.694 0c0-.134-.043-.218-.093-.268-.052-.05-.136-.093-.268-.093A.348.348 0 0 1 22 1.945Zm2.82 20.402a.348.348 0 0 0-.695 0c0 1.013-.765 1.778-1.777 1.778a.348.348 0 1 0 0 .695c1.395 0 2.472-1.077 2.472-2.473ZM23.055 22c.192 0 .348.155.348.347 0 .292-.1.561-.296.76a1.055 1.055 0 0 1-.76.296.348.348 0 1 1 0-.695c.133 0 .217-.043.268-.093.05-.05.094-.134.094-.268 0-.192.154-.347.346-.347ZM11.611 7.697c-.034.048-.066-.02-.066-.078v-.442a.11.11 0 0 0-.108-.109h-.218a.328.328 0 1 1 0-.655c.18 0 .327-.147.327-.328 0-.18.147-.327.328-.327h.026c.166 0 .3.155.3.32 0 .166.136.28.302.28h1.31a.3.3 0 0 0 .3-.3v-.246a.054.054 0 0 0-.055-.054h-1.802a.055.055 0 0 1-.055-.055V5.43c0-.18.148-.328.329-.328a.328.328 0 0 0 .328-.327c0-.181.146-.328.327-.328h.027c.165 0 .3.155.3.321s.135.28.3.28h.983c.348 0 .628.281.628.628v.3c0 .181-.147.328-.328.328a.327.327 0 0 0-.326.327c0 .181-.148.328-.329.328h-1.255a.327.327 0 0 0-.327.327c0 .181-.147.328-.329.328h-.809c-.04 0-.086.051-.108.083ZM5.923 4.556H7.67c.71 0 1.31.6 1.31 1.365v1.747c0 .71-.6 1.31-1.31 1.31H5.923c-.764 0-1.365-.6-1.365-1.31V5.921c0-.764.6-1.365 1.365-1.365Zm1.42 3.822c.6 0 1.037-.437 1.037-1.037V6.194c0-.546-.437-1.037-1.037-1.037H6.196c-.546 0-1.037.491-1.037 1.037v1.147c0 .6.49 1.037 1.037 1.037h1.147ZM6.36 5.812h.819c.327 0 .546.273.546.546v.82a.548.548 0 0 1-.546.545h-.82a.547.547 0 0 1-.545-.546v-.819c0-.273.218-.546.546-.546ZM19.08 4.556h-1.747c-.71 0-1.364.6-1.364 1.365v1.747c0 .71.6 1.365 1.364 1.365h1.747c.71 0 1.366-.6 1.366-1.365V5.921c0-.764-.601-1.365-1.366-1.365Zm.765 2.785c0 .6-.491 1.037-1.093 1.037h-1.091c-.6 0-1.092-.437-1.092-1.037V6.194c0-.546.491-1.037 1.091-1.037h1.092c.602 0 1.093.491 1.093 1.037v1.147Zm-2.02-1.529h.819c.273 0 .546.273.546.546v.82a.547.547 0 0 1-.546.545h-.82a.547.547 0 0 1-.546-.546v-.819c0-.273.22-.546.547-.546ZM7.67 15.968H5.923c-.764 0-1.365.601-1.365 1.366v1.747c0 .71.6 1.365 1.365 1.365H7.67c.71 0 1.365-.6 1.365-1.365v-1.747c-.054-.765-.655-1.365-1.365-1.365Zm.71 2.785c0 .6-.437 1.092-1.037 1.092H6.196c-.546 0-1.037-.491-1.037-1.092v-1.092c0-.6.49-1.092 1.037-1.092h1.147c.6 0 1.037.492 1.037 1.092v1.092Zm-2.02-1.528h.819c.327 0 .546.273.546.546v.819a.548.548 0 0 1-.546.546h-.82a.547.547 0 0 1-.545-.546v-.82c0-.272.218-.545.546-.545Zm7.423 1.314a.335.335 0 0 1-.326-.333.328.328 0 0 0-.329-.327h-.6a.328.328 0 0 0-.328.327.328.328 0 0 1-.654 0 .328.328 0 0 0-.329-.327h-.6a.328.328 0 1 0 0 .655.327.327 0 0 1 0 .655.328.328 0 0 0-.328.328v.628c0 .166-.155.3-.32.3-.166 0-.28-.134-.28-.3v-2.239c0-.347.28-.628.627-.628h.301a.327.327 0 0 0 .327-.327.328.328 0 0 1 .655 0 .328.328 0 0 0 .656 0v-.6a.327.327 0 1 1 .655 0v.6a.328.328 0 0 0 .655 0v-.956a.628.628 0 0 0-.627-.628h-.3a.328.328 0 0 0-.329.328.327.327 0 0 1-.326.327h-.302a.628.628 0 0 1-.627-.627v-.328c0-.166.155-.3.32-.3.166 0 .28-.135.28-.3v-.028a.328.328 0 0 1 .655 0c0 .18.148.328.329.328h1.255a.327.327 0 0 0 .327-.328v-.027c0-.166-.155-.3-.32-.3s-.28-.135-.28-.3v-.329a.628.628 0 0 0-.627-.627h-.302a.327.327 0 0 0-.327.327.328.328 0 0 1-.655 0 .328.328 0 0 0-.327-.327h-.601a.327.327 0 0 1 0-.656h2.117a.723.723 0 0 0 .723-.722v-.56a.628.628 0 0 0-.629-.629h-.3a.328.328 0 0 1 0-.655h.956c.347 0 .627.281.627.628v.3a.328.328 0 0 0 .655 0 .328.328 0 0 1 .655 0v.874c0 .03-.024.055-.054.055h-.574a.628.628 0 0 0-.628.627v.956a.328.328 0 0 0 .656 0c0-.18.147-.328.328-.328a.328.328 0 0 0 .327-.327v-.6c0-.182.147-.328.327-.328a.328.328 0 0 0 .329-.328.328.328 0 0 1 .422-.313.329.329 0 0 1-.096-.232v-.601a.328.328 0 0 1 .655 0v.6a.327.327 0 0 1-.422.314c.06.06.096.141.096.232 0 .18.146.328.328.328.18 0 .328.146.328.327 0 .181.146.328.326.328a.328.328 0 1 1 0 .655.327.327 0 0 0-.326.328v.027c0 .166.154.3.32.3s.28-.134.28-.3v-.027a.328.328 0 0 1 .654 0v1.528c0 .03-.024.055-.053.055h-.273a.328.328 0 0 1-.329-.328.328.328 0 0 0-.328-.327h-1.255a.328.328 0 1 1 0-.655.327.327 0 0 0 .328-.328v-.027c0-.166-.155-.3-.32-.3-.166 0-.28.134-.28.3v.027c0 .18-.148.328-.328.328a.328.328 0 0 0-.329.327v.028c0 .165-.154.3-.32.3-.165 0-.28.134-.28.3v.3c0 .03.024.055.055.055h2.785c.18 0 .328.147.328.328 0 .18.145.327.326.327h.028c.166 0 .3-.155.3-.32 0-.166.134-.28.3-.28h.028c.18 0 .328.146.328.327v.3c0 .347.28.628.628.628h.3c.18 0 .328.147.328.328v.027c0 .166-.155.3-.322.3-.166 0-.28.135-.28.301v.655c0 .166.155.3.322.3.166 0 .28.135.28.3v1.544a.722.722 0 0 1-.723.723h-3.4c-.165 0-.3-.155-.3-.321s-.135-.28-.3-.28h-.629a.328.328 0 1 1 0-.655.328.328 0 0 0 .329-.328v-.628c0-.166-.155-.3-.322-.3-.165 0-.28.134-.28.3v.628a.328.328 0 0 1-.654 0v-.013a.338.338 0 0 0-.313-.339 12.315 12.315 0 0 0-.453-.025Zm4.752.65v-.928a.328.328 0 0 0-.655 0v.027c0 .166-.155.3-.322.3-.166 0-.28.135-.28.301v.007c0 .185.163.328.347.315.317-.022.628-.022.91-.022Zm0 0v.028c0 .346.3.628.648.628a.611.611 0 0 0 .608-.628v-.3a.328.328 0 0 0-.329-.328h-.052a.275.275 0 0 0-.276.274c0 .188-.188.334-.375.329-.073-.003-.15-.003-.224-.003Zm-2.445-3.822a.722.722 0 0 0-.723.723v.466c0 .399.323.722.723.722h.466a.722.722 0 0 0 .723-.722v-.466a.722.722 0 0 0-.723-.723h-.466Zm-1.65.655a.328.328 0 0 0-.329.328v.6a.328.328 0 0 0 .655 0v-.6a.327.327 0 0 0-.326-.328Zm4.415.601c-.166 0-.32.134-.32.3v.055c0 .166.154.3.32.3.165 0 .28-.134.28-.3v-.055c0-.165-.115-.3-.28-.3Zm-2.832 2.245c0 .166.154.321.32.321s.28-.155.28-.32c0-.166-.155-.28-.32-.28a.267.267 0 0 0-.28.28ZM5.486 11.546a.327.327 0 0 0 .327-.327v-.355c0-.347.282-.628.628-.628h.3a.327.327 0 0 1 0 .655.328.328 0 1 0 0 .655h.3a.628.628 0 0 0 .629-.628v-.56a.722.722 0 0 0-.722-.723H5.225a.722.722 0 0 0-.722.722v4.684a.328.328 0 0 0 .655 0v-3.167c0-.181.146-.328.327-.328Zm2.893.929c0 .18.146.329.327.325a4.177 4.177 0 0 0 .934-.107.049.049 0 0 0 .049-.048v-1.508c0-.166.114-.3.28-.3.165 0 .32-.135.32-.3v-.028c0-.18.146-.327.328-.327a.328.328 0 0 0 .327-.328c0-.18.147-.328.329-.328h.273c.03 0 .054-.024.054-.054V7.942a.328.328 0 0 0-.655 0v.6c0 .182-.148.328-.329.328a.327.327 0 0 0-.326.328c0 .18-.147.327-.328.327H8.706a.327.327 0 0 0-.327.328v.027c0 .166.114.3.28.3.165 0 .32.135.32.3v.056c0 .165-.114.3-.28.3-.165 0-.32.134-.32.3v.055c0 .166.114.3.28.3.165 0 .32.135.32.3v.055c0 .166-.114.3-.28.3-.165 0-.32.135-.32.3v.028Zm10.443.322a.278.278 0 0 1-.287-.285v-.038c0-.181.145-.328.326-.328h.601a.327.327 0 0 0 0-.655.328.328 0 0 1-.328-.328V9.907a.328.328 0 0 1 .655 0v.6c0 .181.147.328.328.328.181 0 .328.146.328.327v1.283c0 .166-.154.3-.32.3s-.28.135-.28.301v.055c0 .165.155.3.32.3.166 0 .28.134.28.3v.655c0 .166-.154.3-.32.3s-.28-.134-.28-.3v-.027a.328.328 0 0 0-.328-.327.328.328 0 0 1-.328-.328v-.558c0-.188-.18-.33-.367-.32ZM6.79 12.2a.311.311 0 0 0-.316.322l.002.031c.012.186-.127.357-.313.357a.295.295 0 0 0-.295.295v.033c0 .18.146.327.327.327h.3c.347 0 .627.281.627.628v.3a.328.328 0 0 0 .657 0c0-.18.146-.327.327-.327h.6a.327.327 0 0 0 0-.655.328.328 0 0 1-.327-.328.327.327 0 0 0-.327-.328.328.328 0 0 1-.328-.327.328.328 0 0 0-.328-.328H6.79Zm6.3-3.826a.28.28 0 0 1-.29-.284v-.039c0-.18.147-.327.329-.327h1.255a.327.327 0 0 0 .328-.328.328.328 0 0 1 .655 0V8.68c0 .166-.155.3-.32.3-.166 0-.28-.154-.28-.32s-.135-.28-.3-.28h-.056c-.166 0-.3.155-.3.32 0 .167-.135.28-.3.28h-.067a.287.287 0 0 1-.287-.287c0-.187-.181-.327-.367-.318Zm-4.11 6.994a.655.655 0 0 0 .655-.655v-.328a.327.327 0 1 0-.655 0 .328.328 0 0 1-.328.328h-.6a.328.328 0 1 0 0 .655h.928Zm3.22 4.756c0-.165.134-.28.3-.28h1.31c.166 0 .302.155.302.321s-.136.28-.301.28h-1.31c-.167 0-.3-.155-.3-.32Zm-2.563-4.429a.325.325 0 0 1 .326-.328c.18 0 .327.147.327.328v.61c0 .175-.164.318-.34.318-.16 0-.276-.12-.288-.28a8.276 8.276 0 0 1-.025-.648Zm.326-6.66a.326.326 0 0 0 .326-.328 9.107 9.107 0 0 0-.023-.651c-.012-.16-.128-.277-.288-.277-.178 0-.342.144-.342.321v.607c0 .18.146.327.327.327Zm1.909 1.91a.328.328 0 1 1 0-.656.328.328 0 0 1 0 .655Zm-1.284 2.511c-.165 0-.3.155-.3.321s.136.28.3.28h.056c.165 0 .3-.114.3-.28 0-.165-.135-.32-.3-.32h-.056Zm-.298-.327a.328.328 0 1 1-.327-.328h.272c.03 0 .055.025.055.055v.273Zm-.002-6.362c0-.166-.155-.3-.32-.3-.166 0-.28.134-.28.3v.055c0 .166.114.3.28.3.165 0 .32-.134.32-.3v-.055Zm5.406 3.516a.315.315 0 0 1-.327-.321.328.328 0 0 1 .655 0v.01c0 .154-.104.291-.26.305a2.002 2.002 0 0 1-.068.006Zm2.238.94c0 .167.134.322.3.322h.055c.166 0 .3-.114.3-.28 0-.166-.134-.321-.3-.321h-.055c-.166 0-.3.114-.3.28ZM10.944 6.14a.327.327 0 1 1-.654.001.327.327 0 0 1 .655-.001ZM6.141 12.2a.328.328 0 1 0 0-.655.328.328 0 0 0 0 .655Zm11.792-2.245c0-.166.134-.32.3-.32h.055c.166 0 .3.154.3.32s-.134.28-.3.28h-.055c-.166 0-.3-.114-.3-.28Zm-6.989-4.47c0 .18.106.327.287.327s.369-.146.369-.327a.327.327 0 1 0-.655 0ZM13.13 18.54a.315.315 0 0 1 .329.321.328.328 0 0 1-.656 0v-.01c0-.154.106-.291.26-.305l.068-.006ZM9.965 5.813c.18 0 .332-.147.317-.327 0-.02-.003-.04-.005-.06a.285.285 0 0 0-.29-.268c-.18 0-.35.147-.35.328 0 .18.147.327.328.327Zm1.909-.6a.328.328 0 1 1 0-.656.328.328 0 0 1 0 .655Zm.929 3.494c0-.18-.147-.333-.327-.317l-.014.001c-.155.015-.26.152-.26.306v.037c0 .166.114.3.28.3.165 0 .32-.134.32-.3v-.027Zm-1.585 2.247c.181-.015.329.138.329.319v.027c0 .166-.155.3-.321.3s-.28-.134-.28-.3v-.037c0-.155.104-.293.258-.308l.014-.001Zm.048 8.892c-.165 0-.32.134-.32.3 0 .166.114.3.28.3.165 0 .32-.114.32-.28 0-.166-.114-.32-.28-.32Z" fill="#18303F" id="iconDefault"/></g></svg>