<svg width="24" height="24" viewBox="0 0 24 24" fill="none"><g id="relax"><path fill-rule="evenodd" clip-rule="evenodd" d="M12.055 3.165a.501.501 0 0 1 .362.142c.334.327.74.908 1.149 1.584.417.688.86 1.514 1.268 2.363.244.51.475 1.029.681 1.535l.083-.059a23.199 23.199 0 0 1 2.079-1.311c.64-.354 1.243-.633 1.693-.747a.498.498 0 0 1 .61.374c.202.88.223 2.623.085 4.315-.023.292-.052.584-.086.874.466-.02.917-.025 1.332-.016.73.016 1.392.078 1.838.206a.497.497 0 0 1 .34.627c-.262.863-1.109 2.384-2.068 3.78-.486.706-1.012 1.4-1.526 1.98-.506.572-1.028 1.068-1.51 1.348-.923.537-2.166.764-3.304.643-1.13-.12-2.276-.602-2.861-1.62a2.797 2.797 0 0 1-.216-.478h-.008a2.803 2.803 0 0 1-.216.477c-.585 1.02-1.731 1.501-2.861 1.621-1.138.121-2.381-.106-3.305-.643-.481-.28-1.003-.776-1.51-1.348a21.043 21.043 0 0 1-1.525-1.98c-.96-1.396-1.806-2.917-2.068-3.78a.502.502 0 0 1 .34-.627c.446-.128 1.107-.19 1.838-.206.393-.009.817-.004 1.256.013-.033-.289-.062-.58-.085-.871-.138-1.692-.117-3.435.085-4.315a.502.502 0 0 1 .61-.374c.45.114 1.053.393 1.693.747A23.2 23.2 0 0 1 8.327 8.73l.131.092c.225-.51.48-1.036.747-1.551.864-1.668 1.89-3.294 2.495-3.946a.501.501 0 0 1 .355-.16ZM4.085 13.24c-.482-.022-.948-.029-1.371-.02-.404.01-.758.033-1.046.068.34.766.979 1.88 1.73 2.975.47.683.97 1.34 1.451 1.883.487.55.924.948 1.263 1.145.715.416 1.74.616 2.699.514.966-.103 1.742-.495 2.104-1.126.028-.048.053-.098.076-.148a3.638 3.638 0 0 1-.711-.323c-.932.362-1.993.188-2.904-.22-1.045-.468-2.008-1.29-2.541-2.22-.277-.483-.483-1.176-.637-1.926a15.57 15.57 0 0 1-.112-.602ZM12 16.594a3.792 3.792 0 0 0-.043-.146.067.067 0 0 0 .005-.013c.016.04.032.08.049.118a.611.611 0 0 1-.011.04Zm-.719-1.566c-.463-.709-1.076-1.324-1.743-1.712a4.76 4.76 0 0 0-.929-.393 12.548 12.548 0 0 1-.044-1.056c0-.33.115-.832.333-1.455.259.207.504.416.729.62.548.498.946.944 1.142 1.287.412.718.611 1.747.512 2.71Zm-2.508-.978c.1.043.19.088.267.133.715.416 1.4 1.21 1.792 2.098l.049.115a2.07 2.07 0 0 1-.526.631c-.68-.571-1.279-1.53-1.582-2.977ZM7.7 13.71c.251 1.623.834 2.855 1.595 3.69-.465.022-.984-.091-1.511-.327-.881-.395-1.671-1.085-2.084-1.806-.196-.342-.377-.907-.526-1.63a12.955 12.955 0 0 1-.063-.326c.806.072 1.608.184 2.302.334.099.02.195.043.287.065Zm-.111-1.052a20.767 20.767 0 0 0-2.632-.366 23.399 23.399 0 0 1-.103-1.016c-.108-1.325-.109-2.61-.024-3.444.267.114.583.271.936.466a22.34 22.34 0 0 1 2.3 1.477c-.291.772-.501 1.52-.501 2.092 0 .271.008.535.024.79Zm11.482-1.382c-.028.344-.063.688-.104 1.022l-.107.01c-.855.074-1.718.193-2.48.356l-.06.013c.016-.261.023-.531.023-.81 0-.564-.19-1.311-.457-2.09l-.005-.017a22.195 22.195 0 0 1 2.278-1.462c.353-.195.669-.352.935-.466.086.835.085 2.119-.023 3.444Zm-2.484 2.369c-.127.027-.25.055-.367.084-.19 1.357-.593 2.434-1.143 3.239-.106.155-.218.3-.334.435.436 0 .913-.113 1.398-.33.88-.395 1.67-1.085 2.084-1.806.196-.342.377-.907.526-1.63.02-.104.042-.21.061-.319-.78.072-1.552.182-2.225.327Zm-1.244-1.778c0 .383-.015.744-.043 1.085a4.536 4.536 0 0 0-.837.364c-.699.406-1.338 1.061-1.808 1.812a2.55 2.55 0 0 1-.01-.088c-.101-.966.097-2 .511-2.721.196-.343.594-.79 1.142-1.287.229-.208.479-.42.742-.631.198.624.303 1.13.303 1.466Zm-2.175 4.414a5.333 5.333 0 0 0-.08.192c.153.252.341.46.562.614.212-.183.414-.41.602-.683.384-.563.704-1.327.896-2.318a2.291 2.291 0 0 0-.188.097c-.715.416-1.4 1.21-1.792 2.098Zm.575 1.964a3.411 3.411 0 0 1-.72.317c.019.04.04.08.062.118.362.63 1.138 1.023 2.104 1.126.959.102 1.984-.098 2.7-.514.338-.197.775-.595 1.262-1.145.48-.542.981-1.2 1.45-1.883.752-1.095 1.39-2.209 1.73-2.975a10.79 10.79 0 0 0-1.045-.068c-.445-.01-.937-.001-1.448.024a15.42 15.42 0 0 1-.111.598c-.154.75-.36 1.443-.637 1.926-.533.93-1.496 1.752-2.541 2.22-.879.393-1.898.57-2.806.256Zm.941-8.84a26.156 26.156 0 0 0-.752-1.719 26.982 26.982 0 0 0-1.221-2.277 12.68 12.68 0 0 0-.636-.962c-.537.723-1.296 1.96-1.982 3.284a26.273 26.273 0 0 0-.812 1.705c.36.282.704.568 1.015.85.569.517 1.06 1.048 1.338 1.53.127.222.237.463.328.716.092-.253.202-.494.329-.716.277-.482.769-1.013 1.338-1.53.322-.292.68-.59 1.055-.881Z" fill="#18303F" yggColor="iconDefault"/></g></svg>