<svg width="25" height="25" viewBox="0 0 25 25" fill="none"><g id="relax"><path fill-rule="evenodd" clip-rule="evenodd" d="M12.557 3.297c.14-.004.276.05.377.148.348.34.771.945 1.197 1.65.434.716.897 1.577 1.321 2.462.254.53.495 1.07.71 1.598l.086-.061a24.168 24.168 0 0 1 2.165-1.366c.667-.369 1.295-.66 1.764-.778a.518.518 0 0 1 .635.39c.21.916.233 2.732.089 4.494-.024.304-.054.61-.09.91a21.7 21.7 0 0 1 1.388-.016c.761.017 1.45.082 1.914.214a.517.517 0 0 1 .355.653c-.273.9-1.155 2.484-2.154 3.938a21.92 21.92 0 0 1-1.59 2.063c-.527.595-1.07 1.113-1.572 1.404-.963.56-2.257.796-3.443.67-1.177-.125-2.37-.627-2.98-1.689a2.912 2.912 0 0 1-.225-.497h-.008c-.059.17-.133.336-.225.497-.61 1.062-1.803 1.564-2.98 1.69-1.186.125-2.48-.112-3.443-.671-.501-.291-1.045-.809-1.572-1.404a21.925 21.925 0 0 1-1.59-2.063c-.999-1.454-1.88-3.038-2.154-3.938a.523.523 0 0 1 .354-.653c.465-.132 1.154-.197 1.915-.214.41-.009.851-.004 1.308.014-.034-.301-.064-.605-.088-.908-.144-1.762-.122-3.578.088-4.494a.523.523 0 0 1 .636-.39c.468.119 1.097.41 1.763.778.678.375 1.434.85 2.166 1.366l.136.096c.235-.532.5-1.08.778-1.616.9-1.737 1.97-3.431 2.6-4.11a.522.522 0 0 1 .37-.167Zm-8.3 10.496c-.504-.023-.99-.03-1.43-.02-.42.008-.79.033-1.09.07.355.798 1.02 1.958 1.804 3.098.488.712 1.01 1.397 1.51 1.962.507.574.962.988 1.316 1.193.744.433 1.812.642 2.811.535 1.006-.107 1.815-.516 2.192-1.173.029-.05.055-.101.079-.154a3.791 3.791 0 0 1-.74-.337c-.972.378-2.077.196-3.026-.229-1.088-.487-2.091-1.344-2.647-2.312-.288-.503-.503-1.225-.663-2.006a16.215 16.215 0 0 1-.117-.627Zm8.243 3.492-.045-.152.005-.013.051.123-.011.042Zm-.749-1.63c-.482-.74-1.12-1.38-1.816-1.784a4.963 4.963 0 0 0-.967-.41c-.03-.345-.046-.712-.046-1.1 0-.344.12-.866.347-1.516.27.217.525.434.76.646.57.519.985.984 1.189 1.341.429.748.636 1.82.533 2.822Zm-2.612-1.02c.104.046.197.092.278.14.744.432 1.458 1.26 1.866 2.184l.051.12a2.155 2.155 0 0 1-.548.658c-.707-.596-1.332-1.595-1.647-3.102Zm-1.118-.354c.261 1.69.869 2.974 1.661 3.844-.484.023-1.025-.095-1.574-.34-.917-.412-1.74-1.13-2.17-1.882-.205-.356-.393-.945-.548-1.698a13.46 13.46 0 0 1-.066-.34c.84.076 1.675.193 2.398.348.103.022.203.045.299.068Zm-.116-1.096a21.611 21.611 0 0 0-2.742-.38c-.042-.347-.079-.703-.107-1.06-.112-1.38-.113-2.717-.025-3.587.278.12.607.283.975.486a23.272 23.272 0 0 1 2.396 1.539c-.303.803-.522 1.582-.522 2.178 0 .283.008.558.025.824Zm11.96-1.44c-.029.36-.065.717-.108 1.066l-.111.01c-.89.077-1.79.2-2.582.37l-.063.014c.016-.272.023-.553.023-.844 0-.587-.197-1.366-.476-2.178l-.005-.017c.1-.072.2-.145.302-.216a23.11 23.11 0 0 1 2.07-1.306c.368-.203.697-.367.975-.486.09.87.088 2.208-.024 3.588Zm-2.587 2.468c-.132.029-.26.058-.382.088-.198 1.414-.618 2.536-1.19 3.374-.111.162-.228.313-.349.453.454 0 .951-.118 1.457-.344.917-.41 1.74-1.13 2.17-1.881.204-.356.393-.945.548-1.698.022-.108.044-.219.064-.332-.813.075-1.617.19-2.318.34Zm-1.296-1.852c0 .4-.015.776-.045 1.131-.33.11-.628.236-.871.378-.729.424-1.394 1.106-1.884 1.888l-.01-.091c-.105-1.006.1-2.083.532-2.835.204-.357.619-.822 1.19-1.34.238-.217.499-.437.773-.658.206.65.315 1.177.315 1.527Zm-2.265 4.598c-.03.067-.057.134-.083.2.159.263.354.48.585.64.22-.191.431-.427.627-.712.4-.585.733-1.382.933-2.414a2.385 2.385 0 0 0-.196.101c-.745.433-1.458 1.261-1.866 2.185Zm.599 2.046a3.559 3.559 0 0 1-.75.33c.02.042.041.083.064.123.377.657 1.186 1.066 2.192 1.173.999.107 2.067-.102 2.812-.535.352-.205.808-.62 1.315-1.193.5-.565 1.022-1.25 1.51-1.962.784-1.14 1.45-2.3 1.803-3.098-.3-.037-.668-.062-1.09-.07a21.25 21.25 0 0 0-1.508.024c-.035.213-.073.422-.115.623-.16.781-.375 1.503-.664 2.006-.555.968-1.558 1.825-2.647 2.313-.915.41-1.977.593-2.922.266Zm.98-9.208c-.227-.58-.496-1.19-.784-1.79a28.127 28.127 0 0 0-1.271-2.373c-.244-.402-.47-.74-.663-1.002-.56.754-1.35 2.042-2.064 3.42-.31.599-.6 1.204-.846 1.777.376.294.733.592 1.057.886.593.538 1.105 1.091 1.394 1.593.132.232.247.482.341.746.096-.264.21-.514.343-.746.289-.502.801-1.055 1.394-1.593.335-.305.708-.614 1.099-.918Z" fill="#18303F" id="iconDefault"/></g></svg>