<svg width="25" height="25" viewBox="0 0 25 25" fill="none"><g id="scenario_dot"><path d="M5.487.687a4.8 4.8 0 0 0-4.8 4.8V8c0 1.04.757 1.95 1.768 1.95 1.199 0 2.232 1.106 2.232 2.55 0 1.445-1.033 2.55-2.232 2.55-1.01 0-1.768.909-1.768 1.95v2.513a4.8 4.8 0 0 0 4.8 4.8h14.026a4.8 4.8 0 0 0 4.8-4.8V17h-.626v2.513a4.174 4.174 0 0 1-4.174 4.173H5.487a4.174 4.174 0 0 1-4.173-4.173V17c0-.767.544-1.323 1.14-1.323 1.613 0 2.86-1.458 2.86-3.176 0-1.72-1.247-3.178-2.86-3.178-.596 0-1.14-.557-1.14-1.323V5.487a4.174 4.174 0 0 1 4.173-4.174h14.026a4.174 4.174 0 0 1 4.174 4.174V8h.627V5.487a4.8 4.8 0 0 0-4.801-4.8H5.487ZM22.55 9.95c1.01 0 1.768-.908 1.768-1.95h-.627c0 .767-.545 1.323-1.142 1.323-1.612 0-2.858 1.459-2.858 3.178 0 1.718 1.246 3.177 2.858 3.177.597 0 1.142.556 1.142 1.322h.627c0-1.041-.759-1.95-1.768-1.95-1.2 0-2.232-1.105-2.232-2.55 0-1.444 1.032-2.55 2.232-2.55Zm-10.504 5.635h.694V9.321h-.591l-1.697 1.307.373.484.716-.574.287-.236c.077-.066.16-.144.248-.236-.008.106-.016.21-.021.313l-.009.334v4.872ZM3.964 3.846a.564.564 0 1 0 0 1.128.564.564 0 0 0 0-1.128Zm3.846 0a.564.564 0 1 0 0 1.128.564.564 0 0 0 0-1.128Zm3.282.564a.564.564 0 1 1 1.128 0 .564.564 0 0 1-1.128 0Zm4.41-.564a.564.564 0 1 0 0 1.128.564.564 0 0 0 0-1.128Zm3.282.564a.564.564 0 1 1 1.129 0 .564.564 0 0 1-1.129 0ZM3.964 19.23a.564.564 0 1 0 0 1.129.564.564 0 0 0 0-1.128Zm3.282.565a.564.564 0 1 1 1.128 0 .564.564 0 0 1-1.128 0Zm4.41-.564a.564.564 0 1 0 0 1.128.564.564 0 0 0 0-1.128Zm3.282.564a.564.564 0 1 1 1.128 0 .564.564 0 0 1-1.128 0Zm4.41-.564a.564.564 0 1 0 0 1.128.564.564 0 0 0 0-1.128Z" fill="#18303F" id="iconDefault"/></g></svg>