<svg width="25" height="25" viewBox="0 0 25 25" fill="none"><g id="scenario_blue"><path fill-rule="evenodd" clip-rule="evenodd" d="M1 5.68A4.68 4.68 0 0 1 5.68 1h13.637a4.68 4.68 0 0 1 4.68 4.68v2.444h-.634V5.681a4.046 4.046 0 0 0-4.046-4.047H5.68a4.046 4.046 0 0 0-4.046 4.047v2.443c0 .74.526 1.275 1.097 1.275 1.577 0 2.793 1.425 2.793 3.102 0 1.677-1.216 3.101-2.793 3.101v-.634c1.158 0 2.158-1.069 2.158-2.467 0-1.4-1-2.468-2.158-2.468-.99 0-1.731-.891-1.731-1.909V5.681Zm23 2.445c0 1.018-.741 1.908-1.731 1.908-1.158 0-2.158 1.069-2.158 2.468 0 1.398 1 2.467 2.158 2.467.99 0 1.731.89 1.731 1.908h-.634c0-.74-.526-1.274-1.097-1.274-1.577 0-2.793-1.425-2.793-3.101 0-1.677 1.216-3.102 2.793-3.102.571 0 1.097-.535 1.097-1.274H24Zm-23 8.75c0-1.017.741-1.907 1.731-1.907v.634c-.571 0-1.097.534-1.097 1.274v2.443a4.046 4.046 0 0 0 4.046 4.047h13.637a4.046 4.046 0 0 0 4.046-4.047v-2.443h.634v2.443A4.68 4.68 0 0 1 19.317 24H5.68A4.68 4.68 0 0 1 1 19.32v-2.444Zm11.762-1.29h-.722v-5.071l.009-.348c.005-.107.013-.216.022-.326a3.765 3.765 0 0 1-.259.246l-.299.245-.745.598-.388-.504 1.767-1.36h.615v6.52Z" fill="#18303F" id="iconDefault"/></g></svg>