<svg width="25" height="25" viewBox="0 0 25 25" fill="none"><g id="scenario_red"><path fill-rule="evenodd" clip-rule="evenodd" d="M5.486.68A4.808 4.808 0 0 0 .678 5.486V8c0 1.044.76 1.957 1.776 1.957 1.194 0 2.224 1.102 2.224 2.543s-1.03 2.543-2.224 2.543c-1.015 0-1.776.913-1.776 1.957v2.512a4.808 4.808 0 0 0 4.808 4.808h14.026a4.808 4.808 0 0 0 4.808-4.808V17h.002c0-1.045-.76-1.957-1.775-1.957-1.194 0-2.225-1.102-2.225-2.543 0-1.44 1.031-2.543 2.225-2.543 1.015 0 1.775-.912 1.775-1.957h-.64c0 .764-.543 1.316-1.135 1.316-1.617 0-2.866 1.462-2.866 3.184 0 1.722 1.25 3.184 2.866 3.184.592 0 1.134.553 1.134 1.316h-.003v2.512a4.167 4.167 0 0 1-4.166 4.167H5.486a4.167 4.167 0 0 1-4.167-4.166V17c0-.764.543-1.316 1.135-1.316 1.617 0 2.865-1.462 2.865-3.184 0-1.722-1.248-3.184-2.865-3.184-.592 0-1.135-.553-1.135-1.316V5.487A4.167 4.167 0 0 1 5.486 1.32h14.026a4.167 4.167 0 0 1 4.166 4.167V8h.642V5.487A4.808 4.808 0 0 0 19.512.679H5.486Zm7.712 14.905h-.71v-4.982c.003-.126.006-.24.01-.342.005-.105.012-.212.021-.32a3.69 3.69 0 0 1-.254.241l-.294.241-.732.587-.38-.495 1.735-1.336h.604v6.406Z" fill="#18303F" id="iconDefault"/></g></svg>