<svg width="25" height="25" viewBox="0 0 25 25" fill="none"><g id="sdco_unknown"><path fill-rule="evenodd" clip-rule="evenodd" d="M1.987 6.884a4.884 4.884 0 1 1 9.768 0 4.884 4.884 0 0 1-9.768 0ZM6.87 1a5.884 5.884 0 1 0 0 11.769A5.884 5.884 0 0 0 6.871 1ZM5.727 3.453c-.317.176-.476.356-.476.539 0 .084.028.155.085.211.056.05.116.074.18.074.063 0 .14-.042.232-.127.091-.084.225-.169.4-.253.184-.092.413-.137.687-.137.458 0 .81.12 1.056.359.247.239.37.57.37.992 0 .254-.053.493-.158.718-.099.226-.201.398-.307.518-.105.12-.257.27-.454.454-.19.176-.313.292-.37.348-.147.17-.26.384-.337.644-.078.254-.116.652-.116 1.194 0 .204.095.306.285.306.19 0 .285-.081.285-.243 0-.458.02-.795.063-1.014a1.2 1.2 0 0 1 .306-.591 4.24 4.24 0 0 1 .37-.37c.197-.19.359-.359.486-.507.133-.147.257-.359.37-.633.119-.282.179-.574.179-.877 0-.549-.176-1-.528-1.351-.345-.352-.834-.528-1.468-.528-.436 0-.817.091-1.14.274Zm1.108 7.508a.344.344 0 1 0 0-.688.344.344 0 0 0 0 .688Zm14.2 11.959c-4.297.573-7.423.555-11.772-.01a2.388 2.388 0 0 1-2.06-2.066c-.302-2.362-.446-4.354-.425-6.372a.5.5 0 1 0-1-.01c-.022 2.075.127 4.115.433 6.509a3.388 3.388 0 0 0 2.923 2.93c4.431.576 7.645.595 12.034.01a3.38 3.38 0 0 0 2.904-2.941c.533-4.334.563-7.528.01-12.026a3.377 3.377 0 0 0-2.967-2.943c-2.37-.272-4.43-.392-6.513-.364a.5.5 0 0 0 .014 1c2.033-.027 4.048.09 6.385.358a2.377 2.377 0 0 1 2.088 2.072c.543 4.412.513 7.524-.01 11.78a2.38 2.38 0 0 1-2.044 2.073Zm-1.719-7.933a4.187 4.187 0 1 1-8.137-1.396.5.5 0 0 0-.943-.333 5.187 5.187 0 1 0 3.163-3.163.5.5 0 0 0 .334.943 4.187 4.187 0 0 1 5.583 3.95Zm-3.125 5.772a.5.5 0 1 0 0 1 .5.5 0 0 0 0-1Zm-2.082 0a.5.5 0 1 0 0 1 .5.5 0 0 0 0-1Zm-5.207-6.25a.5.5 0 1 0 0 1 .5.5 0 0 0 0-1Zm-1.043 1.04a.5.5 0 1 0 0 1 .5.5 0 0 0 0-1Zm1.043 1.043a.5.5 0 1 0 0 1 .5.5 0 0 0 0-1ZM7.86 17.634a.5.5 0 1 0 0 1 .5.5 0 0 0 0-1Zm9.375 4.166a.5.5 0 1 0 0 1 .5.5 0 0 0 0-1Zm-2.082 0a.5.5 0 1 0 0 1 .5.5 0 0 0 0-1Zm3.125-12.5a.5.5 0 1 0 0 1 .5.5 0 0 0 0-1Zm2.082 0a.5.5 0 1 0 0 1 .5.5 0 0 0 0-1Zm-1.043-1.041a.5.5 0 1 0 0 1 .5.5 0 0 0 0-1Zm0 2.083a.5.5 0 1 0 0 1 .5.5 0 0 0 0-1Zm2.086-2.083a.5.5 0 1 0 0 1 .5.5 0 0 0 0-1Zm-3.125-1.042a.5.5 0 1 0 0 1 .5.5 0 0 0 0-1Zm2.082 0a.5.5 0 1 0 0 1 .5.5 0 0 0 0-1Z" fill="#18303F" yggColor="iconDefault"/></g></svg>