<svg width="25" height="25" viewBox="0 0 25 25" fill="none"><g id="sdco_unknown_colorful" fill-rule="evenodd" clip-rule="evenodd"><path d="M6.501 1.773a4.884 4.884 0 1 0 0 9.769 4.884 4.884 0 0 0 0-9.769ZM.617 6.658a5.884 5.884 0 1 1 11.769 0 5.884 5.884 0 0 1-11.769 0Z" fill="#6D7B82" id="iconWeak"/><path d="M4.882 3.765c0-.183.158-.362.475-.538.324-.183.704-.275 1.14-.275.634 0 1.123.176 1.468.528.352.352.528.803.528 1.352 0 .303-.06.595-.18.876a2.178 2.178 0 0 1-.369.634 7.555 7.555 0 0 1-.486.507 4.24 4.24 0 0 0-.37.37 1.2 1.2 0 0 0-.305.59c-.043.219-.064.557-.064 1.015 0 .161-.095.242-.285.242-.19 0-.285-.102-.285-.306 0-.542.039-.94.116-1.193.078-.26.19-.475.338-.644.056-.057.18-.173.37-.349.197-.183.348-.334.454-.454.105-.12.207-.292.306-.517.106-.226.158-.465.158-.718 0-.423-.123-.754-.37-.993-.246-.24-.598-.359-1.055-.359-.275 0-.504.046-.687.137-.176.085-.31.17-.4.254-.092.084-.17.126-.233.126a.269.269 0 0 1-.264-.285Zm1.927 6.625a.344.344 0 1 1-.688 0 .344.344 0 0 1 .688 0Zm2.085 12.293c4.349.566 7.474.583 11.772.01a2.38 2.38 0 0 0 2.044-2.072c.523-4.257.552-7.368.01-11.78a2.377 2.377 0 0 0-2.088-2.073c-2.337-.268-4.353-.385-6.386-.357a.5.5 0 0 1-.013-1c2.083-.028 4.142.092 6.513.364a3.377 3.377 0 0 1 2.966 2.943c.553 4.497.523 7.691-.01 12.025a3.38 3.38 0 0 1-2.904 2.942c-4.389.585-7.602.566-12.034-.01a3.388 3.388 0 0 1-2.922-2.931c-.307-2.394-.455-4.433-.434-6.51a.5.5 0 0 1 1 .011c-.02 2.018.123 4.01.425 6.372a2.388 2.388 0 0 0 2.06 2.066Zm5.865-3.735a4.187 4.187 0 1 0-1.396-8.137.5.5 0 1 1-.333-.943 5.187 5.187 0 1 1-3.163 3.163.5.5 0 1 1 .943.334 4.187 4.187 0 0 0 3.95 5.583Zm.563 2.084a.5.5 0 1 1 1 0 .5.5 0 0 1-1 0Zm-2.082 0a.5.5 0 1 1 1 0 .5.5 0 0 1-1 0Zm-5.207-6.25a.5.5 0 1 1 1 0 .5.5 0 0 1-1 0ZM6.99 15.823a.5.5 0 1 1 1 0 .5.5 0 0 1-1 0Zm1.043 1.042a.5.5 0 1 1 1 0 .5.5 0 0 1-1 0ZM6.99 17.907a.5.5 0 1 1 1 0 .5.5 0 0 1-1 0Zm9.375 4.166a.5.5 0 1 1 1 0 .5.5 0 0 1-1 0Zm-2.082 0a.5.5 0 1 1 1 0 .5.5 0 0 1-1 0Zm3.125-12.5a.5.5 0 1 1 1 0 .5.5 0 0 1-1 0Zm2.082 0a.5.5 0 1 1 1 0 .5.5 0 0 1-1 0Zm-1.043-1.04a.5.5 0 1 1 1 0 .5.5 0 0 1-1 0Zm0 2.082a.5.5 0 1 1 1 0 .5.5 0 0 1-1 0Zm2.086-2.083a.5.5 0 1 1 1 0 .5.5 0 0 1-1 0ZM17.408 7.49a.5.5 0 1 1 1 0 .5.5 0 0 1-1 0Zm2.082 0a.5.5 0 1 1 1 0 .5.5 0 0 1-1 0Z" fill="#18303F" id="iconDefault"/></g></svg>