<svg width="25" height="25" viewBox="0 0 25 25" fill="none"><g id="sensor"><path fill-rule="evenodd" clip-rule="evenodd" d="M4.547 19.454a.552.552 0 0 1-.673-.084 9.715 9.715 0 0 1-2.833-6.87 9.716 9.716 0 0 1 2.833-6.87.552.552 0 0 1 .673-.084c.335.198.358.662.086.94a8.578 8.578 0 0 0-2.45 6.014c0 2.34.934 4.463 2.45 6.014.271.278.248.742-.086.94ZM7.432 8.613c.22-.191.557-.146.748.075.223.26.153.643-.1.875A3.987 3.987 0 0 0 6.795 12.5c0 1.161.495 2.207 1.287 2.937.25.231.32.615.099.874-.191.222-.528.267-.75.076A5.126 5.126 0 0 1 5.653 12.5c0-1.553.69-2.945 1.78-3.887Zm9.49.951c-.252-.231-.322-.615-.1-.874.192-.221.529-.266.75-.075a5.126 5.126 0 0 1 1.777 3.886 5.125 5.125 0 0 1-1.776 3.885c-.223.191-.558.146-.75-.076-.223-.258-.152-.642.099-.874a3.983 3.983 0 0 0 1.285-2.935 3.987 3.987 0 0 0-1.285-2.937Zm4.204 9.804a9.716 9.716 0 0 0 2.832-6.868 9.717 9.717 0 0 0-2.831-6.868.551.551 0 0 0-.674-.084c-.334.198-.357.662-.085.94a8.578 8.578 0 0 1 2.449 6.012c0 2.34-.933 4.461-2.45 6.012-.27.278-.248.742.086.94.219.13.495.096.674-.084ZM12.5 14.583a2.084 2.084 0 1 0 .001-4.167 2.084 2.084 0 0 0 0 4.167Zm0-1a1.083 1.083 0 1 0 .002-2.167 1.083 1.083 0 0 0-.002 2.167Z" fill="#18303F" yggColor="iconDefault"/></g></svg>