<svg width="25" height="25" viewBox="0 0 25 25" fill="none"><g id="shading_0_percent"><path fill-rule="evenodd" clip-rule="evenodd" d="M6.785 2.122a3.5 3.5 0 0 0-3.5 3.5v14.373a2.883 2.883 0 0 0 2.883 2.883.5.5 0 0 0 0-1 1.883 1.883 0 0 1-1.883-1.883V5.622a2.5 2.5 0 0 1 2.5-2.5h3.364v.023c0 .537.435.973.972.973h2.758a.973.973 0 0 0 .972-.973v-.023h3.364a2.5 2.5 0 0 1 2.5 2.5v13.756a2.5 2.5 0 0 1-2.5 2.5H9.94a.5.5 0 1 0 0 1h8.275a3.5 3.5 0 0 0 3.5-3.5V5.622a3.5 3.5 0 0 0-3.5-3.5H6.785Zm1.696 20.256a.5.5 0 1 1-1 0 .5.5 0 0 1 1 0Z" fill="#18303F" id="iconDefault"/></g></svg>