<svg width="25" height="25" viewBox="0 0 25 25" fill="none"><g id="shading_100_percent"><path fill-rule="evenodd" clip-rule="evenodd" d="M3.286 5.502a3.5 3.5 0 0 1 3.5-3.5h11.429a3.5 3.5 0 0 1 3.5 3.5v13.756a3.5 3.5 0 0 1-3.5 3.5h-3.696a.97.97 0 0 1-.64.24H11.12a.968.968 0 0 1-.639-.24H6.787a3.5 3.5 0 0 1-3.5-3.5V5.502ZM7 4.467a.5.5 0 1 1-1 0 .5.5 0 0 1 1 0Zm0 2a.5.5 0 1 1-1 0 .5.5 0 0 1 1 0Zm-.5 2.5a.5.5 0 1 0 0-1 .5.5 0 0 0 0 1Zm.5 1.5a.5.5 0 1 1-1 0 .5.5 0 0 1 1 0Zm-.5 2.5a.5.5 0 1 0 0-1 .5.5 0 0 0 0 1Zm.5 1.5a.5.5 0 1 1-1 0 .5.5 0 0 1 1 0Zm-.5 2.5a.5.5 0 1 0 0-1 .5.5 0 0 0 0 1Zm.5 1.5a.5.5 0 1 1-1 0 .5.5 0 0 1 1 0Zm-.5 2.5a.5.5 0 1 0 0-1 .5.5 0 0 0 0 1ZM19 4.467a.5.5 0 1 1-1 0 .5.5 0 0 1 1 0Zm-.5 2.5a.5.5 0 1 0 0-1 .5.5 0 0 0 0 1Zm.5 1.5a.5.5 0 1 1-1 0 .5.5 0 0 1 1 0Zm-.5 2.5a.5.5 0 1 0 0-1 .5.5 0 0 0 0 1Zm.5 1.5a.5.5 0 1 1-1 0 .5.5 0 0 1 1 0Zm-.5 2.5a.5.5 0 1 0 0-1 .5.5 0 0 0 0 1Zm.5 1.5a.5.5 0 1 1-1 0 .5.5 0 0 1 1 0Zm-.5 2.5a.5.5 0 1 0 0-1 .5.5 0 0 0 0 1Zm.5 1.5a.5.5 0 1 1-1 0 .5.5 0 0 1 1 0Z" fill="#18303F" id="iconDefault"/></g></svg>