<svg width="25" height="25" viewBox="0 0 25 25" fill="none"><g id="shading"><path fill-rule="evenodd" clip-rule="evenodd" d="M6.785 2.122a3.5 3.5 0 0 0-3.5 3.5v13.756a3.5 3.5 0 0 0 3.5 3.5H8.91a.5.5 0 0 0 0-1H6.785a2.5 2.5 0 0 1-2.5-2.5V8.792a1.5 1.5 0 0 0 .5.086h5.864c.014.248.22.445.472.445h2.757a.473.473 0 0 0 .472-.445h5.865c.175 0 .343-.03.499-.085v10.585a2.5 2.5 0 0 1-2.5 2.5h-6.371a.5.5 0 0 0 0 1h6.37a3.5 3.5 0 0 0 3.5-3.5V7.416a.478.478 0 0 0 .002-.038V6.205a.16.16 0 0 0-.001-.022v-.561a3.5 3.5 0 0 0-3.5-3.5H6.784ZM20.714 7.4V5.622a2.5 2.5 0 0 0-2.5-2.5H6.784a2.5 2.5 0 0 0-2.5 2.5v.561l.001.011v1.184a.5.5 0 0 0 .5.5h15.43a.499.499 0 0 0 .499-.478ZM6.5 5.087a.5.5 0 1 0 0-1 .5.5 0 0 0 0 1Zm0 2a.5.5 0 1 0 0-1 .5.5 0 0 0 0 1Zm12-2a.5.5 0 1 0 0-1 .5.5 0 0 0 0 1Zm0 2a.5.5 0 1 0 0-1 .5.5 0 0 0 0 1Zm-9.699 10v-3.794l-1.092 1.092a.5.5 0 1 1-.707-.707l1.944-1.945a.501.501 0 0 1 .725.018l1.927 1.927a.5.5 0 0 1-.707.707l-1.09-1.09v3.792a.5.5 0 0 1-1 0Zm7.402-1.208 1.09-1.09a.5.5 0 1 1 .707.707l-1.926 1.926a.502.502 0 0 1-.725.018l-1.945-1.944a.5.5 0 0 1 .707-.707l1.092 1.091v-3.793a.5.5 0 0 1 1 0v3.792Zm-5.319 6.5a.5.5 0 1 1-.999 0 .5.5 0 0 1 .999 0Z" fill="#18303F" yggColor="iconDefault"/></g></svg>