<svg width="25" height="25" viewBox="0 0 25 25" fill="none"><g id="siren_settings"><path fill-rule="evenodd" clip-rule="evenodd" d="M8.01.579a.5.5 0 0 1 0 1c-3.024 0-5.5 2.476-5.5 5.5a.5.5 0 0 1-1 0c0-3.576 2.923-6.5 6.5-6.5Zm8.98 0a.5.5 0 0 0 0 1c3.024 0 5.5 2.476 5.5 5.5a.5.5 0 0 0 1 0c0-3.576-2.924-6.5-6.5-6.5Zm-1.468 3.865a.5.5 0 0 1 .599-.376 5.04 5.04 0 0 1 3.789 3.735.5.5 0 0 1-.972.236 4.038 4.038 0 0 0-3.04-2.996.5.5 0 0 1-.376-.599Zm-6.045 0a.499.499 0 0 0-.598-.376A5.04 5.04 0 0 0 5.09 7.803a.5.5 0 0 0 .972.236 4.039 4.039 0 0 1 3.039-2.996.5.5 0 0 0 .376-.599ZM6.945 22.275h2.959a2.451 2.451 0 0 0 4.865 0h2.955a1.5 1.5 0 0 0 1.497-1.599l-.48-7.258a6.42 6.42 0 0 0-12.813 0l-.48 7.258a1.5 1.5 0 0 0 1.497 1.6Zm5.391 1.146c.697 0 1.279-.49 1.419-1.146h-2.838c.14.655.722 1.146 1.419 1.146Zm-.001-15a5.42 5.42 0 0 0-5.409 5.062l-.48 7.26a.5.5 0 0 0 .499.532h10.779a.5.5 0 0 0 .499-.533l-.48-7.259a5.42 5.42 0 0 0-5.408-5.062Z" fill="#18303F" id="iconDefault"/></g></svg>