<svg width="25" height="25" viewBox="0 0 25 25" fill="none"><g id="smoke"><path fill-rule="evenodd" clip-rule="evenodd" d="M15.594 1.342a5.966 5.966 0 0 0-4.793.256c-.37-.45-.856-.786-1.444-1.007-1.712-.647-3.503.067-4.392 1.585-.792-.166-1.666-.012-2.323.53a2.855 2.855 0 0 0-.988 2.617c.16 1 .91 1.788 1.8 2.125a.5.5 0 1 0 .353-.936c-.606-.229-1.07-.752-1.165-1.346a1.856 1.856 0 0 1 .637-1.688c.463-.383 1.16-.469 1.765-.24a.5.5 0 0 0 .633-.264c.593-1.329 2-1.95 3.327-1.448.56.211.956.54 1.22.984a.497.497 0 0 0 .692.17 4.95 4.95 0 0 1 4.325-.403 4.95 4.95 0 0 1 2.98 3.16.5.5 0 0 0 .632.331c.491-.16 1.005-.144 1.565.067 1.352.51 2.045 1.945 1.55 3.257a.5.5 0 0 0 .29.645c.606.228 1.071.752 1.165 1.345a1.856 1.856 0 0 1-.637 1.689c-.464.383-1.158.468-1.764.24a.5.5 0 0 0-.354.935c.891.337 1.975.24 2.755-.405a2.855 2.855 0 0 0 .988-2.616c-.133-.834-.678-1.522-1.373-1.922.406-1.73-.582-3.468-2.267-4.104a3.373 3.373 0 0 0-1.75-.198 5.963 5.963 0 0 0-3.427-3.36Zm-3.688 12.677c.616-.617 1.562-1 2.42-1 .891 0 1.746.408 2.4 1h1.6c1.376 0 2.5 1.124 2.5 2.5s-1.124 2.5-2.5 2.5a.5.5 0 0 1 0-1c.824 0 1.5-.676 1.5-1.5s-.676-1.5-1.5-1.5h-1.8a.501.501 0 0 1-.354-.146c-.53-.53-1.209-.854-1.846-.854-.662 0-1.418.342-1.816.82a.5.5 0 0 1-.384.18h-1.8c-.824 0-1.5.676-1.5 1.5s.676 1.5 1.5 1.5a.5.5 0 0 1 0 1 2.506 2.506 0 0 1-2.5-2.5c0-1.376 1.124-2.5 2.5-2.5h1.58Zm-6.365 2.5a.5.5 0 1 0 0-1 .5.5 0 0 0 0 1Zm-2.119 2.276a.5.5 0 0 1 .605-.366c3.637.893 5.381 3.356 5.381 5.486a.5.5 0 0 1-1 0c0-1.565-1.318-3.704-4.619-4.515a.5.5 0 0 1-.367-.605Zm13.243 3.07a.5.5 0 1 0-.679-.733c-1.019.943-1.424 2.046-1.397 3.03a.5.5 0 1 0 1-.027c-.019-.677.255-1.51 1.076-2.27Zm-4.257-1.95a.5.5 0 0 0-1 0v3.632a.5.5 0 0 0 1 0v-3.633Zm5.918.2a.5.5 0 1 1-1 0 .5.5 0 0 1 1 0Zm-7.112-12.75A4.738 4.738 0 0 0 7.488 7.2 4.738 4.738 0 0 0 4.8 9.786a2.746 2.746 0 0 0-1.325.172c-1.33.502-2.125 1.859-1.845 3.231-.53.33-.943.872-1.048 1.527a2.327 2.327 0 0 0 .805 2.133c.64.529 1.524.605 2.247.332a.5.5 0 0 0-.353-.935c-.438.165-.933.1-1.257-.168a1.326 1.326 0 0 1-.454-1.204c.066-.415.394-.791.831-.956a.499.499 0 0 0 .291-.644c-.36-.955.141-2.005 1.136-2.38.412-.156.785-.165 1.14-.05a.499.499 0 0 0 .632-.331 3.725 3.725 0 0 1 5.495-2.075.5.5 0 0 0 .693-.17c.19-.32.476-.56.888-.715.97-.366 2 .084 2.436 1.063a.5.5 0 0 0 .633.264c.438-.165.934-.1 1.257.167.346.286.526.763.455 1.205-.066.415-.394.79-.832.956l-.508.192a.5.5 0 0 0 .353.935l.508-.192c.723-.272 1.336-.914 1.467-1.734a2.325 2.325 0 0 0-.806-2.132c-.517-.428-1.194-.56-1.816-.45-.729-1.174-2.144-1.721-3.5-1.21a2.748 2.748 0 0 0-1.109.747Z" fill="#18303F" id="iconDefault"/></g></svg>