<svg width="25" height="25" viewBox="0 0 25 25" fill="none"><g id="smoke_off"><path fill-rule="evenodd" clip-rule="evenodd" d="M16.026.99a5.964 5.964 0 0 0-4.792.256C10.864.796 10.377.46 9.79.238 8.077-.408 6.286.306 5.397 1.824c-.792-.166-1.666-.012-2.323.53a2.856 2.856 0 0 0-.987 2.617c.159.999.909 1.788 1.8 2.125a.5.5 0 1 0 .353-.936c-.606-.229-1.071-.752-1.166-1.346-.099-.621.152-1.288.637-1.688.464-.383 1.16-.469 1.766-.24a.5.5 0 0 0 .633-.264c.593-1.329 1.999-1.95 3.326-1.448.56.211.956.54 1.22.984a.5.5 0 0 0 .692.17 4.95 4.95 0 0 1 4.325-.403 4.95 4.95 0 0 1 2.98 3.16.5.5 0 0 0 .632.331c.49-.16 1.006-.144 1.565.067 1.352.51 2.045 1.945 1.55 3.257a.5.5 0 0 0 .29.644c.607.23 1.07.752 1.166 1.346.059.372-.007.764-.18 1.108a.5.5 0 1 0 .894.449c.262-.52.367-1.124.273-1.714-.133-.834-.677-1.522-1.373-1.922.407-1.731-.582-3.468-2.267-4.104-.587-.221-1.174-.291-1.75-.198A5.964 5.964 0 0 0 16.026.99ZM8.258 16.167c0-1.376 1.124-2.5 2.5-2.5h.8a.5.5 0 0 1 0 1h-.8c-.824 0-1.5.676-1.5 1.5s.676 1.5 1.5 1.5a.5.5 0 0 1 0 1 2.506 2.506 0 0 1-2.5-2.5Zm-2.285 0a.5.5 0 1 0 0-1 .5.5 0 0 0 0 1Zm-2.119 2.276a.5.5 0 0 1 .605-.366c3.638.893 5.381 3.355 5.381 5.485a.5.5 0 1 1-1 0c0-1.564-1.318-3.704-4.62-4.514a.5.5 0 0 1-.366-.605Zm8.486 3.62a.5.5 0 0 1 .5.5v.632a.5.5 0 1 1-1 0v-.633a.5.5 0 0 1 .5-.5Zm-.694-15.05a4.738 4.738 0 0 0-3.726-.165 4.738 4.738 0 0 0-2.688 2.586 2.748 2.748 0 0 0-1.325.172c-1.33.502-2.125 1.859-1.845 3.231-.53.33-.943.872-1.048 1.527a2.326 2.326 0 0 0 .805 2.133c.64.529 1.524.605 2.247.332a.5.5 0 1 0-.353-.935c-.438.165-.933.1-1.256-.168a1.326 1.326 0 0 1-.455-1.204c.066-.415.394-.791.832-.956a.5.5 0 0 0 .29-.645c-.36-.954.142-2.004 1.136-2.38.413-.155.785-.165 1.139-.05a.5.5 0 0 0 .633-.33 3.725 3.725 0 0 1 2.242-2.378 3.725 3.725 0 0 1 3.253.303.5.5 0 0 0 .693-.17c.19-.32.476-.56.888-.715.97-.366 2 .084 2.436 1.063a.5.5 0 0 0 .634.264c.438-.165.933-.1 1.257.167.345.286.525.763.454 1.205a.5.5 0 1 0 .988.157 2.326 2.326 0 0 0-.805-2.132c-.517-.428-1.194-.56-1.816-.45-.73-1.174-2.145-1.721-3.501-1.21a2.748 2.748 0 0 0-1.109.747Zm6.923 5.893a4.885 4.885 0 1 0 0 9.77 4.885 4.885 0 0 0 0-9.77Zm-5.885 4.885a5.885 5.885 0 1 1 11.77 0 5.885 5.885 0 0 1-11.77 0Zm4.69 2.335.005.006.014.014a.498.498 0 0 0 .727-.02l3.685-3.686a.5.5 0 1 0-.707-.707l-3.351 3.351-1.71-1.709a.5.5 0 0 0-.707.707l2.045 2.044Z" fill="#18303F" id="iconDefault"/></g></svg>