<svg width="25" height="25" viewBox="0 0 25 25" fill="none"><g id="smoke_off"><path fill-rule="evenodd" clip-rule="evenodd" d="M15.686 1.427a5.965 5.965 0 0 0-4.793.257c-.37-.451-.856-.786-1.444-1.008C7.737.029 5.946.744 5.057 2.262c-.792-.167-1.666-.013-2.323.53a2.856 2.856 0 0 0-.988 2.617c.16.999.91 1.788 1.8 2.124a.5.5 0 1 0 .353-.936c-.606-.228-1.07-.752-1.165-1.346-.1-.621.152-1.287.637-1.688.464-.383 1.16-.469 1.765-.24a.5.5 0 0 0 .634-.264c.592-1.328 1.999-1.949 3.326-1.447.56.21.956.54 1.219.983a.5.5 0 0 0 .693.17 4.95 4.95 0 0 1 4.325-.402 4.95 4.95 0 0 1 2.98 3.16.5.5 0 0 0 .632.33c.49-.159 1.005-.144 1.565.067 1.352.511 2.045 1.945 1.55 3.258a.5.5 0 0 0 .29.644c.606.229 1.07.752 1.165 1.346.06.372-.006.764-.179 1.108a.5.5 0 1 0 .894.448c.261-.52.367-1.124.273-1.714-.133-.834-.678-1.522-1.373-1.922.407-1.73-.582-3.467-2.267-4.103-.587-.222-1.174-.292-1.75-.198a5.964 5.964 0 0 0-3.427-3.36ZM7.918 16.604c0-1.376 1.124-2.5 2.5-2.5h.8a.5.5 0 1 1 0 1h-.8c-.824 0-1.5.677-1.5 1.5 0 .824.676 1.5 1.5 1.5a.5.5 0 1 1 0 1 2.506 2.506 0 0 1-2.5-2.5Zm-2.285 0a.5.5 0 1 0 0-1 .5.5 0 0 0 0 1Zm-2.119 2.277a.5.5 0 0 1 .605-.367c3.637.893 5.38 3.356 5.38 5.486a.5.5 0 1 1-1 0c0-1.564-1.317-3.704-4.618-4.515a.5.5 0 0 1-.367-.604ZM12 22.5a.5.5 0 0 1 .5.5v.633a.5.5 0 1 1-1 0V23a.5.5 0 0 1 .5-.5Zm-.694-15.05a4.738 4.738 0 0 0-3.726-.165 4.738 4.738 0 0 0-2.688 2.586 2.747 2.747 0 0 0-1.325.172c-1.33.502-2.125 1.86-1.845 3.232-.53.33-.943.871-1.048 1.527a2.326 2.326 0 0 0 .805 2.132c.64.53 1.524.605 2.247.333a.5.5 0 1 0-.353-.936c-.438.165-.933.1-1.257-.167a1.326 1.326 0 0 1-.454-1.205c.066-.415.394-.79.831-.956a.5.5 0 0 0 .291-.644c-.36-.955.141-2.005 1.136-2.38.412-.156.785-.165 1.139-.05a.5.5 0 0 0 .633-.33A3.725 3.725 0 0 1 7.933 8.22a3.725 3.725 0 0 1 3.254.303.5.5 0 0 0 .693-.17c.19-.32.476-.56.888-.715.97-.367 2 .084 2.436 1.063a.5.5 0 0 0 .633.264c.438-.166.934-.1 1.257.167.346.285.526.762.455 1.204a.5.5 0 1 0 .988.158 2.326 2.326 0 0 0-.805-2.133c-.518-.427-1.195-.559-1.817-.45-.728-1.174-2.144-1.72-3.5-1.209a2.748 2.748 0 0 0-1.109.747Zm6.923 5.894a4.885 4.885 0 1 0 0 9.77 4.885 4.885 0 0 0 0-9.77Zm-5.885 4.885a5.885 5.885 0 1 1 11.77 0 5.885 5.885 0 0 1-11.77 0Zm4.69 2.335.005.005.014.014a.498.498 0 0 0 .727-.02l3.685-3.685a.5.5 0 1 0-.707-.707l-3.351 3.351-1.71-1.71a.5.5 0 0 0-.707.708l2.044 2.044Z" fill="#18303F" yggColor="iconDefault"/></g></svg>