<svg width="26" height="26" viewBox="0 0 26 26" fill="none"><g id="spider"><path fill-rule="evenodd" clip-rule="evenodd" d="M8.514 20.528a3.592 3.592 0 0 1 .575-1.949 6.115 6.115 0 0 1-1.184-.966l-.373.062a4.027 4.027 0 0 0-2.815 1.89.519.519 0 1 1-.889-.538 5.058 5.058 0 0 1 3.348-2.344 5.842 5.842 0 0 1-.915-2.681c-1.118-.18-2.248.055-3.03.656L1.99 15.664a.52.52 0 1 1-.655-.807l1.246-1.011.01-.008c1.015-.782 2.388-1.061 3.702-.882a6.16 6.16 0 0 1 1.244-2.978l-.354-.219c-1.325-.699-2.926-.68-4.104.097l-.011.008-.01.005-2.267 1.348a.52.52 0 1 1-.531-.893l2.257-1.342c1.537-1.01 3.551-.994 5.169-.133.01.005.02.01.029.017l.538.332a6.669 6.669 0 0 1 4.25-1.757.504.504 0 0 1-.025-.159l-.026-6.236a.52.52 0 0 1 1.04 0l.025 6.236a.504.504 0 0 1-.025.159 6.67 6.67 0 0 1 4.25 1.753l.54-.334a.343.343 0 0 1 .029-.017c1.616-.862 3.63-.88 5.168.128l2.259 1.339a.52.52 0 0 1-.53.894l-2.27-1.345a.448.448 0 0 0-.016-.011l-.004-.002c-1.178-.777-2.78-.794-4.104-.093l-.355.22a6.154 6.154 0 0 1 1.247 2.976c1.315-.181 2.688.097 3.703.878l.01.008 1.248 1.009a.52.52 0 1 1-.654.808l-1.242-1.005c-.784-.6-1.914-.834-3.032-.652-.075.96-.4 1.88-.913 2.682a5.058 5.058 0 0 1 3.353 2.34.52.52 0 0 1-.889.54 4.024 4.024 0 0 0-2.816-1.888l-.375-.062c-.357.375-.76.706-1.202.98.375.594.593 1.29.593 2.049.002 2.238-2.09 4.111-4.485 4.113-2.407 0-4.49-1.88-4.49-4.22Zm-1.23-6.948a5.15 5.15 0 0 1 1.322-3.26.508.508 0 0 0 .209-.22 5.616 5.616 0 0 1 4.2-1.622 5.617 5.617 0 0 1 4.17 1.621.515.515 0 0 0 .203.214 5.148 5.148 0 0 1 1.328 3.262c-.002 1.104-.42 2.179-1.121 3.033a.517.517 0 0 0-.188.218 5.043 5.043 0 0 1-1.18.95c-.832-.78-1.992-1.25-3.228-1.249-1.236.001-2.402.474-3.234 1.246a5.033 5.033 0 0 1-1.165-.938.526.526 0 0 0-.194-.224c-.7-.853-1.12-1.925-1.122-3.027v-.005ZM13 17.566c-1.936 0-3.448 1.404-3.447 2.96 0 1.7 1.547 3.183 3.45 3.182 1.913 0 3.447-1.496 3.446-3.073 0-1.679-1.525-3.07-3.45-3.07Zm.768 3.57a.516.516 0 0 1 .518-.515c.287 0 .52.23.521.514a.518.518 0 0 1-.52.515.517.517 0 0 1-.52-.514Zm-2.048-.514a.517.517 0 0 0-.519.515c0 .284.233.514.52.514.287 0 .52-.23.52-.515a.517.517 0 0 0-.521-.514Z" fill="#18303F" id="iconDefault"/></g></svg>