<svg width="25" height="25" viewBox="0 0 25 25" fill="none"><g id="steam"><path fill-rule="evenodd" clip-rule="evenodd" d="M16.498 5.256a.5.5 0 0 1-.055.566.177.177 0 0 0-.025.043 1.258 1.258 0 0 0-.047.121l-.007.019c-.296.733-.03 1.634 1.049 2.481l.252.195c.389.301.76.588 1.068.881.384.367.705.776.892 1.305a3.02 3.02 0 0 1 .063 1.861c-.38 1.062-1.381 1.74-2.514 1.907a.5.5 0 0 1-.455-.818.178.178 0 0 0 .025-.042c.013-.029.026-.062.047-.121.278-.775-.152-1.71-1.032-2.368l-.005-.004c-1.33-1.02-1.911-1.598-2.253-2.509a2.612 2.612 0 0 1-.027-1.862c.38-1.06 1.38-1.74 2.514-1.906a.5.5 0 0 1 .51.251Zm-1.232 1.027c-.41.23-.708.568-.851.965-.134.375-.135.788.015 1.154l.006.015c.233.627.605 1.058 1.924 2.07.887.665 1.61 1.737 1.509 2.885.416-.227.722-.564.87-.961.1-.396.092-.79-.057-1.21v-.002c-.117-.33-.323-.612-.64-.913-.266-.255-.585-.502-.972-.8l-.272-.212h-.001c-1.057-.83-1.666-1.9-1.531-2.991Zm-6.89 4.334a.5.5 0 0 1-.055.566.175.175 0 0 0-.025.042 1.607 1.607 0 0 0-.047.121l-.007.02c-.296.732-.03 1.633 1.05 2.48l.252.196c.389.3.76.587 1.067.88.384.367.706.776.892 1.305a3.02 3.02 0 0 1 .063 1.862c-.38 1.06-1.381 1.74-2.514 1.906a.5.5 0 0 1-.454-.817.241.241 0 0 0 .024-.043c.014-.029.026-.062.047-.121.278-.775-.151-1.709-1.032-2.368l-.005-.003c-1.328-1.02-1.911-1.598-2.252-2.51a2.617 2.617 0 0 1-.028-1.861c.38-1.062 1.38-1.74 2.515-1.907a.5.5 0 0 1 .51.252Zm-1.232 1.026c-.41.23-.708.568-.85.966-.134.374-.136.787.014 1.153l.006.015c.234.627.606 1.058 1.925 2.07.887.665 1.61 1.738 1.509 2.885.416-.226.72-.563.87-.96.1-.397.092-.791-.057-1.21l-.001-.002c-.116-.331-.323-.612-.64-.914-.266-.254-.585-.501-.972-.8a89.198 89.198 0 0 1-.271-.211l-.002-.001c-1.057-.83-1.665-1.899-1.531-2.99Zm5.238-3.14a.5.5 0 0 0-.454-.818c-1.134.166-2.135.845-2.515 1.906a2.617 2.617 0 0 0 .028 1.862c.34.911.924 1.49 2.252 2.51l.005.003c.88.659 1.31 1.593 1.032 2.368-.021.059-.033.092-.047.121-.011.026-.02.037-.024.042a.5.5 0 0 0 .454.818c1.133-.167 2.134-.846 2.514-1.907a3.02 3.02 0 0 0-.063-1.862c-.186-.528-.508-.937-.892-1.304-.307-.293-.678-.58-1.067-.88h-.001l-.251-.196c-1.08-.847-1.346-1.748-1.05-2.481a.138.138 0 0 0 .007-.019c.022-.06.034-.092.047-.121a.177.177 0 0 1 .025-.043Zm-2.027 1.426c.142-.398.44-.736.85-.966-.134 1.092.474 2.16 1.53 2.99l.003.002.27.21c.388.3.707.546.974.8.316.302.523.584.639.914v.002c.15.42.158.814.058 1.21-.15.398-.454.735-.87.96.1-1.146-.622-2.22-1.51-2.884-1.318-1.012-1.69-1.443-1.924-2.07l-.006-.015a1.614 1.614 0 0 1-.014-1.153Z" fill="#18303F" id="iconDefault"/></g></svg>