<svg width="25" height="25" viewBox="0 0 25 25" fill="none"><g id="stopwatch"><path fill-rule="evenodd" clip-rule="evenodd" d="M10 2.75a1 1 0 1 1 0-2h5a1 1 0 1 1 0 2h-.5v2.2a9.953 9.953 0 0 1 5.071 2.729c3.905 3.905 3.905 10.237 0 14.142-3.905 3.905-10.237 3.905-14.142 0-3.905-3.905-3.905-10.237 0-14.142A9.953 9.953 0 0 1 10.5 4.95V2.75H10Zm3.5 2.05a10.06 10.06 0 0 0-2 0V2.75h2V4.8Zm5.364 3.586a9.004 9.004 0 0 0-12.728 0 9 9 0 1 0 12.728 0Zm1.93-2.136-.538.538a.5.5 0 0 0 .707.707l.537-.537.146.146a.5.5 0 0 0 .708-.708l-.482-.481a.476.476 0 0 0-.036-.036l-.482-.483a.5.5 0 0 0-.708.708l.147.146ZM7.145 9.896a.5.5 0 0 1 .708 0l3.5 3.5a.5.5 0 0 1-.708.708l-3.5-3.5a.5.5 0 0 1 0-.708ZM12.5 14.75a.5.5 0 1 1-1 0 .5.5 0 0 1 1 0Z" fill="#18303F" yggColor="iconDefault"/></g></svg>