<svg width="25" height="25" viewBox="0 0 25 25" fill="none"><g id="support"><path fill-rule="evenodd" clip-rule="evenodd" d="M12.5 3.958a8.542 8.542 0 1 0 0 17.084 8.542 8.542 0 0 0 0-17.084ZM2.708 12.5c0-5.408 4.384-9.792 9.792-9.792 5.408 0 9.792 4.384 9.792 9.792 0 5.408-4.384 9.792-9.792 9.792-5.408 0-9.792-4.384-9.792-9.792ZM12.5 8.958c-1.036 0-1.875.84-1.875 1.875a.625.625 0 0 1-1.25 0 3.125 3.125 0 1 1 3.75 3.063V15a.625.625 0 1 1-1.25 0v-1.667c0-.345.28-.625.625-.625a1.875 1.875 0 0 0 0-3.75Zm0 8.75c.345 0 .625.28.625.625v.167a.625.625 0 1 1-1.25 0v-.167c0-.345.28-.625.625-.625Z" fill="#18303F" id="iconDefault"/></g></svg>