<svg width="25" height="25" viewBox="0 0 25 25" fill="none"><g id="tamper_not_safe_colorful"><path fill-rule="evenodd" clip-rule="evenodd" d="M2.298 18.005C.642 16.35.62 13.672 2.267 12.026l.38-.38a.5.5 0 0 1 .707.708l-.38.38c-1.248 1.247-1.242 3.29.031 4.564l5.303 5.303c1.274 1.274 3.317 1.28 4.566.032l2.62-2.62c.765-.767.764-2.024-.02-2.809-.786-.785-2.043-.786-2.809-.02-1.163 1.164-3.054 1.146-4.221-.021a2.998 2.998 0 0 1-.542-3.518c.135-.254.309-.492.52-.704a.5.5 0 1 1 .708.707 1.944 1.944 0 0 0-.344.465 1.998 1.998 0 0 0 .365 2.343c.785.785 2.042.786 2.807.02 1.164-1.163 3.055-1.146 4.222.021 1.168 1.168 1.185 3.058.021 4.222l-2.62 2.62c-1.647 1.647-4.324 1.625-5.98-.03l-5.303-5.304Zm9.758-15.1a.5.5 0 0 1 .054-.705c1.657-1.423 4.165-1.33 5.744.249l5.304 5.303c1.655 1.656 1.677 4.333.03 5.98l-2.62 2.62a.5.5 0 1 1-.707-.707c.766-.766.764-2.023-.02-2.808-.786-.785-2.043-.786-2.808-.02-1.164 1.163-3.054 1.146-4.222-.021a3.008 3.008 0 0 1-.885-2.123.5.5 0 1 1 1-.002 2.008 2.008 0 0 0 .592 1.418c.785.784 2.042.786 2.808.02 1.164-1.164 3.054-1.147 4.222.021.542.542.836 1.24.879 1.95l1.055-1.056c1.248-1.248 1.242-3.292-.031-4.565l-5.304-5.303c-1.214-1.214-3.13-1.276-4.386-.197a.5.5 0 0 1-.705-.054Zm1.434 2.88a.5.5 0 0 1 .651.275c.334.823.29 1.763-.141 2.55a.5.5 0 0 1-.877-.48 1.987 1.987 0 0 0 .091-1.695.5.5 0 0 1 .276-.65Z" fill="#18303F" id="iconDefault"/><path d="M9.276 8.1a.5.5 0 0 1-.707.707L7.052 7.291 5.51 8.834a.5.5 0 0 1-.707-.707l1.543-1.543-1.48-1.481a.5.5 0 0 1 .706-.708l1.481 1.481 1.454-1.454a.5.5 0 0 1 .707.708L7.76 6.584 9.276 8.1Z" fill="#F28102" id="backgroundWarningDefault"/><path fill-rule="evenodd" clip-rule="evenodd" d="M7.037 11.5a4.884 4.884 0 1 0 0-9.769 4.884 4.884 0 0 0 0 9.769Zm5.884-4.884a5.884 5.884 0 1 1-11.769 0 5.884 5.884 0 0 1 11.769 0Z" fill="#6D7B82" id="iconWeak"/></g></svg>