<svg width="25" height="25" viewBox="0 0 25 25" fill="none"><g id="tamper_safe_colorful"><path d="M17.472 21.389a.5.5 0 0 0 .736.008l3.694-3.694a.5.5 0 1 0-.707-.707l-3.35 3.35-1.71-1.709a.5.5 0 0 0-.707.707l2.044 2.044Z" fill="#038C6A" id="iconSuccess"/><path fill-rule="evenodd" clip-rule="evenodd" d="M18.666 14.17a4.884 4.884 0 1 0 0 9.769 4.884 4.884 0 0 0 0-9.77Zm-5.885 4.884a5.884 5.884 0 1 1 11.769 0 5.884 5.884 0 0 1-11.769 0Z" fill="#6D7B82" id="iconWeak"/><path fill-rule="evenodd" clip-rule="evenodd" d="M.5 4.75A4.25 4.25 0 0 1 4.75.5h7.5a4.25 4.25 0 0 1 4.25 4.25v7.5a.5.5 0 0 1-1 0v-7.5a3.25 3.25 0 0 0-3.25-3.25h-1.514a3 3 0 0 1-2.236 5 2 2 0 1 0 0 4 3 3 0 0 1 2.236 5h1.514a.5.5 0 0 1 0 1h-7.5A4.25 4.25 0 0 1 .5 12.25v-7.5Zm8 10.75a2 2 0 1 0 0-4 3 3 0 1 1 0-6 2 2 0 0 0 0-4H4.75A3.25 3.25 0 0 0 1.5 4.75v7.5a3.25 3.25 0 0 0 3.25 3.25H8.5Z" fill="#18303F" id="iconDefault"/></g></svg>