<svg width="25" height="25" viewBox="0 0 25 25" fill="none"><g id="tamper_safe"><path d="M4.75.5A4.25 4.25 0 0 0 .5 4.75v7.5a4.25 4.25 0 0 0 4.25 4.25h7.5a.5.5 0 0 0 0-1h-1.514a3 3 0 0 0-2.236-5 2 2 0 1 1 0-4 3 3 0 0 0 2.236-5h1.514a3.25 3.25 0 0 1 3.25 3.25v7.5a.5.5 0 0 0 1 0v-7.5A4.25 4.25 0 0 0 12.25.5h-7.5Zm0 1H8.5a2 2 0 0 1 0 4 3 3 0 0 0 0 6 2 2 0 1 1 0 4H4.75a3.25 3.25 0 0 1-3.25-3.25v-7.5A3.25 3.25 0 0 1 4.75 1.5Zm13.916 11.67a5.885 5.885 0 0 0 0 11.77 5.883 5.883 0 0 0 5.883-5.885 5.883 5.883 0 0 0-5.883-5.885Zm0 1a4.883 4.883 0 0 1 4.883 4.885 4.883 4.883 0 1 1-9.768 0 4.885 4.885 0 0 1 4.885-4.885Zm2.883 2.68a.498.498 0 0 0-.354.146l-3.351 3.35-1.71-1.71a.5.5 0 0 0-.706.708l2.045 2.045.017.02a.5.5 0 0 0 .707 0l.012-.012 3.693-3.694a.5.5 0 0 0-.353-.853Z" fill="#18303F" id="iconDefault"/></g></svg>