<svg width="25" height="25" viewBox="0 0 25 25" fill="none"><g id="tamper_ok"><path fill-rule="evenodd" clip-rule="evenodd" d="M.7.562a.5.5 0 0 1 .5-.5h20.623a.5.5 0 0 1 0 1h-1.725a.5.5 0 0 1-.007.082l-.494 2.963a346.115 346.115 0 0 0 1.253-.045c1.284 0 2.275 1.022 2.397 2.25a.486.486 0 0 1 .003.05v2.4c0 .565-.266 1.132-.66 1.552-.395.421-.963.742-1.622.747-1.083.072-2.088.132-3.041.18-.104.243-.3.436-.488.576-.293.218-.692.405-1.157.558-.937.31-2.242.515-3.782.515s-2.845-.206-3.782-.515c-.465-.153-.864-.34-1.157-.558-.19-.141-.387-.335-.49-.581-.952-.048-1.956-.106-3.038-.175-.693-.006-1.262-.413-1.635-.841-.367-.423-.648-.985-.648-1.458v-2.4a2.293 2.293 0 0 1 2.3-2.3h.017l1.332.043-.494-2.961a.504.504 0 0 1-.007-.082H1.2a.5.5 0 0 1-.5-.5Zm2.05 5.8v2.4c0 .139.12.476.402.801.274.315.598.498.898.498.01 0 .021 0 .032.002 6.58.42 10.258.438 16.835 0a.523.523 0 0 1 .033-.002c.334 0 .659-.163.91-.43.256-.274.39-.606.39-.87V6.389c-.087-.758-.686-1.322-1.391-1.326-6.635.254-10.212.22-16.817 0a1.292 1.292 0 0 0-1.292 1.3Zm3.643-2.227c4.497.13 7.682.147 12.21.005a.498.498 0 0 1 .002-.16l.486-2.918H5.905l.487 2.917a.5.5 0 0 1 .001.156Zm2.316 7.172c.098.04.205.08.323.119.813.268 2.008.464 3.468.464s2.655-.196 3.468-.464c.112-.037.215-.075.308-.113a96.97 96.97 0 0 1-7.567-.006ZM23.27.563a.5.5 0 0 1 .5-.5h.03a.5.5 0 1 1 0 1h-.03a.5.5 0 0 1-.5-.5Zm-6.047 20.826a.5.5 0 0 0 .726.019l.01-.01 3.694-3.694a.5.5 0 1 0-.707-.707l-3.35 3.35-1.71-1.709a.5.5 0 0 0-.707.707l2.044 2.044Zm-3.69-2.334a4.884 4.884 0 1 1 9.768 0 4.884 4.884 0 0 1-9.769 0Zm4.884-5.884a5.884 5.884 0 1 0 0 11.769 5.884 5.884 0 0 0 0-11.77Z" fill="#18303F" id="iconDefault"/></g></svg>