<svg width="25" height="25" viewBox="0 0 25 25" fill="none"><g id="temporary_pin"><path fill-rule="evenodd" clip-rule="evenodd" d="M2.2 24.5H23a1.5 1.5 0 0 0 1.5-1.5v-4a1.5 1.5 0 0 0-1.5-1.5H9A1.5 1.5 0 0 0 7.5 19v2.6H6.02L6 21.598H3.699v-2.7c0-1.355.638-2.864 1.708-4.039.9-.99 2.076-1.708 3.37-1.906a5.77 5.77 0 0 0 1.443 0c1.85.284 3.455 1.628 4.35 3.284a.5.5 0 0 0 .88-.476c-.751-1.387-1.97-2.63-3.468-3.313a7.299 7.299 0 0 0 2.35-1.738c1.17-1.286 1.922-2.964 1.965-4.567.002-.015.002-.03.002-.044V3.199h.502c.776 0 1.4-.623 1.4-1.4 0-.776-.624-1.4-1.4-1.4H2.2C1.425.4.8 1.023.8 1.8c0 .777.624 1.4 1.4 1.4h.498V6a1.885 1.885 0 0 0 0 .077V6.1c0 .015 0 .03.002.044.043 1.603.796 3.28 1.966 4.567a7.31 7.31 0 0 0 2.35 1.738 7.31 7.31 0 0 0-2.35 1.738C3.46 15.512 2.699 17.253 2.699 18.9v2.7H2.2c-.81 0-1.4.66-1.4 1.5 0 .776.624 1.4 1.4 1.4Zm-.4-1.4c0 .223.177.4.4.4h5.385A1.5 1.5 0 0 1 7.5 23v-.4H2.2c-.19 0-.4.14-.4.5Zm7.2.4h14a.5.5 0 0 0 .5-.5v-4a.5.5 0 0 0-.5-.5H9a.5.5 0 0 0-.5.5v4a.5.5 0 0 0 .472.5H9ZM3.699 5.6V3.3h11.6v2.3h-2.3c-.651 0-1.156.267-1.6.6a.457.457 0 0 0-.034.028l-1 .9a.246.246 0 0 0-.02.018c-.491.492-1.29.524-1.914-.02l-.988-.89C7.038 5.837 6.41 5.6 5.799 5.6h-2.1Zm11.56 1h-2.26c-.342 0-.634.128-.982.387l-.974.876c-.907.897-2.302.863-3.273.013L6.765 6.97a.25.25 0 0 1-.02-.018C6.55 6.758 6.184 6.6 5.8 6.6h-2.06c.156 1.186.754 2.434 1.668 3.438.9.99 2.076 1.708 3.37 1.906.075-.01.149-.017.224-.024L9 11.9a.5.5 0 0 1 1 0v.022c.074.006.148.014.22.023 1.296-.198 2.47-.916 3.372-1.906.914-1.004 1.512-2.252 1.667-3.438ZM2.2 2.2a.396.396 0 0 1-.4-.4c0-.224.176-.4.4-.4h14.6c.224 0 .4.176.4.4 0 .223-.176.4-.4.4H2.2ZM10 9.897a.5.5 0 1 0-1 0 .5.5 0 0 0 1 0Zm2.69 9.665a.5.5 0 0 1 0 .707l-.72.718.763.762a.5.5 0 0 1-.707.707l-.762-.762-.762.762a.5.5 0 1 1-.707-.707l.762-.762-.72-.718a.5.5 0 0 1 .708-.707l.719.718.719-.718a.5.5 0 0 1 .707 0Zm5 0a.5.5 0 0 1 0 .707l-.72.718.763.762a.5.5 0 0 1-.707.707l-.762-.762-.762.762a.5.5 0 1 1-.707-.707l.762-.762-.72-.718a.5.5 0 0 1 .708-.707l.719.718.719-.718a.5.5 0 0 1 .707 0Zm1.84 2.03a.5.5 0 0 0 0 1h2.453a.5.5 0 0 0 0-1H19.53ZM9.5 13.399a.5.5 0 1 1 0 1 .5.5 0 0 1 0-1Zm0 2a.5.5 0 1 1 0 1 .5.5 0 0 1 0-1Z" fill="#18303F" id="iconDefault"/></g></svg>