<svg width="25" height="25" viewBox="0 0 25 25" fill="none"><g id="temperature_critical_colorful"><path d="M18.602 1c-1.361 0-2.5 1.059-2.5 2.412v12.67c-1.2.77-2 2.085-2 3.592 0 2.41 2.035 4.326 4.5 4.326 2.463 0 4.5-1.916 4.5-4.326 0-1.508-.804-2.821-2-3.592V3.412c0-1.353-1.14-2.412-2.5-2.412Zm0 1c.85 0 1.5.652 1.5 1.412v12.953a.5.5 0 0 0 .257.438c1.05.581 1.743 1.653 1.743 2.87 0 1.817-1.546 3.327-3.5 3.327-1.955 0-3.5-1.51-3.5-3.326 0-1.218.691-2.29 1.742-2.871a.5.5 0 0 0 .258-.438V3.412c0-.76.65-1.412 1.5-1.412Zm-.026 2.727a.5.5 0 1 0 .026 0h-.026Zm0 2a.5.5 0 1 0 .026 0h-.026Zm0 2a.5.5 0 1 0 .026 0h-.026Zm0 2a.5.5 0 1 0 .026 0h-.026Zm0 2a.5.5 0 1 0 .026 0h-.026Zm0 2a.5.5 0 1 0 .026 0h-.026Zm0 2a.5.5 0 1 0 .026 0h-.026Zm-.023 1.976a.98.98 0 0 0-.944.97c0 .558.465.972.993.972.526 0 .992-.414.992-.971 0-.557-.466-.97-.992-.97-.017 0-.033-.002-.05 0Zm.049.945.002.002.002.006a.043.043 0 0 1 .003.018.043.043 0 0 1-.003.018l-.004.007-.002-.002-.002-.004a.05.05 0 0 1 0-.039l.002-.002.002-.004Z" fill="#18303F" yggColor="iconDefault"/><path fill-rule="evenodd" clip-rule="evenodd" d="M1.617 6.658a5.884 5.884 0 1 1 11.769 0 5.884 5.884 0 0 1-11.769 0Zm5.884-4.885a4.884 4.884 0 1 0 0 9.769 4.884 4.884 0 0 0 0-9.769Z" fill="#6D7B82" yggColor="iconWeak"/><path d="M5.328 9.012a.5.5 0 0 1 0-.707L6.782 6.85 5.265 5.334a.5.5 0 1 1 .707-.707l1.517 1.517L9.033 4.6a.5.5 0 0 1 .707.707L8.196 6.851l1.48 1.48a.5.5 0 1 1-.707.708l-1.48-1.48-1.454 1.453a.5.5 0 0 1-.707 0Z" fill="#F28102" yggColor="backgroundWarningDefault"/></g></svg>