<svg width="25" height="25" viewBox="0 0 25 25" fill="none"><g id="temperature_ok_colorful"><path fill-rule="evenodd" clip-rule="evenodd" d="M4.5 3.913C4.5 2.56 5.64 1.5 7 1.5s2.5 1.06 2.5 2.413v12.67c1.197.77 2 2.084 2 3.59 0 2.41-2.036 4.327-4.5 4.327-2.465 0-4.5-1.916-4.5-4.326 0-1.507.801-2.821 2-3.592V3.913ZM7 2.5c-.85 0-1.5.653-1.5 1.413v12.952a.5.5 0 0 1-.258.438c-1.05.581-1.742 1.653-1.742 2.87C3.5 21.99 5.045 23.5 7 23.5c1.954 0 3.5-1.51 3.5-3.326 0-1.217-.693-2.29-1.742-2.871a.5.5 0 0 1-.258-.438V3.913C8.5 3.153 7.85 2.5 7 2.5Zm.5 9.226a.5.5 0 1 1-1 0 .5.5 0 0 1 1 0Zm-1.492 8.448c0-.557.464-.971.992-.971.527 0 .992.414.992.97 0 .558-.465.972-.992.972-.528 0-.992-.414-.992-.971Zm.996.018a.047.047 0 0 0 .004-.018.047.047 0 0 0-.006-.023L7 20.15l-.002.003-.002.003a.048.048 0 0 0-.004.019.048.048 0 0 0 .007.023l.001.002.004-.007ZM7 14.226a.5.5 0 1 0 0-1 .5.5 0 0 0 0 1Zm0 2a.5.5 0 1 0 0-1 .5.5 0 0 0 0 1Zm0 2a.5.5 0 1 0 0-1 .5.5 0 0 0 0 1Zm4.102-14.813a.5.5 0 1 0 0 1h1a.5.5 0 0 0 0-1h-1Zm0 4.783a.5.5 0 1 0 0 1h3a.5.5 0 0 0 0-1h-3Zm-.5 5.281a.5.5 0 0 1 .5-.5h1a.5.5 0 0 1 0 1h-1a.5.5 0 0 1-.5-.5Z" fill="#18303F" id="iconDefault"/><path d="M17.034 20.564a.498.498 0 0 0 .745 0l3.686-3.686a.5.5 0 1 0-.707-.707l-3.351 3.351-1.71-1.71a.5.5 0 0 0-.707.708l2.044 2.044Z" fill="#038C6A" id="iconSuccess"/><path fill-rule="evenodd" clip-rule="evenodd" d="M18.229 13.344a4.885 4.885 0 1 0 0 9.77 4.885 4.885 0 0 0 0-9.77Zm-5.885 4.885a5.885 5.885 0 1 1 11.77 0 5.885 5.885 0 0 1-11.77 0Z" fill="#6D7B82" id="iconWeak"/></g></svg>