<svg width="25" height="25" viewBox="0 0 25 25" fill="none"><g id="temperature_critical"><path fill-rule="evenodd" clip-rule="evenodd" d="M2.617 6.658a4.884 4.884 0 1 1 9.769 0 4.884 4.884 0 0 1-9.769 0ZM7.501.773a5.884 5.884 0 1 0 0 11.769 5.884 5.884 0 0 0 0-11.769Zm11.1.227c-1.36 0-2.5 1.06-2.5 2.413v12.669c-1.198.77-2 2.085-2 3.592 0 2.41 2.036 4.326 4.5 4.326 2.465 0 4.5-1.916 4.5-4.326 0-1.507-.803-2.821-2-3.592V3.413c0-1.353-1.139-2.413-2.5-2.413Zm-1.5 2.413c0-.76.65-1.413 1.5-1.413s1.5.653 1.5 1.413v12.952a.5.5 0 0 0 .258.438c1.05.581 1.743 1.654 1.743 2.87 0 1.817-1.546 3.327-3.5 3.327-1.955 0-3.5-1.51-3.5-3.326 0-1.218.691-2.29 1.742-2.871a.5.5 0 0 0 .258-.438V3.413Zm1.5 2.313a.5.5 0 1 0 0-1 .5.5 0 0 0 0 1Zm-.992 13.948c0-.557.465-.971.993-.971.526 0 .992.414.992.97 0 .558-.466.972-.992.972-.528 0-.993-.414-.993-.971Zm.996.018a.048.048 0 0 0 .004-.018.048.048 0 0 0-.008-.025l-.002.003-.001.003a.047.047 0 0 0 0 .038l.002.003.002.003.001-.003.002-.004Zm.497-12.466a.5.5 0 1 1-1 0 .5.5 0 0 1 1 0Zm0 2a.5.5 0 1 1-1 0 .5.5 0 0 1 1 0Zm0 2a.5.5 0 1 1-1 0 .5.5 0 0 1 1 0Zm0 2a.5.5 0 1 1-1 0 .5.5 0 0 1 1 0Zm0 2a.5.5 0 1 1-1 0 .5.5 0 0 1 1 0Zm0 2a.5.5 0 1 1-1 0 .5.5 0 0 1 1 0ZM5.328 8.305a.5.5 0 0 0 .707.707L7.49 7.558l1.48 1.48a.5.5 0 1 0 .707-.706l-1.48-1.48L9.74 5.306a.5.5 0 0 0-.707-.707L7.489 6.144 5.972 4.627a.5.5 0 1 0-.707.707l1.517 1.517-1.454 1.454Z" fill="#18303F" id="iconDefault"/></g></svg>