<svg width="25" height="25" viewBox="0 0 25 25" fill="none"><g id="temperature_high_critical"><path fill-rule="evenodd" clip-rule="evenodd" d="M8.793 1.112a.5.5 0 1 1-1 0 .5.5 0 0 1 1 0Zm-1.751.493a.5.5 0 0 1-.148.692C4.519 3.834 3 6.439 3 9.27c0 1.174.42 2.207 1.233 2.923a4.162 4.162 0 0 0 3.058 1.288l.046.003c1.116.102 2.137-.299 2.976-1.138a4.654 4.654 0 0 0 1.153-3.109c.097-1.463-.618-2.836-1.906-3.61-.295.727-.8 1.216-1.266 1.569a.5.5 0 0 1-.737-.152C6.858 5.812 6.751 4.409 7.1 3.12a.5.5 0 1 1 .965.262c-.233.86-.215 1.765.096 2.598.214-.23.393-.497.509-.824a.626.626 0 0 1 .139-.3.5.5 0 0 1 .469-.326h.233a.5.5 0 0 1 .225.054c1.808.91 2.852 2.74 2.73 4.703a5.654 5.654 0 0 1-1.431 3.751c-1.024 1.032-2.327 1.569-3.767 1.444a5.159 5.159 0 0 1-3.709-1.55C2.509 12.001 2 10.683 2 9.271c0-3.196 1.712-6.106 4.35-7.814a.5.5 0 0 1 .692.148Zm1.83 3.184-.004.004.003-.004Zm7.23-1.376C16.102 2.06 17.24 1 18.602 1c1.36 0 2.5 1.06 2.5 2.413v12.67c1.196.77 2 2.084 2 3.59 0 2.41-2.037 4.327-4.5 4.327-2.465 0-4.5-1.916-4.5-4.326 0-1.507.8-2.821 2-3.592V3.413ZM18.602 2c-.85 0-1.5.653-1.5 1.413v12.952a.5.5 0 0 1-.258.438c-1.05.581-1.742 1.653-1.742 2.87 0 1.817 1.545 3.327 3.5 3.327 1.954 0 3.5-1.51 3.5-3.326 0-1.217-.694-2.29-1.743-2.871a.5.5 0 0 1-.257-.438V3.413c0-.76-.65-1.413-1.5-1.413Zm.5 3.226a.5.5 0 1 1-1 0 .5.5 0 0 1 1 0Zm-.5 13.477c-.528 0-.993.414-.993.97 0 .558.465.972.993.972.526 0 .992-.414.992-.971 0-.557-.466-.971-.992-.971Zm.007.97a.048.048 0 0 1-.006.024l-.001.002a.032.032 0 0 1-.004-.006.047.047 0 0 1 .004-.044.048.048 0 0 1 .008.025Zm-.007-11.947a.5.5 0 1 0 0-1 .5.5 0 0 0 0 1Zm0 2a.5.5 0 1 0 0-1 .5.5 0 0 0 0 1Zm0 2a.5.5 0 1 0 0-1 .5.5 0 0 0 0 1Zm0 2a.5.5 0 1 0 0-1 .5.5 0 0 0 0 1Zm0 2a.5.5 0 1 0 0-1 .5.5 0 0 0 0 1Zm0 2a.5.5 0 1 0 0-1 .5.5 0 0 0 0 1Z" fill="#18303F" yggColor="iconDefault"/></g></svg>