<svg width="26" height="25" viewBox="0 0 26 25" fill="none"><g id="threshold_new_colorful" fill-rule="evenodd" clip-rule="evenodd"><path d="M17.223 11.784a1 1 0 0 0-.716-.284h-2.393a.5.5 0 0 0-.5.528 1.052 1.052 0 0 0-.107.472v10.6h-2v-8.7a1 1 0 0 0-.284-.716 1 1 0 0 0-.716-.284h-2a1 1 0 0 0-.716.284 1 1 0 0 0-.284.716v8.7h-2v-9.4a1 1 0 0 0-.284-.716 1 1 0 0 0-.716-.284h-2a1 1 0 0 0-.716.284 1 1 0 0 0-.284.716v9.4h-.5a.5.5 0 0 0 0 1h23a.5.5 0 0 0 0-1h-.5v-6.8a.999.999 0 0 0-.284-.716.999.999 0 0 0-.716-.284h-2a1 1 0 0 0-.716.284.999.999 0 0 0-.284.716v6.8h-2V12.5a1 1 0 0 0-.284-.716Zm-2.716.716h2v10.6h-2V12.5Zm-10 10.6h-2v-9.4h2v9.4Zm18-6.8h-2v6.8h2v-6.8Zm-12-1.9h-2v8.7h2v-8.7ZM.5 11.5a.5.5 0 0 0 0 1h.47a.5.5 0 0 0 0-1H.5Zm4.225 0a.5.5 0 0 0 0 1h.939a.5.5 0 0 0 0-1h-.939Zm4.694 0a.5.5 0 0 0 0 1h.94a.5.5 0 1 0 0-1h-.94Zm9.39 0a.5.5 0 1 0 0 1h.938a.5.5 0 0 0 0-1h-.939Zm4.694 0a.5.5 0 0 0 0 1h.47a.5.5 0 0 0 0-1h-.47Z" fill="#18303F" yggColor="iconDefault"/><path d="M7.678 9.058a.682.682 0 0 0 .032-.184V5.41a4.008 4.008 0 0 0-4-4.008H.982a.443.443 0 0 0-.184.04l-.048.024a.53.53 0 0 0-.12.08.118.118 0 0 1-.016.012.106.106 0 0 0-.016.012l-.048.059a.45.45 0 0 0-.056.093c0 .008 0 .024-.008.024l-.02.072a.422.422 0 0 0-.012.096v6.96c0 .296.232.528.528.528a.528.528 0 0 0 .528-.528V3.322l5.28 5.904c0 .003.001.005.003.006a.6.6 0 0 0 .077.062 1.93 1.93 0 0 0 .104.068.601.601 0 0 0 .359.021.457.457 0 0 0 .04-.013l.009-.008a.06.06 0 0 0 .032-.016.447.447 0 0 0 .12-.08c.013-.013.026-.026.034-.039a.078.078 0 0 0 .006-.01.304.304 0 0 0 .072-.103.13.13 0 0 0 .032-.056ZM3.71 2.466A2.946 2.946 0 0 1 6.654 5.41v2.08L2.166 2.466H3.71Zm7.522 0h2.728c.296 0 .536-.24.536-.528a.536.536 0 0 0-.536-.536h-2.728c-.696 0-1.264.576-1.264 1.272v5.464c0 .696.568 1.272 1.264 1.272h2.728a.533.533 0 0 0 0-1.064h-2.728a.212.212 0 0 1-.208-.208v-2.2h2.448a.533.533 0 0 0 0-1.064h-2.448v-2.2c0-.112.096-.208.208-.208Zm6.512 6.408a.52.52 0 0 1-.52.528.52.52 0 0 1-.512-.528V1.938c0-.296.232-.536.512-.536.288 0 .52.24.52.536v4.248l.04-.052c.024-.03.046-.059.072-.084l1.896-1.936c.24-.248.56-.368.88-.368.32 0 .64.12.88.368l1.896 1.928c.026.032.049.063.073.095l.039.049V1.938c0-.296.232-.536.52-.536.28 0 .52.24.52.536v6.936c0 .296-.24.528-.52.528a.52.52 0 0 1-.52-.528c0-.784-.304-1.52-.848-2.08l-1.896-1.928a.203.203 0 0 0-.288 0l-1.896 1.928a2.969 2.969 0 0 0-.848 2.08Z" fill="#C70546" yggColor="iconCritical"/></g></svg>