<svg width="25" height="25" viewBox="0 0 25 25" fill="none"><g id="threshold_warning_colorful"><path fill-rule="evenodd" clip-rule="evenodd" d="M23.223.784A1 1 0 0 0 22.507.5h-4a1 1 0 0 0-.716.284 1 1 0 0 0-.284.716v11h-.627a.5.5 0 1 0 0 1h.627v9.6h-2v-6.6a1 1 0 0 0-.284-.716 1 1 0 0 0-.716-.284h-4a.999.999 0 0 0-.716.284.999.999 0 0 0-.284.716v6.6h-2v-3.6a.999.999 0 0 0-.284-.716.999.999 0 0 0-.716-.284h-4a.999.999 0 0 0-.716.284.999.999 0 0 0-.284.716v3.6h-.5a.5.5 0 0 0 0 1h23a.5.5 0 1 0 0-1h-.5V1.5a1 1 0 0 0-.284-.716ZM6.507 23.1h-4v-3.6h4v3.6Zm12-21.6h4v21.6h-4V1.5Zm-4 15h-4v6.6h4v-6.6ZM.5 12.5a.5.5 0 0 0 0 1h1.092a.5.5 0 1 0 0-1H.5Zm3.276 0a.5.5 0 0 0 0 1H5.96a.5.5 0 1 0 0-1H3.776Zm4.368 0a.5.5 0 0 0 0 1h2.184a.5.5 0 1 0 0-1H8.144Zm4.368 0a.5.5 0 0 0 0 1h2.184a.5.5 0 1 0 0-1h-2.184Z" fill="#18303F" id="iconDefault"/><path fill-rule="evenodd" clip-rule="evenodd" d="M4.473 1.835c.78-1.277 2.634-1.277 3.414 0L10.98 6.9c.814 1.333-.145 3.043-1.706 3.043h-6.19c-1.561 0-2.52-1.71-1.706-3.043l3.094-5.065Zm2.56.521a1 1 0 0 0-1.706 0L2.232 7.422a1 1 0 0 0 .853 1.521h6.19a1 1 0 0 0 .853-1.521L7.033 2.356Z" fill="#6D7B82" id="iconWeak"/><path d="M6.179 3.973a.5.5 0 0 0-.5.5v1.254a.5.5 0 1 0 1 0V4.473a.5.5 0 0 0-.5-.5Zm-.02 3.006a.5.5 0 1 0 0 1 .5.5 0 0 0 0-1Z" fill="#F28102" id="backgroundWarningDefault"/></g></svg>