<svg width="25" height="25" viewBox="0 0 25 25" fill="none"><g id="touch"><path fill-rule="evenodd" clip-rule="evenodd" d="M3.921 3.186A2.941 2.941 0 0 1 6.862.246h9.314a2.941 2.941 0 0 1 2.941 2.94v8.334a2.941 2.941 0 0 1-2.94 2.94H14.94a.49.49 0 1 1 0-.98h1.235a1.96 1.96 0 0 0 1.96-1.96V3.186a1.96 1.96 0 0 0-1.96-1.96H6.862a1.96 1.96 0 0 0-1.96 1.96v8.334a1.96 1.96 0 0 0 1.96 1.96h1.234a.49.49 0 1 1 0 .98H6.862a2.941 2.941 0 0 1-2.94-2.94V3.186Zm6.61 8.912v9.93a.49.49 0 0 1-.866.316l-2.4-2.844v-.001c-.166-.193-.432-.323-.73-.35a1.083 1.083 0 0 0-.782.21c-.417.338-.482 1.036-.148 1.432l2.816 3.147a.49.49 0 0 1-.73.654L4.87 21.44l-.008-.008c-.706-.826-.562-2.158.273-2.835.43-.348.98-.473 1.49-.425.51.048 1.027.274 1.384.69l.002.003 1.537 1.822v-8.623a.65.65 0 0 1 .004-.062c.133-1.033 1.051-1.953 2.158-1.953 1.093 0 2.056.919 2.056 2.015v6.119h2.643c2.556 0 4.668 2.037 4.668 4.557v1.525a.49.49 0 0 1-.98 0V22.74c0-1.954-1.649-3.577-3.688-3.577h-3.133a.49.49 0 0 1-.49-.49v-6.609c0-.53-.499-1.035-1.076-1.035-.556 0-1.092.488-1.18 1.07Z" fill="#18303F" yggColor="iconDefault"/></g></svg>