<svg width="25" height="25" viewBox="0 0 25 25" fill="none"><g id="touch_id"><path fill-rule="evenodd" clip-rule="evenodd" d="M.392 13.542c0-6.688 5.42-12.109 12.107-12.109 6.687 0 12.11 5.421 12.11 12.109v4.583a.65.65 0 0 1-1.3 0v-4.583c0-5.97-4.84-10.809-10.81-10.809-5.968 0-10.807 4.84-10.807 10.809a.65.65 0 0 1-1.3 0Zm.65 1.85a.65.65 0 0 1 .65.65v.833a.65.65 0 1 1-1.3 0v-.833a.65.65 0 0 1 .65-.65Zm3.1-1.85a8.359 8.359 0 0 1 16.717 0v6.25c0 .666-.08 1.315-.227 1.937a.65.65 0 0 1-1.265-.3 7.114 7.114 0 0 0 .191-1.637v-6.25a7.059 7.059 0 0 0-14.116 0v6.25c0 .802.133 1.572.379 2.289a.65.65 0 1 1-1.23.421 8.364 8.364 0 0 1-.45-2.71v-6.25Zm8.357-4.609a4.608 4.608 0 0 0-4.607 4.609v2.708a.65.65 0 1 0 1.3 0v-2.708a3.308 3.308 0 1 1 6.617 0v5.416a3.309 3.309 0 0 1-6.617 0 .65.65 0 1 0-1.3 0 4.608 4.608 0 1 0 9.216 0v-5.416A4.609 4.609 0 0 0 12.5 8.933Zm0 3.542a.65.65 0 0 1 .65.65v3.75a.65.65 0 1 1-1.3 0v-3.75a.65.65 0 0 1 .65-.65Zm.65 6.9a.65.65 0 1 0-1.3 0v1.25a.65.65 0 1 0 1.3 0v-1.25Z" fill="#18303F" id="iconDefault"/></g></svg>