<svg width="25" height="25" viewBox="0 0 25 25" fill="none"><g id="umbrella"><path fill-rule="evenodd" clip-rule="evenodd" d="M4.894 7.276c1.414-.115 2.821.727 3.377 2.04 1.981-3.132 4.307-5.477 7.533-6.027-2.231-.78-4.339-.586-6.185.182-1.898.79-3.532 2.195-4.725 3.805Zm12.09-3.104c-3.324.125-5.699 2.27-7.825 5.61 1.425-.146 2.856.688 3.429 2.004l4.396-7.614Zm-5.136 8.895c.017-1.759-2.069-2.925-3.559-1.94a.5.5 0 0 1-.775-.448c.109-1.82-2.033-3.057-3.555-2.052a.501.501 0 0 1-.709-.668c1.295-2.243 3.397-4.334 5.985-5.41 2.607-1.086 5.686-1.13 8.858.701 3.172 1.831 4.673 4.52 5.037 7.32.361 2.78-.398 5.646-1.693 7.89a.5.5 0 0 1-.933-.28c.11-1.821-2.033-3.059-3.555-2.053a.5.5 0 0 1-.775-.448c.107-1.783-1.945-3.006-3.46-2.112l-4.438 7.686c-.318.551-.785.874-1.3.98a2.054 2.054 0 0 1-1.432-.247 2.054 2.054 0 0 1-.93-1.116c-.166-.5-.12-1.066.198-1.617a.5.5 0 0 1 .866.5c-.182.316-.186.587-.115.802.075.226.249.43.481.564.233.135.496.183.73.135.222-.046.454-.185.636-.5l4.438-7.687Zm1.606-.781c1.425-.162 2.863.66 3.45 1.967 1.83-3.51 2.499-6.64.946-9.58l-4.396 7.613Zm5.75-7.034c1.791 1.543 2.677 3.465 2.934 5.447.265 2.039-.134 4.157-.931 5.995-.608-1.282-2.041-2.08-3.455-1.905 1.721-3.28 2.589-6.469 1.452-9.537Z" fill="#18303F" id="iconDefault"/></g></svg>