<svg width="25" height="25" viewBox="0 0 25 25" fill="none"><g id="unlocked"><path fill-rule="evenodd" clip-rule="evenodd" d="M13.898 6.8c0-2.342 1.959-4.3 4.3-4.3 1.525 0 2.892.83 3.659 2.065.153.248.282.51.384.786a.5.5 0 0 0 .938-.346 5.307 5.307 0 0 0-.472-.967C21.77 2.528 20.092 1.5 18.199 1.5c-2.895 0-5.3 2.406-5.3 5.3v.735a.5.5 0 0 0 1 0V6.8Zm-2.928 8.64c0 .679-.437 1.255-1.044 1.464v.718a.5.5 0 0 1-1 0v-.716a1.548 1.548 0 1 1 2.044-1.466Zm-2.095 0a.547.547 0 1 1 .572.547H9.4a.547.547 0 0 1-.526-.547ZM1.5 11.6a2.25 2.25 0 0 1 2.246-2.246h11.346a2.25 2.25 0 0 1 2.246 2.246v6.22c0 1.26-.579 2.446-1.443 3.31-.865.866-2.05 1.444-3.311 1.444h-6.33c-1.26 0-2.446-.579-3.311-1.443-.865-.865-1.443-2.05-1.443-3.311V11.6Zm2.246-1.245A1.25 1.25 0 0 0 2.5 11.6v6.22c0 .954.442 1.895 1.15 2.604.709.708 1.65 1.15 2.604 1.15h6.33c.954 0 1.895-.442 2.604-1.15.708-.709 1.15-1.65 1.15-2.604V11.6a1.25 1.25 0 0 0-1.246-1.245H3.746ZM23.5 6.763a.5.5 0 1 1-1 0 .5.5 0 0 1 1 0Z" fill="#18303F" id="iconDefault"/></g></svg>