<svg width="25" height="25" viewBox="0 0 25 25" fill="none"><g id="wallet"><path fill-rule="evenodd" clip-rule="evenodd" d="M20.22 2.794c-.098-.225-.367-.323-.532-.257a1.092 1.092 0 0 1-.032.011L5.774 7.023a.528.528 0 0 1-.055.015c-.053.01-.119.053-.165.144a.343.343 0 0 0-.017.276l.012.032.411 1.279a.5.5 0 0 1-.952.306L4.601 7.81c-.268-.702.121-1.572.89-1.747L19.334 1.6c.741-.284 1.55.16 1.82.834l.005.014.005.015 2.279 6.928c.285.74-.158 1.55-.833 1.82a.623.623 0 0 1-.033.012l-3.63 1.165a.5.5 0 0 1-.305-.952l3.61-1.159c.224-.098.322-.366.256-.531l-.005-.015a.318.318 0 0 0-.006-.015L20.22 2.794ZM5.21 13.93a.5.5 0 0 0-1 0v1.065a.5.5 0 0 0 1 0V13.93Zm-.5 3.762a.5.5 0 0 1 .5.5v1.065a.5.5 0 0 1-1 0v-1.065a.5.5 0 0 1 .5-.5ZM15.693 6.024a.5.5 0 0 1-.317.632l-2.739.913a.542.542 0 0 1-.037.011c-.023.006-.073.034-.108.104a.276.276 0 0 0-.006.23.375.375 0 0 1 .021.064c.01.04.033.074.085.107.056.034.139.06.237.062l2.536-.18a1.393 1.393 0 0 1 .941.311c.262.221.417.544.417.918 0 .24-.055.47-.173.68a2.333 2.333 0 0 1 1.443 2.151v2.32c.193.065.37.17.516.317.266.267.397.628.397 1.016v1.826c0 .388-.13.75-.397 1.016a1.33 1.33 0 0 1-.516.318v2.32a2.332 2.332 0 0 1-2.326 2.326H3.795A2.332 2.332 0 0 1 1.47 21.16v-9.133a2.332 2.332 0 0 1 2.326-2.326h11.251l.435-.145a.517.517 0 0 0 .19-.158.344.344 0 0 0 .053-.202c0-.084-.028-.126-.063-.155a.392.392 0 0 0-.244-.076l-2.537.181a.467.467 0 0 1-.035.002c-.486 0-1.118-.246-1.298-.894-.265-.712.144-1.463.79-1.638l.43-.144-.079-.263a.5.5 0 0 1 .958-.288l.07.235 1.345-.448a.5.5 0 0 1 .633.316Zm-1.396 9.243h3.196c.161 0 .255.051.31.104.052.054.103.149.103.309v1.826c0 .16-.05.256-.104.31-.054.053-.148.104-.309.104h-3.196a1.332 1.332 0 0 1-1.327-1.327c0-.728.598-1.326 1.327-1.326Zm0 3.653h2.696v2.24c0 .728-.598 1.326-1.326 1.326H5.21v-.033a.5.5 0 0 0-1 0v.033h-.414A1.332 1.332 0 0 1 2.47 21.16v-9.133c0-.728.598-1.326 1.326-1.326h.414v.032a.5.5 0 0 0 1 0V10.7h10.46c.727 0 1.325.599 1.325 1.327v2.24h-2.696a2.332 2.332 0 0 0-2.327 2.326 2.332 2.332 0 0 0 2.327 2.327Z" fill="#18303F" id="iconDefault"/></g></svg>