<svg width="25" height="25" viewBox="0 0 25 25" fill="none"><g id="warning"><path fill-rule="evenodd" clip-rule="evenodd" d="M13.397 4.413a1.042 1.042 0 0 0-1.794 0l-7.912 13.39c-.41.695.09 1.572.896 1.572h15.826c.806 0 1.307-.877.896-1.572l-7.912-13.39Zm-2.87-.636c.887-1.501 3.059-1.501 3.946 0l7.912 13.39c.903 1.528-.198 3.458-1.972 3.458H4.587c-1.774 0-2.875-1.93-1.973-3.457l7.913-13.391ZM12.5 7.708c.345 0 .625.28.625.625v5a.625.625 0 1 1-1.25 0v-5c0-.345.28-.625.625-.625Zm0 8.334c.345 0 .625.28.625.625v.166a.625.625 0 1 1-1.25 0v-.166c0-.346.28-.625.625-.625Z" fill="#18303F" id="iconDefault"/></g></svg>