<svg width="25" height="25" viewBox="0 0 25 25" fill="none"><g id="weather_sun_colorful"><path fill-rule="evenodd" clip-rule="evenodd" d="M12.354 1.198a.5.5 0 0 1 .5.5v3a.5.5 0 0 1-1 0v-3a.5.5 0 0 1 .5-.5Zm-5.5 11.5a5.5 5.5 0 1 1 10.999 0 5.5 5.5 0 0 1-11 0Zm5.5-4.5a4.5 4.5 0 1 0 0 9 4.5 4.5 0 0 0 0-9Zm0 12a.5.5 0 0 1 .5.5v3a.5.5 0 0 1-1 0v-3a.5.5 0 0 1 .5-.5Zm-11.5-7.5a.5.5 0 0 1 .5-.5h3a.5.5 0 0 1 0 1h-3a.5.5 0 0 1-.5-.5Zm22.5.5h-3a.5.5 0 0 1 0-1h3a.5.5 0 0 1 0 1ZM4 4.345a.501.501 0 0 1 .708 0l2.12 2.121a.5.5 0 0 1-.706.707L4 5.052a.5.5 0 0 1 0-.707ZM17.435 17.78a.501.501 0 0 1 .708 0l2.12 2.121a.5.5 0 0 1-.706.707l-2.122-2.121a.5.5 0 0 1 0-.707Zm3.272-13.435a.5.5 0 0 1 0 .707l-2.122 2.121a.5.5 0 1 1-.707-.707L20 4.345a.501.501 0 0 1 .708 0ZM7.273 17.78a.5.5 0 0 1 0 .707L5.15 20.608a.5.5 0 1 1-.707-.707l2.12-2.121a.501.501 0 0 1 .709 0Z" fill="#18303F" id="iconDefault"/><path d="M12.354 17.198a4.5 4.5 0 1 0 0-9 4.5 4.5 0 0 0 0 9Z" fill="#F28102" id="backgroundWarningDefault"/><path fill-rule="evenodd" clip-rule="evenodd" d="M12.354 17.198a4.5 4.5 0 0 0 4.457-5.122 4.5 4.5 0 0 0-6.746 4.498 4.48 4.48 0 0 0 2.289.624Z" fill="#FFEAD2" id="backgroundWarningWeak"/></g></svg>