<svg width="26" height="25" viewBox="0 0 26 25" fill="none"><g id="weather_cloud_colorful"><path fill-rule="evenodd" clip-rule="evenodd" d="M7.016 15.777H4.075C2.197 15.606.83 14.069.83 12.192c0-1.025.341-1.878 1.195-2.561.683-.683 1.707-1.024 2.731-1.024.854-1.707 2.732-2.902 4.61-2.902 2.475 0 4.671 1.683 5.187 4.032.324-.07.654-.107.984-.107 2.732 0 5.122 2.048 5.292 4.78.854-.17 1.708 0 2.39.512.683.512 1.025 1.366 1.025 2.22 0 .592 0 1.221-.854 2.048-.542.525-1.71.517-2.479.513l-.197-.001H10.246c-1.878-.17-3.243-1.707-3.243-3.585 0-.116.004-.23.013-.34Z" fill="#E0E5F0" yggColor="backgroundDisabled"/><path d="M13.942 19.702H20.912c.769.005 1.937.012 2.479-.513.854-.826.854-1.455.854-2.048 0-.854-.342-1.707-1.025-2.22-.682-.511-1.536-.682-2.39-.511a4.72 4.72 0 0 0-.048-.45 7.002 7.002 0 0 0-6.84 5.742Z" fill="#fff" yggColor="iconInverse"/><path fill-rule="evenodd" clip-rule="evenodd" d="M14.242 8.083c-1.024-1.749-2.976-2.885-5.112-2.885-1.995 0-3.965 1.199-4.964 2.944-1.028.06-2.059.432-2.792 1.153C.395 10.089 0 11.097 0 12.257c0 2.151 1.572 3.926 3.734 4.123l.046.002h1.274a.5.5 0 0 0 0-1H3.803C2.18 15.224 1 13.897 1 12.257c0-.903.29-1.614 1.02-2.198a.496.496 0 0 0 .042-.037c.575-.576 1.472-.89 2.408-.89a.5.5 0 0 0 .447-.276C5.7 7.293 7.43 6.198 9.13 6.198c1.785 0 3.407.952 4.249 2.39a.5.5 0 0 0 .863-.505Zm6.95 6.056c-.444-2.778-2.966-4.774-5.79-4.774-1.995 0-3.965 1.199-4.964 2.944-1.028.06-2.06.432-2.792 1.153-.98.794-1.374 1.802-1.374 2.962 0 2.151 1.571 3.926 3.734 4.123l.045.002h6.483a.5.5 0 0 0 0-1h-6.46c-1.623-.158-2.802-1.485-2.802-3.125 0-.903.29-1.614 1.02-2.198a.497.497 0 0 0 .042-.037c.575-.576 1.471-.89 2.408-.89a.5.5 0 0 0 .447-.276c.782-1.563 2.51-2.658 4.213-2.658 2.523 0 4.697 1.891 4.852 4.364a.501.501 0 0 0 .597.46c.735-.148 1.45.001 2.018.427.539.404.836 1.103.836 1.844 0 .305-.003.54-.084.795-.08.246-.243.546-.627.917-.171.166-.511.283-1 .338a9.783 9.783 0 0 1-1.147.04h-.004l-.206-.001h-.484a.5.5 0 0 0 0 1H20.824c.353.003.826.006 1.282-.045.525-.06 1.158-.202 1.584-.614.479-.464.746-.9.884-1.331.13-.413.13-.788.13-1.08v-.02c0-.984-.392-2.011-1.235-2.643a3.441 3.441 0 0 0-2.276-.677Zm-2.354 5.912a.5.5 0 1 1-1 0 .5.5 0 0 1 1 0Z" fill="#18303F" yggColor="iconDefault"/></g></svg>