<svg width="25" height="25" viewBox="0 0 25 25" fill="none"><g id="weather_thunder_colorful"><path fill-rule="evenodd" clip-rule="evenodd" d="M6.87 10.88H3.928C2.05 10.707.685 9.171.685 7.293c0-1.024.341-1.878 1.194-2.56.683-.683 1.708-1.025 2.732-1.025C5.464 2.002 7.342.807 9.22.807c2.475 0 4.67 1.683 5.187 4.032.324-.07.654-.107.984-.107 2.731 0 5.121 2.049 5.292 4.78.854-.17 1.707 0 2.39.512.683.513 1.024 1.366 1.024 2.22 0 .593 0 1.222-.853 2.048-.542.525-1.71.518-2.48.513H10.1c-1.878-.171-3.244-1.708-3.244-3.586 0-.115.005-.229.014-.34Z" fill="#E0E5F0" id="backgroundDisabled"/><path d="M13.795 14.804h6.773l.198.001c.769.005 1.937.012 2.479-.513.853-.826.853-1.455.853-2.049 0-.853-.341-1.707-1.024-2.219-.683-.512-1.537-.683-2.39-.512a4.922 4.922 0 0 0-.049-.449 7.002 7.002 0 0 0-6.84 5.741Z" fill="#fff" id="iconInverse"/><path d="m11.997 19.616 1.118-4.722h3.46l-.782 2.833h1.454l-4.132 6.667.448-4.778h-1.566Z" fill="#F28102" id="backgroundWarningDefault"/><path fill-rule="evenodd" clip-rule="evenodd" d="M9.13 0c2.136 0 4.088 1.136 5.112 2.884a.5.5 0 0 1-.863.506C12.537 1.952 10.916 1 9.13 1 7.43 1 5.7 2.094 4.917 3.658a.5.5 0 0 1-.447.276c-.936 0-1.833.314-2.408.89a.512.512 0 0 1-.041.036C1.29 5.445 1 6.156 1 7.06c0 1.638 1.18 2.965 2.803 3.124h1.251a.5.5 0 1 1 0 1H3.78a.49.49 0 0 1-.045-.002C1.571 10.985 0 9.21 0 7.059 0 5.9.394 4.891 1.375 4.097c.732-.721 1.763-1.093 2.791-1.154C5.166 1.2 7.136 0 9.13 0Zm6.272 4.167c2.824 0 5.346 1.996 5.791 4.774a3.441 3.441 0 0 1 2.276.677c.842.631 1.236 1.659 1.236 2.644v.018c0 .293 0 .668-.131 1.08-.138.431-.405.868-.884 1.332-.426.412-1.059.554-1.584.614-.455.051-.928.048-1.281.046h-.043l-.145-.001h-.484a.5.5 0 1 1 0-1H20.85c.353.003.754.005 1.144-.04.489-.054.828-.171 1-.337.384-.372.548-.671.627-.917.081-.255.084-.49.084-.795 0-.741-.297-1.44-.836-1.844-.567-.426-1.283-.575-2.018-.428a.5.5 0 0 1-.597-.459c-.155-2.473-2.329-4.364-4.852-4.364-1.702 0-3.431 1.094-4.213 2.658a.5.5 0 0 1-.447.276c-.937 0-1.833.314-2.408.89a.494.494 0 0 1-.042.036c-.73.585-1.02 1.296-1.02 2.199 0 1.64 1.18 2.966 2.803 3.125h6.46c.152 0 .288.068.38.176a.498.498 0 0 1 .143.5l-.608 2.2h.797a.5.5 0 0 1 .425.764l-4.132 6.666a.5.5 0 0 1-.923-.31l.396-4.23h-1.016a.5.5 0 0 1-.487-.616l.983-4.15h-2.442c-.015 0-.03 0-.045-.002-2.163-.197-3.734-1.972-3.734-4.123 0-1.16.394-2.168 1.374-2.962.733-.721 1.764-1.093 2.792-1.154.999-1.745 2.969-2.943 4.964-2.943Zm-2.773 14.95.882-3.723h2.408l-.608 2.2a.5.5 0 0 0 .482.633h.556l-2.538 4.094.25-2.658a.5.5 0 0 0-.498-.547h-.934Zm5.709-3.765a.5.5 0 1 0 0-1 .5.5 0 0 0 0 1Z" fill="#18303F" id="iconDefault"/></g></svg>