<svg width="25" height="25" viewBox="0 0 25 25" fill="none"><g id="weather_sun"><path fill-rule="evenodd" clip-rule="evenodd" d="M12.5 1a.5.5 0 0 1 .5.5v3a.5.5 0 0 1-1 0v-3a.5.5 0 0 1 .5-.5ZM7 12.5a5.5 5.5 0 1 1 11 0 5.5 5.5 0 0 1-11 0ZM12.5 8a4.5 4.5 0 1 0 0 9 4.5 4.5 0 0 0 0-9Zm0 12a.5.5 0 0 1 .5.5v3a.5.5 0 0 1-1 0v-3a.5.5 0 0 1 .5-.5ZM1 12.5a.5.5 0 0 1 .5-.5h3a.5.5 0 0 1 0 1h-3a.5.5 0 0 1-.5-.5Zm22.5.5h-3a.5.5 0 0 1 0-1h3a.5.5 0 0 1 0 1ZM4.146 4.146a.501.501 0 0 1 .708 0l2.121 2.122a.5.5 0 0 1-.707.707L4.146 4.854a.5.5 0 0 1 0-.708Zm13.435 13.435a.501.501 0 0 1 .708 0l2.121 2.122a.5.5 0 0 1-.707.707l-2.122-2.121a.5.5 0 0 1 0-.708Zm3.273-13.435a.5.5 0 0 1 0 .708l-2.122 2.12a.5.5 0 1 1-.707-.706l2.12-2.122a.501.501 0 0 1 .709 0ZM7.419 17.581a.5.5 0 0 1 0 .708l-2.122 2.12a.5.5 0 1 1-.707-.706l2.121-2.122a.501.501 0 0 1 .708 0Z" fill="#18303F" yggColor="iconDefault"/></g></svg>