<svg width="25" height="25" viewBox="0 0 25 25" fill="none"><g id="window_open"><path fill-rule="evenodd" clip-rule="evenodd" d="M6.785 2.122a3.5 3.5 0 0 0-3.5 3.5v13.756a3.5 3.5 0 0 0 3.5 3.5h11.43a3.5 3.5 0 0 0 3.5-3.5V5.622a3.5 3.5 0 0 0-3.5-3.5H6.785Zm-2.478 3.24a.505.505 0 0 0-.005-.027 2.5 2.5 0 0 1 2.483-2.213h11.43a2.5 2.5 0 0 1 2.483 2.214.462.462 0 0 0-.004.027l-1.84 11.859a.5.5 0 0 1-.494.423h-3.525a.973.973 0 0 0-.972-.945h-2.757a.973.973 0 0 0-.973.945h-3.49a.5.5 0 0 1-.493-.423L4.307 5.362Z" fill="#18303F" id="iconDefault"/></g></svg>