<svg width="25" height="25" viewBox="0 0 25 25" fill="none"><g id="window_open_unlocked"><path fill-rule="evenodd" clip-rule="evenodd" d="M4.558 1.264a3.5 3.5 0 0 0-3.5 3.5v13.757a3.5 3.5 0 0 0 3.5 3.5h4.824a.498.498 0 0 0 .251-.068c.161.294.365.563.599.797.588.587 1.399.986 2.269.986h4.101c.87 0 1.681-.399 2.269-.986.587-.588.986-1.399.986-2.269v-4.028c0-.898-.733-1.63-1.631-1.63h-7.35c-.69 0-1.283.433-1.52 1.042a.979.979 0 0 0-.208-.023h-.27a.973.973 0 0 0-.972.946H4.417a.5.5 0 0 1-.495-.424L2.08 4.505l-.006-.028a2.5 2.5 0 0 1 2.484-2.213h11.429a2.5 2.5 0 0 1 2.484 2.215.203.203 0 0 0-.003.013l-.002.013-.687 4.429a.634.634 0 0 0 .678.73l.567-.046a.499.499 0 0 0 .391-.245.497.497 0 0 0 .072-.26V4.765a3.5 3.5 0 0 0-3.5-3.5H4.558Zm4.735 19.738.004.019h-.039a.79.79 0 0 0 .024-.013l.011-.006Zm1.583-5.18a.634.634 0 0 0-.63.631v4.028c0 .564.262 1.13.693 1.562.431.431.998.693 1.562.693h4.101c.564 0 1.13-.262 1.562-.693.431-.432.693-.998.693-1.562v-4.028a.634.634 0 0 0-.631-.63h-7.35Zm4.198 4.226a1.17 1.17 0 1 0-1 .002v.336a.5.5 0 1 0 1 0v-.338Zm-.503-1.228a.17.17 0 0 0-.012.34h.026a.17.17 0 0 0-.014-.34Zm3.045-5.36c0-1.4 1.173-2.572 2.572-2.572.909 0 1.728.495 2.189 1.237a.5.5 0 1 0 .849-.527c-.63-1.016-1.76-1.71-3.038-1.71-1.952 0-3.572 1.62-3.572 3.572v.47a.5.5 0 0 0 1 0v-.47Zm5.826.369a.5.5 0 1 0 0-1 .5.5 0 0 0 0 1Z" fill="#18303F" id="iconDefault"/></g></svg>