<svg width="25" height="25" viewBox="0 0 25 25" fill="none"><g id="window_closed_unlocked"><path fill-rule="evenodd" clip-rule="evenodd" d="M15.93 1a3.5 3.5 0 0 1 3.5 3.5v3.878a.5.5 0 0 1-1 0V4.5a2.5 2.5 0 0 0-2.5-2.5H4.5A2.5 2.5 0 0 0 2 4.5v13.756a2.5 2.5 0 0 0 2.5 2.5h3.295a.473.473 0 0 1 .472-.447h.922v-.001l-.002-.09v-4.029c0-.898.733-1.63 1.631-1.63h7.35c.898 0 1.631.732 1.631 1.63v4.028c0 .87-.399 1.681-.987 2.269-.587.587-1.398.986-2.269.986h-4.1c-.87 0-1.681-.399-2.269-.986a3.505 3.505 0 0 1-.561-.73.49.49 0 0 1-.025 0H4.5a3.5 3.5 0 0 1-3.5-3.5V4.5A3.5 3.5 0 0 1 4.5 1h11.43Zm-5.112 14.559a.634.634 0 0 0-.631.63v4.028c0 .564.262 1.13.694 1.562.431.43.998.693 1.562.693h4.1c.564 0 1.131-.262 1.562-.694.432-.43.694-.997.694-1.56v-4.029a.634.634 0 0 0-.631-.63h-7.35Zm4.197 4.224a1.171 1.171 0 1 0-1 .002v.337a.5.5 0 0 0 1 0v-.339Zm-.502-1.227a.17.17 0 0 0-.012.34h.025a.171.171 0 0 0 .158-.17.171.171 0 0 0-.171-.17Zm3.045-5.36c0-1.4 1.173-2.572 2.572-2.572.91 0 1.728.495 2.188 1.237a.5.5 0 0 0 .85-.528c-.63-1.015-1.76-1.709-3.038-1.709-1.952 0-3.572 1.62-3.572 3.572v.47a.5.5 0 0 0 1 0v-.47Zm5.826.369a.5.5 0 1 0 0-1 .5.5 0 0 0 0 1Z" fill="#18303F" id="iconDefault"/></g></svg>