<svg width="25" height="25" viewBox="0 0 25 25" fill="none"><g id="ygg_colorful"><path d="M20.51 4.035c.326-.076.63-.029.914.141.283.17.463.416.54.738.077.317.03.615-.141.897a9.652 9.652 0 0 1-1.534 1.933l-5.069 5.028a3.25 3.25 0 0 1-1.02.676v7.366c0 .328-.117.609-.354.843a1.18 1.18 0 0 1-.85.343 1.18 1.18 0 0 1-.851-.343 1.16 1.16 0 0 1-.346-.843v-7.366a3.123 3.123 0 0 1-1.019-.676L5.702 7.744A9.945 9.945 0 0 1 4.177 5.82a1.143 1.143 0 0 1-.141-.897c.076-.322.257-.568.54-.738.284-.17.585-.217.904-.14.325.075.573.254.745.535.33.54.72 1.032 1.17 1.477l5.078 5.036c.136.135.31.202.523.202a.711.711 0 0 0 .522-.202l5.079-5.036c.46-.457.853-.952 1.178-1.486a1.14 1.14 0 0 1 .736-.536Z" fill="#18303F" yggColor="iconDefault"/><path d="M18 18.5a.5.5 0 0 1 .5-.5H20a2 2 0 1 1-2 2v-1.5Z" fill="#F9470B" yggColor="backgroundAccentDefault"/></g></svg>