<svg fill="none" height="25" viewBox="0 0 25 25" width="25" xmlns="http://www.w3.org/2000/svg"><g clip-rule="evenodd" fill="#18303f" fill-rule="evenodd"><path d="m18.0025.964206c-.7539-.201471-1.5355.247214-1.7383 1.001854l-.2378.88526c-.2028.75465.2492 1.53297 1.0031 1.73444s1.5355-.24721 1.7383-1.00185l.2378-.88527c.2028-.75464-.2492-1.53296-1.0031-1.734434zm-.7722 1.260024c.0589-.21915.2902-.35373.5127-.29427.2225.05945.3554.29136.2965.51051l-.2378.88527c-.0589.21915-.2903.35372-.5127.29427-.2225-.05946-.3554-.29137-.2965-.51052z"/><path d="m12.8306 4.1311c.2028-.75465.9844-1.20333 1.7383-1.00185.7539.20147 1.2059.97979 1.0031 1.73443l-.2378.88527c-.2028.75464-.9844 1.20332-1.7383 1.00185s-1.2059-.97979-1.0031-1.73444zm1.4788-.0361c-.2225-.05946-.4538.07511-.5127.29427l-.2378.88526c-.0589.21915.074.45106.2965.51052.2224.05945.4538-.07512.5127-.29427l.2378-.88527c.0589-.21915-.074-.45106-.2965-.51051z"/><path d="m18.3671 5.80517c-.4188-.1119-.794-.13762-1.1391-.06629-.3498.07231-.6289.23617-.8646.44004-.2275.19681-.4221.4382-.6008.66964-.0422.05465-.0836.10901-.125.16327-.1404.18387-.2799.36676-.4422.55533-.2468.2658-.4936.30232-.888.36069-.0695.01029-.1436.02125-.2231.03427-.2466.0404-.5619.1105-.8448.32824-.292.22475-.4889.55758-.6094 1.00619-.2346.87315-.0791 1.51105.2942 1.94215.3446.398.8022.5288.9744.5748.7459.1994 1.2497-.0414 1.6307-.2235l.0411-.0196.0343-.0163c.1938-.0913.3527-.1579.5363-.189.1775-.0301.4035-.0305.7178.0535s.5099.1971.6485.3116c.1434.1185.2476.2554.3696.4311l.0283.0409.019.0278c.2387.3477.5543.8074 1.3003 1.0068.1721.046.6341.1608 1.132-.012.5394-.1871.9939-.6621 1.2285-1.5352.1205-.4486.1168-.8351-.0234-1.1753-.1358-.3296-.3737-.54755-.567-.70554-.0618-.0505-.1201-.0966-.1747-.13987l-.0009-.00068c-.3142-.24877-.5106-.40418-.5901-.76213-.0613-.27801-.0973-.53768-.1335-.79808l-.0152-.10887c-.0401-.28538-.0862-.59022-.1804-.87099-.098-.29203-.2524-.57372-.5169-.8119-.2608-.23479-.5974-.39922-1.0159-.51107zm-1.9245 1.79942c.0388-.05082.0761-.09968.1119-.14607.177-.22945.3188-.39925.4631-.52412.1362-.1178.2644-.1861.4119-.21659.1523-.03149.3646-.03068.6781.05311.3138.08385.4937.18791.6052.28832.1078.09702.1814.21725.2386.38773.061.18174.0972.40003.1383.69229l.0146.10485c.0358.25833.0774.55888.1479.87842.1625.73284.6621 1.11627.9818 1.36127.0467.0358.0896.0686.127.0992.1625.1328.2378.2209.2757.3128.0335.0813.0639.2317-.0177.5356-.1698.6318-.4338.7951-.5895.8491-.1972.0685-.4069.0276-.5455-.0095-.3847-.1028-.5134-.2885-.752-.6328l-.0331-.0477c-.1309-.1884-.2991-.4208-.5535-.631-.2592-.2141-.5868-.389-1.027-.5067-.4402-.1176-.8117-.1295-1.1434-.0733-.3258.0552-.5879.1726-.7958.2705l-.0525.0247c-.3793.1792-.5838.2759-.9686.1731-.1385-.037-.3406-.1062-.4771-.2637-.1078-.1245-.2546-.3976-.0848-1.02938.0816-.30387.1835-.41899.2532-.47267.0788-.06068.1882-.09947.3956-.13343.0477-.00782.1013-.01489.1596-.0226.3998-.05279 1.0243-.13526 1.5324-.68885l.0103-.01152c.1863-.21592.3511-.43199.4953-.62106z"/><path d="m5.9899 13.7926c-.20275-.7547.24919-1.533 1.00312-1.7344.75393-.2015 1.53553.2472 1.73828 1.0018l.23785.8853c.20275.7546-.2492 1.5329-1.00312 1.7344-.75393.2015-1.53554-.2472-1.73829-1.0018zm1.26259-.7687c-.22249.0595-.35537.2914-.29649.5105l.23784.8853c.05888.2191.29023.3537.51272.2943.22249-.0595.35537-.2914.29649-.5106l-.23785-.8852c-.05888-.2192-.29022-.3538-.51271-.2943z"/><path d="m2.88443 14.6227c-.20275-.7547.24919-1.533 1.00312-1.7345.75393-.2014 1.53553.2472 1.73828 1.0019l.23785.8852c.20275.7547-.24919 1.533-1.00312 1.7345s-1.53553-.2472-1.73829-1.0019zm1.26259-.7687c-.22249.0594-.35537.2913-.29649.5105l.23784.8853c.05888.2191.29023.3537.51272.2942.22249-.0594.35537-.2913.29649-.5105l-.23785-.8852c-.05888-.2192-.29022-.3538-.51271-.2943z"/><path d="m1.99693 16.4771c-.75393.2015-1.205877.9798-1.003127 1.7344l.237847.8853c.20275.7546.98435 1.2033 1.73828 1.0018.75393-.2014 1.20588-.9797 1.00312-1.7344l-.23784-.8853c-.20275-.7546-.98436-1.2033-1.73828-1.0018zm-.03703 1.4763c-.05888-.2192.074-.4511.2965-.5106.22249-.0594.45383.0752.51271.2943l.23784.8853c.05888.2191-.074.451-.29649.5105s-.45383-.0751-.51271-.2943z"/><path d="m6.62715 16.8998c-.41876.1119-.75664.2768-1.01972.5106-.26671.2371-.42624.5181-.52812.8122-.09835.2839-.14592.59-.18459.8795-.00914.0685-.01782.1363-.02649.204-.02934.2292-.0585.457-.10451.7012-.08046.3533-.27585.508-.58816.7552-.05504.0436-.1137.09-.176.1409-.19337.158-.43126.3759-.56707.7055-.14018.3403-.14386.7267-.02333 1.1753.2346.8732.68908 1.3481 1.22844 1.5353.49796.1728.95993.0579 1.13206.0119.74594-.1993 1.06151-.659 1.30019-1.0067.0161-.0235.03184-.0464.04734-.0687.12208-.1757.22627-.3127.36964-.4311.13865-.1146.33417-.2277.64848-.3117s.54034-.0835.71785-.0534c.18355.031.34243.0977.53624.189.02461.0116.04975.0236.07544.0358.38103.1821.88476.4229 1.63076.2236.1721-.046.6298-.1769.9744-.5749.3732-.431.5287-1.069.2941-1.9421-.1205-.4486-.3174-.7815-.6094-1.0062-.2829-.2177-.5981-.2879-.8448-.3282-.0795-.0131-.1536-.024-.2231-.0343-.397-.0588-.6444-.0954-.89282-.366-.19238-.2101-.35373-.4169-.51553-.6244l-.06766-.0866c-.1778-.2271-.3706-.4681-.59296-.6643-.23128-.204-.50621-.371-.85469-.4454-.34353-.0733-.71743-.0478-1.13599.064zm-.8821 3.3028c.05307-.2798.08748-.5491.11759-.7848.00809-.0633.01588-.1242.02363-.1823.03833-.287.07596-.5047.13837-.6848.05886-.17.13563-.293.24811-.393.11612-.1032.30031-.2084.61387-.2921.31375-.0839.52178-.0835.66869-.0522.14195.0303.26595.0978.40096.2169.14394.127.28479.2979.46688.5306l.06521.0835c.16048.2059.3472.4454.56844.687.50819.5536 1.1331.6365 1.5328.6893.0581.0076.1121.0148.1596.0225.2074.034.3168.0728.3957.1335.0697.0537.1715.1688.2531.4727.1698.6317.023.9048-.0848 1.0293-.1364.1575-.3385.2267-.4771.2637-.3847.1028-.5893.0062-.96859-.173l-.05249-.0248c-.20784-.0979-.47002-.2153-.79576-.2704-.33176-.0563-.70323-.0444-1.14342.0733-.4402.1176-.76785.2925-1.02698.5067-.25443.2102-.42265.4425-.55357.631l-.03303.0476c-.23863.3443-.36735.53-.75207.6329-.13856.037-.34827.0779-.54541.0095-.15574-.0541-.41977-.2174-.58952-.8492-.08164-.3038-.05118-.4543-.0177-.5356.03785-.0918.11314-.18.27571-.3128.03741-.0305.08025-.0634.12692-.0992.31972-.245.81919-.6278.98175-1.3607z"/><path d="m10.4305 14.2242c-.75391.2014-1.20585.9798-1.0031 1.7344l.23784.8853c.20275.7546.98436 1.2033 1.73826 1.0018.754-.2015 1.2059-.9798 1.0031-1.7344l-.2378-.8853c-.2027-.7546-.9844-1.2033-1.7383-1.0018zm-.037 1.4762c-.0589-.2191.074-.451.2965-.5105.2225-.0594.4538.0751.5127.2943l.2378.8853c.0589.2191-.074.451-.2964.5105-.2225.0594-.4539-.0752-.5128-.2943z"/><path d="m21.2603 6.385c.2028-.75464.9844-1.20332 1.7383-1.00185s1.2059.97979 1.0031 1.73444l-.2378.88526c-.2028.75464-.9844 1.20332-1.7383 1.00185-.754-.20147-1.2059-.97979-1.0031-1.73443zm1.4788-.0361c-.2225-.05945-.4538.07512-.5127.29427l-.2378.88527c-.0589.21915.074.45106.2964.51051.2225.05946.4539-.07512.5128-.29427l.2378-.88526c.0589-.21916-.074-.45106-.2965-.51052z"/><path d="m21.1119 1.79428c-.754-.20147-1.5356.24721-1.7383 1.00186l-.2379.88526c-.2027.75464.2492 1.53296 1.0032 1.73444.7539.20147 1.5355-.24721 1.7382-1.00186l.2379-.88526c.2027-.75464-.2492-1.53296-1.0031-1.73444zm-.7722 1.26003c.0589-.21916.2902-.35373.5127-.29427.2225.05945.3554.29136.2965.51051l-.2379.88526c-.0588.21916-.2902.35373-.5127.29427-.2225-.05945-.3553-.29136-.2965-.51051z"/></g></svg>