<svg fill="none" height="25" viewBox="0 0 25 25" width="25" xmlns="http://www.w3.org/2000/svg"><g stroke="#18303f" stroke-linecap="round" stroke-linejoin="round"><path d="m17.9692 22.9567h-4.6213m4.6213 0h5.0808c.9608-2.2641.3012-3.3018.3012-5.7546v-6.4341c0-.94335-2.8824.9435-2.8824.9435h-4.804s-2.8823-1.88685-2.8823-.9435v2.8221h-3.24525c-1.03746-.09-1.92579-.0337-3.03746.41-1.41639.5654-2.30324 1.1434-3 2.5-.54266 1.0565-.50003 3-.50003 3 0 1.6532-.56707 2.5424.03683 3.5.71985-.1194 2.55642-.9358 2.65538-2.7466m12.27723 2.7032c-.0554-.888.8034-1.7785 1.7168-2.6385h1.2849m-3.0017 2.6385c.0554-.888-.8317-1.7785-1.7451-2.6385h-.9932m-4.6188.3909s1.0016-.239 1.5633 0c.9111.3875 1.1725 2.2476 1.1725 2.2476m0 0h-4.68996c-2.98094.141-2.86876-1.0496-3.06493-4.3055"/><path d="m19.0661 19.0063h-1.9216"/><path d="m19.0664 20.8415c-.9966 0-.9966-1.3547-.9966-1.3547s0 1.3547-.9966 1.3547"/><path d="m15.1265 16.7182c.096.1887.2882.283.4804.3774.3843.0943.8647-.0944.9608-.4717"/><path d="m21.0838 16.6822c-.0961.1887-.2883.283-.4804.3774-.3843.1887-.8647-.0944-.9608-.4717"/></g></svg>