<svg fill="none" height="25" viewBox="0 0 25 25" width="25" xmlns="http://www.w3.org/2000/svg"><g fill="#18303f"><path d="m18.0017.9642c-.7537-.201404-1.5348.24699-1.7375 1.00138l-.2378.88526c-.2029.7549.2494 1.53372 1.0036 1.73526.7536.2014 1.5347-.24699 1.7374-1.00138l.2379-.88526c.2028-.7549-.2495-1.53372-1.0036-1.73526z"/><path d="m21.111 1.79428c-.7536-.20141-1.5347.24699-1.7374 1.00137l-.2379.88527c-.2028.7549.2495 1.53372 1.0036 1.73526.7537.2014 1.5348-.24699 1.7375-1.00138l.2378-.88526c.2029-.7549-.2494-1.53372-1.0036-1.73526z"/><path d="m14.5681 3.12924c-.7537-.2014-1.5348.24699-1.7375 1.00137l-.2378.88527c-.2028.7549.2494 1.53372 1.0036 1.73526.7536.2014 1.5347-.24699 1.7374-1.00138l.2379-.88526c.2028-.7549-.2494-1.53372-1.0036-1.73526z"/><path d="m22.9978 5.38315c-.7537-.20141-1.5348.24698-1.7375 1.00137l-.2378.88527c-.2029.7549.2494 1.53372 1.0036 1.73526.7536.2014 1.5347-.24699 1.7374-1.00138l.2379-.88527c.2028-.75489-.2495-1.53372-1.0036-1.73525z"/><path d="m18.3663 5.80516c-.6866-.18348-1.235-.12733-1.7063.15658-.4111.24763-.7167.64862-.9878 1.00421l-.0298.0391c-.1426.18694-.2852.37362-.4471.56177-.243.26157-.5059.30874-.9088.36523l-.0326.00455c-.2436.03384-.5893.08186-.8958.27146-.3519.21762-.5897.57313-.728 1.08801-.2346.87313-.0792 1.51133.2944 1.94273.3448.3982.8026.5291.9746.5751.7425.1984 1.2394-.0378 1.6253-.2212l.013-.0062c.2151-.1022.3787-.1776.5725-.2153.1837-.0358.4179-.0409.7495.0477.3317.0886.5318.2098.6727.3323.1487.1291.2525.2758.3875.4716l.0081.0117c.2424.3514.5546.8041 1.2974 1.0026.1722.046.634.1608 1.1317-.0119.5389-.187.9933-.6616 1.2279-1.5348.1383-.5148.1108-.9417-.0852-1.3062-.1706-.3174-.4461-.53156-.6401-.6823l-.026-.02025c-.3226-.2514-.5266-.42352-.6047-.7748-.061-.27669-.0975-.53808-.1337-.7992l-.0067-.04817c-.0583-.42248-.1246-.9028-.3548-1.30635-.2644-.46328-.7025-.77032-1.3672-.94797z"/><path d="m8.73096 13.0595c-.20268-.7544-.98378-1.2028-1.73746-1.0014-.75418.2016-1.20642.9804-1.0036 1.7353l.23785.8853c.20268.7544.98378 1.2027 1.73746 1.0013.75418-.2015 1.20642-.9803 1.0036-1.7352z"/><path d="m5.62549 13.8896c-.20268-.7544-.98378-1.2028-1.73746-1.0014-.75418.2016-1.20641.9804-1.00359 1.7353l.23784.8852c.20268.7544.98378 1.2028 1.73746 1.0014.75418-.2015 1.20642-.9803 1.0036-1.7352z"/><path d="m12.1685 15.2255c-.2027-.7543-.9838-1.2027-1.7375-1.0013-.75418.2015-1.20642.9803-1.0036 1.7352l.23785.8853c.20268.7544.98375 1.2028 1.73745 1.0014.7542-.2016 1.2064-.9804 1.0036-1.7353z"/><path d="m3.73487 17.4785c-.20268-.7544-.98379-1.2028-1.73746-1.0014-.75418.2015-1.206419.9803-1.0036 1.7352l.23785.8853c.20268.7544.98378 1.2028 1.73746 1.0014.75417-.2016 1.20641-.9804 1.00359-1.7353z"/><path d="m9.27759 18.031-.02981-.0382c-.26239-.3369-.56043-.7196-.96184-.954-.46059-.2691-.99347-.3167-1.65831-.139-.68656.1835-1.13374.5056-1.39994.9872-.23206.4198-.29573.9197-.35213 1.3627l-.00623.0488c-.0298.2331-.0597.4658-.10559.7094-.07916.347-.2826.5185-.60323.7684l-.02603.0202c-.19395.1508-.46952.3649-.64013.6824-.19591.3645-.2235.7913-.08518 1.3061.2346.8732.68899 1.3478 1.22793 1.5349.49771.1727.95954.0579 1.13174.0119.74281-.1985 1.05498-.6512 1.29732-1.0027l.00811-.0117c.13502-.1958.2388-.3425.38751-.4716.14095-.1224.34107-.2436.67271-.3323.33164-.0886.56584-.0834.74954-.0477.19377.0378.3574.1132.57247.2154l.01302.0062c.38585.1834.88278.4195 1.62528.2211.172-.046.6298-.1769.9746-.575.3736-.4314.529-1.0697.2944-1.9428-.1383-.5149-.3761-.8704-.728-1.088-.3065-.1896-.6522-.2376-.8958-.2715l-.0326-.0045c-.4056-.0569-.6693-.1043-.91364-.3705-.19147-.2091-.35402-.4172-.51617-.6252z"/></g></svg>