<svg fill="none" height="25" viewBox="0 0 26 25" width="26" xmlns="http://www.w3.org/2000/svg"><g fill="#18303f"><path d="m8.17203 7.20032c1.37452-1.37053 3.56197-1.37053 4.93647 0 1.0146 1.01168 1.2772 2.54365.741 3.80658l1.828 1.8227.8691.8922.8882.8856.3705.3428c.0046.0042.009.0086.0134.0129.3072.3063.2367.7789-.0256 1.0405l-2.0363 2.0363c-.0938.0938-.2209.1465-.3536.1465-.1326 0-.2597-.0527-.3535-.1465l-.8841-.8841c-.1257-.1255-.2239-.305-.2239-.5202 0-.2155.098-.3947.2239-.5202l.8974-.8948c.1955-.195.5121-.1945.7071.001.1949.1956.1945.5122-.0011.7071l-.7091.7072.3433.3434 1.5007-1.5007-.1551-.1436-.0072-.0067-.0063-.0062-.9025-.8999-.8691-.8922-2.0742-2.0681c-.1597-.1592-.193-.4057-.0814-.6016.5305-.93099.3815-2.16689-.4057-2.95184-.9842-.98138-2.54006-.98138-3.5243 0-.98342.98057-.98342 2.52934 0 3.50994.81071.8084 2.0258.9364 2.9643.4048.1952-.1106.4403-.0776.5993.0808l1.4029 1.3973c.0941.0938.1471.2212.1471.3541.0001.1329-.0528.2604-.1469.3542l-.7152.7131.4779.5102c.1888.2015.1784.5179-.0231.7067-.2016.1888-.518.1784-.7068-.0231l-.6437-.6873c-.1223-.1251-.2164-.3015-.2164-.5128 0-.2155.0979-.3946.2238-.5202l.5421-.5405-.7943-.7912c-1.2596.5377-2.77661.2995-3.81707-.7379-1.37533-1.3714-1.37533-3.55494 0-4.92628z"/><path clip-rule="evenodd" d="m10.6548 11.0884c.7763 0 1.4056-.6293 1.4056-1.40565 0-.7763-.6293-1.40562-1.4056-1.40562-.77634 0-1.40566.62932-1.40566 1.40562 0 .77635.62932 1.40565 1.40566 1.40565zm0-1c.224 0 .4056-.18163.4056-.40565s-.1816-.40562-.4056-.40562c-.2241 0-.4057.1816-.4057.40562s.1816.40565.4057.40565z" fill-rule="evenodd"/><path d="m14.8776 14.6727c0 .2762-.2238.5-.5.5-.2761 0-.5-.2238-.5-.5 0-.2761.2239-.5.5-.5.2762 0 .5.2239.5.5z"/><path clip-rule="evenodd" d="m12.9539 1.1377c-.1322 0-.259.05236-.3527.14563-.5199.51753-1.3292 1.03459-2.286 1.52233-.94927.48393-2.01095.92274-3.00971 1.29367-.99756.3705-1.92513.67063-2.6036.87818-.33902.10371-.61528.18413-.80631.2385-.09551.02718-.16968.04784-.21969.06163l-.05655.01548-.01402.0038-.00333.00089c-.21862.05855-.37152.25689-.37152.48322 0 3.64.11028 7.16467 1.36512 10.18857 1.27135 3.0637 3.69395 5.5657 8.19311 7.2207.1114.041.2338.041.3452 0 4.4992-1.655 6.9218-4.157 8.1931-7.2207 1.2549-3.0239 1.3652-6.54857 1.3652-10.18857 0-.22633-.1521-.42444-.3707-.48298l-.0042-.00113-.014-.0038-.0566-.01548c-.05-.01379-.1241-.03445-.2197-.06163-.191-.05437-.4673-.13479-.8063-.2385-.6784-.20755-1.606-.50768-2.6036-.87818-.9987-.37093-2.0604-.80974-3.0097-1.29367-.9568-.48774-1.7661-1.0048-2.286-1.52233-.0937-.09327-.2205-.14563-.3527-.14563zm-7.43468 14.4486c-1.12777-2.7177-1.27914-5.91727-1.28828-9.42608.19217-.05506.45216-.13122.76347-.22645.69151-.21154 1.63848-.51789 2.65925-.897 1.01957-.37867 2.11998-.83258 3.11574-1.3402.8203-.41816 1.5926-.88421 2.1919-1.38932.5993.50511 1.3716.97116 2.1919 1.38932.9958.50762 2.0962.96153 3.1158 1.3402 1.0207.37911 1.9677.68546 2.6592.897.3113.09523.5713.17139.7635.22645-.0092 3.50881-.1605 6.70838-1.2883 9.42608-1.1361 2.7378-3.2853 5.0317-7.4421 6.6011-4.15682-1.5694-6.30596-3.8633-7.44208-6.6011z" fill-rule="evenodd"/></g></svg>