<svg fill="none" height="26" viewBox="0 0 26 26" width="26" xmlns="http://www.w3.org/2000/svg"><g fill="#18303f"><path clip-rule="evenodd" d="m5 1.51172c-1.38071 0-2.5 1.11929-2.5 2.5v17.98788c0 1.3807 1.11929 2.5 2.5 2.5h7.2382c1.3807 0 2.5-1.1193 2.5-2.5v-2.1225h6.6308c1.1046 0 2-.8955 2-2v-.3976c0-1.1046-.8954-2-2-2h-13.52916c-1.10457 0-2 .8954-2 2v.3976c0 1.1045.89544 2 2 2h5.89836v2.1225c0 .8284-.6715 1.5-1.5 1.5h-7.2382c-.82843 0-1.5-.6716-1.5-1.5v-17.98788c0-.82843.67157-1.5 1.5-1.5h7.2382c.8285 0 1.5.67157 1.5 1.5v8.56638c0 .2761.2239.5.5.5.2762 0 .5-.2239.5-.5v-8.56638c0-1.38071-1.1193-2.5-2.5-2.5zm2.83984 14.96778h13.52916c.5523 0 1 .4477 1 1v.3976c0 .5522-.4477 1-1 1h-13.52916c-.55228 0-1-.4478-1-1v-.3976c0-.5523.44772-1 1-1z" fill-rule="evenodd"/><path d="m14.7383 14.2695c0 .2762-.2239.5-.5.5-.2762 0-.5-.2238-.5-.5 0-.2761.2238-.5.5-.5.2761 0 .5.2239.5.5z"/><path d="m11.1484 11.8564c.2762 0 .5-.2238.5-.5 0-.2761-.2238-.5-.5-.5-.2761 0-.5.2239-.5.5 0 .2762.2239.5.5.5z"/><path d="m11.6484 8.4248c0 .27615-.2238.5-.5.5-.2761 0-.5-.22385-.5-.5 0-.27614.2239-.5.5-.5.2762 0 .5.22386.5.5z"/><path d="m11.1484 5.99316c.2762 0 .5-.22385.5-.5 0-.27614-.2238-.5-.5-.5-.2761 0-.5.22386-.5.5 0 .27615.2239.5.5.5z"/><path d="m9.13281 11.3555c0 .2761-.22385.5-.5.5-.27614 0-.5-.2239-.5-.5 0-.2762.22386-.5.5-.5.27615 0 .5.2238.5.5z"/><path d="m8.63281 8.92383c.27615 0 .5-.22386.5-.5s-.22385-.5-.5-.5c-.27614 0-.5.22386-.5.5s.22386.5.5.5z"/><path d="m9.13281 5.49219c0 .27614-.22385.5-.5.5-.27614 0-.5-.22386-.5-.5s.22386-.5.5-.5c.27615 0 .5.22386.5.5z"/><path d="m6.11719 11.8545c.27614 0 .5-.2239.5-.5s-.22386-.5-.5-.5-.5.2239-.5.5.22386.5.5.5z"/><path d="m6.61719 8.42285c0 .27614-.22386.5-.5.5s-.5-.22386-.5-.5.22386-.5.5-.5.5.22386.5.5z"/><path d="m6.11719 5.99121c.27614 0 .5-.22386.5-.5s-.22386-.5-.5-.5-.5.22386-.5.5.22386.5.5.5z"/></g></svg>