<svg fill="none" height="25" viewBox="0 0 25 25" width="25" xmlns="http://www.w3.org/2000/svg"><path d="m0 0h25v25h-25z" fill="#fff"/><path clip-rule="evenodd" d="m6.50147 1.77344c-2.69752 0-4.88428 2.18676-4.88428 4.88428 0 2.69751 2.18676 4.88428 4.88428 4.88428 2.69751 0 4.88423-2.18677 4.88423-4.88428 0-2.69752-2.18672-4.88428-4.88423-4.88428zm-5.884282 4.88428c0-3.2498 2.634482-5.884282 5.884282-5.884282s5.88423 2.634482 5.88423 5.884282-2.63444 5.88428-5.88423 5.88428c-3.2498 0-5.884282-2.63449-5.884282-5.88428z" fill="#92a0a9" fill-rule="evenodd"/><path d="m5.35711 3.22647c-.3168.176-.4752.35552-.4752.53856 0 .08448.02816.15488.08448.2112.05632.04928.11616.07392.17952.07392s.1408-.04224.23232-.12672.22528-.16896.40128-.25344c.18304-.09152.41184-.13728.6864-.13728.4576 0 .8096.11968 1.056.35904s.3696.57024.3696.99264c0 .25344-.0528.4928-.1584.71808-.09856.22528-.20064.39776-.30624.51744s-.25696.27104-.45408.45408c-.19008.176-.31328.29216-.3696.34848-.14784.16896-.26048.38368-.33792.64416-.07744.25344-.11616.6512-.11616 1.19328 0 .20416.09504.30624.28512.30624s.28512-.08096.28512-.24288c0-.4576.02112-.79552.06336-1.01376s.14432-.41536.30624-.59136c.04928-.06336.17248-.18656.3696-.3696.19712-.19008.35904-.35904.48576-.50688.13376-.14784.25696-.35904.3696-.6336.11968-.2816.17952-.57376.17952-.87648 0-.54912-.176-.99968-.528-1.35168-.34496-.352-.83424-.528-1.46784-.528-.43648 0-.81664.09152-1.14048.27456z" fill="#18303f"/><path d="m6.46514 10.7341c.18999 0 .34401-.154.34401-.344s-.15402-.344-.34401-.344-.34401.154-.34401.344.15402.344.34401.344z" fill="#18303f"/><path d="m5.35711 3.22647c-.3168.176-.4752.35552-.4752.53856 0 .08448.02816.15488.08448.2112.05632.04928.11616.07392.17952.07392s.1408-.04224.23232-.12672.22528-.16896.40128-.25344c.18304-.09152.41184-.13728.6864-.13728.4576 0 .8096.11968 1.056.35904s.3696.57024.3696.99264c0 .25344-.0528.4928-.1584.71808-.09856.22528-.20064.39776-.30624.51744s-.25696.27104-.45408.45408c-.19008.176-.31328.29216-.3696.34848-.14784.16896-.26048.38368-.33792.64416-.07744.25344-.11616.6512-.11616 1.19328 0 .20416.09504.30624.28512.30624s.28512-.08096.28512-.24288c0-.4576.02112-.79552.06336-1.01376s.14432-.41536.30624-.59136c.04928-.06336.17248-.18656.3696-.3696.19712-.19008.35904-.35904.48576-.50688.13376-.14784.25696-.35904.3696-.6336.11968-.2816.17952-.57376.17952-.87648 0-.54912-.176-.99968-.528-1.35168-.34496-.352-.83424-.528-1.46784-.528-.43648 0-.81664.09152-1.14048.27456z" stroke="#18303f" stroke-width=".5"/><path d="m6.46514 10.7341c.18999 0 .34401-.154.34401-.344s-.15402-.344-.34401-.344-.34401.154-.34401.344.15402.344.34401.344z" stroke="#18303f" stroke-width=".5"/><path clip-rule="evenodd" d="m7.83312 21.5106c3.80708.4844 6.59908.4994 10.36118.0103 1.0713-.1392 1.9115-.9922 2.0407-2.0684.4474-3.726.4722-6.5064.0089-10.36611-.1308-1.08944-.9934-1.94563-2.0835-2.06755-1.4536-.1626-2.7723-.25973-4.0567-.29407-.276-.00737-.4938-.23714-.4864-.51318.0073-.27604.2371-.49384.5131-.48646 1.3173.03521 2.6644.13473 4.1412.2999 1.5517.17357 2.7791 1.39233 2.9651 2.94219.4732 3.94228.4477 6.80278-.0088 10.60448-.1833 1.5268-1.3761 2.7422-2.9047 2.9409-3.8511.5006-6.7289.4846-10.6163-.01-1.52876-.1945-2.73121-1.4007-2.92243-2.9294-.23066-1.8442-.35714-3.4628-.37212-5.0749-.00257-.2762.2192-.5021.49533-.5047.27613-.0025.50206.2193.50463.4954.01454 1.5644.13721 3.1434.36443 4.96.13459 1.0761.98098 1.9248 2.05638 2.0616z" fill="#18303f" fill-rule="evenodd"/></svg>