<svg fill="none" height="25" viewBox="0 0 25 25" width="25" xmlns="http://www.w3.org/2000/svg"><path clip-rule="evenodd" d="m20 9.24092c0 .42083-.0372.83328-.1085 1.23438-.5699 5.1146-3.3462 9.5911-7.3916 12.5247-4.04596-2.9341-6.8225-7.4115-7.39178-12.5271-.07109-.4004-.10812-.81204-.10812-1.23198 0-3.99903 3.35786-7.24092 7.5-7.24092 4.1421 0 7.5 3.24189 7.5 7.24092zm-7.5 2.89638c1.6569 0 3-1.2968 3-2.89638 0-1.59959-1.3431-2.89637-3-2.89637s-3 1.29678-3 2.89637c0 1.59958 1.3431 2.89638 3 2.89638z" fill-rule="evenodd" stroke="#18303f" stroke-linecap="round" stroke-linejoin="round"/></svg>