<svg fill="none" height="20" viewBox="0 0 20 20" width="20" xmlns="http://www.w3.org/2000/svg"><path clip-rule="evenodd" d="m9.13772 11.4257-.85867.8739c-.38706.394-1.0202.3996-1.41416.0125l-.46034-.4522c-.39396-.3871-.39955-1.0202-.01249-1.4142l.88023-.89593c-.92409-1.73196-.65672-3.93266.8027-5.39355l1.80794-1.80975c.50667-.50718 1.32857-.50759 1.83577-.00091l4.6454 4.64082c.5072.50668.5076 1.32857.001 1.83575l-1.808 1.80977c-1.4669 1.4684-3.6825 1.7332-5.41938.7938z" fill="#d9eef9" fill-rule="evenodd"/><path d="m11.554 11.8198-1.78918-.1566c-1.63012-1.6285-1.63144-4.27007-.00296-5.90019l2.55894-2.5615 4.1975 4.126.1145.58657-.2146.47212-1.0587 1.08729-1.8599 1.81691z" fill="#f0faff"/><g fill="#18303f"><path clip-rule="evenodd" d="m10.5651 6.87544c-.70386 0-1.27448.57061-1.27448 1.2745s.57062 1.2745 1.27448 1.2745c.7039 0 1.2745-.57061 1.2745-1.2745s-.5706-1.2745-1.2745-1.2745zm-.4745 1.2745c0-.26206.2125-.4745.4745-.4745.2621 0 .4745.21244.4745.4745s-.2124.4745-.4745.4745c-.262 0-.4745-.21244-.4745-.4745z" fill-rule="evenodd"/><path clip-rule="evenodd" d="m14.0918 1.98043c.1548-.15756.1526-.41082-.0049-.56567-.1576-.15485-.4109-.15265-.5657.00491l-1.2087 1.2299-.7238-.73646c-.0954-.09706-.207-.18634-.3457-.24909-.1407-.06362-.2884-.09053-.4441-.09053s-.3034.02691-.4441.09053c-.1388.06275-.2503.15203-.3457.24909l-2.30632 2.34666c-.00424.00432-.00838.00873-.01243.01323-1.3313 1.48362-1.4898 3.62485-.57829 5.32038l-1.35047 1.37412c-.15296.1556-.15296.4051 0 .5607l.46239.4705-3.13309 3.1879c-.37902.3857-.54714.9363-.54714 1.4538 0 .55.26414 1.1236.7502 1.4302.77049.5741 1.77783.3485 2.38553-.2699l2.45045-2.4933c.27568-.2805.73934-.2805 1.01502 0 .27948.2844.27948.7682 0 1.0526-.15485.1575-.15265.4108.00491.5656.15756.1549.41081.1527.56566-.0049.58538-.5956.58538-1.5784 0-2.1741-.58918-.5994-1.56697-.5994-2.15616 0l-2.45045 2.4934c-.39702.4039-.9653.4728-1.34592.1824-.011-.0084-.02243-.0162-.03424-.0234-.22322-.1363-.385-.4354-.385-.7586 0-.3626.12016-.692.31771-.893l3.12336-3.178.45374.4617c.0752.0765.17799.1196.28528.1196s.21008-.0431.28529-.1196l1.31571-1.3388c1.65936.9455 3.81376.7193 5.26156-.6258.0045-.0041.0088-.0083.0131-.0126l2.3063-2.3467c.4412-.44897.4412-1.13846 0-1.58743l-.7692-.78266.7417-.75473c.1549-.15756.1527-.41081-.0049-.56566-.1575-.15485-.4108-.15266-.5656.0049l-.7321.74484-2.5024-2.54624zm-7.48409 9.26747.95207-.9688c.12958.1658.27126.3247.42491.4753.14929.1722.30857.3296.47614.4722l-.93699.9534zm2.74381-.3569.0066.0066c1.37348.8828 3.23468.7378 4.47728-.4111l2.2998-2.34006c.1353-.1377.1353-.3282 0-.46591l-5.1171-5.20666c-.0488-.04962-.0814-.07033-.1048-.08092-.0214-.00971-.0539-.01946-.1144-.01946-.0606 0-.093.00975-.1145.01946-.0234.01059-.056.0313-.1047.08092l-2.29982 2.34002c-1.35583 1.51824-1.23506 3.90948.27546 5.37961.00847.0083.01658.0169.02429.0258.19469.2264.41083.4219.64268.5866.04687.0191.09088.0474.12921.0851z" fill-rule="evenodd"/><path d="m17.6062 4.46685c0 .22091-.179.4-.4.4-.2209 0-.4-.17909-.4-.4 0-.22092.1791-.4.4-.4.221 0 .4.17908.4.4z"/><path d="m8.67187 18.0008c.22092 0 .4-.1791.4-.4s-.17908-.4-.4-.4c-.22091 0-.4.1791-.4.4s.17909.4.4.4z"/></g><path d="m13.2086 10.0146c.4429-.79714 1.5058-.79714 1.9486 0l4.0743 7.1743c.4428.7971-.1181 1.6828-1.0038 1.6828h-8.1781c-.88574 0-1.38766-.9447-1.00385-1.6828z" fill="#ffcd50"/><path d="m16.043 12.967c-.4429-.7971-1.5057-.7971-1.9486 0l-3.4248 5.9048h7.5581c.3839 0 .7086-.1772.9153-.4429z" fill="#ffda88"/><g clip-rule="evenodd" fill="#2d3436" fill-rule="evenodd"><path d="m14.793 10.2169c-.2841-.51141-.936-.51141-1.2201 0l-.0039.0067-4.15751 7.1651c-.24464.4834.09472 1.0663.63811 1.0663h8.1781c.5842 0 .9193-.5579.6404-1.0623zm.7274-.40653c-.6015-1.07989-2.0714-1.08049-2.674-.00182l-4.16105 7.17115c-.00322.0055-.00632.0112-.00928.0169-.51547.9913.14829 2.2917 1.37353 2.2917h8.1781c1.1866 0 1.9732-1.2124 1.368-2.3018z"/><path d="m13.7625 16.3725c.1079-.0913.2593-.1613.4205-.1613.1573 0 .3321.0488.468.1847.136.136.1848.3108.1848.4681 0 .1574-.0488.3322-.1848.4681-.1359.136-.3107.1848-.468.1848-.1574 0-.3322-.0489-.4681-.1848-.136-.136-.1848-.3107-.1848-.4681 0-.2243.1146-.3918.2324-.4915z"/><path d="m14.1829 12.1074c.2302 0 .4167.1866.4167.4167v2.6276c0 .2301-.1865.4167-.4167.4167-.2301 0-.4166-.1866-.4166-.4167v-2.6276c0-.2301.1865-.4167.4166-.4167z"/></g></svg>