<svg fill="none" height="40" viewBox="0 0 40 40" width="40" xmlns="http://www.w3.org/2000/svg"><path clip-rule="evenodd" d="m18.2755 22.8511-2.4182 2.4613c-.3871.3939-1.0202.3995-1.4142.0125l-2.3473-2.3063c-.394-.387-.3996-1.0202-.0125-1.4141l2.4613-2.5052c-1.8482-3.4639-1.3134-7.8653 1.6054-10.78709l4.0372-4.04124c.7806-.78144 2.047-.78207 2.8284-.00141l10.1345 10.12424c.7814.7807.782 2.047.0014 2.8285l-4.0372 4.0412c-2.9338 2.9368-7.365 3.4664-10.8388 1.5876z" fill="#d9eef9" fill-rule="evenodd"/><path d="m23.1079 23.6394-3.5783-.3131c-3.2602-3.2569-3.2628-8.5402-.0059-11.8004l5.1179-5.12301 8.395 8.25201.2289 1.1731-.4291.9443-2.1174 2.1746-3.7197 3.6338z" fill="#f0faff"/><g fill="#18303f"><path clip-rule="evenodd" d="m21.1303 13.7508c-1.4078 0-2.549 1.1412-2.549 2.549s1.1412 2.549 2.549 2.549c1.4077 0 2.549-1.1412 2.549-2.549s-1.1413-2.549-2.549-2.549zm-.949 2.549c0-.5241.4249-.949.949-.949s.949.4249.949.949-.4249.949-.949.949-.949-.4249-.949-.949z" fill-rule="evenodd"/><path clip-rule="evenodd" d="m28.1836 3.96076c.3097-.31511.3053-.82163-.0098-1.13132-.3152-.3097-.8217-.30531-1.1314.00981l-2.4175 2.45979-1.4475-1.47292c-.1908-.1941-.4139-.37267-.6914-.49817-.2814-.12725-.5769-.18107-.8882-.18107-.3114 0-.6068.05382-.8882.18107-.2775.1255-.5006.30407-.6914.49817l-4.6126 4.69334c-.0085.00863-.0168.01745-.0249.02646-2.6626 2.96728-2.9796 7.24968-1.1565 10.64078l-2.701 2.7482c-.3059.3112-.3059.8102 0 1.1215l.9248.941-6.26618 6.3758c-.75805.7713-1.0943 1.8725-1.0943 2.9074 0 1.1.52829 2.2473 1.5004 2.8606 1.54099 1.1481 3.55568.6969 4.77108-.5398l4.9009-4.9867c.5514-.561 1.4787-.561 2.03 0 .559.5688.559 1.5364 0 2.1052-.3097.3151-.3053.8216.0098 1.1313.3152.3097.8217.3053 1.1314-.0098 1.1707-1.1913 1.1707-3.1569 0-4.3482-1.1784-1.199-3.134-1.199-4.3123 0l-4.9009 4.9867c-.79408.8079-1.93065.9457-2.6919.3648-.02199-.0168-.04485-.0325-.06847-.0469-.44644-.2725-.77001-.8706-.77001-1.5172 0-.7251.24033-1.3839.63544-1.7859l6.24674-6.356.9074.9233c.1505.1531.356.2393.5706.2393s.4202-.0862.5706-.2393l2.6314-2.6774c3.3188 1.891 7.6275 1.4385 10.5232-1.2516.0089-.0083.0176-.0167.0261-.0254l4.6126-4.6933c.8825-.8979.8825-2.2769 0-3.1748l-1.5384-1.5654 1.4835-1.5094c.3097-.3151.3053-.8217-.0098-1.1314-.3151-.30966-.8217-.30526-1.1313.0099l-1.4641 1.4896-5.0049-5.09245zm-14.9681 18.53484 1.9041-1.9374c.2591.3315.5425.6493.8498.9506.2986.3444.6171.6592.9523.9444l-1.874 1.9068zm5.4876-.7137.0132.0133c2.7469 1.7656 6.4693 1.4755 8.9546-.8224l4.5996-4.68c.2706-.2754.2706-.6564 0-.9318l-10.2343-10.41336c-.0975-.09923-.1627-.14066-.2095-.16183-.0429-.01941-.1079-.03893-.2289-.03893-.1211 0-.186.01952-.2289.03893-.0469.02117-.112.0626-.2096.16183l-4.5995 4.68005c-2.7117 3.03651-2.4701 7.81901.5509 10.75921.017.0165.0332.0338.0486.0517.3894.4528.8217.8437 1.2854 1.173.0937.0382.1817.095.2584.1703z" fill-rule="evenodd"/><path d="m35.2125 8.9336c0 .44183-.3581.8-.8.8-.4418 0-.8-.35817-.8-.8s.3582-.8.8-.8c.4419 0 .8.35817.8.8z"/><path d="m17.3438 36.0016c.4418 0 .8-.3582.8-.8 0-.4419-.3582-.8-.8-.8-.4419 0-.8.3581-.8.8 0 .4418.3581.8.8.8z"/></g></svg>