<svg fill="none" height="15" viewBox="0 0 15 15" width="15" xmlns="http://www.w3.org/2000/svg"><g fill="#18303f"><path clip-rule="evenodd" d="m7.92387 5.15655c-.52792 0-.95588.42796-.95588.95587 0 .52792.42796.95588.95588.95588.52791 0 .95587-.42796.95587-.95588 0-.52791-.42796-.95587-.95587-.95587zm-.35588.95587c0-.19654.15933-.35587.35588-.35587.19654 0 .35587.15933.35587.35587 0 .19655-.15933.35588-.35587.35588-.19655 0-.35588-.15933-.35588-.35588z" fill-rule="evenodd"/><path clip-rule="evenodd" d="m10.5689 1.48529c.1161-.11817.1144-.30811-.0037-.42425-.1182-.116135-.3081-.114487-.4243.00368l-.90653.92242-.54285-.55234c-.07153-.07279-.1552-.13975-.25926-.18681-.10553-.04772-.21631-.06791-.33308-.06791-.11676 0-.22755.02019-.33307.06791-.10407.04706-.18773.11402-.25927.18681l-1.72973 1.76c-.00318.00324-.00629.00655-.00932.00992-.99848 1.11272-1.11735 2.71864-.43372 3.99028l-1.01285 1.03058c-.11472.11673-.11472.30385 0 .42057l.34679.35287-2.34981 2.39098c-.28427.2892-.41036.7021-.41036 1.0902 0 .4125.1981.8428.56265 1.0727.57786.4306 1.33337.2614 1.78915-.2024l1.83784-1.87c.20676-.2104.5545-.2104.76126 0 .20961.2133.20961.5762 0 .7895-.11614.1181-.11449.3081.00368.4242s.30811.1145.42425-.0037c.43904-.4467.43904-1.1838 0-1.6305-.44189-.4497-1.17523-.4497-1.61712 0l-1.83784 1.87c-.29776.3029-.72398.3546-1.00944.1368-.00825-.0063-.01682-.0122-.02568-.0176-.16742-.1022-.28875-.3265-.28875-.569 0-.2719.09012-.5189.23829-.6697l2.34251-2.38349.3403.34626c.05641.05739.1335.08971.21397.08971s.15756-.03232.21396-.08971l.98678-1.00405c1.24455.70912 2.86032.53946 3.94625-.46935.0033-.00309.0065-.00626.0097-.0095l1.7298-1.76c.3309-.33672.3309-.85385 0-1.19057l-.5769-.587.5563-.56605c.1161-.11816.1145-.30811-.0037-.42424-.1182-.11614-.3081-.11449-.4243.00368l-.549.55862-1.8768-1.90967zm-5.61309 6.95058.71405-.72654c.09719.12432.20345.24348.31869.35646.11196.12916.23142.2472.3571.35416l-.70274.71504zm2.05786-.26764.00495.00498c1.03009.66208 2.42601.55329 3.35798-.30839l1.7248-1.75502c.1015-.10328.1015-.24615 0-.34943l-3.8378-3.905c-.03657-.03721-.06102-.05275-.07857-.06069-.0161-.00728-.04045-.0146-.08585-.0146s-.06974.00732-.08584.0146c-.01756.00794-.042.02348-.07857.06069l-1.72484 1.75502c-1.01687 1.13868-.92629 2.93211.2066 4.03471.00636.00618.01244.01265.01822.01938.14602.16979.30812.31639.48201.43988.03515.01433.06816.03561.09691.06387z" fill-rule="evenodd"/><path d="m13.2047 3.3501c0 .16569-.1343.3-.3.3s-.3-.13431-.3-.3c0-.16568.1343-.3.3-.3s.3.13432.3.3z"/><path d="m6.50393 13.5006c.16569 0 .3-.1343.3-.3s-.13431-.3-.3-.3c-.16568 0-.3.1343-.3.3s.13432.3.3.3z"/></g></svg>