<svg fill="none" height="20" viewBox="0 0 20 20" width="20" xmlns="http://www.w3.org/2000/svg"><path d="m1.73949 4.98653c.19048-1.69048 1.52381-3.04762 3.2143-3.2381 3.61905-.42857 6.42851-.42857 10.07141 0 1.6905.19048 3.0238 1.54762 3.2143 3.2381.4286 3.64287.4524 6.45237.0238 10.07147-.1905 1.7143-1.5714 3.0476-3.2857 3.2143-3.5476.3572-6.40477.381-9.97621 0-1.71429-.1667-3.07142-1.5238-3.2619-3.2381-.42857-3.6667-.40476-6.47622 0-10.04767z" fill="#d9eef9"/><path d="m17.811 3.65322c-3.6191-.42858-6.4286-.42858-10.02389 0-1.69048.21428-3.02382 1.54762-3.2143 3.2381-.40476 3.57148-.42857 6.38098 0 10.07148.04762.4762.2143.9286.42859 1.3333 3.57143.381 6.4286.3572 9.9762 0 1.7143-.1666 3.0714-1.5 3.2857-3.2143.4286-3.6428.4048-6.45237-.0238-10.07143-.0714-.5-.2142-.95239-.4285-1.35715z" fill="#f0faff"/><path clip-rule="evenodd" d="m14.9753 2.17234c-3.6098-.42468-6.38572-.42464-9.97132-.00003l-.0024.00028v-.00001c-1.4888.16776-2.66926 1.36534-2.83786 2.86167l-.00003.00028c-.40132 3.54108-.42472 6.31777-.00017 9.94997l.00028.0025c.16852 1.5168 1.36865 2.7135 2.8789 2.8603l.00397.0004c3.5395.3776 6.36703.3542 9.88813-.0002l.0015-.0002c1.5178-.1476 2.735-1.3273 2.9027-2.8365l.0004-.0031c.4243-3.5835.401-6.35938-.0239-9.97137l-.0002-.00208c-.1686-1.49633-1.3491-2.69391-2.8379-2.86167zm.0987-.84811c-3.675-.432289-6.51764-.432333-10.16925.00002-1.89149.21371-3.37705 1.73003-3.58947 3.61412-.40816 3.60143-.432423 6.44353.00003 10.14413.21287 1.9105 1.72579 3.4271 3.64276 3.6144 3.60226.3842 6.48853.3598 10.06163.0002 1.9099-.1861 3.4538-1.6721 3.6677-3.5904.4326-3.6536.4082-6.49641-.0238-10.16928-.2128-1.88371-1.6983-3.39959-3.5896-3.61319z" fill="#2d3436" fill-rule="evenodd"/><path d="m13.2086 10.0146c.4429-.79714 1.5058-.79714 1.9486 0l4.0743 7.1743c.4428.7971-.1181 1.6828-1.0038 1.6828h-8.1781c-.88574 0-1.38766-.9447-1.00385-1.6828z" fill="#ffcd50"/><path d="m16.043 12.967c-.4429-.7971-1.5057-.7971-1.9486 0l-3.4248 5.9048h7.5581c.3839 0 .7086-.1772.9153-.4429z" fill="#ffda88"/><g clip-rule="evenodd" fill="#2d3436" fill-rule="evenodd"><path d="m14.793 10.2169c-.2841-.51141-.936-.51141-1.2201 0l-.0039.0067-4.15751 7.1651c-.24464.4834.09472 1.0663.63811 1.0663h8.1781c.5842 0 .9193-.5579.6404-1.0623zm.7274-.40653c-.6015-1.07989-2.0714-1.08049-2.674-.00182l-4.16105 7.17115c-.00322.0055-.00632.0112-.00928.0169-.51547.9913.14829 2.2917 1.37353 2.2917h8.1781c1.1866 0 1.9732-1.2124 1.368-2.3018z"/><path d="m13.7625 16.3725c.1079-.0913.2593-.1613.4205-.1613.1573 0 .3321.0488.468.1847.136.136.1848.3108.1848.4681 0 .1574-.0488.3322-.1848.4681-.1359.136-.3107.1848-.468.1848-.1574 0-.3322-.0489-.4681-.1848-.136-.136-.1848-.3107-.1848-.4681 0-.2243.1146-.3918.2324-.4915z"/><path d="m14.1829 12.1074c.2302 0 .4167.1866.4167.4167v2.6276c0 .2301-.1865.4167-.4167.4167-.2301 0-.4166-.1866-.4166-.4167v-2.6276c0-.2301.1865-.4167.4166-.4167z"/></g></svg>