<svg fill="none" height="20" viewBox="0 0 20 20" width="20" xmlns="http://www.w3.org/2000/svg"><path d="m8.80389 10.4902s-5.48374 4.1578-5.48374 5.1149c0 .9572.99373 1.8242.99373 1.8242s.84083 1.1074 1.61005 1.1792c.35247.0329 3.47521-2.2449 3.47521-2.2449s1.03746 1.0657 3.78136-1.4287c2.7439-2.4945 1.8449-3.3925 1.8449-3.3925s2.6678-2.67016 2.6678-3.00241c0-.66476-.9297-1.79146-.9297-1.79146s-1.127-1.17394-1.8369-1.24722c-.724-.07474-6.12271 4.98889-6.12271 4.98889z" fill="#f0faff"/><path d="m4.30645 17.3277c-.85638-.9851-.75199-2.478.23316-3.3344l8.70699-7.5688c.9851-.85638 2.478-.75199 3.3343.23317z" fill="#d9eef9"/><g fill="#2d3436"><path d="m10.2849 1.354c-.2209 0-.4.17909-.4.4 0 .22092.1791.4.4.4h5.1947l-.0736.44177c-.0364.21791.1109.424.3288.46031.2179.03632.424-.11089.4603-.32879l.0846-.50753c.0037-.02209.0054-.04407.0055-.06576h2.961c.2209 0 .4-.17908.4-.4 0-.22091-.1791-.4-.4-.4z"/><path clip-rule="evenodd" d="m4.69673 13.4395c.01462.0146.03009.0279.04625.0398-.36361.2986-.74207.6082-1.13869.9318l-.01021.0086c-.76905.6714-.84738 1.8271-.17595 2.5962l1.26274 1.4463c.24902.2853.71415.4767 1.15749.5378.45025.062 1.00748.0075 1.42829-.3528.68827-.5277 1.32423-1.0212 1.92304-1.4939.19108.0944.41208.1075.60119.0926.29112-.023.62962-.12.99112-.2724.7271-.3067 1.6217-.8693 2.5497-1.6795s1.6063-1.6207 2.0082-2.2999c.1998-.3375.3416-.6598.4037-.9452.04-.184.0568-.403-.0093-.6038.5493-.5302 1.1236-1.095 1.7381-1.70809.394-.35008.5678-.84237.5843-1.30362.0164-.4605-.1217-.94256-.419-1.28318l-1.257-1.43973-.0017-.00192-.0007-.00085-.002-.0023-.0006-.00067-.0006-.0007c-.0088-.01001-.0182-.01975-.0279-.02884-.7197-.67512-1.8548-.77036-2.6287-.09467-.0039.00337-.0077.0068-.0114.01031-3.2699 3.08353-5.3196 4.88196-8.3653 7.39556-.01909-.0405-.04536-.0785-.07882-.112l-.84317-.8449c-.15605-.1564-.40932-.1566-.56568-.0006-.15637.1561-.15662.4094-.00057.5657zm-.67596 3.0503c-.3795-.4347-.33708-1.082.09483-1.4634 4.09625-3.3421 6.2698-5.20371 10.1343-8.84785.4272-.368 1.0855-.34359 1.5364.06749l1.2487 1.43031c.1385.15863.2329.4294.2222.72846-.0105.29416-.1206.56345-.3216.73896-.0067.00583-.0132.01189-.0195.01816-3.7328 3.72437-5.9595 5.64837-10.14547 8.85747-.00674.0052-.01331.0106-.0197.0161-.18064.1577-.47269.2175-.80339.172-.34133-.0471-.59079-.1875-.66403-.2714zm6.45033-.2534c-.0911.0384-.1767.0711-.2566.0985 1.636-1.3229 3.0315-2.5369 4.5637-3.9783-.0367.0723-.0788.1491-.1267.2301-.349.5895-.966 1.3364-1.8459 2.1046-.88.7682-1.7033 1.2789-2.3345 1.5451z" fill-rule="evenodd"/><path d="m15.4849 4.39591c.2209 0 .4-.17867.4-.39908 0-.2204-.1791-.39908-.4-.39908s-.4.17868-.4.39908c0 .22041.1791.39908.4.39908z"/></g><circle cx="5.42931" cy="5.29199" fill="#f0faff" r="4.5"/><path clip-rule="evenodd" d="m5.74741 9.18799c1.93299 0 3.5-1.567 3.5-3.5s-1.56701-3.5-3.5-3.5c-1.933 0-3.5 1.567-3.5 3.5s1.567 3.5 3.5 3.5zm0 .6952c1.97778-.05356 4.12904-2.54402 4.12904-4.1952 0-2.48528-1.64376-4.5-4.12904-4.5-2.48529 0-4.5 2.01472-4.5 4.5s2.01471 4.1952 4.5 4.1952z" fill="#d9eef9" fill-rule="evenodd"/><path clip-rule="evenodd" d="m5.4293 9.20005c2.15801 0 3.90743-1.74941 3.90743-3.90742s-1.74942-3.90742-3.90743-3.90742-3.90742 1.74941-3.90742 3.90742 1.74941 3.90742 3.90742 3.90742zm4.7074-3.90742c0 2.59984-2.10756 4.70747-4.7074 4.70747s-4.707422-2.10763-4.707422-4.70747 2.107582-4.707425 4.707422-4.707425 4.7074 2.107585 4.7074 4.707425z" fill="#2d3436" fill-rule="evenodd"/><path d="m7.22071 6.47998c.15621.15621.15621.40948 0 .56569-.1562.15621-.40947.15621-.56568 0l-1.21319-1.21319-1.23478 1.23478c-.15621.15621-.40948.15621-.56569 0s-.15621-.40947 0-.56568l1.23478-1.23479-1.18478-1.18478c-.15621-.15621-.15621-.40947 0-.56568s.40948-.15621.56569 0l1.18478 1.18478 1.16319-1.16319c.15621-.15621.40948-.15621.56568 0 .15621.15621.15621.40947 0 .56568l-1.16319 1.16319z" fill="#2d3436"/><path d="m13.2086 10.0146c.4429-.79714 1.5058-.79714 1.9486 0l4.0743 7.1743c.4428.7971-.1181 1.6828-1.0038 1.6828h-8.1781c-.88574 0-1.38766-.9447-1.00385-1.6828z" fill="#ffcd50"/><path d="m16.043 12.967c-.4429-.7971-1.5057-.7971-1.9486 0l-3.4248 5.9048h7.5581c.3839 0 .7086-.1772.9153-.4429z" fill="#ffda88"/><g clip-rule="evenodd" fill="#2d3436" fill-rule="evenodd"><path d="m14.793 10.2169c-.2841-.51141-.936-.51141-1.2201 0l-.0039.0067-4.15751 7.1651c-.24464.4834.09472 1.0663.63811 1.0663h8.1781c.5842 0 .9193-.5579.6404-1.0623zm.7274-.40653c-.6015-1.07989-2.0714-1.08049-2.674-.00182l-4.16105 7.17115c-.00322.0055-.00632.0112-.00928.0169-.51547.9913.14829 2.2917 1.37353 2.2917h8.1781c1.1866 0 1.9732-1.2124 1.368-2.3018z"/><path d="m13.7625 16.3725c.1079-.0913.2593-.1613.4205-.1613.1573 0 .3321.0488.468.1847.136.136.1848.3108.1848.4681 0 .1574-.0488.3322-.1848.4681-.1359.136-.3107.1848-.468.1848-.1574 0-.3322-.0489-.4681-.1848-.136-.136-.1848-.3107-.1848-.4681 0-.2243.1146-.3918.2324-.4915z"/><path d="m14.1829 12.1074c.2302 0 .4167.1866.4167.4167v2.6276c0 .2301-.1865.4167-.4167.4167-.2301 0-.4166-.1866-.4166-.4167v-2.6276c0-.2301.1865-.4167.4166-.4167z"/></g></svg>