<svg fill="none" height="25" viewBox="0 0 25 25" width="25" xmlns="http://www.w3.org/2000/svg"><path d="m12.8562 1.69238c-.2761 0-.5.22386-.5.5 0 .27615.2239.5.5.5h6.4934l-.0921.55221c-.0454.27238.1386.53.411.57539.2724.0454.53-.13861.5754-.41099l.1058-.63441c.0046-.02762.0068-.05509.0068-.0822h3.7013c.2761 0 .5-.22385.5-.5 0-.27614-.2239-.5-.5-.5z" fill="#2d3436"/><path d="m19.3562 5.49476c.2761 0 .5-.22334.5-.49884 0-.27551-.2239-.49885-.5-.49885s-.5.22334-.5.49885c0 .2755.2239.49884.5.49884z" fill="#2d3436"/><path clip-rule="evenodd" d="m6.78662 11.5c2.69752 0 4.88428-2.18676 4.88428-4.88428 0-2.69751-2.18676-4.88427-4.88428-4.88427-2.69751 0-4.88428 2.18676-4.88428 4.88427 0 2.69752 2.18677 4.88428 4.88428 4.88428zm5.88428-4.88428c0 3.2498-2.6345 5.88428-5.88428 5.88428-3.24979 0-5.884276-2.63448-5.884276-5.88428 0-3.24979 2.634486-5.884275 5.884276-5.884275 3.24978 0 5.88428 2.634485 5.88428 5.884275z" fill="#85949a" fill-rule="evenodd"/><path d="m9.0259 8.10004c.19526.19526.19526.51185 0 .70711s-.51185.19526-.70711 0l-1.51649-1.51649-1.54347 1.54348c-.19527.19526-.51185.19526-.70711 0s-.19526-.51185 0-.70711l1.54348-1.54348-1.48098-1.48097c-.19526-.19527-.19526-.51185 0-.70711s.51184-.19526.70711 0l1.48097 1.48098 1.45399-1.45399c.19526-.19526.51185-.19526.70711 0s.19526.51184 0 .70711l-1.45399 1.45398z" fill="#f18303"/><path clip-rule="evenodd" d="m14.505 6.02844c-.2587-.09646-.5467.03509-.6432.29383-.0964.25874.0351.5467.2939.64317 1.0066.37529 2.0656.87242 3.1269 1.48514 1.9828 1.14479 3.6058 2.48082 4.678 3.74282.3279.386.3592.9666.0706 1.4664l-1.0928 1.8928c-.0055.0096-.0112.0192-.0169.0286h-.0001l-.0054.0094-4.1903 7.2578c-.0056.0075-.011.0152-.0161.0231-.2993.4574-.7957.6903-1.2735.5989-1.6212-.3099-3.581-1.0534-5.55847-2.1951-1.97767-1.1418-3.60151-2.4674-4.68055-3.7165l-.37242.3217.37242-.3217c-.31799-.3681-.36446-.9144-.11806-1.4022.00425-.0084.00826-.0169.01201-.0255l1.30848-2.2663c.13808-.2391.05615-.5449-.18299-.683s-.54494-.0561-.68302.183l-1.33498 2.3121c-.01481.0257-.02722.0524-.03716.0799-.37237.7813-.3317 1.7487.27897 2.4557 1.1659 1.3497 2.88286 2.7427 4.9373 3.9289 2.05427 1.186 4.11897 1.9763 5.87067 2.3112.9177.1755 1.776-.2731 2.2664-.9863.0188-.0224.0357-.0465.0505-.0721l4.2142-7.2992c.0085-.014.0168-.0281.0251-.0424l1.0928-1.8928c.4634-.8027.4713-1.8536-.1746-2.6138-1.1603-1.3658-2.8785-2.77118-4.9401-3.96145-1.1071-.63914-2.2164-1.16045-3.2776-1.55611zm-.7633 7.98406c.2392.1381.545.0561.683-.183.1381-.2391.0562-.5449-.183-.683-.2391-.1381-.5449-.0561-.683.183s-.0561.5449.183.683zm1.0264 1.3222c-.1381.2391-.4439.3211-.683.183-.2392-.1381-.3211-.4439-.183-.683.1381-.2392.4438-.3211.683-.183.2391.138.3211.4438.183.683zm-1.4755.4561c-.1381.2391-.4439.3211-.683.183-.2392-.1381-.3211-.4439-.183-.683.138-.2392.4438-.3211.683-.183.2391.138.3211.4438.183.683zm.3427 1.5054c-.1381.2392-.4439.3211-.6831.183-.2391-.138-.321-.4438-.183-.683.1381-.2391.4439-.3211.683-.183.2392.1381.3211.4439.1831.683zm-2.5001-.8661c.2391.1381.5449.0562.683-.183.138-.2391.0561-.5449-.183-.683-.2392-.1381-.545-.0561-.6831.183-.138.2392-.0561.545.1831.683zm1.8151-2.1445c-.1381.2391-.4439.3211-.683.183s-.3211-.4439-.183-.683.4439-.3211.683-.183.3211.4439.183.683z" fill="#2d3436" fill-rule="evenodd"/></svg>