<svg fill="none" height="25" viewBox="0 0 25 25" width="25" xmlns="http://www.w3.org/2000/svg"><path d="m8.94788 5.28655c.19526-.19526.19526-.51184 0-.7071-.19527-.19527-.51185-.19527-.70711 0l-1.45226 1.45226-1.47939-1.47939c-.19526-.19527-.51185-.19527-.70711 0-.19526.19526-.19526.51184 0 .7071l1.47939 1.47939-1.54579 1.5458c-.19527.19526-.19527.51184 0 .70711.19526.19526.51184.19526.7071 0l1.5458-1.5458 1.51866 1.51866c.19527.19527.51185.19527.70711 0 .19526-.19526.19526-.51184 0-.7071l-1.51866-1.51867z" fill="#f18303"/><g clip-rule="evenodd" fill-rule="evenodd"><path d="m6.77125 11.6562c2.69791 0 4.88495-2.18704 4.88495-4.88495s-2.18704-4.885-4.88495-4.885-4.885 2.18709-4.885 4.885 2.18709 4.88495 4.885 4.88495zm5.88495-4.88495c0 3.25015-2.6348 5.88495-5.88495 5.88495-3.2502 0-5.885-2.6348-5.885-5.88495 0-3.2502 2.6348-5.885 5.885-5.885 3.25015 0 5.88495 2.6348 5.88495 5.885z" fill="#85949a"/><g fill="#2d3436"><path d="m13.9928 5.26367c0-.27614.2239-.5.5-.5 2.9355 0 5.6255.45843 7.6532 1.22267.9264.34916 1.4452 1.25584 1.4452 2.18447l.0005 13.04599c0 .9366-.5279 1.8491-1.4645 2.1931-2.0247.7438-4.7071 1.1897-7.6338 1.1897-2.927 0-5.60967-.446-7.63444-1.1899-.93655-.3441-1.46443-1.2565-1.46443-2.193v-6.9288c0-.2761.22386-.5.5-.5s.5.2239.5.5v6.9288c0 .5801.32219 1.0754.80928 1.2543 1.89172.695 4.45349 1.1286 7.28959 1.1286 2.8358 0 5.3973-.4335 7.289-1.1284.4871-.1789.8093-.6743.8093-1.2544l-.0005-13.04599c0-.57544-.3168-1.06742-.7979-1.24873-1.892-.7131-4.4583-1.15841-7.3005-1.15841-.2761 0-.5-.22386-.5-.5z"/><path d="m15 12.5c0 .2761-.2239.5-.5.5s-.5-.2239-.5-.5.2239-.5.5-.5.5.2239.5.5zm-1 1c0 .2761-.2239.5-.5.5s-.5-.2239-.5-.5.2239-.5.5-.5.5.2239.5.5zm1.5.5c.2761 0 .5-.2239.5-.5s-.2239-.5-.5-.5-.5.2239-.5.5.2239.5.5.5zm-2.5.5c0 .2761-.2239.5-.5.5s-.5-.2239-.5-.5.2239-.5.5-.5.5.2239.5.5zm3.5.5c.2761 0 .5-.2239.5-.5s-.2239-.5-.5-.5-.5.2239-.5.5.2239.5.5.5zm-1.5-.5c0 .2761-.2239.5-.5.5s-.5-.2239-.5-.5.2239-.5.5-.5.5.2239.5.5zm-1.5 1.5c.2761 0 .5-.2239.5-.5s-.2239-.5-.5-.5-.5.2239-.5.5.2239.5.5.5zm2.5-.5c0 .2761-.2239.5-.5.5s-.5-.2239-.5-.5.2239-.5.5-.5.5.2239.5.5zm-3.5 1.5c.2761 0 .5-.2239.5-.5s-.2239-.5-.5-.5-.5.2239-.5.5.2239.5.5.5zm4.5-.5c0 .2761-.2239.5-.5.5s-.5-.2239-.5-.5.2239-.5.5-.5.5.2239.5.5zm-2.5.5c.2761 0 .5-.2239.5-.5s-.2239-.5-.5-.5-.5.2239-.5.5.2239.5.5.5zm-.5.5c0 .2761-.2239.5-.5.5s-.5-.2239-.5-.5.2239-.5.5-.5.5.2239.5.5zm1.5.5c.2761 0 .5-.2239.5-.5s-.2239-.5-.5-.5-.5.2239-.5.5.2239.5.5.5z"/></g></g></svg>