<svg fill="none" height="40" viewBox="0 0 40 40" width="40" xmlns="http://www.w3.org/2000/svg"><path d="m5.12866 6.95278c0-2.17498 1.58621-4.0237 3.7448-4.29019 2.85044-.35191 6.78104-.75671 9.78004-.75671s6.9296.4048 9.7801.75671c2.1586.26649 3.7448 2.11521 3.7448 4.29019v18.66012c0 2.3031-1.7712 4.2168-4.07 4.3561-2.8222.171-6.5758.3588-9.4549.3588-2.879 0-6.6326-.1878-9.45481-.3588-2.29888-.1393-4.07003-2.053-4.07003-4.3561z" fill="#d9eef9"/><path clip-rule="evenodd" d="m32.1599 8.66448c.0123.16923.0186.33998.0186.512v14.03552c0 3.6579-2.8158 6.7026-6.4688 6.8923-2.3459.1218-4.9377.2235-7.0561.2235s-4.7102-.1017-7.0561-.2235c-.0495-.0026-.0989-.0057-.1481-.0093-.0161-.1935-.0244-.3892-.0244-.5867v-14.0355c0-3.4544 2.5192-6.39929 5.9536-6.76985 2.4729-.26681 5.2913-.50077 7.5713-.50077 2.1697 0 4.8269.21187 7.21.4623z" fill="#f0faff" fill-rule="evenodd"/><g fill="#2d3436"><path d="m19.2481 29.7175c-.2919.0043-.5858.0065-.8815.0065-4.2736 0-8.1584-.4565-11.10942-1.1991-.90672-.2282-1.54813-1.0655-1.59255-2.0822-.00045-.0103-.00109-.0205-.00191-.0307l.00003-.0218-.00052-.0613v-1.5771l.00046-.0541.00003-.0072v-18.71045l.0017-.02296.00071-.0136c.04445-1.01667.68585-1.85399 1.59254-2.08215 2.95103-.74259 6.83583-1.19912 11.10943-1.19912 4.2737 0 8.1586.45656 11.1096 1.19918.9067.22817 1.5481 1.06546 1.5926 2.0821.0005.01223.0013.02442.0024.03657v6.96563c0 .459.3721.8311.8311.8311s.8311-.3721.8311-.8311v-7.03537c0-.03871-.0027-.07713-.008-.11503-.1012-1.62823-1.1635-3.12309-2.8435-3.54586-3.1109-.78286-7.1361-1.249443-11.5153-1.249443-4.3791-.000001-8.40417.466553-11.51506 1.249373-1.68006.42277-2.74242 1.91769-2.84355 3.54597-.00529.03788-.00799.07629-.00799.11499v18.78017l-.00046.0506-.00004.0071-.00003 1.5843.00053.0577v.0861c0 .0366.00241.0729.00713.1087.09893 1.6306 1.16182 3.1286 2.84392 3.5519 3.11088.7828 7.13595 1.2493 11.51505 1.2493.3039 0 .606-.0022.9061-.0066.459-.0068.8255-.3844.8188-.8434-.0068-.4589-.3844-.8255-.8434-.8187z"/><g clip-rule="evenodd" fill-rule="evenodd"><path d="m18.4004 9.66925c-.7093 0-1.2853.57485-1.2853 1.28495 0 .7102.576 1.285 1.2853 1.285s1.2853-.5748 1.2853-1.285c0-.7101-.576-1.28495-1.2853-1.28495zm.3769 1.28495c0 .2089-.1692.3773-.3769.3773s-.3769-.1684-.3769-.3773c0-.2088.1692-.3772.3769-.3772s.3769.1684.3769.3772z"/><path d="m14.9385 13.1309c0-.7102.5759-1.285 1.2853-1.285.7093 0 1.2853.5748 1.2853 1.285s-.576 1.285-1.2853 1.285c-.7094 0-1.2853-.5748-1.2853-1.285zm1.2853.3772c.2076 0 .3769-.1684.3769-.3772 0-.2089-.1693-.3773-.3769-.3773-.2077 0-.3769.1684-.3769.3773 0 .2088.1692.3772.3769.3772z"/><path d="m20.577 11.8459c-.7093 0-1.2853.5748-1.2853 1.285s.576 1.285 1.2853 1.285 1.2853-.5748 1.2853-1.285-.576-1.285-1.2853-1.285zm.3769 1.285c0 .2088-.1692.3772-.3769.3772s-.3769-.1684-.3769-.3772c0-.2089.1692-.3773.3769-.3773s.3769.1684.3769.3773z"/><path d="m12.7617 15.3054c0-.7102.576-1.285 1.2853-1.285s1.2853.5748 1.2853 1.285-.576 1.285-1.2853 1.285-1.2853-.5748-1.2853-1.285zm1.2853.3772c.2077 0 .3769-.1683.3769-.3772 0-.2088-.1692-.3772-.3769-.3772-.2076 0-.3769.1684-.3769.3772 0 .2089.1693.3772.3769.3772z"/><path d="m22.6871 14.0204c-.7093 0-1.2853.5748-1.2853 1.285s.576 1.285 1.2853 1.285c.7094 0 1.2853-.5748 1.2853-1.285s-.5759-1.285-1.2853-1.285zm.377 1.285c0 .2089-.1693.3772-.377.3772-.2076 0-.3769-.1683-.3769-.3772 0-.2088.1693-.3772.3769-.3772.2077 0 .377.1684.377.3772z"/><path d="m17.1151 15.2432c0-.7102.576-1.285 1.2853-1.285s1.2853.5748 1.2853 1.285-.576 1.285-1.2853 1.285-1.2853-.5748-1.2853-1.285zm1.2853.3772c.2077 0 .3769-.1684.3769-.3772s-.1692-.3772-.3769-.3772-.3769.1684-.3769.3772.1692.3772.3769.3772z"/><path d="m16.2238 16.1305c-.7093 0-1.2853.5748-1.2853 1.285s.576 1.285 1.2853 1.285 1.2853-.5748 1.2853-1.285-.576-1.285-1.2853-1.285zm.3769 1.285c0 .2089-.1693.3773-.3769.3773-.2077 0-.3769-.1684-.3769-.3773 0-.2088.1692-.3772.3769-.3772.2076 0 .3769.1684.3769.3772z"/><path d="m19.2917 17.4155c0-.7102.576-1.285 1.2853-1.285s1.2853.5748 1.2853 1.285-.576 1.285-1.2853 1.285-1.2853-.5748-1.2853-1.285zm1.2853.3773c.2077 0 .3769-.1684.3769-.3773 0-.2088-.1692-.3772-.3769-.3772s-.3769.1684-.3769.3772c0 .2089.1692.3773.3769.3773z"/><path d="m14.047 18.3051c-.7093 0-1.2853.5748-1.2853 1.285s.576 1.285 1.2853 1.285 1.2853-.5748 1.2853-1.285-.576-1.285-1.2853-1.285zm.3769 1.285c0 .2088-.1692.3772-.3769.3772-.2076 0-.3769-.1684-.3769-.3772 0-.2089.1693-.3772.3769-.3772.2077 0 .3769.1683.3769.3772z"/><path d="m21.4018 19.5901c0-.7102.576-1.285 1.2853-1.285.7094 0 1.2853.5748 1.2853 1.285s-.5759 1.285-1.2853 1.285c-.7093 0-1.2853-.5748-1.2853-1.285zm1.2853.3772c.2077 0 .377-.1684.377-.3772 0-.2089-.1693-.3772-.377-.3772-.2076 0-.3769.1683-.3769.3772 0 .2088.1693.3772.3769.3772z"/><path d="m18.4004 18.2408c-.7093 0-1.2853.5748-1.2853 1.285s.576 1.285 1.2853 1.285 1.2853-.5748 1.2853-1.285-.576-1.285-1.2853-1.285zm.3769 1.285c0 .2089-.1692.3772-.3769.3772s-.3769-.1683-.3769-.3772c0-.2088.1692-.3772.3769-.3772s.3769.1684.3769.3772z"/><path d="m14.9385 21.7024c0-.7102.5759-1.285 1.2853-1.285.7093 0 1.2853.5748 1.2853 1.285s-.576 1.285-1.2853 1.285c-.7094 0-1.2853-.5748-1.2853-1.285zm1.2853.3773c.2076 0 .3769-.1684.3769-.3773 0-.2088-.1693-.3772-.3769-.3772-.2077 0-.3769.1684-.3769.3772 0 .2089.1692.3773.3769.3773z"/><path d="m20.577 20.4174c-.7093 0-1.2853.5748-1.2853 1.285s.576 1.285 1.2853 1.285 1.2853-.5748 1.2853-1.285-.576-1.285-1.2853-1.285zm.3769 1.285c0 .2089-.1692.3773-.3769.3773s-.3769-.1684-.3769-.3773c0-.2088.1692-.3772.3769-.3772s.3769.1684.3769.3772z"/></g></g><path d="m30.3396 17.5666c0-.1277-.1278-.2554-.3832-.2554-.1276 0-.2553.1277-.383.2554-1.4472 2.4687-6.5124 10.939-6.5124 14.2165 0 3.7882 3.1498 6.8954 6.8954 6.8954 3.7883 0 6.8955-3.1497 6.8955-6.8954.1277-3.2775-4.9374-11.8755-6.5123-14.2165z" fill="#64d3ff"/><path d="m27.7432 27.5266c0 3.7883 3.1497 6.8955 6.8954 6.8955.5959 0 1.1918-.0852 1.7877-.2554.2979-.7662.4682-1.5749.4682-2.4262.1277-2.8093-3.7031-9.6621-5.7462-12.9822-1.7451 3.2349-3.4051 6.8529-3.4051 8.7683z" fill="#8be4ff"/><path d="m30.3396 17.5666c0-.1277-.1278-.2554-.3832-.2554-.1277 0-.2553.1277-.383.2554-1.4472 2.4687-6.5124 10.939-6.5124 14.2165 0 3.7882 3.1498 6.8954 6.8954 6.8954 3.7883 0 6.8954-3.1498 6.8954-6.8954.1277-3.2775-4.9373-11.8755-6.5122-14.2165z" stroke="#2d3436" stroke-linecap="round" stroke-linejoin="round" stroke-width="2"/><g fill="#2d3436"><path d="m31.456 36.1601c.4637 0 .8396-.3758.8396-.8395 0-.4636-.3759-.8395-.8396-.8395-.4636 0-.8395.3759-.8395.8395 0 .4637.3759.8395.8395.8395z"/><path d="m28.9376 35.3206c.4636 0 .8395-.3759.8395-.8395 0-.4637-.3759-.8395-.8395-.8395-.4637 0-.8395.3758-.8395.8395 0 .4636.3758.8395.8395.8395z"/></g></svg>