<svg fill="none" height="26" viewBox="0 0 25 26" width="25" xmlns="http://www.w3.org/2000/svg"><g fill="#c4c4c4"><path d="m10.8955 2.18357c1.4551-.74155 3.2097-.85394 4.7924-.25646 1.5827.59749 2.8253 1.84139 3.4273 3.35955.576-.09335 1.1624-.02351 1.7498.19823 1.6846.63598 2.6734 2.37262 2.2669 4.10328.6953.39998 1.2398 1.08793 1.3729 1.92213.1549.971-.2299 1.9903-.9878 2.6167-.7795.6442-1.8637.741-2.7546.4047-.2584-.0975-.3887-.386-.2912-.6444.0975-.2583.386-.3887.6444-.2912.6059.2288 1.3009.143 1.7643-.24.485-.4008.7365-1.067.6374-1.6883-.0947-.5938-.559-1.1171-1.1649-1.3458-.2583-.0975-.3887-.38604-.2911-.64438.4954-1.31228-.1971-2.74663-1.5495-3.25718-.5594-.21119-1.0742-.22615-1.5649-.06696-.1277.04144-.2667.02978-.3857-.03236-.119-.06213-.208-.16952-.247-.29799-.4312-1.42029-1.5337-2.61466-2.9795-3.16047-1.4458-.5458-3.0625-.37804-4.3247.40299-.1142.07065-.252.09241-.3824.0604-.1303-.03202-.2424-.11513-.3108-.23062-.263-.4437-.65931-.77269-1.21874-.98389-1.32757-.50118-2.73375.11929-3.32658 1.44776-.10789.24175-.38552.35752-.63319.26401-.60617-.22883-1.30181-.14316-1.76509.23973-.48498.40082-.73648 1.067-.63738 1.68833.0947.59369.55959 1.11733 1.16557 1.3461.25835.09753.38872.38603.29119.64437-.09753.25835-.38603.38871-.64437.29118-.8909-.33633-1.64062-1.1255-1.7999-2.12414-.15488-.97099.22992-1.99026.98784-2.61666.65699-.54299 1.53085-.69684 2.32255-.53057.88942-1.51815 2.67995-2.232201 4.39255-1.58566.58735.22174 1.07365.55687 1.44425 1.00758z"/><path d="m14.4197 13.6044c-.8575 0-1.8041.3829-2.4198 1h-1.5802c-1.37614 0-2.5 1.1239-2.5 2.5 0 1.3762 1.12386 2.5 2.5 2.5.2761 0 .5-.2238.5-.5 0-.2761-.2239-.5-.5-.5-.82386 0-1.5-.6761-1.5-1.5 0-.8238.67614-1.5 1.5-1.5h1.8c.1484 0 .2891-.0659.3841-.1799.3986-.4783 1.154-.8201 1.8159-.8201.6374 0 1.3166.3238 1.8464.8536.0938.0937.221.1464.3536.1464h1.8c.8239 0 1.5.6762 1.5 1.5 0 .8239-.6761 1.5-1.5 1.5-.2761 0-.5.2239-.5.5 0 .2762.2239.5.5.5 1.3761 0 2.5-1.1238 2.5-2.5 0-1.3761-1.1239-2.5-2.5-2.5h-1.6003c-.6538-.592-1.5088-1-2.3997-1z"/><path d="m5.63454 17.1044c.27614 0 .5-.2238.5-.5 0-.2761-.22386-.5-.5-.5s-.5.2239-.5.5c0 .2762.22386.5.5.5z"/><path d="m4.12095 19.0144c-.26818-.0659-.53896.0981-.6048.3663s.09818.539.36636.6048c3.30103.8105 4.61922 2.95 4.61922 4.5144 0 .2762.22386.5.5.5s.5-.2238.5-.5c0-2.1299-1.74346-4.5925-5.38078-5.4855z"/><path d="m16.7595 22.4507c.2026-.1876.2147-.5039.027-.7065-.1876-.2026-.504-.2148-.7066-.0271-1.0186.9435-1.4237 2.0469-1.3972 3.0299.0075.276.2373.4938.5133.4863.276-.0074.4938-.2372.4864-.5132-.0183-.6769.2558-1.5087 1.0771-2.2694z"/><path d="m12.0017 19.9999c.2762 0 .5.2239.5.5v3.6328c0 .2762-.2238.5-.5.5-.2761 0-.5-.2238-.5-.5v-3.6328c0-.2761.2239-.5.5-.5z"/><path d="m18.4197 20.7001c0 .2762-.2239.5-.5.5s-.5-.2238-.5-.5c0-.2761.2239-.5.5-.5s.5.2239.5.5z"/><path d="m7.58212 7.78541c1.22777-.4635 2.58598-.38915 3.72618.16422.2925-.33122.666-.57947 1.1084-.74647 1.3562-.51201 2.7718.03504 3.5005 1.20918.622-.10917 1.2991.02241 1.8162.4498.6183.51093.9315 1.34076.8052 2.13276-.1307.8196-.7439 1.4612-1.4666 1.7341l-.5076.1916c-.2584.0975-.5469-.0328-.6444-.2912-.0975-.2583.0328-.5468.2912-.6443l.5077-.1917c.4377-.1652.766-.5413.8322-.956.0705-.4424-.1094-.91908-.4547-1.20444-.3236-.26742-.8191-.33263-1.257-.16731-.2476.0935-.5253-.02226-.6332-.26402-.4368-.97885-1.4663-1.42913-2.4363-1.06292-.4122.15561-.6982.39498-.8878.71484-.0684.1155-.1804.19861-.3108.23062-.1304.03202-.2682.01026-.3824-.06039-.9486-.58701-2.16537-.71364-3.2536-.30281-1.08822.41082-1.91774 1.30993-2.24178 2.37743-.039.1285-.12802.2359-.24704.298-.11901.0621-.25802.0738-.38572.0324-.35368-.1148-.72646-.1055-1.13866.0501-.99481.3756-1.49609 1.4253-1.13566 2.3801.09753.2583-.03284.5468-.29118.6443-.43755.1652-.76549.541-.83166.9558-.07056.4424.10941.9191.45469 1.2045.3237.2675.81866.3327 1.25639.1675.25834-.0975.54684.0328.64437.2912.09753.2583-.03284.5468-.29118.6443-.72264.2728-1.60686.1965-2.24664-.3322-.618207-.511-.931478-1.3408-.805153-2.1328.104536-.6554.517223-1.1969 1.048053-1.5271-.28034-1.372.51534-2.7293 1.84478-3.2311.44238-.167.88673-.2275 1.3252-.1723.48999-1.16877 1.46023-2.12218 2.68801-2.58569z"/></g></svg>