<svg fill="none" height="15" viewBox="0 0 15 15" width="15" xmlns="http://www.w3.org/2000/svg"><g clip-rule="evenodd" fill="#2d3436" fill-rule="evenodd"><path d="m4.84796 11.9876c-.4506-.4506-.4506-1.1812 0-1.6318l7.34624-7.3462c.4506-.45061 1.1811-.4506 1.6317 0s.4506 1.18118 0 1.63178l-7.34615 7.34622c-.45061.4506-1.18118.4506-1.63179 0z"/><path d="m6.47524 11.9887c-.45061.4506-1.18118.4506-1.63179 0l-3.67151-3.67151c-.450607-.45061-.450607-1.18118 0-1.63179.4506-.4506 1.18118-.4506 1.63178 0l3.67152 3.6715c.4506.4506.4506 1.1812 0 1.6318z"/></g></svg>