<svg fill="none" height="10" viewBox="0 0 10 10" width="10" xmlns="http://www.w3.org/2000/svg"><path d="m1.74007 4.23059c-.42484.00007-.769293.34453-.769367.76936-.000073.42484.344267.76917.769097.7691l2.49359-.00043-.00043 2.49359c-.00007.42483.34426.76917.7691.7691.42483-.00008.76929-.34453.76936-.76937l.00043-2.49359 2.49168-.00043c.42483-.00008.76929-.34453.76936-.76937.00007-.42483-.34426-.76917-.7691-.7691l-2.49167.00044.00043-2.49168c.00008-.42483-.34426-.769167-.76909-.769094-.42484.000074-.76929.344534-.76937.769364l-.00043 2.49167z" fill="#2d3436"/></svg>