<svg fill="none" height="24" viewBox="0 0 24 24" width="24" xmlns="http://www.w3.org/2000/svg"><path clip-rule="evenodd" d="m12.6291 9.81453c0 1.55437-1.2602 2.81457-2.81457 2.81457-1.55442 0-2.81453-1.2602-2.81453-2.81457 0-1.55442 1.26011-2.81453 2.81453-2.81453 1.55437 0 2.81457 1.26011 2.81457 2.81453zm-.1911 4.03767c-.7547.4913-1.6558.7769-2.62347.7769-2.65899 0-4.81453-2.1556-4.81453-4.81457 0-2.65899 2.15554-4.81453 4.81453-4.81453 2.65897 0 4.81457 2.15554 4.81457 4.81453 0 .96767-.2856 1.86877-.7769 2.62347l4.8542 4.8542c.3905.3905.3905 1.0237 0 1.4142s-1.0237.3905-1.4142 0z" fill="#2d3436" fill-rule="evenodd"/></svg>