<svg fill="none" height="25" viewBox="0 0 25 25" width="25" xmlns="http://www.w3.org/2000/svg"><path clip-rule="evenodd" d="m16.0181 6.48562c.2378-.49845.8347-.70973 1.3332-.4719.3898.186.7603.39641 1.1099.63018.4591.30696.5825.928.2755 1.38712s-.928.58247-1.3871.27551c-.2679-.1791-.5545-.34218-.8596-.48775-.4984-.23783-.7097-.8347-.4719-1.33316zm4.0132 3.05663c.5014-.23157 1.0956-.01283 1.3271.48855.1773.3838.3271.7837.4488 1.1978.1557.5298-.1476 1.0856-.6774 1.2414-.5299.1557-1.0857-.1476-1.2415-.6775-.0947-.3222-.2103-.6302-.3456-.9231-.2315-.5014-.0128-1.09558.4886-1.32715zm1.2021 4.90615c.5477.071.9342.5725.8633 1.1202-.0261.2009-.0571.4031-.0933.6067-.0966.5438-.6158.9063-1.1595.8097-.5438-.0967-.9063-.6158-.8097-1.1596.0308-.1732.0571-.3445.079-.5137.071-.5477.5725-.9342 1.1202-.8633z" fill="#f94409" fill-rule="evenodd"/><g fill="#18303f"><path d="m12.5189 7c-.1769 0-.3508.00388-.5218.01153-.5518.02466-1.019-.40262-1.0437-.95436-.0247-.55173.4026-1.01899.9544-1.04365.2012-.009.405-.01352.6111-.01352s.4098.00452.6111.01352c.5517.02466.979.49192.9543 1.04365-.0246.55174-.4919.97902-1.0436.95436-.1711-.00765-.345-.01153-.5218-.01153z"/><path d="m9.01956 6.48525c.23783.49845.02655 1.09533-.4719 1.33315-.30509.14557-.5917.30865-.85958.48775-.45912.30696-1.08015.18361-1.38711-.27551-.30697-.45912-.18362-1.08015.27551-1.38712.34964-.23376.7201-.44418 1.10993-.63018.49845-.23782 1.09533-.02654 1.33315.47191z"/><path d="m5.00638 9.54188c.50139.23157.72012.82572.48855 1.32712-.13529.293-.25089.6009-.3456.9232-.15574.5298-.71154.8331-1.24141.6774s-.83316-.7115-.67742-1.2414c.12169-.414.27146-.8139.44873-1.1978.23157-.50136.82576-.72009 1.32715-.48852z"/><path d="m3.80427 14.448c.5477-.0709 1.04922.3156 1.12017.8633.02193.1693.04823.3406.07901.5138.09661.5437-.26588 1.0629-.80965 1.1595s-1.0629-.2659-1.15951-.8097c-.03617-.2035-.06726-.4058-.09328-.6067-.07094-.5477.31555-1.0492.86326-1.1202z"/></g><path d="m12.5 21.3696h7.8085c.867 0 1.7023-.3975 2.1365-1.148.9769-1.6887 1.536-3.6494 1.536-5.7406 0-6.34079-5.1402-11.481-11.481-11.481-6.34075 0-11.48096 5.14021-11.48096 11.481 0 2.0912.55913 4.0519 1.53605 5.7406.43416.7505 1.26946 1.148 2.13648 1.148z" stroke="#18303f"/><path clip-rule="evenodd" d="m13.519 15.6787c.5978.3458 1 .9922 1 1.7324 0 1.1046-.8954 2-2 2-1.1045 0-2-.8954-2-2 0-.7402.4022-1.3866 1-1.7324v-4.2676c0-.5523.4478-1 1-1 .5523 0 1 .4477 1 1z" fill="#18303f" fill-rule="evenodd"/></svg>