<svg fill="none" height="60" viewBox="0 0 60 60" width="60" xmlns="http://www.w3.org/2000/svg"><rect fill="#f1f3fa" height="58" rx="19" stroke="#2d3436" stroke-width="2" width="58" x="1" y="1"/><path d="m25.6483 44.1669h-.6759c-.1039 0-.1732.0846-.1732.1693v.6604c0 .4571.3812.8297.8491.8297.4678 0 .8491-.3726.8491-.8297 0-.4572-.3813-.8297-.8491-.8297z" fill="#f94409"/><path d="m25.423 35.7852c-.1386-.1185-.3639-.254-.5199-.3387l-3.1885-1.6763c-.1733-.1016-.3812-.1693-.5718-.2371-.5545-.1523-1.1437-.1523-1.6982 0-.208.0508-.3986.1355-.5719.2371l-3.2058 1.6763c-.156.0847-.3639.2202-.5199.3387-.6758.5588-1.057 1.3715-1.057 2.252v4.8597c0 1.6255 1.3516 2.9294 2.9978 2.9294h5.5972c.4679 0 .8492-.3726.8492-.8297v-.6604c0-.1016-.0867-.1693-.1733-.1693h-6.2731c-.7104 0-1.2996-.5757-1.2996-1.27v-4.8597c0-.4741.2599-.8974.6758-1.1175l3.2925-1.7102c.3466-.1524.7105-.1524 1.057 0l3.2925 1.7102c.4159.2201.6758.6434.6758 1.1175v4.2671c0 .4572.3813.8297.8491.8297.4679 0 .8491-.3725.8491-.8297v-4.2671c.0174-.8805-.3812-1.6932-1.057-2.252z" fill="#f94409"/><path clip-rule="evenodd" d="m43.7499 28.0556h-.8854-1.3544-2.2674-2.5761-2.576-1.1999-1.5366-1.5365c-1.5211-.6343-2.5954-2.1823-2.5954-3.9913 0-2.3738 1.8499-4.2982 4.1319-4.2982l.0396.0002c.9721-2.0035 2.9683-3.3774 5.2729-3.3774 2.9659 0 5.4209 2.2754 5.8397 5.2396.1177-.0134.2372-.0203.3582-.0203 1.793 0 3.2466 1.512 3.2466 3.3772 0 1.3623-.7754 2.5362-1.8922 3.0702z" fill="#d9eef9" fill-rule="evenodd"/><path clip-rule="evenodd" d="m41.7534 26.3889h-1.3543-2.2675-2.5761-2.576-3.917-.356c-1.5211-.6343-2.5954-2.1823-2.5954-3.9912 0-2.3739 1.8499-4.2983 4.1319-4.2983l.0397.0002c.972-2.0034 2.9682-3.3774 5.2728-3.3774 2.9659 0 5.4209 2.2754 5.8397 5.2396.1177-.0134.2372-.0203.3582-.0203 1.7931 0 3.2466 1.512 3.2466 3.3772 0 1.3623-.7754 2.5362-1.8922 3.0702z" fill="#f0faff" fill-rule="evenodd"/><g fill="#2d3436"><path d="m41.9685 19.4846c-.5818-3.1059-3.4321-5.3108-6.6064-5.3108-2.2587 0-4.4807 1.3333-5.6404 3.285-1.1444.0876-2.2921.5119-3.122 1.3248-1.1356.9233-1.5932 2.1005-1.5932 3.4391 0 2.4988 1.866 4.551 4.3646 4.7781.0224.002.0449.0031.0674.0031h6.67c.4111 0 .7444-.3333.7444-.7445 0-.4111-.3333-.7444-.7444-.7444h-6.6346c-1.7141-.1717-2.9785-1.5728-2.9785-3.2923 0-.9556.3027-1.6913 1.0661-2.302.0215-.0172.042-.0355.0614-.0549.5977-.5977 1.5436-.9353 2.5492-.9353.2819 0 .5397-.1593.6658-.4115.8401-1.6803 2.703-2.8563 4.5242-2.8563 2.7205 0 5.0505 2.0379 5.2159 4.6842.0134.2145.1189.4127.2892.5437.1704.131.3891.182.5998.1399.7703-.1541 1.5123.0026 2.0985.4422.5429.4072.8555 1.1239.8555 1.9034 0 .3413-.0044.576-.0849.8286-.0763.2394-.2406.5472-.6496.9433-.1436.139-.4666.2642-1.0041.3248-.4232.0478-.858.0453-1.2524.0431-.0813-.0005-.161-.0009-.2384-.0009h-.539c-.4112 0-.7445.3333-.7445.7444 0 .4112.3333.7445.7445.7445h.539c.0623 0 .131.0004.2049.0009.3924.0026.9327.0062 1.4529-.0525.5911-.0666 1.3514-.2298 1.8729-.7348.552-.5346.8683-1.0462 1.0323-1.5606.1556-.488.1555-.9306.1553-1.255v-.0258c0-1.1428-.4563-2.3484-1.4511-3.0945-.7335-.5501-1.6028-.8115-2.4903-.797z"/><path d="m38.3996 28.6643c-.1912-.0005-.3825.0721-.5284.218l-2.7141 2.7141c-.2907.2908-.2907.7621 0 1.0528.2907.2908.7621.2908 1.0528 0l1.4472-1.4471v5.1858c0 2.2254-1.6829 3.9083-3.9084 3.9083h-3.8546c-.4111 0-.7444.3333-.7444.7445 0 .4111.3333.7444.7444.7444h3.8546c3.0478 0 5.3973-2.3495 5.3973-5.3972v-5.1781l1.4394 1.4394c.2907.2908.762.2908 1.0528 0 .2907-.2907.2907-.762 0-1.0528l-2.6669-2.6669c-.1366-.1622-.3412-.2652-.5698-.2652z"/><path d="m38.4007 27.057c.4111 0 .7444-.3333.7444-.7445 0-.4111-.3333-.7444-.7444-.7444-.4112 0-.7445.3333-.7445.7444 0 .4112.3333.7445.7445.7445z"/></g></svg>