<svg fill="none" height="60" viewBox="0 0 60 60" width="60" xmlns="http://www.w3.org/2000/svg"><rect fill="#f1f3fa" height="58" rx="19" stroke="#2d3436" stroke-width="2" width="58" x="1" y="1"/><path d="m33.8844 26.2547c-.5112-.4183-1.1154-.7437-1.7196-1.0225-.7436-.2789-1.5337-.4183-2.3238-.4183-3.811 0-6.7854 3.2998-6.7854 7.4826v2.6956l-.0464 2.5561h.0464 2.4632.976l.6972 8.9698h4.0433-.0465 1.4408l.6971-8.9698h.9759 2.4633.0465l-.0465-2.5561v-2.6956c0-4.1828-2.9744-7.4826-6.7854-7.4826-.8366 0-1.6267.1394-2.3238.4183-.6042.2324-1.2084.6042-1.7197 1.0225" fill="#d9eef9"/><path d="m34.3492 26.6729c-.093 0-.1859 0-.2324 0s-.0465 0-.0929 0c-.2324 0-.4649 0-.6508.0465-.0929 0-.1394 0-.1858.0464-.1395 0-.2788.0465-.4183.093-.0929 0-.1859.0465-.2323.0465-.1395.0465-.2324.0464-.3719.0929-.0929.0465-.1859.0465-.2789.093-.0464 0-.0929.0465-.1394.0465-.093.0464-.1394.0464-.1859.0929s-.1394.0465-.1858.093c-.1859.0929-.3254.1859-.5113.2788-.0465.0465-.093.0465-.1395.093-.1394.0929-.2324.1394-.3718.2323-.0465.0465-.1394.093-.1858.1395-.0465.0465-.093.0464-.1395.0929-1.6731 1.3478-2.742 3.5322-2.742 6.0418v2.6956l-.0465 2.5562h.0465 2.4632.9759l.5577 7.1108h1.3943l.6971-8.9698h.9761 2.4632.0464l-.0464-2.5562v-2.7421c-.1859-2.2308-1.069-4.2292-2.4632-5.6235z" fill="#f0faff"/><path d="m29.841 22.7225c2.6027 0 4.7405-2.2308 4.7405-4.8335 0-2.6026-2.1843-4.8334-4.7405-4.8334-2.6026 0-4.7404 2.2308-4.7404 4.8334 0 2.6027 2.1378 4.8335 4.7404 4.8335z" fill="#2d3436"/><path d="m29.841 22.7225c2.6181 0 4.7405-2.164 4.7405-4.8335 0-2.6694-2.1224-4.8334-4.7405-4.8334s-4.7404 2.164-4.7404 4.8334c0 2.6695 2.1223 4.8335 4.7404 4.8335z" fill="#d9eef9"/><path d="m29.2368 19.748c0 1.1154.3718 2.1379 1.0225 2.9745 2.3702-.2324 4.2757-2.3238 4.2757-4.8335 0-1.1154-.3718-2.1379-1.0224-2.9744-2.3238.2788-4.2758 2.3702-4.2758 4.8334z" fill="#d9eef9"/><path clip-rule="evenodd" d="m24.2672 17.889c0-3.0417 2.4902-5.6668 5.5738-5.6668 3.032 0 5.5739 2.6197 5.5739 5.6668 0 3.0418-2.4902 5.6668-5.5739 5.6668-3.0836 0-5.5738-2.625-5.5738-5.6668zm1.6667 0c0 2.1635 1.7856 4.0002 3.9071 4.0002 2.0804 0 3.9072-1.842 3.9072-4.0002 0-2.1581-1.8268-4.0001-3.9072-4.0001-2.0803 0-3.9071 1.842-3.9071 4.0001zm3.8839 6.0916c-.0078 0-.0155 0-.0233 0-.8875 0-1.7769.1565-2.6164.4713-.0191.0072-.038.0151-.0566.0236-.6296.2907-1.3071.6507-1.898 1.1342-.0566.0462-.1055.0984-.1465.1548-1.7619 1.5279-2.8548 3.8946-2.8548 6.532v2.6956c0 .4602.3731.8333.8334.8333.4602 0 .8333-.3731.8333-.8333v-2.6956c0-3.7936 2.6649-6.6358 5.9289-6.6492 3.264.0134 5.9289 2.8556 5.9289 6.6492v2.6956c0 .4602.3731.8333.8333.8333s.8333-.3731.8333-.8333v-2.6956c0-2.6374-1.0929-5.0041-2.8547-6.532-.0411-.0564-.09-.1086-.1465-.1548-.591-.4835-1.2684-.8435-1.8981-1.1342-.0185-.0085-.0374-.0164-.0566-.0236-.8394-.3148-1.7288-.4713-2.6164-.4713-.0077 0-.0155 0-.0232 0zm-5.2253 13.5676c0-.4602.3731-.8333.8334-.8333h.9759c.4352 0 .7971.3349.8308.7687l.6374 8.2011h3.8956l.6374-8.2011c.0337-.4338.3956-.7687.8308-.7687h.9759c.4602 0 .8333.3731.8333.8333 0 .4603-.3731.8333-.8333.8333h-.2048l-.6374 8.2011c-.0337.4339-.3957.7687-.8309.7687h-5.4377c-.4352 0-.7971-.3348-.8308-.7687l-.6374-8.2011h-.2048c-.4603 0-.8334-.373-.8334-.8333z" fill="#2d3436" fill-rule="evenodd"/></svg>