<svg fill="none" height="60" viewBox="0 0 60 60" width="60" xmlns="http://www.w3.org/2000/svg"><rect fill="#f1f3fa" height="58" rx="19" stroke="#2d3436" stroke-width="2" width="58" x="1" y="1"/><path d="m38.1245 36.7663c4.6432-4.6431 10.9308-12.1714 3.1439-19.9583-7.7869-7.78694-15.3151-1.4993-19.9583 3.1439z" fill="#f16b9b"/><path clip-rule="evenodd" d="m42.7897 18.5539c-6.9223-4.5662-13.4203.9308-17.5907 5.1013l13.0181 13.018c4.2836-4.2992 9.8665-11.0171 4.5726-18.1193z" fill="#dd5989" fill-rule="evenodd"/><path d="m26.2225 35.316c3.9994 3.6261 7.8523 5.5 11.9021 1.4503l-16.8145-16.8144c-4.0497 4.0497-2.1757 7.9026 1.4503 11.902l-8.1877 7.1589c-.9683.8467-1.018 2.3357-.1085 3.2452l1.3542 1.3542c.9095.9095 2.3985.8598 3.2452-.1085z" fill="#f5e8c6"/><g clip-rule="evenodd" fill-rule="evenodd"><path d="m28.9662 37.4911c-.9092-.5981-1.822-1.3399-2.7426-2.1745l-7.1589 8.1877c-.5134.5871-1.2628.8365-1.976.7392-.7557-.9162-.6597-2.2866.2538-3.0854l8.1877-7.159c-3.5311-3.8946-5.4007-7.6503-1.7565-11.5841l14.3519 14.3519c-3.0459 3.0459-5.9805 2.7408-8.9499.8595-.0611-.0546-.1222-.1097-.1834-.1652z" fill="#eadcb9"/><g fill="#2d3436"><path d="m22.4924 19.9556 15.6283 15.6284c2.1575-2.2159 4.4306-4.921 5.4488-7.8884.5489-1.5995.7254-3.2553.3338-4.9493-.3916-1.6944-1.3664-3.4914-3.2241-5.3491s-3.6547-2.8325-5.3491-3.2241c-1.694-.3916-3.3498-.2151-4.9493.3338-2.9674 1.0182-5.6725 3.2913-7.8884 5.4487zm14.4304 16.7874-15.5895-15.5894c-1.3775 1.6246-1.6703 3.1308-1.3611 4.5961.3672 1.7402 1.6103 3.5643 3.4055 5.5445.1502.1656.2276.3847.2146.6079-.0129.2233-.115.432-.2834.5791l-8.1877 7.1589v.0001c-.6053.5293-.6364 1.46-.0678 2.0286l1.3542 1.3542c.5686.5686 1.4993.5375 2.0286-.0678l7.1589-8.1877c.1472-.1684.3559-.2705.5792-.2834.2232-.013.4423.0643.6079.2145 1.9802 1.7953 3.8043 3.0384 5.5445 3.4056 1.4653.3092 2.9715.0164 4.5961-1.3612zm-1.2173-24.1938c2.0523.4744 4.1164 1.6337 6.1522 3.6695 2.0357 2.0358 3.1951 4.0999 3.6695 6.1522.4744 2.0527.2489 4.0293-.3812 5.8656-1.247 3.634-4.1075 6.7944-6.4322 9.1191-2.1885 2.1884-4.4402 2.8627-6.7312 2.3794-1.9689-.4155-3.8605-1.6675-5.6845-3.2395l-6.6072 7.5567v.0001c-1.1642 1.3313-3.2114 1.3996-4.4618.1492l-1.3542-1.3542c-1.2504-1.2504-1.1821-3.2977.1492-4.4618h.0001l7.5567-6.6072c-1.572-1.824-2.824-3.7156-3.2395-5.6845-.4834-2.291.191-4.5428 2.3794-6.7312 2.3247-2.3247 5.4851-5.1853 9.1191-6.4322 1.8363-.6301 3.8129-.8556 5.8656-.3812z"/><path d="m43.0189 42.1524c-.766 0-1.387.621-1.387 1.387 0 .7661.621 1.3871 1.387 1.3871s1.387-.621 1.387-1.3871c0-.766-.621-1.387-1.387-1.387zm-3.0537 1.387c0-1.6865 1.3672-3.0537 3.0537-3.0537s3.0537 1.3672 3.0537 3.0537-1.3672 3.0537-3.0537 3.0537-3.0537-1.3672-3.0537-3.0537z"/></g></g></svg>