<svg fill="none" height="60" viewBox="0 0 60 60" width="60" xmlns="http://www.w3.org/2000/svg"><rect fill="#f1f3fa" height="58" rx="19" stroke="#2d3436" stroke-width="2" width="58" x="1" y="1"/><ellipse fill="#d9eef9" rx="17" ry="17" transform="matrix(-1 0 0 1 30 30)"/><path d="m17 33.4333c0-9.0758 7.3574-16.4333 16.4333-16.4333 2.4565 0 4.7871.539 6.88 1.5052l4.2367 5.2615 1.45 5.3166-.4833 5.3167-.9667 2.9-2.4167 3.3833-4.8333 3.8667-6.2833 1.45-4.35-.4833-3.8667-1.45-4.0379-3.2221c-1.1271-2.2268-1.7621-4.7449-1.7621-7.4113z" fill="#f0faff"/><g stroke-width="2"><circle cx="30" cy="30" r="16" stroke="#2d3436"/><path d="m29.1054 34.517c-1.233.2315-2.1659 1.3139-2.1659 2.6141.205 2.2179 2.5085 3.9663 5.3198 3.9663 2.8114 0 5.1148-1.7484 5.3199-3.9663 0-1.3002-.933-2.3826-2.166-2.6141-.3205-.0602-.6446.0339-.9329.1865l-1.2854.6803c-.5853.3098-1.2859.3098-1.8712 0l-1.2854-.6803c-.2882-.1526-.6123-.2467-.9329-.1865z" fill="#d9eef9" stroke="#d9eef9"/><path d="m27.1054 32.517c-1.233.2315-2.1659 1.3139-2.1659 2.6141.205 2.2179 2.5085 3.9663 5.3198 3.9663 2.8114 0 5.1148-1.7484 5.3199-3.9663 0-1.3002-.933-2.3826-2.166-2.6141-.3205-.0602-.6446.0339-.9329.1865l-1.2854.6803c-.5853.3098-1.2859.3098-1.8712 0l-1.2854-.6803c-.2882-.1526-.6123-.2467-.9329-.1865z" fill="#f1f3fa" stroke="#2d3436"/></g></svg>