<svg fill="none" height="60" viewBox="0 0 60 60" width="60" xmlns="http://www.w3.org/2000/svg"><rect fill="#f1f3fa" height="58" rx="19" stroke="#2d3436" stroke-width="2" width="58" x="1" y="1"/><path clip-rule="evenodd" d="m24.0381 19.4117h14.9285c3.0048 0 5.4372 2.4325 5.4372 5.4372v14.6423c0 3.0048-2.4324 5.4372-5.4372 5.4372h-14.9285c-3.0047 0-5.4372-2.4324-5.4372-5.4372v-14.6423c0-3.0047 2.4325-5.4372 5.4372-5.4372z" fill="#f0faff" fill-rule="evenodd"/><path clip-rule="evenodd" d="m22.3211 19.4117h9.9682c2.0509 0 3.7202 1.6694 3.7202 3.7202v10.3498c0 2.0509-1.6693 3.7202-3.7202 3.7202h-9.9682c-2.0508 0-3.7202-1.6693-3.7202-3.7202v-10.3498c0-2.0508 1.6694-3.7202 3.7202-3.7202z" fill="#d9eef9" fill-rule="evenodd"/><path d="m31.6693 39.2528c3.7141 0 6.725-3.0749 6.725-6.8681 0-3.7931-3.0109-6.868-6.725-6.868s-6.725 3.0749-6.725 6.868c0 3.7932 3.0109 6.8681 6.725 6.8681z" fill="#fff"/><path d="m21.1288 10.8744-.6678 1.717-.5246 1.8601c-.477 1.7647-.3339 3.6248.62 5.2941.7154-.5246 1.3832-1.2401 1.717-2.2893 0-.1908.1908-.1908.1908-.3339h.3339c2.4324 1.2401 3.8156 3.6725 3.6725 6.2957 0 1.9078-.7154 3.6725-1.9078 5.1033-1.3832 1.3832-3.1479 2.0986-5.0557 1.9078-1.9077 0-3.6725-.7154-5.0556-2.0985-1.3832-1.2401-2.0986-2.9571-2.0986-4.9126 0-4.5787 2.4802-8.7758 6.3434-11.1606z" fill="#ff9248"/><path d="m26.5183 23.4181c.0954-1.3354-.2385-2.6709-.9062-3.7679-.3816.8108-.9539 1.3832-1.5263 1.8124-.7154-1.2877-1.0016-2.7186-.8108-4.1494-.1431-.0954-.2384-.1431-.3815-.1908-.1908 0-.1908 0-.3339 0 0 .1908-.1908.1908-.1908.3339-.3338 1.0492-1.0493 1.7647-1.717 2.2893-.6677-1.1924-.9062-2.4801-.8585-3.7202-2.3847 2.4325-3.8633 5.6757-3.8633 9.1574 0 1.9078.7155 3.6725 2.0986 4.9126.0954.0954.1908.1908.2862.2384.4292.0954.8585.0954 1.2877.0954 1.9078.1908 3.6725-.5246 5.0557-1.9078 1.1446-1.4308 1.8601-3.1955 1.8601-5.1033z" fill="#fec067"/><g fill="#2d3436"><path clip-rule="evenodd" d="m30.7565 18.483c3.0483-.048 6.0406.146 9.4945.5298l.0113.0013c2.2861.2858 4.1103 2.1099 4.3961 4.396.8197 6.5583.7712 11.2534.0003 17.5653l-.0003.0023c-.284 2.2717-2.0472 4.1064-4.344 4.3955-6.4196.8685-11.1183.8192-17.572.0006m8.0141-26.8908h-1.8058c-.4602 0-.8333.3731-.8333.8333 0 .4603.3731.8334.8333.8334h1.8124l.0132-.0001c2.9572-.047 5.8756.1403 9.2847.519 1.527.1933 2.7526 1.4205 2.9436 2.9482.8018 6.4143.755 10.9718-.0002 17.1554-.1932 1.5419-1.3848 2.7582-2.9011 2.9478l-.0084.0011c-6.2647.8478-10.8179.8017-17.1442-.0009l-.0016-.0002c-1.5295-.1912-2.71-1.3718-2.9012-2.9013l-.0017-.0125c-.3771-2.6873-.5651-5.0866-.6121-7.4366-.0092-.4601-.3897-.8257-.8498-.8165-.4602.0092-.8257.3897-.8165.8499.0483 2.4177.2417 4.8815.6271 7.6289.2882 2.2825 2.0628 4.0556 4.346 4.3417" fill-rule="evenodd"/><path d="m34.5787 43.6884c.3951 0 .7154-.3203.7154-.7154s-.3203-.7154-.7154-.7154-.7154.3203-.7154.7154.3203.7154.7154.7154z"/><path d="m31.5262 43.6884c.3951 0 .7154-.3203.7154-.7154s-.3203-.7154-.7154-.7154-.7154.3203-.7154.7154.3203.7154.7154.7154z"/><path d="m33.0524 42.1621c.3952 0 .7155-.3203.7155-.7154s-.3203-.7154-.7155-.7154c-.3951 0-.7154.3203-.7154.7154s.3203.7154.7154.7154z"/><path d="m30 42.1621c.3951 0 .7154-.3203.7154-.7154s-.3203-.7154-.7154-.7154-.7154.3203-.7154.7154.3203.7154.7154.7154z"/><path d="m20.8903 37.6311c.3951 0 .7154-.3203.7154-.7154s-.3203-.7154-.7154-.7154-.7154.3203-.7154.7154.3203.7154.7154.7154z"/><path d="m22.4165 36.1049c.3951 0 .7154-.3203.7154-.7154s-.3203-.7154-.7154-.7154-.7154.3203-.7154.7154.3203.7154.7154.7154z"/><path d="m20.8903 34.5787c.3951 0 .7154-.3203.7154-.7154 0-.3952-.3203-.7155-.7154-.7155s-.7154.3203-.7154.7155c0 .3951.3203.7154.7154.7154z"/><path clip-rule="evenodd" d="m28.9256 25.06c.7902-.2634 1.6423-.4243 2.5529-.4243 4.2281 0 7.6537 3.4255 7.6537 7.6536 0 4.2282-3.4256 7.6537-7.6537 7.6537s-7.6537-3.4255-7.6537-7.6537c0-.4602.3731-.8333.8334-.8333.4602 0 .8333.3731.8333.8333 0 3.3077 2.6794 5.987 5.987 5.987 3.3077 0 5.987-2.6793 5.987-5.987 0-3.3076-2.6793-5.987-5.987-5.987-.711 0-1.3851.1252-2.0258.3388-.4366.1456-.9086-.0904-1.0541-.527-.1455-.4367.0904-.9086.527-1.0541z" fill-rule="evenodd"/><path d="m37.5834 26.9952c.3952 0 .7155-.3203.7155-.7154s-.3203-.7154-.7155-.7154c-.3951 0-.7154.3203-.7154.7154s.3203.7154.7154.7154z"/><path d="m39.1097 25.469c.3951 0 .7154-.3203.7154-.7154s-.3203-.7155-.7154-.7155-.7154.3204-.7154.7155.3203.7154.7154.7154z"/><path d="m36.0572 25.469c.3951 0 .7154-.3203.7154-.7154s-.3203-.7155-.7154-.7155-.7154.3204-.7154.7155.3203.7154.7154.7154z"/><path d="m40.6359 23.9428c.3951 0 .7154-.3203.7154-.7154 0-.3952-.3203-.7155-.7154-.7155s-.7154.3203-.7154.7155c0 .3951.3203.7154.7154.7154z"/><path d="m37.5834 23.9428c.3952 0 .7155-.3203.7155-.7154 0-.3952-.3203-.7155-.7155-.7155-.3951 0-.7154.3203-.7154.7155 0 .3951.3203.7154.7154.7154z"/><path d="m39.1097 22.4165c.3951 0 .7154-.3203.7154-.7154s-.3203-.7154-.7154-.7154-.7154.3203-.7154.7154.3203.7154.7154.7154z"/><path d="m36.0572 22.4165c.3951 0 .7154-.3203.7154-.7154s-.3203-.7154-.7154-.7154-.7154.3203-.7154.7154.3203.7154.7154.7154z"/><path clip-rule="evenodd" d="m19.1568 12.233c.2506.386.1409.9021-.2451 1.1527-3.4536 2.2426-5.63 5.9949-5.63 10.0801 0 1.6205.9061 3.1958 1.8446 4.2684.3938.4501 1.0501.8985 1.8531 1.2349.797.3338 1.6773.5314 2.4801.5314.0207 0 .0415.0008.0623.0024 1.64.123 3.0707-.436 4.292-1.6495 1.082-1.2189 1.8234-2.7867 1.8234-4.4353 0-.0154.0005-.0308.0013-.0462.1037-1.8655-1.0354-3.7395-2.7556-4.9152-.4741.9653-1.2446 1.5626-1.7368 1.9442-.0431.0334-.0841.0652-.1225.0954-.1876.1474-.4293.2073-.664.1646s-.4399-.184-.5635-.388c-1.0903-1.799-1.2392-3.9019-.7103-5.806.1232-.4434.5825-.703 1.0259-.5799.4435.1232.7031.5826.5799 1.026-.3348 1.2053-.3206 2.4648.1001 3.6045.3868-.3763.696-.8173.8036-1.4413.0448-.2598.2099-.4831.4452-.6021.2352-.1189.5129-.1196.7487-.0017 2.5863 1.2932 4.6691 3.9815 4.5147 6.9687-.0069 2.1499-.9729 4.0956-2.2626 5.54-.0104.0117-.0212.0231-.0323.0342-1.5341 1.534-3.4256 2.3048-5.5809 2.1518-1.0477-.005-2.1346-.2594-3.0927-.6608-.9617-.4029-1.8556-.98-2.4634-1.6746-1.0646-1.2167-2.257-3.1708-2.257-5.3659 0-4.6906 2.4976-8.951 6.389-11.4779.386-.2507.9021-.1409 1.1528.2451z" fill-rule="evenodd"/><path d="m20.8903 12.3529c.3951 0 .7154-.3203.7154-.7154s-.3203-.7154-.7154-.7154-.7154.3203-.7154.7154.3203.7154.7154.7154z"/></g></svg>