<svg fill="none" height="60" viewBox="0 0 60 60" width="60" xmlns="http://www.w3.org/2000/svg"><rect fill="#f1f3fa" height="58" rx="19" stroke="#2d3436" stroke-width="2" width="58" x="1" y="1"/><path d="m13.6657 20.0036c.3718-3.2997 2.9744-5.9488 6.2742-6.3206 7.0643-.8366 12.5483-.8366 19.659 0 3.2998.3718 5.9024 3.0209 6.2742 6.3206.8366 7.1108.8831 12.595.0466 19.6593-.3718 3.3462-3.0674 5.9488-6.4137 6.2742-6.9248.6971-12.5019.7436-19.4732 0-3.3462-.3254-5.9953-2.9745-6.3671-6.3207-.8366-7.1573-.7901-12.6414 0-19.6128z" fill="#d9eef9"/><path d="m45.0367 17.401c-7.0643-.8365-12.5485-.8365-19.5663 0-3.2997.4183-5.9024 3.0209-6.2742 6.3207-.7901 6.9714-.8365 12.4555 0 19.6592.093.9295.4183 1.8126.8366 2.6026 6.9713.7436 12.5484.6972 19.4732 0 3.3463-.3253 5.9954-2.9279 6.4137-6.2742.8365-7.1107.79-12.5949-.0465-19.6591-.1395-.976-.4182-1.8591-.8365-2.6492z" fill="#f0faff"/><path d="m26.4929 40.2205h-.4648c-.0465 0-.0929.0465-.0929.0929v.4183c0 .2789.2323.5577.5577.5577.3253 0 .5576-.2323.5576-.5577 0-.2788-.2323-.5112-.5576-.5112z" fill="#f94409"/><path d="m26.3534 34.6899c-.0929-.0929-.2323-.1859-.3253-.2323l-2.0914-1.1155c-.093-.0464-.2324-.0929-.3718-.1394-.3718-.0929-.7436-.0929-1.1154 0-.1394.0465-.2789.093-.3718.1394l-2.0914 1.1155c-.093.0464-.2324.1394-.3253.2323-.4648.3719-.6972.8831-.6972 1.4873v3.2068c0 1.0689.8831 1.952 1.9985 1.952h3.6715c.3254 0 .5577-.2324.5577-.5578v-.4182c0-.0465-.0464-.093-.0929-.093h-4.1363c-.4647 0-.8366-.3718-.8366-.8365v-3.2069c0-.3253.1859-.6041.4648-.7436l2.1843-1.1154c.2324-.0929.4648-.0929.6971 0l2.1844 1.1154c.2788.1395.4647.4183.4647.7436v2.835c0 .2789.2325.5578.5578.5578.3254 0 .5577-.2324.5577-.5578v-2.835c-.1859-.6506-.4648-1.1618-.8831-1.5337z" fill="#f94409"/><path clip-rule="evenodd" d="m39.5016 14.5106c-7.0463-.829-12.4648-.8289-19.4637-.0001l-.0047.0006c-2.9061.3274-5.2103 2.6651-5.5394 5.5859l-.0001.0005c-.7834 6.9121-.829 12.3321-.0003 19.4221l.0005.0047c.329 2.9608 2.6716 5.2967 5.6195 5.5833l.0078.0008c6.909.737 12.4282.6915 19.3013-.0005l.0029-.0003c2.9627-.288 5.3387-2.5907 5.666-5.5368l.0007-.0059c.8284-6.995.7829-12.4134-.0466-19.4639l-.0004-.004c-.3291-2.9208-2.6334-5.2585-5.5395-5.5859zm.1927-1.6555c-7.1735-.8438-12.7223-.8439-19.8501.0001-3.6922.4171-6.5919 3.3769-7.0066 7.0546-.7967 7.0299-.844 12.5776.0001 19.801.4155 3.7293 3.3687 6.6897 7.1105 7.0553 7.0315.7498 12.6654.7023 19.6401.0002 3.728-.3632 6.7417-3.2638 7.1592-7.0082.8444-7.1318.7968-12.6808-.0465-19.8502-.4155-3.6769-3.315-6.6358-7.0067-7.0528z" fill="#2d3436" fill-rule="evenodd"/></svg>