<svg fill="none" height="60" viewBox="0 0 60 60" width="60" xmlns="http://www.w3.org/2000/svg"><rect fill="#f1f3fa" height="58" rx="19" stroke="#2d3436" stroke-width="2" width="58" x="1" y="1"/><rect fill="#f0faff" height="27.6323" rx="5" width="25.7265" x="17.2435" y="15.5556"/><circle cx="23.4029" cy="23.3982" fill="#d9eef9" r="1.38889"/><ellipse cx="23.4029" cy="28.7237" fill="#d9eef9" rx="1.38889" ry="1.38889"/><ellipse cx="23.4029" cy="34.0492" fill="#d9eef9" rx="1.38889" ry="1.38889"/><circle cx="23.4029" cy="39.3747" fill="#d9eef9" r="1.38889"/><rect fill="#d9eef9" height="1.96044" rx=".98022" width="12.7536" x="27.3563" y="22.8269"/><rect fill="#d9eef9" height="1.96044" rx=".98022" width="9.08469" x="27.3563" y="28.1524"/><rect fill="#d9eef9" height="1.96043" rx=".980217" width="12.4915" x="27.3563" y="34.0492"/><rect fill="#d9eef9" height="1.96043" rx=".980217" width="9.45905" x="27.3563" y="39.1035"/><g fill="#2d3436"><path d="m19.5555 17.2346c-1.1414 0-2.0666.9104-2.0666 2.0334v21.6889c0 1.1229.9252 2.0333 2.0666 2.0333h20.6667c1.1414 0 2.0667-.9104 2.0667-2.0333v-21.6889c0-1.123-.9253-2.0334-2.0667-2.0334h-1.9982c-.3804 0-.6888-.3034-.6888-.6777 0-.3744.3084-.6778.6888-.6778h1.9982c1.9023 0 3.4444 1.5172 3.4444 3.3889v21.6889c0 1.8716-1.5421 3.3888-3.4444 3.3888h-20.6667c-1.9023 0-3.4444-1.5172-3.4444-3.3888v-21.6889c0-1.8717 1.5421-3.3889 3.4444-3.3889h2.2836c.3805 0 .6889.3034.6889.6778 0 .3743-.3084.6777-.6889.6777z"/><path d="m24.3778 16.5569c0-.3744.3084-.6778.6888-.6778h1.3778c.3805 0 .6889.3034.6889.6778 0 .3743-.3084.6777-.6889.6777h-1.3778c-.3804 0-.6888-.3034-.6888-.6777z"/><path d="m28.5111 16.5569c0-.3744.3084-.6778.6889-.6778h1.3778c.3804 0 .6888.3034.6888.6778 0 .3743-.3084.6777-.6888.6777h-1.3778c-.3805 0-.6889-.3034-.6889-.6777z"/><path d="m32.6444 16.5569c0-.3744.3084-.6778.6889-.6778h1.3778c.3804 0 .6889.3034.6889.6778 0 .3743-.3085.6777-.6889.6777h-1.3778c-.3805 0-.6889-.3034-.6889-.6777z"/><path d="m26.4444 22.6569c0-.3744.3084-.6778.6889-.6778h11.0222c.3805 0 .6889.3034.6889.6778 0 .3743-.3084.6777-.6889.6777h-11.0222c-.3805 0-.6889-.3034-.6889-.6777z"/><path d="m27.1333 32.8235c-.3805 0-.6889.3035-.6889.6778s.3084.6778.6889.6778h11.0222c.3805 0 .6889-.3035.6889-.6778s-.3084-.6778-.6889-.6778z"/><path d="m26.4444 28.0791c0-.3744.3084-.6778.6889-.6778h6.8889c.3805 0 .6889.3034.6889.6778 0 .3743-.3084.6778-.6889.6778h-6.8889c-.3805 0-.6889-.3035-.6889-.6778z"/><path d="m27.1333 38.2457c-.3805 0-.6889.3035-.6889.6778s.3084.6778.6889.6778h6.8889c.3805 0 .6889-.3035.6889-.6778s-.3084-.6778-.6889-.6778z"/><path d="m22.3111 20.6235c-.7609 0-1.3778.6069-1.3778 1.3556 0 .7486.6169 1.3555 1.3778 1.3555s1.3778-.6069 1.3778-1.3555c0-.7487-.6169-1.3556-1.3778-1.3556z"/><path d="m20.9333 27.4013c0-.7487.6169-1.3556 1.3778-1.3556s1.3778.6069 1.3778 1.3556c0 .7486-.6169 1.3556-1.3778 1.3556s-1.3778-.607-1.3778-1.3556z"/><path d="m22.3111 31.468c-.7609 0-1.3778.6069-1.3778 1.3555 0 .7487.6169 1.3556 1.3778 1.3556s1.3778-.6069 1.3778-1.3556c0-.7486-.6169-1.3555-1.3778-1.3555z"/><path d="m20.9333 38.2457c0-.7486.6169-1.3555 1.3778-1.3555s1.3778.6069 1.3778 1.3555c0 .7487-.6169 1.3556-1.3778 1.3556s-1.3778-.6069-1.3778-1.3556z"/></g><g stroke="#2d3436" stroke-linecap="round" stroke-linejoin="round"><path d="m19.5555 17.2346c-1.1414 0-2.0666.9104-2.0666 2.0334v21.6889c0 1.1229.9252 2.0333 2.0666 2.0333h20.6667c1.1414 0 2.0667-.9104 2.0667-2.0333v-21.6889c0-1.123-.9253-2.0334-2.0667-2.0334h-1.9982c-.3804 0-.6888-.3034-.6888-.6777 0-.3744.3084-.6778.6888-.6778h1.9982c1.9023 0 3.4444 1.5172 3.4444 3.3889v21.6889c0 1.8716-1.5421 3.3888-3.4444 3.3888h-20.6667c-1.9023 0-3.4444-1.5172-3.4444-3.3888v-21.6889c0-1.8717 1.5421-3.3889 3.4444-3.3889h2.2836c.3805 0 .6889.3034.6889.6778 0 .3743-.3084.6777-.6889.6777z"/><path d="m24.3778 16.5569c0-.3744.3084-.6778.6888-.6778h1.3778c.3805 0 .6889.3034.6889.6778 0 .3743-.3084.6777-.6889.6777h-1.3778c-.3804 0-.6888-.3034-.6888-.6777z"/><path d="m28.5111 16.5569c0-.3744.3084-.6778.6889-.6778h1.3778c.3804 0 .6888.3034.6888.6778 0 .3743-.3084.6777-.6888.6777h-1.3778c-.3805 0-.6889-.3034-.6889-.6777z"/><path d="m32.6444 16.5569c0-.3744.3084-.6778.6889-.6778h1.3778c.3804 0 .6889.3034.6889.6778 0 .3743-.3085.6777-.6889.6777h-1.3778c-.3805 0-.6889-.3034-.6889-.6777z"/><path d="m26.4444 22.6569c0-.3744.3084-.6778.6889-.6778h11.0222c.3805 0 .6889.3034.6889.6778 0 .3743-.3084.6777-.6889.6777h-11.0222c-.3805 0-.6889-.3034-.6889-.6777z"/><path d="m27.1333 32.8235c-.3805 0-.6889.3035-.6889.6778s.3084.6778.6889.6778h11.0222c.3805 0 .6889-.3035.6889-.6778s-.3084-.6778-.6889-.6778z"/><path d="m26.4444 28.0791c0-.3744.3084-.6778.6889-.6778h6.8889c.3805 0 .6889.3034.6889.6778 0 .3743-.3084.6778-.6889.6778h-6.8889c-.3805 0-.6889-.3035-.6889-.6778z"/><path d="m27.1333 38.2457c-.3805 0-.6889.3035-.6889.6778s.3084.6778.6889.6778h6.8889c.3805 0 .6889-.3035.6889-.6778s-.3084-.6778-.6889-.6778z"/><path d="m22.3111 20.6235c-.7609 0-1.3778.6069-1.3778 1.3556 0 .7486.6169 1.3555 1.3778 1.3555s1.3778-.6069 1.3778-1.3555c0-.7487-.6169-1.3556-1.3778-1.3556z"/><path d="m20.9333 27.4013c0-.7487.6169-1.3556 1.3778-1.3556s1.3778.6069 1.3778 1.3556c0 .7486-.6169 1.3556-1.3778 1.3556s-1.3778-.607-1.3778-1.3556z"/><path d="m22.3111 31.468c-.7609 0-1.3778.6069-1.3778 1.3555 0 .7487.6169 1.3556 1.3778 1.3556s1.3778-.6069 1.3778-1.3556c0-.7486-.6169-1.3555-1.3778-1.3555z"/><path d="m20.9333 38.2457c0-.7486.6169-1.3555 1.3778-1.3555s1.3778.6069 1.3778 1.3555c0 .7487-.6169 1.3556-1.3778 1.3556s-1.3778-.6069-1.3778-1.3556z"/></g></svg>