<svg fill="none" height="60" viewBox="0 0 60 60" width="60" xmlns="http://www.w3.org/2000/svg"><rect fill="#f1f3fa" height="58" rx="19" stroke="#2d3436" stroke-width="2" width="58" x="1" y="1"/><path clip-rule="evenodd" d="m36.1183 27.2373c2.3556-.0004 4.6148.9351 6.2805 2.6006s2.6014 3.9245 2.6012 6.28c.0003 3.5921-2.1635 6.8307-5.4822 8.2056-3.3188 1.3749-7.1391.6152-9.6793-1.9247-2.5403-2.54-3.3003-6.36-1.9257-9.6787 1.3747-3.3188 4.6132-5.4827 8.2055-5.4828zm2.6629 13.2056 1.7513-2.7996h-3.9614l3.9608-6.304h-7.4245l-1.6917 2.7124h3.9084l-4.0759 6.3912zm-2.6629-23.5569c-10.6167.0122-19.2203 8.6155-19.2322 19.2318h-2.9972c.0138-12.2707 9.9581-22.2148 22.2294-22.2289v2.997zm0 2.9271v2.9975c-7.3458.0087-13.2984 5.9617-13.3062 13.3072h-2.9977c.0099-9.0001 7.3034-16.294 16.3039-16.3047z" fill="#2d3436" fill-rule="evenodd"/></svg>