<svg fill="none" height="24" viewBox="0 0 25 24" width="25" xmlns="http://www.w3.org/2000/svg"><g stroke="#f18303" stroke-linecap="round" stroke-linejoin="round"><path d="m19.4246 5.37302h-1.7676-3.1101-4.0939-3.11007-1.76764c-.31684 0-.57532.25606-.57532.56995v.71863 2.81672l2.53473 10.39128c.22513.9252.80878 1.5034 1.43413 1.5034h7.07057c.6253 0 1.2007-.5782 1.4341-1.5034l2.5264-10.39128v-2.82498-.71863c0-.30563-.2585-.56169-.5753-.56169z"/><path d="m19.4323 5.37302h-1.7696-3.1135-4.0985-3.11351-1.76961c-.28381 0-.52587.21551-.56761.49999.04174.28449.2838.5.56761.5h1.76961 3.11351 4.0985 3.1135 1.7696c.2838 0 .5259-.21551.5676-.5-.0417-.28448-.2838-.49999-.5676-.49999z"/><path d="m9.99994 5.37302v-.87401c0-1.17323 1.12286-2.12598 2.49996-2.12598s2.5.95275 2.5 2.12598v.87401"/><path d="m9.49997 8.87302v4.99998"/><path d="m12.4999 10.873v5"/><path d="m12.4999 8.87302v.00473"/><path d="m9.49997 15.8681v.0047"/><path d="m12.4999 18.0014v.0048"/><path d="m15.4999 8.87302v4.99998"/></g></svg>