<svg fill="none" height="25" viewBox="0 0 26 25" width="26" xmlns="http://www.w3.org/2000/svg"><path d="m5.56689 16.3987 13.21861-13.21868c.7811-.78105 2.0474-.78105 2.8285 0l.9975.99751c.781.78105.781 2.04738 0 2.82843l-13.21867 13.21864" stroke="#18303f" stroke-linecap="round" stroke-linejoin="round"/><path d="m5.47245 16.4928.35356-.3536c-.12381-.1238-.30336-.1738-.47336-.1319-.16999.042-.30565.1698-.35764.337zm-1.72678 5.5527-.47744-.1485c-.05516.1774-.00745.3707.12389.502.13134.1314.32466.1791.50203.1239zm5.55272-1.7268.14848.4775c.16719-.052.29501-.1877.33696-.3577s-.00808-.3495-.13189-.4733zm9.22081-12.33968c.1953-.19526.1953-.51184 0-.7071-.1952-.19527-.5118-.19527-.7071 0zm-12.03139 9.52908-.35355.3536c.1001.1001.23795.1531.37933.1458zm1.89905 1.8991-.5.0015c.00041.1321.05305.2586.14645.352zm10.76364-13.47364c-.1953.19526-.1953.51184 0 .7071.1953.19527.5118.19527.7071 0zm.7208.69343c.1952-.19526.1952-.51184 0-.70711-.1953-.19526-.5119-.19526-.7071 0zm-11.13698 11.13691 9.78488-9.78488-.7071-.7071-9.78489 9.78488zm-.37934-.8528-1.89295.0977.05156.9987 1.89295-.0978zm-1.51361.2435-1.01536-1.0154-.70711.7071 1.01536 1.0154zm2.81057 2.8106-.91153-.9116-.7071.7071.91153.9116zm-.76508-.5596-.0061-1.9967-.99999.003.00609 1.9968zm-3.89185-3.0613-1.36982 4.4048.95489.297 1.36982-4.4049zm-1.36982 4.4048-.35696 1.1479.95489.297.35696-1.1479zm.26896 1.7738 1.14787-.3569-.29695-.9549-1.14787.3569zm1.14787-.3569 4.40485-1.3698-.29695-.9549-4.40485 1.3698zm-1.29294-.9148.79091.7909.70711-.7071-.79091-.7909zm16.10852-14.61054.0137-.01367-.7071-.70711-.0137.01368z" fill="#18303f"/></svg>