<svg fill="none" height="26" viewBox="0 0 25 26" width="25" xmlns="http://www.w3.org/2000/svg"><path clip-rule="evenodd" d="m6.5 3.97424c0-1.03875.98898-1.81799 2.00301-1.81799h8.51699c1.0141 0 2.003.77924 2.003 1.81799v17.39746c0 1.0388-.9889 1.818-2.003 1.818h-8.51699c-1.01403 0-2.00301-.7792-2.00301-1.818zm4.207 6.96916c.2762 0 .5.2238.5.5v1.318c0 .2761-.2238.5-.5.5-.2761 0-.5-.2239-.5-.5v-1.318c0-.2762.2239-.5.5-.5zm0 3.8486c.2762 0 .5-.2239.5-.5s-.2238-.5-.5-.5c-.2761 0-.5.2239-.5.5s.2239.5.5.5zm6.0393-11.21305c.7426-.19535 1.2766.25289 1.2766.83444v16.25521c0 .3383-.1353.5749-.3292.7135-.198.1415-.5184.2231-.9569.1185l-.0014-.0003-5.7041-1.404c-.3955-.105-.7866-.3544-1.07718-.682-.2932-.3306-.45021-.7007-.45021-1.0302v-11.59832c0-.32954.15701-.69958.45021-1.03015.29138-.32855.68378-.57844 1.08048-.68287l.0003-.00009 5.7107-1.49354z" fill="#18303f" fill-rule="evenodd"/></svg>