<svg fill="none" height="25" viewBox="0 0 25 25" width="25" xmlns="http://www.w3.org/2000/svg"><path d="m0 0h25v25h-25z" fill="#fff"/><path clip-rule="evenodd" d="m6.50147 1.77344c-2.69752 0-4.88428 2.18676-4.88428 4.88428 0 2.69751 2.18676 4.88428 4.88428 4.88428 2.69751 0 4.88423-2.18677 4.88423-4.88428 0-2.69752-2.18672-4.88428-4.88423-4.88428zm-5.884282 4.88428c0-3.2498 2.634482-5.884282 5.884282-5.884282s5.88423 2.634482 5.88423 5.884282-2.63444 5.88428-5.88423 5.88428c-3.2498 0-5.884282-2.63449-5.884282-5.88428z" fill="#92a0a9" fill-rule="evenodd"/><path d="m5.35711 3.22647c-.3168.176-.4752.35552-.4752.53856 0 .08448.02816.15488.08448.2112.05632.04928.11616.07392.17952.07392s.1408-.04224.23232-.12672.22528-.16896.40128-.25344c.18304-.09152.41184-.13728.6864-.13728.4576 0 .8096.11968 1.056.35904s.3696.57024.3696.99264c0 .25344-.0528.4928-.1584.71808-.09856.22528-.20064.39776-.30624.51744s-.25696.27104-.45408.45408c-.19008.176-.31328.29216-.3696.34848-.14784.16896-.26048.38368-.33792.64416-.07744.25344-.11616.6512-.11616 1.19328 0 .20416.09504.30624.28512.30624s.28512-.08096.28512-.24288c0-.4576.02112-.79552.06336-1.01376s.14432-.41536.30624-.59136c.04928-.06336.17248-.18656.3696-.3696.19712-.19008.35904-.35904.48576-.50688.13376-.14784.25696-.35904.3696-.6336.11968-.2816.17952-.57376.17952-.87648 0-.54912-.176-.99968-.528-1.35168-.34496-.352-.83424-.528-1.46784-.528-.43648 0-.81664.09152-1.14048.27456z" fill="#18303f"/><path d="m6.46514 10.7341c.18999 0 .34401-.154.34401-.344s-.15402-.344-.34401-.344-.34401.154-.34401.344.15402.344.34401.344z" fill="#18303f"/><path d="m5.35711 3.22647c-.3168.176-.4752.35552-.4752.53856 0 .08448.02816.15488.08448.2112.05632.04928.11616.07392.17952.07392s.1408-.04224.23232-.12672.22528-.16896.40128-.25344c.18304-.09152.41184-.13728.6864-.13728.4576 0 .8096.11968 1.056.35904s.3696.57024.3696.99264c0 .25344-.0528.4928-.1584.71808-.09856.22528-.20064.39776-.30624.51744s-.25696.27104-.45408.45408c-.19008.176-.31328.29216-.3696.34848-.14784.16896-.26048.38368-.33792.64416-.07744.25344-.11616.6512-.11616 1.19328 0 .20416.09504.30624.28512.30624s.28512-.08096.28512-.24288c0-.4576.02112-.79552.06336-1.01376s.14432-.41536.30624-.59136c.04928-.06336.17248-.18656.3696-.3696.19712-.19008.35904-.35904.48576-.50688.13376-.14784.25696-.35904.3696-.6336.11968-.2816.17952-.57376.17952-.87648 0-.54912-.176-.99968-.528-1.35168-.34496-.352-.83424-.528-1.46784-.528-.43648 0-.81664.09152-1.14048.27456z" stroke="#18303f" stroke-width=".5"/><path d="m6.46514 10.7341c.18999 0 .34401-.154.34401-.344s-.15402-.344-.34401-.344-.34401.154-.34401.344.15402.344.34401.344z" stroke="#18303f" stroke-width=".5"/><g fill="#18303f"><path d="m8.89401 22.6825c4.34939.5661 7.47479.5836 11.77239.0108 1.0722-.1429 1.912-.9953 2.0442-2.0721.5228-4.2568.5523-7.3685.0093-11.78116-.1342-1.09011-.997-1.94641-2.0878-2.07169-2.337-.2684-4.3522-.38488-6.3854-.35781-.2761.00368-.5029-.21718-.5066-.4933-.0037-.27611.2172-.50293.4933-.50661 2.0832-.02774 4.1417.09193 6.5128.36425 1.5501.17803 2.7757 1.39479 2.9662 2.94302.5534 4.4973.523 7.691-.0093 12.0252-.1873 1.5255-1.3779 2.7379-2.9046 2.9414-4.3888.585-7.6021.5664-12.03354-.0103-1.52717-.1988-2.72765-1.4031-2.92294-2.9303-.30609-2.3938-.45468-4.4332-.43328-6.509.00285-.2761.229-.4977.50513-.4948.27613.0028.49767.229.49482.5051-.0208 2.0181.12325 4.0101.42526 6.3718.13768 1.0768.98403 1.9255 2.06006 2.0655z"/><path d="m14.7596 18.9481c2.3127 0 4.1875-1.8748 4.1875-4.1875s-1.8748-4.1875-4.1875-4.1875c-.4903 0-.9599.084-1.3959.2381-.2603.092-.546-.0444-.638-.3048-.0921-.2603.0444-.54601.3048-.63803.5415-.19139 1.1237-.29531 1.7291-.29531 2.865 0 5.1875 2.32254 5.1875 5.18754 0 2.8649-2.3225 5.1875-5.1875 5.1875s-5.18751-2.3226-5.18751-5.1875c0-.6055.10391-1.1877.2953-1.7292.09203-.2603.37771-.3968.63801-.3048.2604.0921.3969.3777.3048.6381-.1541.4359-.2381.9055-.2381 1.3959 0 2.3127 1.8748 4.1875 4.1875 4.1875z"/><path d="m15.8221 20.532c-.2762 0-.5.2239-.5.5 0 .2762.2238.5.5.5.2761 0 .5-.2238.5-.5 0-.2761-.2239-.5-.5-.5z"/><path d="m13.2401 21.032c0-.2761.2238-.5.5-.5.2761 0 .5.2239.5.5 0 .2762-.2239.5-.5.5-.2762 0-.5-.2238-.5-.5z"/><path d="m8.53302 14.282c-.27614 0-.5.2239-.5.5 0 .2762.22386.5.5.5s.5-.2238.5-.5c0-.2761-.22386-.5-.5-.5z"/><path d="m6.99005 15.8231c0-.2762.22386-.5.5-.5s.5.2238.5.5c0 .2761-.22386.5-.5.5s-.5-.2239-.5-.5z"/><path d="m8.53302 16.3651c-.27614 0-.5.2238-.5.5 0 .2761.22386.5.5.5s.5-.2239.5-.5c0-.2762-.22386-.5-.5-.5z"/><path d="m6.99005 17.907c0-.2761.22386-.5.5-.5s.5.2239.5.5c0 .2762-.22386.5-.5.5s-.5-.2238-.5-.5z"/><path d="m16.8651 21.5731c-.2762 0-.5.2238-.5.5 0 .2761.2238.5.5.5.2761 0 .5-.2239.5-.5 0-.2762-.2239-.5-.5-.5z"/><path d="m14.283 22.0731c0-.2762.2239-.5.5-.5.2762 0 .5.2238.5.5 0 .2761-.2238.5-.5.5-.2761 0-.5-.2239-.5-.5z"/><path d="m17.908 9.07306c-.2761 0-.5.22386-.5.5s.2239.50004.5.50004c.2762 0 .5-.2239.5-.50004s-.2238-.5-.5-.5z"/><path d="m19.4901 9.57306c0-.27614.2238-.5.5-.5.2761 0 .5.22386.5.5s-.2239.50004-.5.50004c-.2762 0-.5-.2239-.5-.50004z"/><path d="m18.9471 8.03204c-.2762 0-.5.22386-.5.5 0 .27615.2238.50001.5.50001.2761 0 .5-.22386.5-.50001 0-.27614-.2239-.5-.5-.5z"/><path d="m18.4471 10.6151c0-.2762.2238-.5.5-.5.2761 0 .5.2238.5.5 0 .2761-.2239.5-.5.5-.2762 0-.5-.2239-.5-.5z"/><path d="m21.033 8.03204c-.2761 0-.5.22386-.5.5 0 .27615.2239.50001.5.50001.2762 0 .5-.22386.5-.50001 0-.27614-.2238-.5-.5-.5z"/><path d="m17.408 7.49005c0-.27614.2239-.5.5-.5.2762 0 .5.22386.5.5s-.2238.5-.5.5c-.2761 0-.5-.22386-.5-.5z"/><path d="m19.9901 6.99005c-.2762 0-.5.22386-.5.5s.2238.5.5.5c.2761 0 .5-.22386.5-.5s-.2239-.5-.5-.5z"/></g></svg>