<svg fill="none" height="26" viewBox="0 0 25 26" width="25" xmlns="http://www.w3.org/2000/svg"><g stroke="#2d3436"><path d="m.499998 13c0 6.6274 5.372582 12 12.000002 12 6.6274 0 12-5.3726 12-12 0-6.62742-5.3726-12-12-12-6.62742 0-12.000002 5.37258-12.000002 12z"/><path d="m10.2437 14.8795c-.84231.218-1.4644.9831-1.4644 1.8936.1508 1.6308 1.8445 2.9164 3.9117 2.9164 2.0671 0 3.7608-1.2856 3.9116-2.9164 0-.9105-.6221-1.6756-1.4644-1.8936-.3157-.0817-.6421.0175-.9303.1701l-.5814.3077c-.5852.3097-1.2859.3097-1.8711-.0001l-.5813-.3076c-.2883-.1526-.6147-.2518-.9304-.1701z"/></g></svg>