<svg fill="none" height="15" viewBox="0 0 15 15" width="15" xmlns="http://www.w3.org/2000/svg"><g fill="#03a9f1"><path d="m8.34786 8.69505c-.1795 0-.325.14551-.325.325 0 .1795.1455.325.325.325zm5.34714.325.0107-.325h-.0107zm.282.30139.3245.01929.0003-.00828zm-5.07012 4.77846v.325h.00005zm-2.81941 0-.00007.325h.00007zm-5.06522-4.77846-.324572.0169.000123.00209zm.07777-.21389-.232203-.22754-.005688.00611zm.20417-.0875v-.32503l-.00463.00007zm3.09649.325c.17949 0 .325-.1455.325-.325 0-.17949-.14551-.325-.325-.325zm5.87162-7.43313c-.1269.12692-.1269.3327.0001.45962.1269.12692.3326.12692.4596 0zm.716-.2563-.2181-.24095c-.004.00361-.0079.00733-.0117.01114zm1.8763.84582-.325-.00385v.00385zm-.325 6.52354c0 .1795.1455.325.325.325s.325-.1455.325-.325zm-2.0681-4.96799-.2281-.23151c-.0053.00521-.0104.01061-.0153.01617zm-.59308-2.23609-.08546.31357.00207.00055zm-1.29304.35486.22984.22984.00371-.00383zm-.11666.11666.22581.23381.004-.004zm0 .39861.22984-.22985-.00406-.00392zm1.49234 1.49234.23514-.22452-.0053-.00529zm.19934.08264-.0002-.32508-.0071.00016zm.1993-.08264.2298.22974c.0047-.00466.0092-.00946.0136-.0144zm-2.01113 4.27305h-.325v.00051zm-3.94717 0h-.325zm0 3.10618h-.32518l.00036.0108zm.26736.2723-.01664.3245c.00554.0003.01109.0005.01664.0005zm3.40273 0v-.325zm.28195-.282h.325v-.0005zm-.00558-2.20785h5.34714v-.65h-5.34714zm5.33654-.00017c-.0044-.00014-.0087-.00115-.0127-.00296l.2684-.59197c-.0738-.03347-.1534-.05207-.2344-.05472zm-.0127-.00296c-.004-.00181-.0076-.00439-.0106-.00758l.4747-.44406c-.0554-.05918-.1219-.10686-.1957-.14033zm-.0106-.00758c-.003-.0032-.0053-.00696-.0068-.01106l.6085-.22843c-.0285-.07588-.0716-.14539-.127-.20457zm-.0068-.01106c-.0016-.00411-.0023-.00847-.0022-.01285l.6497.02202c.0027-.08099-.0105-.16173-.039-.2376zm-.0018-.02112c-.0719 1.20994-.6032 2.34674-1.4852 3.17814l.4458.473c1.0026-.945 1.6065-2.2372 1.6883-3.61258zm-1.4852 3.17814c-.8821.8313-2.0484 1.2944-3.26047 1.2946l.0001.65c1.37777-.0003 2.70347-.5266 3.70617-1.4716zm-3.26042 1.2946h-2.81941v.65h2.81941zm-2.81935 0c-1.21155-.0003-2.37721-.4635-3.25849-1.2949l-.44604.4728c1.00188.9452 2.32706 1.4718 3.7044 1.4721zm-3.25849-1.2949c-.88128-.8314-1.41156-1.9681-1.48235-3.17755l-.648889.03798c.080476 1.37497.683329 2.66727 1.685199 3.61237zm-1.48223-3.17546c.00023.00446-.00044.00892-.00197.01312l-.610862-.22213c-.02825.07769-.040592.16026-.036293.24281zm-.00197.01312c-.00152.0042-.00388.00805-.00692.01132l-.475791-.44286c-.056321.06051-.099902.13172-.128151.20941zm-.01269.01736c-.00615.00628-.01454.00988-.02333.01l-.00926-.64993c-.16266.00231-.317812.06881-.431667.185zm-.02796.01003h3.09649v-.65h-3.09649zm9.42781-6.97351.4861-.48611-.4596-.45962-.4862.48611zm.4744-.47497c.1151-.10417.258-.17251.4114-.19664l-.1011-.6421c-.2782.04379-.5377.1678-.7465.35684zm.4114-.19664c.1533-.02413.3104-.003.4519.06079l.2671-.59257c-.2568-.11577-.5418-.1541-.8201-.11032zm.4519.06079c.1415.0638.2614.16749.3448.29837l.5481-.34951c-.1515-.2375-.369-.42567-.6258-.54143zm.3448.29837c.0835.13089.127.28328.1252.4385l.6499.00771c.0033-.28168-.0756-.55821-.227-.79572zm.1251.44235v6.52354h.65v-6.52354zm-1.84 1.78705c.2081-.2051.3583-.46159.4354-.74346l-.627-.17135c-.0469.1713-.1381.32717-.2646.4518zm.4354-.74346c.077-.28188.0781-.57911.0032-.86156l-.6283.16663c.0456.17164.0449.35228-.0019.52358zm.0032-.86156c-.0749-.28245-.2232-.54006-.4298-.74671l-.4597.45956c.1256.12558.2157.28213.2612.45378zm-.4298-.74671c-.2066-.20666-.4642-.355-.74658-.42998l-.16679.62824c.17163.04556.32817.13571.45367.2613zm-.74451-.42942c-.2837-.07733-.58296-.07706-.86652.00076l.17202.62682c.17134-.04702.35215-.04718.52357-.00046zm-.86652.00076c-.28357.07782-.54104.23034-.74553.44164l.46709.45203c.12355-.12767.27912-.21983.45046-.26685zm-.7418.43785-.11666.11666.45962.45962.11666-.11666zm-.11263.1127c-.05814.05615-.10438.12344-.13596.19784l.59834.25396c-.00252.00592-.0062.01127-.01082.01574zm-.13596.19784c-.03158.07441-.04785.15441-.04785.23523h.65c0 .00644-.0013.0128-.00381.01873zm-.04785.23523c0 .08083.01627.16083.04785.23524l.59834-.25396c.00251.00593.00381.01229.00381.01872zm.04785.23524c.03158.0744.07782.14169.13596.19784l.45156-.46754c.00462.00447.0083.00982.01082.01574zm.13193.19388 1.49234 1.49234.45965-.45962-1.49237-1.49234zm1.48712 1.487c.05685.05952.12547.10654.2015.13806l.24897-.60043c.0074.00307.0141.00764.0196.01344zm.2015.13806c.07607.03153.15777.04686.24007.04503l-.0145-.64984c.008-.00018.016.00131.0234.00438zm.23297.04511c.1609-.00007.3153-.06406.429-.1779l-.4597-.45948c.0081-.00807.019-.01261.0304-.01262zm.4426-.1923.1118-.12639-.4868-.43067-.1119.12639zm-1.92953 4.05771c0-.23575-.09365-.46184-.26034-.62854l-.45962.45962c.0448.0448.06996.10556.06996.16892zm-.26034-.62854c-.1667-.1667-.39279-.26035-.62854-.26035v.65c.06336 0 .12412.02517.16892.06997zm-.62854-.26035h-2.81941v.65h2.81941zm-2.81941 0c-.23575 0-.46184.09365-.62854.26035l.45962.45962c.0448-.0448.10556-.06997.16892-.06997zm-.62854.26035c-.16669.1667-.26034.39279-.26034.62854h.65c0-.06336.02517-.12412.06996-.16892zm-.26034.62854v3.10618h.65v-3.10618zm.00018 3.11698c.00504.152.06699.2966.17358.4052l.46374-.4555c.00756.0077.01196.018.01232.0288zm.17358.4052c.10659.1085.25005.173.40196.1808l.03327-.6491c.01077.0005.02095.0051.02851.0128zm.4186.1813h3.40273v-.65h-3.40273zm3.40273 0c.16097 0 .31535-.064.42918-.1778l-.45962-.4596c.00807-.0081.01903-.0126.03044-.0126zm.42918-.1778c.11382-.1138.17777-.2682.17777-.4292h-.65c0-.0114.00453-.0224.01261-.0304zm.17777-.4297-.00487-3.09649-.65.00102.00487 3.09647z"/><path d="m7.26795 3.32052c.16568 0 .3-.13431.3-.3s-.13432-.3-.3-.3c-.16569 0-.3.13431-.3.3s.13431.3.3.3z"/><path d="m8.38357 4.5545c.16569 0 .3-.13431.3-.3 0-.16568-.13431-.3-.3-.3-.16568 0-.3.13432-.3.3 0 .16569.13432.3.3.3z"/><path d="m9.92576 5.20197c0 .16568-.13432.3-.3.3-.16569 0-.3-.13432-.3-.3 0-.16569.13431-.3.3-.3.16568 0 .3.13431.3.3z"/><path d="m8.57107 5.80197c0 .16568-.13431.3-.3.3-.16568 0-.3-.13432-.3-.3 0-.16569.13432-.3.3-.3.16569 0 .3.13431.3.3z"/><path d="m7.26795 4.56622c0 .16569-.13432.3-.3.3-.16569 0-.3-.13431-.3-.3 0-.16568.13431-.3.3-.3.16568 0 .3.13432.3.3z"/></g></svg>