<svg fill="none" height="25" viewBox="0 0 25 25" width="25" xmlns="http://www.w3.org/2000/svg"><g fill="#895d25"><path d="m14.1406 10.5879c0-.2762.2239-.5.5-.5h.9141c.2761 0 .5004.2238.5004.5 0 .0065-.0002.013-.0004.0195v.9203c0 .2761-.2239.5-.5.5-.2762 0-.5-.2239-.5-.5v-.4398h-.4141c-.2761 0-.5-.2239-.5-.5z"/><path d="m15.5608 12.5c.25 0 .5.25.5.5s-.25.5-.5.5-.5-.25-.5-.5.25-.5.5-.5z"/><path clip-rule="evenodd" d="m8.19531 1.44336c-.82842 0-1.5.67157-1.5 1.5v16.46094h-.38926c-.34697 0-.6787.1393-.92251.3855-.24364.2461-.37963.5788-.37963.9247v1.1746c-.00003.2331.09039.4581.25335.6261.16314.1682.38611.266.62137.2709l.0103.0001h13.21127c.2384 0 .4661-.0958.6332-.2645.1669-.1686.2598-.3962.2598-.6325v-1.1747c0-.3459-.136-.6786-.3796-.9247-.2438-.2462-.5756-.3855-.9225-.3855h-.3329v-16.46094c0-.82843-.6716-1.5-1.5-1.5zm9.16289 17.96094v-16.46094c0-.27614-.2239-.5-.5-.5h-8.66289c-.27614 0-.5.22386-.5.5v16.46094zm-11.05215 1c-.07852 0-.15484.0315-.21189.0891-.05722.0578-.09025.1372-.09025.2211v1.0717h12.98929v-1.0717c0-.0839-.033-.1633-.0902-.2211-.0571-.0576-.1334-.0891-.2119-.0891z" fill-rule="evenodd"/></g></svg>