<svg fill="none" height="15" viewBox="0 0 15 15" width="15" xmlns="http://www.w3.org/2000/svg"><g fill="#895d25"><path d="m8.48435 6.35275c0-.16569.13432-.3.3-.3h.54844c.16568 0 .30022.13431.30022.3 0 .00392-.00007.00783-.00022.01172v.55215c0 .16568-.13432.3-.3.3-.16569 0-.3-.13432-.3-.3v-.26387h-.24844c-.16568 0-.3-.13432-.3-.3z"/><path d="m9.33648 7.50001c.15 0 .3.15.3.3s-.15.3-.3.3-.3-.15-.3-.3.15-.3.3-.3z"/><path clip-rule="evenodd" d="m4.91716.866028c-.49705 0-.9.402942-.9.900002v9.87657h-.23356c-.20817 0-.40722.0835-.5535.2313-.14619.1476-.22778.3473-.22778.5548v.7048c-.00001.1399.05424.2748.15201.3756.09789.1009.23167.1596.37282.1626h.00619 7.92676c.1431 0 .2797-.0574.3799-.1587.1002-.1011.1559-.2377.1559-.3795v-.7048c0-.2075-.0816-.4072-.2278-.5548-.1463-.1478-.3453-.2313-.5535-.2313h-.1997v-9.87657c0-.49706-.403-.900002-.9-.900002zm5.49774 10.776572v-9.87657c0-.16569-.1343-.3-.3-.3h-5.19774c-.16568 0-.3.13431-.3.3v9.87657zm-6.6313.6c-.04711 0-.0929.0189-.12713.0534-.03433.0347-.05415.0824-.05415.1327v.643h7.79358v-.643c0-.0503-.0198-.098-.0541-.1327-.0343-.0345-.0801-.0534-.1272-.0534z" fill-rule="evenodd"/></g></svg>