<svg fill="none" height="15" viewBox="0 0 15 15" width="15" xmlns="http://www.w3.org/2000/svg"><g stroke="#f94409" stroke-linecap="round" stroke-linejoin="round" stroke-width=".65"><path d="m3.25828 8.65306-1.67098 4.89754c-.02529.0799-.02288.166.00684.2443.02971.0784.085.1444.15691.1874.03591.017.07481.0267.11447.0286.03966.0018.07931-.0041.11666-.0176.03734-.0135.07166-.0342.10097-.061s.05304-.0591.06983-.0951l2.74278-5.35533"/><path d="m12.2609 10.4878 1.042 3.0628c.0267.0783.0265.1632-.0004.2414-.027.0782-.0792.1451-.1484.1903-.0359.0175-.0748.0276-.1146.0297-.0398.0022-.0796-.0037-.1171-.0172-.0375-.0136-.0719-.0345-.1011-.0615-.0293-.0271-.0528-.0598-.0692-.0961l-1.5779-3.0777"/><path d="m13.8647 9.65437-.9564-2.10268c-.2531-.55823-.5954-.87457-.9527-.87457h-9.01733c-.37216 0-.70337.31634-.95644.87457l-.95644 2.10268s3.75877-2.66091 6.41968 0c2.66093 2.66093 6.41963 0 6.41963 0z"/><path d="m1.86292 5.56036.52473.80014c.06786.1017.15971.18511.26746.24288s.22807.08811.35032.08833h5.53023c.12288.00039.24395-.02965.3524-.08745.10845-.05779.2009-.14154.2691-.24376l.52101-.78525"/><path d="m1.49072 5.56036h8.55958"/><path d="m5.76966 2.21119c.11041 0 .21834-.03274.31014-.09408s.16335-.14852.2056-.25052c.04225-.10201.0533-.21425.03177-.32254-.02154-.10828-.07471-.20775-.15278-.28582s-.17754-.13124-.28583-.15278c-.10828-.02154-.22052-.01048-.32253.03177-.102.04225-.18919.1138-.25052.2056-.06134.0918-.09408.19973-.09408.31014 0 .14805.05881.29004.1635.39473s.24668.1635.39473.1635z"/><path d="m2.41956 5.56046c0-.88832.35288-1.74025.98101-2.36838.62813-.62814 1.48007-.98102 2.36838-.98102.88832 0 1.74025.35288 2.36838.98102.62814.62813.98102 1.48006.98102 2.36838"/><path d="m4.59448 3.43933c.35623-.19434.75534-.29668 1.16113-.29773"/><path d="m11.5344 2.29291v4.12348"/><path d="m10.6417 6.41644h1.7826"/><path d="m13.2837 2.29291v.62522c-.0208.45043-.2143.87552-.5404 1.18693s-.7597.48517-1.2106.48517-.8844-.17376-1.2105-.48517c-.32614-.31141-.51969-.7365-.54046-1.18693v-.62522"/></g><g fill="#f94409"><path d="m11.8178 1.25087c.0046.04012.0007.08076-.0115.11925s-.0324.07397-.0593.1041c-.0269.03014-.0598.05425-.0967.07076-.0368.01652-.0768.02505-.1172.02505-.0403 0-.0803-.00853-.1171-.02505-.0369-.01651-.0698-.04062-.0967-.07076-.0269-.03013-.0471-.06561-.0593-.1041s-.0162-.07913-.0116-.11925c.0465-.1873.1232-.365789.2271-.528463.0092-.014431.0236-.024787.0402-.028939.0166-.004153.0342-.001788.0491.00661.0111.004011.0204.011954.026.022329.1039.162674.1805.341163.227.528463z"/><path d="m13.4925 1.25078c.001.07537-.0277.1481-.08.20244-.0522.05433-.1238.08589-.1991.08784-.0372.00049-.074-.00634-.1085-.0201s-.066-.03418-.0926-.0601-.0479-.05683-.0625-.09096c-.0147-.03413-.0225-.07081-.023-.10795.0436-.19174.1205-.374371.227-.53963.0039-.007403.0092-.013918.0157-.019121.0066-.005204.0141-.00898.0222-.011085.008-.002105.0165-.002492.0247-.001135s.0161.004427.023.009012c.0111.00401.0204.011953.0261.022329.1038.162673.1805.34116.227.52846z"/><path d="m10.1423 1.25078c.001.07537-.0277.1481-.0799.20244-.0523.05433-.12383.08589-.19918.08784-.03714.00049-.07402-.00634-.10852-.0201-.03451-.01376-.06596-.03418-.09257-.0601s-.04786-.05683-.06252-.09096c-.01467-.03413-.02246-.07081-.02295-.10795.04362-.19174.12045-.374371.22701-.53963.00384-.007403.00919-.013918.01571-.019121.00652-.005204.01406-.00898.02212-.011085.00807-.002105.0165-.002492.02472-.001135.00823.001357.01608.004427.02305.009012.01112.00401.02039.011953.02605.022329.10388.162673.18048.34116.22698.52846z"/></g></svg>