<svg fill="none" height="15" viewBox="0 0 15 15" width="15" xmlns="http://www.w3.org/2000/svg"><path clip-rule="evenodd" d="m7.50052 1.92321c.78514-.01649 1.60716.14612 2.3235.47837.00461.00214.00916.00439.01366.00676l3.29012 1.73416c.0956.05353.1743.13269.2275.22844.0519.09339.0775.19907.074.30575v.68232c.0043.06653-.0031.13271-.0214.19572.0141.03474.0218.0727.0218.11247v7.112c0 .1656-.1343.3-.3.3-.0055 0-.0109-.0002-.0163-.0005h-11.22675c-.0054.0003-.01084.0005-.01631.0005-.00548 0-.01092-.0002-.01632-.0005h-1.169621c-.165685 0-.3-.1343-.3-.3s.134315-.3.3-.3h.885941v-6.8115c0-.03962.00768-.07744.02163-.11206-.01851-.06227-.02654-.1277-.02326-.19361v-.68483c-.00344-.10669.02211-.21236.07399-.30576.0532-.09575.13199-.17482.22755-.22836l.00522-.00292 3.28339-1.75423c.00595-.00318.01201-.00616.01816-.00893.71829-.32355 1.54019-.47762 2.3235-.45329zm-5.33018 4.04348h10.65936v6.51201h-.5858v-5.3304c0-.15816-.0628-.30984-.1747-.42167-.1118-.11184-.2635-.17467-.4216-.17467h-8.29734c-.15815 0-.30983.06283-.42167.17467-.11183.11183-.17466.26351-.17466.42167v5.3304h-.58359zm3.26218-3.0472-3.26391 1.74389.0001.00763v.69568h10.66059v-.69568l.0001-.00755-3.26462-1.72072c-.62997-.29079-1.36097-.43529-2.05898-.41951-.00553.00013-.01106.0001-.01658-.00008-.69535-.02272-1.42537.11378-2.0567.39634zm6.20628 9.55921h-8.27975l-.00512-.0001v-5.32664h8.28997v5.32664zm-7.39893-4.36931c-.16569 0-.3.13431-.3.3 0 .16568.13431.3.3.3h5.44873c.16568 0 .3-.13432.3-.3 0-.16569-.13432-.3-.3-.3zm.7125 1.78593c0-.16568.13431-.3.3-.3h5.50753c.1657 0 .3.13432.3.3s-.1343.29998-.3.29998h-5.50753c-.16569 0-.3-.1343-.3-.29998zm-.7125 1.18598c-.16569 0-.3.1343-.3.3 0 .1656.13431.3.3.3h6.51933c.1657 0 .3-.1344.3-.3 0-.1657-.1343-.3-.3-.3zm6.52033-2.37191c.1657 0 .3-.13432.3-.3 0-.16569-.1343-.3-.3-.3s-.3.13431-.3.3c0 .16568.1343.3.3.3zm3.8508 4.06931c0 .1657-.1344.3-.3.3-.1657 0-.3-.1343-.3-.3s.1343-.3.3-.3c.1656 0 .3.1343.3.3zm-10.37113-2.5834c.16568 0 .3-.1343.3-.29998s-.13432-.3-.3-.3c-.16569 0-.3.13432-.3.3s.13431.29998.3.29998z" fill="#895d25" fill-rule="evenodd"/></svg>