<svg fill="none" height="34" viewBox="0 0 34 34" width="34" xmlns="http://www.w3.org/2000/svg"><g fill="#00ac83"><path clip-rule="evenodd" d="m14.1683 7.28349c.6454-.64548 1.5209-1.0081 2.4337-1.0081h12.3322c.9128 0 1.7883.36262 2.4338 1.0081.6454.64548 1.0081 1.52093 1.0081 2.43377v5.45804c.321.0906.6168.2621.8568.5022.3688.3688.5759.8689.5759 1.3904v7.3494c.0002.5135-.1995 1.0071-.5568 1.3758-.3574.3687-.8444.5839-1.3577.5997l-.0154.0002h-18.219c-.5221-.0032-1.0219-.212-1.3912-.5812-.3692-.3692-.578-.8691-.5812-1.3912v-.003-7.3497h.5l-.5-.0029c.003-.5135.2058-1.0056.5655-1.3721.2514-.2561.5655-.4368.9072-.5267v-5.44894c0-.91284.3626-1.78829 1.0081-2.43377zm18.6405 15.16771h-20.1213v-5.3816c.0018-.2531.1019-.4956.2792-.6763.1763-.1796.4152-.2841.6667-.2917h18.2091c.2563 0 .5021.1018.6833.283s.283.427.283.6833zm-20.1213 1.0005v.9642c.0019.2585.1055.5059.2884.6888.1828.1828.4302.2864.6888.2883h18.2057c.2509-.0095.4886-.1154.6635-.2959.1764-.1821.2751-.4257.2749-.6793v-.9661zm3.9145-16.17631c-.6476 0-1.2687.25727-1.7266.71521-.458.45794-.7152 1.07904-.7152 1.72666v5.38374h.0956c.3-2.5502 2.873-4.4174 5.8171-4.4174h5.3464c2.9521 0 5.5262 1.8669 5.8263 4.4174h.1305v-5.38374c0-.64762-.2573-1.26872-.7152-1.72666-.458-.45794-1.0791-.71521-1.7267-.71521zm3.4709 4.40821c-2.5442 0-4.505 1.552-4.8061 3.4174h14.9678c-.3012-1.865-2.2622-3.4174-4.8153-3.4174z" fill-rule="evenodd"/><path d="m4.83203 23.3203c.27614 0 .5-.2238.5-.5 0-.2761-.22386-.5-.5-.5s-.5.2239-.5.5c0 .2762.22386.5.5.5z"/><path clip-rule="evenodd" d="m9.47054 21.2717v5.6989c-.00346.2524-.10051.4945-.27228.6795-.17176.185-.40606.2996-.65752.3217-.01457.0013-.02919.002-.04381.002h-7.28265c-.13239.0016-.26384-.0227-.386861-.0718-.124634-.0497-.238119-.1237-.333829-.2177-.095712-.094-.171727-.2062-.22361-.3299-.051874-.1237-.078585-.2565-.078574-.3907v-5.692c-.00001-.4056.160206-.7949.445779-1.083.285576-.2881.673395-.4517 1.079035-.4553h.00439 1.38549c-.06339-.1666-.11003-.3401-.13873-.5178-.08153-.5048-.01472-1.0224.19232-1.49.15084-.3406.37138-.644.64572-.8915h-.89207c-.18776-.0024-.3723-.0492-.53858-.1364-.16213-.085-.30243-.2062-.41009-.3542-.11161-.1432-.18987-.3095-.22901-.4869-.04014-.182-.03805-.3708.00612-.5518l.00094-.0038.7194-2.8503 1.16804-.9156 3.88269.0001c.26855.0014.52912.0915.74125.2562.21214.1646.36398.3947.43197.6546l.00148.0056.70819 2.842c.05063.1786.05953.3665.02593.5491-.03432.1866-.11199.3625-.22676.5135s-.26342.2729-.43397.3559c-.16927.0824-.35541.1242-.54362.122h-.8748c.27434.2475.49488.5509.64571.8915.20705.4676.27386.9852.19233 1.49-.02892.1791-.07605.3538-.14018.5216.36846.026.71671.1839.9796.4468.28849.2884.45056.6797.45056 1.0877zm-8.27913 0v3.6345h7.27913v-3.6345c0-.1428-.05672-.2797-.15767-.3806-.10095-.101-.23787-.1577-.38064-.1577h-6.20907c-.14129.0017-.27626.0589-.37576.1593-.09993.1008-.156.2371-.15599.379zm7.27913 4.635h-7.27913v1.057c0 .0013.00026.0027.00078.004.00051.0012.00127.0023.00222.0033.00095.0009.00208.0016.00332.0021s.00257.0008.0039.0007l.00893-.0001 7.24939.0001c.00206-.0011.00393-.0025.00552-.0042.00298-.0032.00476-.0073.00507-.0116zm-4.96455-13.3265c.03623-.0285.08081-.0443.12687-.045h3.87555c.048.0004.09454.0166.13247.0461.03764.0292.06474.0698.07722.1158l.70951 2.8471c.00169.0068.00351.0135.00548.0202.0093.0316.01104.065.00508.0974-.00597.0325-.01947.063-.03942.0893-.01995.0262-.04579.0474-.07544.0619-.02965.0144-.06228.0217-.09524.0212l-.0075-.0001h-5.29665c-.0295-.0007-.05846-.0082-.08462-.0219-.0268-.0141-.04991-.0343-.06743-.059-.00543-.0076-.01106-.0151-.0169-.0224-.02092-.0262-.03556-.0569-.04279-.0897-.00712-.0322-.00685-.0657.00078-.0979l.7189-2.8483c.01135-.0452.03751-.0859.07413-.1147zm2.06798 4.5741c-.31769 0-.62855.0922-.89481.2655s-.47647.4202-.6051.7107c-.12862.2905-.17013.6121-.11948.9257.03946.2443.13351.4756.2741.6771h2.69057c.14059-.2015.23464-.4328.2741-.6771.05065-.3136.00914-.6352-.11948-.9257-.12863-.2905-.33884-.5374-.6051-.7107s-.57712-.2655-.8948-.2655z" fill-rule="evenodd"/><path d="m16.0039 27.4736c0 .2762-.2239.5-.5.5s-.5-.2238-.5-.5c0-.2761.2239-.5.5-.5s.5.2239.5.5z"/><path d="m29.9922 27.9736c.2761 0 .5-.2238.5-.5 0-.2761-.2239-.5-.5-.5-.2762 0-.5.2239-.5.5 0 .2762.2238.5.5.5z"/></g></svg>