<svg fill="none" height="25" viewBox="0 0 25 25" width="25" xmlns="http://www.w3.org/2000/svg"><g fill="#f94409"><path d="m14.2148 2.11914c.2762 0 .5-.22386.5-.5s-.2238-.5-.5-.5c-.2761 0-.5.22386-.5.5s.2239.5.5.5z"/><path d="m16.2266 15.9951c-.2762 0-.5.2239-.5.5 0 .2762.2238.5.5.5h.9304c.2762 0 .5-.2238.5-.5 0-.2761-.2238-.5-.5-.5z"/><path clip-rule="evenodd" d="m12.5114 16.002c-1.0614 0-1.9216.8607-1.9216 1.9218 0 1.0616.8606 1.9209 1.9216 1.9209 1.0609 0 1.9215-.8593 1.9215-1.9209 0-1.0611-.8601-1.9218-1.9215-1.9218zm-.9216 1.9218c0-.5091.4128-.9218.9216-.9218s.9215.4127.9215.9218c0 .5087-.4123.9209-.9215.9209-.5093 0-.9216-.4122-.9216-.9209z" fill-rule="evenodd"/><path d="m16.2266 18.8145c-.2762 0-.5.2238-.5.5 0 .2761.2238.5.5.5h.9304c.2762 0 .5-.2239.5-.5 0-.2762-.2238-.5-.5-.5z"/><path clip-rule="evenodd" d="m10.1719 7.05859c-.27617 0-.50002.22386-.50002.5 0 .27615.22385.5.50002.5h.4297v.99796c-2.21851.28899-3.7357 1.06705-4.74358 1.87035-.63263.5041-1.05617 1.0115-1.32391 1.3987-.13384.1936-.22886.3573-.29176.4758-.03146.0594-.05492.1074-.07123.1424-.00815.0175-.01452.0317-.0192.0425l-.00578.0134-.00197.0047-.00076.0018c-.00015.0004-.00061.0015.46206.1911l-.46267-.1896c-.02465.0602-.03733.1245-.03733.1896v.4482h-2.30859c-.27615 0-.5.2239-.5.5s.22385.5.5.5h2.30859v6.0703c-.00002.626.24477 1.2275.68255 1.6735.43776.446 1.03349.7009 1.65801.7064h.00436 12.10431c.6279 0 1.2289-.2523 1.6712-.699.4422-.4466.6897-1.0514.6897-1.6809v-6.0703h2.2899c.2761 0 .5-.2239.5-.5s-.2239-.5-.5-.5h-2.2899v-.4482c0-.066-.013-.1313-.0383-.1921l-.4617.1921c.4617-.1921.4618-.1918.4617-.1921l-.0007-.0015-.0007-.0018-.002-.0047-.0059-.0134c-.0047-.0107-.0112-.0249-.0194-.0423-.0165-.035-.0403-.083-.0721-.1422-.0636-.1185-.1595-.2821-.2945-.4755-.27-.3869-.6965-.8939-1.3319-1.3977-1.0126-.8028-2.5346-1.58098-4.7556-1.86977v-.99774h.4298c.2761 0 .5-.22385.5-.5 0-.27614-.2239-.5-.5-.5zm1.4297 1.90508v-.90508h1.7929v.90502c-.2883-.0165-.5868-.02513-.896-.02513-.3095 0-.6084.00865-.8969.02519zm8.314 4.73363h-14.81013v7.0185c-.00001.3654.14292.715.39621.973.25283.2576.59475.4033.95105.4069h12.10197c.3591 0 .7048-.1443.9606-.4026.2557-.2583.4003-.6098.4003-.9773v-6.5305c-.001-.0131-.0015-.0264-.0015-.0398s.0005-.0267.0015-.0398zm-13.43435-1.9884c-.44043.351-.75879.6999-.98071.9884h14.01486c-.2239-.2884-.5444-.637-.9866-.9876-1.0922-.866-2.9605-1.77122-6.0303-1.77122-3.06974 0-4.93159.90522-6.01725 1.77042z" fill-rule="evenodd"/><path d="m11.3086 1.61914c0 .27614-.2239.5-.5.5s-.5-.22386-.5-.5.2239-.5.5-.5.5.22386.5.5z"/><path d="m12.5117 2.11914c.2762 0 .5-.22386.5-.5s-.2238-.5-.5-.5c-.2761 0-.5.22386-.5.5s.2239.5.5.5z"/><path d="m14.7148 5.61914c0 .27614-.2238.5-.5.5-.2761 0-.5-.22386-.5-.5s.2239-.5.5-.5c.2762 0 .5.22386.5.5z"/><path d="m10.8086 6.11914c.2761 0 .5-.22386.5-.5s-.2239-.5-.5-.5-.5.22386-.5.5.2239.5.5.5z"/><path d="m13.0117 5.61914c0 .27614-.2238.5-.5.5-.2761 0-.5-.22386-.5-.5s.2239-.5.5-.5c.2762 0 .5.22386.5.5z"/><path d="m13.2148 4.11914c.2762 0 .5-.22386.5-.5s-.2238-.5-.5-.5c-.2761 0-.5.22386-.5.5s.2239.5.5.5z"/><path d="m10.3086 3.61914c0 .27614-.2239.5-.50001.5-.27614 0-.5-.22386-.5-.5s.22386-.5.5-.5c.27611 0 .50001.22386.50001.5z"/><path d="m11.5117 4.11914c.2762 0 .5-.22386.5-.5s-.2238-.5-.5-.5c-.2761 0-.5.22386-.5.5s.2239.5.5.5z"/></g></svg>