<svg fill="none" height="50" viewBox="0 0 50 50" width="50" xmlns="http://www.w3.org/2000/svg"><g fill="#03a9f1"><path clip-rule="evenodd" d="m13.3354 8.89765-.0065.00008c-.1971.00257-.3915.04675-.5704.12963-.0058.0027-.0116.00551-.0173.00843-.3114.15916-.549.43299-.6625.76381-.1136.3308-.0943.6928.0537 1.0097l.0058.012 1.0667 2.1333c.0847.1694.2578.2764.4472.2764h6.2333.0051c.2474-.0025.4894-.073.6994-.2037.2101-.1307.3802-.3166.4918-.5375l.0009-.0018.8334-1.6667c.0192-.0386.0335-.0795.0423-.1218.0356-.1714.0388-.3479.0094-.5202-.013-.33483-.1517-.65325-.3895-.89108-.25-.25005-.5892-.39053-.9428-.39053zm-.1475 1.03302c.0478-.02075.0993-.03196.1514-.03298h7.2961c.0884 0 .1732.03512.2357.09763.0625.06248.0976.14728.0976.23568 0 .0342.0036.0684.0105.1019.0076.0366.0101.0741.0073.1112l-.7974 1.5948c-.0289.0569-.0732.1056-.1275.1393-.0539.0336-.1159.0518-.1793.0528h-5.9212l-.9249-1.8497c-.0363-.081-.0406-.1729-.0117-.257.0284-.0828.0868-.15182.1634-.19363z" fill-rule="evenodd"/><path d="m28.2971 10.6701c0-.3677-.3676-.7353-.7353-.7353-.3676 0-.7353.3676-.7353.7353 0 .3676.3677.7353.7353.7353.3677 0 .7353-.3677.7353-.7353z"/><path d="m31.2268 9.9348c.3676 0 .7353.3676.7353.7353 0 .3676-.3677.7353-.7353.7353-.3677 0-.7353-.3677-.7353-.7353 0-.3677.3676-.7353.7353-.7353z"/><path d="m35.6328 10.6701c0-.3677-.3676-.7353-.7353-.7353-.3676 0-.7353.3676-.7353.7353 0 .3676.3677.7353.7353.7353.3677 0 .7353-.3677.7353-.7353z"/><g clip-rule="evenodd" fill-rule="evenodd"><path d="m25.004 20.5647h-.0035c-5.3371.0019-9.6632 4.3291-9.6632 9.6667 0 2.145.6986 4.1267 1.8807 5.7302.0105.0184.0222.0362.0353.0535.0121.0162.0251.0314.0388.0457 1.7649 2.3312 4.5625 3.8373 7.7119 3.8373 5.3387 0 9.6667-4.3279 9.6667-9.6667 0-5.3387-4.328-9.6667-9.6667-9.6667zm-8.6667 9.6667c0-4.6172 3.6107-8.3911 8.1625-8.6522v4.8516c-1.8801.2457-3.3318 1.8537-3.3318 3.8008 0 .6707.1722 1.3012.4749 1.8496l-3.8757 2.9206c-.9038-1.3683-1.4299-3.0079-1.4299-4.7704zm17.3334 0c0-4.6201-3.6152-8.3958-8.1709-8.6527v4.8517c1.8816.2443 3.3348 1.853 3.3348 3.8012 0 .6709-.1723 1.3015-.4751 1.8501l3.8792 2.9232c.905-1.3689 1.432-3.0096 1.432-4.7735zm-6.3876 1.6652c.0166-.0219.0346-.0421.0538-.0605.3139-.4562.4977-1.0089.4977-1.6045 0-1.5648-1.2685-2.8333-2.8333-2.8333s-2.8333 1.2685-2.8333 2.8333c0 .5968.1845 1.1505.4996 1.6071.0181.0177.0352.037.051.0579.0183.0244.0341.0499.0474.0762.5185.6647 1.327 1.0921 2.2353 1.0921.9068 0 1.7141-.426 2.2328-1.0888.0136-.0275.0299-.0541.049-.0795zm-2.2818 2.1683c-1.0867 0-2.0677-.4521-2.7653-1.1786l-3.8706 2.9168c1.5898 1.8923 3.9737 3.095 6.6386 3.095 2.6635 0 5.0463-1.2015 6.6361-3.0921l-3.8739-2.9193c-.6975.7262-1.6784 1.1782-2.7649 1.1782z"/><path d="m8.66797 9.39779v31.66671c0 2.117 1.71623 3.8333 3.83333 3.8333h25c2.1171 0 3.8333-1.7163 3.8333-3.8333v-31.66671c0-2.1171-1.7162-3.83334-3.8333-3.83334h-25c-2.1171 0-3.83333 1.71624-3.83333 3.83334zm3.83333-2.83334c-1.5648 0-2.83333 1.26853-2.83333 2.83334v6.16641h30.66663v-6.16641c0-1.56481-1.2685-2.83334-2.8333-2.83334zm27.8333 34.50005v-24.5003h-30.66663v24.5003c0 1.5648 1.26853 2.8333 2.83333 2.8333h25c1.5648 0 2.8333-1.2685 2.8333-2.8333z"/></g></g></svg>