<svg fill="none" height="50" viewBox="0 0 50 50" width="50" xmlns="http://www.w3.org/2000/svg"><g fill="#895d25"><path d="m18.4825 17.0487c.2933-.281.7587-.271 1.0397.0222l.6722.7016.6723-.7016c.281-.2932.7464-.3032 1.0397-.0222.2932.2809.3031.7464.0222 1.0396l-.7158.747.7158.7471c.2809.2932.271.7586-.0222 1.0396-.2933.2809-.7587.271-1.0397-.0222l-.6723-.7017-.6722.7017c-.281.2932-.7464.3031-1.0397.0222-.2932-.281-.3031-.7464-.0222-1.0396l.7158-.7471-.7158-.747c-.2809-.2932-.271-.7587.0222-1.0396z"/><path d="m29.1415 17.2891c-.2857-.2885-.7513-.2908-1.0398-.0051-.2886.2857-.2909.7512-.0052 1.0398l.691.6979-.691.6979c-.2857.2886-.2834.7542.0052 1.0399.2885.2857.7541.2834 1.0398-.0052l.6807-.6875.6807.6875c.2857.2886.7513.2909 1.0399.0052.2885-.2857.2908-.7513.0051-1.0399l-.691-.6979.691-.6979c.2857-.2886.2834-.7541-.0051-1.0398-.2886-.2857-.7542-.2834-1.0399.0051l-.6807.6875z"/><path d="m25 18.5418c.4061 0 .7353-.3292.7353-.7353s-.3292-.7353-.7353-.7353-.7353.3292-.7353.7353.3292.7353.7353.7353z"/><path clip-rule="evenodd" d="m17.4421 4.04049c2.3689-1.15814 4.9669-1.75991 7.5994-1.75991 2.6324 0 5.2305.60177 7.5993 1.75991 2.3689 1.15812 4.4468 2.84239 6.0785 4.92608 1.6316 2.08363 2.7748 4.51273 3.3443 7.10513.517 2.3529.5492 4.7853.0979 7.1467.5664.1236 1.1162.3259 1.6331.6036 1.0978.5896 1.9978 1.4925 2.5885 2.5946.5906 1.1021.8461 2.355.735 3.6021-.1111 1.2472-.584 2.4344-1.3604 3.4128-.6366.8024-1.4544 1.4354-2.3815 1.8481.0304.2114.046.4257.0461.6412v2.9334.0031c-.0024.5861-.1198 1.1661-.3456 1.7065-.2257.5405-.5554 1.0309-.9703 1.4428-.415.4119-.9071.7371-1.448.9564-.5393.2188-1.1164.3278-1.6979.3208h-1.1216v3.0248c0 .4061-.3292.7353-.7353.7353s-.7353-.3292-.7353-.7353v-3.0248h-22.7367v3.0248c0 .4061-.3292.7353-.7353.7353s-.7353-.3292-.7353-.7353v-3.0248h-1.1232c-.581.0047-1.15711-.1061-1.69547-.3258-.53937-.2201-1.03005-.5451-1.44422-.9562-.41415-.4111-.74369-.9002-.97014-1.4391-.22646-.5389-.34549-1.1173-.35051-1.7022l-.00005-.0063.00002-2.9328.00001-.0016c.00046-.2149.01619-.4285.0467-.6393-.92786-.4128-1.74632-1.046-2.38345-1.849-.7764-.9784-1.24924-2.1656-1.36034-3.4128-.1111-1.2471.14436-2.5.735-3.6021.59069-1.1021 1.49072-2.005 2.58845-2.5946.54159-.2909 1.11929-.4991 1.71437-.6208-.44787-2.356-.41449-4.7823.10118-7.1295.56953-2.5924 1.71272-5.0215 3.34435-7.10513 1.6317-2.08369 3.7096-3.76796 6.0784-4.92608zm23.1852 12.34681c.4839 2.2024.5048 4.4808.0637 6.6883-.1595.0034-.3193.013-.479.0287-1.2385.1218-2.413.6098-3.3769 1.4018-.9638.792-1.674 1.8526-2.0428 3.0486-.2465.7993-.3333 1.6358-.2601 2.4617-3.1172-.6991-6.2908-1.1328-9.4871-1.2945-.0248-.0012-.0496-.0012-.0743 0-3.2025.162-6.382.597-9.505 1.2985.0739-.8272-.0128-1.6651-.2597-2.4657-.3688-1.196-1.079-2.2566-2.0427-3.0486-.9639-.792-2.1385-1.28-3.37701-1.4018-.1313-.0129-.26268-.0217-.39397-.0263-.44151-2.2082-.42077-4.4875.06326-6.6907.52237-2.3777 1.57072-4.6047 3.06592-6.51406 1.4951-1.90937 3.3983-3.45159 5.5665-4.5116 2.1681-1.06001 4.5453-1.61047 6.9534-1.61047s4.7853.55046 6.9534 1.61047c2.1682 1.06001 4.0714 2.60223 5.5665 4.5116 1.4952 1.90936 2.5435 4.13636 3.0659 6.51406zm2.3003 17.4792c.649-.316 1.2232-.7758 1.6782-1.3491.5971-.7525.9618-1.667 1.0475-2.6292s-.1115-1.9282-.5664-2.7769c-.4548-.8487-1.1467-1.5419-1.9881-1.9938s-1.7953-.6429-2.7428-.5497c-.9474.0932-1.8475.4666-2.5873 1.0745-.7399.608-1.2868 1.4237-1.5711 2.3457-.2397.7773-.2836 1.6004-.131 2.3952 1.4316.3634 2.85.7832 4.2519 1.259.9009.2895 1.6862.86 2.2435 1.6279.1378.1898.2599.3893.3656.5964zm-7.4102-2.1051c1.4599.3652 2.9059.7905 4.3343 1.2754l.0126.0041c.6034.1928 1.1317.5752 1.5076 1.093.3759.5179.5793 1.1442.5799 1.7881v2.9303c-.0019.3935-.0808.7826-.2321 1.1448-.1514.3625-.3722.6907-.6493.9658-.2771.275-.605.4915-.9646.6373s-.7439.2181-1.1309.213h-27.9402-.0065c-.387.0034-.771-.0702-1.13023-.2167-.35922-.1466-.68681-.3634-.96387-.6385-.27708-.275-.4982-.6028-.65038-.965-.1518-.3612-.23194-.7493-.2357-1.1422v-2.9286c.00154-.6452.20689-1.2724.5851-1.7904.37829-.518.90948-.8991 1.51528-1.0898l.0157-.0053c1.4272-.4845 2.872-.9095 4.3306-1.2745.1466.0077.2894-.0291.4116-.1012 3.312-.8015 6.6934-1.2937 10.1016-1.4685 3.3983.1743 6.7701.6642 10.0728 1.4616.1285.0789.2807.1184.4367.1073zm-30.12472.756c.45565.5743 1.03104 1.0346 1.68126 1.3506.10735-.2097.23142-.4116.37155-.6034.56067-.7678 1.34957-1.3367 2.25333-1.6229 1.39548-.4735 2.80728-.8917 4.23208-1.2539.1537-.7962.1101-1.6209-.1301-2.3998-.2843-.922-.8312-1.7377-1.5711-2.3457-.7398-.6079-1.6398-.9813-2.58729-1.0745-.94744-.0932-1.90141.0978-2.74273.5497-.84141.4519-1.53332 1.1451-1.98816 1.9938-.45488.8487-.6521 1.8147-.56639 2.7769.08572.9622.45044 1.8767 1.04755 2.6292z" fill-rule="evenodd"/></g></svg>