<svg fill="none" height="50" viewBox="0 0 50 50" width="50" xmlns="http://www.w3.org/2000/svg"><path d="m4.48907 28.0929h41.02143c.6028.0042 1.1798.248 1.6062.6786.4263.4306.6676 1.0133.6718 1.6223v9.2196h-45.57751v-9.1872c-.00211-.3043.05514-.606.16848-.888.11334-.2819.28055-.5385.49209-.7552.21155-.2167.46327-.3891.7408-.5075s.57544-.1805.87671-.1826z" stroke="#f18303" stroke-linecap="round" stroke-linejoin="round"/><path d="m47.7887 39.646v2.3008c.0042.3057-.0514.6092-.1638.893s-.2793.5423-.491.7607c-.2118.2184-.4642.3923-.7428.5117s-.5778.182-.8805.1841h-41.02136c-.30264-.0021-.60187-.0647-.88046-.1841s-.53103-.2933-.74278-.5117-.37863-.4769-.49101-.7607c-.11239-.2838-.16807-.5873-.16383-.893v-2.3008" stroke="#f18303" stroke-linecap="round" stroke-linejoin="round"/><circle cx="4.98828" cy="47.0801" fill="#f18303" r=".5"/><circle cx="45.0117" cy="47.165" fill="#f18303" r=".5"/><g stroke="#f18303" stroke-linecap="round" stroke-linejoin="round"><path d="m4.48901 28.093v-9.171c0-1.2204.48003-2.3909 1.33447-3.2539s2.01332-1.3478 3.22168-1.3478h31.90904c1.2084 0 2.3673.4848 3.2217 1.3478.8545.863 1.3345 2.0335 1.3345 3.2539v9.171"/><path d="m4.48901 28.0929c.00849-1.8251.73226-3.5725 2.01301-4.8599 1.28075-1.2875 3.01421-2.0103 4.82118-2.0103h6.8343c1.8085 0 3.5436.7222 4.8269 2.0093 1.2833 1.287 2.0106 3.0343 2.0233 4.8609"/><path d="m25.0078 28.0929c.0042-.9078.1857-1.8059.534-2.6428.3484-.8369.8567-1.5961 1.496-2.2343s1.397-1.1427 2.2296-1.4847c.8327-.342 1.7239-.5147 2.6228-.5083h6.8342c1.7986.0127 3.5198.7412 4.7902 2.0273 1.2703 1.2861 1.9875 3.0262 1.9959 4.8428"/></g><g fill="#f18303"><path clip-rule="evenodd" d="m3.98828 27.6413v-8.7193c0-1.3514.5315-2.6485 1.47916-3.6057.94782-.9573 2.2344-1.496 3.57699-1.496h31.90907c1.3426 0 2.6292.5387 3.577 1.496.9477.9572 1.4792 2.2543 1.4792 3.6057v8.719c.5508.1042 1.0615.3738 1.4623.7786.5186.5238.8114 1.2318.8165 1.9706v.0034 9.2197l-.0002.014c.0003.0064.0004.0128.0004.0192v2.2974c.0047.3697-.0629.7368-.199 1.0804-.1364.3447-.3392.659-.5969.9247-.2576.2658-.5651.4777-.9047.6233-.3397.1456-.7047.2219-1.074.2245h-.0035-41.02485c-.36929-.0026-.7343-.0789-1.07396-.2245-.33965-.1456-.64709-.3575-.90475-.6233-.25765-.2657-.46044-.58-.59693-.9247-.13604-.3435-.2036-.7106-.19895-1.0803v-2.2975l.0002-.014c-.00024-.0064-.00037-.0128-.00037-.0192v-9.1856c-.00232-.3687.06714-.7343.20456-1.0761.13765-.3424.34086-.6544.59826-.918.2574-.2637.56398-.4738.90234-.6182.1844-.0786.37623-.1369.57213-.1741zm2.18977-11.6214c.76107-.7687 1.79224-1.1996 2.86638-1.1996h31.90907c1.0742 0 2.1053.4309 2.8664 1.1996.7612.7689 1.1898 1.8127 1.1898 2.9021v5.4701c-.3126-.5402-.6943-1.0427-1.1394-1.4933-1.3629-1.3798-3.2105-2.1623-5.1424-2.176h-6.836c-.9647-.0066-1.9211.1789-2.8144.5459-.8939.3671-1.707.9086-2.3929 1.5933-.6858.6846-1.231 1.4989-1.6044 2.396-.026.0624-.0511.1251-.0753.1881-.3688-.9545-.933-1.831-1.6672-2.5672-1.3766-1.3806-3.2389-2.1563-5.181-2.1562h-6.8342c-1.94081-.0001-3.80163.7763-5.17569 2.1576-.45334.4557-.84153.965-1.15853 1.5132v-5.4715c0-1.0894.42854-2.1332 1.18977-2.9021zm18.81495 12.5729c.0041.0001.0083.0002.0125.0002.0058 0 .0115-.0001.0172-.0002h20.4704l.0166.0002h.0031l.0082-.0001c.4648.007.9099.1965 1.2403.5303.3336.3369.5235.7938.5272 1.2723v8.7178h-44.57751l.00002-8.6873-.00003-.0034c-.00166-.2393.04337-.4765.1324-.698.08904-.2215.22026-.4227.38594-.5924s.36255-.3045.57925-.397c.21207-.0905.43921-.1387.66901-.1423l.0107.0001.01656-.0002zm19.9956-1h-19.4589c.0553-.6703.2149-1.3287.4737-1.9505.3233-.7766.7949-1.4809 1.3877-2.0726.5927-.5917 1.295-1.0592 2.0663-1.376.7714-.3169 1.5968-.4768 2.4292-.4709h6.836c1.6648.0123 3.2588.6867 4.4362 1.8787 1.0604 1.0736 1.7059 2.4891 1.8298 3.9913zm-22.359-4.0079c1.0718 1.075 1.7262 2.4969 1.8543 4.0079h-19.47377c.1246-1.5099.77599-2.932 1.84564-4.0073 1.18743-1.1936 2.79353-1.8629 4.46673-1.8628h6.8342c1.6749-.0001 3.2829.6688 4.4729 1.8622zm24.6591 16.5284v1.834.007c.0034.2403-.0404.4789-.1287.7019-.0883.2229-.2193.4257-.3851.5967-.1658.1711-.3633.307-.5808.4003-.217.093-.4499.1417-.6853.1436h-41.01775c-.23541-.0019-.46827-.0506-.68527-.1436-.21753-.0933-.41497-.2292-.58081-.4003-.16586-.171-.29682-.3738-.38511-.5967-.08828-.223-.13203-.4616-.1287-.7019v-1.841z" fill-rule="evenodd"/><path d="m4.98828 47.5801c.27614 0 .5-.2239.5-.5 0-.2762-.22386-.5-.5-.5s-.5.2238-.5.5c0 .2761.22386.5.5.5z"/><path d="m45.5117 47.165c0 .2762-.2238.5-.5.5-.2761 0-.5-.2238-.5-.5 0-.2761.2239-.5.5-.5.2762 0 .5.2239.5.5z"/></g></svg>