<svg fill="none" height="34" viewBox="0 0 34 34" width="34" xmlns="http://www.w3.org/2000/svg"><g stroke="#00ac83" stroke-linecap="round" stroke-linejoin="round"><path d="m3.1097 22.2658c-.06279-.1445-.06876-.3073-.01671-.456.05204-.1487.15826-.2723.29744-.3461.08856-.0482.18794-.0731.28876-.0722h26.65391c.166 0 .3251.0659.4424.1832.1174.1174.1833.2765.1833.4424-.0002.0982-.025.1947-.0722.2808l-1.4117 2.8394h-24.94548z"/><path d="m4.52963 25.1052-1.60421 5.4303c-.02606.08-.03591.1644-.02898.2483.00692.0839.03049.1655.06931.2402.03883.0747.09215.1409.15683.1947.06469.0538.13946.0942.21994.1189.06121.0083.12327.0083.18448 0h1.16305c.13334.0013.26363-.04.37185-.1179.10821-.0779.18871-.1884.22973-.3153l1.73255-5.7912z"/><path d="m29.4749 25.1052 1.6043 5.4303c.026.08.0359.1644.0289.2483-.0069.0839-.0305.1655-.0693.2402s-.0921.1409-.1568.1947-.1395.0943-.2199.1189c-.0613.0078-.1233.0078-.1845 0h-1.1791c-.1347.0021-.2663-.0399-.3749-.1195-.1086-.0797-.1882-.1926-.2267-.3217l-1.7325-5.7912z"/><path d="m17.6196 6.40021h-13.72399c-.68664 0-1.24327.55663-1.24327 1.24326v8.73493c0 .6866.55663 1.2433 1.24327 1.2433h13.72399c.6866 0 1.2433-.5567 1.2433-1.2433v-8.73493c0-.68663-.5567-1.24326-1.2433-1.24326z"/><path d="m12.6323 17.6221h-3.73777v3.7378h3.73777z"/><path d="m28.8433 17.6221h-3.7378v3.7378h3.7378z"/><path d="m26.3477 17.6215v-2.4945"/><path d="m27.5979 17.6216 1.8689-2.4945"/><path d="m26.3477 5.14844v2.49454l1.8769 1.25129"/><path d="m26.3446 12.6325c2.7554 0 4.9891-2.2337 4.9891-4.98911 0-2.7554-2.2337-4.98909-4.9891-4.98909s-4.9891 2.23369-4.9891 4.98909c0 2.75541 2.2337 4.98911 4.9891 4.98911z"/><path d="m10.1362 15.1271h1.2513"/></g></svg>