<svg fill="none" height="50" viewBox="0 0 50 50" width="50" xmlns="http://www.w3.org/2000/svg"><g fill="#00ac83"><path d="m39.2484 7.57117c0-.27614-.2239-.5-.5-.5s-.5.22386-.5.5v3.66843c0 .1672.0835.3233.2226.416l2.7602 1.8402c.2298.1531.5402.0911.6934-.1387s.0911-.5402-.1387-.6934l-2.5375-1.6917z"/><path clip-rule="evenodd" d="m30.9069 11.2402c0-4.32818 3.5087-7.83688 7.8369-7.83688s7.8369 3.5087 7.8369 7.83688c0 4.3282-3.5087 7.8369-7.8369 7.8369s-7.8369-3.5087-7.8369-7.8369zm7.8369-6.83688c-3.7759 0-6.8369 3.06098-6.8369 6.83688s3.061 6.8369 6.8369 6.8369 6.8369-3.061 6.8369-6.8369-3.061-6.83688-6.8369-6.83688z" fill-rule="evenodd"/><path d="m14.9083 21.7456c-.2761 0-.5.2239-.5.5s.2239.5.5.5h1.8402c.2761 0 .5-.2239.5-.5s-.2239-.5-.5-.5z"/><path clip-rule="evenodd" d="m3.40234 11.2404c0-1.2859 1.04243-2.32832 2.32833-2.32832h20.18233c1.2859 0 2.3284 1.04242 2.3284 2.32832v12.8455c0 1.2859-1.0425 2.3283-2.3284 2.3283h-6.8342v4.5439h17.3428v-5.0433c0-.2762.2239-.5.5-.5h1.3268v-3.1693c0-.2762.2239-.5.5-.5s.5.2238.5.5v3.1693h1.0879l2.5989-3.469c.1656-.221.4789-.2659.6999-.1004.221.1656.266.479.1004.7l-2.1497 2.8694h.8326c.2762 0 .5.2238.5.5v5.0433h1.6914c.3766 0 .7378.1496 1.0042.4159.2663.2663.4159.6275.4159 1.0041-.0004.2245-.0562.446-.1625.6435l-1.9759 3.9743 2.293 7.7617c.0571.1787.0786.3668.0631.5539-.0156.1895-.0689.374-.1566.5427-.0878.1687-.2082.3183-.3544.44-.1462.1216-.3151.213-.497.2686-.0271.0083-.0549.0143-.0831.0179-.1205.0153-.2424.0167-.3632.004h-1.7018c-.3055.0038-.604-.0918-.8505-.2725-.2475-.1815-.4289-.4389-.5167-.733l-2.427-8.1125h-28.604l-2.43377 8.1349c-.09311.288-.27592.5386-.52155.7155-.24489.1763-.53956.27-.84127.2676h-1.67755c-.12283.0137-.24693.0121-.36948-.0046-.02665-.0036-.05296-.0094-.07868-.0173-.18185-.0557-.35079-.147-.49696-.2686-.14617-.1217-.26665-.2713-.35439-.44-.08773-.1687-.14098-.3532-.15663-.5428-.01544-.187.00603-.3752.06316-.5538l2.29323-7.7626-1.99226-4.0296-.00729-.0154-.00307-.0069c-.14251-.328-.15606-.6976-.03794-1.0351.11783-.3366.35801-.6166.67275-.7842.20354-.1103.43165-.1673.66313-.1657h7.16727v-4.5439h-6.85133c-1.2859 0-2.32833-1.0424-2.32833-2.3283zm2.32833-1.32832c-.73361 0-1.32833.59472-1.32833 1.32832v12.8455c0 .7336.59472 1.3283 1.32833 1.3283h20.18233c.7337 0 1.3284-.5947 1.3284-1.3283v-12.8455c0-.7336-.5947-1.32832-1.3284-1.32832zm-.32205 22.04602c-.06333-.0006-.12576.015-.1814.0453l-.00478.0026c-.09347.0495-.16479.1325-.19973.2324-.03384.0967-.03114.2023.00737.297l1.9208 3.885 3.38222.0109c.0636.0002.1256.0125.1832.0354h28.9272c.0655-.0307.1377-.0472.212-.0472h3.4058l1.9147-3.8511c.003-.006.0061-.012.0094-.0179.029-.053.0443-.1125.0445-.1729-.0002-.1112-.0444-.2178-.1231-.2965-.0787-.0788-.1856-.123-.297-.123h-39.19695zm34.93248 5.5086h2.6467l2.2394 7.5801.004.0131c.0178.0546.0245.1121.0198.1693-.0047.0571-.0208.1128-.0472.1637-.0265.0509-.0628.096-.1069.1327-.0335.0278-.0709.0504-.111.067-.0336.0017-.0673.0004-.1007-.0039-.021-.0027-.0421-.004-.0632-.004h-1.734l-.0078.0001c-.089.0014-.176-.0264-.2478-.079-.0718-.0527-.1244-.1273-.1499-.2127zm-35.55764 7.5801 2.23933-7.5801h2.62667l-2.34293 7.8314c-.02795.0834-.0814.156-.15286.2075-.07266.0523-.16013.08-.24966.0791h-1.71539c-.02262 0-.04522.0015-.06764.0046-.03144.0043-.06318.0056-.09481.0039-.04062-.0167-.07854-.0395-.11242-.0676-.04408-.0367-.08042-.0818-.10688-.1327s-.04252-.1066-.04724-.1637c-.00472-.0572.002-.1147.01975-.1693zm8.79854-14.1353v-4.4967h4.4968v4.4967zm23.8396-4.4967v4.4967h4.4968v-4.4967z" fill-rule="evenodd"/></g></svg>