<svg fill="none" height="25" viewBox="0 0 25 25" width="25" xmlns="http://www.w3.org/2000/svg"><path d="m14.6661 8.55132c-.0322.27427.1641.52266.4384.55481.2742.03215.5226-.16412.5548-.43838zm2.4053-3.04872c.1817-.20796.1604-.52382-.0475-.70551-.208-.18168-.5239-.16038-.7055.04757zm2.6627-1.60257.3778.3276.0019-.00232zm-.2632-.58789.0294-.49915-.0029-.00015zm-1.107-.05879-.4858.11847c.0523.21437.2389.36912.4593.38082zm-.2565-1.05168-.4879.10959.0021.00889zm-.27-.26782.1146-.48668c-.0051-.00121-.0103-.00234-.0155-.00339zm-.3712.11758-.3664-.34028c-.0042.00453-.0083.00913-.0123.0138zm-.9518 1.10393.3778.3276.0009-.00111zm2.268 1.84207.3777.32759zm-14.61468 5.50687h.5v-.0001zm.73574-.71857v-.50002l-.0044.00004zm16.26724.71857h.5zm0 8.6159h-.5zm-.7425.712.0044-.5h-.0044zm-13.91341-.0516c-.02845-.2747-.27418-.4743-.54885-.4458-.27467.0284-.47428.2742-.44583.5488zm-.20035 2.9191.49782-.0469-.00048-.0046zm1.62672 0-.49736-.0515-.00043.0046zm.79434-2.8161c.02845-.2746-.17116-.5204-.44583-.5488-.27468-.0285-.5204.1711-.54885.4458zm11.1098 0c.0285-.2746-.1711-.5204-.4458-.5488-.2747-.0285-.5204.1711-.5488.4458zm-.7943 2.8161.4956.066c.0007-.0048.0012-.0096.0017-.0145zm-.8167.6951v-.5zm-.8168-.6951-.4974.0504c.0005.0052.0011.0104.0018.0156zm.2072-2.9179c-.0278-.2748-.273-.4749-.5478-.4471-.2747.0278-.4749.273-.4471.5478zm-13.45698-6.1784c-.27614 0-.5.2239-.5.5 0 .2762.22386.5.5.5zm17.02998 1c.2761 0 .5-.2238.5-.5 0-.2761-.2239-.5-.5-.5zm-9.6397-3.1491c-.2761 0-.5.2238-.5.5 0 .2761.2239.5.5.5zm2.2207 1c.2762 0 .5-.2239.5-.5 0-.2762-.2238-.5-.5-.5zm2.2347-2.65597v-.5zm-.7425 0v-.5zm-1.4782-1.43054h-.5zm0-1.07127h.5001l-.0002-.00966zm.3712-.35927-.009.5h.009zm2.9632 0v.5h.0001zm.3645.35927-.5-.00957v.00957zm-11.84467 8.59658h-.5zm1.11373-.3593.0088-.5h-.0088zm.36449.3593-.5-.0001v.0001zm0 3.5861h-.5zm-1.10698.3528v-.5h-.00008zm-.37124-.3528h-.50009l.00018.0094zm1.47633-3.5866-.5.0003.00001.0016zm.38475-.3593-.0176.4997c.00586.0002.01173.0003.0176.0003zm1.11372.3593h.5zm0 3.5861.5.0094v-.0094zm-.37124.3528.00008-.5h-.00008zm-.74248 0v-.5h-.00008zm-.37125-.3528-.50005.0019.00014.0075zm1.47145-3.5856h-.5zm1.47819 3.5861h-.49996v.0001zm-.37121.3528.00897-.5h-.00897zm-.73573 0v-.5001l-.00896.0001zm-.37125-.3528.5.0001v-.0001zm1.55339-2.7047.4017-.2978-.0043-.0056zm.081-.4964.2847.411.0009-.0006zm.6008-.4181-.2822-.4128-.0034.0024zm.5197.0784.4018-.2978-.0076-.0097zm2.16 2.9134.4062-.2917-.0046-.0061zm-.0878.4964.2856.4104.0005-.0003zm-.6007.4181-.2856-.4105-.0052.0037zm-.513-.0784.402-.2974-.0004-.0004zm3.3377-11.02015c.1365-1.16496.6271-2.26659 1.4121-3.16515l-.753-.65794c-.9161 1.04847-1.4919 2.3382-1.6523 3.70666zm4.4545-4.44244c.1043-.1217.1731-.27072.1967-.43097l-.9893-.14577c.0042-.02888.0164-.05428.0332-.07382zm.1967-.43097c.0236-.16032.0008-.32346-.0652-.47079l-.9127.40868c-.0114-.02557-.0157-.05471-.0114-.08366zm-.0652-.47079c-.0659-.14717-.1716-.2715-.3032-.36079l-.5614.82757c-.0193-.01312-.0367-.03269-.0481-.0581zm-.3032-.36079c-.1315-.0892-.2845-.14049-.4418-.14976l-.0588.99827c-.0205-.00121-.0416-.0079-.0608-.02094zm-.4447-.14992-1.107-.05879-.053.99859 1.1069.05879zm-.6478.32203-.2564-1.05167-.9716.23695.2565 1.05167zm-.2544-1.04276c-.0357-.15919-.1166-.30335-.231-.41683l-.7042.70997c-.0189-.01877-.0337-.04413-.0405-.07401zm-.231-.41683c-.1142-.11334-.2574-.19165-.4122-.22811l-.2292.97337c-.022-.00517-.044-.01666-.0628-.03529zm-.4277-.2315c-.1501-.03036-.3058-.0221-.4519.02419l.3019.95333c-.0159.00503-.0323.00585-.0482.00263zm-.4519.02419c-.1463.04632-.2793.12956-.3848.24318l.7327.68056c-.0139.01495-.0301.02454-.046.02959zm-.3971.25698-.9518 1.10393.7574.65297.9517-1.10393zm-.9508 1.10282c-.3401.39215-.5077.90233-.4611 1.4183l.996-.08993c-.0218-.24108.0558-.48323.2206-.67318zm-.4611 1.4183c.0466.51579.3027.98838.7058 1.31584l.6305-.77623c-.1983-.16108-.3186-.38827-.3403-.62954zm.7058 1.31584c.4026.327.9199.48377 1.438.43996l-.0843-.99645c-.2641.02234-.5243-.05819-.7232-.21974zm1.438.43996c.5182-.04383 1.0011-.28531 1.3407-.67685l-.7555-.65519c-.1652.19056-.4054.31326-.6695.33559zm1.3407-.67685.9517-1.0974-.7554-.65518-.9518 1.09739zm-14.49238 5.17918c0-.0522.02118-.1058.06443-.148l-.6987-.71543c-.23232.22689-.36574.53693-.36573.86353zm.06443-.148c.04379-.0428.10664-.0699.17571-.0705l-.0088-.99995c-.32242.00284-.63383.12866-.86561.35502zm.17131-.0705h15.52474v-.99997h-15.52474zm15.52474 0c.0695 0 .133.0269.1773.0698l.6954-.71861c-.2342-.22662-.5484-.35116-.8727-.35116zm.1773.0698c.0437.0423.0652.0962.0652.1488h1c0-.3286-.1351-.64025-.3698-.86741zm.0652.1488v8.6159h1v-8.6159zm0 8.6159c0 .0256-.0053.0515-.0159.0761l.9184.3957c.0642-.149.0975-.3094.0975-.4719zm-.0159.0761c-.0106.0247-.0267.0482-.0481.0688l.6922.7217c.1166-.1119.2102-.2459.2743-.3948zm-.0481.0688c-.0214.0205-.0477.0376-.0778.0494l.3658.9307c.15-.059.2875-.1465.4042-.2584zm-.0778.0494c-.0301.0118-.0629.018-.0963.0177l-.0089.9999c.161.0015.321-.028.471-.0869zm-.1007.0177h-15.52474v1h15.52474zm-15.52474 0c-.06771 0-.12949-.0262-.17253-.0679l-.69542.7186c.23291.2254.54541.3493.86795.3493zm-.17253-.0679c-.04249-.0411-.06321-.0933-.06321-.1441h-1c0 .3268.13432.6368.36779.8627zm-.06321-.1441v-8.6159h-1v8.6159zm.85239.7634.29699 2.8676.99468-.103-.29699-2.8676zm.29654 2.863c.03066.3254.18564.6244.42943.8398l.66211-.7494c-.05719-.0506-.0896-.1168-.09595-.1842zm.42943.8398c.24334.215.558.3319.88172.3319v-1c-.08381 0-.16198-.0304-.21961-.0813zm.88172.3319c.32373 0 .63839-.1169.88173-.3319l-.66211-.7494c-.05763.0509-.1358.0813-.21962.0813zm.88173-.3319c.24379-.2154.39877-.5144.42943-.8398l-.99559-.0938c-.00635.0674-.03876.1336-.09595.1842zm.42897-.8352.297-2.8676-.99468-.103-.297 2.8676zm10.4122-2.9706-.297 2.8676.9946.103.297-2.8676zm-.2953 2.8531c-.009.0672-.0433.1324-.1014.1819l.6481.7615c.2426-.2064.4023-.4943.4445-.8114zm-.1014.1819c-.0585.0497-.1365.0792-.2197.0792v1c.3171 0 .6257-.1116.8678-.3177zm-.2197.0792c-.0833 0-.1613-.0295-.2198-.0792l-.6481.7615c.2421.2061.5508.3177.8679.3177zm-.2198-.0792c-.0581-.0495-.0924-.1147-.1013-.1819l-.9913.132c.0422.3171.2019.605.4445.8114zm-.0995-.1662-.2903-2.8676-.9949.1007.2903 2.8676zm-13.74728-8.046h17.02998v-1h-17.02998zm7.39028-2.1491h2.2207v-1h-2.2207zm5.4336-4.08651c0 .2414-.0989.47637-.2807.65224l.6955.7186c.3727-.36069.5852-.85344.5852-1.37084zm-.2807.65224c-.1823.17641-.4329.2783-.6975.2783v.99997c.5194 0 1.0208-.1995 1.393-.55967zm-.6975.2783h-.7425v.99997h.7425zm-.7425 0c-.1307 0-.2598-.02493-.3797-.073l-.372.92817c.2388.0958.4941.1448.7517.1448zm-.3797-.073c-.1198-.04805-.2277-.11808-.3179-.2053l-.6954.7186c.1844.17845.4025.31917.6413.41487zm-.3179-.2053c-.0901-.08719-.1606-.18981-.2084-.30154l-.9194.39349c.1008.23538.248.44817.4324.62665zm-.2084-.30154c-.0478-.1117-.0722-.23082-.0722-.3507h-1c0 .25584.0521.50876.1528.74419zm-.0722-.3507v-1.07127h-1v1.07127zm-.0001-1.08093c.0004.02217-.0038.04382-.012.06347l-.9231-.38468c-.0448.10763-.067.2235-.0647.34053zm-.012.06347c-.0082.0196-.0199.03627-.0335.04947l-.6954-.7186c-.083.08028-.1493.17687-.1942.28445zm-.0335.04947c-.0136.01317-.0289.02267-.0445.02877l-.3636-.93156c-.1066.04158-.2044.10394-.2873.18419zm-.0445.02877c-.0156.00609-.0318.00889-.0477.0086l.0181-.99984c-.114-.00206-.2275.01811-.334.05968zm-.0387.00868h2.9632v-1h-2.9632zm2.9633 0c-.0157 0-.0317-.00301-.0471-.00926l.3762-.92656c-.1048-.04251-.2166-.0642-.3293-.06418zm-.0471-.00926c-.0154-.00626-.0305-.01585-.0438-.02903l.702-.7122c-.0813-.08007-.1773-.14281-.282-.18533zm-.0438-.02903c-.0134-.01322-.0249-.02981-.0329-.04922l.9248-.38043c-.0438-.10652-.1087-.20243-.1899-.28255zm-.0329-.04922c-.008-.01947-.0121-.04087-.0117-.06279l.9998.01913c.0022-.11565-.0194-.2302-.0633-.33677zm-.0118-.05322v1.07127h1v-1.07127zm-10.84467 8.59658c0 .0427-.01769.0802-.04355.1052l-.69543-.7186c-.16511.1598-.26102.3801-.26102.6134zm-.04355.1052c-.02532.0245-.05625.0355-.08521.0355v-1c-.22587 0-.44566.0867-.61022.2459zm-.08521.0355h.74249v-1h-.74249zm.73369-.0001c-.02864-.0005-.05915-.0118-.08404-.0363l.70199-.7122c-.16123-.1589-.37714-.2474-.60035-.2513zm-.08404-.0363c-.02541-.025-.04267-.0622-.04267-.1044l1 .0002c.00004-.2306-.09359-.4485-.25534-.608zm-.04267-.1043v3.5861h1v-3.5861zm0 3.5861c0-.0444.0184-.0836.04553-.1099l.69543.7186c.16384-.1585.25904-.3771.25904-.6087zm.04553-.1099c.02658-.0257.05923-.0373.08998-.0373v1c.22408 0 .44216-.086.60545-.2441zm.08998-.0373h-.74249v1h.74249zm-.74257 0c.02864 0 .05918.0107.08434.0346l-.68881.7249c.16401.1559.38139.2405.60463.2405zm.08434.0346c.02568.0244.04362.0611.04441.1032l-.99982.0188c.00433.2305.10205.4466.2666.6029zm.0445.1126v-3.5861h-1v3.5861zm1.47633-3.5869c.00002.0213-.00443.0419-.01259.0605l-.91583-.4016c-.04715.1076-.07166.2238-.07158.3417zm-.01259.0605c-.00814.0186-.01956.0342-.0327.0465l-.68249-.7309c-.08497.0793-.15351.1754-.20064.2828zm-.0327.0465c-.0131.0122-.02769.0209-.04249.0264l-.34738-.9377c-.10803.04-.20769.1011-.29262.1804zm-.04249.0264c-.01479.0055-.03005.0078-.04507.0073l.03519-.9994c-.11477-.004-.2295.0144-.3375.0544zm-.02747.0076h.74248v-1h-.74248zm.74248 0c-.02895 0-.05989-.0109-.0852-.0354l.69542-.7186c-.16455-.1593-.38434-.246-.61022-.246zm-.0852-.0354c-.02587-.0251-.04356-.0626-.04356-.1053h1c0-.2333-.09591-.4536-.26102-.6133zm-.04356-.1053v3.5861h1v-3.5861zm.00009 3.5767c.0008-.0421.01873-.0788.04442-.1032l.6888.7249c.16456-.1563.26228-.3724.26661-.6029zm.04442-.1032c.02515-.0239.05569-.0346.08433-.0346l-.00016 1c.22324 0 .44062-.0846.60463-.2405zm.08425-.0346h-.74248v1h.74248zm-.74256 0c.02863 0 .05918.0107.08433.0346l-.68881.7249c.16402.1559.38139.2405.60464.2405zm.08433.0346c.02568.0244.04362.0611.04441.1032l-.99982.0188c.00433.2305.10205.4466.2666.6029zm.0445.1108-.0135-3.5862-.99999.0038.0135 3.5861zm1.47145-3.5838c0 .0427-.01768.0802-.04355.1052l-.69542-.7186c-.16512.1598-.26103.3801-.26103.6134zm-.04355.1052c-.02532.0245-.05625.0355-.0852.0355v-1c-.22588 0-.44567.0867-.61022.2459zm-.0852.0355h.73573v-1h-.73573zm.73573 0c-.02895 0-.05989-.011-.0852-.0355l.69541-.7186c-.1645-.1592-.38433-.2459-.61021-.2459zm-.0852-.0355c-.02587-.025-.04355-.0625-.04355-.1052h.99996c0-.2333-.0959-.4536-.261-.6134zm-.04355-.1052v3.5861h.99996v-3.5861zm0 3.5862c-.00001-.0219.00453-.0432.01287-.0624l.91749.3977c.0458-.1057.0697-.2198.0696-.3355zm.01287-.0624c.00832-.0192.02003-.0355.03359-.0484l.6888.725c.0827-.0786.1493-.1733.1951-.2789zm.03359-.0484c.01353-.0128.02866-.0221.04411-.0281l.35949.9332c.1055-.0406.2026-.1016.2852-.1801zm.04411-.0281c.01542-.0059.0314-.0086.04714-.0084l-.01792.9999c.11261.002.22483-.0177.33027-.0583zm.03818-.0084h-.73573v1h.73573zm-.74469 0c.01574-.0002.03172.0025.04714.0084l-.35949.9332c.10544.0406.21766.0603.33027.0583zm.04714.0084c.01545.006.03058.0153.04411.0281l-.68881.725c.08266.0785.17975.1395.28521.1801zm.04411.0281c.01356.0129.02527.0292.03359.0484l-.9175.3977c.04579.1057.11241.2003.1951.2789zm.03359.0484c.00834.0192.01288.0405.01287.0624l-1-.0002c-.00002.1157.02381.2298.06963.3355zm.01287.0623v-3.5861h-1v3.5861zm1.45079-3.0081c.012.0156.0212.0343.0265.0551l-.96953.245c.02822.1117.0789.2159.14825.3068zm.0265.0551c.0053.0209.0062.0428.0027.0642l-.98693-.161c-.01857.1138-.01354.2301.0147.3418zm.0027.0642c-.0035.0214-.0112.0412-.022.0581l-.8431-.5378c-.0616.0966-.10326.2049-.12183.3187zm-.022.0581c-.0108.017-.0243.0305-.0389.0406l-.56939-.822c-.09317.0645-.17325.1471-.23481.2436zm-.038.04.6008-.4181-.5712-.8208-.60077.4181zm.5973-.4157c-.0253.0173-.0539.023-.0804.019l.1491-.9888c-.2206-.0333-.4473.0174-.633.1443zm-.0804.019c-.0267-.004-.0549-.0185-.0762-.0458l.7884-.6151c-.1396-.179-.3424-.2946-.5631-.3279zm-.0836-.0556 2.1599 2.9133.8033-.5955-2.1599-2.9134zm2.1554 2.9072c-.0221-.0309-.0324-.0718-.0251-.1131l.9847.1741c.0401-.2271-.014-.4587-.1473-.6443zm-.0251-.1131c.0072-.041.03-.073.0574-.0922l.5722.8202c.1853-.1293.315-.3272.3551-.5539zm.0579-.0925-.6007.4181.5712.8208.6007-.4181zm-.6059.4217c.0144-.0103.03-.0172.0456-.0209l.2303.9732c.1095-.026.2135-.0729.3057-.1388zm.0456-.0209c.0156-.0036.0316-.0043.0473-.0019l-.1511.9885c.1111.017.2246.0125.3341-.0134zm.0473-.0019c.0156.0024.0314.0079.0462.0168l-.5128.8584c.0971.0581.2044.0964.3155.1133zm.0462.0168c.0149.0089.029.0212.0407.037l-.804.5947c.068.0919.1533.1687.2505.2267zm.0403.0366-2.1599-2.9133-.80332.5955 2.15992 2.9134z" fill="#f18303"/></svg>