<svg fill="none" height="50" viewBox="0 0 50 50" width="50" xmlns="http://www.w3.org/2000/svg"><g fill="#00ac83"><path d="m38.6914 19.1084c.2762 0 .5-.2239.5-.5s-.2238-.5-.5-.5c-.2761 0-.5.2239-.5.5s.2239.5.5.5z"/><path d="m36.9688 26.5752c0 .2761-.2239.5-.5.5-.2762 0-.5-.2239-.5-.5s.2238-.5.5-.5c.2761 0 .5.2239.5.5z"/><path d="m43.9805 29.6943c.2761 0 .5-.2238.5-.5 0-.2761-.2239-.5-.5-.5-.2762 0-.5.2239-.5.5 0 .2762.2238.5.5.5z"/><g clip-rule="evenodd" fill-rule="evenodd"><path d="m38.0549 2.13507c.1862-.13233.4089-.20343.6373-.20343s.4511.0711.6373.20343c.1824.12966.3209.31182.397.52207 1.0528 2.61547 3.3774 8.48606 5.4407 14.25686 1.0326 2.8884 2.0019 5.7575 2.7136 8.1836.7048 2.4023 1.1781 4.4369 1.1781 5.6202l-.0003.0145c-.0779 2.676-1.215 5.2115-3.1615 7.0495-1.8217 1.7202-4.2129 2.6976-6.7057 2.7539v7.032c0 .2761-.2238.5-.5.5-.2761 0-.5-.2239-.5-.5v-7.018c-1.2889.0031-2.5669-.2576-3.7545-.7681-.9605-.4129-1.843-.9811-2.6135-1.6792v8.8433c.003.1418-.0215.2828-.0721.4153-.0515.135-.1292.2585-.2285.3635s-.2184.1894-.3503.2484c-.132.0589-.2742.0913-.4187.0953l-.0137.0003-5.8304-.0001c-.1444-.004-.2867-.0366-.4187-.0955-.1319-.059-.2509-.1434-.3503-.2484-.0993-.105-.1769-.2285-.2285-.3635-.0506-.1325-.0751-.2736-.0721-.4153v-3.5111h-1.9651c-.0866 0-.1681-.0221-.2391-.0608l-.0109 3.5728c.0028.1415-.0217.2822-.0721.4144-.0516.135-.1292.2586-.2286.3635-.0993.105-.2183.1894-.3503.2484-.1319.059-.2742.0914-.4187.0953l-.0136.0004-5.7804-.0002c-.1445-.004-.2867-.0365-.4187-.0955-.1319-.059-.251-.1434-.3503-.2484-.0993-.1049-.177-.2285-.2285-.3635-.0506-.1325-.0751-.2735-.0721-.4152v-3.5112h-2.2503l-.0164-.0003v3.5114c.0029.1418-.0215.2828-.0721.4153-.0516.135-.1292.2585-.2286.3635-.0993.105-.2183.1894-.3503.2484-.1319.0589-.2742.0913-.4187.0953l-.0136.0003-5.83041-.0001c-.14446-.004-.28673-.0366-.41869-.0955-.13195-.059-.25098-.1434-.3503-.2484s-.17697-.2285-.22852-.3635c-.05059-.1325-.07507-.2736-.07212-.4153v-16.4173c.00372-.2796.10368-.5494.28299-.764.00657-.0079.01339-.0155.02044-.023l2.91066-3.077c.09502-.1067.21117-.1925.34112-.2521.13365-.0612.27883-.0933.42584-.0939h.00287c.14748.0001.29333.0309.42833.0903.13395.0589.25433.1448.35365.2522l2.89604 3.0792c.2051.2131.3203.4971.3214.793v.0019 2.6332l.0164-.0002h2.2503v-2.6396c.0037-.2796.1036-.5494.2829-.7639.0066-.0079.0134-.0156.0205-.023l2.9126-3.0791c.0989-.1089.2197-.1958.3544-.2551.1366-.0601.2845-.0904.4337-.0889.1464.001.2909.033.424.094.1299.0595.2461.1454.3411.2521l2.9107 3.077c.007.0074.0138.0151.0204.023.1793.2145.2792.4843.2829.7639l.0002.0082-.0083 2.6766c.0634-.029.1339-.0452.2082-.0452h1.9651v-2.6349c.0011-.2959.1163-.5799.3213-.793l2.8961-3.0792c.0993-.1074.2197-.1933.3537-.2522.135-.0594.2808-.0902.4283-.0903h.0029c.147.0006.2922.0327.4258.0939.1149.0527.219.1259.3073.2159.0099.0089.0195.0182.0288.0279l.3696.3882c1.8035-7.0219 6.9615-20.11248 8.684-24.38725.0762-.2102.2146-.39233.397-.52198zm-16.4163 40.35883c.0704-.0379.1509-.0593.2364-.0593h1.9651v-8.2666h-1.9651c-.0754 0-.1468-.0167-.2109-.0466zm3.2027.4609c.0002-.0067.0004-.0135.0004-.0202 0-.0075-.0002-.0148-.0005-.0222l-.0004-.0079-.0007-.01v-9.1865c.0006-.0079.0011-.0159.0013-.0239l.0003-.0161c0-.0135-.0006-.0269-.0016-.0401v-3.0916c.0003-.0385.0154-.0755.0423-.1032l.0052-.0055 2.9-3.0833.0041-.0044c.0062-.0068.0138-.0122.0222-.0159.0079-.0035.0165-.0054.0251-.0056.0044.0002.0086.0012.0126.003.0043.002.0081.0048.0112.0084.0152.0174.0312.0335.0481.0483l.9374.9843.0108.0131.0085.0097.0087.0095 1.9034 2.0192c.0273.0362.0426.08.0437.1254v16.4124l.0002.0141c.0004.0131-.0018.0262-.0065.0384-.0047.0123-.0118.0236-.0208.0331-.009.0096-.0198.0172-.0318.0226-.0108.0048-.0224.0077-.0341.0085h-5.7972c-.0118-.0008-.0234-.0037-.0341-.0085-.0037-.0016-.0072-.0035-.0106-.0055-.0042-.0025-.0082-.0053-.012-.0084-.0032-.0027-.0064-.0056-.0093-.0087-.009-.0095-.0161-.0208-.0208-.0331-.0047-.0122-.0069-.0253-.0065-.0384l.0002-.0141v-3.977c.0003-.0039.0006-.0078.0008-.0117.0001-.0027.0003-.0055.0004-.0082zm4.9487-15.0486 1.7306 1.8359c.0068.0072.0134.0147.0198.0223.1793.2146.2793.4844.283.764l.0001.0066-.0001 6.1448c.8279.9414 1.8554 1.6874 3.0085 2.1831 1.0626.4568 2.2062.6899 3.3595.6868v-18.3153c0-.2762.2239-.5.5-.5.2762 0 .5.2238.5.5v12.1937l2.8337-3.0506c.1879-.2023.5043-.214.7066-.0261.2023.188.214.5043.0261.7067l-3.5664 3.8394v4.6379c2.2379-.0561 4.3833-.936 6.0191-2.4807 1.752-1.6543 2.7762-3.9358 2.8484-6.3441-.002-1.0185-.4284-2.9139-1.1376-5.3315-.7039-2.3994-1.6659-5.248-2.6958-8.1284-2.0592-5.7598-4.3814-11.62365-5.4305-14.22955-.0029-.00739-.0057-.01485-.0084-.02238-.0068-.0196-.0195-.0366-.0365-.04864-.0169-.01203-.0371-.01849-.0579-.01849s-.041.00646-.0579.01849c-.017.01203-.0297.02903-.0365.04864-.0027.00759-.0055.01511-.0085.02256-1.7825 4.42312-7.1809 18.13397-8.7993 24.88487zm-18.365 14.5286.0164-.0002h2.2503v-8.2666h-2.2503l-.0164-.0003zm-3.97383-15.1108c-.00793-.0035-.01646-.0054-.02511-.0056-.00433.0002-.00859.0012-.01253.003-.00431.002-.00815.0048-.01127.0084-.00457.0053-.00925.0104-.01404.0155l-2.90301 3.0689c-.02719.0361-.04246.0798-.04355.1251v16.4265c-.00037.0131.00165.0262.00634.0384.00468.0123.01174.0236.02077.0331s.01985.0172.03185.0226c.01078.0048.02232.0077.0341.0085h5.79718c.0118-.0008.0233-.0037.0341-.0085.012-.0054.0228-.0131.0319-.0226.009-.0095.0161-.0208.0207-.0331.0047-.0122.007-.0253.0066-.0384l-.0004-.0141.0002-16.4154c-.0003-.0385-.0155-.0755-.0423-.1032l-.0053-.0055-2.90401-3.0876c-.00623-.0068-.01378-.0123-.02222-.016zm10.21363-.0014c.0066-.0029.0136-.0043.0208-.0042h.0038c.0047 0 .0094.0011.0137.003.0043.002.0082.0049.0113.0085.0046.0052.0092.0104.014.0154l2.903 3.0689c.0271.036.0424.0795.0436.1246l-.05 16.4114.0002.0156c.0004.0131-.0019.0262-.0066.0385-.0046.0123-.0117.0235-.0207.033-.0091.0096-.0199.0173-.0319.0226-.0108.0048-.0223.0077-.0341.0085h-5.7472c-.0118-.0008-.0233-.0037-.0341-.0085-.012-.0053-.0228-.013-.0318-.0226-.0091-.0095-.0161-.0207-.0208-.033s-.0069-.0254-.0065-.0385l.0002-.0141v-16.4123c.0011-.0453.0163-.0891.0435-.1252l2.903-3.0689.0095-.0103c.0048-.0053.0106-.0095.0171-.0124z"/><path d="m11.8662 9.50351c-.7073-2.56017-3.07872-4.28515-5.63999-4.18279l-.01704.00098c-3.0617.22724-5.373853 2.73557-5.264008 5.8174.109328 3.0673 2.522968 5.4714 5.601098 5.4714h7.70214c1.8364 0 3.3303-1.2016 3.7852-2.9742.0026-.0099.0048-.0198.0067-.0298.3391-1.762-.4515-3.5478-2.061-4.38403l-.0123-.00621c-1.3792-.66879-2.9416-.56507-4.1008.28725zm-5.59155-3.18392c-2.53555.19251-4.42023 2.25581-4.33012 4.78391.09073 2.5456 2.07831 4.507 4.60173 4.507h7.70214c1.3594 0 2.4632-.8708 2.8128-2.208.2532-1.3487-.3538-2.6714-1.5368-3.2895-1.3125-.63333-2.7495-.34638-3.5867.6975-.1267.158-.3361.2239-.5305.1671-.1943-.0569-.3352-.2254-.3567-.4268-.2718-2.54175-2.44158-4.31998-4.77585-4.23121z"/></g></g></svg>