<svg fill="none" height="15" viewBox="0 0 15 15" width="15" xmlns="http://www.w3.org/2000/svg"><g fill="#03a9f1"><path d="m11.3273 1.89141c0-.15-.15-.3-.3-.3s-.3.15-.3.3.15.3.3.3.3-.15.3-.3z"/><path d="m7.92188 1.59141c.15 0 .3.15.3.3s-.15.3-.3.3-.3-.15-.3-.3.15-.3.3-.3z"/><path clip-rule="evenodd" d="m2.09766 2.90042v-2.218299c0-.025116.00212-.0493.00612-.072495-.00401-.019573-.00612-.039842-.00612-.060603 0-.165685.13431-.3.3-.3h9.98234c.0925 0 .2072.014234.3097.072802.1187.067865.2121.193547.2121.360296v2.218299c0 .19949-.1032.36275-.2476.46595-.1399.09992-.316.14461-.496.14461h-9.31688c-.18003 0-.35614-.04469-.49603-.14461-.14447-.1032-.24763-.26646-.24763-.46595zm.6-2.051397v.730667h3.39375v-.730667zm3.39375 1.330667h-3.39375v.70086c.01826.01148.06343.03043.14366.03043h3.25009zm6.06679.73129h-2.36132v-2.061957h2.50492v2.031527c-.0183.01148-.0634.03043-.1436.03043zm-2.96132-2.061957h-2.50547v2.061957h2.50547z" fill-rule="evenodd"/><path d="m8.68828 10.2645c0-.1657-.13431-.30005-.3-.30005-.16568 0-.3.13435-.3.30005v1.3309c0 .1657.13432.3.3.3.16569 0 .3-.1343.3-.3z"/><path d="m6.61406 9.96504c.16569 0 .3.13436.3.29996v1.331c0 .1657-.13431.3-.3.3-.16568 0-.3-.1343-.3-.3v-1.331c0-.1656.13432-.29996.3-.29996z"/><path clip-rule="evenodd" d="m11.9361 6.85898h-.8069v-.12413l.3016-.08225c.3692-.08013.6518-.44624.5806-.87349-.031-.18573-.1121-.36097-.2521-.49165-.1426-.13311-.3283-.20269-.5319-.20269h-.0982v-.14356c0-.16568-.1343-.3-.3-.3h-2.21826c-.16569 0-.3.13432-.3.3v1.91777h-1.52921c.22291-.27836.35431-.63522.35431-1.03066 0-.16568-.13432-.3-.3-.3h-3.32745c-.16568 0-.3.13432-.3.3 0 .39544.1314.7523.35431 1.03066h-.54435c-.10222 0-.19335.04247-.25514.08366-.06106.04071-.1234.09976-.17077.17899-.06552.08665-.08483.18614-.08483.26473 0 .09354.02591.18365.06495.26172.00603.01206.01286.02369.02046.03483l.59793.87697-.77261 4.20642c-.07262.2476.01585.4863.16843.6389.09574.0957.26806.2297.48159.2593l-.28148.7037c-.06153.1539.01329.3285.16713.39.15383.0615.32842-.0133.38996-.1671l.36823-.9206h7.5782l.3683.9206c.0615.1538.2361.2286.3899.1671.1539-.0615.2287-.2361.1672-.39l-.2809-.702c.1749-.0178.3659-.0939.5027-.283.1395-.153.2167-.3809.1474-.6169l-.7746-4.21751.5442-.85518c.0713-.08876.092-.19258.092-.27398 0-.07239-.0155-.14273-.0406-.20703-.023-.12123-.0969-.21345-.1817-.26996-.0935-.06235-.1995-.08366-.2884-.08366zm-8.76937.6.4984.73098h7.66267l.4651-.73098h-.9459c-.0058.00035-.0118.00052-.0178.00052h-2.21826c-.00598 0-.01192-.00017-.01782-.00052h-3.05465c-.0111.00021-.02224.00032-.03341.00032h-.66549c-.01117 0-.02231-.00011-.03341-.00032zm7.36247-2.10016c-.0007.00855-.0011.01721-.0011.02595s.0004.01739.0011.02594v1.44827h-1.61826v-1.61777h1.61826zm.6.32595h.0982c.0626 0 .0988.01915.1225.04132.0264.0246.0562.07119.0696.15165.0168.10073-.049.17513-.1178.1889-.0068.00135-.0135.00293-.0201.00475l-.1524.04155zm-5.59706 1.17421h-.71965c-.47055-.01092-.84329-.30616-.96315-.73066h2.64595c-.11986.4245-.4926.71974-.96315.73066zm5.96736 6.21152c-.0039-.0001-.0078-.0001-.0117 0h-3.6878v-4.28054h3.4449l.7534 4.10234c.0026.0138.0061.0274.0105.0407.0026.0078.0025.0138.0007.0203-.0021.0078-.0074.0181-.017.0276-.0139.014-.0265.0293-.0374.0457-.0128.0191-.0244.027-.0354.032-.0135.0061-.0358.0119-.07.0119zm-4.2995 0h-3.68478c-.0039-.0001-.0078-.0001-.01168 0h-.34951s-.00426 0-.01348-.0028c-.00932-.0028-.02178-.0078-.03696-.016-.03134-.0171-.06426-.0427-.09235-.0708-.00953-.0095-.01484-.0198-.01698-.0276-.00178-.0065-.00189-.0125.00072-.0203.00443-.0133.00793-.0269.01046-.0407l.75349-4.10234h3.44107z" fill-rule="evenodd"/></g></svg>