<svg fill="none" height="25" viewBox="0 0 25 25" width="25" xmlns="http://www.w3.org/2000/svg"><g fill="#03a9f1"><path d="m18.8789 3.15234c0-.25-.25-.5-.5-.5s-.5.25-.5.5.25.5.5.5.5-.25.5-.5z"/><path d="m13.2031 2.65234c.25 0 .5.25.5.5s-.25.5-.5.5-.5-.25-.5-.5.25-.5.5-.5z"/><path clip-rule="evenodd" d="m3.49609 4.83403v-3.69716c0-.04186.00354-.08217.01021-.12083-.00669-.032619-.01021-.066399-.01021-.101001 0-.276142.22386-.5.5-.5h16.63721c.1542 0 .3453.023723.5161.121336.198.113108.3536.322578.3536.600495v3.69716c0 .33248-.1719.60459-.4127.77658-.2332.16654-.5267.24102-.8267.24102h-15.52807c-.30004 0-.59356-.07448-.82671-.24102-.24079-.17199-.41273-.4441-.41273-.77658zm1-3.41899v1.21777h5.65621v-1.21777zm5.65621 2.21777h-5.65621v1.1681c.03045.01914.10573.05072.23944.05072h5.41677zm10.1113 1.21882h-3.9355v-3.43659h4.1749v3.38587c-.0304.01914-.1057.05072-.2394.05072zm-4.9355-3.43659h-4.1758v3.43659h4.1758z" fill-rule="evenodd"/><path d="m14.4805 17.1074c0-.2761-.2239-.5-.5-.5-.2762 0-.5.2239-.5.5v2.2183c0 .2762.2238.5.5.5.2761 0 .5-.2238.5-.5z"/><path d="m11.0234 16.6084c.2762 0 .5.2239.5.5v2.2183c0 .2761-.2238.5-.5.5-.2761 0-.5-.2239-.5-.5v-2.2183c0-.2761.2239-.5.5-.5z"/><path clip-rule="evenodd" d="m19.8935 11.4316h-1.3448v-.2069l.5027-.137c.6153-.1336 1.0862-.7438.9675-1.45586-.0516-.30954-.1867-.60161-.42-.81941-.2377-.22185-.5472-.33782-.8865-.33782h-.1637v-.23926c0-.27614-.2238-.5-.5-.5h-3.6971c-.2762 0-.5.22386-.5.5v3.19625h-2.5487c.3715-.4639.5905-1.0587.5905-1.71773 0-.27614-.2239-.5-.5-.5h-5.54574c-.27615 0-.5.22386-.5.5 0 .65903.219 1.25383.59051 1.71773h-.90725c-.17037 0-.32225.0708-.42524.1395-.10176.0678-.20567.1662-.28461.2983-.1092.1444-.14138.3102-.14138.4412 0 .1559.04318.3061.10824.4362.01005.0201.02144.0395.0341.0581l.99655 1.4616-1.28767 7.0107c-.12104.4127.0264.8104.28071 1.0647.15956.1596.44676.383.80265.4323l-.46913 1.1729c-.10256.2564.02215.5473.27854.6499s.54738-.0222.64993-.2785l.61373-1.5344h12.63036l.6137 1.5344c.1026.2563.3936.3811.65.2785s.3811-.3935.2785-.6499l-.468-1.1701c.2914-.0297.6097-.1565.8378-.4717.2325-.255.3611-.6347.2457-1.0281l-1.2911-7.0292.907-1.4253c.1189-.1479.1534-.321.1534-.4566 0-.1207-.0258-.2379-.0677-.3451-.0383-.202-.1615-.3557-.3028-.4499-.1559-.1039-.3326-.1395-.4807-.1395zm-14.61561 1 .83065 1.2183h12.77106l.7753-1.2183h-1.5765c-.0098.0006-.0197.0009-.0297.0009h-3.6971c-.01 0-.0199-.0003-.0297-.0009h-5.09111c-.01851.0004-.03708.0006-.05569.0006h-1.10915c-.01861 0-.03718-.0002-.05569-.0006zm12.27081-3.50023c-.0012.01425-.0018.02867-.0018.04324s.0006.02899.0018.04324v2.41375h-2.6971v-2.69625h2.6971zm1 .54324h.1637c.1043 0 .1645.03192.2041.06887.044.041.0937.11865.116.25276.028.16787-.0816.29186-.1964.31486-.0112.0022-.0224.0049-.0335.0079l-.2539.0692zm-9.32847 1.95699h-1.19941c-.78426-.0182-1.40549-.5102-1.60526-1.2177h4.40994c-.1998.7075-.821 1.1995-1.60527 1.2177zm9.94557 10.3525c-.0064-.0001-.0129-.0001-.0194 0h-6.1464v-7.1342h5.7414l1.2558 6.8372c.0043.023.0101.0457.0175.0678.0043.0131.0041.023.0012.0339-.0036.0131-.0124.0301-.0283.046-.0233.0233-.0442.0488-.0625.0762-.0213.0319-.0406.0449-.0589.0533-.0226.0102-.0597.0198-.1166.0198zm-7.1658 0h-6.14131c-.0065-.0001-.01298-.0001-.01946 0h-.58251s-.0071 0-.02248-.0046c-.01552-.0046-.03629-.0129-.06159-.0267-.05224-.0285-.10711-.0712-.15392-.118-.01588-.0159-.02472-.0329-.0283-.046-.00296-.0109-.00314-.0208.0012-.0339.00739-.0221.01321-.0448.01743-.0678l1.25582-6.8372h5.73512z" fill-rule="evenodd"/></g></svg>