<svg fill="none" height="50" viewBox="0 0 50 50" width="50" xmlns="http://www.w3.org/2000/svg"><g fill="#f94409"><path d="m31.5 15.9082c0 .2762-.2239.5-.5.5s-.5-.2238-.5-.5c0-.2761.2239-.5.5-.5s.5.2239.5.5z"/><path d="m39.5859 32.6846c.2762 0 .5.2239.5.5v9.2998c0 .2762-.2238.5-.5.5-.2761 0-.5-.2238-.5-.5v-7.4717h-.857c-.2762 0-.5-.2238-.5-.5 0-.2761.2238-.5.5-.5h.857v-.8281c0-.2761.2239-.5.5-.5z"/><path clip-rule="evenodd" d="m31.5963 33.0097c.2269.2219.3373.5228.3373.8392v7.9712c0 .3164-.1104.6173-.3373.8392-.226.2209-.5281.3251-.8422.3251h-3.3973c-.5179 0-.9899-.1707-1.3347-.5078-.3459-.3381-.5242-.8051-.5242-1.3207v-6.6428c0-.5156.1783-.9825.5242-1.3207.3448-.3371.8168-.5078 1.3347-.5078h3.3973c.3141 0 .6162.1042.8422.3251zm-.6991.7151c-.0119-.0116-.0495-.0402-.1431-.0402h-3.3973c-.2974 0-.5049.095-.6357.2229-.1297.1268-.2232.3241-.2232.6056v6.6428c0 .2815.0935.4788.2232.6056.1308.1279.3383.2229.6357.2229h3.3973c.0936 0 .1312-.0286.1431-.0402.0109-.0106.0364-.0418.0364-.1241v-7.9712c0-.0822-.0255-.1135-.0364-.1241z" fill-rule="evenodd"/><path d="m36.9414 34.5127c0 .2762-.2239.5-.5.5s-.5-.2238-.5-.5c0-.2761.2239-.5.5-.5s.5.2239.5.5z"/><path clip-rule="evenodd" d="m15.8087 6.11251 21.7736 4.84859c.9855.2194 1.4652 1.2216 1.2338 2.2606l-3.1264 14.0401c-.1497.6721-.5623 1.204-1.1018 1.4365h6.3583c1.7603 0 3.2179 1.4089 3.2179 3.1571v3.4854h3.3515c.1861 0 .3466.1017.4298.2525v-1.7493c0-.2761.2238-.4979.4999-.4952.2762.0026.5.2286.5.5047v7.9713c0 .2761-.2238.4979-.5.4952-.2761-.0026-.4999-.2286-.4999-.5047v-1.7585c-.0865.16-.256.2692-.4489.2692h-3.3324v3.4862c0 1.7482-1.4576 3.1571-3.2179 3.1571h-16.3071c-1.7603 0-3.2179-1.4089-3.2179-3.1571v-11.9568c0-1.7482 1.4576-3.1571 3.2179-3.1571h8.5834l-2.3214-.517-.0111-.0023-.011-.0026-13.9344-3.1029c.0246.1016.0367.2071.0367.314v6.7946c0 .1208-.0154.2398-.0469.3534.0649.0536.1148.1094.1492.1514.1158.1415.2131.3208.2913.5107.1578.3833.2701.8896.2701 1.4304v10.4637c0 .5146-.0709 1.0171-.2122 1.4095-.0701.1944-.1675.3904-.306.5466-.1414.1595-.3586.3105-.6461.3105h-6.3636l-.0116.0001-.0117-.0001h-6.23422c-.30626 0-.51056-.2129-.6028-.3256-.11584-.1415-.21316-.3207-.29133-.5107-.15778-.3832-.27014-.8896-.27014-1.4303v-10.4637c.00005-.5145.07101-1.0173.21226-1.4095.02319-.0644.04939-.1289.07909-.1922l-.75962-.5827c-.01883-.0144-.0366-.0302-.05319-.0472-.18492-.1891-.34298-.4433-.39889-.7292-.05643-.2886-.0061-.6179.23269-.8854l3.82888-5.5371c.20023-.3039.47548-.488.77955-.5502.29372-.0601.575.0012.79287.1126.02697.0138.05263.03.07667.0484l.53282.4088c.03506-.3187.20265-.5722.39232-.742.20342-.182.48366-.3143.76523-.3143h1.32851c.2513 0 .4928.0697.6927.212.185-.1272.4096-.212.635-.212h1.2258l-3.95398-.8804c-.98555-.2195-1.46517-1.2217-1.23382-2.2607l3.1264-14.04005c.2314-1.03895 1.091-1.74295 2.0765-1.52349l2.7115.60378.012.00254zm-3.836 1.13169c.1439-.64586.5718-.83405.8831-.76475l2.2354.49779-2.3815 10.69466c-.0053.0161-.0099.0326-.0137.0496-.0038.0169-.0066.0338-.0086.0507l-1.1306 5.0771-2.23542-.4978c-.31123-.0693-.61891-.4213-.47509-1.0672zm1.5933 11.1832-1.0331 4.6392 18.0865 4.0275 1.033-4.6392zm18.3038 3.0514 2.284-10.2567-18.0865-4.0275-1.0332 4.6398 13.8561 3.0855c.2695.06.4393.3272.3793.5967-.06.2696-.3272.4394-.5967.3794l-13.8561-3.0855-1.0334 4.6408zm-28.17449 23.6129v-9.4658l5.91016 4.4178v6.3146h-5.60468c-.03119-.0472-.07021-.1187-.11062-.2169-.10794-.2622-.19486-.6392-.19486-1.0497zm6.40929-5.9234-6.40263-4.7859c.01827-.333.0728-.6206.14643-.825.00642-.0178.01278-.0345.01905-.05.09891.0073.1974-.0001.29196-.0194.12232-.025.23817-.0694.34512-.1266h4.64583l.02563.0002h1.32851l.0257-.0002h1.2764l.0256.0002h1.3286l.0256-.0002h1.2765l.0256.0002h1.3285l.0257-.0002h.4968c.0312.0472.0703.1187.1107.2169.0778.1889.1446.4375.1759.7153zm6.5404-3.6403v9.5637c0 .4366-.0619.8174-.1531 1.0706-.0352.0978-.069.1602-.0934.196h-5.793v-6.3159zm31.3004 4.0507v-3.5072c-.0865.1599-.256.2692-.4489.2692h-3.3324v2.9855h3.3515c.1861 0 .3466.1017.4298.2525zm-4.7813-7.7233v3.9386c-.0008.0064-.0013.0129-.0018.0193-.0007.0091-.0011.0183-.0013.0275-.0004.0223.0006.0443.0031.0659v3.8727c-.0018.0154-.0028.0309-.0031.0467-.0004.0223.0006.0443.0031.0659v3.9202c0 1.1747-.9885 2.1571-2.2179 2.1571h-16.3071c-1.2294 0-2.2179-.9824-2.2179-2.1571v-11.9568c0-1.1747.9885-2.1571 2.2179-2.1571h16.3071c1.2294 0 2.2179.9824 2.2179 2.1571zm-34.15238-5.0484c.01361-.0983.01269-.1967 0-.2917v-1.1278c0-.0308.01374-.0733.06595-.12.02558-.0229.05386-.0402.07847-.0507.01418-.006.02302-.0081.02603-.0088h1.32233c.0822 0 .1135.0256.1241.0364.0106.0109.0354.0432.0396.1201l-.0002.023v6.7946l.0002.0236c-.0043.0765-.029.1087-.0396.1195-.01.0102-.0384.0335-.1105.0362h-1.3557c-.07212-.0027-.10048-.026-.11048-.0362-.0116-.0119-.0402-.0495-.0402-.1431zm-1-.1958v.0662c-.01799.0192-.03443.0399-.04917.0617l-3.79523 5.6223h-.30774c-.03089 0-.06097.0017-.09024.005l-.90133-.6914c-.06707-.0755-.10206-.1507-.11163-.1997-.0029-.0148-.00286-.0237-.00256-.0277l.00223-.0024c.01971-.0202.03769-.042.05372-.0652l3.85278-5.5716.00763-.0113c.06515-.1.12034-.1176.14632-.1229.03026-.0062.06824-.0034.10638.01l.9846.7553c.05534.0623.08883.1244.10424.1717zm-2.63788 5.7502 2.63788-3.9078v3.7285c0 .0604.00384.1203.01163.1793zm6.33436-.0362c-.0106-.0108-.0353-.043-.0396-.1195l.0002-.0236v-6.7946l-.0001-.0128c.0036-.0294.0199-.0667.0652-.1072.0256-.0229.0539-.0402.0785-.0507.0142-.006.023-.0081.026-.0088h1.3224c.0822 0 .1134.0256.1241.0364.0106.0109.0354.0432.0395.1201l-.0002.023v6.7946l.0002.0236c-.0043.0765-.029.1087-.0395.1195-.01.0102-.0384.0335-.1105.0362h-1.3557c-.0722-.0027-.1005-.026-.1105-.0362zm2.063-7.9583c.0281.0164.0556.0341.0823.0531.0129-.0089.0261-.0176.0394-.0261zm.5537 7.8388.0002-.0236v-6.7946l-.0001-.0128c.0035-.0294.0199-.0667.0652-.1072.0255-.0229.0538-.0402.0784-.0507.0142-.006.0231-.0081.0261-.0088h1.3223c.0822 0 .1135.0256.1241.0364.0116.0119.0402.0495.0402.1431v6.7946c0 .0936-.0286.1312-.0402.1431-.01.0102-.0384.0335-.1105.0362h-1.3557c-.0721-.0027-.1005-.026-.1105-.0362-.0105-.0108-.0352-.043-.0395-.1195zm17.2706-4.8942 2.235.4977c.3113.0693.7392-.1189.8831-.7648l3.1264-14.0401c.1438-.6458-.1638-.9978-.4751-1.0671l-2.235-.4978zm-15.3076 5.9858c0-.0006.0035.0022.0104.0097-.0069-.0055-.0104-.0092-.0104-.0097zm-12.23548 13.1251c-.00001.0005-.00349-.0022-.01039-.0098.00695.0055.0104.0093.01039.0098z" fill-rule="evenodd"/><path d="m20.2539 32.8614c.2761 0 .5-.2239.5-.5 0-.2762-.2239-.5-.5-.5s-.5.2238-.5.5c0 .2761.2239.5.5.5z"/><path d="m20.2539 43.8252c.2761 0 .5-.2238.5-.5 0-.2761-.2239-.5-.5-.5s-.5.2239-.5.5c0 .2762.2239.5.5.5z"/></g></svg>