<svg fill="none" height="15" viewBox="0 0 15 15" width="15" xmlns="http://www.w3.org/2000/svg"><g fill="#f94409"><path d="m8.99767 5.00156c.16569 0 .3-.13431.3-.3 0-.16568-.13431-.3-.3-.3-.16568 0-.3.13432-.3.3 0 .16569.13432.3.3.3z"/><path d="m11.8757 9.65508c.1656 0 .3.13431.3.3v2.78992c0 .1657-.1344.3-.3.3-.1657 0-.3-.1343-.3-.3v-2.0915h-.1072c-.1657 0-.3-.1343-.3-.3s.1343-.3.3-.3h.1072v-.09842c0-.16569.1343-.3.3-.3z"/><path clip-rule="evenodd" d="m9.58244 9.79536c.10051.09826.14634.22894.14634.35904v2.3913c0 .1301-.04583.2608-.14634.359-.09989.0977-.23018.1403-.3575.1403h-1.0192c-.18846 0-.36971-.0625-.50528-.1951-.13618-.1331-.20239-.3136-.20239-.5034v-1.9929c0-.1898.06621-.3703.20239-.50343.13557-.13254.31682-.19509.50528-.19509h1.0192c.12732 0 .25761.04262.3575.14028zm-.45366.45974h-.92304c-.05613 0-.07872.0171-.08584.0241-.00651.0064-.02183.0251-.02183.0744v1.9929c0 .0493.01532.068.02183.0744.00712.007.02971.0241.08584.0241h.92304z" fill-rule="evenodd"/><path d="m11.0227 10.3881c0 .1657-.1343.3-.3.3s-.3-.1343-.3-.3.1343-.3.3-.3.3.1343.3.3z"/><path clip-rule="evenodd" d="m2.21451 6.28721c-.07809.35069.0696.72605.42184.84029-.08321.02219-.15751.06615-.21446.11712-.02946.02637-.05815.05813-.08332.09488l-.00282-.00217c-.01442-.01106-.02982-.02079-.046-.02907-.09086-.04647-.20981-.07306-.33622-.0472-.13243.02709-.2477.10679-.32807.22802l-1.14293 1.65282c-.102159.11936-.122335.26477-.098489.38673.023579.12059.088522.22212.159621.29484.009953.01018.020618.01964.031914.02831l.140653.1079c-.039488.12922-.057602.27992-.057635.42832v3.1395c0 .1818.037525.3531.092332.4863.026978.0655.062949.1335.110031.1911.032929.0402.133086.1526.296923.1526h3.78634c.14257 0 .24548-.0753.30605-.1436.05881-.0663.0961-.1444.12068-.2127.04991-.1385.07256-.3076.07256-.4737v-3.1391c0-.1817-.03753-.353-.09234-.48617-.02697-.06554-.06294-.1336-.11003-.19112l-.00081-.00099c.00186-.01858.00276-.03721.00276-.05578v-1.94328l3.35964.74812h-1.21348c-.55383 0-1.02458.40422-1.10367.93798-.02591-.13933-.1481-.24482-.29494-.24482-.16568 0-.3.13432-.3.3 0 .16569.13432.3.3.3.13098 0 .24236-.08393.28327-.20095l-.00001.00492v3.58709c0 .0015 0 .0029.00001.0044-.04092-.117-.15229-.2009-.28327-.2009-.16568 0-.3.1343-.3.3s.13432.3.3.3c.14676 0 .26891-.1054.2949-.2446.07898.5339.54979.9382 1.10371.9382h4.89215c.6077 0 1.1153-.4867 1.1153-1.0971v-.8956h.8368v.2964c0 .1657.1343.3007.3.3015.1656.0008.3-.1329.3-.2986v-2.3914c0-.16566-.1344-.30061-.3-.3014-.1657-.00079-.3.13288-.3.2986v.2991h-.8368v-.89569c0-.61047-.5076-1.09713-1.1153-1.09713h-1.5267c.0451-.07535.0787-.15947.0985-.24831l.9379-4.21203c.0825-.37064-.0871-.76884-.484-.8572l-7.3527-1.63731c-.39681-.08836-.71942.20021-.80196.57085zm1.52359-4.08161c.01483-.0666.04265-.09688.05712-.10771.01276-.00956.0208-.00968.02877-.00791l.52428.11675-.30219 1.35704c-.00398.0113-.00733.02295-.01.03494-.00267.01198-.00458.02396-.00577.03588l-.35956 1.61469c-.00384.011-.00708.02235-.00967.034-.0026.01165-.00447.0233-.00567.03489l-.30225 1.35734-.52428-.11675c-.00797-.00177-.01519-.00529-.0227-.01937-.0085-.01594-.02085-.05516-.00602-.12176zm.44543 3.50137-.24471 1.09895 5.13081 1.14253.24472-1.09895zm5.77858.99406c.00124-.00457.00239-.0092.00343-.01387.00104-.00468.00197-.00936.00278-.01403l.68208-3.06304.5263.1172c.008.00178.0152.0053.0227.01937.0085.01594.0209.05517.0061.12177l-.938 4.21203c-.0148.0666-.0426.09688-.0571.1077-.0128.00957-.0208.00969-.0288.00791l-.52631-.1172zm-.51735-.43719-5.13081-1.14253.2447-1.09889 3.34243.74429c.16173.03602.32202-.06589.35804-.22762.03601-.16172-.0659-.32202-.22762-.35803l-3.34244-.74429.24486-1.09963 5.13078 1.14253zm-5.59879 1.44827h-.19663v1.84607h.19663zm-2.58738 5.81539v-2.5406l1.4719 1.1002v1.6704h-1.43516c-.02037-.0596-.03674-.1411-.03674-.23zm1.77222-1.965 1.79382-1.3409c-.00528-.0229-.01137-.0442-.01786-.0632h-3.42282c-.03354.015-.06939.0269-.1073.0346l-.00084.0002c-.00308.0159-.00587.033-.00826.0513zm1.8127-.6059-1.51302 1.131v1.6699h1.48809c.01424-.0564.02493-.1359.02493-.23zm9.38999.0954h-.8368v.5959h.8368zm-12.34059-1.49355.35931-.53228v.53228zm.95931-1.50731v1.50704h.19687v-1.84607h-.19687v.23272c.00382.03442.00407.07019 0 .10631zm1.594 1.50704h.19687v-1.84607h-.19687zm-3.43387-.12755 1.06283-1.53698.14337.10999-1.04615 1.54977zm11.78435.12568c0-.26638-.2261-.49713-.5153-.49713h-4.89215c-.28919 0-.51535.23075-.51535.49713v3.58709c0 .2663.22616.4971.51535.4971h4.89215c.2892 0 .5153-.2308.5153-.4971z" fill-rule="evenodd"/></g></svg>