<svg fill="none" height="34" viewBox="0 0 34 34" width="34" xmlns="http://www.w3.org/2000/svg"><g fill="#f94409"><g clip-rule="evenodd" fill-rule="evenodd"><path d="m2.76653 22.8737c-.05399.1499-.09463.3893-.09463.6737v7.1154c0 .2583.05503.4939.12045.6529.00743.018.0146.0341.02137.0484h8.23888c.0033-.0084.0068-.0175.0105-.0275.054-.15.0946-.3894.0946-.6738v-7.1154c0-.2583-.055-.4939-.1205-.6528-.0074-.0181-.0146-.0342-.0213-.0485h-8.2389c-.00335.0084-.00685.0175-.01047.0276zm8.19827-.1154s.0002.0003.0008.0009zm-8.09996 8.6937c.00001 0-.00028-.0003-.00086-.001zm-.80027-9.3408c.11554-.1303.30348-.2651.55903-.2651h8.5824c.285 0 .4654.1966.5337.2801.0919.1123.1653.2494.2223.3877.1152.28.1957.645.1957 1.0335v7.1154c0 .3624-.0497.7236-.1538 1.0126-.0514.1428-.1263.2967-.2389.4237-.1155.1303-.3035.265-.559.265h-8.5824c-.28501 0-.46539-.1966-.53372-.2801-.09192-.1123-.16533-.2494-.22225-.3877-.11526-.28-.19573-.645-.19573-1.0335v-7.1154c0-.3624.0497-.7236.1538-1.0126.05143-.1428.12629-.2967.23887-.4236z"/><path d="m10.7728 3.99828c.2695.06002.4394.32719.3793.59673l-2.55114 11.45669c-.06002.2696-.32719.4394-.59673.3794s-.43939-.3272-.37937-.5967l2.55114-11.45675c.0601-.26954.3272-.43939.5968-.37937z"/><path d="m23.7373 6.88498c.2695.06002.4394.32718.3793.59672l-2.5511 11.4567c-.0601.2696-.3272.4394-.5968.3794-.2695-.06-.4394-.3272-.3793-.5967l2.5511-11.45675c.0601-.26954.3272-.43939.5968-.37937z"/><path d="m8.493 4.61178c-.07188.05382-.15567.16227-.19727.34909l-2.12598 9.54723c-.0416.1869-.01175.3206.0305.3998.04059.0762.09953.119.17116.135l16.66619 3.7112c.0717.0159.1432.0022.2123-.0495.0719-.0539.1556-.1623.1972-.3491l2.126-9.5473c.0416-.18682.0118-.32057-.0305-.39982-.0406-.07613-.0995-.11896-.1711-.13491l-16.66626-3.71124c-.07163-.01595-.14318-.00217-.21224.04955zm-1.17336.13173c.17132-.76938.82489-1.33063 1.60295-1.15737l16.66621 3.71124c.7781.17326 1.1317.9588.9604 1.72817l-2.126 9.54725c-.1713.7694-.8248 1.3306-1.6029 1.1574l-16.66624-3.7112c-.77807-.1733-1.13173-.9588-.9604-1.7282z"/><path d="m9.32839 8.19699c.06002-.26954.32718-.43939.59672-.37937l9.75359 2.17193c.2695.06005.4394.32715.3794.59675-.06.2695-.3272.4394-.5967.3793l-9.75364-2.17189c-.26954-.06002-.43939-.32718-.37937-.59672z"/><path d="m8.47664 12.0156c.06003-.2695.32719-.4394.59673-.3793l12.96263 2.8865c.2695.06.4394.3272.3794.5967-.0601.2695-.3272.4394-.5968.3794l-12.96259-2.8866c-.26954-.06-.43939-.3271-.37937-.5967z"/><path d="m9.22358 16.5561c.1609-.144.388-.2545.62706-.2545h.90346c.2525 0 .5003.0886.685.2775.1837.1879.2667.4356.2667.6845v4.6204c0 .2489-.083.4966-.2667.6845-.1847.1889-.4325.2775-.685.2775h-.90346c-.25258 0-.50032-.0886-.68501-.2775-.1837-.1879-.26669-.4356-.26669-.6845v-4.6204c0-.3116.15365-.5545.32464-.7075zm.67536.7455v4.5444h.80686v-4.5444z"/><path d="m7.41842 16.5562c.1609-.144.38801-.2544.62706-.2544h.90341c.25258 0 .50033.0886.68502.2775.1837.1879.26669.4356.26669.6845v4.6203c0 .2489-.08299.4967-.26669.6846-.18469.1889-.43244.2775-.68502.2775h-.90341c-.25258 0-.50032-.0886-.68501-.2775-.1837-.1879-.26669-.4357-.26669-.6846v-4.6203c0-.3116.15365-.5545.32464-.7076zm.67536.7456v4.5444h.80682v-4.5444z"/><path d="m5.61013 16.5561c.1609-.144.388-.2545.62706-.2545h.90341c.25258 0 .50033.0886.68501.2775.1837.1879.2667.4356.2667.6845v4.6204c0 .2489-.083.4966-.2667.6845-.18468.1889-.43243.2775-.68501.2775h-.90341c-.25258 0-.50032-.0886-.68501-.2775-.1837-.1879-.26669-.4356-.26669-.6845v-4.6204c0-.3116.15365-.5545.32464-.7075zm.67536.7455v4.5444h.80682v-4.5444z"/><path d="m4.46564 16.6352c.24057-.0492.46872.0012.64407.0909.02697.0138.05263.03.07667.0484l.72272.5545c.01883.0144.03661.0302.0532.0471.14241.1457.26858.3455.31386.5771.04559.2331.0064.5058-.18684.729l-2.59968 3.8512c-.01683.0249-.03587.0483-.05689.0698-.14192.1451-.33993.2773-.57351.3251-.24173.0494-.52102.0038-.74334-.2029l-.70013-.5371c-.01883-.0144-.0366-.0302-.05319-.0472-.14241-.1456-.26859-.3454-.31386-.577-.04577-.234-.00611-.5079.18906-.7316l2.59724-3.7559c.1578-.2388.37986-.3901.63062-.4414zm.19917.9996-.00375.0057-2.6085 3.7719c.00232.0032.00478.0065.0074.0097l.64123.4919 2.57125-3.809c-.00235-.0032-.00486-.0065-.00752-.0099z"/><path d="m29.1914 21.6613c0-.707-.5971-1.3068-1.3481-1.3068h-11.0888c-.7511 0-1.3482.5998-1.3482 1.3068v8.1307c0 .707.5971 1.3068 1.3482 1.3068h11.0888c.751 0 1.3481-.5998 1.3481-1.3068zm-1.3481-2.3068c1.2819 0 2.3481 1.0263 2.3481 2.3068v8.1307c0 1.2805-1.0662 2.3068-2.3481 2.3068h-11.0888c-1.2819 0-2.3482-1.0263-2.3482-2.3068v-8.1307c0-1.2805 1.0663-2.3068 2.3482-2.3068z"/><path d="m32.805 27.0823c-.0035.2761-.2303.4999-.5064.4999h-2.6147c-.2761 0-.4971-.2238-.4935-.4999.0036-.2762.2304-.5.5065-.5h2.6146c.2762 0 .4971.2238.4935.5z"/><path d="m32.805 24.3719c0 .2761-.2238.5-.5.5h-2.6146c-.2761 0-.5-.2239-.5-.5s.2239-.5.5-.5h2.6146c.2762 0 .5.2239.5.5z"/><path d="m32.9423 22.5171c.2761.0018.5.2271.5.5033v5.4204c0 .2762-.2239.4986-.5.4968s-.5-.2271-.5-.5033v-5.4204c0-.2762.2239-.4986.5-.4968z"/><path d="m26.9181 22.0654c.2762 0 .5.2239.5.5v6.3239c0 .2762-.2238.5-.5.5-.2761 0-.5-.2238-.5-.5v-6.3239c0-.2761.2239-.5.5-.5z"/><path d="m27.4181 23.4688c0 .2762-.2238.5-.5.5h-.9228c-.2761 0-.5-.2238-.5-.5 0-.2761.2239-.5.5-.5h.9228c.2762 0 .5.2239.5.5z"/><path d="m20.875 23.0654h-2.2722c-.1669 0-.2657.0525-.3204.106-.0537.0525-.1037.1435-.1037.2974v4.5171c0 .1539.05.245.1037.2974.0547.0535.1535.106.3204.106h2.2722zm.7225-.7333c.1889.1847.2775.4325.2775.685v5.4205c0 .2526-.0886.5003-.2775.685-.1879.1837-.4356.2667-.6845.2667h-2.3102c-.3875 0-.7507-.1282-1.0195-.3909-.2697-.2637-.4046-.6244-.4046-1.0125v-4.5171c0-.3881.1349-.7487.4046-1.0125.2688-.2627.632-.3909 1.0195-.3909h2.3102c.2489 0 .4966.083.6845.2667z"/><path d="m6.87112 26.5586c.27615 0 .5.2239.5.5v4.8052c0 .2761-.22385.5-.5.5-.27614 0-.5-.2239-.5-.5v-4.8052c0-.2761.22386-.5.5-.5z"/><path d="m1.77141 23.2479c.16533-.2212.47866-.2664.69984-.1011l4.69773 3.5115c.22118.1653.26646.4786.10113.6998s-.47866.2665-.69984.1011l-4.69773-3.5114c-.22118-.1654-.26646-.4787-.10113-.6999z"/><path d="m11.9693 23.2475c.1654.2212.1201.5345-.1011.6999l-4.69772 3.5114c-.22118.1654-.53451.1201-.69984-.1011s-.12005-.5345.10113-.6998l4.69773-3.5115c.2212-.1653.5345-.1201.6998.1011z"/></g><path d="m24.9844 23.4688c0 .2761-.2239.5-.5.5s-.5-.2239-.5-.5c0-.2762.2239-.5.5-.5s.5.2238.5.5z"/><path d="m13.9532 22.5654c0 .2762-.2239.5-.5.5-.2762 0-.5-.2238-.5-.5 0-.2761.2238-.5.5-.5.2761 0 .5.2239.5.5z"/><path d="m21.6172 10.8369c0 .2762-.2238.5-.5.5-.2761 0-.5-.2238-.5-.5 0-.2761.2239-.5.5-.5.2762 0 .5.2239.5.5z"/><path d="m13.9532 28.8896c0 .2762-.2239.5-.5.5-.2762 0-.5-.2238-.5-.5 0-.2761.2238-.5.5-.5.2761 0 .5.2239.5.5z"/></g></svg>