<svg fill="none" height="50" viewBox="0 0 50 50" width="50" xmlns="http://www.w3.org/2000/svg"><g fill="#00ac83"><g clip-rule="evenodd" fill-rule="evenodd"><path d="m24.5 28.4997v-9.6667h-1.0026c-.9797 0-1.8333-.9289-1.8333-2 0-1.1095.8905-2 2-2h.8323v-2.3508c0-.2762.2237-.4925.4997-.4832s.4997.2407.4997.5169v2.3171h1.0016c1.1095 0 2 .8905 2 2s-.8905 2-2 2h-.9974v9.6667c0 .2761-.2239.5-.5.5s-.5-.2239-.5-.5zm.5014-10.6667h-.0014-.0014-1.5012c-.3536 0-.8333-.4044-.8333-1 0-.5572.4428-1 1-1h2.8333c.5572 0 1 .4428 1 1s-.4428 1-1 1z"/><path d="m34 26.166v2.3334c0 .2761.2239.5.5.5s.5-.2239.5-.5v-2.3334h.8333c1.1095 0 2-.8905 2-2s-.8905-2-2-2h-.8333v-9.666c0-.2761-.2239-.5-.5-.5s-.5.2239-.5.5v9.666h-1c-1.1095 0-2 .8905-2 2s.8905 2 2 2zm1.8333-1c.5572 0 1-.4428 1-1s-.4428-1-1-1h-1.3075l-.0152.0006-.0106.0001-.0119-.0002-.0139-.0005h-1.4742c-.5572 0-1 .4428-1 1s.4428 1 1 1z"/><path d="m16 12.5c0-.2761-.2239-.5-.5-.5s-.5.2239-.5.5v6.666h-.8359c-1.1095 0-2 .8905-2 2s.8905 2 2 2h.8359v5.3333c0 .2762.2239.5.5.5s.5-.2238.5-.5v-5.3333h.9974c1.1095 0 2-.8905 2-2s-.8905-2-2-2h-.9974zm-.498 9.666h1.4954c.5572 0 1-.4428 1-1s-.4428-1-1-1h-2.8333c-.5572 0-1 .4428-1 1s.4428 1 1 1h1.3339.002z"/><path d="m31.832 34.9997c0-1.4428 1.2239-2.6667 2.6667-2.6667s2.6667 1.2239 2.6667 2.6667-1.2239 2.6666-2.6667 2.6666-2.6667-1.2238-2.6667-2.6666zm2.6667-1.6667c-.8905 0-1.6667.7761-1.6667 1.6667 0 .8905.7762 1.6666 1.6667 1.6666s1.6667-.7761 1.6667-1.6666c0-.8906-.7762-1.6667-1.6667-1.6667z"/><path d="m24.9987 32.333c-1.4428 0-2.6667 1.2239-2.6667 2.6667s1.2239 2.6666 2.6667 2.6666 2.6667-1.2238 2.6667-2.6666-1.2239-2.6667-2.6667-2.6667zm-1.6667 2.6667c0-.8906.7762-1.6667 1.6667-1.6667s1.6667.7761 1.6667 1.6667c0 .8905-.7762 1.6666-1.6667 1.6666s-1.6667-.7761-1.6667-1.6666z"/><path d="m12.832 34.9997c0-1.4428 1.2239-2.6667 2.6667-2.6667s2.6667 1.2239 2.6667 2.6667-1.2239 2.6666-2.6667 2.6666-2.6667-1.2238-2.6667-2.6666zm2.6667-1.6667c-.8905 0-1.6667.7761-1.6667 1.6667 0 .8905.7762 1.6666 1.6667 1.6666s1.6667-.7761 1.6667-1.6666c0-.8906-.7762-1.6667-1.6667-1.6667z"/><path d="m25.5 3.33301c0-.27614-.2239-.5-.5-.5s-.5.22386-.5.5v4.33398h-9.1719v-2.08398c0-.27614-.2238-.5-.5-.5-.2761 0-.5.22386-.5.5v2.08398h-4.49607c-1.10947 0-2 .89053-2 2v30.50001c0 1.1095.89053 2 2 2h4.49997v4.166c0 .2761.2239.5.5.5.2762 0 .5-.2239.5-.5v-4.166h9.1644v1.8992c0 .2761.2237.5075.4997.5168s.4997-.207.4997-.4832v-1.9328h9.1683v4.166c0 .2761.2238.5.5.5.2761 0 .5-.2239.5-.5v-4.166h4.6679c1.1095 0 2-.8905 2-2v-30.50001c0-1.10947-.8905-2-2-2h-14.832zm-15.66797 5.33398c-.55719 0-1 .44281-1 1v30.50001c0 .5572.44281 1 1 1h30.49997c.5572 0 1-.4428 1-1v-30.50001c0-.55719-.4428-1-1-1z"/></g><path d="m35.1641 2.83301c.2761 0 .5.22386.5.5v1.00741c0 .27614-.2239.5-.5.5-.2762 0-.5-.22386-.5-.5v-1.00741c0-.27614.2238-.5.5-.5z"/><path d="m14.8281 4.06836c.2762 0 .5-.22386.5-.5s-.2238-.5-.5-.5c-.2761 0-.5.22386-.5.5s.2239.5.5.5z"/><path d="m25.4961 46.333c0 .2761-.2239.5-.5.5s-.5-.2239-.5-.5.2239-.5.5-.5.5.2239.5.5z"/><path d="m35.1641 6.70801c.2761 0 .5-.22386.5-.5s-.2239-.5-.5-.5c-.2762 0-.5.22386-.5.5s.2238.5.5.5z"/></g></svg>