<svg fill="none" height="34" viewBox="0 0 34 34" width="34" xmlns="http://www.w3.org/2000/svg"><g fill="#00ac83"><g clip-rule="evenodd" fill-rule="evenodd"><path d="m16.5 19.3801v-6.4133h-.5191c-.7664 0-1.4067-.7157-1.4067-1.52 0-.8428.6772-1.52004 1.52-1.52004h.4058v-1.42676c0-.27614.2239-.5.5-.5s.5.22386.5.5v1.42676h.5209c.8428 0 1.52.67714 1.52 1.52004 0 .8428-.6772 1.52-1.52 1.52h-.5209v6.4133c0 .2762-.2239.5-.5.5s-.5-.2238-.5-.5zm-.4058-8.4533h1.9267c.2905 0 .52.2294.52.52 0 .2905-.2295.52-.52.52h-2.04c-.1403 0-.4067-.1911-.4067-.52 0-.2906.2295-.52.52-.52z"/><path d="m22.9609 17.9531v1.4267c0 .2761.2239.5.5.5.2762 0 .5-.2239.5-.5v-1.4267h.4076c.8429 0 1.52-.6772 1.52-1.52s-.6771-1.52-1.52-1.52h-.4076v-6.4131c0-.27614-.2238-.5-.5-.5-.2761 0-.5.22386-.5.5v6.4131h-.519c-.8428 0-1.52.6772-1.52 1.52s.6772 1.52 1.52 1.52zm.4841-2.04h-1.0031c-.2905 0-.52.2295-.52.52s.2295.52.52.52h1.9266c.2906 0 .52-.2295.52-.52s-.2294-.52-.52-.52h-.8917l-.0159.0002z"/><path d="m11.043 8.5c0-.27614-.2239-.5-.5-.5-.2762 0-.5.22386-.5.5v4.373h-.40972c-.84281 0-1.52.6772-1.52 1.52 0 .8429.67719 1.52 1.52 1.52h.40972v3.4668c0 .2761.2238.5.5.5.2761 0 .5-.2239.5-.5v-3.4668h.5169c.8429 0 1.52-.6771 1.52-1.52 0-.8428-.6771-1.52-1.52-1.52h-.5169zm-1.92972 5.893c0-.2905.22948-.52.52-.52h1.92662c.2906 0 .52.2295.52.52 0 .2906-.2294.52-.52.52h-1.92662c-.29052 0-.52-.2294-.52-.52z"/><path d="m21.4883 23.7995c0-1.0695.9038-1.9733 1.9733-1.9733s1.9733.9038 1.9733 1.9733-.9038 1.9733-1.9733 1.9733-1.9733-.9038-1.9733-1.9733zm1.9733-.9733c-.5172 0-.9733.4561-.9733.9733s.4561.9733.9733.9733.9733-.4561.9733-.9733-.4561-.9733-.9733-.9733z"/><path d="m17.0007 21.8262c-1.0695 0-1.9734.9038-1.9734 1.9733s.9039 1.9733 1.9734 1.9733 1.9733-.9038 1.9733-1.9733-.9038-1.9733-1.9733-1.9733zm-.9734 1.9733c0-.5172.4562-.9733.9734-.9733s.9733.4561.9733.9733-.4561.9733-.9733.9733-.9734-.4561-.9734-.9733z"/><path d="m8.56641 23.7995c0-1.0695.90385-1.9733 1.97329-1.9733 1.0695 0 1.9734.9038 1.9734 1.9733s-.9039 1.9733-1.9734 1.9733c-1.06944 0-1.97329-.9038-1.97329-1.9733zm1.97329-.9733c-.5172 0-.97329.4561-.97329.9733s.45609.9733.97329.9733.9734-.4561.9734-.9733-.4562-.9733-.9734-.9733z"/><path d="m17.5 2.2666c0-.27614-.2239-.5-.5-.5s-.5.22386-.5.5v2.78711h-5.9141v-1.25683c0-.27615-.2238-.5-.5-.5-.27611 0-.49996.22385-.49996.5v1.25683h-2.89797c-.84281 0-1.52.67719-1.52 1.52v20.73999c0 .8428.67719 1.52 1.52 1.52h2.89797v2.6726c0 .2761.22385.5.49996.5.2762 0 .5-.2239.5-.5v-2.6726h5.9141v1.1426c0 .2761.2239.5.5.5s.5-.2239.5-.5v-1.1426h5.9141v2.6726c0 .2761.2238.5.5.5.2761 0 .5-.2239.5-.5v-2.6726h3.0139c.8428 0 1.52-.6772 1.52-1.52v-20.73999c0-.84281-.6772-1.52-1.52-1.52h-9.928zm-10.81203 3.78711c-.29053 0-.52.22948-.52.52v20.73999c0 .2905.22947.52.52.52h20.74003c.2905 0 .52-.2295.52-.52v-20.73999c0-.29052-.2295-.52-.52-.52z"/></g><path d="m23.9141 1.7666c.2761 0 .5.22386.5.5v.5c0 .27614-.2239.5-.5.5-.2762 0-.5-.22386-.5-.5v-.5c0-.27614.2238-.5.5-.5z"/><path d="m10.0859 2.7666c.2762 0 .5-.22386.5-.5s-.2238-.5-.5-.5c-.27611 0-.49996.22386-.49996.5s.22385.5.49996.5z"/><path d="m17.5 31.5059c0 .2761-.2239.5-.5.5s-.5-.2239-.5-.5c0-.2762.2239-.5.5-.5s.5.2238.5.5z"/><path d="m23.9141 4.79688c.2761 0 .5-.22386.5-.5 0-.27615-.2239-.5-.5-.5-.2762 0-.5.22385-.5.5 0 .27614.2238.5.5.5z"/></g></svg>