<svg fill="none" height="15" viewBox="0 0 15 15" width="15" xmlns="http://www.w3.org/2000/svg"><g fill="#03a9f1"><path d="m9.00698 8.44803c0 .16569-.13431.3-.3.3-.16568 0-.3-.13431-.3-.3 0-.16568.13432-.3.3-.3.16569 0 .3.13432.3.3z"/><path d="m7.27495 8.75741c.16569 0 .3-.13432.3-.3 0-.16569-.13431-.3-.3-.3-.16568 0-.3.13431-.3.3 0 .16568.13432.3.3.3z"/><path d="m6.14526 8.45741c0 .16568-.13431.3-.3.3-.16568 0-.3-.13432-.3-.3 0-.16569.13432-.3.3-.3.16569 0 .3.13431.3.3z"/><path d="m8.10698 5.84061c.16569 0 .3-.13431.3-.3 0-.16568-.13431-.3-.3-.3-.16568 0-.3.13432-.3.3 0 .16569.13432.3.3.3z"/><path d="m6.97495 5.54061c0 .16569-.13431.3-.3.3-.16568 0-.3-.13431-.3-.3 0-.16568.13432-.3.3-.3.16569 0 .3.13432.3.3z"/><path d="m5.24526 5.84061c.16569 0 .3-.13431.3-.3 0-.16568-.13431-.3-.3-.3-.16568 0-.3.13432-.3.3 0 .16569.13432.3.3.3z"/><g clip-rule="evenodd" fill-rule="evenodd"><path d="m10.7701 4.71913c.1039-.20783.303-.45059.612-.45059.3091 0 .5082.24276.6121.45059.1129.22576.174.51667.174.82161 0 .30493-.0611.59584-.174.8216-.1039.20783-.303.45059-.6121.45059-.309 0-.5081-.24276-.612-.45059-.1129-.22576-.1741-.51667-.1741-.8216 0-.30494.0612-.59585.1741-.82161zm.5366.26833c-.063.12609-.1107.32129-.1107.55328 0 .23198.0477.42718.1107.55328.0327.06529.0596.09582.0754.10969.0159-.01387.0428-.0444.0754-.10969.0631-.1261.1107-.3213.1107-.55328 0-.23199-.0476-.42719-.1107-.55328-.0326-.0653-.0595-.09583-.0754-.1097-.0158.01387-.0427.0444-.0754.1097z"/><path d="m9.98433 10.134c.00041.0051.00069.0101.00085.0153.01672.5307-.17816 1.0463-.54166 1.4334-.17998.1917-.39596.346-.63559.4542-.23964.1082-.49824.1682-.76104.1764-.05016.0016-.10019.0013-.14998-.0009l-4.37754-.033c-.03821-.0002-.07602-.0078-.11139-.0223-.73733-.3018-1.35016-.8453-1.73795-1.5413-.00408-.0073-.00786-.0148-.01132-.0225-.03203-.0709-.0486-.1478-.0486-.2256s.01657-.1547.0486-.2256l.00321-.0071c.03146-.0651.07581-.1231.13021-.17072.0544-.04761.11783-.08377.18651-.10632s.1412-.03104.21324-.02495c.06868.00581.13559.02476.19707.05578l.40851.18741.75562-.29282v-4.2424c0-.84786.19916-1.63107.53778-2.21261.33444-.57437.84106-1.00397 1.46355-1.00397h5.83319l.0028.00001c.6181.00217 1.1229.43136 1.4569 1.00373.3392.5814.5397 1.36463.5397 2.21284 0 .84786-.1992 1.63107-.5378 2.21261-.3344.57437-.841 1.00397-1.4635 1.00397l-.0199-.00015h-1.38147zm-5.83125-4.59302c0-.76112.17999-1.4362.45628-1.9107.28047-.48167.62452-.70588.94505-.70588h4.65619c-.1059.12225-.2017.25838-.28654.40374-.3392.5814-.53973 1.36463-.53973 2.21284v4.64712c0 .0112.00061.0223.00181.0332-.00228.3528-.13759.6926-.38.9507-.12605.1342-.2773.2423-.44512.3181-.16614.075-.34529.1169-.52742.1233l-.1204-.0009c-.33055-.0167-.64599-.15-.88906-.3782-.27109-.2546-.42995-.6064-.44163-.9781-.00028-.0091-.00098-.0182-.00209-.0272-.01635-.1329-.08169-.25502-.18325-.34236-.10155-.08734-.23203-.13366-.36592-.12993l-.00546.0002c-.07275.00336-.14358.02392-.2067.05988l-.52117.25671-1.00357-.40231c-.01194-.00478-.02417-.0088-.03663-.01201-.03449-.00891-.06946-.01534-.10464-.0193zm5.83125 2.61643h.22397c-.0806-.0932-.1555-.19448-.22397-.30179zm1.40577.00013-.0089-.00013h-.0097c-.3165-.00652-.6546-.23117-.9309-.70573-.2763-.4745-.45627-1.14958-.45627-1.9107 0-.76077.18107-1.43583.45797-1.91048.2813-.48222.6255-.7061.9434-.7061.3178 0 .662.22388.9433.7061.2769.47465.458 1.14971.458 1.91048 0 .76112-.18 1.4362-.4563 1.9107-.2791.47942-.6213.70378-.9406.70586zm-4.84709 3.44466c-.31492-.3264-.50953-.7501-.55226-1.2011l-.54773.2697c-.07638.0377-.16515.0411-.24418.0094l-1.1051-.443c-.01715-.0028-.03464-.0027-.05177.0002l-1.14595.4441c-.07558.0292-.1598.0267-.23347-.0071l-.35394-.1624c.31143.4713.75397.8429 1.27461 1.0679z"/></g></g></svg>