<svg fill="none" height="25" viewBox="0 0 25 25" width="25" xmlns="http://www.w3.org/2000/svg"><g fill="#03a9f1"><path d="m15.0117 14.0801c0 .2761-.2238.5-.5.5-.2761 0-.5-.2239-.5-.5 0-.2762.2239-.5.5-.5.2762 0 .5.2238.5.5z"/><path d="m12.125 14.5957c.2761 0 .5-.2239.5-.5s-.2239-.5-.5-.5-.5.2239-.5.5.2239.5.5.5z"/><path d="m10.2422 14.0957c0 .2761-.2239.5-.50001.5-.27615 0-.5-.2239-.5-.5s.22385-.5.5-.5c.27611 0 .50001.2239.50001.5z"/><path d="m13.5117 9.73438c.2762 0 .5-.22386.5-.5 0-.27615-.2238-.5-.5-.5-.2761 0-.5.22385-.5.5 0 .27614.2239.5.5.5z"/><path d="m11.625 9.23438c0 .27614-.2239.5-.5.5s-.5-.22386-.5-.5c0-.27615.2239-.5.5-.5s.5.22385.5.5z"/><path d="m8.74219 9.73438c.27614 0 .5-.22386.5-.5 0-.27615-.22386-.5-.5-.5-.27615 0-.5.22385-.5.5 0 .27614.22385.5.5.5z"/><g clip-rule="evenodd" fill-rule="evenodd"><path d="m17.9502 7.86523c.1732-.34637.505-.75097 1.0201-.75097s.8469.4046 1.0201.75097c.1881.37628.2901.86112.2901 1.36935s-.102.99302-.2901 1.36932c-.1732.3464-.505.751-1.0201.751s-.8469-.4046-1.0201-.751c-.1881-.3763-.29-.86109-.29-1.36932s.1019-.99307.29-1.36935zm.8945.44722c-.1051.21016-.1845.53548-.1845.92213s.0794.71197.1845.92212c.0544.1088.0992.1597.1256.1828.0264-.0231.0713-.074.1257-.1828.1051-.21015.1845-.53547.1845-.92212s-.0794-.71197-.1845-.92213c-.0544-.10883-.0993-.15972-.1257-.18283-.0264.02311-.0712.074-.1256.18283z"/><path d="m16.6406 16.8901c.0007.0084.0012.0168.0015.0253.0278.8846-.297 1.744-.9028 2.3892-.3.3194-.66.5766-1.0593.757-.3994.1803-.8304.2802-1.2684.294-.0836.0026-.167.0021-.25-.0015l-7.2959-.055c-.06369-.0005-.12671-.0131-.18565-.0373-1.22888-.503-2.25027-1.4088-2.89658-2.5688-.00681-.0122-.01311-.0247-.01887-.0375-.05339-.1181-.08101-.2463-.08101-.376s.02762-.2578.08101-.376l.00534-.0118c.05244-.1085.12635-.2052.21702-.2846.09067-.0793.19639-.1396.31086-.1771.11447-.0376.23533-.0518.35539-.0416.11448.0097.22598.0412.32846.0929l.68085.3123 1.25936-.488v-7.07061c0-1.4131.33193-2.71845.8963-3.68769.5574-.95729 1.40177-1.67328 2.43926-1.67328h9.72196l.0046.00002c1.0303.00362 1.8716.71893 2.4282 1.67289.5653.96899.8995 2.27437.8995 3.68806 0 1.41311-.3319 2.71841-.8963 3.68771-.5574.9573-1.4017 1.6732-2.4392 1.6732l-.0332-.0002h-2.3024zm-9.71872-7.65511c0-1.26854.29999-2.39367.76047-3.1845.46745-.80279 1.04086-1.17647 1.57509-1.17647h7.76036c-.1766.20375-.3363.43063-.4776.67291-.5654.96899-.8996 2.27437-.8996 3.68806v7.74511c0 .0187.0011.0372.0031.0554-.0039.588-.2294 1.1543-.6334 1.5845-.2101.2237-.4622.4039-.7419.5302-.2768.125-.5754.1948-.879.2056l-.2006-.0015c-.551-.0279-1.0767-.25-1.4818-.6305-.4518-.4242-.7166-1.0106-.7361-1.6301-.0004-.0152-.0016-.0303-.0035-.0453-.0272-.2216-.1361-.4251-.3054-.5706-.1692-.1456-.3867-.2228-.6098-.2166l-.0091.0003c-.12129.0056-.23934.0399-.34454.0998l-.86861.4279-1.67262-.6705c-.0199-.008-.04029-.0147-.06104-.02-.0575-.0149-.11578-.0256-.17441-.0322zm9.71872 4.36071h.3734c-.1345-.1553-.2592-.3241-.3734-.503zm2.3431.0002-.015-.0002h-.0162c-.5274-.0109-1.0908-.3853-1.5514-1.1762-.4605-.7909-.7605-1.916-.7605-3.18451 0-1.26795.3018-2.39305.7633-3.18413.4689-.8037 1.0425-1.17684 1.5723-1.17684.5297 0 1.1033.37314 1.5722 1.17684.4616.79108.7633 1.91618.7633 3.18413 0 1.26851-.2999 2.39361-.7604 3.18451-.4653.799-1.0355 1.173-1.5676 1.1764zm-8.0786 5.7411c-.5249-.544-.8492-1.2501-.92044-2.0019l-.91287.4497c-.12731.0627-.27525.0683-.40697.0155l-1.84184-.7383c-.02858-.0047-.05774-.0045-.08628.0004l-1.90991.74c-.12597.0489-.26634.0446-.38913-.0117l-.58989-.2706c.51904.7854 1.25661 1.4048 2.12434 1.7798z"/></g></g></svg>