<svg fill="none" height="34" viewBox="0 0 34 34" width="34" xmlns="http://www.w3.org/2000/svg"><g fill="#03a9f1"><path d="m11.4375 13.0605c.2761 0 .5-.2238.5-.5 0-.2761-.2239-.5-.5-.5s-.5.2239-.5.5c0 .2762.2239.5.5.5z"/><path d="m14.9375 12.5605c0 .2762-.2239.5-.5.5s-.5-.2238-.5-.5c0-.2761.2239-.5.5-.5s.5.2239.5.5z"/><path d="m17.4375 13.0605c.2761 0 .5-.2238.5-.5 0-.2761-.2239-.5-.5-.5s-.5.2239-.5.5c0 .2762.2239.5.5.5z"/><path d="m13.9219 19.1494c0 .2762-.2239.5-.5.5-.2762 0-.5-.2238-.5-.5 0-.2761.2238-.5.5-.5.2761 0 .5.2239.5.5z"/><path d="m16.4219 19.6494c.2761 0 .5-.2238.5-.5 0-.2761-.2239-.5-.5-.5-.2762 0-.5.2239-.5.5 0 .2762.2238.5.5.5z"/><path d="m19.9219 19.1494c0 .2762-.2239.5-.5.5-.2762 0-.5-.2238-.5-.5 0-.2761.2238-.5.5-.5.2761 0 .5.2239.5.5z"/><g clip-rule="evenodd" fill-rule="evenodd"><path d="m24.5747 10.7783c.226-.452.6307-.92185 1.2263-.92185.5957 0 1.0004.46985 1.2264.92185.2409.4818.3755 1.1125.3755 1.7818s-.1346 1.3-.3755 1.7818c-.226.4519-.6307.9218-1.2264.9218-.5956 0-1.0003-.4699-1.2263-.9218-.2409-.4818-.3755-1.1125-.3755-1.7818s.1346-1.3.3755-1.7818zm.8944.4472c-.1578.3157-.2699.7869-.2699 1.3346s.1121 1.0189.2699 1.3346c.1729.3456.3191.369.3319.369.0129 0 .1591-.0234.3319-.369.1579-.3157.27-.7869.27-1.3346s-.1121-1.0189-.27-1.3346c-.1728-.3456-.319-.3691-.3319-.3691-.0128 0-.159.0235-.3319.3691z"/><path d="m22.457 23.0677c.0211 1.1354-.402 2.2352-1.1804 3.0641-.3918.4172-.862.7532-1.3836.9887s-1.0845.366-1.6566.384c-.1102.0035-.2202.0027-.3297-.0021l-9.92564-.0748c-.0637-.0005-.12671-.0131-.18566-.0373-1.6335-.6686-2.99119-1.8727-3.8503-3.4146-.00681-.0122-.0131-.0247-.01887-.0375-.06208-.1374-.0942-.2864-.0942-.4372s.03211-.2999.0942-.4373l.00534-.0118c.0608-.1258.14646-.2379.25157-.3299.10512-.092.22769-.1618.36039-.2054.13271-.0436.27283-.06.41201-.0482.13379.0113.26407.0484.38366.1092l.99827.4579 1.89691-.735v-9.7404c0-1.8958.44568-3.6386 1.19452-4.92465.7419-1.2741 1.8414-2.18623 3.1618-2.18623h13.2218c1.3154 0 2.4156.91267 3.1584 2.18586.7502 1.2858 1.1989 3.02862 1.1989 4.92502 0 1.8958-.4457 3.6387-1.1946 4.9247-.7418 1.2741-1.8414 2.1862-3.1618 2.1862-.0094 0-.0187 0-.0281-.0001h-3.3283zm-13.22262-10.5076c0-1.7512.41373-3.31382 1.05872-4.42146.6519-1.11961 1.4805-1.68942 2.2976-1.68942h10.9755c-.3435.33463-.649.73793-.9103 1.18586-.7502 1.2858-1.1989 3.02862-1.1989 4.92502v10.4325c-.0011.0166-.0014.0334-.0009.0503l.0009.0346v.016c0 .0036.0001.0072.0001.0108.0001.0048.0003.0095.0005.0142.0077.8635-.3176 1.6979-.91 2.3288-.3019.3215-.6642.5803-1.0661.7618-.3991.1802-.8295.2806-1.2671.2956l-.2805-.0021c-.7931-.0392-1.5502-.3586-2.1333-.9061-.6492-.6097-1.0297-1.4524-1.0577-2.3426-.0005-.0152-.0016-.0303-.0035-.0454-.0316-.2568-.1578-.4927-.3541-.6615-.1962-.1687-.4483-.2582-.707-.251l-.0091.0003c-.1382.0064-.2727.0459-.3922.1149l-1.2584.6198-2.34926-.9417c-.0199-.008-.04029-.0147-.06104-.02-.12266-.0317-.24825-.0479-.37392-.0488zm13.22262 6.1108h1.1041c-.3434-.3346-.6486-.738-.9095-1.1861-.0674-.1156-.1322-.2349-.1946-.3577zm3.3572.0001c-.0039-.0001-.0078-.0001-.0118-.0001h-.011c-.81-.0101-1.6296-.5797-2.2757-1.6893-.6449-1.1076-1.0587-2.6702-1.0587-4.4215 0-1.7506.4163-3.3132 1.0626-4.42109.6538-1.12052 1.4826-1.68979 2.2938-1.68979s1.64.56927 2.2937 1.68979c.6464 1.10789 1.0627 2.67049 1.0627 4.42109 0 1.7513-.4138 3.3139-1.0587 4.4215-.6517 1.1192-1.48 1.689-2.2969 1.6894zm-10.5213 7.8117c-.0602-.0507-.1192-.1031-.1768-.1573-.8338-.7829-1.326-1.8619-1.3714-3.0038-.0023-.0063-.0062-.0119-.0114-.0164l-.0032-.0024-1.4697.7238c-.1273.0627-.2752.0684-.4069.0156l-2.52146-1.0108c-.07183-.0147-.14594-.0145-.21772.0005l-2.61258 1.0124c-.12597.0488-.26634.0446-.38913-.0117l-1.20098-.551c-.00847-.0038-.01682-.008-.02505-.0123-.00474-.0025-.00994-.004-.01527-.0045-.00534-.0004-.01072.0002-.01581.0019-.00509.0016-.00979.0043-.01382.0078-.00256.0023-.00482.0048-.00672.0076-.00194.0061-.00293.0125-.00293.0189 0 .0051.00065.0103.00193.0153.73399 1.3031 1.87782 2.3266 3.25283 2.9121z"/></g></g></svg>