<svg fill="none" height="34" viewBox="0 0 34 34" width="34" xmlns="http://www.w3.org/2000/svg"><g fill="#f18303"><path d="m20.2891 2.20996c.25 0 .5.25.5.5s-.25.5-.5.5-.5-.25-.5-.5.25-.5.5-.5z"/><path clip-rule="evenodd" d="m12.1914 8.66211h5.296c.9234 0 1.8161.3388 2.4801.95271.6653.61508 1.0473 1.45818 1.0473 2.34638v4.1952c0 .8882-.382 1.7312-1.0473 2.3464-.664.6139-1.5567.9527-2.4801.9527h-5.296c-.9234 0-1.8161-.3388-2.48008-.9527-.66529-.6152-1.04724-1.4582-1.04724-2.3464v-.0026l.02209-4.1926v-.0014c.00037-.8834.37864-1.7223 1.03808-2.33655.65845-.61332 1.54475-.95493 2.46375-.96113zm.0018 1c-.6785.00497-1.3203.25787-1.7874.69289-.46613.4342-.71964 1.0124-.71963 1.6062v.0026l-.02209 4.1926v.0012c.00035.5961.25627 1.1765.72612 1.6109.4715.436 1.1188.687 1.8012.687h5.296c.6824 0 1.3297-.251 1.8012-.687.4702-.4347.7262-1.0156.7262-1.6121v-4.1952c0-.5966-.256-1.1774-.7262-1.6121-.4715-.43599-1.1188-.68699-1.8012-.68699z" fill-rule="evenodd"/><path d="m23.6602 10.9697c0-.2761-.2239-.5-.5-.5-.2762 0-.5.2239-.5.5v6.508c0 .2761.2238.5.5.5.2761 0 .5-.2239.5-.5z"/><path d="m15.8399 26.9902c0-.25-.25-.5-.5-.5s-.5.25-.5.5.25.5.5.5.5-.25.5-.5z"/><path d="m27.3711 26.9902c0-.25-.25-.5-.5-.5s-.5.25-.5.5.25.5.5.5.5-.25.5-.5z"/><path clip-rule="evenodd" d="m10.1532 2.3575c.1947-.19587.5112-.19684.7071-.00218l4.297 4.27066h.4761l3.1296-3.10495c.196-.19449.5126-.19324.7071.00279.1945.19604.1932.51262-.0028.70711l-2.4141 2.39505h7.3863c.562 0 1.1082.20606 1.5166.58368.4097.37884.6481.90144.6481 1.45547v10.78087c0 .554-.2384 1.0766-.6481 1.4555-.3781.3496-.8743.5521-1.3918.5803-.1016.4114-.3265.774-.6331 1.0475h3.9623c.4069 0 .7977.1606 1.0864.4475.2887.287.4515.6769.4515 1.0841v6.1895c0 .4072-.1628.7971-.4515 1.0841-.2887.2869-.6795.4475-1.0864.4475h-21.80067c-.40497-.003-.79311-.1642-1.08041-.4497-.28739-.2857-.45074-.6728-.4538-1.0781l-.00003-.0038.00002-6.1933c.00307-.4052.16642-.7924.45381-1.078.2873-.2856.67544-.4468 1.08041-.4498h.00373 3.2608c-.30573-.2727-.53023-.6341-.63225-1.0442h-.1073c-.56201 0-1.10812-.206-1.51654-.5836-.40974-.3789-.64813-.9015-.64813-1.4555v-10.78087c0-.55403.23839-1.07663.64813-1.45547.40842-.37762.95453-.58368 1.51654-.58368h5.12089l-3.5833-3.56138c-.1959-.19466-.19687-.51124-.0022-.7071zm13.9713 18.127c.0083 0 .0165.0002.0247.0006h.2903c.321 0 .6217-.1182.8377-.3179.2146-.1984.327-.4588.327-.7212v-10.78087c0-.26239-.1124-.52277-.327-.72122-.216-.19967-.5167-.31793-.8377-.31793h-15.82169c-.32099 0-.62171.11826-.83766.31793-.21463.19845-.32701.45883-.32701.72122v10.78087c0 .2624.11238.5228.32701.7212.21595.1997.51667.3179.83766.3179h.52158c.00818-.0004.01641-.0006.02469-.0006s.01651.0002.02469.0006h3.11813c.0081-.0004.0164-.0006.0247-.0006l.0104.0002.0142.0004h8.5762l.0117-.0004.0129-.0002c.0083 0 .0166.0002.0247.0006h3.1181c.0082-.0004.0164-.0006.0247-.0006zm-11.354 1.0006h7.7476c.102.4101.3265.7715.6322 1.0442h-9.012c.3057-.2727.5302-.6341.6322-1.0442zm9.7703.5735c.4176 0 .7778-.2333.9589-.5735h-1.9179c.1812.3402.5414.5735.959.5735zm-12.75194-.5735c.18115.3402.54134.5735.95894.5735s.7778-.2333.959-.5735zm-4.23025 8.7632v-2.593h7.27339v3.1267h-6.73328c-.14374-.0014-.2806-.0589-.38136-.159-.10065-.1-.15728-.2346-.15875-.3747zm0-3.593h7.27339v-3.126h-6.73329c-.14374.0015-.28059.0589-.38135.159-.10065.1001-.15728.2347-.15875.3748zm8.27339 4.1267h6.2969v-7.2527h-6.2969zm7.2969-7.2527h6.7646c.1436 0 .2808.0567.3814.1568.1006.0999.1565.2348.1565.3748v6.1895c0 .14-.0559.2749-.1565.3749s-.2378.1567-.3814.1567h-6.7646z" fill-rule="evenodd"/></g></svg>