<svg fill="none" height="25" viewBox="0 0 25 25" width="25" xmlns="http://www.w3.org/2000/svg"><g fill="#f18303"><path d="m15.0859 1.24512c.25 0 .5.25.5.5s-.25.5-.5.5-.5-.25-.5-.5.25-.5.5-.5z"/><path clip-rule="evenodd" d="m8.96427 6.23732h3.89413c.7109 0 1.3998.26074 1.9134.73569.515.47617.8126 1.13078.8126 1.82245v3.08474c0 .6916-.2976 1.3462-.8126 1.8224-.5136.475-1.2025.7357-1.9134.7357h-3.89413c-.71088 0-1.39977-.2607-1.91345-.7357-.51501-.4762-.81254-1.1308-.81254-1.8224v-.0027l.01625-3.08203v-.0014c.00038-.68785.29502-1.33913.80544-1.81453.50947-.47452 1.19341-.73744 1.90092-.74221zm.00178 1c-.46699.00354-.90646.17774-1.22452.47398-.31712.29537-.48701.68599-.487 1.08415v.00264l-.01625 3.08211v.0012c.00035.3996.17184.7915.49142 1.087.32122.297.76471.4699 1.23457.4699h3.89413c.4698 0 .9133-.1729 1.2346-.4699.3199-.2958.4914-.6882.4914-1.0882v-3.08474c0-.40003-.1715-.79242-.4914-1.0882-.3213-.297-.7648-.46994-1.2346-.46994z" fill-rule="evenodd"/><path d="m17.5273 8.06738c0-.27614-.2238-.5-.5-.5-.2761 0-.5.22386-.5.5v4.78522c0 .2762.2239.5.5.5.2762 0 .5-.2238.5-.5z"/><path clip-rule="evenodd" d="m7.37192 1.6407c.19467-.19586.51125-.19683.70711-.00217l3.12077 3.1017h.2384l2.2625-2.24459c.196-.19449.5126-.19324.7071.00279.1945.19604.1932.51262-.0028.7071l-1.5469 1.5347h5.1128c.4452 0 .8792.16314 1.205.46436.3271.30243.519.7214.519 1.16737v7.92714c0 .4459-.1919.8649-.519 1.1673-.3258.3013-.7598.4644-1.205.4644h-11.6336c-.44514 0-.87917-.1631-1.20495-.4644-.3271-.3024-.51907-.7214-.51907-1.1673v-7.92714c0-.44597.19197-.86494.51907-1.16737.32578-.30122.75981-.46436 1.20495-.46436h3.44397l-2.40717-2.39243c-.19586-.19466-.19684-.51124-.00218-.7071zm-1.56069 4.29813c.13332-.12326.32195-.1986.52607-.1986h11.6336c.2041 0 .3928.07534.5261.1986.132.12205.1979.2788.1979.43313v7.92714c0 .1543-.0659.3111-.1979.4331-.1333.1233-.322.1986-.5261.1986h-11.6336c-.20412 0-.39275-.0753-.52607-.1986-.132-.122-.19795-.2788-.19795-.4331v-7.92714c0-.15433.06595-.31108.19795-.43313z" fill-rule="evenodd"/><path d="m11.9102 19.9775c0-.25-.25-.5-.5-.5s-.5.25-.5.5.25.5.5.5.5-.25.5-.5z"/><path d="m20.3867 19.9785c0-.25-.25-.5-.5-.5s-.5.25-.5.5.25.5.5.5.5-.25.5-.5z"/><g clip-rule="evenodd" fill-rule="evenodd"><path d="m4.48196 16.4336h-.00372c-.33228.0025-.65085.1347-.88673.3692-.23599.2345-.37024.5526-.37275.8855v2.2768l-.00001.0027.00001.0027-.00001 2.2728.00003.0037c.00251.333.13674.6511.37273.8856.23588.2344.55445.3667.88673.3692h16.03086c.334 0 .655-.1319.8921-.3675.2373-.2358.3711-.5563.3711-.891v-4.5512c0-.3348-.1338-.6552-.3711-.891-.2371-.2357-.5581-.3675-.8921-.3675zm-.2632 5.8073v-1.7731h5.08202v2.034h-4.81648c-.0711-.0009-.13847-.0294-.18786-.0785-.04928-.049-.0768-.1145-.07768-.1824zm0-2.7731h5.08202v-2.0342h-4.81649c-.07109.0009-.13846.0294-.18785.0785-.04928.0489-.0768.1145-.07768.1824zm6.08244.5c0 .0069-.0001.0138-.0004.0207v2.5133h4.3672v-5.0682h-4.3672v2.5135l.0003.0103zm5.3668 2.534v-5.0682h4.8411c.0708 0 .1381.028.1872.0768.049.0487.076.1141.076.1817v4.5512c0 .0675-.027.133-.076.1817-.0491.0488-.1164.0768-.1872.0768z"/><path d="m7.65981 15.7435c.10554.07.28036.1295.49857.1295.2182 0 .39302-.0595.49856-.1295.07988-.053.09497-.091.09731-.0999.00146-.2748.22475-.4972.49999-.4972.27614 0 .5.2238.5.5 0 .4211-.25731.74-.54465.9305-.29108.193-.66419.2961-1.05121.2961-.38703 0-.76014-.1031-1.05122-.2961-.28734-.1905-.54465-.5094-.54465-.9305 0-.2762.22386-.5.5-.5.27524 0 .49853.2224.5.4972.00234.0089.01743.0469.0973.0999zm-.09767-.1018c.00003-.0001.00027.0009.00037.0019zm1.19248 0c.00003 0-.00014.001-.00037.0019z"/><path d="m15.82 15.7435c.1055.07.2803.1295.4985.1295s.3931-.0595.4986-.1295c.0799-.053.095-.091.0973-.0999.0015-.2748.2248-.4972.5-.4972.2761 0 .5.2238.5.5 0 .4211-.2573.74-.5446.9305-.2911.193-.6642.2961-1.0513.2961-.387 0-.7601-.1031-1.0512-.2961-.2873-.1905-.5446-.5094-.5446-.9305 0-.2762.2238-.5.5-.5.2752 0 .4985.2224.5.4972.0023.0089.0174.0469.0973.0999zm-.0977-.1018c0-.0001.0003.0009.0004.0019zm1.1925 0s-.0002.001-.0004.0019z"/></g></g></svg>