<svg fill="none" height="73" viewBox="0 0 118 73" width="118" xmlns="http://www.w3.org/2000/svg"><g fill="#18303f"><path d="m68.5 48.3998c-.6 0-1 .4-1 1s.4 1 1 1 1-.4 1-1-.4-1-1-1z"/><path d="m82.1 12.1998c-1.5-.8-5.1 1.1-7.9 2.9h-11.6c-2.8-1.8-6.3-3.7-7.9-2.9-.5.3-.8.8-.8 1.5v15.9h-15c-1.2 0-2.3.1-3.3.3-.6-1.6-1.9-3-1.9-3-1.5-1.8-3.9-2.4-6.1-1.5-.4.1-.6.5-.6.9 0 2.7.4 5.6 1.2 8.6.8 2.9 1.1 4.6 1.1 7.7 0 3.3.5 8.5 1.3 12.3.6 2.1 1.5 3.8 2.7 5.2.2.2.5.4.8.4h4.9c.5 0 .9-.3 1-.8l.7-2.9c.1-.6.8-1.2 1.5-1.2h10.8c.8 0 1.3.4 1.5 1.2l.7 2.9c.1.4.5.8 1 .8h3.7c.5 0 .9-.3 1-.8 0 0 1.1-4.1 7.6-4.1.3 0 .7 0 1-.1l3.1 4.5c.2.3.5.4.8.4h4.9c.6 0 1-.4 1-1v-3.4c2.4-5.8 3.7-12 3.7-18.3v-24c-.1-.7-.4-1.2-.9-1.5zm-7.1 27.7h-13c-.6 0-1 .4-1 1v.5c0 .7-.4 1.2-.8 1.9-.2.4-.9.5-1.4.5-1.2 0-2.2-1-2.2-2.1 0-.9.3-1.5.9-1.8.3-.2.5-.5.6-.8 0-.3-.1-.7-.4-.9-.9-.7-1.2-1.7-.9-2.5 0-.1 0-.1.1-.2.2-.8 1-1.4 2-1.4 1.2 0 2.2 1 2.2 2.1v.7c0 .6.4 1 1 1h13c.6 0 1-.4 1-1v-.7c0-1.3 1-2.4 2.2-2.4.7 0 1.6.4 2 1.5.3 1 0 2-.8 2.4-.3.2-.5.5-.5.8s.1.6.4.9c1.2 1 1.1 1.8.9 2.5v.1c-.2.8-1 1.4-2 1.4-.4 0-1.2-.3-1.5-.7 0 0-.1-.1-.2-.1-.4-.2-.5-.8-.5-1.3v-.5c-.1-.4-.5-.9-1.1-.9zm-6.1 2c-.1.1-.3.2-.5.2s-.3-.1-.5-.2zm-1.6-5.8c.4-.4.8-.9 1.1-1.4.3.5.6 1 1.1 1.4zm10 19.4c-.1.1-.1.3-.1.4v2.6h-3.4l-2.3-3.3c.7-.2 1.5-.5 2.2-.8.5-.2.7-.8.5-1.3s-.8-.7-1.3-.5c-1 .5-2.6 1.1-4.5 1.1-6.3 0-8.6 3.3-9.3 4.8h-2.2l-.5-2.1c-.3-1.6-1.7-2.7-3.4-2.7h-10.9c-1.8 0-3.1 1.4-3.4 2.7l-.5 2.1h-3.7c-.8-1.1-1.5-2.4-2-4-.7-3.7-1.2-8.7-1.2-11.9 0-3.3-.3-5.1-1.1-8.1-.7-2.6-1.1-5.1-1.2-7.5 1.1-.2 2.4.2 3.2 1.2.4.4 1.5 1.7 1.7 2.9 0 .1.1.3.2.4.2.3.6.5 1.1.4 1.1-.3 2.4-.4 3.8-.4h16c.6 0 1-.4 1-1v-16.5c1 .2 3.5 1.4 5.8 2.9.2.1.4.2.5.2h12.3c.2 0 .4-.1.5-.2 2.3-1.5 4.8-2.8 5.8-2.9v19c-.7-.6-1.7-1-2.7-1-2.2 0-4 1.8-4.2 4-.2-.2-.4-.4-.8-.4-2.8 0-3.6-2.6-3.8-4h1.4c.6 0 1-.4 1-1s-.4-1-1-1h-4.9c-.6 0-1 .4-1 1s.4 1 1 1h1.4c-.2 1.5-1 4-3.8 4-.2 0-.4.1-.5.2-.3-2-2.1-3.6-4.1-3.6-1.9 0-3.5 1.2-3.9 2.9-.5 1.3-.2 2.7.7 3.8-.6.7-1 1.7-1 2.8 0 2.2 1.9 4.1 4.2 4.1.5 0 2.2-.1 3-1.4.4-.7 1-1.4 1.1-2.5h2.6c.4 1.2 1.6 2.2 2.8 2.2s2.5-1 2.8-2.2h2.8c.1.7.4 1.8 1.3 2.4.6.6 1.8 1.2 2.8 1.2.8 0 1.5-.2 2.1-.6-.4 3.7-1.4 7.2-2.9 10.6z"/><path d="m60.3 26.3998c.5.3 1.1.1 1.3-.4.1-.2.4-.4.7-.5.5-.1 1.1.2 1.2.5.1.5.5.8 1 .8h.2c.5-.1.9-.7.7-1.2-.4-1.6-2.2-2.3-3.7-1.9-.1 0-.1 0-.2.1-.6.3-1.3.6-1.7 1.4-.2.3 0 .9.5 1.2z"/><path d="m72.1 26.6998h.2c.4 0 .9-.3 1-.8.1-.2.2-.4.5-.5.1-.1.5-.1.7 0 .4.2.5.3.6.5.2.5.9.7 1.3.4.5-.3.7-.9.4-1.3-.4-.8-1.1-1.1-1.7-1.4-.7-.3-1.5-.3-2.3 0-.8.4-1.4 1.1-1.6 1.9 0 .5.4 1.1.9 1.2z"/></g></svg>