<svg fill="none" height="74" viewBox="0 0 118 74" width="118" xmlns="http://www.w3.org/2000/svg"><path clip-rule="evenodd" d="m58.2973 20.5455c.1155-.4388.5125-.7452.967-.7452h3.6875c.4572 0 .8563.3101.9691.7532l.7375 2.8966c.004.0156.0076.0313.0108.0471.1415.695.6759 1.1306 1.4784 1.1306h7.7639c-.014-.0665-.0213-.1355-.0213-.2062v-3.6208c0-.2652.1054-.5196.2929-.7071.1875-.1876.4419-.2929.7071-.2929h4.9167c.0598 0 .1184.0053.1754.0153.0579-.0104.1174-.0158.1779-.0158h4.9166c.2937 0 .5724.129.7624.3529 1.3505 1.5911 2.1407 3.4239 2.6561 5.1952.0089.0303.0162.0609.0221.0919.7478 3.9159 1.2469 9.0198 1.2469 12.2564 0 2.6312.2433 3.9689.5503 5.2263.8158.1375 1.5828.4353 2.1589.7021.3873.1793.7135.3567.9441.4899.1156.0668.2082.123.2734.1636.0326.0203.0584.0367.077.0486l.005.0033c1.9994 1.1646 3.0234 3.4358 2.5271 5.6864-.0866.393-.4004.6958-.7962.7683-1.5192.2785-3.8042.3954-5.9724.3349-2.0175-.0564-4.1095-.2698-5.4267-.7321-.0079.004-.016.008-.024.0119-8.5332 4.0919-17.4276 4.0918-18.934 4.0918h-18.2513c-.0903.0268-.1859.0412-.2849.0412h-24.1379c-.2756 0-.5755-.0526-.8563-.2086-.2904-.1613-.499-.3994-.6307-.6676-.2393-.4876-.2073-1.033-.1411-1.4376.1389-.8483.5754-1.884 1.0321-2.8144.4699-.957 1.0135-1.9054 1.4357-2.609.2119-.3532.3951-.6477.5257-.8547.017-.0269.0332-.0524.0484-.0764v-11.7051c-.0152-.0239-.0314-.0494-.0484-.0764-.1306-.2069-.3138-.5015-.5257-.8547-.4222-.7036-.9658-1.652-1.4357-2.609-.4567-.9304-.8932-1.966-1.0321-2.8143-.0662-.4046-.0983-.9501.1411-1.4376.1317-.2682.3403-.5063.6307-.6676.2808-.156.5807-.2086.8563-.2086h16.7018c.1408-.327.2851-.5625.4137-.767.0085-.0134.0167-.0265.0249-.0395.1051-.1669.1913-.3036.2771-.4793v-3.4047c0-.2652.1054-.5196.2929-.7071.1875-.1876.4419-.2929.7071-.2929h4.9167c.3281 0 .6353.1609.8221.4307l3.0477 4.4012c.4121-.0037.7494-.0049.9835-.0049 3.4458 0 5.3389-1.1178 6.367-2.1273.5251-.5155.8487-1.0266 1.0387-1.3997.0949-.1864.1559-.3372.1914-.4349.0177-.0488.0291-.0841.035-.1036l.005-.0168-.0009.0034-.0006.0021-.0003.0012c-.0001.0007-.0003.0013.9688.2481m-.967-.2548c.0002-.0008.0003-.0014 0 0zm-11.0233 4.1306-1.991-2.8753h-3.3928v2.6208c0 .1342-.027.267-.0794.3906-.0329.0775-.0658.1503-.0985.219.103-.0134.2079-.0263.3144-.0387.9561-.1115 2.0927-.1885 3.2211-.242.6865-.0325 1.3754-.0566 2.0262-.0744zm-7.4364 2.6989c.2304.0665.4853.0507.7175-.0633.0673-.033.2424-.0932.5667-.1598.3069-.0631.6908-.1209 1.1365-.1729.8906-.1038 1.9756-.1782 3.0842-.2307 2.2145-.105 4.4645-.1205 5.3177-.1205 3.9292 0 6.3381-1.2959 7.7683-2.7002.7041-.6914 1.1487-1.3872 1.4196-1.9193.0369-.0724.0706-.1419.1014-.208h2.225l.5402 2.1216c.359 1.7033 1.7853 2.7059 3.4329 2.7059h10.8167c1.7504 0 3.0854-1.3408 3.4275-2.6843l.5457-2.1432h3.6619c.933 1.2147 1.5367 2.6126 1.9624 4.0619.7223 3.8021 1.2025 8.7517 1.2025 11.8345 0 3.2725.363 4.7551.7668 6.3347.0217.085.0538.1647.0944.238.1553.3327.4886.5671.8805.5774.6796.0178 1.4615.2849 2.127.5931.3215.1489.5936.2968.7842.4069.0949.0549.1687.0997.2171.1299.0055.0034.0107.0067.0156.0097.0164.0103.0289.0183.0373.0237l.0111.0072c.0002.0001.0011.0007.0013.0008.0168.0111.0339.0216.0514.0317 1.0748.6188 1.6876 1.7187 1.6724 2.8783-1.3124.1677-3.0875.2416-4.836.1927-2.1303-.0595-4.0227-.2973-4.9557-.6706-.2914-.1167-.6053-.0864-.8595.0556-.184-.0232-.3766.0045-.5562.0907-8.1136 3.8907-16.6324 3.8952-18.0742 3.8952h-19.3349c-.099 0-.1946.0144-.2849.0412h-22.7021c.0896-.5346.4063-1.3387.8522-2.2468.4353-.8868.9477-1.7821 1.3553-2.4613.2029-.3382.378-.6198.502-.8162.0619-.0982.111-.1749.1443-.2266l.0377-.0584.0093-.0142.0021-.0032c.1065-.1628.1637-.3538.1637-.5483v-12.2917c0-.1945-.0568-.3848-.1633-.5475l-.0025-.004-.0093-.0142-.0377-.0583c-.0333-.0518-.0824-.1285-.1443-.2266-.124-.1964-.2991-.478-.502-.8162-.4076-.6793-.92-1.5746-1.3553-2.4613-.4459-.9082-.7626-1.7123-.8522-2.2468h16.5493c.1693 0 .3287-.0421.4684-.1163zm39.0359-5.5742h-2.9833v2.6208c0 .0707-.0073.1397-.0213.2062h1.0954c.708 0 1.3397-.5902 1.4893-1.1777zm-43.4059 9.8753c.3942.3868.4001 1.02.0132 1.4141l-.9068.924.9068.924c.3869.3941.381 1.0273-.0132 1.4141-.3941.3869-1.0273.381-1.4141-.0132l-.8807-.8973-.8807.8973c-.3868.3942-1.02.4001-1.4141.0132-.3942-.3868-.4001-1.02-.0133-1.4141l.9069-.924-.9069-.924c-.3868-.3941-.3809-1.0273.0133-1.4141.3941-.3869 1.0273-.381 1.4141.0132l.8807.8973.8807-.8973c.3868-.3942 1.02-.4001 1.4141-.0132zm9.934 2.4167c.5523 0 1 .4477 1 1 0 1.452-.452 2.5996-1.1689 3.4757-.5214.6372-1.1582 1.1016-1.8011 1.441.6429.3394 1.2797.8037 1.8011 1.4409.7169.8762 1.1689 2.0237 1.1689 3.4757 0 .5523-.4477 1-1 1s-1-.4477-1-1c0-1.0063-.3023-1.7025-.7168-2.2091-.4283-.5235-1.0238-.9004-1.6777-1.1668-.5738-.2338-1.1584-.3683-1.64-.4448v1.365c0 .5523-.4477 1-1 1s-1-.4477-1-1v-4.9166c0-.5523.4477-1 1-1s1 .4477 1 1v1.3597c.4816-.0764 1.0662-.211 1.64-.4447.6539-.2664 1.2494-.6433 1.6777-1.1668.4145-.5066.7168-1.2029.7168-2.2092 0-.5523.4477-1 1-1zm7.2389 5.8105c.0056.5523-.4376 1.0045-.9899 1.01l-.0219.0003c-.5523.0055-1.0045-.4376-1.01-.9899-.0056-.5523.4376-1.0045.9898-1.01l.022-.0003c.5522-.0055 1.0044.4377 1.01.9899zm-21.7625 3.7728c.3941-.3869 1.0273-.381 1.4141.0132l.8807.8973.8807-.8973c.3868-.3942 1.02-.4001 1.4141-.0132.3942.3868.4001 1.02.0132 1.4141l-.9068.924.9068.924c.3869.3941.381 1.0273-.0132 1.4141-.3941.3869-1.0273.381-1.4141-.0132l-.8807-.8973-.8807.8973c-.3868.3942-1.02.4001-1.4141.0132-.3942-.3868-.4001-1.02-.0132-1.4141l.9068-.924-.9069-.924c-.3868-.3941-.3809-1.0273.0133-1.4141z" fill="#18303f" fill-rule="evenodd"/></svg>