<svg fill="none" height="73" viewBox="0 0 118 73" width="118" xmlns="http://www.w3.org/2000/svg"><g fill="#18303f"><g clip-rule="evenodd" fill-rule="evenodd"><path d="m52.3802 28.0674c-5.4968-.0359-10.4797.645-13.6067 1.6977l-.0503.017c-3.2842 1.1057-5.8289 1.9625-7.7192 3.1038-1.834 1.1073-2.9848 2.4447-3.5053 4.5283l-.0054.0206c-.6334 2.3243-1.0707 4.8255-1.1458 7.3296.4531.0521.9814-.0031 1.5339-.1759.8219-.2571 1.5622-.7348 2.0163-1.28.3534-.4244.9839-.482 1.4084-.1286.4244.3534.4819.984.1285 1.4084-.7385.8869-1.8285 1.5562-2.9561 1.909-1.1207.3506-2.4149.4291-3.5367-.052-.3676-.1577-.6059-.5191-.6059-.9191 0-2.9682.4932-5.9187 1.2251-8.6072.6734-2.6844 2.2157-4.4209 4.4093-5.7453 2.0802-1.256 4.8042-2.1728 7.9374-3.2274.0756-.0254.1515-.051.2277-.0766 3.4105-1.1483 8.634-1.8389 14.2578-1.8023 5.6333.0368 11.7676.8038 16.9995 2.6385.5212.1828.7955.7534.6127 1.2746-.1827.5212-.7534.7955-1.2745.6127-4.9628-1.7403-10.8635-2.49-16.3507-2.5258zm-8.1603 26.7337c.5308-.1526 1.0848.154 1.2374.6848l1.1428 3.9752h3.0173v-3.6989c0-.5523.4477-1 1-1s1 .4477 1 1v4.6989c0 .5523-.4477 1-1 1h-4.7704c-.4458 0-.8378-.2952-.961-.7237l-1.3509-4.699c-.1526-.5307.154-1.0847.6848-1.2373zm24.9575.1277c.4603-.3053 1.0808-.1796 1.3861.2806l2.8202 4.2517h3.2337v-1.5907c0-.5523.4477-1 1-1s1 .4477 1 1v2.5907c0 .5523-.4477 1-1 1h-4.7704c-.3351 0-.648-.1679-.8333-.4473l-3.1169-4.6989c-.3052-.4602-.1796-1.0808.2806-1.3861z"/><path d="m31.1055 42.7511c.5523 0 1 .4477 1 1 0 3.9655.4645 7.9438 1.1668 11.7046.4119 1.4294.9953 2.807 1.8946 4.0042h3.5058l.5263-2.1067c.3303-1.3224 1.6283-2.6672 3.3553-2.6672h10.4949c1.6255 0 3.0132 1.0084 3.3607 2.6885l.5209 2.0854h2.108c.0283-.0615.059-.1259.0925-.1929.2629-.5262.6949-1.2155 1.3798-1.9009 1.3923-1.3934 3.7394-2.6801 7.5647-2.6801 1.4857 0 3.0027-.4272 4.3229-1.0878.4939-.2471 1.0947-.0471 1.3418.4468s.0471 1.0946-.4468 1.3418c-1.542.7716-3.3643 1.2992-5.2179 1.2992-3.3301 0-5.1571 1.1002-6.15 2.0938-.5077.5081-.8211 1.0123-1.0054 1.3811-.092.1842-.1512.3333-.1857.43-.0172.0483-.0282.0832-.034.1026l-.0047.0161.0007-.0028.0006-.0021m-.0013.0049c-.114.4411-.5121.7503-.9683.7503h-3.5778c-.4589 0-.8589-.3124-.9702-.7576l-.7155-2.8644c-.0039-.0154-.0074-.0308-.0105-.0464-.1382-.6918-.653-1.1055-1.4045-1.1055h-10.4949c-.6581 0-1.2683.5647-1.415 1.1519l-.7155 2.8644c-.1112.4452-.5112.7576-.9702.7576h-4.7704c-.2969 0-.5784-.1319-.7684-.3601-1.3117-1.5752-2.0785-3.3885-2.5783-5.1393-.0085-.0298-.0156-.0599-.0213-.0904-.724-3.8639-1.2097-7.985-1.2097-12.119 0-.5523.4477-1 1-1"/><path d="m92.2148 53.0865c.3905-.3905 1.0237-.3905 1.4142 0l1.5378 1.5378c.3906.3906.3906 1.0237 0 1.4143-.3905.3905-1.0237.3905-1.4142 0l-1.5378-1.5379c-.3906-.3905-.3906-1.0237 0-1.4142z"/><path d="m95.3146 54.7717c.3906.3905.3906 1.0236 0 1.4142l-.7071-.7071c.7071.7071.7075.7068.7071.7071l-.0013.0013-.0017.0017-.0045.0045-.0138.0135c-.0113.011-.0267.0258-.046.0441-.0385.0366-.093.0872-.162.1488-.1379.1229-.3353.291-.5823.4799-.4897.3745-1.1948.8469-2.0328 1.2063-.8358.3584-1.8501.6243-2.9362.5259-1.1091-.1004-2.2219-.5751-3.2263-1.5796-.3906-.3905-.3906-1.0237 0-1.4142.3905-.3905 1.0236-.3905 1.4142 0 .6821.6821 1.3616.9449 1.9925 1.002.6538.0592 1.3268-.0974 1.9675-.3722.6386-.2739 1.1992-.6456 1.6061-.9568.2013-.154.3599-.2893.466-.3839.0529-.0472.0924-.084.1173-.1076.0124-.0117.0212-.0202.0261-.025l.003-.0029"/><path d="m86.2355 25.2529-1.433 1.433c-.2609.2609-.6441.3569-.9971.25-.353-.107-.6184-.3995-.6907-.7612l-.0009-.0044-.0032-.0162-.0137-.0662c-.0122-.0587-.0305-.1456-.0544-.2562-.0481-.2212-.1187-.5366-.2088-.9103-.1809-.7505-.4366-1.722-.74-2.6335-.3038-.9121-.624-1.6653-.9179-2.0947l-11.5145 11.5145c-4.5812 4.5811-4.5998 12.2437.1591 17.0025l5.6275 5.6276c5.0889 5.0889 13.2874 5.1731 18.4791.2525.2217-2.7833.4367-6.714-.1569-10.8071-.6133-4.2286-2.0788-8.552-5.2186-11.9479-.1881-.1424-.3268-.3516-.3767-.6011 0-.0001 0 0 0 0l-.0009-.0045-.0032-.0162-.0137-.0662c-.0122-.0587-.0305-.1455-.0545-.2561-.048-.2212-.1187-.5366-.2087-.9103-.181-.7505-.4367-1.7219-.7402-2.6333-.3038-.9122-.6241-1.6653-.9181-2.0947zm3.8359 5.2804c-.0046-.0212-.0094-.0433-.0144-.0663-.0507-.2335-.1247-.5639-.2189-.9547-.1877-.7784-.4585-1.8103-.787-2.7967-.3189-.9577-.7258-1.9787-1.215-2.6637-.2332-.3266-.5925-.7331-1.1073-.9045-.2832-.0943-.597-.111-.9119-.0182-.3039.0895-.5489.2628-.7406.4545l-.4112.4112c-.1772-.7021-.4064-1.5355-.6739-2.3388-.3189-.9577-.7257-1.9788-1.2149-2.6638-.2331-.3266-.5924-.7332-1.1072-.9046-.2832-.0943-.597-.111-.9119-.0183-.3039.0895-.5489.2629-.7407.4546l-11.815 11.815c-.0057.0057-.0114.0115-.0169.0173-5.3151 5.3842-5.2812 14.2654.2216 19.7682l5.6275 5.6276c5.9555 5.9554 15.6113 5.9554 21.5668 0 .1674-.1675.27-.389.2895-.625.2328-2.8241.5143-7.1151-.1406-11.631-.644-4.4403-2.2041-9.1759-5.678-12.9628z"/></g><path d="m88.8894 44.2933c-.5822.5822-1.526.5822-2.1082 0-.5822-.5821-.5822-1.526 0-2.1082s1.526-.5822 2.1082 0 .5822 1.5261 0 2.1082z"/><path d="m65.905 51.0514c-.5822.5822-1.5261.5822-2.1082 0-.5822-.5821-.5822-1.526 0-2.1082.5821-.5822 1.526-.5822 2.1082 0s.5822 1.5261 0 2.1082z"/></g></svg>