<svg fill="none" height="16" viewBox="0 0 16 16" width="16" xmlns="http://www.w3.org/2000/svg"><g clip-rule="evenodd" fill="#00ac83" fill-rule="evenodd"><path d="m1.18147 1.46795c.37655-.37656.98707-.37656 1.36362 0l12.27261 12.27265c.3766.3766.3766.9871 0 1.3637-.3766.3765-.9871.3765-1.3636 0l-12.27263-12.27272c-.376554-.37656-.376554-.98707 0-1.36363z"/><path d="m1.18181 15.1047c-.376553-.3766-.376553-.9871 0-1.3637l12.27259-12.27265c.3766-.37656.9871-.37656 1.3636-.00001.3766.37656.3766.98708 0 1.36364l-12.27257 12.27272c-.37655.3765-.98706.3765-1.36362 0z"/></g></svg>