<svg fill="none" height="163" width="98" xmlns="http://www.w3.org/2000/svg"><g fill="#18303f"><path d="M91 76.362v.728c0 .146.146.291.292.291h.438a.583.583 0 0 0 0-1.165h-.438c-.146 0-.292 0-.292.146zm-7.73-10.053v-.728a.313.313 0 0 0-.29-.291h-.439a.583.583 0 0 0 0 1.165h.14c.19 0 .446.142.551-.018a.236.236 0 0 0 .039-.128zm-.582 22.436c.213 0 .291-.266.291-.48v-.394a.314.314 0 0 0-.291-.292h-.438a.583.583 0 0 0 0 1.166zm8.166-33.07v.728c0 .146.146.291.292.291h.292a.583.583 0 0 0 0-1.165h-.036c-.164 0-.366-.13-.482-.015-.04.04-.066.1-.066.16zm.438 32.196v.728c0 .146.145.291.291.291h.438a.583.583 0 1 0 0-1.165h-.139c-.191 0-.447-.142-.552.017a.237.237 0 0 0-.038.128zm-7.875-31.614v-.583a.314.314 0 0 0-.292-.291h-.292a.583.583 0 0 0 0 1.165h.292a.313.313 0 0 0 .292-.29zM91 65.581v.728c0 .146.146.292.292.292h.438a.583.583 0 0 0 0-1.166h-.438c-.146 0-.292 0-.292.146zm-7.73 11.51v-.73a.313.313 0 0 0-.29-.29h-.439a.583.583 0 0 0 0 1.165h.14c.19 0 .446.142.551-.018a.236.236 0 0 0 .039-.128zM18.48 4.393h.228a2 2 0 0 0 2-2v-.37a2 2 0 0 0-2-2h-.229a2 2 0 0 0-2 2v.37a2 2 0 0 0 2 2zm68.54 0h.23a2 2 0 0 0 2-2v-.37a2 2 0 0 0-2-2h-.23a2 2 0 0 0-2 2v.37a2 2 0 0 0 2 2zm-2.29 45.89a1.896 1.896 0 0 0 1.895-1.896V18.09a1.896 1.896 0 1 0-3.792 0v30.298c0 1.047.85 1.896 1.896 1.896zm2.916-1.896a1.896 1.896 0 1 0 3.791 0V18.09a1.896 1.896 0 1 0-3.791 0z"/><path d="M95.083 90.931c0-.805-.653-1.458-1.458-1.458-.146 0-.292 0-.292-.146 0 .146-.146.146-.291.146h-1.605a.996.996 0 0 1-1.02-1.02v-.728c0-.392.351-.784.74-.966.024-.011.254-.054.28-.054h2.042c.886 0 1.604-.718 1.604-1.604v-.872a.875.875 0 0 0-.875-.875.313.313 0 0 1-.291-.291v-1.311c0-.146.145-.292.291-.292.161 0 .292-.13.292-.291v-1.747c0-.644-.522-1.167-1.167-1.167h-1.896c-.583 0-.875-.437-.875-1.02v-.728c0-.392.352-.784.74-.965.025-.012.254-.055.281-.055H93.625a.875.875 0 0 0 .875-.875v-1.455a.875.875 0 0 0-.875-.875.314.314 0 0 1-.292-.291V70.68c0-.292.146-.437.292-.437.161 0 .292-.13.292-.292v-1.747a.875.875 0 0 0-.875-.875h-1.75c-.584 0-.875-.437-.875-1.02v-.728c0-.392.351-.784.74-.966.024-.011.254-.054.28-.054H92.897a1.02 1.02 0 0 0 1.02-1.02v-1.164a.73.73 0 0 0-.729-.73.314.314 0 0 1-.291-.291v-1.02c0-.145.146-.291.291-.291.081 0 .146-.065.146-.146v-1.893a.583.583 0 0 0-.583-.583h-1.604H91c-.438 0-.875-.437-.875-1.02v-.729c0-.391.352-.783.74-.965a.658.658 0 0 1 .28-.054H92.75a.583.583 0 0 0 .583-.584v-.728c0-.724-.587-1.31-1.31-1.31h-9.92c-.724 0-1.311.586-1.311 1.31v.728c0 .322.26.584.583.584h1.75c.437 0 .875.437.875 1.02v.728c0 .392-.352.784-.74.965a.659.659 0 0 1-.28.055H81.374a.583.583 0 0 0-.583.583v1.747c0 .161.13.292.291.292.146 0 .292.146.292.291v1.02a.313.313 0 0 1-.292.291.73.73 0 0 0-.729.73v1.309c0 .483.392.875.875.875h1.604c.584 0 .875.437.875 1.02v.728c0 .339-.262.677-.583.88-.182.115-.401.14-.616.14H81.23a.875.875 0 0 0-.875.875v1.893c0 .08.066.146.146.146.146 0 .292.145.292.291v1.311a.314.314 0 0 1-.292.292.875.875 0 0 0-.875.875v1.017c0 .725.588 1.313 1.313 1.313h1.895c.584 0 .875.437.875 1.02v.728c0 .392-.351.784-.74.965a.659.659 0 0 1-.28.055H80.645c-.643 0-1.166.522-1.166 1.166v1.601c0 .242.196.438.438.438.146 0 .291.145.291.291v1.311a.313.313 0 0 1-.291.292.875.875 0 0 0-.875.874v1.164c0 .805.653 1.458 1.458 1.458h2.042a.996.996 0 0 1 1.02 1.02v.728c0 .392-.351.784-.74.966a.659.659 0 0 1-.28.054H80.5c-.805 0-1.458.653-1.458 1.458v.29c0 .966.782 1.748 1.748 1.748h12.545c.966 0 1.748-.782 1.748-1.748zM76.708 106.81h20.854c.292 0 .438-.145.438-.291v-.437c0-.292-.146-.437-.438-.437h-.291c-.1 0-.2-.069-.253-.158-.047-.081-.052-.179-.08-.268l-1.812-5.99a3.803 3.803 0 0 1-.043-.286v-2.661a2 2 0 0 0-2-2h-11.75a2 2 0 0 0-2 2v2.661a.983.983 0 0 1-.042.285l-1.768 5.842c-.057.188-.067.421-.231.528a.272.272 0 0 1-.146.047h-.292c-.291 0-.437.145-.437.437 0 .28-.106.673.17.719a.756.756 0 0 0 .121.009zm0 2.623h20.854c.292 0 .438-.146.438-.437v-.437c0-.146-.146-.437-.438-.437H76.709c-.291 0-.437.145-.437.437v.437c0 .291.146.437.437.437zm0 2.622h20.854c.292 0 .438-.146.438-.437v-.437c0-.291-.146-.437-.438-.437H76.709c-.291 0-.437.146-.437.437v.437c0 .291.146.437.437.437zm0 2.622h20.854c.292 0 .438-.145.438-.437v-.437c0-.291-.146-.437-.438-.437H76.709c-.291 0-.437.146-.437.437v.437c0 .146.146.437.437.437zm0 2.477h20.854c.292 0 .438-.146.438-.437v-.437c0-.291-.146-.437-.438-.437H76.709c-.291 0-.437.146-.437.437v.437c0 .291.146.437.437.437zm0 2.622h20.854c.292 0 .438-.145.438-.437v-.437c0-.291-.146-.437-.438-.437H76.709c-.291 0-.437.146-.437.437v.437c0 .292.146.437.437.437zm0 2.622H77c.146 0 .292.146.292.292l1.698 15.266a2 2 0 0 0 1.987 1.779h.544c.146 0 .292.145.292.291v21.561s0 .146.145.146h10.355s.145 0 .145-.146v-21.415c0-.146.146-.292.292-.292h.542a2 2 0 0 0 1.988-1.78l1.7-15.41c0-.146.145-.292.29-.292h.293c.291 0 .437-.145.437-.437v-.437c0-.291-.146-.437-.437-.437H76.708c-.291 0-.437.146-.437.437v.437c0 .146.146.437.437.437zM8.167 153.72v7.428a.875.875 0 1 0 1.75 0v-7.428a.875.875 0 0 0-1.75 0zm3.791 0v7.428a.875.875 0 1 0 1.75 0v-7.428a.875.875 0 0 0-1.75 0zm3.646 0v7.428a.875.875 0 1 0 1.75 0v-7.428a.875.875 0 0 0-1.75 0zm3.792 0v7.428a.875.875 0 1 0 1.75 0v-7.428a.875.875 0 0 0-1.75 0zm3.791 0v7.428a.875.875 0 1 0 1.75 0v-7.428a.875.875 0 0 0-1.75 0zm3.646 0v7.428a.874.874 0 1 0 1.75 0v-7.428a.875.875 0 0 0-1.75 0z"/><path d="M13.854 133.896c0-.808-.638-1.472-1.445-1.504l-5.847-.234H4.625a2 2 0 0 0-2 2v25.897a1.968 1.968 0 0 0 3.937 0v-6.447a2 2 0 0 1 1.771-1.987l.25-.028a2 2 0 0 0 1.771-1.987v-12.098a2 2 0 0 1 1.516-1.94l.843-.211c.67-.168 1.141-.77 1.141-1.461zm10.488-1.503a1.506 1.506 0 0 0-.306 2.964l.844.211a2 2 0 0 1 1.516 1.94v12.09a2 2 0 0 0 1.78 1.988l.378.042a2 2 0 0 1 1.78 1.988v6.512a1.895 1.895 0 0 0 3.791 0v-25.97a2 2 0 0 0-2-2h-1.792z"/><path d="M24.937 138.775a2 2 0 0 0-1.46-1.926l-.724-.203a2 2 0 0 1-1.461-1.926v-9.885a2 2 0 0 0-2-2h-1.834a2 2 0 0 0-2 2v9.885a2 2 0 0 1-1.461 1.926l-.723.203a2 2 0 0 0-1.462 1.926v10.614a2 2 0 0 0 2 2h9.125a2 2 0 0 0 2-2z"/><path d="M13.27 114.094H5.98c-.194 0-.387.028-.573.084l-1.52.456a1.998 1.998 0 0 0-1.376 1.469L.069 126.756c-.046.201-.06.408-.043.613l.113 1.353a2 2 0 0 0 1.993 1.834h9.285a2 2 0 0 0 2-2v-7.906c0-.146.145-.292.291-.292h9.334c.145 0 .291.146.291.292v7.906a2 2 0 0 0 2 2h9.214a2 2 0 0 0 1.985-1.752l.174-1.394a2 2 0 0 0-.035-.695l-2.432-10.612a1.998 1.998 0 0 0-1.375-1.469l-1.52-.456a1.994 1.994 0 0 0-.575-.084h-7.29a.314.314 0 0 1-.292-.292v-2.039c0-.146.146-.292.292-.292h8.214a1.53 1.53 0 1 0 0-3.059h-8.068c-.146 0-.292-.146-.292-.291v-2.914c0-.146.146-.291.292-.291h6.755a1.53 1.53 0 0 0 0-3.06h-6.755c-.146 0-.292-.145-.292-.291v-2.477c0-.145.146-.291.292-.291h5.443a1.53 1.53 0 0 0 0-3.06h-5.443a.313.313 0 0 1-.292-.29V92.97c0-.146.146-.292.292-.292h4.13a1.53 1.53 0 0 0 0-3.06H9.432a1.53 1.53 0 0 0 0 3.06h4.13c.146 0 .292.146.292.292v2.04a.314.314 0 0 1-.292.29H8.266a1.53 1.53 0 1 0 0 3.06h5.442c.146 0 .292.146.292.291v2.477c0 .146-.146.291-.292.291h-6.61a1.53 1.53 0 0 0 0 3.06h6.756c.146 0 .292.145.292.291v2.768c0 .146-.146.291-.292.291H5.786a1.53 1.53 0 0 0 0 3.06h8.068c.146 0 .292.145.292.291v1.338c0 .454-.148.901-.447 1.244-.232.266-.33.332-.428.332zm2.876-26.806h4.312a2 2 0 0 0 2-2V18.194a2 2 0 0 0-2-2h-4.312a2 2 0 0 0-2 2v67.094a2 2 0 0 0 2 2z"/></g></svg>