<svg fill="none" height="51" viewBox="0 0 52 51" width="52" xmlns="http://www.w3.org/2000/svg"><path d="m15.4112 16.9411c.7443 1.691 1.7134 3.2452 2.9749 4.7994 1.4105-3.0466 2.2165-6.2962 2.2165-9.5458 0-2.4762-.4622-4.85925-1.2614-7.08601m1.6731-2.30388c9.5114 3.03692 16.4091 11.46609 17.5577 21.64109.0957.847.1514 1.7061.1656 2.5752v.6093c.7642-.2801 1.5285-.6086 2.2763-.9769.5609-.2764 1.1125-.5752 1.6478-.893m-30.1104-9.2011c-.1523.1702-.3012.343-.4466.5183-2.86417 3.4507-4.39803 7.8512-4.39803 12.3806v1.0155c.40299 10.5612 9.06743 18.6853 19.54543 18.4822 10.2765-.4062 18.538-8.9365 18.538-19.4977 0-.8185-.0404-1.637-.1393-2.4372" stroke="#92a0a9" stroke-linecap="round" stroke-linejoin="round" stroke-width="2"/><path d="m27.3491 30.0461c-.5495 2.0265-.3748 4.2078.7065 6.1151.806-.6093 1.6119-1.4217 2.0149-2.6403.0767-.2317.1478-.3911.22-.6041.1495.0808.1788.0942.3845.1979 2.821 1.4217 4.433 4.2651 4.2315 7.3116 0 2.2341-.806 4.2651-2.2165 5.8899-1.612 1.6248-3.6269 2.4372-5.8434 2.2341-2.2165 0-4.2315-.8124-5.8435-2.4372-1.612-1.4217-2.418-3.4527-2.418-5.6868 0-5.3047 2.9019-10.1476 7.3761-12.9203" stroke="#92a0a9" stroke-linecap="round" stroke-linejoin="round" stroke-width="2"/><g fill="#92a0a9"><ellipse cx="45.2485" cy="23.9359" rx="1.02" ry="1"/><ellipse cx="28.7044" cy="26.1855" rx="1.02" ry="1"/><ellipse cx="17.9466" cy="1.79688" rx="1.02" ry="1"/><ellipse cx="14.5281" cy="14.525" rx="1.02" ry="1"/></g></svg>