<svg fill="none" height="60" viewBox="0 0 60 60" width="60" xmlns="http://www.w3.org/2000/svg"><path d="m4.55605 14.5746c.58569-5.21082 4.66135-9.35829 9.86705-9.98768 11.1107-1.34329 19.8103-1.30112 31.0337.03644 5.2134.62131 9.3213 4.74404 9.9328 9.95854 1.3124 11.1917 1.3696 19.8525.0467 31.0453-.6212 5.2561-4.8218 9.3664-10.0865 9.9107-10.9033 1.1272-19.7407 1.163-30.7531.022-5.28813-.5479-9.48199-4.7077-10.07206-9.9914-1.26837-11.3571-1.2027-20.014.03141-30.9939z" fill="#fff"/><path d="m24.8293 46.4734h-.7033c-.1082 0-.1803.0881-.1803.1762v.6873c0 .4757.3967.8634.8836.8634.487 0 .8837-.3877.8837-.8634 0-.4758-.3967-.8635-.8837-.8635z" fill="#f94409"/><path d="m24.5949 37.7507c-.1443-.1233-.3787-.2643-.541-.3524l-3.3182-1.7446c-.1804-.1057-.3968-.1762-.5951-.2467-.5771-.1586-1.1903-.1586-1.7674 0-.2164.0529-.4147.141-.5951.2467l-3.3362 1.7446c-.1623.0881-.3788.2291-.5411.3524-.7033.5815-1.1 1.4274-1.1 2.3437v5.0574c0 1.6916 1.4066 3.0485 3.1198 3.0485h5.825c.4869 0 .8836-.3877.8836-.8634v-.6873c0-.1057-.0901-.1762-.1803-.1762h-6.5283c-.7394 0-1.3525-.5991-1.3525-1.3216v-5.0574c0-.4934.2705-.934.7033-1.163l3.4264-1.7798c.3607-.1586.7394-.1586 1.1001 0l3.4264 1.7798c.4328.229.7034.6696.7034 1.163v4.4406c0 .4758.3967.8635.8836.8635s.8837-.3877.8837-.8635v-4.4406c.018-.9163-.3968-1.7622-1.1001-2.3437z" fill="#f94409"/><path clip-rule="evenodd" d="m45.3385 5.61634c-11.1481-1.32858-19.7676-1.36991-30.7953-.03664-4.74103.57319-8.459 4.352-8.9934 9.1066-1.22612 10.9087-1.29114 19.4909-.03134 30.7712.53787 4.8162 4.36086 8.6083 9.18134 9.1078 10.9418 1.1336 19.7102 1.0983 30.5472-.0221 4.8027-.4965 8.6304-4.2455 9.1962-9.0334 1.3132-11.111 1.257-19.6933-.0468-30.8114-.5577-4.75607-4.3046-8.51558-9.0579-9.08206zm-31.0354-2.02219c11.1936-1.35331 19.9732-1.3103 31.272.03624 5.6735.67614 10.1424 5.16207 10.8077 10.83511 1.321 11.2651 1.3791 20.0046.0466 31.279-.6765 5.7244-5.2502 10.1961-10.9767 10.7881-10.9697 1.1341-19.8762 1.1703-30.959.022-5.75588-.5963-10.3206-5.124-10.96288-10.8751-1.27694-11.4339-1.21062-20.1655.03149-31.2166.63697-5.66703 5.07031-10.18318 10.74079-10.86875z" fill="#18303f" fill-rule="evenodd"/></svg>