<svg fill="none" height="126" viewBox="0 0 125 126" width="125" xmlns="http://www.w3.org/2000/svg"><g fill="#18303f"><path d="m74.3355 47.5191c.1356.6197-.3604 1.175-.9947 1.175h-4.4231c-1.181 0-2.1383.9574-2.1383 2.1383 0 1.181.9573 2.1383 2.1383 2.1383h4.6378c.5854 0 1.06.4746 1.06 1.06v.7322c0 .5854-.4746 1.06-1.06 1.06h-4.6398c-1.181 0-2.1383.9573-2.1383 2.1382 0 1.181.9573 2.1383 2.1383 2.1383h4.6398c.5854 0 1.06.4746 1.06 1.06v.7318c0 .5854-.4746 1.06-1.06 1.06h-4.6398c-1.181 0-2.1383.9573-2.1383 2.1383 0 1.1809.9573 2.1382 2.1383 2.1382h4.2461c.6598 0 1.1617.5985.9785 1.2324-1.4604 5.0516-6.1197 8.7455-11.6417 8.7455-5.5221 0-10.1814-3.6939-11.6418-8.7455-.1832-.6339.3187-1.2324.9785-1.2324h4.2507c1.1809 0 2.1383-.9573 2.1383-2.1382 0-1.181-.9573-2.1383-2.1383-2.1383h-4.6443c-.5855 0-1.06-.4746-1.06-1.06v-.7318c0-.5854.4745-1.06 1.06-1.06h4.6443c1.1809 0 2.1383-.9573 2.1383-2.1383 0-1.1809-.9573-2.1382-2.1383-2.1382h-4.6443c-.5855 0-1.06-.4746-1.06-1.06v-.7318c0-.5854.4745-1.06 1.06-1.06h4.6443c1.1809 0 2.1383-.9573 2.1383-2.1383 0-1.1809-.9573-2.1382-2.1383-2.1382h-4.4297c-.6344 0-1.1303-.5553-.9948-1.175 1.1904-5.4419 6.038-9.5157 11.8371-9.5157 5.7988 0 10.6463 4.0736 11.8369 9.5152z"/><path d="m79.46 66.6239c-.5854 0-1.06.4746-1.06 1.06 0 7.482-6.9813 13.78-15.9 13.78s-15.9-6.298-15.9-13.78c0-.5854-.4746-1.06-1.06-1.06s-1.06.4746-1.06 1.06c0 8.9099 8.2052 15.9 18.02 15.9s18.02-6.9901 18.02-15.9c0-.5854-.4746-1.06-1.06-1.06z"/><path d="m68.86 86.7639c.5854 0 1.06.4746 1.06 1.06s-.4746 1.06-1.06 1.06h-12.72c-.5854 0-1.06-.4746-1.06-1.06s.4746-1.06 1.06-1.06z"/></g><circle cx="62.5" cy="63.4419" opacity=".5" r="36.75" stroke="#03a9f1" stroke-width="1.5"/></svg>