<svg fill="none" height="25" viewBox="0 0 25 25" width="25" xmlns="http://www.w3.org/2000/svg"><g fill="#2d3436"><path clip-rule="evenodd" d="m4.5 1.01172c-1.38071 0-2.5 1.11929-2.5 2.5v17.98788c0 1.3807 1.11929 2.5 2.5 2.5h7.2382c1.3807 0 2.5-1.1193 2.5-2.5v-2.1225h6.6308c1.1046 0 2-.8955 2-2v-.3976c0-1.1046-.8954-2-2-2h-13.52916c-1.10457 0-2 .8954-2 2v.3976c0 1.1045.89544 2 2 2h5.89836v2.1225c0 .8284-.6715 1.5-1.5 1.5h-7.2382c-.82843 0-1.5-.6716-1.5-1.5v-17.98788c0-.82843.67157-1.5 1.5-1.5h7.2382c.8285 0 1.5.67157 1.5 1.5v8.56638c0 .2761.2239.5.5.5.2762 0 .5-.2239.5-.5v-8.56638c0-1.38071-1.1193-2.5-2.5-2.5zm2.83984 14.96778h13.52916c.5523 0 1 .4477 1 1v.3976c0 .5522-.4477 1-1 1h-13.52916c-.55228 0-1-.4478-1-1v-.3976c0-.5523.44772-1 1-1z" fill-rule="evenodd"/><path d="m13.7383 14.3564c.2761 0 .5-.2238.5-.5 0-.2761-.2239-.5-.5-.5-.2762 0-.5.2239-.5.5 0 .2762.2238.5.5.5z"/><path d="m6.08984 4.99219c0 .27614-.22385.5-.5.5-.27614 0-.5-.22386-.5-.5s.22386-.5.5-.5c.27615 0 .5.22386.5.5z"/></g><path clip-rule="evenodd" d="m5.26365 7.14643c.19528-.19525.51186-.19524.70711.00004l2.14643 2.14665 2.14641-2.14665c.1953-.19528.5118-.19529.7071-.00004s.1953.51183.0001.7071l-2.14654 2.14677 2.14594 2.1462c.1953.1952.1953.5118 0 .7071-.1953.1952-.5119.1952-.7071-.0001l-2.14591-2.1461-2.1459 2.1461c-.19525.1953-.51183.1953-.7071.0001-.19528-.1953-.19529-.5119-.00004-.7071l2.14597-2.1462-2.1465-2.14677c-.19526-.19527-.19524-.51185.00003-.7071z" fill="#f18303" fill-rule="evenodd"/></svg>