<svg fill="none" height="25" viewBox="0 0 25 25" width="25" xmlns="http://www.w3.org/2000/svg"><circle cx="12.5" cy="12.5" fill="#f94409" r="12.5"/><g fill="#fff"><path d="m16.6032 5.30008c-1.6864 0-3.0963 1.40987-3.0963 3.0963v.52915c0 .19882-.1612.36-.36.36s-.36-.16118-.36-.36v-.52915c0-2.08408 1.7322-3.8163 3.8163-3.8163 1.3627 0 2.5709.74027 3.2456 1.82738.1358.21874.2502.45194.3402.69655.0686.1866-.027.39351-.2136.46214s-.3935-.027-.4621-.2136c-.0729-.19805-.1658-.38739-.2763-.56542-.5522-.88981-1.5365-1.48705-2.6338-1.48705z"/><path clip-rule="evenodd" d="m10.6466 15.671c.4373-.1504.7516-.5654.7516-1.0538 0-.6153-.4988-1.1141-1.1141-1.1141-.61528 0-1.11408.4988-1.11408 1.1141 0 .4902.31664.9065.75656 1.0555v.5148c0 .1989.16122.36.36002.36s.36-.1611.36-.36zm-.3625-1.4479c-.2176 0-.39408.1764-.39408.3941 0 .2126.16838.3859.37898.3938.0058-.0003.0117-.0004.0176-.0004.0051 0 .0101.0001.0152.0003.2094-.0092.3764-.182.3764-.3937 0-.2177-.1764-.3941-.3941-.3941z" fill-rule="evenodd"/><path clip-rule="evenodd" d="m4.58002 11.8521c0-.89.72675-1.6168 1.61683-1.6168h8.16945c.8901 0 1.6168.7268 1.6168 1.6168v4.4784c0 .9074-.4163 1.761-1.0389 2.3837-.6227.6227-1.4764 1.039-2.3838 1.039h-4.55771c-.90738 0-1.76105-.4163-2.38371-1.039s-1.03896-1.4763-1.03896-2.3837zm1.61683-.8968c-.49243 0-.89683.4044-.89683.8968v4.4784c0 .6868.31794 1.3645.82808 1.8746.51013.5101 1.18779.8281 1.87459.8281h4.55771c.6868 0 1.3645-.318 1.8746-.8281.5102-.5101.8281-1.1878.8281-1.8746v-4.4784c0-.4924-.4044-.8968-.8968-.8968z" fill-rule="evenodd"/><path d="m20.06 8.72992c.1988 0 .36-.16118.36-.36s-.1612-.36-.36-.36-.36.16118-.36.36.1612.36.36.36z"/></g><g stroke="#fff" stroke-linecap="round" stroke-linejoin="round" stroke-width=".25"><path d="m16.6032 5.30008c-1.6864 0-3.0963 1.40987-3.0963 3.0963v.52915c0 .19882-.1612.36-.36.36s-.36-.16118-.36-.36v-.52915c0-2.08408 1.7322-3.8163 3.8163-3.8163 1.3627 0 2.5709.74027 3.2456 1.82738.1358.21874.2502.45194.3402.69655.0686.1866-.027.39351-.2136.46214s-.3935-.027-.4621-.2136c-.0729-.19805-.1658-.38739-.2763-.56542-.5522-.88981-1.5365-1.48705-2.6338-1.48705z"/><path clip-rule="evenodd" d="m10.6466 15.671c.4373-.1504.7516-.5654.7516-1.0538 0-.6153-.4988-1.1141-1.1141-1.1141-.61528 0-1.11408.4988-1.11408 1.1141 0 .4902.31664.9065.75656 1.0555v.5148c0 .1989.16122.36.36002.36s.36-.1611.36-.36zm-.3625-1.4479c-.2176 0-.39408.1764-.39408.3941 0 .2126.16838.3859.37898.3938.0058-.0003.0117-.0004.0176-.0004.0051 0 .0101.0001.0152.0003.2094-.0092.3764-.182.3764-.3937 0-.2177-.1764-.3941-.3941-.3941z" fill-rule="evenodd"/><path clip-rule="evenodd" d="m4.58002 11.8521c0-.89.72675-1.6168 1.61683-1.6168h8.16945c.8901 0 1.6168.7268 1.6168 1.6168v4.4784c0 .9074-.4163 1.761-1.0389 2.3837-.6227.6227-1.4764 1.039-2.3838 1.039h-4.55771c-.90738 0-1.76105-.4163-2.38371-1.039s-1.03896-1.4763-1.03896-2.3837zm1.61683-.8968c-.49243 0-.89683.4044-.89683.8968v4.4784c0 .6868.31794 1.3645.82808 1.8746.51013.5101 1.18779.8281 1.87459.8281h4.55771c.6868 0 1.3645-.318 1.8746-.8281.5102-.5101.8281-1.1878.8281-1.8746v-4.4784c0-.4924-.4044-.8968-.8968-.8968z" fill-rule="evenodd"/><path d="m20.06 8.72992c.1988 0 .36-.16118.36-.36s-.1612-.36-.36-.36-.36.16118-.36.36.1612.36.36.36z"/></g></svg>