<svg fill="none" height="25" viewBox="0 0 25 25" width="25" xmlns="http://www.w3.org/2000/svg"><path d="m19.2212 21.2827v-.2203h-13.43995v.2179c0 1.6568 1.34315 3 3 3h7.44005c1.656 0 2.9986-1.3419 2.9999-2.9976z" fill="#f18303"/><g clip-rule="evenodd" fill="#2d3436" fill-rule="evenodd"><path d="m13.7484 9.12403c.0599-.26956-.11-.53665-.3796-.59655-.0511-.01136-.1021-.01446-.1517-.01017-.1412.0119-.2765.08349-.3653.20796l-3.56745 5.00263c-.0668.0937-.09669.2025-.09257.3092-.00022.0062-.00033.0123-.00033.0185 0 .2762.22385.5.5.5h2.22555l-.5847 2.6315c-.0516.232.0673.4683.2844.5651s.4724.0274.6105-.166l3.6-5.04c.1089-.1524.1234-.3529.0377-.5194-.0857-.1666-.2573-.2712-.4445-.2712h-2.2567zm-1.2206 4.43157h-1.8924l1.6035-2.2486-.1866.8401c-.0329.1481.0031.303.098.4213s.2384.1872.3901.1872h1.9084l-1.6074 2.2503.187-.8419c.0599-.2695-.11-.5366-.3796-.5965-.0406-.009-.0812-.0129-.121-.0119z"/><path d="m8.78125 3.41055c-1.65685 0-3 1.34314-3 3v14.86955c0 1.6569 1.34315 3 3 3h7.44005c1.6568 0 3-1.3431 3-3v-14.86955c0-1.65686-1.3432-3-3-3-.0563 0-.1019-.04559-.1019-.10183v-1.02942c0-1.10457-.8954-2.000003-2-2.000003h-3.2369c-1.10457 0-2 .895433-2 2.000003v1.03c0 .05592-.04533.10125-.10125.10125zm-2 3c0-1.10457.89543-2 2-2 .6082 0 1.10125-.49305 1.10125-1.10125v-1.03c0-.55229.4477-1 1-1h3.2369c.5523 0 1 .44771 1 1v1.02942c0 .60852.4933 1.10183 1.1019 1.10183 1.1045 0 2 .89543 2 2v14.86955c0 1.1046-.8955 2-2 2h-7.44005c-1.10457 0-2-.8954-2-2z"/></g></svg>