<svg fill="none" height="25" viewBox="0 0 25 25" width="25" xmlns="http://www.w3.org/2000/svg" xmlns:xlink="http://www.w3.org/1999/xlink"><clipPath id="a"><path d="m0 0h25v25h-25z"/></clipPath><g clip-path="url(#a)"><path d="m8.77644 13.2946c-.17672.1767-.32076.3739-.43217.5841-.4968.9372-.34451 2.1332.45297 2.9307.97631.9763 2.54996.9856 3.51476.0208.9648-.9649 2.5384-.9556 3.5147.0208.9763.9763.9856 2.5499.0208 3.5147l-2.6204 2.6204c-1.4473 1.4473-3.80768 1.4333-5.27215-.0311l-5.3033-5.3033c-1.46447-1.4645-1.47843-3.8249-.0312-5.2722l.37955-.3795m10.5613-3.62944c.3568-.65284.3952-1.43578.1165-2.12298m-1.2424-3.6679c1.4572-1.2513 3.6688-1.17397 5.0655.22273l5.3033 5.3033c1.4645 1.46447 1.4784 3.82489.0312 5.27209l-2.6205 2.6205c.9649-.9649.9555-2.5385-.0208-3.5148s-2.5499-.9856-3.5147-.0208c-.9648.9649-2.5384.9555-3.5147-.0208-.4374-.4373-.6807-.9946-.7293-1.5632-.0059-.0689-.0089-.1379-.0091-.2068" stroke="#2d3436" stroke-linecap="round" stroke-linejoin="round"/><path d="m9.2759 8.10004c.19526.19526.19526.51185 0 .70711s-.51185.19526-.70711 0l-1.51649-1.51649-1.54347 1.54348c-.19527.19526-.51185.19526-.70711 0s-.19526-.51185 0-.70711l1.54348-1.54348-1.48098-1.48097c-.19526-.19527-.19526-.51185 0-.70711s.51184-.19526.70711 0l1.48097 1.48098 1.45399-1.45399c.19526-.19526.51185-.19526.70711 0s.19526.51184 0 .70711l-1.45399 1.45398z" fill="#f18303"/><path clip-rule="evenodd" d="m7.03662 11.5c2.69751 0 4.88428-2.18677 4.88428-4.88428s-2.18677-4.88428-4.88428-4.88428-4.88428 2.18677-4.88428 4.88428 2.18677 4.88428 4.88428 4.88428zm5.88428-4.88428c0 3.2498-2.6345 5.88428-5.88428 5.88428-3.2498 0-5.88428-2.63448-5.88428-5.88428s2.63448-5.884279 5.88428-5.884279c3.24978 0 5.88428 2.634479 5.88428 5.884279z" fill="#85949a" fill-rule="evenodd"/></g></svg>