<svg fill="none" height="25" viewBox="0 0 25 25" width="25" xmlns="http://www.w3.org/2000/svg"><g fill="#2d3436"><path clip-rule="evenodd" d="m8.99829 6.78809c-1.34281 0-2.5 1.15719-2.5 2.5s1.15719 2.50001 2.5 2.50001 2.50001-1.1572 2.50001-2.50001-1.1572-2.5-2.50001-2.5zm-1.5 2.5c0-.79053.70947-1.5 1.5-1.5.79052 0 1.50001.70947 1.50001 1.5 0 .79051-.70949 1.50001-1.50001 1.50001-.79053 0-1.5-.7095-1.5-1.50001z" fill-rule="evenodd"/><path clip-rule="evenodd" d="m15.9983 6.78809c-1.3428 0-2.5 1.15719-2.5 2.5s1.1572 2.50001 2.5 2.50001 2.5-1.1572 2.5-2.50001-1.1572-2.5-2.5-2.5zm-1.5 2.5c0-.79053.7095-1.5 1.5-1.5s1.5.70947 1.5 1.5c0 .79051-.7095 1.50001-1.5 1.50001s-1.5-.7095-1.5-1.50001z" fill-rule="evenodd"/><path d="m11.3599 14.9481c.3248 0 .5882-.2634.5882-.5882 0-.3249-.2634-.5882-.5882-.5882-.3249 0-.5882.2633-.5882.5882 0 .3248.2633.5882.5882.5882z"/><path d="m10.1841 17.1238c.3248 0 .5882-.2633.5882-.5881 0-.3249-.2634-.5882-.5882-.5882-.32484 0-.58818.2633-.58818.5882 0 .3248.26334.5881.58818.5881z"/><path d="m13.1238 16.5357c0 .3248-.2633.5881-.5881.5881-.3249 0-.5882-.2633-.5882-.5881 0-.3249.2633-.5882.5882-.5882.3248 0 .5881.2633.5881.5882z"/><path d="m13.7114 14.9481c.3249 0 .5882-.2634.5882-.5882 0-.3249-.2633-.5882-.5882-.5882-.3248 0-.5881.2633-.5881.5882 0 .3248.2633.5882.5881.5882z"/><path d="m14.8872 17.1238c.3249 0 .5882-.2633.5882-.5881 0-.3249-.2633-.5882-.5882-.5882-.3248 0-.5882.2633-.5882.5882 0 .3248.2634.5881.5882.5881z"/><path d="m13.7114 19.1941c.3249 0 .5882-.2633.5882-.5881 0-.3249-.2633-.5882-.5882-.5882-.3248 0-.5881.2633-.5881.5882 0 .3248.2633.5881.5881.5881z"/><path d="m11.3599 19.1941c.3248 0 .5882-.2633.5882-.5881 0-.3249-.2634-.5882-.5882-.5882-.3249 0-.5882.2633-.5882.5882 0 .3248.2633.5881.5882.5881z"/><path clip-rule="evenodd" d="m17.6198 16.7318c.1989-.2104.5395-.6049.8492-1.0019.1768-.2265.3512-.4636.4875-.6762.0681-.106.1312-.2129.1811-.3141.029-.0587.0613-.1306.0858-.2092.4679-.6945.8186-1.6697 1.0553-2.6465.2481-1.0237.3841-2.10434.3841-2.97081 0-4.48732-3.6377-8.125004-8.125-8.125004-4.48733 0-8.12502 3.637684-8.12502 8.125004 0 .86647.13596 1.94711.38406 2.97081.23671.9768.58744 1.952 1.05531 2.6465.02447.0786.05679.1505.08579.2092.04995.1012.11306.2081.18109.3141.13637.2126.31077.4497.48749.6762.27689.3549.57846.7078.7814.9289.0295.7265.32156 1.4442.8762 1.9989l2.12028 2.1203c1.1716 1.1716 3.0711 1.1716 4.2427 0l2.1203-2.1203c.5361-.5361.8269-1.2246.8724-1.9259zm-5.082-14.94371c-3.93505 0-7.12502 3.18997-7.12502 7.125 0 .77578.12364 1.77681.35592 2.73531.23445.9674.56663 1.837.95421 2.3831.04334.0611.07237.1311.08502.2048l.00053.0014c.00222.006.0092.0249.02613.0592.02756.0558.06945.1285.1261.2168.11299.1761.26666.3863.43424.601.0724.0928.14597.1847.21823.2731.1464-.3538.36339-.6852.65096-.9728l2.12028-2.1203c1.1716-1.1716 3.0711-1.1716 4.2427 0l2.1203 2.1203c.3017.3017.5257.6517.672 1.0251.086-.1042.1744-.2141.2612-.3254.1676-.2147.3213-.4249.4343-.601.0566-.0883.0985-.161.1261-.2168.0169-.0343.0239-.0532.0261-.0592l.0005-.0014c.0127-.0737.0417-.1437.085-.2048.3876-.5461.7198-1.4157.9543-2.3831.2322-.9585.3559-1.95953.3559-2.73531 0-3.93503-3.19-7.125-7.125-7.125zm-1.4462 11.21371-2.12038 2.1203c-.78105.7811-.78105 2.0474 0 2.8285l2.12038 2.1203c.781.781 2.0473.781 2.8284 0l2.1203-2.1203c.7811-.7811.7811-2.0474 0-2.8285l-2.1203-2.1203c-.7811-.781-2.0474-.781-2.8284 0z" fill-rule="evenodd"/><path d="m18.9466 18.2653-.2062.4556c.1671.0756.3621.0537.5082-.0571zm2.1801-.2818.2832-.4121zm-.0569 2.8548.4211.2696c.0043-.0067.0084-.0134.0123-.0203zm-1.0291 1.6082-.4212-.2695c-.0111.0174-.0212.0355-.0301.0541zm-2.5315-1.2973h.5c0-.1326-.0527-.2599-.1466-.3536zm-1.5511-2.257c-.1954-.1952-.5119-.1952-.7071.0002-.1952.1953-.1952.5119.0002.7071zm1.5727-1.8165c-.2516-.1138-.5479-.0022-.6617.2494-.1139.2516-.0022.5478.2493.6617zm1.7178 1.5881c.0985-.0746.423-.218.8178-.2928.1875-.0355.3646-.0502.5118-.0406.1531.0098.2332.0431.2654.0652l.5663-.8242c-.2379-.1634-.519-.2229-.7673-.239-.2541-.0164-.5187.0099-.7623.056-.4674.0886-.9629.2716-1.2357.4785zm1.595-.2682c.2877.1977.3698.5085.2858.965-.085.4616-.3248.936-.493 1.2284l.8668.4986c.1826-.3174.493-.912.6097-1.546.1176-.6392.0527-1.451-.703-1.9702zm-.1949 2.1732-1.0292 1.6082.8423.539 1.0291-1.6081zm-1.0593 1.6623c-.1439.3018-.5756.4585-.9584.2743l-.4336.9012c.7978.3838 1.874.1365 2.2945-.7448zm-.9584.2743c-.1256-.0604-.2905-.255-.4303-.585-.1336-.315-.1915-.6286-.1915-.7712h-1c0 .3093.0994.7571.2708 1.1615.165.3894.4527.8723.9174 1.0959zm-.7684-1.7098-1.9045-1.9034-.7069.7073 1.9045 1.9034zm-.7442-2.8088 1.622.7341.4123-.9111-1.6219-.7341z"/><path d="m6.10384 18.2341-.14937.4771c.11321.0355.23533.0295.34455-.0168zm-2.15851-.251-.28075-.4137h-.00007zm.076 2.8049-.43205.2518.00524.0086zm1.01452 1.6625.45001-.2179c-.00704-.0145-.01478-.0287-.0232-.0425zm2.52724-1.3021-.35355-.3535c-.09355.0935-.14621.2204-.14645.3527zm2.0954-1.3882c.19526-.1953.19526-.5119 0-.7072-.19526-.1952-.51184-.1952-.70711 0zm-1.8124-1.7217c.25424-.1078.37296-.4013.26516-.6555-.10779-.2543-.40127-.373-.6555-.2652zm-1.59288-.2816c-.35761-.112-.82189-.2855-1.22584-.3691-.41113-.0852-.92171-.1177-1.36279.1816l.56151.8274c.09763-.0662.26545-.0988.59847-.0298.34019.0705.68581.2052 1.12991.3442zm-2.5887-.1875c-.39799.2702-.65351.6034-.77229.9831-.11642.372-.08601.739-.00339 1.057.15718.6048.55528 1.1811.70054 1.4303l.86391-.5037c-.20703-.3551-.48487-.7482-.59659-1.1781-.05182-.1995-.0541-.3663-.0101-.5069.04163-.1331.13962-.2914.37957-.4543zm-.06999 3.479 1.01452 1.6626.85362-.5209-1.01452-1.6626zm.99132 1.62c.42274.873 1.4959 1.1195 2.29091.7426l-.42835-.9036c-.38307.1816-.81777.0241-.96254-.2748zm2.29091.7426c.46805-.2218.75461-.7097.91783-1.0993.17017-.4061.26797-.855.26851-1.1624l-1-.0017c-.00025.1443-.0582.4612-.19082.7777-.13959.3331-.30288.5248-.42387.5821zm1.0399-1.909 1.74184-1.7418-.70711-.7072-1.74184 1.7419zm-.4609-4.3842-1.54708.6559.39035.9207 1.54707-.6559z"/></g><path d="m18.7608 14.3209c.8832-1.2446 1.4024-3.7656 1.4024-5.40781 0-4.21118-3.4138-7.625-7.625-7.625-4.21116 0-7.62499 3.41382-7.62499 7.625 0 1.64221.51918 4.16321 1.40237 5.40781.05884.4139.24743 1.8128.56577 2.1312l4.24265 4.2426c.781.7811 2.0474.7811 2.8284 0l4.2427-4.2426c.3183-.3184.5069-1.7173.5657-2.1312z" stroke="#2d3436" stroke-linecap="round" stroke-linejoin="round"/></svg>