<svg fill="none" height="25" viewBox="0 0 25 25" width="25" xmlns="http://www.w3.org/2000/svg"><g fill="#2d3436"><path d="m10.707 10.2871c.2762 0 .5.2239.5.5v1.318c0 .2761-.2238.5-.5.5-.2761 0-.5-.2239-.5-.5v-1.318c0-.2761.2239-.5.5-.5z"/><path d="m10.707 14.1357c.2762 0 .5-.2238.5-.5 0-.2761-.2238-.5-.5-.5-.2761 0-.5.2239-.5.5 0 .2762.2239.5.5.5z"/><path clip-rule="evenodd" d="m6.5 3.31799c0-1.03875.98898-1.81799 2.00301-1.81799h8.51699c1.0141 0 2.003.77924 2.003 1.81799v17.39751c0 1.0387-.9889 1.818-2.003 1.818h-8.51699c-1.01403 0-2.00301-.7793-2.00301-1.818zm10.2463-.39529c.7426-.19535 1.2766.25289 1.2766.83444v16.25526c0 .3383-.1353.5749-.3292.7134-.198.1415-.5184.2232-.9569.1186l-.0014-.0003-5.7041-1.4041c-.3955-.1049-.7866-.3544-1.07718-.682-.2932-.3306-.45021-.7006-.45021-1.0301v-11.59837c0-.32954.15701-.69958.45021-1.03015.29138-.32855.68378-.57844 1.08048-.68287z" fill-rule="evenodd"/></g></svg>