<svg fill="none" height="25" viewBox="0 0 25 25" width="25" xmlns="http://www.w3.org/2000/svg"><path d="m12.4187 10.872c0-.8394.6805-1.51996 1.52-1.51996.4622 0 .837-.37471.837-.83695v-.7828c0-.41974.3402-.76.76-.76h2.46c.4198 0 .76.34026.76.76v.78236c0 .46248.3749.83739.8374.83739.8395 0 1.52.68056 1.52 1.51996v11.3009c0 .8395-.6805 1.52-1.52 1.52h-5.6544c-.8395 0-1.52-.6805-1.52-1.52z" fill="#00ac83"/><g fill="#2d3436"><path d="m4.33535 2.3075c4.29765-.57282 7.42305-.55527 11.77245.01075 1.076.14003 1.9223.98877 2.06 2.0655.0769.60156.0781.60769.09.67065.0041.02165.0094.05002.0196.11164-.0029.27613.2187.50228.4948.50512.2761.00285.5023-.21869.5051-.49481.0002-.01583.0005-.02936.0007-.04161.0024-.11591.0024-.1181-.1183-.87783-.2415-1.52057-1.3957-2.73156-2.9229-2.9303-4.4314-.576699-7.64472-.59532-12.03357-.01034-1.52663.20348-2.71725 1.41592-2.9046 2.94139-.532293 4.33419-.562693 7.52794-.00925 12.02524.19052 1.5482 1.41613 2.765 2.9662 2.943l.17364.02c2.20033.2528 3.40034.3907 5.37937.3713h.01136c.07996-.0006.41685-.0028.72465-.0509.2761-.0037.4969-.2305.4933-.5066-.0037-.2761-.2305-.497-.5067-.4933-.3178.0481-.63883.0502-.71249.0507l-.01012.0001c-1.92415.0193-3.08344-.114-5.23124-.3609l-.20767-.0239c-1.09081-.1252-1.95364-.9815-2.08779-2.0716-.54302-4.4127-.51351-7.52442.00929-11.78124.13224-1.0768.97196-1.92914 2.04417-2.07206z"/><path d="m9.67578 3.96875c0 .27614-.22386.5-.5.5s-.5-.22386-.5-.5.22386-.5.5-.5.5.22386.5.5z"/><path d="m11.7617 3.96875c0 .27614-.2238.5-.5.5-.2761 0-.5-.22386-.5-.5s.2239-.5.5-.5c.2762 0 .5.22386.5.5z"/><path d="m8.63672 2.92676c0 .27614-.22386.5-.5.5s-.5-.22386-.5-.5.22386-.5.5-.5.5.22386.5.5z"/><path d="m10.7188 2.92676c0 .27614-.2239.5-.5.5-.27619 0-.50005-.22386-.50005-.5s.22386-.5.50005-.5c.2761 0 .5.22386.5.5z"/><path d="m7.59375 15.4268c0 .2761-.22386.5-.5.5s-.5-.2239-.5-.5c0-.2762.22386-.5.5-.5s.5.2238.5.5z"/><path d="m5.51172 15.4268c0 .2761-.22386.5-.5.5s-.5-.2239-.5-.5c0-.2762.22386-.5.5-.5s.5.2238.5.5z"/><path d="m6.55078 16.4688c0 .2761-.22386.5-.5.5s-.5-.2239-.5-.5c0-.2762.22386-.5.5-.5s.5.2238.5.5z"/><path d="m6.55078 14.3857c0 .2762-.22386.5-.5.5s-.5-.2238-.5-.5c0-.2761.22386-.5.5-.5s.5.2239.5.5z"/><path d="m4.46875 16.4688c0 .2761-.22386.5-.5.5s-.5-.2239-.5-.5c0-.2762.22386-.5.5-.5s.5.2238.5.5z"/><path d="m7.59375 17.5107c0 .2762-.22386.5-.5.5s-.5-.2238-.5-.5c0-.2761.22386-.5.5-.5s.5.2239.5.5z"/><path d="m5.51172 17.5107c0 .2762-.22386.5-.5.5s-.5-.2238-.5-.5c0-.2761.22386-.5.5-.5s.5.2239.5.5z"/><path d="m12.383 6.68229c.1791.10502.3473.22114.5043.34692.2154.17269.5301.13799.7028-.07749.1727-.21549.138-.53016-.0775-.70285-.1946-.156-.4028-.29967-.6239-.42928-2.4652-1.44516-5.63525-.61823-7.08042 1.84701-1.44517 2.4652-.61823 5.6352 1.84701 7.0804.90827.5325 1.91368.7567 2.89281.7036.2757-.015.4871-.2506.4721-.5264-.0149-.2757-.2506-.4871-.5263-.4721-.78924.0428-1.59903-.1376-2.33289-.5678-1.98878-1.1658-2.6559-3.7232-1.49004-5.71198 1.16587-1.98878 3.72323-2.6559 5.71203-1.49003z"/><path clip-rule="evenodd" d="m15.5359 6.47266h2.4601c.6958 0 1.26.56412 1.26 1.26v.78236c0 .18633.151.33739.3373.33739 1.1157 0 2.02.90438 2.02 2.01999v11.3009c0 1.1156-.9043 2.02-2.02 2.02h-5.6544c-1.1156 0-2.02-.9044-2.02-2.02v-11.3009c0-1.11561.9044-2.01999 2.02-2.01999.1861 0 .337-.15086.337-.33695v-.7828c0-.69588.5641-1.26 1.26-1.26zm2.4601 1h-2.4601c-.1436 0-.26.1164-.26.26v.7828c0 .73837-.5986 1.33695-1.337 1.33695-.5633 0-1.02.45669-1.02 1.01999v11.3009c0 .5633.4567 1.02 1.02 1.02h5.6544c.5634 0 1.02-.4567 1.02-1.02v-11.3009c0-.5633-.4566-1.01999-1.02-1.01999-.7386 0-1.3373-.59878-1.3373-1.33739v-.78236c0-.1436-.1164-.26-.26-.26z" fill-rule="evenodd"/></g></svg>