<svg fill="none" height="28" viewBox="0 0 27 28" width="27" xmlns="http://www.w3.org/2000/svg"><rect fill="#f1f3fa" height="27" rx="10" width="27" y=".5"/><g fill="#2d3436"><path d="m9.58203 5.04688c0-.20711-.16789-.375-.375-.375s-.375.16789-.375.375v.93303c0 .2071.16789.375.375.375s.375-.1679.375-.375z"/><path d="m5.82376 6.30808c-.14645-.14645-.38388-.14645-.53033 0-.14645.14644-.14645.38388 0 .53033l.67857.67856c.14644.14645.38388.14645.53033 0 .14644-.14644.14644-.38388 0-.53033z"/><path d="m3.65625 10.2207c0-.2071.16789-.375.375-.375h.93303c.20711 0 .375.1679.375.375s-.16789.375-.375.375h-.93303c-.20711 0-.375-.1679-.375-.375z"/><path d="m6.50233 13.5396c.14644-.1465.14644-.3839 0-.5304-.14645-.1464-.38389-.1464-.53033 0l-.67857.6786c-.14645.1465-.14645.3839 0 .5303.14645.1465.38388.1465.53033 0z"/><path d="m9.20703 14.0879c.20711 0 .375.1679.375.375v.933c0 .2071-.16789.375-.375.375s-.375-.1679-.375-.375v-.933c0-.2071.16789-.375.375-.375z"/><path d="m12.5269 13.0092c-.1465-.1464-.3839-.1464-.5303 0-.1465.1465-.1465.3839 0 .5304l.6785.6785c.1465.1465.3839.1465.5304 0 .1464-.1464.1464-.3838 0-.5303z"/><path d="m13.0703 10.2207c0-.2071.1679-.375.375-.375h.933c.2071 0 .375.1679.375.375s-.1679.375-.375.375h-.933c-.2071 0-.375-.1679-.375-.375z"/><path d="m13.2055 6.83841c.1464-.14645.1464-.38389 0-.53033-.1465-.14645-.3839-.14645-.5304 0l-.6785.67856c-.1465.14645-.1465.38389 0 .53033.1464.14645.3838.14645.5303 0z"/><path clip-rule="evenodd" d="m6.45312 10.3066c0-1.57289 1.27935-2.74996 2.74999-2.74996 1.54589 0 2.74999 1.08303 2.74999 2.66516 0 1.5729-1.2794 2.75-2.74999 2.75-1.45208 0-2.74999-1.0746-2.74999-2.6652zm2.74999-1.99996c-1.07399 0-1.99999.85863-1.99999 1.99996 0 1.1237.90744 1.9152 1.99999 1.9152 1.07399 0 1.99999-.8586 1.99999-2 0-1.13213-.8316-1.91516-1.99999-1.91516z" fill-rule="evenodd"/><path clip-rule="evenodd" d="m18.8566 20.0129v3.1115h1.869c.0643 0 .0887-.0198.0961-.0272s.0271-.0317.0272-.0958l-.0029-4.733c-.0001-.0995.0394-.1949.1098-.2653.0703-.0704.1657-.1099.2652-.1099h.9316l-1.6416-1.5984c-.0725-.0706-.1134-.1675-.1134-.2686v-2.3155h-.7447v.9204c0 .1483-.0874.2826-.2229.3428-.1355.0601-.2938.0348-.4037-.0647l-2.014-1.8222-5.1861 4.856h.9747c.2071 0 .375.1679.375.375s-.1679.375-.375.375h-1.2456c-.2209 0-.4624-.1124-.5845-.3567-.0548-.1095-.0833-.2441-.0685-.3773.0134-.1202.0707-.284.2253-.3892l5.4491-5.1024c.2436-.2382.6211-.2391.8657-.0027l1.4605 1.3214v-.2013c0-.1599.0549-.3224.1783-.4458.1234-.1233.2859-.1783.4458-.1783h.9965c.1599 0 .3224.055.4457.1783.1234.1234.1784.2859.1784.4458v2.2831l1.7835 1.7365c.1087.1088.2717.3787.12.682-.1221.2443-.3636.3568-.5845.3568h-.8704l.0027 4.3578c0 .2346-.0799.4596-.2469.6266-.167.1669-.3917.2468-.6264.2468h-2.2151c-.0056.0004-.0113.0007-.017.0009-.0039.0002-.0079.0002-.0119.0002h-2.9894c-.0097 0-.0194-.0004-.0289-.0011h-2.2112c-.2346 0-.4594-.0799-.6263-.2468-.167-.167-.2469-.3917-.2469-.6264v-1.967c0-.2071.1679-.375.375-.375s.375.1679.375.375v1.967c0 .0642.0198.0886.0272.096s.0318.0272.096.0272h1.8651v-3.1115c0-.2347.0799-.4594.2468-.6264.167-.167.3917-.2469.6264-.2469h1.993c.2346 0 .4594.0799.6263.2469.167.167.2469.3917.2469.6264zm-2.9894 0c0-.0643.0198-.0887.0272-.0961s.0318-.0272.096-.0272h1.993c.0642 0 .0886.0198.096.0272s.0272.0318.0272.0961v3.1115h-2.2394z" fill-rule="evenodd"/><path d="m12.75 20.0518c.2071 0 .375-.1679.375-.375s-.1679-.375-.375-.375-.375.1679-.375.375.1679.375.375.375z"/></g></svg>