<svg fill="none" height="28" viewBox="0 0 27 28" width="27" xmlns="http://www.w3.org/2000/svg"><rect fill="#f1f3fa" height="27" rx="10" width="27" y=".5"/><g fill="#2d3436"><g clip-rule="evenodd" fill-rule="evenodd"><path d="m6.32031 20.6531c0-1.1098.87409-2.0427 1.97606-2.0427 1.10196 0 1.97603.9329 1.97603 2.0427s-.87407 2.0428-1.97603 2.0428c-1.10197 0-1.97606-.933-1.97606-2.0428zm1.97606-1.2927c-.6592 0-1.22606.568-1.22606 1.2927 0 .7248.56686 1.2928 1.22606 1.2928.65919 0 1.22605-.568 1.22605-1.2928 0-.7247-.56686-1.2927-1.22605-1.2927z"/><path d="m16.7266 20.6531c0-1.1098.874-2.0427 1.976-2.0427s1.9761.9329 1.9761 2.0427-.8741 2.0428-1.9761 2.0428-1.976-.933-1.976-2.0428zm1.976-1.2927c-.6592 0-1.226.568-1.226 1.2927 0 .7248.5668 1.2928 1.226 1.2928s1.2261-.568 1.2261-1.2928c0-.7247-.5669-1.2927-1.2261-1.2927z"/><path d="m7.92188 7.90686v-.51341c0-.3309.10712-.6377.32462-.86426.21882-.22794.52081-.34462.8509-.34462h1.6011c.33 0 .632.11668.8509.34462.2175.22656.3246.53336.3246.86426v.45909h1.2258c.3301 0 .6321.11668.8509.34462.2175.22655.3246.53336.3246.86426v1.29308h1.9458c.6313 0 1.2535.4253 1.4708.9911l.0011.0028 1.2238 3.2668 2.2118.9216c.7523.1377 1.1343.8111 1.2265 1.3876l.3116 1.9473c.0312.0259.061.0536.0894.0833.2175.2265.3247.5333.3247.8642s-.1072.6377-.3247.8643c-.2188.2279-.5208.3446-.8509.3446h-1.601c-.2071 0-.3755-.1679-.3755-.375s.1684-.375.3755-.375h1.601c.1503 0 .2485-.0501.3099-.114.0627-.0653.1157-.1754.1157-.3449 0-.1694-.053-.2795-.1157-.3448-.0614-.064-.1596-.114-.3099-.114h-3.2026c-.2071 0-.3745-.1679-.3745-.375 0-.2072.1674-.375.3745-.375h3.1628l-.2508-1.5675c-.0659-.4118-.3097-.7224-.6456-.7724-.0306-.0046-.0605-.0129-.089-.0248l-2.4016-1.0006c-.0364-.0152-.0699-.0359-.0993-.061-.0224.0041-.0455.0063-.0692.0063h-5.6341v5.0869h4.4274c.2071 0 .375.1679.375.375 0 .2072-.1679.375-.375.375h-4.7884l-.014.0003-.014-.0003h-2.38836c-.20711 0-.375-.1678-.375-.375 0-.2071.16789-.375.375-.375h2.02736v-5.4619c0-.2071.1679-.375.375-.375h1.2226v-3.3359h-5.89136l-1.80594 3.1353c-.03211.0673-.06242.1341-.09077.2006h3.79335c.20711 0 .375.1679.375.375s-.16789.375-.375.375h-4.02137c-.02519.1485-.03856.3006-.03856.459v2.961h2.82762c.2071 0 .37423.1678.37423.375 0 .2071-.16713.375-.37423.375h-3.60314c-.00962 0-.01609.0009-.01994.0018-.002.0056-.00532.0184-.00532.0401v.2502c0 .3708.30662.6256.58563.6256h1.44095c.2071 0 .37576.1679.37576.375s-.16866.375-.37576.375h-1.44095c-.68162 0-1.33563-.5791-1.33563-1.3756v-.2502c0-.2058.0671-.4084.21455-.562.14877-.155.3507-.2299.56071-.2299h.02552v-2.961c0-.6581.18208-1.2152.43719-1.7467.00406-.0084.00844-.0167.01312-.0249l1.92127-3.3355c.00921-.016.01951-.0311.03076-.0454v-1.43548c0-.3309.10713-.63771.32463-.86426.13235-.13787.29513-.23504.47616-.2903zm.75-.51341c0-.16943.05297-.27956.11566-.34486.06137-.06393.15964-.11402.30986-.11402h1.6011c.1502 0 .2484.05009.3098.11402.0627.0653.1157.17543.1157.34486v.45909h-2.45212zm-.37526 1.20909h.42604v1.75196h-.85157v-1.29308c0-.16943.05298-.27956.11567-.34486.06137-.06393.15964-.11402.30986-.11402zm1.17604 0v1.75196h2.45314v-1.75196zm3.20314 1.75196v-1.75196h.424c.1502 0 .2485.05009.3098.11402.0627.0653.1157.17543.1157.34486v1.29308zm5.3746 4.0859-1.0587-2.826-.0004-.0012c-.1035-.2676-.4414-.5087-.7702-.5087h-1.9477v3.3359z"/></g><path d="m14.957 17.3174c0-.2071.1679-.375.375-.375h.7238c.2071 0 .375.1679.375.375s-.1679.375-.375.375h-.7238c-.2071 0-.375-.1679-.375-.375z"/><path d="m11.2969 14.8154c0 .2071-.1679.375-.375.375s-.375-.1679-.375-.375.1679-.375.375-.375.375.1679.375.375z"/><path d="m13.9062 17.6924c.2072 0 .375-.1679.375-.375s-.1678-.375-.375-.375c-.2071 0-.375.1679-.375.375s.1679.375.375.375z"/></g></svg>