<svg fill="none" height="25" viewBox="0 0 25 25" width="25" xmlns="http://www.w3.org/2000/svg"><path clip-rule="evenodd" d="m11.3765 19.1801c-.6222.6221-.6222 1.6308 0 2.253.6221.6221 1.6308.6221 2.253 0 .6221-.6222.6221-1.6309 0-2.253-.6222-.6222-1.6309-.6222-2.253 0zm.7071 1.5459c-.2317-.2316-.2317-.6072 0-.8388.2316-.2317.6071-.2317.8388 0 .2316.2316.2316.6072 0 .8388-.2317.2316-.6072.2316-.8388 0z" fill="#2d3436" fill-rule="evenodd"/><path clip-rule="evenodd" d="m15.1275 11.2158c.2761-.0024.5019.2196.5043.4957l.0196 2.2568h1.3712c.7868.0068 1.3963.6163 1.4031 1.4031l.0357 4.1127c0 .0076-.0001.0151-.0004.0227-.1137 3.0902-2.7556 5.6093-5.9342 5.3825-3.13454.0311-5.82105-2.3643-5.98902-5.4686-.00048-.009-.00073-.018-.00073-.027v-4.016c-.00285-.4072.16815-.7637.44082-1.0363.14646-.1465.30895-.249.49513-.3085.17636-.0564.34842-.0658.4978-.0646h1.2167l-.01929-2.224c-.00239-.2761.21951-.5019.49565-.5043.27613-.0024.50194.2195.50434.4956l.0193 2.2327h4.4638l-.0195-2.2481c-.0024-.2762.2195-.502.4957-.5044zm-7.59047 4.1556c-.00091-.1059.03893-.2139.14794-.3229.04465-.0447.07228-.0566.0927-.0632.02936-.0094.07954-.018.18669-.017h.00434 9.0471c.2403.0029.4078.1711.4099.4118l.0356 4.101c-.0999 2.5502-2.2871 4.6048-4.8816 4.4094-.0148-.0011-.0296-.0015-.0443-.0013-2.63386.0357-4.85368-1.97-4.99835-4.5094v-4.0041z" fill="#2d3436" fill-rule="evenodd"/><g fill="#00ac83"><path d="m6.48572 4.49707c1.34479-1.79003 3.48402-2.94629 5.89348-2.94629 1.9032 0 3.6369.72114 4.9444 1.90592.2046.18542.5208.16984.7063-.03479.1854-.20464.1698-.52083-.0348-.70625-1.4843-1.34493-3.455-2.164879-5.6159-2.164879-2.73724 0-5.16745 1.315019-6.69299 3.345639-.16586.22078-.12135.53422.09943.70008.22078.16587.53422.12135.70008-.09943z"/><path d="m8.88285 5.68308c.93034-.82632 2.15415-1.32761 3.49615-1.32761 1.7228 0 3.2523.82651 4.2141 2.10675.1658.22078.4793.2653.7001.09943.2207-.16586.2653-.4793.0994-.70008-1.1426-1.52083-2.9631-2.5061-5.0136-2.5061-1.5961 0-3.05394.59735-4.16022 1.57994-.20647.18337-.22518.4994-.0418.70587.18337.20646.4994.22517.70587.0418z"/><path d="m12.38 7.16309c-1.0025 0-1.8927.48072-2.45287 1.22636-.16586.22078-.4793.2653-.70008.09943-.22078-.16586-.2653-.4793-.09943-.70008.74092-.98623 1.92208-1.62571 3.25238-1.62571.6796 0 1.3216.16713 1.8858.46296.2446.12823.3389.43045.2106.67501-.1282.24456-.4304.33885-.675.21061-.4243-.2225-.9074-.34858-1.4214-.34858z"/><path d="m18.8711 4.77832c.2762 0 .5-.22386.5-.5s-.2238-.5-.5-.5c-.2761 0-.5.22386-.5.5s.2239.5.5.5z"/><path d="m7.93362 6.52832c0 .27614-.22385.5-.5.5-.27614 0-.5-.22386-.5-.5s.22386-.5.5-.5c.27615 0 .5.22386.5.5z"/><path d="m15.4336 8.59082c.2762 0 .5-.22386.5-.5s-.2238-.5-.5-.5c-.2761 0-.5.22386-.5.5s.2239.5.5.5z"/><path d="m12.4961 11.1533c.2762 0 .5-.2238.5-.5 0-.2761-.2238-.5-.5-.5-.2761 0-.5.2239-.5.5 0 .2762.2239.5.5.5z"/></g></svg>