<svg fill="none" height="25" viewBox="0 0 25 25" width="25" xmlns="http://www.w3.org/2000/svg"><g fill="#2d3436"><path clip-rule="evenodd" d="m7 19.2028c-.52784 0-.99239.4143-.99239.971 0 .5568.46455.971.99239.971.5266 0 .99239-.4138.99239-.971s-.46579-.971-.99239-.971zm.00761.971c0 .0061-.00143.0128-.00396.0185-.00122.0028-.00365.0065-.00365.0065s-.00241-.0034-.00358-.0061c-.00254-.0057-.00403-.0125-.00403-.0189s.00149-.0132.00403-.0189c.00117-.0026.00348-.0062.00348-.0062s.00253.0038.00375.0066c.00253.0057.00396.0124.00396.0185z" fill-rule="evenodd"/><path d="m7 12.2256c.27614 0 .5-.2239.5-.5 0-.2762-.22386-.5-.5-.5s-.5.2238-.5.5c0 .2761.22386.5.5.5z"/><path d="m7 14.2256c.27614 0 .5-.2239.5-.5 0-.2762-.22386-.5-.5-.5s-.5.2238-.5.5c0 .2761.22386.5.5.5z"/><path d="m7.5 15.7256c0 .2761-.22386.5-.5.5s-.5-.2239-.5-.5c0-.2762.22386-.5.5-.5s.5.2238.5.5z"/><path d="m7 18.2256c.27614 0 .5-.2239.5-.5 0-.2762-.22386-.5-.5-.5s-.5.2238-.5.5c0 .2761.22386.5.5.5z"/><path clip-rule="evenodd" d="m7 1.5c-1.36063 0-2.5 1.05987-2.5 2.41304v12.66886c-1.19885.7709-2 2.085-2 3.592 0 2.4097 2.03495 4.3261 4.5 4.3261 2.46396 0 4.5-1.9163 4.5-4.3261 0-1.5073-.8031-2.8211-2-3.5918v-12.66906c0-1.35317-1.13937-2.41304-2.5-2.41304zm-1.5 2.41304c0-.75978.64963-1.41304 1.5-1.41304s1.5.65326 1.5 1.41304v12.95226c0 .1818.09865.3492.25763.4373 1.04915.5815 1.74237 1.654 1.74237 2.8713 0 1.8161-1.54596 3.3261-3.5 3.3261-1.95495 0-3.5-1.5099-3.5-3.3261 0-1.2176.69154-2.2899 1.74206-2.8711.15916-.0881.25794-.2556.25794-.4375z" fill-rule="evenodd"/><path d="m11.1016 3.41309c-.2762 0-.5.22385-.5.5 0 .27614.2238.5.5.5h1c.2761 0 .5-.22386.5-.5 0-.27615-.2239-.5-.5-.5z"/><path d="m11.1016 8.1958c-.2762 0-.5.22386-.5.5s.2238.5.5.5h3c.2761 0 .5-.22386.5-.5s-.2239-.5-.5-.5z"/><path d="m11.1016 12.9775c-.2762 0-.5.2239-.5.5 0 .2762.2238.5.5.5h1c.2761 0 .5-.2238.5-.5 0-.2761-.2239-.5-.5-.5z"/></g><path d="m17.0344 20.5638c.0059.0065.012.0129.0183.0192.0927.0927.2128.1414.3343.1461.1346.0054.271-.0433.3738-.1461.0065-.0065.0128-.0131.0189-.0199l3.6853-3.6853c.1952-.1952.1952-.5118 0-.7071-.1953-.1952-.5119-.1952-.7072 0l-3.3511 3.3512-1.7093-1.7094c-.1953-.1953-.5119-.1953-.7071 0-.1953.1953-.1953.5118 0 .7071z" fill="#00ac83"/><path clip-rule="evenodd" d="m18.2288 13.3438c-2.698 0-4.885 2.187-4.885 4.885 0 2.6979 2.187 4.885 4.885 4.885 2.6979 0 4.885-2.1871 4.885-4.885 0-2.698-2.1871-4.885-4.885-4.885zm-5.885 4.885c0-3.2502 2.6348-5.885 5.885-5.885 3.2501 0 5.885 2.6348 5.885 5.885 0 3.2501-2.6349 5.885-5.885 5.885-3.2502 0-5.885-2.6349-5.885-5.885z" fill="#85949a" fill-rule="evenodd"/></svg>