<svg fill="none" height="25" viewBox="0 0 25 25" width="25" xmlns="http://www.w3.org/2000/svg"><circle cx="12.5" cy="12.5" fill="#f18303" r="12" stroke="#2d3436"/><g fill="#2d3436"><path clip-rule="evenodd" d="m12.5 24c6.3513 0 11.5-5.1487 11.5-11.5 0-6.35127-5.1487-11.5-11.5-11.5-6.35127 0-11.5 5.14873-11.5 11.5 0 6.3513 5.14873 11.5 11.5 11.5zm0 1c6.9036 0 12.5-5.5964 12.5-12.5 0-6.90356-5.5964-12.5-12.5-12.5-6.90356 0-12.5 5.59644-12.5 12.5 0 6.9036 5.59644 12.5 12.5 12.5z" fill-rule="evenodd"/><path d="m9.54893 3.45235c0 .24982-.20252.45234-.45234.45234-.24983 0-.45235-.20252-.45235-.45234 0-.24983.20252-.45235.45235-.45235.24982 0 .45234.20252.45234.45235z"/><path d="m10.626 3.36142c-.2922-.09331-.6048.06795-.69808.36019-.09331.29223.06795.60478.36018.69809 4.006 1.27908 6.9182 4.83181 7.4035 9.1305.0392.3477.0637.9767.0699 1.3589.003.1799.0928.3472.2411.4489.1482.1018.3366.1255.5055.0636.3581-.1312.7152-.2847 1.0638-.4565.2616-.1288.5189-.2682.7689-.4166.2637-.1566.3506-.4974.194-.7612s-.4973-.3507-.7611-.1941c-.2249.1335-.4568.2592-.6928.3754-.0784.0386-.1573.0762-.2364.1127-.0123-.2395-.0286-.4748-.049-.6557-.5335-4.72611-3.7393-8.64967-8.1695-10.06418z"/><path d="m10.2379 4.72463c-.1036-.28874-.42172-.43879-.71046-.33516-.28873.10363-.43879.42171-.33516.71045.33485.93292.52677 1.92636.52677 2.95484 0 1.04245-.19986 2.09224-.56586 3.11014-.21875-.3307-.40821-.6653-.57289-1.0113-.13184-.27701-.46326-.39469-.74026-.26286-.277.13186-.39468.46326-.26285.74026.3356.7051.75741 1.3595 1.2831 2.0071.12081.1489.30982.2249.50003.2012.19021-.0238.35475-.1439.43529-.3179.65439-1.4134 1.03439-2.93381 1.03439-4.46664 0-1.16781-.2181-2.28803-.5921-3.33013z"/><path d="m6.93328 10.575c.19592-.2361.16339-.58626-.07267-.78218-.23605-.19593-.58624-.1634-.78216.07266-1.37233 1.65342-2.07845 4.19142-2.07845 6.29562 0 .0071.00013.0141.0004.0212.19029 4.9866 4.28489 8.8265 9.2338 8.7306l.0111-.0004c4.8581-.192 8.7547-4.2226 8.7547-9.2018 0-.3808-.0188-.767-.066-1.1489-.0376-.3045-.3149-.5208-.6194-.4832-.3044.0377-.5207.315-.4831.6194.0405.3279.0576.6676.0576 1.0127 0 3.1668-1.7869 5.8895-4.3815 7.223.4244-.69.662-1.4861.6653-2.3407.0966-1.5694-.74-3.03-2.182-3.7568-.0775-.0391-.1632-.0594-.25-.0594h-.1777c-.2282 0-.4253.1377-.5108.3345-.0137.018-.0284.0391-.0429.0635-.027.0454-.0512.0984-.068.159-.0046.0164-.0084.0327-.0116.049-.0411.1126-.0932.2154-.1543.3103-.129-.5134-.1151-1.0543.0264-1.5763.0803-.2961-.0946-.6012-.3907-.6815s-.6012.0947-.6815.3908c-.2777 1.0244-.1931 2.1446.3662 3.1311.0789.1392.2141.2377.3708.27.1567.0324.3197-.0043.4474-.1008.3296-.2492.6926-.5912.9388-1.0831.8259.5722 1.2757 1.5053 1.2102 2.4948-.0008.0122-.0012.0244-.0012.0367 0 .845-.3009 1.6125-.8348 2.2339-.6079.6062-1.3379.8886-2.1334.8157-.0169-.0015-.0338-.0023-.0507-.0023-.837 0-1.588-.3026-2.1972-.9166-.0086-.0087-.0176-.0172-.0269-.0253-.5786-.5103-.88424-1.2503-.88424-2.1054 0-2.1465 1.17544-4.1219 3.00824-5.2577.2608-.1616.3412-.504.1796-.7648-.1616-.2607-.504-.3411-.7648-.1795-2.1355 1.3234-3.53396 3.6434-3.53396 6.202 0 .9064.265 1.7708.81202 2.465-2.58398-1.2243-4.4033-3.8045-4.52494-6.8893.00241-1.9109.6565-4.1709 1.82236-5.5755z"/><path d="m21.6562 13.2705c0 .2499-.2025.4524-.4523.4524s-.4523-.2025-.4523-.4524c0-.2498.2025-.4523.4523-.4523s.4523.2025.4523.4523z"/><path d="m13.8674 14.7204c.2498 0 .4524-.2026.4524-.4524s-.2026-.4523-.4524-.4523-.4523.2025-.4523.4523.2025.4524.4523.4524z"/><path d="m7.58052 9.5493c.24982 0 .45235-.20253.45235-.45235s-.20253-.45235-.45235-.45235-.45235.20253-.45235.45235.20253.45235.45235.45235z"/></g></svg>