<svg fill="none" height="25" viewBox="0 0 25 25" width="25" xmlns="http://www.w3.org/2000/svg"><g fill="#2d3436"><path d="m13.855 11.6636c.2762 0 .5-.2239.5-.5 0-.2762-.2238-.5-.5-.5-.2761 0-.5.2238-.5.5 0 .2761.2239.5.5.5z"/><g clip-rule="evenodd" fill-rule="evenodd"><path d="m17.6197 21.4084c.6221-.6221.6221-1.6308 0-2.253-.6222-.6221-1.6309-.6221-2.253 0-.6222.6222-.6222 1.6309 0 2.253.6221.6222 1.6308.6222 2.253 0zm-.7071-1.5459c.2316.2317.2316.6072 0 .8388-.2317.2317-.6072.2317-.8388 0-.2317-.2316-.2317-.6071 0-.8388.2316-.2316.6071-.2316.8388 0z"/><path d="m19.3362 11.2144c-.2761-.0024-.5019.2195-.5043.4956l-.0187 2.1536h-4.4614l.0108-1.246c.0024-.2761-.2195-.5019-.4956-.5043-.2762-.0024-.502.2195-.5044.4957l-.0108 1.2546h-1.4335c-.3833.0033-.7288.1476-.9769.414-.2446.2628-.3639.6107-.3671.9735l-.0153 1.8147c-.0061.7305-.0131 1.5574-.0203 2.3927-.0001.0076 0 .0152.0003.0227.1137 3.0902 2.7556 5.6093 5.9342 5.3826 3.1345.031 5.8211-2.3644 5.989-5.4687.0004-.0076.0007-.0151.0007-.0227l.0357-4.1127c.0015-.1701-.0182-.3476-.0854-.5257-.0681-.1806-.1749-.3349-.3125-.4725s-.2919-.2444-.4725-.3125c-.1773-.0669-.3541-.0867-.5235-.0854h-1.2915l.0186-2.1449c.0024-.2761-.2195-.5019-.4956-.5043zm-7.4111 3.6492h7.2619c.0376.0094.0769.0145.1174.0149.0435.0003.0858-.0049.1261-.0149h1.6763l.0043-.0001c.087-.0007.1341.0098.1641.0211.0276.0104.0649.0305.1184.084s.0736.0908.084.1183c.0113.0301.0218.0772.021.1642l-.0355 4.101c-.1436 2.5404-2.3639 4.5472-4.9984 4.5115-.0148-.0002-.0296.0002-.0444.0013-2.5945.1954-4.7817-1.8592-4.8816-4.4094.0072-.8315.0142-1.6542.0203-2.3814l.0153-1.8144c.0013-.1513.0491-.2471.099-.3006.0462-.0496.1222-.094.2518-.0955z"/></g></g><path d="m8.94699 5.09243c.19526-.18808.19526-.49302 0-.6811s-.51184-.18808-.70711 0l-1.45226 1.39883-1.47939-1.42496c-.19526-.18808-.51184-.18808-.7071 0-.19527.18808-.19527.49301 0 .68109l1.47939 1.42497-1.5458 1.48893c-.19526.18807-.19526.49301 0 .68109s.51185.18808.70711 0l1.5458-1.48893 1.51866 1.46279c.19526.18808.51184.18808.70711 0 .19526-.18807.19526-.49301 0-.68109l-1.51867-1.46279z" fill="#f18303"/><path clip-rule="evenodd" d="m6.77171 11.2277c2.69791 0 4.88499-2.10662 4.88499-4.70528 0-2.59865-2.18708-4.70528-4.88499-4.70528s-4.885 2.10663-4.885 4.70528c0 2.59866 2.18709 4.70528 4.885 4.70528zm5.88499-4.70528c0 3.13063-2.6348 5.66848-5.88499 5.66848-3.2502 0-5.885003-2.53785-5.885003-5.66848 0-3.13062 2.634803-5.668493 5.885003-5.668493 3.25019 0 5.88499 2.537873 5.88499 5.668493z" fill="#85949a" fill-rule="evenodd"/></svg>