<svg fill="none" height="25" viewBox="0 0 25 25" width="25" xmlns="http://www.w3.org/2000/svg"><g fill="#2d3436"><path clip-rule="evenodd" d="m9.50005 5.65625c-1.07615 0-2 .92386-2 2s.92385 2 2 2h.99995v2.51635c0 .2761.2239.5.5.5.2762 0 .5-.2239.5-.5v-2.51635h2v3.33365l-.0001.0101c0 .6908-.4674 1.2737-1.1041 1.4473-.2664.0727-.4234.3475-.3508.614.0727.2664.3475.4235.6139.3508.9732-.2654 1.7105-1.1036 1.8254-2.1309.0103-.04.0157-.0818.0157-.125v-3.49995h1c1.0762 0 2-.92386 2-2s-.9238-2-2-2c-1.0761 0-2 .92386-2 2v1h-2v-1c0-1.07614-.9238-2-1.99995-2zm.99995 2v1h-.99995c-.52386 0-1-.47614-1-1s.47614-1 1-1c.52385 0 .99995.47614.99995 1zm5 1h-1v-1c0-.52386.4762-1 1-1 .5239 0 1 .47614 1 1s-.4761 1-1 1z" fill-rule="evenodd"/><path d="m11.5 13.918c0 .2761-.2238.5-.5.5-.2761 0-.5-.2239-.5-.5 0-.2762.2239-.5.5-.5.2762 0 .5.2238.5.5z"/><path clip-rule="evenodd" d="m4.50768 8.7149c.00646-4.52855 3.56298-8.2149 7.99242-8.2149 4.4293 0 7.9859 3.68635 7.9923 8.21491.1566 3.27069-2.1111 6.00489-4.1473 7.56619-.0552.0696-.1165.182-.1815.349-.0659.1693-.1216.3556-.1821.558l-.0188.063c-.0634.2115-.1375.4546-.2328.6549-.0498.1048-.1296.2522-.2565.3756.0174.0739.0266.1509.0266.2301v2c0 1.6723-1.3277 3-3 3-1.6722 0-2.99995-1.3277-2.99995-3v-2c0-.0792.0092-.1562.0266-.2301-.12689-.1234-.20665-.2708-.25648-.3756-.09522-.2003-.16935-.4434-.23273-.6549l-.01885-.063c-.06049-.2024-.11618-.3887-.18208-.558-.06502-.1669-.12626-.2794-.1815-.3489-2.03808-1.5616-4.30386-4.2958-4.14733-7.5663zm10.28102 8.8323-.0089.0042c-.0887-.0258-.1826-.0397-.2798-.0397h-4c-.0971 0-.191.0139-.2797.0397l-.0089-.0042c-.0088-.0138-.0218-.0362-.0381-.0705-.0568-.1194-.1105-.2877-.17795-.5127l-.01944-.065c-.05842-.1958-.12597-.4222-.20755-.6317-.08939-.2296-.2135-.4883-.40259-.6924-.01971-.0213-.04124-.0408-.06434-.0583-1.95323-1.4836-3.93386-3.9594-3.79438-6.7645.00041-.00827.00062-.01655.00062-.02483 0-4.01124 3.14011-7.22727 6.99243-7.22727 3.8522 0 6.9923 3.21603 6.9923 7.22727 0 .00828.0002.01656.0007.02483.1394 2.805-1.8427 5.2808-3.7946 6.7646-.023.0175-.0445.037-.0642.0582-.1891.2041-.3132.4628-.4026.6924-.0815.2095-.1491.4359-.2075.6317l-.0194.065c-.0675.225-.1212.3933-.178.5127-.0163.0343-.0293.0567-.0381.0705zm-.2887 2.9645v-2h-4v2c0 1.12.88 2 2 2s2-.88 2-2z" fill-rule="evenodd"/><path d="m12.5 25c.2762 0 .5-.2239.5-.5s-.2238-.5-.5-.5c-.2761 0-.5.2239-.5.5s.2239.5.5.5z"/></g></svg>