<svg fill="none" height="25" viewBox="0 0 25 25" width="25" xmlns="http://www.w3.org/2000/svg"><g fill="#2d3436"><path clip-rule="evenodd" d="m3.28516 5.53516c0-1.933 1.567-3.5 3.5-3.5h11.42924c1.933 0 3.5 1.567 3.5 3.5v.56149c.0003.00724.0004.01453.0004.02185v.17252c0 .01266-.0001.02529-.0004.03789v12.96269c0 1.933-1.567 3.5-3.5 3.5h-3.9488c-.2761 0-.5-.2239-.5-.5 0-.2762.2239-.5.5-.5h3.9488c1.3807 0 2.5-1.1193 2.5-2.5v-11.58577c-.1563.05517-.3244.08519-.4996.08519h-5.3642c-.0145.52451-.4443.94526-.9723.94526h-2.7572c-.528 0-.9578-.42075-.9723-.94527h-5.36317c-.1755 0-.34395-.03013-.50047-.08551v11.5861c0 1.3807 1.11928 2.5 2.5 2.5h3.99604c.2762 0 .5.2238.5.5 0 .2761-.2238.5-.5.5h-3.99604c-1.933 0-3.5-1.567-3.5-3.5zm3.21484-.53516c.27614 0 .5-.22386.5-.5s-.22386-.5-.5-.5-.5.22386-.5.5.22386.5.5.5zm0 2c.27614 0 .5-.22386.5-.5s-.22386-.5-.5-.5-.5.22386-.5.5.22386.5.5.5zm12.5-2.5c0 .27614-.2239.5-.5.5s-.5-.22386-.5-.5.2239-.5.5-.5.5.22386.5.5zm-.5 2.5c.2761 0 .5-.22386.5-.5s-.2239-.5-.5-.5-.5.22386-.5.5.2239.5.5.5z" fill-rule="evenodd"/><path d="m12.5 22.792c.2761 0 .5-.2239.5-.5s-.2239-.5-.5-.5-.5.2239-.5.5.2239.5.5.5z"/><path d="m12.3242 15.6875v-3.4817l-.9706.9707c-.1953.1952-.5119.1952-.7072 0-.1952-.1953-.1952-.5119 0-.7071l1.823-1.823c.0937-.0937.2209-.1464.3535-.1464h.0013c.149 0 .2828.0652.3744.1686l1.8008 1.8008c.1952.1952.1952.5118 0 .7071-.1953.1952-.5119.1952-.7071 0l-.9681-.9681v3.4791c0 1.4947 1.1303 2.625 2.625 2.625h1.1667c.2761 0 .5.2239.5.5s-.2239.5-.5.5h-1.1667c-2.047 0-3.625-1.578-3.625-3.625z"/><path d="m18.7812 19.3125c.2762 0 .5-.2239.5-.5s-.2238-.5-.5-.5c-.2761 0-.5.2239-.5.5s.2239.5.5.5z"/></g></svg>