<svg fill="none" height="25" viewBox="0 0 25 25" width="25" xmlns="http://www.w3.org/2000/svg"><g fill="#2d3436"><path clip-rule="evenodd" d="m6.78516 2.03516c-1.933 0-3.5 1.567-3.5 3.5v13.75644c0 1.933 1.567 3.5 3.5 3.5h3.99604c.2762 0 .5-.2239.5-.5 0-.2762-.2238-.5-.5-.5h-3.99604c-1.38072 0-2.5-1.1193-2.5-2.5v-11.5861c.15652.05538.32497.08551.50047.08551h5.36317c.0145.52452.4443.94527.9723.94527h2.7572c.528 0 .9578-.42075.9723-.94526h5.3642c.1752 0 .3433-.03002.4996-.08519v11.58577c0 1.3807-1.1193 2.5-2.5 2.5h-3.9488c-.2761 0-.5.2238-.5.5 0 .2761.2239.5.5.5h3.9488c1.933 0 3.5-1.567 3.5-3.5v-12.96269c.0003-.0126.0004-.02523.0004-.03789v-.17252c0-.00732-.0001-.01461-.0004-.02185v-.56149c0-1.933-1.567-3.5-3.5-3.5zm.21484 2.46484c0 .27614-.22386.5-.5.5s-.5-.22386-.5-.5.22386-.5.5-.5.5.22386.5.5zm0 2c0 .27614-.22386.5-.5.5s-.5-.22386-.5-.5.22386-.5.5-.5.5.22386.5.5zm11.5-1.5c.2761 0 .5-.22386.5-.5s-.2239-.5-.5-.5-.5.22386-.5.5.2239.5.5.5zm.5 1.5c0 .27614-.2239.5-.5.5s-.5-.22386-.5-.5.2239-.5.5-.5.5.22386.5.5z" fill-rule="evenodd"/><path d="m13 22.292c0 .2761-.2239.5-.5.5s-.5-.2239-.5-.5.2239-.5.5-.5.5.2239.5.5z"/></g></svg>