<svg fill="none" height="25" viewBox="0 0 25 25" width="25" xmlns="http://www.w3.org/2000/svg"><g clip-rule="evenodd" fill="#2d3436" fill-rule="evenodd"><path d="m1 4.22404c0-1.2283.99574-2.22404 2.22404-2.22404h.88962c1.22831 0 2.22405.99574 2.22405 2.22404 0 1.22831-.99574 2.22405-2.22405 2.22405h-.88962c-1.2283 0-2.22404-.99574-2.22404-2.22405zm2.22404-1.22404h.88962c.67602 0 1.22405.54802 1.22405 1.22404 0 .67603-.54803 1.22405-1.22405 1.22405h-.88962c-.67602 0-1.22404-.54802-1.22404-1.22405 0-.67602.54802-1.22404 1.22404-1.22404z"/><path d="m7.52344 4.22404c0-1.2283.99574-2.22404 2.22404-2.22404h.88962c1.2283 0 2.224.99574 2.224 2.22404 0 1.22831-.9957 2.22405-2.224 2.22405h-.88962c-1.2283 0-2.22404-.99574-2.22404-2.22405zm2.22404-1.22404h.88962c.676 0 1.224.54802 1.224 1.22404 0 .67603-.548 1.22405-1.224 1.22405h-.88962c-.67602 0-1.22404-.54802-1.22404-1.22405 0-.67602.54802-1.22404 1.22404-1.22404z"/><path d="m16.2709 2c-1.2283 0-2.224.99574-2.224 2.22404 0 1.22831.9957 2.22405 2.224 2.22405h.8896c1.2283 0 2.2241-.99574 2.2241-2.22405 0-1.2283-.9958-2.22404-2.2241-2.22404zm.8896 1h-.8896c-.676 0-1.224.54802-1.224 1.22404 0 .67603.548 1.22405 1.224 1.22405h.8896c.6761 0 1.2241-.54802 1.2241-1.22405 0-.67602-.548-1.22404-1.2241-1.22404z"/><path d="m20.5742 3.77924c0-.98265.7966-1.77924 1.7793-1.77924.9826 0 1.7792.79659 1.7792 1.77924v.88961c0 .98265-.7966 1.77924-1.7792 1.77924-.9827 0-1.7793-.79659-1.7793-1.77924zm1.7793-.77924c.4303 0 .7792.34888.7792.77924v.88961c0 .43036-.3489.77924-.7792.77924-.4304 0-.7793-.34888-.7793-.77924v-.88961c0-.43036.3489-.77924.7793-.77924z"/><path d="m2.77924 8.22705c-.98265 0-1.77924.79659-1.77924 1.77925 0 .9826.79659 1.7792 1.77924 1.7792h7.11694c.98262 0 1.77922-.7966 1.77922-1.7792 0-.98266-.7966-1.77925-1.77922-1.77925zm0 1c-.43036 0-.77924.34888-.77924.77925 0 .4303.34888.7792.77924.7792h7.11694c.43032 0 .77922-.3489.77922-.7792 0-.43037-.3489-.77925-.77922-.77925z"/><path d="m13.457 10.0063c0-.98266.7966-1.77925 1.7793-1.77925h7.1169c.9827 0 1.7792.79659 1.7792 1.77925 0 .9826-.7965 1.7792-1.7792 1.7792h-7.1169c-.9827 0-1.7793-.7966-1.7793-1.7792zm1.7793-.77925h7.1169c.4304 0 .7792.34888.7792.77925 0 .4303-.3488.7792-.7792.7792h-7.1169c-.4304 0-.7793-.3489-.7793-.7792 0-.43037.3489-.77925.7793-.77925z"/><path d="m2.77924 13.5654c-.98265 0-1.77924.7966-1.77924 1.7793 0 .9826.79659 1.7792 1.77924 1.7792h7.11694c.98262 0 1.77922-.7966 1.77922-1.7792 0-.9827-.7966-1.7793-1.77922-1.7793zm0 1c-.43036 0-.77924.3489-.77924.7793 0 .4303.34888.7792.77924.7792h7.11694c.43032 0 .77922-.3489.77922-.7792 0-.4304-.3489-.7793-.77922-.7793z"/><path d="m13.457 15.3447c0-.9827.7966-1.7793 1.7793-1.7793h7.1169c.9827 0 1.7792.7966 1.7792 1.7793 0 .9826-.7965 1.7792-1.7792 1.7792h-7.1169c-.9827 0-1.7793-.7966-1.7793-1.7792zm1.7793-.7793h7.1169c.4304 0 .7792.3489.7792.7793 0 .4303-.3488.7792-.7792.7792h-7.1169c-.4304 0-.7793-.3489-.7793-.7792 0-.4304.3489-.7793.7793-.7793z"/><path d="m2.77924 18.9023c-.98265 0-1.77924.7966-1.77924 1.7793 0 .9826.79659 1.7792 1.77924 1.7792h7.11694c.98262 0 1.77922-.7966 1.77922-1.7792 0-.9827-.7966-1.7793-1.77922-1.7793zm0 1c-.43036 0-.77924.3489-.77924.7793 0 .4303.34888.7792.77924.7792h7.11694c.43032 0 .77922-.3489.77922-.7792 0-.4304-.3489-.7793-.77922-.7793z"/><path d="m13.457 20.6816c0-.9827.7966-1.7793 1.7793-1.7793h7.1169c.9827 0 1.7792.7966 1.7792 1.7793 0 .9826-.7965 1.7792-1.7792 1.7792h-7.1169c-.9827 0-1.7793-.7966-1.7793-1.7792zm1.7793-.7793h7.1169c.4304 0 .7792.3489.7792.7793 0 .4303-.3488.7792-.7792.7792h-7.1169c-.4304 0-.7793-.3489-.7793-.7792 0-.4304.3489-.7793.7793-.7793z"/></g></svg>