<svg fill="none" height="25" viewBox="0 0 25 25" width="25" xmlns="http://www.w3.org/2000/svg" xmlns:xlink="http://www.w3.org/1999/xlink"><linearGradient id="a"><stop offset="0" stop-color="#f94409"/><stop offset="1" stop-color="#f18303"/></linearGradient><linearGradient id="b" gradientUnits="userSpaceOnUse" x1="12.5" x2="12.5" xlink:href="#a" y1="0" y2="25"/><linearGradient id="c" gradientUnits="userSpaceOnUse" x1="12.835" x2="12.835" xlink:href="#a" y1="3" y2="24.6598"/><path clip-rule="evenodd" d="m12.5 24c6.3513 0 11.5-5.1487 11.5-11.5 0-6.35127-5.1487-11.5-11.5-11.5-6.35127 0-11.5 5.14873-11.5 11.5 0 6.3513 5.14873 11.5 11.5 11.5zm0 1c6.9036 0 12.5-5.5964 12.5-12.5 0-6.90356-5.5964-12.5-12.5-12.5-6.90356 0-12.5 5.59644-12.5 12.5 0 6.9036 5.59644 12.5 12.5 12.5z" fill="url(#b)" fill-rule="evenodd"/><g fill="url(#c)"><path d="m9.40794 3.4492c0 .24809-.20112.4492-.4492.4492-.24809 0-.4492-.20111-.4492-.4492s.20111-.4492.4492-.4492c.24808 0 .4492.20111.4492.4492z"/><path d="m10.4464 3.45644c-.2364-.07545-.48911.05496-.56457.29129s.05496.48909.29127.56455c4.0173 1.28267 6.9362 4.84486 7.4226 9.15302.0395.3504.0639.9792.0701 1.3593.0024.1455.075.2807.1949.3631.1199.0823.2723.1014.4088.0514.3521-.1291.7034-.28 1.0464-.4491.2574-.1268.5106-.2639.7565-.4099.2134-.1266.2836-.4022.157-.6156-.1267-.2133-.4023-.2836-.6156-.1569-.2256.1339-.4583.26-.6949.3765-.1242.0612-.2494.1197-.3751.1754-.0127-.2858-.0311-.5801-.0554-.795-.5253-4.65378-3.6817-8.51586-8.042-9.90806z"/><path d="m9.99573 4.74722c-.08381-.2335-.34104-.35485-.57454-.27104s-.35485.34104-.27104.57454c.33612.9365.52912 1.93471.52912 2.96888 0 1.11259-.22637 2.2319-.63743 3.3107-.26782-.3861-.49493-.7763-.68826-1.1825-.10661-.22398-.37463-.31915-.59864-.21254-.22401.10664-.31918.37464-.21257.59864.32939.6921.7437 1.3351 1.26122 1.9727.09769.1203.25055.1818.40437.1626.15383-.0192.28689-.1163.35202-.257.64452-1.3921 1.01772-2.88734 1.01772-4.3926 0-1.14685-.2142-2.24759-.58197-3.27238z"/><path clip-rule="evenodd" d="m6.73169 10.4569c.15844-.1909.13213-.4741-.05877-.63254-.19089-.15845-.47409-.13214-.63254.05876-1.34395 1.61918-2.04038 4.11448-2.04038 6.18638 0 .0058.00011.0115.00033.0172.18682 4.8961 4.20647 8.6655 9.06527 8.5713l.009-.0002c4.7689-.1885 8.5954-4.1454 8.5954-9.0355 0-.3748-.0185-.7541-.0647-1.1284-.0305-.2462-.2547-.4211-.5009-.3907s-.4212.2547-.3908.5009c.0409.3306.058.6722.058 1.0182 0 3.3221-1.9559 6.1591-4.7505 7.4303.5435-.7378.8523-1.6234.8554-2.5853.0946-1.5183-.7137-2.9319-2.1105-3.6359-.0627-.0316-.132-.0481-.2022-.0481h-.177c-.189 0-.3513.1168-.4176.2822-.0142.018-.0296.0393-.0437.0631-.0227.0379-.0428.0822-.0569.1329-.0045.0162-.0082.0323-.0111.0484-.0701.1953-.1713.3621-.2929.509-.193-.5872-.1955-1.2171-.032-1.8202.0649-.2394-.0765-.4861-.316-.5511-.2394-.0649-.4861.0766-.5511.316-.2695.9941-.1868 2.0784.3539 3.0321.0639.1126.1731.1922.2999.2184.1267.0262.2586-.0035.3618-.0816.3436-.2597.7182-.6185.952-1.1446.9128.5806 1.416 1.5763 1.346 2.635-.0007.0098-.001.0197-.001.0296 0 .8661-.3092 1.6528-.8563 2.2881-.6234.6232-1.3785.9179-2.203.8423-.0137-.0012-.0273-.0018-.041-.0018-.8581 0-1.6302-.3112-2.2546-.9405-.007-.0071-.0142-.0139-.0217-.0205-.5997-.529-.91281-1.2934-.91281-2.1676 0-2.1695 1.18781-4.1629 3.03581-5.3081.2109-.1307.2759-.4076.1452-.6185s-.4076-.2759-.6185-.1452c-2.0927 1.2969-3.46091 3.569-3.46091 6.0718 0 1.0398.35872 2.017 1.0989 2.7324-2.83074-1.1379-4.86245-3.8485-4.99079-7.1239.00195-1.9157.65632-4.1861 1.83329-5.6041zm7.29641 6.5435c.0001-.0001-.001.0011-.0036.0038z" fill-rule="evenodd"/><path d="m21.431 13.1991c0 .2481-.2011.4492-.4492.4492-.248 0-.4492-.2011-.4492-.4492s.2012-.4492.4492-.4492c.2481 0 .4492.2011.4492.4492z"/><path d="m13.6964 14.6388c.2481 0 .4492-.2011.4492-.4492s-.2011-.4492-.4492-.4492-.4492.2011-.4492.4492.2011.4492.4492.4492z"/><path d="m7.45322 9.50374c.24809 0 .4492-.20112.4492-.4492 0-.24809-.20111-.4492-.4492-.4492s-.4492.20111-.4492.4492c0 .24808.20111.4492.4492.4492z"/></g></svg>