<svg fill="none" height="25" viewBox="0 0 25 25" width="25" xmlns="http://www.w3.org/2000/svg"><path clip-rule="evenodd" d="m25 12.5c0 6.9036-5.5964 12.5-12.5 12.5-6.90356 0-12.5-5.5964-12.5-12.5 0-6.90356 5.59644-12.5 12.5-12.5 6.9036 0 12.5 5.59644 12.5 12.5zm-2.5 0c0 5.5228-4.4772 10-10 10-2.2511 0-4.32856-.7438-5.99986-1.9992l14.00066-14.00066c1.2554 1.6713 1.9992 3.74876 1.9992 5.99986zm-17.79685 6.2623 14.05915-14.05915c-1.7139-1.37832-3.8918-2.20315-6.2623-2.20315-5.52285 0-10 4.47715-10 10 0 2.3705.82483 4.5484 2.20315 6.2623z" fill="#f18303" fill-rule="evenodd"/></svg>