<svg fill="none" height="25" viewBox="0 0 25 25" width="25" xmlns="http://www.w3.org/2000/svg"><path d="m10.4778 23.5677-2.98692-3.3387c-.55314-.6462-.44251-1.7232.22126-2.2617s1.77004-.4308 2.32316.2154l2.5445 3.0156v-9.3914c.1106-.8616.885-1.6155 1.77-1.6155s1.6594.7539 1.6594 1.6155v5.8373h3.3189c2.4338 0 4.4251 1.9386 4.4251 4.308v1.6155" stroke="#2d3436" stroke-linecap="round" stroke-linejoin="round"/><path clip-rule="evenodd" d="m3.25.701172c-1.38071 0-2.5 1.119288-2.5 2.499998v18.23803c0 1.3807 1.11929 2.5 2.5 2.5h4.48608c.27615 0 .5-.2239.5-.5 0-.2762-.22385-.5-.5-.5h-4.48608c-.82843 0-1.5-.6716-1.5-1.5v-18.23803c0-.82842.67157-1.5 1.5-1.5h1.5229v.18545c0 .82843.67157 1.5 1.5 1.5h2.92818c.82842 0 1.50002-.67157 1.50002-1.5v-.18545h1.5211c.8284 0 1.5.67157 1.5 1.5v5.25824c0 .27614.2238.5.5.5.2761 0 .5-.22386.5-.5v-5.25824c0-1.38071-1.1193-2.499998-2.5-2.499998zm6.45108.999998h-3.92818v.18545c0 .27614.22385.5.5.5h2.92818c.27614 0 .5-.22386.5-.5z" fill="#2d3436" fill-rule="evenodd"/><g fill="#f94409"><path d="m10.7553 13.9827h-.3813c-.0586 0-.0977.0478-.0977.0956v.3725c0 .258.2151.4681.479.4681.264 0 .4791-.2101.4791-.4681 0-.2579-.2151-.4681-.4791-.4681z"/><path d="m10.6282 9.25398c-.0782-.06687-.2053-.14329-.2933-.19106l-1.79885-.94575c-.09776-.05732-.21508-.09553-.32262-.13374-.31285-.08598-.64526-.08598-.95811 0-.11731.02866-.22486.07642-.32262.13374l-1.80866.94575c-.08799.04777-.20531.12419-.2933.19106-.38128.31526-.59636.77382-.59636 1.27052v2.7418c0 .9171.76256 1.6526 1.69134 1.6526h3.15782c.26396 0 .47905-.2101.47905-.4681v-.3725c0-.0573-.04889-.0956-.09777-.0956h-3.5391c-.40084 0-.73324-.3248-.73324-.7164v-2.7418c0-.2674.14664-.5063.38128-.63046l1.85754-.96486c.19553-.08598.40084-.08598.59637 0l1.85754.96486c.23459.12416.38129.36306.38129.63046v2.4074c0 .2579.2151.4681.479.4681.264 0 .4791-.2102.4791-.4681v-2.4074c.0098-.4967-.2151-.95526-.5964-1.27052z"/></g></svg>