<svg fill="none" height="25" viewBox="0 0 25 25" width="25" xmlns="http://www.w3.org/2000/svg"><g stroke="#18303f" stroke-linecap="round" stroke-linejoin="round"><path d="m12.867 2.7418c.1802-.18334.3604-.275.6306-.275.2703 0 .4505.09166.6307.275l6.3963 6.50833c.3604.36667.3604.91667 0 1.28337-.6306.6416-1.7117 1.7416-2.8828 2.9333-2.0721 1.925-5.4054 1.8333-7.2973-.3667-2.0721-2.0166-2.25228-5.31664-.36039-7.42497z"/><path d="m15.3896 4.02516 1.8675-1.90016"/><path d="m19.2207 7.9183 1.2687-1.29086"/><path d="m21.5051 5.5935.01-.01"/><path d="m10.6577 22.2981.01-.01"/><circle cx="13.2045" cy="10.1874" r="1.09312"/><path d="m11.3358 13.9703-1.93417 1.968-1.84621-1.8785 1.93413-1.968"/><path d="m11.7858 20.8004c.5406-.55.5406-1.4667 0-2.0167-.5405-.55-1.4414-.55-1.98194 0l-3.06306 3.1167c-.63063.6417-1.62162.825-2.34234.275-.45046-.275-.72073-.825-.72073-1.375s.18018-1.1.54054-1.4667l4.23424-4.3083"/></g></svg>