<svg fill="none" height="26" viewBox="0 0 25 26" width="25" xmlns="http://www.w3.org/2000/svg"><g stroke="#92a0a9" stroke-linecap="round" stroke-linejoin="round"><path d="m1.53906 15.5524.0213.0178m21.89844.6144-.8275-.6322c-1.9374-1.4695-3.6494-.9736-5.2731.1622-1.6236 1.1357-3.5609 1.1357-5.273 0-1.7121-1.1358-2.89429-1.6128-5.27308-.1622-1.34078.8565-2.28739 1.1861-3.25648 1.0004-.2056-.0394-.41222-.102-.62382-.1876"/><path d="m1.53906 4.64904c1.92793 1.39205 3.06689 1.40926 5.27306 0 2.37879-1.45064 3.56098-.9736 5.27308.16214s3.6494 1.13574 5.273 0c1.4452-1.01092 2.9605-1.51497 4.6423-.57721m1.4583 1.04721-.0248-.02155"/><path d="m1.53906 10.1002c1.92793 1.3921 3.06689 1.4093 5.27306 0 2.37879-1.45062 3.56098-.97359 5.27308.1622 1.7121 1.1357 3.6494 1.1357 5.273 0 1.6237-1.13579 3.3357-1.63176 5.2731-.1622l.8275.6321"/><path d="m1.53906 21.0035c1.92793 1.3921 3.06689 1.4093 5.27306 0 2.37879-1.4506 3.56098-.9736 5.27308.1622 1.7121 1.1357 3.6494 1.1357 5.273 0 1.6237-1.1358 3.3357-1.6317 5.2731-.1622l.8275.6322"/></g></svg>