<svg fill="none" height="25" viewBox="0 0 25 25" width="25" xmlns="http://www.w3.org/2000/svg"><g stroke="#18303f" stroke-linecap="round" stroke-linejoin="round"><path d="m8.00826 22.0309c1.50901-.4032 1.76194.7152 2.96024.395.3107-.0831 1.3196-.4001.9153-1.9051-.4044-1.5049-1.5812-.5737-2.45552-1.5261-.94245-1.029-1.20408-2.0028-2.66871-1.6114-1.46462.3913-1.24738 1.377-1.50326 2.7263-.27966 1.2608-1.76574 1.0411-1.36141 2.5461.40434 1.505 1.43704 1.2764 1.74771 1.1934 1.19834-.3202.85665-1.4149 2.36565-1.8182z"/><path d="m3.49026 18.4939c.13081.4869-.1616.992-.64981 1.1224-.48821.1305-.99469-.1611-1.1255-.648l-.23785-.8853c-.13081-.4869.1616-.992.64981-1.1225.48821-.1304.99468.1612 1.1255.6481z"/><path d="m5.38088 14.905c.13082.4869-.1616.992-.64981 1.1225-.48821.1304-.99468-.1612-1.1255-.6481l-.23784-.8852c-.13082-.4869.1616-.9921.64981-1.1225.4882-.1305.99468.1611 1.12549.648z"/><path d="m10.1478 16.7149c.1308.4869.6373.7785 1.1255.648.4882-.1304.7806-.6355.6498-1.1224l-.2378-.8853c-.1308-.4869-.6373-.7785-1.1255-.6481-.4882.1305-.78065.6356-.64984 1.1225z"/><path d="m6.71178 14.5493c.13081.4869.63729.7786 1.12549.6481.48821-.1305.78063-.6356.64981-1.1225l-.23784-.8852c-.13082-.4869-.63729-.7786-1.1255-.6481s-.78063.6356-.64981 1.1225z"/><path d="m16.9916 10.9368c1.509.4032 1.1673 1.4979 2.3656 1.8182.3107.083 1.3434.3115 1.7478-1.1934.4043-1.505-1.0818-1.2854-1.3615-2.54615-.3002-1.36116-.0386-2.33495-1.5032-2.72634s-1.7707.57054-2.6687 1.61147c-.8743.9524-2.0512.02116-2.4555 1.52612-.4044 1.505.6046 1.822.9152 1.905 1.1984.3203 1.4513-.7982 2.9603-.3949z"/><path d="m14.8523 5.62092c-.1308.4869-.6372.77853-1.1255.64806-.4882-.13046-.7806-.63557-.6498-1.12247l.2379-.88527c.1308-.48689.6373-.77852 1.1255-.64806.4882.13047.7806.63558.6498 1.12248z"/><path d="m18.2881 3.4554c-.1308.48689-.6373.77852-1.1255.64806-.4882-.13047-.7806-.63558-.6498-1.12248l.2379-.88526c.1308-.4869.6373-.77853 1.1255-.64806.4882.13046.7806.63557.6498 1.12247z"/><path d="m21.5097 7.39993c-.1309.4869.1616.99201.6498 1.12247.4882.13047.9947-.16116 1.1255-.64806l.2378-.88527c.1308-.48689-.1616-.99201-.6498-1.12247s-.9947.16116-1.1255.64806z"/><path d="m19.6198 3.81106c-.1308.4869.1616.99201.6498 1.12247.4882.13047.9947-.16116 1.1255-.64806l.2378-.88526c.1308-.4869-.1616-.99201-.6498-1.12248-.4882-.13046-.9947.16117-1.1255.64806z"/></g></svg>