<svg fill="none" height="25" viewBox="0 0 25 25" width="25" xmlns="http://www.w3.org/2000/svg"><path d="m15.6792 11.8503c.5.2886.5 1.0103 0 1.299l-5.1032 2.9463c-.5.2887-1.12499-.0721-1.12499-.6495v-5.89264c0-.57736.62499-.9382 1.12499-.64952z" stroke="#18303f"/><path d="m24 8v-3c0-2.20914-1.7909-4-4-4h-15c-2.20914 0-4 1.79086-4 4v3m23 9v3c0 2.2091-1.7909 4-4 4h-15c-2.20914 0-4-1.7909-4-4v-3" stroke="#18303f"/><g fill="#18303f"><rect height="1.16379" rx=".5" transform="matrix(1 0 0 -1 3.5 5.16357)" width="1.16379"/><rect height="1.16379" rx=".5" transform="matrix(1 0 0 -1 8 5.16357)" width="1.16379"/><rect height="1.16379" rx=".5" transform="matrix(1 0 0 -1 12 5.16357)" width="1.16379"/><rect height="1.16379" rx=".5" transform="matrix(1 0 0 -1 16 5.16357)" width="1.16379"/><rect height="1.16379" rx=".5" transform="matrix(1 0 0 -1 20 5.16357)" width="1.16379"/><rect height="1.16379" rx=".5" transform="matrix(1 0 0 -1 3.5 20.9995)" width="1.16379"/><rect height="1.16379" rx=".5" transform="matrix(1 0 0 -1 8 20.9995)" width="1.16379"/><rect height="1.16379" rx=".5" transform="matrix(1 0 0 -1 12 20.9995)" width="1.16379"/><rect height="1.16379" rx=".5" transform="matrix(1 0 0 -1 16 20.9995)" width="1.16379"/><rect height="1.16379" rx=".5" transform="matrix(1 0 0 -1 20 20.9995)" width="1.16379"/></g><g stroke="#18303f"><path d="m22.5454 15.3635c-1.4058 0-2.5454-1.2821-2.5454-2.8636 0-1.5816 1.1396-2.86367 2.5454-2.86367"/><path d="m24 7.99987c0 .90374-.6513 1.63636-1.4546 1.63636"/><path d="m24 16.9992c0-.9038-.6513-1.6364-1.4546-1.6364"/><path d="m2.45459 15.3635c1.40582 0 2.54545-1.2821 2.54545-2.8636 0-1.5816-1.13963-2.86367-2.54545-2.86367"/><path d="m1.00004 7.99987c0 .90374.65123 1.63636 1.45455 1.63636"/><path d="m1.00004 16.9992c0-.9038.65123-1.6364 1.45455-1.6364"/></g></svg>