<svg fill="none" height="133" viewBox="0 0 238 133" width="238" xmlns="http://www.w3.org/2000/svg"><g stroke="#00ac83" stroke-linecap="round" stroke-linejoin="round"><path d="m2 130.832h234.4"/><path d="m42.2016 87.1315c0-1.5-1.7-2.5-3-1.8l-21.6 11.9v30.3005c0 1.8 1.5 3.3 3.3 3.3h17.8999c1.8 0 3.3001-1.5 3.3001-3.3v-40.4005z" fill="#d0eeef"/><path d="m25.3984 130.831v-23.3"/><path d="m34.3984 130.831v-23.3"/><path d="m99.7984 86.5312h-32.4v44.2998h32.4z" fill="#e8dbcf"/><path d="m83.7 86.5314h-16.2l8.1-7.5 6.6-6.1c.7-.6 2.4-.6 3.1 0l6.6 6.1 8.1 7.5z" fill="#e5cfd7"/><g fill="#d7ffff"><path d="m74.7 103.432h-.4c-.4 0-.8-.3-.8-.8v-7c0-.4.3-.8.8-.8h.4c.4 0 .8.3.8.8v7.1c0 .3-.3.7-.8.7z"/><path d="m83.8992 103.432h-.4c-.4 0-.8-.3-.8-.8v-7c0-.4.3-.8.8-.8h.4c.4 0 .8.3.8.8v7.1c-.1.3-.4.7-.8.7z"/><path d="m93.0008 103.432h-.4c-.4 0-.8-.3-.8-.8v-7c0-.4.3-.8.8-.8h.4c.4 0 .8.3.8.8v7.1c-.1.3-.4.7-.8.7z"/><path d="m74.7 119.532h-.4c-.4 0-.8-.3-.8-.8v-7.1c0-.4.3-.8.8-.8h.4c.4 0 .8.3.8.8v7.1c0 .4-.3.8-.8.8z"/><path d="m83.8992 119.532h-.4c-.4 0-.8-.3-.8-.8v-7.1c0-.4.3-.8.8-.8h.4c.4 0 .8.3.8.8v7.1c-.1.4-.4.8-.8.8z"/><path d="m93.0008 119.532h-.4c-.4 0-.8-.3-.8-.8v-7.1c0-.4.3-.8.8-.8h.4c.4 0 .8.3.8.8v7.1c-.1.4-.4.8-.8.8z"/></g><path d="m65.1992 103.432h-20.8c-1.2 0-2.2 1-2.2 2.2v23c0 1.2 1 2.2 2.2 2.2h20.8c1.2 0 2.2-1 2.2-2.2v-23c0-1.2-1-2.2-2.2-2.2z" fill="#e2e1cf"/><path d="m37.4994 107.631c-1.1 0-1.7001-1.1-1.2001-2l7.1-12.2001c.7-1.2 1.8-1.8 2.9-1.8h18.9001c1.3 0 2.3 1 2.3 2.2v11.7001c0 1.2-1 2.2-2.3 2.2h-27.7z" fill="#eaceca"/><path d="m57.9 120.731h-6.1c-.7 0-1.3-.6-1.3-1.3v-4.6c0-.7.6-1.3 1.3-1.3h6.1c.7 0 1.3.6 1.3 1.3v4.6c0 .7-.6 1.3-1.3 1.3z" fill="#d7ffff"/><path d="m54.8008 113.531v7.2"/><path d="m166.198 130.731h-32.3c-2.5 0-4.5-2-4.5-4.5v-78.1001c0-2.5 2-4.5 4.5-4.5h27.8c2.5 0 4.5 2 4.5 4.5z" fill="#d1e5e4"/><g fill="#d7ffff"><path d="m129.398 58.6316v-.4c0-.4.3-.8.8-.8h17.3c.4 0 .8.3.8.8v.4c0 .4-.3.8-.8.8h-17.4c-.4-.1-.7-.4-.7-.8z"/><path d="m129.398 69.6316v-.4c0-.4.3-.8.8-.8h12.5c.4 0 .8.3.8.8v.4c0 .4-.3.8-.8.8h-12.5c-.5-.1-.8-.4-.8-.8z"/><path d="m154.102 69.6316v-.4c0-.4.3-.8.8-.8h5.8c.4 0 .8.3.8.8v.4c0 .4-.3.8-.8.8h-5.8c-.5-.1-.8-.4-.8-.8z"/><path d="m154.102 58.6316v-.4c0-.4.3-.8.8-.8h5.8c.4 0 .8.3.8.8v.4c0 .4-.3.8-.8.8h-5.8c-.5-.1-.8-.4-.8-.8z"/><path d="m154.102 80.6316v-.4c0-.4.3-.8.8-.8h5.8c.4 0 .8.3.8.8v.4c0 .4-.3.8-.8.8h-5.8c-.5-.1-.8-.4-.8-.8z"/><path d="m136.102 80.6316v-.4c0-.4.3-.8.8-.8h5.8c.4 0 .8.3.8.8v.4c0 .4-.3.8-.8.8h-5.8c-.5-.1-.8-.4-.8-.8z"/><path d="m154.102 90.6316v-.4c0-.4.3-.8.8-.8h5.8c.4 0 .8.3.8.8v.4c0 .4-.3.8-.8.8h-5.8c-.5-.1-.8-.4-.8-.8z"/><path d="m136.102 90.6316v-.4c0-.4.3-.8.8-.8h5.8c.4 0 .8.3.8.8v.4c0 .4-.3.8-.8.8h-5.8c-.5-.1-.8-.4-.8-.8z"/><path d="m154.102 100.632v-.4c0-.4004.3-.8004.8-.8004h5.8c.4 0 .8.3.8.8004v.4c0 .4-.3.8-.8.8h-5.8c-.5-.1-.8-.4-.8-.8z"/><path d="m136.102 100.632v-.4c0-.4004.3-.8004.8-.8004h5.8c.4 0 .8.3.8.8004v.4c0 .4-.3.8-.8.8h-5.8c-.5-.1-.8-.4-.8-.8z"/></g><path d="m157.801 130.732h-9.8c-.9 0-1.7-.7-1.7-1.7v-9c0-.9.7-1.7 1.7-1.7h8.1c.9 0 1.7.7 1.7 1.7z" fill="#cebfae"/><path d="m136.698 130.731h-32.3c-2.5 0-4.4996-2-4.4996-4.5v-47.6998c0-2.5 1.9996-4.5 4.4996-4.5h27.8c2.5 0 4.5 2 4.5 4.5z" fill="#d1e5e4"/><g fill="#d7ffff"><path d="m99.8984 89.032v-.4c0-.4.2996-.8.7996-.8h17.4c.4 0 .8.3.8.8v.4c0 .4-.3.8-.8.8h-17.4c-.5-.1-.7996-.4-.7996-.8z"/><path d="m99.8984 100.032v-.4c0-.4.2996-.8.7996-.8h12.5c.4 0 .8.3.8.8v.4c0 .4-.3.8-.8.8h-12.5c-.5-.1-.7996-.4-.7996-.8z"/><path d="m124.602 100.032v-.4c0-.4.3-.8.8-.8h5.8c.4 0 .8.3.8.8v.4c0 .4-.3.8-.8.8h-5.8c-.4-.1-.8-.4-.8-.8z"/><path d="m124.602 89.032v-.4c0-.4.3-.8.8-.8h5.8c.4 0 .8.3.8.8v.4c0 .4-.3.8-.8.8h-5.8c-.4-.1-.8-.4-.8-.8z"/><path d="m124.602 111.032v-.4c0-.4.3-.8.8-.8h5.8c.4 0 .8.3.8.8v.4c0 .4-.3.8-.8.8h-5.8c-.4-.1-.8-.4-.8-.8z"/></g><path d="m119.801 38.7314v4.8"/><path d="m118.301 130.832h-9.8c-.9 0-1.7-.7-1.7-1.7v-9c0-.9.7-1.7 1.7-1.7h8.1c.9 0 1.7.7 1.7 1.7z" fill="#cebfae"/><path d="m127.6 73.9313h-28.2c-.2 0-.4-.2-.4-.4001v-29.0999c0-.5.4-.9001.9-.9001h27.8c1 0 1.7.8 1.7 1.7v26.9c0 1-.8 1.8001-1.8 1.8001z" fill="#d1e5e4"/><g fill="#d7ffff"><path d="m104.8 48.832h.4c.4 0 .8.3.8.8v4.7c0 .4-.3.8-.8.8h-.4c-.4 0-.8-.3-.8-.8v-4.7c.1-.4.4-.8.8-.8z"/><path d="m113.601 48.832h.4c.4 0 .8.3.8.8v4.7c0 .4-.3.8-.8.8h-.4c-.4 0-.8-.3-.8-.8v-4.7c.1-.4.4-.8.8-.8z"/><path d="m122.402 48.832h.4c.4 0 .8.3.8.8v4.7c0 .4-.3.8-.8.8h-.4c-.4 0-.8-.3-.8-.8v-4.7c0-.4.4-.8.8-.8z"/><path d="m104.8 62.332h.4c.4 0 .8.3.8.8v4.7c0 .4-.3.8-.8.8h-.4c-.4 0-.8-.3-.8-.8v-4.7c.1-.5.4-.8.8-.8z"/><path d="m113.601 62.332h.4c.4 0 .8.3.8.8v4.7c0 .4-.3.8-.8.8h-.4c-.4 0-.8-.3-.8-.8v-4.7c.1-.5.4-.8.8-.8z"/><path d="m122.402 62.332h.4c.4 0 .8.3.8.8v4.7c0 .4-.3.8-.8.8h-.4c-.4 0-.8-.3-.8-.8v-4.7c0-.5.4-.8.8-.8z"/></g><path d="m179.899 66.7309h-13.7l6.9-5.3 6.8-5.3 6.9 5.3 6.9 5.3z" fill="#e5ccd4"/><path d="m179.898 44.832v11.4"/><path d="m193.599 66.7314h-27.4v64.0996h27.4z" fill="#ddd1e8"/><path d="m166.199 66.7314 26.6 16.6"/><path d="m166.199 98.832 26.6-15.5"/><path d="m193.699 115.132-27.5-16.3"/><path d="m166.199 130.731 27.5-15.6"/><path d="m224.9 130.831h-16.6c-.7 0-1.3-.6-1.3-1.3v-26.5h19.1v26.6c0 .7-.5 1.2-1.2 1.2z" fill="#eadfd6"/><path d="m216.498 103.031h-9.6l4.8-4.6996 3.9-3.8c.4-.4 1.4-.4 1.8 0l3.9 3.8 4.8 4.6996z" fill="#ccb4ba"/><path d="m207 108.432h19.1"/><path d="m207 119.731h19.1"/><path d="m207 114.131h19.1"/><path d="m207 125.432h19.1"/><g fill="#d2fcfa"><path d="m134.001 12.1312c-1-1.1-2.6-1.4-3.9-.7s-2 2.1-1.7 3.5c.4 1.4 1.7 2.4 3.2 2.4h7.3c2.6 0 4.8-2 4.9-4.5s-1.9-4.59999-4.5-4.79999c-2.8-.3-5.1 1.6-5.3 4.09999z"/><path d="m105.902 25.2315c-2.1-1-4.6-.5-6.1003 1.2-.4-3.9-4-6.8-8.1-6.5s-7.2 3.6-7.1 7.5c0 .4.1.7.1 1.1-.1 0-.2.1-.3.1-1.3.7-2 2.1-1.7 3.5.4 1.4 1.7 2.4 3.2 2.4h6.3 1 10.4003c2.3 0 4.4-1.5 4.9-3.7.6-2.3-.5-4.6-2.6-5.6z"/><path d="m222.701 37.832c-1-.5-2.2-.3-3 .5 0-.1 0-.2.1-.4.1-2.5-1.9-4.5-4.4-4.7-2.6-.2-4.8 1.6-5 4.1-1-1.1-2.5-1.4-3.9-.7-1.3.6-2 2.1-1.6 3.4s1.6 2.3 3.1 2.3h7.1.4.4 5.6c1.2 0 2.2-.8 2.4-1.8.3-1.1-.2-2.2-1.2-2.7z"/></g><path d="m42.1992 41.7314c3.3 0 6-2.7 6-6s-2.7-6-6-6-6 2.7-6 6 2.7 6 6 6z" fill="#f4daa6"/></g><path d="m42.1992 20.7314v3z" fill="#e0dea2"/><path d="m42.1992 20.7314v3" stroke="#00ac83" stroke-linecap="round" stroke-linejoin="round"/><path d="m31.6016 25.1309 2.1 2.1z" fill="#e0dea2"/><path d="m31.6016 25.1309 2.1 2.1" stroke="#00ac83" stroke-linecap="round" stroke-linejoin="round"/><path d="m27.1992 35.7314h3z" fill="#e0dea2"/><path d="m27.1992 35.7314h3" stroke="#00ac83" stroke-linecap="round" stroke-linejoin="round"/><path d="m31.6016 46.432 2.1-2.1z" fill="#e0dea2"/><path d="m31.6016 46.432 2.1-2.1" stroke="#00ac83" stroke-linecap="round" stroke-linejoin="round"/><path d="m42.1992 50.832v-3z" fill="#e0dea2"/><path d="m42.1992 50.832v-3" stroke="#00ac83" stroke-linecap="round" stroke-linejoin="round"/><path d="m52.7992 46.432-2.1-2.1z" fill="#e0dea2"/><path d="m52.7992 46.432-2.1-2.1" stroke="#00ac83" stroke-linecap="round" stroke-linejoin="round"/><path d="m57.1992 35.7314h-3z" fill="#e0dea2"/><path d="m57.1992 35.7314h-3" stroke="#00ac83" stroke-linecap="round" stroke-linejoin="round"/><path d="m52.7992 25.1309-2.1 2.1z" fill="#e0dea2"/><path d="m52.7992 25.1309-2.1 2.1" stroke="#00ac83" stroke-linecap="round" stroke-linejoin="round"/></svg>