<svg fill="none" height="133" viewBox="0 0 238 133" width="238" xmlns="http://www.w3.org/2000/svg"><g stroke="#00ac83" stroke-linecap="round" stroke-linejoin="round"><path d="m2 131.301h234.4"/><path d="m42.2016 87.6003c0-1.5-1.7-2.5-3-1.8l-21.6 11.9v30.2997c0 1.8 1.5 3.3 3.3 3.3h17.9c1.8 0 3.3-1.5 3.3-3.3v-40.3997z" fill="#283335"/><path d="m25.4023 131.3v-23.3"/><path d="m34.4023 131.3v-23.3"/><path d="m99.7984 87h-32.4v44.3h32.4z" fill="#54504a"/><path d="m83.6984 87.0002h-16.3l8.1-7.5 6.6-6.1c.7-.6 2.4-.6 3.1 0l6.6 6.1 8.1 7.5z" fill="#544a4c"/><g fill="#e0dea2"><path d="m74.7977 103.9h-.4c-.4 0-.8-.3-.8-.8v-7.0002c0-.4.3-.8.8-.8h.4c.4 0 .8.3.8.8v7.1002c-.1.3-.4.7-.8.7z"/><path d="m83.8992 103.9h-.4c-.4 0-.8-.3-.8-.8v-7.0002c0-.4.3-.8.8-.8h.4c.4 0 .8.3.8.8v7.1002c-.1.3-.4.7-.8.7z"/><path d="m92.9969 103.9h-.4c-.4 0-.8-.3-.8-.8v-7.0002c0-.4.3-.8.8-.8h.4c.4 0 .8.3.8.8v7.1002c-.1.3-.4.7-.8.7z"/><path d="m74.7977 120h-.4c-.4 0-.8-.3-.8-.8v-7.1c0-.4.3-.8.8-.8h.4c.4 0 .8.3.8.8v7.1c-.1.4-.4.8-.8.8z"/><path d="m83.8992 120h-.4c-.4 0-.8-.3-.8-.8v-7.1c0-.4.3-.8.8-.8h.4c.4 0 .8.3.8.8v7.1c-.1.4-.4.8-.8.8z"/><path d="m92.9969 120h-.4c-.4 0-.8-.3-.8-.8v-7.1c0-.4.3-.8.8-.8h.4c.4 0 .8.3.8.8v7.1c-.1.4-.4.8-.8.8z"/></g><path d="m65.1992 103.899h-20.8c-1.2 0-2.2 1-2.2 2.2v23c0 1.2 1 2.2 2.2 2.2h20.8c1.2 0 2.2-1 2.2-2.2v-23c0-1.2-1-2.2-2.2-2.2z" fill="#55564b"/><path d="m37.4993 108.1c-1.1 0-1.7-1.1-1.2-2l7.1-12.2004c.7-1.2 1.8-1.8 2.9-1.8h18.9c1.3 0 2.3 1 2.3 2.2v11.7004c0 1.2-1 2.2-2.3 2.2h-27.7z" fill="#332a27"/><path d="m57.9 121.199h-6.1c-.7 0-1.3-.6-1.3-1.3v-4.6c0-.7.6-1.3 1.3-1.3h6.1c.7 0 1.3.6 1.3 1.3v4.6c0 .7-.6 1.3-1.3 1.3z" fill="#e0dea2"/><path d="m54.8008 113.999v7.2"/><path d="m166.198 131.2h-32.3c-2.5 0-4.5-2-4.5-4.5v-78.1004c0-2.5 2-4.5 4.5-4.5h27.8c2.5 0 4.5 2 4.5 4.5z" fill="#2e393a"/><g fill="#e0dea2"><path d="m129.398 59.1004v-.4c0-.4.3-.8.8-.8h17.4c.4 0 .8.3.8.8v.4c0 .4-.3.8-.8.8h-17.5c-.4-.1-.7-.4-.7-.8z"/><path d="m129.398 70.1004v-.4c0-.4.3-.8.8-.8h12.5c.4 0 .8.3.8.8v.4c0 .4-.3.8-.8.8h-12.6c-.4-.1-.7-.4-.7-.8z"/><path d="m154.102 70.1004v-.4c0-.4.3-.8.8-.8h5.8c.4 0 .8.3.8.8v.4c0 .4-.3.8-.8.8h-5.8c-.5-.1-.8-.4-.8-.8z"/><path d="m154.102 59.1004v-.4c0-.4.3-.8.8-.8h5.8c.4 0 .8.3.8.8v.4c0 .4-.3.8-.8.8h-5.8c-.5-.1-.8-.4-.8-.8z"/><path d="m154.102 81.1004v-.4c0-.4.3-.8.8-.8h5.8c.4 0 .8.3.8.8v.4c0 .4-.3.8-.8.8h-5.8c-.5-.1-.8-.4-.8-.8z"/><path d="m136.102 81.1004v-.4c0-.4.3-.8.8-.8h5.8c.4 0 .8.3.8.8v.4c0 .4-.3.8-.8.8h-5.8c-.5-.1-.8-.4-.8-.8z"/><path d="m154.102 91.1004v-.4c0-.4.3-.8.8-.8h5.8c.4 0 .8.3.8.8v.4c0 .4-.3.8-.8.8h-5.8c-.5-.1-.8-.4-.8-.8z"/><path d="m136.102 91.1004v-.4c0-.4.3-.8.8-.8h5.8c.4 0 .8.3.8.8v.4c0 .4-.3.8-.8.8h-5.8c-.5-.1-.8-.4-.8-.8z"/><path d="m154.102 101.1v-.4c0-.4.3-.7996.8-.7996h5.8c.4 0 .8.2996.8.7996v.4c0 .4-.3.8-.8.8h-5.8c-.5-.1-.8-.4-.8-.8z"/><path d="m136.102 101.1v-.4c0-.4.3-.7996.8-.7996h5.8c.4 0 .8.2996.8.7996v.4c0 .4-.3.8-.8.8h-5.8c-.5-.1-.8-.4-.8-.8z"/></g><path d="m157.801 131.2h-9.8c-.9 0-1.7-.7-1.7-1.7v-9c0-.9.7-1.7 1.7-1.7h8.1c.9 0 1.7.7 1.7 1.7z" fill="#54504a"/><path d="m136.8 131.2h-32.3c-2.5 0-4.5-2-4.5-4.5v-47.7c0-2.5 2-4.5 4.5-4.5h27.8c2.5 0 4.5 2 4.5 4.5z" fill="#2e393a"/><g fill="#e0dea2"><path d="m99.8984 89.4998v-.4c0-.4.2996-.8.7996-.8h17.4c.4 0 .8.3.8.8v.4c0 .4-.3.8-.8.8h-17.4c-.5-.1-.7996-.4-.7996-.8z"/><path d="m99.8984 100.5v-.4c0-.4002.2996-.8002.7996-.8002h12.4c.4 0 .8.3.8.8002v.4c0 .4-.3.8-.8.8h-12.5c-.4-.1-.6996-.4-.6996-.8z"/><path d="m124.602 100.5v-.4c0-.4002.3-.8002.8-.8002h5.8c.4 0 .8.3.8.8002v.4c0 .4-.3.8-.8.8h-5.8c-.4-.1-.8-.4-.8-.8z"/><path d="m124.602 89.4998v-.4c0-.4.3-.8.8-.8h5.8c.4 0 .8.3.8.8v.4c0 .4-.3.8-.8.8h-5.8c-.4-.1-.8-.4-.8-.8z"/><path d="m124.602 111.5v-.4c0-.4.3-.8.8-.8h5.8c.4 0 .8.3.8.8v.4c0 .4-.3.8-.8.8h-5.8c-.4-.1-.8-.4-.8-.8z"/></g><path d="m119.801 39.2002v4.8"/><path d="m118.301 131.3h-9.8c-.9 0-1.7-.7-1.7-1.7v-9c0-.9.7-1.7 1.7-1.7h8.1c.9 0 1.7.7 1.7 1.7z" fill="#54504a"/><path d="m127.6 74.4h-28.2c-.2 0-.4-.2-.4-.4v-29.1c0-.5.4-.9.9-.9h27.8c1 0 1.7.8 1.7 1.7v26.9c0 1-.8 1.8-1.8 1.8z" fill="#2e393a"/><g fill="#e0dea2"><path d="m104.8 49.2998h.4c.4 0 .8.3.8.8v4.7c0 .4-.3.8-.8.8h-.4c-.4 0-.8-.3-.8-.8v-4.7c.1-.4.4-.8.8-.8z"/><path d="m113.601 49.2998h.4c.4 0 .8.3.8.8v4.7c0 .4-.3.8-.8.8h-.4c-.4 0-.8-.3-.8-.8v-4.7c.1-.4.4-.8.8-.8z"/><path d="m122.402 49.2998h.4c.4 0 .8.3.8.8v4.7c0 .4-.3.8-.8.8h-.4c-.4 0-.8-.3-.8-.8v-4.7c.1-.4.4-.8.8-.8z"/><path d="m104.8 62.7998h.4c.4 0 .8.3.8.8v4.7c0 .4-.3.8-.8.8h-.4c-.4 0-.8-.3-.8-.8v-4.7c.1-.5.4-.8.8-.8z"/><path d="m113.601 62.7998h.4c.4 0 .8.3.8.8v4.7c0 .4-.3.8-.8.8h-.4c-.4 0-.8-.3-.8-.8v-4.7c.1-.5.4-.8.8-.8z"/><path d="m122.402 62.7998h.4c.4 0 .8.3.8.8v4.7c0 .4-.3.8-.8.8h-.4c-.4 0-.8-.3-.8-.8v-4.7c.1-.5.4-.8.8-.8z"/></g><path d="m179.899 67.2006h-13.7l6.9-5.3 6.8-5.3 6.9 5.3 6.9 5.3z" fill="#544a4c"/><path d="m179.898 45.3008v11.4"/><path d="m193.599 67.2012h-27.4v64.0998h27.4z" fill="#36283d"/><path d="m166.199 67.2012 26.6 16.6"/><path d="m166.199 99.3008 26.6-15.5"/><path d="m193.699 115.601-27.5-16.3002"/><path d="m166.199 131.201 27.5-15.6"/><path d="m224.9 131.3h-16.6c-.7 0-1.3-.6-1.3-1.3v-26.5h19.1v26.6c0 .7-.5 1.2-1.2 1.2z" fill="#54504a"/><path d="m216.498 103.5h-9.6l4.8-4.6998 3.9-3.8c.4-.4 1.4-.4 1.8 0l3.9 3.8 4.8 4.6998z" fill="#544a4c"/><path d="m207 108.9h19.1"/><path d="m207 120.2h19.1"/><path d="m207 114.601h19.1"/><path d="m207 125.9h19.1"/><g fill="#e0dea2"><path d="m66.1016 9-1 2.5-2.5 1 2.5 1 1 2.5 1-2.5 2.5-1-2.5-1z"/><path d="m82.7016 24.3008-.5 1.6-1.6.5 1.6.5.5 1.6.5-1.6 1.6-.5-1.6-.5z"/><path d="m47.1008 30.9004-.5 1.3-1.3.5 1.3.5.5 1.3.5-1.3 1.3-.5-1.3-.5z"/><path d="m56.6 53.7002-.3.8-.8.3.8.3.3.8.3-.8.8-.3-.8-.3z"/><path d="m163.801 13.9004-2.5-1-1-2.5-1 2.5-2.5 1 2.5 1 1 2.5 1-2.5z"/><path d="m143.598 30.5004-1.6-.5-.5-1.6-.5 1.6-1.6.5 1.6.5.5 1.6.5-1.6z"/><path d="m218.7 63.6996-1.6-.5-.5-1.6-.5 1.6-1.6.5 1.6.5.5 1.6.5-1.6z"/><path d="m140.901 3.8-1.3-.5-.5-1.3-.5 1.3-1.3.5 1.3.5.5 1.3.5-1.3z"/><path d="m114.098 9.40078-.8-.3-.3-.8-.3.8-.8.3.8.3.3.80002.3-.80002z"/><path d="m22.8016 60.1-.8-.3-.3-.8-.3.8-.8.3.8.3.3.8.3-.8z"/><path d="m208.599 32.7996c-4.1-.8-7-4.7-6.6-9 .2-1.6.6-2.9 1.6-4.2-3.3.8-6 3.8-6.3 7.5-.3 4.2 2.5 8.2 6.6 9 3.2.7 6.3-.8 8.2-3.4-1.1.3-2.2.4-3.5.1z"/></g></g></svg>