<svg fill="none" height="25" viewBox="0 0 25 25" width="25" xmlns="http://www.w3.org/2000/svg"><path d="m14.6016 16.3653h-.5c0 .1818.0986.3492.2576.4373zm-4 0 .242.4375c.1592-.0881.258-.2556.258-.4375zm6.0002-3.8876c-.2761 0-.5.2238-.5.5 0 .2761.2239.5.5.5zm1 1c.2762 0 .5-.2239.5-.5 0-.2762-.2238-.5-.5-.5zm-1-5.78198c-.2761 0-.5.22385-.5.5 0 .27614.2239.5.5.5zm3 1c.2762 0 .5-.22386.5-.5 0-.27615-.2238-.5-.5-.5zm-3-5.78277c-.2761 0-.5.22386-.5.5s.2239.5.5.5zm1 1c.2762 0 .5-.22386.5-.5s-.2238-.5-.5-.5zm-5.5002 3.29285c0 .27614.2238.5.5.5.2761 0 .5-.22386.5-.5zm1-.01c0-.27614-.2239-.5-.5-.5-.2762 0-.5.22386-.5.5zm-1 2.01c0 .27614.2238.5.5.5.2761 0 .5-.22386.5-.5zm1-.01c0-.27614-.2239-.5-.5-.5-.2762 0-.5.22386-.5.5zm-1 2.01c0 .2761.2238.5.5.5.2761 0 .5-.2239.5-.5zm1-.01c0-.2761-.2239-.5-.5-.5-.2762 0-.5.2239-.5.5zm-1 2.01c0 .2761.2238.5.5.5.2761 0 .5-.2239.5-.5zm1-.01c0-.2761-.2239-.5-.5-.5-.2762 0-.5.2239-.5.5zm-1 2.01c0 .2761.2238.5.5.5.2761 0 .5-.2239.5-.5zm1-.01c0-.2761-.2239-.5-.5-.5-.2762 0-.5.2239-.5.5zm-1 2.01c0 .2761.2238.5.5.5.2761 0 .5-.2239.5-.5zm1-.01c0-.2761-.2239-.5-.5-.5-.2762 0-.5.2239-.5.5zm2-.8305v-12.95226h-1v12.95226zm0-12.95226c0-1.35317-1.1394-2.41304-2.5-2.41304v1c.8503 0 1.5.65326 1.5 1.41304zm-2.5-2.41304c-1.3607 0-2.5 1.05987-2.5 2.41304h1c0-.75978.6496-1.41304 1.5-1.41304zm-2.5 2.41304v12.95226h1v-12.95226zm.2579 12.51476c-1.34048.7417-2.25794 2.1334-2.25794 3.7461h1c0-1.2176.69155-2.2899 1.74204-2.8711zm-2.25794 3.7461c0 2.4097 2.03494 4.3261 4.50004 4.3261v-1c-1.955 0-3.50004-1.5099-3.50004-3.3261zm4.50004 4.3261c2.4639 0 4.5-1.9163 4.5-4.3261h-1c0 1.8161-1.546 3.3261-3.5 3.3261zm4.5-4.3261c0-1.6131-.9198-3.0045-2.2577-3.7459l-.4847.8746c1.0491.5815 1.7424 1.654 1.7424 2.8713zm-.4998-6.1962h1v-1h-1zm0-4.78198h3v-1h-3zm0-4.78277h1v-1h-1zm-3.5002 3.29285v-.01h-1v.01zm0 2v-.01h-1v.01zm0 2v-.01h-1v.01zm0 2v-.01h-1v.01zm0 2v-.01h-1v.01zm0 2v-.01h-1v.01zm-.5076 2.468c0-.0064.0014-.0132.004-.0189.0023-.0053.0049-.0082.0061-.0094.0025-.0023.0026-.0007-.0025-.0007v1c.5266 0 .9924-.4138.9924-.971zm.0076-.029c-.0058 0-.0055-.0018-.0027.0009.0014.0013.004.0043.0063.0096.0025.0057.004.0124.004.0185h-1c0 .5568.4645.971.9924.971zm.0076.029c0 .0061-.0015.0128-.004.0185-.0023.0053-.0049.0083-.0063.0096-.0028.0027-.0031.0009.0027.0009v-1c-.5279 0-.9924.4143-.9924.971zm-.0076.029c.0051 0 .005.0016.0025-.0007-.0012-.0012-.0038-.0041-.0061-.0094-.0026-.0057-.004-.0125-.004-.0189h1c0-.5572-.4658-.971-.9924-.971z" fill="#18303f"/></svg>