<svg fill="none" height="15" viewBox="0 0 15 15" width="15" xmlns="http://www.w3.org/2000/svg"><path clip-rule="evenodd" d="m3.98546 1.86123c-.19741-.37711-.65021-.31449-.77776.00723-.43488 1.09684-.90168 2.50219-1.04621 3.74354l1.98926.55284c.26606.07394.4218.34956.34786.61562s-.34956.4218-.61562.34786l-1.48172-.41179c.31763.78954.72714 1.46831 1.04097 1.92958.10655.1566.32865.22179.54216.11002l1.28305-.67163c.24465-.12807.54679-.03356.67486.21109.12806.24465.03355.5468-.2111.67486l-1.28304.67163c-.11049.05784-.2267.1009-.34545.12906-.04291.05611-.09846.10397-.16516.13889l-2.06639 1.08167c-.37711.1974-.31449.6502.00723.7778 1.09684.4348 2.50219.9017 3.74353 1.0462l.55284-1.9893c.07395-.266.34957-.4218.61563-.3478.26606.0739.4218.3495.34786.6156l-.41179 1.4817c.78954-.3176 1.46831-.7271 1.92958-1.041.1566-.1065.22178-.3286.11001-.5421l-.67162-1.28307c-.12807-.24465-.03356-.5468.21109-.67487.24465-.12806.5468-.03355.67486.2111l.67163 1.28304c.06203.1185.10706.2436.13494.3713.06015.0438.1114.1017.14824.1721l1.0817 2.0664c.1974.3771.6502.3145.7777-.0072.4349-1.0969.9017-2.5022 1.0462-3.74355l-1.9892-.55284c-.2661-.07394-.4218-.34957-.3479-.61562.074-.26606.3496-.4218.6157-.34786l1.4817.41178c-.3177-.78953-.7272-1.4683-1.041-1.92957-.1065-.1566-.3286-.22179-.5422-.11002l-1.283.67163c-.24465.12807-.5468.03356-.67487-.21109-.12806-.24465-.03355-.5468.2111-.67487l1.28307-.67163c.1117-.05848.2293-.10185.3494-.12999.0427-.0552.0977-.1023.1635-.13678l2.0664-1.08168c.3771-.19741.3145-.65021-.0072-.77777-1.0969-.43487-2.5022-.90168-3.74355-1.0462l-.55284 1.98926c-.07394.26606-.34956.4218-.61562.34786s-.4218-.34957-.34786-.61563l.41179-1.48172c-.78954.31764-1.46831.72714-1.92958 1.04098-.1566.10654-.22179.32864-.11002.54216l.67163 1.28304c.12807.24465.03356.5468-.21109.67486-.24465.12807-.5468.03356-.67487-.21109l-.67163-1.28304c-.06193-.11831-.10691-.24316-.1348-.37066-.06121-.04402-.11337-.1026-.15072-.17394zm-1.37001 7.3474c.04605.06767.09657.12959.15085.18579l-1.3589.71138c-1.064158.557-1.08812 2.1213.10243 2.5933 1.23572.4899 2.95524 1.0628 4.45338 1.1502.05368.0031.1075-.0024.15941-.0164 1.30442-.352 2.42859-1.0171 3.09595-1.4712.06715-.0457.12864-.0958.18449-.1496l.72784 1.3905c.5571 1.0641 2.1213 1.0881 2.5933-.1024.49-1.2358 1.0628-2.9553 1.1503-4.45343.0031-.05367-.0024-.1075-.0164-.1594-.3521-1.30442-1.0172-2.42859-1.4712-3.09595-.0456-.06704-.0956-.12843-.1493-.1842l1.3597-.71176c1.0641-.55705 1.0881-2.1213-.1024-2.59332-1.2358-.48993-2.9553-1.06277-4.45343-1.15022-.05367-.00313-.10749.00241-.1594.01642-1.30442.352-2.42859 1.01711-3.09595 1.47116-.06762.046-.12949.09648-.18565.15071l-.72905-1.39275c-.55706-1.064157-2.1213-1.088119-2.59333.10243-.48993 1.23572-1.06277 2.95524-1.15022 4.45339-.00313.05367.00242.10749.01642.1594.35201 1.30442 1.01712 2.42859 1.47116 3.09595zm4.47542-1.70865c0-.22732.18428-.4116.4116-.4116s.4116.18428.4116.4116-.18428.4116-.4116.4116-.4116-.18428-.4116-.4116zm.4116-1.4116c-.7796 0-1.4116.63199-1.4116 1.4116s.632 1.4116 1.4116 1.4116c.77961 0 1.4116-.63199 1.4116-1.4116s-.63199-1.4116-1.4116-1.4116z" fill="#18303f" fill-rule="evenodd"/></svg>