<svg fill="none" height="15" viewBox="0 0 15 15" width="15" xmlns="http://www.w3.org/2000/svg" xmlns:xlink="http://www.w3.org/1999/xlink"><clipPath id="a"><path d="m0 0h15v15h-15z"/></clipPath><g clip-path="url(#a)"><path clip-rule="evenodd" d="m5.9375 2.92999c.27614 0 .5-.22385.5-.5 0-.27614-.22386-.5-.5-.5s-.5.22386-.5.5c0 .27615.22386.5.5.5zm-.87518-.06229c.19526.19526.19526.51184 0 .70711l-.3917.39169c-.67004.67005-.67004 1.7564.00001 2.42645 1.06057 1.06057 1.06057 2.78009 0 3.84065-.19527.1953-.51185.1953-.70711 0s-.19526-.51183 0-.7071c.67004-.67004.67004-1.7564 0-2.42644-1.06057-1.06057-1.06057-2.78009 0-3.84066l.39169-.3917c.19526-.19526.51185-.19526.70711 0zm-3.15307 1.85513c.19526.19526.19526.51184 0 .70711-.67005.67004-.67005 1.7564 0 2.42644 1.06057 1.06057 1.06057 2.78012 0 3.84062-.19526.1953-.51185.1953-.70711 0-.19526-.1952-.19526-.5118 0-.7071.67005-.67.67005-1.75636 0-2.42641-1.060568-1.06057-1.060569-2.78009 0-3.84066.19526-.19526.51184-.19526.70711 0zm9.15305-1.85513c.1953.19526.1953.51184 0 .70711l-.3917.39169c-.67.67005-.67 1.7564 0 2.42645 1.0606 1.06057 1.0606 2.78009 0 3.84065-.1952.1953-.5118.1953-.70708 0-.19526-.1953-.19526-.51183 0-.7071.67008-.67004.67008-1.7564 0-2.42644-1.06057-1.06057-1.06057-2.78009 0-3.84066l.39168-.3917c.1953-.19526.5119-.19526.7071 0zm2.7356 1.76367c.1952.19526.1952.51184 0 .7071-.6701.67005-.6701 1.75641 0 2.42645 1.0605 1.06057 1.0605 2.78008 0 3.84068-.1953.1952-.5119.1952-.7071 0-.1953-.1953-.1953-.5119 0-.7071.67-.6701.67-1.75643 0-2.42647-1.0606-1.06057-1.0606-2.78009 0-3.84066.1952-.19527.5118-.19527.7071 0zm-5.88865.09146c.19526.19526.19526.51184 0 .70711-.67005.67004-.67005 1.7564 0 2.42644 1.06057 1.06057 1.06057 2.78012 0 3.84062l-.43522.4353c-.19526.1952-.51185.1952-.70711 0-.19526-.1953-.19526-.5119 0-.7071l.43522-.4353c.67005-.67.67005-1.75636 0-2.42641-1.06057-1.06057-1.06057-2.78009 0-3.84066.19526-.19526.51184-.19526.70711 0zm-7.40925 8.44097c.276142 0 .5-.2239.5-.5 0-.2762-.223858-.5-.5-.5s-.5.2238-.5.5c0 .2761.223858.5.5.5zm12.4375-.75c0 .2761-.2239.5-.5.5s-.5-.2239-.5-.5c0-.2762.2239-.5.5-.5s.5.2238.5.5z" fill="#18303f" fill-rule="evenodd"/></g></svg>