<svg fill="none" height="15" viewBox="0 0 15 15" width="15" xmlns="http://www.w3.org/2000/svg"><path clip-rule="evenodd" d="m2.82462 10.5268c-.66846-.81928-1.07451-1.8703-1.07451-3.04099 0-2.72615 2.09052-4.81667 4.81667-4.81667 1.77894 0 3.44352-.44361 5.00192-1.33412.008-.00459.0162-.00896.0245-.01309.1395-.06976.3109-.14029.5152-.14029.2044 0 .3758.07053.5153.14029.0481.02403.092.05566.13.09366.1449.1449.2605.29651.343.4409.0722.12629.1534.30617.1534.49598 0 .01446-.0006.02891-.0019.04332-.1175 1.35178-.414 3.78296-1.3382 5.88886-.9255 2.10895-2.54651 4.01785-5.34322 4.01785-1.12188 0-2.17219-.3874-3.00391-1.0476-.36738.678-.6482 1.4079-.82556 2.1765-.0621.269-.33056.4368-.59963.3747s-.43686-.3305-.37476-.5996c.22052-.9556.58322-1.8552 1.0617-2.6797zm3.74216-6.85766c1.94936 0 3.78032-.48721 5.48492-1.45836.0253-.01236.0431-.01989.0548-.02437.0561.06353.0962.12112.122.16622.0071.01249.0126.02312.0168.03181-.12 1.34147-.4119 3.58633-1.251 5.49836-.8536 1.94521-2.20757 3.4197-4.42752 3.4197-.93306 0-1.80178-.3369-2.47398-.9057 1.00747-1.44344 2.43047-2.58473 4.06628-3.26632.25491-.1062.37544-.39894.26924-.65384-.10621-.2549-.39895-.37544-.65385-.26923-1.73385.72244-3.25767 1.91481-4.36733 3.42895-.41314-.60586-.65703-1.34244-.65703-2.15055 0-2.17386 1.64281-3.81667 3.81667-3.81667zm5.69022-1.2568-.0007-.00234z" fill="#18303f" fill-rule="evenodd"/></svg>