<svg fill="none" height="15" viewBox="0 0 15 15" width="15" xmlns="http://www.w3.org/2000/svg"><g stroke="#18303f" stroke-linecap="round"><path d="m7.44899 4.45881-2.41037-.41152c-.21236-.03625-.40733-.14012-.55589-.29613l-.94541-.99282c-.59247-.62218-.17632-1.65252.68206-1.68871l3.82031-.161104c.63814-.02691 1.1376.543154 1.02703 1.172214l-.05434.30921c-.00818.04652-.01964.0924-.0343.1373l-.4102 1.25623c-.15392.4714-.63007.75879-1.11889.67533z"/><path d="m10.6136 2.80093-.67659 2.084c-.11807.36367-.01844.76283.25669 1.02835l1.9585 1.89018c.5769.55674 1.5415.24234 1.6795-.5474l.4214-2.41148c.0276-.158.0168-.32033-.0315-.47328l-.4934-1.5627c-.1314-.41602-.5173-.69886-.9536-.69886h-1.2098c-.4333 0-.8174.27906-.9512.69119z"/><path d="m9.58474 9.38244-.64137-2.25667c-.18705-.65815-.96499-.93828-1.52869-.55047l-3.23522 2.22573c-.54587.37554-.58222 1.1685-.073 1.59237l.83999.6993c.06026.0502.12622.0931.19651.1278l1.5985.7905c.38674.1913.85254.1129 1.15542-.1943l1.4381-1.4588c.25281-.2565.34821-.62907.24976-.97546z"/><path d="m.780302 6.83564.229138-1.56818c.11907-.81487 1.11695-1.14458 1.69806-.56106l.57161.57398c.12811.12864.29681.20892.47743.22721.78682.07966.97592 1.14098.26504 1.4875l-1.81363.88403c-.72228.35207-1.543824-.2484-1.427648-1.04348z"/><path d="m10.8381 10.3956v.7453c0 .342-.1819.6583-.4775.8304-.79422.4623-.54848 1.6687.3633 1.7835l2.132.2685c.5344.0673 1.0261-.3007 1.1121-.8325l.237-1.4654c.056-.3458-.0732-.6957-.3403-.9223l-1.3798-1.1702c-.6497-.55101-1.6468-.08924-1.6468.7627z"/><path d="m1.74219 14.0189 3.00543-.3556c.39801-.0471.41956-.6169.02625-.6939-.04122-.0081-.08065-.0235-.11644-.0454l-1.83475-1.1275c-.11046-.0679-.20393-.1601-.27325-.2697-.42452-.671-1.45559-.445-1.560532.342l-.162722 1.2205c-.071278.5346.380434.993.916014.9296z"/></g></svg>