<svg fill="none" height="15" viewBox="0 0 15 15" width="15" xmlns="http://www.w3.org/2000/svg"><path d="m13.125 8.06641c0-.34518-.2798-.625-.625-.625s-.625.27982-.625.625c0 2.41629-1.95875 4.37499-4.375 4.37499s-4.375-1.9587-4.375-4.37499c0-2.35425 1.85953-4.27419 4.18994-4.37116l-.06111.06111c-.24408.24408-.24408.63981 0 .88389.24408.24407.6398.24407.88388 0l1.13236-1.13236c.24407-.24408.24407-.63981 0-.88388l-1.13236-1.13236c-.24408-.24408-.6398-.24408-.88388 0s-.24408.63981 0 .88389l.06862.06861c-3.02444.09378-5.44745 2.57506-5.44745 5.62226 0 3.10659 2.5184 5.62499 5.625 5.62499s5.625-2.5184 5.625-5.62499z" fill="#18303f"/></svg>