<svg fill="none" height="25" viewBox="0 0 25 25" width="25" xmlns="http://www.w3.org/2000/svg"><g fill="#18303f"><path clip-rule="evenodd" d="m24.669 4.52996c.0024.26551-.211.48262-.4766.48491l-1.7559.01524.0044 2.57552.4772-.00413c.2656-.00231.4826.21107.4849.47658s-.2111.48261-.4766.48492l-.4839.00419.0014.7759c-.0053.61162-.4818 1.08801-1.0934 1.09331-.2618.0023-.6136.0008-1.0147-.0008h-.0014l-.2231-.0009c-.4962-.0019-1.0557-.0032-1.6202.0017-.0073 0-.0147-.0001-.022-.0003-1.5306-.0563-2.8639-.99344-3.4646-2.32495-.0433.01335-.0894.02071-.1372.02113l-1.421.01233c-.1289.00111-.2529-.04962-.3441-.1408-.0911-.09119-.1419-.21518-.1408-.34413l.0069-.79163-7.61774.00002c-.80867.00769-1.66246.42472-2.32599 1.08825-.63069.6307-.9284 1.55324-.74096 2.32828.00257.0106.00477.0213.00661.032.1155.6757.41827 1.4048 1.58165 3.5772l.13269.2362.96576-3.343c.03796-.2039.11311-.3882.21586-.5507.03446-.1029.10338-.1935.19815-.25361.35741-.3758.88064-.58229 1.37421-.58229 4.97806 0 9.84776 1.6592 13.88546 4.6617.0389.0289.0722.0625.0996.0994l3.2457 4.1587c.2128.2837.3377.6464.3838 1.0001.0463.3548.0191.745-.1192 1.0907-.1507.377-.4411.6544-.7509.8337-.3096.1792-.6712.2803-1.0147.2803h-.1283l.0001.0266c0 1.6864-1.3315 3.0179-3.0178 3.0179s-3.0179-1.3315-3.0179-3.0179l.0001-.0266h-9.18678l.0001.0266c0 1.6864-1.33156 3.0179-3.01783 3.0179s-3.01783-1.3315-3.01783-3.0179c0-1.0905.55702-2.0328 1.40677-2.5624l-1.23679-2.0613c-.00634-.0106-.01226-.0214-.01776-.0324-.17862-.3572-.151-.8042-.02609-1.1789.00719-.0216.01592-.0427.02609-.0629.10234-.2048.2799-.3673.46174-.4764.18653-.1119.42328-.1954.67865-.1954h.98545l-.35378-.6298c-1.14448-2.1369-1.53285-3.0063-1.68129-3.8577-.27018-1.146.17428-2.39276.99951-3.21799.79574-.79574 1.87914-1.36015 2.99956-1.36986l.00418-.00004h7.6282l.0083-.95956c.0023-.26226.2143-.47431.4766-.47658l1.421-.01232c.0575-.0005.1128.00912.164.02721.6105-1.36032 1.9154-2.34955 3.4788-2.43415.0072-.00039.0145-.00061.0218-.00068l2.7951-.02424c.1273-.0011.2664.01357.4082.0671.1443.05443.2658.13923.3711.2446.1054.10538.1901.22677.2447.37108.053.1409.0679.27897.0671.40555l.0015.95403 1.7493-.01518c.2655-.00229.4826.21107.4849.47659zm-9.9938 1.72786c-.0218.3135-.006.61949.0436.91417l-.7916.00687.0151-1.75108.8089-.00702c-.0523.27168-.0784.55176-.076.83706zm6.7236-3.26759c-.0092-.00137-.0244-.00275-.0483-.00254l-2.7838.02415c-1.6453.09482-2.953 1.53604-2.9298 3.25423.0002.01422-.0003.02844-.0013.04261-.1265 1.67911 1.2031 3.09944 2.8584 3.16612.5671-.00484 1.1274-.0035 1.6209-.00163l.2248.0009c.4024.00164.747.00305 1.0025.00082.0514-.00044.0834-.01864.1024-.03768.0189-.01883.0368-.05031.0377-.10068l-.0107-6.22764c.0003-.02391-.0011-.0391-.0025-.04822-.0012-.00851-.0025-.01188-.0027-.01234 0-.00032-.0005-.00171-.0027-.005-.0026-.00387-.0089-.01234-.0221-.02553s-.0217-.01944-.0255-.02202c-.0033-.00221-.0047-.0027-.0049-.00282zm0 0c.0084.00127.0119.00256.0124.00273zm-16.53975 11.64637.79789-2.7618.74889 2.1218zm2.11924-1.9071-.77315-2.1906c.14893-.108.34226-.177.5534-.177 4.57076 0 9.05466 1.4619 12.83556 4.127l-2.5473 2.2988-1.904-1.1716.5524-.9208c.1366-.2277.0628-.5231-.1649-.6596-.2277-.1367-.523-.0628-.6596.1649l-.7308 1.2179c-.0295.028-.0559.0603-.0783.0967-.0243.0396-.0423.0813-.054.1239l-.6591 1.0985c-.1367.2277-.0628.523.1649.6596s.5229.0628.6596-.1649l.475-.7917 1.655 1.0184-.4215.3803c-.5353.444-1.1376.6945-1.8162.6945h-2.9071l-1.81515-5.1587c-.00224-.0064-.00461-.0128-.00712-.019-.28872-.7219-1.15932-1.1907-1.94421-.8768-.15039.0602-.28979.1456-.41343.2502zm3.82551 6.7659c.0093.0003.0185.0003.0278 0h3.2337c.942 0 1.7583-.3561 2.4388-.9233.0049-.004.0097-.0082.0144-.0124l.8375-.7559c.0529-.0314.1003-.0735.139-.1253l2.8009-2.5277 2.9265 3.7495c.0906.1224.1675.3164.1972.5444.0299.2288.0063.4474-.0584.6091-.0522.1304-.1676.259-.3399.3587-.1725.0999-.3691.151-.533.151h-.2891c-.4026-1.1901-1.5179-2.0297-2.8569-2.0297s-2.4543.8397-2.857 2.0297h-9.50837c-.40261-1.19-1.51795-2.0297-2.85694-2.0297-.24645 0-.48532.0285-.71357.0824l-1.29651-2.1609c-.02109-.0541-.0396-.1914.01526-.3849.01341-.0152.04027-.0414.08565-.0686.06717-.0403.13488-.0583.18395-.0583h1.52606l2.7007 2.7006c.60371.6038 1.33473.8486 2.05335.8513.00757.0002.01514.0002.02275 0zm-.6649-.9616-1.69898-4.8285c-.12025-.2877-.46325-.4243-.6911-.3332-.21774.0871-.35099.3012-.36735.4998l1.64539 4.6619zm-2.83746-.5696-2.33247-2.3324 1.75732-.7272 1.23427 3.4971c-.23316-.0914-.4554-.2337-.65912-.4375zm9.98456 3.5874c0-1.1552.901-2.0562 2.0563-2.0562 1.1552 0 2.0563.901 2.0563 2.0562 0 1.1553-.9011 2.0564-2.0563 2.0564-1.1553 0-2.0563-.9011-2.0563-2.0564zm-13.16601-2.0562c-1.15524 0-2.05629.901-2.05629 2.0562 0 1.1553.90105 2.0564 2.05629 2.0564s2.05629-.9011 2.05629-2.0564c0-1.1552-.90105-2.0562-2.05629-2.0562z" fill-rule="evenodd"/><path d="m24.5897 8.42057c-.1878.18775-.4922.18775-.6799 0-.1878-.18775-.1878-.49216 0-.67992.1877-.18775.4921-.18775.6799 0 .1877.18776.1877.49217 0 .67992z"/></g></svg>