<svg fill="none" height="25" viewBox="0 0 26 25" width="26" xmlns="http://www.w3.org/2000/svg"><g fill="#18303f"><path d="m9.3634 10.374c.27615 0 .5.2239.5.5v1.4059c0 .2761-.22385.5-.5.5-.27614 0-.5-.2239-.5-.5v-1.4059c0-.2761.22386-.5.5-.5z"/><path d="m9.3634 14.0596c.27615 0 .5-.2239.5-.5 0-.2762-.22385-.5-.5-.5-.27614 0-.5.2238-.5.5 0 .2761.22386.5.5.5z"/><path clip-rule="evenodd" d="m6.75793 3.31799c0-1.03875.98899-1.81799 2.00301-1.81799h8.51706c.5463 0 1.0474.16037 1.4193.48651.3779.33135.5837.80107.5837 1.33148v17.39751c0 1.0387-.989 1.818-2.003 1.818h-8.51706c-1.01402 0-2.00301-.7793-2.00301-1.818zm2.00301-.81799c-.58918 0-1.00301.45089-1.00301.81799v17.39751c0 .3671.41383.818 1.00301.818h8.51706c.5892 0 1.003-.4509 1.003-.818v-17.39751c0-.26038-.0948-.44966-.243-.57961-.1541-.13515-.4046-.23838-.76-.23838z" fill-rule="evenodd"/></g></svg>