<svg fill="none" height="35" viewBox="0 0 35 35" width="35" xmlns="http://www.w3.org/2000/svg"><g fill="#92a0a9"><path d="m9.27747 5.11254c0-1.29181 1.24153-2.29247 2.54413-2.29247h11.5831c.7087 0 1.345.20781 1.8116.61699.4726.41439.7325 1.00272.7325 1.67548v7.75026c0 .2762-.2239.5-.5.5s-.5-.2238-.5-.5v-7.75026c0-.40273-.1489-.71063-.3918-.92361-.2488-.21818-.6345-.36886-1.1523-.36886h-11.5831c-.8778 0-1.5441.67231-1.5441 1.29247v23.66056c0 .6202.6663 1.2925 1.5441 1.2925h5.7915c.2762 0 .5.2238.5.5 0 .2761-.2238.5-.5.5h-5.7915c-1.3026 0-2.54413-1.0007-2.54413-2.2925z"/><path d="m12.6409 14.8887c.2761 0 .5.2239.5.5v1.912c0 .2761-.2239.5-.5.5s-.5-.2239-.5-.5v-1.912c0-.2761.2239-.5.5-.5z"/><path d="m26.8657 28.1678c.0121.0431.0186.0886.0186.1356v1.0044c0 .2761-.2238.5-.5.5-.2761 0-.5-.2239-.5-.5v-1.0044c0-.0453.0061-.0892.0174-.131-.269-.1623-.4489-.4573-.4489-.7944 0-.512.415-.9271.9271-.9271.512 0 .9271.4151.9271.9271 0 .3339-.1765.6265-.4413.7898z"/><path clip-rule="evenodd" d="m21.3579 21.9331c-1.1259 0-2.0451.9192-2.0451 2.0452v5.5056c0 1.1331.5196 2.1967 1.2941 2.9711.7745.7745 1.838 1.2942 2.9711 1.2942h5.6033c1.1331 0 2.1967-.5197 2.9711-1.2942.7745-.7744 1.2941-1.838 1.2941-2.9711v-5.5056c0-1.126-.9191-2.0452-2.0451-2.0452h-.2687v-2.2036c0-2.5938-2.1553-4.7491-4.7492-4.7491s-4.7492 2.1553-4.7492 4.7491v2.2036zm.7764 1.0004c-.007 0-.014-.0001-.021-.0004h-.7554c-.5737 0-1.0451.4715-1.0451 1.0452v5.5056c0 .8268.383 1.6459 1.0012 2.264.6182.6182 1.4373 1.0013 2.264 1.0013h5.6033c.8268 0 1.6458-.3831 2.264-1.0013.6182-.6181 1.0012-1.4372 1.0012-2.264v-5.5056c0-.5737-.4714-1.0452-1.0451-1.0452h-.7477l-.0151.0004h-.0059zm7.9984-3.204v2.2036h-7.4984v-2.2036c0-2.0415 1.7076-3.7491 3.7492-3.7491s3.7492 1.7076 3.7492 3.7491z" fill-rule="evenodd"/><path d="m12.6484 19.2846c.2762 0 .5-.2238.5-.5 0-.2761-.2238-.5-.5-.5-.2761 0-.5.2239-.5.5 0 .2762.2239.5.5.5z"/></g></svg>