<svg fill="none" height="35" viewBox="0 0 35 35" width="35" xmlns="http://www.w3.org/2000/svg"><g fill="#92a0a9"><path d="m12.3557 14.7867c.2762 0 .5.2238.5.5v1.912c0 .2761-.2238.5-.5.5-.2761 0-.5-.2239-.5-.5v-1.912c0-.2762.2239-.5.5-.5z"/><path d="m12.3802 19.4123c.2762 0 .5-.2239.5-.5 0-.2762-.2238-.5-.5-.5-.2761 0-.5.2238-.5.5 0 .2761.2239.5.5.5z"/><path clip-rule="evenodd" d="m8.99231 5.01049c0-1.29181 1.24149-2.29247 2.54409-2.29247h11.5832c.7087 0 1.345.20781 1.8116.61699.4725.41439.7325 1.00272.7325 1.67548v23.66061c0 1.2918-1.2415 2.2924-2.5441 2.2924h-11.5832c-1.3026 0-2.54409-1.0006-2.54409-2.2924zm2.54409-1.29247c-.8778 0-1.54409.67231-1.54409 1.29247v23.66061c0 .6201.66629 1.2924 1.54409 1.2924h11.5832c.8777 0 1.5441-.6723 1.5441-1.2924v-23.66061c0-.40273-.149-.71063-.3918-.92361-.2488-.21818-.6346-.36886-1.1523-.36886z" fill-rule="evenodd"/></g></svg>