<svg fill="none" height="35" viewBox="0 0 35 35" width="35" xmlns="http://www.w3.org/2000/svg" xmlns:xlink="http://www.w3.org/1999/xlink"><mask id="a" fill="#fff"><path d="m9.86778 19.2279c-.27614 0-.5.2238-.5.5 0 .2761.22386.5.5.5h12.35042c.2762 0 .5-.2239.5-.5 0-.2762-.2238-.5-.5-.5z" fill="#fff"/><path d="m11.6628 23.096c0-.2762.2238-.5.5-.5h12.4837c.2762 0 .5.2238.5.5 0 .2761-.2238.5-.5.5h-12.4837c-.2762 0-.5-.2239-.5-.5z" fill="#fff"/><path d="m9.86778 25.9641c-.27614 0-.5.2239-.5.5s.22386.5.5.5h14.77712c.2761 0 .5-.2239.5-.5s-.2239-.5-.5-.5z" fill="#fff"/><path d="m24.4687 20.2284c.2762 0 .5-.2239.5-.5 0-.2762-.2238-.5-.5-.5-.2761 0-.5.2238-.5.5 0 .2761.2239.5.5.5z" fill="#fff"/><path d="m9.68747 23.5965c.27614 0 .50003-.2238.50003-.5 0-.2761-.22389-.5-.50003-.5-.27615 0-.5.2239-.5.5 0 .2762.22385.5.5.5z" fill="#fff"/><path clip-rule="evenodd" d="m17.2577 5.2059c1.7214-.03686 3.4288.31232 4.9969 1.02138.0759.00236.1503.02197.2176.05744l7.4536 3.92858c.1875.1051.342.2603.4463.4482.1023.184.1524.3923.1451.6026v1.5555c.0106.154-.0109.3072-.0616.4504.0398.0718.0625.1543.0625.2422v16.1205c0 .2761-.2239.5-.5.5-.0445 0-.0876-.0058-.1286-.0167-.0399.0102-.0817.0157-.1248.0157h-25.23611c-.0105.0006-.02108.001-.03175.001-.01066 0-.02125-.0004-.03175-.001h-2.65637c-.27615 0-.5-.2239-.5-.5 0-.2762.22385-.5.5-.5h2.18812v-15.6195c0-.0878.02264-.1703.0624-.242-.05134-.1417-.07429-.2933-.06609-.4462v-1.5599c-.00728-.2103.04282-.4186.14507-.6026.10436-.1879.25892-.343.44641-.448l.00869-.0049 7.44228-3.97629c.0689-.03678.1453-.0569.2232-.05885 1.573-.69088 3.2809-1.02163 4.9989-.96756zm12.2087 8.8052c.0173 0 .0345-.0009.0517-.0027v15.1233h-1.7006c.0084-.0566.0127-.1141.0127-.172v-12.0903c0-.3108-.1234-.6088-.3432-.8285-.2197-.2198-.5177-.3432-.8285-.3432h-18.80716c-.31075 0-.60877.1234-.82851.3432-.21973.2197-.34318.5177-.34318.8285v12.0903c0 .0579.00429.1154.01269.172h-1.6955v-15.1229c.01565.0015.03137.0023.0471.0023zm-12.2276-7.80529c-1.6061-.05248-3.2029.26338-4.6681.92338-.0545.02452-.1128.03905-.1722.04301l-7.32798 3.9153c-.02433.0143-.04442.0349-.05815.0596-.01426.0257-.02109.0548-.01974.0841.00035.0077.00052.0153.00052.023v1.5852c0 .0119-.00043.0239-.00128.0358-.00241.0336.00813.0667.02945.0927.01712.0209.04015.0359.06584.0432h24.34274c.0247-.0061.0469-.02.0632-.0398.0197-.024.0291-.0548.0262-.0857-.0014-.0154-.0021-.0308-.0021-.0462v-1.5852c0-.0077.0002-.0153.0005-.023.0014-.0293-.0055-.0584-.0197-.0841-.0136-.0244-.0334-.0448-.0574-.0591l-7.3271-3.86196c-.0618-.00391-.1225-.01927-.1788-.04541-1.4611-.67764-3.0581-1.01109-4.6682-.97468-.0092.00021-.0184.00016-.0277-.00014zm9.4028 22.92589h-18.77336l-.0169-.0003c-.04554 0-.0892-.0181-.1214-.0503s-.05029-.0759-.05029-.1214v-12.0903c0-.0456.01809-.0892.05029-.1214s.07586-.0503.1214-.0503h18.80716c.0456 0 .0892.0181.1214.0503s.0503.0758.0503.1214v12.0903c0 .0455-.0181.0892-.0503.1214s-.0758.0503-.1214.0503z" fill="#fff" fill-rule="evenodd"/><path d="m33.0156 29.6327c0 .2761-.2239.5-.5.5-.2762 0-.5-.2239-.5-.5 0-.2762.2238-.5.5-.5.2761 0 .5.2238.5.5z" fill="#fff"/></mask><g fill="#92a0a9"><path d="m9.86778 19.2279c-.27614 0-.5.2238-.5.5 0 .2761.22386.5.5.5h12.35042c.2762 0 .5-.2239.5-.5 0-.2762-.2238-.5-.5-.5z"/><path d="m11.6628 23.096c0-.2762.2238-.5.5-.5h12.4837c.2762 0 .5.2238.5.5 0 .2761-.2238.5-.5.5h-12.4837c-.2762 0-.5-.2239-.5-.5z"/><path d="m9.86778 25.9641c-.27614 0-.5.2239-.5.5s.22386.5.5.5h14.77712c.2761 0 .5-.2239.5-.5s-.2239-.5-.5-.5z"/><path d="m24.4687 20.2284c.2762 0 .5-.2239.5-.5 0-.2762-.2238-.5-.5-.5-.2761 0-.5.2238-.5.5 0 .2761.2239.5.5.5z"/><path d="m9.68747 23.5965c.27614 0 .50003-.2238.50003-.5 0-.2761-.22389-.5-.50003-.5-.27615 0-.5.2239-.5.5 0 .2762.22385.5.5.5z"/><path clip-rule="evenodd" d="m17.2577 5.2059c1.7214-.03686 3.4288.31232 4.9969 1.02138.0759.00236.1503.02197.2176.05744l7.4536 3.92858c.1875.1051.342.2603.4463.4482.1023.184.1524.3923.1451.6026v1.5555c.0106.154-.0109.3072-.0616.4504.0398.0718.0625.1543.0625.2422v16.1205c0 .2761-.2239.5-.5.5-.0445 0-.0876-.0058-.1286-.0167-.0399.0102-.0817.0157-.1248.0157h-25.23611c-.0105.0006-.02108.001-.03175.001-.01066 0-.02125-.0004-.03175-.001h-2.65637c-.27615 0-.5-.2239-.5-.5 0-.2762.22385-.5.5-.5h2.18812v-15.6195c0-.0878.02264-.1703.0624-.242-.05134-.1417-.07429-.2933-.06609-.4462v-1.5599c-.00728-.2103.04282-.4186.14507-.6026.10436-.1879.25892-.343.44641-.448l.00869-.0049 7.44228-3.97629c.0689-.03678.1453-.0569.2232-.05885 1.573-.69088 3.2809-1.02163 4.9989-.96756zm12.2087 8.8052c.0173 0 .0345-.0009.0517-.0027v15.1233h-1.7006c.0084-.0566.0127-.1141.0127-.172v-12.0903c0-.3108-.1234-.6088-.3432-.8285-.2197-.2198-.5177-.3432-.8285-.3432h-18.80716c-.31075 0-.60877.1234-.82851.3432-.21973.2197-.34318.5177-.34318.8285v12.0903c0 .0579.00429.1154.01269.172h-1.6955v-15.1229c.01565.0015.03137.0023.0471.0023zm-12.2276-7.80529c-1.6061-.05248-3.2029.26338-4.6681.92338-.0545.02452-.1128.03905-.1722.04301l-7.32798 3.9153c-.02433.0143-.04442.0349-.05815.0596-.01426.0257-.02109.0548-.01974.0841.00035.0077.00052.0153.00052.023v1.5852c0 .0119-.00043.0239-.00128.0358-.00241.0336.00813.0667.02945.0927.01712.0209.04015.0359.06584.0432h24.34274c.0247-.0061.0469-.02.0632-.0398.0197-.024.0291-.0548.0262-.0857-.0014-.0154-.0021-.0308-.0021-.0462v-1.5852c0-.0077.0002-.0153.0005-.023.0014-.0293-.0055-.0584-.0197-.0841-.0136-.0244-.0334-.0448-.0574-.0591l-7.3271-3.86196c-.0618-.00391-.1225-.01927-.1788-.04541-1.4611-.67764-3.0581-1.01109-4.6682-.97468-.0092.00021-.0184.00016-.0277-.00014zm9.4028 22.92589h-18.77336l-.0169-.0003c-.04554 0-.0892-.0181-.1214-.0503s-.05029-.0759-.05029-.1214v-12.0903c0-.0456.01809-.0892.05029-.1214s.07586-.0503.1214-.0503h18.80716c.0456 0 .0892.0181.1214.0503s.0503.0758.0503.1214v12.0903c0 .0455-.0181.0892-.0503.1214s-.0758.0503-.1214.0503z" fill-rule="evenodd"/><path d="m33.0156 29.6327c0 .2761-.2239.5-.5.5-.2762 0-.5-.2239-.5-.5 0-.2762.2238-.5.5-.5.2761 0 .5.2238.5.5z"/></g><g stroke="#92a0a9" stroke-width="2"><path d="m9.86778 19.2279c-.27614 0-.5.2238-.5.5 0 .2761.22386.5.5.5h12.35042c.2762 0 .5-.2239.5-.5 0-.2762-.2238-.5-.5-.5z" mask="url(#a)"/><path d="m11.6628 23.096c0-.2762.2238-.5.5-.5h12.4837c.2762 0 .5.2238.5.5 0 .2761-.2238.5-.5.5h-12.4837c-.2762 0-.5-.2239-.5-.5z" mask="url(#a)"/><path d="m9.86778 25.9641c-.27614 0-.5.2239-.5.5s.22386.5.5.5h14.77712c.2761 0 .5-.2239.5-.5s-.2239-.5-.5-.5z" mask="url(#a)"/><path d="m24.4687 20.2284c.2762 0 .5-.2239.5-.5 0-.2762-.2238-.5-.5-.5-.2761 0-.5.2238-.5.5 0 .2761.2239.5.5.5z" mask="url(#a)"/><path d="m9.68747 23.5965c.27614 0 .50003-.2238.50003-.5 0-.2761-.22389-.5-.50003-.5-.27615 0-.5.2239-.5.5 0 .2762.22385.5.5.5z" mask="url(#a)"/><path clip-rule="evenodd" d="m17.2577 5.2059c1.7214-.03686 3.4288.31232 4.9969 1.02138.0759.00236.1503.02197.2176.05744l7.4536 3.92858c.1875.1051.342.2603.4463.4482.1023.184.1524.3923.1451.6026v1.5555c.0106.154-.0109.3072-.0616.4504.0398.0718.0625.1543.0625.2422v16.1205c0 .2761-.2239.5-.5.5-.0445 0-.0876-.0058-.1286-.0167-.0399.0102-.0817.0157-.1248.0157h-25.23611c-.0105.0006-.02108.001-.03175.001-.01066 0-.02125-.0004-.03175-.001h-2.65637c-.27615 0-.5-.2239-.5-.5 0-.2762.22385-.5.5-.5h2.18812v-15.6195c0-.0878.02264-.1703.0624-.242-.05134-.1417-.07429-.2933-.06609-.4462v-1.5599c-.00728-.2103.04282-.4186.14507-.6026.10436-.1879.25892-.343.44641-.448l.00869-.0049 7.44228-3.97629c.0689-.03678.1453-.0569.2232-.05885 1.573-.69088 3.2809-1.02163 4.9989-.96756zm12.2087 8.8052c.0173 0 .0345-.0009.0517-.0027v15.1233h-1.7006c.0084-.0566.0127-.1141.0127-.172v-12.0903c0-.3108-.1234-.6088-.3432-.8285-.2197-.2198-.5177-.3432-.8285-.3432h-18.80716c-.31075 0-.60877.1234-.82851.3432-.21973.2197-.34318.5177-.34318.8285v12.0903c0 .0579.00429.1154.01269.172h-1.6955v-15.1229c.01565.0015.03137.0023.0471.0023zm-12.2276-7.80529c-1.6061-.05248-3.2029.26338-4.6681.92338-.0545.02452-.1128.03905-.1722.04301l-7.32798 3.9153c-.02433.0143-.04442.0349-.05815.0596-.01426.0257-.02109.0548-.01974.0841.00035.0077.00052.0153.00052.023v1.5852c0 .0119-.00043.0239-.00128.0358-.00241.0336.00813.0667.02945.0927.01712.0209.04015.0359.06584.0432h24.34274c.0247-.0061.0469-.02.0632-.0398.0197-.024.0291-.0548.0262-.0857-.0014-.0154-.0021-.0308-.0021-.0462v-1.5852c0-.0077.0002-.0153.0005-.023.0014-.0293-.0055-.0584-.0197-.0841-.0136-.0244-.0334-.0448-.0574-.0591l-7.3271-3.86196c-.0618-.00391-.1225-.01927-.1788-.04541-1.4611-.67764-3.0581-1.01109-4.6682-.97468-.0092.00021-.0184.00016-.0277-.00014zm9.4028 22.92589h-18.77336l-.0169-.0003c-.04554 0-.0892-.0181-.1214-.0503s-.05029-.0759-.05029-.1214v-12.0903c0-.0456.01809-.0892.05029-.1214s.07586-.0503.1214-.0503h18.80716c.0456 0 .0892.0181.1214.0503s.0503.0758.0503.1214v12.0903c0 .0455-.0181.0892-.0503.1214s-.0758.0503-.1214.0503z" fill-rule="evenodd" mask="url(#a)"/><path d="m33.0156 29.6327c0 .2761-.2239.5-.5.5-.2762 0-.5-.2239-.5-.5 0-.2762.2238-.5.5-.5.2761 0 .5.2238.5.5z" mask="url(#a)"/></g></svg>