<svg fill="none" height="26" viewBox="0 0 26 26" width="26" xmlns="http://www.w3.org/2000/svg"><path clip-rule="evenodd" d="m12.7588 3.33911c1.3085-.02748 2.6786.24355 3.8725.7973.0076.00356.0152.00731.0227.01126l5.4836 2.89026c.1593.08923.2905.22115.3792.38074.0864.15566.129.33178.1233.50958v1.1372c.0071.11088-.0053.22119-.0357.32621.0234.05789.0363.12115.0363.18744v11.8533c0 .2761-.2238.5-.5.5-.0091 0-.0181-.0003-.0271-.0008h-18.71129c-.009.0005-.01807.0008-.02719.0008s-.01819-.0003-.02719-.0008h-1.94937c-.27614 0-.5-.2238-.5-.5 0-.2761.22386-.5.5-.5h1.47656v-11.3525c0-.06603.0128-.12906.03605-.18677-.03084-.10378-.04423-.21282-.03876-.32268v-1.14139c-.00573-.1778.03684-.35393.12332-.50959.08866-.15959.21998-.29137.37925-.3806l.0087-.00487 5.47231-2.92372c.00992-.0053.02002-.01026.03027-.01488 1.19714-.53925 2.56694-.79603 3.87254-.75549zm-8.88368 6.73909h17.76558v10.8534h-.9763v-8.884c0-.2636-.1047-.5164-.2911-.7028s-.4392-.2911-.7028-.2911h-13.82884c-.26359 0-.51639.1047-.70278.2911s-.2911.4392-.2911.7028v8.884h-.97266zm5.43697-5.07862-5.43984 2.90648.00016.01273v1.15945h17.76769v-1.15945l.0001-.0126-5.441-2.86785c-1.05-.48466-2.2683-.72549-3.4316-.69918-.0093.00021-.0185.00016-.0277-.00014-1.1589-.03787-2.3756.18964-3.42781.66056zm10.34371 15.93202h-13.7995l-.00852-.0001v-8.8778h13.81662v8.8778zm-12.33146-7.2822c-.27614 0-.5.2239-.5.5 0 .2762.22386.5.5.5h9.08126c.2761 0 .5-.2238.5-.5 0-.2761-.2239-.5-.5-.5zm1.1875 2.9766c0-.2762.22386-.5.5-.5h9.17926c.2761 0 .5.2238.5.5 0 .2761-.2239.5-.5.5h-9.17926c-.27614 0-.5-.2239-.5-.5zm-1.1875 1.9765c-.27614 0-.5.2239-.5.5 0 .2762.22386.5.5.5h10.86546c.2762 0 .5-.2238.5-.5 0-.2761-.2238-.5-.5-.5zm10.86716-3.9531c.2762 0 .5-.2238.5-.5 0-.2761-.2238-.5-.5-.5-.2761 0-.5.2239-.5.5 0 .2762.2239.5.5.5zm6.418 6.7822c0 .2762-.2239.5-.5.5s-.5-.2238-.5-.5c0-.2761.2239-.5.5-.5s.5.2239.5.5zm-17.28516-4.3056c.27614 0 .5-.2239.5-.5 0-.2762-.22386-.5-.5-.5s-.5.2238-.5.5c0 .2761.22386.5.5.5z" fill="#18303f" fill-rule="evenodd"/></svg>