<svg fill="none" height="35" viewBox="0 0 35 35" width="35" xmlns="http://www.w3.org/2000/svg"><path clip-rule="evenodd" d="m22.1452 2.97195c-.8284 0-1.5.67158-1.5 1.5v1.22h-7.33c-1.2147 0-2.3796.48254-3.2386 1.34146l-4.40995 4.40999c-.85892.8589-1.34145 2.0239-1.34145 3.2385v11.9101c0 2.3605 1.78574 4.3039 4.08 4.553v.887c0 .2761.22385.5.5.5.27614 0 .5-.2239.5-.5v-.86h3.08v.86c0 .2761.2239.5.5.5s.5-.2239.5-.5v-.86h3.08v.86c0 .2761.2239.5.5.5s.5-.2239.5-.5v-.86h7.66c2.5295 0 4.58-2.0506 4.58-4.58v-16.32c0-2.36055-1.7858-4.30397-4.08-4.55307v-1.24698c0-.82842-.6716-1.5-1.5-1.5zm2.58 2.72v-1.22c0-.27614-.2239-.5-.5-.5h-2.08c-.2761 0-.5.22386-.5.5v1.22zm-4.08 1h-7.33c-.9495 0-1.8601.37718-2.5315 1.04856l-4.40995 4.40999c-.67138.6714-1.04855 1.582-1.04855 2.5314v11.9101c0 1.9771 1.60282 3.58 3.58 3.58h4.08 4.08 8.16c1.9772 0 3.58-1.6029 3.58-3.58v-16.32c0-1.97722-1.6028-3.58005-3.58-3.58005h-4.08zm-1.4574 2.42805c.2006.07018.3349.25946.3349.47195v7.07715h2.7836c.2266 0 .398.1105.4897.1794.0916.0688.1764.1537.2329.2104l.0095.0095c.0938.0937.1465.2209.1465.3535v.0062c0 .063.0001.1924-.0227.3287-.0206.1232-.0711.3288-.2259.4982l-7.4376 9.3287c-.1325.1661-.3555.2304-.5561.1602s-.3349-.2595-.3349-.4719v-7.0772h-2.7835c-.226 0-.3971-.1096-.4891-.1786-.0925-.0692-.1777-.1546-.2345-.2115l-.0086-.0085c-.0938-.0938-.1464-.221-.1464-.3536v-.0061c-.0001-.063-.0001-.1926.0226-.329.0206-.1231.071-.329.2259-.4986l7.4377-9.32865c.1324-.16615.3554-.23042.556-.16025zm-7.1819 10.0748h3.1018c.2762 0 .5.2239.5.5v6.148l6.5169-8.1737h-3.1019c-.2761 0-.5-.2239-.5-.5v-6.148z" fill="#92a0a9" fill-rule="evenodd"/></svg>