<svg fill="none" height="26" viewBox="0 0 26 26" width="26" xmlns="http://www.w3.org/2000/svg"><path clip-rule="evenodd" d="m16.5654 2.25195c-.8284 0-1.5.67158-1.5 1.5v.5h-5.25733c-.92826 0-1.8185.36875-2.47487 1.02513l-3.24264 3.24264c-.65638.65638-1.02513 1.54658-1.02513 2.47488v8.7574c0 1.7632 1.30385 3.2219 3 3.4645v.5355c0 .2761.22386.5.5.5s.5-.2239.5-.5v-.5h2v.5c0 .2761.22386.5.5.5s.49997-.2239.49997-.5v-.5h2v.5c0 .2761.2239.5.5.5.2762 0 .5-.2239.5-.5v-.5h5.5c1.933 0 3.5-1.5671 3.5-3.5v-12.00005c0-1.76323-1.3038-3.22194-3-3.46455v-.53545c0-.82842-.6715-1.5-1.5-1.5zm1.5 2v-.5c0-.27614-.2238-.5-.5-.5h-1c-.2761 0-.5.22386-.5.5v.5zm-3 1h-5.25733c-.66304 0-1.29893.2634-1.76777.73224l-3.24264 3.24264c-.46884.46884-.73223 1.10477-.73223 1.76777v8.7574c0 1.3807 1.11929 2.5 2.5 2.5h3 2.99997 6c1.3807 0 2.5-1.1193 2.5-2.5v-12.00005c0-1.38071-1.1193-2.5-2.5-2.5h-3zm-.8955 1.52805c.2006.07017.3349.25946.3349.47195v5.07145h1.9144c.2099 0 .3646.1021.4396.1584.0752.0566.1437.1252.1846.1662l.0077.0077c.0938.0938.1464.221.1464.3536v.0054c.0001.0467.0002.1513-.0184.2626-.0165.0986-.0587.2783-.1958.4304l-5.4662 6.856c-.1325.1661-.3555.2304-.5561.1602s-.3349-.2595-.3349-.4719v-5.0715h-1.91436c-.20927 0-.36366-.1013-.43901-.1577-.07586-.0569-.14466-.1258-.18576-.167l-.00717-.0072c-.09377-.0937-.14645-.2209-.14645-.3535v-.0054c-.00004-.0468-.00011-.1514.01846-.2628.01642-.0984.05857-.2784.19579-.4307l5.4662-6.85595c.1325-.16615.3555-.23042.5561-.16025zm-5.04977 7.4005 4.38467-5.49938v4.14228c0 .2761.2238.5.5.5h2.006l-4.3847 5.4994v-4.1423c0-.2761-.2238-.5-.5-.5z" fill="#18303f" fill-rule="evenodd"/></svg>