<svg fill="none" height="26" viewBox="0 0 26 26" width="26" xmlns="http://www.w3.org/2000/svg"><path clip-rule="evenodd" d="m1.25793 6.80664c0-3.03757 2.46244-5.5 5.5-5.5h12.99997c3.0376 0 5.5 2.46243 5.5 5.5v12.99996c0 3.0376-2.4624 5.5-5.5 5.5h-12.99997c-3.03756 0-5.5-2.4624-5.5-5.5zm5.5-4.5c-2.48528 0-4.5 2.01472-4.5 4.5v12.99996c0 2.4853 2.01472 4.5 4.5 4.5h12.99997c2.4853 0 4.5-2.0147 4.5-4.5v-12.99996c0-2.48528-2.0147-4.5-4.5-4.5zm5.99997 7v6.49996c0 .2762.2239.5.5.5.2762 0 .5-.2238.5-.5v-6.49996h.5c.4137 0 .7972-.14006 1.0786-.42145s.4214-.66493.4214-1.07855-.14-.79716-.4214-1.07855-.6649-.42145-1.0786-.42145h-.5v-1.5c0-.27614-.2238-.5-.5-.5-.2761 0-.5.22386-.5.5v1.5h-.5c-.4136 0-.7971.14006-1.0785.42145s-.4215.66493-.4215 1.07855.1401.79716.4215 1.07855.6649.42145 1.0785.42145zm1.5-1c.1864 0 .3029-.05994.3715-.12855s.1285-.18507.1285-.37145-.0599-.30284-.1285-.37145-.1851-.12855-.3715-.12855h-1-1c-.1863 0-.3028.05994-.3714.12855s-.1286.18507-.1286.37145.06.30284.1286.37145.1851.12855.3714.12855h1zm5 7.49996v-1.5h-.5c-.7431 0-1.5-.5919-1.5-1.5 0-.4136.1401-.7971.4215-1.0785s.6649-.4215 1.0785-.4215h.5v-6.49996c0-.27614.2239-.5.5-.5.2762 0 .5.22386.5.5v6.49996h.5c.4137 0 .7972.1401 1.0786.4215s.4214.6649.4214 1.0785c0 .4137-.14.7972-.4214 1.0786s-.6649.4214-1.0786.4214h-.5v1.5c0 .2762-.2238.5-.5.5-.2761 0-.5-.2238-.5-.5zm1.8715-2.6285c-.0686.0686-.1851.1285-.3715.1285h-1-1c-.2569 0-.5-.208-.5-.5 0-.1863.06-.3028.1286-.3714s.1851-.1286.3714-.1286h1 1c.1864 0 .3029.06.3715.1286s.1285.1851.1285.3714c0 .1864-.0599.3029-.1285.3715zm-14.37147-8.87146c.27615 0 .5.22386.5.5v4.5h.5c.41363 0 .79717.14006 1.07856.42145.28139.28141.42144.66491.42144 1.07851 0 .4137-.14005.7972-.42144 1.0786s-.66493.4214-1.07856.4214h-.5v3.5c0 .2762-.22385.5-.5.5-.27614 0-.5-.2238-.5-.5v-3.5h-.5c-.41362 0-.79716-.14-1.07855-.4214s-.42145-.6649-.42145-1.0786c0-.4136.14006-.7971.42145-1.07851.28139-.28139.66493-.42145 1.07855-.42145h.5v-4.5c0-.27614.22386-.5.5-.5zm1.37145 6.87146c-.06861.0686-.18507.1285-.37145.1285h-1-1c-.18637 0-.30283-.0599-.37144-.1285s-.12856-.1851-.12856-.3715c0-.1863.05995-.3028.12856-.3714s.18507-.1286.37144-.1286h1 1c.18638 0 .30284.06.37145.1286s.12855.1851.12855.3714c0 .1864-.05994.3029-.12855.3715zm11.62852 7.5054c-.8752 0-1.6232.748-1.6232 1.6232s.748 1.6233 1.6232 1.6233 1.6233-.7481 1.6233-1.6233-.7481-1.6232-1.6233-1.6232zm-.6232 1.6232c0-.3229.3003-.6232.6232-.6232s.6233.3003.6233.6232c0 .323-.3004.6233-.6233.6233s-.6232-.3003-.6232-.6233zm-7.5205-.0017c0-.8761.7489-1.625 1.625-1.625.8762 0 1.625.7489 1.625 1.625s-.7488 1.625-1.625 1.625c-.8761 0-1.625-.7489-1.625-1.625zm1.625-.625c-.3238 0-.625.3011-.625.625s.3012.625.625.625c.3239 0 .625-.3011.625-.625s-.3011-.625-.625-.625zm-6.48121-.9966c-.87523 0-1.62328.7481-1.62328 1.6233s.74805 1.6233 1.62328 1.6233c.87522 0 1.62327-.7481 1.62327-1.6233s-.74805-1.6233-1.62327-1.6233zm-.62328 1.6233c0-.3229.30034-.6233.62328-.6233s.62327.3004.62327.6233-.30033.6233-.62327.6233-.62328-.3004-.62328-.6233z" fill="#18303f" fill-rule="evenodd"/></svg>