<svg fill="none" height="34" viewBox="0 0 35 34" width="35" xmlns="http://www.w3.org/2000/svg"><path clip-rule="evenodd" d="m33.3979 6.35998c0-3.03757-2.4624-5.499995-5.5-5.499995h-21.27995c-3.03757 0-5.5 2.462435-5.5 5.500005v21.28001c0 3.0376 2.46244 5.5 5.5 5.5h21.28005c3.0375 0 5.4999-2.4625 5.4999-5.5zm-5.5-4.49999c2.4853 0 4.5 2.01471 4.5 4.49999v21.28002c0 2.4853-2.0147 4.5-4.4999 4.5h-21.28005c-2.48528 0-4.5-2.0147-4.5-4.5v-21.28001c0-2.48529 2.01472-4.5 4.5-4.5zm-10.14 9.52001v9.02c0 .2761-.2238.5-.5.5-.2761 0-.5-.2239-.5-.5v-9.02h-.86c-.5216 0-.9951-.1761-1.3395-.5205s-.5205-.8179-.5205-1.33951c0-.52163.1761-.99517.5205-1.33956s.8179-.52044 1.3395-.52044h.86v-2.22c0-.27615.2239-.5.5-.5.2762 0 .5.22385.5.5v2.22h.86c.5217 0 .9952.17605 1.3396.52044s.5204.81793.5204 1.33956c0 .52161-.176.99511-.5204 1.33951s-.8179.5205-1.3396.5205zm-.5-1h-1.36c-.2943 0-.5008-.096-.6324-.2276s-.2276-.33804-.2276-.63241c0-.29438.096-.50084.2276-.63245s.3381-.22755.6324-.22755h1.36 1.36c.2944 0 .5009.09594.6325.22755s.2275.33807.2275.63245c0 .29437-.0959.50081-.2275.63241s-.3381.2276-.6325.2276zm-8.33995 10.02v-2.22h.86c.92305 0 1.85995-.7359 1.85995-1.86 0-.5216-.176-.9952-.5204-1.3396s-.8179-.5204-1.33955-.5204h-.86v-9.02001c0-.27615-.22386-.5-.5-.5s-.5.22385-.5.5v9.02001h-.86c-.52162 0-.99516.176-1.33955.5204s-.52045.818-.52045 1.3396.17606.9951.52045 1.3395.81793.5205 1.33955.5205h.86v2.22c0 .2761.22386.5.5.5s.5-.2239.5-.5zm-1.86-3.22h1.36 1.36c.43695 0 .85995-.3521.85995-.86 0-.2944-.0959-.5009-.2275-.6325s-.3381-.2275-.63245-.2275h-1.36-1.36c-.29438 0-.50084.0959-.63245.2275s-.22755.3381-.22755.6325.09594.5008.22755.6324.33807.2276.63245.2276zm19.03995-12.24001c-.2761 0-.5.22385-.5.5v6.30001h-.86c-.5216 0-.9951.176-1.3395.5204s-.5205.818-.5205 1.3396.1761.9951.5205 1.3395.8179.5205 1.3395.5205h.86v4.94c0 .2761.2239.5.5.5.2762 0 .5-.2239.5-.5v-4.94h.86c.5217 0 .9952-.1761 1.3396-.5205s.5204-.8179.5204-1.3395-.176-.9952-.5204-1.3396-.8179-.5204-1.3396-.5204h-.86v-6.30001c0-.27615-.2238-.5-.5-.5zm-1.36 9.52001h1.36 1.36c.2944 0 .5009-.096.6325-.2276s.2275-.338.2275-.6324-.0959-.5009-.2275-.6325-.3381-.2275-.6325-.2275h-1.36-1.36c-.2943 0-.5008.0959-.6324.2275s-.2276.3381-.2276.6325.096.5008.2276.6324.3381.2276.6324.2276zm-16.31995 10.0325c1.09086 0 2.02755.9368 2.02755 2.0276 0 1.0909-.93669 2.0276-2.02755 2.0276s-2.02759-.9367-2.02759-2.0276c0-1.0908.93673-2.0276 2.02759-2.0276zm1.02759 2.0276c0-.5385-.48902-1.0276-1.02759-1.0276s-1.02759.4891-1.02759 1.0276c0 .5386.48902 1.0276 1.02759 1.0276s1.02759-.489 1.02759-1.0276zm9.86786-.0024c0-1.0921-.9379-2.03-2.03-2.03-1.0922 0-2.03.9379-2.03 2.03 0 1.0922.9378 2.03 2.03 2.03 1.0921 0 2.03-.9378 2.03-2.03zm-2.03-1.03c.5398 0 1.03.4902 1.03 1.03 0 .5399-.4902 1.03-1.03 1.03-.5399 0-1.03-.4901-1.03-1.03 0-.5398.4901-1.03 1.03-1.03zm8.8145-.9953c1.0909 0 2.0276.9368 2.0276 2.0277 0 1.0908-.9367 2.0276-2.0276 2.0276s-2.0277-.9368-2.0277-2.0276c0-1.0909.9368-2.0277 2.0277-2.0277zm1.0276 2.0277c0-.5387-.489-1.0277-1.0276-1.0277s-1.0277.489-1.0277 1.0277c0 .5386.4891 1.0276 1.0277 1.0276s1.0276-.489 1.0276-1.0276z" fill="#92a0a9" fill-rule="evenodd"/></svg>