<svg fill="none" height="35" viewBox="0 0 35 35" width="35" xmlns="http://www.w3.org/2000/svg"><g clip-rule="evenodd" fill="#92a0a9" fill-rule="evenodd"><path d="m24.6936 2.35225c-.9297-.24844-1.8936.30522-2.1435 1.23515l-.3234 1.20396c-.2499.92993.3073 1.89009 1.237 2.13853.9297.24843 1.8936-.30523 2.1435-1.23516l.3234-1.20396c.2499-.92992-.3073-1.89008-1.237-2.13852zm-1.1774 1.49332c.106-.39443.5197-.63399.9179-.52757.3983.10642.6364.52017.5304.9146l-.3234 1.20396c-.106.39444-.5197.634-.9179.52757-.3983-.10642-.6364-.52016-.5304-.9146z"/><path d="m17.8804 6.53185c.2499-.92992 1.2138-1.48359 2.1435-1.23515s1.4869 1.2086 1.2371 2.13852l-.3235 1.20397c-.2499.92992-1.2138 1.48361-2.1435 1.23515-.9297-.24844-1.4869-1.2086-1.237-2.13852zm1.884-.2694c-.3982-.10642-.8119.13314-.9179.52757l-.3234 1.20396c-.106.39444.1322.80818.5304.91461.3982.10642.8119-.13314.9179-.52757l.3235-1.20397c.1059-.39443-.1322-.80818-.5305-.9146z"/><path d="m25.1894 8.93596c-.5505-.14713-1.0315-.17763-1.4661-.08779-.4394.09082-.7918.29647-1.0944.55824-.2944.25471-.5496.57012-.7923.88449-.056.0727-.1116.1455-.1674.2185-.192.2517-.3868.507-.6123.7688-.3821.413-.7834.4716-1.3244.5505-.093.0136-.1901.0278-.292.0444-.3284.0538-.7201.1435-1.0681.4114-.357.2749-.6077.6883-.7647 1.2724-.3073 1.144-.0974 1.9459.3624 2.477.4312.4979 1.0077.6648 1.2357.7258.9491.2536 1.5806-.0478 2.0961-.2938l.0654-.0311.0356-.0168c.2661-.1254.5008-.2251.776-.2718.2692-.0456.6027-.044 1.0529.0763.4501.1203.7398.2853.95.459.215.1776.3682.381.5358.6223l.0369.0533.0265.0386c.3232.4701.719 1.046 1.668 1.2996.2281.0609.811.2038 1.434-.0124.6645-.2306 1.2483-.8204 1.5557-1.9645.1569-.584.1471-1.0671-.0243-1.4832-.1671-.4055-.4614-.6785-.7188-.8888-.0796-.065-.1563-.1256-.2298-.1835-.4307-.3395-.7505-.5917-.8733-1.1446-.085-.3856-.135-.7461-.1841-1.0999l-.0206-.1473c-.0547-.3893-.1157-.7883-.2378-1.1523-.1259-.3753-.3214-.72936-.6529-1.02788-.3277-.29513-.7573-.50788-1.3077-.65496zm-2.7154 2.16664c.0532-.0698.1047-.1372.1544-.2017.2412-.3124.4435-.5562.6548-.739.2031-.17571.4045-.2858.6416-.3348.2418-.04999.5598-.04441 1.0052.07461.4455.11909.7185.27149.897.43219.1748.1574.2894.3499.3745.6037.0889.265.1401.5774.1957.9737l.02.1433c.0487.3517.1043.7531.1985 1.1802.2058.9277.8284 1.4076 1.2646 1.7434.0654.0503.1266.0975.1816.1424.2266.1852.3583.3284.4274.4961.0647.1571.1013.4043-.0167.8436-.2425.9027-.6359 1.1808-.9167 1.2783-.3223.1118-.6529.0429-.8474-.0091-.5878-.1571-.797-.4592-1.1188-.9241l-.0502-.0724c-.1764-.254-.3937-.5528-.7197-.8222-.3307-.2733-.7526-.5001-1.3286-.654-.576-.154-1.055-.1679-1.4784-.0961-.4174.0707-.7554.2211-1.0355.3531l-.0798.0377c-.5118.2421-.8444.3995-1.4322.2424-.1945-.052-.5154-.1571-.7384-.4147-.1944-.2244-.3956-.6615-.1531-1.5642.1181-.4393.2737-.635.4085-.7388.1439-.1108.3298-.1692.6189-.2166.0701-.0114.1467-.0217.2286-.0327.5461-.0734 1.3255-.178 1.9689-.8788l.0102-.0115c.2494-.2891.4693-.5773.6651-.834z"/><path d="m8.57708 19.5785c-.24985-.9299.30736-1.89 1.23705-2.1385.92967-.2484 1.89357.3052 2.14347 1.2352l.3235 1.2039c.2498.93-.3074 1.8901-1.2371 2.1386-.9297.2484-1.89361-.3053-2.14345-1.2352zm1.49652-1.1727c-.39825.1064-.6364.5201-.53043.9146l.32347 1.2039c.10598.3945.51966.634.91786.5276.3983-.1064.6364-.5202.5305-.9146l-.3235-1.204c-.106-.3944-.5197-.634-.9179-.5275z"/><path d="m4.35364 20.7074c-.24985-.9299.30737-1.89 1.23705-2.1385.92968-.2484 1.89362.3052 2.14346 1.2352l.32347 1.2039c.24985.93-.30737 1.8901-1.23705 2.1386-.92968.2484-1.89362-.3053-2.14346-1.2352zm1.49652-1.1727c-.39825.1064-.6364.5201-.53042.9146l.32347 1.2039c.10597.3945.51965.634.91789.5276.39825-.1064.6364-.5202.53042-.9146l-.32347-1.204c-.10597-.3944-.51965-.634-.91789-.5275z"/><path d="m3.01944 23.4498c-.92968.2484-1.4869 1.2086-1.23705 2.1385l.32347 1.204c.24984.9299 1.21378 1.4836 2.14346 1.2351.92968-.2484 1.4869-1.2086 1.23705-2.1385l-.32347-1.204c-.24984-.9299-1.21378-1.4836-2.14346-1.2351zm-.27095 1.8803c-.10598-.3944.13217-.8081.53042-.9146.39824-.1064.81192.1332.91789.5276l.32347 1.204c.10598.3944-.13217.8081-.53042.9146-.39825.1064-.81192-.1332-.91789-.5276z"/><path d="m9.31654 24.0247c-.55057.1471-.98243.3605-1.31376.6551-.33496.2977-.53703.6515-.66784 1.0291-.12729.3674-.1902.7678-.24273 1.1611-.01216.0911-.02381.1821-.03549.2734-.04014.3137-.08079.6313-.14481.9704-.12387.5482-.44204.7991-.87093 1.1372-.07364.058-.15085.1189-.2306.1841-.25743.2103-.5517.4833-.71876.8888-.17144.4161-.18126.8992-.02434 1.4832.30737 1.1441.89118 1.7339 1.55567 1.9645.62307.2162 1.20595.0733 1.434.0124.94906-.2536 1.34489-.8295 1.66801-1.2996l.03795-.0552.02544-.0367c.16762-.2413.32085-.4447.53585-.6223.2102-.1737.4999-.3387.95-.459.4502-.1203.7837-.1219 1.0529-.0763.2752.0467.5099.1464.776.2718.0332.0156.0668.0316.101.0479.5155.246 1.147.5474 2.0961.2938.228-.061.8045-.2279 1.2357-.7258.4598-.5311.6697-1.333.3623-2.477-.1569-.5841-.4076-.9975-.7647-1.2724-.3479-.2679-.7396-.3576-1.068-.4114-.1019-.0166-.199-.0308-.292-.0444-.5432-.0793-.9456-.138-1.3291-.5556-.267-.2915-.4911-.5788-.711-.8607l-.0916-.1174c-.2426-.3099-.4954-.625-.7837-.8793-.2972-.2622-.644-.4714-1.0807-.5646-.4318-.0922-.91048-.0622-1.46086.0849zm-1.42327 4.2843c.07106-.3747.11696-.7339.15786-1.0539.01111-.0869.02185-.171.03263-.2517.05219-.3908.10516-.7028.1965-.9665.08781-.2534.20711-.4492.38784-.6099.18437-.1639.46254-.3176.90791-.4366.44559-.1191.75839-.1232.99349-.073.2303.0491.4261.1588.627.336.2099.1852.4108.4303.6577.7457l.0891.1142c.2185.2803.4679.6002.7636.9231.6433.7008 1.4232.8058 1.9693.8792.0819.011.1585.0213.2286.0327.2891.0474.4749.1058.6189.2166.1348.1038.2904.2995.4084.7388.2426.9027.0414 1.3398-.153 1.5642-.223.2576-.5439.3627-.7384.4147-.5878.1571-.9204-.0003-1.4322-.2424l-.0798-.0377c-.2801-.132-.6181-.2824-1.0355-.3531-.4234-.0718-.9024-.0579-1.4784.0961-.576.1539-.9979.3807-1.3286.654-.32603.2694-.54329.5682-.71974.8222l-.05021.0724c-.32179.4649-.53097.767-1.11877.9241-.19448.052-.5251.1209-.84736.0091-.28085-.0975-.67422-.3756-.91674-1.2783-.11804-.4393-.08143-.6865-.0167-.8436.06911-.1677.20078-.3109.42742-.4961.05495-.0449.11612-.092.18146-.1423.4362-.3359 1.05881-.8152 1.2646-1.7429z"/><path d="m14.4891 20.3858c-.9297.2484-1.4869 1.2086-1.237 2.1385l.3234 1.204c.2499.9299 1.2138 1.4836 2.1435 1.2351.9297-.2484 1.4869-1.2086 1.2371-2.1385l-.3235-1.204c-.2499-.9299-1.2138-1.4835-2.1435-1.2351zm-.2709 1.8803c-.106-.3944.1322-.8081.5304-.9146.3982-.1064.8119.1332.9179.5276l.3235 1.204c.1059.3944-.1322.8082-.5305.9146-.3982.1064-.8119-.1332-.9179-.5276z"/><path d="m29.3448 9.59717c.2499-.92993 1.2138-1.4836 2.1435-1.23516s1.4869 1.2086 1.237 2.13849l-.3234 1.204c-.2499.9299-1.2138 1.4836-2.1435 1.2352-.9297-.2485-1.4869-1.2086-1.237-2.1386zm1.884-.26941c-.3982-.10642-.8119.13314-.9179.52757l-.3234 1.20397c-.106.3944.1321.8082.5304.9146.3982.1064.8119-.1331.9179-.5276l.3234-1.2039c.106-.39447-.1321-.80821-.5304-.91464z"/><path d="m28.9223 3.48115c-.9296-.24844-1.8936.30523-2.1434 1.23516l-.3235 1.20396c-.2498.92992.3074 1.89008 1.2371 2.13852.9296.24844 1.8936-.30523 2.1434-1.23515l.3235-1.20396c.2498-.92993-.3074-1.89009-1.2371-2.13853zm-1.1773 1.49333c.106-.39444.5196-.634.9179-.52758.3982.10643.6364.52017.5304.91461l-.3235 1.20396c-.1059.39443-.5196.63399-.9179.52757-.3982-.10642-.6364-.52017-.5304-.9146z"/></g></svg>