<svg fill="none" height="26" viewBox="0 0 26 26" width="26" xmlns="http://www.w3.org/2000/svg"><g fill="#18303f"><path clip-rule="evenodd" d="m15.9965 12.1692c.8334.4811.8334 1.6839 0 2.1651l-5.1032 2.9463c-.8333.4811-1.87495-.1203-1.87495-1.0825v-5.8927c0-.96224 1.04165-1.56365 1.87495-1.08252zm-.5 1.299-5.1032 2.9464c-.1666.0962-.375-.0241-.375-.2165v-5.8927c0-.1924.2084-.31272.375-.2165l5.1032 2.9463c.1667.0963.1667.3368 0 .433z" fill-rule="evenodd"/><path d="m3.56685 5.41602c0 .27614.22386.5.5.5h.16379c.27614 0 .5-.22386.5-.5v-.16379c0-.27614-.22386-.5-.5-.5h-.16379c-.27614 0-.5.22386-.5.5z"/><path d="m8.56685 5.91602c-.27614 0-.5-.22386-.5-.5v-.16379c0-.27614.22386-.5.5-.5h.16379c.27614 0 .5.22386.5.5v.16379c0 .27614-.22386.5-.5.5z"/><path d="m12.0668 5.41602c0 .27614.2239.5.5.5h.1638c.2762 0 .5-.22386.5-.5v-.16379c0-.27614-.2238-.5-.5-.5h-.1638c-.2761 0-.5.22386-.5.5z"/><path d="m16.5668 5.91602c-.2761 0-.5-.22386-.5-.5v-.16379c0-.27614.2239-.5.5001-.5h.1637c.2762 0 .5.22386.5.5v.16379c0 .27614-.2238.5-.5.5z"/><path d="m20.0669 5.41602c0 .27614.2238.5.5.5h.1637c.2762 0 .5-.22386.5-.5v-.16379c0-.27614-.2238-.5-.5-.5h-.1637c-.2762 0-.5.22386-.5.5z"/><path d="m4.06685 21.752c-.27614 0-.5-.2239-.5-.5v-.1638c0-.2762.22386-.5.5-.5h.16379c.27614 0 .5.2238.5.5v.1638c0 .2761-.22386.5-.5.5z"/><path d="m8.06685 21.252c0 .2761.22386.5.5.5h.16379c.27614 0 .5-.2239.5-.5v-.1638c0-.2762-.22386-.5-.5-.5h-.16379c-.27614 0-.5.2238-.5.5z"/><path d="m12.5668 21.752c-.2761 0-.5-.2239-.5-.5v-.1638c0-.2762.2239-.5.5-.5h.1638c.2762 0 .5.2238.5.5v.1638c0 .2761-.2238.5-.5.5z"/><path d="m16.0668 21.252c0 .2761.2239.5.5.5h.1638c.2762 0 .5-.2239.5-.5v-.1638c0-.2762-.2238-.5-.5-.5h-.1637c-.2762 0-.5001.2238-.5001.5z"/><path d="m20.5669 21.752c-.2762 0-.5-.2239-.5-.5v-.1638c0-.2762.2238-.5.5-.5h.1637c.2762 0 .5.2238.5.5v.1638c0 .2761-.2238.5-.5.5z"/><path clip-rule="evenodd" d="m5.06685 1.25195c-2.48528 0-4.5 2.01472-4.5 4.5v2.96239c-.000941.01253-.00142.02519-.00142.03797 0 1.12289.82134 2.13639 1.95455 2.13639 1.07593 0 2.04545 1.0012 2.04545 2.3636 0 1.3524-.95536 2.349-2.02182 2.3635-.00784-.0004-.01571-.0006-.02363-.0006-1.13321 0-1.95455 1.0135-1.95455 2.1364 0 .0128.000479.0254.00142.038v2.9624c0 2.4852 2.01472 4.5 4.5 4.5h15.00005c2.4852 0 4.5-2.0148 4.5-4.5v-2.9624c.0004-.0062.0008-.0125.001-.0188s.0004-.0128.0004-.0192c0-1.1229-.8214-2.1364-1.9546-2.1364-.0079 0-.0158.0002-.0236.0006-1.0665-.0145-2.0218-1.0111-2.0218-2.3635 0-1.3624.9695-2.3636 2.0454-2.3636 1.1332 0 1.9546-1.0135 1.9546-2.13639 0-.01278-.0005-.02545-.0014-.03798v-2.96238c0-2.48528-2.0148-4.5-4.5-4.5zm-3.50106 16.46725c.0007.0108.00106.0217.00106.0328v3c0 1.9329 1.567 3.5 3.5 3.5h15.00005c1.9329 0 3.5-1.5671 3.5-3.5v-3c0-.0111.0003-.022.001-.0328-.0147-.6565-.4743-1.0909-.9334-1.1037-.0069.0003-.0138.0004-.0208.0004-1.7357 0-3.0454-1.5629-3.0454-3.3636s1.3097-3.36363 3.0454-3.36363c.4659 0 .9393-.43754.9542-1.10392-.0007-.01084-.001-.02178-.001-.0328v-3c0-1.93299-1.5671-3.5-3.5-3.5h-15.00005c-1.933 0-3.5 1.56701-3.5 3.5v3c0 .01102-.00036.02196-.00106.0328.01492.66638.48826 1.10392.95419 1.10392 1.73569 0 3.04545 1.56293 3.04545 3.36363s-1.30976 3.3636-3.04545 3.3636c-.00695 0-.01386-.0001-.02073-.0004-.45913.0128-.91876.4472-.93346 1.1037z" fill-rule="evenodd"/></g></svg>