<svg fill="none" height="26" viewBox="0 0 26 26" width="26" xmlns="http://www.w3.org/2000/svg"><g fill="#18303f"><path clip-rule="evenodd" d="m18.4728 2.43542c1.933 0 3.5 1.56701 3.5 3.50001v13.75647c0 1.9329-1.567 3.5-3.5 3.5h-1.6101c-.2762 0-.5-.2239-.5-.5 0-.2762.2238-.5.5-.5h1.6101c1.3807 0 2.5-1.1193 2.5-2.5v-4.5861c-.1565.0553-.325.0855-.5005.0855h-5.8636c-.0142.2483-.22.4452-.4718.4452h-2.7573c-.2518 0-.4577-.1969-.4718-.4452h-5.86471c-.17514 0-.34327-.03-.49953-.0852v4.5858c0 1.3807 1.11929 2.5 2.5 2.5h5.98474c.2762 0 .5.2238.5.5 0 .2761-.2238.5-.5.5h-5.98474c-1.933 0-3.5-1.5671-3.5-3.5v-5.9627c-.00031-.0126-.00047-.0252-.00047-.0379v-.1725c0-.0074.00016-.0146.00047-.0219v-7.56148c0-1.93299 1.56701-3.5 3.5-3.5zm-13.92924 11.27768v-7.77768c0-1.38071 1.11929-2.5 2.5-2.5h11.42924c1.3807 0 2.5 1.1193 2.5 2.50001v7.56147c-.0003.0073-.0005.0145-.0005.0219v.1725c0 .2761-.2238.5-.5.5h-15.42921c-.26882 0-.48809-.2122-.49953-.4782z" fill-rule="evenodd"/><path d="m14.9064 23.1923c.2761 0 .5-.2239.5-.5 0-.2762-.2239-.5-.5-.5-.2762 0-.5.2238-.5.5 0 .2761.2238.5.5.5z"/></g></svg>