<svg fill="none" height="34" viewBox="0 0 35 34" width="35" xmlns="http://www.w3.org/2000/svg"><g fill="#92a0a9"><path d="m4.92113 6.448c0-1.933 1.567-3.5 3.5-3.5h17.70377c1.933 0 3.5 1.567 3.5 3.5v11.3535c.001.0132.0015.0265.0015.0399v.5946c0 .0231-.0005.0461-.0015.069v8.8117c0 1.933-1.567 3.5-3.5 3.5h-8.5497c-.2761 0-.5-.2238-.5-.5 0-.2761.2239-.5.5-.5h8.5497c1.3807 0 2.5-1.1193 2.5-2.5v-7.4655c-.156.0549-.3237.0848-.4985.0848h-10.4637c-.2761 0-.5-.2239-.5-.5 0-.2762.2238-.5.5-.5h10.4637c.2628 0 .4782-.2027.4985-.4602v-12.0278c0-1.38071-1.1193-2.5-2.5-2.5h-17.70377c-1.38071 0-2.5 1.11929-2.5 2.5v6.3544c0 .2761-.22386.5-.5.5s-.5-.2239-.5-.5z"/><path d="m7.98737 27.7035c0-.2761.22386-.5.5-.5s.5.2239.5.5v1.0044c0 .2761-.22386.5-.5.5s-.5-.2239-.5-.5z"/><path clip-rule="evenodd" d="m13.5138 21.3332c1.126 0 2.0451.9192 2.0451 2.0452v5.5056c0 1.1332-.5196 2.1967-1.2941 2.9712-.7744.7744-1.838 1.2941-2.9711 1.2941h-5.60329c-1.13312 0-2.19666-.5197-2.97113-1.2941-.77446-.7745-1.29411-1.838-1.29411-2.9712v-5.5056c0-1.126.91917-2.0452 2.04515-2.0452h.26874v-2.2035c0-2.5939 2.15529-4.7492 4.74915-4.7492 2.59389 0 4.74919 2.1553 4.74919 4.7492v2.2035zm-8.77474-2.2035v2.2035h7.49834v-2.2035c0-2.0416-1.7076-3.7492-3.74919-3.7492-2.04158 0-3.74915 1.7076-3.74915 3.7492zm9.81984 4.2487c0-.5737-.4714-1.0452-1.0451-1.0452h-.7554c-.007.0003-.014.0005-.021.0005h-8.49834c-.00704 0-.01404-.0002-.021-.0005h-.74774c-.57369 0-1.04515.4715-1.04515 1.0452v5.5056c0 .8268.38304 1.6459 1.00122 2.2641.61818.6181 1.43726 1.0012 2.26402 1.0012h5.60329c.8267 0 1.6458-.3831 2.264-1.0012.6182-.6182 1.0012-1.4373 1.0012-2.2641z" fill-rule="evenodd"/><path d="m19.1488 20.7215c.3549 0 .6427-.2877.6427-.6427s-.2878-.6428-.6427-.6428h-2.3507v1.2855z"/><path d="m7.56204 26.7778c0 .5121.41507.9271.92709.9271.51201 0 .92709-.415.92709-.9271 0-.512-.41508-.927-.92709-.927-.51202 0-.92709.415-.92709.927z"/></g></svg>