<svg fill="none" height="50" viewBox="0 0 50 50" width="50" xmlns="http://www.w3.org/2000/svg"><path clip-rule="evenodd" d="m2.67188 19.2147c0-9.5074 7.70732-17.2147 17.21472-17.2147h10.2319c9.5074 0 17.2147 7.7073 17.2147 17.2147 0 8.3616-5.9625 15.3328-13.8682 16.8899-1.4.2757-2.7085 1.5252-2.5008 3.2084.378 3.0622 1.5418 5.8806 3.2823 8.2466.0888.1207.095.2645.0563.3623-.0176.0447-.0378.0625-.0439.0669 0 0-.0109.0109-.0551.0109-6.5455 0-12.1525-4.0283-14.4722-9.7451-.4361-1.0745-1.4069-1.8553-2.5597-2.0378-8.21738-1.3012-14.50002-8.4189-14.50002-17.0021zm17.21472-19.2147c-10.612 0-19.214725 8.60273-19.214725 19.2147 0 9.5824 7.013405 17.5249 16.187225 18.9775.4529.0717.8439.3824 1.0192.8144 2.6153 6.4453 8.9381 10.9931 16.3255 10.9931.9685 0 1.6677-.6053 1.9591-1.3429.2823-.7145.2061-1.587-.3054-2.2823-1.5431-2.0978-2.5736-4.5942-2.9083-7.3065-.0477-.3857.257-.874.9023-1.0011 8.8252-1.7382 15.4817-9.5167 15.4817-18.8522 0-10.61197-8.6027-19.2147-19.2147-19.2147zm5.1056 24.3945c-1.1046 0-2-.8954-2-2v-12c0-1.10454.8954-1.99997 2-1.99997s2 .89543 2 1.99997v12c0 1.1046-.8954 2-2 2zm2.608 6.6107c0 1.4364-1.1644 2.6009-2.6009 2.6009-1.4364 0-2.6009-1.1645-2.6009-2.6009s1.1645-2.6009 2.6009-2.6009c1.4365 0 2.6009 1.1645 2.6009 2.6009z" fill="#9ca8ad" fill-rule="evenodd"/></svg>