<svg fill="none" height="28" viewBox="0 0 27 28" width="27" xmlns="http://www.w3.org/2000/svg"><g fill="#18303f"><path d="m15.5113 11.8066c-.1952-.1952-.5118-.1952-.7071 0-.1953.1953-.1953.5119 0 .7071zm-7.07105 2.1214c.19526-.1953.19526-.5119 0-.7071-.19527-.1953-.51185-.1953-.70711 0zm6.71755 3.1819-6.01045 6.0105.70711.7071 6.01044-6.0104zm-10.96019 1.0607 4.24264-4.2426-.70711-.7071-4.24264 4.2426zm10.60659-5.6569.3536.3536.7071-.7071-.3536-.3536zm-5.65685 10.6067c-1.36683 1.3668-3.58291 1.3668-4.94974 0l-.70711.7071c1.75736 1.7573 4.6066 1.7573 6.36396 0zm6.71755-5.3033c1.5621-1.5621 1.5621-4.0948 0-5.6569l-.7071.7071c1.1715 1.1716 1.1715 3.0711 0 4.2426zm-11.66729 5.3033c-1.36684-1.3669-1.36684-3.583 0-4.9498l-.70711-.7071c-1.75736 1.7574-1.75736 4.6066 0 6.364z"/><path d="m11.4887 15.8281c.1952.1952.5118.1952.7071 0 .1953-.1953.1953-.5119 0-.7071zm7.0711-2.1214c-.1953.1953-.1953.5119 0 .7071.1952.1953.5118.1953.7071 0zm-6.7176-3.1819 6.0104-6.01045-.7071-.7071-6.0104 6.0104zm10.9602-1.0607-4.2426 4.2426.7071.7071 4.2426-4.2426zm-10.6066 5.6569-.3536-.3536-.7071.7071.3536.3536zm5.6568-10.60665c1.3669-1.36683 3.583-1.36683 4.9498 0l.7071-.7071c-1.7574-1.75736-4.6066-1.75736-6.364 0zm-6.7175 5.3033c-1.56206 1.56215-1.56206 4.09475 0 5.65685l.7071-.7071c-1.1715-1.1716-1.1715-3.0711 0-4.2426zm11.6673-5.3033c1.3668 1.36684 1.3668 3.58292 0 4.94975l.7071.7071c1.7574-1.75735 1.7574-4.60659 0-6.36395z"/></g></svg>