<svg fill="none" height="15" viewBox="0 0 15 15" width="15" xmlns="http://www.w3.org/2000/svg"><path clip-rule="evenodd" d="m2.73483 2.73483c.14645-.14644.38389-.14644.53034 0l4.23483 4.23484 4.2348-4.23484c.1465-.14644.3839-.14644.5304 0 .1464.14645.1464.38389 0 .53034l-4.23487 4.23483 4.23487 4.2348c.1464.1465.1464.3839 0 .5304-.1465.1464-.3839.1464-.5304 0l-4.2348-4.23487-4.23483 4.23487c-.14645.1464-.38389.1464-.53034 0-.14644-.1465-.14644-.3839 0-.5304l4.23484-4.2348-4.23484-4.23483c-.14644-.14645-.14644-.38389 0-.53034z" fill="#18303f" fill-rule="evenodd"/></svg>