<svg fill="none" height="25" viewBox="0 0 25 25" width="25" xmlns="http://www.w3.org/2000/svg"><g stroke="#18303f" stroke-linecap="round" stroke-linejoin="round"><path d="m6.30486 19.2942-4.93456-10.07249m0 0s1.45404 6.33409 1.90144 10.07249c.11185.9024.78294 1.5469 1.56589 1.5469h3.13178 8.94799 3.1317c.783 0 1.4541-.6445 1.5659-1.5469.5593-3.8673 2.0133-10.07249 2.0133-10.07249l-4.8282 10.07249m-17.4298-10.07249s2.34517 3.05799 3.86142 3.05799c.84871 0 .95971-3.49586 1.07314-4.17156.33785.33785 1.66455 3.56086 2.81624 3.56086 1.1517 0 1.9203-2.42807 2.4275-3.84781.3355-1.03128 1.5659-1.03128 1.9014 0"/><path d="m18.6959 19.2942 4.9346-10.07249m0 0s-1.454 6.33409-1.9014 10.07249c-.1119.9024-.783 1.5469-1.5659 1.5469h-3.1318-8.94796-3.13178c-.78294 0-1.45404-.6445-1.56589-1.5469-.55924-3.8673-2.01328-10.07249-2.01328-10.07249l4.8282 10.07249m17.42981-10.07249s-2.3452 3.05799-3.8614 3.05799c-.8487 0-.9597-3.49586-1.0732-4.17156-.3378.33785-1.6645 3.56086-2.8162 3.56086s-1.9203-2.42807-2.4275-3.84781c-.3355-1.03128-1.5659-1.03128-1.9014 0"/><path d="m19.4306 23.4971h-13.7816c-.74719 0-1.32834-.5811-1.32834-1.3283s-1.1623-1.3283-.41511-1.3283h17.18545c.7472 0-.4151.5811-.4151 1.3283s-.5812 1.3283-1.2453 1.3283z"/><path d="m12.5001 1.50269.7472 1.41136 1.5774.24907-1.1623 1.1623.2491 1.57741-1.4114-.7472-1.4943.7472.332-1.57741-1.1623-1.1623 1.5774-.24907z"/><path d="m21.3879 20.8406c-.8345 0-1.9819-1.1911-2.3992-1.477h-.4172c-.4173.2859-1.1475.9529-1.8776.9529-.8345 0-1.5049-.7935-1.8736-1.1338l-.4213-.4602c-.4172.2859-1.1474 1.594-1.8776 1.594-.8344 0-1.4603-1.3081-1.8776-1.594l-.4178.4602c-.39704.3686-1.14681 1.1338-1.87699 1.1338-.83448 0-1.46035-.667-1.87759-.9529h-.41724c-.41725.2859-1.56466 1.477-2.39915 1.477"/><path d="m12.4989 11.7984c-.4164 0-.7539.3376-.7539.754s.3375.754.7539.754c.4165 0 .754-.3376.754-.754s-.3375-.754-.754-.754z"/><path d="m12.4989 15.6753c-.4164 0-.7539.3375-.7539.7539 0 .4165.3375.754.7539.754.4165 0 .754-.3375.754-.754 0-.4164-.3375-.7539-.754-.7539z"/><path d="m15.1916 14.492c0-.4164-.3375-.754-.754-.754-.4164 0-.7539.3376-.7539.754s.3375.754.7539.754c.4165 0 .754-.3376.754-.754z"/><path d="m11.3148 14.492c0-.4164-.3376-.754-.754-.754s-.75398.3376-.75398.754.33758.754.75398.754.754-.3376.754-.754z"/></g><g fill="#18303f"><circle cx=".875" cy="7.24219" r=".5"/><circle cx="24.1289" cy="7.04785" r=".5"/><circle cx="16.7149" cy="17.7412" r=".5"/><circle cx="8.28516" cy="17.7412" r=".5"/></g></svg>