<svg fill="none" height="25" viewBox="0 0 25 25" width="25" xmlns="http://www.w3.org/2000/svg"><path clip-rule="evenodd" d="m14 6.5h-1v2.5c0 .67168.2495 1.2838.7378 1.7314l.0071.0067.0086.0083c.4636.4637 1.1392.7536 1.7465.7536h2.9933c.7284 0 1.5978.1944 2.2968.7446.7189.566 1.2032 1.4667 1.2032 2.7554v3.5h1.0067c.4136 0 .7972.1401 1.0786.4214.2813.2814.4214.665.4214 1.0786v3c0 .4136-.1401.7972-.4214 1.0786-.2814.2813-.665.4214-1.0786.4214h-3c-.4136 0-.7972-.1401-1.0786-.4214-.2813-.2814-.4214-.665-.4214-1.0786v-3c0-.4136.1401-.7972.4214-1.0786.2814-.2813.665-.4214 1.0786-.4214h.9933v-3.5c0-1.0113-.3657-1.6106-.8218-1.9696-.4761-.3748-1.1067-.5304-1.6782-.5304h-2.9933c-.8891 0-1.8098-.4068-2.446-1.0388-.0182-.0168-.0362-.0338-.054-.051v7.0898h1c.4136 0 .7972.1401 1.0786.4214.2813.2814.4214.665.4214 1.0786v3c0 .4136-.1401.7972-.4214 1.0786-.2814.2813-.665.4214-1.0786.4214h-3c-.4136 0-.7972-.1401-1.07855-.4214-.28139-.2814-.42145-.665-.42145-1.0786v-3c0-.4136.14006-.7972.42145-1.0786.28135-.2813.66495-.4214 1.07855-.4214h1v-7.0898c-.0178.0172-.0358.0342-.054.051-.6362.632-1.5569 1.0388-2.446 1.0388h-.00336-.00337-2.99327c-.57155 0-1.20216.1556-1.67822.5304-.45607.359-.82178.9583-.82178 1.9696v3.5h1c.41362 0 .79716.1401 1.07855.4214.28139.2814.42145.665.42145 1.0786v3c0 .4136-.14006.7972-.42145 1.0786-.28139.2813-.66493.4214-1.07855.4214h-3c-.41362 0-.79716-.1401-1.078553-.4214-.28139-.2814-.421447-.665-.421447-1.0786v-3c0-.4136.140057-.7972.421447-1.0786.281393-.2813.664933-.4214 1.078553-.4214h1v-3.5c0-1.2887.48429-2.1894 1.20322-2.7554.69894-.5502 1.56833-.7446 2.29678-.7446h2.99327.00337.00336c.6073 0 1.2829-.2899 1.7465-.7536l.0055-.0053.0102-.0097c.4883-.4476.7378-1.05972.7378-1.7314v-2.5h-1c-.4136 0-.7972-.14006-1.07855-.42145-.28139-.28139-.42145-.66493-.42145-1.07855v-3c0-.41362.14006-.79716.42145-1.078553.28135-.28139.66495-.421447 1.07855-.421447h3c.4136 0 .7972.140057 1.0786.421447.2813.281393.4214.664933.4214 1.078553v3c0 .41362-.1401.79716-.4214 1.07855-.2814.28139-.665.42145-1.0786.42145zm-3.3714-4.87145c-.0687.06861-.1286.18507-.1286.37145v3c0 .18638.0599.30284.1286.37145.0686.06861.185.12855.3714.12855h3c.1864 0 .3028-.05994.3714-.12855.0687-.06861.1286-.18507.1286-.37145v-3c0-.18638-.0599-.30284-.1286-.37145-.0686-.06861-.185-.12855-.3714-.12855h-3c-.1864 0-.3028.05994-.3714.12855zm9.3714 17.87145c-.1864 0-.3028.0599-.3714.1286-.0687.0686-.1286.185-.1286.3714v3c0 .1864.0599.3028.1286.3714.0686.0687.185.1286.3714.1286h3c.1864 0 .3028-.0599.3714-.1286.0687-.0686.1286-.185.1286-.3714v-3c0-.1864-.0599-.3028-.1286-.3714-.0686-.0687-.185-.1286-.3714-.1286zm-18 0h3c.18638 0 .30284.0599.37145.1286.06861.0686.12855.185.12855.3714v3c0 .1864-.05994.3028-.12855.3714-.06861.0687-.18507.1286-.37145.1286h-3c-.18638 0-.30284-.0599-.37145-.1286-.06861-.0686-.12855-.185-.12855-.3714v-3c0-.1864.05994-.3028.12855-.3714.06861-.0687.18507-.1286.37145-.1286zm9 0c-.1864 0-.3028.0599-.3714.1286-.0687.0686-.1286.185-.1286.3714v3c0 .1864.0599.3028.1286.3714.0686.0687.185.1286.3714.1286h3c.1864 0 .3028-.0599.3714-.1286.0687-.0686.1286-.185.1286-.3714v-3c0-.1864-.0599-.3028-.1286-.3714-.0686-.0687-.185-.1286-.3714-.1286z" fill="#18303f" fill-rule="evenodd"/></svg>