<svg fill="none" height="25" viewBox="0 0 25 25" width="25" xmlns="http://www.w3.org/2000/svg"><path d="m9.32554 8.82037h-.45392c-.06983 0-.11638.05687-.11638.11373v.44353c0 .30707.25605.55727.5703.55727.31424 0 .57029-.2502.57029-.55727 0-.30706-.25605-.55726-.57029-.55726z" fill="#f9470b"/><path d="m9.17423 3.19089c-.09311-.0796-.24441-.17059-.34916-.22745l-2.14153-1.12589c-.11638-.06824-.25605-.11373-.38407-.15922-.37244-.10236-.76816-.10236-1.1406 0-.13967.03412-.26769.09098-.38408.15922l-2.15317 1.12589c-.10474.05686-.24441.14785-.34916.22745-.45391.3753-.70996.92119-.70996 1.51257v3.26396c0 1.09178.90782 1.96748 2.0135 1.96748h3.75931c.31425 0 .5703-.2502.5703-.55727v-.44353c0-.06824-.05819-.11373-.11639-.11373h-4.21322c-.47719 0-.8729-.38667-.8729-.85295v-3.26396c0-.31843.17458-.60275.45391-.7506l2.21136-1.14864c.23277-.10235.47718-.10235.70996 0l2.21136 1.14864c.27933.14785.45391.43217.45391.7506v2.86592c0 .30706.25605.55726.5703.55726.31424 0 .5703-.2502.5703-.55726v-2.86592c.01163-.59138-.25606-1.13727-.70997-1.51257z" fill="#f9470b"/><g fill="#18303f"><path d="m13.1094 2.5537c0-.27614.2238-.5.5-.49999l3.5778.00008c2.047 0 3.625 1.57803 3.625 3.625v3.48155l.969-.96897c.1953-.19526.5118-.19526.7071 0s.1953.51184 0 .70711l-1.8213 1.82132c-.0867.0867-.1974.1349-.3108.1446-.0145.0012-.0292.0019-.044.0019-.1491 0-.283-.0653-.3746-.1689l-1.799-1.79892c-.1952-.19527-.1952-.51185 0-.70711.1953-.19526.5119-.19526.7071 0l.9665.96648v-3.47906c0-1.49469-1.1303-2.625-2.625-2.625l-3.5779-.00008c-.2761-.00001-.4999-.22387-.4999-.50001z"/><path clip-rule="evenodd" d="m17.1426 12.4707c-.4301 0-.8188.1633-1.0954.4711-.2724.3029-.4027.7074-.4027 1.1392v7.7717c0 .4318.1303.8363.4027 1.1392.2766.3078.6653.4711 1.0954.4711h3.9922c.4301 0 .8188-.1633 1.0954-.4711.2724-.3029.4027-.7074.4027-1.1392v-7.7717c0-.4318-.1303-.8363-.4027-1.1392-.2766-.3078-.6653-.4711-1.0954-.4711zm-.4981 1.6103c0-.2345.0694-.3851.1463-.4707.0727-.0808.1831-.1396.3518-.1396h.6857c.0631.3504.3696.6162.7381.6162h1.1508c.3686 0 .675-.2658.7381-.6162h.6795c.1687 0 .2791.0588.3518.1396.0769.0856.1463.2362.1463.4707v7.7717c0 .2344-.0694.3851-.1463.4707-.0727.0808-.1831.1396-.3518.1396h-3.9922c-.1687 0-.2791-.0588-.3518-.1396-.0769-.0856-.1463-.2363-.1463-.4707z" fill-rule="evenodd"/><path d="m5.06191 12.1178c-.0916-.1034-.22539-.1686-.37441-.1686h-.0013c-.13261 0-.25979.0527-.35356.1465l-1.82291 1.8229c-.19526.1952-.19526.5118 0 .7071s.51184.1953.7071 0l.97067-.9707v3.4817c0 2.047 1.57802 3.625 3.625 3.625h4.1667c.2761 0 .5-.2238.5-.5 0-.2761-.2239-.5-.5-.5h-4.1667c-1.49469 0-2.625-1.1303-2.625-2.625v-3.4791l.96806.9681c.19526.1953.51185.1953.70711 0s.19526-.5119 0-.7071z"/><path d="m11.9805 2.55371c0 .27614-.2239.5-.5.5-.2762 0-.5-.22386-.5-.5s.2238-.5.5-.5c.2761 0 .5.22386.5.5z"/><path d="m13.9609 20.7617c.2762 0 .5-.2238.5-.5 0-.2761-.2238-.5-.5-.5-.2761 0-.5.2239-.5.5 0 .2762.2239.5.5.5z"/></g></svg>