<svg fill="none" height="52" viewBox="0 0 51 52" width="51" xmlns="http://www.w3.org/2000/svg"><g stroke="#92a0a9" stroke-linecap="round" stroke-linejoin="round" stroke-width="2"><path d="m40.4527 19.6157 7.9762 5.5833v20.738c0 1.5953-1.3958 2.9911-2.9911 2.9911h-39.88082c-1.59523 0-2.99106-1.3958-2.99106-2.9911v-20.9374l7.97618-5.5833"/><path d="m8.55047 42.9454-.04827.0472m33.947-.0472-9.9702-7.9762h-13.9583l-7.1776 5.7421"/><path d="m48.4333 24.9983-11.9643 7.9762"/><path d="m2.56592 24.9983 11.96428 7.9762"/><path d="m40.4573 30.3848v-25.32435c0-1.19643-.7976-1.99404-1.9941-1.99404h-25.9225c-1.1965 0-1.9941.79761-1.9941 1.99404v25.32435"/><path d="m25.5001 20.472c1.8308 0 3.315-1.4841 3.315-3.315 0-1.8308-1.4842-3.315-3.315-3.315-1.8309 0-3.315 1.4842-3.315 3.315 0 1.8309 1.4841 3.315 3.315 3.315z"/><path d="m28.8136 17.1566v1.768c0 1.547 1.326 2.652 2.652 2.652 1.547 0 2.652-1.326 2.652-2.652v-1.326c.221-4.862-3.536-9.06095-8.398-9.28195s-9.061 3.75695-9.061 8.61895c-.221 4.199 2.652 7.956 6.851 8.84 1.547.442 2.873.221 4.42 0"/></g></svg>