<svg fill="none" height="25" viewBox="0 0 25 25" width="25" xmlns="http://www.w3.org/2000/svg"><path clip-rule="evenodd" d="m.5 7c0-3.58985 2.91015-6.5 6.5-6.5h11c3.5899 0 6.5 2.91015 6.5 6.5v11c0 3.5899-2.9101 6.5-6.5 6.5h-11c-3.58985 0-6.5-2.9101-6.5-6.5zm6.5-5.5c-3.03757 0-5.5 2.46243-5.5 5.5v11c0 3.0376 2.46243 5.5 5.5 5.5h11c3.0376 0 5.5-2.4624 5.5-5.5v-11c0-3.03757-2.4624-5.5-5.5-5.5zm5 7v6.5c0 .2761.2239.5.5.5s.5-.2239.5-.5v-6.5h.5c.4136 0 .7972-.14006 1.0786-.42145.2813-.28139.4214-.66493.4214-1.07855s-.1401-.79716-.4214-1.07855c-.2814-.28139-.665-.42145-1.0786-.42145h-.5v-1.5c0-.27614-.2239-.5-.5-.5s-.5.22386-.5.5v1.5h-.5c-.4136 0-.7972.14006-1.0786.42145-.2813.28139-.4214.66493-.4214 1.07855s.1401.79716.4214 1.07855c.2814.28139.665.42145 1.0786.42145zm1.5-1c.1864 0 .3028-.05994.3714-.12855.0687-.06861.1286-.18507.1286-.37145s-.0599-.30284-.1286-.37145c-.0686-.06861-.185-.12855-.3714-.12855h-1-1c-.1864 0-.3028.05994-.3714.12855-.0687.06861-.1286.18507-.1286.37145s.0599.30284.1286.37145c.0686.06861.185.12855.3714.12855h1zm5 7.5v-1.5h-.5c-.7431 0-1.5-.5919-1.5-1.5 0-.4136.1401-.7972.4214-1.0786.2814-.2813.665-.4214 1.0786-.4214h.5v-6.5c0-.27614.2239-.5.5-.5s.5.22386.5.5v6.5h.5c.4136 0 .7972.1401 1.0786.4214.2813.2814.4214.665.4214 1.0786s-.1401.7972-.4214 1.0786c-.2814.2813-.665.4214-1.0786.4214h-.5v1.5c0 .2761-.2239.5-.5.5s-.5-.2239-.5-.5zm1.8714-2.6286c-.0686.0687-.185.1286-.3714.1286h-1-1c-.2569 0-.5-.2081-.5-.5 0-.1864.0599-.3028.1286-.3714.0686-.0687.185-.1286.3714-.1286h1 1c.1864 0 .3028.0599.3714.1286.0687.0686.1286.185.1286.3714s-.0599.3028-.1286.3714zm-14.3714-8.8714c.27614 0 .5.22386.5.5v4.5h.5c.41362 0 .79716.14006 1.07855.42145s.42145.66493.42145 1.07855c0 .4136-.14006.7972-.42145 1.0786-.28139.2813-.66493.4214-1.07855.4214h-.5v3.5c0 .2761-.22386.5-.5.5s-.5-.2239-.5-.5v-3.5h-.5c-.41362 0-.79716-.1401-1.07855-.4214-.28139-.2814-.42145-.665-.42145-1.0786 0-.41362.14006-.79716.42145-1.07855s.66493-.42145 1.07855-.42145h.5v-4.5c0-.27614.22386-.5.5-.5zm1.37145 6.8714c-.06861.0687-.18507.1286-.37145.1286h-1-1c-.18638 0-.30284-.0599-.37145-.1286-.06861-.0686-.12855-.185-.12855-.3714 0-.18638.05994-.30284.12855-.37145s.18507-.12855.37145-.12855h1 1c.18638 0 .30284.05994.37145.12855s.12855.18507.12855.37145c0 .1864-.05994.3028-.12855.3714zm11.62855 7.1286c-1.0761 0-2 .9239-2 2s.9239 2 2 2 2-.9239 2-2-.9239-2-2-2zm-1 2c0-.5239.4761-1 1-1s1 .4761 1 1-.4761 1-1 1-1-.4761-1-1zm-7.5 0c0-1.0761.9239-2 2-2s2 .9239 2 2-.9239 2-2 2-2-.9239-2-2zm2-1c-.5239 0-1 .4761-1 1s.4761 1 1 1 1-.4761 1-1-.4761-1-1-1zm-6.5-1c-1.07614 0-2 .9239-2 2s.92386 2 2 2 2-.9239 2-2-.92386-2-2-2zm-1 2c0-.5239.47614-1 1-1s1 .4761 1 1-.47614 1-1 1-1-.4761-1-1z" fill="#18303f" fill-rule="evenodd"/></svg>