<svg fill="none" height="56" viewBox="0 0 56 56" width="56" xmlns="http://www.w3.org/2000/svg"><path d="m28.0002 46.6667c-15.4303 0-28.0002-3.7311-28.0002-8.2614 0-4.5306 11.443-26.7386 26.9598-26.7386 15.5173 0 29.0402 22.2075 29.0402 26.7386 0 4.5303-12.5691 8.2614-27.9998 8.2614zm0-2.391c14.0054 0 25.6665-3.4471 25.6665-5.8704 0-.6115-.7542-2.5737-2.05-4.9067-1.5526-2.7955-3.6726-5.8257-6.0598-8.5709-5.8921-6.7758-12.453-10.8698-18.597-10.8698-6.0926 0-12.187 4.0309-17.48032 10.7774-4.01105 5.1122-7.14626 11.594-7.14626 13.57 0 2.4232 11.66168 5.8704 25.66688 5.8704zm11.6158-15.7304c1.2138 0 .6071-.8882.1739-1.4217-.1707-.1804-.5496-.5581-1.1366-1.1329-5.0836-4.7623-10.1832-5.4825-15.508-3.663-5.5477 1.8647-10.7493 9.1492-9.8821 10.1265 1.1269 1.2439 8.0616 6.5733 16.124 6.2176 5.981-.1778 8.6691-3.1094 9.8829-5.1519.1607-.2932.4209-.4956.7267-.6223 1.3139-.4434 2.3997.1991 2.48.4513.1536.1962.147.3699 0 .6149-2.0802 3.1094-7.0217 6.6619-11.6165 7.1066-5.6347.5322-10.6628-1.5994-13.3501-2.6655-2.5134-.9773-7.4545-3.1977-8.49518-3.8194-2.08062-1.2439.69367-3.5534 3.12088-6.6628 4.0743-5.0628 9.102-8.261 14.8237-8.7049 4.4209-.3556 8.7556 1.5987 11.443 3.6421 1.8205 1.4212 3.2067 3.2868 4.1616 5.3293.0866.1779 1.9059.3557 2.4269.5335.5205.1778 1.5604.3556 1.5604.7104 0 .6217-.0869 1.1551-.2601 1.8656-.1337.2728-1.7464-.0297-2.7642-.2257-1.2842-.2444-2.2752-.3961-3.7449-.6174-1.8889-.2506-3.8013-.4004-5.7141-.4004-3.9881 0-9.709.7113-10.0561.6217-2.5138-.6217 3.034-1.8655 7.9755-2.4872 2.2382-.2668 4.1951-.1169 5.6079.0647 1.1313.1739 1.8048.2709 2.0205.2909z" fill="#18303f"/></svg>