<svg fill="none" height="15" viewBox="0 0 15 15" width="15" xmlns="http://www.w3.org/2000/svg"><path clip-rule="evenodd" d="m8.64905 2.67938c-.6346-.6346-1.6635-.6346-2.2981 0l-3.67157 3.67157c-.6346.63461-.6346 1.6635 0 2.2981l3.67157 3.67155c.6346.6346 1.6635.6346 2.2981 0l3.67155-3.67155c.6346-.6346.6346-1.66349 0-2.2981zm-2.82843-.53033c.92749-.92749 2.43126-.92749 3.35876 0l3.67152 3.67157c.9275.9275.9275 2.43127 0 3.35876l-3.67152 3.67162c-.9275.9275-2.43127.9274-3.35876 0l-3.67157-3.67162c-.9275-.92749-.9275-2.43126 0-3.35876zm1.67938 2.47595c.20711 0 .375.1679.375.375v3c0 .20711-.16789.375-.375.375s-.375-.16789-.375-.375v-3c0-.2071.16789-.375.375-.375zm0 5c.20711 0 .375.1679.375.375v.1c0 .2071-.16789.375-.375.375s-.375-.1679-.375-.375v-.1c0-.2071.16789-.375.375-.375z" fill="#c70546" fill-rule="evenodd"/></svg>