<svg fill="none" height="16" viewBox="0 0 15 16" width="15" xmlns="http://www.w3.org/2000/svg"><g fill="#02a8f1"><path d="m2.50628 3.00628c.1641-.16409.38666-.25628.61872-.25628h3.125c.20711 0 .375-.16789.375-.375s-.16789-.375-.375-.375h-3.125c-.43098 0-.8443.1712-1.14905.47595s-.47595.71807-.47595 1.14905v8.75c0 .431.1712.8443.47595 1.149.30475.3048.71807.476 1.14905.476h8.75c.431 0 .8443-.1712 1.149-.476.3048-.3047.476-.718.476-1.149v-3.125c0-.20711-.1679-.375-.375-.375s-.375.16789-.375.375v3.125c0 .2321-.0922.4546-.2563.6187s-.3866.2563-.6187.2563h-8.75c-.23206 0-.45462-.0922-.61872-.2563-.16409-.1641-.25628-.3866-.25628-.6187v-8.75c0-.23206.09219-.45462.25628-.61872z"/><path d="m9.625 2.375c0-.20711.16789-.375.375-.375h3.125c.0508 0 .0993.01012.1435.02845.0443.0183.0857.04543.1217.08138.0732.07323.1098.1692.1098.26517v3.125c0 .20711-.1679.375-.375.375s-.375-.16789-.375-.375v-2.21967l-4.04734 4.04733c-.14644.14645-.38388.14645-.53032 0-.14645-.14644-.14645-.38388 0-.53032l4.04736-4.04734h-2.2197c-.20711 0-.375-.16789-.375-.375z"/></g></svg>