<svg fill="none" height="26" viewBox="0 0 26 26" width="26" xmlns="http://www.w3.org/2000/svg"><g fill="#18303f"><path d="m13.1895 19.6289c.1953.1953.1953.5119 0 .7071l-.7186.7187.7617.7618c.1953.1952.1953.5118 0 .7071-.1952.1952-.5118.1952-.7071 0l-.7618-.7618-.7618.7619c-.1953.1952-.5119.1952-.7071 0-.1953-.1953-.1953-.5119 0-.7071l.7618-.7619-.7187-.7187c-.1952-.1953-.1952-.5119 0-.7071.1953-.1953.5119-.1953.7071 0l.7187.7187.7187-.7187c.1952-.1952.5118-.1952.7071 0z"/><path d="m18.1895 19.6289c.1953.1953.1953.5119 0 .7071l-.7186.7187.7617.7618c.1953.1952.1953.5118 0 .7071-.1952.1952-.5118.1952-.7071 0l-.7618-.7618-.7618.7619c-.1953.1952-.5119.1952-.7071 0-.1953-.1953-.1953-.5119 0-.7071l.7618-.7619-.7187-.7187c-.1952-.1953-.1952-.5119 0-.7071.1953-.1953.5119-.1953.7071 0l.7187.7187.7187-.7187c.1952-.1952.5118-.1952.7071 0z"/><path d="m19.5312 22.1602c0-.2762.2239-.5.5-.5h2.4512c.2762 0 .5.2238.5.5 0 .2761-.2238.5-.5.5h-2.4512c-.2761 0-.5-.2239-.5-.5z"/><path d="m10.5 9.96504c0-.27614-.2239-.5-.5-.5-.27614 0-.5.22386-.5.5 0 .27616.22386.49996.5.49996.2761 0 .5-.2238.5-.49996z"/><path clip-rule="evenodd" d="m9.45122 24.5656h-6.75044c-.77614 0-1.4-.6238-1.4-1.4 0-.8406.58961-1.5 1.4-1.5h.49844v-2.7004c0-1.6457.76191-3.3864 1.9677-4.7115.65375-.7184 1.4514-1.329 2.35-1.7383-.8986-.4093-1.69625-1.0198-2.35-1.7383-1.17046-1.28617-1.92267-2.96411-1.96575-4.56656-.00129-.01467-.00195-.02952-.00195-.04452 0-.00793.00018-.01582.00055-.02366-.00037-.0256-.00055-.05118-.00055-.07673v-2.79981h-.49844c-.77614 0-1.4-.62386-1.4-1.4s.62386-1.4 1.4-1.4h14.60002c.7761 0 1.4.62386 1.4 1.4s-.6239 1.4-1.4 1.4h-.5016v2.79981c0 .02555-.0002.05113-.0005.07673.0003.00784.0005.01573.0005.02366 0 .015-.0006.02985-.0019.04452-.0431 1.60245-.7953 3.28039-1.9658 4.56656-.6536.7183-1.451 1.3287-2.3494 1.7381 1.4974.6823 2.7171 1.9264 3.4675 3.3133.1314.2428.0411.5462-.2018.6777-.2428.1314-.5463.041-.6777-.2018-.8958-1.6556-2.4999-3.0004-4.3501-3.284-.2363.0298-.4768.0452-.72078.0452-.24423 0-.48489-.0155-.72144-.0453-1.29531.1983-2.47009.9162-3.37126 1.9065-1.06921 1.1749-1.7073 2.6841-1.7073 4.0384v2.7h2.30078c.00668 0 .01333.0002.01995.0004h1.48005v-2.5992c0-.8284.67157-1.5 1.5-1.5h14c.8284 0 1.5.6716 1.5 1.5v4c0 .8284-.6716 1.5-1.5 1.5h-14c-.01632 0-.03258-.0003-.04878-.0008zm-6.75044-1c-.22386 0-.4-.1761-.4-.4 0-.3594.21039-.5.4-.5h5.29922v.4008c0 .175.02998.3431.08508.4992zm6.82735.0008c-.00931-.0005-.01869-.0008-.02813-.0008h-.02813c-.26306-.0146-.47187-.2325-.47187-.4992v-4c0-.2761.22386-.5.5-.5h14c.2761 0 .5.2239.5.5v4c0 .2761-.2239.5-.5.5zm-5.32891-20.20077v2.30039h2.1c.61135 0 1.23847.23785 1.64345.63642l.98828.88945c.6248.54478 1.42255.51269 1.91475.02057.0062-.00619.0125-.01223.019-.01809l1-.9c.0111-.00996.0226-.01942.0345-.02835.4439-.33291.9485-.6 1.6-.6h2.3v-2.30039zm9.29998 3.30039h2.26c-.1551 1.18665-.7539 2.43434-1.6673 3.43808-.9011.9902-2.0757 1.708-3.3708 1.9064-.0735-.0093-.1473-.0171-.2216-.0236l.0004-.0128.0001-.0091c0-.2761-.2239-.5-.5-.5-.27614 0-.5.2239-.5.5 0 .0073.00016.0146.00047.0218-.07462.0065-.14885.0144-.22269.0237-1.29531-.1982-2.47009-.9161-3.37126-1.9064-.91341-1.00374-1.51218-2.25143-1.66729-3.43808h2.05999c.38354 0 .75105.15815.94645.35355.00619.0062.01255.01223.01907.01809l1.00519.90468c.97131.8499 2.36547.88422 3.27297-.01297l.9737-.87633c.3484-.25842.6398-.38702.9826-.38702zm-11.19842-4.8002c0 .22386.17614.4.4.4h14.60002c.2238 0 .4-.17614.4-.4s-.1762-.4-.4-.4h-14.60002c-.22386 0-.4.17614-.4.4z" fill-rule="evenodd"/><path d="m10 13.465c.2761 0 .5.2239.5.5 0 .2762-.2239.5-.5.5-.27614 0-.5-.2238-.5-.5 0-.2761.22386-.5.5-.5z"/><path d="m10.5 15.965c0-.2761-.2239-.5-.5-.5-.27614 0-.5.2239-.5.5 0 .2762.22386.5.5.5.2761 0 .5-.2238.5-.5z"/></g></svg>