<svg fill="none" height="21" viewBox="0 0 21 21" width="21" xmlns="http://www.w3.org/2000/svg"><g fill="#f94409"><path d="m19.1313 18.1962h-1.0894c-.1676 0-.2793.1365-.2793.273v1.0645c0 .7369.6145 1.3374 1.3687 1.3374s1.3687-.6005 1.3687-1.3374c0-.737-.6145-1.3375-1.3687-1.3375z"/><path d="m18.7682 4.68549c-.2235-.19106-.5866-.40941-.838-.54589l-5.1397-2.70215c-.2793-.16376-.6145-.27294-.9218-.38212-.8938-.245649-1.8436-.245649-2.73741 0-.3352.08188-.64246.21836-.92179.38212l-5.1676 2.70215c-.2514.13648-.58659.35483-.83799.54589-1.08938.90072-1.70391 2.21085-1.70391 3.63016v7.83355c0 2.6202 2.17877 4.7219 4.8324 4.7219h9.0223c.7542 0 1.3688-.6005 1.3688-1.3374v-1.0645c0-.1638-.1397-.273-.2794-.273h-10.1117c-1.14525 0-2.09497-.928-2.09497-2.047v-7.83355c0-.76424.41899-1.4466 1.08939-1.80143l5.30726-2.75674c.55862-.24565 1.14522-.24565 1.70392 0l5.3073 2.75674c.6703.35483 1.0893 1.03719 1.0893 1.80143v6.87825c0 .7369.6146 1.3374 1.3688 1.3374.7541 0 1.3687-.6005 1.3687-1.3374v-6.87825c.0279-1.41931-.6146-2.72944-1.7039-3.63016z"/></g></svg>