<svg fill="none" height="25" viewBox="0 0 25 25" width="25" xmlns="http://www.w3.org/2000/svg"><g fill="#18303f"><path clip-rule="evenodd" d="m19.7561.719239c-1.3296.567991-2.9634 1.565251-4.7503 2.884851-3.612-1.58529-8.00626-.33041-10.28053 3.03156-1.63229 2.41294-1.77099 5.40445-.68305 7.91795-1.3316 1.7543-2.33644 3.3991-2.90751 4.749-.297302.7027-.488905 1.3528-.534254 1.9121-.044654.5507.04719 1.1075.437304 1.4976.58135.5814 1.48394.5446 2.35666.2991.91337-.2569 2.01296-.8003 3.22191-1.5534 2.42539-1.5109 5.39817-3.9341 8.38387-6.8674 2.9899-2.9375 5.4155-5.9129 6.9148-8.35421.7474-1.21707 1.2807-2.3271 1.5288-3.24921.2371-.88114.2633-1.78699-.3153-2.365597-.3885-.388502-.937-.482336-1.4837-.437245-.5523.045553-1.1933.237854-1.8887.534901zm-4.8072 4.010351c-.0852-.01714-.1663-.05553-.2347-.11391-3.1694-1.46521-7.10075-.39042-9.12614 2.60363-2.22818 3.29379-1.26517 7.86889 2.04793 10.11009.23826.1612.30075.485.13957.7232-.16117.2383-.48497.3008-.72322.1396-1.03196-.6981-1.86539-1.5959-2.4791-2.6096-1.1483 1.5579-1.99448 2.9801-2.47919 4.1258-.27562.6515-.42256 1.1862-.45533 1.5905-.03348.4128.05697.5982.13561.6769.14782.1478.52127.2626 1.338.0329.77609-.2183 1.77935-.7036 2.95322-1.4349 2.34024-1.4578 5.25295-3.8263 8.20465-6.7263 2.9476-2.8959 5.3137-5.80588 6.7571-8.15624.7239-1.17876 1.1998-2.19112 1.4106-2.97475.2219-.82459.1046-1.20779-.046-1.35836-.0802-.08025-.2609-.1687-.6615-.13567-.3949.03257-.9193.17881-1.5651.45468-1.1309.48311-2.546 1.32509-4.1342 2.46844.0837.05225.1668.10623.2492.16195.9894.65982 1.7738 1.43974 2.3389 2.34389.1524.24392.0783.56525-.1657.71771-.2439.15245-.5652.0783-.7177-.16563-.4763-.76209-1.1497-1.44019-2.0347-2.03018l-.0029-.00196c-.2433-.16456-.4935-.3117-.7493-.44179z" fill-rule="evenodd"/><path d="m2.34375.365074c.28765 0 .52083.233185.52083.520833v1.041663h1.04167c.28765 0 .52083.23319.52083.52084s-.23318.52083-.52083.52083h-1.04167v1.14583c0 .28765-.23318.52084-.52083.52084s-.52083-.23319-.52083-.52084v-1.14583h-1.04167c-.287648 0-.520833-.23318-.520833-.52083s.233185-.52084.520833-.52084h1.04167v-1.041663c0-.287648.23318-.520833.52083-.520833z"/><path clip-rule="evenodd" d="m21.6146 18.0734c0-.2876-.2332-.5208-.5208-.5208-.2877 0-.5209.2332-.5209.5208 0 1.4832-1.121 2.6042-2.6041 2.6042-.2877 0-.5209.2332-.5209.5208 0 .2877.2332.5208.5209.5208 1.4831 0 2.6041 1.121 2.6041 2.6042 0 .2877.2332.5208.5209.5208.2876 0 .5208-.2331.5208-.5208 0-1.4832 1.121-2.6042 2.6042-2.6042.2876 0 .5208-.2331.5208-.5208 0-.2876-.2332-.5208-.5208-.5208-1.4832 0-2.6042-1.121-2.6042-2.6042zm.6879 3.125c-.4963.2984-.9103.7124-1.2087 1.2088-.2985-.4964-.7125-.9104-1.2088-1.2088.4963-.2984.9103-.7124 1.2088-1.2088.2984.4964.7124.9104 1.2087 1.2088z" fill-rule="evenodd"/><path d="m20.0521 11.3026c0-.2877-.2332-.5209-.5208-.5209-.2877 0-.5209.2332-.5209.5209 0 3.9832-3.3085 7.2916-7.2916 7.2916-.2877 0-.5209.2332-.5209.5209 0 .2876.2332.5208.5209.5208 4.5584 0 8.3333-3.7748 8.3333-8.3333z"/></g></svg>