<svg fill="none" height="12" viewBox="0 0 12 12" width="12" xmlns="http://www.w3.org/2000/svg"><g clip-rule="evenodd" fill="#03a9f1" fill-rule="evenodd"><path d="m2.3036 4.88452c.27614 0 .5.22386.5.5v1.3199c0 1.54803 1.25185 2.7686 2.97216 2.7686.27614 0 .5.22385.5.5 0 .27618-.22386.49998-.5.49998-2.21481 0-3.97216-1.6122-3.97216-3.76858v-1.3199c0-.27614.22385-.5.5-.5z"/><path d="m1.95077 5.03092c.19526-.19526.51184-.19526.7071 0l.90589.90588c.19526.19526.19526.51185 0 .70711s-.51185.19526-.70711 0l-.55233-.55233-.55233.55233c-.19526.19526-.51184.19526-.70711 0-.195258-.19526-.195258-.51185 0-.70711z"/><path d="m9.69244 7.11486c-.27614 0-.5-.22386-.5-.5v-1.3199c0-1.54803-1.25185-2.76859-2.97216-2.76859-.27614 0-.5-.22386-.5-.5s.22386-.5.5-.5c2.21481 0 3.97212 1.61222 3.97212 3.76859v1.3199c0 .27614-.22381.5-.49996.5z"/><path d="m10.0453 6.96849c-.19524.19526-.51182.19526-.70708 0l-.90588-.90589c-.19527-.19526-.19527-.51184 0-.7071.19526-.19527.51184-.19527.7071 0l.55233.55233.55233-.55233c.1953-.19526.5118-.19526.7071 0s.1953.51184 0 .7071z"/></g></svg>