<svg fill="none" height="35" viewBox="0 0 35 35" width="35" xmlns="http://www.w3.org/2000/svg"><g fill="#c4c4c4"><path d="m10.0846 20.5037c-2.89634-2.8837-2.89634-7.5591 0-10.4427 2.8963-2.88372 7.5921-2.88372 10.4884 0 2.5513 2.5401 2.8556 6.4715.9113 9.3428-.1184.1749-.1107.3976.0024.5615.0207.0347.046.0675.0759.0974l4.6482 4.6479c.3893.3893.3886 1.0189-.0015 1.4073-.3908.389-1.0243.389-1.415 0l-4.595-4.575c-.1957-.1948-.513-.1948-.7087 0s-.1957.5107 0 .7056l4.5951 4.575c.7821.7787 2.0501.7787 2.8322 0 .7809-.7775.7823-2.0377.0031-2.8169l-4.3865-4.3863c1.9613-3.2242 1.5442-7.4801-1.2528-10.2649-3.2877-3.27335-8.6181-3.27335-11.90578 0-3.28769 3.2733-3.28769 8.5805 0 11.8538 2.11338 2.1042 5.07098 2.8552 7.78548 2.2551.3494-.0773.6948-.1769 1.0341-.299.2603-.0936.395-.3796.301-.6387-.0941-.2592-.3813-.3933-.6416-.2997-.2987.1075-.603.1952-.9108.2633-2.3942.5293-4.9984-.1335-6.8595-1.9865z"/><path d="m11.7931 11.763c-1.95223 1.9437-1.95223 5.095 0 7.0387 1.8953 1.887 4.9343 1.942 6.8959.1648.2047-.1854.5216-.1705.7079.0333.1862.2038.1713.5193-.0334.7048-2.3556 2.134-6.0036 2.0682-8.2791-.1974-2.34355-2.3333-2.34355-6.1164 0-8.4498 2.3436-2.33334 6.1433-2.33334 8.4868 0 1.5961 1.5891 2.1045 3.8503 1.5278 5.8666-.0758.265-.353.4186-.6192.3431-.2661-.0754-.4205-.3515-.3447-.6165.4812-1.6821.0562-3.5647-1.2725-4.8876-1.9522-1.94371-5.1173-1.94371-7.0695 0z"/><path d="m20.0106 18.6583c.2761 0 .5-.2239.5-.5 0-.2762-.2239-.5-.5-.5s-.5.2238-.5.5c0 .2761.2239.5.5.5z"/></g></svg>