<svg fill="none" height="26" viewBox="0 0 25 26" width="25" xmlns="http://www.w3.org/2000/svg"><g clip-rule="evenodd" fill="#18303f" fill-rule="evenodd"><path d="m12.4989 4.96777c-3.3814 0-6.18323 2.62272-6.4063 5.99683l-.47989 7.2588c-.05722.8655.62937 1.599 1.49673 1.599h2.96026c.1505 1.2096 1.1822 2.1457 2.4325 2.1457 1.2504 0 2.2821-.9361 2.4326-2.1457h2.9536c.8674 0 1.554-.7335 1.4967-1.599l-.4798-7.2588c-.2231-3.37411-3.0249-5.99683-6.4064-5.99683zm1.4225 14.85463h-2.8384c.1405.6548.7225 1.1457 1.4192 1.1457s1.2788-.4909 1.4192-1.1457zm-6.83098-8.7919c.18833-2.84851 2.55376-5.06273 5.40848-5.06273 2.8548 0 5.2202 2.21422 5.4085 5.06273l.4799 7.2589c.0191.2885-.2098.533-.4989.533h-10.77896c-.28912 0-.51798-.2445-.49891-.533z"/><path d="m22.998 1.82906c.1952-.19526.5118-.19526.7071 0 .1952.19527.1952.51185 0 .70711l-10.2929 10.29283 10.9973 10.9973c.1953.1953.1953.5119 0 .7071-.1952.1953-.5118.1953-.7071 0l-10.9973-10.9973-10.9973 10.9973c-.19526.1953-.51184.1953-.70711 0-.195258-.1952-.195257-.5118 0-.7071l10.99731-10.9973-10.29285-10.29283c-.19526-.19526-.19526-.51184 0-.70711.19526-.19526.51184-.19526.70711 0l10.29284 10.29284z"/></g></svg>