<svg fill="none" height="7" viewBox="0 0 7 7" width="7" xmlns="http://www.w3.org/2000/svg"><g clip-rule="evenodd" fill="#f18303" fill-rule="evenodd"><path d="m6.35349.646332c.19525.195273.19525.511868 0 .707148l-4.99946 5c-.19526.19527-.511821.19527-.707073 0-.195251-.19528-.195252-.51188 0-.70715l4.999463-4.999998c.19526-.195272.51182-.195272.70707 0z"/><path d="m.646424.646332c.195251-.195272.511816-.195272.707066 0l4.99947 4.999998c.19525.19527.19525.51187 0 .70715-.19525.19527-.51182.19527-.70707 0l-4.999466-5c-.195252-.19528-.195252-.511875 0-.707148z"/></g></svg>