<svg fill="none" height="21" viewBox="0 0 21 21" width="21" xmlns="http://www.w3.org/2000/svg"><g clip-rule="evenodd" fill="#18303f" fill-rule="evenodd"><path d="m.5 3.5c0-1.65685 1.34315-3 3-3h3c1.65685 0 3 1.34315 3 3v3c0 1.65685-1.34315 3-3 3h-3c-1.65685 0-3-1.34315-3-3zm3-2h3c1.10457 0 2 .89543 2 2v3c0 1.10457-.89543 2-2 2h-3c-1.10457 0-2-.89543-2-2v-3c0-1.10457.89543-2 2-2z"/><path d="m11.5 3.5c0-1.65685 1.3431-3 3-3h3c1.6569 0 3 1.34315 3 3v3c0 1.65685-1.3431 3-3 3h-3c-1.6569 0-3-1.34315-3-3zm3-2h3c1.1046 0 2 .89543 2 2v3c0 1.10457-.8954 2-2 2h-3c-1.1046 0-2-.89543-2-2v-3c0-1.10457.8954-2 2-2z"/><path d="m3.5 11.5c-1.65685 0-3 1.3431-3 3v3c0 1.6569 1.34315 3 3 3h3c1.65685 0 3-1.3431 3-3v-3c0-1.6569-1.34315-3-3-3zm3 1h-3c-1.10457 0-2 .8954-2 2v3c0 1.1046.89543 2 2 2h3c1.10457 0 2-.8954 2-2v-3c0-1.1046-.89543-2-2-2z"/><path d="m11.5 14.5c0-1.6569 1.3431-3 3-3h3c1.6569 0 3 1.3431 3 3v3c0 1.6569-1.3431 3-3 3h-3c-1.6569 0-3-1.3431-3-3zm3-2h3c1.1046 0 2 .8954 2 2v3c0 1.1046-.8954 2-2 2h-3c-1.1046 0-2-.8954-2-2v-3c0-1.1046.8954-2 2-2z"/></g></svg>