<svg fill="none" height="25" viewBox="0 0 25 25" width="25" xmlns="http://www.w3.org/2000/svg"><path d="m7.05476 8.16168c0-.09744-.09745-.19488-.29235-.19488-.09745 0-.1949.09744-.29234.19488-1.07193 1.85142-4.87241 8.18522-4.87241 10.62132 0 2.8258 2.33875 5.1645 5.16475 5.1645s5.16479-2.3387 5.16479-5.1645c.0974-2.4361-3.70307-8.86734-4.87244-10.62132z" stroke="#92a0a9" stroke-linecap="round" stroke-linejoin="round"/><path d="m18.6446 1.24469c-.0974-.09744-.1949-.19489-.2923-.19489-.0975 0-.1949.09745-.2924.19489-1.0719 1.85142-4.8724 8.18523-4.8724 10.62131 0 2.8258 2.3388 5.1645 5.1648 5.1645s5.1647-2.3387 5.1647-5.1645c0-2.43608-3.8005-8.86733-4.8724-10.62131z" stroke="#92a0a9" stroke-linecap="round" stroke-linejoin="round"/><g fill="#92a0a9"><circle cx="18.3516" cy="14.8867" r=".5"/><circle cx="16.8477" cy="14.3867" r=".5"/><circle cx="6.6875" cy="21.8945" r=".5"/><circle cx="5.18359" cy="21.3945" r=".5"/></g></svg>