<svg fill="none" height="25" viewBox="0 0 25 25" width="25" xmlns="http://www.w3.org/2000/svg"><g fill="#18303f"><path d="m12.5 10.9077c-2.3222 0-4.55243.9078-6.2145 2.5296-.29646.2893-.7713.2835-1.06058-.013-.28927-.2965-.28345-.7713.01301-1.0606 1.94225-1.8952 4.5484-2.95599 7.26207-2.95599 2.7137 0 5.3198 1.06079 7.2621 2.95599.2964.2893.3023.7641.013 1.0606s-.7641.3023-1.0606.013c-1.6621-1.6218-3.8923-2.5296-6.2145-2.5296z"/><path d="m12.5 15.5924c-1.0841 0-2.1262.4191-2.9085 1.1696-.2989.2868-.77367.2769-1.06044-.022-.28676-.2989-.27692-.7736.02198-1.0604 1.06159-1.0185 2.47576-1.5872 3.94696-1.5872s2.8854.5687 3.947 1.5872c.2989.2868.3087.7615.0219 1.0604-.2867.2989-.7615.3088-1.0604.022-.7823-.7505-1.8244-1.1696-2.9085-1.1696z"/><path d="m13.2812 19.5314c0 .4314-.3497.7812-.7812.7812s-.7812-.3498-.7812-.7812c0-.4315.3497-.7813.7812-.7813s.7812.3498.7812.7813z"/></g><path clip-rule="evenodd" d="m12.5 6.22046c-3.56362 0-6.98415 1.40218-9.5224 3.90354-.29503.2907-.76989.2872-1.06063-.0078-.29074-.29502-.28726-.76988.00777-1.06062 2.81889-2.77791 6.61762-4.33512 10.57526-4.33512 3.9576 0 7.7564 1.55721 10.5753 4.33512.295.29074.2985.7656.0077 1.06062-.2907.295-.7656.2985-1.0606.0078-2.5383-2.50136-5.9588-3.90354-9.5224-3.90354z" fill="#9ca8ad" fill-rule="evenodd"/></svg>