<svg fill="none" height="26" viewBox="0 0 25 26" width="25" xmlns="http://www.w3.org/2000/svg"><g fill="#18303f"><path d="m4.5753 4.11c-.18168.15291-.35578.32765-.5753.5388.18167 0 .29522.00728.40119 0 3.59561-.41502 7.20631-.62617 10.82461-.40774 1.0901.06553 2.1953.1165 3.2096.57521 1.09.49511 1.794 1.27419 1.9227 2.46101.0151.16746-.0606.38589-.1817.50967-3.5199 3.49495-7.0474 6.97525-10.57483 10.45565-.28765.284-.56016.5679-.8478.8519.00756.0364.0227.0801.03027.1165 1.60476.0145 3.21716.0437 4.82186.0364 2.7478-.0219 5.4805-.2985 8.2056-.648.2725-.0364.4239-.1457.5526-.3568 1.3549-2.2207 1.8621-4.6089 1.5442-7.1646-.5677-4.55796-4.0347-8.34412-8.6446-9.45813-.6434-.1529-1.302-.24756-1.953-.37133-.6283 0-1.2641 0-1.8924 0-.0984.02184-.1892.06552-.2877.07281-2.49795.24755-4.67802 1.19409-6.5553 2.78865z"/><path d="m8.65394 20.6725c-.81913-.0751-1.63827-.1951-2.38361-.5929-.98886-.5253-1.62351-1.3207-1.7342-2.4764-.01476-.1576.05904-.3753.16973-.4953 2.97398-3.1219 5.96274-6.2362 8.94404-9.35056.738-.76545 1.4686-1.53841 2.2803-2.38641-1.0774-.04502-2.0441-.11256-3.0109-.12007-3.17318-.03002-6.33164.23264-9.47535.6679-.18449.02251-.41326.1801-.51657.3377-1.70469 2.63405-2.317193 5.52324-1.68255 8.61514.89293 4.3375 3.43151 7.3468 7.5567 8.7276 4.17687 1.4034 7.99947.5103 11.31287-2.4689.2952-.2627.5535-.5629.8856-.9081-.8044.0901-1.5054.1651-2.1991.2402-3.3725.3602-6.7597.5103-10.14696.2101z"/></g></svg>