<svg fill="none" height="25" viewBox="0 0 26 25" width="26" xmlns="http://www.w3.org/2000/svg"><g stroke="#18303f" stroke-linecap="round" stroke-linejoin="round"><path d="m6.5 7.52941c0-.84117.68824-1.52941 1.52941-1.52941h9.94119c.8412 0 1.5294.68824 1.5294 1.52941v9.94119c0 .8412-.6882 1.5294-1.5294 1.5294h-9.94119c-.84117 0-1.52941-.6882-1.52941-1.5294z"/><path d="m17.5 6h-9l1-5h7z"/><path d="m8.5 19h9l-1 5h-7z"/></g><g fill="#f94409"><path d="m16.4525 15.4301h-.4357c-.0671 0-.1118.0545-.1118.1091v.4258c0 .2948.2458.535.5475.535s.5475-.2402.5475-.535-.2458-.5349-.5475-.5349z"/><path d="m16.3073 10.0258c-.0894-.07647-.2347-.16381-.3352-.2184l-2.0559-1.08086c-.1117-.0655-.2458-.10917-.3687-.15285-.3576-.09825-.7374-.09825-1.095 0-.1341.03276-.257.08735-.3687.15285l-2.067 1.08086c-.1006.05459-.23468.14193-.33524.2184-.43575.3602-.68156.8843-.68156 1.452v3.1334c0 1.0481.87151 1.8888 1.933 1.8888h3.6089c.3017 0 .5475-.2402.5475-.535v-.4258c0-.0655-.0559-.1091-.1117-.1091h-4.0447c-.4581 0-.838-.3712-.838-.8189v-3.1334c0-.3057.1676-.5786.4357-.7205l2.1229-1.10275c.2235-.09826.4581-.09826.6816 0l2.1229 1.10275c.2682.1419.4358.4148.4358.7205v2.7513c0 .2948.2458.535.5474.535.3017 0 .5475-.2402.5475-.535v-2.7513c.0112-.5677-.2458-1.0918-.6815-1.452z"/></g></svg>