<svg fill="none" height="15" viewBox="0 0 15 15" width="15" xmlns="http://www.w3.org/2000/svg"><g fill="#92a0a9"><path d="m7.50021 3.40165v-.90165z"/><path clip-rule="evenodd" d="m7.50021 2c.27615 0 .5.22386.5.5v.90165c0 .27614-.22385.5-.5.5-.27614 0-.5-.22386-.5-.5v-.90165c0-.27614.22386-.5.5-.5z" fill-rule="evenodd"/><path d="m4.63252 4.63133-.65574-.65574z"/><path clip-rule="evenodd" d="m3.62322 3.62203c.19526-.19526.51185-.19526.70711 0l.65574.65575c.19527.19526.19527.51184 0 .7071-.19526.19527-.51184.19527-.7071 0l-.65575-.65574c-.19526-.19526-.19526-.51185 0-.70711z" fill-rule="evenodd"/><path d="m3.40186 7.50098h-.90165z"/><path clip-rule="evenodd" d="m2.00021 7.50098c0-.27615.22386-.5.5-.5h.90165c.27614 0 .5.22385.5.5 0 .27614-.22386.5-.5.5h-.90165c-.27614 0-.5-.22386-.5-.5z" fill-rule="evenodd"/><path d="m4.63252 10.4512-.65574.6557z"/><path clip-rule="evenodd" d="m4.98607 10.0976c.19527.1953.19526.5119 0 .7071l-.65574.6558c-.19526.1952-.51184.1952-.70711 0-.19526-.1953-.19526-.5119 0-.7071l.65575-.6558c.19526-.19524.51184-.19524.7071 0z" fill-rule="evenodd"/><path d="m7.50021 11.5986v.9017z"/><path clip-rule="evenodd" d="m7.50021 11.0986c.27615 0 .5.2239.5.5v.9017c0 .2761-.22385.5-.5.5-.27614 0-.5-.2239-.5-.5v-.9017c0-.2761.22386-.5.5-.5z" fill-rule="evenodd"/><path d="m10.4494 10.4512.6558.6557z"/><path clip-rule="evenodd" d="m10.0959 10.0976c.1952-.19524.5118-.19524.7071 0l.6557.6558c.1953.1952.1953.5118 0 .7071-.1952.1952-.5118.1952-.7071 0l-.6557-.6558c-.19528-.1952-.19528-.5118 0-.7071z" fill-rule="evenodd"/><path d="m11.5979 7.50098h.9016z"/><path clip-rule="evenodd" d="m11.0979 7.50098c0-.27615.2238-.5.5-.5h.9016c.2762 0 .5.22385.5.5 0 .27614-.2238.5-.5.5h-.9016c-.2762 0-.5-.22386-.5-.5z" fill-rule="evenodd"/><path d="m10.4494 4.63133.6558-.65574z"/><path clip-rule="evenodd" d="m11.4587 3.62203c.1953.19526.1953.51185 0 .70711l-.6557.65574c-.1953.19526-.5119.19527-.7071 0-.19528-.19526-.19528-.51184 0-.7071l.6557-.65575c.1953-.19526.5119-.19526.7071 0z" fill-rule="evenodd"/><path d="m7.49844 9.79535c1.22952 0 2.2951-.98362 2.2951-2.29511 0-1.31148-.98361-2.21313-2.2951-2.21313-1.22952 0-2.2951.98361-2.2951 2.2951s1.06558 2.21314 2.2951 2.21314z"/></g></svg>