<svg fill="none" height="15" viewBox="0 0 15 15" width="15" xmlns="http://www.w3.org/2000/svg"><g fill="#2d3436"><circle cx="7.5" cy="13.0011" r="1.25"/><path d="m4.91165 1.81814c-.34878.42822-.28437 1.0581.14385 1.40688.42822.34877 1.0581.28436 1.40688-.14386zm2.83745-.06256.07833-.996933zm1.68401.85425-.79753.60329zm.38281 1.5859.99648.08368zm-.52796 1.40699.81164.5842zm-1.36657 1.42508-.77385-.63338zm-.42022 1.01142-.98463-.17462zm-1.05198 1.20829c.00221.55228.45172.99819 1.004.99599s.9982-.45173.99598-1.00401zm-.76218-6.79786c.77537.63151.77503.63193.77468.63235-.00011.00013-.00045.00055-.00067.00082-.00044.00054-.00087.00107-.0013.00159-.00085.00104-.00168.00203-.00246.00298-.00158.0019-.00302.00362-.00433.00518-.00262.0031-.00472.00553-.0063.00732-.00314.00359-.00422.00468-.00323.00364.00203-.00213.01206-.01253.03012-.02849.03638-.03214.10288-.08469.19993-.13822.18621-.10269.50812-.22275.99732-.18432l.15666-1.993853c-.91756-.072092-1.6267.154885-2.11984.426863-.24263.13381-.42788.2755-.55833.39076-.06536.05775-.11752.10935-.15683.15078-.01967.02074-.0362.03902-.04963.05433-.00672.00767-.01267.0146-.01786.02074-.00259.00307-.005.00595-.00721.00862-.00111.00133-.00217.00262-.00319.00385-.0005.00062-.001.00122-.00148.00181-.00024.0003-.0006.00073-.00072.00088-.00035.00043-.00069.00086.77467.63237zm1.98376.30285c.30058.02362.4738.07171.59316.12965.10834.05259.22686.13955.37165.33097l1.59502-1.20657c-.30289-.40045-.65645-.71156-1.09323-.92359-.42575-.206691-.87067-.289799-1.30994-.324313zm.96481.46062c.1265.16723.21529.52446.18385.89893l1.99297.16736c.0545-.64889-.0484-1.56781-.5818-2.27286zm.18385.89893c-.01054.12548-.05469.3022-.13098.49454-.07624.19221-.16098.34092-.21209.41192l1.62324 1.16841c.3045-.42303.6525-1.18895.7128-1.90751zm-.34307.90646c-.14828.206-.32168.37719-.55177.59026-.21402.19818-.5129.46293-.77705.78565l1.54769 1.26676c.1554-.18987.32917-.34505.58825-.58495.24298-.22501.5431-.51006.81612-.88931zm-1.32882 1.37591c-.49059.5994-.60297 1.31213-.631 1.47018l1.96927.34924c.01289-.07271.03012-.16807.06723-.27772.0381-.11259.08674-.2072.14219-.27494zm-.631 1.47018c-.04364.24605-.0563.62746-.06194.87116-.00319.13821-.00454.26532-.00509.35761-.00028.04629-.00036.0842-.00038.1108 0 .01332.00001.02382.00003.03116 0 .00367.00001.00655.00002.0086v.00243c0 .0003.00001.00055.00001.00074v.00025.00009c0 .00004 0 .00007.99999-.00394s.99999-.00399.99999-.00396v.00003c0 .00001 0 .00002 0 0s0-.0001 0-.00023c0-.00026 0-.00072 0-.0014-.00001-.00134-.00001-.0035-.00002-.00643-.00001-.00587-.00002-.01481-.00002-.02647.00001-.02335.00009-.05749.00034-.09962.00051-.08455.00174-.19976.0046-.32345.00288-.12468.0073-.25255.01382-.36387.00326-.05554.00682-.10307.01051-.14156.00183-.01903.00353-.03417.005-.04569.00152-.01188.00243-.01714.00241-.01701z"/></g></svg>