<svg fill="none" height="26" viewBox="0 0 26 26" width="26" xmlns="http://www.w3.org/2000/svg"><g fill="#18303f"><path d="m20.793 3.38489c0-1.03876-.9889-1.818-2.003-1.818h-8.517c-.54637 0-1.0474.16037-1.41934.48652-.37786.33135-.58367.80106-.58367 1.33148v6.13413c0 .27614.22386.49998.5.49998.27615 0 .5-.22384.5-.49998v-6.13413c0-.26039.0948-.44967.24299-.57961.15412-.13515.40459-.23839.76002-.23839h8.517c.5892 0 1.003.45089 1.003.818v17.39751c0 .3671-.4138.818-1.003.818h-5.883c-.2762 0-.5.2238-.5.5 0 .2761.2238.5.5.5h5.883c1.0141 0 2.003-.7793 2.003-1.818z"/><path d="m6.5821 20.8283c.40373-.1879.6836-.5972.6836-1.0719 0-.6526-.52906-1.1817-1.18169-1.1817-.65262 0-1.18168.5291-1.18168 1.1817 0 .4732.2781.8814.67977 1.0701v.349c0 .2761.22386.5.5.5s.5-.2239.5-.5z"/><path clip-rule="evenodd" d="m9.7071 15.6206v-1.4879c0-1.9804-1.64403-3.6244-3.62438-3.6244s-3.62438 1.644-3.62438 3.6244v1.4879h-.06524c-.90102 0-1.636142.7351-1.636142 1.6361v4.0483c0 .8737.400172 1.6881.990322 2.2783.59014.5901 1.40451.9903 2.27823.9903h4.12007c.87372 0 1.68809-.4002 2.27822-.9903.5902-.5902.9903-1.4046.9903-2.2783v-4.0483c0-.901-.7351-1.6361-1.6361-1.6361zm-1-1.4879c0-1.4281-1.19631-2.6244-2.62438-2.6244-1.42806 0-2.62438 1.1963-2.62438 2.6244v1.4879h5.24876zm.51796 2.4879h.55294c.3487 0 .6361.2874.6361.6361v4.0483c0 .5674-.2635 1.1373-.69739 1.5711-.43386.4339-1.00377.6975-1.57113.6975h-4.12007c-.56736 0-1.13727-.2636-1.57113-.6975-.43386-.4338-.69742-1.0037-.69742-1.5711v-4.0483c0-.3487.2874-.6361.63614-.6361h.54728c.00596.0002.01195.0003.01796.0003h6.24876c.00601 0 .012-.0001.01796-.0003z" fill-rule="evenodd"/><path d="m17.2384 10.9624c0-.2761.2238-.5.5-.5.2761 0 .5.2239.5.5v1.4059c0 .2761-.2239.5-.5.5-.2762 0-.5-.2239-.5-.5z"/><path d="m17.2344 13.9185c0 .2761.2239.5.5.5.2762 0 .5-.2239.5-.5 0-.2762-.2238-.5-.5-.5-.2761 0-.5.2238-.5.5z"/></g></svg>