<svg fill="none" height="25" viewBox="0 0 25 25" width="25" xmlns="http://www.w3.org/2000/svg"><g fill="#18303f"><path clip-rule="evenodd" d="m19.2238.957438c-1.2764.545272-2.8449 1.502642-4.5603 2.769462-3.4675-1.52188-7.68601-.3172-9.86931 2.91029-1.56699 2.31643-1.70015 5.18831-.65572 7.60121-1.27834 1.6842-2.24298 3.2632-2.79122 4.559-.2854.6746-.469343 1.2988-.512878 1.8357-.042867.5287.045303 1.0632.419808 1.4377.5581.5581 1.42458.5228 2.26239.2871.87684-.2466 1.93245-.7683 3.09304-1.4913 2.32837-1.4504 5.18219-3.7766 8.04849-6.5927 2.8703-2.8199 5.1989-5.67634 6.6382-8.02.7175-1.16838 1.2295-2.23402 1.4677-3.11924.2276-.84589.2528-1.71551-.3027-2.270973-.373-.372962-.8995-.463042-1.4243-.419754-.5303.04373-1.1456.228339-1.8132.513505zm-4.6149 3.849942c-.0818-.01646-.1597-.05331-.2254-.10936-3.0425-1.4066-6.81665-.3748-8.76103 2.49948-2.13905 3.1621-1.21456 7.5541 1.96602 9.7057.22872.1547.28871.4656.13398.6943-.15472.2287-.46557.2887-.69429.134-.99068-.6702-1.79078-1.5321-2.37993-2.5052-1.10237 1.4955-1.91471 2.8609-2.38003 3.9608-.26459.6254-.40565 1.1387-.43712 1.5268-.03213.3963.0547.5743.13019.6498.1419.1419.50042.2522 1.28448.0316.74504-.2096 1.70818-.6754 2.83509-1.3774 2.24663-1.3996 5.04284-3.6734 7.87644-6.4573 2.8297-2.7801 5.1012-5.57368 6.4869-7.83002.6949-1.13162 1.1517-2.10348 1.3541-2.85576.2131-.79161.1004-1.15949-.0441-1.30403-.0771-.07703-.2505-.16195-.6351-.13024-.3791.03127-.8825.17166-1.5024.43649-1.0857.46379-2.4442 1.27209-3.9689 2.3697.0803.05016.1601.10198.2392.15548.9498.63342 1.7028 1.38215 2.2453 2.25013.1464.23417.0752.54264-.159.689-.2341.14635-.5426.07517-.689-.159-.4572-.73161-1.1037-1.38259-1.9533-1.94898l-.0028-.00188c-.2335-.15797-.4738-.29923-.7193-.42411z" fill-rule="evenodd"/><path d="m2.50793.617439c.27615 0 .5.223857.5.500001v1h1c.27615 0 .5.22386.5.5s-.22385.5-.5.5h-1v1.1c0 .27614-.22385.5-.5.5-.27614 0-.5-.22386-.5-.5v-1.1h-1c-.276138 0-.499995-.22386-.499995-.5s.223857-.5.499995-.5h1v-1c0-.276144.22386-.500001.5-.500001z"/><path clip-rule="evenodd" d="m21.0079 17.6174c0-.2761-.2238-.5-.5-.5-.2761 0-.5.2239-.5.5 0 1.4239-1.0761 2.5-2.5 2.5-.2761 0-.5.2239-.5.5 0 .2762.2239.5.5.5 1.4239 0 2.5 1.0762 2.5 2.5 0 .2762.2239.5.5.5.2762 0 .5-.2238.5-.5 0-1.4238 1.0762-2.5 2.5-2.5.2762 0 .5-.2238.5-.5 0-.2761-.2238-.5-.5-.5-1.4238 0-2.5-1.0761-2.5-2.5zm.6604 3c-.4764.2865-.8739.684-1.1604 1.1605-.2864-.4765-.6839-.874-1.1604-1.1605.4765-.2864.874-.6839 1.1604-1.1604.2865.4765.684.874 1.1604 1.1604z" fill-rule="evenodd"/><path d="m19.5079 11.1174c0-.2761-.2238-.5-.5-.5-.2761 0-.5.2239-.5.5 0 3.8239-3.1761 7-7 7-.2761 0-.5.2239-.5.5 0 .2762.2239.5.5.5 4.3762 0 8-3.6238 8-8z"/></g></svg>