<svg fill="none" height="26" viewBox="0 0 26 26" width="26" xmlns="http://www.w3.org/2000/svg"><g clip-rule="evenodd" fill="#18303f" fill-rule="evenodd"><path d="m18.2604 1.29782c-.7539-.20147-1.5355.24721-1.7383 1.00186l-.2378.88526c-.2028.75464.2492 1.53296 1.0031 1.73444.7539.20147 1.5355-.24721 1.7383-1.00186l.2378-.88526c.2028-.75464-.2491-1.53296-1.0031-1.73444zm-.7722 1.26003c.0589-.21916.2903-.35373.5128-.29427.2224.05945.3553.29136.2964.51051l-.2378.88526c-.0589.21916-.2902.35373-.5127.29427-.2225-.05945-.3554-.29136-.2965-.51051z"/><path d="m13.0885 4.46471c.2028-.75464.9844-1.20332 1.7383-1.00185.754.20148 1.2059.9798 1.0032 1.73444l-.2379.88526c-.2027.75465-.9844 1.20333-1.7383 1.00185-.7539-.20147-1.2059-.97979-1.0031-1.73443zm1.4789-.0361c-.2225-.05945-.4539.07512-.5128.29427l-.2378.88527c-.0589.21915.074.45106.2965.51051.2225.05946.4538-.07511.5127-.29427l.2379-.88526c.0588-.21915-.074-.45106-.2965-.51052z"/><path d="m18.625 6.13879c-.4187-.1119-.794-.13763-1.1391-.0663-.3498.07232-.6289.23618-.8645.44005-.2275.1968-.4222.4382-.6008.66964-.0422.05465-.0837.10901-.1251.16327-.1403.18387-.2799.36676-.4422.55533-.2468.2658-.4935.30232-.888.36069-.0695.01029-.1436.02125-.223.03427-.2467.04039-.562.1105-.8448.32824-.292.22475-.4889.55758-.6095 1.00619-.2346.87313-.0791 1.51113.2942 1.94213.3446.398.8023.5289.9744.5749.7459.1993 1.2497-.0415 1.6307-.2236l.0411-.0196.0344-.0163c.1938-.0912.3527-.1579.5362-.189.1775-.03.4035-.0305.7179.0535.3143.084.5098.1971.6484.3117.1434.1184.2476.2554.3697.4311l.0282.0408.0191.0278c.2387.3477.5543.8075 1.3002 1.0068.1721.046.6341.1609 1.1321-.0119.5393-.1872.9938-.6621 1.2284-1.5353.1205-.4486.1169-.835-.0233-1.1753-.1358-.3296-.3737-.5475-.5671-.7055-.0618-.0505-.12-.0966-.1747-.1399l-.0008-.0007c-.3143-.24875-.5106-.40415-.5901-.7621-.0614-.27801-.0974-.53768-.1336-.79808l-.0151-.10887c-.0401-.28538-.0863-.59022-.1805-.87099-.098-.29203-.2524-.57372-.5169-.8119-.2608-.23479-.5973-.39922-1.0159-.51107zm-1.9244 1.79941c.0387-.05081.076-.09967.1118-.14606.1771-.22945.3188-.39925.4632-.52412.1362-.1178.2643-.1861.4119-.2166.1523-.03148.3645-.03067.6781.05312.3137.08384.4937.18791.6052.28832.1077.09702.1813.21724.2385.38773.061.18174.0973.40003.1383.69229l.0146.10485c.0358.25833.0774.55888.1479.87842.1626.73285.6622 1.11625.9819 1.36125.0467.0358.0895.0686.1269.0992.1626.1328.2379.221.2757.3128.0335.0813.0639.2318-.0177.5356-.1697.6318-.4338.7951-.5895.8492-.1972.0684-.4069.0275-.5454-.0096-.3847-.1028-.5135-.2885-.7521-.6328l-.033-.0476c-.1309-.1885-.2992-.4208-.5536-.6311-.2591-.2141-.5868-.389-1.027-.5067-.4402-.1176-.8116-.1295-1.1434-.0733-.3257.0552-.5879.1726-.7957.2705l-.0525.0248c-.3793.1791-.5839.2758-.9686.173-.1386-.037-.3407-.1062-.4771-.2637-.1078-.1245-.2546-.3976-.0849-1.02936.0817-.30387.1835-.419.2532-.47267.0789-.06069.1882-.09947.3956-.13344.0477-.00781.1013-.01488.1597-.02259.3997-.05279 1.0242-.13526 1.5324-.68885l.0102-.01153c.1863-.21591.3511-.43199.4954-.62106z"/><path d="m6.24783 14.1262c-.20275-.7546.2492-1.533 1.00312-1.7344.75393-.2015 1.53554.2472 1.73829 1.0018l.23784.8853c.20275.7546-.24919 1.533-1.00312 1.7344-.75393.2015-1.53553-.2472-1.73828-1.0018zm1.26259-.7687c-.22249.0595-.35537.2914-.29649.5105l.23785.8853c.05888.2192.29022.3537.51271.2943.22249-.0595.35537-.2914.29649-.5105l-.23784-.8853c-.05888-.2192-.29023-.3537-.51272-.2943z"/><path d="m3.14236 14.9563c-.20275-.7547.2492-1.533 1.00313-1.7345.75392-.2014 1.53553.2473 1.73828 1.0019l.23784.8853c.20276.7546-.24919 1.5329-1.00312 1.7344s-1.53553-.2472-1.73828-1.0019zm1.26259-.7687c-.22249.0595-.35537.2914-.29649.5105l.23785.8853c.05888.2191.29022.3537.51271.2942.22249-.0594.35537-.2913.29649-.5105l-.23784-.8852c-.05888-.2192-.29023-.3538-.51272-.2943z"/><path d="m2.25486 16.8107c-.75393.2015-1.20587.9798-1.00312 1.7344l.23784.8853c.20275.7547.98436 1.2033 1.73829 1.0019.75393-.2015 1.20587-.9798 1.00312-1.7345l-.23785-.8852c-.20275-.7547-.98435-1.2034-1.73828-1.0019zm-.03702 1.4763c-.05888-.2192.074-.4511.29649-.5105.22249-.0595.45383.0751.51271.2942l.23785.8853c.05888.2192-.074.4511-.29649.5105-.22249.0595-.45384-.0751-.51272-.2943z"/><path d="m6.88508 17.2334c-.41876.1119-.75664.2768-1.01971.5106-.26671.2371-.42624.5182-.52813.8122-.09835.2839-.14592.59-.18459.8796-.00913.0684-.01782.1362-.02649.2039-.02934.2292-.05849.457-.10451.7013-.08046.3532-.27584.5079-.58816.7551-.05503.0436-.11369.09-.176.1409-.19336.158-.43126.3759-.56706.7055-.14019.3403-.14386.7267-.02333 1.1753.23459.8732.68907 1.3481 1.22844 1.5353.49795.1728.95993.0579 1.13205.0119.74594-.1993 1.06151-.659 1.3002-1.0067.01609-.0235.03183-.0464.04734-.0687.12208-.1757.22627-.3126.36963-.4311.13866-.1146.33417-.2277.64848-.3117s.54034-.0835.71786-.0534c.18354.0311.34243.0977.53624.189.02461.0116.04974.0236.07543.0359.38103.1821.88483.4228 1.63073.2235.1721-.046.6298-.1769.9744-.5749.3733-.431.5288-1.0689.2942-1.9421-.1206-.4486-.3175-.7814-.6095-1.0062-.2828-.2177-.5981-.2878-.8448-.3282-.0794-.013-.1535-.024-.223-.0343-.3971-.0588-.6445-.0954-.8929-.366-.19237-.2101-.35372-.4169-.51551-.6243l-.06766-.0867c-.1778-.2271-.37061-.4681-.59297-.6643-.23127-.204-.5062-.371-.85469-.4453-.34352-.0734-.71743-.0479-1.13599.0639zm-.8821 3.3029c.05308-.2799.08749-.5492.1176-.7849.00809-.0633.01587-.1242.02362-.1823.03833-.287.07597-.5047.13837-.6848.05887-.17.13564-.293.24812-.393.11611-.1032.30031-.2083.61386-.2921.31375-.0839.52179-.0835.6687-.0521.14195.0303.26595.0977.40096.2168.14393.127.28478.2979.46687.5306l.06521.0835c.16049.2059.3472.4454.56844.687.50819.5536 1.13307.6365 1.53277.6893.0582.0077.1121.0148.1597.0226.2074.0339.3167.0727.3956.1334.0697.0537.1715.1688.2532.4727.1697.6318.0229.9048-.0849 1.0293-.1364.1576-.3385.2267-.4771.2637-.3847.1028-.5893.0062-.9686-.173l-.0524-.0248c-.20789-.0979-.47007-.2152-.79581-.2704-.33176-.0562-.70322-.0444-1.14342.0733-.44019.1176-.76784.2926-1.02698.5067-.25442.2102-.42265.4426-.55356.631l-.03304.0476c-.23863.3443-.36735.5301-.75207.6329-.13855.037-.34826.0779-.54541.0095-.15573-.0541-.41977-.2173-.58951-.8491-.08164-.3039-.05118-.4544-.01771-.5356.03785-.0919.11315-.18.27572-.3129.0374-.0305.08024-.0634.12691-.0991.31972-.2451.8192-.6279.98176-1.3607z"/><path d="m10.6885 14.5578c-.75397.2015-1.20592.9798-1.00317 1.7344l.23785.8853c.20272.7546.98432 1.2033 1.73832 1.0018.7539-.2014 1.2058-.9798 1.0031-1.7344l-.2379-.8853c-.2027-.7546-.9843-1.2033-1.7382-1.0018zm-.0371 1.4762c-.0588-.2191.074-.451.2965-.5105.2225-.0594.4539.0752.5127.2943l.2379.8853c.0589.2191-.074.451-.2965.5105-.2225.0594-.4538-.0751-.5127-.2943z"/><path d="m21.5182 6.71862c.2028-.75464.9844-1.20332 1.7383-1.00185s1.2059.97979 1.0031 1.73443l-.2378.88527c-.2028.75464-.9844 1.20332-1.7383 1.00185s-1.2059-.97979-1.0031-1.73443zm1.4788-.0361c-.2224-.05945-.4538.07512-.5127.29427l-.2378.88527c-.0589.21915.074.45105.2965.51051s.4538-.07512.5127-.29427l.2378-.88527c.0589-.21915-.074-.45105-.2965-.51051z"/><path d="m21.3698 2.1279c-.7539-.20147-1.5355.24721-1.7383 1.00185l-.2378.88527c-.2028.75464.2492 1.53296 1.0031 1.73443s1.5355-.24721 1.7383-1.00185l.2378-.88526c.2028-.75465-.2492-1.53297-1.0031-1.73444zm-.7722 1.26002c.0589-.21915.2902-.35372.5127-.29427.2225.05946.3554.29137.2965.51052l-.2378.88526c-.0589.21915-.2902.35373-.5127.29427-.2225-.05945-.3554-.29136-.2965-.51051z"/></g></svg>