<svg fill="none" height="35" viewBox="0 0 35 35" width="35" xmlns="http://www.w3.org/2000/svg"><path d="m20.6339 16.9795c.5945.3432.5945 1.2012 0 1.5444l-5.6816 3.2803c-.5945.3432-1.3376-.0858-1.3376-.7722v-6.5606c0-.6864.7431-1.1154 1.3376-.7722z" stroke="#92a0a9" stroke-linecap="round" stroke-linejoin="round"/><g fill="#92a0a9"><rect height="1.29571" rx=".5" transform="matrix(1 0 0 -1 7.04541 9.58447)" width="1.2957"/><rect height="1.29571" rx=".5" transform="matrix(1 0 0 -1 12.0552 9.58447)" width="1.2957"/><rect height="1.29571" rx=".5" transform="matrix(1 0 0 -1 16.5088 9.58447)" width="1.29571"/><rect height="1.29571" rx=".5" transform="matrix(1 0 0 -1 20.9624 9.58447)" width="1.29571"/><rect height="1.29571" rx=".5" transform="matrix(1 0 0 -1 25.4155 9.58447)" width="1.2957"/><rect height="1.2957" rx=".5" transform="matrix(1 0 0 -1 7.04541 27.2155)" width="1.2957"/><rect height="1.2957" rx=".5" transform="matrix(1 0 0 -1 12.0552 27.2155)" width="1.2957"/><rect height="1.2957" rx=".5" transform="matrix(1 0 0 -1 16.5088 27.2155)" width="1.29571"/><rect height="1.2957" rx=".5" transform="matrix(1 0 0 -1 20.9624 27.2155)" width="1.29571"/><rect height="1.2957" rx=".5" transform="matrix(1 0 0 -1 25.4155 27.2155)" width="1.2957"/></g><path d="m29.8705 12.7422c0 1.0062-.7251 1.8219-1.6194 1.8219-1.5652 0-2.834 1.4274-2.834 3.1882s1.2688 3.1883 2.834 3.1883c.8943 0 1.6194.8148 1.6194 1.821m-.0015-10.0198v-3.34001c0-2.45955-1.9939-4.45341-4.4534-4.45341h-16.7003c-2.45955 0-4.45342 1.99386-4.45342 4.45341v3.34001m25.60712 10.0202v3.3401c0 2.4595-1.9939 4.4534-4.4534 4.4534h-16.7003c-2.45955 0-4.45342-1.9939-4.45342-4.4534v-3.3401m-.00163-10.0198c0 1.0062.72504 1.8219 1.61943 1.8219 1.56516 0 2.83399 1.4274 2.83399 3.1882s-1.26883 3.1883-2.83399 3.1883c-.89439 0-1.61943.8148-1.61943 1.821" stroke="#92a0a9" stroke-linecap="round" stroke-linejoin="round"/></svg>