<svg fill="none" height="35" viewBox="0 0 35 35" width="35" xmlns="http://www.w3.org/2000/svg"><g fill="#92a0a9"><path clip-rule="evenodd" d="m26.1095 3.88184c1.933 0 3.5 1.567 3.5 3.5v20.86876c0 1.933-1.567 3.5-3.5 3.5h-3.2697c-.2761 0-.5-.2239-.5-.5 0-.2762.2239-.5.5-.5h3.2697c1.3807 0 2.5-1.1193 2.5-2.5v-7.4664c-.1565.0554-.3251.0856-.5006.0856h-8.3493c.0104.0459.0159.0937.0159.1428 0 .355-.2878.6428-.6428.6428h-3.7499c-.355 0-.6428-.2878-.6428-.6428 0-.0491.0055-.0969.016-.1428h-8.35085c-.17508 0-.34315-.03-.49936-.0851v7.4659c0 1.3807 1.11929 2.5 2.5 2.5h9.21931c.2761 0 .5.2238.5.5 0 .2761-.2239.5-.5.5h-9.21931c-1.93299 0-3.5-1.567-3.5-3.5v-8.8365c-.00042-.0147-.00064-.0295-.00064-.0443v-.5946c0-.0086.00022-.0171.00064-.0255v-11.36786c0-1.933 1.56701-3.5 3.5-3.5zm-20.20371 15.51346v-12.01346c0-1.38072 1.11929-2.5 2.5-2.5h17.70371c1.3807 0 2.5 1.11929 2.5 2.5v11.36786c-.0004.0084-.0006.0169-.0006.0255v.5946c0 .2761-.2239.5-.5.5h-21.70375c-.26758 0-.48606-.2102-.49936-.4745z" fill-rule="evenodd"/><path d="m20.1976 31.7506c.2762 0 .5-.2239.5-.5 0-.2762-.2238-.5-.5-.5-.2761 0-.5.2238-.5.5 0 .2761.2239.5.5.5z"/></g></svg>