<svg fill="none" height="13" viewBox="0 0 11 13" width="11" xmlns="http://www.w3.org/2000/svg"><g clip-rule="evenodd" fill="#c4c4c4" fill-rule="evenodd"><path d="m.722168 2.72208c0-.97051.771312-1.968662 1.968662-1.968662h6.58692c.55228 0 .99995.447712.99995 1.000002 0 .55228-.44767 1-.99995 1h-6.55558v7.49338c.53778.0165.96866.4577.96866.9995 0 .5523-.44772 1-1 1-.97042 0-1.968662-.7712-1.968662-1.9686z"/><path d="m.722168 6.50098c0-.55229.447712-1 1.000002-1h3.77779c.55228 0 1 .44771 1 1 0 .55228-.44772 1-1 1h-3.77779c-.55229 0-1.000002-.44772-1.000002-1z"/></g></svg>