<svg fill="none" height="15" viewBox="0 0 15 15" width="15" xmlns="http://www.w3.org/2000/svg" xmlns:xlink="http://www.w3.org/1999/xlink"><clipPath id="a"><path d="m0 0h15v15h-15z"/></clipPath><g clip-path="url(#a)" clip-rule="evenodd" fill="#18303f" fill-rule="evenodd"><path d="m3.3 12.75c-.24817 0-.4783-.084-.64713-.2529-.16884-.1688-.25287-.3989-.25287-.6471v-3.6c0-.24817.08403-.4783.25287-.64713.16883-.16884.39896-.25287.64713-.25287h3.9v-1.5c0-.24817.08403-.4783.25287-.64713.16883-.16884.39896-.25287.64713-.25287h3.6c.2482 0 .4783.08403.6471.25287.1689.16883.2529.39896.2529.64713v6c0 .2482-.084.4783-.2529.6471-.1688.1689-.3989.2529-.6471.2529zm4.57713-7.12287c-.04116.04117-.07713.11104-.07713.22287v1.5h1.8v-1.8h-1.5c-.11183 0-.1817.03597-.22287.07713zm-.67713 2.32287h-1.8v1.8h1.8zm.6 2.4v1.8h1.8v-1.8zm-.6 1.8v-1.8h-1.8v1.8zm-2.4 0v-1.8h-1.8v1.5c0 .1118.03597.1817.07713.2229.04117.0411.11104.0771.22287.0771zm0-2.4h-1.8v-1.5c0-.11183.03597-.1817.07713-.22287.04117-.04116.11104-.07713.22287-.07713h1.5zm3 0h1.8v-1.8h-1.8zm4.2.6h-1.8v1.8h1.5c.1118 0 .1817-.036.2229-.0771.0411-.0412.0771-.1111.0771-.2229zm0-.6v-1.8h-1.8v1.8zm0-2.4v-1.5c0-.11183-.036-.1817-.0771-.22287-.0412-.04116-.1111-.07713-.2229-.07713h-1.5v1.8z"/><path d="m3 1.05c0-.165685-.13431-.3-.3-.3s-.3.134315-.3.3v1.22489c-.85131.14282-1.5.88321-1.5 1.77511v8.4c0 .9941.80589 1.8 1.8 1.8h9.6c.9941 0 1.8-.8059 1.8-1.8v-8.4c0-.8919-.6487-1.63229-1.5-1.77511v-1.22489c0-.165685-.1343-.3-.3-.3s-.3.134315-.3.3v1.2h-1.8v-1.2c0-.165685-.1343-.3-.3-.3-.16568 0-.3.134315-.3.3v1.2h-1.8v-1.2c0-.165685-.13431-.3-.3-.3s-.3.134315-.3.3v1.2h-1.8v-1.2c0-.165685-.13431-.3-.3-.3s-.3.134315-.3.3v1.2h-1.8zm9 1.8h-1.8c0 .16569-.1343.3-.3.3-.16568 0-.3-.13431-.3-.3h-1.8c0 .16569-.13431.3-.3.3s-.3-.13431-.3-.3h-1.8c0 .16569-.13431.3-.3.3s-.3-.13431-.3-.3h-1.8c0 .16569-.13431.3-.3.3-.15308 0-.27939-.11466-.29771-.26278-.51873.13242-.90229.60281-.90229 1.16278v8.4c0 .6627.53726 1.2 1.2 1.2h9.6c.6627 0 1.2-.5373 1.2-1.2v-8.4c0-.55998-.3836-1.03037-.9023-1.16278-.0183.14812-.1446.26278-.2977.26278-.1657 0-.3-.13431-.3-.3z"/></g></svg>