<svg fill="none" height="15" viewBox="0 0 15 15" width="15" xmlns="http://www.w3.org/2000/svg"><path clip-rule="evenodd" d="m2.7 5.54455c0-2.57496 2.15906-4.64455 4.8-4.64455 2.6409 0 4.8 2.06959 4.8 4.64455 0 .26681-.0233.52859-.068.78345-.3543 3.15378-2.0671 5.91-4.55592 7.7149-.10506.0761-.24719.0761-.35224 0-2.48922-1.8052-4.20219-4.56201-4.55606-7.7164-.04459-.25441-.06778-.51569-.06778-.78195zm4.8-4.04455c-2.32963 0-4.2 1.82067-4.2 4.04455 0 .23429.02066.46373.06025.68675.00114.00639.00207.01281.00278.01926.32336 2.90569 1.86938 5.46154 4.13693 7.17614 2.26718-1.7142 3.81304-4.26962 4.13674-7.17474.0007-.00648.0017-.01292.0028-.01934.0398-.2234.0605-.45328.0605-.68807 0-2.22388-1.87037-4.04455-4.2-4.04455zm0 2.60673c-.83845 0-1.5.6536-1.5 1.43782s.66155 1.43782 1.5 1.43782 1.5-.6536 1.5-1.43782-.66155-1.43782-1.5-1.43782zm-2.1 1.43782c0-1.13529.95023-2.03782 2.1-2.03782s2.1.90253 2.1 2.03782c0 1.1353-.95023 2.03782-2.1 2.03782s-2.1-.90252-2.1-2.03782z" fill="#18303f" fill-rule="evenodd"/></svg>