<svg fill="none" height="25" viewBox="0 0 25 25" width="25" xmlns="http://www.w3.org/2000/svg"><path d="m14.824.629568c.0599-.269566-.11-.5366546-.3796-.5965583-.0446-.0099132-.0891-.0135313-.1327-.0114448-.1483.0066307-.2922.0789681-.3851.2092201l-8.70868 12.211315c-.16034.2248-.10806.537.11676.6974.22483.1603.53706.108.6974-.1168l7.28282-10.21198-1.4671 6.60192c-.0329.14805.0032.30303.0981.42133s.2384.18713.39.18713h7.0284l-8.0074 11.2104 1.4671-6.6019c.0599-.2696-.11-.5367-.3796-.5966-.04-.0089-.08-.0127-.1192-.0119h-5.86426c-.27615 0-.5.2239-.5.5s.22386.5.5.5h5.25166l-1.86476 8.3915c-.05156.2321.06737.4683.28446.5652.2171.0968.4723.0273.6105-.1661l10-13.99998c.1089-.1524.1234-.35287.0377-.51941-.0857-.16653-.2573-.27121-.4446-.27121h-7.3767z" fill="#85949a"/><path d="m4.39453 15.0211c.27614 0 .5-.2239.5-.5s-.22386-.5-.5-.5-.5.2239-.5.5.22386.5.5.5z" fill="#85949a"/><circle cx="21.5" cy="3" fill="#f94409" r="3"/></svg>