<svg fill="none" height="15" viewBox="0 0 15 15" width="15" xmlns="http://www.w3.org/2000/svg"><path d="m13.0438 12.7436h-.2724c-.0419 0-.0698.0341-.0698.0682v.2661c0 .1843.1536.3344.3422.3344.1885 0 .3421-.1501.3421-.3344 0-.1842-.1536-.3343-.3421-.3343z" fill="#f94409"/><path d="m12.953 9.3659c-.0559-.04776-.1467-.10235-.2095-.13647l-1.2849-.67554c-.0699-.04094-.1537-.06823-.2305-.09553-.2234-.06141-.4609-.06141-.6843 0-.0838.02047-.1607.05459-.2305.09553l-1.29189.67554c-.06285.03412-.14665.08871-.2095.13647-.27234.22518-.42598.55272-.42598.9075v1.9584c0 .6551.5447 1.1805 1.20811 1.1805h2.25556c.1886 0 .3422-.1501.3422-.3344v-.2661c0-.0409-.0349-.0682-.0698-.0682h-2.52796c-.28632 0-.52375-.232-.52375-.5118v-1.9584c0-.191.10475-.36161.27235-.45031l1.32686-.68919c.1396-.06141.2863-.06141.4259 0l1.3268.68919c.1676.0887.2724.25931.2724.45031v1.7196c0 .1842.1536.3344.3422.3344.1885 0 .3422-.1502.3422-.3344v-1.7196c.0069-.35478-.1537-.68232-.426-.9075z" fill="#f94409"/><g fill="#18303f"><path clip-rule="evenodd" d="m3.59915.464063c-.24461 0-.4808.042143-.70198.11946-.8728.304822-1.51194 1.157327-1.51194 2.129517 0 1.21838 1.00382 2.24878 2.21335 2.24878.24461 0 .4808-.04214.70199-.11946.87279-.30482 1.51193-1.15733 1.51193-2.12952 0-1.21838-1.00382-2.248777-2.21335-2.248777zm-1.61334 2.248777c0-.71591.47443-1.33885 1.10691-1.56157.1602-.05634.33053-.08701.50586-.08701.86782 0 1.61334.75135 1.61334 1.64878 0 .71591-.47443 1.33886-1.10691 1.56157-.1602.05634-.33053.08701-.50586.08701-.86782 0-1.61334-.75134-1.61334-1.64878z" fill-rule="evenodd"/><path d="m2.15763 6.31027-.00444.00353c-.59858.48461-.98835 1.27174-.98835 2.1965v1.08736c0 .16568-.13431.3-.299997.3-.165686 0-.3-.13432-.3-.3v-1.08736c0-1.7463 1.199427-3.18447 2.812547-3.30539.07333-.00559.14741-.00843.22215-.00843 1.72324 0 3.03335 1.48853 3.03335 3.31361v1.08736c0 .16569-.13432.3-.3.3-.16569 0-.3-.13431-.3-.3v-1.08736c0-.92111-.3867-1.70568-.98128-2.19075-.00389-.00285-.00773-.0058-.01151-.00887-.05604-.04533-.1139-.08799-.17343-.12784-.2561-.1709-.54316-.29034-.84939-.34759-.13566-.02523-.27563-.03836-.41909-.03836-.52947 0-1.02091.18216-1.42153.49835z"/><path d="m4.96621 10.3196c-.15691 0-.28732.1209-.29914.2774l-.25237 3.339h-.29815c-.00372 0-.00741 0-.0111.0002h-1.32242l-.25236-3.339c-.01183-.1565-.14224-.2774-.29915-.2774h-.39168c-.16568 0-.3.1343-.3.3s.13432.3.3.3h.1135l.25237 3.339c.01182.1564.14223.2774.29914.2774h1.62775c.00371 0 .00741-.0001.01109-.0002h.54919c.15691 0 .28732-.121.29915-.2774l.25236-3.339h.1135c.16568 0 .3-.1343.3-.3s-.13432-.3-.3-.3z"/><path d="m7.65001 2.65786 1.5758-.00005c.85429.00001 1.49999.64569 1.49999 1.5v2.57773l-.5387-.53869c-.1171-.11715-.30708-.11715-.42423 0-.11716.11716-.11716.30711 0 .42427l1.04903 1.04905c.1172.11716.3071.11716.4243 0l1.049-1.04905c.1172-.11716.1172-.30711 0-.42427-.1171-.11715-.3071-.11715-.4242 0l-.5352.53517v-2.57421c0-1.18568-.9143-2.1-2.09999-2.1l-1.57582.00005c-.16569 0-.3.13432-.29999.30001 0 .16568.13432.29999.30001.29999z"/><path d="m6.53437 2.67539c.16569 0 .3-.13431.3-.3 0-.16568-.13431-.3-.3-.3-.16568 0-.3.13432-.3.3 0 .16569.13432.3.3.3z"/><path d="m1.16953 10.6102c0 .1656-.13431.3-.3.3-.165685 0-.3-.1344-.3-.3 0-.1657.134315-.3.3-.3.16569 0 .3.1343.3.3z"/><path d="m6.33047 10.9102c.16568 0 .3-.1344.3-.3 0-.1657-.13432-.3-.3-.3-.16569 0-.3.1343-.3.3 0 .1656.13431.3.3.3z"/></g></svg>