<svg fill="none" height="20" viewBox="0 0 20 20" width="20" xmlns="http://www.w3.org/2000/svg"><path clip-rule="evenodd" d="m.615043 2.389c-.185929-.31435-.135363-.71471.122886-.97296l.692551-.692553c.25825-.258249.65861-.308815.97296-.122886l2.0585 1.217549c.44975.26601.5279.88476.15841 1.25425l-.00268.00268 5.20284 5.20284 2.72369-2.72369c-.5635-1.33076-.3047-2.86846.744-3.91718 1.1113-1.1113 2.7814-1.391006 4.1745-.722322.117.056132.1994.165482.2212.293352s-.0197.25838-.1114.3501l-1.519 1.51901v.92174h.9217l1.519-1.51901c.0917-.09172.2222-.13327.3501-.11146s.2372.10427.2934.22121c.6661 1.38787.3942 3.11397-.7297 4.18166-1.0396.98766-2.5714 1.29798-3.9095.73648l-1.8471 1.84716 2.9142 2.23643 3.1855 3.1855c.7811.7811.7811 2.0474 0 2.8284l-1.1313 1.1314c-.7811.7811-2.0474.7811-2.8285 0l-3.1855-3.1855-2.23639-2.9143-1.87599 1.876c.56149 1.3381.25117 2.8698-.73649 3.9095-1.06768 1.1239-2.79378 1.3958-4.18165.7297-.11694-.0562-.19941-.1655-.22122-.2934s.01974-.2584.11147-.3501l1.51901-1.519v-.9218h-.92174l-1.51901 1.5191c-.09173.0917-.22223.1332-.3501.1114s-.237223-.1043-.293355-.2212c-.668685-1.3931-.388979-3.0632.722315-4.1745 1.04873-1.0487 2.58643-1.3075 3.91718-.744l2.75251-2.7525-5.20284-5.20284-.00266.00265c-.36948.36949-.98823.29134-1.25425-.15842zm3.436947.1204.00267-.00268-.01311-.00776zm-.16433-.10146-1.89149-1.11877-.69256.69256 1.11877 1.89149zm-1.37418 1.6193.01033.01033-.00265.00265zm1.1417.01033 5.16942 5.16942.05446-.05445c.0016-.00161.0032-.00322.00481-.00483l.27828-.27828c.0016-.0016.00321-.00321.00483-.00481l.05443-.05443-5.16942-5.16942zm5.79065 5.67957c-.42236.42606-.46529 1.09896-.09974 1.57536l2.86251 3.73 3.1484 3.1485c.4687.4686 1.2285.4686 1.6971 0l1.1314-1.1314c.4686-.4686.4686-1.2284 0-1.697l-3.1485-3.1485-3.7301-2.86244c-.4763-.36556-1.1493-.32263-1.57533.09973zm2.56537-.85341 2.1199-2.11985c.1234-.1234.3125-.15256.4674-.07205 1.0816.56246 2.3854.34899 3.2585-.4805.7182-.68227.9925-1.73575.7575-2.70038l-1.1908 1.19082c-.075.07502-.1767.11716-.2828.11716h-1.4874c-.221 0-.4-.17908-.4-.4v-1.48742c0-.10609.0421-.20783.1171-.28285l1.1914-1.19138c-.9517-.23303-1.9806.03791-2.7081.76545-.8631.8631-1.0408 2.15996-.4733 3.25118.0805.15483.0513.34399-.0721.46739l-2.3914 2.39139c.3105.05348.6119.18099.8769.38431zm-3.13303 3.13307-.16673-.2173c-.20333-.2649-.33083-.5664-.38431-.8768l-2.42023 2.4202c-.1234.1234-.31255.1526-.46738.072-1.09122-.5674-2.38809-.3897-3.25118.4734-.72755.7275-.99848 1.7564-.76545 2.7081l1.19138-1.1914c.07501-.075.17676-.1172.28284-.1172h1.48743c.10609 0 .20783.0422.28284.1172.07502.075.11716.1768.11716.2828v1.4875c0 .1061-.04215.2078-.11716.2828l-1.19082 1.1908c.96462.235 2.01811-.0393 2.70038-.7575.82948-.8732 1.04295-2.1769.4805-3.2585-.08051-.1549-.05136-.344.07204-.4674z" fill="#18303f" fill-rule="evenodd"/></svg>