<svg fill="none" height="16" viewBox="0 0 16 16" width="16" xmlns="http://www.w3.org/2000/svg"><circle cx="7.99888" cy="7.95188" r="7.10982" stroke="#00ac83" stroke-width="1.14286"/><g clip-rule="evenodd" fill="#00ac83" fill-rule="evenodd"><path d="m6.24864 10.9632c-.29754-.2975-.29754-.7799 0-1.07747l4.85086-4.85082c.2975-.29754.7799-.29754 1.0775 0 .2975.29754.2975.77995 0 1.0775l-4.85086 4.85079c-.29754.2976-.77995.2976-1.0775 0z"/><path d="m7.32316 10.964c-.29754.2975-.77995.2975-1.07749 0l-2.42437-2.4244c-.29754-.29754-.29754-.77995 0-1.07749.29754-.29755.77995-.29755 1.0775 0l2.42436 2.42436c.29755.29753.29755.77993 0 1.07753z"/></g></svg>