<svg fill="none" height="74" viewBox="0 0 118 74" width="118" xmlns="http://www.w3.org/2000/svg"><path clip-rule="evenodd" d="m92.5177 5.36603c.5523-.00767 1.0061.43378 1.0138.98601l.0252 1.80797 16.9343.01194-.024-1.77876c-.008-.55223.433-1.00613.986-1.0138.552-.00768 1.006.43377 1.013.986l.039 2.79337c.004.26773-.1.52576-.288.71633-.188.19061-.445.29781-.712.29761l-1.682-.0012c.28 1.4267 1.073 2.8193 2.161 3.7298 1.969 1.524 3.318 3.7341 3.011 6.364-.058.4986-.477.8768-.979.884l-2.792.0402c-.009.0001-.018.0001-.027 0-.886-.0112-1.725.816-1.74 1.8435v.0032l-.05 9.5778v.0079c-.028 2.0949-1.637 3.5536-3.624 3.812-.115.015-.232.0097-.345-.0153-.006.0004-.011.0007-.019.0012-.022.0015-.056.0037-.124.0068-.217.01-.546.0103-.938-.1238l-10.8835-3.5319-.0197-.0067c-.7533-.2619-1.3473-.7183-1.7697-1.3024-2.6995 6.7067-9.3796 11.3666-17.0306 11.2889l-6.7223-.0683c-.5523-.0056-.9954-.4579-.9898-1.0101.0056-.5523.4579-.9954 1.0101-.9898l6.7223.0683c8.4105.0854 15.4653-6.2428 16.2177-14.445l-.0759-5.4642c-.1458-1.2761.306-2.5731.6662-3.6071.0119-.0342.0237-.0681.0354-.1017.0061-.0175.0126-.0348.0196-.0519l2.8455-6.9203-1.8125-.0013c-.5466-.0004-.9916-.43955-.9992-.98609l-.0389-2.79337c-.0077-.55223.4338-1.00613.986-1.01381zm4.0264 4.79607-3.147 7.6537c-.4083 1.1754-.6907 2.0568-.5906 2.8301.0049.038.0077.0762.0082.1145l.0535 3.8518c.0584.1288.0903.272.0888.4227-.0046.4538-.0262.9031-.0642 1.3476l.0381 2.7409c.0466.9254.4952 1.51 1.1709 1.7487l2.0232.6565v-5.5841c0-.5523.4477-1 1-1s1 .4477 1 1v6.2332l3 .9735v-5.8942c0-.5523.448-1 1-1s1 .4477 1 1v6.5432l1.858.603.02.0066c.054.0187.098.0237.2.019.004-.0003.014-.0008.027-.0016.053-.003.161-.0093.234-.0097.055-.0002.126.0013.207.0105 1.095-.1968 1.723-.9453 1.736-1.8292 0-.001 0-.0021 0-.0031l.05-9.5779v-.0079c.026-1.9853 1.629-3.8387 3.751-3.8204l1.814-.0261c-.124-1.3937-.941-2.6622-2.275-3.6902-.009-.0075-.019-.0152-.029-.0231-1.55-1.2893-2.628-3.2622-2.924-5.2801zm-59.9219 12.6731v16.3483c0 .0468-.0032.0928-.0094.1378v4.9153c0 6.4787 5.4051 11.9102 12.1351 11.9102 6.482 0 11.7173-4.8146 12.1113-11.1419v-22.1697c-.5115.0958-1.2705.4019-2.1302.8321-.8591.4299-1.7269.936-2.3855 1.3388-.3279.2006-.6009.3736-.7913.4961-.0951.0612-.1695.1097-.2196.1425l-.0565.0373-.0138.0091-.0031.002c-.1643.1096-.358.1686-.5555.1686h-11.9259c-.1975 0-.3906-.0585-.5549-.1681l-.0038-.0025-.0137-.0091-.0565-.0373c-.0501-.0328-.1245-.0813-.2196-.1425-.1904-.1225-.4634-.2955-.7913-.4961-.6587-.4028-1.5264-.9089-2.3855-1.3388-.8597-.4302-1.6188-.7363-2.1303-.8321zm6.4534 1.0265c-.0203-.0132-.0417-.027-.0643-.0415-.2009-.1293-.4869-.3106-.8299-.5203-.683-.4177-1.6041-.9559-2.5339-1.4211-.9027-.4517-1.9125-.8861-2.7427-1.0245-.3958-.0661-.9373-.0995-1.4226.1433-.2669.1336-.5005.3437-.6577.6319-.1516.2782-.2023.574-.2023.8452v12c-.0062.0451-.0094.0911-.0094.1379v3.5709h-14.4943c-3.7464 0-6.6591.9395-8.8091 2.5946-2.14731 1.653-3.44381 3.9506-4.08437 6.507-.73191 2.6885-1.22503 5.639-1.22503 8.6072 0 .3999.23828.7614.60583.919 1.47408.6323 3.09036.5158 4.42917-.2248.2127 2.2682.5419 4.4988.9449 6.6498.0057.0304.0128.0606.0213.0903.4999 1.7509 1.2666 3.5641 2.5783 5.1394.19.2281.4716.3601.7685.3601h4.7703c.459 0 .859-.3124.9702-.7577l.7156-2.8643c.1467-.5873.7568-1.152 1.415-1.152h10.4948c.7515 0 1.2663.4137 1.4046 1.1056.0012.0062.0025.0124.0039.0186.002.0093.0042.0185.0065.0278l.7155 2.8643c.1113.4453.5113.7577.9702.7577h3.5778c.4562 0 .8542-.3087.9682-.7497m0 0 .0048-.0168c.0058-.0194.0168-.0543.034-.1026.0345-.0966.0937-.2457.1857-.4299.1843-.3689.4977-.8731 1.0054-1.3812.9929-.9936 2.8199-2.0938 6.1501-2.0938.3453 0 .6896-.0183 1.0312-.0531l2.906 4.3809c.1852.2793.4981.4473.8333.4473h4.7704c.5523 0 1-.4478 1-1v-3.3817c2.3847-5.7939 3.5777-11.83 3.5777-18.1011v-1.277c.0159-.2745.0239-.5516.0239-.8308 0-.0749-.0083-.1478-.0239-.218v-21.5439c0-.2712-.0507-.567-.2023-.8452-.1571-.2882-.3907-.4983-.6576-.6319-.4853-.2428-1.0268-.2094-1.4226-.1433-.8303.1384-1.84.5728-2.7427 1.0245-.9298.4652-1.851 1.0034-2.534 1.4211-.3429.2097-.629.391-.8299.5203-.0225.0145-.0439.0283-.0643.0415h-11.3302m17.435 28.1635c-2.5357 3.728-6.8596 6.1216-11.7627 6.1216-7.8125 0-14.1351-6.305-14.1351-13.9102v-4.0531h-14.4943c-3.4091 0-5.8631.8507-7.5891 2.1794-1.7256 1.3284-2.81368 3.2039-3.36662 5.4174l-.00537.0205c-.63629 2.3348-1.07465 4.848-1.14688 7.3634 1.01767.2004 2.08267-.1338 2.84737-.943-.0572-1.0313-.0877-2.0672-.0877-3.1039 0-.5523.4477-1 1-1s1 .4477 1 1c0 3.9654.4645 7.9437 1.1668 11.7045.412 1.4294.9953 2.8071 1.8946 4.0043h3.5058l.5263-2.1068c.3303-1.3223 1.6283-2.6672 3.3554-2.6672h10.4948c1.6256 0 3.0132 1.0085 3.3607 2.6886l.5209 2.0854h2.108c.0283-.0616.059-.126.0925-.1929.2629-.5263.6949-1.2156 1.3798-1.901 1.3923-1.3933 3.7394-2.6801 7.5648-2.6801 1.4856 0 3.0026-.4271 4.3228-1.0878.4939-.2471 1.0947-.0471 1.3418.4468.2472.494.0471 1.0947-.4468 1.3418-.6464.3235-1.3421.604-2.0686.8209l2.158 3.2534h3.2337v-2.5805c0-.1319.0261-.2626.0768-.3844 1.5976-3.8372 2.6482-7.7821 3.1523-11.8371zm-19.1483 16.0445-.0003.0012-.0005.002-.0009.0035m1.1785-34.5774c-.5798 0-1.3851.6833-1.3851 1.6257 0 .5523-.4478 1-1 1-.5523 0-1-.4477-1-1 0-1.922 1.5798-3.6257 3.3851-3.6257 1.8054 0 3.3852 1.7037 3.3852 3.6257 0 .5523-.4477 1-1 1s-1-.4477-1-1c0-.9424-.8054-1.6257-1.3852-1.6257zm11.9259 0c-.5798 0-1.3852.6833-1.3852 1.6257 0 .5523-.4477 1-1 1s-1-.4477-1-1c0-1.922 1.5798-3.6257 3.3852-3.6257 1.8053 0 3.3851 1.7037 3.3851 3.6257 0 .5523-.4477 1-1 1-.5522 0-1-.4477-1-1 0-.9424-.8053-1.6257-1.3851-1.6257zm-9.1095 6.6833c0-.5523.4477-1 1-1h4.7703c.5523 0 1 .4477 1 1s-.4477 1-1 1h-1.2919c.0744.4747.2048 1.049.4301 1.6126.2587.6473.6239 1.234 1.1281 1.6544.4864.4057 1.1527.7004 2.1174.7004.5523 0 1 .4477 1 1s-.4477 1-1 1c-.5348 0-1.0274-.0639-1.4793-.1817-.3676 1.5621-1.7462 2.8072-3.2895 2.8072-1.5437 0-2.9224-1.2455-3.2897-2.808-.4528.1183-.9463.1825-1.4822.1825-.5523 0-1-.4477-1-1s.4477-1 1-1c.9646 0 1.6309-.2947 2.1174-.7004.5041-.4204.8693-1.0071 1.1281-1.6544.2252-.5636.3556-1.1379.4301-1.6126h-1.2889c-.5523 0-1-.4477-1-1zm3.3836 4.0747c-.3268.6167-.7697 1.226-1.372 1.7283-.0074.0061-.0148.0123-.0222.0184.007.0476.0106.0963.0106.1459 0 .9424.8053 1.6256 1.3852 1.6256.5798 0 1.3851-.6832 1.3851-1.6256 0-.0488.0035-.0968.0103-.1437-.0084-.0068-.0167-.0137-.0249-.0206-.6024-.5023-1.0453-1.1116-1.3721-1.7283zm15.0581-2.6291c0-.5523.4477-1 1-1h.022c.5523 0 1 .4477 1 1s-.4477 1-1 1h-.022c-.5523 0-1-.4477-1-1zm-14.0536 18.0459c.0056.5523-.4376 1.0045-.9898 1.0101l-.022.0002c-.5522.0055-1.0044-.4376-1.01-.9899-.0056-.5522.4376-1.0044.9899-1.01l.0219-.0002c.5523-.0056 1.0045.4376 1.01.9898z" fill="#18303f" fill-rule="evenodd"/></svg>