<svg fill="none" height="74" viewBox="0 0 118 74" width="118" xmlns="http://www.w3.org/2000/svg"><g fill="#18303f"><g clip-rule="evenodd" fill-rule="evenodd"><path d="m69.3735 47.5222c.0056.5522-.4376 1.0045-.9898 1.0101l-.022.0002c-.5522.0056-1.0045-.4375-1.0101-.9898s.4376-1.0045.9898-1.0101l.022-.0002c.5522-.0056 1.0045.4375 1.0101.9898z"/><path d="m55.7329 17.1326v14.5492c0 .5523-.4477 1-1 1h-15.9792c-8.6695 0-9.6168.1203-11.3557.3411-.1387.0176-.2824.0359-.4355.0548-1.7397.4312-2.8481.9444-3.7077 1.6217-.8669.6829-1.5537 1.5888-2.3684 2.9402-.925 1.9605-1.3985 3.9667-1.6392 5.4984-.1207.7686-.1817 1.4104-.2124 1.8565-.0153.2229-.0231.3964-.027.512-.0019.0578-.0029.101-.0034.1287l-.0004.0295-.0001.0019v.0031c.0011 3.4255 1.8391 6.2658 3.3821 8.6504.0658.1016.131.2024.1956.3024.604-.1857 1.246-.4962 1.794-.9001.758-.5587 1.1899-1.1829 1.2701-1.7481.0028-.0198.0063-.0396.0103-.0592l.0002-.001c0-.0001-.0001.0001 0 0l.0026-.0137c.0025-.0127.0064-.0335.0113-.0616.01-.0562.0242-.1413.0398-.2499.0312-.2179.0673-.5255.0858-.8794.0166-.3163.0179-.6499-.0049-.9782-.3549-1.4547-.5574-3.1259-.6706-5.0046-.0332-.5512.3868-1.0251.9381-1.0583.5512-.0332 1.0251.3868 1.0583.9381.075 1.2448.1891 2.3428.348 3.3097.1687.4863.2609.9985.3063 1.4888.3742 1.4713.9003 2.5552 1.6103 3.3409 1.2752 1.4114 3.3595 2.0785 7.0755 1.9028.0157-.0007.0315-.0011.0472-.0011h10.3505l-1.9567-3.751h-3.3938c-.5523 0-1-.4477-1-1s.4477-1 1-1h4c.3726 0 .7143.2072.8866.5375l2.7196 5.2135h17.94c.0045-.0314.0092-.0627.0143-.094.032-.7481.0237-1.4357-.1115-2.1125-.1679-.8398-.5392-1.6835-1.3605-2.5445h-4.5885c-.5523 0-1-.4477-1-1s.4477-1 1-1h5c.2548 0 .5.0973.6855.2719 1.0038.9451 1.6127 1.9258 1.9639 2.9251.7401-1.0114 1.6718-1.9899 2.6652-2.9251.1855-.1746.4306-.2719.6854-.2719h5c.5523 0 1 .4477 1 1s-.4477 1-1 1h-4.6c-1.0204.9836-1.883 1.9475-2.4884 2.8893-.4252.6615-.703 1.2799-.8332 1.8617h11.2485c.9398-2.4269 1.0812-4.2422.9817-6.1283-.0408-.7732-.121-1.5454-.2092-2.3956-.0323-.3113-.0657-.633-.0987-.969-.1213-1.2374-.23-2.6162-.23-4.2312v-23.7909c-.5346.0896-1.3387.4063-2.2468.8522-.8868.4354-1.7821.9478-2.4613 1.3554-.3383.2029-.6198.3781-.8162.502-.0982.062-.1749.1111-.2266.1444l-.0584.0377-.0142.0092-.0032.0022c-.0001 0 0-.0001 0 0-.1628.1065-.3538.1637-.5483.1637h-12.2917c-.1945 0-.3848-.0568-.5476-.1633l-.0039-.0026-.0143-.0092-.0583-.0377c-.0517-.0333-.1284-.0824-.2266-.1444-.1964-.1239-.478-.2991-.8162-.502-.6792-.4076-1.5745-.92-2.4613-1.3554-.9081-.4459-1.7122-.7626-2.2468-.8522zm6.6683 1.0668c-.024-.0152-.0494-.0314-.0764-.0484-.2069-.1306-.5015-.3138-.8547-.5257-.7036-.4222-1.652-.9659-2.609-1.4358-.9304-.4568-1.966-.8933-2.8143-1.0322-.4046-.0662-.9501-.0983-1.4377.141-.2682.1317-.5062.3403-.6675.6307-.156.2808-.2087.5807-.2087.8563v13.8965h-14.9792c-8.7699 0-9.7437.1226-11.6148.3583-.1522.0192-.3104.0391-.4792.0597-.0391.0048-.078.0119-.1163.0213-1.9378.4746-3.3571 1.0861-4.5263 2.0072-1.1623.9157-2.0039 2.081-2.8704 3.5234-.0167.0278-.032.0563-.0459.0856-1.0469 2.2022-1.5681 4.4275-1.8293 6.0903-.1311.8344-.1979 1.5346-.2319 2.0296-.0171.2477-.026.4445-.0306.5817-.0023.0686-.0036.1223-.0043.1601l-.0006.0445-.0002.013v.0042.0015c0 .0003 0 .0011 1 .0044l-1-.0033v.0033c0 4.0651 2.1953 7.4324 3.7209 9.7724.1966.3016.3821.5861.5503.8529.2147.3404.6125.5189 1.0095.4531 1.0822-.1795 2.2904-.685 3.2776-1.4126.6909-.5092 1.3477-1.1843 1.737-2.0044.1844.2683.3834.5212.598.7587 1.8814 2.0824 4.7311 2.742 8.6302 2.5609h44.4765c.4013 0 .7638-.2399.9206-.6094 1.2959-3.0539 1.5068-5.3202 1.3852-7.6243-.0437-.828-.1315-1.6735-.2215-2.5408-.0314-.3018-.063-.6063-.0931-.9136-.1183-1.2065-.2205-2.5131-.2205-4.036v-24.1382c0-.2756-.0527-.5755-.2087-.8563-.1613-.2904-.3994-.499-.6676-.6307-.4875-.2393-1.033-.2072-1.4376-.141-.8483.1389-1.8839.5754-2.8144 1.0322-.9569.4699-1.9054 1.0136-2.6089 1.4358-.3532.2119-.6478.3951-.8547.5257-.027.017-.0525.0332-.0764.0484z"/><path d="m64.793 35.6812c0-.5522.4477-1 1-1h4.9166c.5523 0 1 .4478 1 1 0 .5523-.4477 1-1 1h-4.9166c-.5523 0-1-.4477-1-1z"/><path d="m68.2487 34.6812c.5516 0 .9989.4466 1 .998v.002h-1c1 0 1 .0004 1 0 0-.0006 0-.0013 0-.002l.0001.0062c.0001.0069.0003.0192.0007.0365.001.0346.0029.089.0071.1605.0084.1434.0253.3533.0598.6072.0697.513.2073 1.1793.473 1.8316.2664.6539.6433 1.2494 1.1668 1.6777.5066.4146 1.2028.7168 2.2092.7168.5522 0 1 .4477 1 1s-.4478 1-1 1c-1.4521 0-2.5996-.452-3.4757-1.1689-.6372-.5214-1.1016-1.1582-1.441-1.8011-.3394.6429-.8038 1.2797-1.441 1.8011-.8761.7169-2.0237 1.1689-3.4757 1.1689-.5523 0-1-.4477-1-1s.4477-1 1-1c1.0063 0 1.7026-.3022 2.2092-.7168.5235-.4283.9004-1.0238 1.1668-1.6777.2657-.6523.4033-1.3186.473-1.8316.0344-.2539.0514-.4638.0598-.6072.0041-.0715.0061-.1259.0071-.1605.0004-.0173.0006-.0296.0007-.0365l.0001-.0049c0 .0004 0 .0007 1 .0007l-1-.0007c0-.0007 0-.0007 0-.0013.0011-.5514.4484-.998 1-.998z"/><path d="m62.1861 29.8394c.2436.0383.5248.0015.7611-.1068.2641-.121.3706-.2779.4001-.3937.1363-.5352.6806-.8586 1.2158-.7223.5353.1363.8587.6806.7224 1.2158-.2164.8498-.8473 1.417-1.5051 1.7184-.656.3006-1.4395.39-2.1607.213-.0699-.0172-.1377-.0418-.2023-.0736-.0224-.0109-.0458-.0223-.0703-.0343-.4407-.2143-1.2084-.5877-1.6093-1.3751-.2506-.4921-.0548-1.0942.4373-1.3448.4922-.2507 1.0943-.0549 1.3449.4373.027.0529.0786.1193.2055.2083.1188.0834.2615.1589.4606.2578z"/><path d="m72.6723 31.526c.6803.3563 1.5741.4826 2.4103.0721.0224-.011.0458-.0224.0703-.0343.4407-.2143 1.2084-.5877 1.6093-1.3751.2506-.4922.0548-1.0943-.4373-1.3449-.4922-.2506-1.0943-.0548-1.3449.4373-.027.0529-.0786.1194-.2055.2084-.1402.0983-.3134.1857-.5733.3133-.1471.0722-.3596.0779-.6011-.0486-.2511-.1315-.4054-.3422-.4474-.5074-.1363-.5352-.6806-.8586-1.2158-.7223-.5353.1362-.8587.6806-.7224 1.2158.2038.8003.787 1.4344 1.4578 1.7857z"/></g><path d="m89 34.2726c0-.1605.0471-.3247.1414-.4925l3-5.8659h-2.5555c-.128 0-.229-.0584-.3031-.1751-.0673-.124-.101-.2736-.101-.4487 0-.1678.0337-.3137.101-.4378.0674-.124.1684-.186.3031-.186h3.8383c.2627 0 .394.1277.394.383 0 .1605-.0505.332-.1515.5144l-2.9899 5.855h2.9091c.1212 0 .2188.0657.2929.197.0808.124.1212.2663.1212.4268s-.0404.3064-.1212.4377c-.0741.1241-.1717.1861-.2929.1861h-4.192c-.2626 0-.3939-.1313-.3939-.394z"/><path clip-rule="evenodd" d="m89.1071 27.8345c-.0867-.1595-.1253-.3436-.1253-.5441 0-.1948.0393-.3748.1253-.5332.0472-.0869.1117-.162.1974-.2145.0861-.0529.1822-.0761.2814-.0761h3.8383c.1608 0 .3184.039.4349.1524.1176.1143.1591.2707.1591.4306 0 .2021-.0633.4058-.1749.6083l-2.8398 5.5611h2.5824c.2096 0 .3644.1199.4639.2931.1014.158.1502.337.1502.5307 0 .1955-.0496.3776-.1502.5414-.102.1702-.2582.2824-.4639.2824h-4.192c-.1621 0-.3204-.0407-.4368-.1571s-.1571-.2747-.1571-.4369c0-.1998.0586-.3962.1651-.5869l2.8494-5.5715h-2.2286c-.2028 0-.3647-.099-.4719-.2679zm2.8097.0797h.2246l-3 5.8659c-.0943.1678-.1414.332-.1414.4925 0 .2627.1313.394.3939.394h4.192c.1212 0 .2188-.062.2929-.1861.0808-.1313.1212-.2772.1212-.4377s-.0404-.3028-.1212-.4268c-.0741-.1313-.1717-.197-.2929-.197h-2.9091l2.9899-5.855c.101-.1824.1515-.3539.1515-.5144 0-.2553-.1313-.383-.394-.383h-3.8383c-.1347 0-.2357.062-.3031.186m2.634 1.0616h-2.3309c-.128 0-.229-.0584-.3031-.1751" fill-rule="evenodd"/><path d="m99 26.2234c0-.1806.0566-.3653.1697-.5541l3.6003-6.5991h-3.067c-.1535 0-.2747-.0657-.3636-.197-.0808-.1396-.1212-.3078-.1212-.5048 0-.1888.0404-.353.1212-.4925s.202-.2093.3636-.2093h4.606c.315 0 .473.1436.473.4309 0 .1806-.061.3735-.182.5787l-3.588 6.5868h3.491c.145 0 .263.0739.352.2217.097.1395.145.2995.145.4801s-.048.3447-.145.4925c-.089.1395-.207.2093-.352.2093h-5.0303c-.3151 0-.4727-.1477-.4727-.4432z"/><path clip-rule="evenodd" d="m99.2529 18.9233c-.0914-.1578-.1347-.3442-.1347-.5549 0-.2034.0436-.3854.1347-.5426.0987-.1705.2529-.2592.4501-.2592h4.606c.171 0 .318.0387.422.1338.106.0967.151.2356.151.3971 0 .2028-.068.4127-.195.628l-3.507 6.4375h3.323c.187 0 .333.0978.436.2673.108.1567.161.336.161.5345 0 .1994-.054.3825-.161.5468-.105.1633-.251.255-.436.255h-5.0303c-.1714 0-.3186-.0401-.4229-.1379-.1055-.0989-.1498-.2405-.1498-.4053 0-.2017.0631-.4034.1829-.6037l3.5181-6.4495h-2.898c-.188 0-.3397-.0833-.4464-.241zm3.5171.1469-3.6003 6.5991c-.1131.1888-.1697.3735-.1697.5541 0 .2955.1576.4432.4727.4432h5.0303c.145 0 .263-.0698.352-.2093.097-.1478.145-.3119.145-.4925s-.048-.3406-.145-.4801c-.089-.1478-.207-.2217-.352-.2217h-3.491l3.588-6.5868c.121-.2052.182-.3981.182-.5787 0-.2873-.158-.4309-.473-.4309h-4.606c-.1616 0-.2828.0698-.3636.2093s-.1212.3037-.1212.4925c0 .197.0404.3652.1212.5048.0889.1313.2101.197.3636.197z" fill-rule="evenodd"/><path d="m110 18.1249c0-.2207.066-.4464.198-.6772l4.2-8.06565h-3.578c-.179 0-.32-.08025-.424-.24076-.094-.17055-.141-.3762-.141-.61697 0-.23073.047-.43137.141-.60191s.236-.25581.424-.25581h5.374c.368 0 .551.17555.551.52667 0 .2207-.07.45645-.212.70725l-4.186 8.05058h4.073c.17 0 .307.0903.41.2709.113.1705.17.3662.17.5869s-.057.4213-.17.6019c-.103.1705-.24.2558-.41.2558h-5.868c-.368 0-.552-.1806-.552-.5417z"/></g></svg>