<svg fill="none" height="74" viewBox="0 0 118 74" width="118" xmlns="http://www.w3.org/2000/svg"><g fill="#18303f"><g clip-rule="evenodd" fill-rule="evenodd"><path d="m65.3538 31.7094c0-.5522.4477-1 1-1h4.7704c.5522 0 1 .4478 1 1 0 .5523-.4478 1-1 1h-4.7704c-.5523 0-1-.4477-1-1z"/><path d="m68.7374 30.7094c.5523 0 1 .4478 1 1h-1c1 0 1 .0004 1 0v-.0012l.0001.0055c.0001.0068.0003.019.0008.0361.0009.0343.0028.0883.0068.1591.0081.1418.0247.3496.0581.6009.0677.5077.2012 1.167.4591 1.8122.2588.6474.6239 1.234 1.1281 1.6545.4864.4056 1.1528.7004 2.1174.7004.5523 0 1 .4477 1 1s-.4477 1-1 1c-1.4205 0-2.5431-.4512-3.3983-1.1644-.6023-.5024-1.0452-1.1116-1.3721-1.7284-.3268.6168-.7697 1.226-1.372 1.7284-.8552.7132-1.9778 1.1644-3.3983 1.1644-.5523 0-1-.4477-1-1s.4477-1 1-1c.9646 0 1.6309-.2948 2.1174-.7004.5042-.4205.8693-1.0071 1.1281-1.6545.2579-.6452.3914-1.3045.4591-1.8122.0334-.2513.05-.4591.0581-.6009.004-.0708.0059-.1248.0068-.1591.0005-.0171.0007-.0293.0008-.0361v-.0043h1c-1 0-1 .0004-1 0 0-.5522.4478-1 1-1z"/><path d="m62.5375 25.0262c-.5798 0-1.3852.6833-1.3852 1.6257 0 .5522-.4477 1-1 1s-1-.4478-1-1c0-1.922 1.5798-3.6257 3.3852-3.6257 1.8053 0 3.3851 1.7037 3.3851 3.6257 0 .5522-.4477 1-1 1-.5522 0-1-.4478-1-1 0-.9424-.8053-1.6257-1.3851-1.6257z"/><path d="m74.4633 25.0262c-.5798 0-1.3852.6833-1.3852 1.6257 0 .5522-.4477 1-1 1s-1-.4478-1-1c0-1.922 1.5798-3.6257 3.3852-3.6257s3.3852 1.7037 3.3852 3.6257c0 .5522-.4478 1-1 1-.5523 0-1-.4478-1-1 0-.9424-.8054-1.6257-1.3852-1.6257z"/><path d="m66.3538 36.6767c.5523 0 1 .4477 1 1 0 .9424.8054 1.6257 1.3852 1.6257s1.3852-.6833 1.3852-1.6257c0-.5523.4477-1 1-1 .5522 0 1 .4477 1 1 0 1.922-1.5799 3.6257-3.3852 3.6257-1.8054 0-3.3852-1.7037-3.3852-3.6257 0-.5523.4477-1 1-1z"/><path d="m67.7201 51.2215c-.0056-.5523.4376-1.0045.9898-1.0102l.022-.0002c.5522-.0056 1.0045.4376 1.0101.9898.0056.5523-.4376 1.0045-.9898 1.0101l-.022.0002c-.5522.0057-1.0045-.4375-1.0101-.9897z"/><path d="m55.8852 14.3564v16.5493c0 .5523-.4477 1-1 1h-15.9792c-1.402 0-2.6484.137-3.7523.3862-.5387.1216-1.074-.2166-1.1956-.7553s.2165-1.074.7552-1.1956c1.2656-.2858 2.6612-.4353 4.1927-.4353h14.9792v-15.8965c0-.2756.0526-.5755.2086-.8563.1613-.2904.3994-.499.6676-.6307.4876-.2394 1.033-.2073 1.4376-.1411.8483.1389 1.884.5754 2.8144 1.0321.957.4699 1.9054 1.0135 2.609 1.4357.3532.2119.6477.3951.8547.5257.0269.017.0524.0332.0763.0484h11.7052c.0239-.0152.0494-.0314.0764-.0484.2069-.1306.5015-.3138.8547-.5257.7035-.4222 1.652-.9658 2.6089-1.4357.9305-.4567 1.9661-.8932 2.8144-1.0321.4046-.0662.9501-.0983 1.4376.1411.2682.1317.5063.3403.6676.6307.156.2808.2086.5807.2086.8563v24.1379c0 6.3425-1.2298 12.4469-3.6875 18.3058v3.4183c0 .5523-.4477 1-1 1h-4.9166c-.3281 0-.6354-.1609-.8222-.4307l-3.2896-4.7506c-.3144-.4541-.2012-1.077.2528-1.3914.4541-.3145 1.077-.2013 1.3914.2528l2.9915 4.3199h3.3927v-2.6207c0-.1342.0271-.267.0795-.3906 2.4061-5.6699 3.608-11.5715 3.608-17.7128v-23.7907c-.5345.0896-1.3386.4063-2.2468.8522-.8867.4353-1.7821.9477-2.4613 1.3553-.3382.2029-.6198.378-.8162.502-.0981.0619-.1749.111-.2266.1443l-.0583.0377-.0143.0093-.0032.0021c-.1628.1065-.3537.1637-.5483.1637h-12.2916c-.1946 0-.3849-.0568-.5477-.1633l-.0038-.0025-.0143-.0093-.0583-.0377c-.0517-.0333-.1284-.0824-.2266-.1443-.1964-.124-.478-.2991-.8162-.502-.6792-.4076-1.5745-.92-2.4613-1.3553-.9081-.4459-1.7122-.7626-2.2468-.8522z"/><path d="m29.4967 36.0532c.5322-.1478.8437-.699.6959-1.2312-.6562-2.3626-1.1081-4.9056-1.182-7.4505 1.1411-.2287 2.3385.1753 3.1436 1.1239.013.0153.0264.0302.0403.0446.0001.0001.0008.0009.0009.001l.0093.0099c.0089.0095.0232.0249.0424.046.0384.0422.0958.1067.1669.1902.1426.1676.3372.4085.5416.6979.4232.5991.8269 1.32.9669 1.9852.1138.5404.6441.8863 1.1846.7725.5404-.1137.8863-.6441.7725-1.1845-.2238-1.0634-.8124-2.0504-1.2905-2.7272-.2462-.3485-.4795-.6374-.6521-.8402-.0865-.1017-.1585-.1826-.2102-.2394-.0258-.0284-.0466-.0509-.0617-.067l-.0041-.0043c-1.5061-1.7567-3.9247-2.3543-6.0489-1.4604-.3709.1561-.6122.5193-.6122.9217 0 3.0061.5097 5.9942 1.2657 8.7159.1478.5321.699.8437 1.2311.6959z"/><path d="m28.9169 34.0036c.531-.1516 1.0844.156 1.236.6871.8954 3.1365 1.1481 5.0277 1.1481 8.2836 0 3.0828.4803 8.0323 1.2025 11.8345.4257 1.4493 1.0294 2.8472 1.9625 4.0619h3.6619l.5457-2.1432c.3421-1.3435 1.677-2.6843 3.4274-2.6843h10.8167c1.6476 0 3.0739 1.0026 3.4329 2.7059l.5402 2.1216h2.2251c.0307-.0661.0644-.1356.1013-.208.271-.5321.7156-1.2279 1.4197-1.9193 1.4302-1.4043 3.8391-2.7002 7.7683-2.7002 1.5405 0 3.1111-.4345 4.476-1.1046.4958-.2434 1.095-.0388 1.3383.457.2434.4957.0388 1.0949-.4569 1.3383-1.5851.7782-3.4562 1.3093-5.3574 1.3093-3.4458 0-5.3389 1.1178-6.3671 2.1273-.525.5155-.8487 1.0266-1.0387 1.3997-.0949.1864-.1558.3372-.1914.4349-.0177.0488-.029.0841-.035.1036l-.0048.0163.0007-.0029.0006-.0021m-.0013.005c-.1156.4388-.5127.7457-.9672.7457h-3.6875c-.4572 0-.8562-.3101-.969-.7532l-.7375-2.8966c-.0022-.0084-.0042-.0168-.0061-.0252-.0017-.0073-.0032-.0146-.0047-.0219-.1416-.695-.676-1.1306-1.4785-1.1306h-10.8167c-.7079 0-1.3396.5902-1.4892 1.1777l-.7375 2.8966c-.1129.4431-.5119.7532-.9691.7532h-4.9167c-.2936 0-.5724-.129-.7624-.3529-1.3504-1.5911-2.1407-3.4239-2.6561-5.1952-.0088-.0303-.0161-.0609-.0221-.0919-.7477-3.9159-1.2469-9.0198-1.2469-12.2564 0-3.0763-.2285-4.7823-1.0712-7.7347-.1516-.531.156-1.0844.6871-1.236"/><path d="m98.1213 12.212c.3905.3905.3905 1.0236 0 1.4142l-2.8285 2.8284c-.3905.3905-1.0237.3905-1.4142 0s-.3905-1.0237 0-1.4142l2.8284-2.8284c.3906-.3906 1.0237-.3906 1.4143 0z"/><path d="m93.8786 12.212c.3905-.3906 1.0237-.3906 1.4142 0l2.8285 2.8284c.3905.3905.3905 1.0237 0 1.4142-.3906.3905-1.0237.3905-1.4143 0l-2.8284-2.8284c-.3905-.3906-.3905-1.0237 0-1.4142z"/><path d="m45.9999 1.33331c.5523 0 1 .44772 1 1v4c0 .55229-.4477 1-1 1-.5522 0-1-.44771-1-1v-4c0-.55228.4478-1 1-1z"/><path d="m42.9999 4.33331c0-.55228.4478-1 1-1h4c.5523 0 1 .44772 1 1 0 .55229-.4477 1-1 1h-4c-.5522 0-1-.44771-1-1z"/><path d="m3.87907 32.212c.39053-.3905 1.02369-.3905 1.41422 0l2.82843 2.8284c.39052.3905.39052 1.0237 0 1.4142-.39053.3906-1.02369.3906-1.41422 0l-2.82843-2.8284c-.39052-.3905-.39052-1.0237 0-1.4142z"/><path d="m3.87907 36.4546c-.39052-.3905-.39052-1.0237.00001-1.4142l2.82842-2.8284c.39053-.3905 1.02369-.3905 1.41422 0 .39052.3905.39052 1.0237 0 1.4142l-2.82843 2.8284c-.39053.3906-1.02369.3906-1.41422 0z"/></g><path d="m107 32.3333c0 1.1046-.895 2-2 2s-2-.8954-2-2 .895-2 2-2 2 .8954 2 2z"/><path d="m11.9999 6.33331c0 1.10457-.8954 2-1.99996 2-1.10457 0-2-.89543-2-2s.89543-2 2-2c1.10456 0 1.99996.89543 1.99996 2z"/><path clip-rule="evenodd" d="m28.9999 13.3333c-.5522 0-1 .4477-1 1s.4478 1 1 1c.5523 0 1-.4477 1-1s-.4477-1-1-1zm-3 1c0-1.6568 1.3432-3 3-3 1.6569 0 3 1.3432 3 3 0 1.6569-1.3431 3-3 3-1.6568 0-3-1.3431-3-3z" fill-rule="evenodd"/></g></svg>