<svg fill="none" height="15" viewBox="0 0 15 15" width="15" xmlns="http://www.w3.org/2000/svg"><path clip-rule="evenodd" d="m10.5263 2.82486c-.81927-.66845-1.87028-1.07451-3.04098-1.07451-2.72614 0-4.81667 2.09053-4.81667 4.81667 0 1.77895-.4436 3.44348-1.33412 5.00198-.00459.008-.00895.0161-.01309.0244-.06975.1395-.14029.311-.14029.5153s.07054.3758.14029.5153c.02403.048.05566.0919.09366.1299.14491.1449.29651.2606.4409.3431.12629.0721.30618.1534.49599.1534.01445 0 .02891-.0007.04331-.0019 1.35178-.1176 3.78296-.414 5.88886-1.3382 2.10894-.9255 4.01784-2.54656 4.01784-5.34328 0-1.12188-.3874-2.17219-1.0475-3.0039.6779-.36739 1.4078-.6482 2.1764-.82557.2691-.06209.4368-.33055.3748-.59963-.0621-.26907-.3306-.43685-.5997-.37476-.9556.22052-1.8552.58322-2.6797 1.0617zm-6.85765 3.74216c0 1.94936-.48721 3.78038-1.45835 5.48488-.01237.0254-.01989.0432-.02438.0548.06353.0562.12112.0963.16622.122.01249.0072.02312.0127.03181.0169 1.34147-.12 3.58633-.4119 5.49836-1.251 1.94522-.8537 3.41969-2.20763 3.41969-4.42758 0-.93305-.3369-1.80178-.9057-2.47397-1.44343 1.00747-2.58471 2.43046-3.2663 4.06628-.10621.2549-.39895.37544-.65385.26923s-.37544-.39895-.26923-.65385c.72244-1.73385 1.91482-3.25766 3.42895-4.36732-.60586-.41315-1.34244-.65704-2.15055-.65704-2.17386 0-3.81667 1.64281-3.81667 3.81667zm-1.2568 5.69018-.00233-.0007z" fill="#18303f" fill-rule="evenodd"/></svg>