<svg fill="none" height="15" viewBox="0 0 15 15" width="15" xmlns="http://www.w3.org/2000/svg"><path d="m8.03134.645508c0-.276143-.22386-.5-.5-.5s-.5.223857-.5.5v1.510492l-.70876-.67913c-.19939-.19105-.5159-.18429-.70695.01509-.19105.19939-.18429.5159.0151.70695l1.40061 1.34206v.77641h-.42969c-.27614 0-.5.22386-.5.5 0 .27615.22386.5.5.5h.42969v1.34609l-1.2672-.70779.20669-.34328c.14244-.23657.06613-.54382-.17044-.68626s-.54382-.06613-.68626.17045l-.2235.3712-.72976-.4076-.49881-1.80563c-.07353-.26618-.34891-.42234-.61509-.34881-.26617.07353-.42234.34891-.3488.61509l.23596.85415-1.37772-.76952c-.24109-.13466-.54569-.04838-.680343.1927-.134657.24109-.048381.54569.192703.68035l1.35102.7546-.91763.23275c-.26766.06789-.42961.33992-.36172.60758.06789.26767.33991.42962.60758.36173l1.94201-.49257.68451.38233-.19343.32126c-.14243.23658-.06612.54382.17045.68626s.54382.06613.68626-.17044l.21023-.34918 1.22818.686-1.2023.67154-.23611-.39215c-.14244-.23658-.44969-.31289-.68626-.17045s-.31288.44969-.17045.68626l.21931.36424-.71367.39861-1.93873-.49174c-.26767-.06789-.53969.09406-.60758.36173-.06789.26766.09406.53969.36172.60758l.91436.23192-1.34775.75282c-.241084.1346-.32736.4392-.192703.6803.134653.2411.439253.3274.680343.1927l1.37859-.77-.23683.8573c-.07354.2662.08263.5416.3488.6151.26618.0735.54156-.0826.61509-.3488l.49968-1.8088.75477-.42157.19762.32823c.14244.23654.44969.31284.68626.17044.23657-.14243.31288-.44968.17044-.68625l-.18081-.30032 1.24132-.69333v1.34744h-.42969c-.27614 0-.5.22386-.5.49996 0 .2762.22386.5.5.5h.42969v.7772l-1.40061 1.3421c-.19939.191-.20615.5075-.0151.7069s.50756.2062.70695.0151l.70876-.6791v1.5099c0 .2761.22386.5.5.5s.5-.2239.5-.5v-1.5106l.70943.6798c.19939.1911.5159.1843.70695-.0151s.18429-.5159-.01509-.7069l-1.40129-1.3427v-.7766h.43634c.27614 0 .5-.2238.5-.5 0-.2761-.22386-.49996-.5-.49996h-.43634v-1.3142l1.18734.66318-.18143.28974c-.14655.23405-.07562.54258.15842.68914.23404.1465.54258.0756.68913-.15842l.208-.33221.7515.41976.4993 1.80717c.0735.2661.3489.4223.6151.3488.2661-.0735.4223-.3489.3488-.6151l-.2364-.8557 1.3757.7684c.241.1347.5456.0484.6803-.1927s.0484-.5457-.1927-.6803l-1.347-.75239.9161-.23235c.2676-.06789.4296-.33992.3617-.60758-.0679-.26767-.3399-.42962-.6076-.36173l-1.9404.49217-.693-.38706.1936-.3092c.1466-.23404.0756-.54258-.1584-.68913-.234-.14656-.5426-.07563-.68913.15842l-.22021.35166-1.22312-.68317 1.20159-.67115.23716.3939c.14241.23657.44971.31288.68621.17044.2366-.14243.3129-.44968.1705-.68625l-.2204-.36598.7119-.39762 1.9437.493c.2677.06789.5397-.09406.6076-.36173.0679-.26766-.0941-.53969-.3617-.60758l-.9194-.23318 1.3503-.75417c.2411-.13466.3274-.43926.1927-.68035-.1347-.24108-.4393-.32736-.6803-.1927l-1.3748.76789.2355-.85252c.0735-.26618-.0827-.54156-.3488-.61509-.2662-.07353-.5416.08263-.6151.34881l-.4984 1.804-.7592.42408-.19662-.32648c-.14244-.23658-.44969-.31289-.68626-.17045s-.31288.44969-.17044.68626l.17976.29857-1.1811.6597v-1.31286h.43634c.27614 0 .5-.22385.5-.5 0-.27614-.22386-.5-.5-.5h-.43634v-.77576l1.40129-1.34271c.19938-.19105.20614-.50756.01509-.70695-.19105-.19938-.50756-.20614-.70695-.01509l-.70943.67978z" fill="#18303f"/></svg>