<svg fill="none" height="15" viewBox="0 0 15 15" width="15" xmlns="http://www.w3.org/2000/svg"><path d="m1.875 6.93359c0 .34518.27982.625.625.625s.625-.27982.625-.625c0-2.41624 1.95875-4.375 4.375-4.375s4.375 1.95876 4.375 4.375c0 2.35425-1.8595 4.27421-4.18994 4.37121l.06111-.0612c.24408-.244.24408-.6398 0-.8838-.24408-.2441-.6398-.2441-.88388 0l-1.13236 1.1323c-.24407.2441-.24407.6398 0 .8839l1.13236 1.1323c.24408.2441.6398.2441.88388 0 .24408-.244.24408-.6398 0-.8838l-.06862-.0687c3.02445-.0937 5.44745-2.57501 5.44745-5.62221 0-3.1066-2.5184-5.625-5.625-5.625s-5.625 2.5184-5.625 5.625z" fill="#18303f"/></svg>