<svg fill="none" height="15" viewBox="0 0 15 15" width="15" xmlns="http://www.w3.org/2000/svg"><g clip-rule="evenodd" fill="#18303f" fill-rule="evenodd"><path d="m7.77338.899715c.06899-.196908.00846-.415957-.15185-.549501s-.38669-.153505-.56789-.050073c-1.11966.639109-1.88176 1.779139-1.88176 3.065109 0 .71209.22898 1.43788.70473 2.00691.68782.86959 1.50303 1.28258 3.28713 1.8955l.00606.00203c1.1668.38423 2.0268 1.27733 2.0268 2.34388 0 .15252-.0043.20907-.0213.25749-.069.19694-.0085.41594.1519.54954.1603.1335.3866.1535.5679.05 1.1196-.63908 1.8817-1.77911 1.8817-3.06508 0-.01345-.0005-.02689-.0016-.0403-.0565-.69889-.2853-1.35552-.7426-1.95397-.3843-.50596-.8659-.83158-1.4052-1.08812-.432-.2055-.9273-.37763-1.4494-.55907-.1119-.03889-.22501-.07821-.33902-.11838-1.44909-.51725-2.12576-1.44295-2.08721-2.46972.00023-.00625.00035-.01251.00035-.01876 0-.15252.00429-.209063.02126-.257485zm-1.6015 2.465535c0-.57418.22465-1.13028.62084-1.5828.2159 1.28978 1.23712 2.27954 2.71115 2.80541l.00184.00065c.12594.04437.247.08651.36361.12709.51938.18076.95068.33083 1.32848.51057.4481.21314.7812.45111 1.0388.79041l.001.00133c.3282.42926.4942.89331.5391 1.40749-.0052.57646-.2365 1.13367-.6402 1.58492-.2719-1.3384-1.4273-2.28556-2.65079-2.68942-1.76499-.60651-2.33251-.94467-2.82859-1.57393l-.00997-.01225c-.31085-.36965-.47527-.86266-.47527-1.36947z"/><path d="m3.82416 5.12823c.06899-.19691.00846-.41596-.15185-.5495s-.38669-.15351-.56789-.05007c-1.11966.63911-1.88176 1.77914-1.88176 3.06511 0 .71208.22898 1.43788.70473 2.0069.68782.86963 1.50303 1.28263 3.28714 1.89553l.00605.002c1.16677.3842 2.02677 1.2773 2.02677 2.3439 0 .1525-.00429.2091-.02126.2575-.06899.1969-.00846.4159.15185.5495.16031.1335.38669.1535.56789.05 1.11966-.6391 1.88176-1.7791 1.88176-3.0651 0-.0134-.00054-.0269-.00162-.0403-.05651-.6989-.28532-1.3555-.74262-1.95394-.38431-.50596-.86585-.83158-1.40518-1.08812-.43202-.2055-.92728-.37762-1.44935-.55906-.11175-.03884-.22522-.07828-.33906-.11838-1.44909-.51725-2.12576-1.44295-2.08721-2.46973.00024-.00625.00035-.0125.00035-.01876 0-.15252.00429-.20906.02126-.25748zm-1.6015 2.46554c0-.57418.22465-1.13028.62084-1.5828.21591 1.28978 1.23712 2.27954 2.71115 2.8054l.00184.00066c.12608.04442.24729.0866.36402.12722.5194.18076.95026.3307 1.32811.51044.44809.21314.78118.4511 1.03876.79041l.00102.0013c.32815.4293.49423.8933.5391 1.4075-.0052.5765-.23657 1.1337-.64022 1.5849-.27191-1.3384-1.42733-2.2855-2.65079-2.6894-1.76499-.60649-2.33251-.94465-2.82859-1.57391l-.00997-.01225c-.31085-.36966-.47527-.86266-.47527-1.36947z"/></g></svg>