<svg fill="none" height="15" viewBox="0 0 15 15" width="15" xmlns="http://www.w3.org/2000/svg"><path clip-rule="evenodd" d="m5.02858 1.15259c-.82843 0-1.5.67157-1.5 1.5v10.69481c0 .2761.22386.5.5.5h6.94282c.2762 0 .5-.2239.5-.5v-10.69481c0-.82843-.6716-1.5-1.49998-1.5zm-.5 1.5c0-.27614.22386-.5.5-.5h4.94284c.27618 0 .49998.22385.49998.5v10.19481h-5.94282zm3.84782 4.62864c0-.27614.22386-.5.5-.5h.59517.00024c.27615 0 .5.22386.5.5l-.00024.01576v.59616c0 .27614-.22386.5-.5.5s-.5-.22386-.5-.5v-.11192h-.09517c-.27614 0-.5-.22385-.5-.5z" fill="#18303f" fill-rule="evenodd"/></svg>