<svg fill="none" height="35" viewBox="0 0 34 35" width="34" xmlns="http://www.w3.org/2000/svg"><g fill="#92a0a9"><path clip-rule="evenodd" d="m17.9602 12.2799c-1.0972 0-1.9866.8895-1.9866 1.9867s.8894 1.9866 1.9866 1.9866 1.9867-.8894 1.9867-1.9866-.8895-1.9867-1.9867-1.9867zm-.9866 1.9867c0-.5449.4417-.9867.9866-.9867.545 0 .9867.4418.9867.9867s-.4417.9866-.9867.9866c-.5449 0-.9866-.4417-.9866-.9866z" fill-rule="evenodd"/><path clip-rule="evenodd" d="m23.8272 3.65223c.1935-.19695.1908-.51352-.0062-.70708-.1969-.19356-.5135-.19081-.7071.00613l-2.1832 2.22145-1.3588-1.3826c-.1517-.15432-.3235-.29068-.5335-.38561-.2123-.09603-.4375-.13792-.6808-.13792-.2432 0-.4684.04189-.6808.13792-.2099.09493-.3818.23129-.5334.38561l-3.9208 3.98933c-.0053.0054-.0104.01091-.0155.01654-2.2393 2.4955-2.4815 6.1179-.895 8.9553l-2.38949 2.4313c-.19119.1945-.19119.5064 0 .7009l.91009.926-5.45027 5.5457c-.6035.614-.87852 1.5003-.87852 2.3451 0 .8854.42732 1.8004 1.19726 2.2829 1.22275.9156 2.8386.5673 3.82511-.4364l4.16572-4.2387c.5392-.5486 1.4431-.5486 1.9823 0 .544.5535.544 1.4883 0 2.0417-.1935.197-.1908.5135.0062.7071.1969.1936.5135.1908.707-.0061.9264-.9426.9264-2.5011 0-3.4436-.931-.9474-2.4776-.9474-3.4087 0l-4.16573 4.2386c-.72331.736-1.79042.8881-2.52566.327-.01374-.0105-.02803-.0203-.04279-.0293-.44119-.2693-.74071-.8411-.74071-1.4432 0-.6512.21507-1.2609.59174-1.6442l5.43805-5.5333.8998.9155c.094.0957.2225.1495.3566.1495s.2626-.0538.3566-.1495l2.3349-2.3758c2.7683 1.6485 6.4132 1.2964 8.8524-.9696.0055-.0051.011-.0104.0163-.0158l3.9207-3.9894c.6813-.6932.6813-1.753 0-2.4462l-1.4317-1.4567 1.385-1.40925c.1936-.19695.1908-.51352-.0061-.70708-.197-.19356-.5135-.19081-.7071.00613l-1.3728 1.3968-4.5065-4.58535zm-12.8469 15.88077 1.8881-1.9212c.2497.3369.5286.6578.8364.959.2929.3386.6091.6427.944.9125l-1.8587 1.8912zm4.7907-.4782c.0075.0074.0147.0149.0216.0227 2.4068 1.5592 5.6752 1.3063 7.8526-.7096l3.9126-3.9811c.2989-.3041.2989-.7403 0-1.0444l-8.6991-8.85132c-.0934-.09502-.1666-.14566-.2323-.1754-.0633-.02863-.1445-.04908-.2688-.04908s-.2054.02045-.2687.04908c-.0658.02974-.1389.08038-.2323.1754l-3.9126 3.98108c-2.3758 2.65674-2.16 6.83384.4741 9.39744.0106.0103.0207.0211.0303.0323.3459.4022.7304.7486 1.1429 1.0394.0654.0238.1268.0616.1797.1135z" fill-rule="evenodd"/><path d="m29.5702 8.2063c0 .27614-.2239.5-.5.5-.2762 0-.5-.22386-.5-.5s.2238-.5.5-.5c.2761 0 .5.22386.5.5z"/><path d="m14.9859 30.738c.2762 0 .5-.2238.5-.5 0-.2761-.2238-.5-.5-.5-.2761 0-.5.2239-.5.5 0 .2762.2239.5.5.5z"/></g></svg>