<svg fill="none" height="34" viewBox="0 0 34 34" width="34" xmlns="http://www.w3.org/2000/svg"><g fill="#92a0a9"><path clip-rule="evenodd" d="m33.5499 6.16075c.0031.36109-.287.65635-.6482.65948l-2.388.02071.0059 3.50276.649-.0057c.3612-.0031.6563.2871.6595.6482.0031.3611-.2871.6563-.6481.6595l-.6582.0057.0018 1.0552c-.0072.8318-.6551 1.4796-1.4869 1.487-.3561.003-.8345.001-1.38-.0012h-.0019l-.3035-.0012c-.6748-.0026-1.4357-.0043-2.2035.0024-.0099 0-.0198-.0002-.0298-.0006-2.0817-.0765-3.8949-1.351-4.7118-3.1618-.059.0181-.1217.0281-.1867.0287l-1.9325.0168c-.1753.0015-.344-.0675-.468-.1915s-.193-.2927-.1914-.468l.0093-1.07666-10.36014.00003c-1.09979.01046-2.26095.57762-3.16335 1.48003-.85774.8577-1.26263 2.1124-1.0077 3.1665.00349.0144.00648.0289.00898.0435.15708.9189.56886 1.9106 2.15105 4.865l.18046.3212 1.31343-4.5465c.05163-.2773.15383-.5279.29357-.7489.04687-.14.1406-.2632.26949-.3449.48608-.5111 1.19766-.792 1.86893-.792 6.77018 0 13.39288 2.2566 18.88428 6.34.0528.0392.0981.085.1353.1352l4.4143 5.6558c.2894.3859.4593.8791.5219 1.3601.063.4825.026 1.0132-.162 1.4833-.2051.5128-.6.89-1.0213 1.1339-.4211.2438-.9128.3812-1.38.3812h-.1745l.0001.0362c0 2.2935-1.8109 4.1043-4.1042 4.1043-2.2934 0-4.1043-1.8108-4.1043-4.1043l.0002-.0362h-12.49411l.00014.0362c0 2.2935-1.81091 4.1043-4.10424 4.1043-2.29334 0-4.10426-1.8108-4.10426-4.1043 0-1.4832.75755-2.7647 1.91321-3.4848l-1.68203-2.8035c-.00862-.0144-.01668-.029-.02416-.044-.24291-.4859-.20536-1.0937-.03547-1.6033.00978-.0294.02164-.058.03547-.0856.13918-.2784.38067-.4994.62797-.6479.25368-.1522.57566-.2657.92297-.2657h1.3402l-.48114-.8565c-1.55649-2.9062-2.08467-4.0887-2.28655-5.2465-.36745-1.5586.23702-3.2542 1.35933-4.37648 1.08221-1.08221 2.55564-1.84981 4.07941-1.86302l.00568-.00005h10.37438l.0113-1.305c.0031-.35667.2915-.64505.6482-.64814l1.9325-.01677c.0782-.00068.1534.01241.2231.03701.8303-1.85003 2.6049-3.19538 4.7311-3.31043.0098-.00054.0197-.00084.0297-.00093l3.8013-.03297c.1732-.0015.3622.01845.5551.09125.1963.07403.3615.18936.5048.33267s.2585.3084.3327.50466c.0722.19163.0924.3794.0913.55155l.002 1.29747 2.3791-.02063c.3611-.00313.6564.28705.6595.64816zm-13.5916 2.34988c-.0297.42636-.0081.84251.0592 1.24328l-1.0765.00933.0205-2.38146 1.1001-.00955c-.071.36949-.1066.7504-.1033 1.1384zm9.144-4.44392c-.0124-.00185-.0331-.00374-.0656-.00345l-3.7859.03284c-2.2376.12896-4.0162 2.08902-3.9846 4.42575.0003.01934-.0004.03868-.0018.05796-.172 2.28359 1.6362 4.21519 3.8875 4.30589.7711-.0066 1.5333-.0047 2.2044-.0022l.3057.0012c.5473.0023 1.016.0042 1.3634.0012.0698-.0006.1134-.0254.1393-.0513.0256-.0256.0501-.0684.0512-.1369l-.0145-8.4696c.0004-.03253-.0015-.05319-.0034-.06559-.0017-.01157-.0034-.01616-.0036-.01679-.0002-.00043-.0008-.00231-.0038-.0068-.0036-.00525-.0121-.01677-.03-.03472-.018-.01794-.0295-.02642-.0348-.02994-.0044-.00301-.0062-.00368-.0066-.00383zm0 0c.0115.00173.0162.00348.0169.00372zm-22.49399 15.83909 1.08512-3.7561 1.0185 2.8857zm2.88217-2.5937-1.05149-2.9791c.20255-.147.46547-.2408.75263-.2408 6.21628 0 12.31428 1.9882 17.45638 5.6128l-3.4643 3.1263-2.5895-1.5935.7513-1.2522c.1858-.3097.0854-.7114-.2243-.8971-.3097-.1858-.7113-.0854-.8971.2243l-.9938 1.6563c-.0402.0382-.076.0821-.1065.1316-.0331.0538-.0575.1106-.0735.1685l-.8964 1.4939c-.1858.3097-.0854.7113.2243.8971.3096.1858.7112.0854.8971-.2243l.646-1.0767 2.2508 1.3851-.5732.5172c-.7281.6037-1.5471.9445-2.4701.9445h-3.9537l-2.4686-7.0159c-.003-.0087-.0062-.0174-.0096-.0259-.3927-.9816-1.5767-1.6193-2.6442-1.1923-.20449.0818-.39408.198-.56222.3402zm5.20262 9.2016c.0127.0004.0252.0004.0379 0h4.3978c1.2811 0 2.3912-.4842 3.3168-1.2556.0067-.0055.0132-.0111.0195-.0169l1.139-1.028c.0721-.0427.1365-.1.1891-.1705l3.8092-3.4377 3.9801 5.0994c.1232.1665.2278.4304.2682.7404.0407.3111.0085.6085-.0795.8284-.0709.1774-.228.3522-.4623.4878-.2346.1359-.5019.2053-.7248.2053h-.3931c-.5476-1.6185-2.0645-2.7603-3.8855-2.7603-1.8211 0-3.3378 1.1419-3.8855 2.7603h-12.93138c-.54754-1.6184-2.0644-2.7603-3.88543-2.7603-.33517 0-.66004.0387-.97046.112l-1.76326-2.9388c-.02868-.0736-.05385-.2602.02076-.5235.01824-.0206.05476-.0562.11648-.0932.09136-.0548.18343-.0794.25018-.0794h2.07544l3.67295 3.6729c.82104.8211 1.81522 1.1541 2.79252 1.1577.0103.0003.0206.0003.031 0zm-.9043-1.3077-2.3105-6.5668c-.1636-.3913-.63-.5771-.9399-.4531-.2961.1185-.4774.4095-.4996.6797l2.2377 6.3402zm-3.85885-.7746-3.17216-3.1721 2.38997-.989 1.67864 4.7561c-.3171-.1244-.6194-.3179-.89645-.595zm13.57895 4.8788c0-1.571 1.2254-2.7965 2.7966-2.7965 1.5711 0 2.7965 1.2255 2.7965 2.7965 0 1.5712-1.2254 2.7967-2.7965 2.7967-1.5712 0-2.7966-1.2255-2.7966-2.7967zm-17.90571-2.7965c-1.57113 0-2.79657 1.2255-2.79657 2.7965 0 1.5712 1.22544 2.7967 2.79657 2.7967 1.57111 0 2.79655-1.2255 2.79655-2.7967 0-1.571-1.22544-2.7965-2.79655-2.7965z" fill-rule="evenodd"/><path d="m33.442 11.452c-.2554.2553-.6694.2553-.9247 0-.2553-.2554-.2553-.6694 0-.9247.2553-.2554.6693-.2554.9247 0 .2553.2553.2553.6693 0 .9247z"/></g></svg>