<svg fill="none" height="35" viewBox="0 0 34 35" width="34" xmlns="http://www.w3.org/2000/svg"><g fill="#92a0a9"><path d="m17.2376 18.152c.2447-.1281.3392-.4302.2111-.6749-.128-.2446-.4302-.3392-.6748-.2111-.2447.1281-.3392.4302-.2111.6749.128.2446.4302.3391.6748.2111z"/><path clip-rule="evenodd" d="m7.05221 22.0689c.0442.0594.09199.1143.14283.1646l-5.89161 3.0841c-1.071632.5609-1.081274 2.1137.06351 2.6235 2.64986 1.1802 7.88014 3.2755 12.18696 3.5269.0537.0031.1075-.0024.1594-.0164 3.4948-.9431 6.4273-2.922 7.6701-3.8466.0582-.0434.1122-.0902.1617-.14l3.1215 5.9631c.5609 1.0717 2.1137 1.0813 2.6235-.0635 1.1801-2.6498 3.2755-7.8801 3.5269-12.187.0031-.0537-.0024-.1075-.0165-.1594-.943-3.4947-2.9219-6.4272-3.8465-7.67-.0432-.058-.0898-.1117-.1393-.161l5.8933-3.085c1.0717-.56098 1.0813-2.11376-.0635-2.62359-2.6498-1.1801-7.8801-3.27544-12.187-3.52683-.0536-.00313-.1075.00241-.1594.01642-3.4947.94306-6.4272 2.92193-7.67 3.84659-.0593.04411-.1141.09179-.1643.14251l-3.12419-5.96832c-.56097-1.071634-2.11375-1.081279-2.62358.0635-1.1801 2.64987-3.27545 7.88015-3.52683 12.18702-.00313.0537.00241.1075.01642.1594.94306 3.4947 2.92193 6.4272 3.84659 7.67zm1.40144-19.61615c-.19349-.36964-.67211-.33475-.82411.00656-1.14169 2.56361-3.0724 7.40525-3.41328 11.43709l10.43994 2.9014c.266.0739.4218.3495.3478.6156-.0739.2661-.3495.4218-.6156.3479l-9.96211-2.7686c.96167 2.9392 2.61003 5.3796 3.42822 6.4793.12478.1677.36091.2259.57074.1161l3.80845-1.9936c.2446-.1281.5468-.0336.6749.2111.128.2446.0335.5468-.2111.6748l-3.80848 1.9936c-.05389.0282-.10899.0529-.16497.074-.02777.0236-.05858.0445-.09222.0621l-6.86463 3.5934c-.36964.1935-.33475.6721.00656.8241 2.56361 1.1417 7.40526 3.0724 11.43704 3.4133l2.9014-10.4399c.074-.2661.3496-.4218.6157-.3479.266.074.4218.3496.3478.6157l-2.7686 9.9621c2.9393-.9617 5.3796-2.61 6.4793-3.4282.1678-.1248.2259-.3609.1161-.5708l-1.9936-3.8084c-.1281-.2447-.0335-.5468.2111-.6749.2447-.128.5468-.0335.6749.2111l1.9936 3.8085c.038.0727.0696.1476.0948.2239.0293.0316.0549.0676.0758.1076l3.5934 6.8647c.1935.3696.6721.3347.8241-.0066 1.1417-2.5636 3.0724-7.4053 3.4133-11.4371l-10.4399-2.9014c-.2661-.0739-.4218-.3495-.3479-.6156.074-.2661.3496-.4218.6156-.3479l9.9622 2.7686c-.9617-2.9392-2.6101-5.3796-3.4282-6.4793-.1248-.1677-.361-.2259-.5708-.1161l-3.8084 1.9936c-.2447.1281-.5468.0336-.6749-.2111-.1281-.2446-.0335-.5468.2111-.6748l3.8084-1.9936c.0589-.0308.1192-.0574.1805-.0798.0251-.0201.0524-.0382.082-.0537l6.8647-3.59337c.3696-.19349.3347-.67211-.0066-.82411-2.5636-1.14169-7.4052-3.0724-11.4371-3.41328l-2.9014 10.43996c-.0739.266-.3495.4218-.6156.3478-.266-.0739-.4218-.3495-.3478-.6156l2.7686-9.96213c-2.9393.96166-5.3797 2.61003-6.4794 3.42822-.1677.12478-.2259.36091-.116.57074l1.9936 3.80847c.128.2446.0335.5468-.2111.6748-.2447.1281-.5468.0336-.6749-.2111l-1.9936-3.8084c-.0373-.07123-.0684-.14459-.0933-.21929-.0321-.03339-.0601-.07183-.0826-.11493z" fill-rule="evenodd"/></g></svg>