<svg fill="none" height="35" viewBox="0 0 34 35" width="34" xmlns="http://www.w3.org/2000/svg"><g fill="#92a0a9"><path d="m12.1211 1.56445c0 .27615-.2239.5-.5.5s-.5-.22385-.5-.5c0-.27614.2239-.5.5-.5s.5.22386.5.5z"/><path d="m13.9965 1.92689c-.2631-.08399-.5444.06117-.6284.32423s.0611.5444.3242.62839c6.1501 1.96366 10.6164 7.41619 11.3604 14.00719.0609.5395.0979 1.4985.1073 2.075.0026.1619.0835.3125.217.4041.1334.0916.303.113.455.0572.5268-.193 1.0526-.419 1.5664-.6722.3855-.1899.7647-.3953 1.1329-.6139.2374-.1409.3157-.4477.1747-.6852-.141-.2374-.4477-.3156-.6852-.1747-.3456.2052-.7019.3982-1.0643.5768-.2697.1328-.5425.2575-.8165.3732-.0189-.5051-.05-1.0664-.0936-1.4525-.7875-6.97569-5.5181-12.76204-12.0499-14.84761z"/><path d="m13.1996 3.77022c-.0933-.25991-.3796-.39499-.6395-.3017s-.395.37961-.3017.63951c.5152 1.43537.8116 2.96701.8116 4.55512 0 1.81615-.3928 3.64085-1.099 5.38705-.4959-.681-.9076-1.3676-1.2504-2.088-.1187-.2493-.417-.3553-.6663-.2366-.24939.1187-.35532.417-.23665.6664.49185 1.0334 1.11095 1.9948 1.88645 2.9501.1087.134.2789.2024.4501.181.1712-.0213.3193-.1295.3918-.2861.9663-2.0871 1.524-4.3249 1.524-6.57385 0-1.71353-.3199-3.3593-.8704-4.89293z"/><path d="m8.28939 12.2378c.17636-.2125.14708-.5277-.06541-.7041-.21248-.1764-.52771-.1471-.70407.0654-2.00138 2.4113-3.04725 6.1445-3.04725 9.2501 0 .0063.00012.0127.00036.0191.27907 7.3135 6.28238 12.9429 13.53958 12.8022l.0101-.0003c7.1217-.2815 12.8389-6.1912 12.8389-13.498 0-.5617-.0277-1.1283-.0966-1.6861-.0339-.2741-.2835-.4688-.5576-.4349-.2741.0338-.4688.2834-.4349.5575.0629.5092.0891 1.0339.0891 1.5635 0 5.3729-3.3323 9.9212-7.9936 11.7033.0385-.0369.0766-.0744.1145-.1126l.0081-.0083.0039-.0042.0106-.0118c1.0125-1.1664 1.5961-2.6296 1.6001-4.238.1408-2.2276-1.0434-4.3029-3.096-5.3374-.0698-.0351-.1468-.0535-.225-.0535h-.2679c-.2194 0-.4066.1414-.4739.338-.0218.0255-.0471.0586-.0699.0967-.0407.0684-.0694.145-.0828.2282-.152.4319-.3967.7761-.6851 1.0655-.4045-1.004-.4376-2.1015-.1551-3.1432.0722-.2665-.0853-.5411-.3518-.6134s-.5411.0852-.6134.3517c-.397 1.4641-.274 3.056.5186 4.4541.071.1254.1927.2139.3337.2431.1411.0292.2879-.0039.4028-.0908.548-.4143 1.1364-.9895 1.4633-1.852 1.5515.8939 2.4186 2.5244 2.3036 4.2636-.0007.011-.0011.022-.0011.033 0 1.3582-.4864 2.5923-1.3444 3.5862-.9784.9804-2.1744 1.4518-3.4833 1.3319-.0152-.0014-.0304-.0021-.0456-.0021-1.3463 0-2.5613-.4897-3.5407-1.477-.0079-.0079-.0159-.0155-.0243-.0228-.952-.8396-1.4427-2.049-1.4427-3.4162 0-3.351 1.8343-6.4245 4.6808-8.1886.2347-.1454.3071-.4536.1616-.6884-.1454-.2347-.4536-.307-.6884-.1616-3.119 1.9329-5.154 5.3166-5.154 9.0386 0 1.6059.5799 3.0997 1.7687 4.1551.1631.1635.332.3157.5063.4566-4.79269-1.522-8.31809-5.8977-8.52654-11.2562.00216-2.9316 1.00124-6.4146 2.81673-8.6019z"/><path d="m30.3198 16.3239c0 .2761-.2238.5-.5.5-.2761 0-.5-.2239-.5-.5s.2239-.5.5-.5c.2762 0 .5.2239.5.5z"/><path d="m18.793 18.3232c.2761 0 .5-.2238.5-.5 0-.2761-.2239-.5-.5-.5-.2762 0-.5.2239-.5.5 0 .2762.2238.5.5.5z"/><path d="m9.34016 10.5498c.27614 0 .5-.2238.5-.5 0-.2761-.22386-.49996-.5-.49996-.27615 0-.5.22386-.5.49996 0 .2762.22385.5.5.5z"/></g></svg>