<svg fill="none" height="35" viewBox="0 0 34 35" width="34" xmlns="http://www.w3.org/2000/svg" xmlns:xlink="http://www.w3.org/1999/xlink"><mask id="a" fill="#fff"><path d="m9.60984 18.7425c-.27614 0-.5.2239-.5.5s.22386.5.5.5h12.35046c.2761 0 .5-.2239.5-.5s-.2239-.5-.5-.5z" fill="#fff"/><path d="m11.4048 22.6106c0-.2761.2239-.5.5-.5h12.4838c.2761 0 .5.2239.5.5 0 .2762-.2239.5-.5.5h-12.4838c-.2761 0-.5-.2238-.5-.5z" fill="#fff"/><path d="m9.60984 25.4788c-.27614 0-.5.2238-.5.5 0 .2761.22386.5.5.5h14.77706c.2762 0 .5-.2239.5-.5 0-.2762-.2238-.5-.5-.5z" fill="#fff"/><path d="m24.2108 19.743c.2761 0 .5-.2238.5-.5 0-.2761-.2239-.5-.5-.5-.2762 0-.5.2239-.5.5 0 .2762.2238.5.5.5z" fill="#fff"/><path d="m9.42953 23.1112c.27614 0 .5-.2239.5-.5 0-.2762-.22386-.5-.5-.5s-.5.2238-.5.5c0 .2761.22386.5.5.5z" fill="#fff"/><path clip-rule="evenodd" d="m16.9998 4.72055c1.7214-.03686 3.4288.31232 4.9969 1.02138.0759.00236.1503.02197.2176.05744l7.4536 3.9286c.1875.10503.3419.26029.4463.44813.1022.184.1523.3924.1451.6026v1.5556c.0106.154-.0109.3072-.0616.4504.0398.0717.0625.1543.0625.2422v16.1204c0 .2762-.2239.5-.5.5-.0445 0-.0876-.0058-.1286-.0167-.0399.0103-.0817.0157-.1248.0157h-25.23614c-.0105.0007-.02109.001-.03175.001-.01067 0-.02126-.0003-.03175-.001h-2.65638c-.27614 0-.5-.2238-.5-.5 0-.2761.22386-.5.5-.5h2.18813v-15.6194c0-.0878.02264-.1704.06239-.2421-.05133-.1416-.07428-.2933-.06608-.4461v-1.56c-.00729-.2102.04282-.4186.14506-.6026.10436-.18784.25893-.34296.44641-.44798l.0087-.00488 7.44231-3.97629c.0688-.03677.1453-.05689.2231-.05884 1.573-.69088 3.281-1.02163 4.999-.96756zm12.2087 8.80515c.0172 0 .0345-.0009.0517-.0027v15.1233h-1.7006c.0084-.0566.0127-.114.0127-.1719v-12.0904c0-.3107-.1235-.6087-.3432-.8285-.2197-.2197-.5178-.3432-.8285-.3432h-18.8072c-.31075 0-.60877.1235-.8285.3432-.21974.2198-.34318.5178-.34318.8285v12.0904c0 .0579.00428.1153.01268.1719h-1.69549v-15.1228c.01565.0015.03136.0022.04709.0022zm-12.2276-7.80524c-1.6061-.05248-3.203.26338-4.6682.92338-.0544.02452-.1127.03905-.1721.04301l-7.32802 3.91535c-.02433.0143-.04441.0348-.05814.0596-.01426.0256-.0211.0547-.01975.0841.00035.0076.00053.0153.00053.0229v1.5852c0 .012-.00043.0239-.00129.0359-.00241.0335.00813.0667.02945.0927.01713.0209.04016.0358.06584.0431h24.34278c.0247-.006.0469-.0199.0632-.0398.0196-.024.0291-.0548.0262-.0857-.0014-.0153-.0021-.0307-.0021-.0462v-1.5852c0-.0076.0001-.0153.0005-.0229.0013-.0294-.0055-.0585-.0198-.0841-.0135-.0245-.0333-.0449-.0573-.0591l-7.3271-3.86201c-.0619-.00391-.1225-.01928-.1789-.04541-1.461-.67765-3.058-1.01109-4.6682-.97468-.0092.00021-.0184.00016-.0276-.00014zm9.4028 22.92584h-18.77339l-.01691-.0003c-.04553 0-.0892-.018-.1214-.0502-.03219-.0322-.05028-.0759-.05028-.1214v-12.0904c0-.0455.01809-.0892.05028-.1214.0322-.0322.07587-.0503.1214-.0503h18.8072c.0455 0 .0892.0181.1214.0503s.0503.0759.0503.1214v12.0904c0 .0455-.0181.0892-.0503.1214s-.0759.0502-.1214.0502z" fill="#fff" fill-rule="evenodd"/><path d="m32.7577 29.1473c0 .2762-.2239.5-.5.5-.2762 0-.5-.2238-.5-.5 0-.2761.2238-.5.5-.5.2761 0 .5.2239.5.5z" fill="#fff"/></mask><g fill="#92a0a9"><path d="m9.60984 18.7425c-.27614 0-.5.2239-.5.5s.22386.5.5.5h12.35046c.2761 0 .5-.2239.5-.5s-.2239-.5-.5-.5z"/><path d="m11.4048 22.6106c0-.2761.2239-.5.5-.5h12.4838c.2761 0 .5.2239.5.5 0 .2762-.2239.5-.5.5h-12.4838c-.2761 0-.5-.2238-.5-.5z"/><path d="m9.60984 25.4788c-.27614 0-.5.2238-.5.5 0 .2761.22386.5.5.5h14.77706c.2762 0 .5-.2239.5-.5 0-.2762-.2238-.5-.5-.5z"/><path d="m24.2108 19.743c.2761 0 .5-.2238.5-.5 0-.2761-.2239-.5-.5-.5-.2762 0-.5.2239-.5.5 0 .2762.2238.5.5.5z"/><path d="m9.42953 23.1112c.27614 0 .5-.2239.5-.5 0-.2762-.22386-.5-.5-.5s-.5.2238-.5.5c0 .2761.22386.5.5.5z"/><path clip-rule="evenodd" d="m16.9998 4.72055c1.7214-.03686 3.4288.31232 4.9969 1.02138.0759.00236.1503.02197.2176.05744l7.4536 3.9286c.1875.10503.3419.26029.4463.44813.1022.184.1523.3924.1451.6026v1.5556c.0106.154-.0109.3072-.0616.4504.0398.0717.0625.1543.0625.2422v16.1204c0 .2762-.2239.5-.5.5-.0445 0-.0876-.0058-.1286-.0167-.0399.0103-.0817.0157-.1248.0157h-25.23614c-.0105.0007-.02109.001-.03175.001-.01067 0-.02126-.0003-.03175-.001h-2.65638c-.27614 0-.5-.2238-.5-.5 0-.2761.22386-.5.5-.5h2.18813v-15.6194c0-.0878.02264-.1704.06239-.2421-.05133-.1416-.07428-.2933-.06608-.4461v-1.56c-.00729-.2102.04282-.4186.14506-.6026.10436-.18784.25893-.34296.44641-.44798l.0087-.00488 7.44231-3.97629c.0688-.03677.1453-.05689.2231-.05884 1.573-.69088 3.281-1.02163 4.999-.96756zm12.2087 8.80515c.0172 0 .0345-.0009.0517-.0027v15.1233h-1.7006c.0084-.0566.0127-.114.0127-.1719v-12.0904c0-.3107-.1235-.6087-.3432-.8285-.2197-.2197-.5178-.3432-.8285-.3432h-18.8072c-.31075 0-.60877.1235-.8285.3432-.21974.2198-.34318.5178-.34318.8285v12.0904c0 .0579.00428.1153.01268.1719h-1.69549v-15.1228c.01565.0015.03136.0022.04709.0022zm-12.2276-7.80524c-1.6061-.05248-3.203.26338-4.6682.92338-.0544.02452-.1127.03905-.1721.04301l-7.32802 3.91535c-.02433.0143-.04441.0348-.05814.0596-.01426.0256-.0211.0547-.01975.0841.00035.0076.00053.0153.00053.0229v1.5852c0 .012-.00043.0239-.00129.0359-.00241.0335.00813.0667.02945.0927.01713.0209.04016.0358.06584.0431h24.34278c.0247-.006.0469-.0199.0632-.0398.0196-.024.0291-.0548.0262-.0857-.0014-.0153-.0021-.0307-.0021-.0462v-1.5852c0-.0076.0001-.0153.0005-.0229.0013-.0294-.0055-.0585-.0198-.0841-.0135-.0245-.0333-.0449-.0573-.0591l-7.3271-3.86201c-.0619-.00391-.1225-.01928-.1789-.04541-1.461-.67765-3.058-1.01109-4.6682-.97468-.0092.00021-.0184.00016-.0276-.00014zm9.4028 22.92584h-18.77339l-.01691-.0003c-.04553 0-.0892-.018-.1214-.0502-.03219-.0322-.05028-.0759-.05028-.1214v-12.0904c0-.0455.01809-.0892.05028-.1214.0322-.0322.07587-.0503.1214-.0503h18.8072c.0455 0 .0892.0181.1214.0503s.0503.0759.0503.1214v12.0904c0 .0455-.0181.0892-.0503.1214s-.0759.0502-.1214.0502z" fill-rule="evenodd"/><path d="m32.7577 29.1473c0 .2762-.2239.5-.5.5-.2762 0-.5-.2238-.5-.5 0-.2761.2238-.5.5-.5.2761 0 .5.2239.5.5z"/></g><g stroke="#92a0a9" stroke-width="2"><path d="m9.60984 18.7425c-.27614 0-.5.2239-.5.5s.22386.5.5.5h12.35046c.2761 0 .5-.2239.5-.5s-.2239-.5-.5-.5z" mask="url(#a)"/><path d="m11.4048 22.6106c0-.2761.2239-.5.5-.5h12.4838c.2761 0 .5.2239.5.5 0 .2762-.2239.5-.5.5h-12.4838c-.2761 0-.5-.2238-.5-.5z" mask="url(#a)"/><path d="m9.60984 25.4788c-.27614 0-.5.2238-.5.5 0 .2761.22386.5.5.5h14.77706c.2762 0 .5-.2239.5-.5 0-.2762-.2238-.5-.5-.5z" mask="url(#a)"/><path d="m24.2108 19.743c.2761 0 .5-.2238.5-.5 0-.2761-.2239-.5-.5-.5-.2762 0-.5.2239-.5.5 0 .2762.2238.5.5.5z" mask="url(#a)"/><path d="m9.42953 23.1112c.27614 0 .5-.2239.5-.5 0-.2762-.22386-.5-.5-.5s-.5.2238-.5.5c0 .2761.22386.5.5.5z" mask="url(#a)"/><path clip-rule="evenodd" d="m16.9998 4.72055c1.7214-.03686 3.4288.31232 4.9969 1.02138.0759.00236.1503.02197.2176.05744l7.4536 3.9286c.1875.10503.3419.26029.4463.44813.1022.184.1523.3924.1451.6026v1.5556c.0106.154-.0109.3072-.0616.4504.0398.0717.0625.1543.0625.2422v16.1204c0 .2762-.2239.5-.5.5-.0445 0-.0876-.0058-.1286-.0167-.0399.0103-.0817.0157-.1248.0157h-25.23614c-.0105.0007-.02109.001-.03175.001-.01067 0-.02126-.0003-.03175-.001h-2.65638c-.27614 0-.5-.2238-.5-.5 0-.2761.22386-.5.5-.5h2.18813v-15.6194c0-.0878.02264-.1704.06239-.2421-.05133-.1416-.07428-.2933-.06608-.4461v-1.56c-.00729-.2102.04282-.4186.14506-.6026.10436-.18784.25893-.34296.44641-.44798l.0087-.00488 7.44231-3.97629c.0688-.03677.1453-.05689.2231-.05884 1.573-.69088 3.281-1.02163 4.999-.96756zm12.2087 8.80515c.0172 0 .0345-.0009.0517-.0027v15.1233h-1.7006c.0084-.0566.0127-.114.0127-.1719v-12.0904c0-.3107-.1235-.6087-.3432-.8285-.2197-.2197-.5178-.3432-.8285-.3432h-18.8072c-.31075 0-.60877.1235-.8285.3432-.21974.2198-.34318.5178-.34318.8285v12.0904c0 .0579.00428.1153.01268.1719h-1.69549v-15.1228c.01565.0015.03136.0022.04709.0022zm-12.2276-7.80524c-1.6061-.05248-3.203.26338-4.6682.92338-.0544.02452-.1127.03905-.1721.04301l-7.32802 3.91535c-.02433.0143-.04441.0348-.05814.0596-.01426.0256-.0211.0547-.01975.0841.00035.0076.00053.0153.00053.0229v1.5852c0 .012-.00043.0239-.00129.0359-.00241.0335.00813.0667.02945.0927.01713.0209.04016.0358.06584.0431h24.34278c.0247-.006.0469-.0199.0632-.0398.0196-.024.0291-.0548.0262-.0857-.0014-.0153-.0021-.0307-.0021-.0462v-1.5852c0-.0076.0001-.0153.0005-.0229.0013-.0294-.0055-.0585-.0198-.0841-.0135-.0245-.0333-.0449-.0573-.0591l-7.3271-3.86201c-.0619-.00391-.1225-.01928-.1789-.04541-1.461-.67765-3.058-1.01109-4.6682-.97468-.0092.00021-.0184.00016-.0276-.00014zm9.4028 22.92584h-18.77339l-.01691-.0003c-.04553 0-.0892-.018-.1214-.0502-.03219-.0322-.05028-.0759-.05028-.1214v-12.0904c0-.0455.01809-.0892.05028-.1214.0322-.0322.07587-.0503.1214-.0503h18.8072c.0455 0 .0892.0181.1214.0503s.0503.0759.0503.1214v12.0904c0 .0455-.0181.0892-.0503.1214s-.0759.0502-.1214.0502z" fill-rule="evenodd" mask="url(#a)"/><path d="m32.7577 29.1473c0 .2762-.2239.5-.5.5-.2762 0-.5-.2238-.5-.5 0-.2761.2238-.5.5-.5.2761 0 .5.2239.5.5z" mask="url(#a)"/></g></svg>