<svg fill="none" height="35" viewBox="0 0 34 35" width="34" xmlns="http://www.w3.org/2000/svg"><g clip-rule="evenodd" fill="#92a0a9" fill-rule="evenodd"><path d="m10.4937 24.4313c.1077.2542-.011.5477-.2652.6555l-2.10403.8921c-.10922.0463-.23134.0522-.34455.0168-.18107-.0567-.35296-.1139-.51799-.1689-.37123-.1237-.70773-.2357-1.03596-.3037-.46691-.0967-.75683-.0642-.95143.0678m5.21916-1.1596c-.1078-.2542-.4013-.373-.65556-.2652zm-.65556-.2652-1.93313.8196zm-1.93313.8196c-.08616-.0281-.17468-.0575-.26478-.0875-.39612-.1319-.82264-.2738-1.21145-.3543-.54508-.1129-1.17777-.1455-1.71582.2196-.51282.3481-.83204.7699-.9797 1.2418-.14528.4644-.10899.9274-.00217 1.3385.17072.657.55814 1.2862.80411 1.6857.05021.0815.09453.1535.12991.2142l1.37316 2.2504c.53277 1.0652 1.86526 1.3765 2.86507.9025.57408-.2721.94162-.8824 1.15936-1.402.1859-.4437.3041-.9219.3398-1.294l2.2338-2.2339c.1953-.1952.1953-.5118 0-.7071-.1952-.1952-.5118-.1952-.7071 0l-2.36888 2.3689c-.09355.0936-.14621.2204-.14645.3527-.0004.2256-.08638.6804-.27351 1.127-.19408.4632-.43835.7772-.66537.8848-.59512.2821-1.30124.0519-1.54816-.458-.00704-.0145-.01478-.0287-.0232-.0425l-1.37717-2.2569c-.0524-.0897-.10958-.1833-.16887-.2804-.24666-.4038-.52995-.8677-.65864-1.3629-.07602-.2926-.08418-.5555-.01131-.7884.0705-.2253.23217-.4721.5869-.713"/><path d="m22.7346 24.3563c.1139-.2516.4101-.3632.6617-.2493l1.9632.8885c.3568-.1912.8546-.3585 1.3399-.4504.3212-.0608.6652-.0945.9917-.0734.3205.0207.6666.0969.9531.2937.9436.6483 1.0349 1.6621.881 2.4985-.153.8313-.5624 1.6183-.8082 2.0455-.0039.0069-.008.0136-.0122.0202l-1.3841 2.1628c-.5322 1.0702-1.8644 1.3799-2.8655.8983-.571-.2747-.9401-.8796-1.16-1.3985-.1873-.4417-.307-.9182-.3428-1.2908l-2.4549-2.4534c-.1953-.1953-.1954-.5118-.0002-.7072.1952-.1953.5118-.1954.7071-.0002l2.5902 2.5887c.0939.0937.1466.221.1466.3536 0 .2239.0863.6746.2747 1.1191.1947.4595.441.776.6728.8876.5954.2864 1.2985.0569 1.5441-.4578.0089-.0186.0189-.0367.0301-.0541l1.3931-2.177c.2312-.4032.5654-1.0643.6857-1.7178.1203-.6537.0118-1.1665-.4638-1.4932-.0808-.0556-.2259-.1055-.4513-.1201-.2195-.0141-.4761.0078-.7411.058-.55.1042-1.0221.3064-1.1874.4317-.1462.1108-.3412.1327-.5082.0571l-2.2059-.9984c-.2516-.1139-.3632-.4101-.2494-.6617z"/><path d="m8.64627 13.3517c0-1.7268 1.49323-3.22 3.22003-3.22s3.22 1.4932 3.22 3.22-1.4932 3.22-3.22 3.22-3.22003-1.4932-3.22003-3.22zm3.22003-2.22c-1.1746 0-2.22003 1.0455-2.22003 2.22s1.04543 2.22 2.22003 2.22c1.1745 0 2.22-1.0455 2.22-2.22s-1.0455-2.22-2.22-2.22z"/><path d="m18.1663 13.3517c0-1.7268 1.4932-3.22 3.22-3.22s3.22 1.4932 3.22 3.22-1.4932 3.22-3.22 3.22-3.22-1.4932-3.22-3.22zm3.22-2.22c-1.1746 0-2.22 1.0455-2.22 2.22s1.0454 2.22 2.22 2.22c1.1745 0 2.22-1.0455 2.22-2.22s-1.0455-2.22-2.22-2.22z"/><path d="m16.6794 2.97168c-5.4511 0-9.87001 4.41895-9.87001 9.87002 0 1.0714.17037 2.4471.48912 3.7624.32092 1.3241.77931 2.5327 1.32587 3.3029.04612.065.07604.14.08726.2189.0026.0183.00537.0379.0083.0586.04289.3031.122.8623.23802 1.4052.06209.2906.13222.5642.20879.7845.03822.11.07534.1989.10993.2662.01708.0332.03197.0581.04405.0759.01234.0182.01889.0249.01889.0249l5.76998 5.7699c.867.867 2.2726.867 3.1396 0l5.77-5.7699s.007-.0075.0189-.0249c.012-.0178.0269-.0427.044-.0759.0346-.0673.0717-.1562.1099-.2662.0766-.2203.1467-.4939.2088-.7845.116-.5429.1952-1.102.238-1.4051.003-.0208.0057-.0404.0083-.0587.0113-.0789.0412-.1539.0873-.2189.5466-.7702 1.005-1.9788 1.3259-3.3029.3187-1.3153.4891-2.691.4891-3.7624 0-5.45107-4.419-9.87002-9.87-9.87002zm-10.87001 9.87002c0-6.00336 4.86671-10.87002 10.87001-10.87002s10.87 4.86666 10.87 10.87002c0 1.1621-.1827 2.6174-.5173 3.9979-.3203 1.3218-.7918 2.6254-1.4114 3.5438-.0448.3154-.1256.8707-.242 1.4153-.0661.3096-.1463.628-.2421.9037-.0883.2543-.2152.5508-.4103.7459l-5.77 5.77c-1.2575 1.2574-3.2963 1.2574-4.5538 0l-5.76998-5.77c-.1951-.1951-.32205-.4916-.41038-.7459-.09579-.2757-.17596-.5941-.2421-.9037-.11638-.5446-.1972-1.0999-.24192-1.4153-.61962-.9184-1.09114-2.222-1.41147-3.5438-.33457-1.3805-.51726-2.8358-.51726-3.9979z"/><path d="m11.053 21.5544 4.1701-4.1702c.7811-.781 2.0474-.781 2.8285 0l4.2107 4.2107c.781.7811.781 2.0474 0 2.8285l-4.1702 4.1701c-.781.7811-2.0473.7811-2.8284 0l-4.2107-4.2107c-.7811-.7811-.7811-2.0474 0-2.8284zm-.7071 3.5355c-1.17159-1.1716-1.17159-3.0711 0-4.2426l4.1701-4.1702c1.1716-1.1716 3.0711-1.1716 4.2427 0l4.2107 4.2107c1.1716 1.1716 1.1716 3.0711 0 4.2427l-4.1702 4.1701c-1.1715 1.1716-3.071 1.1716-4.2426 0zm6.3311-1.5288c.2762 0 .5-.2238.5-.5 0-.2761-.2238-.5-.5-.5-.2761 0-.5.2239-.5.5 0 .2762.2239.5.5.5zm-2.6992-.5c0 .2762-.2238.5-.5.5-.2761 0-.5-.2238-.5-.5 0-.2761.2239-.5.5-.5.2762 0 .5.2239.5.5zm1.0977-2.4599c.2761 0 .5-.2239.5-.5 0-.2762-.2239-.5-.5-.5-.2762 0-.5.2238-.5.5 0 .2761.2238.5.5.5zm3.6992-.5c0 .2761-.2239.5-.5.5s-.5-.2239-.5-.5c0-.2762.2239-.5.5-.5s.5.2238.5.5zm1.1016 3.4599c.2761 0 .5-.2238.5-.5 0-.2761-.2239-.5-.5-.5-.2762 0-.5.2239-.5.5 0 .2762.2238.5.5.5zm-1.1016 2.3155c0 .2761-.2239.5-.5.5s-.5-.2239-.5-.5c0-.2762.2239-.5.5-.5s.5.2238.5.5zm-3.6992.5c.2761 0 .5-.2239.5-.5 0-.2762-.2239-.5-.5-.5-.2762 0-.5.2238-.5.5 0 .2761.2238.5.5.5z"/></g></svg>