<svg fill="none" height="34" viewBox="0 0 34 34" width="34" xmlns="http://www.w3.org/2000/svg"><g clip-rule="evenodd" fill="#92a0a9" fill-rule="evenodd"><path d="m16.6834 12.1702v8.5c0 .3612.2928.6538.6539.6538s.6538-.2926.6538-.6538v-8.5h.6538c.541 0 1.0425-.1831 1.4105-.5511s.5511-.8695.5511-1.4104c0-.54091-.1831-1.04246-.5511-1.41043s-.8695-.55113-1.4105-.55113h-.6538v-1.96153c0-.36111-.2927-.65385-.6538-.65385s-.6539.29274-.6539.65385v1.96153h-.6538c-.5409 0-1.0424.18316-1.4104.55113s-.5512.86952-.5512 1.41043c0 .5409.1832 1.0424.5512 1.4104s.8695.5511 1.4104.5511zm1.9615-1.3077c.2438 0 .3961-.0784.4859-.1681.0897-.0897.168-.242.168-.4857 0-.24375-.0783-.39604-.168-.48576-.0898-.08972-.2421-.1681-.4859-.1681h-2.6153c-.2437 0-.396.07838-.4857.1681s-.1682.24201-.1682.48576c0 .2437.0785.396.1682.4857s.242.1681.4857.1681z"/><path d="m25.1834 20.6702v-1.9616h-.6538c-.9718 0-1.9616-.774-1.9616-1.9615 0-.5409.1832-1.0424.5512-1.4104.368-.3679.8695-.5511 1.4104-.5511h.6538v-8.49999c0-.36111.2928-.65385.6539-.65385s.6538.29274.6538.65385v8.49999h.6538c.541 0 1.0425.1832 1.4105.5511.368.368.5511.8695.5511 1.4104 0 .541-.1831 1.0425-.5511 1.4105s-.8695.551-1.4105.551h-.6538v1.9616c0 .3612-.2927.6538-.6538.6538s-.6539-.2926-.6539-.6538zm2.4474-3.4373c-.0898.0897-.2421.168-.4859.168h-2.6153c-.336 0-.6539-.272-.6539-.6538 0-.2436.0785-.396.1682-.4857s.242-.1682.4857-.1682h2.6153c.2438 0 .3961.0785.4859.1682.0897.0897.168.2421.168.4857 0 .2437-.0783.3961-.168.4858z"/><path d="m8.83729 5.63176c.36112 0 .65385.29274.65385.65385v5.88459h.65386c.5409 0 1.0424.1832 1.4104.5511.368.368.5511.8695.5511 1.4104 0 .541-.1831 1.0425-.5511 1.4105s-.8695.551-1.4104.551h-.65386v4.577c0 .3612-.29273.6538-.65385.6538-.3611 0-.65384-.2926-.65384-.6538v-4.577h-.65385c-.54089 0-1.04244-.183-1.41041-.551s-.55113-.8695-.55113-1.4105c0-.5409.18316-1.0424.55113-1.4104.36797-.3679.86952-.5511 1.41041-.5511h.65385v-5.88459c0-.36111.29274-.65385.65384-.65385zm1.79341 8.98574c-.0897.0897-.242.1681-.4857.1681h-2.6154c-.24371 0-.39601-.0784-.48573-.1681s-.16812-.242-.16812-.4858c0-.2436.0784-.396.16812-.4857s.24202-.1681.48573-.1681h2.6154c.2437 0 .396.0784.4857.1681s.1681.2421.1681.4857c0 .2438-.0784.3961-.1681.4858z"/><path d="m25.8373 24.4323c-1.1445 0-2.1227.9781-2.1227 2.1226s.9782 2.1228 2.1227 2.1228 2.1227-.9783 2.1227-2.1228-.9782-2.1226-2.1227-2.1226zm-.815 2.1226c0-.4222.3927-.8149.815-.8149.4222 0 .815.3927.815.8149 0 .4224-.3928.8151-.815.8151-.4223 0-.815-.3927-.815-.8151z"/><path d="m15.1878 26.5527c0-1.1457.9793-2.125 2.125-2.125 1.1458 0 2.125.9793 2.125 2.125s-.9792 2.125-2.125 2.125c-1.1457 0-2.125-.9793-2.125-2.125zm2.125-.8173c-.4234 0-.8173.3937-.8173.8173s.3939.8173.8173.8173c.4236 0 .8173-.3937.8173-.8173s-.3937-.8173-.8173-.8173z"/><path d="m8.83737 24.4321c-1.14453 0-2.12275.9783-2.12275 2.1228s.97822 2.1228 2.12275 2.1228c1.14452 0 2.12273-.9783 2.12273-2.1228s-.97821-2.1228-2.12273-2.1228zm-.81506 2.1228c0-.4222.39276-.8151.81506-.8151.42231 0 .81505.3929.81505.8151 0 .4223-.39274.8151-.81505.8151-.4223 0-.81506-.3928-.81506-.8151z"/><path d="m1.64499 8.90099c0-3.97221 3.22011-7.19231 7.19231-7.19231h17c3.9722 0 7.1923 3.2201 7.1923 7.19231v16.99991c0 3.9723-3.2201 7.1923-7.1923 7.1923h-17c-3.9722 0-7.19231-3.22-7.19231-7.1923zm7.19231-5.88462c-3.24998 0-5.88462 2.63464-5.88462 5.88462v16.99991c0 3.25 2.63464 5.8847 5.88462 5.8847h17c3.25 0 5.8846-2.6347 5.8846-5.8847v-16.99991c0-3.24998-2.6346-5.88462-5.8846-5.88462z"/></g></svg>