<svg fill="none" height="35" viewBox="0 0 34 35" width="34" xmlns="http://www.w3.org/2000/svg"><g fill="#92a0a9"><path clip-rule="evenodd" d="m26.9502 1.94535c-1.8117.7739-4.0544 2.14591-6.5162 3.97165-4.8396-2.18901-10.77411-.52508-13.83508 3.99982-2.20149 3.25438-2.36699 7.30118-.8615 10.68028-1.84181 2.4145-3.22427 4.672-4.00235 6.5111-.39999.9455-.65164 1.8066-.7108 2.5362-.058491.7214.06614 1.4044.5344 1.8726.70393.704 1.82562.6843 3.00132.3536 1.21472-.3417 2.69091-1.0691 4.32806-2.089 3.28155-2.0442 7.31245-5.3287 11.36625-9.3114 4.0578-3.9867 7.3447-8.0201 9.3725-11.32213 1.0118-1.64756 1.7256-3.13767 2.0556-4.36404.3194-1.18703.3263-2.31447-.375-3.01576-.4667-.46671-1.139-.59325-1.8533-.53434-.7197.05936-1.5681.31167-2.5039.71142zm-6.5528 5.06275c-.0994-.01469-.1943-.05912-.2704-.13121-4.4091-2.05607-9.8833-.56322-12.69979 3.60021-3.09739 4.5788-1.75624 10.9292 2.84099 14.0391.2287.1547.2887.4655.134.6943-.1547.2287-.46557.2887-.69429.1339-1.46876-.9935-2.63608-2.2899-3.46804-3.7533-1.66325 2.2256-2.88991 4.2666-3.58383 5.9068-.37918.8962-.58795 1.6466-.63504 2.2273-.04776.5891.07553.9155.24477 1.0847.28774.2878.90146.4137 2.02342.098 1.08293-.3046 2.46664-.9762 4.07011-1.9751 3.1998-1.9932 7.173-5.2254 11.1942-9.176 4.0172-3.9467 7.247-7.9174 9.2212-11.13206.9892-1.61078 1.6478-3.00712 1.9421-4.10055.3048-1.13275.1739-1.75844-.1165-2.04882-.1708-.17078-.4901-.29216-1.064-.24482-.5686.04689-1.3051.25499-2.1933.63441-1.6178.69111-3.6474 1.91044-5.9176 3.56435.2026.11846.4027.24431.5998.37762 1.3247.88341 2.3694 1.92377 3.1202 3.12505.1464.23412.0752.54262-.159.68902-.2342.1463-.5426.0751-.689-.159-.6656-1.06497-1.6038-2.00761-2.8283-2.824l-.0029-.00188c-.3468-.23464-.7038-.44381-1.0688-.62802z" fill-rule="evenodd"/><path d="m3.1875 1.48043c.27614 0 .5.22386.5.5v1.625h1.625c.27614 0 .5.22386.5.5 0 .27615-.22386.5-.5.5h-1.625v1.76667c0 .27614-.22386.5-.5.5s-.5-.22386-.5-.5v-1.76667h-1.625c-.276142 0-.5-.22385-.5-.5 0-.27614.223858-.5.5-.5h1.625v-1.625c0-.27614.22386-.5.5-.5z"/><path clip-rule="evenodd" d="m29.1875 25.3554c0-.2761-.2239-.5-.5-.5s-.5.2239-.5.5c0 2.1322-1.6178 3.75-3.75 3.75-.2761 0-.5.2239-.5.5 0 .2762.2239.5.5.5 2.1322 0 3.75 1.6178 3.75 3.75 0 .2762.2239.5.5.5s.5-.2238.5-.5c0-2.1322 1.6178-3.75 3.75-3.75.2761 0 .5-.2238.5-.5 0-.2761-.2239-.5-.5-.5-2.1322 0-3.75-1.6178-3.75-3.75zm1.5772 4.25c-.9027.4486-1.6286 1.1746-2.0772 2.0773-.4486-.9027-1.1745-1.6287-2.0772-2.0773.9027-.4485 1.6286-1.1745 2.0772-2.0772.4486.9027 1.1745 1.6287 2.0772 2.0772z" fill-rule="evenodd"/><path d="m27.0625 16.1471c0-.2761-.2239-.5-.5-.5s-.5.2239-.5.5c0 5.5322-4.5928 10.125-10.125 10.125-.2761 0-.5.2239-.5.5s.2239.5.5.5c6.0845 0 11.125-5.0405 11.125-11.125z"/></g></svg>