<svg fill="none" height="35" viewBox="0 0 34 35" width="34" xmlns="http://www.w3.org/2000/svg"><g fill="#92a0a9"><path clip-rule="evenodd" d="m32.9136 7.95365c0-.76291-.5889-1.35184-1.3518-1.35184-.6494 0-1.257.31965-1.6922.7549-.0142.01422-.0276.02929-.04.04512-3.4357 4.38357-8.5242 6.86657-13.9661 6.86657h-.7301c-.0488 0-.0959.007-.1404.02l-11.59021.0659c-.29773-.0949-.53457-.1969-.74488-.3454-.22287-.1574-.44066-.3846-.6602-.759-.11416-.1947-.34457-.2887-.56235-.2296-.21778.0592-.36895.2569-.36895.4825v5.4127c0 .2115.13309.4002.33237.4711s.42162.0087.55523-.1552c.27039-.3318.46297-.5491.6816-.7256.19686-.1589.43093-.2973.78644-.4416l1.7876.0106c-1.11574 2.6371-.11185 5.8771 2.37448 7.4071l.01329.0079.00594.0034c.91494.5083 1.87517.8378 3.05374.7361h8.2209c3.3535 0 5.9815-2.628 5.9815-5.9815 0-2.6905-1.744-4.8282-4.086-5.6359 3.8247-1.0457 7.2608-3.3094 9.8233-6.56787.2913-.28258.6481-.44222.965-.44222.2106 0 .3518.14121.3518.35184v17.28025c0 .1963-.1226.3323-.3097.3499-.4887-.1061-.8551-.2981-1.1252-.5585-.8939-1.1865-1.9057-2.2169-3.0191-3.1058-.2158-.1723-.5304-.137-.7027.0788s-.137.5304.0788.7027c1.058.8447 2.018 1.8243 2.8658 2.9546.0142.0189.0297.0368.0464.0536.4479.4479 1.0304.7298 1.7158.8668.0323.0065.0651.0097.0981.0098.7629 0 1.3518-.589 1.3518-1.3519zm-24.81474 16.67085c-2.18473-1.3515-2.98115-4.3079-1.78618-6.5407l2.16578.0116c-.53328.5612-.88502 1.3118-.93883 2.1191-.1144 1.716 1.25251 3.3221 3.09537 3.3221h8.243c1.8148 0 3.1927-1.3778 3.1927-3.1927 0-1.8143-1.3772-3.192-3.1914-3.1926h-.0013l-8.1903-.044h-.003l-7.3537-.0437c-.06277-.0003-.12506.0111-.18359.0338-.44525.1725-.78316.354-1.081.5838v-2.8659l.01475.0105c.35229.2487.72551.3924 1.10073.5071.04828.0147.09851.0221.14899.0218l15.54032-.0884c2.7339.0928 4.9883 2.2031 4.9883 4.9815 0 2.8012-2.1803 4.9815-4.9815 4.9815h-8.243c-.0151 0-.0302.0007-.0453.002-.92268.0839-1.68442-.1602-2.49084-.6068zm.43855-4.3435c.08059-1.2087 1.09191-2.1729 2.14599-2.1737h.0013l8.1906.044h.0027c1.2625 0 2.1927.9301 2.1927 2.1926 0 1.2626-.9302 2.1927-2.1927 2.1927h-8.243c-1.23445 0-2.17553-1.0865-2.09759-2.2556z" fill-rule="evenodd"/><path d="m12.0977 11.9622c0 .2761-.2239.5-.5.5-.2762 0-.5-.2239-.5-.5 0-.2762.2238-.5.5-.5.2761 0 .5.2238.5.5z"/><path d="m14.6953 12.4622c.2762 0 .5-.2239.5-.5 0-.2762-.2238-.5-.5-.5-.2761 0-.5.2238-.5.5 0 .2761.2239.5.5.5z"/><path d="m18.2891 11.9622c0 .2761-.2239.5-.5.5-.2762 0-.5-.2239-.5-.5 0-.2762.2238-.5.5-.5.2761 0 .5.2238.5.5z"/><path d="m25.8045 21.8236c.2761 0 .5-.2238.5-.5 0-.2761-.2239-.5-.5-.5-.2762 0-.5.2239-.5.5 0 .2762.2238.5.5.5z"/></g></svg>