<svg fill="none" height="26" viewBox="0 0 25 26" width="25" xmlns="http://www.w3.org/2000/svg"><g fill="#18303f"><path clip-rule="evenodd" d="m22.6818 5.54841c0-.63406-.4923-1.12635-1.1264-1.12635-.5205 0-.9992.25523-1.3378.59384-.0142.01422-.0276.02929-.04.04511-2.5016 3.19166-6.2049 4.99829-10.165 4.99829h-.5369c-.0495 0-.09732.0071-.14246.0205l-4.83222.0423c-.10269-.0286-.22395-.0584-.34627-.0884l-.12348-.0304c-.20519-.05102-.42258-.10791-.63157-.17694-.21077-.06962-.39728-.14658-.54414-.23223-.15076-.08793-.22497-.16497-.25629-.21836-.11416-.19467-.34457-.28874-.56235-.22959s-.36895.25685-.36895.48252v3.9799c0 .2115.1331.4002.33237.4711.19928.0709.42162.0087.55523-.1552.04024-.0494.12582-.1199.28014-.2025.14938-.08.33324-.1558.54038-.23.19593-.0701.39961-.1342.6027-.1982l.03308-.0104c.17353-.0546.35091-.1108.50924-.1683l1.1001.0065c-.72659 1.964.0446 4.3041 1.87095 5.428l.01113.0066.00809.0046c.68589.3811 1.41688.6342 2.31533.5579h2.03909c2.5389 0 4.5305-1.9916 4.5305-4.5305 0-1.8395-1.0748-3.3351-2.584-4.0596 2.7748-.79364 5.2655-2.45431 7.132-4.82474.1941-.18572.4222-.2818.6111-.2818.0506 0 .0787.01738.0939.03251.0151.01513.0325.04326.0325.09384v12.70609c0 .0506-.0174.0787-.0325.0938-.0111.011-.029.0233-.0575.0291-.3235-.0736-.5603-.2003-.7336-.3646-.4614-.6114-.9651-1.1671-1.5072-1.6706-.2023-.188-.5187-.1763-.7066.026-.188.2023-.1763.5187.026.7066.5079.4718.9795.9935 1.4113 1.5692.0142.0189.0297.0368.0464.0535.3513.3513.8049.5688 1.3293.6736.0322.0065.0651.0097.098.0097.6341 0 1.1264-.4923 1.1264-1.1263zm-14.67487 12.14379c-1.5232-.9443-2.09132-2.9927-1.30014-4.5624l1.22758.0066c-.30632.4025-.50279.8959-.53763 1.4186-.08894 1.3341.9725 2.5838 2.40807 2.5838h2.06099c1.4075 0 2.4799-1.0724 2.4799-2.4799 0-1.4061-1.0702-2.4778-2.4757-2.4799l-2.02063-.0323h-.00502l-5.40935-.0321c-.06277-.0004-.12506.0111-.18359.0337-.14391.0558-.3252.1137-.53995.1813l-.03753.0118c-.19901.0627-.42.1322-.63488.2092-.12309.044-.24846.092-.37108.1446v-2.0778c.13894.0609.28084.1132.41809.1585.24611.0813.49335.1455.70398.1978l.14692.0363c.14818.0364.26246.0645.34893.0909.04877.0149.09953.0223.15052.0218l7.42329-.0649c1.9444.0676 3.5366 1.5668 3.5366 3.5304 0 1.9866-1.5439 3.5305-3.5305 3.5305h-2.06099c-.01511 0-.03021.0007-.04526.0021-.6428.0584-1.17547-.1094-1.75262-.4286zm.38759-3.0707c.05507-.826.74627-1.4726 1.44322-1.4748l2.02006.0323h.008c.8553 0 1.4799.6247 1.4799 1.4799 0 .8553-.6246 1.4799-1.4799 1.4799h-2.06099c-.82716 0-1.46277-.7301-1.41029-1.5173z" fill-rule="evenodd"/><path d="m7.50743 8.62811c0 .27614-.22385.5-.5.5-.27614 0-.5-.22386-.5-.5 0-.27615.22386-.5.5-.5.27615 0 .5.22385.5.5z"/><path d="m9.28478 9.12811c.27614 0 .5-.22386.5-.5 0-.27615-.22386-.5-.5-.5s-.5.22385-.5.5c0 .27614.22386.5.5.5z"/><path d="m18.2418 15.6838c0 .2761-.2238.5-.5.5-.2761 0-.5-.2239-.5-.5 0-.2762.2239-.5.5-.5.2762 0 .5.2238.5.5z"/><path d="m11.5621 9.12811c.2762 0 .5-.22386.5-.5 0-.27615-.2238-.5-.5-.5-.2761 0-.5.22385-.5.5 0 .27614.2239.5.5.5z"/></g></svg>