<svg fill="none" height="25" viewBox="0 0 26 25" width="26" xmlns="http://www.w3.org/2000/svg"><path d="m12.4503 15.8261h-.4357c-.0671 0-.1118.0545-.1118.1091v.4258c0 .2948.2458.535.5475.535s.5475-.2402.5475-.535-.2458-.5349-.5475-.5349z" fill="#f94409"/><path d="m12.3051 10.4218c-.0894-.0765-.2347-.1638-.3352-.2184l-2.0559-1.08086c-.11173-.06551-.24581-.10918-.36871-.15285-.35754-.09826-.73743-.09826-1.09497 0-.13408.03275-.25699.08734-.36872.15285l-2.06704 1.08086c-.10056.0546-.23463.1419-.33519.2184-.43576.3602-.68157.8843-.68157 1.452v3.1334c0 1.0481.87151 1.8888 1.93296 1.8888h3.60894c.3017 0 .5475-.2402.5475-.535v-.4258c0-.0655-.0559-.1091-.1117-.1091h-4.04474c-.4581 0-.83799-.3713-.83799-.8189v-3.1334c0-.3057.1676-.5786.43576-.7206l2.1229-1.1026c.22347-.09831.4581-.09831.68157 0l2.1229 1.1026c.2682.142.4358.4149.4358.7206v2.7513c0 .2948.2458.535.5474.535.3017 0 .5475-.2402.5475-.535v-2.7513c.0112-.5677-.2458-1.0918-.6815-1.452z" fill="#f94409"/><g stroke="#18303f" stroke-linecap="round" stroke-linejoin="round"><path d="m1.5 8.0755c0-.64266.42844-1.07111 1.07111-1.07111h12.85329c.6427 0 1.0711.42845 1.0711 1.07111v9.64c0 .6426-.4284 1.0711-1.0711 1.0711h-12.85329c-.64267 0-1.07111-.4285-1.07111-1.0711z"/><path d="m8.9978 18.7866v3.2143"/><path d="m5.78442 22h6.42668"/><path d="m14.5 5v-1c0-.6.4-1 1-1h8c.6 0 1 .4 1 1v17c0 .6-.4 1-1 1h-8c-.6 0-1-.4-1-1"/><path d="m24.5 7h-6"/><path d="m24.5 10h-6"/></g><g fill="#18303f"><circle cx="19" cy="12.5" r=".5"/><circle cx="19" cy="12.5" r=".5"/></g></svg>