<svg fill="none" height="25" viewBox="0 0 26 25" width="26" xmlns="http://www.w3.org/2000/svg"><path d="m24.5 20c0 .6-.4 1-1 1h-21c-.6 0-1-.4-1-1v-2h9v1h5v-1h9z" stroke="#18303f" stroke-linecap="round" stroke-linejoin="round"/><path d="m2.5 18v-12c0-1.1.9-2 2-2h17c1.1 0 2 .9 2 2v12" stroke="#18303f" stroke-linecap="round" stroke-linejoin="round"/><g fill="#f94409"><path d="m16.4525 14.4301h-.4357c-.0671 0-.1118.0545-.1118.1091v.4258c0 .2948.2458.535.5475.535s.5475-.2402.5475-.535-.2458-.5349-.5475-.5349z"/><path d="m16.3073 9.02576c-.0894-.07643-.2347-.16377-.3352-.21836l-2.0559-1.08086c-.1117-.0655-.2458-.10917-.3687-.15285-.3576-.09825-.7374-.09825-1.095 0-.1341.03276-.257.08735-.3687.15285l-2.067 1.08086c-.1006.05459-.23468.14193-.33524.21836-.43575.36029-.68156.88434-.68156 1.45204v3.1334c0 1.0481.87151 1.8888 1.933 1.8888h3.6089c.3017 0 .5475-.2402.5475-.535v-.4258c0-.0655-.0559-.1091-.1117-.1091h-4.0447c-.4581 0-.838-.3712-.838-.8189v-3.1334c0-.3057.1676-.57862.4357-.72055l2.1229-1.1027c.2235-.09826.4581-.09826.6816 0l2.1229 1.1027c.2682.14193.4358.41485.4358.72055v2.7513c0 .2948.2458.535.5474.535.3017 0 .5475-.2402.5475-.535v-2.7513c.0112-.5677-.2458-1.09175-.6815-1.45204z"/></g></svg>