<svg fill="none" height="25" viewBox="0 0 26 25" width="26" xmlns="http://www.w3.org/2000/svg"><path d="m4.5 3c0-1.1.9-2 2-2h13c1.1 0 2 .9 2 2v19c0 1.1-.9 2-2 2h-13c-1.1 0-2-.9-2-2z" stroke="#18303f" stroke-linecap="round" stroke-linejoin="round"/><path d="m21.5 20h-17" stroke="#18303f" stroke-linecap="round" stroke-linejoin="round"/><path d="m16.4525 13.4301h-.4357c-.0671 0-.1118.0545-.1118.1091v.4258c0 .2948.2458.535.5475.535s.5475-.2402.5475-.535-.2458-.5349-.5475-.5349z" fill="#f94409"/><path d="m16.3073 8.02576c-.0894-.07643-.2347-.16377-.3352-.21836l-2.0559-1.08086c-.1117-.0655-.2458-.10917-.3687-.15285-.3576-.09825-.7374-.09825-1.095 0-.1341.03276-.257.08735-.3687.15285l-2.067 1.08086c-.1006.05459-.23468.14193-.33524.21836-.43575.36029-.68156.88434-.68156 1.45206v3.13338c0 1.0481.87151 1.8888 1.933 1.8888h3.6089c.3017 0 .5475-.2402.5475-.535v-.4258c0-.0655-.0559-.1091-.1117-.1091h-4.0447c-.4581 0-.838-.3712-.838-.8189v-3.13338c0-.30569.1676-.57864.4357-.72057l2.1229-1.1027c.2235-.09826.4581-.09826.6816 0l2.1229 1.1027c.2682.14193.4358.41488.4358.72057v2.75128c0 .2948.2458.535.5474.535.3017 0 .5475-.2402.5475-.535v-2.75128c.0112-.56772-.2458-1.09177-.6815-1.45206z" fill="#f94409"/><circle cx="13" cy="21.9634" fill="#18303f" r=".5"/></svg>