<svg fill="none" height="25" viewBox="0 0 25 25" width="25" xmlns="http://www.w3.org/2000/svg"><g fill="#18303f"><path d="m3.28516 5.53516c0-1.933 1.567-3.5 3.5-3.5h11.42924c1.933 0 3.5 1.567 3.5 3.5v13.75644c0 1.933-1.567 3.5-3.5 3.5h-8.27425c-.27615 0-.5-.2239-.5-.5 0-.2762.22385-.5.5-.5h8.27425c1.3807 0 2.5-1.1193 2.5-2.5v-13.75644c0-1.38072-1.1193-2.5-2.5-2.5h-3.3637l.0003.02341c0 .53717-.4355.97263-.9727.97263h-2.7572c-.5372 0-.9727-.43546-.9727-.97263l.0003-.02341h-3.36354c-1.38071 0-2.5 1.11929-2.5 2.5v14.37354c0 1.0399.84298 1.8829 1.88285 1.8829.27614 0 .5.2238.5.5 0 .2761-.22386.5-.5.5-1.59216 0-2.88285-1.2907-2.88285-2.8829z"/><path d="m7.98047 22.792c.27614 0 .5-.2239.5-.5s-.22386-.5-.5-.5-.5.2239-.5.5.22386.5.5.5z"/></g></svg>