<svg fill="none" height="49" viewBox="0 0 49 49" width="49" xmlns="http://www.w3.org/2000/svg"><g fill="#f94409"><path clip-rule="evenodd" d="m24.5 47c12.4264 0 22.5-10.0736 22.5-22.5s-10.0736-22.5-22.5-22.5-22.5 10.0736-22.5 22.5 10.0736 22.5 22.5 22.5zm0 2c13.531 0 24.5-10.969 24.5-24.5s-10.969-24.5-24.5-24.5-24.5 10.969-24.5 24.5 10.969 24.5 24.5 24.5z" fill-rule="evenodd"/><path d="m8.25 22.8728c0-1.414 1.16213-2.6228 2.5846-2.6228h3.1341c.4142 0 .75.3358.75.75s-.3358.75-.75.75h-3.1341c-.565 0-1.0846.5079-1.0846 1.1228s.5196 1.1228 1.0846 1.1228h.8124c.0091-.0003.0182-.0005.0274-.0005h1.8345c1.4844 0 2.6611 1.1767 2.6611 2.661 0 1.4844-1.1767 2.6611-2.6611 2.6611h-4.20421c-.41422 0-.75-.3358-.75-.75 0-.4143.33578-.75.75-.75h4.20421c.656 0 1.1611-.5051 1.1611-1.1611 0-.6559-.5051-1.161-1.1611-1.161h-1.5768c-.0091.0003-.0182.0005-.0273.0005h-1.0702c-1.42247 0-2.5846-1.2088-2.5846-2.6228z"/><path d="m17 20.25c-.4142 0-.75.3358-.75.75s.3358.75.75.75h2.6133v6.7412c0 .4142.3358.75.75.75s.75-.3358.75-.75v-6.7412h2.6135c.4142 0 .75-.3358.75-.75s-.3358-.75-.75-.75z"/><g clip-rule="evenodd" fill-rule="evenodd"><path d="m24.5547 24.7456c0-2.4828 2.0127-4.4956 4.4956-4.4956 2.4828 0 4.4956 2.0128 4.4956 4.4956 0 2.4829-2.0128 4.4956-4.4956 4.4956-2.4829 0-4.4956-2.0127-4.4956-4.4956zm4.4956-2.9956c-1.6544 0-2.9956 1.3412-2.9956 2.9956s1.3412 2.9956 2.9956 2.9956 2.9956-1.3412 2.9956-2.9956-1.3412-2.9956-2.9956-2.9956z"/><path d="m36.4688 25.4956h3.3013c1.4844 0 2.661-1.1766 2.661-2.661 0-1.4277-1.1966-2.5846-2.661-2.5846h-4.0513c-.4143 0-.75.3358-.75.75v7.4912c0 .4142.3357.75.75.75.4142 0 .75-.3358.75-.75zm0-3.7456v2.2456h3.3013c.656 0 1.161-.5051 1.161-1.161 0-.5598-.485-1.0846-1.161-1.0846z"/></g></g></svg>