<svg fill="none" height="25" viewBox="0 0 25 25" width="25" xmlns="http://www.w3.org/2000/svg"><g fill="#18303f"><path clip-rule="evenodd" d="m6.78516 2.03516c-1.933 0-3.5 1.567-3.5 3.5v13.75644c0 1.933 1.567 3.5 3.5 3.5h3.99604c.2762 0 .5-.2239.5-.5 0-.2762-.2238-.5-.5-.5h-3.99604c-1.38072 0-2.5-1.1193-2.5-2.5v-5.5861c.15652.0554.32497.0855.50047.0855h5.36317c.0145.5245.4443.9453.9723.9453h2.7572c.528 0 .9578-.4208.9723-.9453h5.3642c.1752 0 .3433-.03.4996-.0852v5.5858c0 1.3807-1.1193 2.5-2.5 2.5h-3.9488c-.2761 0-.5.2238-.5.5 0 .2761.2239.5.5.5h3.9488c1.933 0 3.5-1.567 3.5-3.5v-6.9627c.0003-.0126.0004-.0252.0004-.0379v-2.1725c0-.0073-.0001-.0146-.0004-.0219v-4.56144c0-1.933-1.567-3.5-3.5-3.5zm.21484 2.46484c0 .27614-.22386.5-.5.5s-.5-.22386-.5-.5.22386-.5.5-.5.5.22386.5.5zm0 2c0 .27614-.22386.5-.5.5s-.5-.22386-.5-.5.22386-.5.5-.5.5.22386.5.5zm-.5 2.5c.27614 0 .5-.22386.5-.5s-.22386-.5-.5-.5-.5.22386-.5.5.22386.5.5.5zm.5 1.5c0 .2761-.22386.5-.5.5s-.5-.2239-.5-.5.22386-.5.5-.5.5.2239.5.5zm-.5 2.5c.27614 0 .5-.2239.5-.5s-.22386-.5-.5-.5-.5.2239-.5.5.22386.5.5.5zm12.5-8.5c0 .27614-.2239.5-.5.5s-.5-.22386-.5-.5.2239-.5.5-.5.5.22386.5.5zm-.5 2.5c.2761 0 .5-.22386.5-.5s-.2239-.5-.5-.5-.5.22386-.5.5.2239.5.5.5zm.5 1.5c0 .27614-.2239.5-.5.5s-.5-.22386-.5-.5.2239-.5.5-.5.5.22386.5.5zm-.5 2.5c.2761 0 .5-.2239.5-.5s-.2239-.5-.5-.5-.5.2239-.5.5.2239.5.5.5zm.5 1.5c0 .2761-.2239.5-.5.5s-.5-.2239-.5-.5.2239-.5.5-.5.5.2239.5.5z" fill-rule="evenodd"/><path d="m12.5 22.791c-.2761 0-.5-.2238-.5-.5v-.01c0-.2761.2239-.5.5-.5s.5.2239.5.5v.01c0 .2762-.2239.5-.5.5z"/></g></svg>