<svg fill="none" height="60" viewBox="0 0 60 60" width="60" xmlns="http://www.w3.org/2000/svg"><rect fill="#f1f3fa" height="58" rx="19" stroke="#2d3436" stroke-width="2" width="58" x="1" y="1"/><path clip-rule="evenodd" d="m20.4666 18.672c-.0037 0-.0074 0-.0111 0s-.0074 0-.0112 0h-4.7401c-.0133.0003-.0266.0004-.04.0004-1.1382 0-2.061-.9328-2.061-2.0834s.9228-2.0833 2.061-2.0833c.732 0 1.3748.3857 1.7405.9671.0589-1.6519 1.4022-2.9728 3.0508-2.9728 1.686 0 3.0528 1.3817 3.0528 3.086 0 1.6506-1.282 2.9986-2.8943 3.0819v.0041z" fill="#d9eef9" fill-rule="evenodd"/><path d="m11.3888 41.4087c0 1.3148 1.1592 2.3806 2.5892 2.3806s2.5892-1.0658 2.5892-2.3806c-.6739-3.5815-1.5074-6.7808-2.0257-8.5905-.2288-.7987-.4225-1.4749-.5635-2.073-.0947.3147-.2008.6511-.3158 1.0155-.6031 1.9115-1.5523 5.2606-2.2734 9.648z" fill="#71e37c"/><path d="m31.4275 25.082-13.7992-1.4412c-.3278-.0342-.6132.2229-.6132.5526v11.2513c0 .0644.0112.1283.0331.1889l2.0376 5.6347c.3399 1.1917.4539 2.3522-1.5141 2.529-.3056.0274-.5566.2719-.5566.5787v2.2581c0 .3069.2487.5556.5555.5556h13.7992c.3068 0 .5556-.2487.5556-.5556v-20.9996c0-.2845-.2149-.523-.4979-.5525z" fill="#fff1e4"/><path d="m31.9261 21.5503c0-.2336.1462-.4423.3659-.5221l13.1487-4.7759c.7246-.2632 1.4904.2734 1.4904 1.0443v29.3375c0 .3068-.2487.5555-.5555.5555h-13.894c-.3068 0-.5555-.2487-.5555-.5555z" fill="#f7eaff"/><g fill="#2d3436"><g clip-rule="evenodd" fill-rule="evenodd"><path d="m21.5932 42.3892c0-.4602.3731-.8333.8333-.8333h1.7085c.767 0 1.3888.6218 1.3888 1.3889v4.2448c0 .4603-.3731.8334-.8333.8334h-3.7551c-.4603 0-.8333-.3731-.8333-.8334v-3.2935c0-.4602.373-.8333.8333-.8333.4602 0 .8333.3731.8333.8333v2.4602h2.0885v-3.1338h-1.4307c-.4602 0-.8333-.3731-.8333-.8333z"/><path d="m35.8405 39.2601c0-.7671.6218-1.3889 1.3889-1.3889h3.3896c.7671 0 1.3889.6218 1.3889 1.3889v.7871c0 .4602-.3731.8333-.8333.8333-.4603 0-.8334-.3731-.8334-.8333v-.5093h-2.834v6.8184h2.834v-3.4092c0-.4603.3731-.8334.8334-.8334.4602 0 .8333.3731.8333.8334v4.2425c0 .4602-.3731.8333-.8333.8333h-4.5008c-.4602 0-.8333-.3731-.8333-.8333z"/><path d="m14.4246 44.7045c.4602 0 .8333.373.8333.8333v1.1663c0 .4603-.3731.8334-.8333.8334-.4603 0-.8334-.3731-.8334-.8334v-1.1663c0-.4603.3731-.8333.8334-.8333z"/><path d="m36.9536 16.6431c.4602 0 .8333.3731.8333.8334v1.1663c0 .4603-.3731.8334-.8333.8334-.4603 0-.8334-.3731-.8334-.8334v-1.1663c0-.4603.3731-.8334.8334-.8334z"/><path d="m34.5044 15.2479c.4603 0 .8334.3731.8334.8333v3.5224c0 .4603-.3731.8334-.8334.8334-.4602 0-.8333-.3731-.8333-.8334v-3.5224c0-.4602.3731-.8333.8333-.8333z"/><path d="m19.3378 27.583c0-.4602.3731-.8333.8333-.8333h3.4666c.4603 0 .8334.3731.8334.8333 0 .4603-.3731.8333-.8334.8333h-3.4666c-.4602 0-.8333-.373-.8333-.8333z"/><path d="m20.2735 31.2539c0-.4602.3731-.8333.8333-.8333h2.5305c.4603 0 .8334.3731.8334.8333 0 .4603-.3731.8334-.8334.8334h-2.5305c-.4602 0-.8333-.3731-.8333-.8334z"/><path d="m21.2092 34.9249c0-.4603.3731-.8334.8333-.8334h1.5952c.4603 0 .8333.3731.8333.8334 0 .4602-.373.8333-.8333.8333h-1.5952c-.4602 0-.8333-.3731-.8333-.8333z"/><path d="m27.4432 38.5958c0-.4602.3731-.8333.8333-.8333h.9191c.4602 0 .8333.3731.8333.8333 0 .4603-.3731.8333-.8333.8333h-.9191c-.4602 0-.8333-.373-.8333-.8333z"/><path d="m27.4432 34.9249c0-.4603.3731-.8334.8333-.8334h.9191c.4602 0 .8333.3731.8333.8334 0 .4602-.3731.8333-.8333.8333h-.9191c-.4602 0-.8333-.3731-.8333-.8333z"/><path d="m27.4432 31.2539c0-.4602.3731-.8333.8333-.8333h.9191c.4602 0 .8333.3731.8333.8333 0 .4603-.3731.8334-.8333.8334h-.9191c-.4602 0-.8333-.3731-.8333-.8334z"/><path d="m36.0124 34.9249c0-.4603.3731-.8334.8334-.8334h.1077c.4603 0 .8334.3731.8334.8334 0 .4602-.3731.8333-.8334.8333h-.1077c-.4603 0-.8334-.3731-.8334-.8333z"/><path d="m36.0124 31.2539c0-.4602.3731-.8333.8334-.8333h.1077c.4603 0 .8334.3731.8334.8333 0 .4603-.3731.8334-.8334.8334h-.1077c-.4603 0-.8334-.3731-.8334-.8334z"/><path d="m34.5587 27.583c0-.4602.3731-.8333.8333-.8333h1.4538c.4602 0 .8333.3731.8333.8333 0 .4603-.3731.8333-.8333.8333h-1.4538c-.4602 0-.8333-.373-.8333-.8333z"/><path d="m34.5587 23.9121c0-.4603.3731-.8334.8333-.8334h1.4538c.4602 0 .8333.3731.8333.8334 0 .4602-.3731.8333-.8333.8333h-1.4538c-.4602 0-.8333-.3731-.8333-.8333z"/><path d="m40.0224 27.583c0-.4602.3731-.8333.8334-.8333h5.2406c.4602 0 .8333.3731.8333.8333 0 .4603-.3731.8333-.8333.8333h-5.2406c-.4603 0-.8334-.373-.8334-.8333z"/><path d="m40.0224 23.9121c0-.4603.3731-.8334.8334-.8334h5.2406c.4602 0 .8333.3731.8333.8334 0 .4602-.3731.8333-.8333.8333h-5.2406c-.4603 0-.8334-.3731-.8334-.8333z"/><path d="m40.0224 34.9249c0-.4603.3731-.8334.8334-.8334h5.2406c.4602 0 .8333.3731.8333.8334 0 .4602-.3731.8333-.8333.8333h-5.2406c-.4603 0-.8334-.3731-.8334-.8333z"/><path d="m39.7817 31.2539c0-.4602.3731-.8333.8334-.8333h5.2406c.4602 0 .8333.3731.8333.8333 0 .4603-.3731.8334-.8333.8334h-5.2406c-.4603 0-.8334-.3731-.8334-.8334z"/></g><path d="m36.8904 15.6372c0 .215-.1724.3893-.3851.3893s-.3851-.1743-.3851-.3893.1724-.3893.3851-.3893.3851.1743.3851.3893z"/><path d="m41.5599 41.5254c0 .215-.1724.3893-.3851.3893s-.3851-.1743-.3851-.3893.1724-.3893.3851-.3893.3851.1743.3851.3893z"/><path d="m21.2092 42.3892c0 .215-.1724.3893-.3851.3893s-.3851-.1743-.3851-.3893.1724-.3893.3851-.3893.3851.1743.3851.3893z"/><path clip-rule="evenodd" d="m16.9189 13.96c.6113-1.3502 1.9608-2.2933 3.5366-2.2933 2.1548 0 3.8862 1.7632 3.8862 3.9193 0 2.0569-1.5749 3.7553-3.5911 3.9082-.0445.0073-.0901.0111-.1366.0111h-.1473l-.0112.0001-.0111-.0001h-4.7328c-.0158.0003-.0315.0004-.0474.0004-1.6069 0-2.8942-1.3143-2.8942-2.9167 0-1.6023 1.2873-2.9166 2.8942-2.9166.4503 0 .8757.1036 1.2547.2876zm3.6127 3.8787h-.0649-.003-.0082-.0081-.003-4.7402l-.016.0001c-.008.0002-.016.0003-.024.0003-.6695 0-1.2276-.5512-1.2276-1.2501 0-.6988.5581-1.25 1.2276-1.25.431 0 .8141.226 1.0351.5775.1948.3097.5687.4561.922.361.3532-.095.6032-.4094.6162-.775.0433-1.2132 1.0278-2.1692 2.218-2.1692 1.2174 0 2.2195 1.0001 2.2195 2.2527 0 1.2127-.9401 2.1896-2.104 2.2497-.0132.0007-.0263.0017-.0394.003zm-6.5282 12.0736c.3769.0115.6992.2746.7858.6417.1355.5748.3231 1.2303.5535 2.0348.2086.7283.4675 1.6783.7464 2.7862.0323-.1027.0632-.2014.0927-.2968v-10.8849c0-.8241.7135-1.467 1.5331-1.3814l13.3779 1.3972v-2.6587c0-.5842.3656-1.106.9147-1.3055l1.6645-.6045c-.0006-.0122-.0008-.0245-.0008-.0368v-3.5224c0-.4602.3731-.8333.8333-.8333.4603 0 .8333.3731.8333.8333v2.9541l.7891-.2866c-.0044-.0347-.0066-.07-.0066-.1059v-1.1663c0-.4603.3731-.8334.8333-.8334s.8333.3731.8333.8334v.6692l7.3693-2.6767c1.2681-.4605 2.6083.4786 2.6083 1.8277v29.3374c0 .7671-.6218 1.3889-1.3889 1.3889h-5.201-4.5008-4.1921c-.1977 0-.3857-.0413-.5559-.1157-.1703.0744-.3583.1157-.556.1157h-6.6792-3.7552-3.3647c-.7671 0-1.3889-.6218-1.3889-1.3889v-1.4826c0-.2332.0958-.444.2502-.5953-.2943-.0646-.5718-.1747-.823-.3232-.4912.25-1.0497.3897-1.6309.3897-1.823 0-3.4226-1.3744-3.4226-3.214 0-.0452.0037-.0904.0111-.1351.729-4.4356 1.6891-7.8242 2.301-9.7636.1154-.3657.2197-.6965.3125-1.0049.1087-.3611.4463-.6042.8233-.5928zm28.0045 16.444v-3.4092c0-.4602-.3731-.8333-.8333-.8333-.4603 0-.8333.3731-.8333.8333v3.4092h-2.8341v-6.8184h2.8341v.5093c0 .4603.373.8334.8333.8334.4602 0 .8333-.3731.8333-.8334v-.7871c0-.767-.6218-1.3889-1.3889-1.3889h-3.3896c-.7671 0-1.3889.6219-1.3889 1.3889v7.0962h-3.081v-24.6113l12.9657-4.7094c.1812-.0658.3726.0683.3726.2611v5.782h-.0013-5.2407c-.4602 0-.8333.3731-.8333.8333 0 .4603.3731.8334.8333.8334h5.2407.0013v2.0043h-.0013-5.2407c-.4602 0-.8333.3731-.8333.8333s.3731.8333.8333.8333h5.2407.0013v2.04c-.0766-.0232-.1578-.0357-.242-.0357h-5.2407c-.4602 0-.8333.3731-.8333.8333 0 .4603.3731.8334.8333.8334h5.2407c.0842 0 .1654-.0125.242-.0357v2.04h-.0013-5.2407c-.4602 0-.8333.3731-.8333.8333s.3731.8333.8333.8333h5.2407.0013v10.5981zm-16.484 0v-3.4115c0-.7671-.6218-1.3889-1.3889-1.3889h-1.7084c-.4602 0-.8333.3731-.8333.8333s.3731.8333.8333.8333h1.4306v3.1338h-2.0884v-2.4602c0-.4602-.3731-.8333-.8334-.8333-.4602 0-.8333.3731-.8333.8333v2.4602h-2.2536v-1.2048c0-.2276-.0913-.4338-.2392-.5842 1.1902-.2389 2.155-1.2239 2.155-2.5076 0-.0517-.0048-.1032-.0144-.154-.3742-1.9891-.8245-3.41-1.1767-4.5212-.1174-.3705-.2239-.7065-.3131-1.0178-.1679-.5862-.3024-1.0568-.3994-1.4681-.0037-.0155-.0078-.0308-.0122-.0459v-10.3511l13.2436 1.3831v20.4716zm-8.5412-3.4018c.0221.0011.0444.0017.0669.0017.6145 0 1.0082-.4215 1.0452-.8332-.3496-1.8303-.7482-3.0886-1.0906-4.1692l-.0047-.0149c-.0564.1777-.1143.3651-.1738.5657.1921.8777.3819 1.8005.5605 2.75.0096.0509.0144.1024.0144.1541 0 .5687-.1528 1.0929-.4179 1.5458zm-3.0452-9.2052c-.5402 1.9089-1.1871 4.5347-1.7139 7.7193.0352.768.7437 1.4874 1.7545 1.4874 1.007 0 1.714-.7141 1.7541-1.4789-.5849-3.0911-1.2876-5.8894-1.7947-7.7278zm.4871 10.9552c.4602 0 .8333.3731.8333.8333v1.1663c0 .4603-.3731.8334-.8333.8334-.4603 0-.8334-.3731-.8334-.8334v-1.1663c0-.4602.3731-.8333.8334-.8333zm5.7465-17.9548c-.4602 0-.8333.3731-.8333.8333s.3731.8333.8333.8333h3.4666c.4603 0 .8334-.3731.8334-.8333s-.3731-.8333-.8334-.8333zm.1024 4.5042c0-.4602.3731-.8333.8333-.8333h2.5305c.4603 0 .8334.3731.8334.8333 0 .4603-.3731.8334-.8334.8334h-2.5305c-.4602 0-.8333-.3731-.8333-.8334zm1.7691 2.8377c-.4603 0-.8334.3731-.8334.8333s.3731.8333.8334.8333h1.5952c.4602 0 .8333-.3731.8333-.8333s-.3731-.8333-.8333-.8333zm5.4006 4.5042c0-.4602.3731-.8333.8333-.8333h.9191c.4602 0 .8333.3731.8333.8333 0 .4603-.3731.8334-.8333.8334h-.9191c-.4602 0-.8333-.3731-.8333-.8334zm.8333-4.5042c-.4602 0-.8333.3731-.8333.8333s.3731.8333.8333.8333h.9191c.4602 0 .8333-.3731.8333-.8333s-.3731-.8333-.8333-.8333zm-.8333-2.8377c0-.4602.3731-.8333.8333-.8333h.9191c.4602 0 .8333.3731.8333.8333 0 .4603-.3731.8334-.8333.8334h-.9191c-.4602 0-.8333-.3731-.8333-.8334zm9.4026 2.8377c-.4602 0-.8333.3731-.8333.8333s.3731.8333.8333.8333h.1078c.4602 0 .8333-.3731.8333-.8333s-.3731-.8333-.8333-.8333zm-.8333-2.8377c0-.4602.3731-.8333.8333-.8333h.1078c.4602 0 .8333.3731.8333.8333 0 .4603-.3731.8334-.8333.8334h-.1078c-.4602 0-.8333-.3731-.8333-.8334zm-.6205-4.5042c-.4602 0-.8333.3731-.8333.8333s.3731.8333.8333.8333h1.4538c.4602 0 .8333-.3731.8333-.8333s-.3731-.8333-.8333-.8333zm-.8333-2.8377c0-.4602.3731-.8333.8333-.8333h1.4538c.4602 0 .8333.3731.8333.8333 0 .4603-.3731.8334-.8333.8334h-1.4538c-.4602 0-.8333-.3731-.8333-.8334zm1.9467-7.8855c.2127 0 .3851-.1743.3851-.3893s-.1724-.3893-.3851-.3893-.3851.1743-.3851.3893.1724.3893.3851.3893zm5.0545 25.4989c0 .2151-.1724.3893-.3851.3893s-.3851-.1742-.3851-.3893c0-.215.1724-.3892.3851-.3892s.3851.1742.3851.3892zm-20.7358 1.2531c.2127 0 .3851-.1743.3851-.3893s-.1724-.3893-.3851-.3893-.3851.1743-.3851.3893.1724.3893.3851.3893z" fill-rule="evenodd"/></g></svg>