<svg fill="none" height="60" viewBox="0 0 60 60" width="60" xmlns="http://www.w3.org/2000/svg"><rect fill="#f1f3fa" height="58" rx="19" stroke="#2d3436" stroke-width="2" width="58" x="1" y="1"/><path d="m29.9889 11.3889c-10.2743 0-18.6 8.3257-18.6 18.6 0 4.6647 1.7124 8.9162 4.4877 12.1638.2362.2952.2952.6495.118 1.0038l-3.0114 5.4324h16.2972.059.6495c10.2743 0 18.6-8.3257 18.6-18.6s-8.3257-18.6-18.6-18.6z" fill="#f0faff"/><path d="m17.8841 35.8936c0 4.6648 1.7124 8.9162 4.4877 12.1638.1181.1772.1771.3543.1771.5315h6.6724.059.6495c10.2743 0 18.6-8.3257 18.6-18.6 0-3.8381-1.1809-7.44-3.1886-10.4515-2.6571-1.4761-5.6685-2.2438-8.9161-2.2438-10.2153 0-18.541 8.3258-18.541 18.6z" fill="#d9eef9"/><path d="m27.6861 20.8365c.8857-1.5943 3.0114-1.5943 3.8971 0l8.1485 14.3486c.8857 1.5942-.2361 3.3657-2.0075 3.3657h-16.3563c-1.7714 0-2.7752-1.8896-2.0076-3.3657z" fill="#ffcd50"/><path d="m33.3547 26.7413c-.8858-1.5943-3.0115-1.5943-3.8972 0l-6.8496 11.8095h15.1163c.7676 0 1.4171-.3543 1.8305-.8857z" fill="#ffda88"/><g clip-rule="evenodd" fill-rule="evenodd"><path d="m29.3842 34.143c.2158-.1827.5186-.3227.8409-.3227.3147 0 .6642.0977.9361.3695.2719.2719.3696.6215.3696.9362 0 .3148-.0977.6644-.3696.9362-.2718.2719-.6214.3696-.9361.3696-.3148 0-.6644-.0977-.9362-.3696-.2719-.2719-.3695-.6215-.3695-.9362 0-.4487.2291-.7836.4648-.983zm1.0766 1.2723c.0438-.0371.1253-.1358.1253-.2893 0-.0194-.0091-.1327-.1186-.2422s-.2229-.1187-.2424-.1187-.1329.0091-.2424.1186c-.1094.1095-.1185.2228-.1185.2423s.0091.133.1186.2424c.1094.1095.2228.1186.2423.1186.0856 0 .1406-.0191.1633-.0283.0271-.0109.0505-.0249.0724-.0434z" fill="#ff9248"/><path d="m30.2251 25.6127c.4602 0 .8333.3731.8333.8334v5.2552c0 .4602-.3731.8333-.8333.8333-.4603 0-.8334-.3731-.8334-.8333v-5.2552c0-.4603.3731-.8334.8334-.8334z" fill="#ff9248"/><g fill="#2d3436"><path d="m30.8547 21.2412c-.5682-1.0228-1.872-1.0228-2.4402 0l-.0077.0135-8.3151 14.3301c-.4892.9669.1895 2.1326 1.2762 2.1326h16.3562c1.1685 0 1.8387-1.1157 1.2808-2.1246zm1.4549-.813c-1.2031-2.1598-4.1429-2.161-5.348-.0037l-8.3221 14.3423c-.0065.0111-.0127.0224-.0186.0338-1.0309 1.9825.2966 4.5835 2.747 4.5835h16.3562c2.3732 0 3.9465-2.4249 2.7361-4.6038z"/><path d="m28.7937 33.5525c.2159-.1827.5186-.3227.841-.3227.3146 0 .6642.0977.9361.3696.2719.2718.3696.6214.3696.9362 0 .3147-.0977.6643-.3696.9361-.2718.2719-.6214.3696-.9361.3696-.3148 0-.6644-.0977-.9363-.3696-.2718-.2719-.3694-.6215-.3694-.9361 0-.4487.2291-.7837.4647-.9831zm1.0767 1.2723c.0437-.037.1252-.1358.1252-.2892 0-.0195-.009-.1328-.1185-.2423s-.2229-.1187-.2424-.1187c-.0196 0-.1329.0092-.2424.1186-.1094.1095-.1186.2228-.1186.2424 0 .0195.0092.1329.1186.2423.1095.1095.2229.1186.2424.1186.0855 0 .1406-.0191.1633-.0282.0271-.011.0505-.025.0724-.0435z"/><path d="m29.6346 25.0222c.4602 0 .8333.3731.8333.8334v5.2552c0 .4602-.3731.8333-.8333.8333s-.8333-.3731-.8333-.8333v-5.2552c0-.4603.3731-.8334.8333-.8334z"/><path d="m10.5555 29.9889c0-10.7345 8.6989-19.4333 19.4334-19.4333s19.4333 8.6988 19.4333 19.4333-8.6988 19.4333-19.4333 19.4333h-17.0057c-.2951 0-.5682-.1561-.718-.4104s-.1539-.5688-.0108-.8269l2.9998-5.4116c.0069-.0155.009-.0249.0096-.0284.0003-.0016.0004-.0027.0005-.0033 0-.0003 0-.0005 0-.0006l-.0001-.0008c0-.0002-.0005-.0049-.0051-.0151-.0042-.0094-.0123-.0244-.0274-.0443-2.8916-3.3899-4.6762-7.8261-4.6762-12.6919zm19.4334 17.7667c9.814 0 17.7667-7.9527 17.7667-17.7667 0-9.8141-7.9527-17.7667-17.7667-17.7667-9.8141 0-17.7667 7.9526-17.7667 17.7667 0 4.4574 1.6357 8.5188 4.2879 11.6224.0058.0068.0116.0138.0172.0208.419.5238.5491 1.2242.2127 1.8971-.0053.0105-.0108.021-.0165.0313l-2.3255 4.1951z"/></g></g></svg>