<svg fill="none" height="60" viewBox="0 0 60 60" width="60" xmlns="http://www.w3.org/2000/svg"><rect fill="#f1f3fa" height="58" rx="19" stroke="#2d3436" stroke-width="2" width="58" x="1" y="1"/><path d="m25.4362 42.6865h-.6052c-.0931 0-.1552.0758-.1552.1516v.5914c0 .4094.3414.743.7604.743s.7604-.3336.7604-.743-.3414-.743-.7604-.743z" fill="#f94409"/><path d="m25.2345 35.1805c-.1242-.1061-.3259-.2274-.4656-.3032l-2.8553-1.5012c-.1552-.091-.3414-.1517-.5121-.2123-.4966-.1365-1.0242-.1365-1.5208 0-.1863.0455-.357.1213-.5121.2123l-2.8709 1.5012c-.1397.0758-.3259.1971-.4656.3032-.6052.5004-.9466 1.2283-.9466 2.0168v4.3519c0 1.4557 1.2104 2.6233 2.6847 2.6233h5.0124c.419 0 .7604-.3336.7604-.743v-.5914c0-.091-.0776-.1516-.1552-.1516h-5.6176c-.6363 0-1.1639-.5156-1.1639-1.1373v-4.3519c0-.4246.2328-.8037.6052-1.0008l2.9485-1.5315c.3104-.1365.6362-.1365.9466 0l2.9485 1.5315c.3724.1971.6052.5762.6052 1.0008v3.8212c0 .4094.3414.743.7604.743s.7604-.3336.7604-.743v-3.8212c.0155-.7885-.3414-1.5164-.9466-2.0168z" fill="#f94409"/><path clip-rule="evenodd" d="m42.1629 22.5184c-.3943-2.6819-2.7048-4.7406-5.4962-4.7406-2.1691 0-4.0479 1.2431-4.9627 3.0557l-.0373-.0002c-2.1478 0-3.8889 1.7411-3.8889 3.8889 0 1.6367 1.0111 3.0373 2.4427 3.6111h1.4462 1.4461 1.1293 2.4246 2.4245 2.1341 1.2747 1.2747c1.0511-.4831 1.7809-1.5452 1.7809-2.7778 0-1.6875-1.3681-3.0555-3.0556-3.0555-.1139 0-.2264.0062-.3371.0184z" fill="#d9eef9" fill-rule="evenodd"/><path clip-rule="evenodd" d="m41.3889 26.6667h-1.2747-2.1341-2.4245-2.4245-1.1294-1.4461-1.4462c-1.4316-.5739-2.4427-1.9744-2.4427-3.6111 0-2.1478 1.7411-3.8889 3.8889-3.8889l.0373.0001c.9148-1.8126 2.7936-3.0557 4.9627-3.0557 2.7914 0 5.1019 2.0587 5.4962 4.7406.1107-.0121.2232-.0184.3371-.0184 1.6875 0 3.0556 1.3681 3.0556 3.0556 0 1.2325-.7298 2.2947-1.7809 2.7778z" fill="#f0faff" fill-rule="evenodd"/><g fill="#2d3436"><path d="m41.3848 20.5832c-.521-2.7814-3.0736-4.756-5.9162-4.756-2.0227 0-4.0125 1.194-5.0511 2.9418-1.0248.0785-2.0527.4585-2.7958 1.1864-1.0169.8268-1.4268 1.881-1.4268 3.0798 0 2.2377 1.6711 4.0755 3.9087 4.2789.02.0018.0402.0027.0603.0027h5.9731c.3682 0 .6667-.2984.6667-.6666s-.2985-.6667-.6667-.6667h-5.9414c-1.535-.1537-2.6674-1.4085-2.6674-2.9483 0-.8558.2711-1.5146.9548-2.0615.0192-.0154.0376-.0318.055-.0492.5352-.5352 1.3823-.8376 2.2828-.8376.2525 0 .4834-.1426.5963-.3685.7524-1.5047 2.4206-2.5578 4.0515-2.5578 2.4363 0 4.5229 1.825 4.671 4.1948.012.1921.1064.3696.259.4869s.3484.163.5371.1252c.6898-.1379 1.3543.0024 1.8792.3961.4863.3646.7662 1.0064.7662 1.7045 0 .3056-.004.5158-.0761.742-.0683.2144-.2154.49-.5817.8447-.1286.1246-.4178.2367-.8992.291-.379.0427-.7683.0405-1.1215.0385-.0729-.0004-.1442-.0008-.2135-.0008h-.4827c-.3682 0-.6667.2985-.6667.6667s.2985.6666.6667.6666h.4827c.0557 0 .1172.0005.1834.0009.3515.0023.8353.0056 1.3011-.047.5294-.0597 1.2103-.2058 1.6772-.658.4945-.4788.7777-.937.9245-1.3976.1394-.437.1392-.8334.1391-1.1239v-.0231c0-1.0234-.4086-2.103-1.2995-2.7712-.6569-.4926-1.4354-.7267-2.2301-.7137z"/><path d="m19.9611 30.66c.1223.1452.3055.2375.5102.2375h.0017c.1712.0005.3426-.0646.4732-.1952l2.4305-2.4306c.2604-.2603.2604-.6824.0001-.9428-.2604-.2603-.6825-.2603-.9429 0l-1.2959 1.296v-4.644c0-1.993 1.5071-3.5 3.5-3.5.3682 0 .6666-.2985.6666-.6667s-.2984-.6667-.6666-.6667c-2.7293 0-4.8334 2.1041-4.8334 4.8334v4.637l-1.289-1.289c-.2603-.2603-.6824-.2603-.9428 0-.2603.2604-.2603.6825 0 .9428z"/><path d="m38.1897 27.3644c.3681 0 .6666-.2985.6666-.6667 0-.3681-.2985-.6666-.6666-.6666-.3682 0-.6667.2985-.6667.6666 0 .3682.2985.6667.6667.6667z"/></g></svg>