<svg fill="none" height="54" viewBox="0 0 53 54" width="53" xmlns="http://www.w3.org/2000/svg"><path clip-rule="evenodd" d="m10.4612 7.80384c.5354-1.86508 2.2536-3.22962 4.2908-3.22962 2.4651 0 4.4635 1.9984 4.4635 4.46356 0 2.36172-1.8339 4.29472-4.1557 4.45312-.033.0068-.0672.0104-.1022.0104h-.1904-.0152-.0153-6.14869c-.01888.0004-.0378.0005-.05676.0005-1.75394 0-3.17578-1.4218-3.17578-3.1758 0-1.7539 1.42184-3.17574 3.17578-3.17574.72618 0 1.39526.24388 1.92995.65358zm4.4242 4.69746h-.1182-.0019-.0133-.0134-.0019-6.15326v-.0001l-.00956.0002c-.01418.0003-.02838.0004-.04263.0004-1.20165 0-2.17578-.9741-2.17578-2.1758 0-1.20161.97413-2.17574 2.17578-2.17574.77226 0 1.45097.40196 1.83775 1.01045.1175.18482.3417.27167.553.21428.2114-.05739.3608-.24565.3687-.46452.0668-1.85371 1.591-3.33625 3.4613-3.33625 1.9128 0 3.4635 1.55069 3.4635 3.46356 0 1.85242-1.4545 3.36552-3.2834 3.45902-.0158.0008-.0313.0023-.0467.0045zm-8.52799 15.5067c.22567.007.41871.1642.47106.3839.17977.754.42747 1.61.72551 2.6393.38613 1.3337.90596 3.2506 1.44444 5.5098.07172-.2132.14168-.4183.20896-.6155.12782-.3747.246-.7211.34829-1.0419.0822-.2577.15887-.4981.22949-.7253v-13.7489c0-.8894.76944-1.5834 1.65414-1.492l17.3584 1.7933c.1207.0125.2368.0391.3468.078v-3.8872c0-.6328.3972-1.1976.9928-1.4116l1.7796-.6395c-.0044-.0267-.0067-.0542-.0067-.0822v-5.66468c0-.27615.2238-.5.5-.5.2761 0 .5.22385.5.5v5.39008l2.2079-.7934c-.0183-.052-.0283-.1078-.0283-.1661v-2.6386c0-.2761.2239-.5.5-.5.2762 0 .5.2239.5.5v2.4555l10.1908-3.66167c1.6289-.58529 3.3454.62187 3.3454 2.35277v36.5863c0 .8284-.6716 1.5-1.5 1.5h-6.474-5.8434-5.1641c-.3844 0-.735-.1446-1.0004-.3824-.2655.2378-.6161.3824-1.0005.3824h-8.3932-4.8754-4.0898c-.8285 0-1.50004-.6716-1.50004-1.5v-1.6177c0-.2761.22384-.5.50004-.5.2761 0 .5.2239.5.5v1.6177c0 .2762.2238.5.5.5h3.5898v-3.7301c0-.2761.2239-.5.5-.5s.5.2239.5.5v3.7301h3.8754v-4.6655c0-.2762-.2239-.5-.5-.5h-1.9394c-.2761 0-.5-.2239-.5-.5 0-.2762.2239-.5.5-.5h1.9394c.8284 0 1.5.6716 1.5 1.5v4.6655h7.8932c.2761 0 .5-.2238.5-.5v-26.4256c0-.2563-.1938-.471-.4486-.4974l-17.3585-1.7933c-.2949-.0305-.5513.2009-.5513.4973v13.4716c.0131.0288.0235.0592.0311.0909.1297.5441.3087 1.1627.5255 1.9116.1209.4176.2629.8607.4179 1.3447.4561 1.424 1.0254 3.2009 1.5041 5.7181.0059.0308.0088.0621.0088.0934 0 1.5468-1.3631 2.7218-2.9427 2.7218-.69296 0-1.33578-.2221-1.84346-.5997-.61874.3803-1.35944.5994-2.14434.5994-2.08706 0-3.86163-1.5492-3.86163-3.5576 0-.0274.00226-.0549.00676-.0819.94109-5.6642 2.18016-9.9897 2.96853-12.4616.14952-.4688.28621-.8974.40798-1.2978.0657-.216.26801-.3612.49367-.3543zm29.95119 21.1204h4.8434v-4.949c0-.2761.2239-.5.5-.5.2762 0 .5.2239.5.5v4.949h5.974c.2761 0 .5-.2238.5-.5v-13.6821h-.0018-7.968c-.2761 0-.5-.2239-.5-.5 0-.2762.2239-.5.5-.5h7.968.0018v-3.826c-.0859.0695-.1953.1111-.3143.1111h-7.9679c-.2762 0-.5-.2238-.5-.5 0-.2761.2238-.5.5-.5h7.9679c.119 0 .2284.0417.3143.1111v-3.8259h-.0018-7.968c-.2761 0-.5-.2239-.5-.5s.2239-.5.5-.5h7.968.0018v-3.7148h-.0018-7.968c-.2761 0-.5-.2239-.5-.5 0-.2762.2239-.5.5-.5h7.968.0018v-7.7597c0-1.0386-1.0299-1.7628-2.0073-1.4117l-16.1432 5.8006c-.1986.0713-.331.2596-.331.4705v31.7269c0 .2762.2239.5.5.5h4.6641v-9.3979c0-.8285.6716-1.5 1.5-1.5h3.8434c.8285 0 1.5.6715 1.5 1.5v.7245c0 .2761-.2238.5-.5.5-.2761 0-.5-.2239-.5-.5v-.7245c0-.2762-.2238-.5-.5-.5h-3.8434c-.2761 0-.5.2238-.5.5zm-27.01275-4.6314c.29722.1664.65086.2645 1.03405.2645 1.1005 0 1.916-.7883 1.9421-1.6779-.4641-2.4242-1.002-4.1038-1.4525-5.5105-.1594-.4977-.3079-.9612-.4382-1.4115l-.0027-.0093-.0881-.3045c-.0491.1451-.0993.292-.1506.442-.20786.6083-.43279 1.2665-.67027 2.0607-.00898.03-.02054.0586-.03435.0855.26037 1.1693.51788 2.403.75962 3.6742.0059.0308.0088.0621.0088.0934 0 .8846-.34424 1.6801-.90785 2.2934zm-2.99335-14.198c-.77764 2.4783-1.93253 6.6072-2.82169 11.9439.02336 1.3523 1.25076 2.5183 2.86129 2.5183 1.60831 0 2.83455-1.1628 2.86119-2.5127-.86968-4.5615-1.94253-8.6343-2.60986-10.9391l-.00273-.0095c-.10123-.3496-.19767-.6827-.2882-1.0009zm.03734 16.1375c.27615 0 .5.2239.5.5v2.6386c0 .2762-.22385.5-.5.5-.27614 0-.5-.2238-.5-.5v-2.6386c0-.2761.22386-.5.5-.5zm7.46096-21.9199c-.2762 0-.5.2239-.5.5s.2238.5.5.5h5.6647c.2761 0 .5-.2239.5-.5s-.2239-.5-.5-.5zm.7148 5.2148c0-.2761.2239-.5.5-.5h4.4493c.2762 0 .5.2239.5.5 0 .2762-.2238.5-.5.5h-4.4493c-.2761 0-.5-.2238-.5-.5zm1.7149 4.2149c-.2762 0-.5.2238-.5.5 0 .2761.2238.5.5.5h3.235c.2761 0 .5-.2239.5-.5 0-.2762-.2239-.5-.5-.5zm7.5937 5.2148c0-.2761.2239-.5.5-.5h2.3571c.2762 0 .5.2239.5.5 0 .2762-.2238.5-.5.5h-2.3571c-.2761 0-.5-.2238-.5-.5zm.5-5.2148c-.2761 0-.5.2238-.5.5 0 .2761.2239.5.5.5h2.3571c.2762 0 .5-.2239.5-.5 0-.2762-.2238-.5-.5-.5zm-.5-4.2149c0-.2761.2239-.5.5-.5h2.3571c.2762 0 .5.2239.5.5 0 .2762-.2238.5-.5.5h-2.3571c-.2761 0-.5-.2238-.5-.5zm11.7656 4.2149c-.2761 0-.5.2238-.5.5 0 .2761.2239.5.5.5h1.024c.2761 0 .5-.2239.5-.5 0-.2762-.2239-.5-.5-.5zm-.5-4.2149c0-.2761.2239-.5.5-.5h1.024c.2761 0 .5.2239.5.5 0 .2762-.2239.5-.5.5h-1.024c-.2761 0-.5-.2238-.5-.5zm-1.5273-5.2148c-.2761 0-.5.2239-.5.5s.2239.5.5.5h3.0513c.2761 0 .5-.2239.5-.5s-.2239-.5-.5-.5zm-.5-4.2148c0-.2762.2239-.5.5-.5h3.0513c.2761 0 .5.2238.5.5 0 .2761-.2239.5-.5.5h-3.0513c-.2761 0-.5-.2239-.5-.5zm2.5273-10.69828c.2762 0 .5-.22386.5-.5 0-.27615-.2238-.5-.5-.5-.2761 0-.5.22385-.5.5 0 .27614.2239.5.5.5zm6.5625 32.74998c0 .2762-.2238.5-.5.5-.2761 0-.5-.2238-.5-.5 0-.2761.2239-.5.5-.5.2762 0 .5.2239.5.5zm-26.9218 1.6094c.2761 0 .5-.2239.5-.5 0-.2762-.2239-.5-.5-.5-.2762 0-.5.2238-.5.5 0 .2761.2238.5.5.5z" fill="#18303f" fill-rule="evenodd"/></svg>