<svg fill="none" height="46" viewBox="0 0 45 46" width="45" xmlns="http://www.w3.org/2000/svg"><path clip-rule="evenodd" d="m8.84081 6.46433c.49633-1.56198 1.95819-2.69351 3.68439-2.69351 2.1348 0 3.8653 1.73055 3.8653 3.86529 0 2.04346-1.5854 3.71629-3.5937 3.85589-.0313.0061-.0637.0094-.0969.0094h-.1616-.0131-.013-5.21983c-.01625.0003-.03254.0004-.04885.0004-1.53087 0-2.77189-1.241-2.77189-2.77189 0-1.53087 1.24102-2.77189 2.77189-2.77189.59497 0 1.146.18758 1.59729.50631zm3.79249 4.03707h-.095-.0019-.0112-.0111-.0019-5.22437v-.0001l-.00956.0002c-.01155.0002-.02314.0003-.03475.0003-.97859 0-1.77189-.7933-1.77189-1.77189s.7933-1.77189 1.77189-1.77189c.6288 0 1.18153.32717 1.49671.82295.11749.18482.3416.27167.55296.21428s.36078-.24565.36866-.46452c.05527-1.53346 1.31625-2.75991 2.86335-2.75991 1.5825 0 2.8653 1.28283 2.8653 2.86529 0 1.53243-1.2032 2.78419-2.7161 2.86149-.0139.0007-.0276.002-.0411.0038zm-7.23318 13.1661c.22567.0069.4187.1642.47106.3838.15212.6381.36187 1.363.61508 2.2375.31351 1.0828.73068 2.618 1.1663 4.4269l.09469-.2781h.00001c.10835-.3176.20828-.6106.29414-.8798.06851-.2148.13238-.4151.19129-.6044v-11.4948c0-.8894.76946-1.5834 1.65415-1.492l14.43636 1.4914c.1207.0125.2367.039.3467.0779v-3.1169c0-.6328.3972-1.1976.9928-1.4116l1.4351-.5157c-.0028-.0215-.0043-.0434-.0043-.0656v-4.65871c0-.27614.2239-.5.5-.5.2762 0 .5.22386.5.5v4.36651l1.719-.6176c-.0125-.0439-.0192-.0901-.0192-.138v-2.08941c0-.27614.2238-.5.5-.5.2761 0 .5.22386.5.5v1.87501l8.0721-2.90046c1.6289-.58529 3.3453.62186 3.3453 2.35276v30.4837c0 .8284-.6715 1.5-1.5 1.5h-5.3438-.002-4.9614-.0019-4.2317c-.3844 0-.735-.1446-1.0004-.3824-.2654.2378-.616.3824-1.0004.3824h-6.9754-4.1394-3.32161c-.82843 0-1.5-.6716-1.5-1.5v-1.2226c0-.2761.22385-.5.5-.5.27614 0 .5.2239.5.5v1.2226c0 .2761.22385.5.5.5h2.82161v-3.0916c0-.2762.2238-.5.5-.5.2761 0 .5.2238.5.5v3.0916h3.1394v-3.7349c0-.2762-.2238-.5-.5-.5h-1.4957c-.2761 0-.5-.2239-.5-.5 0-.2762.2239-.5.5-.5h1.4957c.8284 0 1.5.6715 1.5 1.5v3.7349h6.4754c.2761 0 .5-.2239.5-.5v-22.1498c0-.2563-.1937-.471-.4486-.4974l-14.43643-1.4914c-.2949-.0305-.55138.2008-.55138.4973v11.2551c.00999.0242.01818.0494.02439.0754.10962.4599.261.9831.44527 1.6195.10195.3522.22199.7269.35325 1.1367.3875 1.2095.8728 2.7247 1.2803 4.867.0058.0308.0088.062.0088.0934 0 1.3615-1.1981 2.3864-2.57399 2.3864-.58607 0-1.13182-.1821-1.56928-.4942-.52868.314-1.15527.4939-1.81662.4939-1.80682 0-3.35422-1.3426-3.35422-3.096 0-.0275.00227-.0549.00677-.082.79977-4.8136 1.85281-8.4898 2.52299-10.5911.12699-.3982.24288-.7616.3461-1.1009.0657-.216.268-.3612.49367-.3543zm25.50338 17.9324h3.9614v-4.1265c0-.2762.2239-.5.5-.5.2762 0 .5.2238.5.5v4.1265h4.8458c.2762 0 .5-.2239.5-.5v-11.466h-.0015-6.6143c-.2761 0-.5-.2239-.5-.5s.2239-.5.5-.5h6.6143.0015v-3.0803c-.0772.0489-.1687.0771-.2668.0771h-6.6143c-.2761 0-.5-.2238-.5-.5 0-.2761.2239-.5.5-.5h6.6143c.0981 0 .1896.0283.2668.0771v-3.0802h-.0015-6.6143c-.2761 0-.5-.2239-.5-.5 0-.2762.2239-.5.5-.5h6.6143.0015v-3.0032h-.0015-6.6143c-.2761 0-.5-.2239-.5-.5 0-.2762.2239-.5.5-.5h6.6143.0015v-6.0082c0-1.03855-1.0299-1.76284-2.0072-1.41167l-13.2027 4.74397c-.1985.0713-.3309.2596-.3309.4705v26.6809c0 .2761.2238.5.5.5h3.7336v-7.753c0-.8284.6716-1.5 1.5-1.5h2.9614c.8285 0 1.5.6716 1.5 1.5v.4642c0 .2761-.2238.5-.5.5-.2761 0-.5-.2239-.5-.5v-.4642c0-.2762-.2238-.5-.5-.5h-2.9614c-.2761 0-.5.2238-.5.5zm-22.88994-3.8789c.2228.1082.48018.1711.75715.1711.89667 0 1.54759-.638 1.57319-1.3432-.39267-2.0489-.84671-3.4666-1.22848-4.6586l-.00003-.0001c-.13565-.4236-.26218-.8187-.37359-1.2034l-.00269-.0093-.00769-.0266-.0516.151-.00001.0001-.00005.0001c-.17598.5149-.36572 1.07-.5672 1.7438-.00619.0207-.0136.0407-.02214.06.2193.986.43612 2.0256.6398 3.0964.00585.0308.0088.0621.0088.0935 0 .7375-.27377 1.4024-.72546 1.9252zm-2.66549-11.7693c-.65679 2.1224-1.59113 5.5282-2.31707 9.8829.02312 1.098 1.02362 2.0572 2.35381 2.0572 1.32795 0 2.32732-.956 2.35368-2.0516-.7376-3.867-1.64706-7.3194-2.21278-9.2733l-.00272-.0093-.00005-.0002c-.06037-.2086-.11878-.4103-.17487-.6057zm.11029 13.4381c.27615 0 .5.2238.5.5l.00001 2.0894c0 .2761-.22386.5-.5.5-.27615 0-.5-.2239-.5-.5l-.00001-2.0894c0-.2762.22386-.5.5-.5zm6.33474-18.7622c-.2761 0-.5.2238-.5.5 0 .2761.2239.5.5.5h4.6587c.2762 0 .5-.2239.5-.5 0-.2762-.2238-.5-.5-.5zm.5315 4.5031c0-.2761.2239-.5.5-.5h3.6268c.2761 0 .5.2239.5.5 0 .2762-.2239.5-.5.5h-3.6268c-.2761 0-.5-.2238-.5-.5zm1.5315 3.5032c-.2762 0-.5.2239-.5.5s.2238.5.5.5h2.5957c.2762 0 .5-.2239.5-.5s-.2238-.5-.5-.5zm6.372 4.5032c0-.2762.2239-.5.5-.5h1.8504c.2761 0 .5.2238.5.5 0 .2761-.2239.5-.5.5h-1.8504c-.2761 0-.5-.2239-.5-.5zm.5-4.5032c-.2761 0-.5.2239-.5.5s.2239.5.5.5h1.8504c.2761 0 .5-.2239.5-.5s-.2239-.5-.5-.5zm-.5-3.5032c0-.2761.2239-.5.5-.5h1.8504c.2761 0 .5.2239.5.5 0 .2762-.2239.5-.5.5h-1.8504c-.2761 0-.5-.2238-.5-.5zm10.0652 3.5032c-.2762 0-.5.2239-.5.5s.2238.5.5.5h.7184c.2762 0 .5-.2239.5-.5s-.2238-.5-.5-.5zm-.5-3.5032c0-.2761.2238-.5.5-.5h.7184c.2762 0 .5.2239.5.5 0 .2762-.2238.5-.5.5h-.7184c-.2762 0-.5-.2238-.5-.5zm-1.2214-4.5031c-.2761 0-.5.2238-.5.5 0 .2761.2239.5.5.5h2.4398c.2762 0 .5-.2239.5-.5 0-.2762-.2238-.5-.5-.5zm-.5-3.5032c0-.2762.2239-.5.5-.5h2.4398c.2762 0 .5.2238.5.5 0 .2761-.2238.5-.5.5h-2.4398c-.2761 0-.5-.2239-.5-.5zm2.1459-9.00795c.2345 0 .4245-.19007.4245-.42453s-.19-.42453-.4245-.42453-.4245.19007-.4245.42453.19.42453.4245.42453zm5.5719 27.80665c0 .2344-.19.4245-.4245.4245s-.4245-.1901-.4245-.4245c0-.2345.19-.4246.4245-.4246s.4245.1901.4245.4246zm-22.8582 1.3664c.2345 0 .4246-.1901.4246-.4245 0-.2345-.1901-.4246-.4246-.4246-.2344 0-.4245.1901-.4245.4246 0 .2344.1901.4245.4245.4245z" fill="#18303f" fill-rule="evenodd"/></svg>