<svg fill="none" height="46" viewBox="0 0 45 46" width="45" xmlns="http://www.w3.org/2000/svg"><g stroke="#18303f" stroke-linecap="round" stroke-linejoin="round"><path d="m36.3203 10.2848v-4.71571"/><path d="m5.16406 5.80092c0-.17148.32593-.25722.73334-.25722h10.3483c.4074 0 .7333.08574.7333.25722v11.91788c0 .1714-.3259.2572-.7333.2572h-11.08164z"/><path d="m8.17969 8.71753v1.54327"/><path d="m11.1133 8.71753v1.54327"/><path d="m14.0469 8.71753v1.54327"/><path d="m8.17969 13.3464v1.5433"/><path d="m11.1133 13.3464v1.5433"/><path d="m14.0469 13.3464v1.5433"/><path d="m19.5291 41.8095h-14.52725c-.41987 0-.75576-.3471-.75576-.7809v-21.4309c0-.8677.67178-1.5618 1.51151-1.5618h12.26c.8397 0 1.5115.6941 1.5115 1.5618z"/><path d="m16.9805 17.9919v-11.12667c0-.86927.6344-1.56469 1.4275-1.56469h11.5789c.7931 0 1.4275.69542 1.4275 1.56469v34.16237c0 .4347-.3172.7824-.7137.7824h-10.8652"/><path d="m28.3883 41.5816v-3.944c0-.4287-.3259-.7716-.7333-.7716h-2.9334c-.4074 0-.7333.3429-.7333.7716v3.944"/><path d="m12.0836 41.5816v-3.944c0-.4287-.3259-.7716-.7333-.7716h-2.93337c-.40741 0-.73334.3429-.73334.7716v3.944"/><path d="m4.66797 22.8044h5.94823"/><path d="m16.9844 14.9167h5.6678"/><path d="m16.9844 10.2009h8.4629"/><path d="m4.66797 27.5212h2.93337"/><path d="m13.5508 4.02612v1.45758"/><path d="m14.2812 22.8044h1.4667"/><path d="m14.2812 27.5212h1.4667"/><path d="m14.2812 32.1501h1.4667"/><path d="m26.1836 19.6306h1.4667"/><path d="m26.1836 24.3474h1.4667"/><path d="m26.1836 29.0632h1.4667"/><path d="m20.2305 19.6306h1.4667"/><path d="m26.1836 14.9167h1.4667"/><path d="m20.2305 24.3474h1.4667"/><path d="m20.2305 29.0632h1.4667"/><path d="m41.2303 16.4607h-9.6298l9.6298 6.259-9.8319 6.259 9.8992 6.3448-9.5625 6.0875"/><path d="m31.4141 16.4357 4.9874-6.0414 4.9875 6.0414c.1425.0863.2137.3452.2137.5178v24.0791c0 .4316-.285.7768-.6412.7768h-9.1199"/><path d="m1.69922 41.8093h41.60378"/></g></svg>