<svg fill="none" height="54" viewBox="0 0 53 54" width="53" xmlns="http://www.w3.org/2000/svg"><path clip-rule="evenodd" d="m15.9612 4.36755c.2761 0 .5.22386.5.5v1.28717h2.6715c.2659 0 .5401.02696.7658.10005.1082.03501.237.09058.3488.18474.3768-.35378.873-.57196 1.434-.57196h13.6374c1.2524 0 2.1813 1.08707 2.1813 2.34286v9.88149l4.7797-5.7897c-.0027-.0208-.004-.0421-.004-.0637v-5.55402c0-.27614.2238-.5.5-.5.2761 0 .5.22386.5.5v5.38412l5.8178 7.0471c.1718.1384.2641.3286.313.4618.062.169.0935.3544.0935.5153v28.3599c0 .139-.0192.2793-.0563.4149h1.5563c.2761 0 .5.2238.5.5 0 .2761-.2239.5-.5.5h-2.7552-10.7413-1.3442-12.7967-.3626-17.10989-3.89011c-.27614 0-.5-.2239-.5-.5 0-.2762.22386-.5.5-.5h2.56159c-.04012-.1332-.06159-.2743-.06159-.4198v-25.2408c0-.8385.42733-1.5805 1.08104-1.9939v-14.25543c0-.22998.11599-.40239.23911-.50961.11411-.09936.24742-.15723.35879-.19329.22575-.07309.49996-.10005.76581-.10005h8.51645v-1.28717c0-.27614.2238-.5.5-.5zm-10.07109 44.50005h2.66129v-4.4139c0-.7567.58404-1.4088 1.36372-1.4088h3.45488c.7796 0 1.3637.6521 1.3637 1.4088v4.4139h7.7663v-25.6606c0-.7613-.5826-1.3394-1.2802-1.3394h-14.43958c-.69758 0-1.28022.5781-1.28022 1.3394v3.2764h7.0057c.2761 0 .5.2239.5.5s-.2239.5-.5.5h-7.0057v4.5553h3.45486c.27614 0 .5.2239.5.5 0 .2762-.22386.5-.5.5h-3.45486v15.4091c0 .2504.18704.4198.39011.4198zm17.60989 0h4.2523v-4.4139c0-.7567.5841-1.4088 1.3637-1.4088h3.4549c.7797 0 1.3637.6521 1.3637 1.4088v4.4139h2.2247c.1488 0 .3407-.1416.3407-.4215v-14.0511c-.0132-.0451-.0201-.0925-.02-.1408.0001-.0477.007-.0945.02-.1392v-14.6285-.0076-11.26849c0-.79182-.5656-1.34286-1.1813-1.34286h-13.6374c-.6157 0-1.1813.55103-1.1813 1.34286v3.42859h9.4723c.2761 0 .5.2239.5.5 0 .2762-.2239.5-.5.5h-9.4723v4.5547h6.1803c.2761 0 .5.2239.5.5 0 .2762-.2239.5-.5.5h-6.1803v2.6739h.7198c1.1725 0 2.1097.8862 2.2593 2.0203.0901-.0878.2133-.1419.349-.1419h1.7275c.2761 0 .5.2238.5.5 0 .2761-.2239.5-.5.5h-1.7275c-.1255 0-.2403-.0463-.3281-.1228v4.8009c.0878-.0765.2026-.1228.3281-.1228h1.7275c.2761 0 .5.2239.5.5 0 .2762-.2239.5-.5.5h-1.7275c-.1255 0-.2403-.0463-.3281-.1227v4.7998c.0878-.0764.2026-.1227.3281-.1227h1.7275c.2761 0 .5.2238.5.5 0 .2761-.2239.5-.5.5h-1.7275c-.1255 0-.2403-.0463-.3281-.1228zm14.8546 0h9.8902c.0388 0 .0932-.0171.1493-.0852.0575-.0696.1059-.1838.1059-.3297v-6.0437zm-5.42 0v-4.4139c0-.253-.1837-.4088-.3637-.4088h-3.4549c-.18 0-.3637.1558-.3637.4088v4.4139zm-19.2009 0v-4.4139c0-.2531-.1837-.4088-.3637-.4088h-3.45488c-.18001 0-.36372.1557-.36372.4088v4.4139zm29.1404-35.7147-4.8366 5.8587h9.6732zm-3.9694 6.8587h9.5869l.0004.0023c.006.0332.008.0609.008.0789v6.1553zm-.9959 14.2448 10.5912-6.7423v13.5306zm-.4088 13.9698 10.2103-6.4999-10.2103-6.5441zm0-14.8949 10.1356-6.4524-10.1356-6.5877zm-30.91896-12.5341v-13.61403c.08958-.01671.21259-.02845.36371-.02845h12.18795c.1511 0 .2741.01174.3637.02846v13.58552c-.0896.0167-.2126.0285-.3637.0285zm3.05078-10.90518c.27614 0 .49998.22388.49998.49998v1.8177c0 .2762-.22384.5-.49998.5s-.5-.2238-.5-.5v-1.8177c0-.2761.22386-.49998.5-.49998zm3.95708.49998c0-.2761-.2239-.49998-.5-.49998-.2762 0-.5.22388-.5.49998v1.8177c0 .2762.2238.5.5.5.2761 0 .5-.2238.5-.5zm2.9531-.49998c.2761 0 .5.22388.5.49998v1.8177c0 .2762-.2239.5-.5.5-.2762 0-.5-.2238-.5-.5v-1.8177c0-.2761.2238-.49998.5-.49998zm-6.4102 5.95218c0-.2762-.22384-.5-.49998-.5s-.5.2238-.5.5v1.8177c0 .2761.22386.5.5.5s.49998-.2239.49998-.5zm2.9571-.5c.2761 0 .5.2238.5.5v1.8177c0 .2761-.2239.5-.5.5-.2762 0-.5-.2239-.5-.5v-1.8177c0-.2762.2238-.5.5-.5zm3.9531.5c0-.2762-.2239-.5-.5-.5-.2762 0-.5.2238-.5.5v1.8177c0 .2761.2238.5.5.5.2761 0 .5-.2239.5-.5zm-.2201 10.6392c-.2762 0-.5.2239-.5.5s.2238.5.5.5h1.7274c.2761 0 .5-.2239.5-.5s-.2239-.5-.5-.5zm-.5 6.0553c0-.2761.2238-.5.5-.5h1.7274c.2761 0 .5.2239.5.5 0 .2762-.2239.5-.5.5h-1.7274c-.2762 0-.5-.2238-.5-.5zm.5 4.9518c-.2762 0-.5.2239-.5.5 0 .2762.2238.5.5.5h1.7274c.2761 0 .5-.2238.5-.5 0-.2761-.2239-.5-.5-.5zm13.5165-14.2445c0-.2762.2239-.5.5-.5h1.7275c.2761 0 .5.2238.5.5 0 .2761-.2239.5-.5.5h-1.7275c-.2761 0-.5-.2239-.5-.5zm.5 5.0553c-.2761 0-.5.2239-.5.5 0 .2762.2239.5.5.5h1.7275c.2761 0 .5-.2238.5-.5 0-.2761-.2239-.5-.5-.5zm-.5 6.0544c0-.2762.2239-.5.5-.5h1.7275c.2761 0 .5.2238.5.5 0 .2761-.2239.5-.5.5h-1.7275c-.2761 0-.5-.2239-.5-.5zm0-16.6621c0-.2761.2239-.5.5-.5h1.7275c.2761 0 .5.2239.5.5 0 .2762-.2239.5-.5.5h-1.7275c-.2761 0-.5-.2238-.5-.5z" fill="#18303f" fill-rule="evenodd"/></svg>