<svg fill="none" height="28" viewBox="0 0 28 28" width="28" xmlns="http://www.w3.org/2000/svg"><path clip-rule="evenodd" d="m14.7312 2.76936c0-.23154-.1419-.43864-.3557-.51923s-.4544-.01767-.6033.15776l-8.55628 10.08421c-.1429.1577-.23027.3769-.27096.5477-.02318.0973-.04099.218-.03233.3453.00672.0986.03308.2506.13074.3926.22683.4185.64605.6229 1.04777.6229h7.54886v2.2154h-9.71442c-.54781 0-.83014.4066-.94713.5751l-.01789.0257c-.14985.2121-.19405.4701-.21242.6261-.02018.1714-.02015.3371-.02014.4284v.0065c0 .0132.00047.0264.0014.0396.13158 1.863.88691 3.5866 1.9646 4.6436-.49749.5263-1.1961.8553-1.966.8553-.30133 0-.5456.2479-.5456.5538s.24427.5539.5456.5539c1.38554 0 2.60402-.7576 3.2736-1.8852.66958 1.1276 1.88806 1.8852 3.2736 1.8852 1.3855 0 2.604-.7576 3.2736-1.8852.6696 1.1276 1.8881 1.8852 3.2736 1.8852s2.604-.7576 3.2736-1.8852c.6696 1.1276 1.8881 1.8852 3.2736 1.8852.3013 0 .5456-.248.5456-.5539s-.2443-.5538-.5456-.5538c-.3604 0-.7053-.0721-1.0211-.2028.3027-.1036.5705-.2483.8639-.4373.0144-.0093.0284-.0192.0419-.0298 1.3234-1.041 2.1576-2.8645 2.2963-4.829.0009-.0132.0014-.0264.0014-.0396v-.0064c0-.0913 0-.257-.0202-.4285-.0183-.1561-.0626-.414-.2124-.6261-.1088-.154-.2551-.2886-.3918-.3854-.0703-.0499-.1496-.098-.2334-.1358-.0738-.0333-.1961-.0796-.3398-.0796h-8.6232zm-8.6959 10.45434 7.6047-8.96263v9.03173h-7.54886c-.02454 0-.04536-.0065-.06001-.0153-.00516-.0031-.0103-.0069-.0153-.0118.00399-.0112.00842-.022.0129-.0314l.00338-.0068zm-2.18318 4.639c.00166-.0058.00308-.01.00414-.0131.02959-.0418.05056-.0709.07109-.0966.01039-.013.01863-.0224.02495-.0292h19.327l.0126.0082.0109.0076c.0265.0187.054.0415.0789.0655.0189.0182.0329.034.0425.0461.001.0028.0023.0067.0037.0115.0072.025.0146.0621.0205.1117.0111.0942.0123.1937.0124.2834-.1253 1.7084-.8456 3.1913-1.855 3.9972-.2538.162-.4422.2563-.6394.3199-.1978.0638-.429.1045-.7761.1318-.3441-.4635-.5487-1.0388-.5487-1.6598 0-.3059-.2443-.5538-.5456-.5538s-.5456.2479-.5456.5538c0 1.5219-1.2288 2.7694-2.728 2.7694s-2.728-1.2475-2.728-2.7694c0-.3059-.2443-.5538-.5456-.5538s-.5456.2479-.5456.5538c0 1.5219-1.2288 2.7694-2.728 2.7694-1.49915 0-2.728-1.2475-2.728-2.7694 0-.3059-.24427-.5538-.5456-.5538s-.5456.2479-.5456.5538c0 .3326-.05869.6521-.16607.9483-.76911-.8498-1.35858-2.2088-1.47072-3.7374.00012-.0897.00133-.1892.01242-.2834.00584-.0496.01327-.0867.02049-.1117z" fill="#c4c4c4" fill-rule="evenodd"/></svg>