<svg fill="none" height="28" viewBox="0 0 28 28" width="28" xmlns="http://www.w3.org/2000/svg"><path d="m22.4239 2.00695h-19.85502c-.62239 0-1.09358.56245-.98453 1.17521l1.59604 8.96844c.19723 1.1083 1.79127 1.0961 1.97162-.015l.4508-2.7774c.1654-1.01902 1.58768-1.12969 1.90871-.1485.30077.9193 1.60791.8999 1.88126-.02793l.07453-.25295c.28891-.98063 1.68929-.94706 1.93089.04629l1.4056 5.77929c.2604 1.0704 1.807.9949 1.9618-.0958l.2953-2.0813c.1589-1.1196 1.7623-1.1566 1.9726-.0455l1.363 7.199c.206 1.0881 1.7655 1.0842 1.966-.0049l3.0448-16.53788c.1132-.61448-.3586-1.18107-.9834-1.18107z" stroke="#c4c4c4" stroke-linecap="round" stroke-linejoin="round"/></svg>