<svg fill="none" height="28" viewBox="0 0 28 28" width="28" xmlns="http://www.w3.org/2000/svg"><path d="m13.6297 22.809c-.1838-2.8044-3.88955-3.934-7.10427-3.934-1.05879 0-4.09626.277-4.95863 2.1055v-12.16216h.01027c.1838-2.80434 2.81161-3.93401 6.02633-3.93401 3.2147 0 5.8425 1.12967 6.0263 3.93401h.0103m-.0103 13.99066.0103-13.99066m-.0103 13.99066h.0206c.1838-2.8044 3.8895-3.934 7.1043-3.934 1.0588 0 3.2339.277 4.9586 2.1055v-12.16216h-.0103c-.1838-2.80434-2.8116-3.93401-6.0263-3.93401s-5.8425 1.12967-6.0263 3.93401h-.0103" stroke="#c4c4c4" stroke-linecap="round" stroke-linejoin="round"/></svg>