<svg fill="none" height="40" viewBox="0 0 40 40" width="40" xmlns="http://www.w3.org/2000/svg"><path d="m11.1048 7.37849-1.0696 3.17211h19.844l-.9959-3.17211-3.7253-1.43852-.3689-3.20902-.8852-1.29092h-7.6352l-1.1803 1.29092-.4057 3.20902z" fill="#f0faff"/><path d="m18.2099 1.24805h5.7146l.8784 2.39882h-5.791c-.8837 0-1.6.71635-1.6 1.60001v1.648c0 .97312-.7889 1.762-1.762 1.762-1.7674 0-3.2 1.43272-3.2 3.20002h-1.6l-.802-.7989c0-2.65092 2.149-4.79995 4.8-4.79995.0894 0 .162-.07253.162-.162v-1.648c0-1.76731 1.4326-3.2 3.2-3.2z" fill="#d9eef9"/><path d="m19.2099 2.24805h5.7146l.8784 2.39882h-5.791c-.8837 0-1.6.71635-1.6 1.60001v1.648c0 .97312-.7889 1.762-1.762 1.762-1.7674 0-3.2 1.43272-3.2 3.20002h-1.6l-.802-.7989c0-2.65092 2.149-4.79995 4.8-4.79995.0894 0 .162-.07253.162-.162v-1.648c0-1.76731 1.4326-3.2 3.2-3.2z" fill="#d9eef9"/><path d="m9.6001 10.4h20.8v24c0 2.2091-1.7909 4-4 4h-12.8c-2.2091 0-4-1.7909-4-4z" fill="#00daa6"/><g fill="#00ac83"><path clip-rule="evenodd" d="m27.4179 20.3203c-.0336-.0496-.0547-.0762-.0951-.1205-.303-.3322-.7885-.3044-1.1105-.3044h-3.2313l.8967-3.9577c.0979-.4324-.0633-.8982-.4604-1.2129-.239-.1894-.4298-.2305-.7318-.2725-.1011-.0141-.1756-.0244-.2608-.0172-.2428.0201-.4755.1408-.6281.3507l-6.1329 8.4353c-.1148.158-.1662.3415-.1592.5214-.0003.0104-.0005.0208-.0005.0312 0 .3792.1492.7159.452.9934.2909.2667.5904.3292.9471.3292h3.1779l-.8967 3.9576c-.0886.3913-.0303.9198.3625 1.2312.0464.0369.0751.0541.125.086.1402.0897.2194.1476.3789.1953.2576.077.9742-.0339 1.2118-.36l6.1889-8.4984c.1871-.2569.2326-.658.1149-1.0557-.0403-.1362-.0688-.2144-.1484-.332zm-8.5433 2.6103h2.3651c.0684-.0016.1382.0048.208.02.2828.0616.5018.2534.6062.4968.1677.0505.3097.1479.414.2741l1.1235-1.6604h-1.7906c-.2607 0-.5074-.1161-.6705-.3155-.0506-.0619-.0915-.1298-.1221-.2014-.1626-.0491-.3086-.1451-.4175-.2782-.1049-.1282-.168-.282-.1846-.4418z" fill-rule="evenodd"/><path d="m10.8501 11.8569v-1.4569h1.9501c-.2238.437-.3501.9322-.3501 1.4569v26.2056l-1.6-1.5744z"/><path d="m11.8501 11.8569v-1.4568h2c-.2295.4369-.3591.9321-.3591 1.4568v26.2056l-1.6409-1.5744z"/><path d="m12.6001 11.8569v-1.4568h2c-.2295.4369-.3591.9321-.3591 1.4568v26.2056l-1.6409-1.5744z"/></g><path clip-rule="evenodd" d="m14.05 5.45687c-2.651 0-4.8 2.14903-4.8 4.80003v23.7913c0 2.6509 2.149 4.8 4.8 4.8h11.904c2.651 0 4.8-2.1491 4.8-4.8v-23.7913c0-2.651-2.149-4.80003-4.8-4.80003-.09 0-.1629-.07294-.1629-.16293v-1.64707c0-1.76731-1.4327-3.200001-3.2-3.200001h-5.1791c-1.7673 0-3.2 1.432691-3.2 3.200001v1.648c0 .08947-.0725.162-.162.162zm-3.2 4.80003c0-1.76734 1.4327-3.20003 3.2-3.20003.9731 0 1.762-.78887 1.762-1.762v-1.648c0-.88366.7163-1.6 1.6-1.6h5.1791c.8836 0 1.6.71634 1.6 1.6v1.64707c0 .97364.7893 1.76293 1.7629 1.76293 1.7673 0 3.2 1.43269 3.2 3.20003v23.7913c0 1.7673-1.4327 3.2-3.2 3.2h-11.904c-1.7673 0-3.2-1.4327-3.2-3.2z" fill="#2d3436" fill-rule="evenodd"/><path d="m15.5391 22.4089 5.4918-7.6886-.8042 4.825 4.2562.1373-5.5311 7.8454 1.0199-4.9622z" fill="#f0faff"/><path d="m20.0689 16.3825-4.2364 5.7551h3.8326l2.3088-2.672h-1.631z" fill="#d9eef9"/><path clip-rule="evenodd" d="m21.9973 14.5984c.0959-.4313-.1761-.8586-.6074-.9545-.0818-.0181-.1634-.0231-.2427-.0162-.226.019-.4425.1335-.5845.3327l-5.7079 8.0042c-.1069.1499-.1547.3241-.1481.4948-.0004.0098-.0006.0197-.0006.0295 0 .4419.3582.8.8.8h3.561l-.9357 4.2104c-.0825.3713.1078.7493.4552.9042.3473.1549.7557.0439.9768-.2656l5.76-8.064c.1741-.2439.1974-.5646.0603-.8311-.1371-.2664-.4117-.4339-.7113-.4339h-3.6107zm-1.953 7.0905h-3.0278l2.5656-3.5977-.2987 1.3441c-.0526.2369.0051.4849.1569.6742.1519.1892.3814.2994.6241.2994h3.0534l-2.5718 3.6006.2993-1.3471c.0959-.4313-.1761-.8586-.6074-.9545-.065-.0144-.1299-.0205-.1936-.019z" fill="#2d3436" fill-rule="evenodd"/></svg>