<svg fill="none" height="26" viewBox="0 0 25 26" width="25" xmlns="http://www.w3.org/2000/svg"><g fill="#18303f"><path clip-rule="evenodd" d="m12.5032 6.03613c.1903 0 .3642.10806.4484.27874l.913 1.85027 2.1947.23612c.1985.02135.3653.15874.4242.34947.059.19073-.0012.39826-.153.52789l-1.6011 1.36728.4272 1.9687c.0411.1896-.0312.386-.1855.5036-.1543.1177-.3628.1354-.5348.0455l-1.9331-1.0106-1.9331 1.0106c-.172.0899-.3805.0722-.5348-.0455-.15432-.1176-.22663-.314-.18547-.5036l.42717-1.9687-1.60112-1.36728c-.15182-.12963-.21197-.33716-.15301-.52789.05895-.19073.22572-.32812.42421-.34947l2.19472-.23612.913-1.85027c.0842-.17068.2581-.27874.4484-.27874zm0 1.62989-.5863 1.18812c-.0757.15348-.2247.25756-.3949.27587l-1.3146.14143.9463.80806c.14.1196.203.3064.164.4863l-.264 1.2167 1.2178-.6368c.1452-.0758.3182-.0758.4634 0l1.2178.6368-.264-1.2167c-.039-.1799.024-.3667.164-.4863l.9463-.80806-1.3146-.14143c-.1702-.01831-.3192-.12239-.3949-.27587z" fill-rule="evenodd"/><path d="m12.5014 3.4239c-.1848 0-.3679.00797-.5488.02361-.2751.02377-.4789.26607-.4551.54118.0238.27512.2661.47888.5412.4551.1523-.01316.3067-.01989.4627-.01989s.3103.00673.4627.01989c.2751.02378.5174-.17998.5412-.4551.0237-.27511-.18-.51741-.4551-.54118-.181-.01564-.364-.02361-.5488-.02361z"/><path d="m10.262 4.91891c.2502-.11687.3582-.41443.2414-.66462-.1169-.25019-.4145-.35827-.66465-.24141-.33389.15596-.65173.34029-.95045.54984-.22607.15858-.28078.4704-.12219.69647.15858.22607.4704.28077.69647.12219.25141-.17637.51875-.33138.79942-.46247z"/><path d="m15.164 4.01288c-.2502-.11686-.5478-.00878-.6646.24141-.1169.25019-.0088.54775.2414.66462.2806.13109.548.2861.7994.46247.226.15858.5379.10388.6964-.12219.1586-.22607.1039-.53789-.1222-.69647-.2987-.20955-.6165-.39388-.9504-.54984z"/><path d="m8.16068 6.68328c.15858-.22607.10387-.53789-.12219-.69647-.22607-.15858-.53789-.10388-.69647.12219-.20955.29872-.39388.61657-.54984.95045-.11687.25019-.00879.54775.24141.66462.25019.11687.54775.00879.66462-.2414.13108-.28064.2861-.54798.46247-.79939z"/><path d="m17.6607 6.109c-.1586-.22607-.4704-.28077-.6964-.12219-.2261.15858-.2808.4704-.1222.69647.1763.25141.3314.51875.4624.79939.1169.25019.4145.35827.6647.2414s.3582-.41443.2414-.66462c-.156-.33388-.3403-.65173-.5499-.95045z"/><path d="m7.22309 9.25937c.02377-.27511-.17998-.51741-.4551-.54118-.27512-.02378-.51741.17998-.54119.4551-.01563.18096-.0236.364-.0236.54879 0 .18478.00797.36782.0236.54882.02378.2751.26607.4788.54119.4551.27512-.0238.47887-.2661.4551-.5412-.01317-.1524-.01989-.30671-.01989-.46272 0-.15602.00672-.31034.01989-.46271z"/><path d="m18.7759 9.17329c-.0237-.27512-.266-.47887-.5411-.4551-.2752.02377-.4789.26607-.4551.54118.0131.15237.0198.30669.0198.46271 0 .15601-.0067.31032-.0198.46272-.0238.2751.1799.5174.4551.5412.2751.0237.5174-.18.5411-.4551.0157-.181.0236-.36404.0236-.54882 0-.18479-.0079-.36783-.0236-.54879z"/><path d="m7.69821 11.9615c-.11687-.2502-.41443-.3583-.66462-.2414-.2502.1168-.35828.4144-.24141.6646.15596.3339.34029.6517.54984.9505.15858.226.4704.2807.69647.1221.22606-.1585.28077-.4704.12219-.6964-.17637-.2514-.33139-.5188-.46247-.7994z"/><path d="m18.2106 12.3847c.1168-.2502.0088-.5478-.2414-.6646-.2502-.1169-.5478-.0088-.6647.2414-.131.2806-.2861.548-.4624.7994-.1586.226-.1039.5379.1222.6964.226.1586.5378.1039.6964-.1221.2096-.2988.3939-.6166.5499-.9505z"/><path d="m9.46258 14.0628c-.22607-.1586-.53789-.1039-.69647.1222-.15859.226-.10388.5378.12219.6964.29872.2096.61656.3939.95045.5499.25015.1168.54775.0088.66465-.2414.1168-.2502.0088-.5478-.2414-.6647-.28067-.131-.54801-.2861-.79942-.4624z"/><path d="m16.1144 14.8814c.2261-.1586.2808-.4704.1222-.6964-.1585-.2261-.4704-.2808-.6964-.1222-.2514.1763-.5188.3314-.7994.4624-.2502.1169-.3583.4145-.2414.6647.1168.2502.4144.3582.6646.2414.3339-.156.6517-.3403.9504-.5499z"/><path d="m12.0387 15.0004c-.2751-.0238-.5174.1799-.5412.4551-.0238.2751.18.5174.4551.5411.1809.0157.364.0237.5488.0237s.3678-.008.5488-.0237c.2751-.0237.4788-.266.4551-.5411-.0238-.2752-.2661-.4789-.5412-.4551-.1524.0131-.3067.0199-.4627.0199s-.3104-.0068-.4627-.0199z"/><path clip-rule="evenodd" d="m3.91016 9.72208c0-4.7448 3.84641-8.59122 8.59124-8.59122 4.7448 0 8.5912 3.84642 8.5912 8.59122 0 4.74482-3.8464 8.59122-8.5912 8.59122-4.74483 0-8.59124-3.8464-8.59124-8.59122zm8.59124-7.59122c-4.19254 0-7.59124 3.3987-7.59124 7.59122s3.3987 7.59122 7.59124 7.59122c4.1925 0 7.5912-3.3987 7.5912-7.59122s-3.3987-7.59122-7.5912-7.59122z" fill-rule="evenodd"/><path d="m8.64807 18.4978c.27614 0 .5.2238.5.5v4.1935l2.99833-2.9984c.1953-.1952.5119-.1952.7072 0l2.9983 2.9984v-2.6448c0-.2761.2239-.5.5-.5.2762 0 .5.2239.5.5v3.8519c0 .2023-.1218.3846-.3086.462-.1869.0774-.4019.0346-.5449-.1084l-3.4984-3.4984-3.49838 3.4984c-.143.143-.35806.1858-.54489.1084-.18684-.0774-.30866-.2597-.30866-.462v-5.4006c0-.2762.22386-.5.5-.5z"/><path d="m16.3464 19.4526c.2762 0 .5-.2238.5-.5 0-.2761-.2238-.5-.5-.5-.2761 0-.5.2239-.5.5 0 .2762.2239.5.5.5z"/></g></svg>