<svg fill="none" height="26" viewBox="0 0 25 26" width="25" xmlns="http://www.w3.org/2000/svg"><path d="m1.37109 9.7217 4.93456 10.0723c.41724.2858 1.2101 1.0224 2.04458 1.0224.73018 0 1.47995-.7651 1.87697-1.1338l.4179-.4599c.4172.2858 1.0431 1.5937 1.8776 1.5937.7301 0 1.4603-1.3079 1.8776-1.5937l.4212.4599c.3687.3404 1.0391 1.1338 1.8736 1.1338.7302 0 1.6886-.7366 2.1058-1.0224l4.8221-10.05967m-22.25191-.01263s1.45404 6.3339 1.90144 10.0723m-1.90144-10.0723s2.34517 3.0586 3.86143 3.0586c.8487 0 .9597-3.49617 1.07313-4.17188.33785.33786 1.66455 3.56058 2.81624 3.56058 1.15171 0 1.92031-2.42795 2.42751-3.84769.3355-1.03128 1.5659-1.03128 1.9014 0m10.1767 1.4073c.0011-.00458.0016-.00691.0016-.00691l-.0061.01263m.0045-.00572c-.0543.23233-1.4633 6.27289-2.0117 10.06539m2.0117-10.06539c.0035-.00456.0053-.00691.0053-.00691m-.0053.00691c-.0013.00163-.0028.00353-.0045.00572m-2.0072 10.05967c-.1118.9023-.7829 1.5468-1.5659 1.5468m1.5659-1.5468c-.1267 1.0224-.9387 1.8769-.9387 2.7144s-.5811 1.4889-1.2453 1.4889h-13.78158c-.74719 0-1.32834-.6514-1.32834-1.4889 0-.7652-.77026-1.5446-.99987-2.4534m1.51641 1.2858c-.70513 0-1.31954-.5227-1.51641-1.2858m0 0c-.02172-.0842-.03836-.1713-.04948-.261m.04948.261c-.02168-.0858-.03854-.1728-.04948-.261m20.35047-10.05967c-.1652.21282-2.3923 3.04497-3.8516 3.04497-.8487 0-.9597-3.49517-1.0731-4.17088-.3379.33786-1.6646 3.56058-2.8163 3.56058s-1.9202-2.42795-2.4275-3.84769" stroke="#18303f" stroke-linecap="round" stroke-linejoin="round"/><g fill="#18303f"><path clip-rule="evenodd" d="m12.9423 1.76923c-.0867-.16368-.2567-.26606-.4419-.26606s-.3553.10238-.4419.26606l-.6302 1.19042-1.3305.21007c-.18576.02933-.33935.16042-.39751.33926-.05816.17885-.01104.3752.12194.50818l.97077.97078-.2763 1.31237c-.0395.18776.0319.38158.1838.49882s.3575.13721.5291.0514l1.2642-.63212 1.184.6268c.1674.08861.3705.07505.5246-.03503s.2328-.29778.2032-.48485l-.2093-1.32591.9822-.98226c.133-.13298.1801-.32933.122-.50818-.0582-.17884-.2118-.30993-.3975-.33926l-1.3305-.21007zm-.7472 1.87925.3053-.57667.3053.57667c.0736.13909.2084.2354.3639.25994l.6075.09593-.468.468c-.1131.11312-.1652.27353-.1403.43154l.0931.58964-.5276-.2793c-.1427-.07556-.3131-.07754-.4575-.00532l-.5682.28408.1188-.56408c.0348-.16534-.0163-.33708-.1358-.45656l-.468-.468.6076-.09593c.1554-.02454.2902-.12085.3639-.25994z" fill-rule="evenodd"/><path d="m24.1289 8.0481c.2761 0 .5-.22386.5-.5 0-.27615-.2239-.5-.5-.5s-.5.22385-.5.5c0 .27614.2239.5.5.5z"/><path d="m.875 8.24243c.27614 0 .5-.22386.5-.5s-.22386-.5-.5-.5c-.276142 0-.5.22386-.5.5s.223858.5.5.5z"/><path d="m17.2148 18.2415c0 .2761-.2238.5-.5.5-.2761 0-.5-.2239-.5-.5 0-.2762.2239-.5.5-.5.2762 0 .5.2238.5.5z"/><path d="m8.28516 18.7415c.27614 0 .5-.2239.5-.5 0-.2762-.22386-.5-.5-.5-.27615 0-.5.2238-.5.5 0 .2761.22385.5.5.5z"/><g clip-rule="evenodd" fill-rule="evenodd"><path d="m12.4999 14.307c.6926 0 1.254-.5614 1.254-1.2539 0-.6926-.5614-1.254-1.254-1.254-.6925 0-1.254.5614-1.254 1.254 0 .6925.5615 1.2539 1.254 1.2539zm.254-1.2539c0 .1402-.1137.2539-.254.2539s-.254-.1137-.254-.2539c0-.1403.1137-.254.254-.254s.254.1137.254.254z"/><path d="m12.4999 18.184c.6926 0 1.254-.5614 1.254-1.254 0-.6925-.5614-1.254-1.254-1.254-.6925 0-1.254.5615-1.254 1.254 0 .6926.5615 1.254 1.254 1.254zm.254-1.254c0 .1403-.1137.254-.254.254s-.254-.1137-.254-.254.1137-.254.254-.254.254.1137.254.254z"/><path d="m14.4376 16.2465c-.6926 0-1.254-.5614-1.254-1.254 0-.6925.5614-1.254 1.254-1.254.6925 0 1.254.5615 1.254 1.254 0 .6926-.5615 1.254-1.254 1.254zm-.254-1.254c0 .1403.1137.254.254.254s.254-.1137.254-.254-.1137-.254-.254-.254-.254.1137-.254.254z"/><path d="m9.30859 14.9925c0 .6926.56143 1.254 1.25401 1.254.6925 0 1.254-.5614 1.254-1.254 0-.6925-.5615-1.254-1.254-1.254-.69258 0-1.25401.5615-1.25401 1.254zm1.25401.254c-.1403 0-.254-.1137-.254-.254s.1137-.254.254-.254.254.1137.254.254-.1137.254-.254.254z"/></g></g></svg>