<svg fill="none" height="27" viewBox="0 0 27 27" width="27" xmlns="http://www.w3.org/2000/svg"><g fill="#92a0a9"><path d="m16.91 1.87118c.068-.20417.2591-.34188.4743-.34188s.4063.13771.4744.34188l.1891.56737.5674.18913c.2041.06805.3418.25912.3418.47434 0 .21521-.1377.40628-.3418.47434l-.5674.18912-.1891.56737c-.0681.20418-.2592.34189-.4744.34189s-.4063-.13771-.4743-.34188l-.1891-.56738-.5674-.18912c-.2042-.06806-.3419-.25913-.3419-.47434 0-.21522.1377-.40629.3419-.47434l.5674-.18913z"/><path clip-rule="evenodd" d="m12.4036 4.85784c.0747-.19219.2598-.31878.466-.31878s.3913.12659.466.31878l.4008 1.03073 1.0308.40085c.1922.07473.3187.25979.3187.466 0 .2062-.1265.39126-.3187.466l-1.0308.40084-.4008 1.03074c-.0747.19218-.2598.31877-.466.31877s-.3913-.12659-.466-.31877l-.4009-1.03074-1.0307-.40084c-.1922-.07474-.3188-.2598-.3188-.466 0-.20621.1266-.39127.3188-.466l1.0307-.40085zm.4806 1.59822-.0146-.03748-.0146.03748c-.0508.13065-.1541.23397-.2848.28478l-.0375.01458.0375.01458c.1307.0508.234.15412.2848.28477l.0146.03749.0146-.03749c.0508-.13065.1541-.23397.2847-.28477l.0375-.01458-.0375-.01458c-.1306-.05081-.2339-.15413-.2847-.28478z" fill-rule="evenodd"/><path d="m7.80619 3.46582c-.21521 0-.40628.13771-.47434.34189l-.18912.56737-.56737.18912c-.20418.06806-.34189.25913-.34189.47434 0 .21522.13771.40629.34189.47434l.56737.18913.18912.56737c.06806.20417.25913.34189.47434.34188.21522 0 .40629-.13771.47434-.34188l.18913-.56737.56737-.18913c.20417-.06805.34188-.25912.34188-.47434 0-.21521-.13771-.40628-.34188-.47434l-.56737-.18912-.18913-.56737c-.06805-.20417-.25912-.34189-.47434-.34189z"/><path clip-rule="evenodd" d="m21.3391 3.71579c-.1234-.16981-.1276-.39859-.0105-.57281.117-.17421.3305-.25675.5343-.20666 1.8994.46681 3.4277 2.14187 3.6075 4.27599l.0004.00481c.1791 2.40328-1.4303 4.64018-3.7894 5.10948-1.8338.3777-3.6349-.4786-4.7009-1.9458-.1259-.1732-.1275-.40727-.004-.58219.1234-.17492.3446-.25182.5499-.19126.5175.15262.9838.21437 1.5094.07875.0091-.00236.0183-.00445.0275-.00629 1.8353-.36429 3.13-2.12292 2.9892-4.04915-.0732-.74708-.2857-1.32621-.7134-1.91487zm.1457 7.63031c1.8362-.3645 3.1314-2.12483 2.9889-4.05226-.1023-1.20536-.7451-2.22207-1.6428-2.84125.1096.34083.1799.69933.2175 1.08721l.0009.01106c.1788 2.39925-1.4248 4.63264-3.7775 5.10704-.1768.0449-.3481.0736-.5146.0891.7968.5568 1.7679.7972 2.7238.5998z" fill-rule="evenodd"/><path clip-rule="evenodd" d="m8.70313 19.7916v3.7766h-2.24839c-.06856 0-.08825-.0203-.08937-.0215-.00116-.0011-.02161-.0209-.02161-.0894v-5.6585c0-.0355-.0037-.0701-.01074-.1035-.00982-.2675-.22977-.4813-.49966-.4813h-1.02261l6.25855-5.8603 2.4424 2.2097c.1466.1327.3575.1665.5382.0863s.2972-.2593.2972-.457v-1.0886h.833v2.7993c0 .1349.0545.2641.1512.3583l1.9422 1.8911h-1.0436c-.2761 0-.5.2239-.5.5v2.4131c0 .2761.2239.5.5.5.2762 0 .5-.2239.5-.5v-1.9131h1.0275c.2838 0 .5952-.1446.7527-.4596.1969-.3938-.0151-.743-.1547-.8827l-.0048-.0047-2.1705-2.1134v-2.7828c0-.2053-.0706-.4152-.2305-.575-.1598-.1599-.3698-.2305-.575-.2305h-1.222c-.2053 0-.4152.0706-.575.2305-.1599.1598-.2305.3697-.2305.575v.1564l-1.7234-1.5593c-.3155-.3044-.8027-.3032-1.1168.0037l-6.67962 6.2545c-.20013.1375-.27387.35-.29102.5043-.01907.1717.01758.3444.08792.4851.15753.315.46887.4597.7527.4597h.96688v5.2433c0 .2969.10115.5832.31446.7965.21332.2133.4996.3144.79652.3144h2.7312l.01719.0003h3.66587l.0172-.0003h2.7333c.2969 0 .5832-.1011.7965-.3144s.3145-.4996.3145-.7965c0-.2762-.2239-.5-.5-.5-.2762 0-.5.2238-.5.5 0 .0685-.0204.0882-.0216.0893-.0011.0012-.0209.0216-.0894.0216h-2.2505v-3.7766c0-.2969-.1011-.5832-.3144-.7965s-.4996-.3144-.7966-.3144h-2.44388c-.29692 0-.58321.1011-.79652.3144s-.31447.4996-.31447.7965zm1.02154-.0893c-.00116.0011-.02154.0208-.02154.0893v3.7766h2.66587v-3.7766c0-.0685-.0204-.0882-.0215-.0893-.0011-.0012-.0209-.0216-.0895-.0216h-2.44388c-.06857 0-.08834.0204-.08945.0216z" fill-rule="evenodd"/><path d="m16.2305 22.2812c.2761 0 .5-.2238.5-.5 0-.2761-.2239-.5-.5-.5-.2762 0-.5.2239-.5.5 0 .2762.2238.5.5.5z"/></g></svg>