<svg fill="none" height="20" viewBox="0 0 20 20" width="20" xmlns="http://www.w3.org/2000/svg"><g fill="#92a0a9"><path d="m6.22388 1.31055c1.21339 0 2.31023.82549 2.56976 2.00445.32718.00975.64629.11438.91911.31899.40395.30295.58515.78874.58515 1.24289 0 .38845-.1837.84682-.47246 1.13553-.15026.15026-.34396.27018-.54834.34232-.20272.07155-.44299.10523-.67814.04644-.20092-.05023-.32308-.25383-.27285-.45475s.25383-.32309.45475-.27285c.05498.01374.1411.01116.24663-.02609.10387-.03666.20029-.09807.26762-.1654.14647-.14646.25282-.4134.25282-.6052 0-.27115-.10887-.51066-.28518-.64289-.19808-.14856-.45035-.20318-.71688-.14987-.10616.02123-.21631-.00445-.30213-.07044s-.13893-.16585-.14569-.27389c-.05901-.94427-.89254-1.67924-1.87417-1.67924-.65011 0-1.3212.4223-1.62291 1.02572-.06352.12704-.19337.20729-.33541.20729-.36075 0-.69144.12147-.89532.32535-.00978.00978-.0201.01902-.03091.02766-.26307.21046-.36697.45954-.36697.79513 0 .62532.45 1.15988 1.02142 1.22067h2.2301c.20711 0 .375.16789.375.375s-.16789.375-.375.375h-2.24844c-.01134 0-.02266-.00051-.03395-.00154-1.01686-.09244-1.71913-1.00446-1.71913-1.96913 0-.52859.18195-.99999.63255-1.36793.31977-.31157.753-.47692 1.18504-.51919.46033-.74111 1.31324-1.24403 2.18393-1.24403z"/><path d="m7.48152 6.43164c.20711 0 .375-.16789.375-.375s-.16789-.375-.375-.375c-.2071 0-.375.16789-.375.375s.1679.375.375.375z"/><path d="m19.88 15.7109c0 .2071-.1679.375-.375.375s-.375-.1679-.375-.375.1679-.375.375-.375.375.1679.375.375z"/><path clip-rule="evenodd" d="m15.5816 4.57422c.8707 0 1.7236.50292 2.1839 1.24403.432.04227.8653.20762 1.185.51919.4506.36794.6326.83934.6326 1.36793 0 .96467-.7023 1.87669-1.7191 1.96913-.0113.00103-.0227.00154-.034.00154h-4.6419c-.3264 0-.8123-.07665-1.1356-.39996-.2887-.28871-.4725-.74708-.4725-1.13553 0-.44634.1751-.92325.5646-1.22711.2353-.22384.5504-.32457.8671-.33446.2594-1.17912 1.3564-2.00476 2.5699-2.00476zm1.6229 1.77572c-.3017-.60342-.9728-1.02572-1.6229-1.02572-.9817 0-1.8152.73498-1.8742 1.67924-.0068.10805-.0599.2079-.1457.27389s-.196.09167-.3021.07044c-.2845-.0569-.5033.01416-.6042.11503-.0126.01255-.026.02419-.0402.03484-.1763.13223-.2852.37174-.2852.64289 0 .1918.1064.45874.2529.6052.1118.11188.3481.18029.6052.18029h4.6236c.5714-.06079 1.0214-.59535 1.0214-1.22067 0-.33559-.1039-.58466-.367-.79513-.0108-.00864-.0211-.01787-.0309-.02766-.2039-.20388-.5346-.32535-.8953-.32535-.1421 0-.2719-.08025-.3354-.20729z" fill-rule="evenodd"/><path d="m12.3788 15.043c.031.001.0626-.0018.0942-.0088.1351-.03.2368-.1294.2761-.2524.0151-.0472.0209-.098.0159-.1496-.0018-.0189-.005-.0373-.0095-.0553-.3351-1.4863-1.6576-2.4597-3.19251-2.4597-.82064 0-1.64258.3268-2.22348.9077-.14645.1464-.14645.3838 0 .5303.14645.1464.38388.1464.53033 0 .43453-.4345 1.06319-.688 1.69315-.688 1.04401 0 1.92491.5607 2.31191 1.4258h-5.06806c-.20711 0-.375.1679-.375.375s.16789.375.375.375z"/><path clip-rule="evenodd" d="m2.96154 17.9447h.85032c.25961.429.73208.7254 1.25358.7254.52166 0 .99426-.2966 1.25382-.7258h4.89084c.2595.4292.7321.7258 1.2538.7258.5216 0 .9942-.2966 1.2538-.7258h1.1201c.0121.0006.0243.0006.0366 0h.4899c.2071 0 .375-.1679.375-.375s-.1679-.375-.375-.375h-.1917l-.3812-2.2238c-.3934-2.5085-2.5863-4.3035-5.08453-4.3035-2.17518 0-4.126 1.2445-4.98534 3.2705l-.26374.5802c-.7141.0397-1.32336.259-1.73746.7145-.45974.5057-.608 1.224-.49593 2.0762.00675.1914.08178.3784.25626.503.158.1129.34331.1333.48088.1333zm3.5668-.7504c-.00725-.7818-.6798-1.4502-1.4629-1.4502-.78322 0-1.45587.6686-1.4629 1.4506h-.6366c-.09105-.7143.05181-1.1747.30935-1.458.26469-.2911.72309-.4756 1.42698-.4756.14706 0 .28054-.086.34139-.2198l.36675-.8069c.73734-1.7428 2.41159-2.8174 4.29646-2.8174 2.14283 0 4.01083 1.5401 4.34393 3.6721l.0009.0054.36 2.0998h-.4849c-.0073-.7818-.6798-1.4502-1.4629-1.4502s-1.4557.6684-1.4629 1.4502zm-1.4629-.7002c.37314 0 .71296.3399.71296.713s-.33982.713-.71296.713c-.37313 0-.71295-.3399-.71295-.713s.33982-.713.71295-.713zm8.04696.9938c.0079-.0356.0209-.0694.0381-.1004.0171-.0584.0263-.1189.0263-.1804 0-.3731-.3398-.713-.7129-.713-.3732 0-.713.3399-.713.713s.3398.713.713.713c.2754 0 .5326-.1852.6485-.4322z" fill-rule="evenodd"/><path d="m2.067 14.476c-.14645-.1464-.38388-.1464-.53033 0-.41079.4108-.731907.9756-.893239 1.5403-.056896.1991.058413.4067.257551.4636s.406698-.0585.463588-.2576c.12879-.4508.38792-.9014.70243-1.2159.14645-.1465.14645-.3839 0-.5304z"/><path d="m18.8565 16.6272c0-.6218-.5106-1.2454-1.2453-1.2454-.2071 0-.375.1679-.375.375s.1679.375.375.375c.2807 0 .4953.2468.4953.4954 0 .0956-.0516.2226-.1621.3332-.1106.1106-.2376.1622-.3332.1622-.2807 0-.4954-.2468-.4954-.4954 0-.2071-.1679-.375-.375-.375s-.375.1679-.375.375c0 .6218.5106 1.2454 1.2454 1.2454.3395 0 .6477-.166.8635-.3819.2158-.2158.3818-.5239.3818-.8635z"/><path d="m17.6104 13.2051c.2071 0 .375.1679.375.375s-.1679.375-.375.375c-.2485 0-.4953.2146-.4953.4953 0 .2071-.1679.375-.375.375s-.375-.1679-.375-.375c0-.7347.6235-1.2453 1.2453-1.2453z"/></g></svg>