<svg fill="none" height="27" viewBox="0 0 27 27" width="27" xmlns="http://www.w3.org/2000/svg"><g fill="#92a0a9"><path d="m7.50437 2.04492c1.56317 0 2.97743 1.06036 3.31843 2.57762.4192.01516.8279.15071 1.178.41323.5247.39358.7595 1.02404.7595 1.6123 0 .50411-.2381 1.098-.6127 1.47259-.4193.41926-1.0258.51946-1.4726.51946-.2762 0-.5-.22386-.5-.5s.2238-.5.5-.5c.3475 0 .6252-.0863.7655-.22656.1849-.18493.3198-.52357.3198-.76549 0-.34427-.1383-.64635-.3595-.81229-.2503-.18772-.5694-.2571-.9075-.18947-.1416.0283-.2884-.00594-.4029-.09392-.11438-.08798-.1852-.22112-.1942-.36519-.07524-1.20376-1.13825-2.14228-2.39183-2.14228-.82883 0-1.68562.53889-2.07063 1.30892-.08469.16939-.25783.27639-.44721.27639-.46028 0-.88048.15505-1.1385.41307-.01305.01305-.0268.02536-.04121.03688-.31533.25227-.46512.64711-.46512 1.10162 0 .76663.54515 1.37974 1.29608 1.45832h2.86659c.27614 0 .5.22386.5.5s-.22386.5-.5.5h-2.89085c-.01512 0-.03022-.00068-.04527-.00205-1.28982-.11726-2.22655-1.17845-2.22655-2.45627 0-.65678.21805-1.37184.81899-1.86511.41238-.40164.96957-.6153 1.52526-.67134.59607-.95379 1.69545-1.60043 2.81842-1.60043z"/><path clip-rule="evenodd" d="m19.5351 6.24121c1.123 0 2.2224.64664 2.8184 1.60043.5556.05602 1.1127.26961 1.5251.6711.5835.47677.8192 1.08801.8192 1.77206 0 1.2483-.9087 2.4298-2.2266 2.5496-.015.0013-.0301.002-.0452.002h-5.9682c-.4213 0-1.0519-.0987-1.4726-.5195-.3746-.3745-.6127-.9684-.6127-1.4725 0-.5779.2265-1.19654.732-1.59129.3028-.28776.7063-.41855 1.1121-.43385.3408-1.51749 1.7552-2.57805 3.3185-2.57805zm2.0706 2.30891c-.385-.77002-1.2418-1.30891-2.0706-1.30891-1.2536 0-2.3166.93852-2.3918 2.14228-.009.14406-.0798.27721-.1943.36519-.1144.08798-.2613.12222-.4028.09391-.3621-.07241-.6365.01889-.7607.14303-.0167.01668-.0346.03228-.0535.04648-.2213.1659-.3595.468-.3595.8123 0 .2419.1348.5805.3198.7654.1388.1389.4366.2266.7655.2266h5.9436c.724-.0776 1.2964-.7558 1.2964-1.5516 0-.4267-.1316-.74153-.4651-1.00833-.0144-.01152-.0282-.02383-.0412-.03688-.2581-.25803-.6783-.41307-1.1385-.41307-.1894 0-.3626-.107-.4473-.2764z" fill-rule="evenodd"/><path d="m14.7402 18.7373h-6.48854c-.27615 0-.5.2239-.5.5s.22385.5.5.5h7.18054c.2457 0 .45-.1772.492-.4108.0092-.0506.0107-.1033.0035-.1564-.0023-.0167-.0053-.0332-.0092-.0493-.4311-1.9226-2.1404-3.1813-4.1232-3.1813-1.0597 0-2.12106.4218-2.87141 1.1722-.19526.1952-.19526.5118 0 .7071s.51185.1953.70711 0c.5552-.5552 1.3589-.8793 2.1643-.8793 1.3256 0 2.4447.7063 2.9449 1.7978z"/><path clip-rule="evenodd" d="m3.31049 23.467h1.08121c.33794.5523.94843.9331 1.62213.9331.6734 0 1.28364-.3804 1.62167-.9323h6.2684c.338.5519.9483.9323 1.6217.9323s1.2836-.3804 1.6216-.9323h2.1092c.2761 0 .5-.2239.5-.5 0-.2762-.2239-.5-.5-.5h-.2307l-.4878-2.8456c-.5072-3.2341-3.3345-5.548-6.5548-5.548-2.80358 0-5.31834 1.6041-6.42613 4.2157l-.33453.7359c-.91644.0528-1.7008.3359-2.23529.9238-.59572.6553-.78652 1.5845-.64223 2.6829.00904.2501.10741.4959.33691.6598.20764.1483.45042.1747.62866.1747zm4.60183-.9992c-.01893-1.0077-.88752-1.8653-1.89849-1.8653-1.01071 0-1.87912.8571-1.89847 1.8645h-.78347c-.11262-.9064.07067-1.4877.3952-1.8447.33565-.3692.91922-.6057 1.82148-.6057.19607 0 .37405-.1146.45518-.2931l.47173-1.0378c.94514-2.2339 3.09113-3.6115 5.50762-3.6115 2.7465 0 5.1405 1.974 5.5674 4.7061l.0012.0073.4595 2.6802h-.5872c-.0189-1.0077-.8875-1.8653-1.8984-1.8653-1.011 0-1.8796.8576-1.8985 1.8653zm-1.89849-.8653c.46989 0 .8988.429.8988.8988 0 .4699-.42891.8988-.8988.8988-.46988 0-.8988-.4289-.8988-.8988 0-.4698.42892-.8988.8988-.8988zm10.33227 1.2461c.0098-.0401.0244-.0782.0432-.1139.0227-.0753.0351-.1538.0351-.2334 0-.4698-.429-.8988-.8988-.8988-.4699 0-.8988.429-.8988.8988 0 .4699.4289.8988.8988.8988.3492 0 .6758-.2369.8205-.5515z" fill-rule="evenodd"/><path d="m2.17244 18.9765c-.19527-.1952-.51185-.1952-.70711 0-.530457.5305-.944793 1.2593-1.152994 1.988-.075863.2655.077883.5423.343401.6182.265517.0758.542263-.0779.618123-.3434.16481-.5769.4965-1.1536.89858-1.5557.19526-.1952.19526-.5118 0-.7071z"/><path d="m23.7642 21.7548c0-.8084-.6636-1.6191-1.619-1.6191-.2762 0-.5.2239-.5.5 0 .2762.2238.5.5.5.35 0 .619.3084.619.6191 0 .1171-.0636.2761-.2033.4158-.1396.1396-.2986.2032-.4157.2032-.3501 0-.6191-.3083-.6191-.619 0-.2762-.2238-.5-.5-.5-.2761 0-.5.2238-.5.5 0 .8083.6636 1.619 1.6191 1.619.4423 0 .8429-.2161 1.1228-.4961.28-.28.4962-.6805.4962-1.1229z"/><path d="m22.147 17.3379c.2761 0 .5.2238.5.5 0 .2761-.2239.5-.5.5-.3107 0-.619.2689-.619.619 0 .2762-.2239.5-.5.5-.2762 0-.5-.2238-.5-.5 0-.9554.8107-1.619 1.619-1.619z"/><path d="m25.5611 20.7705c0 .2761-.2239.5-.5.5-.2762 0-.5-.2239-.5-.5s.2238-.5.5-.5c.2761 0 .5.2239.5.5z"/><path d="m9.15482 8.63965c.27614 0 .5-.22386.5-.5s-.22386-.5-.5-.5-.5.22386-.5.5.22386.5.5.5z"/></g></svg>