<svg fill="none" height="20" viewBox="0 0 20 20" width="20" xmlns="http://www.w3.org/2000/svg"><g fill="#92a0a9"><path d="m6.08203.546875c0-.207107-.16789-.375-.375-.375s-.375.167893-.375.375v.933035c0 .2071.16789.375.375.375s.375-.1679.375-.375z"/><path d="m2.32376 1.80808c-.14645-.14645-.38388-.14645-.53033 0-.14645.14644-.14645.38388 0 .53033l.67857.67856c.14644.14645.38388.14645.53033 0 .14644-.14644.14644-.38388 0-.53033z"/><path d="m.15625 5.7207c0-.2071.167893-.375.375-.375h.93303c.20711 0 .375.1679.375.375 0 .20711-.16789.375-.375.375h-.93303c-.207107 0-.375-.16789-.375-.375z"/><path d="m3.00233 9.03958c.14644-.14645.14644-.38389 0-.53033-.14645-.14645-.38389-.14645-.53033 0l-.67857.67857c-.14645.14644-.14645.38388 0 .53033.14645.14644.38388.14644.53033 0z"/><path d="m5.70703 9.58789c.20711 0 .375.16789.375.375v.93301c0 .2071-.16789.375-.375.375s-.375-.1679-.375-.375v-.93301c0-.20711.16789-.375.375-.375z"/><path d="m9.02688 8.50925c-.14644-.14645-.38388-.14645-.53033 0-.14644.14645-.14644.38388 0 .53033l.67857.67857c.14645.14644.38388.14644.53033 0 .14645-.14645.14645-.38389 0-.53033z"/><path d="m9.57031 5.7207c0-.2071.1679-.375.375-.375h.93299c.2071 0 .375.1679.375.375 0 .20711-.1679.375-.375.375h-.93299c-.2071 0-.375-.16789-.375-.375z"/><path d="m9.70545 2.33841c.14645-.14645.14645-.38389 0-.53033-.14645-.14645-.38388-.14645-.53033 0l-.67857.67856c-.14644.14645-.14644.38389 0 .53033.14645.14645.38389.14645.53033 0z"/><path clip-rule="evenodd" d="m2.95312 5.80663c0-1.57292 1.27935-2.74999 2.74999-2.74999 1.54589 0 2.74999 1.08303 2.74999 2.66517 0 1.57291-1.27935 2.74998-2.74999 2.74998-1.45208 0-2.74999-1.0746-2.74999-2.66516zm2.74999-1.99999c-1.07399 0-1.99999.85863-1.99999 1.99999 0 1.1237.90744 1.91516 1.99999 1.91516 1.07399 0 1.99999-.85863 1.99999-1.99998 0-1.13214-.8316-1.91517-1.99999-1.91517z" fill-rule="evenodd"/><path clip-rule="evenodd" d="m15.3566 15.5129v3.1115h1.869c.0643 0 .0887-.0198.0961-.0272s.0271-.0317.0272-.0958l-.0029-4.733c-.0001-.0995.0394-.1949.1098-.2653.0703-.0704.1657-.1099.2652-.1099h.9316l-1.6416-1.5984c-.0725-.0706-.1134-.1675-.1134-.2686v-2.3155h-.7447v.9204c0 .1483-.0874.2826-.2229.3428-.1355.0601-.2938.0348-.4037-.0647l-2.014-1.82221-5.18606 4.85601h.97462c.20711 0 .375.1679.375.375s-.16789.375-.375.375h-1.24558c-.22088 0-.46238-.1124-.58453-.3567-.05475-.1095-.08324-.2441-.06843-.3773.01336-.1202.07067-.284.22524-.3892l5.44914-5.10237c.2436-.23822.6211-.23912.8657-.00269l1.4605 1.32137v-.20129c0-.15996.0549-.32239.1783-.44578s.2859-.17834.4458-.17834h.9965c.1599 0 .3224.05495.4457.17834.1234.12339.1784.28582.1784.44578v2.28308l1.7835 1.7365c.1087.1088.2717.3787.12.682-.1221.2443-.3636.3568-.5845.3568h-.8704l.0027 4.3578c0 .2346-.0799.4596-.2469.6266-.167.1669-.3917.2468-.6264.2468h-2.2151c-.0056.0004-.0113.0007-.017.0009-.0039.0002-.0079.0002-.0119.0002h-2.9894c-.0097 0-.0194-.0004-.0289-.0011h-2.21116c-.23469 0-.4594-.0799-.62638-.2468-.16699-.167-.24685-.3917-.24685-.6264v-1.967c0-.2071.16789-.375.375-.375.2071 0 .375.1679.375.375v1.967c0 .0642.01978.0886.02718.096.00739.0074.0318.0272.09605.0272h1.86506v-3.1115c0-.2347.0799-.4594.2468-.6264.167-.167.3917-.2469.6264-.2469h1.993c.2346 0 .4594.0799.6263.2469.167.167.2469.3917.2469.6264zm-2.9894 0c0-.0643.0198-.0887.0272-.0961s.0318-.0272.096-.0272h1.993c.0642 0 .0886.0198.096.0272s.0272.0318.0272.0961v3.1115h-2.2394z" fill-rule="evenodd"/><path d="m9.25 15.5518c.20711 0 .375-.1679.375-.375s-.16789-.375-.375-.375-.375.1679-.375.375.16789.375.375.375z"/></g></svg>