<svg fill="none" height="20" viewBox="0 0 20 20" width="20" xmlns="http://www.w3.org/2000/svg"><g fill="#92a0a9"><path d="m12.8437.497625c.051-.153128.1943-.256414.3557-.256414s.3047.103286.3558.256415l.1613.484089.4841.161365c.1532.05104.2564.19434.2564.35575 0 .16142-.1032.30472-.2564.35576l-.4841.16136-.1613.48409c-.0511.15313-.1944.25642-.3558.25642s-.3047-.10329-.3557-.25642l-.1614-.48409-.4841-.16136c-.1531-.05104-.2564-.19434-.2564-.35576 0-.16141.1033-.30471.2564-.35575l.4841-.161365z"/><path clip-rule="evenodd" d="m9.14065 2.95588c.05606-.14414.19485-.23908.3495-.23908.15466 0 .29345.09494.3495.23908l.33565.863.863.33561c.1441.05606.239.19485.239.3495 0 .15466-.0949.29345-.239.34951l-.863.33561-.33565.863c-.05605.14414-.19484.23908-.3495.23908-.15465 0-.29344-.09494-.3495-.23908l-.33561-.863-.863-.33561c-.14414-.05606-.23908-.19485-.23908-.34951 0-.15465.09494-.29344.23908-.3495l.863-.33561zm.39542 1.28862-.04592-.11807-.04591.11807c-.03811.09798-.1156.17547-.21358.21358l-.11807.04591.11807.04592c.09798.0381.17547.11559.21358.21358l.04591.11806.04592-.11806c.0381-.09799.11559-.17548.21358-.21358l.11806-.04592-.11806-.04591c-.09799-.03811-.17548-.1156-.21358-.21358z" fill-rule="evenodd"/><path d="m5.26008 2.0625c-.16141 0-.30471.10329-.35575.25641l-.13936.41808-.41808.13936c-.15313.05105-.25642.19435-.25642.35576s.10329.30471.25642.35576l.41808.13935.13936.41808c.05104.15313.19434.25642.35575.25642.16142 0 .30472-.10329.35576-.25642l.13936-.41808.41808-.13935c.15313-.05105.25641-.19435.25641-.35576s-.10328-.30471-.25641-.35576l-.41808-.13936-.13936-.41808c-.05104-.15312-.19434-.25641-.35576-.25641z"/><path clip-rule="evenodd" d="m16.4833 1.98117c-.0926-.12735-.0957-.29894-.0079-.4296.0878-.13065.2478-.19256.4007-.15499 1.548.38042 2.7941 1.74588 2.9406 3.48594l.0003.00361c.1461 1.96013-1.1667 3.78332-3.0888 4.16561-1.4928.30755-2.9611-.38924-3.8311-1.58664-.0944-.1299-.0956-.30548-.003-.43667.0925-.13119.2584-.18887.4124-.14345.4293.1266.8201.17898 1.2613.06513.0068-.00176.0137-.00334.0207-.00472 1.5291-.30354 2.606-1.76804 2.4886-3.37038-.0608-.62096-.2378-1.10382-.5938-1.59384zm.0975 6.33521c1.5299-.30369 2.607-1.76946 2.4884-3.3727-.0884-1.04254-.6627-1.91572-1.4565-2.42414.109.30778.1769.63233.2113.98732l.0007.00829c.1458 1.9571-1.1626 3.77768-3.0799 4.16383-.179.04547-.3511.07063-.5175.07986.6776.50488 1.5203.72953 2.3507.5581z" fill-rule="evenodd"/><path clip-rule="evenodd" d="m6.29752 15.3847c.16695-.1671.39166-.247.62637-.247h1.99243c.23472 0 .45942.0799.62637.247.16693.167.24674.3917.24674.6264v3.1138h1.86777c.0642 0 .0885-.0198.0959-.0272s.0272-.0318.0272-.0962c0-.2071.1679-.375.375-.375s.375.1679.375.375c0 .2347-.0798.4594-.2467.6264-.167.1671-.3917.247-.6264.247h-7.47159c-.23471 0-.45942-.0799-.62637-.247-.16693-.167-.24673-.3917-.24673-.6264v-4.3095h-.8237c-.22097 0-.46242-.1126-.58451-.3569-.05472-.1095-.08318-.2441-.06838-.3773.01334-.1201.07059-.2839.22514-.3892l5.44773-5.104c.24362-.23836.62119-.23925.86583-.00269l1.45985 1.32159v-.20131c0-.15991.0549-.32234.17823-.44576.1234-.12343.2858-.17844.4458-.17844h.9962c.16 0 .3225.05501.4458.17844.1234.12342.1783.28585.1783.44576v2.28391l1.7831 1.7372c.1087.1088.2715.3787.12.6819-.1221.2443-.3636.3569-.5845.3569h-.8703v1.5934c0 .2071-.1679.375-.375.375s-.375-.1679-.375-.375v-1.9684c0-.2071.1679-.375.375-.375h.9315l-1.6415-1.5992c-.0724-.0706-.1133-.1674-.1133-.2686v-2.31631h-.7443v.92081c0 .1483-.0874.2827-.223.3428-.1355.0601-.2938.0348-.4037-.0648l-2.01335-1.82263-5.18491 4.85783h.91667c.1982 0 .36048.1537.37408.3485.00797.0304.01222.0623.01222.0952v4.6158c0 .0644.01981.0888.02722.0962.00739.0074.03173.0272.09588.0272h1.86518v-3.1138c0-.2347.07981-.4594.24673-.6264zm.53049.5301c-.00741.0075-.02722.0319-.02722.0963v3.1138h2.23864v-3.1138c0-.0644-.01981-.0888-.02722-.0963-.00739-.0074-.03174-.0271-.09589-.0271h-1.99243c-.06414 0-.08849.0197-.09588.0271z" fill-rule="evenodd"/><path d="m12.1563 18.0713c.2071 0 .375-.1679.375-.375s-.1679-.375-.375-.375c-.2072 0-.375.1679-.375.375s.1678.375.375.375z"/></g></svg>