<svg fill="none" height="20" viewBox="0 0 20 20" width="20" xmlns="http://www.w3.org/2000/svg"><g fill="#92a0a9"><g clip-rule="evenodd" fill-rule="evenodd"><path d="m2.82031 16.6531c0-1.1098.87409-2.0427 1.97606-2.0427 1.10196 0 1.97605.9329 1.97605 2.0427s-.87409 2.0428-1.97605 2.0428c-1.10197 0-1.97606-.933-1.97606-2.0428zm1.97606-1.2927c-.6592 0-1.22606.568-1.22606 1.2927 0 .7248.56686 1.2928 1.22606 1.2928.65919 0 1.22605-.568 1.22605-1.2928 0-.7247-.56686-1.2927-1.22605-1.2927z"/><path d="m13.2266 16.6531c0-1.1098.874-2.0427 1.976-2.0427s1.9761.9329 1.9761 2.0427-.8741 2.0428-1.9761 2.0428-1.976-.933-1.976-2.0428zm1.976-1.2927c-.6592 0-1.226.568-1.226 1.2927 0 .7248.5668 1.2928 1.226 1.2928s1.2261-.568 1.2261-1.2928c0-.7247-.5669-1.2927-1.2261-1.2927z"/><path d="m4.42188 3.90686v-.51341c0-.3309.10712-.6377.32462-.86426.21882-.22794.52081-.34462.8509-.34462h1.60105c.3301 0 .63209.11668.85091.34462.21749.22656.32462.53336.32462.86426v.45909h1.2258c.33009 0 .63212.11668.85092.34462.2175.22655.3246.53336.3246.86426v1.29307h1.9458c.6313 0 1.2535.42532 1.4708.99107l.0011.00286 1.2238 3.26678 2.2118.9216c.7523.1377 1.1343.8111 1.2265 1.3876l.3116 1.9473c.0312.0259.061.0536.0894.0833.2175.2265.3247.5333.3247.8642s-.1072.6377-.3247.8643c-.2188.2279-.5208.3446-.8509.3446h-1.601c-.2071 0-.3755-.1679-.3755-.375s.1684-.375.3755-.375h1.601c.1503 0 .2485-.0501.3099-.114.0627-.0653.1157-.1754.1157-.3449 0-.1694-.053-.2795-.1157-.3448-.0614-.064-.1596-.114-.3099-.114h-3.2026c-.2071 0-.3745-.1679-.3745-.375 0-.2072.1674-.375.3745-.375h3.1628l-.2508-1.5675c-.0659-.4118-.3097-.7224-.6456-.7724-.0306-.0046-.0605-.0129-.089-.0248l-2.4016-1.0006c-.0364-.0152-.0699-.0359-.0993-.061-.0224.0041-.0455.0063-.0692.0063h-5.63412v5.0869h4.42742c.2071 0 .375.1679.375.375 0 .2072-.1679.375-.375.375h-4.78839l-.01403.0003-.01403-.0003h-2.38831c-.20711 0-.375-.1678-.375-.375 0-.2071.16789-.375.375-.375h2.02734v-5.4619c0-.2071.16789-.375.375-.375h1.22262v-3.33591h-5.89136l-1.80594 3.13531c-.03211.0673-.06242.1341-.09077.2006h3.79335c.20711 0 .375.1679.375.375s-.16789.375-.375.375h-4.02137c-.02519.1485-.03856.3006-.03856.459v2.961h2.82762c.2071 0 .37423.1678.37423.375 0 .2071-.16713.375-.37423.375h-3.60314c-.00962 0-.01609.0009-.01994.0018-.002.0056-.00532.0184-.00532.0401v.2502c0 .3708.30662.6256.58563.6256h1.44095c.2071 0 .37576.1679.37576.375s-.16866.375-.37576.375h-1.44095c-.68162 0-1.335631-.5791-1.335631-1.3756v-.2502c0-.2058.067103-.4084.214552-.562.148771-.155.350697-.2299.560709-.2299h.02552v-2.961c0-.6581.18208-1.2152.43719-1.74666.00406-.00846.00844-.01676.01312-.02489l1.92127-3.33553c.00921-.016.01951-.03115.03076-.04539v-1.43551c0-.3309.10713-.63771.32463-.86426.13235-.13787.29513-.23504.47616-.2903zm.75-.51341c0-.16943.05297-.27956.11566-.34486.06137-.06393.15964-.11402.30986-.11402h1.60105c.15023 0 .2485.05009.30987.11402.06268.0653.11566.17543.11566.34486v.45909h-2.4521zm-.37526 1.20909h.42604v1.75195h-.85157v-1.29307c0-.16943.05298-.27956.11567-.34486.06137-.06393.15964-.11402.30986-.11402zm1.17604 0v1.75195h2.45312v-1.75195zm3.20312 1.75195v-1.75195h.424c.15022 0 .24849.05009.30986.11402.06269.0653.11566.17543.11566.34486v1.29307zm5.37462 4.08591-1.0587-2.82598-.0004-.00119c-.1035-.26766-.4414-.50874-.7702-.50874h-1.9477v3.33591z"/></g><path d="m11.457 13.3174c0-.2071.1679-.375.375-.375h.7238c.2071 0 .375.1679.375.375s-.1679.375-.375.375h-.7238c-.2071 0-.375-.1679-.375-.375z"/><path d="m7.79688 10.8154c0 .2071-.1679.375-.375.375-.20711 0-.375-.1679-.375-.375s.16789-.375.375-.375c.2071 0 .375.1679.375.375z"/><path d="m10.4062 13.6924c.2072 0 .375-.1679.375-.375s-.1678-.375-.375-.375c-.2071 0-.375.1679-.375.375s.1679.375.375.375z"/></g></svg>