<svg fill="none" height="26" viewBox="0 0 26 26" width="26" xmlns="http://www.w3.org/2000/svg"><g stroke="#92a0a9" stroke-linecap="round" stroke-linejoin="round"><path d="m13.5018 3.44559c.1801-.18333.3603-.275.6306-.275s.4504.09167.6306.275l6.3964 6.50834c.3604.36667.3604.91667 0 1.28337-.6306.6416-1.7117 1.7416-2.8829 2.9333-2.072 1.925-5.4054 1.8333-7.2973-.3667-2.07204-2.0166-2.25222-5.31664-.3603-7.42497z"/><path d="m16.0244 4.72896 1.8675-1.90016"/><path d="m19.8555 8.62197 1.2686-1.29085"/><path d="m22.1399 6.29729.01-.01"/><path d="m11.2925 23.0019.01-.01"/><circle cx="13.8392" cy="10.8912" r="1.09312"/><path d="m11.9705 14.6741-1.9341 1.968-1.84621-1.8785 1.93411-1.968"/><path d="m12.4206 21.504c.5405-.55.5405-1.4667 0-2.0167s-1.4414-.55-1.982 0l-3.06304 3.1167c-.63063.6417-1.62162.825-2.34234.275-.45045-.275-.72072-.825-.72072-1.375s.18018-1.1.54054-1.4667l4.23424-4.3083"/></g></svg>