<svg fill="none" height="26" viewBox="0 0 26 26" width="26" xmlns="http://www.w3.org/2000/svg"><g fill="#18303f"><path clip-rule="evenodd" d="m10.338 1.9267c.084-.26306.3654-.40822.6284-.32423 4.8534 1.54964 8.3668 5.84849 8.9516 11.02863.0328.291.0564.5848.0705.8809.1369-.0608.2733-.1246.4086-.1912.2634-.1298.5224-.2701.7735-.4192.2375-.141.5442-.0627.6852.1747.141.2375.0628.5442-.1747.6852-.2737.1625-.5555.3152-.8421.4563-.3818.1881-.7728.3562-1.1647.4998-.1533.0562-.3245.034-.4584-.0595-.1339-.0936-.2137-.2466-.2137-.4099v-.294c-.0067-.4086-.033-.813-.0779-1.2109-.5414-4.79543-3.7905-8.76048-8.262-10.18821-.2631-.08399-.4083-.36533-.3243-.62839zm-.5127.81083c.2599-.09329.5462.04178.6395.30169.4094 1.14069.6478 2.36591.6478 3.64246 0 1.67549-.4154 3.33982-1.13282 4.88932-.0725.1566-.2206.2648-.39183.2861-.17122.0214-.34136-.0471-.4501-.181-.64336-.7926-1.14298-1.5922-1.52773-2.46631-.11126-.25274.00344-.54781.25618-.65906.25274-.11126.54782.00344.65907.25618.23817.54107.5266 1.05372.87767 1.55989.45755-1.2008.70956-2.44671.70956-3.68512 0-1.15113-.21486-2.26223-.589-3.30464-.09328-.25991.04179-.54623.3017-.63951zm-2.82611 5.71103c.20581.18411.22341.5002.0393.70602-.07053.07883-.13948.15886-.20686.24004-1.32653 1.59818-2.04061 3.64118-2.04061 5.74958v.4874c.19185 4.8981 4.2075 8.662 9.06648 8.5705 4.7644-.1911 8.6018-4.1486 8.6018-9.0579 0-.3852-.019-.7654-.0645-1.1334-.0338-.274.1609-.5237.4349-.5575.2741-.0339.5237.1608.5576.4349.0515.4166.072.8387.072 1.256 0 5.4431-4.2593 9.8475-9.5674 10.0573l-.0101.0004c-5.40823.1048-9.88246-4.091-10.09042-9.5408-.00024-.0064-.00036-.0127-.00036-.0191v-.4978c0-2.3322.7897-4.6034 2.27113-6.38825.07523-.09065.15225-.18003.23103-.2681.18411-.20581.5002-.2234.70601-.03929z" fill-rule="evenodd"/><path clip-rule="evenodd" d="m13.6648 13.9239c.1454.2347.0731.5429-.1617.6883-2.0569 1.2748-3.3791 3.4937-3.3791 5.9085 0 .973.3485 1.824 1.016 2.4127.0084.0073.0164.0149.0243.0228.695.7006 1.5544 1.0469 2.5095 1.0469.0152 0 .0304.0007.0456.0021.9178.0841 1.7582-.244 2.4521-.9376.609-.7072.9532-1.5829.9532-2.5469 0-.011.0004-.022.0011-.033.078-1.1784-.4821-2.2866-1.4981-2.933-.2603.5856-.6773.985-1.0598 1.2741-.1149.0869-.2617.12-.4027.0908-.1411-.0291-.2627-.1177-.3338-.243-.6018-1.0616-.6939-2.2685-.3939-3.375.0723-.2666.3469-.424.6134-.3518.2666.0723.424.3469.3518.6135-.182.6712-.1792 1.3724.0356 2.026.1353-.1635.248-.3492.326-.5666.0032-.0179.0073-.0359.0123-.0539.0157-.0564.0382-.1057.0633-.148.0158-.0264.0329-.0502.0488-.0702.0737-.184.2538-.314.4642-.314h.197c.0782 0 .1558.0183.2256.0535 1.5548.7835 2.4545 2.3571 2.3492 4.0471-.0039 1.2141-.4453 2.3189-1.2089 3.1985-.0073.0084-.0148.0165-.0226.0244-.8789.8858-2.0012 1.3498-3.2422 1.2429-1.2037-.0055-2.307-.4516-3.185-1.3308-.90432-.8044-1.34198-1.9398-1.34198-3.1515 0-2.7859 1.52288-5.3149 3.85238-6.7585.2347-.1454.5429-.0731.6884.1617z" fill-rule="evenodd"/><path d="m23.1934 12.4469c0 .2762-.2239.5-.5.5-.2762 0-.5-.2238-.5-.5 0-.2761.2238-.5.5-.5.2761 0 .5.2239.5.5z"/><path d="m15.084 13.5495c0 .2761-.2239.5-.5.5-.2762 0-.5-.2239-.5-.5 0-.2762.2238-.5.5-.5.2761 0 .5.2238.5.5z"/><path d="m9.81055 1.59441c0 .27614-.22386.5-.5.5-.27615 0-.5-.22386-.5-.5 0-.27615.22385-.5.5-.5.27614 0 .5.22385.5.5z"/><path d="m8.13477 7.83366c0 .27615-.22386.5-.5.5-.27615 0-.5-.22385-.5-.5 0-.27614.22385-.5.5-.5.27614 0 .5.22386.5.5z"/></g></svg>