<svg fill="none" height="26" viewBox="0 0 26 26" width="26" xmlns="http://www.w3.org/2000/svg"><path d="m15.2363 17.0691h-.5c0 .1818.0987.3492.2577.4373zm-4 0 .2421.4375c.1591-.0881.2579-.2556.2579-.4375zm6.0003-3.8877c-.2761 0-.5.2239-.5.5 0 .2762.2239.5.5.5zm1 1c.2761 0 .5-.2238.5-.5 0-.2761-.2239-.5-.5-.5zm-1-5.7819c-.2761 0-.5.22386-.5.5s.2239.5.5.5zm3 1c.2761 0 .5-.22386.5-.5s-.2239-.5-.5-.5zm-3-5.78277c-.2761 0-.5.22386-.5.5s.2239.5.5.5zm1 1c.2761 0 .5-.22386.5-.5s-.2239-.5-.5-.5zm-5.5003 3.29285c0 .27614.2239.5.5.5.2762 0 .5-.22386.5-.5zm1-.01c0-.27614-.2238-.5-.5-.5-.2761 0-.5.22386-.5.5zm-1 2.01c0 .27612.2239.50002.5.50002.2762 0 .5-.2239.5-.50002zm1-.01c0-.27614-.2238-.5-.5-.5-.2761 0-.5.22386-.5.5zm-1 2.01002c0 .2761.2239.5.5.5.2762 0 .5-.2239.5-.5zm1-.01c0-.2762-.2238-.5-.5-.5-.2761 0-.5.2238-.5.5zm-1 2.01c0 .2761.2239.5.5.5.2762 0 .5-.2239.5-.5zm1-.01c0-.2762-.2238-.5-.5-.5-.2761 0-.5.2238-.5.5zm-1 2.01c0 .2761.2239.5.5.5.2762 0 .5-.2239.5-.5zm1-.01c0-.2762-.2238-.5-.5-.5-.2761 0-.5.2238-.5.5zm-1 2.01c0 .2761.2239.5.5.5.2762 0 .5-.2239.5-.5zm1-.01c0-.2762-.2238-.5-.5-.5-.2761 0-.5.2238-.5.5zm2-.8305v-12.95228h-1v12.95228zm0-12.95228c0-1.35317-1.1393-2.41304-2.5-2.41304v1c.8504 0 1.5.65326 1.5 1.41304zm-2.5-2.41304c-1.3606 0-2.5 1.05987-2.5 2.41304h1c0-.75978.6497-1.41304 1.5-1.41304zm-2.5 2.41304v12.95228h1v-12.95228zm.258 12.51478c-1.34052.7416-2.25797 2.1334-2.25797 3.7461h1c0-1.2176.69157-2.2899 1.74207-2.8711zm-2.25797 3.7461c0 2.4097 2.03497 4.3261 4.49997 4.3261v-1c-1.9549 0-3.49997-1.5099-3.49997-3.3261zm4.49997 4.3261c2.464 0 4.5-1.9163 4.5-4.3261h-1c0 1.8161-1.5459 3.3261-3.5 3.3261zm4.5-4.3261c0-1.6131-.9198-3.0045-2.2576-3.7459l-.4847.8746c1.0491.5815 1.7423 1.654 1.7423 2.8713zm-.4997-6.1963h1v-1h-1zm0-4.7819h3v-1h-3zm0-4.78277h1v-1h-1zm-3.5003 3.29285v-.01h-1v.01zm0 2v-.01h-1v.01zm0 2.00002v-.01h-1v.01zm0 2v-.01h-1v.01zm0 2v-.01h-1v.01zm0 2v-.01h-1v.01zm-.5076 2.468c0-.0064.0015-.0132.004-.0189.0024-.0053.0049-.0082.0062-.0094.0024-.0023.0025-.0007-.0026-.0007v1c.5266 0 .9924-.4138.9924-.971zm.0076-.029c-.0057 0-.0054-.0018-.0026.0009.0013.0013.0039.0043.0063.0096.0025.0057.0039.0124.0039.0185h-1c0 .5567.4646.971.9924.971zm.0076.029c0 .0061-.0014.0128-.0039.0185-.0024.0053-.005.0083-.0063.0096-.0028.0027-.0031.0009.0026.0009v-1c-.5278 0-.9924.4142-.9924.971zm-.0076.029c.0051 0 .005.0016.0026-.0007-.0013-.0012-.0038-.0041-.0062-.0094-.0025-.0058-.004-.0126-.004-.0189h1c0-.5572-.4658-.971-.9924-.971z" fill="#92a0a9"/></svg>