<svg fill="none" height="26" viewBox="0 0 26 26" width="26" xmlns="http://www.w3.org/2000/svg"><circle cx="13.1348" cy="13.2038" r="12" stroke="#92a0a9"/><g clip-rule="evenodd" fill="#00ac83" fill-rule="evenodd"><path d="m10.8362 17.593c-.3905-.3905-.3905-1.0237 0-1.4142l6.3667-6.3667c.3905-.39052 1.0237-.39052 1.4142 0 .3905.3905.3905 1.0237 0 1.4142l-6.3667 6.3667c-.3905.3905-1.0237.3905-1.4142 0z"/><path d="m12.2465 17.594c-.3905.3905-1.0237.3905-1.4142 0l-3.18198-3.182c-.39053-.3905-.39053-1.0237 0-1.4142.39052-.3905 1.02368-.3905 1.41421 0l3.18197 3.182c.3905.3905.3905 1.0237 0 1.4142z"/></g></svg>