<svg fill="none" height="26" viewBox="0 0 26 26" width="26" xmlns="http://www.w3.org/2000/svg"><g fill="#18303f"><path clip-rule="evenodd" d="m6.95101 8.33219c.07745-.05808.2343-.16089.44617-.16089.28329 0 .66787.14709.76781.50727.61647.93629 1.82361 2.93583 2.88151 5.01583.5466 1.0747 1.0583 2.1807 1.4285 3.1786.3616.9751.6127 1.9099.5869 2.6242-.0053 3.0977-2.5658 5.6548-5.66472 5.6548-3.10212 0-5.66476-2.5625-5.66476-5.6645 0-.7086.26879-1.6358.64419-2.6072.38187-.9881.89906-2.0833 1.4449-3.1504.94029-1.8382 1.98083-3.6221 2.59142-4.66893.09827-.16849.18541-.31787.25919-.44532.0218-.03764.04841-.07228.07917-.10303.00239-.0024.0049-.0049.0075-.00751.04321-.04329.11422-.11442.19222-.17292zm.45438 1.01195c-.04109.07055-.08473.14538-.13071.22421-.61177 1.04895-1.63651 2.80595-2.56288 4.61695-.53827 1.0523-1.0382 2.113-1.40242 3.0555-.37069.9592-.57696 1.7373-.57696 2.2467 0 2.5497 2.11488 4.6645 4.66476 4.6645s4.66472-2.1148 4.66472-4.6645c0-.0067.0002-.0133.0004-.02.0201-.5024-.1666-1.2807-.5249-2.2468-.3516-.9479-.8448-2.0162-1.3823-3.073-.99887-1.964-2.13355-3.8549-2.74971-4.80356z" fill-rule="evenodd"/><path clip-rule="evenodd" d="m18.5416 1.41497c.0774-.05809.2343-.1609.4462-.1609.2118 0 .3687.10281.4461.1609.078.0585.149.12962.1922.17291.0026.00261.0051.00512.0075.00752.028.02794.0525.0591.0731.09283.5391.88206 1.7647 2.94082 2.8572 5.08893.5461 1.07355 1.0631 2.17782 1.4449 3.17345.3752.97869.6437 1.91159.6437 2.61969 0 3.102-2.5626 5.6645-5.6647 5.6645-3.1022 0-5.6648-2.5625-5.6648-5.6645 0-.7087.2688-1.6358.6442-2.60721.3819-.98815.899-2.08332 1.4449-3.15042.9403-1.83823 1.9808-3.62214 2.5914-4.66893.0983-.16848.1854-.31786.2592-.44531.0218-.03764.0484-.07228.0792-.10303.0024-.0024.0049-.00491.0075-.00752.0432-.04329.1142-.11441.1922-.17291zm.4493 1.02068c-.0396.06798-.0816.13989-.1256.21547-.6118 1.04892-1.6366 2.80593-2.5629 4.61695-.5383 1.05229-1.0382 2.11304-1.4024 3.05553-.3707.9592-.577 1.7372-.577 2.2467 0 2.5497 2.1149 4.6645 4.6648 4.6645 2.5498 0 4.6647-2.1148 4.6647-4.6645 0-.51-.2066-1.2945-.5774-2.2617-.3644-.95016-.8644-2.02009-1.4025-3.07811-.9914-1.94923-2.0973-3.82951-2.6817-4.79484z" fill-rule="evenodd"/><path d="m19.4863 15.5905c0 .2762-.2238.5-.5.5-.2761 0-.5-.2238-.5-.5 0-.2761.2239-.5.5-.5.2762 0 .5.2239.5.5z"/><path d="m17.9824 15.0905c0 .2762-.2238.5-.5.5-.2761 0-.5-.2238-.5-.5 0-.2761.2239-.5.5-.5.2762 0 .5.2239.5.5z"/><path d="m7.82227 22.5983c0 .2762-.22386.5-.5.5-.27615 0-.5-.2238-.5-.5 0-.2761.22385-.5.5-.5.27614 0 .5.2239.5.5z"/><path d="m6.31836 22.0983c0 .2762-.22386.5-.5.5s-.5-.2238-.5-.5c0-.2761.22386-.5.5-.5s.5.2239.5.5z"/></g></svg>