<svg fill="none" height="26" viewBox="0 0 26 26" width="26" xmlns="http://www.w3.org/2000/svg"><path d="m16.6338 14.4086c0-.2333-.1556-.3889-.3889-.3889h-1.9444v-1.9444c0-.2333-.1556-.3889-.3889-.3889h-1.5556c-.2333 0-.3889.1556-.3889.3889v1.9444h-1.9444c-.23336 0-.38891.1556-.38891.3889v1.5556c0 .2333.15555.3889.38891.3889h1.9444v1.9444c0 .2333.1556.3889.3889.3889h1.5556c.2333 0 .3889-.1556.3889-.3889v-1.9444h1.9444c.2333 0 .3889-.1556.3889-.3889z" stroke="#92a0a9" stroke-linecap="round" stroke-linejoin="round"/><rect height="17.7774" rx="5" stroke="#18303f" width="21.2185" x="2.52441" y="6.29773"/><path d="m9.63379 5.703v-1.5c0-.8.70001-1.5 1.50001-1.5h4c.8 0 1.5.7 1.5 1.5v1.5" stroke="#92a0a9" stroke-linecap="round" stroke-linejoin="round"/></svg>