<svg fill="none" height="26" viewBox="0 0 25 26" width="25" xmlns="http://www.w3.org/2000/svg" xmlns:xlink="http://www.w3.org/1999/xlink"><mask id="a" fill="#fff"><path clip-rule="evenodd" d="m8.78052 3.80658c-1.65686 0-3 1.34315-3 3v14.86952c0 1.6569 1.34314 3 3 3h7.43998c1.6569 0 3-1.3431 3-3v-14.86952c0-1.65685-1.3431-3-3-3-.0562 0-.1018-.04559-.1018-.10182v-1.02943c0-1.10457-.8954-1.999997-2-1.999997h-3.2369c-1.1046 0-2.00003.895427-2.00003 1.999997v1.03c0 .05592-.04533.10125-.10125.10125z" fill="#fff" fill-rule="evenodd"/></mask><path clip-rule="evenodd" d="m8.78052 3.80658c-1.65686 0-3 1.34315-3 3v14.86952c0 1.6569 1.34314 3 3 3h7.43998c1.6569 0 3-1.3431 3-3v-14.86952c0-1.65685-1.3431-3-3-3-.0562 0-.1018-.04559-.1018-.10182v-1.02943c0-1.10457-.8954-1.999997-2-1.999997h-3.2369c-1.1046 0-2.00003.895427-2.00003 1.999997v1.03c0 .05592-.04533.10125-.10125.10125z" fill="#cbccc4" fill-opacity=".4" fill-rule="evenodd"/><path d="m19.2205 21.6761h-1zm0-14.86952h1zm-12.43998 0c0-1.10457.89543-2 2-2v-2c-2.20914 0-4 1.79086-4 4zm0 14.86952v-14.86952h-2v14.86952zm2 2c-1.10457 0-2-.8954-2-2h-2c0 2.2092 1.79086 4 4 4zm7.43998 0h-7.43998v2h7.43998zm2-2c0 1.1046-.8954 2-2 2v2c2.2092 0 4-1.7908 4-4zm0-14.86952v14.86952h2v-14.86952zm-2-2c1.1046 0 2 .89543 2 2h2c0-2.20913-1.7908-4-4-4zm-1.1018-2.13125v1.02943h2v-1.02943zm-1-1c.5523 0 1 .44772 1 1h2c0-1.65685-1.3432-2.999997-3-2.999997zm-3.2369 0h3.2369v-1.999997h-3.2369zm-1.00003 1c0-.55228.44773-1 1.00003-1v-1.999997c-1.65689 0-3.00003 1.343147-3.00003 2.999997zm0 1.03v-1.03h-2v1.03zm-2 0c0-.49636.40238-.89875.89875-.89875v2c.6082 0 1.10125-.49304 1.10125-1.10125zm8.33873-.89875c.4961 0 .8982.40213.8982.89818h-2c0 .60852.4933 1.10182 1.1018 1.10182z" fill="#92a0a9" mask="url(#a)"/><path d="m13.2598 9.41187-.72 3.24003h2.88l-3.6 5.04.72-3.24" fill="#cbccc4" fill-opacity=".4"/><path d="m13.2598 9.41187-.72 3.24003h2.88l-3.6 5.04.72-3.24" stroke="#92a0a9" stroke-linecap="round" stroke-linejoin="round" stroke-miterlimit="10"/><path d="m9.69092 14.4145 3.56748-5.00263z" fill="#cbccc4" fill-opacity=".4"/><path d="m9.69092 14.4145 3.56748-5.00263" stroke="#92a0a9" stroke-linecap="round" stroke-linejoin="round" stroke-miterlimit="10"/><path d="m12.5398 14.4519h-2.84717z" fill="#cbccc4" fill-opacity=".4"/><path d="m12.5398 14.4519h-2.84717" stroke="#92a0a9" stroke-linecap="round" stroke-linejoin="round" stroke-miterlimit="10"/></svg>