<svg fill="none" height="25" viewBox="0 0 25 25" width="25" xmlns="http://www.w3.org/2000/svg"><g stroke="#92a0a9" stroke-linecap="round" stroke-linejoin="round"><path d="m21.7001 6.89612c0-1.7-1.4001-3-3.1001-3-.7 0-1.3.2-1.8.6-1-1.3-2.6-2.1-4.3-2.1s-3.29995.8-4.29995 2.1c-.5-.4-1.1-.6-1.8-.6-1.7 0-3 1.3-3.1 3"/><path d="m3.3 6.89612c-.8 0-1.6.4-2 1.1s-.4 1.6 0 2.29998c.4.7 1.2 1.1 2 1.1"/><path d="m21.7 6.89612c.8 0 1.6.4 2 1.1s.4 1.6 0 2.29998c-.4.7-1.2 1.1-2 1.1h-1.1m-1.6 0h.0372"/></g><g fill="#92a0a9"><path d="m6.22894 16.8521v-3.612c0-.896.236-1.556.708-1.98.48-.424 1.104-.636 1.872-.636.784 0 1.41196.2 1.88396.6.472.392.708.888.708 1.488 0 .216-.04.364-.12.444-.08.072-.208.108-.384.108-.32 0-.488-.116-.504-.348-.048-.92-.56796-1.38-1.55996-1.38-1.064 0-1.596.568-1.596 1.704v3.612c0 1.136.544 1.704 1.632 1.704.312 0 .572-.044.78-.132s.35996-.216.45596-.384c.104-.168.172-.312.204-.432s.06-.28.084-.48c.024-.232.192-.348.504-.348.176 0 .304.04.384.12s.12.228.12.444c0 .608-.24 1.116-.72 1.524-.472.4-1.09996.6-1.88396.6-.76 0-1.38-.212-1.86-.636-.472-.424-.708-1.084-.708-1.98zm6.37496 0v-3.612c0-.904.232-1.564.696-1.98.472-.424 1.1-.636 1.884-.636s1.412.212 1.884.636c.472.416.708 1.076.708 1.98v3.612c0 .904-.236 1.568-.708 1.992-.472.416-1.1.624-1.884.624s-1.412-.208-1.884-.624c-.464-.424-.696-1.088-.696-1.992zm1.008 0c0 1.136.524 1.704 1.572 1.704.504 0 .892-.14 1.164-.42.28-.288.42-.716.42-1.284v-3.612c0-.568-.14-.992-.42-1.272-.272-.288-.66-.432-1.164-.432-1.048 0-1.572.568-1.572 1.704z"/><path d="m18.542 24.0811v-.873c0-.27.099-.534.297-.792.204-.258.453-.492.747-.702l.864-.63c.288-.21.531-.441.729-.693.204-.252.306-.504.306-.756s-.084-.471-.252-.657c-.162-.192-.402-.288-.72-.288-.27 0-.489.075-.657.225s-.252.372-.252.666c0 .096-.048.18-.144.252-.09.072-.21.108-.36.108-.288 0-.432-.177-.432-.531 0-.468.18-.849.54-1.143.366-.3.801-.45 1.305-.45.534 0 .987.168 1.359.504.378.33.567.759.567 1.287 0 .36-.102.699-.306 1.017-.198.312-.441.579-.729.801-.282.216-.567.423-.855.621-.282.192-.525.387-.729.585-.198.198-.297.39-.297.576v.342h2.646c.084 0 .156.042.216.126.066.078.099.174.099.288s-.033.216-.099.306c-.06.084-.132.126-.216.126h-3.204c-.096 0-.192-.03-.288-.09-.09-.06-.135-.135-.135-.225z"/></g></svg>