<svg fill="none" height="26" viewBox="0 0 25 26" width="25" xmlns="http://www.w3.org/2000/svg"><g stroke="#92a0a9" stroke-linecap="round" stroke-linejoin="round"><path d="m14.476 16.9674c-1.0699-1.4094-2.716-1.8792-4.93824-2.6622-2.63374-.9396-4.11523-2.7405-4.03292-4.9329 0-.2349 0-.4698.0823-.7047-1.64609.9396-2.71605 2.5839-2.71605 4.3848 0 1.0179.32922 2.0358.98766 2.8188.98765 1.2528 2.13992 1.8792 5.10288 2.8971 2.13987.7047 3.95057 2.4273 3.95057 4.698 0 .2349 0 .4698-.0823.7047 1.6461-.9396 2.7161-2.5839 2.7161-4.3848-.0823-1.0179-.4115-1.9575-1.07-2.8188z"/><path d="m21.0598 9.92069c-1.07-1.4094-2.7161-1.8792-4.9383-2.66219-2.6337-.9396-4.1152-2.7405-4.0329-4.93289 0-.2349 0-.4698.0823-.7047-1.6461.9396-2.71607 2.58389-2.71607 4.38479 0 1.0179.32922 2.03579.98767 2.81879.9876 1.25281 2.1399 1.87921 5.1029 2.89711 2.1399.7047 3.9506 2.4273 3.9506 4.698 0 .2349 0 .4698-.0823.7047 1.6461-.9396 2.716-2.5839 2.716-4.3848-.0823-1.0179-.4115-1.9575-1.0699-2.81881z"/></g></svg>