<svg fill="none" height="26" viewBox="0 0 25 26" width="25" xmlns="http://www.w3.org/2000/svg"><g stroke="#92a0a9" stroke-linecap="round" stroke-linejoin="round"><path d="m12.4991 12.8962s-2.49995 5-6.49995 5c-1.3 0-2.6-.5-3.6-1.4-.9-.9-1.500004-2.2-1.400004-3.6 0-1.3.500004-2.6 1.400004-3.59997.9-.9 2.2-1.49999 3.6-1.39999 4 0 6.49995 4.99996 6.49995 4.99996z"/><path d="m23.999 12.8962c0 1.3-.5 2.6-1.4 3.6-.9.9-2.2 1.5-3.6 1.4-4 0-6.5-5-6.5-5s2.5-4.99996 6.5-4.99996c1.3 0 2.6.49999 3.6 1.39999.9.89997 1.5 2.19997 1.4 3.59997z"/><path d="m3.927 12.9016h3.90645"/><path d="m17.207 12.8905h3.5084"/><path d="m18.9609 11.1366v3.5083"/></g></svg>