<svg fill="none" height="26" viewBox="0 0 25 26" width="25" xmlns="http://www.w3.org/2000/svg" xmlns:xlink="http://www.w3.org/1999/xlink"><clipPath id="a"><path d="m.5.896118h24v24h-24z"/></clipPath><g clip-path="url(#a)" stroke="#18303f" stroke-linecap="round" stroke-linejoin="round"><path d="m24 24.2961c-2.5.5-4.1-2-4.1-2-.8 1.2-2.1 2-3.6 2.1-1.4 0-2.7-.8-3.3-2.1-.9 1.2-2.4 2-3.9 2.1-1.5-.1-2.8-.8-3.6-2.1 0 0-2 2.5-4.5 2"/><path d="m1 1.39612c2.1.9 3 3 3 5.5v9.39998c0 1.4.5 2.7 1.5 3.6"/><path d="m5 1.39612c2.1.9 3 3 3 5.5v9.39998c0 1.4.5 2.7 1.5 3.6"/><path d="m9 1.39612c2.1.9 3 3 3 5.5v9.39998c0 1.4.5 2.7 1.5 3.6"/><path d="m13 1.39612c2.1.9 3 3 3 5.5v9.39998c0 1.4.5 2.7 1.5 3.6"/><path d="m17 1.39612c2.1.9 3 3 3 5.5v9.39998c0 1.4.5 2.7 1.5 3.6"/></g></svg>