<svg fill="none" height="25" viewBox="0 0 25 25" width="25" xmlns="http://www.w3.org/2000/svg"><g fill="#92a0a9"><path d="m7.59099 5.84189c0-.73598.59663-1.33261 1.33261-1.33261s1.3326.59663 1.3326 1.33261-.59662 1.33261-1.3326 1.33261h-5.37914c-.27614 0-.5.22386-.5.5s.22386.5.5.5h5.37914c1.2883 0 2.3326-1.04435 2.3326-2.33261 0-1.28827-1.0443-2.33261-2.3326-2.33261-1.28827 0-2.33261 1.04434-2.33261 2.33261 0 .27614.22385.5.5.5.27614 0 .5-.22386.5-.5z"/><path d="m13.2233 7.75473c0-1.21573.9856-2.20127 2.2013-2.20127s2.2013.98554 2.2013 2.20127c0 1.21572-.9856 2.20126-2.2013 2.20126h-7.92885c-.27614 0-.5.22391-.5.50001s.22386.5.5.5h7.92885c1.768 0 3.2013-1.43326 3.2013-3.20127 0-1.76802-1.4333-3.20127-3.2013-3.20127s-3.2013 1.43325-3.2013 3.20127c0 .27614.2239.5.5.5.2762 0 .5-.22386.5-.5z"/><path d="m4.56455 9.95599c-.27614 0-.5.22391-.5.50001s.22386.5.5.5h1.26882c.27615 0 .5-.2239.5-.5s-.22385-.50001-.5-.50001z"/><path d="m18.6421 15.3924c0 1.1053.8961 2.0014 2.0014 2.0014 1.1054 0 2.0014-.8961 2.0014-2.0014 0-1.1054-.896-2.0014-2.0014-2.0014h-7.3422c-.2761 0-.5-.2239-.5-.5 0-.2762.2239-.5.5-.5h7.3422c1.6576 0 3.0014 1.3437 3.0014 3.0014 0 1.6576-1.3438 3.0014-3.0014 3.0014s-3.0014-1.3438-3.0014-3.0014c0-.2762.2239-.5.5-.5.2762 0 .5.2238.5.5z"/><path d="m10.0355 13.391c-.27612 0-.49998-.2239-.49998-.5 0-.2762.22386-.5.49998-.5h1.175c.2761 0 .5.2238.5.5 0 .2761-.2239.5-.5.5z"/><path d="m15.2222 20.4907c-.736 0-1.3326-.5966-1.3326-1.3326 0-.2761-.2239-.5-.5-.5-.2762 0-.5.2239-.5.5 0 1.2883 1.0443 2.3326 2.3326 2.3326 1.2882 0 2.3326-1.0443 2.3326-2.3326s-1.0444-2.3326-2.3326-2.3326h-5.37915c-.27614 0-.5.2239-.5.5s.22386.5.5.5h5.37915c.736 0 1.3326.5966 1.3326 1.3326s-.5966 1.3326-1.3326 1.3326z"/><path d="m2.33337 17.3255c0-.2761.22386-.5.5-.5h4.30836c.27614 0 .5.2239.5.5s-.22386.5-.5.5h-4.30836c-.27614 0-.5-.2239-.5-.5z"/><path d="m5.83337 14.8255c-.27614 0-.5.2239-.5.5s.22386.5.5.5h4.30833c.2762 0 .5-.2239.5-.5s-.2238-.5-.5-.5z"/><path d="m2.3551 7.6745c0 .27614-.22386.5-.5.5s-.5-.22386-.5-.5.22386-.5.5-.5.5.22386.5.5z"/><path d="m8.2562 13.391c.27614 0 .5-.2239.5-.5 0-.2762-.22386-.5-.5-.5-.27615 0-.5.2238-.5.5 0 .2761.22385.5.5.5z"/></g></svg>