<svg fill="none" height="26" viewBox="0 0 26 26" width="26" xmlns="http://www.w3.org/2000/svg"><path d="m21.2354 17.0691h-.5c0 .1818.0986.3492.2576.4373zm-4 0 .242.4375c.1592-.0881.258-.2556.258-.4375zm1.5-1.1595c0 .2761.2238.5.5.5.2761 0 .5-.2239.5-.5zm1-.01c0-.2762-.2239-.5-.5-.5-.2762 0-.5.2238-.5.5zm-1 2.01c0 .2761.2238.5.5.5.2761 0 .5-.2239.5-.5zm1-.01c0-.2762-.2239-.5-.5-.5-.2762 0-.5.2238-.5.5zm2-.8305v-12.95228h-1v12.95228zm0-12.95228c0-1.35317-1.1394-2.41304-2.5-2.41304v1c.8503 0 1.5.65326 1.5 1.41304zm-2.5-2.41304c-1.3607 0-2.5 1.05987-2.5 2.41304h1c0-.75978.6496-1.41304 1.5-1.41304zm-2.5 2.41304v12.95228h1v-12.95228zm.2579 12.51478c-1.3405.7416-2.2579 2.1334-2.2579 3.7461h1c0-1.2176.6915-2.2899 1.742-2.8711zm-2.2579 3.7461c0 2.4097 2.0349 4.3261 4.5 4.3261v-1c-1.955 0-3.5-1.5099-3.5-3.3261zm4.5 4.3261c2.4639 0 4.5-1.9163 4.5-4.3261h-1c0 1.8161-1.546 3.3261-3.5 3.3261zm4.5-4.3261c0-1.6131-.9198-3.0045-2.2577-3.7459l-.4847.8746c1.0491.5815 1.7424 1.654 1.7424 2.8713zm-4-4.4681v-.01h-1v.01zm0 2v-.01h-1v.01zm-.5077 2.468c0-.0064.0015-.0132.0041-.0189.0023-.0053.0049-.0082.0061-.0094.0025-.0023.0026-.0007-.0025-.0007v1c.5266 0 .9923-.4138.9923-.971zm.0077-.029c-.0058 0-.0055-.0018-.0027.0009.0014.0013.004.0043.0063.0096.0025.0057.004.0124.004.0185h-1c0 .5567.4645.971.9924.971zm.0076.029c0 .0061-.0015.0128-.004.0185-.0023.0053-.0049.0083-.0063.0096-.0028.0027-.0031.0009.0027.0009v-1c-.5279 0-.9924.4142-.9924.971zm-.0076.029c.0051 0 .005.0016.0025-.0007-.0012-.0012-.0038-.0041-.0061-.0094-.0026-.0058-.0041-.0126-.0041-.0189h1c0-.5572-.4657-.971-.9923-.971z" fill="#18303f"/><g stroke="#03a9f1" stroke-linecap="round" stroke-linejoin="round"><path d="m8.24023 2.72429v.1262m0 12.33211v-.0416m0-7.55551v-2.35446m0 5.07687v2.4374"/><path d="m6.64386 6.15254-.01978-.02689"/><path d="m.5-.5h-.033383" transform="matrix(-.592483 .805583 .805583 .592483 10.5176 6.04599)"/><path d="m.5-.5h-.033383" transform="matrix(.592483 -.805583 -.805583 -.592483 5.94482 11.8247)"/><path d="m9.81855 11.7181.01977.0269"/><path d="m2.84473 12.0686.05532-.032m10.73465-6.19772-.0361.02086m-6.55679 3.78562-2.03479 1.17484m4.45862-2.57426 2.14206-1.23671"/><path d="m13.6348 12.0686-.0554-.032m-10.73463-6.19772.03611.02086m6.5568 3.78562 2.03482 1.17484m-4.45865-2.57426-2.14202-1.23671"/><path d="m6.88599 3.80763 1.35416 1.35417 1.35417-1.35417"/><path d="m3.10571 7.55326 1.85034-.49563-.49617-1.84979"/><path d="m4.45988 12.6996.49617-1.8503-1.85034-.4951"/><path d="m9.59432 14.0998-1.35471-1.3547-1.35362 1.3547"/><path d="m13.3741 10.3542-1.8514.4956.4973 1.8498"/><path d="m12.0199 5.20784-.4967 1.85087 1.8509.49455"/><path d="m5.03076 8.98361h.01404"/><path d="m11.4294 8.98361h.0141"/></g></svg>