<svg fill="none" height="26" viewBox="0 0 25 26" width="25" xmlns="http://www.w3.org/2000/svg"><g stroke="#92a0a9" stroke-linecap="round" stroke-linejoin="round"><path d="m22.0832 6.39868c0-1.77083-1.4584-3.125-3.2292-3.125-.7292 0-1.3542.20833-1.875.625-1.0417-1.35417-2.7083-2.1875-4.4792-2.1875-1.7708 0-3.43746.83333-4.47913 2.1875-.52083-.41667-1.14583-.625-1.875-.625-1.77083 0-3.125 1.35417-3.22917 3.125"/><path d="m2.91659 6.39868c-.83334 0-1.66667.41667-2.083338 1.14584-.416667.72916-.416667 1.66666 0 2.39583.416668.72915 1.249998 1.14585 2.083338 1.14585h2.8125"/><path d="m22.0833 6.39868c.8333 0 1.6666.41667 2.0833 1.14584.4167.72916.4167 1.66666 0 2.39583-.4167.72915-1.25 1.14585-2.0833 1.14585h-2.8125"/><path d="m8.854 10.5653v2.6042"/><path d="m12.5 10.5653v1.5625"/><path d="m16.1458 10.5653v2.6042"/></g><path d="m6.72902 21.3937v-3.612c0-.896.236-1.556.708-1.98.48-.424 1.104-.636 1.872-.636.78398 0 1.41198.2 1.88398.6.472.392.708.888.708 1.488 0 .216-.04.364-.12.444-.08.072-.208.108-.384.108-.32 0-.488-.116-.504-.348-.048-.92-.568-1.38-1.55998-1.38-1.064 0-1.596.568-1.596 1.704v3.612c0 1.136.544 1.704 1.632 1.704.312 0 .572-.044.77998-.132.208-.088.36-.216.456-.384.104-.168.172-.312.204-.432s.06-.28.084-.48c.024-.232.192-.348.504-.348.176 0 .304.04.384.12s.12.228.12.444c0 .608-.24 1.116-.72 1.524-.472.4-1.1.6-1.88398.6-.76 0-1.38-.212-1.86-.636-.472-.424-.708-1.084-.708-1.98zm6.37498 0v-3.612c0-.904.232-1.564.696-1.98.472-.424 1.1-.636 1.884-.636s1.412.212 1.884.636c.472.416.708 1.076.708 1.98v3.612c0 .904-.236 1.568-.708 1.992-.472.416-1.1.624-1.884.624s-1.412-.208-1.884-.624c-.464-.424-.696-1.088-.696-1.992zm1.008 0c0 1.136.524 1.704 1.572 1.704.504 0 .892-.14 1.164-.42.28-.288.42-.716.42-1.284v-3.612c0-.568-.14-.992-.42-1.272-.272-.288-.66-.432-1.164-.432-1.048 0-1.572.568-1.572 1.704z" fill="#92a0a9"/></svg>