<svg fill="none" height="26" viewBox="0 0 25 26" width="25" xmlns="http://www.w3.org/2000/svg"><g stroke="#92a0a9" stroke-linecap="round" stroke-linejoin="round"><path d="m22.1271 12.8961c0 5.2695-4.3575 9.627-9.627 9.627m-9.62705-9.627c0-5.26951 4.35749-9.627 9.62705-9.627"/><path d="m14.8848 13.7068c.2951-1.2474-.2262-2.5232-1.4531-3.044m-3.1427 1.0348c-.6398 1.0341-.36431 2.5154.6165 3.2413"/><path d="m9.52173 7.75166c-2.09975 1.23141-3.29142 3.68604-2.93656 6.10904m10.91913 2.7324c1.4659-2.0286 1.592-4.6408.2205-6.77087"/><path d="m12.0913 6.90526-.0035-.00092"/><path d="m11.8152 5.04249 1.7734-1.7734-1.7734-1.77339"/><path d="m13.5886 24.2965-1.7734-1.7734 1.7734-1.7734"/></g></svg>