<svg fill="none" height="30" viewBox="0 0 29 30" width="29" xmlns="http://www.w3.org/2000/svg"><g stroke="#92a0a9" stroke-linecap="round" stroke-linejoin="round"><path d="m14.5 11.8966v-4.50002c0-1.7 1.3-3 3-3h2.4853"/><path d="m16.25 10.1466-1.75 1.75-1.75-1.75"/><path d="m21.2189 8.17809c3.677 3.67691 3.677 9.75811 0 13.43501-3.6769 3.677-9.758 3.677-13.43498 0-3.67695-3.6769-3.67695-9.7581 0-13.43501"/><path d="m12.3062 13.6949c-.5657 1.1314-.3537 2.4747.7069 3.2526.99.7071 2.4043.5657 3.2528-.2828.766-.7661.898-2.0509.3441-2.9698"/><path d="m10.4005 10.5119c-1.76774 1.6264-2.40414 4.2427-1.55561 6.5054.84853 2.2628 2.96991 3.8185 5.44481 3.8892s4.6669-1.2728 5.6568-3.5356c.99-2.2627.5657-4.8083-1.202-6.576"/></g></svg>