<svg fill="none" height="26" viewBox="0 0 25 26" width="25" xmlns="http://www.w3.org/2000/svg"><g stroke="#92a0a9"><circle cx="12.5002" cy="10.5003" r="8.60417"/><path d="m13.0171 10.3939c-.1025.038-.1847.0136-.2389-.0313s-.0934-.1212-.0752-.2289c.147-.8661.5489-1.76678 1.211-2.56584.6622-.79905 1.4725-1.36118 2.2962-1.66649.1025-.03798.1848-.01358.2389.03132.0542.04489.0935.12118.0752.22892-.147.86606-.5488 1.76674-1.211 2.5658-.6622.79905-1.4725 1.36119-2.2962 1.66649z" fill="#92a0a9"/><circle cx="12.5" cy="10.5003" fill="#92a0a9" r=".9375"/><path d="m10.6042 19.1461h3.79167v2.83333h-3.79167z"/><rect height="1.875" rx=".9375" transform="matrix(1 0 0 -1 1.47925 23.3961)" width="21.0417" x=".5" y="-.5"/></g></svg>