<svg fill="none" height="26" viewBox="0 0 25 26" width="25" xmlns="http://www.w3.org/2000/svg"><path d="m7.4122 14.7261v-4.79998c0-.11334.05-.19667.15-.25.10667-.06.23333-.09.38-.09s.27.03.37.09c.10667.05333.16.13666.16.25v4.79998c0 .4334.10667.7567.32.97.21333.2134.51333.32.9.32.82 0 1.23-.43 1.23-1.29v-4.79998c0-.11334.05-.19667.15-.25.1067-.06.2333-.09.38-.09s.27.03.37.09c.1067.05333.16.13666.16.25v4.79998c0 .7667-.21 1.33-.63 1.69-.4133.36-.9667.54-1.66.54-.68667 0-1.24-.18-1.66-.54-.41333-.36-.62-.9233-.62-1.69zm5.3301-4.7c0-.11998.07-.22332.21-.30998.14-.08667.29-.13.45-.13.2 0 .3233.07333.37.22l1.65 5.69998 1.64-5.69998c.0466-.14667.1666-.22.36-.22.16 0 .31.04333.45.13.1466.08666.22.19.22.30998 0 .02-.0067.05-.02.09l-1.98 6.48c-.0334.1134-.1134.2034-.24.27-.1267.06-.27.09-.43.09-.3667 0-.59-.12-.67-.36l-2-6.48c-.0067-.02-.01-.05-.01-.09z" fill="#18303f"/><path d="m20.59 16.2391 2.5882-2.5882c.4313-.4314.4313-1.0784 0-1.5098l-2.5882-2.58821v-3.66662c0-.64705-.4314-1.07842-1.0785-1.07842h-3.6666l-2.5882-2.58821c-.4314-.43136-1.0784-.43136-1.5098 0l-2.58817 2.58821h-3.66663c-.64705 0-1.07842.43137-1.07842 1.07842v3.66662l-2.5882 2.58821c-.43137.4314-.43137 1.0784 0 1.5098l2.5882 2.5882v3.6666c0 .6471.43137 1.0784 1.07842 1.0784h3.66663l2.58817 2.5882c.4314.4314 1.0784.4314 1.5098 0l2.5882-2.5882h4.7451z" stroke="#18303f" stroke-linecap="round" stroke-linejoin="round"/></svg>