<svg fill="none" height="26" viewBox="0 0 26 26" width="26" xmlns="http://www.w3.org/2000/svg"><path d="m21.2363 17.0691h-.5c0 .1818.0987.3492.2577.4373zm-4 0 .2421.4375c.1591-.0881.2579-.2556.2579-.4375zm1.5-9.15952c0 .27614.2239.5.5.5.2762 0 .5-.22386.5-.5zm1-.01c0-.27614-.2238-.5-.5-.5-.2761 0-.5.22386-.5.5zm-1-1.99c0 .27614.2239.5.5.5.2762 0 .5-.22386.5-.5zm1-.01c0-.27614-.2238-.5-.5-.5-.2761 0-.5.22386-.5.5zm-1 4.01c0 .27612.2239.50002.5.50002.2762 0 .5-.2239.5-.50002zm1-.01c0-.27614-.2238-.5-.5-.5-.2761 0-.5.22386-.5.5zm-1 2.01002c0 .2761.2239.5.5.5.2762 0 .5-.2239.5-.5zm1-.01c0-.2762-.2238-.5-.5-.5-.2761 0-.5.2238-.5.5zm-1 2.01c0 .2761.2239.5.5.5.2762 0 .5-.2239.5-.5zm1-.01c0-.2762-.2238-.5-.5-.5-.2761 0-.5.2238-.5.5zm-1 2.01c0 .2761.2239.5.5.5.2762 0 .5-.2239.5-.5zm1-.01c0-.2762-.2238-.5-.5-.5-.2761 0-.5.2238-.5.5zm-1 2.01c0 .2761.2239.5.5.5.2762 0 .5-.2239.5-.5zm1-.01c0-.2762-.2238-.5-.5-.5-.2761 0-.5.2238-.5.5zm2-.8305v-12.95228h-1v12.95228zm0-12.95228c0-1.35317-1.1393-2.41304-2.5-2.41304v1c.8504 0 1.5.65326 1.5 1.41304zm-2.5-2.41304c-1.3606 0-2.5 1.05987-2.5 2.41304h1c0-.75978.6497-1.41304 1.5-1.41304zm-2.5 2.41304v12.95228h1v-12.95228zm.258 12.51478c-1.3405.7416-2.258 2.1334-2.258 3.7461h1c0-1.2176.6916-2.2899 1.7421-2.8711zm-2.258 3.7461c0 2.4097 2.035 4.3261 4.5 4.3261v-1c-1.9549 0-3.5-1.5099-3.5-3.3261zm4.5 4.3261c2.464 0 4.5-1.9163 4.5-4.3261h-1c0 1.8161-1.5459 3.3261-3.5 3.3261zm4.5-4.3261c0-1.6131-.9198-3.0045-2.2576-3.7459l-.4847.8746c1.0491.5815 1.7423 1.654 1.7423 2.8713zm-4-12.46812v-.01h-1v.01zm0-2v-.01h-1v.01zm0 4v-.01h-1v.01zm0 2.00002v-.01h-1v.01zm0 2v-.01h-1v.01zm0 2v-.01h-1v.01zm0 2v-.01h-1v.01zm-.5076 2.468c0-.0064.0015-.0132.004-.0189.0024-.0053.0049-.0082.0062-.0094.0024-.0023.0025-.0007-.0026-.0007v1c.5266 0 .9924-.4138.9924-.971zm.0076-.029c-.0057 0-.0054-.0018-.0026.0009.0013.0013.0039.0043.0063.0096.0025.0057.0039.0124.0039.0185h-1c0 .5567.4646.971.9924.971zm.0076.029c0 .0061-.0014.0128-.0039.0185-.0024.0053-.005.0083-.0063.0096-.0028.0027-.0031.0009.0026.0009v-1c-.5278 0-.9924.4142-.9924.971zm-.0076.029c.0051 0 .005.0016.0026-.0007-.0013-.0012-.0038-.0041-.0062-.0094-.0025-.0058-.004-.0126-.004-.0189h1c0-.5572-.4658-.971-.9924-.971z" fill="#18303f"/><g stroke="#f18303" stroke-linecap="round" stroke-linejoin="round"><path d="m8.21719 3.95524c-.31864 1.17518-.21734 2.44019.4097 3.54624.46742-.35335.93484-.82448 1.16854-1.53118 0-.11778.11686-.11778.11686-.23556h.23371c1.6359.82448 2.5708 2.47343 2.4539 4.24017 0 1.29559-.4674 2.47339-1.2854 3.41569-.9348.9423-2.10334 1.4134-3.38873 1.2956-1.28539 0-2.45393-.4711-3.38876-1.4134-.93483-.8245-1.40224-2.0023-1.40224-3.29789 0-3.01453 1.61595-5.77187 4.12228-7.3944"/><path d="m8.95755 1.77409-.05545.08319"/></g></svg>