<svg fill="none" height="26" viewBox="0 0 25 26" width="25" xmlns="http://www.w3.org/2000/svg" xmlns:xlink="http://www.w3.org/1999/xlink"><mask id="a" fill="#fff"><path clip-rule="evenodd" d="m12.4995 17.8958v-9.99919c2.759.00131 4.9951 2.23919 4.9951 4.99959s-2.2361 4.9983-4.9951 4.9996z" fill="#fff" fill-rule="evenodd"/></mask><g stroke="#92a0a9" stroke-linecap="round" stroke-linejoin="round"><path d="m12.5 3.46991v-2.07379"/><path d="m5.89882 6.29886-1.5082-1.50821"/><path d="m3.07377 12.8971h-2.07377"/><path d="m5.89882 19.6842-1.5082 1.5082"/><path d="m12.5 22.3219v2.0738"/><path d="m19.2852 19.6842 1.5082 1.5082"/><path d="m21.9258 12.8971h2.0737"/><path d="m19.2852 6.29886 1.5082-1.50821"/></g><path clip-rule="evenodd" d="m12.4995 17.8958v-9.99919c2.759.00131 4.9951 2.23919 4.9951 4.99959s-2.2361 4.9983-4.9951 4.9996z" fill="#92a0a9" fill-rule="evenodd"/><path d="m12.4995 17.8958h-1v1.0005l1.0005-.0005zm0-9.99919.0005-1-1.0005-.00048v1.00048zm1 9.99919v-9.99919h-2v9.99919zm-1.0005-8.99919c2.2065.00105 3.9956 1.79099 3.9956 3.99959h2c0-3.31213-2.6832-5.99801-5.9946-5.99959zm3.9956 3.99959c0 2.2086-1.7891 3.9985-3.9956 3.9996l.001 2c3.3114-.0016 5.9946-2.6875 5.9946-5.9996z" fill="#92a0a9" mask="url(#a)"/><path d="m12.4995 17.7212c2.6786 0 5-2.1438 5-5.0021 0-2.85836-2.1428-4.82347-5-4.82347-2.67856 0-4.99999 2.14377-4.99999 5.00207 0 2.8584 2.32143 4.8235 4.99999 4.8235z" stroke="#92a0a9" stroke-linecap="round" stroke-linejoin="round"/></svg>