<svg fill="none" height="26" viewBox="0 0 25 26" width="25" xmlns="http://www.w3.org/2000/svg"><g stroke="#92a0a9" stroke-linecap="round" stroke-linejoin="round"><path d="m12.5 24.3961c6.4 0 11.5-5.1 11.5-11.5 0-6.39998-5.1-11.49998-11.5-11.49998s-11.5 5.1-11.5 11.49998c0 6.4 5.1 11.5 11.5 11.5z"/><path d="m13.9 14.2959c-.8.8-2 .7-2.8 0-.8-.8-.8-2 0-2.8s8.1-5.29998 8.1-5.29998-4.5 7.29998-5.3 8.09998z"/><path d="m21.0984 20.4961c-2.5-1.7-5.6-2.7-8.6-2.6-3.09996-.1-6.09996.9-8.59996 2.6"/><path d="m3 13.3961h2"/><path d="m22 13.3961h-2"/><path d="m21.3 9.29651-1.8.79999"/><path d="m16.1008 4.09631-.8 1.8"/><path d="m12.5 3.39612v2"/><path d="m8.89844 4.09631.8 1.8"/><path d="m5.80078 6.19592 1.4 1.4"/><path d="m3.69922 9.29651 1.8.79999"/></g></svg>