<svg fill="none" height="26" viewBox="0 0 25 26" width="25" xmlns="http://www.w3.org/2000/svg"><g stroke="#92a0a9" stroke-linecap="round" stroke-linejoin="round"><path d="m.593994 23.8365c1.415866 0 2.574296-1.1584 2.574296-2.5743 0 1.4159 1.15844 2.5743 2.5743 2.5743 1.41587 0 2.5743-1.1584 2.5743-2.5743 0 1.4159 1.15844 2.5743 2.57431 2.5743 1.4159 0 2.5743-1.1584 2.5743-2.5743 0 1.4159 1.1584 2.5743 2.5743 2.5743s2.5743-1.1584 2.5743-2.5743c0 1.4159 1.1584 2.5743 2.5743 2.5743"/><path d="m3.81177 17.4007c1.41586 0 2.5743-1.1584 2.5743-2.5743 0 1.4159 1.15843 2.5743 2.5743 2.5743 1.41583 0 2.57433-1.1584 2.57433-2.5743 0 1.4159 1.1584 2.5743 2.5743 2.5743 1.4158 0 2.5743-1.1584 2.5743-2.5743 0 1.4159 1.1584 2.5743 2.5743 2.5743 1.4158 0 2.5743-1.1584 2.5743-2.5743 0 1.4159 1.1584 2.5743 2.5743 2.5743"/><path d="m.593994 10.965c1.415866 0 2.574296-1.15839 2.574296-2.57425 0 1.41586 1.15844 2.57425 2.5743 2.57425 1.41587 0 2.5743-1.15839 2.5743-2.57425 0 1.41586 1.15844 2.57425 2.57431 2.57425 1.4159 0 2.5743-1.15839 2.5743-2.57425 0 1.41586 1.1584 2.57425 2.5743 2.57425s2.5743-1.15839 2.5743-2.57425c0 1.41586 1.1584 2.57425 2.5743 2.57425"/><path d="m3.81177 4.52925c1.41586 0 2.5743-1.15843 2.5743-2.57429 0 1.41586 1.15843 2.57429 2.5743 2.57429 1.41583 0 2.57433-1.15843 2.57433-2.57429 0 1.41586 1.1584 2.57429 2.5743 2.57429 1.4158 0 2.5743-1.15843 2.5743-2.57429 0 1.41586 1.1584 2.57429 2.5743 2.57429 1.4158 0 2.5743-1.15843 2.5743-2.57429 0 1.41586 1.1584 2.57429 2.5743 2.57429"/></g></svg>