<svg fill="none" height="26" viewBox="0 0 25 26" width="25" xmlns="http://www.w3.org/2000/svg"><rect height="23" rx="8" stroke="#92a0a9" stroke-linecap="round" stroke-linejoin="round" width="23" x="1" y="1.39612"/><g clip-rule="evenodd" fill="#92a0a9" fill-rule="evenodd"><path d="m10.5 6.87097c.2761 0 .5.22386.5.5v10.92803c0 .2761-.2239.5-.5.5s-.5-.2239-.5-.5v-10.92803c0-.27614.2239-.5.5-.5z"/><path d="m8.5 7.86487c.27614 0 .5.22386.5.5v8.94003c0 .2761-.22386.5-.5.5s-.5-.2239-.5-.5v-8.94003c0-.27614.22386-.5.5-.5z"/><path d="m6.5 9.35681c.27614 0 .5.22386.5.5v5.95799c0 .2762-.22386.5-.5.5s-.5-.2238-.5-.5v-5.95799c0-.27614.22386-.5.5-.5z"/><path d="m12.5 5.38123c-.2761 0-.5.22385-.5.5v13.90997c0 .2762.2239.5.5.5s.5-.2238.5-.5v-13.90997c0-.27615-.2239-.5-.5-.5z"/><path d="m14.5 6.87097c-.2761 0-.5.22386-.5.5v10.92803c0 .2761.2239.5.5.5s.5-.2239.5-.5v-10.92803c0-.27614-.2239-.5-.5-.5z"/><path d="m16.5 7.86487c-.2761 0-.5.22386-.5.5v8.94003c0 .2761.2239.5.5.5s.5-.2239.5-.5v-8.94003c0-.27614-.2239-.5-.5-.5z"/><path d="m18.5 9.35681c-.2761 0-.5.22386-.5.5v5.95799c0 .2762.2239.5.5.5s.5-.2238.5-.5v-5.95799c0-.27614-.2239-.5-.5-.5z"/></g></svg>