<svg fill="none" height="26" viewBox="0 0 26 26" width="26" xmlns="http://www.w3.org/2000/svg"><g stroke="#92a0a9" stroke-linecap="round" stroke-linejoin="round"><path d="m8.00024 2.65845v-1.26233"/><path d="m3.98201 4.38046-.91805-.91806"/><path d="m2.26232 8.39685h-1.26232"/><path d="m3.98201 12.5282-.91805.9181"/><path d="m8.00024 14.1338v1.2623"/><path d="m12.1304 12.5282.918.9181"/><path d="m13.7378 8.39685h1.2623"/><path d="m12.1304 4.38046.918-.91806"/><path d="m8.00008 11.333c1.63047 0 3.04352-1.3049 3.04352-3.04482 0-1.73989-1.30435-2.93607-3.04352-2.93607-1.63047 0-3.04354 1.30492-3.04354 3.04482 0 1.73987 1.41307 2.93607 3.04354 2.93607z"/><path d="m14.4762 14.8457c.9042-.0454 1.5712.1464 1.7176 1.7176s.6743 1.5401 1.7176 1.7176c1.2552.1237 1.594.5405 1.7176 1.7176.007 1.2193.3191 1.6404 1.7176 1.7176"/><path d="m11.4762 17.8457c.9042-.0454 1.5712.1464 1.7176 1.7176s.6743 1.5401 1.7176 1.7176c1.2552.1237 1.594.5405 1.7176 1.7176.007 1.2193.3191 1.6404 1.7176 1.7176"/><path d="m17.4762 11.8457c.9042-.0454 1.5712.1464 1.7176 1.7176s.6743 1.5401 1.7176 1.7176c1.2552.1237 1.594.5405 1.7176 1.7176.007 1.2193.3191 1.6404 1.7176 1.7176"/></g></svg>