<svg fill="none" height="26" viewBox="0 0 25 26" width="25" xmlns="http://www.w3.org/2000/svg"><g stroke="#92a0a9" stroke-linecap="round" stroke-linejoin="round"><path d="m16.6801 16.0488h-6.483c-1.8987-.1726-3.27955-1.7261-3.27955-3.6248 0-1.0356.34521-1.8986 1.20824-2.58905.69043-.69043 1.72607-1.03564 2.76171-1.03564.863-1.72607 2.7617-2.93432 4.6604-2.93432 2.7617 0 5.1782 2.07128 5.3508 4.83301.863-.1726 1.7261 0 2.4165.5178s1.0356 1.3809 1.0356 2.2439c0 .5997 0 1.2355-.863 2.0713-.5972.5783-1.9455.5178-2.7053.5178h-.484" stroke-miterlimit="10"/><path d="m5.20358 11.8821h-1.27467c-1.89867-.1726-3.279524-1.7261-3.279524-3.62474 0-1.03564.345212-1.89867 1.208244-2.5891.69043-.69043 1.72607-1.03564 2.76171-1.03564.86303-1.72607 2.76171-2.93432 4.66038-2.93432 1.96038 0 3.74688 1.04371 4.68028 2.63719" stroke-miterlimit="10"/><path d="m18.5757 16.0208h-.0614"/><path d="m3.00537 23.387 3.82836-3.8283"/><path d="m7.43237 23.3789 3.81953-3.8195"/><path d="m12.0264 23.2029 3.6433-3.6433"/><path d="m16.5227 23.1205 3.5614-3.5614"/></g></svg>