<svg fill="none" height="25" viewBox="0 0 25 25" width="25" xmlns="http://www.w3.org/2000/svg"><path clip-rule="evenodd" d="m7.39665 3.72394c-2.26855 0-4.10758 1.83902-4.10758 4.10758 0 2.21768 1.75753 4.02498 3.95574 4.10478h.65585c.86049 0 1.55806-.6975 1.55806-1.558 0-.86052-.69757-1.55809-1.55806-1.55809-.38589 0-.73789.13965-1.01014.37177-.21014.17916-.52572.15405-.70488-.05608-.17916-.21014-.15405-.52572.05608-.70488.44639-.38059 1.02642-.61081 1.65894-.61081 1.41278 0 2.55804 1.14529 2.55804 2.55809s-1.14526 2.558-2.55804 2.558h-.45122c-.01735.0019-.03496.0028-.05279.0028-.05667 0-.11312-.0009-.16934-.0028h-5.36754c-.27614 0-.5-.2238-.5-.5 0-.2761.22386-.5.5-.5h2.49697c-1.25458-.9306-2.06767-2.42274-2.06767-4.10478 0-2.82084 2.28674-5.10758 5.10758-5.10758 1.97593 0 3.68885 1.12175 4.53835 2.76238.7046-.74388 1.7023-1.20864 2.8088-1.20864 2.1363 0 3.8682 1.73184 3.8682 3.86818 0 .19592-.0146.3886-.0428.57695.3332-.07516.6797-.1148 1.0352-.1148 2.5887 0 4.6873 2.09859 4.6873 4.68739 0 2.4583-1.8924 4.4746-4.3 4.6716-.2427 2.4198-2.2853 4.309-4.7691 4.309-1.6022 0-3.0208-.7861-3.8911-1.9936-1.2065 1.6984-3.49292 2.3391-5.44081 1.4158-.59918-.284-1.10513-.6873-1.50176-1.1685-.17565-.213-.14531-.5282.06776-.7038.21308-.1757.52821-.1453.70386.0678.30517.3702.69469.6811 1.15845.9009 1.6568.7853 3.63102.1041 4.4564-1.5203-.2232-.5534-.346-1.1581-.346-1.7915 0-2.6445 2.1414-4.7887 4.7848-4.7933h.0084c1.6692 0 3.0223 1.3531 3.0223 3.0223 0 1.6691-1.3531 3.0223-3.0223 3.0223-.2761 0-.5-.2239-.5-.5 0-.2762.2239-.5.5-.5 1.1169 0 2.0223-.9055 2.0223-2.0223 0-1.1145-.9015-2.0185-2.0151-2.0223h-.0072c-2.0949 0-3.7932 1.6983-3.7932 3.7933 0 2.0949 1.6983 3.7932 3.7932 3.7932 2.095 0 3.7933-1.6983 3.7933-3.7932 0-.2762.2238-.5.5-.5.0149 0 .0296.0006.0441.0019.0146-.0013.0294-.0019.0444-.0019 2.0365 0 3.6873-1.6509 3.6873-3.6874s-1.6508-3.68739-3.6873-3.68739c-.5603 0-1.0901.12462-1.5644.34719-.1887.0886-.4126.0507-.5617-.09491-.1492-.14564-.1923-.36855-.1083-.55932.1554-.35275.242-.74316.242-1.15511 0-1.58405-1.2841-2.86818-2.8682-2.86818-1.0639 0-1.9932.57902-2.4889 1.44152-.137.23842-.4406.32128-.6796.1861-.1189-.05834-.2145-.16348-.257-.29985-.5216-1.67023-2.08083-2.88151-3.92165-2.88151zm-.71272 14.34436c-.75412 0-1.36546-.6113-1.36546-1.3654 0-.2762-.22386-.5-.5-.5s-.5.2238-.5.5c0 1.3064 1.05905 2.3654 2.36546 2.3654s2.36546-1.059 2.36546-2.3654-1.05905-2.3655-2.36546-2.3655h-3.59656c-.27614 0-.5.2239-.5.5s.22386.5.5.5h3.59656c.75412 0 1.36546.6113 1.36546 1.3655 0 .7541-.61134 1.3654-1.36546 1.3654zm-5.975556-3.2309c0 .2761.223858.5.499996.5h.11049c.27614 0 .5-.2239.5-.5s-.22386-.5-.5-.5h-.11049c-.276138 0-.499996.2239-.499996.5z" fill="#92a0a9" fill-rule="evenodd"/></svg>