<svg fill="none" height="24" viewBox="0 0 24 24" width="24" xmlns="http://www.w3.org/2000/svg"><g stroke="#18303f" stroke-linecap="round" stroke-linejoin="round"><path d="m2.25.850586v3.100004"/><path d="m.75 2.35059h3"/><path d="m17.25 20.3506c1.7 0 3-1.3 3-3"/><path d="m20.25 17.3506c0 1.7 1.3 3 3 3"/><path d="m20.25 23.3506c0-1.7-1.3-3-3-3"/><path d="m23.25 20.3506c-1.7 0-3 1.3-3 3"/><path d="m14.4498 4.05039c3.6-2.7 6.5-4.000002 7.4-3.100002 1.4 1.400002-2.1 7.100002-7.8 12.700012-5.7 5.6-11.3 9.2-12.7 7.8-.899998-.9.4-3.9 3.1-7.4"/><path d="m7.0504 17.0505c-3.4-2.3-4.4-7-2.1-10.4s7-4.4 10.4-2.1c.9.6 1.6 1.3 2.1 2.1"/><path d="m18.75 10.8506c0 4.1-3.4 7.5-7.5 7.5"/></g></svg>