<svg fill="none" height="61" viewBox="0 0 60 61" width="60" xmlns="http://www.w3.org/2000/svg"><path d="m23.1602 53.1767h-1.0894c-.1676 0-.2793.1365-.2793.273v1.0645c0 .7369.6145 1.3374 1.3687 1.3374s1.3687-.6005 1.3687-1.3374c0-.737-.6145-1.3375-1.3687-1.3375z" fill="#f94409"/><path d="m22.7971 39.666c-.2235-.1911-.5866-.4094-.838-.5459l-5.1397-2.7022c-.2793-.1637-.6145-.2729-.9218-.3821-.8938-.2456-1.8435-.2456-2.7374 0-.3352.0819-.6424.2184-.9218.3821l-5.16757 2.7022c-.2514.1365-.58659.3548-.83799.5459-1.08938.9007-1.70391 2.2108-1.70391 3.6301v7.8336c0 2.6202 2.17877 4.7219 4.8324 4.7219h9.02237c.7542 0 1.3687-.6005 1.3687-1.3374v-1.0645c0-.1638-.1397-.273-.2793-.273h-10.11177c-1.14525 0-2.09497-.928-2.09497-2.047v-7.8336c0-.7642.419-1.4466 1.08939-1.8014l5.30725-2.7567c.5587-.2457 1.1453-.2457 1.7039 0l5.3073 2.7567c.6704.3548 1.0894 1.0372 1.0894 1.8014v6.8782c0 .737.6145 1.3375 1.3687 1.3375s1.3687-.6005 1.3687-1.3375v-6.8782c.0279-1.4193-.6145-2.7294-1.7039-3.6301z" fill="#f94409"/><path clip-rule="evenodd" d="m49.2987 13.596c-.847-4.9937-5.397-8.56569-10.4825-8.56569-3.6017 0-7.1532 2.15055-8.9728 5.28729-1.845.1204-3.6954.7933-5.0182 2.0928-1.7836 1.4467-2.5016 3.2864-2.5016 5.3943 0 3.9247 2.9293 7.1461 6.8537 7.5028.0301.0028.0603.0041.0905.0041h10.7516c.5523 0 1-.4477 1-1s-.4477-1-1-1h-10.7044c-2.8704-.2824-4.9914-2.6292-4.9914-5.5069 0-1.5935.5099-2.8399 1.7937-3.8669.0288-.0231.0563-.0477.0824-.0738 1.0094-1.0094 2.5899-1.5662 4.2505-1.5662.3788 0 .7251-.214.8945-.5528 1.3867-2.77349 4.4571-4.71469 7.4715-4.71469 4.4808 0 8.3336 3.35719 8.6074 7.73829.018.2881.1597.5544.3885.7303.2289.176.5226.2445.8057.1879 1.293-.2586 2.5479.0035 3.5418.7489.9359.702 1.4591 1.9229 1.4591 3.2281 0 .5482-.0059.956-.1464 1.3965-.1347.4228-.42.9463-1.0985 1.6034-.2822.2733-.8616.4802-1.7352.5788-.6951.0784-1.4099.0743-2.0459.0706-.1301-.0007-.257-.0015-.3796-.0015h-.8689c-.5523 0-1 .4477-1 1s.4477 1 1 1h.8689c.1021 0 .214.0008.3339.0015h.0007c.6333.0042 1.4899.0098 2.3152-.0833.9456-.1066 2.1125-.3646 2.9022-1.1294.8708-.8432 1.3602-1.6405 1.6127-2.4326.2413-.7567.2411-1.4434.2409-1.9674v-.0366c0-1.7932-.7162-3.6709-2.2591-4.8281-1.1911-.8933-2.613-1.3001-4.0609-1.2397zm-5.5861 14.7921c-.257-.0008-.5143.0968-.7103.2929l-4.375 4.375c-.3906.3905-.3906 1.0237 0 1.4142.3905.3906 1.0236.3906 1.4142 0l2.6741-2.6741v8.842c0 3.6977-2.8023 6.5-6.5 6.5h-6.2134c-.5522 0-1 .4477-1 1s.4478 1 1 1h6.2134c4.8023 0 8.5-3.6977 8.5-8.5v-8.8295l2.6617 2.6616c.3905.3906 1.0237.3906 1.4142 0 .3905-.3905.3905-1.0237 0-1.4142l-4.3053-4.3053c-.1834-.2215-.4605-.3626-.7706-.3626zm.0016-2.7909c.6628 0 1.2-.5372 1.2-1.2 0-.6627-.5372-1.2-1.2-1.2-.6627 0-1.2.5373-1.2 1.2 0 .6628.5373 1.2 1.2 1.2z" fill="#18303f" fill-rule="evenodd"/></svg>