<svg fill="none" height="26" viewBox="0 0 25 26" width="25" xmlns="http://www.w3.org/2000/svg"><path clip-rule="evenodd" d="m23.2874 2.24012c.1862.20393.1718.52019-.0321.70638l-1.4338 1.30911c-.2039.1862-.5202.17182-.7064-.0321-.1862-.20393-.1718-.52019.0321-.70638l1.4338-1.30911c.204-.1862.5202-.17182.7064.0321zm-9.016-.16286c-1.4241 0-2.6308 1.03396-2.6308 2.43941 0 .27614.2239.5.5.5.2762 0 .5-.22386.5-.5 0-.76669.6684-1.43941 1.6308-1.43941s1.6308.67272 1.6308 1.43941c0 1.17271 1.0362 2.05152 2.2046 2.05152 1.1683 0 2.2046-.87881 2.2046-2.05152 0-.27615-.2239-.5-.5-.5-.2762 0-.5.22385-.5.5 0 .53396-.4979 1.05152-1.2046 1.05152s-1.2046-.51756-1.2046-1.05152c0-1.40545-1.2068-2.43941-2.6308-2.43941zm-3.4335 4.12793c-.3686 0-.7175.11872-.97787.36703-.26254.25036-.39496.59461-.39496.96528v.58262c0 .03931-.01804.10523-.06827.17442-.02345.03231-.04887.05799-.07164.07585-.02086.01635-.03363.02162-.03521.02227-.0002.00008-.00022.00009-.00004.00003-.26317.08365-.40869.36481-.32504.62797.08365.26317.3648.4087.62797.32505.25756-.08187.46956-.26591.61316-.46367.1462-.20131.2591-.46831.2591-.76192v-.58262c0-.12872.0421-.20063.085-.24158.0451-.04299.1326-.09073.2878-.09073h2.6184c.1552 0 .2427.04774.2878.09073.0429.04095.0851.11286.0851.24158v.58262c0 .25897.0696.50679.2211.72345.1484.21233.3554.36636.5874.47695.0109.00524.0221.01007.0334.01449 1.7992.70189 3.1795 2.02169 3.9105 3.72359 1.3657 3.2985-.3979 7.171-3.9051 8.4933-3.5124 1.3241-7.58704-.4005-8.96277-3.7188-.99602-2.4024-.37902-5.0967 1.40666-6.9004.06362-.0642.12872-.1273.19528-.1893.20217-.1881.21357-.5045.02546-.7066-.18811-.20219-.50448-.21359-.70665-.0255-.07658.0713-.1515.1439-.22473.2179-2.0527 2.0734-2.77875 5.1914-1.61978 7.9869 1.59185 3.8396 6.24533 5.7772 10.23923 4.2715 3.998-1.5073 6.0748-5.956 4.475-9.8148h.0001l-.0024-.0056c-.8378-1.9529-2.4173-3.45853-4.4484-4.25638-.1072-.05334-.1586-.10444-.1836-.14022-.0231-.03304-.0407-.07653-.0407-.15048v-.58262c0-.37067-.1325-.71492-.395-.96528-.2604-.24831-.6093-.36703-.9779-.36703zm10.9064-.80015c-.2358-.14358-.5434-.06875-.687.16713s-.0688.54349.1671.68707l1.4338.87274c.2359.14358.5435.06876.6871-.16712.1435-.23588.0687-.54349-.1672-.68707zm-13.06852 4.17905c0 .27615-.22386.50001-.5.50001s-.5-.22386-.5-.50001c0-.27614.22386-.5.5-.5s.5.22386.5.5zm11.13672-6.0498c.2761 0 .5-.22386.5-.5s-.2239-.5-.5-.5-.5.22386-.5.5.2239.5.5.5z" fill="#f18303" fill-rule="evenodd"/></svg>