<svg fill="none" height="61" viewBox="0 0 60 61" width="60" xmlns="http://www.w3.org/2000/svg"><path d="m53.1688 20.212h-1.0894c-.1676 0-.2794.1364-.2794.2729v1.0645c0 .7369.6146 1.3374 1.3688 1.3374s1.3687-.6005 1.3687-1.3374c0-.737-.6145-1.3374-1.3687-1.3374z" fill="#f94409"/><path d="m52.8056 6.70121c-.2234-.19106-.5866-.40942-.838-.54589l-5.1396-2.70215c-.2793-.16377-.6145-.27294-.9218-.38212-.8939-.24565-1.8436-.24565-2.7374 0-.3352.08188-.6425.21835-.9218.38212l-5.1676 2.70215c-.2514.13647-.5866.35483-.838.54589-1.0894.90071-1.7039 2.21085-1.7039 3.63019v7.8335c0 2.6202 2.1787 4.7219 4.8324 4.7219h9.0223c.7542 0 1.3687-.6005 1.3687-1.3374v-1.0645c0-.1638-.1396-.2729-.2793-.2729h-10.1117c-1.1453 0-2.095-.9281-2.095-2.0471v-7.8335c0-.76428.419-1.44664 1.0894-1.80146l5.3073-2.75674c.5586-.24565 1.1452-.24565 1.7039 0l5.3072 2.75674c.6704.35482 1.0894 1.03718 1.0894 1.80146v6.8782c0 .7369.6145 1.3374 1.3687 1.3374s1.3687-.6005 1.3687-1.3374v-6.8782c.028-1.41934-.6145-2.72948-1.7039-3.63019z" fill="#f94409"/><path clip-rule="evenodd" d="m17.0478 31.0562c-.1833.2093-.4526.3415-.7527.3415h-.0014c-.2565.0005-.5131-.0972-.7088-.2929l-4.375-4.375c-.3905-.3905-.3905-1.0236 0-1.4142.3905-.3905 1.0237-.3905 1.4142 0l2.671 2.6711v-8.839c0-4.8022 3.6977-8.5 8.5-8.5h6.2134c.5523 0 1 .4478 1 1 0 .5523-.4477 1-1 1h-6.2134c-3.6977 0-6.5 2.8023-6.5 6.5v8.8327l2.6648-2.6648c.3905-.3905 1.0237-.3905 1.4142 0 .3905.3906.3905 1.0237 0 1.4142zm1.7218 4.3412c-.0555.5495.345 1.0399.8945 1.0953 4.4184.4457 7.5224 4.0959 7.7546 7.8114.0181.2881.1597.5544.3886.7303.2288.176.5225.2445.8056.1879 1.293-.2586 2.5479.0035 3.5418.7489.936.702 1.4592 1.9229 1.4592 3.2281 0 .5482-.006.956-.1465 1.3965-.1347.4227-.4199.9463-1.0985 1.6034-.2822.2733-.8616.4802-1.7351.5787-.6952.0785-1.41.0744-2.046.0707h-.002c-.1294-.0008-.2556-.0015-.3776-.0015h-8.8411-10.11401c-2.85797-.2813-4.93436-2.6172-4.93436-5.5069 0-1.5935.50992-2.8399 1.79366-3.8669.02881-.0231.05632-.0477.08241-.0738 1.00944-1.0094 2.5899-1.5662 4.2505-1.5662.3788 0 .7251-.214.8945-.5528.446-.8921 1.6333-2.3458 2.5113-3.0739.4251-.3525.484-.9829.1314-1.4081-.3525-.4251-.983-.4839-1.4081-.1314-.9086.7535-2.0472 2.0823-2.72422 3.1852-1.84886.1184-3.70427.7914-5.02985 2.0936-1.78357 1.4467-2.5016 3.2863-2.5016 5.3943 0 3.9124 2.86021 7.1449 6.79666 7.5028.0301.0027.06031.0041.09054.0041h10.16117 8.8411c.1023 0 .2144.0008.3346.0015h.0001c.6333.0042 1.4898.0098 2.3151-.0833.9456-.1067 2.1125-.3646 2.9023-1.1294.8707-.8432 1.3601-1.6405 1.6127-2.4326.2412-.7567.241-1.4434.2409-1.9674v-.0366c0-1.7932-.7163-3.6709-2.2592-4.8281-1.1922-.8941-2.6156-1.3009-4.065-1.2396-.7527-4.2662-4.4116-8.1231-9.4248-8.6288-.5495-.0554-1.0399.3451-1.0953.8946zm-2.4745 1.3003c.6627 0 1.2-.5372 1.2-1.2 0-.6627-.5373-1.2-1.2-1.2s-1.2.5373-1.2 1.2c0 .6628.5373 1.2 1.2 1.2z" fill="#18303f" fill-rule="evenodd"/></svg>