<svg fill="none" height="61" viewBox="0 0 61 61" width="61" xmlns="http://www.w3.org/2000/svg"><g fill="#92a0a9"><path d="m18.0781 31.8462v1.1067c0 6.3525 5.174 11.1222 11.7401 11.1222.6628 0 1.2-.5373 1.2-1.2 0-.6628-.5372-1.2-1.2-1.2-5.3793 0-9.3401-3.8297-9.3401-8.7222v-1.1127l.7044.7044c.4687.4686 1.2285.4686 1.6971 0s.4686-1.2284 0-1.6971l-2.7499-2.7499c-.2348-.2347-.5426-.3519-.8503-.3515-.3573 0-.6794.1562-.8992.404l-2.6975 2.6974c-.4686.4687-.4686 1.2285 0 1.6971s1.2284.4686 1.6971 0z"/><path d="m40.5125 29.7834-.7045-.7044c-.4686-.4687-1.2284-.4687-1.697 0-.4686.4686-.4686 1.2284 0 1.697l2.7499 2.7499c.2348.2348.5426.3519.8503.3515.3573 0 .6794-.1561.8992-.4039l2.6975-2.6975c.4686-.4686.4686-1.2284 0-1.697-.4687-.4687-1.2284-.4687-1.6971 0l-.6983.6983v-1.1066c0-6.3526-5.174-11.1222-11.7402-11.1222-.6627 0-1.2.5373-1.2 1.2s.5373 1.2 1.2 1.2c5.3794 0 9.3402 3.8296 9.3402 8.7222z"/><path d="m28.4988 18.7717c0 .6627-.5372 1.2-1.2 1.2-.6627 0-1.2-.5373-1.2-1.2 0-.6628.5373-1.2 1.2-1.2.6628 0 1.2.5372 1.2 1.2z"/><path d="m34.253 44.0751c.6628 0 1.2-.5373 1.2-1.2 0-.6628-.5372-1.2-1.2-1.2-.6627 0-1.2.5372-1.2 1.2 0 .6627.5373 1.2 1.2 1.2z"/><path clip-rule="evenodd" d="m47.7079 5.66366c4.1663.53294 7.443 3.82131 7.967 7.98874 1.591 12.6551 1.6609 21.9092.0419 34.5687-.5372 4.1999-3.8875 7.4795-8.0956 7.9496-12.3291 1.3772-21.8476 1.4224-34.309.02-4.22647-.4756-7.57209-3.7941-8.08194-8.0166-1.55317-12.8633-1.46937-22.118.02844-34.5269.50271-4.16487 3.75413-7.47253 7.9135-8.01641 12.5493-1.64094 21.8518-1.58966 34.5357.03287zm-.3045 2.3806c-12.4902-1.59776-21.5856-1.64658-33.92-.03373-3.0637.40061-5.4697 2.83977-5.842 5.92427-1.47575 12.2262-1.55755 21.2875-.02844 33.9516.37645 3.1178 2.84684 5.5682 5.96764 5.9194 12.2776 1.3817 21.6167 1.3378 33.7741-.0203 3.1141-.3478 5.5856-2.7734 5.9815-5.8688 1.5919-12.4477 1.5248-21.4986-.0426-33.9649-.3876-3.0828-2.8114-5.5137-5.8902-5.90754z" fill-rule="evenodd"/></g></svg>