<svg fill="none" height="26" viewBox="0 0 25 26" width="25" xmlns="http://www.w3.org/2000/svg"><path d="m16.0951 15.645h-.4539c-.0699 0-.1164.0568-.1164.1137v.4435c0 .3071.256.5573.5703.5573.3142 0 .5703-.2502.5703-.5573 0-.307-.2561-.5572-.5703-.5572z" fill="#f94409"/><path d="m15.9438 10.0155c-.0931-.07963-.2444-.17061-.3492-.22747l-2.1415-1.1259c-.1164-.06824-.2561-.11373-.3841-.15922-.3724-.10235-.7682-.10235-1.1406 0-.1397.03412-.2677.09098-.3841.15922l-2.15314 1.1259c-.10475.05686-.24442.14784-.34917.22747-.45391.3753-.70996.9212-.70996 1.5125v3.264c0 1.0918.90782 1.9675 2.01347 1.9675h3.7593c.3143 0 .5703-.2502.5703-.5573v-.4435c0-.0683-.0582-.1137-.1163-.1137h-4.2133c-.47716 0-.87287-.3867-.87287-.853v-3.264c0-.3184.17458-.6027.45391-.7506l2.21136-1.14859c.2328-.10236.4772-.10236.71 0l2.2113 1.14859c.2793.1479.4539.4322.4539.7506v2.866c0 .307.2561.5572.5703.5572.3143 0 .5703-.2502.5703-.5572v-2.866c.0117-.5913-.256-1.1372-.7099-1.5125z" fill="#f94409"/><path d="m6.19174 7.9735c.10913-.8671.78612-1.5556 1.65198-1.67419 3.40948-.46696 5.83778-.45234 9.28488.00736.8674.11566 1.5498.80045 1.6634 1.66809.4506 3.44054.4706 5.85454.0093 9.29684-.1171.8743-.8143 1.5573-1.6905 1.6597-3.3518.392-5.8488.4052-9.238.0045-.87995-.104-1.57636-.7951-1.6875-1.6742-.44259-3.5005-.41799-5.9154.00644-9.2881z" stroke="#18303f" stroke-linecap="round" stroke-linejoin="round"/><path clip-rule="evenodd" d="m23.5 12.5931c0 6.0752-4.9249 11-11 11-2.52753 0-4.85596-.8524-6.71346-2.2855l15.42786-15.42792c1.4331 1.8575 2.2856 4.18592 2.2856 6.71342zm-18.83812 7.7178 15.55592-15.55588c-1.9857-1.95535-4.7108-3.16188-7.7178-3.16188-6.07513 0-11 4.92487-11 10.99996 0 3.007 1.20653 5.7322 3.16188 7.7178zm20.33812-7.7178c0 6.9036-5.5964 12.5-12.5 12.5-6.90356 0-12.5-5.5964-12.5-12.5 0-6.90352 5.59644-12.4999604 12.5-12.4999604 6.9036 0 12.5 5.5964404 12.5 12.4999604z" fill="#f18303" fill-rule="evenodd"/></svg>