<svg fill="none" height="61" viewBox="0 0 60 61" width="60" xmlns="http://www.w3.org/2000/svg"><path d="m26.6155 40.8193h-.4608c-.0709 0-.1181.0577-.1181.1155v.4503c0 .3117.2599.5657.5789.5657.3191 0 .579-.254.579-.5657 0-.3118-.2599-.5658-.579-.5658z" fill="#f94409"/><path d="m26.4619 35.1042c-.0945-.0808-.2481-.1732-.3544-.2309l-2.1742-1.1431c-.1181-.0692-.2599-.1154-.3899-.1616-.3781-.1039-.7798-.1039-1.1579 0-.1418.0346-.2718.0924-.39.1616l-2.1859 1.1431c-.1063.0577-.2481.1501-.3545.2309-.4608.381-.7207.9352-.7207 1.5356v3.3136c0 1.1084.9216 1.9974 2.0441 1.9974h3.8165c.3191 0 .579-.254.579-.5657v-.4503c0-.0693-.0591-.1155-.1182-.1155h-4.2773c-.4844 0-.8862-.3925-.8862-.8659v-3.3136c0-.3233.1773-.612.4608-.7621l2.2451-1.1661c.2363-.1039.4844-.1039.7207 0l2.245 1.1661c.2836.1501.4608.4388.4608.7621v2.9095c0 .3117.26.5657.579.5657s.579-.254.579-.5657v-2.9095c.0118-.6004-.26-1.1546-.7208-1.5356z" fill="#f94409"/><path d="m13.4046 19.2905c.3557-3.0381 2.7299-5.4533 5.7646-5.837 7.7922-.9851 13.7166-.9543 21.5905.0227 3.0393.3772 5.4328 2.7791 5.8037 5.8193.9584 7.854 1.0003 13.7498.0291 21.6058-.3788 3.0641-2.8245 5.4587-5.8941 5.7903-7.653.827-13.6957.8537-21.4284.0139-3.0832-.3349-5.5255-2.7587-5.8851-5.8391-.9315-7.9777-.8821-13.8726.0197-21.5759z" stroke="#18303f" stroke-linecap="round" stroke-linejoin="round" stroke-width="1.5"/><path clip-rule="evenodd" d="m3 30.0268c0 14.9117 12.0883 27 27 27 6.2319 0 11.9706-2.1113 16.54-5.6576l-37.88236-37.8824c-3.54634 4.5694-5.65764 10.3081-5.65764 16.54zm7.6303-18.81 38.1797 38.1797c5.0514-4.9064 8.19-11.7715 8.19-19.3697 0-14.9117-12.0883-27.00001-27-27.00001-7.5982 0-14.4633 3.13858-19.3697 8.19001zm-10.6303 18.81c0 16.5685 13.4315 30 30 30s30-13.4315 30-30-13.4315-30.0000056-30-30.0000056-30 13.4315056-30 30.0000056z" fill="#f18303" fill-rule="evenodd"/></svg>