<svg fill="none" height="68" viewBox="0 0 68 68" width="68" xmlns="http://www.w3.org/2000/svg"><path clip-rule="evenodd" d="m31.7014 37.5137c-.3905-.3905-.3905-1.0236 0-1.4142l6.3667-6.3667c.3906-.3905 1.0237-.3905 1.4142 0 .3906.3906.3906 1.0237 0 1.4142l-6.3666 6.3667c-.3906.3906-1.0237.3906-1.4143 0z" fill="#03a9f1" fill-rule="evenodd"/><path clip-rule="evenodd" d="m33.1117 37.5147c-.3905.3905-1.0236.3905-1.4142 0l-3.182-3.182c-.3905-.3905-.3905-1.0236 0-1.4142.3906-.3905 1.0237-.3905 1.4143 0l3.1819 3.182c.3906.3905.3906 1.0237 0 1.4142z" fill="#03a9f1" fill-rule="evenodd"/><circle cx="33.9948" cy="33.423" r="31.1652" stroke="#dadada" stroke-width="2"/></svg>