<svg fill="none" height="52" viewBox="0 0 52 52" width="52" xmlns="http://www.w3.org/2000/svg"><path clip-rule="evenodd" d="m23.9248 7.43848c0 .5868-.4757 1.0625-1.0625 1.0625s-1.0625-.4757-1.0625-1.0625c0-.58681.4757-1.0625 1.0625-1.0625s1.0625.47569 1.0625 1.0625zm18.2495 19.02652-2.4927-2.4927c-.3905-.3905-1.0237-.3905-1.4142 0s-.3905 1.0237 0 1.4142l4.1884 4.1884c.0427.0441.0895.0843.1397.12.0326.0232.0668.0446.1022.0638.1257.0683.2678.1105.4189.1191.0191.001.0383.0016.0577.0016.0345 0 .0686-.0018.1023-.0052.0702-.0071.1382-.0215.2033-.0424.147-.047.2851-.1287.4017-.2453l4.2-4.2c.3905-.3905.3905-1.0237 0-1.4142s-1.0237-.3905-1.4142 0l-2.4931 2.4931v-3.7055c0-9.1959-7.4814-16.15443-17.0982-16.15443-.5523 0-1 .44771-1 1 0 .55228.4477 1 1 1 8.6278 0 15.0982 6.17523 15.0982 14.15443zm-33.55464-4.2386c-.1469.047-.28509.1288-.40166.2453l-4.20001 4.2c-.39052.3906-.39052 1.0237 0 1.4142.39053.3906 1.02369.3906 1.41421 0l2.49309-2.493v3.7055c0 9.1958 7.48141 16.1544 17.09821 16.1544.5523 0 1-.4478 1-1 0-.5523-.4477-1-1-1-8.6278 0-15.09821-6.1753-15.09821-14.1544v-3.7052l2.49271 2.4927c.3905.3906 1.0237.3906 1.4142 0 .3905-.3905.3905-1.0236 0-1.4142l-4.18838-4.1884c-.18117-.1871-.43478-.3037-.71562-.3045-.01137 0-.02275.0002-.03411.0005-.09545.0029-.18752.0192-.27443.0471zm20.60934 23.4558c.5868 0 1.0625-.4756 1.0625-1.0624s-.4757-1.0625-1.0625-1.0625-1.0625.4757-1.0625 1.0625.4757 1.0624 1.0625 1.0624z" fill="#92a0a9" fill-rule="evenodd"/></svg>