<svg fill="none" height="25" viewBox="0 0 25 25" width="25" xmlns="http://www.w3.org/2000/svg"><path d="m.499998 12.5c0 6.6274 5.372582 12 12.000002 12 6.6274 0 12-5.3726 12-12 0-6.62742-5.3726-12-12-12-6.62742 0-12.000002 5.37258-12.000002 12z" stroke="#2d3436"/><path clip-rule="evenodd" d="m21.3217 3.64405c-.6345-.632-1.3364-1.19626-2.0942-1.68104-1.9422-1.242625-4.2507-1.96297948-6.7275-1.96297948-2.4767 0-4.78524.72032348-6.72744 1.96289948-.00001.00001-.00003 0-.00003-.00001 0-.00002-.00002-.00002-.00003-.00002-3.47136 2.22094-5.7725 6.11027-5.7725 10.5371 0 .2368.00658965.4722.0195955.7058.0404059.7259.8569695 1.0637 1.3953745.5752 2.24242-2.0345 3.81479-4.99185 4.27746-8.3697.08429-.61534.66865-1.05293 1.27859-.93576 1.79206.34425 3.64248.52449 5.53498.52449 1.8885 0 3.7351-.17949 5.5237-.52235.6098-.11688 1.1938.32058 1.2781.93569.463 3.37727 2.0351 6.33413 4.2772 8.36833.5384.4885 1.3549.1507 1.3954-.5751.013-.2339.0196-.4694.0196-.7066 0-3.46047-1.4062-6.59255-3.6783-8.85595zm-16.16309 13.01165c-.04709.0594-.04444.1443.00576.201 1.84965 2.0907 4.47586 2.513 6.63463 1.2727.3985-.229.8981-.2258 1.2933.0087 2.1725 1.289 4.836.8788 6.705-1.2367.0512-.0579.0538-.1444.0058-.2048-1.7998-2.2654-4.4646-2.815-6.6884-1.6427-.3757.1981-.832.1952-1.2051-.0078-2.23627-1.2172-4.93469-.6785-6.75099 1.6096z" fill="#2d3436" fill-rule="evenodd"/></svg>