<svg fill="none" height="25" viewBox="0 0 25 25" width="25" xmlns="http://www.w3.org/2000/svg"><g stroke="#2d3436"><path d="m.499998 12.5c0 6.6274 5.372582 12 12.000002 12 6.6274 0 12-5.3726 12-12 0-6.62742-5.3726-12-12-12-6.62742 0-12.000002 5.37258-12.000002 12z"/><path d="m10.2441 14.3795c-.84235.218-1.46444.9831-1.46444 1.8935.1508 1.6308 1.84454 2.9164 3.91164 2.9164 2.0672 0 3.7609-1.2856 3.9117-2.9164 0-.9104-.6221-1.6755-1.4644-1.8935-.3157-.0817-.6421.0175-.9304.17l-.5813.3077c-.5853.3098-1.2859.3098-1.8711 0l-.5814-.3077c-.2882-.1525-.6146-.2517-.9303-.17z"/></g></svg>