<svg fill="none" height="15" viewBox="0 0 15 15" width="15" xmlns="http://www.w3.org/2000/svg"><g stroke="#2d3436"><path d="m.499999 7.5c0 3.866 3.134011 7 7.000001 7 3.866 0 7-3.134 7-7 0-3.86599-3.134-7-7-7-3.86599 0-7.000001 3.13401-7.000001 7z"/><path d="m6.02638 8.6658c-.44332.16762-.75856.59601-.75856 1.09803.09048.97847 1.1067 1.74987 2.347 1.74987s2.25652-.7714 2.347-1.74987c0-.50202-.31523-.93041-.75855-1.09803-.26044-.09847-.5436-.00738-.7897.12287-.49966.26446-1.09783.26446-1.5975 0-.24609-.13025-.52925-.22134-.78969-.12287z"/></g></svg>