<svg fill="none" height="15" viewBox="0 0 15 15" width="15" xmlns="http://www.w3.org/2000/svg"><path d="m.499999 7.5c0 3.866 3.134011 7 7.000001 7 3.866 0 7-3.134 7-7 0-3.86599-3.134-7-7-7-3.86599 0-7.000001 3.13401-7.000001 7z" stroke="#2d3436"/><path clip-rule="evenodd" d="m4.5 9.5057c0-1.0038.92157-1.5057 1.75-1.5057.52174 0 .98127.26739 1.25.6731.26873-.40571.72826-.6731 1.25-.6731.82843 0 1.75.5019 1.75 1.5057 0 .9096.5474 1.0338.9809 1.132.284.0644.5191.1177.5191.3737 0 .6466-2 1.0038-3 .5019-.72884-.3658-1.2269-.7303-1.5-1.153-.2731.4227-.77116.7872-1.5 1.153-1 .5019-3 .1447-3-.5019 0-.256.23508-.3093.51911-.3737.43344-.0982.98089-.2224.98089-1.132z" fill="#2d3436" fill-rule="evenodd"/></svg>