<svg fill="none" height="49" viewBox="0 0 49 49" width="49" xmlns="http://www.w3.org/2000/svg"><path d="m30.0215 46.6375c-2.8432 3.143-7.727 3.15-10.5793.0211l-12.42912-13.249c-.02421-.0258-.04796-.0521-.07122-.0788l-.03525-.0414-.02403-.0291c-4.40899-5.4155-6.88258-12.4641-6.88258-19.0779v-11.30005c0-1.59185 1.21878-2.88235 2.72222-2.88235h43.55558c1.5034 0 2.7222 1.2905 2.7222 2.88235v11.30005c0 7.1331-2.4919 13.6849-6.8826 19.0779l-.0342.0412-.0222.0259-.0395.0446z" fill="#18303f"/><g fill="#fff"><path d="m23.4749 29.7071c.3905.3905 1.0237.3905 1.4142 0l3.182-3.182c.3905-.3905.3905-1.0237 0-1.4142-.3906-.3905-1.0237-.3905-1.4142 0l-2.4749 2.4749-2.4749-2.4749c-.3905-.3905-1.0237-.3905-1.4142 0s-.3905 1.0237 0 1.4142z"/><path d="m24.8891 22.7071 3.182-3.182c.3905-.3905.3905-1.0237 0-1.4142-.3906-.3905-1.0237-.3905-1.4142 0l-2.4749 2.4749-2.4749-2.4749c-.3905-.3905-1.0237-.3905-1.4142 0s-.3905 1.0237 0 1.4142l3.182 3.182c.3905.3905 1.0237.3905 1.4142 0z"/><path d="m23.4749 15.7071c.3905.3905 1.0237.3905 1.4142 0l3.182-3.182c.3905-.3905.3905-1.0237 0-1.4142-.3906-.3905-1.0237-.3905-1.4142 0l-2.4749 2.4749-2.4749-2.4749c-.3905-.3905-1.0237-.3905-1.4142 0s-.3905 1.0237 0 1.4142z"/></g></svg>