<svg fill="none" height="49" viewBox="0 0 49 49" width="49" xmlns="http://www.w3.org/2000/svg"><g fill="#92a0a9"><path clip-rule="evenodd" d="m20.9106 3.69935-12.43984 13.26045c-.00476.005-.00989.0106-.01536.0168l-.01649.0194-.00948.0115c-4.11996 5.0629-6.42943 11.6647-6.42943 17.8101v11.3c0 .5966.42953.8824.72222.8824h43.55558c.2927 0 .7222-.2858.7222-.8824v-11.3c0-6.6446-2.3147-12.7528-6.4274-17.8077l-.0186-.0223-.0009-.0011-.0214-.0241-11.9934-13.25817c-2.051-2.26724-5.5608-2.2722-7.6181-.01544zm21.2068 12.04035c4.3907 5.393 6.8826 11.9448 6.8826 19.0779v11.3c0 1.5919-1.2188 2.8824-2.7222 2.8824h-43.55558c-1.50344 0-2.72222-1.2905-2.72222-2.8824v-11.3c0-6.6138 2.47359-13.6624 6.88258-19.0779l.02403-.0291.03525-.0414c.02326-.0267.04701-.053.07122-.0788l12.42912-13.24898c2.8523-3.128913 7.7361-3.121876 10.5793.02111l12 13.26547.0395.0446.0222.0259z" fill-rule="evenodd"/><path d="m23.4749 19.2929c.3905-.3905 1.0237-.3905 1.4142 0l3.182 3.182c.3905.3905.3905 1.0237 0 1.4142-.3906.3905-1.0237.3905-1.4142 0l-2.4749-2.4749-2.4749 2.4749c-.3905.3905-1.0237.3905-1.4142 0s-.3905-1.0237 0-1.4142z"/><path d="m24.8891 26.2929 3.182 3.182c.3905.3905.3905 1.0237 0 1.4142-.3906.3905-1.0237.3905-1.4142 0l-2.4749-2.4749-2.4749 2.4749c-.3905.3905-1.0237.3905-1.4142 0s-.3905-1.0237 0-1.4142l3.182-3.182c.3905-.3905 1.0237-.3905 1.4142 0z"/><path d="m23.4749 33.2929c.3905-.3905 1.0237-.3905 1.4142 0l3.182 3.182c.3905.3905.3905 1.0237 0 1.4142-.3906.3905-1.0237.3905-1.4142 0l-2.4749-2.4749-2.4749 2.4749c-.3905.3905-1.0237.3905-1.4142 0s-.3905-1.0237 0-1.4142z"/></g></svg>