<svg fill="none" height="26" viewBox="0 0 25 26" width="25" xmlns="http://www.w3.org/2000/svg"><g fill="#18303f"><path clip-rule="evenodd" d="m12.5 18.945c-.5278 0-.9924.4142-.9924.971s.4646.971.9924.971c.5266 0 .9924-.4138.9924-.971s-.4658-.971-.9924-.971zm.0076.971c0 .0061-.0014.0128-.0039.0185-.0013.0028-.0026.0049-.0037.0065-.0011-.0015-.0024-.0035-.0036-.0061-.0025-.0057-.004-.0125-.004-.0189s.0015-.0132.004-.0189c.0012-.0027.0024-.0047.0035-.0062.0011.0016.0025.0038.0038.0066.0025.0057.0039.0124.0039.0185z" fill-rule="evenodd"/><path d="m13 5.46777c0 .27615-.2239.5-.5.5s-.5-.22385-.5-.5c0-.27614.2239-.5.5-.5s.5.22386.5.5z"/><path d="m13 7.46777c0 .27615-.2239.5-.5.5s-.5-.22385-.5-.5c0-.27614.2239-.5.5-.5s.5.22386.5.5z"/><path d="m12.5 9.96777c.2761 0 .5-.22385.5-.5 0-.27614-.2239-.5-.5-.5s-.5.22386-.5.5c0 .27615.2239.5.5.5z"/><path d="m13 11.4678c0 .2761-.2239.5-.5.5s-.5-.2239-.5-.5c0-.2762.2239-.5.5-.5s.5.2238.5.5z"/><path d="m12.5 13.9678c.2761 0 .5-.2239.5-.5 0-.2762-.2239-.5-.5-.5s-.5.2238-.5.5c0 .2761.2239.5.5.5z"/><path d="m13 15.4678c0 .2761-.2239.5-.5.5s-.5-.2239-.5-.5c0-.2762.2239-.5.5-.5s.5.2238.5.5z"/><path d="m12.5 17.9678c.2761 0 .5-.2239.5-.5 0-.2762-.2239-.5-.5-.5s-.5.2238-.5.5c0 .2761.2239.5.5.5z"/><path clip-rule="evenodd" d="m12.5 1.24219c-1.3606 0-2.5 1.05987-2.5 2.41304v12.66877c-1.19885.771-2 2.0851-2 3.5921 0 2.4097 2.035 4.3261 4.5 4.3261 2.464 0 4.5-1.9163 4.5-4.3261 0-1.5073-.8031-2.8211-2-3.5918v-12.66907c0-1.35317-1.1394-2.41304-2.5-2.41304zm-1.5 2.41304c0-.75978.6496-1.41304 1.5-1.41304s1.5.65326 1.5 1.41304v12.95227c0 .1818.0986.3492.2576.4373 1.0492.5815 1.7424 1.654 1.7424 2.8713 0 1.8161-1.546 3.3261-3.5 3.3261-1.955 0-3.5-1.5099-3.5-3.3261 0-1.2176.69154-2.2899 1.7421-2.8711.1591-.0881.2579-.2556.2579-.4375z" fill-rule="evenodd"/><path d="m16.6016 3.15527c-.2762 0-.5.22386-.5.5 0 .27615.2238.5.5.5h1c.2761 0 .5-.22385.5-.5 0-.27614-.2239-.5-.5-.5z"/><path d="m16.6016 7.93799c-.2762 0-.5.22386-.5.5s.2238.5.5.5h3c.2761 0 .5-.22386.5-.5s-.2239-.5-.5-.5z"/><path d="m16.6016 12.7197c-.2762 0-.5.2239-.5.5 0 .2762.2238.5.5.5h1c.2761 0 .5-.2238.5-.5 0-.2761-.2239-.5-.5-.5z"/></g></svg>