<svg fill="none" height="34" viewBox="0 0 34 34" width="34" xmlns="http://www.w3.org/2000/svg"><path clip-rule="evenodd" d="m6.82452 4.32457c-1.38071 0-2.5 1.11928-2.5 2.5v20.35103c0 1.3807 1.11929 2.5 2.5 2.5h20.35098c1.3807 0 2.5-1.1193 2.5-2.5v-20.35103c0-1.38071-1.1193-2.5-2.5-2.5zm-1.5 2.5c0-.82843.67158-1.5 1.5-1.5h20.35098c.8284 0 1.5.67157 1.5 1.5v20.35103c0 .8284-.6716 1.5-1.5 1.5h-20.35098c-.82842 0-1.5-.6716-1.5-1.5zm5.73398 1.73383c-1.38075 0-2.50004 1.11929-2.50004 2.5v5.9416 5.9415c0 1.3808 1.11929 2.5 2.50004 2.5h3.0776 5.7278 3.0777c1.3807 0 2.5-1.1192 2.5-2.5v-5.9415-5.9416c0-1.38071-1.1193-2.5-2.5-2.5h-3.0777-5.7278zm-1.50004 2.5c0-.8284.67154-1.5 1.50004-1.5h2.5776v6.9416h-4.07764zm5.07764 5.9416v-7.4416h4.7278v7.4416 7.4415h-4.7278zm5.7278-.5v-6.9416h2.5777c.8284 0 1.5.6716 1.5 1.5v5.4416zm0 1h4.0777v5.4415c0 .8285-.6716 1.5-1.5 1.5h-2.5777zm-6.7278 0v6.9415h-2.5776c-.8285 0-1.50004-.6715-1.50004-1.5v-5.4415zm-1.2076-4.3544c0 .4585-.3717.8302-.8302.8302s-.8301-.3717-.8301-.8302c0-.4584.3716-.8301.8301-.8301s.8302.3717.8302.8301zm9.9198.7983c.4585 0 .8301-.3717.8301-.8302 0-.4584-.3716-.8301-.8301-.8301s-.8302.3717-.8302.8301c0 .4585.3717.8302.8302.8302zm-9.9198 6.9744c0 .4584-.3717.8301-.8302.8301s-.8301-.3717-.8301-.8301c0-.4585.3716-.8302.8301-.8302s.8302.3717.8302.8302zm9.9198.7982c.4585 0 .8301-.3716.8301-.8301s-.3716-.8302-.8301-.8302-.8302.3717-.8302.8302.3717.8301.8302.8301z" fill="#92a0a9" fill-rule="evenodd"/></svg>