<svg fill="none" height="25" viewBox="0 0 25 25" width="25" xmlns="http://www.w3.org/2000/svg"><path clip-rule="evenodd" d="m5.54744 3.04748c-1.38071 0-2.5 1.11928-2.5 2.5v13.90512c0 1.3807 1.11929 2.5 2.5 2.5h13.90516c1.3807 0 2.5-1.1193 2.5-2.5v-13.90512c0-1.38071-1.1193-2.5-2.5-2.5zm-1.5 2.5c0-.82843.67158-1.5 1.5-1.5h13.90516c.8284 0 1.5.67157 1.5 1.5v13.90512c0 .8284-.6716 1.5-1.5 1.5h-13.90516c-.82842 0-1.5-.6716-1.5-1.5zm4.61319.61311c-1.38071 0-2.5 1.11929-2.5 2.5v3.83941 3.8394c0 1.3807 1.11929 2.5 2.5 2.5h1.73357 4.2116 1.7336c1.3807 0 2.5-1.1193 2.5-2.5v-3.8394-3.83941c0-1.38071-1.1193-2.5-2.5-2.5h-1.7336-4.2116zm-1.5 2.5c0-.82843.67157-1.5 1.5-1.5h1.23357v4.83941h-2.73357zm3.73357 3.83941v-5.33941h3.2116v5.33941 5.3394h-3.2116zm4.2116-.5v-4.83941h1.2336c.8284 0 1.5.67157 1.5 1.5v3.33941zm0 1h2.7336v3.3394c0 .8284-.6716 1.5-1.5 1.5h-1.2336zm-5.2116 0v4.8394h-1.23357c-.82843 0-1.5-.6716-1.5-1.5v-3.3394zm-.75562-3.33409c0 .33709-.27329.61039-.6104.61039-.33712 0-.61041-.2733-.61041-.61039 0-.33712.27329-.61041.61041-.61041.33711 0 .6104.27329.6104.61041zm7.29402.58699c.3371 0 .6104-.27332.6104-.61044s-.2733-.6104-.6104-.6104c-.3372 0-.6104.27328-.6104.6104s.2732.61044.6104.61044zm-7.29402 5.1282c0 .3371-.27329.6104-.6104.6104-.33712 0-.61041-.2733-.61041-.6104s.27329-.6104.61041-.6104c.33711 0 .6104.2733.6104.6104zm7.29402.5869c.3371 0 .6104-.2733.6104-.6104s-.2733-.6104-.6104-.6104c-.3372 0-.6104.2733-.6104.6104s.2732.6104.6104.6104z" fill="#18303f" fill-rule="evenodd"/></svg>