<svg fill="none" height="26" viewBox="0 0 25 26" width="25" xmlns="http://www.w3.org/2000/svg"><g fill="#18303f"><path clip-rule="evenodd" d="m9.50005 6.37109c-1.07615 0-2 .92386-2 2 0 1.07615.92385 2.00001 2 2.00001h.99995v2.5163c0 .2762.2239.5.5.5.2762 0 .5-.2238.5-.5v-2.5163h2v3.3336l-.0001.0101c0 .6908-.4674 1.2738-1.1041 1.4474-.2664.0726-.4234.3475-.3508.6139.0727.2664.3475.4235.6139.3508.9732-.2653 1.7105-1.1036 1.8254-2.1309.0103-.0399.0157-.0818.0157-.1249v-3.5h1c1.0762 0 2-.92386 2-2.00001 0-1.07614-.9238-2-2-2-1.0761 0-2 .92386-2 2v1h-2v-1c0-1.07614-.9238-2-1.99995-2zm.99995 2v1h-.99995c-.52386 0-1-.47614-1-1 0-.52385.47614-1 1-1 .52385 0 .99995.47615.99995 1zm5 1h-1v-1c0-.52385.4762-1 1-1 .5239 0 1 .47615 1 1 0 .52386-.4761 1-1 1z" fill-rule="evenodd"/><path d="m11.5 14.6328c0 .2762-.2238.5-.5.5-.2761 0-.5-.2238-.5-.5 0-.2761.2239-.5.5-.5.2762 0 .5.2239.5.5z"/><path clip-rule="evenodd" d="m4.50768 9.42975c.00646-4.52856 3.56298-8.21491 7.99242-8.21491 4.4293 0 7.9859 3.68636 7.9923 8.21491.1566 3.27065-2.1111 6.00485-4.1473 7.56625-.0552.0695-.1165.182-.1815.349-.0659.1692-.1216.3555-.1821.558l-.0188.063c-.0634.2115-.1375.4546-.2328.6549-.0498.1048-.1296.2522-.2565.3756.0174.0739.0266.1509.0266.2301v2c0 1.6722-1.3277 3-3 3-1.6722 0-2.99995-1.3278-2.99995-3v-2c0-.0792.0092-.1563.0266-.2301-.12689-.1234-.20665-.2708-.25648-.3756-.09522-.2003-.16935-.4434-.23273-.6549l-.01885-.0631c-.06049-.2024-.11618-.3887-.18208-.5579-.06502-.167-.12626-.2794-.1815-.3489-2.03808-1.5616-4.30386-4.2958-4.14733-7.56635zm10.28102 8.83225-.0089.0042c-.0887-.0258-.1826-.0396-.2798-.0396h-4c-.0971 0-.191.0138-.2797.0396l-.0089-.0042c-.0088-.0137-.0218-.0361-.0381-.0705-.0568-.1194-.1105-.2877-.17795-.5126l-.01944-.0651c-.05842-.1958-.12597-.4222-.20755-.6317-.08939-.2295-.2135-.4883-.40259-.6923-.01971-.0213-.04124-.0408-.06434-.0584-1.95323-1.4835-3.93386-3.9593-3.79438-6.76445.00041-.00827.00062-.01655.00062-.02483 0-4.01125 3.14011-7.22728 6.99243-7.22728 3.8522 0 6.9923 3.21603 6.9923 7.22728 0 .00828.0002.01656.0007.02483.1394 2.80505-1.8427 5.28085-3.7946 6.76455-.023.0176-.0445.037-.0642.0583-.1891.204-.3132.4628-.4026.6923-.0815.2096-.1491.4359-.2075.6317l-.0194.0651c-.0675.2249-.1212.3932-.178.5126-.0163.0344-.0293.0568-.0381.0705zm-.2887 2.9646v-2h-4v2c0 1.12.88 2 2 2s2-.88 2-2z" fill-rule="evenodd"/><path d="m12.5 25.7148c.2762 0 .5-.2238.5-.5 0-.2761-.2238-.5-.5-.5-.2761 0-.5.2239-.5.5 0 .2762.2239.5.5.5z"/></g></svg>