<svg fill="none" height="35" viewBox="0 0 35 35" width="35" xmlns="http://www.w3.org/2000/svg"><path clip-rule="evenodd" d="m27.2096 7.45288v10.99912h-3.5895c-2.5882 0-4.58 1.9919-4.58 4.58 0 2.5882 1.9918 4.58 4.58 4.58.0104 0 .0208-.0003.0312-.001 2.4275-.1517 4.3961-2.1202 4.5478-4.5478l.0007-.0149.0003-.0163v-4.0549c.0063-.0316.0095-.0643.0095-.0978v-14.96001c0-.51186-.1734-1.08806-.7289-1.47821-.2474-.22453-.5662-.30843-.8377-.32932-.2933-.02256-.5981.02205-.8595.10919-.0109.00365-.0217.00767-.0324.01206l-12.3549 5.09211c-.823.22773-1.1561 1.03634-1.1561 1.6989v3.79678c-.0002.0076-.0002.0152 0 .0228v11.0484h-3.58002c-2.58814 0-4.58 1.9919-4.58 4.58 0 2.5882 1.99186 4.58 4.58 4.58.0104 0 .0208-.0003.03119-.0009 2.42753-.1518 4.39613-2.1203 4.54783-4.5479.0007-.0104.001-.0208.001-.0312v-4.078-.002-11.2243zm-1.0949-4.28812-12.3681 5.09754c-.0225.00927-.0456.01689-.0693.02279-.2368.05921-.4372.32376-.4372.73893v3.06328l13.9695-5.71486v-2.45315c0-.29273-.0907-.51821-.3213-.67197-.0274-.01827-.0529-.03919-.0762-.06248-.0198-.01982-.0896-.06401-.2458-.07602-.1437-.01105-.3084.0104-.4516.05594zm-6.0746 19.86724c0-2.0358 1.5441-3.58 3.58-3.58h3.58v3.5639c-.1272 1.9124-1.6834 3.4687-3.5956 3.5961-2.0282-.0079-3.5644-1.5493-3.5644-3.58zm-14.96002 5.44c0-2.0358 1.54414-3.58 3.58-3.58h3.58002v3.5639c-.1272 1.9124-1.6834 3.4687-3.59565 3.5961-2.02813-.0079-3.56437-1.5493-3.56437-3.58z" fill="#92a0a9" fill-rule="evenodd"/></svg>