<svg fill="none" height="26" viewBox="0 0 26 26" width="26" xmlns="http://www.w3.org/2000/svg"><path clip-rule="evenodd" d="m20.265 5.84016v7.75814h-2.5071c-1.9761 0-3.5 1.5238-3.5 3.5 0 1.9761 1.5239 3.5 3.5 3.5.0104 0 .0208-.0004.0312-.001 1.8516-.1157 3.3521-1.6163 3.4679-3.4678l.0007-.0158.0002-.0154v-2.9695c.0047-.0273.0071-.0554.0071-.084v-11.00001c0-.40433-.1378-.8724-.5856-1.19052-.2106-.18777-.4747-.25406-.6886-.27051-.2348-.01806-.4765.01755-.6839.08669-.011.00364-.0218.00767-.0325.01206l-9.0772 3.74119c-.67784.19179-.93927.85568-.93927 1.37456v2.78876c-.00017.0076-.00017.01522 0 .02286v7.98842h-2.5c-1.97614 0-3.5 1.5238-3.5 3.5 0 1.9761 1.52386 3.5 3.5 3.5.01041 0 .02081-.0004.03119-.001 1.85158-.1157 3.35208-1.6163 3.46788-3.4678.0006-.0104.0009-.0208.0009-.0312v-11.16436zm-.6276-3.22562-9.0889 3.746c-.0225.00928-.0457.0169-.0693.0228-.0565.01414-.1043.04769-.1454.11448-.0448.07269-.0759.17914-.0759.30044v2.05524l10.0071-4.09378v-1.71493c0-.18473-.0547-.30221-.1774-.38398-.0254-.01694-.0492-.03617-.0711-.05744-.0056-.00282-.0347-.01735-.1024-.02255-.0856-.00659-.1874.00603-.2767.03372zm-4.3795 14.48376c0-1.4239 1.0762-2.5 2.5-2.5h2.5v2.4837c-.091 1.3364-1.1793 2.4248-2.5156 2.5162-1.4161-.0078-2.4844-1.0813-2.4844-2.4999zm-10.99997 4c0-1.4239 1.07615-2.5 2.5-2.5h2.5v2.4837c-.09106 1.3364-1.17929 2.4248-2.51564 2.5162-1.41609-.0078-2.48436-1.0813-2.48436-2.4999z" fill="#18303f" fill-rule="evenodd"/></svg>