<svg fill="none" height="25" viewBox="0 0 24 25" width="24" xmlns="http://www.w3.org/2000/svg"><g fill="#18303f"><path clip-rule="evenodd" d="m18.9659 1.05375c-1.2764.54527-2.8449 1.50264-4.5604 2.76946-3.4674-1.52188-7.68594-.31719-9.86924 2.9103-1.567 2.31642-1.70016 5.18829-.65572 7.60119-1.27835 1.6842-2.24299 3.2632-2.79122 4.559-.285408.6746-.469348 1.2988-.512882 1.8357-.042868.5287.045302 1.0632.419811 1.4377.558091.5581 1.424581.5228 2.262391.2871.87683-.2466 1.93245-.7683 3.09304-1.4913 2.32837-1.4504 5.18222-3.7766 8.04852-6.5927 2.8703-2.8199 5.1989-5.67633 6.6382-8.01998.7175-1.16839 1.2295-2.23403 1.4677-3.11925.2276-.84589.2527-1.71551-.3027-2.270969-.373-.372962-.8995-.463043-1.4244-.419755-.5302.043731-1.1456.228339-1.8131.513504zm-4.6149 3.84994c-.0818-.01646-.1597-.05331-.2254-.10935-3.0426-1.40661-6.81669-.37481-8.76106 2.49948-2.13905 3.16208-1.21457 7.55408 1.96601 9.70568.22873.1547.28872.4656.13399.6943s-.46557.2887-.6943.134c-.99068-.6702-1.79077-1.5321-2.37993-2.5052-1.10237 1.4955-1.9147 2.8609-2.38002 3.9608-.2646.6254-.40566 1.1387-.43712 1.5268-.03214.3963.05469.5743.13019.6498.1419.1419.50041.2522 1.28448.0316.74504-.2096 1.70818-.6754 2.83509-1.3774 2.24662-1.3996 5.04277-3.6734 7.87647-6.4573 2.8297-2.7801 5.1011-5.57366 6.4868-7.83001.695-1.13161 1.1518-2.10348 1.3542-2.85576.213-.7916.1004-1.15948-.0442-1.30402-.077-.07704-.2505-.16196-.635-.13025-.3791.03127-.8825.17166-1.5025.4365-1.0857.46378-2.4442 1.27208-3.9689 2.3697.0804.05016.1602.10198.2393.15547.9498.63343 1.7028 1.38215 2.2453 2.25013.1464.23417.0752.54265-.159.689-.2342.14636-.5426.07517-.689-.159-.4573-.73161-1.1038-1.38259-1.9534-1.94897l-.0028-.00189c-.2335-.15797-.4737-.29923-.7192-.42411z" fill-rule="evenodd"/><path d="m2.25.713752c.27614 0 .5.223858.5.499998v1h1c.27614 0 .5.22386.5.5s-.22386.5-.5.5h-1v1.1c0 .27614-.22386.5-.5.5s-.5-.22386-.5-.5v-1.1h-1c-.276142 0-.5-.22386-.5-.5s.223858-.5.5-.5h1v-1c0-.27614.22386-.499998.5-.499998z"/><path clip-rule="evenodd" d="m20.75 17.7138c0-.2762-.2239-.5-.5-.5s-.5.2238-.5.5c0 1.4238-1.0761 2.5-2.5 2.5-.2761 0-.5.2238-.5.5 0 .2761.2239.5.5.5 1.4239 0 2.5 1.0761 2.5 2.5 0 .2761.2239.5.5.5s.5-.2239.5-.5c0-1.4239 1.0761-2.5 2.5-2.5.2761 0 .5-.2239.5-.5 0-.2762-.2239-.5-.5-.5-1.4239 0-2.5-1.0762-2.5-2.5zm.6604 3c-.4765.2864-.8739.6839-1.1604 1.1604-.2865-.4765-.6839-.874-1.1604-1.1604.4765-.2865.8739-.684 1.1604-1.1605.2865.4765.6839.874 1.1604 1.1605z" fill-rule="evenodd"/><path d="m19.25 11.2138c0-.2762-.2239-.5-.5-.5s-.5.2238-.5.5c0 3.8238-3.1761 7-7 7-.2761 0-.5.2238-.5.5 0 .2761.2239.5.5.5 4.3761 0 8-3.6239 8-8z"/></g></svg>