<svg fill="none" height="25" viewBox="0 0 25 25" width="25" xmlns="http://www.w3.org/2000/svg"><path clip-rule="evenodd" d="m16.7969 8.03232h3.0503c.1177.3331.3717.59523.6652.7748.4055.24804.9349.37691 1.5009.37691s1.0955-.12887 1.501-.37691c.4051-.24788.735-.65306.735-1.18509v-5.31003c0-.53203-.3299-.93721-.735-1.18509-.4055-.24804-.935-.37691-1.501-.37691s-1.0954.12887-1.5009.37691c-.2874.17581-.5369.43075-.6577.75395h-3.0578c-4.3857 0-7.98593 3.44272-8.29944 7.6751-.00091.01229-.00137.02461-.00137.03694v.7613c-.32259.1201-.5795.3656-.7586.6522-.25381.4062-.38593.9372-.38593 1.505s.13212 1.0988.38593 1.5049c.15436.2471.36653.4635.62873.5955v.3535c0 .9039-.67346 1.7388-1.62516 2.0022h-1.59157c-.1184-.33-.3695-.5909-.661-.7707-.40574-.2503-.93579-.3804-1.5025-.3804s-1.09676.1301-1.5025.3804c-.4059.2504-.73349.6579-.73349 1.1905v5.3543c0 .5326.32759.9401.73349 1.1905.40574.2503.93579.3804 1.5025.3804s1.09676-.1301 1.5025-.3804c.3039-.1875.56389-.463.67538-.8132h1.64176c.01189 0 .02377-.0004.03563-.0012 4.38174-.313 7.67644-3.915 7.67644-8.1524v-.2275c.4573-.0564.8129-.3554 1.0417-.7215.2538-.4061.3859-.9371.3859-1.5049s-.1321-1.0988-.3859-1.505c-.1802-.2884-.4392-.5351-.7647-.6544v-.72566c.1268-.87289 1.043-1.59402 2.0022-1.59402zm4.2374-6.05237c-.2148.13141-.257.25723-.257.33205v.04332c.0005.00846.0007.01697.0007.02554v5.15146c0 .00856-.0002.01708-.0007.02553v.06418c0 .07483.0422.20065.257.33206.2145.13124.553.22994.979.22994s.7646-.0987.9791-.22994c.2148-.13141.2569-.25723.2569-.33206v-5.31003c0-.07482-.0421-.20064-.2569-.33205-.2145-.13125-.5531-.22995-.9791-.22995s-.7645.0987-.979.22995zm-1.257 5.05237v-4.15146h-2.9804c-3.8504 0-7.01663 3.02353-7.30081 6.73085v.64189h4.29861v-.6607c0-.02073.0013-.04145.0039-.06202.1837-1.46928 1.6129-2.49856 2.9983-2.49856zm-10.41108 7.73628v.1967c0 1.4333-1.06591 2.6439-2.43932 2.9872-.03966.01-.08038.015-.12127.015h-1.57516v4.1514h1.55705c3.85178-.284 6.73018-3.4486 6.73018-7.1536v-.1967zm-1.01466-2.2572c0-.4242.10034-.7612.23397-.975.13312-.2131.26433-.261.35085-.261h5.42412c.0865 0 .2177.0479.3508.261.1337.2138.234.5508.234.975s-.1003.7612-.234.975c-.1331.213-.2643.261-.3508.261h-5.42412c-.08652 0-.21773-.048-.35085-.261-.13363-.2138-.23397-.5508-.23397-.975zm-6.60156 4.8759c0-.0794.04441-.2073.2585-.3394.21426-.1322.55221-.2315.97749-.2315.42529 0 .76323.0993.97749.2315.21409.1321.2585.26.2585.3394v5.3543c0 .0794-.04441.2073-.2585.3394-.21426.1322-.5522.2315-.97749.2315-.42528 0-.76323-.0993-.97749-.2315-.21409-.1321-.2585-.26-.2585-.3394z" fill="#18303f" fill-rule="evenodd"/></svg>