<svg fill="none" height="26" viewBox="0 0 25 26" width="25" xmlns="http://www.w3.org/2000/svg"><g stroke="#f18303" stroke-linecap="round" stroke-linejoin="round"><path d="m19.7132 5.94238h-1.8413-3.2396-4.2646-3.23961-1.8413c-.33004 0-.59929.26674-.59929.5937v.74858 2.93414l2.64036 10.8243c.2345.9636.84248 1.566 1.49388 1.566h7.36516c.6514 0 1.2507-.6024 1.4939-1.566l2.6317-10.8243v-2.94274-.74858c0-.31836-.2692-.5851-.5993-.5851z"/><path d="m19.7212 5.94238h-1.8433-3.2433-4.2692-3.24329-1.84335c-.29563 0-.54778.2245-.59126.52084.04348.29633.29563.52083.59126.52083h1.84335 3.24329 4.2692 3.2433 1.8433c.2957 0 .5478-.2245.5913-.52083-.0435-.29634-.2956-.52084-.5913-.52084z" fill="#f18303"/><path d="m9.89583 5.94238v-.91043c0-1.22211 1.16967-2.21457 2.60417-2.21457s2.6042.99246 2.6042 2.21457v.91043"/><path d="m9.35417 9.56738v5.25002"/><path d="m12.4792 11.6508v5.25"/><path d="m12.4792 9.56738v.0466"/><path d="m9.35417 16.854v.0466"/><path d="m12.4792 19.0762v.0466"/><path d="m15.6042 9.56738v5.25002"/></g></svg>