<svg fill="none" height="26" viewBox="0 0 25 26" width="25" xmlns="http://www.w3.org/2000/svg"><path d="m5.06691 17.1368 13.21869-13.2186c.781-.78105 2.0473-.78105 2.8284 0l.9975.99751c.781.78105.781 2.04738 0 2.82843l-13.21865 13.21866" stroke="#18303f" stroke-linecap="round" stroke-linejoin="round"/><path d="m4.97244 17.2309.35355-.3535c-.12381-.1238-.30336-.1739-.47335-.1319-.16999.0419-.30566.1697-.35765.3369zm-1.72678 5.5527-.47745-.1484c-.05516.1773-.00745.3706.12389.502.13134.1313.32467.179.50203.1239zm5.55272-1.7267.14847.4774c.1672-.052.29501-.1877.33696-.3576.04195-.17-.00807-.3496-.13188-.4734zm9.22082-12.33973c.1953-.19526.1953-.51184 0-.7071-.1952-.19526-.5118-.19526-.7071 0zm-12.0314 9.52913-.35356.3535c.10011.1001.23796.1531.37934.1458zm1.89905 1.899-.5.0016c.0004.132.05305.2586.14644.352zm10.76365-13.47359c-.1953.19526-.1953.51184 0 .70711.1952.19526.5118.19526.7071 0zm.7208.69343c.1952-.19526.1952-.51184 0-.7071-.1953-.19527-.5119-.19527-.7072 0zm-11.137 11.13696 9.7849-9.78493-.7071-.7071-9.78491 9.78493zm-.37933-.8529-1.89295.0977.05156.9987 1.89295-.0977zm-1.51362.2435-1.01536-1.0153-.70711.7071 1.01536 1.0153zm2.81058 2.8106-.91153-.9115-.70711.7071.91153.9115zm-.76509-.5595-.00609-1.9968-1 .0031.0061 1.9968zm-3.89185-3.0614-1.36981 4.4049.95489.2969 1.36981-4.4048zm-1.36981 4.4049-.35697 1.1479.95489.2969.35697-1.1479zm.26895 1.7738 1.14788-.357-.29696-.9549-1.14787.357zm1.14788-.357 4.40484-1.3698-.29695-.9549-4.40485 1.3698zm-1.29294-.9148.79091.7909.7071-.7071-.7909-.7909zm16.10853-14.61048.0137-.01368-.7072-.7071-.0136.01367z" fill="#18303f"/></svg>