<svg fill="none" height="26" viewBox="0 0 26 26" width="26" xmlns="http://www.w3.org/2000/svg"><g fill="#18303f"><path clip-rule="evenodd" d="m12.7579 19.3225c-.5278 0-.9924.4142-.9924.9709 0 .5568.4646.971.9924.971.5266 0 .9924-.4137.9924-.971 0-.5572-.4658-.9709-.9924-.9709zm.0076.9709c0 .0061-.0014.0128-.0039.0185-.0012.0028-.0025.0049-.0037.0065-.0011-.0015-.0024-.0034-.0035-.0061-.0026-.0057-.0041-.0125-.0041-.0189 0-.0063.0015-.0131.0041-.0189.0011-.0026.0024-.0047.0034-.0062.0012.0016.0026.0039.0038.0066.0025.0058.0039.0124.0039.0185z" fill-rule="evenodd"/><path d="m13.2579 5.84521c0 .27615-.2238.5-.5.5-.2761 0-.5-.22385-.5-.5 0-.27614.2239-.5.5-.5.2762 0 .5.22386.5.5z"/><path d="m13.2579 7.84521c0 .27615-.2238.5-.5.5-.2761 0-.5-.22385-.5-.5 0-.27614.2239-.5.5-.5.2762 0 .5.22386.5.5z"/><path d="m12.7579 10.3452c.2762 0 .5-.2238.5-.49999 0-.27614-.2238-.5-.5-.5-.2761 0-.5.22386-.5.5 0 .27619.2239.49999.5.49999z"/><path d="m13.2579 11.8452c0 .2762-.2238.5-.5.5-.2761 0-.5-.2238-.5-.5 0-.2761.2239-.5.5-.5.2762 0 .5.2239.5.5z"/><path d="m12.7579 14.3452c.2762 0 .5-.2238.5-.5 0-.2761-.2238-.5-.5-.5-.2761 0-.5.2239-.5.5 0 .2762.2239.5.5.5z"/><path d="m13.2579 15.8452c0 .2762-.2238.5-.5.5-.2761 0-.5-.2238-.5-.5 0-.2761.2239-.5.5-.5.2762 0 .5.2239.5.5z"/><path d="m12.7579 18.3452c.2762 0 .5-.2238.5-.5 0-.2761-.2238-.5-.5-.5-.2761 0-.5.2239-.5.5 0 .2762.2239.5.5.5z"/><path clip-rule="evenodd" d="m12.7579 1.61963c-1.3606 0-2.5 1.05987-2.5 2.41304v12.66883c-1.19881.7709-1.99997 2.085-1.99997 3.592 0 2.4098 2.03497 4.3261 4.49997 4.3261 2.464 0 4.5-1.9162 4.5-4.3261 0-1.5073-.8031-2.821-2-3.5918v-12.66903c0-1.35317-1.1393-2.41304-2.5-2.41304zm-1.5 2.41304c0-.75978.6497-1.41304 1.5-1.41304.8504 0 1.5.65326 1.5 1.41304v12.95223c0 .1818.0987.3493.2577.4374 1.0491.5814 1.7423 1.654 1.7423 2.8712 0 1.8161-1.5459 3.3261-3.5 3.3261-1.9549 0-3.49997-1.5099-3.49997-3.3261 0-1.2176.69155-2.2898 1.74207-2.8711.1592-.088.2579-.2556.2579-.4375z" fill-rule="evenodd"/><path d="m16.8595 3.53271c-.2761 0-.5.22386-.5.5 0 .27615.2239.5.5.5h1c.2761 0 .5-.22385.5-.5 0-.27614-.2239-.5-.5-.5z"/><path d="m16.8595 8.31543c-.2761 0-.5.22386-.5.5s.2239.5.5.5h3c.2761 0 .5-.22386.5-.5s-.2239-.5-.5-.5z"/><path d="m16.8595 13.0972c-.2761 0-.5.2238-.5.5 0 .2761.2239.5.5.5h1c.2761 0 .5-.2239.5-.5 0-.2762-.2239-.5-.5-.5z"/></g></svg>