<svg fill="none" height="31" viewBox="0 0 58 31" width="58" xmlns="http://www.w3.org/2000/svg"><circle cx="29.0002" cy="24.5108" r="5.06844" stroke="#18303f"/><path clip-rule="evenodd" d="m29.3683 26.907c-.1646.1646-.4186.1852-.6056.0617-.0267-.0176-.052-.0382-.0755-.0617l-.0002-.0002-1.631-1.631c-.1881-.1881-.1881-.493 0-.6811s.493-.1881.6811 0l.7861.786v-2.6262c0-.279.2262-.5052.5052-.5052s.5052.2262.5052.5052v2.6249l.7848-.7847c.1881-.1881.493-.1881.6811 0s.1881.493 0 .6811z" fill="#18303f" fill-rule="evenodd"/><rect height="15.6827" rx="4.5" stroke="#18303f" width="15.6827" x="21.1588" y=".760742"/><circle cx="9.00154" cy="24.5108" r="5.06844" stroke="#18303f"/><path clip-rule="evenodd" d="m9.36967 26.907c-.16459.1646-.41864.1852-.6056.0617-.0267-.0176-.05204-.0382-.07555-.0617l-.00021-.0002-1.63098-1.631c-.18809-.1881-.18809-.493 0-.6811s.49305-.1881.68115 0l.78604.786v-2.6262c0-.279.2262-.5052.50522-.5052.27903 0 .50523.2262.50523.5052v2.6249l.78473-.7847c.1881-.1881.4931-.1881.6812 0 .188.1881.188.493 0 .6811z" fill="#18303f" fill-rule="evenodd"/><rect height="15.6827" rx="4.5" stroke="#18303f" width="15.6827" x="1.16016" y=".760742"/><circle cx="49.0015" cy="24.5108" r="5.06844" stroke="#18303f"/><path clip-rule="evenodd" d="m49.3697 26.907c-.1646.1646-.4187.1852-.6056.0617-.0267-.0176-.0521-.0382-.0756-.0617l-.0002-.0002-1.631-1.631c-.1881-.1881-.1881-.493 0-.6811s.4931-.1881.6812 0l.786.786v-2.6262c0-.279.2262-.5052.5052-.5052.2791 0 .5053.2262.5053.5052v2.6249l.7847-.7847c.1881-.1881.4931-.1881.6812 0 .188.1881.188.493 0 .6811z" fill="#18303f" fill-rule="evenodd"/><rect height="15.6827" rx="4.5" stroke="#18303f" width="15.6827" x="41.1602" y=".760742"/></svg>