<svg fill="none" height="50" viewBox="0 0 50 50" width="50" xmlns="http://www.w3.org/2000/svg"><path d="m24.9999 49.3056c13.4236 0 24.3055-10.882 24.3055-24.3056s-10.8819-24.305557-24.3055-24.305557-24.305564 10.881957-24.305564 24.305557 10.881964 24.3056 24.305564 24.3056z" fill="#f18303"/><path d="m11.1113 31.9445c0 6.1728 2.3149 11.8056 6.0957 16.088 2.4692.8487 5.0926 1.2731 7.7932 1.2731 13.4259 0 24.3056-10.8796 24.3056-24.3055 0-6.1729-2.3148-11.8056-6.0956-16.08799-2.4692-.84876-5.0927-1.27316-7.7933-1.27316-13.4259 0-24.3056 10.87965-24.3056 24.30555z" fill="#f99430"/><path clip-rule="evenodd" d="m25 1.38889c-13.0401 0-23.61111 10.57101-23.61111 23.61111s10.57101 23.6111 23.61111 23.6111 23.6111-10.571 23.6111-23.6111-10.571-23.61111-23.6111-23.61111zm-25 23.61111c0-13.8071 11.1929-25 25-25s25 11.1929 25 25-11.1929 25-25 25-25-11.1929-25-25z" fill="#18303f" fill-rule="evenodd"/><path d="m35.455 24.6529-1.4274.8487c-.3086.1929-.6173.3473-.9645.5016-.4244.2315-.8874.3858-1.3118.5787 0-.1158 0-.2315 0-.3473 0-.5015-.0386-1.003-.0771-1.466-.6559-5.8642-4.6297-10.7253-10.108-12.5l-1.6975-.5401.7329 1.8518c.463 1.2732.733 2.6621.733 4.0895 0 1.8905-.4629 3.7423-1.273 5.517-.7331-.8873-1.2732-1.7747-1.6976-2.7778l-.6173-1.466-1.0031 1.2731c-.0771.1158-.1929.1929-.27.3087-1.659 2.0061-2.5464 4.5139-2.5464 7.1373v.5787c.2315 6.0957 5.2469 10.7639 11.2655 10.6482 5.9413-.2315 10.6868-5.1698 10.6868-11.2269 0-.4629-.0387-.9259-.0773-1.3889z" fill="#e24747"/><path d="m35.8407 28.0092c-.1543-1.0802-.4245-2.0833-.8103-3.0864l-.9645.5787c-.3086.1929-.6172.3472-.9645.5015-.4243.2315-.8873.3858-1.3117.5787 0-.1157 0-.2315 0-.3472 0-.5015-.0385-1.0031-.0771-1.466-.3086-2.7007-1.3118-5.1698-2.855-7.2531-.9259-.5787-1.9675-1.0417-3.0478-1.3889l-1.6975-.5401.733 1.8518c.463 1.2732.733 2.662.733 4.0895 0 1.8904-.4629 3.7423-1.2731 5.517-.733-.8873-1.2732-1.7747-1.6976-2.7778l-.6172-1.466-1.0031 1.2731c-.0772.1158-.1929.1929-.2701.3087-1.6589 2.0061-2.5463 4.5138-2.5463 7.1373v.5787c.0772 2.0833.6944 3.9738 1.7361 5.5941 1.5818.8102 3.3951 1.2346 5.2855 1.2346 5.787-.27 10.4553-4.9768 10.6482-10.9182z" fill="#e85d5d"/><path d="m26.0029 25.6173-.4245 1.1574-.3471 1.2345c-.3087 1.1575-.2315 2.4306.4244 3.5108.4629-.3472.9259-.8102 1.1574-1.5046 0-.1157.1156-.1157.1156-.2315h.2316c1.6203.8102 2.5463 2.4692 2.4305 4.2053 0 1.2731-.4629 2.4691-1.2731 3.395-.926.926-2.0833 1.3889-3.3565 1.2732-1.2731 0-2.4305-.463-3.3565-1.3889-.9259-.8102-1.3889-2.0062-1.3889-3.2793 0-3.0479 1.659-5.8642 4.2438-7.446z" fill="#ef8035"/><path d="m29.591 33.9892c.0771-.8874-.1544-1.7747-.6174-2.5077-.27.5401-.6558.9259-1.0416 1.1959-.5016-.8487-.6558-1.8132-.5401-2.7777-.0772-.0386-.1544-.1158-.2701-.1544-.1158 0-.1157 0-.2315 0 0 .1158-.1157.1158-.1157.2315-.2315.6945-.6945 1.1574-1.1574 1.5047-.463-.7716-.6173-1.659-.5787-2.5078-1.6204 1.6204-2.5849 3.7809-2.5849 6.1343 0 1.2731.4629 2.4691 1.3888 3.2793.0772.0772.1158.1158.1929.1543.2701.0386.5788.0772.8874.0772 1.2732.1157 2.4305-.3472 3.3565-1.2732.8102-.9259 1.3118-2.0833 1.3118-3.3564z" fill="#ef8c48"/><g fill="#18303f"><path clip-rule="evenodd" d="m20.9043 12.0588c.1158-.3656.5061-.5681.8717-.4522 5.7463 1.821 9.903 6.916 10.5885 13.0853.0008.0078.0016.0156.0022.0234l.001.014c.0206.2675.0419.5447.0571.8207.1042-.0501.2065-.1023.3058-.1565.004-.0022.0079-.0043.0119-.0063.0034-.0018.0067-.0035.0101-.0052.1458-.0729.3024-.1557.4679-.2434l.004-.0021c.1612-.0853.3311-.1753.4926-.256.3431-.1715.7602-.0325.9317.3105.1715.3431.0325.7602-.3105.9317-.1458.0729-.3024.1558-.4679.2434l-.0039.0021c-.1576.0834-.3235.1712-.4818.2506-.4621.251-.9556.4555-1.396.6157-.2129.0774-.4502.0461-.6357-.0839-.1855-.1299-.296-.3422-.296-.5688v-.3472c0-.4279-.0355-.8978-.0742-1.4009-.6302-5.631-4.4194-10.253-9.6263-11.9031-.3656-.1159-.5681-.5062-.4522-.8718zm-.5785.9074c.3604-.131.7589.0549.89.4153.4884 1.3432.7749 2.8123.7749 4.3269 0 2.0056-.4915 3.9556-1.3359 5.8054-.1007.2206-.3092.3727-.5501.4012-.2408.0285-.4791-.0707-.6285-.2616-.723-.9239-1.3344-1.8991-1.7863-2.9261-.1544-.3511.0049-.7609.356-.9154.351-.1544.7608.0049.9153.356.2439.5543.544 1.099.8938 1.634.4832-1.3412.7468-2.7108.7468-4.0935 0-1.3403-.2538-2.6491-.6913-3.8522-.1311-.3605.0549-.7589.4153-.89zm-3.274 6.6721c.3191.2127.4053.6439.1926.963-.0779.1169-.1694.208-.2138.2522-.0029.0029-.0055.0055-.008.008-.0375.0375-.049.0504-.0507.0522-.0125.0185-.0259.0364-.0402.0536-1.5538 1.8791-2.387 4.2295-2.387 6.6948v.5653c.2235 5.7063 4.9154 10.0721 10.5508 9.9673 5.5606-.2203 10.0124-4.8461 10.0124-10.5326 0-.4293-.0358-.8634-.0748-1.3312-.0318-.3822.2522-.7179.6344-.7497.3822-.0319.7179.2521.7497.6343l.0011.0125c.0379.4546.0785.9419.0785 1.4341 0 6.4253-5.0353 11.6746-11.3541 11.9208l-.0137.0003c-6.3944.123-11.7268-4.8397-11.9727-11.3161-.0004-.0087-.0005-.0175-.0005-.0263v-.5787c0-2.772.935-5.4283 2.6874-7.5578.0718-.0999.1495-.1773.1894-.217l.0079-.0079c.0376-.0376.049-.0504.0508-.0522.2136-.3161.6426-.4008.9605-.1889z" fill-rule="evenodd"/><path clip-rule="evenodd" d="m25.0521 26.1421c.2002.3271.0973.7546-.2299.9548-2.3888 1.4618-3.9118 4.0593-3.9118 6.8536 0 1.1084.4013 2.1001 1.1517 2.7567.0116.0102.0229.0207.0338.0316.7933.7933 1.7731 1.1855 2.8654 1.1855.021 0 .042.0009.0629.0028 1.0409.0947 1.9945-.2727 2.7861-1.0563.6914-.7984 1.0862-1.8254 1.0862-2.9203 0-.0154.0005-.0308.0015-.0462.0861-1.2913-.513-2.534-1.6033-3.2769-.3175.6423-.7917 1.0866-1.2223 1.4095-.1567.1176-.3559.1635-.5483.1263-.1925-.0371-.3602-.1539-.4619-.3214-.7731-1.2733-.8489-2.7486-.5018-4.0502.0988-.3705.4793-.5908.8499-.492s.5909.4793.4921.8499c-.1896.711-.2075 1.4503-.0152 2.1347.0998-.1416.1837-.2969.2472-.4701.0042-.0209.0091-.0419.015-.0629.0214-.0765.0521-.1433.0863-.2003.0188-.0314.038-.0587.0557-.0816.1068-.2462.352-.4185.6375-.4185h.2315c.1078 0 .2141.0251.3105.0733 1.8639.932 2.939 2.8431 2.8144 4.8494-.0055 1.4349-.5302 2.784-1.4449 3.8294-.0101.0116-.0207.0228-.0316.0337-1.0496 1.0496-2.3932 1.6021-3.8788 1.4765-1.4344-.0076-2.7517-.5358-3.8-1.5761-1.0894-.9632-1.6085-2.3562-1.6085-3.7865 0-3.3013 1.7949-6.3366 4.5758-8.0383.3271-.2002.7546-.0973.9548.2299z" fill-rule="evenodd"/><path d="m26.003 26.3503c.3196 0 .5787-.2591.5787-.5787s-.2591-.5787-.5787-.5787-.5787.2591-.5787.5787.2591.5787.5787.5787z"/><path d="m35.5323 25.0387c.3196 0 .5787-.2591.5787-.5787s-.2591-.5787-.5787-.5787-.5787.2591-.5787.5787.2591.5787.5787.5787z"/><path d="m17.8238 19.6374c.3196 0 .5787-.2591.5787-.5787s-.2591-.5787-.5787-.5787-.5787.2591-.5787.5787.2591.5787.5787.5787z"/><path d="m19.7916 12.2686c.3196 0 .5787-.2591.5787-.5787s-.2591-.5787-.5787-.5787-.5787.2591-.5787.5787.2591.5787.5787.5787z"/></g></svg>