<svg fill="none" height="15" viewBox="0 0 15 15" width="15" xmlns="http://www.w3.org/2000/svg"><g stroke="#2d3436"><circle cx="7.5" cy="7.5" r="6.5"/><path d="m11.0421 6.12852c.0562-.57077-.6239-.71782-1.0295-.31227l-.04144.04148c-.12946.12947-.30505.2022-.48815.2022-.38126 0-.69034-.30908-.69034-.69035 0-.18309.07273-.35868.2022-.48815l.04148-.04148c.40554-.40554.25837-1.08798-.31205-1.0284-.47737.04986-.93785.26062-1.29845.62122-.46043.46042-.66028 1.0837-.58806 1.69702.05377.45661-.01225.95718-.35726 1.26106l-2.34952 2.06951c-.26034.26035-.2278.65084 0 .91124.26035.2603.65087.2603.91121 0l2.42258-2.13389c.30995-.27301.75452-.30325 1.16286-.24107.64351.09799 1.30791-.10985 1.79214-.56989.3632-.34506.5744-.81174.6223-1.29823z" stroke-linecap="round" stroke-linejoin="round"/></g></svg>