<svg fill="none" height="73" viewBox="0 0 118 73" width="118" xmlns="http://www.w3.org/2000/svg"><path d="m50.1768 24.7451v9.6119c0 7.0332 5.8565 12.8941 13.1186 12.8941s13.1187-5.6265 13.1187-12.8941v-2.3443m11.9258 32.1633c-2.6237 0-4.7704-2.1483-4.7704-4.774v-19.0957c0-2.6257-2.1467-4.774-4.7704-4.774h-2.3851m-50.0889 9.5477c-1.1926 1.4322-3.1008 1.9096-4.7704 1.1935 0-2.8644.477-5.7288 1.1926-8.3544 1.1926-4.774 4.7703-8.3544 11.9259-8.3544h15.5037v-16.7088c0-2.387 7.1556 2.3869 7.1556 2.3869h11.9259s7.1555-4.7739 7.1555-2.3869v23.8697c0 6.2061-1.1926 12.1735-3.5777 17.9023v3.5804h-4.7704l-3.2033-4.7536m-38.5376-11.9548c0 4.0578.477 8.1157 1.1926 11.9348.477 1.6709 1.1926 3.3418 2.3851 4.774h4.7704l.7156-2.8644c.2385-.9548 1.1926-1.9096 2.3852-1.9096h10.4948c1.1926 0 2.1466.7161 2.3852 1.9096l.7155 2.8644h3.5778s1.1926-4.774 8.3481-4.774c1.6697 0 3.3393-.4774 4.7704-1.1935m-2.3853-22.6757h-4.7703m7.1542 5.9674c-4.7704 0-4.7704-5.9675-4.7704-5.9675s0 5.9675-4.7704 5.9675m4.9049 14.333-.022.0002m27.8808 14.32-.022.0002" stroke="#18303f" stroke-linecap="round" stroke-linejoin="round" stroke-width="2"/></svg>