<svg fill="none" height="73" viewBox="0 0 118 73" width="118" xmlns="http://www.w3.org/2000/svg"><g fill="#18303f"><g clip-rule="evenodd" fill-rule="evenodd"><path d="m50.1768 23.745c.5522 0 1 .4477 1 1v9.6119c0 6.4699 5.3977 11.8941 12.1186 11.8941 6.7328 0 12.1187-5.2015 12.1187-11.8941v-2.3444c0-.5522.4477-1 1-1 .5522 0 1 .4478 1 1v2.3444c0 7.8426-6.3273 13.8941-14.1187 13.8941-7.8033 0-14.1186-6.2977-14.1186-13.8941v-9.6119c0-.5523.4477-1 1-1z"/><path d="m75.414 35.5322c0-.5523.4477-1 1-1h2.3851c3.1767 0 5.7704 2.5967 5.7704 5.7739v19.0958c0 2.0741 1.6997 3.774 3.7704 3.774.5523 0 1 .4477 1 1 0 .5522-.4477 1-1 1-3.1767 0-5.7704-2.5967-5.7704-5.774v-19.0958c0-2.0741-1.6996-3.7739-3.7704-3.7739h-2.3851c-.5523 0-1-.4477-1-1z"/><path d="m51.1769 13.2163v16.3482c0 .5523-.4477 1-1 1h-15.5037c-3.4091 0-5.8631.8508-7.5891 2.1794-1.7256 1.3284-2.8137 3.204-3.3666 5.4174l-.0054.0206c-.6363 2.3348-1.0747 4.8479-1.1469 7.3633 1.0833.2134 2.2201-.179 2.9914-1.1052.3534-.4245.984-.482 1.4084-.1286s.4819.9839.1285 1.4084c-1.4655 1.7599-3.8423 2.3693-5.933 1.4726-.3675-.1577-.6058-.5191-.6058-.9191 0-2.9681.4931-5.9186 1.225-8.6071.6406-2.5564 1.9371-4.854 4.0844-6.5071 2.15-1.6551 5.0626-2.5946 8.8091-2.5946h14.5037v-15.7088c0-.2711.0507-.567.2023-.8451.1571-.2883.3908-.4984.6577-.6319.4853-.2429 1.0268-.2094 1.4226-.1434.8302.1385 1.84.5728 2.7427 1.0245.9298.4653 1.8509 1.0034 2.5339 1.4212.343.2097.629.391.8299.5202.0225.0145.044.0283.0643.0415h11.3302c.0203-.0132.0418-.027.0643-.0415.2009-.1292.487-.3105.8299-.5202.683-.4178 1.6042-.9559 2.534-1.4212.9027-.4517 1.9124-.886 2.7427-1.0245.3958-.066.9373-.0995 1.4225.1434.2669.1335.5006.3436.6577.6319.1516.2781.2023.574.2023.8451v23.8698c0 6.271-1.193 12.3071-3.5777 18.101v3.3817c0 .5523-.4478 1-1 1h-4.7704c-.3326 0-.6434-.1654-.8293-.4412l-3.2033-4.7536c-.3086-.458-.1875-1.0795.2705-1.3881.458-.3087 1.0794-.1876 1.3881.2704l2.906 4.3125h3.2384v-2.5805c0-.1319.0261-.2625.0768-.3843 2.3344-5.6069 3.5009-11.4437 3.5009-17.5179v-23.5092c-.5115.0958-1.2705.4019-2.1303.8321-.8591.4299-1.7268.936-2.3854 1.3388-.3279.2005-.6009.3735-.7913.496-.0952.0612-.1695.1097-.2196.1426l-.0565.0372-.0138.0091-.0031.0021c-.1643.1096-.358.1685-.5555.1685h-11.9259c-.1976 0-.3907-.0585-.555-.1681l-.0037-.0025-.0138-.0091-.0564-.0372c-.0501-.0329-.1245-.0814-.2197-.1426-.1903-.1225-.4633-.2955-.7912-.496-.6587-.4028-1.5264-.9089-2.3855-1.3388-.8598-.4302-1.6188-.7363-2.1303-.8321z"/><path d="m26.3249 40.4997c.5523 0 1 .4478 1 1 0 3.9655.4645 7.9438 1.1668 11.7046.4119 1.4294.9953 2.8071 1.8946 4.0043h3.5058l.5263-2.1068c.3303-1.3223 1.6283-2.6672 3.3554-2.6672h10.4948c1.6255 0 3.0132 1.0085 3.3607 2.6885l.5209 2.0855h2.108c.0283-.0616.059-.126.0925-.1929.2629-.5263.6949-1.2156 1.3798-1.901 1.3923-1.3933 3.7394-2.6801 7.5647-2.6801 1.4857 0 3.0027-.4272 4.3229-1.0878.4939-.2471 1.0947-.0471 1.3418.4468s.0471 1.0947-.4468 1.3418c-1.542.7716-3.3643 1.2992-5.2179 1.2992-3.3302 0-5.1572 1.1002-6.15 2.0938-.5077.5081-.8211 1.0123-1.0054 1.3812-.092.1842-.1512.3333-.1857.4299-.0172.0483-.0282.0832-.034.1026l-.0047.0162.0007-.0029.0006-.002m-.0013.0049c-.114.441-.5121.7503-.9683.7503h-3.5778c-.4589 0-.8589-.3124-.9702-.7577l-.7155-2.8644c-.0039-.0153-.0073-.0308-.0105-.0463-.1382-.6919-.653-1.1056-1.4045-1.1056h-10.4948c-.6582 0-1.2683.5647-1.415 1.1519l-.7156 2.8644c-.1112.4453-.5112.7577-.9702.7577h-4.7704c-.2969 0-.5784-.132-.7684-.3601-1.3117-1.5753-2.0785-3.3885-2.5783-5.1394-.0085-.0297-.0156-.0599-.0213-.0903-.724-3.864-1.2097-7.9851-1.2097-12.1191 0-.5522.4477-1 1-1"/><path d="m59.91 29.5653c0-.5522.4477-1 1-1h4.7703c.5523 0 1 .4478 1 1 0 .5523-.4477 1-1 1h-4.7703c-.5523 0-1-.4477-1-1z"/><path d="m63.2952 28.5653c.5516 0 .9989.4467 1 .998v.002h-1c1 0 1 .0004 1 0 0-.0006 0-.0013 0-.002l.0001.0063c.0001.0068.0003.019.0007.0361.001.0343.0029.0883.0069.159.0081.1419.0246.3497.0581.601.0677.5077.2012 1.167.4591 1.8122.2588.6474.6239 1.234 1.1281 1.6545.4864.4056 1.1528.7004 2.1174.7004.5523 0 1 .4477 1 1s-.4477 1-1 1c-1.4205 0-2.5431-.4512-3.3983-1.1645-.6024-.5023-1.0453-1.1115-1.3721-1.7283-.3268.6168-.7697 1.226-1.372 1.7283-.8552.7133-1.9778 1.1645-3.3983 1.1645-.5523 0-1-.4477-1-1s.4477-1 1-1c.9646 0 1.6309-.2948 2.1174-.7004.5041-.4205.8693-1.0071 1.1281-1.6545.2578-.6452.3914-1.3045.4591-1.8122.0334-.2513.0499-.4591.058-.601.0041-.0707.006-.1247.0069-.159.0005-.0171.0007-.0293.0008-.0361v-.0043h1c-1 0-1 .0004-1 0m1-1c-.5522 0-1 .4478-1 1z"/><path d="m62.4064 49.8761c-.0056-.5522.4375-1.0045.9898-1.0101l.0219-.0002c.5523-.0056 1.0045.4375 1.0101.9898.0056.5522-.4375 1.0045-.9898 1.0101l-.0219.0002c-.5523.0056-1.0045-.4375-1.0101-.9898z"/><path d="m90.2652 64.1964c-.0056-.5523.4375-1.0045.9898-1.0101l.0219-.0003c.5523-.0056 1.0045.4376 1.0101.9898.0056.5523-.4375 1.0045-.9898 1.0101l-.0219.0003c-.5522.0056-1.0045-.4376-1.0101-.9898z"/></g><path d="m58.8325 24.0751c0 .8284-.6716 1.5-1.5 1.5s-1.5-.6716-1.5-1.5c0-.8285.6716-1.5 1.5-1.5s1.5.6715 1.5 1.5z"/><path d="m70.6102 24.0751c0 .8284-.6716 1.5-1.5 1.5s-1.5-.6716-1.5-1.5c0-.8285.6716-1.5 1.5-1.5s1.5.6715 1.5 1.5z"/></g></svg>