<svg fill="none" height="41" viewBox="0 0 40 41" width="40" xmlns="http://www.w3.org/2000/svg"><circle cx="20" cy="20.687" fill="#00ac83" r="18" stroke="#09f9bf" stroke-width="2"/><g fill="#fff"><path clip-rule="evenodd" d="m19.8955 10.687c-2.4125 0-4.4071 1.9628-4.4071 4.2844v2.5442h8.8142v-2.5442c0-2.3216-1.9946-4.2844-4.4071-4.2844zm-5.4071 4.2844v2.5442h-.3959c-1.2455 0-2.2844.9949-2.2844 2.2398v6.1992c0 1.261.5933 2.4444 1.4763 3.3053.8834.8614 2.0914 1.4343 3.372 1.4343h6.4709c1.2805 0 2.4885-.5729 3.3719-1.4343.883-.8609 1.4763-2.0443 1.4763-3.3053v-6.1992c0-1.2449-1.0388-2.2398-2.2844-2.2398h-.3885v-2.5442c0-2.8976-2.4664-5.28439-5.4071-5.28439s-5.4071 2.38679-5.4071 5.28439zm-.3959 3.5442h.8742c.0072.0003.0144.0005.0217.0005h9.8142c.0073 0 .0145-.0002.0217-.0005h.8668c.7173 0 1.2844.5709 1.2844 1.2398v6.1992c0 .9458-.4491 1.8822-1.1744 2.5893-.7249.7068-1.691 1.1503-2.6738 1.1503h-6.4709c-.9828 0-1.949-.4435-2.6739-1.1503-.7252-.7071-1.1744-1.6435-1.1744-2.5893v-6.1992c0-.6689.5671-1.2398 1.2844-1.2398zm6.3037 6.1109c0-.2762-.2238-.5-.5-.5-.2761 0-.5.2238-.5.5v1.1308c0 .2762.2239.5.5.5.2762 0 .5-.2238.5-.5z" fill-rule="evenodd"/><path d="m15.4884 17.5156h-.25c0 .1381.1119.25.25.25zm8.8142 0v.25c.1381 0 .25-.1119.25-.25zm-9.8142 0v.25c.1381 0 .25-.1119.25-.25zm-1.204 11.7443-.1745.179zm13.2148 0 .1745.179zm-1.1966-11.7443h-.25c0 .1381.1119.25.25.25zm-10.3359 1 .0107-.25h-.0107zm9.8576 0v-.2502l-.0107.0005zm.9768 10.0283.1745.179zm-11.8186 0-.1745.179zm1.7559-13.5725c0-2.1778 1.8769-4.0344 4.1571-4.0344v-.5c-2.5447 0-4.6571 2.069-4.6571 4.5344zm0 2.5442v-2.5442h-.5v2.5442zm8.5642-.25h-8.8142v.5h8.8142zm-.25-2.2942v2.5442h.5v-2.5442zm-4.1571-4.0344c2.2802 0 4.1571 1.8566 4.1571 4.0344h.5c0-2.4654-2.1123-4.5344-4.6571-4.5344zm-5.1571 6.5786v-2.5442h-.5v2.5442zm-.6459.25h.3959v-.5h-.3959zm-2.0344 1.9898c0-1.1005.9205-1.9898 2.0344-1.9898v-.5c-1.3772 0-2.5344 1.1005-2.5344 2.4898zm0 6.1992v-6.1992h-.5v6.1992zm1.4009 3.1263c-.8437-.8225-1.4009-1.9442-1.4009-3.1263h-.5c0 1.3399.6294 2.585 1.5518 3.4843zm3.1974 1.3633c-1.2061 0-2.3536-.5405-3.1974-1.3633l-.3491.358c.923.9 2.1914 1.5053 3.5465 1.5053zm6.4709 0h-6.4709v.5h6.4709zm3.1974-1.3633c-.8438.8228-1.9914 1.3633-3.1974 1.3633v.5c1.355 0 2.6234-.6053 3.5464-1.5053zm1.4008-3.1263c0 1.1821-.5572 2.3038-1.4008 3.1263l.349.358c.9224-.8993 1.5518-2.1444 1.5518-3.4843zm0-6.1992v6.1992h.5v-6.1992zm-2.0344-1.9898c1.1139 0 2.0344.8893 2.0344 1.9898h.5c0-1.3893-1.1571-2.4898-2.5344-2.4898zm-.3885 0h.3885v-.5h-.3885zm-.25-2.7942v2.5442h.5v-2.5442zm-5.1571-5.03439c2.8088 0 5.1571 2.28089 5.1571 5.03439h.5c0-3.0418-2.5845-5.53439-5.6571-5.53439zm-5.1571 5.03439c0-2.7535 2.3483-5.03439 5.1571-5.03439v-.5c-3.0726 0-5.6571 2.49259-5.6571 5.53439zm.2283 3.2942h-.8742v.5h.8742zm.0217.0005c-.0037 0-.0074-.0001-.011-.0002l-.0214.4995c.0108.0005.0216.0007.0324.0007zm9.8142 0h-9.8142v.5h9.8142zm.011-.0002c-.0036.0001-.0073.0002-.011.0002v.5c.0108 0 .0216-.0002.0324-.0007zm.8775-.0003h-.8668v.5h.8668zm1.5344 1.4898c0-.8122-.6843-1.4898-1.5344-1.4898v.5c.5845 0 1.0344.4642 1.0344.9898zm0 6.1992v-6.1992h-.5v6.1992zm-1.2499 2.7683c.7648-.7456 1.2499-1.7438 1.2499-2.7683h-.5c0 .8671-.4131 1.7417-1.0989 2.4103zm-2.8483 1.2213c1.0572 0 2.0838-.4758 2.8483-1.2213l-.349-.358c-.6852.6681-1.5909 1.0793-2.4993 1.0793zm-6.4709 0h6.4709v-.5h-6.4709zm-2.8484-1.2213c.7646.7455 1.7912 1.2213 2.8484 1.2213v-.5c-.9085 0-1.8142-.4112-2.4993-1.0793zm-1.2499-2.7683c0 1.0245.4851 2.0227 1.2499 2.7683l.3491-.358c-.6858-.6686-1.099-1.5432-1.099-2.4103zm0-6.1992v6.1992h.5v-6.1992zm1.5344-1.4898c-.8501 0-1.5344.6776-1.5344 1.4898h.5c0-.5256.4499-.9898 1.0344-.9898zm5.8037 6.1109c.1381 0 .25.1119.25.25h.5c0-.4142-.3357-.75-.75-.75zm-.25.25c0-.1381.112-.25.25-.25v-.5c-.4142 0-.75.3358-.75.75zm0 1.1308v-1.1308h-.5v1.1308zm.25.25c-.138 0-.25-.1119-.25-.25h-.5c0 .4142.3358.75.75.75zm.25-.25c0 .1381-.1119.25-.25.25v.5c.4143 0 .75-.3358.75-.75zm0-1.1308v1.1308h.5v-1.1308z"/><path d="m19.8934 24.6273c.5913 0 1.0706-.4674 1.0706-1.0439s-.4793-1.0438-1.0706-1.0438-1.0706.4673-1.0706 1.0438.4793 1.0439 1.0706 1.0439z" stroke="#fff" stroke-linecap="round" stroke-linejoin="round" stroke-width=".5"/></g></svg>