<svg fill="none" height="41" viewBox="0 0 40 41" width="40" xmlns="http://www.w3.org/2000/svg"><circle cx="20" cy="20.687" fill="#f94409" r="18" stroke="#09f9bf" stroke-width="2"/><g fill="#fff"><path clip-rule="evenodd" d="m25.6989 10.687c-2.3423 0-4.3005 1.9582-4.3005 4.3004v.735c0 .2761-.2238.5-.5.5-.2761 0-.5-.2239-.5-.5v-.735c0-2.8945 2.4059-5.30039 5.3005-5.30039 1.8927 0 3.5707 1.02819 4.5077 2.53799.1886.3038.3476.6277.4725.9675.0954.2591-.0375.5465-.2966.6418-.2592.0954-.5466-.0375-.6419-.2966-.1012-.2751-.2302-.5381-.3836-.7853-.767-1.2359-2.1341-2.0654-3.6581-2.0654zm-16.6989 9.1001c0-1.2362 1.0094-2.2456 2.2456-2.2456h11.3464c1.2363 0 2.2456 1.0094 2.2456 2.2456v6.2199c0 1.2603-.5782 2.4459-1.443 3.3107s-2.0504 1.443-3.3107 1.443h-6.3302c-1.2602 0-2.4459-.5782-3.3107-1.443s-1.443-2.0504-1.443-3.3107zm2.2456-1.2456c-.6839 0-1.2456.5617-1.2456 1.2456v6.2199c0 .9539.4416 1.8951 1.1501 2.6036.7085.7086 1.6497 1.1501 2.6036 1.1501h6.3302c.9539 0 1.8951-.4415 2.6036-1.1501.7086-.7085 1.1501-1.6497 1.1501-2.6036v-6.2199c0-.6839-.5616-1.2456-1.2456-1.2456zm19.2544-3.0908c.2761 0 .5-.2239.5-.5 0-.2762-.2239-.5-.5-.5s-.5.2238-.5.5c0 .2761.2239.5.5.5zm-13.5776 7.6294c-.3023 0-.5474.245-.5474.5473 0 .2953.2338.536.5264.547.0081-.0004.0162-.0006.0244-.0006.0071 0 .0141.0002.0211.0005.2909-.0129.5228-.2528.5228-.5469 0-.3023-.245-.5473-.5473-.5473zm.5034 2.011c.6074-.2089 1.0439-.7853 1.0439-1.4637 0-.8545-.6928-1.5473-1.5473-1.5473-.8546 0-1.5474.6928-1.5474 1.5473 0 .6809.4398 1.2591 1.0508 1.466v.7151c0 .2761.2238.5.5.5.2761 0 .5-.2239.5-.5z" fill-rule="evenodd"/><path d="m30.2066 12.225.2125-.1318zm.4725.9675-.2346.0863zm-.2966.6418-.0863-.2346zm-.6419-.2966.2346-.0863zm-.3836-.7853-.2124.1318zm-5.9624 16.5653.1768.1768zm-12.9516 0-.1768.1768zm.7071-.7071.1768-.1767zm11.5374 0 .1768.1768zm-5.7861-4.4362-.0094.2498c.0071.0003.0143.0003.0214-.0001zm.0455-.0001-.0104.2498c.0071.0002.0143.0002.0214-.0001zm.4789.9168-.0813-.2364c-.101.0347-.1687.1296-.1687.2364zm-1 .0023h.25c0-.1072-.0683-.2024-.1698-.2368zm5.2226-10.106c0-2.2042 1.8463-4.0504 4.0505-4.0504v-.5c-2.4804 0-4.5505 2.0701-4.5505 4.5504zm0 .735v-.735h-.5v.735zm-.75.75c.4143 0 .75-.3358.75-.75h-.5c0 .138-.1119.25-.25.25zm-.75-.75c0 .4142.3358.75.75.75v-.5c-.138 0-.25-.112-.25-.25zm0-.735v.735h.5v-.735zm5.5505-5.55039c-3.0327 0-5.5505 2.51779-5.5505 5.55039h.5c0-2.7565 2.294-5.05039 5.0505-5.05039zm4.7202 2.65619c-.9796-1.5783-2.7353-2.65619-4.7202-2.65619v.5c1.8004 0 3.4008.97849 4.2953 2.41989zm.4947 1.013c-.1309-.3559-.2974-.695-.4947-1.013l-.4249.2637c.1798.2896.3313.5983.4503.9219zm-.445.9628c.3887-.143.5879-.5741.445-.9628l-.4693.1726c.0477.1296-.0188.2732-.1483.3209zm-.9628-.445c.143.3887.574.5879.9628.445l-.1726-.4693c-.1296.0477-.2733-.0188-.321-.1483zm-.3614-.7398c.1446.2331.2661.4809.3614.7398l.4692-.1726c-.1071-.2913-.2436-.5695-.4058-.8309zm-3.4457-1.9472c1.4319 0 2.7212.7799 3.4457 1.9472l.4248-.2637c-.8096-1.3044-2.2544-2.1835-3.8705-2.1835zm-14.4533 6.3545c-1.37429 0-2.4956 1.1213-2.4956 2.4956h.5c0-1.0981.8975-1.9956 1.9956-1.9956zm11.3464 0h-11.3464v.5h11.3464zm2.4956 2.4956c0-1.3743-1.1213-2.4956-2.4956-2.4956v.5c1.0982 0 1.9956.8975 1.9956 1.9956zm0 6.2199v-6.2199h-.5v6.2199zm-1.5162 3.4875c.9038-.9038 1.5162-2.1506 1.5162-3.4875h-.5c0 1.1836-.5439 2.3082-1.3697 3.134zm-3.4875 1.5162c1.3369 0 2.5837-.6124 3.4875-1.5162l-.3535-.3535c-.8258.8257-1.9504 1.3697-3.134 1.3697zm-6.3302 0h6.3302v-.5h-6.3302zm-3.4875-1.5162c.9039.9038 2.1506 1.5162 3.4875 1.5162v-.5c-1.1836 0-2.3081-.544-3.1339-1.3697zm-1.5162-3.4875c0 1.3369.6124 2.5837 1.5162 3.4875l.3536-.3535c-.8258-.8258-1.3698-1.9504-1.3698-3.134zm0-6.2199v6.2199h.5v-6.2199zm1.5 0c0-.5459.4497-.9956.9956-.9956v-.5c-.822 0-1.4956.6736-1.4956 1.4956zm0 6.2199v-6.2199h-.5v6.2199zm1.0769 2.4269c-.6694-.6694-1.0769-1.5495-1.0769-2.4269h-.5c0 1.0304.4757 2.0328 1.2233 2.7804zm2.4268 1.0768c-.8774 0-1.7574-.4075-2.4268-1.0768l-.3536.3535c.7477.7477 1.75 1.2233 2.7804 1.2233zm6.3302 0h-6.3302v.5h6.3302zm2.4269-1.0768c-.6694.6693-1.5495 1.0768-2.4269 1.0768v.5c1.0304 0 2.0328-.4756 2.7804-1.2233zm1.0768-2.4269c0 .8774-.4075 1.7575-1.0768 2.4269l.3535.3535c.7477-.7476 1.2233-1.75 1.2233-2.7804zm0-6.2199v6.2199h.5v-6.2199zm-.9956-.9956c.5459 0 .9956.4497.9956.9956h.5c0-.822-.6735-1.4956-1.4956-1.4956zm-11.3464 0h11.3464v-.5h-11.3464zm19.5044-3.8408c0 .1381-.1119.25-.25.25v.5c.4142 0 .75-.3358.75-.75zm-.25-.25c.1381 0 .25.1119.25.25h.5c0-.4142-.3358-.75-.75-.75zm-.25.25c0-.1381.1119-.25.25-.25v-.5c-.4142 0-.75.3358-.75.75zm.25.25c-.1381 0-.25-.1119-.25-.25h-.5c0 .4142.3358.75.75.75zm-13.875 8.4267c0-.1642.1331-.2973.2974-.2973v-.5c-.4404 0-.7974.357-.7974.7973zm.2858.2972c-.1588-.006-.2858-.1368-.2858-.2972h-.5c0 .4302.3406.7808.767.7968zm.0026.4995c.0041-.0002.0082-.0003.0124-.0003v-.5c-.0122 0-.0243.0003-.0364.0009zm.0124-.0003c.0036 0 .0072.0001.0107.0003l.0208-.4996c-.0105-.0005-.021-.0007-.0315-.0007zm.2939-.7964c0 .1597-.126.2901-.2838.2971l.022.4995c.424-.0187.7618-.3681.7618-.7966zm-.2973-.2973c.1642 0 .2973.1331.2973.2973h.5c0-.4403-.357-.7973-.7973-.7973zm.5847 1.9974c.7053-.2425 1.2126-.9117 1.2126-1.7001h-.5c0 .5684-.3656 1.052-.8752 1.2273zm1.2126-1.7001c0-.9926-.8047-1.7973-1.7973-1.7973v.5c.7165 0 1.2973.5808 1.2973 1.2973zm-1.7973-1.7973c-.9927 0-1.7974.8047-1.7974 1.7973h.5c0-.7165.5808-1.2973 1.2974-1.2973zm-1.7974 1.7973c0 .7913.5112 1.4626 1.2206 1.7028l.1604-.4736c-.5126-.1736-.881-.6587-.881-1.2292zm1.5508 2.1811v-.7151h-.5v.7151zm.25.25c-.1381 0-.25-.112-.25-.25h-.5c0 .4142.3358.75.75.75zm.25-.25c0 .138-.1119.25-.25.25v.5c.4142 0 .75-.3358.75-.75zm0-.7174v.7174h.5v-.7174z"/></g></svg>