<svg fill="none" height="25" viewBox="0 0 25 25" width="25" xmlns="http://www.w3.org/2000/svg"><g fill="#18303f"><path clip-rule="evenodd" d="m12.5 24c6.3513 0 11.5-5.1487 11.5-11.5 0-6.35127-5.1487-11.5-11.5-11.5-6.35127 0-11.5 5.14873-11.5 11.5 0 6.3513 5.14873 11.5 11.5 11.5zm0 1c6.9036 0 12.5-5.5964 12.5-12.5 0-6.90356-5.5964-12.5-12.5-12.5-6.90356 0-12.5 5.59644-12.5 12.5 0 6.9036 5.59644 12.5 12.5 12.5z" fill-rule="evenodd"/><path d="m8.79289 14.7929c-.39052.3905-.39052 1.0237 0 1.4142.39053.3905 1.02369.3905 1.41421 0l2.293-2.2929 2.2931 2.2931c.3905.3905 1.0237.3905 1.4142 0s.3905-1.0237 0-1.4142l-2.2931-2.2932 2.2928-2.2928c.3905-.39052.3905-1.02368 0-1.41421-.3905-.39052-1.0237-.39052-1.4142 0l-2.2928 2.29281-2.2927-2.29262c-.39052-.39052-1.02369-.39052-1.41421 0-.39052.39053-.39052 1.02369 0 1.41422l2.29261 2.2926z"/></g></svg>