<svg fill="none" height="25" viewBox="0 0 25 25" width="25" xmlns="http://www.w3.org/2000/svg"><g stroke="#92a0a9" stroke-linecap="round" stroke-linejoin="round"><path d="m12.5 24c6.1539 0 11.0577-5.1 11.0577-11.5s-4.9038-11.5-11.0577-11.5c-6.15383 0-11.05768 5.1-11.05768 11.5s5 11.5 11.05768 11.5z"/><path d="m4.90376 13.5c-.28846-2.3.38461-4.5998 1.82692-6.2998s3.55762-2.7002 5.76922-2.7002c1.3461 0 2.6923.4001 3.8461 1.1001"/><path d="m19.5191 15.9004c-1.1538 2.5-3.3653 4.2-5.9615 4.5s-5.19231-.6998-6.92308-2.7998"/><path d="m19.2308 8.5c.4807.9.8654 1.9.9615 3"/><path d="m10.0963 16.2996c-1.82701-1.3-2.40393-3.6998-1.4424-5.7998.96158-2.00003 3.2693-3.00022 5.2885-2.20022"/><path d="m16.7308 11.5c.4808 2-.4808 4.1-2.3077 5"/></g><g fill="#92a0a9"><path d="m5.31896 16.2998c.26553 0 .48077-.2239.48077-.5s-.21524-.5-.48077-.5c-.26552 0-.48076.2239-.48076.5s.21524.5.48076.5z"/><path d="m20 14c.2655 0 .4808-.2239.4808-.5s-.2153-.5-.4808-.5-.4808.2239-.4808.5.2153.5.4808.5z"/><path d="m17.8248 7.25c.2655 0 .4808-.22386.4808-.5s-.2153-.5-.4808-.5-.4807.22386-.4807.5.2152.5.4807.5z"/><path d="m15.6384 10c.2655 0 .4807-.22386.4807-.5s-.2152-.5-.4807-.5c-.2656 0-.4808.22386-.4808.5s.2152.5.4808.5z"/><path d="m12.0192 17.2998c.2655 0 .4808-.2239.4808-.5s-.2153-.5-.4808-.5-.4807.2239-.4807.5.2152.5.4807.5z"/></g></svg>