<svg fill="none" height="25" viewBox="0 0 25 25" width="25" xmlns="http://www.w3.org/2000/svg" xmlns:xlink="http://www.w3.org/1999/xlink"><clipPath id="a"><path d="m.250244 0h25v25h-25z"/></clipPath><g clip-path="url(#a)"><g stroke="#18303f" stroke-linecap="round" stroke-linejoin="round"><path d="m12.7502 24c6.4 0 11.5-5.1 11.5-11.5s-5.1-11.5-11.5-11.5c-6.39996 0-11.49996 5.1-11.49996 11.5s5.2 11.5 11.49996 11.5z"/><path d="m4.85023 13.5c-.3-2.3.4-4.5998 1.9-6.2998s3.69997-2.7002 5.99997-2.7002c1.4 0 2.8.4001 4 1.1001"/><path d="m20.0503 15.8999c-1.2 2.5-3.5 4.2-6.2 4.5s-5.40003-.6998-7.20003-2.7998"/><path d="m19.7502 8.5c.5.9.9 1.9 1 3"/><path d="m10.2502 16.2996c-1.89996-1.3-2.49996-3.6998-1.49996-5.7998 1-2.00003 3.39996-3.00022 5.49996-2.20022"/><path d="m17.1503 11.5c.5 2-.5001 4.1-2.4001 5"/></g><g fill="#18303f"><circle cx="5.28204" cy="15.7996" r=".5"/><circle cx="20.5503" cy="13.5" r=".5"/><circle cx="18.2882" cy="6.74963" r=".5"/><circle cx="16.0142" cy="9.5" r=".5"/><circle cx="12.2502" cy="16.7996" r=".5"/></g></g></svg>