<svg fill="none" height="25" viewBox="0 0 25 25" width="25" xmlns="http://www.w3.org/2000/svg"><g fill="#92a0a9"><path d="m8.10781 3.43255c1.09943-1.20768 2.70129-1.93255 4.39299-1.93255s3.2935.72487 4.3929 1.93255c.506-.29077 1.0793-.43255 1.7071-.43255 1.8007 0 3.3391 1.27549 3.5701 3.03816.7917.12866 1.5441.57995 1.9632 1.31338.4879.85372.4879 1.9432 0 2.79696-.5017.878-1.4818 1.3515-2.4341 1.3515h-1.2007c-.2762 0-.5-.2239-.5-.5s.2238-.5.5-.5h1.2007c.6477 0 1.2676-.3257 1.5659-.84768.3121-.54628.3121-1.25836 0-1.80464-.2984-.52213-.9176-.84768-1.5651-.84768-.2762 0-.5-.22386-.5-.5 0-1.40268-1.1545-2.5-2.6-2.5-.598 0-1.0849.16783-1.4877.49004-.1048.08387-.239.12206-.3723.10596-.1333-.01609-.2545-.08512-.3363-.19154-.905-1.17647-2.3583-1.90446-3.9037-1.90446s-2.99872.72799-3.90371 1.90446c-.08186.10642-.20307.17545-.33636.19154-.13329.0161-.26746-.02209-.3723-.10596-.40276-.32221-.88969-.49004-1.48765-.49004-1.41903 0-2.51544 1.07713-2.60086 2.52936-.01555.26428-.2344.47064-.49914.47064-.64792 0-1.26847.32584-1.56666.84768-.31216.54628-.31216 1.25836 0 1.80464.29828.52198.91815.84768 1.56588.84768h1.7c.27614 0 .5.2239.5.5s-.22386.5-.5.5h-1.7c-.95227 0-1.9324-.4735-2.434122-1.3515-.487837-.85376-.487837-1.94324 0-2.79696.422882-.74004 1.186072-1.19261 1.985472-1.31667.29591-1.73444 1.71885-3.03487 3.54943-3.03487.62782 0 1.20113.14178 1.70703.43255z"/><path d="m6.22894 12.844v3.612c0 .896.236 1.556.708 1.98.48.424 1.1.636 1.86.636.784 0 1.41196-.2 1.88396-.6.48-.408.72-.916.72-1.524 0-.216-.04-.364-.12-.444s-.208-.12-.384-.12c-.312 0-.48.116-.504.348-.024.2-.052.36-.084.48s-.1.264-.204.432c-.096.168-.24796.296-.45596.384s-.468.132-.78.132c-1.088 0-1.632-.568-1.632-1.704v-3.612c0-1.136.532-1.704 1.596-1.704.992 0 1.51196.46 1.55996 1.38.016.232.184.348.504.348.176 0 .304-.036.384-.108.08-.08.12-.228.12-.444 0-.6-.236-1.096-.708-1.488-.472-.4-1.09996-.6-1.88396-.6-.768 0-1.392.212-1.872.636-.472.424-.708 1.084-.708 1.98z"/><path clip-rule="evenodd" d="m12.6039 12.844v3.612c0 .904.232 1.568.696 1.992.472.416 1.1.624 1.884.624s1.412-.208 1.884-.624c.472-.424.708-1.088.708-1.992v-3.612c0-.904-.236-1.564-.708-1.98-.472-.424-1.1-.636-1.884-.636s-1.412.212-1.884.636c-.464.416-.696 1.076-.696 1.98zm2.58 5.316c-1.048 0-1.572-.568-1.572-1.704v-3.612c0-1.136.524-1.704 1.572-1.704.504 0 .892.144 1.164.432.28.28.42.704.42 1.272v3.612c0 .568-.14.996-.42 1.284-.272.28-.66.42-1.164.42z" fill-rule="evenodd"/><path d="m18.542 22.812v.873c0 .09.045.165.135.225.096.06.192.09.288.09h3.204c.084 0 .156-.042.216-.126.066-.09.099-.192.099-.306s-.033-.21-.099-.288c-.06-.084-.132-.126-.216-.126h-2.646v-.342c0-.186.099-.378.297-.576.204-.198.447-.393.729-.585.288-.198.573-.405.855-.621.288-.222.531-.489.729-.801.204-.318.306-.657.306-1.017 0-.528-.189-.957-.567-1.287-.372-.336-.825-.504-1.359-.504-.504 0-.939.15-1.305.45-.36.294-.54.675-.54 1.143 0 .354.144.531.432.531.15 0 .27-.036.36-.108.096-.072.144-.156.144-.252 0-.294.084-.516.252-.666s.387-.225.657-.225c.318 0 .558.096.72.288.168.186.252.405.252.657s-.102.504-.306.756c-.198.252-.441.483-.729.693l-.864.63c-.294.21-.543.444-.747.702-.198.258-.297.522-.297.792z"/><path d="m18.7656 11.5c.2762 0 .5-.2239.5-.5s-.2238-.5-.5-.5c-.2761 0-.5.2239-.5.5s.2239.5.5.5z"/></g></svg>