<svg fill="none" height="25" viewBox="0 0 25 25" width="25" xmlns="http://www.w3.org/2000/svg"><g fill="#18303f"><path d="m7.92481 2.80751c1.14523-1.25801 2.81379-2.013076 4.57599-2.013076s3.4308.755066 4.576 2.013076c.527-.30289 1.1242-.45058 1.7782-.45058 1.8757 0 3.4782 1.32864 3.7188 3.16476.8247.13401 1.6085.60411 2.0451 1.3681.5081.88929.5081 2.02417 0 2.91346-.5227.91455-1.5436 1.40785-2.5356 1.40785h-2.8125c-.2876 0-.5208-.2332-.5208-.5208 0-.2877.2332-.5209.5208-.5209h2.8125c.6748 0 1.3205-.33923 1.6312-.88297.3251-.56904.3251-1.31079 0-1.87983-.3108-.54389-.9558-.883-1.6304-.883-.2876 0-.5208-.23318-.5208-.52083 0-1.46113-1.2026-2.60417-2.7083-2.60417-.6229 0-1.1301.17483-1.5497.51046-.1092.08737-.2489.12714-.3878.11038-.1388-.01677-.2651-.08867-.3503-.19952-.9427-1.2255-2.4566-1.98382-4.0664-1.98382-1.6097 0-3.12364.75832-4.06633 1.98382-.08527.11085-.21154.18275-.35038.19952-.13884.01676-.2786-.02301-.38781-.11038-.41954-.33563-.92676-.51046-1.54963-.51046-1.47816 0-2.62025 1.12201-2.70924 2.63475-.01619.27529-.24416.49025-.51993.49025-.67492 0-1.32132.33942-1.63194.883-.325166.56904-.325166 1.31079 0 1.87983.31071.54374.95641.88297 1.63113.88297h2.8125c.28764 0 .52083.2332.52083.5209 0 .2876-.23319.5208-.52083.5208h-2.8125c-.99195 0-2.012917-.4933-2.535547-1.40785-.508164-.88929-.508164-2.02417 0-2.91346.440499-.77087 1.235487-1.24231 2.068207-1.37154.30824-1.8067 1.79046-3.16132 3.69732-3.16132.65398 0 1.25117.1477 1.77816.45058z"/><path d="m8.85417 9.6486c.28764 0 .52083.23319.52083.5208v2.6042c0 .2876-.23319.5208-.52083.5208-.28765 0-.52084-.2332-.52084-.5208v-2.6042c0-.28761.23319-.5208.52084-.5208z"/><path d="m12.5 9.6486c.2876 0 .5208.23319.5208.5208v1.5625c0 .2877-.2332.5209-.5208.5209s-.5208-.2332-.5208-.5209v-1.5625c0-.28761.2332-.5208.5208-.5208z"/><path d="m16.6667 10.1694c0-.28761-.2332-.5208-.5209-.5208-.2876 0-.5208.23319-.5208.5208v2.6042c0 .2876.2332.5208.5208.5208.2877 0 .5209-.2332.5209-.5208z"/><path d="m6.48848 17.5458v3.7625c0 .9333.24583 1.6208.7375 2.0625.5.4417 1.14583.6625 1.9375.6625.81666 0 1.47082-.2083 1.96252-.625.5-.425.75-.9542.75-1.5875 0-.225-.0417-.3792-.125-.4625-.0834-.0833-.2167-.125-.4-.125-.325 0-.5.1208-.525.3625-.025.2083-.0542.375-.0875.5-.0334.125-.1042.275-.2125.45-.1.175-.2584.3083-.475.4-.21669.0917-.48752.1375-.81252.1375-1.13334 0-1.7-.5917-1.7-1.775v-3.7625c0-1.1833.55416-1.775 1.6625-1.775 1.03332 0 1.57502.4792 1.62502 1.4375.0166.2417.1916.3625.525.3625.1833 0 .3166-.0375.4-.1125.0833-.0833.125-.2375.125-.4625 0-.625-.2459-1.1417-.7375-1.55-.4917-.4167-1.14586-.625-1.96252-.625-.8 0-1.45.2208-1.95.6625-.49167.4417-.7375 1.1292-.7375 2.0625z"/><path clip-rule="evenodd" d="m13.1291 17.5458v3.7625c0 .9417.2417 1.6333.725 2.075.4917.4333 1.1458.65 1.9625.65s1.4708-.2167 1.9625-.65c.4917-.4417.7375-1.1333.7375-2.075v-3.7625c0-.9417-.2458-1.6292-.7375-2.0625-.4917-.4417-1.1458-.6625-1.9625-.6625s-1.4708.2208-1.9625.6625c-.4833.4333-.725 1.1208-.725 2.0625zm2.6875 5.5375c-1.0917 0-1.6375-.5917-1.6375-1.775v-3.7625c0-1.1833.5458-1.775 1.6375-1.775.525 0 .9292.15 1.2125.45.2917.2917.4375.7333.4375 1.325v3.7625c0 .5917-.1458 1.0375-.4375 1.3375-.2833.2917-.6875.4375-1.2125.4375z" fill-rule="evenodd"/></g></svg>