<svg fill="none" height="25" viewBox="0 0 25 25" width="25" xmlns="http://www.w3.org/2000/svg"><g fill="#18303f"><path clip-rule="evenodd" d="m18.6016 18.7028c-.5279 0-.9924.4143-.9924.971 0 .5568.4645.971.9924.971.5266 0 .9924-.4138.9924-.971s-.4658-.971-.9924-.971zm.0076.971c0 .0061-.0015.0128-.004.0185-.0012.0028-.0025.0049-.0036.0065-.0011-.0015-.0024-.0034-.0036-.0061-.0026-.0057-.004-.0125-.004-.0189s.0014-.0132.004-.0189c.0012-.0026.0024-.0047.0035-.0062.0011.0016.0025.0038.0037.0066.0025.0057.004.0124.004.0185z" fill-rule="evenodd"/><path d="m19.1016 5.22559c0 .27614-.2239.5-.5.5-.2762 0-.5-.22386-.5-.5 0-.27615.2238-.5.5-.5.2761 0 .5.22385.5.5z"/><path d="m19.1016 7.22559c0 .27614-.2239.5-.5.5-.2762 0-.5-.22386-.5-.5 0-.27615.2238-.5.5-.5.2761 0 .5.22385.5.5z"/><path d="m18.6016 9.72559c.2761 0 .5-.22386.5-.5 0-.27615-.2239-.5-.5-.5-.2762 0-.5.22385-.5.5 0 .27614.2238.5.5.5z"/><path d="m19.1016 11.2256c0 .2761-.2239.5-.5.5-.2762 0-.5-.2239-.5-.5 0-.2762.2238-.5.5-.5.2761 0 .5.2238.5.5z"/><path d="m18.6016 13.7256c.2761 0 .5-.2239.5-.5 0-.2762-.2239-.5-.5-.5-.2762 0-.5.2238-.5.5 0 .2761.2238.5.5.5z"/><path d="m19.1016 15.2256c0 .2761-.2239.5-.5.5-.2762 0-.5-.2239-.5-.5 0-.2762.2238-.5.5-.5.2761 0 .5.2238.5.5z"/><path d="m18.6016 17.7256c.2761 0 .5-.2239.5-.5 0-.2762-.2239-.5-.5-.5-.2762 0-.5.2238-.5.5 0 .2761.2238.5.5.5z"/><path clip-rule="evenodd" d="m18.6016 1c-1.3607 0-2.5 1.05987-2.5 2.41304v12.66886c-1.1989.7709-2 2.085-2 3.592 0 2.4097 2.0349 4.3261 4.5 4.3261 2.4639 0 4.5-1.9163 4.5-4.3261 0-1.5073-.8032-2.8211-2-3.5918v-12.66906c0-1.35317-1.1394-2.41304-2.5-2.41304zm-1.5 2.41304c0-.75978.6496-1.41304 1.5-1.41304.8503 0 1.5.65326 1.5 1.41304v12.95226c0 .1818.0986.3492.2576.4373 1.0491.5815 1.7424 1.654 1.7424 2.8713 0 1.8161-1.546 3.3261-3.5 3.3261-1.955 0-3.5-1.5099-3.5-3.3261 0-1.2176.6915-2.2899 1.742-2.8711.1592-.0881.258-.2556.258-.4375z" fill-rule="evenodd"/></g><g fill="#f18303"><path d="m8.29297 1.6123c.27614 0 .5-.22385.5-.5 0-.276138-.22386-.499995-.5-.499995s-.5.223857-.5.499995c0 .27615.22386.5.5.5z"/><path clip-rule="evenodd" d="m6.894 2.29668c.23181-.15007.29807-.45964.14801-.69145-.15007-.2318-.45964-.29807-.69145-.148-2.6381 1.70784-4.35056 4.61782-4.35056 7.81413 0 1.41214.50995 2.72974 1.55896 3.66174 1.02261 1.0249 2.30668 1.544 3.70929 1.5495 1.43987.1251 2.74305-.4118 3.76645-1.4434.0078-.0079.0154-.016.0226-.0244.8902-1.0254 1.4039-2.3124 1.4078-3.72699.1234-1.96334-.921-3.792-2.72885-4.70312-.06979-.03518-.14686-.0535-.22502-.0535h-.23371c-.21504 0-.39837.13575-.46897.32622-.01892.02298-.04008.05142-.05926.08366-.0386.06484-.06603.13722-.07939.21553-.11604.32699-.29525.59507-.50896.82461-.31125-.83336-.32944-1.73751-.09594-2.59868.07227-.26652-.08521-.54116-.35173-.61342-.26652-.07227-.54115.08521-.61342.35173-.34932 1.28834-.24153 2.69097.45732 3.92367.07104.12531.19267.21389.33373.24306.14106.02916.28784-.00393.40275-.09079.46674-.35284.97128-.84182 1.26638-1.56821 1.28747.77301 2.00297 2.1466 1.90627 3.60979-.0008.01098-.0011.02199-.0011.033 0 1.16444-.4165 2.22234-1.1521 3.07534-.83861.8394-1.85983 1.2404-2.97647 1.138-.01517-.0014-.03039-.002-.04562-.002-1.15397 0-2.19417-.4193-3.03381-1.2656-.00782-.0079-.0159-.0155-.02423-.0228-.81216-.7163-1.23297-1.7495-1.23297-2.92294 0-2.83275 1.51945-5.43746 3.894-6.97468zm1.97724 2.49274c.00009-.00006-.00088.00103-.00318.00341z" fill-rule="evenodd"/></g></svg>