<svg fill="none" height="25" viewBox="0 0 25 25" width="25" xmlns="http://www.w3.org/2000/svg"><g fill="#92a0a9"><path d="m12.8984 16.4395c0-.2762-.2238-.5-.5-.5-.2761 0-.5.2238-.5.5v1.1308c0 .2762.2239.5.5.5.2762 0 .5-.2238.5-.5z"/><path clip-rule="evenodd" d="m7.11328 6.78443v2.54418h-.37349c-1.23302 0-2.23979 1.00679-2.23979 2.23979v6.1992c0 1.2566.5765 2.4387 1.43869 3.3009.86218.8622 2.0443 1.4387 3.30087 1.4387h6.30914c1.2566 0 2.4387-.5765 3.3009-1.4387s1.4387-2.0443 1.4387-3.3009v-6.1992c0-1.233-1.0068-2.23979-2.2398-2.23979h-.3663v-2.54418c0-2.88583-2.3986-5.28443-5.2845-5.28443-2.88582 0-5.28442 2.3986-5.28442 5.28443zm5.28442-4.28443c-2.3335 0-4.28442 1.95089-4.28442 4.28443v2.54418h8.56892v-2.54418c0-2.33354-1.9509-4.28443-4.2845-4.28443zm-5.65791 7.8286h.85181c.00719.0003.01442.0005.02168.0005h9.56892c.0072 0 .0144-.0002.0216-.0005h.8447c.6807 0 1.2398.5591 1.2398 1.2398v6.1992c0 .9502-.4399 1.8879-1.1458 2.5938s-1.6436 1.1458-2.5938 1.1458h-6.30914c-.9502 0-1.88787-.4399-2.59377-1.1458s-1.14579-1.6436-1.14579-2.5938v-6.1992c0-.6807.55905-1.2398 1.23979-1.2398z" fill-rule="evenodd"/><path d="m12.3954 16.4403c.5766 0 1.0439-.4674 1.0439-1.0439s-.4673-1.0439-1.0439-1.0439c-.5765 0-1.0438.4674-1.0438 1.0439s.4673 1.0439 1.0438 1.0439z"/><path clip-rule="evenodd" d="m12.3954 14.8525c-.3003 0-.5438.2435-.5438.5439s.2435.5439.5438.5439c.3004 0 .5439-.2435.5439-.5439s-.2435-.5439-.5439-.5439zm-1.5438.5439c0-.8526.6912-1.5439 1.5438-1.5439.8527 0 1.5439.6913 1.5439 1.5439 0 .8527-.6912 1.5439-1.5439 1.5439-.8526 0-1.5438-.6912-1.5438-1.5439z" fill-rule="evenodd"/></g></svg>