<svg fill="none" height="26" viewBox="0 0 25 26" width="25" xmlns="http://www.w3.org/2000/svg"><path clip-rule="evenodd" d="m16.503 2.85383c-.0938-.12354-.2396-.19657-.3947-.19769s-.3019.0698-.3975.19198l-3.0738 3.93065c-.7144.67604-.5365 1.61859-.1191 2.16355.1514.19773.3552.37584.5976.485l-1.0206 1.49398-1.1822-1.11608c-.1015-.13921-.2372-.21856-.3345-.26131-.1247-.05476-.2636-.08407-.3917-.08407-.28762 0-.51813.14306-.68593.30737l-6.32426 5.97009c-.20081.1896-.20992.506-.02037.7068.18956.2008.50601.2099.70682.0204l.22709-.2144v5.7112c0 .2761.22385.5.5.5h3.03277c.27614 0 .5-.2239.5-.5 0-.2762-.22386-.5-.5-.5h-2.53277v-6.1552l5.09665-4.8112 5.2114 4.9195v6.0473h-4.4799c-.2762 0-.5.2239-.5.5 0 .2762.2238.5.5.5h4.9799c.2761 0 .5-.2238.5-.5v-2.9059h3.9904c.6872 0 1.1339-.4959 1.3054-1.0044.1673-.496.1234-1.126-.2669-1.5975l-1.2352-1.8598c.2227-.0949.4125-.249.558-.4237.4335-.52.6173-1.4106.0396-2.1281l-1.7671-2.58679c.2501-.10197.4597-.27803.6138-.48114.4289-.56508.5329-1.4881-.1453-2.18436zm-.1051 13.50457v1.6974h3.9904c.133 0 .2788-.0895.3579-.324.0801-.2375.0378-.4934-.0976-.6495-.014-.0162-.027-.0332-.0388-.051l-1.914-2.8818c-.1471-.2216-.0951-.5195.1184-.678.2134-.1586.5137-.1224.6832.0824.1164.1406.197.142.2315.1389.0577-.0051.1551-.0457.2525-.1626.2007-.2407.2453-.5996.0218-.8694-.0098-.0119-.0191-.0242-.0278-.0369l-2.4607-3.60224c-.1479-.21646-.1035-.51037.1017-.67347s.5016-.14002.6791.0529c.1349.14667.2323.15218.2824.1461.0698-.00845.1707-.05776.2615-.17741.1807-.23806.2164-.60413-.0785-.89551-.0169-.01666-.0325-.03449-.0468-.05337l-2.6153-3.44556-2.699 3.45128c-.018.02302-.038.04442-.0597.06395-.2478.22255-.2423.56435-.0283.84372.1035.13523.215.19195.2831.20246.0371.00572.1066.00976.2108-.11601.1704-.20579.4724-.24126.6859-.08053.2134.16072.2627.46083.112.68145l-1.7724 2.59464 4.3654 4.121c.2009.1896.21.506.0204.7068-.1895.2008-.506.2099-.7068.0204zm-13.58931-10.14563c0-.27614.22386-.5.5-.5.61769 0 1.17177.26819 1.54726.6961.37532-.42788.92922-.6961 1.54698-.6961.27614 0 .5.22386.5.5s-.22386.5-.5.5c-.58895 0-1.04688.4611-1.04688 1.02896 0 .27614-.22385.5-.5.5-.27614 0-.5-.22386-.5-.5 0-.56766-.4582-1.02896-1.04736-1.02896-.27614 0-.5-.22386-.5-.5zm11.19531 10.38083c.2761 0 .5-.2238.5-.5 0-.2761-.2239-.5-.5-.5s-.5.2239-.5.5c0 .2762.2239.5.5.5zm4.4727 5.3682c0 .2761-.2239.5-.5.5-.2762 0-.5-.2239-.5-.5 0-.2762.2238-.5.5-.5.2761 0 .5.2238.5.5zm-9.25394.5c.27614 0 .5-.2239.5-.5 0-.2762-.22386-.5-.5-.5-.27615 0-.5.2238-.5.5 0 .2761.22385.5.5.5z" fill="#18303f" fill-rule="evenodd"/></svg>