<svg fill="none" height="26" viewBox="0 0 25 26" width="25" xmlns="http://www.w3.org/2000/svg"><path clip-rule="evenodd" d="m18.8437 4.43555c-.8284 0-1.5.67157-1.5 1.5v.72531l-5.2573-1.96168c-.9802-.36576-2.0244.3591-2.0244 1.40536v3.56259c-.29842-.10617-.63518-.11945-.96857-.00969l-5.61142 1.84736c-.20507.0675-.34364.259-.34364.4749v11.1122c0 .2761.22385.5.5.5h6.92363.0005 10.8086c.2761 0 .5-.2239.5-.5v-13.70042c0-.62617-.389-1.18646-.9756-1.40536l-.3955-.14756v-1.90301c0-.82843-.6716-1.5-1.5-1.5zm.6563 3.02988v-1.52988c0-.27615-.2239-.5-.5-.5h-.1563c-.2761 0-.5.22385-.5.5v.9375c0 .05305-.0082.10417-.0235.15215zm-7.7632-1.82934c-.3267-.12192-.6748.11969-.6748.46845v4.93936c.0003.0128.0005.0255.0005.0383v11.5097h1.0508v-2.6905c0-.6904.5596-1.25 1.25-1.25h5.0819c.6903 0 1.25.5596 1.25 1.25v.2225c0 .2761-.2239.5-.5.5-.2762 0-.5-.2239-.5-.5v-.2225c0-.1381-.112-.25-.25-.25h-1.9765v2.9405h2.7265.0039 1.672v-13.20042c0-.20872-.1297-.39549-.3252-.46845zm1.6265 14.01531h2.1054v2.9405h-2.3554v-2.6905c0-.1381.1119-.25.25-.25zm-3.3013-8.5913v11.5318h-1.12616v-2.4689c0-.8284-.67157-1.5-1.5-1.5h-.6875c-.82843 0-1.5.6716-1.5 1.5v2.4689h-1.10997v-10.2504l5.26777-1.7342c.31639-.1042.64186.1241.65586.4528zm9.1333 11.062c.2761 0 .5-.2239.5-.5 0-.2762-.2239-.5-.5-.5s-.5.2238-.5.5c0 .2761.2239.5.5.5zm-12.44696-2.4991c-.27614 0-.5.2239-.5.5v2.4688h1.6875v-2.4688c0-.2761-.22386-.5-.5-.5zm7.90786-6.0781c0-.5436.4408-.9844.9844-.9844.5437 0 .9844.4408.9844.9844 0 .5437-.4407.9844-.9844.9844-.5436 0-.9844-.4407-.9844-.9844zm.9844-1.9844c-1.0959 0-1.9844.8885-1.9844 1.9844 0 1.096.8885 1.9844 1.9844 1.9844 1.096 0 1.9844-.8884 1.9844-1.9844 0-1.0959-.8884-1.9844-1.9844-1.9844z" fill="#18303f" fill-rule="evenodd"/></svg>