<svg height="15" width="15" xmlns="http://www.w3.org/2000/svg" xmlns:xlink="http://www.w3.org/1999/xlink"><defs><path id="a" d="m0 0h15v15h-15z"/><linearGradient id="b" x1="50%" x2="50%" y1="0%" y2="100%"><stop offset="0" stop-color="#083d7a"/><stop offset="1" stop-color="#032f61"/></linearGradient><linearGradient id="c" x1="50%" x2="50%" y1="0%" y2="100%"><stop offset="0" stop-color="#df1e35"/><stop offset="1" stop-color="#cc162c"/></linearGradient><linearGradient id="d" x1="50%" x2="50%" y1="0%" y2="100%"><stop offset="0" stop-color="#f0f0f0"/><stop offset="1" stop-color="#f0f0f0"/></linearGradient><mask id="e" fill="#f0f0f0"><use fill="#f0f0f0" fill-rule="evenodd" xlink:href="#a"/></mask></defs><g fill="none" fill-rule="evenodd"><g fill-rule="nonzero"><use fill="#d8d8d8" xlink:href="#a"/><path d="m-3 0h9v6h-9zm12 9h9v6h-9z" fill="url(#b)" mask="url(#e)"/><path d="m-3 9h9v6h-9zm12-9h9v6h-9z" fill="url(#c)" mask="url(#e)"/></g><path d="m6 6h-9v3h9v6h3v-6h9v-3h-9v-6h-3z" fill="url(#d)" mask="url(#e)"/><path d="m6.44 6.44a1.5 1.5 0 0 0 2.12 2.12 1.5 1.5 0 0 0 0-2.12" fill="#c93127" fill-opacity=".2" mask="url(#e)"/><circle cx="7.5" cy="7.5" fill="#042f60" mask="url(#e)" r="1"/><path d="m8.56 8.56a1.5 1.5 0 0 1 -2.12-2.12l.353.353a1 1 0 1 0 1.414 0l.354-.354a1.5 1.5 0 0 1 0 2.122zm0 0a1.5 1.5 0 0 1 -2.12-2.12l.353.353a1 1 0 1 0 1.414 0l.354-.354a1.5 1.5 0 0 1 0 2.122z" fill="#0f6d1a" fill-rule="nonzero" mask="url(#e)"/></g></svg>