<svg height="15" width="15" xmlns="http://www.w3.org/2000/svg" xmlns:xlink="http://www.w3.org/1999/xlink"><linearGradient id="a" x1="50%" x2="50%" y1="0%" y2="100%"><stop offset="0" stop-color="#112ebc"/><stop offset="1" stop-color="#0620a0"/></linearGradient><linearGradient id="b" x1="50%" x2="50%" y1="0%" y2="100%"><stop offset="0" stop-color="#e3264a"/><stop offset="1" stop-color="#d20f34"/></linearGradient><linearGradient id="c" x1="50%" x2="50%" y1="0%" y2="100%"><stop offset="0" stop-color="#f0f0f0"/><stop offset="1" stop-color="#f0f0f0"/></linearGradient><mask id="d" fill="#f0f0f0"><rect fill="#f0f0f0" fill-rule="evenodd" height="6" rx=".5" width="7"/></mask><mask id="e" fill="#f0f0f0"><rect fill="#f0f0f0" fill-rule="evenodd" height="6" rx=".5" width="7"/></mask><mask id="f" fill="#f0f0f0"><rect fill="#f0f0f0" fill-rule="evenodd" height="6" rx=".5" width="7"/></mask><mask id="g" fill="#f0f0f0"><rect fill="#f0f0f0" fill-rule="evenodd" height="6" rx=".5" width="7"/></mask><g fill="none" fill-rule="evenodd"><path d="m0 0h15v7h-15z" fill="url(#a)"/><path d="m0 7h15v8h-15z" fill="url(#b)"/><rect fill="url(#c)" height="6" rx=".5" transform="translate(4 5)" width="7"/><g mask="url(#d)" transform="translate(4 5)"><path d="m0 5 1.105-.553c.495-.247 1.338-.447 1.895-.447h1.002c.552 0 1.404.202 1.894.447l1.104.553v1h-7z" fill="#aabcae"/><path d="m.25 5.155v.595h6.5v-.595l-.967-.484c-.457-.228-1.27-.421-1.783-.421h-1.001c-.516 0-1.321.19-1.782.421z" stroke="#366c14" stroke-width=".5"/></g><circle cx="3.5" cy="2.5" fill="#d4b872" mask="url(#e)" r="1.5" transform="translate(4 5)"/><g mask="url(#f)" transform="translate(4 5)"><path d="m1 3.006c0-.28.18-.362.39-.193l1.72 1.374a.66.66 0 0 0 .78 0l1.72-1.375c.215-.172.39-.081.39.194v1.488c0 .28-.215.506-.498.506h-4.004a.505.505 0 0 1 -.498-.506z" fill="#c28321"/><path d="m1.25 3.02v1.474c0 .14.114.256.248.256h4.004c.14 0 .248-.11.248-.256v-1.474l-1.703 1.363a.91.91 0 0 1 -1.094 0z" stroke="#0d3488" stroke-width=".5"/></g><path d="m2.172 1.172c-.095-.095-.058-.172.084-.172h2.488c.141 0 .175.08.084.172l-1.156 1.156a.247.247 0 0 1 -.344 0z" fill="#216c30" mask="url(#g)" transform="translate(4 5)"/></g></svg>