<svg height="15" width="15" xmlns="http://www.w3.org/2000/svg" xmlns:xlink="http://www.w3.org/1999/xlink"><defs><linearGradient id="a" x1="50%" x2="50%" y1="0%" y2="100%"><stop offset="0" stop-color="#f0f0f0"/><stop offset="1" stop-color="#f0f0f0"/></linearGradient><path id="b" d="m0 0h15v15h-15z"/><linearGradient id="c" x1="50%" x2="50%" y1="0%" y2="100%"><stop offset="0" stop-color="#38bb56"/><stop offset="1" stop-color="#2b9f45"/></linearGradient><linearGradient id="d" x1="50%" x2="50%" y1="0%" y2="100%"><stop offset="0" stop-color="#de1b27"/><stop offset="1" stop-color="#d80915"/></linearGradient><mask id="e" fill="#f0f0f0"><use fill="#f0f0f0" fill-rule="evenodd" xlink:href="#b"/></mask></defs><g fill="none" fill-rule="evenodd"><use fill="url(#a)" xlink:href="#b"/><path d="m-3 0h21v5h-21z" fill="url(#c)" mask="url(#e)"/><path d="m-3 10h21v5h-21z" fill="url(#d)" mask="url(#e)"/><path d="m-3 5h21v5h-21z" fill="url(#a)" mask="url(#e)"/><path d="m0 4.252c0-.139.107-.252.252-.252h.496c.139 0 .252.107.252.252v.496a.248.248 0 0 1 -.252.252h-.496a.249.249 0 0 1 -.252-.252zm2 0c0-.139.107-.252.252-.252h.496c.139 0 .252.107.252.252v.496a.248.248 0 0 1 -.252.252h-.496a.249.249 0 0 1 -.252-.252zm2 0c0-.139.107-.252.252-.252h.496c.139 0 .252.107.252.252v.496a.248.248 0 0 1 -.252.252h-.496a.249.249 0 0 1 -.252-.252zm2 0c0-.139.107-.252.252-.252h.496c.139 0 .252.107.252.252v.496a.248.248 0 0 1 -.252.252h-.496a.249.249 0 0 1 -.252-.252zm1 0c0-.139.107-.252.252-.252h.496c.139 0 .252.107.252.252v.496a.248.248 0 0 1 -.252.252h-.496a.249.249 0 0 1 -.252-.252zm0 0c0-.139.107-.252.252-.252h.496c.139 0 .252.107.252.252v.496a.248.248 0 0 1 -.252.252h-.496a.249.249 0 0 1 -.252-.252zm1 0c0-.139.107-.252.252-.252h.496c.139 0 .252.107.252.252v.496a.248.248 0 0 1 -.252.252h-.496a.249.249 0 0 1 -.252-.252zm2 0c0-.139.107-.252.252-.252h.496c.139 0 .252.107.252.252v.496a.248.248 0 0 1 -.252.252h-.496a.249.249 0 0 1 -.252-.252zm2 0c0-.139.107-.252.252-.252h.496c.139 0 .252.107.252.252v.496a.248.248 0 0 1 -.252.252h-.496a.249.249 0 0 1 -.252-.252zm2 0c0-.139.107-.252.252-.252h.496c.139 0 .252.107.252.252v.496a.248.248 0 0 1 -.252.252h-.496a.249.249 0 0 1 -.252-.252zm-14 6c0-.139.107-.252.252-.252h.496c.139 0 .252.107.252.252v.496a.248.248 0 0 1 -.252.252h-.496a.249.249 0 0 1 -.252-.252zm2 0c0-.139.107-.252.252-.252h.496c.139 0 .252.107.252.252v.496a.248.248 0 0 1 -.252.252h-.496a.249.249 0 0 1 -.252-.252zm2 0c0-.139.107-.252.252-.252h.496c.139 0 .252.107.252.252v.496a.248.248 0 0 1 -.252.252h-.496a.249.249 0 0 1 -.252-.252zm2 0c0-.139.107-.252.252-.252h.496c.139 0 .252.107.252.252v.496a.248.248 0 0 1 -.252.252h-.496a.249.249 0 0 1 -.252-.252zm1 0c0-.139.107-.252.252-.252h.496c.139 0 .252.107.252.252v.496a.248.248 0 0 1 -.252.252h-.496a.249.249 0 0 1 -.252-.252zm0 0c0-.139.107-.252.252-.252h.496c.139 0 .252.107.252.252v.496a.248.248 0 0 1 -.252.252h-.496a.249.249 0 0 1 -.252-.252zm1 0c0-.139.107-.252.252-.252h.496c.139 0 .252.107.252.252v.496a.248.248 0 0 1 -.252.252h-.496a.249.249 0 0 1 -.252-.252zm2 0c0-.139.107-.252.252-.252h.496c.139 0 .252.107.252.252v.496a.248.248 0 0 1 -.252.252h-.496a.249.249 0 0 1 -.252-.252zm2 0c0-.139.107-.252.252-.252h.496c.139 0 .252.107.252.252v.496a.248.248 0 0 1 -.252.252h-.496a.249.249 0 0 1 -.252-.252zm2 0c0-.139.107-.252.252-.252h.496c.139 0 .252.107.252.252v.496a.248.248 0 0 1 -.252.252h-.496a.249.249 0 0 1 -.252-.252z" fill="#f0f0f0" fill-opacity=".5" fill-rule="nonzero" mask="url(#e)"/><g mask="url(#e)"><g transform="translate(6 6)"><path d="m.591.642a1.25 1.25 0 1 0 1.83.014z" stroke="#d80915" stroke-width=".5"/><rect fill="#d80915" height="2" rx=".5" width="1" x="1" y="1"/></g></g></g></svg>