<svg fill="none" height="25" viewBox="0 0 26 25" width="26" xmlns="http://www.w3.org/2000/svg"><g clip-rule="evenodd" fill="#18303f" fill-rule="evenodd"><path d="m20 2.99961c0-1.11992.9698-1.9 2-1.9s2 .78008 2 1.9-.9698 1.9-2 1.9c-.4383 0-.8435-.15292-1.1698-.38842l-3.2194 3.55824c.2415.3074.3892.69276.3892 1.12989 0 1.11988-.9698 1.89998-2 1.89998s-2-.7801-2-1.89998c0-.05454.0023-.10827.0068-.16114l-2.3132-.72287c-.3669.54788-1.0172.8841-1.6936.8841-.40403 0-.79877-.11997-1.12935-.33338l-3.044 2.45207c.11057.2337.17335.4967.17335.7816 0 1.1199-.96977 1.9-2 1.9s-2-.7801-2-1.9.96977-1.9 2-1.9c.42156 0 .833.1306 1.17201.3617l3.02337-2.4355c-.12423-.24473-.19538-.52314-.19538-.82649 0-1.11992.96977-1.9 2-1.9 1.0302 0 2 .78008 2 1.9 0 .02133-.0004.04254-.001.06362l2.3651.7391c.3749-.49966.9937-.80281 1.6359-.80281.2806 0 .5567.05787.81.16473l3.3671-3.72155c-.1112-.22846-.1771-.48042-.1771-.74289zm2-.9c-.5698 0-1 .41992-1 .9 0 .18565.0971.41166.2952.60082.1953.18644.4507.29918.7048.29918.5698 0 1-.41992 1-.9s-.4302-.9-1-.9zm-11 5.1998c0 .03614-.0024.07193-.0072.10723-.0307.04253-.0551.09064-.0716.14344-.0149.04768-.0223.09591-.0229.14342-.1598.29441-.4939.50591-.8983.50591-.25123 0-.47533-.08164-.64738-.21408-.0165-.03471-.0373-.06805-.06246-.09929-.04187-.05198-.09202-.09337-.14702-.12382-.09139-.13702-.14314-.2963-.14314-.46281 0-.48008.43023-.9 1-.9.5698 0 1 .41992 1 .9zm-8 4.80029c0-.4801.43023-.9 1-.9s1 .4199 1 .9-.43023.9-1 .9-1-.4199-1-.9zm12-2.90038c0-.48008.4302-.9 1-.9s1 .41992 1 .9-.4302.89998-1 .89998-1-.4199-1-.89998z"/><path d="m20.2839 8.98365c.1939-.19389.4525-.28394.7161-.28394h2c.2636 0 .5222.09005.7161.28394.1938.19389.2839.45243.2839.71606v13.39989h.5c.2761 0 .5.2239.5.5 0 .2762-.2239.5-.5.5h-.9899l-.0101.0001h-3l-.0101-.0001h-18.9899c-.27614 0-.5-.2238-.5-.5 0-.2761.22386-.5.5-.5h.5v-3.8003c0-.2636.09006-.5221.28395-.716s.45243-.284.71605-.284h2c.26362 0 .52216.0901.71605.284s.28395.4524.28395.716v3.8003h2v-8.6001c0-.2636.09006-.5222.28395-.716.19389-.1939.45243-.284.71605-.284h2c.2636 0 .5222.0901.7161.284.1938.1938.2839.4524.2839.716v8.6001h2v-6.7002c0-.2636.0901-.5221.2839-.716.1939-.1939.4525-.284.7161-.284h2c.2636 0 .5222.0901.7161.284.1938.1939.2839.4524.2839.716v6.7002h2v-13.39989c0-.26363.0901-.52217.2839-.71606zm2.7161.71606v13.39989h-2v-13.39989zm-12 4.79979h-2v8.6h2zm-8 8.5998v-3.8h2v3.8zm12-6.6999h2v6.7h-2z"/></g></svg>