<svg fill="none" height="15" viewBox="0 0 15 15" width="15" xmlns="http://www.w3.org/2000/svg"><path clip-rule="evenodd" d="m12.3464 7.47421.7392-.73611c.3229-.32152.4816-.77177.4311-1.22369l-.2694-2.4146c-.0776-.69579-.6293-1.24505-1.328-1.32236l-2.42489-.26829c-.45385-.05021-.90602.10773-1.22892.42925l-6.35158 6.32463c-.58703.58454-.58704 1.53227 0 2.11676l2.69432 2.6829c.58703.5846 1.53879.5846 2.12583 0l3.18639-3.17284c.14345.04824.29645.07498.45845.07498.5728 0 1.0372-.33763 1.354-.77063.3188-.43567.5295-1.01557.6096-1.64663.0031-.0247.0044-.0492.0039-.07337zm-.0951-4.2642c-.0259-.23193-.2098-.41502-.4427-.44079l-2.42486-.26829c-.15128-.01674-.302.03591-.40964.14309l-6.35158 6.32463c-.19568.19484-.19568.51075-.00001.7056l2.69433 2.68285c.19568.1949.51293.1949.70861 0l3.07662-3.06353c-.07818-.09585-.14915-.19801-.21257-.30371-.32548-.54248-.51059-1.25962-.51059-2.02502 0-.76539.18511-1.48254.51059-2.02501.29375-.48958.74939-.90304 1.3329-.96654.2284-.19909.576-.19021.7937.02664.2271.22611.2271.59271 0 .81882-.1581.15752-.3848.2053-.5845.14335-.0173.00182-.0349.00274-.0527.00274-.1696 0-.40853.11718-.63191.48948-.21741.36235-.36808.89521-.36808 1.51052 0 .61532.15067 1.14817.36808 1.51052.02299.03831.04613.07391.06935.10697l2.56066-2.54983c.1077-.10717.1605-.25725.1437-.4079z" fill="#2d3436" fill-rule="evenodd"/></svg>