<svg fill="none" height="25" viewBox="0 0 25 25" width="25" xmlns="http://www.w3.org/2000/svg"><g fill="#2d3436"><path d="m5 1.5c-1.38071 0-2.5 1.11929-2.5 2.5 0 .27614.22386.5.5.5s.5-.22386.5-.5c0-.82843.67157-1.5 1.5-1.5h11c.8284 0 1.5.67157 1.5 1.5 0 .27614.2239.5.5.5s.5-.22386.5-.5c0-1.38071-1.1193-2.5-2.5-2.5z"/><path d="m19.5 2.5c-.2761 0-.5.22386-.5.5s.2239.5.5.5c1.6569 0 3 1.34315 3 3s-1.3431 3-3 3h-.5c-.2761 0-.5.22386-.5.5 0 .2761.2239.5.5.5h.5c2.2091 0 4-1.79086 4-4s-1.7909-4-4-4z"/><path d="m4.5 4.40918c-.27614 0-.5.22386-.5.5s.22386.5.5.5h12c.2761 0 .5-.22386.5-.5s-.2239-.5-.5-.5z"/><path d="m3.49997 5.99412c-.00325-.27612-.22973-.49733-.50585-.49409-.27612.00325-.49733.22973-.49408.50585.05203 4.42432 2.49726 8.23272 5.93084 9.35482v5.3327c0 .3714.24675.6266.49882.7345.25176.1078.57555.1044.84624-.0804l2.44216-1.668c.2061-.1408.3527-.3767.3527-.6541v-3.6658c3.4327-1.1227 5.8771-4.9301 5.9292-9.35372.0032-.27612-.218-.5026-.4941-.50585-.2761-.00324-.5026.21797-.5059.49409-.0501 4.26078-2.4774 7.69248-5.5574 8.50888-.2192.0581-.3718.2565-.3718.4833v3.9243l-2.13992 1.4615v-5.3848c0-.2269-.15273-.4253-.37202-.4833-3.08065-.8157-5.50877-4.2484-5.55889-8.50988z"/><path d="m8.98828 23.5195c.27614 0 .5-.2238.5-.5 0-.2761-.22386-.5-.5-.5s-.5.2239-.5.5c0 .2762.22386.5.5.5z"/></g></svg>