<svg fill="none" height="15" viewBox="0 0 15 15" width="15" xmlns="http://www.w3.org/2000/svg" xmlns:xlink="http://www.w3.org/1999/xlink"><clipPath id="a"><path d="m0 0h15v15h-15z"/></clipPath><g clip-path="url(#a)" fill="#2d3436"><path d="m3.54596.634464c-2.16736.259748-3.828541 2.464016-3.5057337 4.652986.3226547 2.19661 2.5119037 5.11905 6.0725737 8.10635 1.15516.9703 1.28343 1.0545 1.49986.9894.12459-.0344.46209-.298 1.26873-.9704.80679-.6799.82515-.699.82515-.9168 0-.2866-.17602-.4814-.4327-.4814-.13194 0-.23464.0764-1.08919.7945-.35572.2981-.66016.5425-.67837.5425-.01837 0-.35939-.2712-.75903-.6074-3.10226-2.5861-5.08992-4.99274-5.67294-6.87619-.223774-.71817-.249335-1.24915-.091681-1.95202.286071-1.29124 1.375111-2.25768 2.647661-2.36085 1.14781-.09168 2.11593.3095 2.75037 1.13849.3998.5195.61608 1.11936.68205 1.88712.02938.35909.03673.3897.14663.48904.20174.1872.39245.1872.59403 0 .11005-.09934.1174-.12995.14664-.48904.10637-1.22635.64546-2.13554 1.57317-2.66269.72982-.41267 1.73452-.4967 2.55602-.21016 1.1002.37822 1.8335 1.30272 2.0132 2.52891.099.66093.0037 1.26063-.319 2.06284-.1834.45093-.187.46624-.1393.61517.0954.28653.4033.40501.6491.24826.1358-.08403.3008-.42781.4842-.99323.1834-.58072.2348-.88623.231-1.47078 0-.44695-.0184-.59604-.0954-.90538-.3632-1.444-1.4596-2.61677-2.8202-3.025605-1.3898-.416331-2.8457.015307-3.89448 1.161295-.23464.25608-.57199.72965-.66.92833-.01837.03444-.02571.03444-.04408 0-.08434-.19103-.42169-.66476-.64546-.91303-.6747-.74496-1.54379-1.199555-2.49721-1.310375-.38862-.045763-.40332-.045764-.79561.000159z"/><path d="m9.03921 6.19277c-.08066.04209-.24199.3476-.7774 1.4593-.42169.87492-.68572 1.37911-.69674 1.34467-.01469-.03429-.13944-.42016-.27872-.85961-.27506-.87476-.35939-1.0315-.56832-1.07344-.22378-.04209-.31531.01531-.75169.46608l-.42551.43547h-.39597c-.42536 0-.55378.03827-.66016.20633-.08434.13362-.07699.40884.01469.52715.12475.16806.23832.19102.85807.17572l.56847-.01148.23465-.24062c.12474-.12995.23831-.23678.25301-.23678.01102 0 .16867.45077.34469 1.00088.17602.55394.34102 1.05046.37041 1.10786.09536.2025.38143.2789.59771.1642.09168-.0495.2201-.2903.78107-1.45926.37041-.76776.68205-1.38293.69307-1.3638.01102.01914.34469 1.0543.74434 2.29976.68942 2.166.72982 2.2692.83982 2.3419.154.0993.3887.0955.5134-.0076.066-.0573.3704-.6457.9424-1.8338l.8398-1.75345h.8032c.7737 0 .8031-.00383.924-.08786.2567-.17954.2567-.56159 0-.74113-.1209-.08786-.143-.08786-1.1184-.08786-.9241 0-1.001.00382-1.1111.07638-.1027.06107-.2238.28653-.7811 1.45165-.363.75647-.6673 1.37527-.6747 1.37527-.0073 0-.3336-.99322-.7224-2.20809-.3851-1.21104-.72615-2.25003-.75554-2.30744-.09535-.2025-.39597-.2827-.60505-.1604z"/></g></svg>