<svg fill="none" height="25" viewBox="0 0 25 25" width="25" xmlns="http://www.w3.org/2000/svg"><path clip-rule="evenodd" d="m4.5 9.24092c0-4.2916 3.59843-7.74092 8-7.74092 4.4016 0 8 3.44932 8 7.74092 0 .44468-.0388.88098-.1134 1.30578-.5904 5.2563-3.4451 9.85-7.5931 12.8581-.1751.1269-.412.1269-.5871 0-4.1487-3.0086-7.00364-7.6033-7.59343-12.8606-.07432-.4241-.11297-.85951-.11297-1.30328zm8-6.74092c-3.88271 0-7 3.03445-7 6.74092 0 .39049.03443.77288.10042 1.14458.0019.0106.00344.0214.00464.0321.53892 4.8428 3.11563 9.1026 6.89484 11.9603 3.7787-2.8571 6.3552-7.1161 6.8946-11.958.0012-.0108.0028-.0215.0047-.0322.0662-.3723.1008-.75546.1008-1.14678 0-3.70647-3.1173-6.74092-7-6.74092zm0 4.34455c-1.3974 0-2.5 1.08934-2.5 2.39637 0 1.30708 1.1026 2.39638 2.5 2.39638s2.5-1.0893 2.5-2.39638c0-1.30703-1.1026-2.39637-2.5-2.39637zm-3.5 2.39637c0-1.89216 1.5837-3.39637 3.5-3.39637s3.5 1.50421 3.5 3.39637c0 1.89218-1.5837 3.39638-3.5 3.39638s-3.5-1.5042-3.5-3.39638z" fill="#18303f" fill-rule="evenodd"/></svg>