<svg fill="none" height="25" viewBox="0 0 25 25" width="25" xmlns="http://www.w3.org/2000/svg"><path d="m23.4162 6.96096c-.1601-.67051-.981-.81741-1.4684-.32996l-2.0652 2.06521c-.1876.18753-.4419.29289-.7072.29289h-1.6367c-.5523 0-1-.44771-1-1v-1.63672c0-.26521.1054-.51957.2929-.7071l2.0652-2.06521c.4875-.48745.3409-1.30916-.3294-1.47002-2.2188-.53243-4.6103.1045-6.3 1.79417-1.8468 1.84682-2.3521 4.53211-1.4397 6.91388.1644.4293.0787.9269-.2663 1.2308l-8.59034 7.5666c-.81358.8135-.71188 2.0339 0 2.8475.81358.8136 2.03395.8136 2.84754 0l8.6634-7.6309c.31-.273.7536-.3203 1.1379-.1689 2.4038.9468 5.1336.3738 7.0037-1.4028 1.6914-1.6068 2.3279-4.05748 1.7926-6.29944z" stroke="#2d3436" stroke-linecap="round" stroke-linejoin="round"/></svg>