<svg fill="none" height="25" viewBox="0 0 25 25" width="25" xmlns="http://www.w3.org/2000/svg"><path d="m11.7326 16.1793v-1.7711h-9.54217v1.7695c0 1.0787.95362 1.9532 2.12996 1.9532h5.2823c1.17581 0 2.12901-.8736 2.12991-1.9516z" fill="#f18303"/><g fill="#2d3436"><path clip-rule="evenodd" d="m8.19811.472656h-2.46007c-.69587 0-1.26.564124-1.26 1.260004v.7828c0 .18609-.15085.33695-.33695.33695-1.11561 0-2.02.90438-2.02 2.02v11.30089c0 1.1156.90439 2.02 2.02 2.02h5.65441c1.1156 0 2.02-.9044 2.02-2.02v-11.30089c0-1.11562-.9044-2.02-2.02-2.02-.18634 0-.33739-.15106-.33739-.33739v-.78236c0-.69588-.56412-1.260004-1.26-1.260004zm-2.46007 1.000004h2.46007c.14359 0 .26.1164.26.26v.78236c0 .73861.59876 1.33739 1.33739 1.33739.5633 0 1.02.45667 1.02 1.02v11.30089c0 .5633-.4567 1.02-1.02 1.02h-5.65441c-.56333 0-1.02-.4567-1.02-1.02v-11.30089c0-.56333.45667-1.02 1.02-1.02.73838 0 1.33695-.59858 1.33695-1.33695v-.7828c0-.1436.11641-.26.26-.26z" fill-rule="evenodd"/><path d="m8.89423 22.6821c4.34937.566 7.47477.5835 11.77237.0107 1.0723-.1429 1.912-.9952 2.0442-2.072.5228-4.2569.5523-7.3685.0093-11.78123-.1342-1.09011-.997-1.94641-2.0878-2.07169-2.3011-.26428-4.2903-.38127-6.2918-.35895-.006.00006-.0294.00211-.0675.00543-.1607.01399-.5807.05058-1.0409.0567-.2761.00368-.5029-.21718-.5066-.4933-.0036-.27612.2172-.50293.4933-.50661.5002-.05876 1.0268-.06174 1.1117-.06222l.01-.00006c2.0469-.02231 4.0754.09788 6.4059.36554 1.5501.17803 2.7757 1.3948 2.9662 2.94302.5535 4.49727.5231 7.69107-.0092 12.02527-.1874 1.5254-1.378 2.7379-2.9046 2.9414-4.3889.5849-7.6022.5663-12.03362-.0104-1.52717-.1987-2.72764-1.4031-2.92293-2.9303-.01527-.1194-.03393-.2525-.05291-.388-.03849-.2747-.07833-.559-.09403-.758.00285-.2761.229-.4977.50513-.4948.27613.0028.49766.229.49482.5051.0126.2122.05077.446.08651.6649.0198.1213.03885.238.0524.344.13769 1.0767.98404 1.9254 2.06006 2.0655z"/><path d="m15.8223 20.5316c-.2761 0-.5.2238-.5.5 0 .2761.2239.5.5.5.2762 0 .5-.2239.5-.5 0-.2762-.2238-.5-.5-.5z"/><path d="m13.7403 20.5316c-.2762 0-.5.2238-.5.5 0 .2761.2238.5.5.5.2761 0 .5-.2239.5-.5 0-.2762-.2239-.5-.5-.5z"/><path d="m16.8653 21.5726c-.2762 0-.5.2238-.5.5 0 .2761.2238.5.5.5.2761 0 .5-.2239.5-.5 0-.2762-.2239-.5-.5-.5z"/><path d="m14.7833 21.5726c-.2762 0-.5.2238-.5.5 0 .2761.2238.5.5.5.2761 0 .5-.2239.5-.5 0-.2762-.2239-.5-.5-.5z"/><path d="m17.9083 9.07259c-.2762 0-.5.22386-.5.5s.2238.50001.5.50001c.2761 0 .5-.22387.5-.50001s-.2239-.5-.5-.5z"/><path d="m19.9903 9.07259c-.2762 0-.5.22386-.5.5s.2238.50001.5.50001c.2761 0 .5-.22387.5-.50001s-.2239-.5-.5-.5z"/><path d="m18.9473 8.03158c-.2761 0-.5.22385-.5.5 0 .27614.2239.5.5.5.2762 0 .5-.22386.5-.5 0-.27615-.2238-.5-.5-.5z"/><path d="m18.9473 10.1146c-.2761 0-.5.2238-.5.5 0 .2761.2239.5.5.5.2762 0 .5-.2239.5-.5 0-.2762-.2238-.5-.5-.5z"/><path d="m21.0333 8.03158c-.2762 0-.5.22385-.5.5 0 .27614.2238.5.5.5.2761 0 .5-.22386.5-.5 0-.27615-.2239-.5-.5-.5z"/><path d="m17.9083 6.98958c-.2762 0-.5.22386-.5.5 0 .27615.2238.5.5.5.2761 0 .5-.22385.5-.5 0-.27614-.2239-.5-.5-.5z"/><path d="m19.9903 6.98958c-.2762 0-.5.22386-.5.5 0 .27615.2238.5.5.5.2761 0 .5-.22385.5-.5 0-.27614-.2239-.5-.5-.5z"/><path d="m14.9814 10.5198c-.5027-.0254-.9882.0391-1.4414.1789-.2638.0814-.5437-.0665-.6252-.3304-.0814-.2638.0665-.54375.3304-.62516.5633-.17379 1.1655-.25347 1.7867-.22207 2.854.14427 5.0506 2.57483 4.9064 5.42873-.1443 2.854-2.5748 5.0506-5.4288 4.9064-.9149-.0463-1.7637-.328-2.4891-.7839-.2337-.1469-.3041-.4556-.1572-.6894s.4556-.3042.6894-.1572c.5842.3671 1.2677.5944 2.0074.6318 2.3024.1163 4.2632-1.6558 4.3795-3.9581.1164-2.3024-1.6557-4.2632-3.9581-4.3796z"/></g></svg>