<svg fill="none" height="40" viewBox="0 0 40 40" width="40" xmlns="http://www.w3.org/2000/svg"><path d="m17.6079 20.9802s-10.96752 8.3155-10.96752 10.2299 1.98745 3.6483 1.98745 3.6483 1.68167 2.2147 3.22007 2.3584c.705.0659 6.9505-4.4899 6.9505-4.4899s2.0749 2.1315 7.5627-2.8574 3.6898-6.7849 3.6898-6.7849 5.3356-5.3403 5.3356-6.0048c0-1.3296-1.8595-3.5829-1.8595-3.5829s-2.2539-2.3479-3.6737-2.4945c-1.448-.1495-12.2454 9.9778-12.2454 9.9778z" fill="#f0faff"/><path d="m8.61294 34.6556c-1.71276-1.9703-1.50397-4.9561.46633-6.6688l17.41393-15.1377c1.9703-1.7127 4.956-1.504 6.6687.4664z" fill="#d9eef9"/><g fill="#2d3436"><path d="m20.5697 2.70782c-.4418 0-.8.35818-.8.8 0 .44183.3582.8.8.8l10.3894.00001-.1473.88352c-.0726.43582.2218.848.6576.92063.4358.07264.848-.22177.9207-.65759l.1691-1.01505c.0074-.04419.011-.08814.011-.13151h5.922c.4418 0 .8-.35818.8-.8 0-.44183-.3582-.80001-.8-.80001z"/><path clip-rule="evenodd" d="m9.39336 26.8788c.02923.0293.06017.0558.09249.0796-.72721.5972-1.48413 1.2164-2.27738 1.8636l-.02041.0172c-1.53811 1.3429-1.69476 3.6543-.3519 5.1924l2.52547 2.8927c.49804.5704 1.42827.9533 2.31497 1.0755.9005.1241 2.015.0151 2.8566-.7056 1.3765-1.0554 2.6485-2.0423 3.8461-2.9878.3821.1888.8241.2151 1.2023.1852.5823-.0459 1.2593-.24 1.9822-.5448 1.4543-.6133 3.2435-1.7387 5.0995-3.3591 1.856-1.6203 3.2125-3.2413 4.0164-4.5996.3996-.6751.6832-1.3198.8073-1.8905.08-.3681.1137-.8059-.0184-1.2077 1.0984-1.0603 2.247-2.19 3.476-3.4161.7882-.7001 1.1356-1.6847 1.1686-2.6072.033-.921-.2432-1.8851-.838-2.5664l-2.5139-2.8794-.0034-.0039-.0015-.0017-.004-.0046-.0012-.0013-.0012-.0014c-.0175-.02-.0362-.0395-.0556-.0577-1.4396-1.35023-3.7097-1.5407-5.2576-.1893-.0077.0067-.0153.0136-.0227.0206-6.5398 6.167-10.6392 9.764-16.7306 14.7911-.0382-.0811-.0907-.157-.1576-.2241l-1.68638-1.6897c-.31211-.3127-.81864-.3132-1.13137-.0011s-.31324.8186-.00113 1.1314zm-1.35192 6.1005c-.759-.8693-.67416-2.1639.18965-2.9267 8.19251-6.6841 12.53951-10.4074 20.26861-17.6957.8544-.736 2.1709-.6872 3.0727.135l2.4975 2.8606c.277.3173.4657.8588.4444 1.4569-.0211.5884-.2412 1.1269-.6433 1.478-.0134.0116-.0263.0237-.0389.0363-7.4655 7.4487-11.919 11.2968-20.2909 17.7149-.0135.0104-.0267.0211-.0395.0323-.3612.3154-.9453.435-1.6067.3439-.6827-.0941-1.1816-.375-1.3281-.5428zm12.90066-.5068c-.1822.0769-.3534.1422-.5132.197 3.2721-2.6456 6.0629-5.0737 9.1273-7.9564-.0733.1446-.1575.2981-.2534.4601-.6978 1.179-1.9319 2.6728-3.6918 4.2093-1.7598 1.5364-3.4065 2.5577-4.6689 3.09z" fill-rule="evenodd"/><path d="m30.9697 8.79163c.4418 0 .8-.35734.8-.79815s-.3582-.79816-.8-.79816-.8.35735-.8.79816.3582.79815.8.79815z"/></g><circle cx="10.8586" cy="10.5837" fill="#f0faff" r="9"/><path clip-rule="evenodd" d="m11.4949 18.3758c3.866 0 7-3.134 7-7 0-3.86597-3.134-6.99998-7-6.99998-3.86602 0-7.00003 3.13401-7.00003 6.99998 0 3.866 3.13401 7 7.00003 7zm0 1.3904c3.9555-.1071 8.2581-5.088 8.2581-8.3904 0-4.97054-3.2876-8.99998-8.2581-8.99998-4.97059 0-9.00003 4.02944-9.00003 8.99998 0 4.9706 4.02944 8.3904 9.00003 8.3904z" fill="#d9eef9" fill-rule="evenodd"/><g fill="#2d3436"><path clip-rule="evenodd" d="m10.8587 18.4c4.316 0 7.8148-3.4988 7.8148-7.8148 0-4.31605-3.4988-7.81488-7.8148-7.81488-4.31603 0-7.81485 3.49883-7.81485 7.81488 0 4.316 3.49882 7.8148 7.81485 7.8148zm9.4148-7.8148c0 5.1996-4.2151 9.4148-9.4148 9.4148-5.19968 0-9.41485-4.2152-9.41485-9.4148 0-5.19971 4.21517-9.41488 9.41485-9.41488 5.1997 0 9.4148 4.21517 9.4148 9.41488z" fill-rule="evenodd"/><path d="m14.4413 12.9601c.3125.3124.3125.8189 0 1.1313-.3124.3125-.8189.3125-1.1313 0l-2.4264-2.4263-2.46958 2.4695c-.31241.3124-.81895.3124-1.13137 0-.31241-.3124-.31242-.8189 0-1.1314l2.46957-2.4695-2.36957-2.36958c-.31242-.31242-.31241-.81895 0-1.13137.31242-.31242.81896-.31242 1.13137 0l2.36958 2.36956 2.3264-2.32638c.3124-.31242.8189-.31242 1.1313 0 .3125.31242.3125.81895 0 1.13137l-2.3263 2.3264z"/></g></svg>