<svg fill="none" height="40" viewBox="0 0 40 40" width="40" xmlns="http://www.w3.org/2000/svg"><path clip-rule="evenodd" d="m15.0795 9.67569h16.9189c3.4054 0 6.1622 2.75671 6.1622 6.16221v16.5946c0 3.4054-2.7568 6.1621-6.1622 6.1621h-16.9189c-3.4054 0-6.16214-2.7567-6.16214-6.1621v-16.5946c0-3.4055 2.75674-6.16221 6.16214-6.16221z" fill="#f0faff" fill-rule="evenodd"/><path clip-rule="evenodd" d="m13.1336 9.67569h11.2973c2.3243 0 4.2162 1.89191 4.2162 4.21621v11.7297c0 2.3244-1.8919 4.2163-4.2162 4.2163h-11.2973c-2.3243 0-4.21624-1.8919-4.21624-4.2163v-11.7297c0-2.3243 1.89194-4.21621 4.21624-4.21621z" fill="#d9eef9" fill-rule="evenodd"/><path d="m23.7282 32.1622c4.2093 0 7.6216-3.4849 7.6216-7.7838s-3.4123-7.7838-7.6216-7.7838-7.6216 3.4849-7.6216 7.7838 3.4123 7.7838 7.6216 7.7838z" fill="#fff"/><g fill="#2d3436"><path clip-rule="evenodd" d="m22.6938 8.62312c3.4547-.05444 6.8459.16543 10.7604.60037l.0128.00152c2.5909.32386 4.6584 2.39129 4.9822 4.98219.9291 7.4327.874 12.7539.0003 19.9073l-.0003.0026c-.3218 2.5745-2.3201 4.6539-4.9231 4.9816-7.2756.9843-12.6008.9284-19.915.0006m9.0827-30.47618h-2.0466c-.5216 0-.9444.42284-.9444.94445 0 .52163.4228.94443.9444.94443h2.0541l.0149-.0001c3.3515-.0532 6.659.1591 10.5226.5882 1.7306.2191 3.1197 1.61 3.3361 3.3414.9087 7.2695.8557 12.4346-.0002 19.4427-.219 1.7475-1.5695 3.126-3.2879 3.3408l-.0095.0012c-7.1.9609-12.2603.9086-19.4302-.001l-.0017-.0002c-1.7334-.2167-3.0714-1.5547-3.2881-3.2881l-.0018-.0141c-.4275-3.0457-.64051-5.7649-.69377-8.4282-.01043-.5215-.44165-.9358-.96314-.9253-.5215.0104-.9358.4416-.92537.9631.0548 2.7401.27395 5.5324.71073 8.6462.32667 2.5867 2.33785 4.5963 4.92545 4.9205" fill-rule="evenodd"/><path clip-rule="evenodd" d="m20.6188 16.077c.8955-.2985 1.8613-.4809 2.8933-.4809 4.7918 0 8.6741 3.8823 8.6741 8.6742 0 4.7918-3.8823 8.6741-8.6741 8.6741-4.7919 0-8.6742-3.8823-8.6742-8.6741 0-.5216.4228-.9445.9444-.9445s.9445.4229.9445.9445c0 3.7486 3.0366 6.7853 6.7853 6.7853 3.7486 0 6.7852-3.0367 6.7852-6.7853 0-3.7487-3.0366-6.7853-6.7852-6.7853-.8059 0-1.5698.1419-2.296.384-.4948.1649-1.0297-.1025-1.1946-.5974-.165-.4948.1025-1.0297.5973-1.1946z" fill-rule="evenodd"/><path d="m27.0255 37.1892c.4478 0 .8108-.363.8108-.8108s-.363-.8108-.8108-.8108-.8108.363-.8108.8108.363.8108.8108.8108z"/><path d="m23.5661 37.1892c.4478 0 .8108-.363.8108-.8108s-.363-.8108-.8108-.8108-.8109.363-.8109.8108.3631.8108.8109.8108z"/><path d="m25.2958 35.4594c.4478 0 .8108-.363.8108-.8108s-.363-.8108-.8108-.8108-.8108.363-.8108.8108.363.8108.8108.8108z"/><path d="m21.8363 35.4594c.4478 0 .8108-.363.8108-.8108s-.363-.8108-.8108-.8108-.8108.363-.8108.8108.363.8108.8108.8108z"/><path d="m11.512 30.3243c.4478 0 .8108-.363.8108-.8108s-.363-.8108-.8108-.8108-.8108.363-.8108.8108.363.8108.8108.8108z"/><path d="m13.2417 28.5946c.4478 0 .8108-.363.8108-.8108s-.363-.8108-.8108-.8108-.8108.363-.8108.8108.363.8108.8108.8108z"/><path d="m11.512 26.8649c.4478 0 .8108-.363.8108-.8108s-.363-.8108-.8108-.8108-.8108.363-.8108.8108.363.8108.8108.8108z"/><path d="m30.4309 18.2703c.4478 0 .8108-.363.8108-.8108s-.363-.8108-.8108-.8108-.8108.363-.8108.8108.363.8108.8108.8108z"/><path d="m32.1607 16.5405c.4478 0 .8108-.363.8108-.8108s-.363-.8108-.8108-.8108-.8108.363-.8108.8108.363.8108.8108.8108z"/><path d="m28.7012 16.5405c.4478 0 .8108-.363.8108-.8108s-.363-.8108-.8108-.8108-.8108.363-.8108.8108.363.8108.8108.8108z"/><path d="m33.8904 14.8108c.4478 0 .8108-.363.8108-.8108s-.363-.8108-.8108-.8108-.8108.363-.8108.8108.363.8108.8108.8108z"/><path d="m30.4309 14.8108c.4478 0 .8108-.363.8108-.8108s-.363-.8108-.8108-.8108-.8108.363-.8108.8108.363.8108.8108.8108z"/><path d="m32.1607 13.0811c.4478 0 .8108-.363.8108-.8108s-.363-.8108-.8108-.8108-.8108.363-.8108.8108.363.8108.8108.8108z"/><path d="m28.7012 13.0811c.4478 0 .8108-.363.8108-.8108s-.363-.8108-.8108-.8108-.8108.363-.8108.8108.363.8108.8108.8108z"/></g><path d="m11.7822 0-.7567 1.94595-.5946 2.1081c-.54054 2-.3784 4.10811.7027 6.00005.8108-.59464 1.5676-1.40545 1.9459-2.59464 0-.21622.2163-.21622.2163-.37838h.3783c2.7568 1.40541 4.3244 4.16212 4.1622 7.13512 0 2.1622-.8108 4.1622-2.1622 5.7838-1.5675 1.5676-3.5675 2.3784-5.72969 2.1622-2.16216 0-4.16216-.8109-5.72973-2.3784-1.56757-1.4054-2.37838-3.3514-2.37838-5.5676 0-5.18917 2.81081-9.94593 7.18919-12.64863z" fill="#ff9248"/><path d="m17.8904 14.2162c.1081-1.5135-.2703-3.027-1.027-4.27026-.4325.91896-1.0811 1.56756-1.7298 2.05406-.8108-1.4595-1.1351-3.08109-.9189-4.70271-.1622-.10811-.2703-.16216-.4324-.21622-.2162 0-.2162 0-.3784 0 0 .21622-.2162.21622-.2162.37838-.3784 1.18919-1.1892 2-1.946 2.59455-.7567-1.3513-1.027-2.81077-.9729-4.21617-2.70274 2.75676-4.37842 6.43247-4.37842 10.37837 0 2.1622.81081 4.1622 2.37838 5.5676.10811.1081.21622.2162.32432.2702.48649.1082.97297.1082 1.45942.1082 2.1622.2162 4.1622-.5946 5.7298-2.1622 1.2973-1.6216 2.1081-3.6216 2.1081-5.7838z" fill="#fec067"/><g fill="#2d3436"><path clip-rule="evenodd" d="m9.54735 1.5397c.28407.43747.15972 1.02238-.27774 1.30645-3.91404 2.54158-6.38072 6.79423-6.38072 11.42415 0 1.8365 1.02699 3.6219 2.09065 4.8375.44631.5101 1.19 1.0182 2.10009 1.3995.90327.3784 1.90093.6023 2.81076.6023.02357 0 .04713.0009.07064.0027 1.85867.1394 3.48017-.4942 4.86427-1.8694 1.2263-1.3814 2.0666-3.1582 2.0666-5.0267 0-.0175.0005-.0349.0014-.0524.1175-2.1141-1.1734-4.23808-3.123-5.57047-.5374 1.09392-1.4106 1.77087-1.9684 2.20337-.0488.0379-.0953.0739-.1388.1081-.2126.167-.4866.2349-.7526.1865-.266-.0483-.4985-.2084-.6386-.4396-1.2357-2.03893-1.40444-4.42222-.80501-6.58015.1396-.50258.66021-.79682 1.16281-.65722.5025.13961.7968.66019.6572 1.16277-.3795 1.36599-.3634 2.79339.1134 4.08507.4383-.42649.7888-.92627.9107-1.63345.0508-.29444.2379-.5475.5045-.68234.2667-.13483.5814-.13555.8486-.00193 2.9312 1.46559 5.2917 4.51225 5.1166 7.89785-.0077 2.4365-1.1026 4.6416-2.5642 6.2786-.0118.0133-.0241.0262-.0367.0388-1.7385 1.7386-3.8823 2.6121-6.32497 2.4387-1.18734-.0056-2.41915-.294-3.50504-.7489-1.08991-.4566-2.10297-1.1106-2.79179-1.8979-1.20661-1.3789-2.558-3.5935-2.558-6.0813 0-5.31608 2.83062-10.14452 7.24091-13.00835.43746-.284063 1.02238-.15971 1.30644.27775z" fill-rule="evenodd"/><path d="m11.512 1.67567c.4478 0 .8108-.36301.8108-.810813 0-.447798-.363-.8108104-.8108-.8108104s-.8108.3630124-.8108.8108104c0 .447803.363.810813.8108.810813z"/></g></svg>