<svg fill="none" height="40" viewBox="0 0 40 40" width="40" xmlns="http://www.w3.org/2000/svg"><ellipse cx="29.4648" cy="30.4867" fill="#f0faff" rx="8.8" ry="8.8"/><path clip-rule="evenodd" d="m31.0649 25.6867c-3.5346 0-6.4 2.8654-6.4 6.4s2.8654 6.4 6.4 6.4c3.5347 0 6.4-2.8654 6.4-6.4s-2.8653-6.4-6.4-6.4zm-10.2055 5.1097c0-6.1856 2.9816-8.8226 9.1672-8.8226 5.1098.9569 7.0811 3.2534 8.0954 8.5164-.8038 4.9377-3.1387 7.3873-5.6649 8.7462-6.1856 0-11.3489-2.5263-11.5977-8.44z" fill="#d9eef9" fill-rule="evenodd"/><path d="m27.555 34.2216c.0094.0105.0192.0207.0292.0308.2528.2527.6326.301.9339.1448.0715-.037.1386-.0854.1985-.1453.0057-.0057.0113-.0114.0167-.0172l5.9096-5.9096c.3125-.3125.3125-.819 0-1.1314-.3124-.3124-.8189-.3124-1.1313 0l-5.3609 5.3608-2.735-2.7349c-.3124-.3125-.8189-.3125-1.1313 0-.3125.3124-.3125.8189 0 1.1313z" fill="#2d3436"/><path clip-rule="evenodd" d="m29.4649 22.6719c-4.316 0-7.8149 3.4988-7.8149 7.8148s3.4989 7.8149 7.8149 7.8149 7.8148-3.4989 7.8148-7.8149-3.4988-7.8148-7.8148-7.8148zm-9.4149 7.8148c0-5.1997 4.2152-9.4148 9.4149-9.4148s9.4148 4.2151 9.4148 9.4148-4.2151 9.4149-9.4148 9.4149-9.4149-4.2152-9.4149-9.4149z" fill="#2d3436" fill-rule="evenodd"/><path d="m3.521 10.1519c0-1.65685 1.34314-3 3-3h26.9984c1.6569 0 3 1.34315 3 3v3.9407c0 1.6569-1.3432 3-3 3h-5.9406s0 2.7633-7.3208 2.7633c-7.5083 0-7.507-2.7633-7.507-2.7633h-6.23c-1.65686 0-3-1.3431-3-3z" fill="#f0faff"/><path d="m3.521 10.1519c0-1.65685 1.34314-3 3-3h26.9984c1.6568 0 3 1.34315 3 3v1.8233h-32.9984z" fill="#d9eef9"/><g fill="#2d3436"><path clip-rule="evenodd" d="m1.11865.898434c0-.441827.35817-.7999996.8-.7999996h32.99875c.4418 0 .8.3581726.8.7999996 0 .441826-.3582.799996-.8.799996h-2.7611c-.0001.04338-.0037.08733-.011.13152l-.7903 4.74142c.6397-.02226 1.297-.04636 1.9742-.07235.0102-.00039.0205-.00059.0307-.00059 2.0548 0 3.6396 1.63652 3.836 3.60037.0027.0265.004.0531.004.0796v3.84c0 .9044-.426 1.8123-1.0565 2.4844-.6316.6733-1.5409 1.1864-2.5951 1.1955-1.7325.1154-3.341.211-4.8661.2873-.1647.3894-.4779.697-.7802.9215-.4688.3484-1.1065.6475-1.8515.8932-1.4989.4945-3.5868.8235-6.0506.8235s-4.5517-.329-6.0506-.8235c-.745-.2457-1.3827-.5448-1.8515-.8932-.3045-.2262-.6201-.5366-.7838-.9301-1.52384-.0754-3.13085-.1684-4.86164-.2787-1.10796-.0106-2.01916-.6615-2.61592-1.3472-.5876-.6751-1.03654-1.5754-1.03654-2.3327v-3.8384l.8-.0016.8.0001v3.8399c0 .2228.19106.7625.64347 1.2823.4383.5037.95694.7977 1.43653.7977.01698 0 .03396.0006.05091.0017 10.52769.6712 16.41329.7013 26.93589.0001.0177-.0012.0355-.0018.0532-.0018.5337 0 1.0538-.2609 1.4565-.6902.4095-.4365.6235-.9686.6235-1.3898v-3.7974c-.1386-1.21244-1.0982-2.11504-2.2259-2.12252-10.6157.40701-16.339.35286-26.90641-.00001-1.15239.00651-2.06769.92593-2.06769 2.08003l-.8-.0001-.8.0016c0-2.0418 1.63817-3.68157 3.68-3.68157l.02671.00045c.73283.02448 1.44219.04752 2.13134.06906l-.78966-4.73799c-.00737-.04419-.01096-.08814-.01101-.13152h-5.91863c-.44183 0-.8-.35817-.8-.799996zm9.11025 5.717566c7.195.20905 12.2908.23506 19.5369.008-.0131-.08304-.0133-.16959.0012-.25708l.7781-4.66849h-21.09666l.77806 4.66849c.0141.08469.0144.16849.0024.24908zm3.706 11.476c.1563.0637.3281.127.5156.1889 1.3011.4292 3.2132.7429 5.5494.7429s4.2483-.3137 5.5494-.7429c.1785-.0589.3426-.119.4927-.1796-4.2037.1561-7.9027.1497-12.1071-.0093z" fill-rule="evenodd"/><path d="m37.2299.898434c0-.441827.3582-.7999996.8-.7999996h.0488c.4418 0 .8.3581726.8.7999996 0 .441826-.3582.799996-.8.799996h-.0488c-.4418 0-.8-.35817-.8-.799996z"/></g></svg>