<svg fill="none" height="25" viewBox="0 0 25 25" width="25" xmlns="http://www.w3.org/2000/svg"><g fill="#2d3436"><path d="m8.89403 22.6826c4.34937.566 7.47477.5835 11.77237.0107 1.0723-.1429 1.912-.9953 2.0442-2.0721.5228-4.2568.5523-7.3685.0093-11.78116-.1341-1.09011-.997-1.9464-2.0878-2.07168-2.3369-.26841-4.3522-.38489-6.3854-.35781-.2761.00367-.5029-.21718-.5066-.4933s.2172-.50294.4933-.50662c2.0832-.02774 4.1417.09194 6.5128.36426 1.5501.17802 2.7757 1.39479 2.9662 2.94301.5535 4.4973.5231 7.691-.0092 12.0252-.1874 1.5255-1.378 2.7379-2.9046 2.9414-4.3889.585-7.6022.5664-12.03363-.0103-1.52716-.1988-2.72764-1.4031-2.92293-2.9303-.30609-2.3937-.45468-4.4332-.43328-6.509.00285-.2761.229-.4977.50513-.4948.27613.0028.49766.229.49482.5051-.02081 2.0181.12325 4.0101.42526 6.3718.13768 1.0768.98403 1.9255 2.06006 2.0656z"/><path d="m14.7596 18.9481c2.3127 0 4.1875-1.8748 4.1875-4.1875s-1.8748-4.1875-4.1875-4.1875c-.4903 0-.9599.084-1.3959.2381-.2603.092-.546-.0444-.638-.3048-.092-.2603.0444-.54601.3048-.63803.5415-.19139 1.1237-.29531 1.7291-.29531 2.865 0 5.1875 2.32254 5.1875 5.18754 0 2.8649-2.3225 5.1875-5.1875 5.1875s-5.18749-2.3226-5.18749-5.1875c0-.6054.10391-1.1877.2953-1.7292.09203-.2603.37769-.3968.63809-.3048.2603.0921.3968.3777.3048.6381-.1541.4359-.2382.9055-.2382 1.3959 0 2.3127 1.8748 4.1875 4.1875 4.1875z"/><path d="m15.8221 20.532c-.2761 0-.5.2239-.5.5 0 .2762.2239.5.5.5s.5-.2238.5-.5c0-.2761-.2239-.5-.5-.5z"/><path d="m13.2401 21.032c0-.2761.2238-.5.5-.5.2761 0 .5.2239.5.5 0 .2762-.2239.5-.5.5-.2762 0-.5-.2238-.5-.5z"/><path d="m8.53304 14.282c-.27614 0-.5.2239-.5.5 0 .2762.22386.5.5.5s.5-.2238.5-.5c0-.2761-.22386-.5-.5-.5z"/><path d="m6.99007 15.8231c0-.2762.22386-.5.5-.5s.5.2238.5.5c0 .2761-.22386.5-.5.5s-.5-.2239-.5-.5z"/><path d="m8.53304 16.3651c-.27614 0-.5.2238-.5.5 0 .2761.22386.5.5.5s.5-.2239.5-.5c0-.2762-.22386-.5-.5-.5z"/><path d="m6.99007 17.907c0-.2761.22386-.5.5-.5s.5.2239.5.5c0 .2762-.22386.5-.5.5s-.5-.2238-.5-.5z"/><path d="m16.8651 21.5731c-.2762 0-.5.2238-.5.5 0 .2761.2238.5.5.5.2761 0 .5-.2239.5-.5 0-.2762-.2239-.5-.5-.5z"/><path d="m14.283 22.0731c0-.2762.2239-.5.5-.5.2762 0 .5.2238.5.5 0 .2761-.2238.5-.5.5-.2761 0-.5-.2239-.5-.5z"/><path d="m17.908 9.07306c-.2761 0-.5.22386-.5.5 0 .27615.2239.50004.5.50004.2762 0 .5-.22389.5-.50004 0-.27614-.2238-.5-.5-.5z"/><path d="m19.4901 9.57306c0-.27614.2238-.5.5-.5.2761 0 .5.22386.5.5 0 .27615-.2239.50004-.5.50004-.2762 0-.5-.22389-.5-.50004z"/><path d="m18.9471 8.03205c-.2761 0-.5.22386-.5.5s.2239.5.5.5.5-.22386.5-.5-.2239-.5-.5-.5z"/><path d="m18.4471 10.6151c0-.2762.2239-.5.5-.5s.5.2238.5.5c0 .2761-.2239.5-.5.5s-.5-.2239-.5-.5z"/><path d="m21.033 8.03205c-.2761 0-.5.22386-.5.5s.2239.5.5.5c.2762 0 .5-.22386.5-.5s-.2238-.5-.5-.5z"/><path d="m17.408 7.49006c0-.27615.2239-.5.5-.5.2762 0 .5.22385.5.5 0 .27614-.2238.5-.5.5-.2761 0-.5-.22386-.5-.5z"/><path d="m19.9901 6.99006c-.2762 0-.5.22385-.5.5 0 .27614.2238.5.5.5.2761 0 .5-.22386.5-.5 0-.27615-.2239-.5-.5-.5z"/></g><path d="m8.91835 8.25532c.19527.19526.19527.51184 0 .7071-.19526.19526-.51184.19526-.7071 0l-1.51649-1.51649-1.54348 1.54348c-.19526.19526-.51184.19526-.7071 0-.19527-.19526-.19527-.51184 0-.70711l1.54347-1.54347-1.48097-1.48098c-.19527-.19526-.19527-.51184 0-.70711.19526-.19526.51184-.19526.7071 0l1.48098 1.48098 1.45399-1.45399c.19526-.19526.51184-.19526.7071 0 .19527.19526.19527.51185 0 .70711l-1.45398 1.45399z" fill="#f18303"/><path clip-rule="evenodd" d="m6.78662 11.5c2.69752 0 4.88428-2.18676 4.88428-4.88428 0-2.69751-2.18676-4.88427-4.88428-4.88427-2.69751 0-4.88428 2.18676-4.88428 4.88427 0 2.69752 2.18677 4.88428 4.88428 4.88428zm5.88428-4.88428c0 3.2498-2.6345 5.88428-5.88428 5.88428-3.24979 0-5.884276-2.63448-5.884276-5.88428 0-3.24979 2.634486-5.884275 5.884276-5.884275 3.24978 0 5.88428 2.634485 5.88428 5.884275z" fill="#85949a" fill-rule="evenodd"/></svg>