<svg fill="none" height="25" viewBox="0 0 25 25" width="25" xmlns="http://www.w3.org/2000/svg"><g fill="#2d3436"><path d="m6.49609 1.06543c.27615 0 .5-.223858.5-.5 0-.276143-.22385-.5000003-.5-.5000003-.27614 0-.5.2238573-.5.5000003 0 .276142.22386.5.5.5z"/><path d="m5.27248 1.01734c.15006.23181.0838.54138-.14801.69145-2.37455 1.53722-3.894 4.14193-3.894 6.97468 0 1.12205.64382 2.23063 1.28133 2.97193.27143.3156.72551.6296 1.28032.8651.55098.2338 1.164.3743 1.72936.3743.01523 0 .03045.0007.04562.002 1.11666.1024 2.1379-.2986 2.97651-1.1381.75585-.8754 1.26921-1.96669 1.26921-3.10562 0-.01101.00036-.02201.00109-.033.08804-1.33112-.74686-2.64974-1.99033-3.46624-.3305.72404-.89492 1.14984-1.26259 1.42721l-.03687.02784c-.11491.08686-.26169.11995-.40275.09079-.14107-.02917-.2627-.11775-.33374-.24306-.69884-1.2327-.80663-2.63533-.45731-3.92367.07226-.26652.3469-.424.61342-.35173.26652.07226.424.3469.35173.61342-.2361.87075-.21488 1.78544.10644 2.62647.29698-.27478.54967-.61116.64652-1.10451.03013-.1535.13036-.28405.27087-.3528s.3051-.06779.44479.00261c1.74916.88154 3.17391 2.68217 3.04871 4.70309-.0049 1.4404-.6542 2.7543-1.52499 3.7574-.00727.0084-.01481.0165-.02262.0244-1.02349 1.0316-2.32671 1.5685-3.76664 1.4434-.71293-.0037-1.44983-.179-2.09715-.4537-.65043-.2761-1.24803-.6688-1.64778-1.1336-.70481-.8195-1.523151-2.1548-1.523151-3.62393 0-3.19631 1.712461-6.10629 4.350561-7.814132.23181-.150066.54138-.083802.69145.148002z"/><path d="m19.6646 22.6925c-4.2976.5728-7.423.5553-11.77237-.0107-1.07602-.1401-1.92237-.9888-2.06005-2.0655-.24004-1.8772-.38021-3.52-.41727-5.1278-.00636-.2761-.23532-.4947-.51138-.4884-.27607.0064-.49471.2354-.48835.5114.03806 1.6513.1819 3.33.42507 5.2316.19529 1.5272 1.39577 2.7315 2.92293 2.9303 4.43142.5767 7.64472.5953 12.03362.0103 1.5266-.2035 2.7172-1.4159 2.9046-2.9414.5323-4.3342.5627-7.5279.0092-12.0252-.1905-1.54822-1.4161-2.76499-2.9662-2.94301-2.3698-.27218-4.4274-.39187-6.5095-.3643h-1.2349c-.2761 0-.5.22386-.5.5s.2239.5.5.5h1.2383l.0066-.00004c2.0332-.02707 4.0485.08941 6.3854.35781 1.0908.12528 1.9537.98157 2.0878 2.07168.543 4.41266.5135 7.52436-.0093 11.78116-.1322 1.0768-.9719 1.9292-2.0442 2.0721z"/><path d="m17.9453 14.7598c0 2.3127-1.8748 4.1875-4.1875 4.1875s-4.18749-1.8748-4.18749-4.1875c0-.2762-.22385-.5-.5-.5-.27614 0-.5.2238-.5.5 0 2.8649 2.32249 5.1875 5.18749 5.1875s5.1875-2.3226 5.1875-5.1875c0-2.865-2.3225-5.18754-5.1875-5.18754-.6054 0-1.1876.10392-1.7291.29531-.2604.09203-.3968.37773-.3048.63803.092.2604.3777.3968.638.3048.436-.1541.9056-.2381 1.3959-.2381 2.3127 0 4.1875 1.8748 4.1875 4.1875z"/><path d="m14.3203 21.0312c0-.2761.2239-.5.5-.5.2762 0 .5.2239.5.5 0 .2762-.2238.5-.5.5-.2761 0-.5-.2238-.5-.5z"/><path d="m12.7383 20.5312c-.2762 0-.5.2239-.5.5 0 .2762.2238.5.5.5.2761 0 .5-.2238.5-.5 0-.2761-.2239-.5-.5-.5z"/><path d="m5.98828 15.8223c0-.2762.22386-.5.5-.5s.5.2238.5.5c0 .2761-.22386.5-.5.5s-.5-.2239-.5-.5z"/><path d="m7.53125 16.3643c-.27614 0-.5.2238-.5.5 0 .2761.22386.5.5.5s.5-.2239.5-.5c0-.2762-.22386-.5-.5-.5z"/><path d="m5.98828 17.9062c0-.2761.22386-.5.5-.5s.5.2239.5.5c0 .2762-.22386.5-.5.5s-.5-.2238-.5-.5z"/><path d="m15.8633 21.5723c-.2762 0-.5.2238-.5.5 0 .2761.2238.5.5.5.2761 0 .5-.2239.5-.5 0-.2762-.2239-.5-.5-.5z"/><path d="m13.2812 22.0723c0-.2762.2239-.5.5-.5.2762 0 .5.2238.5.5 0 .2761-.2238.5-.5.5-.2761 0-.5-.2239-.5-.5z"/><path d="m16.9062 9.07227c-.2761 0-.5.22385-.5.5 0 .27614.2239.50003.5.50003.2762 0 .5-.22389.5-.50003 0-.27615-.2238-.5-.5-.5z"/><path d="m18.4883 9.57227c0-.27615.2238-.5.5-.5.2761 0 .5.22385.5.5 0 .27614-.2239.50003-.5.50003-.2762 0-.5-.22389-.5-.50003z"/><path d="m17.9453 8.03125c-.2761 0-.5.22386-.5.5s.2239.5.5.5c.2762 0 .5-.22386.5-.5s-.2238-.5-.5-.5z"/><path d="m17.4453 10.6143c0-.2762.2239-.5.5-.5.2762 0 .5.2238.5.5 0 .2761-.2238.5-.5.5-.2761 0-.5-.2239-.5-.5z"/><path d="m20.0312 8.03125c-.2761 0-.5.22386-.5.5s.2239.5.5.5c.2762 0 .5-.22386.5-.5s-.2238-.5-.5-.5z"/><path d="m16.4062 7.48926c0-.27614.2239-.5.5-.5.2762 0 .5.22386.5.5s-.2238.5-.5.5c-.2761 0-.5-.22386-.5-.5z"/><path d="m18.9883 6.98926c-.2762 0-.5.22386-.5.5s.2238.5.5.5c.2761 0 .5-.22386.5-.5s-.2239-.5-.5-.5z"/></g></svg>