<svg fill="none" height="40" viewBox="0 0 40 40" width="40" xmlns="http://www.w3.org/2000/svg"><path d="m1.74908 8.9652c.42138-3.73973 3.37103-6.74205 7.11076-7.16343 8.00616-.948097 14.22146-.948097 22.28026 0 3.7398.42138 6.6894 3.4237 7.1108 7.16343.9481 8.0589 1.0008 14.2742.0527 22.2804-.4214 3.7924-3.4764 6.7421-7.2688 7.1108-7.8482.7901-14.1688.8428-22.06964 0-3.7924-.3687-6.7947-3.371-7.21608-7.1635-.948099-8.1115-.895427-14.3268 0-22.2277z" fill="#d9eef9"/><path d="m37.303 6.01558c-8.0062-.9481-14.2216-.9481-22.1751 0-3.7397.47405-6.68937 3.42369-7.11075 7.16342-.89543 7.9009-.9481 14.1162 0 22.2804.10534 1.0535.47408 2.0542.94813 2.9497 7.90082.8427 14.22142.7901 22.06962 0 3.7924-.3687 6.7948-3.3184 7.2688-7.1108.9481-8.0589.8954-14.2742-.0527-22.28039-.158-1.10612-.4739-2.1069-.948-3.00233z" fill="#f0faff"/><path d="m16.2866 31.8776h-.5267c-.0527 0-.1054.0526-.1054.1053v.4741c0 .316.2634.6321.6321.6321s.632-.2634.632-.6321c0-.3161-.2633-.5794-.632-.5794z" fill="#f94409"/><path d="m16.1285 25.6096c-.1053-.1053-.2633-.2107-.3687-.2633l-2.3702-1.2642c-.1054-.0527-.2634-.1053-.4214-.158-.4214-.1053-.8427-.1053-1.2641 0-.158.0527-.3161.1053-.4214.158l-2.37027 1.2642c-.10535.0526-.26334.158-.36868.2633-.52673.4214-.79009 1.0008-.79009 1.6855v3.6344c0 1.2115 1.0008 2.2123 2.26494 2.2123h4.1611c.3687 0 .632-.2634.632-.6321v-.474c0-.0527-.0526-.1054-.1053-.1054h-4.6878c-.52673 0-.94813-.4214-.94813-.9481v-3.6344c0-.3687.21069-.6847.52672-.8427l2.47561-1.2642c.2633-.1053.5267-.1053.7901 0l2.4755 1.2642c.3161.158.5267.474.5267.8427v3.213c0 .316.2635.6321.6322.6321s.6321-.2634.6321-.6321v-3.213c-.2107-.7374-.5268-1.3168-1.0009-1.7382z" fill="#f94409"/><path clip-rule="evenodd" d="m31.0299 2.73974c-7.9858-.93951-14.1267-.93942-22.05888-.00009l-.00532.00063v-.00001c-3.29357.3711-5.90502 3.02043-6.278 6.33067l-.00007.00061c-.88782 7.83365-.93957 13.97645-.00038 22.01175l.00062.0053c.37282 3.3555 3.02778 6.003 6.36879 6.3278l.00879.0008-.00001.0001c7.83016.8352 14.08526.7836 21.87486-.0006l.0032-.0003c3.3577-.3265 6.0506-2.9362 6.4216-6.2751l.0007-.0067c.9388-7.9276.8873-14.0685-.0528-22.05906l-.0005-.0046c-.373-3.31024-2.9844-5.95957-6.278-6.33067zm.2184-1.87622c-8.1299-.956331-14.4186-.9564295-22.49682.000044-4.1844.472776-7.4708 3.827216-7.940726 7.995266-.9029458 7.96717-.95662 14.25467.000073 22.44117.470903 4.2265 3.817833 7.5816 8.058613 7.996 7.96906.8497 14.35406.7959 22.25876.0002 4.225-.4116 7.6405-3.699 8.1138-7.9426.9569-8.0827.903-14.3716-.0528-22.49688-.4708-4.1672-3.757-7.52067-7.9409-7.9932z" fill="#2d3436" fill-rule="evenodd"/></svg>