<svg fill="none" height="15" viewBox="0 0 15 15" width="15" xmlns="http://www.w3.org/2000/svg"><path d="m1.06215 4.37383c.16769-1.73982 1.53381-3.13066 3.27262-3.30859 2.20398-.225528 4.07468-.218162 6.29833.00957 1.741.17831 3.1179 1.5603 3.2937 3.30154.2236 2.21474.2335 4.0782.0124 6.29235-.1753 1.7555-1.584 3.1325-3.3415 3.2866-2.15553.189-4.03165.1948-6.20557.0057-1.76549-.1535-3.17137-1.5472-3.33821-3.3115-.211811-2.23992-.201441-4.10037.00823-6.27567z" stroke="#2d3436" stroke-linecap="round" stroke-linejoin="round"/><g fill="#f94409"><path d="m9.57161 9.25804h-.26146c-.04022 0-.06703.03275-.06703.06551v.25547c0 .17687.14748.32099.32849.32099.181 0 .32849-.14412.32849-.32099 0-.17686-.14749-.32098-.32849-.32098z"/><path d="m9.48446 6.01546c-.05364-.04585-.14079-.09826-.20112-.13101l-1.23352-.64852c-.06704-.0393-.14749-.0655-.22123-.09171-.21453-.05895-.44246-.05895-.65698 0-.08045.01966-.15419.05241-.22123.09171l-1.24023.64852c-.06033.03275-.14078.08516-.20111.13101-.26146.21617-.40894.53061-.40894.87124v1.88004c0 .62887.5229 1.13327 1.15977 1.13327h2.16537c.181 0 .32849-.14412.32849-.32099v-.25547c0-.03931-.03352-.06551-.06704-.06551h-2.42682c-.27486 0-.50279-.22272-.50279-.4913v-1.88004c0-.18342.10056-.34718.26145-.43234l1.27375-.66162c.13408-.05896.27486-.05896.40894 0l1.27374.66162c.16089.08516.26145.24892.26145.43234v1.65077c0 .17687.14749.32098.32849.32098.18101 0 .32849-.14411.32849-.32098v-1.65077c.00671-.34063-.14748-.65507-.40893-.87124z"/></g></svg>