<svg fill="none" height="15" viewBox="0 0 15 15" width="15" xmlns="http://www.w3.org/2000/svg"><path d="m11.0127 6.69461c0-.04525-.0453-.0905-.1358-.0905-.0452 0-.0905.04525-.1357.0905-.5129.87486-2.30785 3.87649-2.30785 5.03799 0 1.3425 1.11619 2.4436 2.44355 2.4436 1.3425 0 2.4436-1.1162 2.4436-2.4436.0452-1.1615-1.7497-4.20838-2.3078-5.03799z" stroke="#2d3436" stroke-linecap="round" stroke-linejoin="round" stroke-width=".5"/><g fill="#2d3436"><path d="m7.08231 11.0006c-.10346.0015-.20762.0023-.3124.0023-1.51446 0-2.89114-.1618-3.93691-.4249-.32132-.0809-.54863-.3776-.56437-.73792-.00016-.00363-.00038-.00726-.00067-.01087l.00001-.00773-.00019-.02172v-.55888l.00017-.01919.00001-.00252v-6.63055l.0006-.00814.00025-.00482c.01575-.36028.24305-.65701.56436-.73786 1.04577-.26316 2.42246-.42494 3.93691-.42494 1.5145 0 2.89121.16179 3.93702.42496.3213.08086.5486.37757.5643.73785.0002.00433.0005.00865.0009.01296v2.46846c0 .16266.1318.29452.2945.29452s.2945-.13186.2945-.29452v-2.49318c0-.01371-.0009-.02733-.0028-.04076-.0359-.57701-.4123-1.10675-1.0077-1.25657-1.10241-.277426-2.52883-.442772-4.08072-.442772-1.55184 0-2.97823.165337-4.08066.442752-.59537.14982-.97184.67958-1.00768 1.2566-.00188.01343-.00283.02704-.00283.04075v6.65526l-.00017.0179-.00001.00253-.00001.56144.00019.02044v.03052c0 .01295.00085.02581.00252.03851.03506.57789.41172 1.10869 1.00782 1.25869 1.10242.2774 2.52881.4428 4.08066.4428.10769 0 .21474-.0008.32111-.0024.16264-.0024.29254-.1362.29013-.2989-.0024-.1626-.1362-.2925-.29884-.2901z"/><g clip-rule="evenodd" fill-rule="evenodd"><path d="m6.78166 3.89589c-.25137 0-.45548.20369-.45548.45537s.20411.45537.45548.45537.45547-.20369.45547-.45537-.2041-.45537-.45547-.45537zm.13357.45537c0 .07401-.05998.13368-.13357.13368s-.13358-.05967-.13358-.13368.05999-.13368.13358-.13368.13357.05967.13357.13368z"/><path d="m5.55484 5.1226c0-.25168.20411-.45537.45548-.45537s.45548.20369.45548.45537-.20411.45537-.45548.45537-.45548-.20369-.45548-.45537zm.45548.13368c.07359 0 .13357-.05967.13357-.13368s-.05998-.13368-.13357-.13368-.13358.05967-.13358.13368.05999.13368.13358.13368z"/><path d="m7.553 4.66723c-.25138 0-.45548.20369-.45548.45537s.2041.45537.45548.45537c.25137 0 .45547-.20369.45547-.45537s-.2041-.45537-.45547-.45537zm.13357.45537c0 .07401-.05998.13368-.13357.13368s-.13358-.05967-.13358-.13368.05999-.13368.13358-.13368.13357.05967.13357.13368z"/><path d="m4.78345 5.89321c0-.25168.2041-.45537.45547-.45537.25138 0 .45548.20369.45548.45537s-.2041.45537-.45548.45537c-.25137 0-.45547-.20369-.45547-.45537zm.45547.13368c.07359 0 .13358-.05967.13358-.13368s-.05999-.13368-.13358-.13368c-.07358 0-.13357.05967-.13357.13368s.05999.13368.13357.13368z"/><path d="m8.30077 5.43784c-.25137 0-.45547.20369-.45547.45537s.2041.45537.45547.45537.45548-.20369.45548-.45537-.20411-.45537-.45548-.45537zm.13358.45537c0 .07401-.05999.13368-.13358.13368s-.13357-.05967-.13357-.13368.05998-.13368.13357-.13368.13358.05967.13358.13368z"/><path d="m6.32618 5.87116c0-.25167.20411-.45537.45548-.45537s.45547.2037.45547.45537c0 .25168-.2041.45537-.45547.45537s-.45548-.20369-.45548-.45537zm.45548.13368c.07359 0 .13357-.05967.13357-.13368s-.05998-.13368-.13357-.13368-.13358.05967-.13358.13368.05999.13368.13358.13368z"/><path d="m6.01032 6.18561c-.25137 0-.45548.2037-.45548.45538 0 .25167.20411.45537.45548.45537s.45548-.2037.45548-.45537c0-.25168-.20411-.45538-.45548-.45538zm.13357.45538c0 .07401-.05998.13368-.13357.13368s-.13358-.05967-.13358-.13368c0-.07402.05999-.13368.13358-.13368s.13357.05966.13357.13368z"/><path d="m7.09752 6.64099c0-.25168.20411-.45538.45548-.45538s.45547.2037.45547.45538c0 .25167-.2041.45537-.45547.45537s-.45548-.2037-.45548-.45537zm.45548.13368c.07359 0 .13357-.05967.13357-.13368 0-.07402-.05998-.13368-.13357-.13368s-.13358.05966-.13358.13368c0 .07401.05999.13368.13358.13368z"/><path d="m5.23892 6.95622c-.25137 0-.45547.2037-.45547.45538 0 .25167.2041.45537.45547.45537.25138 0 .45548-.2037.45548-.45537 0-.25168-.2041-.45538-.45548-.45538zm.13358.45538c0 .07401-.05999.13368-.13358.13368-.07358 0-.13357-.05967-.13357-.13368s.05999-.13368.13357-.13368c.07359 0 .13358.05967.13358.13368z"/><path d="m7.8453 7.4116c0-.25168.2041-.45538.45547-.45538s.45548.2037.45548.45538c0 .25167-.20411.45537-.45548.45537s-.45547-.2037-.45547-.45537zm.45547.13368c.07359 0 .13358-.05967.13358-.13368s-.05999-.13368-.13358-.13368-.13357.05967-.13357.13368.05998.13368.13357.13368z"/><path d="m6.78166 6.93345c-.25137 0-.45548.20369-.45548.45537s.20411.45537.45548.45537.45547-.20369.45547-.45537-.2041-.45537-.45547-.45537zm.13357.45537c0 .07401-.05998.13368-.13357.13368s-.13358-.05967-.13358-.13368.05999-.13368.13358-.13368.13357.05967.13357.13368z"/><path d="m5.55484 8.16016c0-.25168.20411-.45537.45548-.45537s.45548.20369.45548.45537-.20411.45537-.45548.45537-.45548-.20369-.45548-.45537zm.45548.13368c.07359 0 .13357-.05967.13357-.13368s-.05998-.13368-.13357-.13368-.13358.05967-.13358.13368.05999.13368.13358.13368z"/><path d="m7.553 7.70479c-.25138 0-.45548.20369-.45548.45537s.2041.45537.45548.45537c.25137 0 .45547-.20369.45547-.45537s-.2041-.45537-.45547-.45537zm.13357.45537c0 .07401-.05998.13368-.13357.13368s-.13358-.05967-.13358-.13368.05999-.13368.13358-.13368.13357.05967.13357.13368z"/></g><path d="m11.4084 13.2839c.1643 0 .2975-.1332.2975-.2975s-.1332-.2975-.2975-.2975-.2976.1332-.2976.2975.1333.2975.2976.2975z"/><path d="m10.516 12.9863c.1643 0 .2975-.1332.2975-.2975s-.1332-.2975-.2975-.2975-.2975.1332-.2975.2975.1332.2975.2975.2975z"/></g></svg>