<svg fill="none" height="25" viewBox="0 0 25 25" width="25" xmlns="http://www.w3.org/2000/svg"><g fill="#2d3436"><path clip-rule="evenodd" d="m17.8651 10.854c.0521-.0391.1439-.0971.2632-.0971.1917 0 .4157.0974.4659.3094.4827.7244 1.4435 2.3138 2.2836 3.9692.4296.8467.8302 1.7156 1.1192 2.498.2849.7712.4734 1.4893.4539 2.0256-.0027 2.3473-1.9477 4.3178-4.3226 4.3178-2.3494 0-4.3226-1.9461-4.3226-4.3226 0-.5334.2024-1.246.4974-2.0133.2983-.7755.7032-1.6365 1.1325-2.4778.7849-1.538 1.6591-3.0253 2.1292-3.825.0443-.0753.0849-.1444.1216-.2069.0107-.0184.0238-.0353.0389-.0504.0015-.0016.0031-.0032.0048-.0048.0342-.0343.0828-.0829.135-.1221zm.2363.458c-.0324.0552-.0676.1151-.1054.1793-.4704.8004-1.3373 2.2753-2.115 3.7992-.4254.8337-.8218 1.6774-1.1112 2.43-.2926.7608-.4641 1.3994-.4641 1.8338 0 2.0984 1.7474 3.8226 3.8226 3.8226 2.0983 0 3.8226-1.7474 3.8226-3.8226v-.0097h.0002c.0168-.4311-.14-1.0716-.4231-1.8378-.2798-.7574-.6711-1.6074-1.0961-2.4451-.8503-1.6756-1.8256-3.282-2.2848-3.9645-.004-.006-.0077-.0121-.0112-.0184-.002.0019-.0041.0038-.0063.0059-.009.0084-.0182.0174-.0282.0273z" fill-rule="evenodd"/><path d="m11.8035 18.3344c-.1724.0025-.346.0038-.5206.0038-2.52414 0-4.81861-.2696-6.56157-.7082-.53553-.1348-.91437-.6294-.9406-1.2299-.00027-.006-.00064-.0121-.00113-.0181l.00002-.0129-.00031-.0362v-.9314l.00028-.032.00001-.0042v-11.05093l.00101-.01356.00042-.00803c.02625-.60048.40508-1.09502.94059-1.22977 1.74296-.4386 4.03743-.70824 6.56148-.70824 2.5242 0 4.8187.26966 6.5617.70827.5355.13476.9143.62929.9406 1.22974.0003.00723.0008.01443.0014.0216v4.1141c0 .2711.2198.49088.4909.49088s.4909-.21978.4909-.49088v-4.15529c0-.02286-.0016-.04555-.0048-.06794-.0597-.96168-.6872-1.84458-1.6794-2.09428-1.8374-.46237-4.2148-.73795-6.8013-.73795-2.58636 0-4.96368.27556-6.80105.73791-.99229.2497-1.61975 1.13264-1.67948 2.09435-.00313.02237-.00472.04506-.00472.06791v11.09211l-.00027.0298-.00002.0042-.00002.9358.00031.034v.0509c0 .0216.00142.043.00421.0642.05843.9631.6862 1.8478 1.6797 2.0978 1.83737.4624 4.21469.7379 6.80114.7379.1794 0 .3579-.0013.5351-.0039.2711-.004.4876-.227.4836-.4981s-.227-.4876-.4981-.4835z"/><g clip-rule="evenodd" fill-rule="evenodd"><path d="m11.3028 6.49315c-.419 0-.7592.33949-.7592.75895s.3402.75895.7592.75895c.4189 0 .7591-.33949.7591-.75895s-.3402-.75895-.7591-.75895zm.2226.75895c0 .12335-.1.2228-.2226.2228-.1227 0-.2227-.09945-.2227-.2228s.1-.2228.2227-.2228c.1226 0 .2226.09945.2226.2228z"/><path d="m9.25807 8.53767c0-.41946.34018-.75896.75913-.75896.419 0 .7591.3395.7591.75896s-.3401.75895-.7591.75895c-.41895 0-.75913-.33949-.75913-.75895zm.75913.2228c.1227 0 .2226-.09945.2226-.2228s-.0999-.2228-.2226-.2228c-.12265 0-.22263.09945-.22263.2228s.09998.2228.22263.2228z"/><path d="m12.5883 7.77871c-.4189 0-.7591.3395-.7591.75896s.3402.75895.7591.75895c.419 0 .7592-.33949.7592-.75895s-.3402-.75896-.7592-.75896zm.2227.75896c0 .12335-.1.2228-.2227.2228-.1226 0-.2226-.09945-.2226-.2228s.1-.2228.2226-.2228c.1227 0 .2227.09945.2227.2228z"/><path d="m7.97241 9.82202c0-.41947.34018-.75896.75913-.75896s.75913.33949.75913.75896c0 .41948-.34018.75898-.75913.75898s-.75913-.3395-.75913-.75898zm.75913.22278c.12265 0 .22262-.09943.22262-.22278 0-.12336-.09997-.2228-.22262-.2228s-.22262.09944-.22262.2228c0 .12335.09997.22278.22262.22278z"/><path d="m13.8346 9.06306c-.4189 0-.7591.33949-.7591.75896 0 .41948.3402.75898.7591.75898.419 0 .7592-.3395.7592-.75898 0-.41947-.3402-.75896-.7592-.75896zm.2226.75896c0 .12335-.0999.22278-.2226.22278-.1226 0-.2226-.09943-.2226-.22278 0-.12336.1-.2228.2226-.2228.1227 0 .2226.09944.2226.2228z"/><path d="m10.5436 9.78527c0-.41946.3402-.75895.7592-.75895.4189 0 .7591.33949.7591.75895 0 .41943-.3402.75893-.7591.75893-.419 0-.7592-.3395-.7592-.75893zm.7592.22283c.1226 0 .2226-.09948.2226-.22283s-.1-.2228-.2226-.2228c-.1227 0-.2227.09945-.2227.2228s.1.22283.2227.22283z"/><path d="m10.0172 10.3094c-.41895 0-.75913.3394-.75913.7589s.34018.759.75913.759c.419 0 .7591-.3395.7591-.759s-.3401-.7589-.7591-.7589zm.2226.7589c0 .1234-.1.2228-.2226.2228-.12265 0-.22263-.0994-.22263-.2228 0-.1233.09998-.2228.22263-.2228.1226 0 .2226.0995.2226.2228z"/><path d="m11.8292 11.0683c0-.4195.3402-.7589.7591-.7589.419 0 .7592.3394.7592.7589s-.3402.759-.7592.759c-.4189 0-.7591-.3395-.7591-.759zm.7591.2228c.1227 0 .2227-.0994.2227-.2228 0-.1233-.1-.2228-.2227-.2228-.1226 0-.2226.0995-.2226.2228 0 .1234.1.2228.2226.2228z"/><path d="m8.73154 11.5937c-.41895 0-.75913.3395-.75913.759 0 .4194.34018.7589.75913.7589s.75913-.3395.75913-.7589c0-.4195-.34018-.759-.75913-.759zm.22262.759c0 .1233-.09997.2228-.22262.2228s-.22262-.0995-.22262-.2228c0-.1234.09997-.2228.22262-.2228s.22262.0994.22262.2228z"/><path d="m13.0755 12.3527c0-.4195.3402-.759.7591-.759.419 0 .7592.3395.7592.759 0 .4194-.3402.7589-.7592.7589-.4189 0-.7591-.3395-.7591-.7589zm.7591.2228c.1227 0 .2226-.0995.2226-.2228 0-.1234-.0999-.2228-.2226-.2228-.1226 0-.2226.0994-.2226.2228 0 .1233.1.2228.2226.2228z"/><path d="m11.3028 11.5557c-.419 0-.7592.3395-.7592.759s.3402.759.7592.759c.4189 0 .7591-.3395.7591-.759s-.3402-.759-.7591-.759zm.2226.759c0 .1234-.1.2228-.2226.2228-.1227 0-.2227-.0994-.2227-.2228s.1-.2228.2227-.2228c.1226 0 .2226.0994.2226.2228z"/><path d="m9.25807 13.6003c0-.4195.34018-.759.75913-.759.419 0 .7591.3395.7591.759 0 .4194-.3401.7589-.7591.7589-.41895 0-.75913-.3395-.75913-.7589zm.75913.2228c.1227 0 .2226-.0995.2226-.2228 0-.1234-.0999-.2228-.2226-.2228-.12265 0-.22263.0994-.22263.2228 0 .1233.09998.2228.22263.2228z"/><path d="m12.5883 12.8413c-.4189 0-.7591.3395-.7591.759 0 .4194.3402.7589.7591.7589.419 0 .7592-.3395.7592-.7589 0-.4195-.3402-.759-.7592-.759zm.2227.759c0 .1233-.1.2228-.2227.2228-.1226 0-.2226-.0995-.2226-.2228 0-.1234.1-.2228.2226-.2228.1227 0 .2227.0994.2227.2228z"/></g><path d="m19.0142 22.1398c.2738 0 .4958-.222.4958-.4958 0-.2739-.222-.4959-.4958-.4959-.2739 0-.4959.222-.4959.4959 0 .2738.222.4958.4959.4958z"/><path d="m17.5266 21.6438c.2738 0 .4958-.222.4958-.4958 0-.2739-.222-.4958-.4958-.4958-.2739 0-.4958.2219-.4958.4958 0 .2738.2219.4958.4958.4958z"/></g></svg>