<svg fill="none" height="25" viewBox="0 0 25 25" width="25" xmlns="http://www.w3.org/2000/svg"><path d="m16.7143 20.3933c.0059.0065.012.0129.0183.0192.1579.158.3953.1881.5836.0905.0447-.0231.0866-.0534.1241-.0908.0035-.0036.007-.0072.0104-.0108l3.6935-3.6935c.1953-.1952.1953-.5118 0-.7071-.1952-.1952-.5118-.1952-.7071 0l-3.3505 3.3505-1.7094-1.7093c-.1952-.1953-.5118-.1953-.7071 0-.1952.1952-.1952.5118 0 .7071z" fill="#00ac83"/><g clip-rule="evenodd" fill-rule="evenodd"><path d="m17.908 13.1747c-2.6976 0-4.8843 2.1867-4.8843 4.8843 0 2.6975 2.1867 4.8842 4.8843 4.8842 2.6975 0 4.8842-2.1867 4.8842-4.8842 0-2.6976-2.1867-4.8843-4.8842-4.8843zm-5.8843 4.8843c0-3.2498 2.6345-5.8843 5.8843-5.8843s5.8842 2.6345 5.8842 5.8843-2.6344 5.8842-5.8842 5.8842-5.8843-2.6344-5.8843-5.8842z" fill="#85949a"/><g fill="#2d3436"><path d="m11.0072 19.7363c0 .2762-.2239.5-.5.5-2.93548 0-5.62553-.4584-7.6532-1.2226-.92638-.3492-1.44521-1.2559-1.44521-2.1845l-.00053-13.046c0-.93662.52793-1.84905 1.46454-2.19311 2.0247-.743742 4.70712-1.189731 7.6339-1.189731 2.9269.000001 5.6096.446069 7.6343 1.189931.9366.34408 1.4645 1.25649 1.4645 2.19305v6.92876c0 .2761-.2239.5-.5.5-.2762 0-.5-.2239-.5-.5v-6.92876c0-.58012-.3222-1.07544-.8093-1.25439-1.8917-.69499-4.4535-1.12859-7.2895-1.12859-2.83589 0-5.39742.43353-7.28909 1.12841-.48712.17893-.80935.67428-.80935 1.2544l.00053 13.04603c0 .5754.31686 1.0674.7979 1.2487 1.89198.7131 4.45826 1.1584 7.30051 1.1584.2761 0 .5.2239.5.5z"/><path d="m10 7.5c0 .27614.2239.5.5.5s.5-.22386.5-.5-.2239-.5-.5-.5-.5.22386-.5.5zm1 1c0 .27614.2239.5.5.5s.5-.22386.5-.5-.2239-.5-.5-.5-.5.22386-.5.5zm-1.5.5c-.27614 0-.5-.22386-.5-.5s.22386-.5.5-.5.5.22386.5.5-.22386.5-.5.5zm2.5.5c0 .27614.2239.5.5.5s.5-.22386.5-.5-.2239-.5-.5-.5-.5.22386-.5.5zm-3.5.5c-.27614 0-.5-.22386-.5-.5s.22386-.5.5-.5.5.22386.5.5-.22386.5-.5.5zm1.5-.5c0 .27614.2239.5.5.5s.5-.22386.5-.5-.2239-.5-.5-.5-.5.22386-.5.5zm1.5 1.5c-.2761 0-.5-.2239-.5-.5s.2239-.5.5-.5.5.2239.5.5-.2239.5-.5.5zm-2.5-.5c0 .2761.22386.5.5.5s.5-.2239.5-.5-.22386-.5-.5-.5-.5.2239-.5.5zm3.5 1.5c-.2761 0-.5-.2239-.5-.5s.2239-.5.5-.5.5.2239.5.5-.2239.5-.5.5zm-4.5-.5c0 .2761.22386.5.5.5s.5-.2239.5-.5-.22386-.5-.5-.5-.5.2239-.5.5zm2.5.5c-.2761 0-.5-.2239-.5-.5s.2239-.5.5-.5.5.2239.5.5-.2239.5-.5.5zm.5.5c0 .2761.2239.5.5.5s.5-.2239.5-.5-.2239-.5-.5-.5-.5.2239-.5.5zm-1.5.5c-.27614 0-.5-.2239-.5-.5s.22386-.5.5-.5.5.2239.5.5-.22386.5-.5.5z"/></g></g></svg>