<svg fill="none" height="25" viewBox="0 0 25 25" width="25" xmlns="http://www.w3.org/2000/svg"><path d="m11.7329 16.1794v-1.7711h-9.54223v1.7696c0 1.0787.95362 1.9531 2.12996 1.9531h5.2823c1.17577 0 2.12907-.8736 2.12997-1.9516z" fill="#f18303"/><g fill="#2d3436"><path clip-rule="evenodd" d="m5.73804.436523h2.46007c.69588 0 1.26.564127 1.26 1.259997v.78236c0 .18634.15105.33739.33739.33739 1.1156 0 2.02.90439 2.02 2.02v11.30083c0 1.1157-.9044 2.02-2.02 2.02h-5.65441c-1.11561 0-2.02-.9043-2.02-2.02v-11.30083c0-1.11561.90439-2.02 2.02-2.02.1861 0 .33695-.15085.33695-.33695v-.78279c0-.69588.56413-1.260007 1.26-1.260007zm2.46007.999997h-2.46007c-.14359 0-.26.11641-.26.26001v.78279c0 .73838-.59857 1.33695-1.33695 1.33695-.56333 0-1.02.45667-1.02 1.02v11.30083c0 .5634.45667 1.02 1.02 1.02h5.65441c.5633 0 1.02-.4566 1.02-1.02v-11.30083c0-.56333-.4567-1.02-1.02-1.02-.73863 0-1.33739-.59877-1.33739-1.33739v-.78236c0-.14359-.11641-.26-.26-.26z" fill-rule="evenodd"/><path d="m14.4928 4.72754c2.9355.00001 5.6255.45844 7.6532 1.22268.9264.34916 1.4452 1.25584 1.4452 2.18447l.0005 13.04601c0 .9366-.5279 1.849-1.4645 2.1931-2.0247.7437-4.7071 1.1897-7.6338 1.1897-2.927 0-5.60967-.446-7.63444-1.1899-.93655-.3441-1.46443-1.2565-1.46443-2.1931v-1.4504c0-.2762.22386-.5.5-.5s.5.2238.5.5v1.4504c0 .5802.32219 1.0755.80928 1.2544 1.89172.695 4.45349 1.1286 7.28959 1.1286 2.8358 0 5.3973-.4335 7.289-1.1284.4871-.1789.8093-.6743.8093-1.2544l-.0005-13.04601c0-.57544-.3168-1.06742-.7979-1.24873-1.8916-.71295-4.4572-1.15822-7.2987-1.15841l-.1464.00096c-.2006.00125-.4182.0026-.6646.00734-.2761.00531-.5042-.2142-.5095-.49029s.2142-.50422.4903-.50953c.2535-.00487.4791-.00627.6802-.00752z"/><path d="m15 12.4639c0 .2761-.2239.5-.5.5s-.5-.2239-.5-.5c0-.2762.2239-.5.5-.5s.5.2238.5.5z"/><path d="m14 13.4639c0 .2761-.2239.5-.5.5s-.5-.2239-.5-.5c0-.2762.2239-.5.5-.5s.5.2238.5.5z"/><path d="m15.5 13.9639c.2761 0 .5-.2239.5-.5 0-.2762-.2239-.5-.5-.5s-.5.2238-.5.5c0 .2761.2239.5.5.5z"/><path d="m17 14.4639c0 .2761-.2239.5-.5.5s-.5-.2239-.5-.5c0-.2762.2239-.5.5-.5s.5.2238.5.5z"/><path d="m14.5 14.9639c.2761 0 .5-.2239.5-.5 0-.2762-.2239-.5-.5-.5s-.5.2238-.5.5c0 .2761.2239.5.5.5z"/><path d="m14 15.4639c0 .2761-.2239.5-.5.5s-.5-.2239-.5-.5c0-.2762.2239-.5.5-.5s.5.2238.5.5z"/><path d="m15.5 15.9639c.2761 0 .5-.2239.5-.5 0-.2762-.2239-.5-.5-.5s-.5.2238-.5.5c0 .2761.2239.5.5.5z"/><path d="m17 16.4639c0 .2761-.2239.5-.5.5s-.5-.2239-.5-.5c0-.2762.2239-.5.5-.5s.5.2238.5.5z"/><path d="m14.5 16.9639c.2761 0 .5-.2239.5-.5 0-.2762-.2239-.5-.5-.5s-.5.2238-.5.5c0 .2761.2239.5.5.5z"/><path d="m14 17.4639c0 .2761-.2239.5-.5.5s-.5-.2239-.5-.5c0-.2762.2239-.5.5-.5s.5.2238.5.5z"/><path d="m15.5 17.9639c.2761 0 .5-.2239.5-.5 0-.2762-.2239-.5-.5-.5s-.5.2238-.5.5c0 .2761.2239.5.5.5z"/></g></svg>