<svg fill="none" height="35" viewBox="0 0 35 35" width="35" xmlns="http://www.w3.org/2000/svg"><g fill="#92a0a9"><path clip-rule="evenodd" d="m27.2081 1.97025c-1.8116.7739-4.0544 2.14591-6.5162 3.97165-4.8395-2.189-10.77408-.52508-13.83504 3.99982-2.2015 3.25438-2.36699 7.30118-.8615 10.68028-1.84181 2.4145-3.22428 4.6721-4.00236 6.5112-.39999.9454-.65163 1.8065-.71079 2.5361-.0585.7214.06613 1.4044.53439 1.8726.70393.704 1.82562.6843 3.00132.3536 1.21473-.3417 2.69092-1.0691 4.32807-2.089 3.28151-2.0442 7.31241-5.3287 11.36621-9.3114 4.0578-3.9867 7.3447-8.0201 9.3726-11.32213 1.0118-1.64755 1.7256-3.13767 2.0555-4.36403.3195-1.18704.3264-2.31448-.3749-3.01577-.4667-.46671-1.1391-.59325-1.8534-.53434-.7197.05936-1.5681.31167-2.5039.71142zm-6.5528 5.06275c-.0993-.01469-.1943-.05912-.2704-.13121-4.409-2.05607-9.8833-.56322-12.69976 3.60021-3.09739 4.5788-1.75623 10.9292 2.84106 14.0391.2287.1547.2887.4655.1339.6943-.1547.2287-.4655.2887-.69425.1339-1.46877-.9935-2.63609-2.2899-3.46805-3.7532-1.66324 2.2255-2.88991 4.2665-3.58383 5.9067-.37918.8962-.58794 1.6466-.63503 2.2274-.04776.589.07553.9154.24477 1.0846.28773.2878.90146.4137 2.02341.0981 1.08293-.3047 2.46664-.9763 4.07012-1.9752 3.19976-1.9932 7.17296-5.2254 11.19416-9.176 4.0172-3.9467 7.247-7.9174 9.2212-11.13205.9893-1.61079 1.6479-3.00713 1.9421-4.10056.3048-1.13275.1739-1.75844-.1164-2.04881-.1708-.17079-.4901-.29217-1.0641-.24483-.5686.04689-1.3051.25499-2.1933.63441-1.6178.69111-3.6474 1.91044-5.9176 3.56436.2027.11845.4027.2443.5999.37762 1.3247.8834 2.3693 1.92376 3.1201 3.12504.1464.23412.0752.54262-.159.68902-.2341.1463-.5426.0751-.689-.159-.6656-1.06497-1.6037-2.00761-2.8283-2.824l-.0028-.00188c-.3469-.23464-.7039-.44381-1.0689-.62802z" fill-rule="evenodd"/><path d="m3.44543 1.50534c.27615 0 .5.22385.5.5v1.625h1.625c.27615 0 .5.22385.5.5 0 .27614-.22385.5-.5.5h-1.625v1.76666c0 .27615-.22385.5-.5.5-.27614 0-.5-.22385-.5-.5v-1.76666h-1.625c-.27614 0-.499995-.22386-.499995-.5 0-.27615.223855-.5.499995-.5h1.625v-1.625c0-.27615.22386-.5.5-.5z"/><path clip-rule="evenodd" d="m29.4454 25.3803c0-.2761-.2238-.5-.5-.5-.2761 0-.5.2239-.5.5 0 2.1322-1.6178 3.75-3.75 3.75-.2761 0-.5.2239-.5.5 0 .2762.2239.5.5.5 2.1322 0 3.75 1.6178 3.75 3.75 0 .2762.2239.5.5.5.2762 0 .5-.2238.5-.5 0-2.1322 1.6178-3.75 3.75-3.75.2762 0 .5-.2238.5-.5 0-.2761-.2238-.5-.5-.5-2.1322 0-3.75-1.6178-3.75-3.75zm1.5773 4.25c-.9027.4486-1.6287 1.1746-2.0773 2.0773-.4485-.9027-1.1745-1.6287-2.0772-2.0773.9027-.4485 1.6287-1.1745 2.0772-2.0772.4486.9027 1.1746 1.6287 2.0773 2.0772z" fill-rule="evenodd"/><path d="m27.3204 16.172c0-.2761-.2238-.5-.5-.5-.2761 0-.5.2239-.5.5 0 5.5322-4.5928 10.125-10.125 10.125-.2761 0-.5.2239-.5.5s.2239.5.5.5c6.0845 0 11.125-5.0405 11.125-11.125z"/></g></svg>