<svg fill="none" height="26" viewBox="0 0 26 26" width="26" xmlns="http://www.w3.org/2000/svg"><g fill="#18303f"><path d="m7.05481 2.50208c-1.933 0-3.5 1.567-3.5 3.49999v3.87822c0 .27611.22386.50001.5.50001s.5-.2239.5-.50001v-3.87822c0-1.38071 1.11929-2.49999 2.5-2.49999h11.42919c1.3807 0 2.5 1.11928 2.5 2.5v7.79352c-.0192.2585-.2351.4623-.4986.4623h-7.4292-.0014-.6346c-.2761 0-.5.2239-.5.5v.9453c0 .1326.0527.2598.1465.3535.0937.0938.2209.1465.3535.1465h1.7285c.528 0 .9577-.4208.9722-.9453h5.3645c.1748 0 .3426-.0299.4986-.0848v4.5854c0 1.3807-1.1193 2.5-2.5 2.5h-5.4923c-.2762 0-.5.2239-.5.5s.2238.5.5.5h5.4923c1.933 0 3.5-1.567 3.5-3.5v-5.9353c.001-.0216.0014-.0434.0014-.0653v-.1725c0-.0126-.0004-.0252-.0014-.0376v-7.54572c0-1.933-1.567-3.5-3.5-3.5z"/><path d="m5.80964 21.2269c-.40212-.1886-.68061-.597-.68061-1.0705 0-.6527.52905-1.1817 1.18168-1.1817s1.18168.529 1.18168 1.1817c0 .4743-.27948.8834-.68275 1.0715v.3476c0 .2762-.22386.5-.5.5s-.5-.2238-.5-.5z"/><path clip-rule="evenodd" d="m11.6417 17.6568c0-.9011-.7351-1.6362-1.6362-1.6362h-.07086v-1.4879c0-1.9803-1.64403-3.6244-3.62438-3.6244s-3.62438 1.6441-3.62438 3.6244v1.4879h-.06525c-.90101 0-1.636133.7351-1.636133 1.6362v4.0482c0 .8738.400173 1.6881.990323 2.2783.59014.5901 1.40451.9903 2.27823.9903h4.12006c.87373 0 1.68809-.4002 2.27829-.9903.5901-.5902.9903-1.4045.9903-2.2783zm-7.95582-1.6362v-1.4879c0-1.4281 1.19632-2.6244 2.62438-2.6244 1.42807 0 2.62438 1.1963 2.62438 2.6244v1.4879zm-.51796 1h-.54729c-.34873 0-.63613.2874-.63613.6362v4.0482c0 .5674.26356 1.1373.69742 1.5712.43386.4338 1.00377.6974 1.57113.6974h4.12006c.56736 0 1.13728-.2636 1.57114-.6974.43385-.4339.69745-1.0038.69745-1.5712v-4.0482c0-.3488-.2874-.6362-.6362-.6362h-.5529c-.00344.0002-.00689.0002-.01035.0003-.00253 0-.00507 0-.00761 0h-6.24876c-.00601 0-.012-.0001-.01796-.0003z" fill-rule="evenodd"/></g></svg>