<svg fill="none" height="40" viewBox="0 0 40 40" width="40" xmlns="http://www.w3.org/2000/svg"><circle cx="20" cy="20" r="19.5" stroke="#18303f"/><path clip-rule="evenodd" d="m23.3499 17.1285c-2.7259-1.5738-6.2051-.7636-7.9553 1.8525l-4.0889 6.112c-.3215.4806-.1696 1.1329.3312 1.422l3.184 1.8383c-.4885.8482-.1976 1.9321.6503 2.4216s1.932.1996 2.4223-.6476l3.1839 1.8382c.5008.2891 1.1417.0945 1.3971-.4242l3.2487-6.5971c1.3905-2.8237.3525-6.2419-2.3733-7.8157z" fill="#fff" fill-rule="evenodd"/><g fill="#18303f"><path d="m16.5469 9.65039c0-.27614-.2239-.5-.5-.5-3.5762 0-6.50002 2.92381-6.50002 6.50001 0 .2761.22385.5.50002.5.2761 0 .5-.2239.5-.5 0-3.0239 2.4761-5.5 5.5-5.5.2761 0 .5-.22387.5-.50001z"/><path d="m18.168 12.6504c0-.2762-.2239-.5-.5-.5-2.8676 0-5.1196 2.2519-5.1196 5.1195 0 .2762.2239.5.5.5.2762 0 .5-.2238.5-.5 0-2.3153 1.8043-4.1195 4.1196-4.1195.2761 0 .5-.2239.5-.5z"/><path d="m24.375 12.1504c-.2761 0-.5.2238-.5.5 0 .2761.2239.5.5.5 2.3153 0 4.1195 1.8042 4.1195 4.1195 0 .2762.2239.5.5.5.2762 0 .5-.2238.5-.5 0-2.8676-2.2519-5.1195-5.1195-5.1195z"/><path d="m24.5742 9.65039c0-.27614.2239-.5.5-.5 4.0824 0 7.4204 3.33801 7.4204 7.42041 0 .2761-.2238.5-.5.5-.2761 0-.5-.2239-.5-.5 0-3.5301-2.8903-6.4204-6.4204-6.4204-.2761 0-.5-.22387-.5-.50001z"/><path clip-rule="evenodd" d="m15.219 31.2088c-.9383-.5417-1.3444-1.6512-1.0351-2.644l-2.7994-1.6162c-.7512-.4337-.979-1.4122-.4968-2.1331l4.0889-6.112c1.0087-1.5078 2.5476-2.4621 4.2117-2.7684 1.4654-.2704 3.0281-.0384 4.4117.7604 2.9539 1.7055 4.0787 5.4097 2.5718 8.4697l-3.2486 6.597c-.2195.4457-.6287.7319-1.0794.8136-.3369.0616-.6971.009-1.0188-.1768l-2.7977-1.6152c-.241.2609-.5356.4562-.8563.5787-.6182.2369-1.334.2031-1.952-.1537zm-.1263-2.1193c-.0575.49.1742.9901.6286 1.2524.3462.1999.7473.2188 1.0936.0861.108-.0416.2107-.098.3047-.1683zm6.5734 2.5022c-.112.0202-.2317.0026-.3386-.0591l-3.1839-1.8383c-.0119-.0068-.024-.0132-.0362-.0189l-3.0019-1.7332c-.0111-.0077-.0226-.015-.0345-.0218l-3.184-1.8383c-.2504-.1446-.3264-.4708-.1656-.7111l4.0888-6.1119c.8533-1.2755 2.1552-2.0825 3.563-2.3413 1.2373-.2268 2.5563-.0301 3.7243.6442 2.4978 1.4421 3.4489 4.5744 2.1747 7.1619l-3.2486 6.597c-.0728.1478-.2082.243-.3575.2708z" fill-rule="evenodd"/></g></svg>