<svg fill="none" height="25" viewBox="0 0 25 25" width="25" xmlns="http://www.w3.org/2000/svg"><path clip-rule="evenodd" d="m15.2645 8.9919c-.4329-.69277-.9007-1.30418-1.3919-1.79159-.7892-.78297-1.5905-1.19979-2.3726-1.19979s-1.58337.41682-2.37256 1.19979c-.78553.77934-1.5108 1.8757-2.12992 3.11479-1.24266 2.4869-1.99752 5.4243-1.99752 7.2431 0 3.5541 2.90624 6.4423 6.5 6.4423 3.5938 0 6.5-2.8882 6.5-6.4423 0-1.8188-.7549-4.7562-1.9975-7.2431-.0641-.1283-.1293-.255-.1956-.38004-.0631.01028-.1267.0194-.1906.02734-.4527.0562-.8995.05-1.3314-.01215-.5692-.08192-1.1114-.26087-1.6068-.52112-.2747.34802-.7003.57137-1.1781.57137-.8284 0-1.5-.67154-1.5-1.49997 0-.82842.6716-1.5 1.5-1.5.8202 0 1.4866.65828 1.4998 1.47533.029.00945.0575.0217.0852.03684.4122.22524.8657.37915 1.3423.44776.2722.03917.5524.0506.8372.03144zm1.5312.67632c2.0953-.80422 3.4553-2.95644 3.1662-5.28394-.3403-2.74037-2.8377-4.685977-5.5781-4.3456385-2.1245.2638455-3.7701 1.8237285-4.245 3.7867185-.1176.48616-.16335.99674-.1271 1.51782-.57116.26429-1.10307.66556-1.58857 1.14723-.88941.8824-1.67252 2.08156-2.32015 3.37767-1.29084 2.58332-2.10298 5.67482-2.10298 7.69012 0 4.1142 3.36177 7.4423 7.5 7.4423 4.1382 0 7.5-3.3281 7.5-7.4423 0-2.0153-.8121-5.1068-2.103-7.69012-.0334-.06689-.0672-.13352-.1013-.19986zm-.4887-.88637c1.7494-.60268 2.8997-2.36477 2.6625-4.27432-.2722-2.19229-2.2702-3.748783-4.4625-3.47651-1.6981.2109-3.016 1.45758-3.3962 3.02946-.0762.31478-.1147.64281-.111.97856.1642-.02531.331-.03852.5002-.03852 1.1509 0 2.1911.61113 3.0769 1.48989.6343.62929 1.2145 1.41968 1.7301 2.29144zm-.307 8.71865c0-2.4853-2.0147-4.5-4.5-4.5-2.48528 0-4.5 2.0147-4.5 4.5s2.01472 4.5 4.5 4.5c2.4853 0 4.5-2.0147 4.5-4.5zm-4.5-5.5c3.0376 0 5.5 2.4625 5.5 5.5 0 3.0376-2.4624 5.5-5.5 5.5-3.03757 0-5.5-2.4624-5.5-5.5 0-3.0375 2.46243-5.5 5.5-5.5zm0-2.99997c.2761 0 .5-.22386.5-.5s-.2239-.5-.5-.5-.5.22386-.5.5.2239.5.5.5z" fill="#18303f" fill-rule="evenodd"/></svg>