<svg fill="none" height="26" viewBox="0 0 25 26" width="25" xmlns="http://www.w3.org/2000/svg" xmlns:xlink="http://www.w3.org/1999/xlink"><mask id="a" fill="#fff"><path clip-rule="evenodd" d="m14 5.81772v4c0 .82838-.6716 1.49998-1.5 1.49998s-1.5-.6716-1.5-1.49998v-4c0-.82842.6716-1.5 1.5-1.5s1.5.67158 1.5 1.5z" fill="#fff" fill-rule="evenodd"/></mask><mask id="b" fill="#fff"><path clip-rule="evenodd" d="m4 5.81772v4c0 .82838-.67157 1.49998-1.5 1.49998s-1.5-.6716-1.5-1.49998v-4c0-.82842.67157-1.5 1.5-1.5s1.5.67158 1.5 1.5z" fill="#fff" fill-rule="evenodd"/></mask><mask id="c" fill="#fff"><path clip-rule="evenodd" d="m24 5.81772v4c0 .82838-.6716 1.49998-1.5 1.49998s-1.5-.6716-1.5-1.49998v-4c0-.82842.6716-1.5 1.5-1.5s1.5.67158 1.5 1.5z" fill="#fff" fill-rule="evenodd"/></mask><circle cx="7.5" cy="9.81772" r="1" stroke="#18303f"/><circle cx="17.5" cy="9.81772" r="1" stroke="#18303f"/><g fill="#18303f"><path d="m13 5.81772v4h2v-4zm-.5 6.49998c1.3807 0 2.5-1.1193 2.5-2.49998h-2c0 .27618-.2239.49998-.5.49998zm-2.5-2.49998c0 1.38068 1.1193 2.49998 2.5 2.49998v-2c-.2761 0-.5-.2238-.5-.49998zm2 0v-4h-2v4zm.5-6.5c-1.3807 0-2.5 1.11929-2.5 2.5h2c0-.27614.2239-.5.5-.5zm2.5 2.5c0-1.38071-1.1193-2.5-2.5-2.5v2c.2761 0 .5.22386.5.5z" mask="url(#a)"/><path d="m3 5.81772v4h2v-4zm-.5 6.49998c1.38071 0 2.5-1.1193 2.5-2.49998h-2c0 .27618-.22386.49998-.5.49998zm-2.5-2.49998c0 1.38068 1.11929 2.49998 2.5 2.49998v-2c-.27614 0-.5-.2238-.5-.49998zm2 0v-4h-2v4zm.5-6.5c-1.38071 0-2.5 1.11929-2.5 2.5h2c0-.27614.22386-.5.5-.5zm2.5 2.5c0-1.38071-1.11929-2.5-2.5-2.5v2c.27614 0 .5.22386.5.5z" mask="url(#b)"/><path d="m23 5.81772v4h2v-4zm-.5 6.49998c1.3807 0 2.5-1.1193 2.5-2.49998h-2c0 .27618-.2239.49998-.5.49998zm-2.5-2.49998c0 1.38068 1.1193 2.49998 2.5 2.49998v-2c-.2761 0-.5-.2238-.5-.49998zm2 0v-4h-2v4zm.5-6.5c-1.3807 0-2.5 1.11929-2.5 2.5h2c0-.27614.2239-.5.5-.5zm2.5 2.5c0-1.38071-1.1193-2.5-2.5-2.5v2c.2761 0 .5.22386.5.5z" mask="url(#c)"/><path d="m13.7395 14.7999c-.6382-.6415-1.7346-.6429-2.3749-.0043l-2.79024 2.7038c-.00543.0053-.01076.0107-.01598.0161l-.00792.0085-.00539.0059c-.98977 1.1052-1.54507 2.5437-1.54507 3.8934v2.3062c0 .3249.2736.5882.61111.5882h9.77779c.3375 0 .6111-.2633.6111-.5882v-2.3062c0-1.4557-.5594-2.7928-1.5451-3.8934l-.0076-.0084-.005-.0053-.0089-.0091z"/></g></svg>