<svg fill="none" height="25" viewBox="0 0 26 25" width="26" xmlns="http://www.w3.org/2000/svg"><g stroke="#18303f" stroke-linecap="round" stroke-linejoin="round"><path d="m20.3127 3.89253c0 .85334-.7671 1.55153-1.7046 1.55153s-1.7046-.69819-1.7046-1.55153c0-1.08607-.9375-1.93941-2.1308-1.93941-1.1932 0-2.1307.85334-2.1307 1.93941"/><path d="m9.94247 8.24507c.26183-.08324.52373-.41616.52373-.74909v-.58261c0-.49939.3491-.83232.8728-.83232h2.6184c.5237 0 .8729.33293.8729.83232v.58261c0 .33293.1745.58262.5236.74909 1.9202.74908 3.404 2.16403 4.1896 3.99513 1.4838 3.5789-.4364 7.7405-4.1896 9.1554-3.7531 1.4149-8.11716-.4162-9.60095-3.9951-1.0775-2.599-.40597-5.5052 1.51321-7.44367.06843-.06911.13844-.137.21001-.20359"/><path d="m21.9858 3.26224 1.4338-1.30912"/><path d="m21.9856 5.20825 1.4338.87275"/><path d="m20.2869 2.41064.0258-.00004"/><path d="m8.65036 8.93263.03263.01927"/></g></svg>