<svg fill="none" height="20" viewBox="0 0 20 20" width="20" xmlns="http://www.w3.org/2000/svg"><g stroke="#18303f" stroke-linecap="round" stroke-linejoin="round"><path d="m13.3344 19.3338c.9811 0 1.7758-.7946 1.7758-1.7758 0-.9811-.7947-1.7758-1.7758-1.7758s-1.7758.7947-1.7758 1.7758c-.0044.9812.7947 1.7758 1.7758 1.7758z"/><path d="m6.22114 19.3338c.98113 0 1.7758-.7946 1.7758-1.7758 0-.9811-.79467-1.7758-1.7758-1.7758-.98114 0-1.77581.7947-1.77581 1.7758-.00444.9812.79467 1.7758 1.77581 1.7758z"/><path d="m18.668.666016-4.444 13.336284h-8.88788l-2.66815-8.89233h14.52163"/></g></svg>