<svg fill="none" height="24" viewBox="0 0 24 24" width="24" xmlns="http://www.w3.org/2000/svg"><g stroke="#18303f" stroke-linecap="round" stroke-linejoin="round"><path d="m21.2008 5.7627c0-1.7-1.4-3-3.1-3-.7 0-1.3.2-1.8.6-1-1.3-2.6-2.1-4.3-2.1s-3.30002.8-4.30002 2.1c-.5-.4-1.1-.6-1.8-.6-1.7 0-3 1.3-3.1 3"/><path d="m2.8 5.7627c-.8 0-1.6.4-2 1.1s-.4 1.59999 0 2.29999 1.2 1.10001 2 1.10001h2.7"/><path d="m21.2 5.7627c.8 0 1.6.4 2 1.1s.4 1.59999 0 2.29999-1.2 1.10001-2 1.10001h-2.7"/><path d="m8.5 9.7627v2.5"/><path d="m12 9.7627v1.5"/><path d="m15.5 9.7627v2.5"/></g><path d="m6.22894 20.456v-3.612c0-.896.236-1.556.708-1.98.48-.424 1.104-.636 1.872-.636.784 0 1.41196.2 1.88396.6.472.392.708.888.708 1.488 0 .216-.04.364-.12.444-.08.072-.208.108-.384.108-.32 0-.488-.116-.504-.348-.048-.92-.56796-1.38-1.55996-1.38-1.064 0-1.596.568-1.596 1.704v3.612c0 1.136.544 1.704 1.632 1.704.312 0 .572-.044.78-.132s.35996-.216.45596-.384c.104-.168.172-.312.204-.432s.06-.28.084-.48c.024-.232.192-.348.504-.348.176 0 .304.04.384.12s.12.228.12.444c0 .608-.24 1.116-.72 1.524-.472.4-1.09996.6-1.88396.6-.76 0-1.38-.212-1.86-.636-.472-.424-.708-1.084-.708-1.98zm6.37496 0v-3.612c0-.904.232-1.564.696-1.98.472-.424 1.1-.636 1.884-.636s1.412.212 1.884.636c.472.416.708 1.076.708 1.98v3.612c0 .904-.236 1.568-.708 1.992-.472.416-1.1.624-1.884.624s-1.412-.208-1.884-.624c-.464-.424-.696-1.088-.696-1.992zm1.008 0c0 1.136.524 1.704 1.572 1.704.504 0 .892-.14 1.164-.42.28-.288.42-.716.42-1.284v-3.612c0-.568-.14-.992-.42-1.272-.272-.288-.66-.432-1.164-.432-1.048 0-1.572.568-1.572 1.704z" fill="#18303f"/></svg>