<svg fill="none" height="52" viewBox="0 0 51 52" width="51" xmlns="http://www.w3.org/2000/svg"><g stroke="#92a0a9" stroke-width="2"><g stroke-linecap="round" stroke-linejoin="round"><path d="m13.26 43.3562h-7.67044c-1.95224 0-3.54952-1.5973-3.54952-3.5496v-17.7476c0-1.9522 1.59728-3.5495 3.54952-3.5495h23.07184c1.9523 0 3.5496 1.5973 3.5496 3.5495v12.0972"/><path d="m7.36426 12.2978c0-5.32428 4.43694-9.76118 9.76114-9.76118 5.3243 0 9.7612 4.4369 9.7612 9.76118v6.2117h-19.52234z"/><path d="m17.1251 31.9979c1.1762 0 2.1297-.9535 2.1297-2.1297s-.9535-2.1297-2.1297-2.1297-2.1297.9535-2.1297 2.1297.9535 2.1297 2.1297 2.1297z"/><path d="m17.1257 31.998v2.3072"/></g><rect height="12.24" rx="1" width="32.64" x="16.3201" y="37.2166"/><g stroke-linecap="round" stroke-linejoin="round"><path d="m25.1614 41.0971-4.491 4.491"/><path d="m20.7585 41.1252 4.491 4.4911"/><path d="m35.3613 41.0971-4.491 4.491"/><path d="m30.9584 41.1252 4.491 4.4911"/><path d="m39.8237 45.5879h5.0404"/></g></g></svg>