<svg fill="none" height="25" viewBox="0 0 25 25" width="25" xmlns="http://www.w3.org/2000/svg"><g stroke="#18303f" stroke-linecap="round" stroke-linejoin="round"><path d="m15.103 11.0952-.6071 1.5104c-.3373.6748.1125 1.462.7873 1.7994l.8997.3373c.6747.225.7872.8512.7872 1.687-.1125.3373-.4499.6747-.7872.7872l-.8997.3374c-.6748.2249-1.1246 1.0121-.7873 1.6869l.4499 1.0121c.3374.6748.0534 1.2469-.6748 1.7994-.3374.2249-1.1844.2249-1.5218 0l-.6149-.2249c-.6748-.3374-1.462 0-1.7994.6747l-.33738 1.0122c-.22492.6748-1.01215 1.1246-1.68691.7872-.33738-.1125-.67477-.4498-.78723-.7872l-.33738-.8997c-.22492-.6748-1.01215-1.1246-1.68691-.7872l-1.01215.4498c-.67476.3374-1.46199 0-1.79937-.6747-.22492-.3374-.22492-.7873 0-1.1247l.44984-.8996c.33739-.6748 0-1.462-.67476-1.7994l-1.01215-.3374c-.674763-.2249-.788302-.7854-.787223-1.6869-.00082-.4735.224921-.8997.562303-1.0122l.89969-.3373c.67476-.225 1.1246-1.0122.78722-1.6869v-.1125l-.44984-.8997c-.33738-.6748 0-1.462.67476-1.79936.33739-.22493.78723-.22493 1.12461 0l.89969.44986c.67476.3374 1.46199 0 1.79937-.67479l.33738-1.01214c.22492-.67477 1.01215-.8773 1.68691-.78723.56231 0 .89969.33738 1.01215.67477l.33738.89968c.2249.67481 1.0121 1.12461 1.6869.78721l.9144-.56229"/><path d="m8.64773 19.8027c2.04967 0 3.71117-1.6616 3.71117-3.7112 0-2.0497-1.6615-3.7113-3.71117-3.7113-2.04964 0-3.71121 1.6616-3.71121 3.7113 0 2.0496 1.66157 3.7112 3.71121 3.7112z"/><path d="m13.2375 7.19823c.4793-.38344.4793-1.05446.0959-1.43791l-.0959-.09586-.5751-.4793c-.3835-.38344-.4793-1.05446 0-1.53376.1917-.19173.5751-.38345.8627-.28759l.7669.09586c.5752 0 1.0545-.38344 1.1503-.9586v-.09586-.76688c0-.57517.4793-1.054468 1.0545-1.054468.2876 0 .671.095861.8627.383442l.4793.575166c.3835.4793 1.0545.4793 1.4379.09586l.0959-.09586.4793-.575166c.3834-.383442 1.0545-.479302 1.5338 0 .1917.191716.3834.575166.2876.862746l-.0959.76688c0 .57516.3834 1.05447.9586 1.15033h.0959.7668c.5752 0 1.0545.4793 1.0545 1.05446 0 .28758-.0959.67102-.3834.86274l-.5752.47931c-.4793.38344-.4793 1.05446-.0959 1.4379l.0959.09586.5752.47931c.3834.38344.4793 1.05446 0 1.53376-.1918.19172-.5752.3834-.8628.28758l-.7669-.09586c-.5751 0-1.0544.38348-1.1503.95858v.0959.7669c0 .5751-.4793 1.0544-1.0545 1.0544-.2875 0-.671-.0958-.8627-.3834l-.4793-.5752c-.3834-.4793-1.0545-.4793-1.4379-.0958l-.0959.0958-.4793.5752c-.3834.3834-1.0544.4793-1.5337 0-.1918-.1917-.3835-.5752-.2876-.8628l.0958-.7668c0-.5752-.3834-1.0545-.9586-1.15036h-.0958-.7669c-.5752 0-1.0545-.4793-1.0545-1.05446 0-.28758.0959-.67103.3835-.86275z"/><path d="m18.4133 9.4036c1.5883 0 2.8759-1.28754 2.8759-2.87581s-1.2876-2.87581-2.8759-2.87581c-1.5882 0-2.8758 1.28754-2.8758 2.87581s1.2876 2.87581 2.8758 2.87581z"/></g></svg>