<svg fill="none" height="25" viewBox="0 0 25 25" width="25" xmlns="http://www.w3.org/2000/svg"><path clip-rule="evenodd" d="m6.33117 3.68586c.77981-1.27646 2.63363-1.27646 3.41343 0l4.0728 6.66684c.8142 1.3327-.1449 3.0426-1.7067 3.0426h-8.14565c-1.56173 0-2.52089-1.7099-1.70671-3.0426zm2.56008.52133c-.38991-.63823-1.31681-.63823-1.70672 0l-4.07284 6.66681c-.40708.6664.0725 1.5213.85336 1.5213h8.14565c.7809 0 1.2605-.8549.8534-1.5213zm-1.3545 4.34172c0 .27615.22386.5.5.5s.5-.22385.5-.5v-1.46514c0-.27614-.22386-.5-.5-.5-.27615 0-.5.22386-.5.5zm.47715 2.63499c.32297 0 .58479-.2618.58479-.5848s-.26182-.5848-.58479-.5848-.58479.2618-.58479.5848.26182.5848.58479.5848zm10.1804 10.337c-3.762.4891-6.554.4741-10.36113-.0103-1.07539-.1368-1.92178-.9855-2.05637-2.0616-.04459-.3564-.08515-.6652-.12166-.9432-.14954-1.1386-.23109-1.7594-.24278-3.0168-.00256-.2762-.22849-.4979-.50462-.4954-.27613.0026-.4979.2285-.49533.5047.01215 1.308.09771 1.962.25276 3.1472.03605.2756.07585.5798.11936.9276.19122 1.5288 1.39367 2.735 2.92242 2.9295 3.88735.4946 6.76525.5106 10.61625.01 1.5286-.1987 2.7215-1.4141 2.9048-2.9409.4564-3.8017.482-6.6622.0088-10.60449-.186-1.54985-1.4134-2.76862-2.9651-2.94218-1.4768-.16518-2.824-.26469-4.1412-.2999-.276-.00738-.5058.21041-.5132.48646-.0074.27604.2104.5058.4865.51318 1.2844.03434 2.603.13147 4.0567.29406 1.09.12193 1.9527.97812 2.0834 2.06756.4633 3.85971.4385 6.64011-.0088 10.36611-.1292 1.0762-.9694 1.9292-2.0408 2.0684z" fill="#18303f" fill-rule="evenodd"/></svg>