<svg fill="none" height="25" viewBox="0 0 26 25" width="26" xmlns="http://www.w3.org/2000/svg"><path d="m5.56689 16.3987 13.21861-13.21866c.7811-.78105 2.0474-.78105 2.8285 0l.9975.99751c.781.78105.781 2.04738 0 2.82843l-13.21867 13.21862" stroke="#18303f" stroke-linecap="round" stroke-linejoin="round"/><path d="m5.47239 16.4928.35355-.3535c-.1238-.1238-.30336-.1739-.47335-.1319-.16999.0419-.30565.1697-.35765.3369zm-1.72678 5.5527-.47745-.1484c-.05515.1773-.00744.3707.1239.502s.32466.179.50203.1239zm5.55272-1.7267.14848.4774c.16719-.052.29501-.1877.33696-.3576.04195-.17-.00808-.3496-.13189-.4734zm9.22087-12.33972c.1952-.19527.1952-.51185 0-.70711-.1953-.19526-.5119-.19526-.7071 0zm-12.03145 9.52912-.35355.3535c.1001.1001.23795.1531.37933.1458zm1.89905 1.899-.5.0016c.00041.132.05305.2586.14645.352zm10.7636-13.47359c-.1952.19526-.1952.51185 0 .70711.1953.19526.5119.19526.7071 0zm.7208.69343c.1953-.19526.1953-.51184 0-.7071s-.5118-.19526-.7071 0zm-11.13694 11.13696 9.78494-9.78492-.7071-.70711-9.78495 9.78493zm-.37934-.8529-1.89295.0977.05156.9987 1.89295-.0977zm-1.51361.2435-1.01537-1.0153-.7071.7071 1.01536 1.0153zm2.81057 2.8106-.91153-.9115-.7071.7071.91153.9115zm-.76508-.5595-.0061-1.9968-1 .0031.0061 1.9968zm-3.89186-3.0614-1.36981 4.4049.95489.2969 1.36982-4.4048zm-1.36981 4.4049-.35697 1.1479.9549.2969.35696-1.1479zm.26896 1.7738 1.14787-.357-.29695-.9549-1.14787.357zm1.14787-.357 4.40485-1.3698-.29696-.9549-4.40484 1.3698zm-1.29294-.9148.79091.7909.70711-.7071-.79091-.7909zm16.10848-14.61048.0137-.01368-.7071-.7071-.0137.01367z" fill="#18303f"/></svg>