<svg fill="none" height="56" viewBox="0 0 58 56" width="58" xmlns="http://www.w3.org/2000/svg"><g stroke="#92a0a9" stroke-linecap="round" stroke-linejoin="round" stroke-width="2"><path d="m7.6875 16.627v-6.0652c0-3.43696 2.4092-6.06522 5.5598-6.06522h5.5598"/><path d="m50.3124 16.627v-6.0652c0-3.43696-2.4092-6.06522-5.5597-6.06522h-5.5598"/><path d="m7.6875 38.8662v6.0652c0 3.437 2.4092 6.0652 5.5598 6.0652h5.5598"/><path d="m50.3124 38.8662v6.0652c0 3.437-2.4092 6.0652-5.5597 6.0652h-5.5598"/><path d="m29.9267 19.6597v9.0978c0 1.6174-1.2972 3.0326-2.7799 3.0326h-.9266"/><path d="m20.6604 19.6597v5.0543"/><path d="m39.1929 19.6597v5.0543"/><path d="m21.9575 37.8552c3.8919 4.0435 10.0076 4.0435 13.8995 0"/></g></svg>