<svg fill="none" height="13" viewBox="0 0 15 13" width="15" xmlns="http://www.w3.org/2000/svg"><g clip-rule="evenodd" fill="#03a9f1" fill-rule="evenodd"><path d="m6.43714 10.0995c-.58578-.58579-.58578-1.53554 0-2.12132l5.08006-5.08007c.5858-.58579 1.5355-.58579 2.1213 0s.5858 1.53553 0 2.12132l-5.08004 5.08007c-.58578.5858-1.53553.5858-2.12132 0z"/><path d="m8.55846 10.0995c-.58578.5858-1.53553.5858-2.12132 0l-5.08006-5.08007c-.58579-.58579-.58579-1.53554 0-2.12132.58578-.58579 1.53553-.58579 2.12132 0l5.08006 5.08007c.58579.58578.58579 1.53553 0 2.12132z"/></g></svg>