<svg fill="none" height="13" viewBox="0 0 13 13" width="13" xmlns="http://www.w3.org/2000/svg"><g clip-rule="evenodd" fill="#18303f" fill-rule="evenodd"><path d="m4.20305 5.79323c.39052-.39052 1.02369-.39052 1.41421 0l3.18198 3.18198c.39053.39053.39053 1.02369 0 1.41419-.39052.3906-1.02369.3906-1.41421 0l-3.18198-3.18195c-.39052-.39053-.39052-1.02369 0-1.41422z"/><path d="m4.20305 7.20745c-.39052-.39053-.39052-1.02369 0-1.41422l3.18198-3.18198c.39052-.39052 1.02369-.39052 1.41421 0 .39053.39053.39053 1.02369 0 1.41422l-3.18198 3.18198c-.39052.39052-1.02369.39052-1.41421 0z"/></g></svg>