<svg fill="none" height="13" viewBox="0 0 13 13" width="13" xmlns="http://www.w3.org/2000/svg"><path d="m2.20965 5.51089c-.55229.00145-1.00117.45033-1.00262 1.00261-.00144.55229.4451.99883.99739.99738l3.29289-.00861-.00861 3.29293c-.00145.5522.44509.9988.99738.9973.55228-.0014 1.00116-.4503 1.00261-1.0026l.00861-3.29286 3.2926-.00861c.5523-.00145 1.0012-.45033 1.0026-1.00261.0015-.55229-.4451-.99883-.9973-.99739l-3.29267.00862.00861-3.29263c.00145-.55229-.44509-.99883-.99738-.99739-.55228.00145-1.00116.45033-1.00261 1.00262l-.00861 3.29263z" fill="#18303f"/></svg>