<svg fill="none" height="25" viewBox="0 0 26 25" width="26" xmlns="http://www.w3.org/2000/svg"><g stroke="#18303f" stroke-linecap="round" stroke-linejoin="round"><path d="m18.5 6c-.052 4.4213-2.5759 8.0979-5.9292 8.9868v4.0381c0 .0946-.0497.1838-.1347.2419l-2.44216 1.6681c-.22916.1565-.56306.0131-.56306-.2419v-5.7058c-3.35417-.8881-5.87887-4.5652-5.93088-8.9872"/><path d="m9.48828 23.0195v.026"/><path d="m18.5 4c0-1.10457-.8954-2-2-2h-11c-1.10457 0-2 .89543-2 2"/><path d="m20 3c1.933 0 3.5 1.567 3.5 3.5s-1.567 3.5-3.5 3.5h-.5"/><path d="m5 4.90918h12"/></g></svg>