<svg fill="none" height="56" viewBox="0 0 58 56" width="58" xmlns="http://www.w3.org/2000/svg"><g fill="#92a0a9"><path clip-rule="evenodd" d="m2.25002 35.9262c0 .6499-.80668.788-.9791.1614-.01386-.0504-.0209-.1029-.0209-.1552v-.5916c0-.2762.22386-.5.5-.5s.5.2238.5.5zm9.52668 15.5682c-.0696-.0526-.1233-.1232-.1552-.2044-.8402-2.1377-1.2881-4.4572-1.2881-6.8659v-15.1389c0-4.6557 1.5535-9.0175 4.6716-12.4474.1858-.2044.502-.2194.7064-.0337.2043.1858.2193.502.0336.7063-2.9374 3.2312-4.4116 7.3472-4.4116 11.7748v15.1389c0 2.2614.4164 4.4391 1.1984 6.448.1814.4659-.3564.9239-.7551.6223zm44.9252-11.1898c-.2331.5133-.9519.3384-.9519-.2253v-10.7941c0-6.5451-2.3811-13.0807-6.8286-17.8247-.1889-.2014-.1787-.5179.0228-.7067.2014-.1889.5178-.1787.7067.0228 4.6358 4.9448 7.0991 11.7315 7.0991 18.5086v10.7962c0 .0769-.0163.1532-.0481.2232zm-13.822-35.06607c-8.3342-4.938788-18.5125-4.932809-27.1354-.31337-8.6377 4.62731-13.87733 13.26424-14.49344 22.81414-.01778.2755.1912.5133.46677.5311s.51337-.1912.53115-.4668c.59499-9.2223 5.64981-17.541 13.96772-21.99697 8.3326-4.4639 18.1376-4.45792 26.1534.29219.2376.14078.5443.06232.6851-.17525.1407-.23756.0623-.54427-.1753-.68504zm-21.2353 7.84547c5.5889-2.6474 11.7639-2.062 16.7727 1.179 5.0113 3.2426 8.2494 8.8407 8.2494 15.0219v15.1389c0 1.4559-.2913 2.9207-.5959 4.4436-.0541.2708.1215.5342.3923.5883.2708.0542.5342-.1214.5883-.3922l.0049-.0241c.2994-1.4975.6104-3.0521.6104-4.6156v-15.1389c0-6.5355-3.423-12.443-8.7062-15.8615-5.2856-3.4201-11.8273-4.04579-17.744-1.2432-.2495.1183-.356.4164-.2378.666.1182.2495.4164.356.6659.2378zm7.3554 6.6179c-5.4233 0-9.5833 4.1599-9.5833 9.5833v9.0833c0 .2762.2238.5.5.5.2761 0 .5-.2238.5-.5v-9.0833c0-4.8711 3.7122-8.5833 8.5833-8.5833s8.5834 3.7122 8.5834 8.5833v15.1389c0 4.8711-3.7123 8.5833-8.5834 8.5833s-8.5833-3.7122-8.5833-8.5833c0-.2761-.2239-.5-.5-.5-.2762 0-.5.2239-.5.5 0 5.4234 4.16 9.5833 9.5833 9.5833 5.4234 0 9.5834-4.1599 9.5834-9.5833v-15.1389c0-5.4234-4.16-9.5833-9.5834-9.5833zm.5 9.5833c0-.2761-.2238-.5-.5-.5-.2761 0-.5.2239-.5.5v9.0833c0 .2762.2239.5.5.5.2762 0 .5-.2238.5-.5zm0 15.1389c0-.2761-.2238-.5-.5-.5-.2761 0-.5.2239-.5.5v3.0278c0 .2761.2239.5.5.5.2762 0 .5-.2239.5-.5z" fill-rule="evenodd"/><path d="m15.005 16.8378.74.6726zm.7064-.0337.6726-.7399zm.0336.7063-.74-.6726zm33.1764-6.0499.7295-.6839zm.0228-.7067-.684-.7296zm.7067.0228.7295-.684zm-33.9064-5.85144.4722.88147zm27.1354.31337-.5098.86029zm-41.62884 22.50077.99792.0643zm.99792.0643-.99792-.0643zm13.96772-21.99697.4722.88148zm26.1534.29219-.5098.86029zm-3.9528 8.16418-.5433.8396zm-16.7727-1.179-.4281-.9038zm24.4262 35.7834-.9805-.1961zm.3923.5883-.1961.9806zm.5883-.3922.9806.1961zm.0049-.0241-.9806-.1962v.0001zm-8.0958-35.616.5433-.8395zm-17.744-1.2432.4281.9038zm-.2378.666.9037-.4281zm-8.4469 38.0259-.9319.3628zm-.9103.4179-.9307.3658zm-9.37148-15.3576v-.5916h-2.000002v.5916zm0-.5916c0 .2761-.22386.5-.5.5v-2c-.82843 0-1.500002.6715-1.500002 1.5zm-.5.5c-.27614 0-.5-.2239-.5-.5h2c0-.8285-.67157-1.5-1.5-1.5zm-.5-.5v.5854h2v-.5854zm11.30218 15.5834c-.7942-2.0206-1.2188-4.216-1.2188-6.5001h-2.00005c0 2.5333.47127 4.9769 1.35745 7.2317zm-1.2188-6.5001v-15.1389h-2.00005v15.1389zm0-15.1389c0-4.4276 1.4742-8.5436 4.4116-11.7748l-1.4799-1.3453c-3.2989 3.6288-4.93175 8.2363-4.93175 13.1201zm4.4116-11.7748c-.1858.2044-.502.2194-.7063.0337l1.3453-1.4799c-.613-.5573-1.5616-.5121-2.1189.1009zm-.7063.0337c-.2043-.1858-.2194-.502-.0337-.7063l1.4799 1.3453c.5573-.613.5121-1.5617-.1009-2.1189zm-.0337-.7063c-3.1181 3.4299-4.6716 7.7917-4.6716 12.4474h2c0-4.1995 1.3948-8.0697 4.1515-11.1021zm-4.6716 12.4474v15.1389h2v-15.1389zm0 15.1389c0 2.3848.4392 4.6856 1.2665 6.8108l1.8638-.7256c-.7367-1.8925-1.1303-3.9472-1.1303-6.0852zm46.4166-4.3448v-10.7941h-2v10.7941zm0-10.7941c0-6.7771-2.4633-13.5638-7.0991-18.5086l-1.4591 1.3679c4.2592 4.5431 6.5582 10.8275 6.5582 17.1407zm-7.0991-18.5086c.1889.2014.1787.5178-.0228.7067l-1.3679-1.4591c-.6043.5666-.635 1.5159-.0684 2.1203zm-.0228.7067c-.2015.1889-.5179.1787-.7067-.0228l1.459-1.3679c-.5666-.60434-1.5158-.63496-2.1202-.0684zm-.7067-.0228c4.4475 4.744 6.8286 11.2795 6.8286 17.8247h2c0-7.009-2.5454-14.0468-7.3696-19.1926zm6.8286 17.8247v10.7962h2v-10.7962zm-39.5333-23.47857c8.3326-4.46392 18.1376-4.4579 26.1534.29219l1.0196-1.72058c-8.6526-5.12749-19.2042-5.109512-28.1175-.33456zm-13.96772 21.99697c.59499-9.2224 5.64984-17.541 13.96772-21.99697l-.9445-1.76295c-8.95742 4.79863-14.381827 13.75392-15.01907 23.63122zm-.46677-.5311c.27557.0178.48455.2556.46677.5311l-1.99585-.1287c-.053336.8267.573606 1.5401 1.40032 1.5934zm-.53115.4668c.01777-.2756.25558-.4846.53115-.4668l-.12876 1.9958c.8267.0534 1.54012-.5736 1.59346-1.4003zm14.49344-22.81415c-8.63767 4.62731-13.87732 13.26425-14.49344 22.81415l1.99585.1287c.57386-8.8949 5.44384-16.8952 13.44199-21.17989zm27.1354.31338c-8.3341-4.938767-18.5125-4.932829-27.1354-.31338l.9444 1.76296c8.0423-4.30834 17.474-4.29044 25.1714.271zm-.685.17524c.1408-.23756.4475-.31602.685-.17524l-1.0196 1.72058c.7127.42233 1.6328.18696 2.0552-.52574zm.1752.68505c-.2376-.14078-.316-.44749-.1752-.68505l1.7206 1.0196c.4223-.71268.1869-1.6328-.5258-2.05514zm-3.4096 7.32458c-5.2856-3.4201-11.8273-4.04577-17.744-1.2432l.8562 1.8075c5.2611-2.4921 11.0694-1.947 15.8013 1.1149zm8.7062 15.8615c0-6.5355-3.423-12.4429-8.7062-15.8615l-1.0865 1.6792c4.7394 3.0667 7.7927 8.3554 7.7927 14.1823zm0 15.1389v-15.1389h-2v15.1389zm-.6153 4.6397c.3009-1.5046.6153-3.0677.6153-4.6397h-2c0 1.3397-.2682 2.7062-.5764 4.2475zm-.3922-.5883c.2708.0541.4464.3175.3922.5883l-1.9611-.3922c-.1625.8123.3643 1.6025 1.1767 1.765zm-.5884.3922c.0542-.2708.3176-.4464.5884-.3922l-.3922 1.9611c.8123.1625 1.6025-.3643 1.765-1.1767zm.0049-.0241-.0049.0241 1.9612.3922.0048-.0242zm.591-4.4195c0 1.4479-.2882 2.9053-.591 4.4194l1.9611.3923c.2962-1.4807.6299-3.1326.6299-4.8117zm0-15.1389v15.1389h2v-15.1389zm-8.2494-15.0219c5.0113 3.2426 8.2494 8.8408 8.2494 15.0219h2c0-6.8899-3.608-13.1066-9.1629-16.701zm-16.7727-1.179c5.5888-2.6474 11.7638-2.062 16.7727 1.179l1.0865-1.6791c-5.5624-3.59925-12.4708-4.26532-18.7154-1.3074zm.2378-.6659c.1183.2495.0118.5477-.2378.6659l-.8562-1.8075c-.7486.3546-1.0681 1.2491-.7134 1.9977zm-.6659-.2379c.2496-.1182.5477-.0117.6659.2379l-1.8074.8561c.3546.7487 1.249 1.0682 1.9977.7135zm-.7998 17.105c0-4.8711 3.7122-8.5833 8.5833-8.5833v-2c-5.9756 0-10.5833 4.6077-10.5833 10.5833zm0 9.0833v-9.0833h-2v9.0833zm-.5-.5c.2761 0 .5.2239.5.5h-2c0 .8285.6716 1.5 1.5 1.5zm-.5.5c0-.2761.2238-.5.5-.5v2c.8284 0 1.5-.6715 1.5-1.5zm0-9.0833v9.0833h2v-9.0833zm9.5833-9.5833c-5.4233 0-9.5833 4.1599-9.5833 9.5833h2c0-4.3188 3.2645-7.5833 7.5833-7.5833zm9.5834 9.5833c0-5.4234-4.16-9.5833-9.5834-9.5833v2c4.3188 0 7.5834 3.2645 7.5834 7.5833zm0 15.1389v-15.1389h-2v15.1389zm-9.5834 9.5833c5.4234 0 9.5834-4.1599 9.5834-9.5833h-2c0 4.3188-3.2646 7.5833-7.5834 7.5833zm-9.5833-9.5833c0 5.4234 4.16 9.5833 9.5833 9.5833v-2c-4.3188 0-7.5833-3.2645-7.5833-7.5833zm.5.5c-.2762 0-.5-.2239-.5-.5h2c0-.8284-.6716-1.5-1.5-1.5zm.5-.5c0 .2761-.2239.5-.5.5v-2c-.8284 0-1.5.6716-1.5 1.5zm8.5833 8.5833c-4.8711 0-8.5833-3.7122-8.5833-8.5833h-2c0 5.9756 4.6077 10.5833 10.5833 10.5833zm8.5834-8.5833c0 4.8711-3.7123 8.5833-8.5834 8.5833v2c5.9757 0 10.5834-4.6077 10.5834-10.5833zm0-15.1389v15.1389h2v-15.1389zm-8.5834-8.5833c4.8711 0 8.5834 3.7122 8.5834 8.5833h2c0-5.9756-4.6077-10.5833-10.5834-10.5833zm0 9.0833c-.2761 0-.5-.2239-.5-.5h2c0-.8284-.6716-1.5-1.5-1.5zm.5-.5c0 .2761-.2238.5-.5.5v-2c-.8284 0-1.5.6716-1.5 1.5zm0 9.0833v-9.0833h-2v9.0833zm-.5-.5c.2762 0 .5.2239.5.5h-2c0 .8285.6716 1.5 1.5 1.5zm-.5.5c0-.2761.2239-.5.5-.5v2c.8284 0 1.5-.6715 1.5-1.5zm0-9.0833v9.0833h2v-9.0833zm.5 15.6389c-.2761 0-.5-.2239-.5-.5h2c0-.8284-.6716-1.5-1.5-1.5zm.5-.5c0 .2761-.2238.5-.5.5v-2c-.8284 0-1.5.6716-1.5 1.5zm0 3.0278v-3.0278h-2v3.0278zm-.5-.5c.2762 0 .5.2238.5.5h-2c0 .8284.6716 1.5 1.5 1.5zm-.5.5c0-.2762.2239-.5.5-.5v2c.8284 0 1.5-.6716 1.5-1.5zm0-3.0278v3.0278h2v-3.0278zm27.25-4.3427c0-.0641.0135-.129.0414-.1902l1.821.8268c.0914-.2013.1376-.4187.1376-.6366zm-1-.0021c0 .7666.5189 1.3365 1.1556 1.489.6473.1551 1.3808-.1323 1.7068-.8503l-1.821-.8268c.0347-.0766.1123-.172.2388-.2313.118-.0554.2395-.0609.3413-.0365.2191.0524.3785.253.3785.4559zm-43.1501 11.1556c-.0881-.2264.0144-.4341.1307-.5312.0616-.0515.1565-.1014.2827-.1109.1387-.0105.2716.0322.3666.1041l-1.2065 1.5951c.6376.4822 1.3894.3226 1.8396-.0535.4394-.3672.7202-1.0369.4507-1.7292zm-9.36481-15.4126c.01008.0366.01493.0734.01493.1101h-2.000002c0 .1413.01892.283.056736.4205zm8.45571 15.8335c.0996.2535.2671.4731.4826.6362l1.2065-1.5951c.0764.0577.1365.1362.1723.2273zm-10.384046-15.3029c.217911.7919.938986 1.2438 1.683776 1.1189.72299-.1213 1.25949-.7507 1.25949-1.5456h-2c0-.0518.01942-.1517.10115-.2504.07704-.093.18667-.156.30855-.1765.12269-.0205.26162.002.38251.0807.12713.0828.1785.1901.19286.2423z"/></g></svg>