<svg fill="none" height="52" viewBox="0 0 51 52" width="51" xmlns="http://www.w3.org/2000/svg"><path d="m15.1633 17.4376c.7443 1.6909 1.7133 3.2451 2.9749 4.7993 1.4105-3.0465 2.2165-6.2961 2.2165-9.5457 0-2.4762-.4622-4.85929-1.2614-7.08605m1.673-2.30388c9.5115 3.03692 16.4092 11.46613 17.5578 21.64113.0956.847.1514 1.7061.1656 2.5751v.6093c.7642-.2801 1.5285-.6085 2.2762-.9769.561-.2763 1.1126-.5752 1.6479-.893m-30.1104-9.2011c-.1523.1703-.3012.3431-.4467.5183-2.86409 3.4508-4.39796 7.8513-4.39796 12.3807v1.0155c.403 10.5612 9.06746 18.6852 19.54546 18.4821 10.2765-.4062 18.5379-8.9364 18.5379-19.4976 0-.8185-.0404-1.637-.1393-2.4373" stroke="#92a0a9" stroke-linecap="round" stroke-linejoin="round" stroke-width="2"/><path d="m27.1011 30.5426c-.5494 2.0265-.3747 4.2078.7065 6.115.806-.6093 1.612-1.4217 2.015-2.6403.0766-.2317.1478-.391.22-.6041.1494.0809.1788.0942.3845.1979 2.821 1.4217 4.433 4.2651 4.2315 7.3117 0 2.2341-.806 4.2651-2.2165 5.8899-1.612 1.6248-3.627 2.4372-5.8435 2.2341-2.2165 0-4.2315-.8124-5.8434-2.4372-1.612-1.4217-2.418-3.4527-2.418-5.6868 0-5.3048 2.9019-10.1477 7.3761-12.9204" stroke="#92a0a9" stroke-linecap="round" stroke-linejoin="round" stroke-width="2"/><g fill="#92a0a9"><ellipse cx="45.0005" cy="24.4326" rx="1.02" ry="1"/><ellipse cx="28.4565" cy="26.6821" rx="1.02" ry="1"/><ellipse cx="17.6987" cy="2.29346" rx="1.02" ry="1"/><ellipse cx="14.28" cy="15.0215" rx="1.02" ry="1"/></g></svg>