<svg fill="none" height="52" viewBox="0 0 51 52" width="51" xmlns="http://www.w3.org/2000/svg" xmlns:xlink="http://www.w3.org/1999/xlink"><clipPath id="a"><path d="m0 .496582h51v51h-51z"/></clipPath><g clip-path="url(#a)" stroke="#92a0a9" stroke-linecap="round" stroke-linejoin="round" stroke-width="2"><path d="m44.156 1.82671c.6624-.22174 1.5455-.22174 2.2078.44348 1.3247 1.33043 9.7143 6.87391-4.4155 21.06521-6.1819 6.2087-21.4156-9.0913-15.2338-15.3z"/><path d="m34.6624 11.5835s-.2207.2217-.2207.4435c0 .2217-.0001.2217.2207.4435"/><path d="m35.5451 11.5833s-.2208-.2217-.4416-.2217c-.2207 0-.2207 0-.4415.2217"/><path d="m35.5455 12.4705s.2208-.2218.2208-.4435c0-.2218 0-.2218-.2208-.4435"/><path d="m34.662 12.4702c.2208.2218.6623.2218.8831 0"/><path d="m30.4672 20.896-15.6753 15.7435"/><path d="m24.0648 20.896 7.065 7.0956"/><path d="m16.9996 23.3354 10.8182 11.087"/><path d="m14.7919 30.4312 7.0649 7.0956"/><path d="m45.9222 1.82642-2.6494 8.42608"/><path d="m1.9869 39.3003c-.44156 0-.66234-.2218-.88312-.4435-.22078-.4435 0-.6652.22078-.887 3.97402-3.9913 9.49354-5.1 13.46754-1.1087s2.8701 9.5348-1.1039 13.5261c-.2208.2218-.6623.4435-1.1039.2218-.4416-.2218-.6623-.4435-.4416-.887.2208-2.6609-.8831-5.3217-2.87009-7.3174-1.76623-2.2174-4.41558-3.3261-7.28571-3.1043z"/></g></svg>