<svg fill="none" height="51" viewBox="0 0 51 51" width="51" xmlns="http://www.w3.org/2000/svg" xmlns:xlink="http://www.w3.org/1999/xlink"><clipPath id="a"><path d="m0 0h51v51h-51z"/></clipPath><g clip-path="url(#a)" stroke="#92a0a9" stroke-linecap="round" stroke-linejoin="round" stroke-width="2"><path d="m44.156 1.33025c.6624-.22174 1.5455-.22174 2.2078.44348 1.3247 1.33043 9.7143 6.87391-4.4155 21.06517-6.1819 6.2087-21.4156-9.0913-15.2338-15.29996z"/><path d="m34.6624 11.0869s-.2207.2218-.2207.4435-.0001.2217.2207.4435"/><path d="m35.5451 11.0869s-.2208-.2218-.4416-.2218c-.2207 0-.2207 0-.4415.2218"/><path d="m35.5455 11.9739s.2208-.2218.2208-.4435 0-.2217-.2208-.4435"/><path d="m34.662 11.9738c.2208.2217.6623.2217.8831 0"/><path d="m30.4672 20.3997-15.6753 15.7434"/><path d="m24.0648 20.3997 7.065 7.0956"/><path d="m16.9996 22.8389 10.8182 11.0869"/><path d="m14.7919 29.9348 7.0649 7.0957"/><path d="m45.9223 1.32996-2.6494 8.42608"/><path d="m1.9869 38.8039c-.44156 0-.66234-.2217-.88312-.4434-.22078-.4435 0-.6653.22078-.887 3.97402-3.9913 9.49354-5.1 13.46754-1.1087s2.8701 9.5348-1.1039 13.5261c-.2208.2217-.6623.4435-1.1039.2217-.4416-.2217-.6623-.4434-.4416-.8869.2208-2.6609-.8831-5.3218-2.87009-7.3174-1.76623-2.2174-4.41558-3.3261-7.28571-3.1044z"/></g></svg>