<svg fill="none" height="25" viewBox="0 0 25 25" width="25" xmlns="http://www.w3.org/2000/svg"><g fill="#18303f"><path d="m12.5 15.5c.2761 0 .5-.2239.5-.5s-.2239-.5-.5-.5-.5.2239-.5.5.2239.5.5.5z"/><path clip-rule="evenodd" d="m5.20078.399414c-.77614 0-1.4.623856-1.4 1.399996 0 .84061.58961 1.5 1.4 1.5h.49844v2.70039c0 1.64571.76191 3.38648 1.9677 4.7115.65375.7184 1.4514 1.329 2.34998 1.7383-.89858.4093-1.69623 1.0199-2.34998 1.7383-1.17046 1.2862-1.92267 2.9641-1.96575 4.5666-.00129.0147-.00195.0295-.00195.0445 0 .008.00018.0158.00055.0237-.00037.0256-.00055.0512-.00055.0767v2.7998h-.49844c-.77614 0-1.4.6239-1.4 1.4 0 .7762.62386 1.4 1.4 1.4h14.60002c.7761 0 1.4-.6238 1.4-1.4 0-.7761-.6239-1.4-1.4-1.4h-.5016v-2.7998c0-.0255-.0002-.0511-.0005-.0767.0003-.0079.0005-.0157.0005-.0237 0-.015-.0006-.0298-.0019-.0445-.0431-1.6025-.7953-3.2804-1.9658-4.5666-.6537-.7184-1.4514-1.329-2.35-1.7383.8986-.4093 1.6963-1.0199 2.35-1.7383 1.2058-1.32502 1.9677-3.06579 1.9677-4.7115v-2.70039h.5016c.8104 0 1.4-.65939 1.4-1.5 0-.77614-.6239-1.399996-1.4-1.399996zm-.4 1.399996c0-.22385.17614-.4.4-.4h14.60002c.2238 0 .4.17615.4.4 0 .3594-.2104.5-.4.5h-14.60002c-.18961 0-.4-.1406-.4-.5zm1.89844 19.79999v-2.3004h2.1c.61135 0 1.23848-.2378 1.64348-.6364l.9882-.8895c.6248-.5447 1.4226-.5126 1.9148-.0205.0062.0062.0125.0122.019.0181l1 .9c.0111.0099.0226.0194.0345.0283.4439.3329.9485.6 1.6.6h2.3v2.3004zm9.29998-3.3004h2.26c-.1551-1.1866-.7539-2.4343-1.6673-3.4381-.9012-.9903-2.0759-1.7082-3.3712-1.9064-.0734.0093-.1471.0171-.2212.0236.0002.0046.0004.0093.0004.0141.0001.0026.0001.0052.0001.0078 0 .2761-.2239.5-.5.5s-.5-.2239-.5-.5c0-.0073.0002-.0146.0005-.0218-.0747-.0065-.1489-.0144-.2227-.0237-1.2953.1982-2.47011.9161-3.37128 1.9064-.91341 1.0038-1.51218 2.2515-1.66729 3.4381h2.05999c.38354 0 .75105-.1581.94645-.3535.00619-.0062.01255-.0123.01907-.0181l1.00516-.9047c.9713-.8499 2.3655-.8842 3.273.013l.9737.8763c.3484.2584.6398.387.9826.387zm-.3544-7.3996h-6.29113c.72053.5365 1.54453.9107 2.42413 1.0453.2365-.0298.4772-.0453.7214-.0453s.4849.0155.7215.0453c.8795-.1346 1.7036-.5088 2.4241-1.0453zm-7.36131-.99999c-.99495-1.15349-1.58427-2.59809-1.58427-3.89961v-2.7h11.59998v2.7c0 1.30152-.5893 2.74612-1.5842 3.89961zm-3.08271 12.79979c-.22386 0-.4.1762-.4.4 0 .2239.17614.4.4.4h14.60002c.2238 0 .4-.1761.4-.4 0-.2238-.1762-.4-.4-.4z" fill-rule="evenodd"/></g></svg>