<svg fill="none" height="15" viewBox="0 0 15 15" width="15" xmlns="http://www.w3.org/2000/svg"><path clip-rule="evenodd" d="m7.46552 2.00003c-3.01852 0-5.46552 2.447-5.46552 5.46552 0 3.01855 2.447 5.46555 5.46552 5.46555 3.01848 0 5.46548-2.447 5.46548-5.46555 0-3.01852-2.447-5.46552-5.46548-5.46552zm-7.46552 5.46552c0-4.12309 3.34243-7.46551948 7.46552-7.46551948 4.12308 0 7.46548 3.34242948 7.46548 7.46551948 0 4.12305-3.3424 7.46555-7.46548 7.46555-4.12309 0-7.46552-3.3425-7.46552-7.46555zm7.46552-1.00004c.55228 0 1 .44771 1 1v2.58619c0 .5523-.44772 1-1 1-.55229 0-1-.4477-1-1v-2.58619c0-.55229.44771-1 1-1zm0-2.58621c-.55229 0-1 .44772-1 1 0 .55229.44771 1 1 1h.00625c.55228 0 1-.44771 1-1 0-.55228-.44772-1-1-1z" fill="#18303f" fill-rule="evenodd"/></svg>