<svg fill="none" height="15" viewBox="0 0 15 15" width="15" xmlns="http://www.w3.org/2000/svg"><path clip-rule="evenodd" d="m8.5 1.5c0-.552285.44771-1 1-1h3.5c.8284 0 1.5.67157 1.5 1.5v3.5c0 .55229-.4477 1-1 1s-1-.44771-1-1v-1.58579l-4.29289 4.2929c-.39053.39052-1.02369.39052-1.41422 0-.39052-.39053-.39052-1.02369 0-1.41422l4.29291-4.29289h-1.5858c-.55229 0-1-.44772-1-1zm-7 3c0-1.65685 1.34315-3 3-3h1c.55228 0 1 .44772 1 1s-.44772 1-1 1h-1c-.55228 0-1 .44772-1 1v6c0 .5523.44772 1 1 1h6c.5523 0 1-.4477 1-1v-1c0-.55228.4477-1 1-1s1 .44772 1 1v1c0 1.6569-1.3431 3-3 3h-6c-1.65685 0-3-1.3431-3-3z" fill="#027cb2" fill-rule="evenodd"/></svg>