<svg fill="none" height="26" viewBox="0 0 26 26" width="26" xmlns="http://www.w3.org/2000/svg"><path clip-rule="evenodd" d="m15.7645 9.05831c-.4329-.69277-.9007-1.30418-1.3919-1.79159-.7892-.78297-1.5905-1.19979-2.3726-1.19979s-1.5834.41682-2.37256 1.19979c-.78553.77933-1.5108 1.8757-2.12992 3.11478-1.24266 2.4869-1.99752 5.4243-1.99752 7.2431 0 3.5541 2.90624 6.4423 6.5 6.4423 3.5938 0 6.5-2.8882 6.5-6.4423 0-1.8188-.7549-4.7562-1.9975-7.2431-.0641-.1283-.1293-.255-.1956-.38-.0631.0102-.1267.0194-.1906.0273-.4527.0562-.8995.05-1.3314-.0121-.5692-.08196-1.1114-.26091-1.6068-.52116-.2747.34802-.7003.57136-1.1781.57136-.8284 0-1.5-.67153-1.5-1.49996s.6716-1.5 1.5-1.5c.8202 0 1.4866.65828 1.4998 1.47533.029.00945.0575.02169.0852.03684.4122.22524.8657.37915 1.3423.44775.2722.03918.5524.05061.8372.03145zm1.5312.67631c2.0953-.80421 3.4553-2.95644 3.1662-5.28393-.3403-2.74037-2.8377-4.68598-5.5781-4.345642-2.1245.263846-3.7701 1.823732-4.245 3.786722-.1176.48616-.1634.99674-.1271 1.51782-.57116.26429-1.10307.66555-1.58857 1.14723-.88941.8824-1.67252 2.08155-2.32015 3.37766-1.29084 2.58342-2.10298 5.67482-2.10298 7.69012 0 4.1142 3.36177 7.4423 7.5 7.4423 4.1382 0 7.5-3.3281 7.5-7.4423 0-2.0153-.8121-5.1067-2.103-7.69012-.0334-.06688-.0672-.13351-.1013-.19986zm-.4887-.88636c1.7494-.60269 2.8997-2.36477 2.6625-4.27432-.2722-2.1923-2.2702-3.748787-4.4625-3.47652-1.6981.21091-3.016 1.45759-3.3962 3.02947-.0762.31478-.1147.64281-.111.97856.1642-.02532.331-.03852.5002-.03852 1.1509 0 2.1911.61112 3.0769 1.48989.6343.62928 1.2145 1.41967 1.7301 2.29144zm-.307 8.71864c0-2.4852-2.0147-4.5-4.5-4.5-2.48528 0-4.5 2.0148-4.5 4.5 0 2.4853 2.01472 4.5 4.5 4.5 2.4853 0 4.5-2.0147 4.5-4.5zm-4.5-5.5c3.0376 0 5.5 2.4625 5.5 5.5 0 3.0376-2.4624 5.5-5.5 5.5-3.03757 0-5.5-2.4624-5.5-5.5 0-3.0375 2.46243-5.5 5.5-5.5zm0-2.99996c.2761 0 .5-.22386.5-.5s-.2239-.5-.5-.5-.5.22386-.5.5.2239.5.5.5z" fill="#18303f" fill-rule="evenodd"/></svg>