<svg fill="none" height="25" viewBox="0 0 25 25" width="25" xmlns="http://www.w3.org/2000/svg"><g stroke="#18303f" stroke-linecap="round"><g stroke-linejoin="round"><path d="m16.5 18.3793v-.0355m-8-.1563v5.5453c0 .2.3.3.7-.1l3.3-3.3 3.3 3.3c.4.4.7.2.7-.3v-3.364"/><path d="m12.2898 6.26851c.1057-.21137.3171-.21137.4227 0l.9512 2.00794h1.9022c.3171 0 .3171.10568.1057.31704l-1.5852 1.16249.6341 2.32502c.1057.317-.1057.4227-.3171.2113l-2.0079-1.2681-2.0079 1.2681c-.2114.1057-.42277 0-.3171-.2113l.6341-2.21934-1.47953-1.26817c-.21137-.21136-.21137-.31704.10568-.31704h1.90225z"/><path d="m12.5 17.333c4.4183 0 8-3.5817 8-7.99999 0-4.41828-3.5817-8-8-8-4.41828 0-8 3.58172-8 8 0 4.41829 3.58172 7.99999 8 7.99999z"/></g><path d="m12.5 15.1454c3.2101 0 5.8125-2.6023 5.8125-5.81244 0-3.21013-2.6024-5.81245-5.8125-5.81245-3.21012 0-5.81244 2.60232-5.81244 5.81245 0 3.21014 2.60232 5.81244 5.81244 5.81244z" stroke-dasharray="1 2" stroke-linejoin="bevel"/></g></svg>