<svg fill="none" height="15" viewBox="0 0 15 15" width="15" xmlns="http://www.w3.org/2000/svg"><g fill="#2d3436"><path d="m5.5 3c.27614 0 .5-.22386.5-.5s-.22386-.5-.5-.5zm7.5 6.5c0-.27614-.2239-.5-.5-.5s-.5.22386-.5.5zm-7.5-7.5h-1v1h1zm-3.5 2.5v6h1v-6zm2.5 8.5h6v-1h-6zm8.5-2.5v-1h-1v1zm-2.5 2.5c1.3807 0 2.5-1.1193 2.5-2.5h-1c0 .8284-.6716 1.5-1.5 1.5zm-8.5-2.5c0 1.3807 1.11929 2.5 2.5 2.5v-1c-.82843 0-1.5-.6716-1.5-1.5zm2.5-8.5c-1.38071 0-2.5 1.11929-2.5 2.5h1c0-.82843.67157-1.5 1.5-1.5z"/><path d="m9.5 1c-.27614 0-.5.22386-.5.5s.22386.5.5.5zm3.5 4.5c0 .27614.2239.5.5.5s.5-.22386.5-.5zm-3.5-3.5h3.5v-1h-3.5zm3.5 0v3.5h1v-3.5zm0 0h1c0-.55228-.4477-1-1-1z"/><path d="m7.14645 7.14645c-.19527.19526-.19527.51184 0 .7071.19526.19527.51184.19527.7071 0zm5.49995-5.5-5.49995 5.5.7071.7071 5.50005-5.5z"/></g></svg>