<svg fill="none" height="24" viewBox="0 0 24 24" width="24" xmlns="http://www.w3.org/2000/svg"><path d="m12 23.5c6.3513 0 11.5-5.1487 11.5-11.5 0-6.35127-5.1487-11.5-11.5-11.5-6.35127 0-11.5 5.14873-11.5 11.5 0 6.3513 5.14873 11.5 11.5 11.5z" stroke="#18303f" stroke-linecap="round" stroke-linejoin="round" stroke-miterlimit="10"/><path d="m12.5 9c0-.27614-.2239-.5-.5-.5s-.5.22386-.5.5v2.5h-2.5c-.27614 0-.5.2239-.5.5s.22386.5.5.5h2.5v2.5c0 .2761.2239.5.5.5s.5-.2239.5-.5v-2.5h2.5c.2761 0 .5-.2239.5-.5s-.2239-.5-.5-.5h-2.5z" fill="#18303f"/></svg>