<svg fill="none" height="25" viewBox="0 0 26 25" width="26" xmlns="http://www.w3.org/2000/svg"><g fill="#18303f"><path d="m11.9819 3.46224c0 .28765-.2332.52083-.5208.52083s-.5208-.23318-.5208-.52083.2332-.52083.5208-.52083.5208.23318.5208.52083z"/><path d="m20.918 12.7653-1.2052-1.2052c-.1953-.1952-.5119-.1952-.7071 0-.1953.1953-.1953.5119 0 .7071l2.0531 2.0531c.0207.0215.0434.0411.0678.0586.0169.0121.0346.0232.053.0332.063.0343.1342.0553.2098.0596.0095.0005.019.0008.0286.0008.0172 0 .0343-.0009.0511-.0026.0358-.0036.0704-.011.1036-.0218.0727-.0236.1411-.0643.1989-.1221l2.0588-2.0588c.1953-.1952.1953-.5118 0-.7071-.1952-.1952-.5118-.1952-.7071 0l-1.2053 1.2054v-1.7928c0-4.5137-3.6723-7.9286-8.3913-7.9286-.2761 0-.5.22386-.5.5s.2239.5.5.5c4.2245 0 7.3913 3.02324 7.3913 6.9286z"/><path d="m4.62923 10.6781c.14098 0 .26834.0584.35923.1522l2.05306 2.0531c.19526.1952.19526.5118 0 .7071-.19526.1952-.51184.1952-.70711 0l-1.20518-1.2052v1.7926c0 3.9054 3.16681 6.9286 7.39127 6.9286.2761 0 .5.2239.5.5s-.2239.5-.5.5c-4.71897 0-8.39127-3.4149-8.39127-7.9286v-1.7928l-1.20536 1.2054c-.19527.1952-.51185.1952-.70711 0-.19526-.1953-.19526-.5119 0-.7071l2.05883-2.0589c.02346-.0234.04901-.0443.07622-.0624.07693-.0514.16891-.0821.26794-.0839z"/><path d="m14.582 22.2092c.2877 0 .5209-.2332.5209-.5208 0-.2877-.2332-.5209-.5209-.5209-.2876 0-.5208.2332-.5208.5209 0 .2876.2332.5208.5208.5208z"/></g></svg>