<svg fill="none" height="18" viewBox="0 0 18 18" width="18" xmlns="http://www.w3.org/2000/svg"><g fill="#18303f"><path d="m8.26698 2.4928c0 .2071-.16789.375-.375.375-.2071 0-.375-.1679-.375-.375 0-.20711.1679-.375.375-.375.20711 0 .375.16789.375.375z"/><path d="m14.7009 9.191-.8677-.86773c-.1406-.14059-.3685-.14059-.5091 0-.1406.14058-.1406.36852 0 .50911l1.4782 1.47822c.015.0155.0313.0296.0488.0422.0122.0087.025.0167.0382.0239.0454.0247.0966.0398.1511.0429.0068.0004.0136.0006.0205.0006.0125 0 .0247-.0006.0368-.0019.0258-.0026.0508-.0079.0746-.0157.0524-.017.1016-.0463.1433-.0879l1.4823-1.48232c.1406-.14059.1406-.36853 0-.50911-.1406-.14059-.3685-.14059-.5091 0l-.8679.86786v-1.29078c0-3.24989-2.644-5.70861-6.04169-5.70861-.19882 0-.36.16117-.36.36 0 .19882.16118.36.36.36 3.04159 0 5.32169 2.17673 5.32169 4.98861z"/><path d="m2.97304 7.68822c.1015 0 .1932.04201.25864.10959l1.47821 1.47821c.14058.14058.14058.36852 0 .50911-.14059.14059-.36853.14059-.50912 0l-.86773-.86773v1.2907c0 2.8118 2.2801 4.9886 5.32171 4.9886.19883 0 .36.1611.36.36 0 .1988-.16117.36-.36.36-3.39766 0-6.04171-2.4588-6.04171-5.7086v-1.29083l-.86787.86786c-.14058.14059-.36852.14059-.50911 0s-.14059-.36853 0-.50911l1.48235-1.48236c.01689-.01689.03529-.03193.05488-.04499.05539-.03701.12162-.05906.19292-.06039z"/><path d="m10.1391 15.9906c.2071 0 .375-.1679.375-.375s-.1679-.375-.375-.375c-.20715 0-.37505.1679-.37505.375s.1679.375.37505.375z"/></g></svg>