<svg fill="none" height="26" viewBox="0 0 25 26" width="25" xmlns="http://www.w3.org/2000/svg"><path d="m13.3913 23.9755h-2.7129l-.4555-6.0273h-.65283m5.64823-7.5709c-.3478-.2814-.7346-.50904-1.151-.67265-.4867-.1912-1.0138-.29498-1.5666-.29498-2.55117 0-4.55563 2.21003-4.55563 5.02273v1.8122m-.01953 1.7036h-.02344m5.4625 6.0269h.9605l.4556-6.0272h.6528m-5.64826-7.571c.34786-.2814.73456-.50897 1.15096-.67258.4867-.19121 1.0139-.29499 1.5667-.29499 2.5511 0 4.5556 2.20997 4.5556 5.02267v1.8123m.0195 1.7036h.0234m-4.6001-9.92966c1.7311 0 3.1889-1.48479 3.1889-3.24797s-1.4578-3.24796-3.1889-3.24796-3.18891 1.48478-3.18891 3.24796 1.45781 3.24797 3.18891 3.24797zm.001-.00034c-1.7312 0-3.18896-1.48478-3.18896-3.24796s1.45776-3.24797 3.18896-3.24797c1.7311 0 3.1889 1.48479 3.1889 3.24797s-1.4578 3.24796-3.1889 3.24796z" stroke="#18303f" stroke-linecap="round" stroke-linejoin="round"/></svg>