<svg fill="none" height="25" viewBox="0 0 25 25" width="25" xmlns="http://www.w3.org/2000/svg"><g fill="#18303f"><path clip-rule="evenodd" d="m23.072 6.36579c-.5069 1.61363-1.3996 3.21646-2.5803 4.62721-.014.0743-.0449.1453-.0913.2072-.0619.0826-.1338.1833-.214.2956-.2661.3728-.6228.8725-1.0054 1.2551-.155.155-.2823.2753-.405.3912l-.0013.0011c-.0951.0899-.1874.1771-.2912.2788-.0171.0204-.0359.0395-.0564.0571-.0037.0033-.0075.0066-.0113.0098-.0089.0088-.0178.0177-.0269.0268-.0255.0255-.0533.0478-.0827.0668-.3389.287-.6846.5585-1.0358.8142-.0124.6897-.0976 1.3669-.1802 2.0236-.0449.3574-.0891.7087-.1204 1.0525-.004.0446-.014.0884-.0297.1303-.3306.8814-.8765 1.6398-1.5147 2.278l-2.5 2.5c-.3952.3953-1.0118.3953-1.4071 0-.0983-.0983-.1934-.2385-.2458-.3954-.0349-.1048-.0785-.3145.0129-.5201l.4379-4.4666c-.9967.2301-1.98488.3329-2.93928.3011-.02197-.0007-.04386-.0029-.06554-.0065-.73338-.1222-1.51297-.6522-1.51778-1.5845-.03167-1.0034.07639-2.0226.31633-3.0397l-4.25432.4171c-.20557.0914-.4153.0478-.52004.0129-.15695-.0524-.2971-.1475-.39544-.2458-.39526-.3953-.39526-1.0119 0-1.4071l2.5-2.50003c.64001-.64002 1.38449-1.17094 2.22994-1.59366.04238-.02119.08755-.03625.13417-.04473 1.04989-.19089 2.0163-.29361 3.06066-.30664.2372-.3134.4873-.62279.75-.9275.0311-.0361.0668-.06708.1057-.09247.2601-.34064.6465-.78752.8981-1.0391.4103-.41028.6186-.60655 1.1358-1.02029.0212-.01699.0436-.03209.067-.04525 1.5318-1.21825 3.0663-2.034 4.6958-2.64507l.0074-.00277c3.1643-1.130105 6.3924 1.90996 5.1402 5.1368zm-3.191 3.79541c1.0288-1.27487 1.8002-2.69729 2.2418-4.11041.0035-.01137.0075-.02261.0118-.03369.9294-2.3657-1.4339-4.71191-3.8628-3.84759-1.4355.53866-2.7832 1.24064-4.1256 2.26053.6583 1.12903 1.5414 2.2504 2.5074 3.21633 1.0575 1.05756 2.1088 1.87001 3.2274 2.51483zm-6.5491-5.08158c-.1997.17438-.3601.33092-.599.56986-.1993.19935-.4992.54438-.721.82394.6536 1.15639 1.4871 2.3074 2.729 3.46059.0033.00307.0066.00618.0098.00933l.0035.00351c.9796.97965 2.1191 1.87405 3.2643 2.53515.023-.0218.0458-.0433.0684-.0646l.0012-.0012c.123-.1161.2414-.228.3858-.3724.2919-.2919.5527-.6474.7939-.9841-1.1784-.7-2.3301-1.61517-3.3209-2.60599-1.0727-1.07271-1.9341-2.21433-2.615-3.37409zm-2.045 2.24393c-1.2168 1.54106-2.08589 3.17245-2.58678 4.80355-.00424.0801-.02765.156-.06607.2226-.322 1.1236-.46878 2.245-.43363 3.3346l.00026.0161c0 .2565.2083.5176.65167.6014 2.63585.0777 5.63695-.982 8.30335-3.0715-1.1422-.7067-2.2787-1.6465-3.3088-2.6766-1.0461-1.04607-1.8905-2.16554-2.56-3.23015zm-3.48062 4.31275c.39726-1.2258.98353-2.43959 1.74492-3.60954-.69247.03968-1.3686.12363-2.09002.25241-.72801.3717-1.36255.83011-1.90685 1.3744l-2.44301 2.44303zm4.94952 5.0797-.4805 4.901 2.443-2.443c.5459-.5459.9901-1.1671 1.2621-1.8611.0371-.3928.0833-.7563.1279-1.107.048-.3777.0941-.7408.1251-1.1101-1.1315.7041-2.3043 1.2481-3.4776 1.6202zm-7.67608-.281c.08335.2633-.0625.5443-.32576.6276-.28191.0893-.59577.2882-.89884.5913-.11199.112-.26349.347-.43894.7116-.16931.3519-.34087.7811-.50667 1.2417-.32089.8913-.60873 1.8677-.80795 2.5632v.1359l.00109.0023c.69722-.1995 1.68832-.4909 2.59205-.8162.46056-.1658.88975-.3374 1.24163-.5067.36464-.1755.59969-.327.71168-.4389.29707-.2971.48327-.6337.53616-.9334.04944-.2801-.01245-.5358-.23616-.7595-.19526-.1953-.19526-.5119 0-.7071.19526-.1953.51184-.1953.70711 0 .47629.4763.61439 1.0706.51383 1.6404-.0971.5503-.4109 1.0637-.81383 1.4667-.23802.238-.60296.449-.9852.6329-.39499.1901-.85956.3748-1.3365.5465-.95051.3421-1.9847.6449-2.68566.8452-.29303.0939-.58599.0482-.8212-.1282-.21219-.1591-.33201-.3899-.39934-.5919-.01699-.051-.02566-.1043-.02566-.1581v-.3c0-.0464.00648-.0927.01924-.1373.20031-.7011.50419-1.74.84782-2.6945.1717-.477.35639-.9416.54645-1.3365.18392-.3823.39493-.7472.63294-.9852.38388-.3839.83072-.6876 1.30411-.8375.26326-.0834.54424.0625.6276.3257z" fill-rule="evenodd"/><ellipse cx="5.99414" cy="16.8887" rx=".494141" ry=".5"/></g></svg>