<svg fill="none" height="17" viewBox="0 0 17 17" width="17" xmlns="http://www.w3.org/2000/svg"><path d="m9.66639 7.42538-.38849.96625c-.21592.43185.07198.93595.50383 1.15187l.57577.21563c.4319.14395.5038.54507.5038 1.07997-.0719.216-.2878.4318-.5038.5038l-.57577.2156c-.43185.144-.71975.6482-.50383 1.08l.2879.6475c.21593.4319.03419.7983-.43185 1.1519-.21592.1439-.75804.1439-.97396 0l-.39356-.1444c-.43185-.2159-.93567 0-1.1516.4319l-.21592.6481c-.14395.4319-.64778.7197-1.07963.5038-.21592-.072-.43185-.2879-.50382-.5038l-.21592-.5756c-.14395-.4319-.64778-.7203-1.07963-.5044l-.64777.2881c-.43185.216-.93567 0-1.1516-.4318-.14395-.216-.14395-.5035 0-.7194l.2879-.5763c.21592-.4318 0-.9353-.43185-1.1512l-.647773-.2163c-.43185-.1439-.504514-.5024-.503824-1.0793-.000525-.3031.143949-.5762.359874-.64817l.575803-.21563c.43185-.14395.71974-.64752.50382-1.07937v-.0725l-.2879-.57563c-.21592-.43185 0-.93532.43185-1.15125.21592-.14395.50382-.14395.71975 0l.5758.2875c.43185.21593.93567-.00002 1.1516-.43187l.21592-.6475c.14395-.43185.64777-.5614 1.07962-.50375.35988 0 .5758.21595.64778.43187l.21592.57563c.14395.43185.64778.71967 1.07963.50375l.58522-.36m.19381-1.58938c.30676-.2454.30676-.6746.06135-.92l-.06135-.06125-.3681-.30687c-.2454-.24541-.30675-.67513 0-.98188.1227-.1227.3681-.2451.55216-.18375l.4908.06125c.36811 0 .67486-.24564.73621-.61375v-.06125-.49062c0-.36811.30674-.675004.67484-.675004.1841 0 .4295.061573.5522.245625l.3067.368129c.2454.30675.6749.30665.9203.06125l.0613-.06125.3068-.368129c.2454-.245403.6748-.306753.9816 0 .1227.122699.2454.367819.1841.551879l-.0614.49062c0 .36811.2454.6749.6135.73625h.0614.4908c.3681 0 .6748.3069.6748.675 0 .18405-.0613.4298-.2454.5525l-.3681.30625c-.3067.2454-.3067.67522-.0613.92063l.0613.06125.3681.30687c.2454.2454.3068.6745 0 .98125-.1227.1227-.3681.24573-.5521.18438l-.4908-.06125c-.3681 0-.6749.24502-.7363.61312v.06125.49125c0 .36811-.3067.67438-.6748.67438-.1841 0-.4295-.06095-.5522-.245l-.3067-.36813c-.2454-.30675-.6749-.30665-.9203-.06125l-.0613.06125-.3068.36813c-.2454.2454-.6748.30675-.98159 0-.1227-.1227-.2454-.36845-.18405-.5525l.06135-.49063c0-.3681-.24541-.6749-.61351-.73625h-.06135-.49081c-.3681 0-.67485-.30689-.67485-.675 0-.18405.06135-.42917.2454-.55187z" stroke="#18303f" stroke-linecap="round" stroke-linejoin="round" stroke-width=".75"/><path clip-rule="evenodd" d="m10.32 4.50214c0-.80938.6561-1.46552 1.4655-1.46552s1.4655.65614 1.4655 1.46552c0 .80939-.6561 1.46552-1.4655 1.46552s-1.4655-.65613-1.4655-1.46552zm1.4655-2.21552c-1.2236 0-2.21553.99192-2.21553 2.21552s.99193 2.21552 2.21553 2.21552 2.2155-.99192 2.2155-2.21552-.9919-2.21552-2.2155-2.21552zm-8.25053 8.33578c0-1.10465.89551-2.00015 2.00017-2.00015 1.10467 0 2.00017.8955 2.00017 2.00015 0 1.1047-.8955 2.0002-2.00017 2.0002-1.10466 0-2.00017-.8955-2.00017-2.0002zm2.00017-2.75015c-1.51887 0-2.75017 1.23129-2.75017 2.75015 0 1.5189 1.2313 2.7502 2.75017 2.7502 1.51888 0 2.75017-1.2313 2.75017-2.7502 0-1.51886-1.23129-2.75015-2.75017-2.75015z" fill="#18303f" fill-rule="evenodd"/></svg>