<svg fill="none" height="25" viewBox="0 0 25 25" width="25" xmlns="http://www.w3.org/2000/svg"><path clip-rule="evenodd" d="m24.4322 3.06632c.0338.05811.0548.12088.0634.18461.002.01481.0033.02968.0039.04456.0019.04335-.0018.08675-.011.12905l-3.8994 18.29766c-.0039.0182-.0088.0362-.0147.0539-.1429.4287-.4349.7313-.7507.8892-.0212.0106-.043.0197-.0655.0271-.3507.117-.8712.1778-1.2692-.1808l-4.7139-3.1069-2.3377 3.9559c-.1244.2341-.3404.3771-.5417.4442-.2068.0688-.4737.0827-.7189-.0399-.154-.077-.30875-.1916-.43102-.334-.11736-.1368-.24578-.3486-.24578-.6132v-6.1216l-8.13586-2.2971c-.00747-.0021-.01489-.0044-.02225-.0068-.426061-.1421-.84189-.487-.84189-1.0745 0-.366.12514-.9571.72381-1.1677l22.58059-9.29248c.0153-.00651.0309-.01222.0467-.01714.0696-.02176.1415-.02755.211-.01883.1236.01554.2398.07705.3223.17632.0179.02151.0338.04442.0478.06845zm-13.9322 14.17978v5.5279l.0046.0056c.0126.0146.0305.0318.0529.049.0076.0058.0153.0113.023.0165l2.3587-3.9913zm.3069-.9954 12.3745-11.49051-3.5637 16.72251c-.0522.1398-.1388.2271-.2138.2729-.0877.0255-.1533.0309-.1958.027-.0398-.0036-.0495-.0133-.054-.0178-.0239-.0239-.0504-.0457-.0786-.0643zm10.8277-11.4189-11.76902 10.9284-8.217-2.32c-.08349-.0292-.12125-.0612-.13475-.0766-.00625-.0072-.0085-.0119-.00972-.0152-.00121-.0032-.00411-.0122-.00411-.0307 0-.1007.0178-.1671.03472-.2008.00721-.0144.01226-.019.01264-.0194l.00165-.0011c.00094-.0006.00378-.0021.00949-.0041.01086-.0036.02159-.0076.03217-.0119z" fill="#18303f" fill-rule="evenodd"/></svg>