<svg fill="none" height="26" viewBox="0 0 25 26" width="25" xmlns="http://www.w3.org/2000/svg"><g fill="#18303f"><path d="m10.8917 22.5167c0 .8016.6499 1.4515 1.4515 1.4515s1.4514-.6499 1.4514-1.4515h1c0 1.3539-1.0975 2.4515-2.4514 2.4515s-2.45148-1.0976-2.45148-2.4515z"/><g clip-rule="evenodd" fill-rule="evenodd"><path d="m5.93428 13.9646c.22306-3.3741 3.02489-5.99683 6.40632-5.99683 3.3814 0 6.1833 2.62273 6.4063 5.99683l.4799 7.2588c.0572.8655-.6293 1.599-1.4967 1.599h-10.77898c-.86737 0-1.55395-.7335-1.49674-1.599zm6.40632-4.99683c-2.85475 0-5.22018 2.21423-5.4085 5.06273l-.47989 7.2589c-.01908.2885.20978.533.49891.533h10.77898c.2891 0 .518-.2445.4989-.533l-.4799-7.2589c-.1883-2.8485-2.5537-5.06273-5.4085-5.06273z"/><path d="m15.5282 4.99109c.0615-.26919.3297-.43752.5989-.37597 1.879.42965 3.3335 1.86598 3.7885 3.73446.0653.2683-.0993.53876-.3676.60409s-.5387-.09921-.6041-.36751c-.3653-1.50059-1.5301-2.65101-3.0397-2.9962-.2692-.06155-.4376-.32967-.376-.59887z"/><path d="m16.4961 1.62598c0-.27615.2239-.5.5-.5 3.5761 0 6.5 2.92385 6.5 6.5 0 .27614-.2239.5-.5.5s-.5-.22386-.5-.5c0-3.02386-2.4761-5.5-5.5-5.5-.2761 0-.5-.22386-.5-.5z"/><path d="m9.48353 4.99109c-.06156-.26919-.32968-.43752-.59888-.37597-1.879.42965-3.33352 1.86598-3.78849 3.73446-.06533.2683.09921.53876.36752.60409.2683.06533.53876-.09921.60409-.36751.36539-1.50059 1.53017-2.65101 3.03979-2.9962.26919-.06155.43752-.32967.37597-.59887z"/><path d="m8.51562 1.62598c0-.27615-.22385-.5-.5-.5-3.57614 0-6.5 2.92385-6.5 6.5 0 .27614.22386.5.5.5.27615 0 .5-.22386.5-.5 0-3.02386 2.47615-5.5 5.5-5.5.27615 0 .5-.22386.5-.5z"/></g></g></svg>