<svg fill="none" height="25" viewBox="0 0 26 25" width="26" xmlns="http://www.w3.org/2000/svg"><path d="m11.5198 21.8737c-.2684.805-1.1629 1.1629-1.87856.8945-.71564-.2684-1.16292-1.1629-.89455-1.8786" fill="#f18303"/><g stroke="#18303f" stroke-linecap="round" stroke-linejoin="round"><path d="m11.5198 21.8737c-.2684.805-1.1629 1.1629-1.87856.8945-.71564-.2684-1.16292-1.1629-.89455-1.8786"/><path d="m17.5957 15.5005c1-2.4 0-5.2-2.3-6.40003-1.0994-.46798-1.8144-.56961-3.1255-.43077-1.8264.31931-3.34511 1.6325-3.9745 3.4308l-1 2.8c-.3.9-.9 1.6-1.7 1.9-.4.2-.8.5-.9.9-.3.8.1 1.6.9 1.9l4.7 1.7 4.7 1.7c.8.3 1.6-.1 1.9-.9.2-.5.1-.9-.1-1.3-.4-.8-.4-1.7-.1-2.5z" fill="#f18303"/><path d="m5.97812 9.12637c0-2.59145 2.02809-4.61953 4.61958-4.61953"/><path d="m2.54687 7.15039c0-3.3 2.70001-6 6.00001-6"/><path d="m21.0648 10.1264c0-2.59148-2.028-4.61956-4.6195-4.61956"/><path d="m24.4961 8.15039c0-3.3-2.7-6-6-6"/></g></svg>