<svg fill="none" height="25" viewBox="0 0 25 25" width="25" xmlns="http://www.w3.org/2000/svg"><g stroke="#18303f" stroke-linecap="round" stroke-linejoin="round"><path d="m1 23.6h23"/><path d="m5 19.3c0-.3-.2-.5-.5-.5h-2c-.3 0-.5.2-.5.5v4.3h3z"/><path d="m11 14.5c0-.3-.2-.5-.5-.5h-2c-.3 0-.5.2-.5.5v9.1h3z"/><path d="m17 16.4c0-.3-.2-.5-.5-.5h-2c-.3 0-.5.2-.5.5v7.2h3z"/><path d="m23 9.69998c0-.3-.2-.5-.5-.5h-2c-.3 0-.5.2-.5.5v13.90002h3z"/><path d="m3.5 13.5c.8 0 1.5-.6 1.5-1.4s-.7-1.4-1.5-1.4-1.5.6-1.5 1.4.7 1.4 1.5 1.4z"/><path d="m9.5 8.69998c.8 0 1.5-.6 1.5-1.4s-.7-1.4-1.5-1.4-1.5.6-1.5 1.4.7 1.4 1.5 1.4z"/><path d="m15.5 10.6c.8 0 1.5-.60002 1.5-1.40002s-.7-1.4-1.5-1.4-1.5.6-1.5 1.4.7 1.40002 1.5 1.40002z"/><path d="m21.5 4.39998c.8 0 1.5-.6 1.5-1.4s-.7-1.4-1.5-1.4-1.5.6-1.5 1.4c0 .7.7 1.4 1.5 1.4z"/><path d="m4.80005 11.1 3.6-2.90002"/><path d="m10.9 7.69998 3.2 1"/><path d="m20.3 3.79998-3.8 4.2"/></g></svg>