<svg fill="none" height="50" viewBox="0 0 50 50" width="50" xmlns="http://www.w3.org/2000/svg"><path clip-rule="evenodd" d="m47 25c0 12.1503-9.8497 22-22 22s-22-9.8497-22-22 9.8497-22 22-22 22 9.8497 22 22zm1 0c0 12.7025-10.2975 23-23 23s-23-10.2975-23-23 10.2975-23 23-23 23 10.2975 23 23zm-13.0682-5.3993c.1953-.1952.1953-.5118 0-.7071-.1953-.1952-.5118-.1952-.7071 0l-11.1446 11.1446-5.3955-5.3955c-.1953-.1953-.5118-.1953-.7071 0s-.1953.5118 0 .7071l5.7491 5.7491c.0937.0937.2209.1464.3535.1464s.2598-.0527.3536-.1464z" fill="#038c6a" fill-rule="evenodd"/></svg>