<svg fill="none" height="26" viewBox="0 0 25 26" width="25" xmlns="http://www.w3.org/2000/svg"><g fill="#18303f"><path d="m9.53027 6.00775c0-.30116.26062-.59652.78183-.8861.5328-.30115 1.1583-.45173 1.8764-.45173 1.0425 0 1.8475.28957 2.4151.86872.5791.57914.8687 1.32045.8687 2.22392 0 .49806-.0985.97875-.2954 1.44207-.1853.45173-.388.79917-.6081 1.04247-.2085.2432-.4749.5212-.7992.834-.3243.3011-.527.5038-.6081.6081-.2664.2895-.4343.6139-.5038.9729-.0695.3591-.1043.9151-.1043 1.668 0 .2664-.1564.3996-.4691.3996s-.4691-.168-.4691-.5039c0-.8919.0637-1.5463.1911-1.9633.1274-.4286.3128-.7818.556-1.0598.0927-.0927.2954-.2838.6081-.5734.3243-.3011.5733-.5502.7471-.74707.1737-.19691.3417-.48069.5038-.85135.1738-.37065.2607-.76447.2607-1.18145 0-.69498-.2027-1.23937-.6081-1.63319s-.9846-.59073-1.7375-.59073c-.4517 0-.8282.07529-1.1293.22587-.2896.13899-.5097.27799-.6602.41698-.1506.139-.278.20849-.38227.20849-.10424 0-.2027-.04054-.29536-.12162-.09266-.09266-.139-.20849-.139-.34748z" stroke="#18303f" stroke-width=".25"/><circle cx="12.1329" cy="16.9088" r=".565994" stroke="#18303f" stroke-width=".25"/><path d="m15.9783 20.0953.4963-.0613zm.8508-1.0524.0967.4905zm.6969 4.9406.4028-.2963zm-9.01826-4.8813-.0782.4939zm-7.1718-8.9948c0-4.75375 3.85364-8.6074 8.60736-8.6074v-1c-5.306 0-9.607362 4.30136-9.607362 9.6074zm7.24999 8.501c-4.10867-.6506-7.24999-4.2094-7.24999-8.501h-1.000002c0 4.7912 3.506702 8.7624 8.093602 9.4887zm8.51597 5.8914c-3.2728 0-6.0763-2.0141-7.23612-4.8725l-.92662.376c1.30764 3.2226 4.46904 5.4965 8.16274 5.4965zm-1.6198-4.3433c.189 1.5311.7709 2.9403 1.6411 4.1233l.8056-.5926c-.7716-1.0488-1.2868-2.297-1.4542-3.6532zm8.1845-10.0491c0 4.1808-2.9812 7.6664-6.9341 8.4449l.1933.9811c4.4125-.869 7.7408-4.7583 7.7408-9.426zm-8.6073-8.6074c4.7537 0 8.6073 3.85365 8.6073 8.6074h1c0-5.30604-4.3013-9.6074-9.6073-9.6074zm-5.116 0h5.116v-1h-5.116zm6.5313 18.534c-.0238-.1929.1285-.437.4512-.5006l-.1933-.9811c-.7.1379-1.3543.7626-1.2504 1.6042zm.6273 5.4658c.4843 0 .8339-.3026.9796-.6714.1411-.3572.103-.7935-.1527-1.1412l-.8056.5926c.0444.0604.0475.1323.0282.1812-.0088.0223-.0189.0312-.0219.0334-.0003.0002-.0055.0054-.0276.0054zm-8.67236-5.9037c.22648.0358.42197.1912.50962.4072l.92662-.376c-.21801-.5373-.70343-.9276-1.27985-1.0189z"/></g></svg>