<svg fill="none" height="7" viewBox="0 0 7 7" width="7" xmlns="http://www.w3.org/2000/svg"><g clip-rule="evenodd" fill="#00ac83" fill-rule="evenodd"><path d="m5.35404 3.85404c-.19526.19526-.51184.19526-.70711 0l-3-2.999998c-.19526-.195263-.19526-.511845.00001-.707107.19526-.1952622.51184-.1952623.7071 0l3 3.000005c.19526.19526.19526.51184 0 .7071z"/><path d="m5.35404 3.14694c.19526.19526.19526.51184 0 .7071l-3 3c-.19526.19526-.51184.19526-.70711 0-.19526-.19526-.19526-.51184 0-.7071l3-3c.19527-.19527.51185-.19527.70711 0z"/></g></svg>