<svg fill="none" height="12" viewBox="0 0 12 12" width="12" xmlns="http://www.w3.org/2000/svg"><g clip-rule="evenodd" fill="#18303f" fill-rule="evenodd"><path d="m6 5.49121c-1.10376 0-2 .89654-2 2.00428s.89624 2.00428 2 2.00428 2-.89654 2-2.00428-.89624-2.00428-2-2.00428zm-3 2.00428c0-1.65841 1.34234-3.00428 3-3.00428s3 1.34587 3 3.00428-1.34234 3.00431-3 3.00431-3-1.3459-3-3.00431z"/><path d="m4.23683 2.06085c1.30719-.92688 3.20211-.69638 4.16778.63368.16223.22346.11261.53613-.11085.69837-.22346.16223-.53613.1126-.69837-.11085-.62661-.86308-1.90905-1.04027-2.80098-.39049-.02227.01623-.04585.03059-.0705.04293-.10316.05167-.22481.17345-.27654.2771-.12333.24707-.4236.34739-.67067.22406-.24707-.12332-.34739-.42359-.22407-.67066.14171-.2839.40226-.55124.6842-.70414z"/></g></svg>