<svg fill="none" height="52" viewBox="0 0 51 52" width="51" xmlns="http://www.w3.org/2000/svg"><g stroke="#92a0a9" stroke-linecap="round" stroke-linejoin="round" stroke-width="2"><path d="m40.2149 11.9143h-3.7562-6.6089-8.6996-6.6089-3.7562c-.6733 0-1.2226.5441-1.2226 1.2112v1.5271 5.9855l5.3863 22.0816c.4784 1.9659 1.7187 3.1946 3.0476 3.1946h15.025c1.3288 0 2.5514-1.2287 3.0475-3.1946l5.3686-22.0816v-6.0031-1.5271c0-.6495-.5493-1.1936-1.2226-1.1936z"/><path d="m40.2313 11.9143h-3.7604-6.6163-8.7093-6.6162-3.7604c-.6031 0-1.11751.458-1.2062 1.0625.08869.6045.6031 1.0625 1.2062 1.0625h3.7604 6.6162 8.7093 6.6163 3.7604c.6031 0 1.1175-.458 1.2062-1.0625-.0887-.6045-.6031-1.0625-1.2062-1.0625z"/><path d="m20.1875 11.9143v-1.8573c0-2.49309 2.3861-4.51769 5.3125-4.51769s5.3125 2.0246 5.3125 4.51769v1.8573"/><path d="m19.0625 19.2893v10.75"/><path d="m25.4375 23.5393v10.75"/><path d="m25.4375 19.2893v.1351"/><path d="m19.0625 34.1538v.1351"/><path d="m25.4375 38.6873v.135"/><path d="m31.8125 19.2893v10.75"/></g></svg>