<svg fill="none" height="25" viewBox="0 0 26 25" width="26" xmlns="http://www.w3.org/2000/svg"><g stroke="#18303f" stroke-linecap="round" stroke-linejoin="round"><path d="m20.2132 5.59692h-1.8413-3.2396-4.2646-3.23961-1.8413c-.33004 0-.59929.26674-.59929.59371v.74858 2.93409l2.64036 10.8243c.2345.9637.84248 1.566 1.49388 1.566h7.36516c.6514 0 1.2507-.6023 1.4939-1.566l2.6317-10.8243v-2.9427-.74858c0-.31836-.2692-.5851-.5993-.5851z"/><path d="m20.2212 5.59692h-1.8433-3.2433-4.2692-3.24329-1.84335c-.29563 0-.54778.2245-.59126.52084.04348.29633.29563.52083.59126.52083h1.84335 3.24329 4.2692 3.2433 1.8433c.2957 0 .5478-.2245.5913-.52083-.0435-.29634-.2956-.52084-.5913-.52084z"/><path d="m10.3959 5.59692v-.91043c0-1.22211 1.1696-2.21457 2.6041-2.21457s2.6042.99246 2.6042 2.21457v.91043"/><path d="m9.85413 9.22192v5.24998"/><path d="m12.9791 11.3052v5.25"/><path d="m12.9791 9.22192v.0466"/><path d="m9.85413 16.5085v.0466"/><path d="m12.9791 18.7307v.0466"/><path d="m16.1041 9.22192v5.24998"/></g></svg>