<svg fill="none" height="52" viewBox="0 0 51 52" width="51" xmlns="http://www.w3.org/2000/svg"><path d="m14.3932 17.1468c0-.1987-.1988-.3975-.5964-.3975-.1988 0-.3975.1988-.5963.3975-2.1868 3.7769-9.93976 16.6979-9.93976 21.6675 0 5.7647 4.77107 10.5356 10.53606 10.5356 5.7651 0 10.5361-4.7709 10.5361-10.5356.1988-4.9696-7.5541-18.0893-9.9397-21.6675z" stroke="#92a0a9" stroke-linecap="round" stroke-linejoin="round" stroke-width="2"/><path d="m38.0373 3.036c-.1988-.19879-.3976-.39757-.5964-.39757s-.3976.19878-.5964.39757c-2.1867 3.77689-9.9397 16.6979-9.9397 21.6675 0 5.7647 4.7711 10.5355 10.5361 10.5355s10.5361-4.7708 10.5361-10.5355c0-4.9696-7.753-18.08939-9.9397-21.6675z" stroke="#92a0a9" stroke-linecap="round" stroke-linejoin="round" stroke-width="2"/><g fill="#92a0a9"><ellipse cx="37.4363" cy="30.8655" rx="1.02" ry="1.02"/><ellipse cx="34.3691" cy="29.8454" rx="1.02" ry="1.02"/><ellipse cx="13.6426" cy="45.1614" rx="1.02" ry="1.02"/><ellipse cx="10.5744" cy="44.1413" rx="1.02" ry="1.02"/></g></svg>