<svg fill="none" height="25" viewBox="0 0 26 25" width="26" xmlns="http://www.w3.org/2000/svg"><g fill="#92a0a9"><path clip-rule="evenodd" d="m13.3139 4.51074c-2.9146 0-5.50241 1.39885-7.12896 3.56391-.16586.22078-.4793.2653-.70008.09943-.22078-.16586-.2653-.4793-.09943-.70008 1.80729-2.40566 4.68607-3.96326 7.92847-3.96326 2.5599 0 4.8941.97123 6.6525 2.56447.2046.18542.2202.50162.0348.70625s-.5016.22021-.7063.03479c-1.5816-1.43309-3.6788-2.30551-5.981-2.30551zm.0003 3.35547c-1.6305 0-3.1175.60914-4.24776 1.61302-.20646.18337-.52249.16466-.70587-.0418-.18338-.20647-.16466-.5225.0418-.70588 1.3062-1.16014 3.02723-1.86534 4.91183-1.86534 2.4209 0 4.5702 1.16312 5.9193 2.95891.1659.22078.1214.53418-.0994.70008s-.5342.1213-.7001-.0994c-1.1683-1.55523-3.0267-2.55959-5.1198-2.55959zm-3.0121 4.86469c.6879-.9156 1.7814-1.5063 3.013-1.5063.7709 0 1.4863.2311 2.0826.6278.2299.1529.5403.0905.6932-.1394.153-.2299.0906-.5403-.1393-.6932-.7553-.5024-1.6625-.7952-2.6365-.7952-1.5594 0-2.9438.7495-3.81248 1.9057-.16587.2208-.12135.5342.09943.7001.22078.1658.53425.1213.70005-.0995zm11.1354-4.95656c0 .27503-.2238.49798-.5.49798-.2761 0-.5-.22295-.5-.49798 0-.27502.2239-.49797.5-.49797.2762 0 .5.22295.5.49797zm-13.78513 2.84956c.27615 0 .5-.223.5-.498 0-.27502-.22385-.49797-.5-.49797-.27614 0-.5.22295-.5.49797 0 .275.22386.498.5.498zm9.80083 1.8067c0 .275-.2239.498-.5.498-.2762 0-.5-.223-.5-.498s.2238-.498.5-.498c.2761 0 .5.223.5.498zm-3.9571 3.0234c.2762 0 .5-.223.5-.498s-.2238-.498-.5-.498c-.2761 0-.5.223-.5.498s.2239.498.5.498zm.5 2.502c0 .275-.2238.498-.5.498-.2761 0-.5-.223-.5-.498s.2239-.498.5-.498c.2762 0 .5.223.5.498zm-.5 3.498c.2762 0 .5-.223.5-.498s-.2238-.498-.5-.498c-.2761 0-.5.223-.5.498s.2239.498.5.498z" fill-rule="evenodd"/><path d="m13.3139 4.51074c-2.9146 0-5.50241 1.39885-7.12896 3.56391-.16586.22078-.4793.2653-.70008.09943-.22078-.16586-.2653-.4793-.09943-.70008 1.80729-2.40566 4.68607-3.96326 7.92847-3.96326 2.5599 0 4.8941.97123 6.6525 2.56447.2046.18542.2202.50162.0348.70625s-.5016.22021-.7063.03479c-1.5816-1.43309-3.6788-2.30551-5.981-2.30551z"/><path d="m13.3142 7.86621c-1.6305 0-3.1175.60914-4.24776 1.61302-.20646.18337-.52249.16466-.70587-.0418-.18338-.20647-.16466-.5225.0418-.70588 1.3062-1.16014 3.02723-1.86534 4.91183-1.86534 2.4209 0 4.5702 1.16312 5.9193 2.95891.1659.22078.1214.53418-.0994.70008s-.5342.1213-.7001-.0994c-1.1683-1.55523-3.0267-2.55959-5.1198-2.55959z"/><path d="m10.3021 12.7309c.6879-.9156 1.7814-1.5063 3.013-1.5063.7709 0 1.4863.2311 2.0826.6278.2299.1529.5403.0905.6932-.1394.153-.2299.0906-.5403-.1393-.6932-.7553-.5024-1.6625-.7952-2.6365-.7952-1.5594 0-2.9438.7495-3.81248 1.9057-.16587.2208-.12135.5342.09943.7001.22078.1658.53425.1213.70005-.0995z"/><path d="m21.4375 7.77434c0 .27503-.2238.49798-.5.49798-.2761 0-.5-.22295-.5-.49798 0-.27502.2239-.49797.5-.49797.2762 0 .5.22295.5.49797z"/><path d="m7.65237 10.6239c.27615 0 .5-.223.5-.498 0-.27502-.22385-.49797-.5-.49797-.27614 0-.5.22295-.5.49797 0 .275.22386.498.5.498z"/><path d="m17.4532 12.4306c0 .275-.2239.498-.5.498-.2762 0-.5-.223-.5-.498s.2238-.498.5-.498c.2761 0 .5.223.5.498z"/><path d="m13.4961 15.454c.2762 0 .5-.223.5-.498s-.2238-.498-.5-.498c-.2761 0-.5.223-.5.498s.2239.498.5.498z"/><path d="m13.9961 17.956c0 .275-.2238.498-.5.498-.2761 0-.5-.223-.5-.498s.2239-.498.5-.498c.2762 0 .5.223.5.498z"/><path d="m13.4961 21.454c.2762 0 .5-.223.5-.498s-.2238-.498-.5-.498c-.2761 0-.5.223-.5.498s.2239.498.5.498z"/></g></svg>