<svg fill="none" height="25" viewBox="0 0 25 25" width="25" xmlns="http://www.w3.org/2000/svg"><g fill="#18303f"><path d="m12.5 6.22046c-3.56362 0-6.98415 1.40218-9.5224 3.90354-.29503.2907-.76989.2872-1.06063-.0078-.29074-.29502-.28726-.76988.00777-1.06062 2.81889-2.77791 6.61762-4.33512 10.57526-4.33512 3.9576 0 7.7564 1.55721 10.5753 4.33512.295.29074.2985.7656.0077 1.06062-.2907.295-.7656.2985-1.0606.0078-2.5383-2.50136-5.9588-3.90354-9.5224-3.90354z"/><path d="m6.2855 13.4371c1.66207-1.6218 3.8923-2.5296 6.2145-2.5296s4.5524.9078 6.2145 2.5296c.2965.2893.7713.2835 1.0606-.013s.2834-.7713-.013-1.0606c-1.9423-1.8951-4.5484-2.95597-7.2621-2.95597-2.71367 0-5.31982 1.06087-7.26207 2.95597-.29646.2893-.30228.7641-.01301 1.0606.28928.2965.76412.3023 1.06058.013z"/><path d="m9.5915 16.7618c.7823-.7505 1.8244-1.1696 2.9085-1.1696s2.1262.4191 2.9085 1.1696c.2989.2868.7737.2769 1.0604-.0219.2868-.2989.277-.7737-.0219-1.0605-1.0616-1.0185-2.4758-1.5872-3.947-1.5872s-2.88537.5687-3.94697 1.5872c-.29889.2868-.30873.7616-.02197 1.0605.28677.2988.76154.3087 1.06044.0219z"/><path d="m13.2812 19.5312c0 .4315-.3497.7812-.7812.7812s-.7812-.3497-.7812-.7812.3497-.7813.7812-.7813.7812.3498.7812.7813z"/></g></svg>