<svg fill="none" height="25" viewBox="0 0 25 25" width="25" xmlns="http://www.w3.org/2000/svg"><path d="m9.5915 16.7619c.7823-.7505 1.8244-1.1696 2.9085-1.1696s2.1262.4191 2.9085 1.1696c.2989.2867.7737.2769 1.0604-.022.2868-.2989.277-.7737-.0219-1.0604-1.0616-1.0185-2.4758-1.5872-3.947-1.5872s-2.88537.5687-3.94696 1.5872c-.2989.2867-.30874.7615-.02198 1.0604.28677.2989.76154.3087 1.06044.022z" fill="#18303f"/><path d="m13.2813 19.5312c0 .4315-.3498.7813-.7813.7813s-.7812-.3498-.7812-.7813c0-.4314.3497-.7812.7812-.7812s.7813.3498.7813.7812z" fill="#18303f"/><path clip-rule="evenodd" d="m2.9776 10.124c2.53825-2.50136 5.95878-3.90354 9.5224-3.90354 3.5636 0 6.9841 1.40218 9.5224 3.90354.295.2907.7699.2872 1.0606-.0078.2908-.29502.2873-.76988-.0077-1.06062-2.8189-2.77791-6.6177-4.33512-10.5753-4.33512-3.95764 0-7.75637 1.55721-10.57526 4.33512-.29503.29074-.29851.7656-.00777 1.06062.29074.295.7656.2985 1.06063.0078zm3.3079 3.3131c1.66207-1.6218 3.8923-2.5296 6.2145-2.5296s4.5524.9078 6.2145 2.5296c.2965.2893.7713.2835 1.0606-.013s.2834-.7713-.013-1.0606c-1.9423-1.8951-4.5484-2.95597-7.2621-2.95597-2.71367 0-5.31982 1.06087-7.26207 2.95597-.29646.2893-.30228.7641-.01301 1.0606.28928.2965.76412.3023 1.06058.013z" fill="#9ca8ad" fill-rule="evenodd"/></svg>