<svg fill="none" height="25" viewBox="0 0 25 25" width="25" xmlns="http://www.w3.org/2000/svg"><path clip-rule="evenodd" d="m4.48182 3.19505c.3065-.27863.78083-.25604 1.05946.05045l5.85092 6.43602c.0061.00643.012.01298.0179.01963l5.0677 5.57455c.0358.0326.0678.0679.0958.1054l4.5927 5.0519c.2786.3065.256.7808-.0505 1.0595-.3065.2786-.7808.256-1.0594-.0505l-4.6179-5.0797c-.7877-.6294-1.7754-.9566-2.7846-.9207-1.0332.0367-2.0171.4513-2.76488 1.1653-.29959.286-.77434.2751-1.06038-.0245s-.27506-.7744.02453-1.0604c1.01356-.9677 2.34703-1.5298 3.74753-1.5795.2179-.0077.4351-.003.6506.0139l-2.6651-2.9316c-1.50627.3858-2.88689 1.1626-4.00049 2.2548-.29571.29-.77056.2854-1.06061-.0103-.29004-.2957-.28544-.7706.01028-1.0606 1.11587-1.0945 2.461-1.918 3.93136-2.41529l-2.28833-2.51716c-1.44766.65881-2.76857 1.56926-3.9007 2.69028-.29433.29147-.7692.28907-1.06065-.00522-.29144-.29433-.2891-.7692.00523-1.06065 1.14432-1.1331 2.46221-2.07261 3.90178-2.78419l-1.6927-1.86196c-.27863-.30649-.25604-.78083.05045-1.05946zm17.83778 6.77116c-2.5313-2.50954-5.9543-3.91331-9.5188-3.90372h-.0029c-.6465-.00082-1.2923.04552-1.932.13867-.4099.05967-.7906-.22424-.8503-.63413-.05964-.40989.2243-.79055.6342-.85023.7114-.10358 1.4295-.15515 2.1485-.15431l-.0015.00001.002.75.001-.75-.0015-.00001c3.9609-.01027 7.7645 1.5498 10.5774 4.33848.2941.29162.2962.76649.0046 1.06065-.2916.29418-.7665.29618-1.0607.00459zm-7.8953.14649c.0996-.4021.5063-.64731.9084-.54773 1.7849.44213 3.4185 1.35533 4.7301 2.64423.2954.2904.2996.7652.0092 1.0606-.2903.2955-.7652.2996-1.0606.0093-1.12-1.1007-2.515-1.8806-4.0394-2.2581-.402-.0996-.6472-.5063-.5477-.9083zm-.8442 9.2623c0 .4315-.3498.7813-.7813.7813-.4314 0-.7812-.3498-.7812-.7813s.3498-.7812.7812-.7812c.4315 0 .7813.3497.7813.7812z" fill="#9ca8ad" fill-rule="evenodd"/></svg>