<svg fill="none" height="25" viewBox="0 0 25 25" width="25" xmlns="http://www.w3.org/2000/svg"><g clip-rule="evenodd" fill="#2d3436" fill-rule="evenodd"><path d="m2.93797 21.7188c0 .1811.0321.3547.09093.5155-.54826.0905-.9664.5668-.9664 1.1407 0 .6386.51767 1.1563 1.15625 1.1563h6.34376c.75939 0 1.37499-.6156 1.37499-1.375 0-.5178-.4197-.9375-.9375-.9375h-.02237c.05527-.1564.08537-.3247.08537-.5v-5.75c0-1.3808-1.11931-2.5-2.50002-2.5h-3.12501c-.82843 0-1.5.6715-1.5 1.5zm5.62501.5c.27614 0 .5-.2239.5-.5v-5.75c0-.8285-.67157-1.5-1.5-1.5h-3.12501c-.27614 0-.5.2238-.5.5v2.438h.24902c.82843 0 1.5.6716 1.5 1.5v.4192c0 .2762-.22386.5-.5.5s-.5-.2238-.5-.5v-.4192c0-.2761-.22386-.5-.5-.5h-.24902v3.312c0 .2761.22386.5.5.5zm-5.50048 1.1562c0-.0863.06996-.1562.15625-.1562h1.21922 4.12501 1.36935c-.02976.1773-.18401.3125-.36982.3125h-6.34376c-.08629 0-.15625-.07-.15625-.1563z"/><path d="m2.93797 8.71876c0 .18113.0321.35476.09093.51551-.54826.09057-.9664.56682-.9664 1.14073 0 .6386.51767 1.1563 1.15625 1.1563h6.34376c.75939 0 1.37499-.6156 1.37499-1.375 0-.5178-.4197-.93754-.9375-.93754h-.02237c.05527-.15639.08537-.32468.08537-.5v-5.75001c0-1.38071-1.11931-2.5-2.50002-2.5h-3.12501c-.82843 0-1.5.67157-1.5 1.5zm5.62501.5c.27614 0 .5-.22386.5-.5v-5.75001c0-.82843-.67157-1.5-1.5-1.5h-3.12501c-.27614 0-.5.22386-.5.5v2.4381h.24902c.82843 0 1.5.67157 1.5 1.5v.41917c0 .27614-.22386.5-.5.5s-.5-.22386-.5-.5v-.41917c0-.27614-.22386-.5-.5-.5h-.24902v3.31191c0 .27614.22386.5.5.5zm-5.50048 1.15624c0-.0863.06996-.1562.15625-.1562h1.21922 4.12501 1.36935c-.02976.1773-.18401.3125-.36982.3125h-6.34376c-.08629 0-.15625-.07-.15625-.1563z"/><path d="m14.938 21.7188c0 .1811.0321.3547.0909.5155-.5483.0905-.9664.5668-.9664 1.1407 0 .6386.5177 1.1563 1.1563 1.1563h6.3437c.7594 0 1.375-.6156 1.375-1.375 0-.5178-.4197-.9375-.9375-.9375h-.0224c.0553-.1564.0854-.3247.0854-.5v-5.75c0-1.3808-1.1193-2.5-2.5-2.5h-3.125c-.8285 0-1.5.6715-1.5 1.5zm5.625.5c.2761 0 .5-.2239.5-.5v-5.75c0-.8285-.6716-1.5-1.5-1.5h-3.125c-.2762 0-.5.2238-.5.5v2.438h.249c.8284 0 1.5.6716 1.5 1.5v.4192c0 .2762-.2239.5-.5.5-.2762 0-.5-.2238-.5-.5v-.4192c0-.2761-.2239-.5-.5-.5h-.249v3.312c0 .2761.2238.5.5.5zm-5.5005 1.1562c0-.0863.07-.1562.1563-.1562h1.2192 4.125 1.3693c-.0297.1773-.184.3125-.3698.3125h-6.3437c-.0863 0-.1563-.07-.1563-.1563z"/><path d="m14.938 8.71876c0 .18113.0321.35476.0909.51551-.5483.09057-.9664.56682-.9664 1.14073 0 .6386.5177 1.1563 1.1563 1.1563h6.3437c.7594 0 1.375-.6156 1.375-1.375 0-.5178-.4197-.93754-.9375-.93754h-.0224c.0553-.15639.0854-.32468.0854-.5v-5.75001c0-1.38071-1.1193-2.5-2.5-2.5h-3.125c-.8285 0-1.5.67157-1.5 1.5zm5.625.5c.2761 0 .5-.22386.5-.5v-5.75001c0-.82843-.6716-1.5-1.5-1.5h-3.125c-.2762 0-.5.22386-.5.5v2.4381h.249c.8284 0 1.5.67157 1.5 1.5v.41917c0 .27614-.2239.5-.5.5-.2762 0-.5-.22386-.5-.5v-.41917c0-.27614-.2239-.5-.5-.5h-.249v3.31191c0 .27614.2238.5.5.5zm-5.5005 1.15624c0-.0863.07-.1562.1563-.1562h1.2192 4.125 1.3693c-.0297.1773-.184.3125-.3698.3125h-6.3437c-.0863 0-.1563-.07-.1563-.1563z"/></g></svg>