<svg fill="none" height="15" viewBox="0 0 15 15" width="15" xmlns="http://www.w3.org/2000/svg"><g fill="#2d3436"><path d="m8.48447 6.35273c0-.16568.13432-.3.3-.3h.54844c.16569 0 .30023.13432.30023.3 0 .00393-.00008.00784-.00023.01173v.55214c0 .16569-.13431.3-.3.3-.16568 0-.3-.13431-.3-.3v-.26387h-.24844c-.16568 0-.3-.13431-.3-.3z"/><path d="m9.3366 7.5c.15 0 .3.15.3.3s-.15.3-.3.3-.3-.15-.3-.3.15-.3.3-.3z"/><path clip-rule="evenodd" d="m4.91729.866013c-.49706 0-.9.402947-.9.899997v9.87659h-.23357c-.20817 0-.40721.0835-.5535.2313-.14618.1476-.22778.3472-.22778.5548v.7048c-.00001.1398.05424.2748.15201.3756.09789.1009.23167.1596.37282.1625l.00619.0001h7.92674c.1431 0 .2797-.0574.3799-.1587.1002-.1011.1559-.2377.1559-.3795v-.7048c0-.2076-.0816-.4072-.2278-.5548-.1462-.1478-.3453-.2313-.5535-.2313h-.1997v-9.87659c0-.49705-.4029-.899997-.9-.899997zm5.49771 10.776587v-9.87659c0-.16568-.1343-.3-.3-.3h-5.19771c-.16569 0-.3.13432-.3.3v9.87659zm-6.63128.6c-.04711 0-.0929.0188-.12713.0534-.03433.0347-.05415.0824-.05415.1327v.643h7.79356v-.643c0-.0503-.0198-.098-.0541-.1327-.0343-.0346-.08-.0534-.1272-.0534z" fill-rule="evenodd"/></g></svg>