<svg fill="none" height="80" viewBox="0 0 80 80" width="80" xmlns="http://www.w3.org/2000/svg"><path clip-rule="evenodd" d="m28.8 6.39999c-5.3019 0-9.6 4.29811-9.6 9.60001v38.4c0 5.3019 4.2981 9.6 9.6 9.6h-9.6c-1.7673 0-3.2 1.4327-3.2 3.2v3.2c0 1.7673 1.4327 3.2 3.2 3.2h38.4c3.5346 0 6.4-2.8654 6.4-6.4 0-1.7673-1.4327-3.2-3.2-3.2h-9.6c5.3019 0 9.6-4.2981 9.6-9.6v-32c0-8.8366-7.1634-16.00001-16-16.00001z" fill="#f0faff" fill-rule="evenodd"/><path clip-rule="evenodd" d="m28.8 6.39999c-5.302 0-9.6 4.29811-9.6 9.60001v3.2 38.4c0 3.5346 2.8653 6.4 6.4 6.4h6.4v-35.2c0-5.3019 4.298-9.6 9.6-9.6h17.6c0-7.0693-7.3308-12.80001-14.4-12.80001h-12.8z" fill="#d9eef9" fill-rule="evenodd"/><g fill="#2d3436"><path d="m31.5843 48.7822c.8837 0 1.6-.7163 1.6-1.6s-.7163-1.6-1.6-1.6c-.8836 0-1.6.7163-1.6 1.6s.7164 1.6 1.6 1.6z"/><path clip-rule="evenodd" d="m20.4014 62.2012c-1.0043-1.337-1.5994-2.999-1.5994-4.8v-43.2012c0-4.41828 3.5817-8 8-8h20.0009c7.9529 0 14.4 6.4471 14.4 14.4v36.8012c0 1.801-.5951 3.463-1.5994 4.8h2.7975c2.4301 0 4.4001 1.97 4.4001 4.4001 0 3.9765-3.2237 7.2001-7.2002 7.2001h-40.6009c-3.2033 0-5.8-2.5968-5.8-5.8001s2.5967-5.8001 5.8-5.8001zm6.4006 0h26.4009c2.6509 0 4.8-2.149 4.8-4.8v-36.8012c0-6.1856-5.0144-11.2-11.2-11.2h-20.0009c-2.6509 0-4.8 2.149-4.8 4.8v17.2017h3.1963c4.4183 0 8 3.5818 8 8v2.6829c0 .8837-.7164 1.6-1.6 1.6-.8837 0-1.6-.7163-1.6-1.6v-2.6829c0-2.6509-2.149-4.8-4.8-4.8h-3.1963v22.7995c0 2.651 2.1491 4.8 4.8 4.8zm-7.802 3.2c-1.4359 0-2.6 1.1641-2.6 2.6001s1.1641 2.6001 2.6 2.6001h40.6009c2.2092 0 4.0002-1.7909 4.0002-4.0001 0-.6628-.5373-1.2001-1.2001-1.2001z" fill-rule="evenodd"/></g></svg>