<svg fill="none" height="14" viewBox="0 0 15 14" width="15" xmlns="http://www.w3.org/2000/svg"><g fill="#2d3436"><path d="m5.21479 7.29358c0-.16569.13431-.3.3-.3h.97826c.16569 0 .3.13431.3.3 0 .16568-.13431.3-.3.3h-.97826c-.16569 0-.3-.13432-.3-.3z"/><path d="m5.21479 8.8588c0-.16569.13431-.30001.3-.30001h.97826c.16569 0 .3.13432.3.30001 0 .16568-.13431.3-.3.3h-.97826c-.16569 0-.3-.13432-.3-.3z"/><path d="m5.21479 10.424c0-.1657.13431-.3.3-.3h.97826c.16569 0 .3.1343.3.3s-.13431.3-.3.3h-.97826c-.16569 0-.3-.1343-.3-.3z"/><path d="m3.47524 11.61c0 .1657-.13431.3-.3.3-.16568 0-.3-.1343-.3-.3s.13432-.3.3-.3c.16569 0 .3.1343.3.3z"/><path clip-rule="evenodd" d="m3.47524 2.84575c0-1.49117 1.20883-2.699998 2.7-2.699998h5.80126c1.4911 0 2.7 1.208828 2.7 2.699998v6.95706c0 2.15389-1.7461 3.89999-3.9 3.89999h-1.97304c-.16568 0-.3-.1343-.3-.3s.13432-.3.3-.3h1.44484v-2.0448c0-.1657-.1344-.3-.30005-.3h-1.16687c-.16569 0-.3-.1343-.3-.3s.13431-.3.3-.3h1.16687c.49705 0 .90005.403.90005.9v2.044c1.7893-.0381 3.2282-1.5006 3.2282-3.29919v-6.95706c0-1.1598-.9402-2.099998-2.1-2.099998h-5.80126c-1.15979 0-2.1.940198-2.1 2.099998v.23374h4.11718c.16569 0 .3.13432.3.3 0 .16569-.13431.3-.3.3h-4.11718v.96626h1.19173c1.49116 0 2.69999 1.20883 2.69999 2.7v3.66525c0 1.5704-1.27307 2.8434-2.84347 2.8434h-2.1c-1.49117 0-2.700004-1.2088-2.700004-2.7v-3.86082c0-1.46236 1.185474-2.64783 2.647824-2.64783h.50393zm-2.529935 4.14783h2.612965c.16568 0 .3.13431.3.3 0 .16568-.13432.3-.3.3h-2.634784v.96521h1.069564c.16569 0 .3.13432.3.30001 0 .16568-.13431.3-.3.3h-1.069564v1.9956c0 1.1072.856784 2.0142 1.943474 2.0943v-.7928c0-.1657.13432-.3.3-.3.16569 0 .3.1343.3.3v.7985h1.35653v-1.0565c0-.1657-.13432-.3-.3-.3h-.50058c-.16569 0-.3-.1343-.3-.3s.13431-.3.3-.3h.50058c.49705 0 .9.403.9.9v1.0367c1.09719-.1467 1.94347-1.0863 1.94347-2.2236v-3.66525c0-1.1598-.9402-2.1-2.09999-2.1h-2.29566c-1.02907 0-1.88086.75906-2.026005 1.74783z" fill-rule="evenodd"/><path d="m10.8372 3.37949c0-.16568.1343-.3.3-.3h1.4724c.1657 0 .3.13432.3.3 0 .16569-.1343.3-.3.3h-1.4724c-.1657 0-.3-.13431-.3-.3z"/><path d="m10.8372 5.73532c0-.16568.1343-.3.3-.3h1.4724c.1657 0 .3.13432.3.3 0 .16569-.1343.3-.3.3h-1.4724c-.1657 0-.3-.13431-.3-.3z"/><path d="m10.8372 8.09115c0-.16568.1343-.3.3-.3h1.4724c.1657 0 .3.13432.3.3 0 .16569-.1343.3-.3.3h-1.4724c-.1657 0-.3-.13431-.3-.3z"/><path d="m7.92581 13.4083c0 .1627-.13184.2945-.29448.2945-.16263 0-.29447-.1318-.29447-.2945 0-.1626.13184-.2944.29447-.2944.16264 0 .29448.1318.29448.2944z"/></g></svg>