<svg fill="none" height="80" viewBox="0 0 80 80" width="80" xmlns="http://www.w3.org/2000/svg"><path d="m9.6001 19.2c0-8.8366 7.1634-16 16-16h28.8c8.8366 0 16 7.1634 16 16v35.2c0 12.3712-10.0288 22.4-22.4 22.4h-22.4c-8.8366 0-16-7.1634-16-16z" fill="#d9eef9"/><path d="m52.8 12.8h-17.6c-8.8366 0-16 7.1634-16 16v30.4c0 8.8366 7.1634 16 16 16h16l6.4-1.6 6.4-4.8 3.2-4.8 1.6-6.4v-28.8c0-8.8366-7.1635-16-16-16z" fill="#f0faff"/><g fill="#2d3436"><path d="m51.2001 22.4c-.8837 0-1.6.7163-1.6 1.6s.7163 1.6 1.6 1.6h8c.8837 0 1.6-.7163 1.6-1.6s-.7163-1.6-1.6-1.6z"/><path d="m51.2001 35.2c-.8837 0-1.6.7163-1.6 1.6s.7163 1.6 1.6 1.6h8c.8837 0 1.6-.7163 1.6-1.6s-.7163-1.6-1.6-1.6z"/><path d="m51.2001 48c-.8837 0-1.6.7163-1.6 1.6s.7163 1.6 1.6 1.6h8c.8837 0 1.6-.7163 1.6-1.6s-.7163-1.6-1.6-1.6z"/><path d="m32.0876 61.1031c.8837 0 1.6-.7163 1.6-1.6 0-.8836-.7163-1.6-1.6-1.6s-1.6.7164-1.6 1.6c0 .8837.7163 1.6 1.6 1.6z"/><path clip-rule="evenodd" d="m24.0001 3.2c-7.9529 0-14.4 6.4471-14.4 14.4v44.8c0 7.9529 6.4471 14.4 14.4 14.4h25.6c11.4875 0 20.8-9.3125 20.8-20.8v-38.4c0-7.9529-6.4471-14.4-14.4-14.4zm-11.2 14.4c0-6.1856 5.0144-11.2 11.2-11.2h32c6.1856 0 11.2 5.0144 11.2 11.2v38.4c0 9.7202-7.8798 17.6-17.6 17.6v-11.2c0-2.651-2.149-4.8-4.8-4.8h-6.4c-.8837 0-1.6.7163-1.6 1.6s.7163 1.6 1.6 1.6h6.4c.8837 0 1.6.7163 1.6 1.6v11.2h-12.8v-8.9936c0-.8836-.7163-1.6-1.6-1.6s-1.6.7164-1.6 1.6v8.9936h-6.4c-6.1856 0-11.2-5.0144-11.2-11.2v-24h9.6c.8837 0 1.6-.7163 1.6-1.6s-.7163-1.6-1.6-1.6h-9.6v-9.6h22.4c.8837 0 1.6-.7163 1.6-1.6s-.7163-1.6-1.6-1.6h-22.4z" fill-rule="evenodd"/></g></svg>