<svg fill="none" height="14" viewBox="0 0 13 14" width="13" xmlns="http://www.w3.org/2000/svg"><g fill="#2d3436"><path d="m8.60078 3.69998c-.16568 0-.3.13431-.3.3 0 .16568.13432.3.3.3h1.50002c.1657 0 .3-.13432.3-.3 0-.16569-.1343-.3-.3-.3z"/><path d="m8.60078 6.09998c-.16568 0-.3.13431-.3.3 0 .16568.13432.3.3.3h1.50002c.1657 0 .3-.13432.3-.3 0-.16569-.1343-.3-.3-.3z"/><path d="m8.60078 8.49998c-.16568 0-.3.13431-.3.3 0 .16568.13432.3.3.3h1.50002c.1657 0 .3-.13432.3-.3 0-.16569-.1343-.3-.3-.3z"/><path d="m5.01719 10.9568c.16568 0 .3-.1343.3-.3s-.13432-.3-.3-.3c-.16569 0-.3.1343-.3.3s.13431.3.3.3z"/><path clip-rule="evenodd" d="m3.50078.0999756c-1.49117 0-2.699999 1.2088344-2.699999 2.7000044v8.40002c0 1.4911 1.208829 2.7 2.699999 2.7h4.8c2.15392 0 3.90002-1.7461 3.90002-3.90002v-7.2c0-1.49117-1.2088-2.7000044-2.70002-2.7000044zm-2.1 2.7000044c0-1.1598.9402-2.100004 2.1-2.100004h6c1.15982 0 2.10002.940204 2.10002 2.100004v7.2c0 1.82252-1.4775 3.30002-3.30002 3.30002v-2.1c0-.4971-.40294-.9-.9-.9h-1.2c-.16568 0-.3.1343-.3.3s.13432.3.3.3h1.2c.16569 0 .3.1343.3.3v2.1h-2.4v-1.6863c0-.1657-.13431-.3-.3-.3-.16568 0-.3.1343-.3.3v1.6863h-1.2c-1.1598 0-2.1-.9402-2.1-2.1v-4.50002h1.8c.16569 0 .3-.13432.3-.3 0-.16569-.13431-.3-.3-.3h-1.8v-1.8h4.2c.16569 0 .3-.13432.3-.3 0-.16569-.13431-.3-.3-.3h-4.2z" fill-rule="evenodd"/></g></svg>