<svg fill="none" height="25" viewBox="0 0 25 25" width="25" xmlns="http://www.w3.org/2000/svg"><g fill="#2d3436"><path d="m16 7c-.2761 0-.5.22386-.5.5s.2239.5.5.5h2.5c.2761 0 .5-.22386.5-.5s-.2239-.5-.5-.5z"/><path d="m16 11c-.2761 0-.5.2239-.5.5s.2239.5.5.5h2.5c.2761 0 .5-.2239.5-.5s-.2239-.5-.5-.5z"/><path d="m16 15c-.2761 0-.5.2239-.5.5s.2239.5.5.5h2.5c.2761 0 .5-.2239.5-.5s-.2239-.5-.5-.5z"/><path d="m10.0273 19.0947c.2762 0 .5-.2238.5-.5 0-.2761-.2238-.5-.5-.5-.2761 0-.49996.2239-.49996.5 0 .2762.22386.5.49996.5z"/><path clip-rule="evenodd" d="m7.5 1c-2.48528 0-4.5 2.01472-4.5 4.5v14c0 2.4853 2.01472 4.5 4.5 4.5h8c3.5899 0 6.5-2.9101 6.5-6.5v-12c0-2.48528-2.0147-4.5-4.5-4.5zm-3.5 4.5c0-1.933 1.567-3.5 3.5-3.5h10c1.933 0 3.5 1.567 3.5 3.5v12c0 3.0376-2.4624 5.5-5.5 5.5v-3.5c0-.8284-.6716-1.5-1.5-1.5h-2c-.2761 0-.5.2239-.5.5s.2239.5.5.5h2c.2761 0 .5.2239.5.5v3.5h-4v-2.8105c0-.2761-.2239-.5-.5-.5-.27614 0-.5.2239-.5.5v2.8105h-2c-1.933 0-3.5-1.567-3.5-3.5v-7.5h3c.27614 0 .5-.2239.5-.5s-.22386-.5-.5-.5h-3v-3h7c.2761 0 .5-.22386.5-.5s-.2239-.5-.5-.5h-7z" fill-rule="evenodd"/></g></svg>