<svg fill="none" height="25" viewBox="0 0 25 25" width="25" xmlns="http://www.w3.org/2000/svg"><g fill="#2d3436"><path clip-rule="evenodd" d="m3 2.5c-.82843 0-1.5.67157-1.5 1.5v16c0 1.933 1.567 3.5 3.5 3.5h15c1.3807 0 2.5-1.1193 2.5-2.5v-1.6667c0-1.933-1.567-3.5-3.5-3.5h-2.6667c-.2761 0-.5-.2238-.5-.5v-4.6666c0-.82846-.6715-1.50003-1.5-1.50003h-4.66663c-.27615 0-.5-.22386-.5-.5v-4.66667c0-.82843-.67158-1.5-1.5-1.5zm-.5 1.5c0-.27614.22386-.5.5-.5h4.66667c.27614 0 .5.22386.5.5v4.66667c0 .82843.67157 1.50003 1.5 1.50003h4.66663c.2762 0 .5.2238.5.5v4.6666c0 .8285.6716 1.5 1.5 1.5h2.6667c1.3807 0 2.5 1.1193 2.5 2.5v1.6667c0 .8284-.6716 1.5-1.5 1.5h-15c-1.38071 0-2.5-1.1193-2.5-2.5z" fill-rule="evenodd"/><path d="m23.4658 23.5c.2762 0 .5-.2239.5-.5s-.2238-.5-.5-.5c-.2761 0-.5.2239-.5.5s.2239.5.5.5z"/></g></svg>