<svg fill="none" height="25" viewBox="0 0 25 25" width="25" xmlns="http://www.w3.org/2000/svg"><path clip-rule="evenodd" d="m11.9566 12.7725c0-.2762.2239-.5.5-.5h1.7964c.2762 0 .5.2238.5.5v1.7964c0 .8285.6716 1.5 1.5 1.5h1.7963c.2761 0 .5.2239.5.5v1.7961c0 .8284.6716 1.5 1.5 1.5h.5182c.9818 0 1.7778.7959 1.7778 1.7778 0 .5625-.456 1.0186-1.0185 1.0186h-1.2035l-.0137.0002h-1.0602l-.0138.0001h-3.7735-.0093-.7951-.0011l-.0228-.0001h-.0021-.4128c-1.1392 0-2.0626-.9235-2.0626-2.0626l.0001-.0071c.0002-.013.0008-.0306.0015-.0512v-.0001c.0024-.0678.0059-.1691.0017-.2554-.002-.0409-.003-.0821-.003-.1235zm.5-1.5c-.8284 0-1.5.6715-1.5 1.5v7.3892c0 .0576.0014.115.0042.172.0021.0429.0008.0762-.0009.1254-.0011.03-.0024.0661-.0034.1139l-.0002.026c0 1.6914 1.3712 3.0626 3.0626 3.0626h.4117.0011l.0229.0001h.002.7871.0092 3.7963l.0137-.0001h1.0602l.0138-.0002h1.1899c1.1148 0 2.0185-.9038 2.0185-2.0186 0-1.5341-1.2437-2.7778-2.7778-2.7778h-.5182c-.2762 0-.5-.2239-.5-.5v-1.7961c0-.8284-.6716-1.5-1.5-1.5h-1.7963c-.2761 0-.5-.2238-.5-.5v-1.7964c0-.8285-.6716-1.5-1.5-1.5zm11.4389 12.4067c.2761 0 .5-.2239.5-.5 0-.2762-.2239-.5-.5-.5s-.5.2238-.5.5c0 .2761.2239.5.5.5z" fill="#2d3436" fill-rule="evenodd"/><path clip-rule="evenodd" d="m10.8886 2.32227c.2761 0 .5.22385.5.5v7.38923c0 .0414-.001.0826-.003.1235-.0042.0863-.0007.1876.0017.2554.0007.0207.0013.0383.0015.0514l.0001.007c0 1.1391-.9234 2.0626-2.06256 2.0626h-.41285-.00203l-.02285.0001h-.0011-.79514c-.00309 0-.00617 0-.00925 0h-3.77354c-.00457-.0001-.00915-.0001-.01374-.0001h-1.62657c-.00456-.0002-.00914-.0002-.01374-.0002h-.25743c-.7722 0-1.398198-.626-1.398198-1.3982s.625998-1.39822 1.398198-1.39822h.89783c.82843 0 1.5-.67157 1.5-1.5v-1.79603c0-.27614.22386-.5.5-.5h1.79628c.82842 0 1.5-.67157 1.5-1.5v-1.79648c0-.27615.22385-.5.5-.5zm-3.09816 10.49063c.03513-.0267.07389-.0488.1154-.0655-.04155.0167-.0803.0388-.1154.0655zm4.59816-9.99063c0-.82843-.6716-1.5-1.5-1.5h-1.79639c-.82843 0-1.5.67157-1.5 1.5v1.79648c0 .27614-.22386.5-.5.5h-1.79628c-.82843 0-1.5.67157-1.5 1.5v1.79603c0 .27614-.22386.5-.5.5h-.89783c-1.32449 0-2.39819823 1.07371-2.39819823 2.39822 0 1.3245 1.07370823 2.3982 2.39819823 2.3982h.24388c.00457.0001.00915.0002.01374.0002h1.62657c.00456.0001.00914.0001.01373.0001h3.79627.00927.78705.00203l.02285-.0001h.0011.41175c1.69146 0 3.06256-1.3712 3.06256-3.0626l-.0002-.026c-.0009-.0478-.0022-.0839-.0033-.1139-.0018-.0492-.003-.0825-.001-.1254.0028-.057.0042-.1144.0042-.172zm-3.79627 10.38923c0 .1235-.04497.2371-.11971.3246.07464-.0873.11971-.2007.11971-.3246z" fill="#2d3436" fill-rule="evenodd"/><path d="m16.4711 1.24872c2.169-.283621 3.781-.274623 5.9713.00556.8072.10326 1.4418.74029 1.5433 1.54742.2747 2.18495.2869 3.7883.0071 5.97599-.1041.81442-.7536 1.44961-1.5685 1.54071-2.1276.2376-3.7743.2455-5.9256.0034-.819-.0922-1.4674-.73531-1.5662-1.55361-.2682-2.22153-.2537-3.82413.0049-5.96638.0973-.80629.7269-1.44759 1.5337-1.55309z" stroke="#2d3436" stroke-linecap="round" stroke-linejoin="round"/></svg>