<svg fill="none" height="40" viewBox="0 0 40 40" width="40" xmlns="http://www.w3.org/2000/svg"><path d="m13.6851 5.42094-1.5826-.59716h-7.70365l-.98536.59716-.26871.98536v25.3804l.26871 1.9408.83607 1.5527 1.64224 1.2839 2.26932.2986h22.21528l2.6873-.2986 1.3437-.9256.6868-.8659.1493-1.493v-2.747l-.5972-1.8214-1.3437-1.7617-2.0603-.7465h-5.3448l-.6867-.3285-.6868-.5972v-8.271l-.3285-.8958-.6867-.5971h-7.9724l-1.1347-.3285-.5375-.9555.1493-7.28564z" fill="#f0faff"/><path clip-rule="evenodd" d="m3.20821 6.23641c-.00546.05379-.00826.10837-.00826.16359v3.2 22.4c0 2.1008 1.34955 3.8863 3.22897 4.537.83503.2891 1.57103-.4533 1.57103-1.337v-24c0-.8837.71635-1.6 1.6-1.6h3.20005c.8836 0 1.6-.71634 1.6-1.6v-1.6c0-.88365-.7164-1.6-1.6-1.6h-4.80005-3.2c-.82843 0-1.5098.6296-1.59174 1.43641zm14.39179 11.36359c0-.8837.7163-1.6 1.6-1.6h3.2c.8836 0 1.6.7163 1.6 1.6v1.6c0 .8837-.7164 1.6-1.6 1.6h-3.2c-.8837 0-1.6-.7163-1.6-1.6zm12.8 8c-.8837 0-1.6.7163-1.6 1.6v1.6c0 .8837.7163 1.6 1.6 1.6h3.2c.8836 0 1.6261-.736 1.337-1.571-.6507-1.8795-2.4363-3.229-4.537-3.229z" fill="#d9eef9" fill-rule="evenodd"/><g fill="#2d3436"><path clip-rule="evenodd" d="m4.7999 4c-1.32548 0-2.4 1.07452-2.4 2.4v25.6c0 3.0928 2.5072 5.6 5.6 5.6h24c2.2091 0 4-1.7909 4-4v-2.6667c0-3.0928-2.5072-5.6-5.6-5.6h-4.2667c-.4418 0-.8-.3581-.8-.8v-7.4666c0-1.3255-1.0745-2.4-2.4-2.4h-7.4666c-.4419 0-.8-.3582-.8-.8v-7.4667c0-1.32548-1.0745-2.4-2.4-2.4zm-.8 2.4c0-.44183.35818-.8.8-.8h7.4667c.4418 0 .8.35817.8.8v7.4667c0 1.3255 1.0745 2.4 2.4 2.4h7.4666c.4419 0 .8.3581.8.8v7.4666c0 1.3255 1.0746 2.4 2.4 2.4h4.2667c2.2091 0 4 1.7909 4 4v2.6667c0 1.3255-1.0745 2.4-2.4 2.4h-24c-2.20914 0-4-1.7909-4-4z" fill-rule="evenodd"/><path d="m37.5452 37.6c.4418 0 .8-.3582.8-.8s-.3582-.8-.8-.8-.8.3582-.8.8.3582.8.8.8z"/></g></svg>