<svg fill="none" height="80" viewBox="0 0 80 80" width="80" xmlns="http://www.w3.org/2000/svg"><path d="m27.3704 10.8419-3.1651-1.19435h-15.40736l-1.97071 1.19435-.53744 1.9707v50.7607l.53744 3.8817 1.67213 3.1054 3.28444 2.5679 4.5387.5971h44.4305l5.3747-.5971 2.6873-1.8513 1.3736-1.7318.2986-2.986v-5.4941l-1.1944-3.6428-2.6873-3.5234-4.1206-1.493h-10.6896l-1.3735-.6569-1.3736-1.1943v-16.542l-.6569-1.7916-1.3735-1.1944h-15.9448l-2.2693-.6569-1.075-1.911.2986-14.5713z" fill="#f0faff"/><path clip-rule="evenodd" d="m6.41642 12.4728c-.01092.1076-.01652.2168-.01652.3272v6.4 44.8c0 4.2015 2.69909 7.7726 6.4579 9.074 1.6701.5782 3.1421-.9067 3.1421-2.674v-48c0-1.7673 1.4327-3.2 3.2-3.2h6.4c1.7673 0 3.2-1.4327 3.2-3.2v-3.2c0-1.7673-1.4327-3.19999-3.2-3.19999h-9.6-6.4c-1.65685 0-3.0196 1.25919-3.18348 2.87279zm28.78348 22.7272c0-1.7673 1.4327-3.2 3.2-3.2h6.4c1.7673 0 3.2 1.4327 3.2 3.2v3.2c0 1.7673-1.4327 3.2-3.2 3.2h-6.4c-1.7673 0-3.2-1.4327-3.2-3.2zm25.6 16c-1.7673 0-3.2 1.4327-3.2 3.2v3.2c0 1.7673 1.4327 3.2 3.2 3.2h6.4c1.7673 0 3.2522-1.472 2.674-3.1421-1.3014-3.7588-4.8725-6.4579-9.074-6.4579z" fill="#d9eef9" fill-rule="evenodd"/><g fill="#2d3436"><path clip-rule="evenodd" d="m9.60005 8c-2.65097 0-4.8 2.149-4.8 4.8v51.2c0 6.1856 5.0144 11.2 11.19995 11.2h48c4.4183 0 8-3.5817 8-8v-5.3333c0-6.1856-5.0144-11.2-11.1999-11.2h-8.5334c-.8836 0-1.6-.7164-1.6-1.6v-14.9334c0-2.6509-2.149-4.8-4.8-4.8h-14.9333c-.8837 0-1.6-.7163-1.6-1.6v-14.9333c0-2.651-2.149-4.8-4.8-4.8zm-1.6 4.8c0-.8837.71634-1.6 1.6-1.6h14.93335c.8836 0 1.6.7163 1.6 1.6v14.9333c0 2.651 2.149 4.8 4.8 4.8h14.9333c.8837 0 1.6.7164 1.6 1.6v14.9334c0 2.6509 2.1491 4.8 4.8 4.8h8.5334c4.4182 0 7.9999 3.5817 7.9999 8v5.3333c0 2.651-2.149 4.8-4.8 4.8h-48c-4.4182 0-7.99995-3.5817-7.99995-8z" fill-rule="evenodd"/><path d="m75.0907 75.2c.8836 0 1.6-.7163 1.6-1.6s-.7164-1.6-1.6-1.6c-.8837 0-1.6.7163-1.6 1.6s.7163 1.6 1.6 1.6z"/></g></svg>