<svg fill="none" height="25" viewBox="0 0 25 25" width="25" xmlns="http://www.w3.org/2000/svg"><g fill="#18303f"><path clip-rule="evenodd" d="m13 18.7018c-.5278 0-.9924.4143-.9924.971 0 .5568.4646.971.9924.971.5266 0 .9924-.4137.9924-.971 0-.5572-.4658-.971-.9924-.971zm.0076.971c0 .0061-.0014.0128-.0039.0185-.0013.0028-.0026.0049-.0037.0065-.0011-.0015-.0024-.0034-.0036-.0061-.0025-.0057-.004-.0125-.004-.0189 0-.0063.0015-.0131.004-.0189.0012-.0026.0024-.0047.0035-.0062.0011.0016.0025.0039.0038.0066.0025.0058.0039.0124.0039.0185z" fill-rule="evenodd"/><path d="m13.5 5.22461c0 .27614-.2239.5-.5.5s-.5-.22386-.5-.5.2239-.5.5-.5.5.22386.5.5z"/><path d="m13.5 7.22461c0 .27614-.2239.5-.5.5s-.5-.22386-.5-.5.2239-.5.5-.5.5.22386.5.5z"/><path d="m13 9.72461c.2761 0 .5-.22386.5-.5s-.2239-.5-.5-.5-.5.22386-.5.5.2239.5.5.5z"/><path d="m13.5 11.2246c0 .2762-.2239.5-.5.5s-.5-.2238-.5-.5c0-.2761.2239-.5.5-.5s.5.2239.5.5z"/><path d="m13 13.7246c.2761 0 .5-.2238.5-.5 0-.2761-.2239-.5-.5-.5s-.5.2239-.5.5c0 .2762.2239.5.5.5z"/><path d="m13.5 15.2246c0 .2762-.2239.5-.5.5s-.5-.2238-.5-.5c0-.2761.2239-.5.5-.5s.5.2239.5.5z"/><path d="m13 17.7246c.2761 0 .5-.2238.5-.5 0-.2761-.2239-.5-.5-.5s-.5.2239-.5.5c0 .2762.2239.5.5.5z"/><path clip-rule="evenodd" d="m13 .999023c-1.3606 0-2.5 1.059867-2.5 2.413047v12.66883c-1.19885.7709-2 2.085-2 3.592 0 2.4098 2.035 4.3261 4.5 4.3261 2.464 0 4.5-1.9163 4.5-4.3261 0-1.5073-.8031-2.821-2-3.5918v-12.66903c0-1.35318-1.1394-2.413047-2.5-2.413047zm-1.5 2.413047c0-.75978.6496-1.41305 1.5-1.41305s1.5.65327 1.5 1.41305v12.95223c0 .1818.0986.3492.2576.4374 1.0492.5814 1.7424 1.654 1.7424 2.8712 0 1.8161-1.546 3.3261-3.5 3.3261-1.955 0-3.5-1.5099-3.5-3.3261 0-1.2176.6915-2.2899 1.7421-2.8711.1591-.088.2579-.2556.2579-.4375z" fill-rule="evenodd"/><path d="m17.1016 2.91211c-.2762 0-.5.22386-.5.5s.2238.5.5.5h1c.2761 0 .5-.22386.5-.5s-.2239-.5-.5-.5z"/><path d="m17.1016 7.69482c-.2762 0-.5.22386-.5.5 0 .27615.2238.5.5.5h3c.2761 0 .5-.22385.5-.5 0-.27614-.2239-.5-.5-.5z"/><path d="m17.1016 12.4766c-.2762 0-.5.2238-.5.5 0 .2761.2238.5.5.5h1c.2761 0 .5-.2239.5-.5 0-.2762-.2239-.5-.5-.5z"/></g></svg>