<svg fill="none" height="25" viewBox="0 0 25 25" width="25" xmlns="http://www.w3.org/2000/svg"><g fill="#18303f"><path clip-rule="evenodd" d="m24.4209 3.80906c.0023.27613-.2111.50192-.4766.50431l-1.7559.01585.0044 2.67854.4772-.0043c.2655-.0024.4826.21951.4849.49564s-.2111.50192-.4766.50432l-.4839.00437.0013.80692c-.0053.63611-.4817 1.13153-1.0933 1.13704-.2618.00237-.6136.00088-1.0148-.00082l-.0013-.00001-.2231-.00092c-.4963-.00197-1.0558-.00334-1.6203.00175-.0073.00007-.0146-.00004-.0218-.00031-1.5308-.05858-2.864-1.03317-3.4647-2.41794-.0434.01388-.0895.02154-.1373.02197l-1.4209.01282c-.129.00116-.2529-.0516-.3442-.14643-.0911-.09483-.1418-.22378-.1407-.35789l.0069-.8233-7.61776.00002c-.80868.008-1.66247.44171-2.326 1.13178-.6307.65593-.9284 1.61537-.74096 2.42141.00256.01102.00476.02212.0066.03329.1155.70273.41828 1.46103 1.58165 3.72033l.1327.2456.96576-3.4767c.03796-.2121.11311-.40368.21586-.57269.03445-.1071.10338-.20127.19815-.26378.35741-.39086.88064-.60561 1.37421-.60561 4.97809 0 9.84769 1.72558 13.88559 4.84818.0388.03.072.065.0994.1034l3.2458 4.325c.2128.2951.3376.6723.3838 1.0401.0463.369.0191.7748-.1191 1.1343-.1509.3921-.4413.6806-.751.8671-.3096.1864-.6712.2915-1.0147.2915h-.1284l.0002.0277c0 1.7538-1.3316 3.1386-3.0179 3.1386-1.6862 0-3.0177-1.3848-3.0177-3.1386v-.0277h-9.18682l.00011.0277c0 1.7538-1.33155 3.1386-3.01783 3.1386s-3.017833-1.3848-3.017833-3.1386c0-1.1342.557023-2.1142 1.406763-2.6649l-1.23679-2.1438c-.00632-.011-.01225-.0222-.01776-.0337-.17861-.3715-.150995-.8363-.026073-1.226.007192-.0225.015904-.0444.026073-.0655.10234-.2129.27991-.3819.46174-.4954.18653-.1164.42328-.2032.67866-.2032h.98544l-.35377-.655c-1.14449-2.2224-1.53285-3.1266-1.68129-4.012-.270186-1.19186.17427-2.48849.99951-3.34673.79574-.82757 1.87915-1.41456 2.99957-1.42466l.00416-.00004h7.62824l.0083-.99794c.0023-.27275.2144-.49328.4766-.49564l1.4209-.01282c.0576-.00052.1128.00949.1642.02831.6103-1.41474 1.9153-2.44354 3.4786-2.53152.0073-.00041.0145-.00064.0218-.00071l2.7951-.02521c.1273-.00115.2664.01411.4083.06978.1443.05661.2657.1448.3711.25439s.1902.23584.2446.38592c.0532.14654.068.29013.0671.42177l.0016.99219 1.7493-.01578c.2654-.00239.4826.21951.4849.49565zm-9.9938 1.79697c-.0219.32604-.0059.64427.0436.95074l-.7917.00714.0152-1.82112.8088-.0073c-.0521.28255-.0784.57383-.0759.87054zm6.7235-3.39829c-.0092-.00142-.0243-.00286-.0482-.00264l-2.7838.02511c-1.6453.09862-2.9531 1.59749-2.9298 3.3844.0001.01479-.0002.02958-.0013.04432-.1264 1.74627 1.203 3.22341 2.8584 3.29276.5671-.00503 1.1274-.00364 1.6209-.00169l.2248.00093c.4023.00171.7471.00317 1.0024.00086.0515-.00046.0835-.01939.1025-.03919.0188-.01958.0368-.05232.0376-.10471l-.0105-6.47674c.0002-.02487-.0012-.04067-.0025-.05015-.0013-.00885-.0026-.01236-.0028-.01284-.0001-.00033-.0006-.00177-.0028-.0052-.0026-.00402-.0089-.01283-.022-.02655-.0132-.01372-.0217-.02021-.0255-.0229-.0034-.0023-.0047-.00281-.005-.00293zm0 0c.0085.00132.0119.00266.0124.00284zm-16.53967 12.11226.79787-2.8723.7489 2.2067zm2.11923-1.9834-.77316-2.2782c.14894-.11241.34226-.18408.55341-.18408 4.57079 0 9.05459 1.52038 12.83559 4.29208l-2.5473 2.3907-1.9041-1.2185.5525-.9576c.1366-.2368.0628-.544-.1649-.686-.2277-.1421-.523-.0653-.6596.1715l-.7308 1.2666c-.0295.0292-.0559.0628-.0783.1006-.0244.0412-.0422.0846-.0541.1289l-.659 1.1424c-.1366.2368-.0628.5439.1649.686.2276.1421.523.0653.6595-.1715l.4751-.8234 1.6549 1.0592-.4214.3955c-.5353.4617-1.1375.7223-1.8163.7223h-2.907l-1.81517-5.3651c-.00225-.0067-.00463-.0133-.00714-.0198-.28872-.7507-1.15931-1.2383-1.94421-.9118-.15038.0626-.28979.1514-.41342.2602zm3.82554 7.0365c.0092.0003.0185.0003.0278 0h3.2336c.942 0 1.7583-.3703 2.439-.9602.0048-.0042.0096-.0085.0143-.0129l.8375-.7861c.0529-.0327.1004-.0765.1389-.1304l2.801-2.6288 2.9264 3.8995c.0906.1273.1676.3291.1973.5662.0298.2379.0063.4653-.0584.6335-.0522.1356-.1677.2693-.34.373-.1724.1039-.369.157-.5329.157h-.2891c-.4026-1.2376-1.5179-2.1108-2.857-2.1108-1.3389 0-2.4543.8732-2.8569 2.1108h-9.50841c-.4026-1.2376-1.51794-2.1108-2.85693-2.1108-.24645 0-.48533.0296-.71357.0856l-1.29652-2.2473c-.02108-.0563-.03958-.199.01526-.4003.01342-.0158.04027-.043.08566-.0713.06718-.0419.13487-.0607.18395-.0607h1.52606l2.7007 2.8087c.6037.6279 1.33474.8825 2.05335.8853.00756.0002.01515.0002.02274 0zm-.66493-1-1.69899-5.0217c-.12025-.2992-.46325-.4413-.69109-.3465-.21773.0906-.35099.3132-.36735.5198l1.64539 4.8484zm-2.83747-.5924-2.33246-2.4257 1.75733-.7563 1.23427 3.637c-.23318-.0951-.45542-.2431-.65914-.455zm9.9846 3.7309c0-1.2014.901-2.1385 2.0562-2.1385s2.0564.9371 2.0564 2.1385c0 1.2015-.9012 2.1386-2.0564 2.1386s-2.0562-.9371-2.0562-2.1386zm-13.16604-2.1385c-1.15523 0-2.0563.9371-2.0563 2.1385 0 1.2015.90107 2.1386 2.0563 2.1386s2.05629-.9371 2.05629-2.1386c0-1.2014-.90106-2.1385-2.05629-2.1385z" fill-rule="evenodd"/><path d="m24.3415 7.85529c-.1877.19526-.4921.19526-.6799 0-.1877-.19526-.1877-.51184 0-.70711.1878-.19526.4922-.19526.6799 0 .1878.19527.1878.51185 0 .70711z"/></g></svg>