<svg fill="none" height="25" viewBox="0 0 25 25" width="25" xmlns="http://www.w3.org/2000/svg"><g fill="#18303f"><path clip-rule="evenodd" d="m10 5.65527c-1.0761 0-1.99995.92386-1.99995 2 0 1.07615.92385 2 1.99995 2h1v2.51633c0 .2761.2239.5.5.5.2762 0 .5-.2239.5-.5v-2.51633h2v3.33363l-.0001.0101c0 .6908-.4674 1.2737-1.1041 1.4474-.2664.0726-.4234.3475-.3508.6139.0727.2664.3475.4235.6139.3508.9732-.2654 1.7105-1.1036 1.8254-2.1309.0103-.0399.0157-.0818.0157-.1249v-3.50003h1c1.0762 0 2-.92385 2-2 0-1.07614-.9238-2-2-2-1.0761 0-2 .92386-2 2v1h-2v-1c0-1.07614-.9238-2-2-2zm1 2v1h-1c-.52381 0-.99995-.47614-.99995-1 0-.52385.47614-1 .99995-1 .5239 0 1 .47615 1 1zm5 1h-1v-1c0-.52385.4762-1 1-1 .5239 0 1 .47615 1 1 0 .52386-.4761 1-1 1z" fill-rule="evenodd"/><path d="m12 13.917c0 .2761-.2238.5-.5.5-.2761 0-.5-.2239-.5-.5s.2239-.5.5-.5c.2762 0 .5.2239.5.5z"/><path clip-rule="evenodd" d="m5.00768 8.71393c.00646-4.52856 3.56298-8.214907 7.99242-8.214907 4.4293 0 7.9859 3.686357 7.9923 8.214907.1566 3.27067-2.1111 6.00487-4.1473 7.56627-.0552.0695-.1165.1819-.1815.349-.0659.1692-.1216.3555-.1821.5579l-.0188.063c-.0634.2115-.1375.4547-.2328.6549-.0498.1049-.1296.2523-.2565.3757.0174.0738.0266.1509.0266.23v2c0 1.6723-1.3277 3-3 3-1.6722 0-3-1.3277-3-3v-2c0-.0791.0093-.1562.0266-.23-.12684-.1234-.2066-.2709-.25643-.3757-.09522-.2002-.16935-.4434-.23273-.6549l-.01885-.063c-.06049-.2024-.11618-.3887-.18208-.5579-.06502-.167-.12626-.2794-.1815-.349-2.03808-1.5615-4.30386-4.2957-4.14733-7.56627zm10.28102 8.83227-.0089.0042c-.0887-.0258-.1826-.0397-.2798-.0397h-4c-.0971 0-.191.0139-.2797.0397l-.0089-.0042c-.0088-.0138-.0218-.0361-.0381-.0705-.0568-.1194-.1105-.2877-.1779-.5126l-.0195-.0651c-.0584-.1958-.126-.4222-.2075-.6317-.0894-.2296-.2135-.4883-.40263-.6924-.01971-.0212-.04124-.0407-.06434-.0583-1.95323-1.4836-3.93386-3.9593-3.79438-6.76447.00041-.00827.00062-.01655.00062-.02483 0-4.01125 3.14011-7.22728 6.99243-7.22728 3.8522 0 6.9923 3.21603 6.9923 7.22728 0 .00828.0002.01656.0007.02483.1394 2.80507-1.8427 5.28087-3.7946 6.76457-.023.0175-.0445.037-.0642.0582-.1891.2041-.3132.4628-.4026.6924-.0815.2095-.1491.4359-.2075.6317l-.0194.0651c-.0675.2249-.1212.3932-.178.5126-.0163.0344-.0293.0567-.0381.0705zm-.2887 2.9645v-2h-4v2c0 1.12.88 2 2 2s2-.88 2-2z" fill-rule="evenodd"/><path d="m13 24.999c.2762 0 .5-.2238.5-.5 0-.2761-.2238-.5-.5-.5-.2761 0-.5.2239-.5.5 0 .2762.2239.5.5.5z"/></g></svg>