<svg height="15" width="15" xmlns="http://www.w3.org/2000/svg" xmlns:xlink="http://www.w3.org/1999/xlink"><linearGradient id="a" x1="50%" x2="50%" y1="0%" y2="100%"><stop offset="0" stop-color="#05ab41"/><stop offset="1" stop-color="#019c39"/></linearGradient><linearGradient id="b" x1="50%" x2="50%" y1="0%" y2="100%"><stop offset="0" stop-color="#053087"/><stop offset="1" stop-color="#012877"/></linearGradient><mask id="c" fill="#f0f0f0"><ellipse cx="2.676" cy="2.864" fill="#f0f0f0" fill-rule="evenodd" rx="2.676" ry="2.864"/></mask><g fill="none" fill-rule="evenodd"><path d="m0 0h15v15h-15z" fill="url(#a)"/><path d="m1.323 7.723c-.178-.122-.175-.325 0-.446l5.854-4.054a.613.613 0 0 1 .646 0l5.854 4.054c.178.122.175.325 0 .446l-5.854 4.054a.613.613 0 0 1 -.646 0z" fill="#fdd216"/><ellipse cx="2.676" cy="2.864" fill="url(#b)" rx="2.676" ry="2.864" transform="translate(4.824 4.636)"/><path d="m-.076 2.433c.202-.176 1.118-.032 2.702.42 1.127.322 2.426 1.032 2.724 1.424l.24.318.595-.515-.24-.317c-.422-.557-1.852-1.339-3.122-1.701-1.977-.565-2.873-.704-3.381-.264l-.297.256.481.636z" fill="#f0f0f0" mask="url(#c)" transform="translate(4.824 4.636)"/></g></svg>