<svg height="15" width="15" xmlns="http://www.w3.org/2000/svg" xmlns:xlink="http://www.w3.org/1999/xlink"><linearGradient id="a" x1="50%" x2="50%" y1="0%" y2="100%"><stop offset="0" stop-color="#f0f0f0"/><stop offset="1" stop-color="#f0f0f0"/></linearGradient><linearGradient id="b" x1="50%" x2="50%" y1="0%" y2="100%"><stop offset="0" stop-color="#dd172c"/><stop offset="1" stop-color="#c60b1f"/></linearGradient><linearGradient id="c" x1="50%" x2="50%" y1="0%" y2="100%"><stop offset="0" stop-color="#ffd133"/><stop offset="1" stop-color="#ffc500"/></linearGradient><g fill="none" fill-rule="evenodd"><path d="m0 0h15v15h-15z" fill="url(#a)"/><path d="m0 0h15v4h-15zm0 11h15v4h-15z" fill="url(#b)" fill-rule="nonzero"/><path d="m0 4h15v7h-15z" fill="url(#c)"/><path d="m3.929 7h.714v.5h-.714z" fill="#ffedb1"/><g fill="#a41517" fill-rule="nonzero"><path d="m4.915 8.46c.025.295.291.54.585.54s.56-.246.585-.54l.122-1.46h-1.414zm-.624-1.465a.456.456 0 0 1 .465-.495h1.488a.45.45 0 0 1 .465.495l-.126 1.506c-.053.56-.52.99-1.083.999a1.104 1.104 0 0 1 -1.083-.999l-.127-1.506z"/><path d="m4.5 7.5h2v.5h-.5l-.5 1-.5-1h-.5zm-1.5-1.5h1v3.5h-1zm4 0h1v3.5h-1zm-2.5-.5c0-.276.214-.5.505-.5h.99c.279 0 .505.232.505.5v.248a.248.248 0 0 1 -.245.252h-1.51a.245.245 0 0 1 -.245-.252z"/></g></g></svg>