<svg height="15" width="15" xmlns="http://www.w3.org/2000/svg" xmlns:xlink="http://www.w3.org/1999/xlink"><defs><linearGradient id="a" x1="50%" x2="50%" y1="0%" y2="100%"><stop offset="0" stop-color="#f0f0f0"/><stop offset="1" stop-color="#f0f0f0"/></linearGradient><path id="b" d="m0 0h15v15h-15z"/><linearGradient id="c" x1="50%" x2="50%" y1="0%" y2="100%"><stop offset="0" stop-color="#ff202d"/><stop offset="1" stop-color="#fd0d1b"/></linearGradient><linearGradient id="d" x1="50%" x2="50%" y1="0%" y2="100%"><stop offset="0" stop-color="#2027ac"/><stop offset="1" stop-color="#191f94"/></linearGradient><linearGradient id="e" x1="50%" x2="50%" y1="0%" y2="100%"><stop offset="0" stop-color="#ff212e"/><stop offset="1" stop-color="#fd0d1b"/></linearGradient><mask id="f" fill="#f0f0f0"><use fill="#f0f0f0" fill-rule="evenodd" xlink:href="#b"/></mask></defs><g fill="none" fill-rule="evenodd"><use fill="url(#a)" xlink:href="#b"/><path d="m-3 0h21v5h-21z" fill="url(#c)" mask="url(#f)"/><path d="m5 4 .5-.5.5.5v1h-1zm2 0 .5-.5.5.5v1h-1zm2 0 .5-.5.5.5v1h-1z" fill="#1895db" fill-rule="nonzero" mask="url(#f)" opacity=".5"/><path d="m6 4 .5-.5.5.5v1h-1zm2 0 .5-.5.5.5v1h-1z" fill="#191f94" fill-rule="nonzero" mask="url(#f)" opacity=".5"/><path d="m-3 10h21v5h-21z" fill="url(#d)" mask="url(#f)"/><g fill-rule="nonzero"><path d="m-3 10v-5h21v5zm12 0h1l-.273.547c-.126.25-.454.453-.727.453zm-2 0h1v1h-1zm-2 0h1v1a.876.876 0 0 1 -.727-.453z" fill="url(#a)" mask="url(#f)"/><path d="m7 5h1v1h-1zm2 0h.5l.5 1h-1zm-3.5 0h.5v1h-1zm.5 1h1v1h-1zm2 0h1v1h-1zm-1 1h1v1h-1zm2 0h1v1h-1zm-1 1h1v1h-1zm-3-1h1v1h-1zm1 1h1v1h-1zm-1 1h1v1h-1zm2 0h1v1h-1zm2 0h1v1h-1zm-1 1h1v1h-1zm-2 0h1v1h-1z" fill="url(#e)" mask="url(#f)"/></g></g></svg>