<svg height="15" width="15" xmlns="http://www.w3.org/2000/svg" xmlns:xlink="http://www.w3.org/1999/xlink"><linearGradient id="a" x1="50%" x2="50%" y1="0%" y2="100%"><stop offset="0" stop-color="#486bca"/><stop offset="1" stop-color="#3e5fba"/></linearGradient><linearGradient id="b" x1="50%" x2="50%" y1="0%" y2="100%"><stop offset="0" stop-color="#ffdf20"/><stop offset="1" stop-color="#ffda00"/></linearGradient><linearGradient id="c" x1="50%" x2="50%" y1="0%" y2="100%"><stop offset="0" stop-color="#cf1615"/><stop offset="1" stop-color="#b20d0c"/></linearGradient><linearGradient id="d" x1="50%" x2="50%" y1="0%" y2="100%"><stop offset="0" stop-color="#f0f0f0"/><stop offset="1" stop-color="#f0f0f0"/></linearGradient><linearGradient id="e" x1="50%" x2="50%" y1="0%" y2="100%"><stop offset="0" stop-color="#262626"/><stop offset="1" stop-color="#0d0d0d"/></linearGradient><mask id="f" fill="#f0f0f0"><ellipse cx="4.5" cy="2.5" fill="#f0f0f0" fill-rule="evenodd" rx="4.5" ry="2.5"/></mask><mask id="g" fill="#f0f0f0"><ellipse cx="4.5" cy="2.5" fill="#f0f0f0" fill-rule="evenodd" rx="4.5" ry="2.5"/></mask><mask id="h" fill="#f0f0f0"><ellipse cx="4.5" cy="2.5" fill="#f0f0f0" fill-rule="evenodd" rx="4.5" ry="2.5"/></mask><g fill="none" fill-rule="evenodd"><path d="m0 0h15v3h-15zm0 12h15v3h-15z" fill="url(#a)" fill-rule="nonzero"/><path d="m0 3h15v9h-15z" fill="url(#b)"/><path d="m0 4h15v7h-15z" fill="url(#c)"/><ellipse cx="4.5" cy="2.5" fill="url(#d)" rx="4.5" ry="2.5" transform="translate(3 5)"/><path d="m0 0h5v5h-4z" fill="url(#e)" mask="url(#f)" transform="matrix(-1 0 0 1 8 5)"/><circle cx="5.5" cy="2.5" fill="#1a1a1a" mask="url(#g)" r="1" transform="translate(3 5)"/><circle cx="3.5" cy="2.5" fill="#f6f6f6" mask="url(#h)" r="1" transform="translate(3 5)"/></g></svg>