<svg height="15" width="15" xmlns="http://www.w3.org/2000/svg" xmlns:xlink="http://www.w3.org/1999/xlink"><linearGradient id="a" x1="50%" x2="50%" y1="0%" y2="100%"><stop offset="0" stop-color="#30c375"/><stop offset="1" stop-color="#28ae67"/></linearGradient><linearGradient id="b" x1="50%" x2="50%" y1="0%" y2="100%"><stop offset="0" stop-color="#de414f"/><stop offset="1" stop-color="#ca3745"/></linearGradient><linearGradient id="c" x1="50%" x2="50%" y1="0%" y2="100%"><stop offset="0" stop-color="#f0f0f0"/><stop offset="1" stop-color="#f0f0f0"/></linearGradient><mask id="d" fill="#f0f0f0"><ellipse cx="1.5" cy="1" fill="#f0f0f0" fill-rule="evenodd" rx="1.5" ry="1"/></mask><mask id="e" fill="#f0f0f0"><ellipse cx="1.5" cy="1" fill="#f0f0f0" fill-rule="evenodd" rx="1.5" ry="1"/></mask><mask id="f" fill="#f0f0f0"><ellipse cx="1.5" cy="1" fill="#f0f0f0" fill-rule="evenodd" rx="1.5" ry="1"/></mask><mask id="g" fill="#f0f0f0"><ellipse cx="1.5" cy="1" fill="#f0f0f0" fill-rule="evenodd" rx="1.5" ry="1"/></mask><mask id="h" fill="#f0f0f0"><ellipse cx="1.5" cy="1" fill="#f0f0f0" fill-rule="evenodd" rx="1.5" ry="1"/></mask><mask id="i" fill="#f0f0f0"><ellipse cx="1.5" cy="1" fill="#f0f0f0" fill-rule="evenodd" rx="1.5" ry="1"/></mask><mask id="j" fill="#f0f0f0"><ellipse cx="1.5" cy="1" fill="#f0f0f0" fill-rule="evenodd" rx="1.5" ry="1"/></mask><g fill="none" fill-rule="evenodd"><path d="m0 0h15v15h-15z" fill="url(#a)"/><path d="m3 0h3v15h-3z" fill="url(#b)"/><ellipse cx="4.5" cy="2" fill="#f0f0f0" rx="1.5" ry="1"/><circle cx="1.5" cy="1" fill="#dd404f" mask="url(#d)" r="1" transform="translate(3 1)"/><path d="m0 0h1.5v1h-1.5zm1.5 1h1.5v1h-1.5z" fill="#fbaf29" fill-rule="nonzero" mask="url(#e)" transform="translate(3 1)"/><ellipse cx="4.5" cy="13" fill="#f0f0f0" rx="1.5" ry="1"/><circle cx="1.5" cy="1" fill="#dd404f" mask="url(#f)" r="1" transform="translate(3 12)"/><path d="m0 0h1.5v1h-1.5zm1.5 1h1.5v1h-1.5z" fill="#fbaf29" fill-rule="nonzero" mask="url(#g)" transform="translate(3 12)"/><g transform="translate(3 7)"><ellipse cx="1.5" cy="1" fill="#28ae67" rx="1.5" ry="1"/><circle cx="1.5" cy="1" fill="#dd404f" mask="url(#h)" r="1"/></g><ellipse cx="4.5" cy="10.5" fill="#28ae67" rx="1.5" ry="1"/><g transform="translate(3 4)"><ellipse cx="1.5" cy="1" fill="#fbaf29" rx="1.5" ry="1"/><circle cx="1.5" cy="1" fill="#dd404f" mask="url(#i)" r="1"/><path d="m0 0h1v2h-1zm2 0h1v2h-1z" fill="#28ae67" fill-rule="nonzero" mask="url(#j)"/></g><g fill="url(#c)" transform="translate(8 2)"><path d="m2.94 1.556a.357.357 0 1 0 .533.477.357.357 0 0 0 -.532-.477zm-.925 1.385a.357.357 0 1 0 -.477.532.357.357 0 0 0 .477-.532zm-.714-.715a.357.357 0 1 0 -.477.532.357.357 0 0 0 .477-.532zm1.428-1.428a.357.357 0 1 0 -.476.532.357.357 0 0 0 .476-.532zm-.357 1.071a.357.357 0 1 0 -.476.532.357.357 0 0 0 .476-.532z" fill-rule="nonzero"/><path d="m4.362 4.349a2.179 2.179 0 0 1 -3.304-.262 2.179 2.179 0 0 0 3.042-3.043 2.179 2.179 0 0 1 .261 3.305z"/></g></g></svg>