<svg height="15" width="15" xmlns="http://www.w3.org/2000/svg" xmlns:xlink="http://www.w3.org/1999/xlink"><linearGradient id="a" x1="50%" x2="50%" y1="100%" y2="0%"><stop offset="0" stop-color="#2a8815"/><stop offset="1" stop-color="#35a51d"/></linearGradient><linearGradient id="b" x1="50%" x2="50%" y1="0%" y2="100%"><stop offset="0" stop-color="#ef8a34"/><stop offset="1" stop-color="#ec7e21"/></linearGradient><linearGradient id="c" x1="50%" x2="50%" y1="0%" y2="100%"><stop offset="0" stop-color="#f48d36"/><stop offset="1" stop-color="#ec7e21"/></linearGradient><linearGradient id="d" x1="50%" x2="50%" y1="0%" y2="100%"><stop offset="0" stop-color="#262626"/><stop offset="1" stop-color="#0d0d0d"/></linearGradient><linearGradient id="e" x1="50%" x2="50%" y1="0%" y2="100%"><stop offset="0" stop-color="#ec322b"/><stop offset="1" stop-color="#db261f"/></linearGradient><g fill="none" fill-rule="evenodd"><path d="m0 0h15v15h-15z" fill="url(#a)"/><path d="m10.196 3.624s-.403.153-.834 0c-.342-.122-.687-.534-.97-.677-.164-.083.14-.478-.184-.371-.325.106-.855-.39-.855-.39s-.548-.667.259-.667 2.51.58 2.51.58.063-.3.202-.438.242-.265.47-.23c.227.034.353.355.353.355l-.354.135v.266s2.362-.724 2.92-.668.109.669-.228 1.057c-.13.15-.556.456-.815.21-.259-.245-.163.266-.43.43-.438.27-.602.516-.753.587-.15.072-.479 0-.479 0l.096.247s.027.296-.096.414-.208.202-.508.166c-.3-.035-.441.04-.541-.29s.237-.716.237-.716zm.247-.342v.772l.339-.284-.34-.488z" fill="url(#b)" fill-rule="nonzero"/><path d="m12 6h3v9h-3z" fill="url(#c)"/><path d="m9 6h3v9h-3z" fill="url(#d)"/><path d="m6 6h3v9h-3z" fill="url(#e)"/></g></svg>