<svg fill="none" height="13" viewBox="0 0 13 13" width="13" xmlns="http://www.w3.org/2000/svg"><path d="m2.20965 5.51089c-.55229.00145-1.00117.45033-1.00262 1.00261-.00144.55229.4451.99883.99739.99738l3.29289-.00861-.00861 3.29293c-.00145.5522.44509.9988.99738.9973.55228-.0014 1.00116-.4503 1.00261-1.0026l.00861-3.29286 3.2926-.00861c.5523-.00145 1.0012-.45033 1.0026-1.00261.0015-.55229-.4451-.99883-.9973-.99739l-3.29267.00862.00861-3.29263c.00145-.55229-.44509-.99883-.99738-.99739-.55228.00145-1.00116.45033-1.00261 1.00262l-.00861 3.29263z" fill="#18303f"/><path clip-rule="evenodd" d="m.207038 6.51089c.002884-1.10253.897472-1.99711 1.999992-2l2.29811-.00601.00601-2.29785c.00289-1.10252.89747-1.997107 2-1.999992 1.10661-.002893 2.00289.893382 1.99999 1.999992l-.00598 2.28739 2.28734-.00598c1.1067-.0029 2.0029.89338 2 1.99999-.0028 1.10253-.8974 1.99711-2 1.99999l-2.2978.00601-.00601 2.29807c-.00289 1.1026-.89747 1.9972-2 2-1.10661.0029-2.00289-.8933-1.99999-2l.00598-2.2876-2.28765.00598c-1.10661.0029-2.002886-.89338-1.999992-1.99999zm1.997382.99999c-.55229.00145-.99883-.44509-.99739-.99738.00145-.55228.45033-1.00116 1.00262-1.00261l3.29289-.00861.00861-3.29263c.00145-.55229.45033-1.00117 1.00261-1.00262.55229-.00144.99883.4451.99738.99739l-.00861 3.29263 3.29267-.00862c.5522-.00144.9988.4451.9973.99739-.0014.55228-.4503 1.00116-1.0026 1.00261l-3.2926.00861-.00861 3.29286c-.00145.5523-.45033 1.0012-1.00261 1.0026-.55229.0015-.99883-.4451-.99738-.9973l.00861-3.29293z" fill="#dadada" fill-rule="evenodd"/></svg>