<svg fill="none" height="46" viewBox="0 0 45 46" width="45" xmlns="http://www.w3.org/2000/svg"><g fill="#c4c4c4"><path clip-rule="evenodd" d="m22.499 43.9106c11.3219 0 20.5-9.1781 20.5-20.5 0-11.3218-9.1781-20.49996-20.5-20.49996-11.3218 0-20.49998 9.17816-20.49998 20.49996 0 11.3219 9.17818 20.5 20.49998 20.5zm0 2c12.4264 0 22.5-10.0735 22.5-22.5 0-12.4264-10.0736-22.499955-22.5-22.499955s-22.49997656 10.073555-22.49997656 22.499955c0 12.4265 10.07357656 22.5 22.49997656 22.5z" fill-rule="evenodd"/><path d="m24.3582 13.9141c.0479-.2156-.088-.4293-.3037-.4772-.0357-.008-.0713-.0109-.1061-.0092-.1187.0053-.2338.0632-.3081.1674l-6.967 9.769c-.1282.1799-.0864.4296.0934.5579.1799.1283.4297.0865.558-.0934l5.8262-8.1696-1.1736 5.2816c-.0263.1184.0025.2424.0784.337.0759.0947.1907.1497.312.1497h5.6228l-6.4059 8.9683 1.1736-5.2815c.0479-.2156-.088-.4293-.3037-.4772-.032-.0072-.064-.0102-.0953-.0096h-4.6915c-.2209 0-.4.1791-.4.4s.1791.4.4.4h4.2014l-1.4918 6.7133c-.0413.1856.0539.3746.2275.4521.1737.0774.3779.0219.4884-.1329l8-11.2c.0871-.1219.0988-.2823.0302-.4155-.0685-.1332-.2058-.217-.3557-.217h-5.9013z"/><path d="m16.0146 25.4273c.2209 0 .4-.1791.4-.4s-.1791-.4-.4-.4-.4.1791-.4.4.1791.4.4.4z"/></g><g stroke="#c4c4c4" stroke-width=".75"><path d="m24.3582 13.9141c.0479-.2156-.088-.4293-.3037-.4772-.0357-.008-.0713-.0109-.1061-.0092-.1187.0053-.2338.0632-.3081.1674l-6.967 9.769c-.1282.1799-.0864.4296.0934.5579.1799.1283.4297.0865.558-.0934l5.8262-8.1696-1.1736 5.2816c-.0263.1184.0025.2424.0784.337.0759.0947.1907.1497.312.1497h5.6228l-6.4059 8.9683 1.1736-5.2815c.0479-.2156-.088-.4293-.3037-.4772-.032-.0072-.064-.0102-.0953-.0096h-4.6915c-.2209 0-.4.1791-.4.4s.1791.4.4.4h4.2014l-1.4918 6.7133c-.0413.1856.0539.3746.2275.4521.1737.0774.3779.0219.4884-.1329l8-11.2c.0871-.1219.0988-.2823.0302-.4155-.0685-.1332-.2058-.217-.3557-.217h-5.9013z"/><path d="m16.0146 25.4273c.2209 0 .4-.1791.4-.4s-.1791-.4-.4-.4-.4.1791-.4.4.1791.4.4.4z"/></g></svg>