<svg fill="none" height="51" viewBox="0 0 52 51" width="52" xmlns="http://www.w3.org/2000/svg"><g stroke="#92a0a9" stroke-linecap="round" stroke-linejoin="round" stroke-width="2"><path d="m1.26805 7.14002c0-3.468 2.652-6.12 6.12-6.12"/><path d="m5.34805 7.14004c0-1.224.816-2.04 2.04-2.04"/><path d="m1.26805 43.86c0 3.468 2.652 6.12 6.12 6.12"/><path d="m5.34805 43.86c0 1.224.816 2.04 2.04 2.04"/><path d="m50.2281 7.14002c0-3.468-2.652-6.12-6.12-6.12"/><path d="m46.1481 7.14004c0-1.224-.816-2.04-2.04-2.04"/><path d="m50.2281 43.86c0 3.468-2.652 6.12-6.12 6.12"/><path d="m46.1481 43.86c0 1.224-.816 2.04-2.04 2.04"/><path d="m18.608 17.2704c.612 0 1.224-.408 1.632-.816l1.632-2.448c.408-.408 1.02-.816 1.632-.816h4.692c.612 0 1.224.408 1.632.816l1.632 2.448c.408.408 1.02.816 1.632.816h2.856c1.836.204 3.06 1.632 3.06 3.468v11.832c0 1.632-1.428 3.06-3.06 3.06h-20.4c-1.632 0-3.06-1.428-3.06-3.06v-11.832c0-1.836 1.224-3.264 3.06-3.468z"/><path d="m25.748 31.5504c2.8167 0 5.1-2.2833 5.1-5.1 0-2.8166-2.2833-5.1-5.1-5.1-2.8166 0-5.1 2.2834-5.1 5.1 0 2.8167 2.2834 5.1 5.1 5.1z"/></g><ellipse cx="33.908" cy="20.3304" fill="#92a0a9" rx="1.02" ry="1.02"/></svg>