<svg fill="none" height="51" viewBox="0 0 52 51" width="52" xmlns="http://www.w3.org/2000/svg"><g stroke="#92a0a9" stroke-width="2"><g stroke-linecap="round" stroke-linejoin="round"><path d="m32.5568 33.2252v-11.6011c0-1.9585-1.6024-3.561-3.561-3.561h-23.14674c-1.95857 0-3.56104 1.6025-3.56104 3.561v12.6887c0 4.5168 4.16074 8.6776 8.67758 8.6776h2.178"/><path d="m7.6123 11.8012c0-5.32432 4.4369-9.76122 9.7612-9.76122s9.7612 4.4369 9.7612 9.76122v6.2116h-19.5224z"/><path d="m17.3731 31.5014c1.1762 0 2.1297-.9535 2.1297-2.1297 0-1.1763-.9535-2.1298-2.1297-2.1298s-2.1297.9535-2.1297 2.1298c0 1.1762.9535 2.1297 2.1297 2.1297z"/><path d="m17.3737 31.5014v2.3072"/></g><rect height="12.24" rx="1" width="32.64" x="16.5681" y="36.72"/><g stroke-linecap="round" stroke-linejoin="round"><path d="m25.4095 40.6004-4.491 4.491"/><path d="m21.0065 40.6285 4.491 4.491"/><path d="m35.6094 40.6006-4.491 4.491"/><path d="m31.2064 40.6287 4.491 4.491"/><path d="m40.0718 45.0912h5.0404"/></g></g></svg>