<svg fill="none" height="60" viewBox="0 0 60 60" width="60" xmlns="http://www.w3.org/2000/svg"><path d="m30.0978 46.073h-.5192c-.0798 0-.1331.065-.1331.13v.5073c0 .3512.2929.6373.6523.6373s.6522-.2861.6522-.6373-.2928-.6373-.6522-.6373z" fill="#f94409"/><path d="m29.9247 39.6346c-.1065-.091-.2795-.1951-.3993-.2601l-2.4492-1.2877c-.1331-.078-.2929-.13-.4393-.182-.4259-.1171-.8785-.1171-1.3045 0-.1597.039-.3061.104-.4392.182l-2.4625 1.2877c-.1198.065-.2796.1691-.3994.2601-.5191.4293-.8119 1.0536-.8119 1.7299v3.733c0 1.2486 1.0382 2.2501 2.3028 2.2501h4.2994c.3594 0 .6522-.2861.6522-.6373v-.5073c0-.078-.0665-.13-.1331-.13h-4.8185c-.5458 0-.9984-.4423-.9984-.9755v-3.733c0-.3642.1997-.6893.5192-.8584l2.529-1.3137c.2663-.117.5458-.117.812 0l2.5291 1.3137c.3195.1691.5191.4942.5191.8584v3.2777c0 .3512.2929.6373.6523.6373s.6522-.2861.6522-.6373v-3.2777c.0133-.6763-.2928-1.3006-.812-1.7299z" fill="#f94409"/><path d="m29.0323 14.559c5.5557-.3104 10.6988-.0678 16.9183.7005 3.4738.4291 6.2076 3.1741 6.6297 6.6487 1.0664 8.7786 1.113 15.3924.0329 24.173-.4307 3.502-3.2257 6.2386-6.734 6.6158-8.554.9198-15.3292.9494-23.9718.0157-3.5238-.3807-6.3147-3.1492-6.7237-6.6698-.6962-5.9922-.8999-10.944-.654-16.1609" stroke="#18303f" stroke-linecap="round" stroke-linejoin="round" stroke-width="2"/><circle cx="14.5" cy="15.4102" r="12" stroke="#92a0a9"/><path clip-rule="evenodd" d="m10.7928 17.7029c-.3906.3906-.3906 1.0237 0 1.4142.3905.3906 1.0237.3906 1.4142 0l2.2929-2.2929 2.2932 2.2931c.3905.3906 1.0237.3906 1.4142 0 .3905-.3905.3905-1.0237 0-1.4142l-2.2932-2.2931 2.2929-2.2929c.3905-.3905.3905-1.0236 0-1.4142-.3905-.3905-1.0237-.3905-1.4142 0l-2.2929 2.2929-2.2926-2.2927c-.3905-.3905-1.0237-.3905-1.4142 0-.3906.3905-.3906 1.0237 0 1.4142l2.2926 2.2927z" fill="#f18303" fill-rule="evenodd"/></svg>