<svg fill="none" height="73" viewBox="0 0 118 73" width="118" xmlns="http://www.w3.org/2000/svg"><path clip-rule="evenodd" d="m58.2973 19.8791c.1155-.4389.5125-.7453.967-.7453h3.6875c.4572 0 .8563.3101.9691.7532l.7375 2.8966c.004.0156.0076.0313.0108.0471.1415.695.6759 1.1307 1.4784 1.1307h7.7639c-.014-.0666-.0213-.1356-.0213-.2063v-3.6208c0-.2652.1054-.5195.2929-.7071.1875-.1875.4419-.2929.7071-.2929h4.9167c.0598 0 .1184.0053.1754.0154.0579-.0105.1174-.0159.1779-.0159h4.9166c.2937 0 .5724.129.7624.3529 1.3505 1.5912 2.1407 3.424 2.6561 5.1953.0089.0302.0162.0609.0221.0918.7478 3.9159 1.2469 9.0198 1.2469 12.2565 0 2.6312.2433 3.9689.5503 5.2263.8158.1374 1.5828.4352 2.1589.702.3873.1794.7135.3567.9441.4899.1156.0668.2082.1231.2734.1636.0326.0203.0584.0368.077.0487l.005.0032c1.9994 1.1646 3.0234 3.4359 2.5271 5.6865-.0866.3929-.4004.6957-.7962.7683-1.5192.2785-3.8042.3954-5.9724.3348-2.0175-.0564-4.1095-.2697-5.4267-.7321-.0079.004-.016.008-.024.0119-8.5332 4.0919-17.4276 4.0919-18.934 4.0919h-18.2513c-.0903.0268-.1859.0411-.2849.0411h-24.1379c-.2756 0-.5755-.0526-.8563-.2086-.2904-.1613-.499-.3994-.6307-.6676-.2393-.4875-.2073-1.033-.1411-1.4376.1389-.8483.5754-1.8839 1.0321-2.8144.4699-.9569 1.0135-1.9054 1.4357-2.6089.2119-.3532.3951-.6478.5257-.8547.017-.027.0332-.0525.0484-.0764v-11.7052c-.0152-.0239-.0314-.0494-.0484-.0763-.1306-.207-.3138-.5015-.5257-.8547-.4222-.7036-.9658-1.652-1.4357-2.609-.4567-.9304-.8932-1.9661-1.0321-2.8144-.0662-.4046-.0983-.95.1411-1.4376.1317-.2682.3403-.5063.6307-.6676.2808-.156.5807-.2086.8563-.2086h16.7018c.1408-.327.2851-.5625.4137-.767.0085-.0133.0167-.0265.0249-.0395.1051-.1669.1913-.3036.2771-.4792v-3.4048c0-.2652.1054-.5195.2929-.7071.1875-.1875.4419-.2929.7071-.2929h4.9167c.3281 0 .6353.161.8221.4307l3.0477 4.4013c.4121-.0038.7494-.0049.9835-.0049 3.4458 0 5.3389-1.1178 6.367-2.1274.5251-.5155.8487-1.0266 1.0387-1.3997.0949-.1864.1559-.3372.1914-.4349.0177-.0488.0291-.084.035-.1036l.005-.0167-.0009.0034-.0006.0021-.0003.0012c-.0001.0006-.0003.0013.9688.248m-.967-.2547c.0002-.0008.0003-.0014 0 0zm-11.0233 4.1305-1.991-2.8753h-3.3928v2.6208c0 .1342-.027.2671-.0794.3906-.0329.0775-.0658.1504-.0985.2191.103-.0135.2079-.0264.3144-.0388.9561-.1115 2.0927-.1885 3.2211-.2419.6865-.0326 1.3754-.0567 2.0262-.0745zm-7.4364 2.6989c.2304.0665.4853.0508.7175-.0632.0673-.0331.2424-.0932.5667-.1599.3069-.063.6908-.1209 1.1365-.1729.8906-.1038 1.9756-.1781 3.0842-.2307 2.2145-.105 4.4645-.1204 5.3177-.1204 3.9292 0 6.3381-1.296 7.7683-2.7003.7041-.6913 1.1487-1.3872 1.4196-1.9192.0369-.0725.0706-.142.1014-.2081h2.225l.5402 2.1216c.359 1.7034 1.7853 2.706 3.4329 2.706h10.8167c1.7504 0 3.0854-1.3409 3.4275-2.6843l.5457-2.1433h3.6619c.933 1.2147 1.5367 2.6126 1.9624 4.0619.7223 3.8022 1.2025 8.7518 1.2025 11.8346 0 3.2725.363 4.755.7668 6.3346.0217.085.0538.1647.0944.238.1553.3327.4886.5671.8805.5774.6796.0178 1.4615.2849 2.127.5931.3215.1489.5936.2969.7842.407.0949.0548.1687.0997.2171.1298.0055.0035.0107.0067.0156.0097.0164.0103.0289.0183.0373.0237l.0111.0072c.0002.0001.0011.0007.0013.0008.0168.0111.0339.0216.0514.0317 1.0748.6189 1.6876 1.7188 1.6724 2.8784-1.3124.1676-3.0875.2415-4.836.1927-2.1303-.0596-4.0227-.2974-4.9557-.6707-.2914-.1166-.6053-.0864-.8595.0556-.184-.0231-.3766.0046-.5562.0907-8.1136 3.8908-16.6324 3.8953-18.0742 3.8953h-19.3349c-.099 0-.1946.0144-.2849.0411h-22.7021c.0896-.5345.4063-1.3386.8522-2.2468.4353-.8867.9477-1.7821 1.3553-2.4613.2029-.3382.378-.6198.502-.8162.0619-.0981.111-.1749.1443-.2266l.0377-.0583.0093-.0143.0021-.0032c.1065-.1628.1637-.3537.1637-.5483v-12.2916c0-.1945-.0568-.3848-.1633-.5476l-.0025-.0039-.0093-.0143-.0377-.0583c-.0333-.0517-.0824-.1284-.1443-.2266-.124-.1964-.2991-.478-.502-.8162-.4076-.6792-.92-1.5745-1.3553-2.4613-.4459-.9081-.7626-1.7122-.8522-2.2468h16.5493c.1693 0 .3287-.0421.4684-.1163zm39.0359-5.5742h-2.9833v2.6208c0 .0707-.0073.1397-.0213.2063h1.0954c.708 0 1.3397-.5902 1.4893-1.1778zm-43.4059 9.8753c.3942.3869.4001 1.02.0132 1.4142l-.9068.9239.9068.924c.3869.3942.381 1.0273-.0132 1.4142-.3941.3868-1.0273.3809-1.4141-.0133l-.8807-.8972-.8807.8972c-.3868.3942-1.02.4001-1.4141.0133-.3942-.3869-.4001-1.02-.0133-1.4142l.9069-.924-.9069-.9239c-.3868-.3942-.3809-1.0273.0133-1.4142.3941-.3868 1.0273-.3809 1.4141.0132l.8807.8973.8807-.8973c.3868-.3941 1.02-.4 1.4141-.0132zm9.934 2.4168c.5523 0 1 .4477 1 1 0 1.452-.452 2.5995-1.1689 3.4757-.5214.6372-1.1582 1.1015-1.8011 1.4409.6429.3395 1.2797.8038 1.8011 1.441.7169.8761 1.1689 2.0237 1.1689 3.4757 0 .5523-.4477 1-1 1s-1-.4477-1-1c0-1.0063-.3023-1.7026-.7168-2.2092-.4283-.5235-1.0238-.9004-1.6777-1.1668-.5738-.2337-1.1584-.3683-1.64-.4447v1.365c0 .5522-.4477 1-1 1s-1-.4478-1-1v-4.9167c0-.5523.4477-1 1-1s1 .4477 1 1v1.3598c.4816-.0765 1.0662-.211 1.64-.4448.6539-.2664 1.2494-.6433 1.6777-1.1668.4145-.5066.7168-1.2028.7168-2.2091 0-.5523.4477-1 1-1zm7.2389 5.8105c.0056.5522-.4376 1.0044-.9899 1.01l-.0219.0002c-.5523.0056-1.0045-.4376-1.01-.9899-.0056-.5522.4376-1.0044.9898-1.01l.022-.0002c.5522-.0056 1.0044.4376 1.01.9899zm-21.7625 3.7727c.3941-.3868 1.0273-.3809 1.4141.0132l.8807.8973.8807-.8973c.3868-.3941 1.02-.4 1.4141-.0132.3942.3869.4001 1.02.0132 1.4142l-.9068.9239.9068.924c.3869.3942.381 1.0273-.0132 1.4142-.3941.3868-1.0273.3809-1.4141-.0133l-.8807-.8972-.8807.8972c-.3868.3942-1.02.4001-1.4141.0133-.3942-.3869-.4001-1.02-.0132-1.4142l.9068-.924-.9069-.9239c-.3868-.3942-.3809-1.0273.0133-1.4142z" fill="#18303f" fill-rule="evenodd"/></svg>