<svg fill="none" height="51" viewBox="0 0 52 51" width="52" xmlns="http://www.w3.org/2000/svg"><g stroke="#92a0a9" stroke-linecap="round" stroke-linejoin="round" stroke-width="2"><path d="m40.7008 19.1192 7.9762 5.5833v20.7381c0 1.5952-1.3959 2.991-2.9911 2.991h-39.88087c-1.59523 0-2.99107-1.3958-2.99107-2.991v-20.9375l7.97614-5.5833"/><path d="m8.79851 42.449-.04827.0472m33.94696-.0472-9.9702-7.9762h-13.9583l-7.1776 5.7421"/><path d="m48.6813 24.502-11.9643 7.9761"/><path d="m2.81396 24.502 11.96424 7.9761"/><path d="m40.7053 29.8883v-25.32431c0-1.19643-.7976-1.99404-1.994-1.99404h-25.9226c-1.1964 0-1.994.79761-1.994 1.99404v25.32431"/><path d="m25.748 19.9757c1.8309 0 3.315-1.4842 3.315-3.315s-1.4841-3.315-3.315-3.315c-1.8308 0-3.315 1.4842-3.315 3.315s1.4842 3.315 3.315 3.315z"/><path d="m29.0617 16.6602v1.768c0 1.547 1.326 2.652 2.652 2.652 1.547 0 2.652-1.326 2.652-2.652v-1.326c.221-4.862-3.536-9.06101-8.398-9.28201s-9.061 3.75701-9.061 8.61901c-.221 4.199 2.652 7.956 6.851 8.84 1.547.442 2.873.221 4.42 0"/></g></svg>