<svg fill="none" height="51" viewBox="0 0 52 51" width="52" xmlns="http://www.w3.org/2000/svg" xmlns:xlink="http://www.w3.org/1999/xlink"><clipPath id="a"><path d="m.248047 0h51v51h-51z"/></clipPath><g clip-path="url(#a)" stroke="#92a0a9" stroke-linecap="round" stroke-linejoin="round" stroke-width="2"><path d="m44.4041 1.33025c.6623-.22174 1.5454-.22174 2.2078.44348 1.3246 1.33043 9.7142 6.87391-4.4156 21.06517-6.1818 6.2087-21.4156-9.0913-15.2338-15.29996z"/><path d="m34.9105 11.087s-.2208.2217-.2208.4435c0 .2217 0 .2217.2208.4434"/><path d="m35.7931 11.0869s-.2207-.2218-.4415-.2218-.2208 0-.4416.2218"/><path d="m35.7936 11.9739s.2208-.2217.2208-.4434c0-.2218 0-.2218-.2208-.4435"/><path d="m34.91 11.9738c.2208.2218.6624.2218.8831 0"/><path d="m30.7152 20.3997-15.6753 15.7434"/><path d="m24.3129 20.3997 7.0649 7.0956"/><path d="m17.2477 22.8389 10.8182 11.0869"/><path d="m15.0399 29.9348 7.0649 7.0956"/><path d="m46.1702 1.32996-2.6493 8.42608"/><path d="m2.23496 38.8039c-.44156 0-.66234-.2217-.88312-.4434-.22078-.4435 0-.6653.22078-.887 3.97403-3.9913 9.49348-5.1 13.46758-1.1087 3.974 3.9913 2.8701 9.5348-1.1039 13.5261-.2208.2217-.6624.4435-1.1039.2217-.4416-.2217-.6624-.4434-.4416-.8869.2208-2.6609-.8831-5.3218-2.87013-7.3174-1.76623-2.2174-4.41558-3.3261-7.28571-3.1044z"/></g></svg>