<svg fill="none" height="60" viewBox="0 0 60 60" width="60" xmlns="http://www.w3.org/2000/svg"><path d="m24.8278 46.4738h-.7034c-.1082 0-.1803.0881-.1803.1762v.6872c0 .4758.3967.8635.8837.8635.4869 0 .8836-.3877.8836-.8635s-.3967-.8634-.8836-.8634z" fill="#f94409"/><path d="m24.5933 37.7511c-.1443-.1234-.3787-.2644-.541-.3525l-3.3182-1.7445c-.1804-.1057-.3968-.1762-.5951-.2467-.5771-.1586-1.1903-.1586-1.7674 0-.2164.0529-.4147.141-.5951.2467l-3.3362 1.7445c-.1623.0881-.3787.2291-.541.3525-.7034.5815-1.1001 1.4273-1.1001 2.3436v5.0574c0 1.6917 1.4066 3.0486 3.1198 3.0486h5.825c.4869 0 .8836-.3877.8836-.8635v-.6872c0-.1058-.0901-.1762-.1803-.1762h-6.5283c-.7393 0-1.3525-.5992-1.3525-1.3217v-5.0574c0-.4934.2705-.9339.7033-1.163l3.4265-1.7798c.3606-.1586.7393-.1586 1.1 0l3.4264 1.7798c.4329.2291.7034.6696.7034 1.163v4.4407c0 .4758.3967.8634.8836.8634s.8837-.3876.8837-.8634v-4.4407c.018-.9163-.3968-1.7621-1.1001-2.3436z" fill="#f94409"/><path d="m4.55447 14.575c.58568-5.21085 4.66134-9.35833 9.86713-9.98771 11.1106-1.34329 19.8102-1.30112 31.0336.03644 5.2134.62131 9.3213 4.74403 9.9328 9.95857 1.3124 11.1916 1.3696 19.8525.0467 31.0452-.6212 5.2561-4.8218 9.3665-10.0864 9.9108-10.9034 1.1272-19.7408 1.1629-30.7531.022-5.28822-.5479-9.48207-4.7078-10.07215-9.9914-1.26837-11.3571-1.2027-20.014.03142-30.9939z" stroke="#18303f" stroke-linecap="round" stroke-linejoin="round" stroke-width="2"/></svg>