<svg fill="none" height="51" viewBox="0 0 52 51" width="52" xmlns="http://www.w3.org/2000/svg"><path d="m14.6413 16.6504c0-.1988-.1988-.3976-.5963-.3976-.1988 0-.3976.1988-.5964.3976-2.1868 3.7769-9.93975 16.6978-9.93975 21.6674 0 5.7648 4.77106 10.5356 10.53615 10.5356 5.765 0 10.5361-4.7708 10.5361-10.5356.1987-4.9696-7.5542-18.0893-9.9398-21.6674z" stroke="#92a0a9" stroke-linecap="round" stroke-linejoin="round" stroke-width="2"/><path d="m38.2853 2.53947c-.1988-.19878-.3976-.39756-.5964-.39756s-.3976.19878-.5964.39756c-2.1867 3.7769-9.9397 16.69783-9.9397 21.66743 0 5.7648 4.7711 10.5356 10.5361 10.5356 5.7651 0 10.5361-4.7708 10.5361-10.5356 0-4.9696-7.7529-18.08931-9.9397-21.66743z" stroke="#92a0a9" stroke-linecap="round" stroke-linejoin="round" stroke-width="2"/><g fill="#92a0a9"><ellipse cx="37.6844" cy="30.3689" rx="1.02" ry="1.02"/><ellipse cx="34.6172" cy="29.3489" rx="1.02" ry="1.02"/><ellipse cx="13.8905" cy="44.6648" rx="1.02" ry="1.02"/><ellipse cx="10.8226" cy="43.6448" rx="1.02" ry="1.02"/></g></svg>