<svg fill="none" height="51" viewBox="0 0 51 51" width="51" xmlns="http://www.w3.org/2000/svg" xmlns:xlink="http://www.w3.org/1999/xlink"><clipPath id="a"><path d="m0 0h51v51h-51z"/></clipPath><g clip-path="url(#a)" stroke="#92a0a9" stroke-linecap="round" stroke-linejoin="round" stroke-width="2"><path d="m44.0175 30.6661v-26.61852c0-1.22855-.7849-2.04758-1.9623-2.04758-11.9698.40952-19.6226 5.11895-19.6226 8.8046 0-3.68565-6.868-8.39508-19.62268-8.8046-1.17736 0-1.962264.81903-1.962264 2.04758v29.07562c0 1.0238.981134 2.0476 1.962264 2.0476 4.43891.0908 8.14428.7457 11.09908 1.6964"/><path d="m22.4326 10.7562v20.8593"/><path d="m24.4343 48-5.7523-6.4296c-1.0652-1.2445-.8521-3.3186.4261-4.3556 1.2783-1.037 3.4088-.8296 4.474.4148l4.9001 5.8074v-20.3259c.2131-1.6592 1.7044-3.1111 3.4088-3.1111s3.1957 1.4519 3.1957 3.1111v13.4815h6.3914c4.687 0 8.5219 3.7333 8.5219 8.2963v3.1111"/></g></svg>