<svg fill="none" height="256" viewBox="0 0 254 256" width="254" xmlns="http://www.w3.org/2000/svg"><path d="m163 84h-37c-1.105 0-2 .8954-2 2v15c0 1.105.895 2 2 2h37c1.105 0 2-.895 2-2v-15c0-1.1046-.895-2-2-2z" stroke="#f94409" stroke-linecap="round" stroke-linejoin="round" stroke-width="2"/><g fill="#18303f"><path d="m172.589 254.221c14.271-.552 28.372-1.359 41.835-2.463 19.623-1.572 35.295-16.947 37.206-36.527l.043-.467h-1.572c0-.085 0-.17.043-.297.892-13.464 1.614-27.565 2.081-41.836.934-29.221.934-60.013 0-89.2343-.467-14.2708-1.147-28.3716-2.081-41.8354 0-.085 0-.1699 0-.2549h1.529l-.043-.4672c-1.911-19.6223-17.541-34.99733-37.206-36.52633-13.463-1.06182-27.564-1.91127-41.835-2.46341-14.611-.55215-29.603-.84946-44.596-.84946s-30.0283.29732-44.5963.84946c-14.3133.55214-28.3717 1.3591-41.8355 2.4634-9.6412.7645-18.6879 4.92682-25.4835 11.76484-6.79556 6.8381-11.00034 15.8848-11.76485 25.4835-1.06181 13.4638-1.91126 27.5647-2.4634 41.8355-.55215 14.6105-.849457 29.6033-.849458 44.5963 0 14.993.297308 29.985.849448 44.596.55214 14.271 1.35912 28.372 2.4634 41.835.76451 9.642 4.92682 18.688 11.76486 25.484 6.8381 6.796 15.8847 11 25.4835 11.765 13.4638 1.062 27.5647 1.911 41.8355 2.463 14.6105.552 29.6033.85 44.5963.85 14.95.085 29.985-.213 44.596-.765zm51.222-37.8c-.085.17-.213.382-.297.552-.085.17-.213.34-.298.509-.127.17-.212.34-.34.51-.127.17-.212.34-.339.467-.128.17-.255.34-.383.51-.127.17-.254.297-.382.467-.127.17-.255.297-.425.467-.127.128-.254.298-.382.425-.127.17-.297.297-.425.425-.127.127-.297.255-.424.425-.17.127-.298.297-.468.424-.127.128-.297.255-.424.383-.17.127-.34.254-.51.382-.17.127-.297.212-.467.34-.17.127-.34.254-.51.339s-.297.213-.467.298c-.17.127-.382.212-.552.339-.17.085-.34.17-.51.298-.17.085-.382.212-.594.297-.17.085-.34.17-.51.255-.212.085-.425.17-.595.255s-.339.127-.509.212c-.213.085-.425.17-.637.212-.17.043-.34.128-.51.17-.212.085-.467.128-.722.17-.17.043-.297.085-.467.128-.255.042-.552.127-.807.17-.128.042-.255.042-.425.084-.425.085-.807.128-1.232.17-3.567.34-7.22.68-10.915.977-11.085.892-22.553 1.572-34.318 2.039-8.834.34-17.838.552-26.885.637-3.016.042-6.031.042-9.047.042-3.015 0-6.031 0-9.046-.042-9.047-.085-18.051-.297-26.8855-.637-11.7649-.467-23.2749-1.147-34.3178-2.039-3.6951-.297-7.3477-.637-10.9154-.977-8.9192-.849-15.9697-7.942-16.8191-16.819-.1699-1.784-.3398-3.61-.5097-5.436-1.1043-12.742-1.9537-26.121-2.4634-39.839-.2124-5.14-.3398-10.364-.4672-15.63-.2973-13.507-.2973-27.225 0-40.689.1274-5.267.2548-10.4483.4672-15.6299.5946-15.6724 1.614-30.8775 2.9731-45.2333.8494-8.9192 7.9424-15.9696 16.8191-16.8191 3.5677-.3398 7.2203-.6795 10.9154-.9768 11.0854-.892 22.553-1.5715 34.3178-2.0387 8.8345-.3398 17.8385-.5522 26.8855-.6371 3.015-.0425 6.031-.0425 9.046-.0425 3.016 0 6.031 0 9.047.0425 9.047.0849 18.051.2973 26.885.6371 11.765.4672 23.275 1.1467 34.318 2.0387 3.695.2973 7.348.6371 10.915.9768.425.0425.807.085 1.232.1699.127.0425.255.0425.425.085.255.0425.552.0849.807.1698.17.0425.339.085.467.1275.255.0424.467.1274.722.1699.17.0424.34.1274.51.1699.212.0849.424.1274.637.2123.17.085.339.1274.509.2124.213.0849.425.1699.595.2548.17.085.34.1699.51.2548.212.085.382.1699.594.2974.17.0849.34.1698.51.2972.17.085.382.2124.552.3398.17.085.34.2124.467.2974.17.1274.34.2123.51.3397.17.1275.297.2124.467.3398s.34.2549.51.3823.297.2548.424.3822c.17.1274.298.2548.468.4247.127.1275.297.2549.424.4248.17.1274.298.2973.425.4247.128.1274.255.2973.382.4247.128.1699.298.2973.425.4672.128.1699.255.2973.382.4672.128.1699.255.3398.383.5097.127.1699.212.3398.339.4672.128.1699.255.3398.34.5096.085.1699.213.3398.298.5097.127.1699.212.3823.297.5522.085.1698.17.3397.255.5096.042.085.085.1699.127.2549h-42.685v175.114h42.728c-.043.085-.085.17-.128.255-.127.212-.212.382-.297.595zm25.483-174.8173c.892 13.4638 1.614 27.5222 2.081 41.8355.935 29.2208.935 59.9708 0 89.1498-.467 14.271-1.146 28.372-2.081 41.835 0 .085 0 .213-.042.298h-66.894v-173.4156h66.894c0 .085 0 .2124.042.2973zm-165.8973 211.7683c-14.2708-.552-28.3292-1.359-41.8355-2.464-9.4289-.764-18.3056-4.842-24.9738-11.51s-10.78803-15.545-11.51006-24.974c-1.06181-13.463-1.91125-27.522-2.4634-41.835-1.10428-29.179-1.10428-59.971.00001-89.1498.55214-14.2708 1.35911-28.3292 2.4634-41.8355.76451-9.4289 4.84186-18.3056 11.51005-24.9738 6.6682-6.66821 15.5449-10.78802 24.9738-11.51005 13.4638-1.06181 27.5222-1.91127 41.8355-2.46343 14.6105-.55214 29.6033-.84944 44.5963-.84944s29.985.2973 44.596.84944c14.271.55215 28.372 1.35913 41.835 2.46342 19.028 1.52901 34.233 16.35196 36.314 35.33716h-25.568c-.085-.1699-.17-.2973-.212-.4672-.085-.1699-.17-.3823-.298-.5522-.085-.2123-.212-.3822-.34-.5946-.084-.1699-.212-.3822-.297-.5521-.127-.1699-.255-.3823-.382-.5522s-.212-.3397-.34-.5096c-.127-.1699-.255-.3398-.425-.5522-.127-.1699-.254-.3398-.382-.4672-.127-.1699-.297-.3398-.425-.5097-.127-.1698-.254-.2973-.424-.4671-.17-.1699-.298-.2974-.467-.4673-.128-.1274-.298-.2972-.425-.4247-.17-.1699-.34-.2973-.51-.4247s-.297-.2548-.467-.3823c-.17-.1274-.34-.2548-.51-.4247-.17-.1274-.34-.2548-.467-.3822-.17-.1274-.382-.2549-.552-.3823s-.34-.2123-.51-.3398c-.17-.1274-.382-.2123-.594-.3397-.17-.085-.34-.2124-.51-.2974-.212-.1274-.382-.2123-.595-.2973-.17-.0849-.339-.1698-.552-.2548-.212-.0849-.425-.1699-.637-.2548-.17-.085-.382-.1699-.552-.2124-.212-.0849-.467-.1699-.68-.2123-.169-.0425-.339-.1275-.552-.1699-.255-.085-.467-.1275-.722-.2124-.17-.0425-.34-.0849-.509-.1274-.255-.0425-.553-.1274-.807-.1699-.17-.0425-.298-.085-.468-.085-.424-.0849-.849-.1274-1.316-.1698-14.356-1.3592-29.604-2.3785-45.318-2.9731-11.808-.4672-23.912-.6796-36.017-.6796s-24.209.2124-36.0168.6796c-15.7149.5946-30.92 1.6139-45.3182 2.973-9.3015.892-16.6917 8.2822-17.5836 17.5837-.1699 1.7838-.3398 3.6101-.5097 5.4364-1.1043 12.7418-1.9537 26.1206-2.5059 39.8817-.4672 11.8075-.6795 23.9125-.6795 36.0165 0 12.105.2123 24.21.6795 36.017.5097 13.719 1.3591 27.097 2.5059 39.882.1699 1.826.3398 3.652.5097 5.436.8919 9.302 8.2821 16.692 17.5836 17.584 3.6102.34 7.2203.679 10.9154.977 11.0854.892 22.5954 1.571 34.3603 2.038 7.3477.298 14.8653.467 22.3833.595 4.502.085 9.046.085 13.591.085 4.544 0 9.089-.043 13.591-.085 7.518-.128 15.035-.297 22.383-.595 11.765-.467 23.275-1.146 34.36-2.038 3.696-.298 7.348-.637 10.916-.977.425-.043.849-.085 1.316-.17.17-.043.298-.043.468-.085.297-.043.552-.085.807-.17.17-.042.339-.085.509-.127.255-.043.468-.128.722-.213.17-.042.383-.127.553-.17.212-.085.467-.127.679-.212.17-.085.382-.17.552-.212.213-.085.425-.17.637-.255.17-.085.383-.17.552-.255.213-.085.425-.212.595-.297s.34-.213.51-.298c.17-.127.382-.212.552-.339.17-.128.34-.213.51-.34.169-.128.382-.255.552-.382.17-.128.339-.255.509-.383.17-.127.34-.255.51-.382s.297-.255.467-.425c.17-.127.34-.297.51-.424.17-.128.297-.298.425-.425l.467-.467c.127-.17.297-.298.425-.468.127-.169.297-.339.424-.509.128-.17.255-.34.383-.51.127-.17.254-.34.382-.51.127-.169.255-.339.34-.509.127-.17.254-.382.382-.552.127-.17.212-.383.297-.553.128-.212.212-.382.34-.594.085-.17.17-.382.297-.552.085-.17.17-.298.255-.467h25.738c-2.081 18.985-17.286 33.808-36.356 35.294-13.464 1.062-27.522 1.911-41.836 2.464-14.61.552-29.603.849-44.596.849-14.95-.17-29.9853-.467-44.5533-1.019z"/><path d="m60.3766 105.058h102.4434c1.996 0 3.61-1.614 3.61-3.61v-53.6858c0-1.9962-1.614-3.6101-3.61-3.6101h-102.4434c-1.9962 0-3.6102 1.6139-3.6102 3.6101v53.6848c0 1.997 1.614 3.611 3.6102 3.611zm0-60.0565h102.4434c1.529 0 2.761 1.2317 2.761 2.7607v53.6858c0 1.529-1.232 2.76-2.761 2.76h-102.4434c-1.529 0-2.7607-1.232-2.7607-2.761v-53.6848c0-1.529 1.2317-2.7607 2.7607-2.7607z"/><path d="m203.594 35.2329c0-1.8688-1.529-3.4403-3.44-3.4403h-142.9629c-1.8688 0-3.4402 1.529-3.4402 3.4402 0 1.9113 1.529 3.4403 3.4402 3.4403h142.9629c1.911-.0424 3.44-1.5715 3.44-3.4402zm-146.4029 2.5483c-1.4016 0-2.5908-1.1468-2.5908-2.5908 0-1.4441 1.1468-2.5908 2.5908-2.5908h142.9629c1.401 0 2.59 1.1467 2.59 2.5908s-1.146 2.5908-2.59 2.5908z"/><path d="m53.7933 220.838c0 1.869 1.529 3.44 3.4403 3.44h142.9204c1.868 0 3.44-1.529 3.44-3.44 0-1.912-1.529-3.441-3.44-3.441h-142.9629c-1.8688 0-3.3978 1.529-3.3978 3.441zm146.3607-2.591c1.401 0 2.59 1.147 2.59 2.591s-1.146 2.591-2.59 2.591h-142.9629c-1.4016 0-2.5908-1.147-2.5908-2.591s1.1468-2.591 2.5908-2.591z"/><path d="m39.1403 199.517v-142.963c0-1.8687-1.529-3.4402-3.4403-3.4402-1.9112 0-3.4402 1.529-3.4402 3.4402l-.0001 142.963c0 1.868 1.5291 3.44 3.4403 3.44 1.9113 0 3.4403-1.572 3.4403-3.44zm-5.9886 0v-142.963c0-1.4016 1.1467-2.5908 2.5908-2.5908s2.5908 1.1468 2.5908 2.5908v142.963c0 1.401-1.1467 2.59-2.5908 2.59s-2.5908-1.189-2.5908-2.59z"/><path d="m150.036 16.3751c0 4.7144 3.823 8.5369 8.537 8.5369s8.537-3.8225 8.537-8.5369c0-4.7145-3.823-8.53703-8.537-8.53703s-8.537 3.82253-8.537 8.53703zm16.225 0c0 4.2472-3.441 7.6875-7.688 7.6875s-7.687-3.4403-7.687-7.6875c0-4.2473 3.44-7.68759 7.687-7.68759s7.688 3.44029 7.688 7.68759z"/><path d="m119.966 15.4831c0 4.7145 3.822 8.537 8.536 8.537 4.715 0 8.537-3.8225 8.537-8.537 0-4.7144-3.822-8.53696-8.537-8.53696-4.714 0-8.536 3.82256-8.536 8.53696zm16.266 0c0 4.2473-3.44 7.6875-7.687 7.6875s-7.688-3.4402-7.688-7.6875c0-4.2472 3.441-7.68752 7.688-7.68752s7.687 3.44032 7.687 7.68752z"/><path d="m89.9374 16.3751c0 4.7144 3.8226 8.5369 8.537 8.5369 4.7146 0 8.5366-3.8225 8.5366-8.5369 0-4.7145-3.822-8.53703-8.5366-8.53703-4.7144 0-8.537 3.82253-8.537 8.53703zm16.2666 0c0 4.2472-3.44 7.6875-7.6871 7.6875-4.2473 0-7.6875-3.4403-7.6875-7.6875 0-4.2473 3.4402-7.68759 7.6875-7.68759 4.2051 0 7.6871 3.44029 7.6871 7.68759z"/><path d="m76.9833 17.182c0-4.7144-3.8225-8.53695-8.5369-8.53695-4.7145 0-8.537 3.82255-8.537 8.53695 0 4.7145 3.8225 8.537 8.537 8.537 4.7144 0 8.5369-3.8225 8.5369-8.537zm-16.2245 0c0-4.2472 3.4403-7.68748 7.6876-7.68748 4.2472 0 7.6875 3.44028 7.6875 7.68748 0 4.2473-3.4403 7.6876-7.6875 7.6876-4.2473 0-7.6876-3.4403-7.6876-7.6876z"/><path d="m180.064 17.182c0 4.7145 3.823 8.537 8.537 8.537 4.715 0 8.537-3.8225 8.537-8.537 0-4.7144-3.822-8.53695-8.537-8.53695-4.714 0-8.537 3.82255-8.537 8.53695zm16.225 0c0 4.2473-3.441 7.6876-7.688 7.6876s-7.687-3.4403-7.687-7.6876c0-4.2472 3.44-7.6875 7.687-7.6875s7.688 3.4403 7.688 7.6875z"/><path d="m184.651 17.182c0 2.1662 1.784 3.95 3.95 3.95s3.95-1.7838 3.95-3.95c0-2.166-1.784-3.9499-3.95-3.9499s-3.95 1.7839-3.95 3.9499zm7.051 0c0 1.6989-1.402 3.1005-3.101 3.1005s-3.1-1.4016-3.1-3.1005 1.401-3.1004 3.1-3.1004c1.699-.0001 3.101 1.4015 3.101 3.1004z"/><path d="m167.11 239.696c0-4.715-3.823-8.537-8.537-8.537s-8.537 3.822-8.537 8.537c0 4.714 3.823 8.537 8.537 8.537s8.537-3.823 8.537-8.537zm-16.225 0c0-4.248 3.441-7.688 7.688-7.688s7.688 3.44 7.688 7.688c0 4.247-3.441 7.687-7.688 7.687s-7.688-3.44-7.688-7.687z"/><path d="m137.082 240.587c0-4.714-3.823-8.536-8.537-8.536s-8.537 3.822-8.537 8.536c0 4.715 3.823 8.537 8.537 8.537s8.537-3.822 8.537-8.537zm-16.267 0c0-4.247 3.44-7.687 7.687-7.687 4.248 0 7.688 3.44 7.688 7.687 0 4.248-3.44 7.688-7.688 7.688-4.204 0-7.687-3.44-7.687-7.688z"/><path d="m107.054 239.696c0-4.715-3.823-8.537-8.5371-8.537-4.7145 0-8.537 3.822-8.537 8.537 0 4.714 3.8225 8.537 8.537 8.537 4.7141 0 8.5371-3.823 8.5371-8.537zm-16.2671 0c0-4.248 3.4403-7.688 7.6875-7.688 4.2476 0 7.6876 3.44 7.6876 7.688 0 4.247-3.44 7.687-7.6876 7.687-4.2472 0-7.6875-3.44-7.6875-7.687z"/><path d="m76.9833 238.889c0-4.715-3.8225-8.537-8.537-8.537-4.7144 0-8.5369 3.822-8.5369 8.537 0 4.714 3.8225 8.537 8.5369 8.537 4.7145 0 8.537-3.823 8.537-8.537zm-16.2245 0c0-4.248 3.4403-7.688 7.6875-7.688 4.2473 0 7.6876 3.44 7.6876 7.688 0 4.247-3.4403 7.687-7.6876 7.687-4.2472 0-7.6875-3.44-7.6875-7.687z"/><path d="m180.064 238.889c0 4.714 3.823 8.537 8.537 8.537 4.715 0 8.537-3.823 8.537-8.537 0-4.715-3.822-8.537-8.537-8.537-4.714 0-8.537 3.822-8.537 8.537zm16.225 0c0 4.247-3.441 7.687-7.688 7.687s-7.687-3.44-7.687-7.687c0-4.248 3.44-7.688 7.687-7.688s7.688 3.44 7.688 7.688z"/><path d="m184.651 238.889c0 2.166 1.784 3.95 3.95 3.95s3.95-1.784 3.95-3.95c0-2.167-1.784-3.95-3.95-3.95s-3.95 1.741-3.95 3.95zm7.051 0c0 1.698-1.402 3.1-3.101 3.1s-3.1-1.402-3.1-3.1c0-1.699 1.401-3.101 3.1-3.101s3.101 1.359 3.101 3.101z"/><path d="m25.2942 158.191c0-4.715-3.8225-8.537-8.5369-8.537-4.7145 0-8.53698 3.822-8.53698 8.537 0 4.714 3.82248 8.537 8.53698 8.537 4.7144 0 8.5369-3.823 8.5369-8.537zm-16.26692 0c0-4.247 3.44032-7.688 7.68752-7.688 4.2473 0 7.6875 3.441 7.6875 7.688s-3.4402 7.687-7.6875 7.687c-4.2472 0-7.68752-3.44-7.68752-7.687z"/><path d="m24.4024 128.035c0-4.714-3.8226-8.537-8.537-8.537-4.7145 0-8.53701 3.823-8.53701 8.537 0 4.715 3.82251 8.537 8.53701 8.537 4.7144 0 8.537-3.822 8.537-8.537zm-16.26702 0c0-4.247 3.44022-7.687 7.68752-7.687s7.6875 3.44 7.6875 7.687c0 4.248-3.4403 7.688-7.6875 7.688-4.2473 0-7.68752-3.44-7.68752-7.688z"/><path d="m25.2942 97.8798c0-4.7144-3.8225-8.537-8.5369-8.537-4.7145 0-8.53698 3.8226-8.53698 8.537 0 4.7142 3.82248 8.5372 8.53698 8.5372 4.7144 0 8.5369-3.823 8.5369-8.5372zm-16.26692 0c0-4.2472 3.44032-7.6875 7.68752-7.6875 4.2473 0 7.6875 3.4403 7.6875 7.6875s-3.4402 7.6872-7.6875 7.6872c-4.2472 0-7.68752-3.44-7.68752-7.6872z"/><path d="m25.7615 67.7243c0-4.7144-3.8226-8.5369-8.537-8.5369-4.7145-.0001-8.537 3.8225-8.537 8.5369 0 4.7145 3.8225 8.537 8.537 8.537 4.7144 0 8.537-3.8225 8.537-8.537zm-16.22455 0c0-4.2472 3.44025-7.6875 7.68755-7.6875 4.2472 0 7.6875 3.4403 7.6875 7.6875 0 4.2473-3.4403 7.6875-7.6875 7.6875-4.2473 0-7.68755-3.4402-7.68755-7.6875z"/><path d="m21.1744 67.7243c0-2.1661-1.7838-3.9499-3.9499-3.9499s-3.95 1.7838-3.95 3.9499 1.7839 3.9499 3.95 3.9499 3.9499-1.7838 3.9499-3.9499zm-7.0504 0c0-1.6989 1.4016-3.1005 3.1005-3.1005s3.1005 1.4016 3.1005 3.1005-1.4016 3.1005-3.1005 3.1005-3.1005-1.4016-3.1005-3.1005z"/><path d="m25.7615 188.346c0-4.714-3.8226-8.537-8.537-8.537-4.7145 0-8.53698 3.823-8.53698 8.537 0 4.715 3.82248 8.537 8.53698 8.537 4.7144 0 8.537-3.822 8.537-8.537zm-16.22453 0c0-4.247 3.44023-7.687 7.68753-7.687 4.2472 0 7.6875 3.44 7.6875 7.687 0 4.248-3.4403 7.688-7.6875 7.688-4.2473 0-7.68753-3.44-7.68753-7.688z"/><path d="m21.1744 188.346c0-2.166-1.7838-3.95-3.9499-3.95s-3.95 1.784-3.95 3.95 1.7839 3.95 3.95 3.95 3.9499-1.784 3.9499-3.95zm-7.0504 0c0-1.699 1.4016-3.1 3.1005-3.1s3.1005 1.401 3.1005 3.1-1.4016 3.101-3.1005 3.101-3.1005-1.402-3.1005-3.101z"/><path d="m57.446 122.981h-11.0429v.043c-2.5484.254-4.587 2.42-4.587 5.054 0 2.633 2.0387 4.799 4.587 5.054v.042h11.0429c1.9112 3.611 5.6063 5.862 9.7262 5.862 6.0311 0 10.9579-4.927 10.9579-10.958s-4.9268-10.958-10.9579-10.958c-4.1623-.043-7.815 2.208-9.7262 5.861zm19.7922 5.054c0 5.564-4.5446 10.109-10.1085 10.109-3.865 0-7.3478-2.166-9.0467-5.649l-.1274-.255h-11.1702c-2.2935-.042-4.1623-1.911-4.1623-4.247s1.8687-4.205 4.1623-4.247h11.1702l.1274-.255c1.6989-3.483 5.1817-5.649 9.0467-5.649 5.5639.085 10.1085 4.629 10.1085 10.193z"/><path d="m83.5666 128.035c0 4.715 3.8225 8.537 8.5369 8.537 4.7145 0 8.5375-3.822 8.5375-8.537 0-4.714-3.823-8.537-8.5375-8.537-4.7144 0-8.5369 3.823-8.5369 8.537zm16.2245 0c0 4.248-3.4403 7.688-7.6876 7.688-4.2472 0-7.6875-3.44-7.6875-7.688 0-4.247 3.4403-7.687 7.6875-7.687 4.2473 0 7.6876 3.44 7.6876 7.687z"/><path d="m88.1536 128.035c0 2.166 1.7838 3.95 3.9499 3.95s3.95-1.784 3.95-3.95-1.7839-3.95-3.95-3.95-3.9499 1.784-3.9499 3.95zm7.0504 0c0 1.699-1.4016 3.101-3.1005 3.101s-3.1005-1.402-3.1005-3.101 1.4016-3.1 3.1005-3.1 3.1005 1.401 3.1005 3.1z"/><path d="m56.8513 176.242c0 13.081 10.6606 23.742 23.7422 23.742h23.1475c13.082 0 23.742-10.661 23.742-23.742 0-13.082-10.66-23.743-23.742-23.743h-23.1475c-13.0815 0-23.7422 10.661-23.7422 23.743zm46.8897-22.893c12.614 0 22.893 10.278 22.893 22.893 0 12.614-10.279 22.892-22.893 22.892h-23.1475c-12.6144 0-22.8927-10.278-22.8927-22.892 0-12.615 10.2783-22.893 22.8927-22.893z"/><path d="m60.419 176.242c0 10.83 8.7919 19.622 19.6223 19.622h24.2097c10.83 0 19.622-8.792 19.622-19.622 0-10.831-8.792-19.623-19.622-19.623h-24.2097c-10.788-.042-19.6223 8.792-19.6223 19.623zm43.832-18.816c10.363 0 18.773 8.41 18.773 18.773s-8.41 18.773-18.773 18.773h-24.2097c-10.3633 0-18.7728-8.41-18.7728-18.773s8.4096-18.773 18.7728-18.773z"/><path d="m104.293 171.187c-2.761 0-5.0116 2.251-5.0116 5.012s2.2506 5.012 5.0116 5.012 5.012-2.251 5.012-5.012c.042-2.761-2.209-5.012-5.012-5.012zm0 9.217c-2.293 0-4.162-1.869-4.162-4.162 0-2.294 1.869-4.163 4.162-4.163 2.294 0 4.162 1.869 4.162 4.163 0 2.293-1.826 4.162-4.162 4.162z"/><path d="m80.1687 179.172c1.614 0 2.8882-1.316 2.8882-2.888 0-1.571-1.3167-2.888-2.8882-2.888-1.6139 0-2.8881 1.317-2.8881 2.888 0 1.572 1.3167 2.888 2.8881 2.888zm-2.0386-2.888c0-1.104.9344-2.039 2.0386-2.039 1.1043 0 2.0387.935 2.0387 2.039s-.9344 2.039-2.0387 2.039c-1.1042 0-2.0386-.935-2.0386-2.039z"/><path d="m93.8449 176.242c0 3.397 1.614 6.498 4.2897 8.452l-3.6101-.468c-.2124-.042-.4247.128-.4672.383v.042c0 .213.1699.382.3822.425l5.479.679c.1275 0 .2545-.042.3395-.127s.128-.212.128-.34l-.6799-5.479c-.0425-.212-.2548-.382-.4672-.382-.2123.043-.3822.255-.3822.467l.5946 4.63c-2.9306-1.742-4.7569-4.842-4.7569-8.282 0-5.309 4.3322-9.642 9.6416-9.642.424 0 .807.043 1.274.085.212.043.425-.127.467-.382.042-.212-.127-.467-.382-.467-.467-.043-.935-.085-1.359-.085-5.8191 0-10.4911 4.714-10.4911 10.491z"/><path d="m108.625 167.025v.043l.68 5.479c.042.212.255.382.467.382.212-.043.382-.255.382-.467l-.509-4.248c2.675 1.784 4.289 4.757 4.289 8.028 0 5.309-4.332 9.641-9.641 9.641-.085 0-.127 0-.212 0h-.085c-.255 0-.425.17-.425.425 0 .212.17.424.425.424h.085.255c5.776 0 10.49-4.714 10.49-10.49 0-3.483-1.699-6.669-4.544-8.622l4.247.509c.212.043.425-.127.467-.382.043-.212-.127-.425-.382-.467l-5.479-.68c-.127 0-.255.043-.34.128-.127.085-.17.17-.17.297z"/><path d="m89.9374 175.987c0 .255 0 .467-.1274.679-.0849.213-.2123.383-.4247.552l1.1043-.084c.1274-.213.2123-.425.2548-.638.0425-.212.0425-.467.0425-.722-.0425-.339-.085-.594-.2124-.849s-.2973-.467-.5096-.68c-.2124-.169-.4672-.339-.7646-.424-.2973-.085-.5946-.128-.8919-.085-.3397.042-.6371.085-.8919.212-.2548.128-.5097.297-.6796.51-.1698.212-.3397.467-.4247.722-.0849.255-.1274.552-.0849.892 0 .255.0849.467.1274.679.0425.213.1699.425.3398.595l1.1043-.085c-.2124-.127-.3823-.297-.5097-.51-.1274-.212-.1699-.424-.2124-.679-.0424-.383.085-.722.2973-.977.2124-.255.5522-.382.9769-.425.4247-.042.7645.043 1.0193.297.2974.34.4672.638.4672 1.02z"/><path d="m85.4778 179.427 1.7414.892 1.2317 2.718.5097-.977-.892-1.826 1.9963-.297.5521-1.02-2.9731.553-1.6989-.892z"/><path d="m84.1612 185.67c.2123 0 .4672-.042.6795-.084.2124-.043.4248-.17.6371-.298.2973-.17.5097-.382.6796-.594.1699-.213.2973-.468.3398-.765.0424-.297.0424-.552 0-.849-.0425-.298-.1699-.552-.3398-.85-.1699-.297-.3823-.509-.5946-.679-.2124-.17-.4672-.298-.7645-.383s-.5522-.085-.8495-.042c-.2973.042-.5521.17-.8494.34-.2124.127-.3823.297-.5522.467s-.2973.34-.3822.552l.5946.934c.0425-.254.0849-.467.2123-.679.1275-.212.2974-.34.5097-.467.3398-.213.6796-.255 1.0194-.17.3397.085.5946.297.8494.679.2124.34.2973.722.2549 1.062-.085.34-.2549.595-.5947.807-.2123.128-.4247.213-.6371.213-.2123 0-.4672 0-.722-.128z"/><path d="m82.3773 186.477-.3397-4.289-3.143.255v-.043l-3.2279-1.741-.4247.722 2.3784 1.316-.4672.85-2.2086-1.232-.3822.722 2.2086 1.189-.3823.722-2.3785-1.274-.3822.722 3.2279 1.784 1.8263-3.398.0425.51 2.3785-.17.2548 3.398z"/><path d="m74.5624 178.493-1.5715.467-.2548-.892c-.1699-.51-.3823-.892-.6796-1.104-.2973-.213-.6796-.255-1.0618-.128-.3823.128-.6796.34-.807.68s-.1274.722.0425 1.231l.5521 1.912 4.1199-1.232zm-3.5677.467c-.1274-.425-.1699-.68-.1274-.85.0424-.17.1699-.254.3822-.339.2124-.043.3823-.043.5097.085.1274.127.2548.382.3822.764l.1699.51-1.1467.339z"/><path d="m74.0527 175.392c.1699-.212.2973-.467.3823-.764.0849-.298.0849-.595.0849-.85s-.1274-.509-.2973-.764-.3398-.425-.5946-.595-.5097-.297-.807-.382-.6371-.128-.8919-.085c-.2973.042-.5522.085-.807.255-.2548.127-.4247.297-.5946.509-.1699.213-.2973.468-.3822.765-.085.297-.085.595-.085.849.0425.255.1274.51.2548.765.1699.255.3398.425.5946.594.2549.17.5097.298.8495.383.2973.085.6371.127.8919.085.2973-.043.5522-.085.807-.213.2548-.17.4247-.339.5946-.552zm-2.0387-.34c-.4247-.127-.722-.297-.8919-.552s-.2548-.509-.1699-.849c.085-.297.2549-.51.5522-.637.2973-.128.6371-.128 1.0618 0 .3822.127.6795.297.8919.552.1699.255.2548.51.1699.849-.085.298-.2548.51-.5522.637-.2973.128-.6795.128-1.0618 0z"/><path d="m75.879 171.824-1.0618-2.42c-.0424-.128-.1274-.213-.1699-.34-.0849-.128-.1274-.213-.2123-.34.0849.085.1699.17.2973.297.0849.085.2123.17.2973.255l2.0811 1.614.7645-.595-1.7413-4.077-.7221.552 1.0194 2.294c.0849.17.1274.297.2123.424.085.128.1275.213.2124.34-.0849-.085-.1699-.17-.2548-.255-.085-.085-.2124-.169-.2973-.254l-2.0387-1.572-.7221.595 1.0619 2.378c.0424.085.0849.213.1698.34.085.127.1275.212.2124.34-.0849-.085-.1699-.213-.2973-.298-.0849-.085-.2124-.212-.3398-.297l-1.9537-1.529-.7221.552 3.5677 2.634z"/><path d="m82.2074 165.751h-3.6951v4.29h3.6951v-.85h-2.7182l.0425-.977h2.5059v-.764h-2.5059v-.85h2.6757z"/><path d="m86.1999 170.211c.2973-.043.5521-.213.7645-.51.2548-.34.2973-.68.1699-1.02-.1275-.339-.4248-.679-.892-.976l-1.529-1.062-2.4209 3.525.807.552.9768-1.401.1699.085.3398 2.336 1.0618.722-.4247-2.421c.3398.127.6795.212.9769.17zm-1.2742-1.232-.4248-.298.6371-.934.4248.297c.3397.255.5946.425.6371.595.0849.17.0424.297-.085.51-.1274.17-.2548.255-.4247.255-.1699-.043-.4247-.17-.7645-.425z"/><path d="m194.462 203.934c.17.042.34.127.51.17.17.042.382.085.595.127-.128 0-.298.042-.468.085-.169.042-.382.127-.637.212l-3.907 1.402v1.529l.127-.043v2.464l3.186.594.085-.169c-.085-.128-.128-.298-.17-.425-.043-.128-.043-.297-.043-.425 0-.34.085-.637.298-.849.212-.213.424-.34.764-.34.297 0 .552.085.722.297.212.213.297.467.297.765 0 .255-.042.467-.169.679-.085.213-.255.383-.468.552l1.317.17c.127-.255.255-.552.34-.807s.127-.509.127-.807c0-.637-.212-1.146-.594-1.529-.425-.382-.935-.594-1.614-.594-.595 0-1.105.17-1.444.509-.34.34-.51.807-.51 1.402v.17.085l-1.019-.213v-1.783h-.468l5.564-2.251v-1.317l-6.243-2.548v1.444z"/><path d="m190.427 191.956c0 .468.085.892.213 1.275.17.382.382.722.679 1.019.298.297.68.51 1.062.68.212.084.382.127.595.169-.34.043-.637.17-.935.298-.467.255-.807.637-1.104 1.104-.127.255-.255.552-.297.892-.085.34-.085.807-.085 1.317v2.166h6.243v-1.954c0-.595-.042-1.104-.085-1.487-.085-.382-.17-.679-.339-.934-.298-.51-.68-.892-1.105-1.147-.255-.17-.594-.255-.934-.297.212-.043.425-.085.637-.17.382-.17.764-.382 1.062-.68.297-.297.509-.637.679-1.019s.213-.807.213-1.274c0-.382-.043-.722-.128-1.019-.085-.298-.212-.637-.424-.892h-1.572c.297.212.51.509.68.807.17.297.212.637.212.977 0 .594-.17 1.061-.552 1.401s-.85.51-1.487.51-1.104-.17-1.486-.51-.552-.807-.552-1.401c0-.34.085-.68.212-.977.17-.298.382-.552.68-.807h-1.572c-.17.297-.34.594-.425.934-.042.297-.085.637-.085 1.019zm4.248 4.757c.297.128.509.34.679.637.085.128.128.298.17.553.043.212.043.509.043.849v.722h-3.78v-.849c0-.68.169-1.232.467-1.572.297-.34.764-.51 1.401-.51.383-.042.722.043 1.02.17z"/><path d="m191.702 151.777 1.826-1.826v12.36l-2.973-1.699v-1.954c.764-.085 1.316-.722 1.316-1.529 0-.849-.679-1.529-1.529-1.529-.849 0-1.529.68-1.529 1.529 0 .764.595 1.402 1.317 1.529v2.166l3.398 1.954v1.996c-1.147.127-1.996 1.062-1.996 2.209 0 1.231 1.019 2.208 2.208 2.208s2.209-1.019 2.209-2.208c0-1.147-.892-2.082-1.996-2.209v-3.695l3.355-1.954v-2.421h1.614v-3.44h-3.44v3.44h1.359v2.166l-2.931 1.699v-10.703l1.826 1.826.298-.297-2.336-2.336-2.336 2.336zm-2.506 5.394c0-.594.509-1.104 1.104-1.104s1.104.51 1.104 1.104c0 .595-.509 1.105-1.104 1.105s-1.104-.467-1.104-1.105zm6.71-.807v-2.59h2.591v2.59zm-.382 10.661c0 .977-.807 1.784-1.784 1.784s-1.784-.807-1.784-1.784.807-1.784 1.784-1.784 1.784.807 1.784 1.784z"/><path d="m193.868 107.266v6.159h-1.572v-4.63h-5.776v9.472h5.776v-4.418h1.572v5.989h1.953v4.545h5.777v-9.472h-5.777v4.545h-1.529v-11.723h1.529v4.545h5.777v-9.471h-5.777v4.544h-1.953zm-6.923 10.576v-8.622h4.926v8.622zm14.228-2.548v8.621h-4.927v-8.621zm0-12.148v8.622h-4.927v-8.622z"/></g><g fill="#000"><path d="m89.3002 100.815v2.185c-.2697 0-.4494 0-.7191 0-4.0445 0-7.2801-3.278-7.2801-7.3756s3.2356-7.3756 7.2801-7.3756h.7191v2.1853c-.2697 0-.4494-.091-.7191-.091-2.8761 0-5.123 2.3675-5.123 5.1902 0 2.9139 2.3368 5.1907 5.123 5.1907.2697.091.5393.091.7191.091z"/><path d="m96.1309 94.5317h4.2241v2.2764h-4.2241c.5392 2.3675 2.6064 4.0979 5.0331 4.0979.27 0 .449 0 .719-.091v2.185c-.27 0-.449 0-.719 0-4.0445 0-7.2801-3.278-7.2801-7.3756s3.2356-7.3756 7.2801-7.3756h.719v2.1853c-.27 0-.449-.091-.719-.091-2.5166.091-4.5838 1.8211-5.0331 4.1886z"/><path d="m114.736 89.4325h-.899v.0911h.899zm-2.427.4553c-.09.0911-.27.1821-.27.2732h.27zm4.404 1.2748-.36.3642v.1821h.36zm-2.876 2.6407-1.618-1.8212.27 3.187zm.269 0 1.618 1.73.36-3.5512v-.091zm-1.977-2.0944 1.888 2.0033 1.078-1.0927h-1.528v-.6374h1.798v.3642l.719-.7284v-.6374h.09v-.4553h-4.225zm4.494 5.0992v.1821c0 .4553-.359.8196-.809.8196-.359 0-.629-.1822-.719-.4553h-2.067v.4553h-.539v-.4553c-.09 0-.09-.0911-.09-.0911l-.09-1.3658-2.876 3.0048-.18-.1821 3.056-3.0959-.36-3.8244-2.876-3.0959v-.3643l2.876 3.0049-.089-.9106h-.36v-.2731h.27s0 0 0-.0911c.09-.2732.359-.4553.539-.5463v-.1821h.539c.27-.0911.539-.0911.809-.0911v-.0911h1.438v.7285h-1.438v-.2732c-.27 0-.539.0911-.809.0911v.4553h3.416c-.09-.3643-.63-.4553-1.169-.5464v-.2731c.539.091 1.079.1821 1.348.5463.09-.0911.18-.1821.27-.1821.18 0 .359.1821.359.3642s-.179.3642-.359.3642c-.09 0-.09 0-.18 0v.4553h.09l2.606-2.6406v.3642l-2.246 2.2764h.089v1.0017h-.629l-.359 3.9154 2.606 2.8228-.269.1821zm-1.708.1821c0-.4552.36-.8195.719-.8195v-.2731l-1.707-1.8212-1.528 1.548.09 1.4569h2.336c.09-.0911.09-.0911.09-.0911zm.45 0c0 .2732.18.4553.449.4553.27 0 .45-.1821.45-.4553 0-.2731-.18-.4552-.45-.4552-.269 0-.449.1821-.449.4552zm.09 0c0-.1821.09-.2731.269-.2731.18 0 .27.091.27.2731 0 .1822-.09.2732-.27.2732-.179 0-.269-.1821-.269-.2732zm-5.663 3.9158h8.449v2.094h-8.449z"/></g><path d="m117.702 61.0228h-55.9943c-.8988 0-1.528-.7285-1.528-1.548v-10.7447c0-.9106.7191-1.548 1.528-1.548h55.9043c.898 0 1.528.7285 1.528 1.548v10.6537c.089.9105-.63 1.639-1.438 1.639z" stroke="#122d45" stroke-miterlimit="10" stroke-width=".4323"/><g fill="#000"><path d="m70.0663 56.652h-.719l-.5393-2.0033h-1.7975l-.7191 2.0033h-.6291l1.7975-5.6455h.8089zm-1.438-2.5496-.7191-2.3675-.8089 2.3675z"/><path d="m74.2906 56.652h-2.966v-.5463h1.2583v-4.3708l-1.0786.5464v-.6374l1.1685-.6374h.5392v5.0992h1.0786z"/><path d="m79.1439 56.652h-2.9659v-.5463h1.1684v-4.3708l-1.0785.5464v-.6374l1.1684-.6374h.5392v5.0992h1.0786v.5463z"/><path d="m83.9075 56.652h-3.0559v-.4553c.8089-.9106 1.2583-1.4569 1.5279-1.7301.2697-.2731.4494-.6374.5393-.9105.1798-.3643.1798-.6374.1798-1.0017 0-.2731-.0899-.5463-.2697-.7284-.1797-.1821-.4494-.2732-.8089-.2732-.2696 0-.6291.0911-1.0785.2732l-.0899-.5464c.3595-.1821.8089-.2731 1.2583-.2731.5393 0 .8988.1821 1.1684.4553.2697.2731.4494.6374.4494 1.1837 0 .3642-.0899.6374-.2696 1.0016-.1798.3642-.3595.6374-.6292 1.0016-.2696.2732-.719.8196-1.438 1.6391h2.3368v.3642z"/><path d="m88.7609 56.652h-2.8761v-5.6455h2.8761v.5463h-2.2469v1.8211h2.157v.5464h-2.157v2.1854h2.2469z"/><path d="m92.0864 50.9154c.6291 0 1.0785.2732 1.3481.7285.3596.5463.4494 1.2748.4494 2.1853 0 .9106-.1797 1.6391-.4494 2.0943-.2696.5464-.8089.8195-1.3481.8195-.6292 0-1.0786-.2731-1.3482-.7284s-.4494-1.2748-.4494-2.1854c0-.9105.1798-1.639.4494-2.1853.2696-.5464.8089-.7285 1.3482-.7285zm0 5.2813c.3595 0 .719-.1821.8988-.5463.1797-.3643.2696-1.0017.2696-1.8212s-.0899-1.4569-.2696-1.8211c-.1798-.3642-.4494-.5464-.8988-.5464-.3595 0-.6292.1822-.8988.5464s-.2696 1.0016-.2696 1.8211.0898 1.3659.2696 1.8212c.2696.3642.5393.5463.8988.5463zm0-3.0049c.1797 0 .2696.0911.4494.1821.0898.0911.1797.2732.1797.4553s-.0899.3643-.1797.4553c-.0899.0911-.2697.1821-.4494.1821-.1798 0-.2697-.091-.4494-.1821-.0899-.091-.1798-.2732-.1798-.4553s.0899-.2731.1798-.4553c.0899-.1821.2696-.1821.4494-.1821z"/><path d="m98.0183 53.9203c-.3595.2732-.719.4553-1.1684.4553s-.8988-.1821-1.1684-.4553c-.3595-.2732-.4494-.7285-.4494-1.1838 0-.5463.1798-.9105.4494-1.2748.2696-.3642.719-.5463 1.1684-.5463.5393 0 1.0785.2732 1.3482.8195.2696.5464.4494 1.1838.4494 2.0943 0 .8195-.1798 1.548-.5393 2.0943-.3595.5464-.8988.9106-1.5279.9106-.4494 0-.8089-.0911-1.0786-.1821l.0899-.5464c.3595.0911.719.1822.9887.1822.4494 0 .8089-.1822 1.0785-.6374.2696-.5464.3595-1.0927.3595-1.7301zm0-.5464c0-.5463-.0899-.9105-.2696-1.3658-.1798-.4553-.4494-.5464-.8089-.5464-.2696 0-.5393.0911-.719.3643-.1798.1821-.2697.5463-.2697.9105 0 .3643.0899.6374.2697.8196.1797.1821.4494.2731.719.2731.3595 0 .719-.1821 1.0785-.4553z"/><path d="m101.793 50.9154c.629 0 1.079.2732 1.348.7285.36.5463.45 1.2748.45 2.1853 0 .9106-.18 1.6391-.45 2.0943-.269.5464-.809.8195-1.348.8195-.629 0-1.078-.2731-1.348-.7284s-.4494-1.2748-.4494-2.1854c0-.9105.1794-1.639.4494-2.1853.27-.5464.809-.7285 1.348-.7285zm0 5.2813c.36 0 .719-.1821.899-.5463.18-.3643.27-1.0017.27-1.8212s-.09-1.4569-.27-1.8211-.449-.5464-.899-.5464c-.359 0-.629.1822-.899.5464-.269.3642-.269 1.0016-.269 1.8211s.09 1.3659.269 1.8212c.27.3642.54.5463.899.5463zm0-3.0049c.18 0 .27.0911.45.1821.089.0911.179.2732.179.4553s-.09.3643-.179.4553c-.09.0911-.27.1821-.45.1821s-.269-.091-.449-.1821c-.09-.091-.18-.2732-.18-.4553s.09-.2731.18-.4553c.09-.1821.269-.1821.449-.1821z"/><path d="m106.647 50.9154c.629 0 1.078.2732 1.348.7285.359.5463.539 1.2748.539 2.1853 0 .9106-.18 1.6391-.449 2.0943-.27.5464-.809.8195-1.349.8195-.629 0-1.078-.2731-1.348-.7284-.269-.4553-.449-1.2748-.449-2.1854 0-.9105.18-1.639.449-2.1853.27-.5464.719-.7285 1.259-.7285zm0 5.2813c.359 0 .719-.1821.898-.5463.18-.3643.27-1.0017.27-1.8212s-.09-1.4569-.27-1.8211c-.179-.3642-.449-.5464-.898-.5464-.36 0-.63.1822-.899.5464-.27.3642-.27 1.0016-.27 1.8211s.09 1.3659.27 1.8212c.269.3642.539.5463.899.5463zm0-3.0049c.179 0 .269.0911.449.1821.09.0911.18.2732.18.4553s-.09.3643-.18.4553c-.09.0911-.27.1821-.449.1821-.18 0-.27-.091-.45-.1821-.09-.091-.18-.2732-.18-.4553s.09-.2731.18-.4553c.09-.1821.27-.1821.45-.1821z"/><path d="m111.5 50.9154c.629 0 1.079.2732 1.348.7285.36.5463.45 1.2748.45 2.1853 0 .9106-.18 1.6391-.45 2.0943-.269.5464-.809.8195-1.348.8195-.629 0-1.079-.2731-1.348-.7284-.27-.4553-.45-1.2748-.45-2.1854 0-.9105.18-1.639.45-2.1853.269-.5464.809-.7285 1.348-.7285zm0 5.2813c.36 0 .719-.1821.899-.5463.18-.3643.269-1.0017.269-1.8212s-.089-1.4569-.269-1.8211-.45-.5464-.899-.5464c-.36 0-.629.1822-.899.5464-.269.3642-.269 1.0016-.269 1.8211s.089 1.3659.269 1.8212c.27.3642.539.5463.899.5463zm0-3.0049c.18 0 .27.0911.449.1821.09.1822.18.2732.18.4553s-.09.3643-.18.4553c-.089.0911-.269.1821-.449.1821s-.27-.091-.449-.1821c-.09-.091-.18-.2732-.18-.4553s.09-.2731.18-.4553c.089-.1821.269-.1821.449-.1821z"/><path d="m127.139 85.8829c.629 0 1.078.2732 1.348.7285.359.5463.449 1.2748.449 2.1854 0 .9105-.179 1.639-.449 2.0943-.27.5463-.809.8195-1.348.8195-.629 0-1.079-.2732-1.348-.7285-.27-.4553-.45-1.2748-.45-2.1853 0-.9106.18-1.6391.45-2.1854.269-.4553.808-.7285 1.348-.7285zm0 5.2813c.359 0 .719-.1821.899-.5463.179-.3642.269-1.0016.269-1.8211 0-.8196-.09-1.457-.269-1.8212-.18-.3642-.45-.5463-.899-.5463-.36 0-.629.1821-.899.5463s-.27 1.0016-.27 1.8212c0 .8195.09 1.3658.27 1.8211.27.3642.539.5463.899.5463zm0-2.9138c.179 0 .269.0911.449.1821.09.0911.18.2732.18.4553s-.09.3642-.18.4553-.27.1821-.449.1821c-.18 0-.27-.091-.45-.1821-.09-.0911-.179-.2732-.179-.4553s.089-.2732.179-.4553c.18-.1821.27-.1821.45-.1821z"/><path d="m131.992 85.8829c.629 0 1.079.2732 1.348.7285.36.5463.45 1.2748.45 2.1854 0 .9105-.18 1.639-.45 2.0943-.269.5463-.809.8195-1.348.8195-.629 0-1.078-.2732-1.348-.7285s-.449-1.2748-.449-2.1853c0-.9106.179-1.6391.449-2.1854.359-.4553.809-.7285 1.348-.7285zm0 5.2813c.36 0 .719-.1821.899-.5463s.27-1.0016.27-1.8211c0-.8196-.09-1.457-.27-1.8212s-.449-.5463-.899-.5463c-.359 0-.629.1821-.899.5463-.269.3642-.269 1.0016-.269 1.8212 0 .8195.09 1.3658.269 1.8211.27.3642.54.5463.899.5463zm0-2.9138c.18 0 .27.0911.45.1821.089.0911.179.2732.179.4553s-.09.3642-.179.4553c-.09.0911-.27.1821-.45.1821s-.269-.091-.449-.1821c-.09-.0911-.18-.2732-.18-.4553s.09-.2732.18-.4553c.18-.1821.269-.1821.449-.1821z"/><path d="m136.846 85.8829c.629 0 1.078.2732 1.348.7285.359.5463.449 1.2748.449 2.1854 0 .9105-.18 1.639-.449 2.0943-.27.5463-.809.8195-1.348.8195-.63 0-1.079-.2732-1.349-.7285-.269-.4553-.449-1.2748-.449-2.1853 0-.9106.18-1.6391.449-2.1854.36-.4553.809-.7285 1.349-.7285zm0 5.2813c.359 0 .719-.1821.898-.5463.18-.3642.27-1.0016.27-1.8211 0-.8196-.09-1.457-.27-1.8212-.179-.3642-.449-.5463-.898-.5463-.36 0-.63.1821-.899.5463-.27.3642-.27 1.0016-.27 1.8212 0 .8195.09 1.3658.27 1.8211.269.3642.539.5463.899.5463zm0-2.9138c.179 0 .269.0911.449.1821.09.0911.18.2732.18.4553s-.09.3642-.18.4553-.27.1821-.449.1821c-.18 0-.27-.091-.45-.1821-.09-.0911-.18-.2732-.18-.4553s.09-.2732.18-.4553c.18-.1821.27-.1821.45-.1821z"/><path d="m141.699 85.8829c.629 0 1.078.2732 1.348.7285.36.5463.539 1.2748.539 2.1854 0 .9105-.179 1.639-.449 2.0943-.27.5463-.809.8195-1.348.8195-.629 0-1.079-.2732-1.348-.7285-.27-.4553-.54-1.2748-.54-2.1853 0-.9106.18-1.6391.45-2.1854.359-.4553.809-.7285 1.348-.7285zm0 5.2813c.359 0 .719-.1821.899-.5463.179-.3642.269-1.0016.269-1.8211 0-.8196-.09-1.457-.269-1.8212-.18-.3642-.45-.5463-.899-.5463-.36 0-.629.1821-.899.5463-.269.3642-.269 1.0016-.269 1.8212 0 .8195.089 1.3658.269 1.8211.27.3642.539.5463.899.5463zm0-2.9138c.18 0 .27.0911.449.1821.09.0911.18.2732.18.4553s-.09.3642-.18.4553-.269.1821-.449.1821-.27-.091-.449-.1821c-.09-.0911-.18-.2732-.18-.4553s.09-.2732.18-.4553c.179-.1821.269-.1821.449-.1821z"/><path d="m146.552 85.8829c.63 0 1.079.2732 1.349.7285.359.5463.449 1.2748.449 2.1854 0 .9105-.18 1.639-.449 2.0943-.27.5463-.809.8195-1.349.8195-.629 0-1.078-.2732-1.348-.7285-.269-.4553-.449-1.2748-.449-2.1853 0-.9106.18-1.6391.449-2.1854.36-.4553.809-.7285 1.348-.7285zm0 5.2813c.36 0 .719-.1821.899-.5463s.27-1.0016.27-1.8211c0-.8196-.09-1.457-.27-1.8212s-.449-.5463-.899-.5463c-.359 0-.629.1821-.898.5463-.27.3642-.27 1.0016-.27 1.8212 0 .8195.09 1.3658.27 1.8211.269.3642.539.5463.898.5463zm0-2.9138c.18 0 .27.0911.45.1821.09.0911.18.2732.18.4553s-.09.3642-.18.4553-.27.1821-.45.1821c-.179 0-.269-.091-.449-.1821-.09-.0911-.18-.2732-.18-.4553s.09-.2732.18-.4553c.18-.1821.27-.1821.449-.1821z"/><path d="m151.406 85.8829c.629 0 1.078.2732 1.348.7285.359.5463.449 1.2748.449 2.1854 0 .9105-.179 1.639-.449 2.0943-.27.5463-.809.8195-1.348.8195-.629 0-1.079-.2732-1.348-.7285-.27-.4553-.45-1.2748-.45-2.1853 0-.9106.18-1.6391.45-2.1854.359-.4553.809-.7285 1.348-.7285zm0 5.2813c.359 0 .719-.1821.899-.5463.179-.3642.269-1.0016.269-1.8211 0-.8196-.09-1.457-.269-1.8212-.18-.3642-.45-.5463-.899-.5463-.36 0-.629.1821-.899.5463s-.27 1.0016-.27 1.8212c0 .8195.09 1.3658.27 1.8211.27.3642.539.5463.899.5463zm0-2.9138c.18 0 .269.0911.449.1821.09.0911.18.2732.18.4553s-.09.3642-.18.4553-.269.1821-.449.1821-.27-.091-.45-.1821c-.089-.0911-.179-.2732-.179-.4553s.09-.2732.179-.4553c.18-.1821.27-.1821.45-.1821z"/><path d="m156.259 85.8829c.629 0 1.079.2732 1.348.7285.36.5463.45 1.2748.45 2.1854 0 .9105-.18 1.639-.45 2.0943-.269.5463-.809.8195-1.348.8195-.629 0-1.078-.2732-1.348-.7285s-.449-1.2748-.449-2.1853c0-.9106.179-1.6391.449-2.1854.359-.4553.809-.7285 1.348-.7285zm0 5.2813c.36 0 .719-.1821.899-.5463s.27-1.0016.27-1.8211c0-.8196-.09-1.457-.27-1.8212s-.45-.5463-.899-.5463c-.359 0-.629.1821-.899.5463-.269.3642-.269 1.0016-.269 1.8212 0 .8195.09 1.3658.269 1.8211.27.3642.54.5463.899.5463zm0-2.9138c.18 0 .27.0911.449.1821.09.0911.18.2732.18.4553s-.09.3642-.18.4553c-.089.0911-.269.1821-.449.1821s-.27-.091-.449-.1821c-.09-.0911-.18-.2732-.18-.4553s.09-.2732.18-.4553c.179-.1821.269-.1821.449-.1821z"/><path d="m161.113 85.8829c.629 0 1.078.2732 1.348.7285.359.5463.449 1.2748.449 2.1854 0 .9105-.18 1.639-.449 2.0943-.27.5463-.809.8195-1.348.8195-.63 0-1.079-.2732-1.349-.7285-.269-.4553-.449-1.2748-.449-2.1853 0-.9106.18-1.6391.449-2.1854.36-.4553.809-.7285 1.349-.7285zm0 5.2813c.359 0 .719-.1821.898-.5463.18-.3642.27-1.0016.27-1.8211 0-.8196-.09-1.457-.27-1.8212-.179-.3642-.449-.5463-.898-.5463-.36 0-.63.1821-.899.5463-.27.3642-.27 1.0016-.27 1.8212 0 .8195.09 1.3658.27 1.8211.269.3642.539.5463.899.5463zm0-2.9138c.179 0 .269.0911.449.1821.09.0911.18.2732.18.4553s-.09.3642-.18.4553-.27.1821-.449.1821c-.18 0-.27-.091-.45-.1821-.09-.0911-.18-.2732-.18-.4553s.09-.2732.18-.4553c.18-.1821.27-.1821.45-.1821z"/><path d="m126.15 98.5399c.36-.2732.719-.4553 1.169-.4553.449 0 .898.1821 1.168.4553.27.2731.449.7284.449 1.1837 0 .5464-.179 1.0014-.449 1.2744-.27.274-.629.547-1.079.547-.629 0-1.078-.273-1.438-.82-.359-.546-.539-1.2746-.539-2.003 0-.8195.18-1.548.539-2.1854.36-.5463.899-.8195 1.528-.8195.45 0 .809.0911 1.169.1821l-.09.5464c-.36-.0911-.719-.1822-.989-.1822-.449 0-.809.1822-.989.6374-.179.4553-.449 1.0017-.449 1.6391zm.09.5463c0 .4553.09.9106.359 1.2748.27.364.54.637.809.637.27 0 .54-.091.63-.364.089-.273.269-.546.269-.9104 0-.3642-.09-.6374-.269-.8195-.18-.1821-.45-.2732-.719-.2732-.45 0-.809.1821-1.079.4553z"/><path d="m133.61 101.454h-.629v-.638c-.09.182-.27.365-.539.547-.27.182-.45.182-.719.182-.45 0-.809-.182-1.079-.638-.27-.455-.449-1.0013-.449-1.6387s.179-1.0927.449-1.5479c.27-.3643.629-.6374 1.168-.6374.54 0 .899.1821 1.259.6374v-2.0033h.629v5.7369zm-.629-1.275v-1.7302c-.27-.4553-.629-.7284-1.079-.7284-.359 0-.629.1821-.809.4552-.179.2732-.269.7285-.269 1.1838s.09.9106.269 1.1836c.18.273.45.455.719.455.18 0 .27 0 .45-.091s.269-.182.449-.364.27-.273.27-.364z"/><path d="m138.553 95.8992-.18.5464c-.269-.0911-.539-.0911-.808-.0911-.18 0-.36.0911-.45.1821-.09.0911-.09.3642-.09.7285v.091h1.348v.5464h-1.348v3.6425h-.629v-3.6425h-1.078v-.5464h1.078v-.1821c0-.5463.09-.9106.27-1.0927s.449-.3642.899-.3642c.269 0 .629.0911.988.1821z"/><path d="m140.8 97.8114c.18-.1821.36-.3642.539-.4553.27-.091.45-.1821.719-.1821.45 0 .809.1821 1.079.5464.27.3642.36.9105.36 1.5479s-.18 1.1837-.45 1.6387c-.27.456-.629.638-1.168.638-.27 0-.45-.091-.719-.182-.18-.091-.36-.274-.54-.547v.638h-.629v-5.6458h.629v2.0032zm0 .6374v1.7302c.09.273.27.455.45.546.179.091.359.273.629.273.359 0 .629-.182.809-.455.179-.364.269-.7283.269-1.1836s-.09-.9106-.269-1.1838c-.18-.2731-.45-.4552-.809-.4552-.45 0-.809.2731-1.079.7284z"/><path d="m147.631 98.722c-.36.2732-.719.4553-1.169.4553-.449 0-.898-.1821-1.168-.4553-.359-.2732-.449-.7285-.449-1.1838 0-.5463.179-.9105.449-1.2748.27-.3642.719-.5463 1.168-.5463.54 0 1.079.2732 1.349.8195.269.5464.449 1.1838.449 2.0943 0 .9106-.18 1.5481-.539 2.0941-.36.547-.899.911-1.528.911-.45 0-.809-.091-1.079-.182l.09-.547c.36.091.719.182.989.182.449 0 .809-.182 1.078-.637.27-.5463.36-1.0926.36-1.73zm0-.5464c0-.5463-.09-.9105-.27-1.3658-.18-.3642-.449-.5464-.809-.5464-.269 0-.539.0911-.719.3643-.179.1821-.269.5463-.269.9105 0 .3643.09.6374.269.8196.18.1821.45.2731.719.2731.36 0 .719-.1821 1.079-.4553z"/><path d="m150.777 98.0846c.179-.0911.359-.0911.539-.0911.539 0 .899.1821 1.258.4553.27.3642.45.7284.45 1.1837 0 .5465-.18.9105-.54 1.2745-.359.365-.809.547-1.258.547s-.899-.091-1.258-.274l.09-.546c.359.182.719.182 1.078.182.36 0 .629-.091.809-.364.18-.182.27-.5463.27-.9105 0-.3643-.09-.6374-.27-.9106s-.449-.2732-.719-.2732-.449 0-.629.0911l-.36-.1821v-2.7317h2.517v.5463h-1.977z"/><path d="m156.259 95.7171c.629 0 1.079.2732 1.348.7285.36.5463.45 1.2748.45 2.1853 0 .9106-.18 1.6391-.45 2.0941-.269.547-.809.82-1.348.82-.629 0-1.078-.273-1.348-.729-.27-.455-.449-1.2745-.449-2.1851 0-.9105.179-1.639.449-2.1853.359-.4553.809-.7285 1.348-.7285zm0 5.2809c.36 0 .719-.182.899-.546s.27-1.0016.27-1.8211-.09-1.4569-.27-1.8211-.45-.5464-.899-.5464c-.359 0-.629.1822-.899.5464-.269.3642-.269 1.0016-.269 1.8211s.09 1.3659.269 1.8211c.27.364.54.546.899.546zm0-2.9134c.18 0 .27.091.449.1821.09.0911.18.2732.18.4553s-.09.3642-.18.4553c-.089.091-.269.1821-.449.1821s-.27-.0911-.449-.1821c-.09-.0911-.18-.2732-.18-.4553s.09-.2732.18-.4553c.179-.1821.269-.1821.449-.1821z"/><path d="m161.472 98.4488c.36.091.629.2731.809.5463s.27.5463.27.8195c0 .4554-.18.9104-.54 1.2744-.359.365-.809.547-1.348.547-.449 0-.809-.091-1.168-.273l.09-.547c.359.182.719.273 1.078.273.36 0 .629-.091.899-.273s.359-.455.359-.8193c0-.3642-.089-.6374-.359-.8195s-.629-.2732-.989-.2732h-.179v-.5463h.089c.45 0 .719-.0911.989-.2732s.36-.4553.36-.8195c0-.2731-.09-.4553-.27-.6374s-.449-.1821-.809-.1821c-.27 0-.629.0911-.989.2732l-.089-.5464c.359-.1821.719-.2731 1.078-.2731.539 0 .899.091 1.258.3642.36.2732.45.6374.45 1.0016 0 .2732-.09.5464-.27.8195-.18.0911-.449.2732-.719.3643z"/></g><path d="m73.1222 91.0715c-.2697-.1821-.4494-.2731-.5393-.3642l-3.685-2.0032c-.1798-.0911-.4494-.1821-.6291-.2732-.6292-.1821-1.2583-.1821-1.8875 0-.2696.0911-.4494.1821-.6291.2732l-3.7749 2.0032c-.1798.0911-.3595.1821-.5393.3642-.8089.6374-1.2583 1.6391-1.2583 2.6407v5.7366c0 1.9122 1.528 3.4602 3.4154 3.4602h6.4712.0899c.0899 0 .0899 0 .1797-.091.0899 0 .0899-.091.1798-.091s.0899-.091.1798-.091c.0898-.091.0898-.091.0898-.182s.0899-.091.0899-.182c0-.092 0-.092.0899-.183 0-.091 0-.091 0-.182v-.819c0-.091-.0899-.182-.1798-.182h-7.1902c-.8089 0-1.438-.638-1.438-1.4572v-5.7366c0-.5463.2696-1.0927.8089-1.2748l3.685-2.0033h.0898c.3595-.1821.8089-.1821 1.1684 0h.0899l3.685 2.0033c.4494.2732.8089.7285.8089 1.2748v4.826.0911.091.1821c0 .0911 0 .0911.0899.1822 0 .091.0899.091.0899.1821 0 .091.0898.091.0898.1821.2697.2732.5393.3642.8988.2732.0899 0 .0899 0 .1798-.0911.0899 0 .0899-.0911.1797-.0911.0899 0 .0899-.091.1798-.091.0899-.0911.0899-.0911.0899-.1821 0-.0911.0898-.0911.0898-.1821 0-.0911 0-.0911.0899-.1822 0-.091 0-.091 0-.1821v-5.0081c-.0899-1.0016-.5392-1.9122-1.3481-2.6407z" fill="#e63b11"/><path d="m74.2906 101.634c0-.091-.0899-.091-.0899-.182s-.0899-.091-.0899-.182c-.0899-.091-.0899-.091-.1797-.091-.0899 0-.0899-.091-.1798-.091s-.0899 0-.1798-.091c-.0898 0-.0898 0-.1797 0h-.8089c-.0899 0-.1798.091-.1798.182v.819c0 .274.0899.547.2697.729 0 .091.0898.091.1797.091s.0899.091.1798.091.0899 0 .1797.091h.1798.1797c.0899 0 .0899 0 .1798-.091.0899 0 .0899-.091.1798-.091.0898 0 .0898-.091.1797-.091.1798-.182.2696-.455.2696-.729 0-.091 0-.091 0-.182-.0898-.091-.0898-.091-.0898-.182z" fill="#e63b11"/><g fill="#18303f"><path d="m134.598 49.22h-3.581c-1.566 0-2.797 1.2308-2.797 2.7972v3.5805c0 1.4546 1.231 2.6854 2.797 2.6854h3.581c1.454 0 2.685-1.2308 2.685-2.6854v-3.5805c0-1.5664-1.231-2.7972-2.685-2.7972zm1.454 5.7064c0 1.2308-.895 2.1259-2.126 2.1259h-2.349c-1.119 0-2.126-.8951-2.126-2.1259v-2.3497c0-1.1189 1.007-2.1259 2.126-2.1259h2.349c1.231 0 2.126 1.007 2.126 2.1259z"/><path d="m133.59 51.7944h-1.678c-.671 0-1.119.5594-1.119 1.1189v1.6783c0 .6714.56 1.1189 1.119 1.1189h1.678c.672 0 1.119-.5594 1.119-1.1189v-1.6783c0-.5595-.447-1.1189-1.119-1.1189z"/><path d="m157.983 49.22h-3.581c-1.454 0-2.797 1.2308-2.797 2.7972v3.5805c0 1.4546 1.231 2.7973 2.797 2.7973h3.581c1.454 0 2.797-1.2308 2.797-2.7973v-3.5805c0-1.5664-1.231-2.7972-2.797-2.7972zm1.566 5.7064c0 1.2308-1.007 2.1259-2.238 2.1259h-2.237c-1.231 0-2.238-.8951-2.238-2.1259v-2.3497c0-1.1189 1.007-2.1259 2.238-2.1259h2.237c1.231 0 2.238 1.007 2.238 2.1259z"/><path d="m157.088 51.7944h-1.678c-.671 0-1.119.5594-1.119 1.1189v1.6783c0 .6714.559 1.1189 1.119 1.1189h1.678c.672 0 1.119-.5594 1.119-1.1189v-1.6783c0-.5595-.559-1.1189-1.119-1.1189z"/><path d="m134.598 72.6069h-3.581c-1.566 0-2.797 1.2308-2.797 2.7972v3.5805c0 1.4546 1.231 2.7973 2.797 2.7973h3.581c1.454 0 2.797-1.2308 2.797-2.7973v-3.5805c-.112-1.5664-1.343-2.7972-2.797-2.7972zm1.454 5.7064c0 1.2308-.895 2.2378-2.126 2.2378h-2.349c-1.119 0-2.126-1.007-2.126-2.2378v-2.2378c0-1.2308 1.007-2.2378 2.126-2.2378h2.349c1.231 0 2.126 1.007 2.126 2.2378z"/><path d="m133.59 75.1813h-1.678c-.671 0-1.119.5594-1.119 1.1189v1.6783c0 .6714.56 1.1189 1.119 1.1189h1.678c.672 0 1.119-.5594 1.119-1.1189v-1.6783c0-.5595-.447-1.1189-1.119-1.1189z"/><path d="m147.127 77.874c-.371-.0131-.671-.3103-.671-.6811 0-.3707-.301-.6713-.672-.6713-.414 0-.816 0-1.23 0-.371 0-.672.3006-.672.6713 0 .3708-.3.6714-.671.6714s-.671-.3006-.671-.6714c0-.3707-.301-.6713-.672-.6713-.414 0-.816 0-1.23 0-.371 0-.672.3006-.672.6713 0 .3708.301.6714.672.6714.37 0 .671.3006.671.6713 0 .3708-.301.6714-.671.6714-.371 0-.672.3005-.672.6713v1.2868c0 .3398-.317.6153-.657.6153s-.574-.2755-.574-.6153c0-1.6054 0-3.2614 0-4.8743 0-.5523.448-1 1-1h.903c.37 0 .671-.3006.671-.6713 0-.3708.3-.6714.671-.6714s.672.3006.672.6714c0 .3707.3.6713.671.6713s.671-.3006.671-.6713c0-.4146 0-.8162 0-1.2308 0-.3708.301-.6713.672-.6713.37 0 .671.3005.671.6713v1.2308c0 .3708.3.6713.671.6713s.672-.3006.672-.6714c0-.7586 0-1.4924 0-2.2447 0-.5523-.448-1-1-1-.301 0-.598 0-.902 0-.371 0-.672.3005-.672.6713s-.3.6714-.671.6714c-.304 0-.602 0-.902 0-.553 0-1-.4478-1-1.0001 0-.3189 0-.6342 0-.958 0-.3399.317-.6154.657-.6154s.573-.2755.573-.6154c0-.0187 0-.0373 0-.056 0-.3707.301-.6713.672-.6713s.671.3006.671.6713c0 .3708.301.6714.672.6714h2.573c.371 0 .671-.3006.671-.6714 0-.0186 0-.0373 0-.0559 0-.3399-.317-.6154-.657-.6154s-.574-.2756-.574-.6154c0-.3238 0-.6391 0-.9581 0-.5522-.447-1-1-1-.307 0-.609 0-.902 0-.37 0-.671.3006-.671.6714 0 .3707-.301.6713-.671.6713-.371 0-.672-.3006-.672-.6713 0-.3708-.3-.6714-.671-.6714-.421 0-.835 0-1.231 0-.371 0-.671-.3005-.671-.6713s.3-.6713.671-.6713h4.818c.553 0 1-.4478 1-1.0001 0-.6432 0-1.2729 0-1.9161 0-.5523-.447-1-1-1-.3 0-.597 0-.902 0-.37 0-.671-.3006-.671-.6713 0-.3708.301-.6714.671-.6714h2.245c.552 0 1 .4478 1 1v.9021c0 .3708.301.6714.672.6714.37 0 .671-.3006.671-.6713 0-.3708.3-.6714.671-.6714s.672.3006.672.6713v1.7903c0 .0618-.051.1119-.112.1119-.507 0-.98 0-1.462 0-.552 0-1 .4477-1 1v2.2447c0 .3708.301.6714.671.6714.371 0 .672-.3005.672-.6713s.3-.6713.671-.6713.671-.3006.671-.6714c0-.4205 0-.8347 0-1.2308 0-.3708.301-.6713.672-.6713s.671-.3006.671-.6714c0-.3707.301-.6713.671-.6713.371 0 .672.3006.672.6713 0 .3708.3.6714.671.6714s.671.3005.671.6713.301.6714.672.6714.671.3005.671.6713-.3.6713-.671.6713-.672.3006-.672.6714v.0559c0 .3399.318.6154.658.6154s.573-.2755.573-.6154c0-.0186 0-.0373 0-.0559 0-.3708.301-.6714.672-.6714.37 0 .671.3006.671.6713v3.133c0 .0618-.05.1119-.112.1119-.186 0-.373 0-.559 0-.371 0-.672-.3006-.672-.6713 0-.3708-.3-.6714-.671-.6714-.869 0-1.705 0-2.574 0-.37 0-.671-.3006-.671-.6713 0-.3708.301-.6714.671-.6714.371 0 .672-.3005.672-.6713 0-.0187 0-.0373 0-.056 0-.3398-.318-.6153-.658-.6153-.339 0-.573.2755-.573.6153v.056c0 .3708-.301.6713-.671.6713-.371 0-.672.3006-.672.6714v.0559c0 .3399-.317.6154-.657.6154s-.573.2755-.573.6154v.6154c0 .0618.05.1119.111.1119h5.371.336c.371 0 .671.3006.671.6713 0 .3708.301.6714.671.6714h.056c.34 0 .616-.3175.616-.6574s.275-.5734.615-.5734h.056c.371 0 .672.3006.672.6713v.9021c0 .5523.447 1.0001 1 1.0001h.902c.37 0 .671.3005.671.6713v.0559c0 .3399-.318.6154-.657.6154-.34 0-.574.2756-.574.6155v1.3426c0 .3398.318.6154.658.6154.339 0 .573.2756.573.6154v3.6434c0 .5523-.448 1-1 1-2.483 0-4.965 0-7.448 0-.34 0-.615-.3174-.615-.6573s-.276-.5735-.616-.5735c-.434 0-.853 0-1.286 0-.371 0-.672-.3005-.672-.6713s.301-.6713.672-.6713.671-.3006.671-.6714c0-.4403 0-.8738 0-1.2867 0-.3399-.317-.6154-.657-.6154s-.574.2755-.574.6154v1.2868c0 .3707-.3.6713-.671.6713s-.671-.3006-.671-.6714c0-.0093 0-.0186 0-.0279 0-.3637-.28-.6675-.642-.6935-.397-.0285-.69-.0439-.925-.0521zm9.735 1.333c0-.6652 0-1.2687 0-1.9021 0-.3708-.301-.6714-.672-.6714s-.671.3006-.671.6713v.056c0 .3399-.318.6154-.657.6154-.34 0-.574.2755-.574.6154v.0141c0 .3787.332.6714.71.6457.652-.0444 1.288-.0444 1.864-.0444v.3427c0 .5522.447 1 1 1h.573c.552 0 1-.4478 1-1.0001 0-.3005 0-.5978 0-.9021 0-.3707-.301-.6713-.671-.6713-.037 0-.073 0-.109 0-.311 0-.563.2518-.563.5624 0 .3838-.386.6849-.77.673-.15-.0046-.305-.0046-.46-.0046zm-5.49-7.8323c-.552 0-1 .4477-1 1v1.9161c0 .5523.448 1 1 1h1.916c.552 0 1-.4477 1-1 0-.6432 0-1.2729 0-1.9161 0-.5523-.448-1-1-1-.643 0-1.273 0-1.916 0zm-2.902 1.3427c-.371 0-.671.3005-.671.6713v1.2308c0 .3707.3.6713.671.6713s.671-.3006.671-.6713c0-.4146 0-.8162 0-1.2308 0-.3708-.3-.6713-.671-.6713zm9.049 1.2307c-.34 0-.657.2756-.657.6154v.1119c0 .3399.317.6154.657.6154s.573-.2755.573-.6154c0-.0373 0-.0746 0-.1119 0-.3398-.233-.6154-.573-.6154zm-5.804 4.6015c0 .3399.317.6574.657.6574s.573-.3175.573-.6574-.317-.5734-.657-.5734-.573.2335-.573.5734z"/><path d="m130.793 62.871c0 .3708-.301.6714-.672.6714-.37 0-.671.3005-.671.6713v6.4897c0 .3708-.301.6713-.671.6713-.371 0-.672-.3006-.672-.6714 0-3.359 0-6.718 0-10.0771 0-.5523.448-1 1-1h4.49c.552 0 1 .4477 1 1v1.9162c0 .5522-.448 1-1 1-.308 0-.61 0-.902 0-.371 0-.672-.3006-.672-.6714 0-.3707.301-.6713.672-.6713s.671-.3006.671-.6713c0-.3708-.3-.6714-.671-.6714-.304 0-.602 0-.902 0-.553 0-1 .4478-1 1.0001z"/><path d="m142.672 55.6575c-.067.097-.132-.0426-.132-.1605 0-.2971 0-.6371 0-.9056 0-.1235-.1-.2237-.223-.2237-.15 0-.299 0-.448 0-.371 0-.671-.3006-.671-.6714 0-.3707.3-.6713.671-.6713s.671-.3006.671-.6714c0-.3707.301-.6713.672-.6713h.056c.34 0 .615.3175.615.6574 0 .3398.276.5734.615.5734h2.686c.34 0 .615-.2755.615-.6154 0-.1802 0-.3509 0-.5036 0-.0618-.05-.1118-.112-.1118-1.23 0-2.461 0-3.692 0-.062 0-.112-.0501-.112-.1119 0-.1865 0-.3729 0-.5594 0-.3708.301-.6714.671-.6714.371 0 .672-.3005.672-.6713s.3-.6714.671-.6714h.056c.34 0 .615.3175.615.6574s.276.5734.616.5734h2.301c.552 0 1 .4478 1 1.0001v.902c0 .3708-.301.6714-.672.6714s-.671.3006-.671.6713c0 .3708-.301.6714-.672.6714-.868 0-1.704 0-2.573 0-.371 0-.671.3006-.671.6713 0 .3708-.301.6714-.672.6714-.552 0-1.127 0-1.658 0-.081 0-.178.1044-.224.1709z"/><path d="m136.721 66.1122c-.371.0075-.672-.2959-.672-.6667 0-.0186 0-.0373 0-.0559 0-.3399.318-.6154.658-.6154s.573-.2755.573-.6154c0-.0373 0-.0746 0-.1119 0-.3399-.317-.6154-.657-.6154s-.574-.2755-.574-.6154c0-.0373 0-.0746 0-.1119 0-.3399.318-.6154.658-.6154s.573-.2755.573-.6154c0-.0373 0-.0746 0-.1119 0-.3398-.317-.6154-.657-.6154s-.574-.2755-.574-.6154c0-.0186 0-.0373 0-.0559 0-.3708.301-.6713.672-.6713h2.573c.371 0 .672-.3006.672-.6714s.3-.6713.671-.6713.671-.3006.671-.6714c0-.4145 0-.8162 0-1.2307 0-.3708.301-.6714.672-.6714.37 0 .671.3006.671.6714v.8951 2.2378c0 .0618-.05.1119-.112.1119-.186 0-.373 0-.559 0-.371 0-.672.3005-.672.6713s-.3.6713-.671.6713-.671.3006-.671.6714v.0559c0 .3399-.318.6154-.658.6154s-.573.2755-.573.6154v3.0893c0 .055-.045.0996-.1.0996-.008 0-.016.001-.024.0029-.644.1597-1.288.2039-1.89.2162z"/><path d="m157.45 66.105c-.327.0157-.589-.2558-.589-.5829 0-.0263 0-.0527 0-.079 0-.3708.301-.6713.672-.6713h1.23c.371 0 .672-.3006.672-.6714 0-.3707-.301-.6713-.672-.6713-.37 0-.671-.3006-.671-.6714 0-.8686 0-1.7047 0-2.5734 0-.3707.301-.6714.671-.6714.371 0 .672.3006.672.6714v1.2307c0 .3708.3.6714.671.6714s.671.3006.671.6714v2.6294c0 .3398-.317.6154-.657.6154s-.573.2755-.573.6154v.1118c0 .3399.317.6154.657.6154s.573.2756.573.6155v1.3426c0 .3399-.317.6154-.657.6154s-.573-.2755-.573-.6154c0-.0186 0-.0373 0-.0559 0-.3708-.301-.6714-.672-.6714-.37 0-.671-.3006-.671-.6713 0-.3854 0-.7597 0-1.1435 0-.3853-.369-.6747-.754-.6562z"/><path d="m132.149 65.543c-.02-.3631.282-.6582.646-.6582h1.244c.37 0 .671.3005.671.6713s.301.6713.671.6713c.371 0 .672.3006.672.6714s.3.6713.671.6713.671.3006.671.6714c0 .3707-.3.6713-.671.6713-.414 0-.816 0-1.231 0-.37 0-.671.3006-.671.6713 0 .3708-.301.6714-.671.6714-.371 0-.672-.3006-.672-.6714 0-.3042 0-.6015 0-.9021 0-.5523-.447-1-1-1-.307 0-.609 0-.902 0-.371 0-.671-.3006-.671-.6713 0-.0222 0-.0443 0-.0665 0-.3341.271-.6049.605-.6049.381 0 .667-.3501.642-.731-.001-.0219-.003-.0437-.004-.0653z"/><path d="m145.706 57.0446c-.327.0158-.591-.2557-.591-.5828 0-.0263 0-.0527 0-.079 0-.3708.3-.6713.671-.6713h2.574c.37 0 .671-.3006.671-.6714s.301-.6713.671-.6713c.371 0 .672.3006.672.6714v2.6293c0 .3399-.318.6154-.658.6154s-.573-.3175-.573-.6573c0-.3399-.276-.5735-.616-.5735-.037 0-.074 0-.111 0-.34 0-.616.3175-.616.6574s-.275.5734-.615.5734c-.046 0-.093 0-.139 0-.325 0-.589-.2635-.589-.5887 0-.383-.369-.6701-.751-.6516z"/><path d="m138.626 70.3763c0 .5523-.447 1-1 1-.752 0-1.486 0-2.244 0-.371 0-.672-.3006-.672-.6714 0-.3707.301-.6713.672-.6713h1.23c.371 0 .672-.3006.672-.6713 0-.3708.3-.6714.671-.6714s.671.3007.671.6715z"/><path d="m143.884 81.123c0-.3399.275-.5734.615-.5734h2.685c.34 0 .616.3174.616.6573s-.276.5734-.616.5734c-.907 0-1.778 0-2.685 0-.34 0-.615-.3174-.615-.6573z"/><path d="m153.616 62.3129c-.371 0-.672-.3006-.672-.6714 0-.4145 0-.8162 0-1.2307 0-.3708.301-.6714.672-.6714.37 0 .671.3006.671.6714v1.2307c0 .3708-.301.6714-.671.6714z"/><path d="m138.629 72.0465c-.003-.3708.299-.6714.67-.6714.37 0 .671.3006.671.6714v1.2484c0 .361-.335.6537-.696.6537-.33 0-.567-.2454-.593-.5741-.036-.4492-.048-.8811-.052-1.328z"/><path d="m139.968 57.7257c.003.3707-.299.6713-.669.6713-.371 0-.672-.3006-.672-.6714 0-.4186 0-.824 0-1.2429 0-.364.338-.6592.702-.6592.328 0 .565.2412.591.5682.034.4271.045.8768.048 1.334z"/><path d="m143.211 62.3116c-.371 0-.671-.3006-.671-.6714s.3-.6713.671-.6713.671.3005.671.6713-.3.6714-.671.6714z"/><path d="m139.967 68.1165c0-.3399.275-.6573.615-.6573h.112c.34 0 .615.3174.615.6573s-.275.5735-.615.5735c-.037 0-.075 0-.112 0-.34 0-.615-.2336-.615-.5735z"/><path d="m139.97 66.7879c0 .3707-.301.6713-.671.6713-.371 0-.672-.3006-.672-.6713 0-.3708.301-.6714.672-.6714h.559c.062 0 .112.0501.112.1119z"/><path d="m139.309 53.1359c.34 0 .657.2755.657.6154v.1118c0 .3399-.317.6154-.657.6154s-.574-.2755-.574-.6154c0-.0372 0-.0745 0-.1118 0-.3399.234-.6154.574-.6154z"/><path d="m151.045 60.9549c-.37.0231-.671-.2866-.671-.6573 0-.3708.301-.6714.671-.6714.371 0 .672.3006.672.6714v.0198c0 .3171-.217.5981-.532.6269-.047.0042-.093.0077-.14.0106z"/><path d="m156.246 63.5412c-.34 0-.616-.3175-.616-.6574s.276-.5734.616-.5734h.112c.339 0 .615.3174.615.6573s-.276.5735-.616.5735c-.037 0-.075 0-.111 0z"/><path d="m141.309 52.4657c0 .3708-.3.6714-.671.6714s-.671-.3006-.671-.6714.3-.6713.671-.6713.671.3005.671.6713z"/><path d="m132.136 64.2135c0 .3707-.301.6713-.671.6713-.371 0-.672-.3006-.672-.6713 0-.3708.301-.6714.672-.6714.37 0 .671.3006.671.6714z"/><path d="m155.63 60.2836c0-.3399.276-.6574.616-.6574h.112c.339 0 .615.3175.615.6574 0 .3398-.276.5734-.615.5734-.038 0-.075 0-.112 0-.34 0-.616-.2336-.616-.5734z"/><path d="m141.896 51.7944c-.371 0-.587-.3006-.587-.6713 0-.3708.3-.6714.671-.6714s.671.3006.671.6714c0 .3707-.384.6713-.755.6713z"/><path d="m145.786 77.8794c.37-.0231.671.2866.671.6574 0 .3707-.3.6713-.671.6713s-.671-.3006-.671-.6714c0-.0066 0-.0132 0-.0198 0-.3171.216-.5981.532-.6269.046-.0042.093-.0077.139-.0106z"/><path d="m139.95 51.1235c.028.3697-.281.6709-.651.6709-.371 0-.672-.3006-.672-.6713 0-.3708.347-.6714.717-.6714.323 0 .564.2275.595.5483.005.042.008.0832.011.1235z"/><path d="m143.211 50.5627c-.371 0-.671-.3006-.671-.6714s.3-.6713.671-.6713.671.3005.671.6713-.3.6714-.671.6714z"/><path d="m144.444 57.0744c.369-.0322.67.2791.67.6499v.0559c0 .3399-.317.6154-.657.6154s-.573-.2755-.573-.6154c0-.0255 0-.0507 0-.0758 0-.3171.216-.598.532-.6275.009-.0009.018-.0017.028-.0025z"/><path d="m141.869 62.3287c.369-.0316.67.2822.67.653v.0559c0 .3399-.317.6154-.657.6154s-.573-.2755-.573-.6154c0-.0254 0-.0507 0-.0757 0-.3172.215-.6013.531-.6307.01-.0008.019-.0017.029-.0025z"/><path d="m141.309 81.165c0-.3399.317-.6154.657-.6154s.573.3174.573.6573-.317.5734-.657.5734-.573-.2755-.573-.6153z"/></g></svg>