<svg fill="none" height="51" viewBox="0 0 51 51" width="51" xmlns="http://www.w3.org/2000/svg"><g stroke="#92a0a9" stroke-linecap="round" stroke-linejoin="round" stroke-width="2"><path d="m17.4343 50-5.7523-6.4296c-1.0652-1.2445-.8521-3.3186.4261-4.3556 1.2783-1.037 3.4088-.8296 4.474.4148l4.9001 5.8074v-20.3259c.2131-1.6592 1.7044-3.1111 3.4088-3.1111s3.1957 1.4519 3.1957 3.1111v13.4815h6.3914c4.687 0 8.5219 3.7333 8.5219 8.2963v3.1111"/><path d="m31.7407 29h2.2593c2.7614 0 5-2.2386 5-5v-17c0-2.76142-2.2386-5-5-5h-18c-2.7614 0-5 2.23858-5 5v17c0 2.7614 2.2386 5 5 5h2.2593"/></g></svg>