<svg fill="none" height="55" viewBox="0 0 59 55" width="59" xmlns="http://www.w3.org/2000/svg"><g fill="#92a0a9"><path clip-rule="evenodd" d="m2.49806 35.4296c0 .6499-.80667.788-.97909.1614-.01387-.0504-.02091-.1029-.02091-.1552v-.5916c0-.2762.22386-.5.5-.5.27615 0 .5.2238.5.5zm9.52664 15.5682c-.0696-.0526-.1233-.1232-.1552-.2044-.8401-2.1377-1.2881-4.4572-1.2881-6.8659v-15.1389c0-4.6557 1.5535-9.0175 4.6717-12.4474.1857-.2044.502-.2194.7063-.0337.2043.1858.2194.502.0336.7063-2.9374 3.2312-4.4116 7.3472-4.4116 11.7748v15.1389c0 2.2614.4164 4.4391 1.1985 6.448.1813.4659-.3564.924-.7552.6223zm44.9252-11.1898c-.233.5133-.9518.3385-.9518-.2253v-10.7941c0-6.5451-2.3812-13.0807-6.8287-17.8247-.1889-.2014-.1786-.5178.0228-.7067.2015-.1889.5179-.1787.7067.0228 4.6359 4.9449 7.0992 11.7315 7.0992 18.5086v10.7962c0 .0769-.0164.1532-.0482.2232zm-13.8219-35.06606c-8.3342-4.93878-18.5126-4.932801-27.1355-.31337-8.63765 4.62732-13.87728 13.26423-14.4934 22.81413-.01778.2755.1912.5134.46677.5311.27557.0178.51338-.1912.53116-.4667.59499-9.2224 5.64981-17.54103 13.96767-21.99705 8.3326-4.463898 18.1377-4.457918 26.1535.29219.2375.14077.5442.06232.685-.17525.1408-.23756.0623-.54427-.1752-.68505zm-21.2353 7.84546c5.5888-2.64736 11.7638-2.062 16.7726 1.179 5.0113 3.2426 8.2494 8.8408 8.2494 15.0219v15.1389c0 1.4559-.2912 2.9207-.5958 4.4436-.0542.2708.1214.5342.3922.5884.2708.0541.5342-.1215.5884-.3923l.0048-.0241c.2995-1.4975.6104-3.0521.6104-4.6156v-15.1389c0-6.5355-3.423-12.4429-8.7061-15.8614-5.2857-3.42016-11.8273-4.04587-17.744-1.2432-.2496.1182-.3561.4163-.2378.6659.1182.2495.4163.356.6659.2378zm7.3554 6.6179c-5.4234 0-9.5834 4.16-9.5834 9.5833v9.0834c0 .2761.2239.5.5.5.2762 0 .5-.2239.5-.5v-9.0834c0-4.8711 3.7123-8.5833 8.5834-8.5833 4.871 0 8.5833 3.7122 8.5833 8.5833v15.1389c0 4.8711-3.7123 8.5833-8.5833 8.5833-4.8711 0-8.5834-3.7122-8.5834-8.5833 0-.2761-.2238-.5-.5-.5-.2761 0-.5.2239-.5.5 0 5.4234 4.16 9.5833 9.5834 9.5833 5.4233 0 9.5833-4.1599 9.5833-9.5833v-15.1389c0-5.4233-4.16-9.5833-9.5833-9.5833zm.5 9.5833c0-.2761-.2239-.5-.5-.5-.2762 0-.5.2239-.5.5v9.0834c0 .2761.2238.5.5.5.2761 0 .5-.2239.5-.5zm0 15.1389c0-.2761-.2239-.5-.5-.5-.2762 0-.5.2239-.5.5v3.0278c0 .2761.2238.5.5.5.2761 0 .5-.2239.5-.5z" fill-rule="evenodd"/><path d="m15.2531 16.3412.7399.6726zm.7063-.0337.6727-.7399zm.0336.7063-.7399-.6726zm33.1764-6.0499.7295-.6839zm.0228-.7067-.6839-.72955zm.7067.0228.7296-.68395v-.00001zm-33.9064-5.85143.4722.88148zm27.1355.31337-.5098.8603zm-41.6289 22.50076.99793.0644zm.99793.0644-.99793-.0644zm13.96767-21.99705.4723.88148zm26.1535.29219-.5098.86029zm-3.9529 8.16416-.5432.8396zm-16.7726-1.179-.4281-.9037zm24.4262 35.7834-.9806-.1961zm.3922.5884-.1961.9805zm.5884-.3923.9805.1961h.0001zm.0048-.0241-.9806-.1962v.0001zm-8.0957-35.6159.5432-.8396zm-17.744-1.2432.4281.9037zm-.2378.6659.9037-.4281zm-8.4469 38.0259-.9319.3628zm-.9104.4179-.9307.3658zm-9.37144-15.3576v-.5916h-1.999995v.5916zm0-.5916c0 .2761-.22385.5-.5.5v-2c-.82842 0-1.499995.6716-1.499995 1.5zm-.5.5c-.27614 0-.5-.2239-.5-.5h2c0-.8284-.67157-1.5-1.5-1.5zm-.5-.5v.5854h2v-.5854zm11.30214 15.5834c-.7941-2.0206-1.2188-4.216-1.2188-6.5001h-2c0 2.5333.4713 4.9769 1.3574 7.2317zm-1.2188-6.5001v-15.1389h-2v15.1389zm0-15.1389c0-4.4276 1.4742-8.5436 4.4116-11.7748l-1.4798-1.3453c-3.299 3.6288-4.9318 8.2363-4.9318 13.1201zm4.4116-11.7748c-.1857.2044-.5019.2194-.7063.0337l1.3454-1.4799c-.613-.5573-1.5617-.5121-2.1189.1009zm-.7063.0337c-.2043-.1858-.2194-.502-.0336-.7063l1.4799 1.3453c.5572-.613.5121-1.5616-.1009-2.1189zm-.0336-.7063c-3.1181 3.4299-4.6717 7.7917-4.6717 12.4474h2c0-4.1995 1.3949-8.0697 4.1516-11.1021zm-4.6717 12.4474v15.1389h2v-15.1389zm0 15.1389c0 2.3848.4393 4.6856 1.2666 6.8108l1.8637-.7255c-.7367-1.8926-1.1303-3.9472-1.1303-6.0853zm46.4167-4.3448v-10.7941h-2v10.7941zm0-10.7941c0-6.7771-2.4633-13.5637-7.0992-18.5086l-1.459 1.3679c4.2592 4.5431 6.5582 10.8276 6.5582 17.1407zm-7.0992-18.5086c.1889.2014.1787.5179-.0227.7067l-1.3679-1.45905c-.6044.56655-.635 1.51585-.0684 2.12025zm-.0228.7067c-.2014.1889-.5178.1787-.7067-.0228l1.4591-1.36786c-.5666-.60436-1.5159-.63498-2.1202-.06839zm-.7067-.0228c4.4475 4.744 6.8287 11.2796 6.8287 17.8247h2c0-7.009-2.5455-14.0468-7.3696-19.19255zm6.8287 17.8247v10.7962h2v-10.7962zm-39.5334-23.47855c8.3327-4.463917 18.1377-4.457898 26.1535.29219l1.0196-1.72059c-8.6527-5.12748-19.2043-5.1095-28.1175-.33456zm-13.96767 21.99705c.59499-9.2225 5.64984-17.54105 13.96767-21.99705l-.9444-1.76296c-8.95747 4.79864-14.38188 13.75391-15.019123 23.63121zm-.46678-.5312c.27558.0178.48456.2556.46678.5312l-1.995853-.1288c-.053336.8267.573603 1.5401 1.400313 1.5935zm-.53115.4668c.01778-.2756.25559-.4846.53115-.4668l-.12876 1.9959c.82671.0533 1.54013-.5737 1.59346-1.4004zm14.4934-22.81413c-8.63762 4.62731-13.87728 13.26423-14.4934 22.81413l1.99585.1287c.57387-8.8948 5.44385-16.8951 13.44205-21.17987zm27.1355.31338c-8.3342-4.938769-18.5125-4.932831-27.1355-.31338l.9445 1.76296c8.0422-4.30834 17.4739-4.29045 25.1714.271zm-.6851.17524c.1408-.23756.4475-.31602.6851-.17525l-1.0196 1.72059c.7126.42233 1.6328.18695 2.0551-.52574zm.1753.68505c-.2376-.14079-.3161-.44749-.1753-.68505l1.7206 1.0196c.4223-.71268.187-1.6328-.5257-2.05514zm-3.4096 7.32466c-5.2857-3.42019-11.8274-4.04585-17.744-1.2432l.8561 1.8074c5.2612-2.4921 11.0694-1.9469 15.8014 1.1149zm8.7061 15.8614c0-6.5355-3.4229-12.4429-8.7061-15.8614l-1.0865 1.6791c4.7394 3.0667 7.7926 8.3555 7.7926 14.1823zm0 15.1389v-15.1389h-2v15.1389zm-.6152 4.6397c.3009-1.5046.6152-3.0677.6152-4.6397h-2c0 1.3397-.2681 2.7062-.5764 4.2475zm-.3923-.5883c.2708.0541.4464.3175.3923.5883l-1.9612-.3922c-.1625.8123.3644 1.6026 1.1767 1.765zm-.5883.3922c.0541-.2708.3176-.4464.5883-.3922l-.3922 1.9611c.8123.1625 1.6026-.3643 1.765-1.1767zm.0048-.0241-.0048.0241 1.9612.3922.0048-.0241zm.591-4.4195c0 1.4479-.2881 2.9053-.591 4.4194l1.9612.3923c.2961-1.4807.6298-3.1326.6298-4.8117zm0-15.1389v15.1389h2v-15.1389zm-8.2494-15.0219c5.0114 3.2427 8.2494 8.8408 8.2494 15.0219h2c0-6.8899-3.6079-13.1066-9.1629-16.701zm-16.7726-1.179c5.5888-2.64734 11.7638-2.062 16.7726 1.179l1.0865-1.6791c-5.5624-3.59923-12.4708-4.26531-18.7153-1.3074zm.2378-.6659c.1182.2495.0117.5477-.2378.6659l-.8562-1.8075c-.7487.3547-1.0681 1.2491-.7135 1.9978zm-.6659-.2378c.2495-.1182.5477-.0118.6659.2378l-1.8075.8562c.3547.7486 1.2491 1.0681 1.9977.7134zm-.7999 17.1049c0-4.8711 3.7123-8.5833 8.5834-8.5833v-2c-5.9757 0-10.5834 4.6077-10.5834 10.5833zm0 9.0834v-9.0834h-2v9.0834zm-.5-.5c.2762 0 .5.2238.5.5h-2c0 .8284.6716 1.5 1.5 1.5zm-.5.5c0-.2762.2239-.5.5-.5v2c.8285 0 1.5-.6716 1.5-1.5zm0-9.0834v9.0834h2v-9.0834zm9.5834-9.5833c-5.4234 0-9.5834 4.16-9.5834 9.5833h2c0-4.3188 3.2646-7.5833 7.5834-7.5833zm9.5833 9.5833c0-5.4233-4.16-9.5833-9.5833-9.5833v2c4.3188 0 7.5833 3.2645 7.5833 7.5833zm0 15.1389v-15.1389h-2v15.1389zm-9.5833 9.5833c5.4233 0 9.5833-4.1599 9.5833-9.5833h-2c0 4.3188-3.2645 7.5833-7.5833 7.5833zm-9.5834-9.5833c0 5.4234 4.16 9.5833 9.5834 9.5833v-2c-4.3188 0-7.5834-3.2645-7.5834-7.5833zm.5.5c-.2761 0-.5-.2238-.5-.5h2c0-.8284-.6715-1.5-1.5-1.5zm.5-.5c0 .2762-.2238.5-.5.5v-2c-.8284 0-1.5.6716-1.5 1.5zm8.5834 8.5833c-4.8711 0-8.5834-3.7122-8.5834-8.5833h-2c0 5.9757 4.6077 10.5833 10.5834 10.5833zm8.5833-8.5833c0 4.8711-3.7123 8.5833-8.5833 8.5833v2c5.9756 0 10.5833-4.6076 10.5833-10.5833zm0-15.1389v15.1389h2v-15.1389zm-8.5833-8.5833c4.871 0 8.5833 3.7122 8.5833 8.5833h2c0-5.9756-4.6077-10.5833-10.5833-10.5833zm0 9.0833c-.2762 0-.5-.2238-.5-.5h2c0-.8284-.6716-1.5-1.5-1.5zm.5-.5c0 .2762-.2239.5-.5.5v-2c-.8285 0-1.5.6716-1.5 1.5zm0 9.0834v-9.0834h-2v9.0834zm-.5-.5c.2761 0 .5.2238.5.5h-2c0 .8284.6715 1.5 1.5 1.5zm-.5.5c0-.2762.2238-.5.5-.5v2c.8284 0 1.5-.6716 1.5-1.5zm0-9.0834v9.0834h2v-9.0834zm.5 15.6389c-.2762 0-.5-.2238-.5-.5h2c0-.8284-.6716-1.5-1.5-1.5zm.5-.5c0 .2762-.2239.5-.5.5v-2c-.8285 0-1.5.6716-1.5 1.5zm0 3.0278v-3.0278h-2v3.0278zm-.5-.5c.2761 0 .5.2238.5.5h-2c0 .8284.6715 1.5 1.5 1.5zm-.5.5c0-.2762.2238-.5.5-.5v2c.8284 0 1.5-.6716 1.5-1.5zm0-3.0278v3.0278h2v-3.0278zm27.25-4.3427c0-.0641.0135-.1289.0413-.1902l1.8211.8268c.0914-.2013.1376-.4187.1376-.6366zm-1-.0021c0 .7666.5188 1.3365 1.1556 1.4891.6473.155 1.3808-.1324 1.7068-.8504l-1.8211-.8268c.0348-.0766.1124-.172.2388-.2313.118-.0554.2396-.0609.3414-.0365.219.0525.3785.2531.3785.4559zm-43.1501 11.1556c-.0881-.2264.0144-.434.1306-.5312.0617-.0515.1565-.1014.2828-.1109.1386-.0104.2715.0322.3666.1041l-1.2065 1.5951c.6375.4822 1.3893.3227 1.8395-.0535.4395-.3672.7202-1.0369.4507-1.7291zm-9.36486-15.4126c.01008.0366.01492.0734.01492.1101h-1.999995c0 .1413.01892.283.056735.4205zm8.45566 15.8335c.0996.2535.2671.4732.4827.6362l1.2065-1.5951c.0763.0578.1364.1363.1722.2273zm-10.384-15.3029c.217912.7919.93898 1.2438 1.68378 1.1189.72298-.1212 1.25948-.7507 1.25948-1.5456h-2c0-.0518.01942-.1517.10115-.2504.07705-.093.18668-.156.30856-.1764.12268-.0206.26162.002.38251.0807.12713.0827.1785.19.19286.2422z"/></g></svg>