<svg fill="none" height="15" viewBox="0 0 15 15" width="15" xmlns="http://www.w3.org/2000/svg"><g fill="#2d3436"><path clip-rule="evenodd" d="m7.50193 3.32168c.1142 0 .21849.06484.26903.16724l.54782 1.11017 1.31682.14167c.11909.01281.21915.09524.25453.20968.03537.11444-.00072.23895-.09181.31674l-.96069.82034.25632 1.18122c.0247.1138-.01869.2316-.11129.3022-.0926.07059-.21769.08123-.32088.02728l-1.15985-.60639-1.15986.60639c-.10319.05395-.22828.04331-.32088-.02728-.0926-.0706-.13598-.1884-.11129-.3022l.25633-1.18122-.9607-.82034c-.09109-.07779-.12718-.2023-.0918-.31674.03537-.11444.13543-.19687.25453-.20968l1.31681-.14167.54783-1.11017c.05053-.1024.15483-.16724.26903-.16724zm0 .97793-.35178.71287c-.04544.09209-.13483.15454-.23694.16553l-.78876.08485.5678.48486c.084.07173.12179.18381.09837.29176l-.15841.73.73072-.38203c.08708-.04552.19092-.04552.27799 0l.73073.38203-.15841-.73c-.02343-.10795.01436-.22003.09836-.29176l.5678-.48486-.78876-.08485c-.1021-.01099-.19149-.07344-.23693-.16553z" fill-rule="evenodd"/><path d="m7.50083 1.75434c-.11087 0-.2207.00478-.32927.01417-.16507.01426-.28733.15964-.27306.32471.01426.16507.15964.28732.32471.27306.09142-.0079.18401-.01194.27762-.01194s.1862.00404.27762.01194c.16507.01426.31045-.10799.32471-.27306.01427-.16507-.10799-.31045-.27306-.32471-.10857-.00939-.2184-.01417-.32927-.01417z"/><path d="m6.15718 2.65135c.15012-.07012.21497-.24866.14485-.39877-.07012-.15012-.24866-.21497-.39878-.14485-.20033.09358-.39103.20417-.57027.3299-.13564.09515-.16846.28225-.07331.41789s.28224.16846.41788.07331c.15085-.10582.31125-.19883.47963-.27748z"/><path d="m9.0984 2.10773c-.15011-.07012-.32865-.00527-.39877.14485-.07012.15011-.00527.32865.14485.39877.16837.07865.32878.17166.47963.27748.13564.09515.32273.06233.41788-.07331s.06232-.32274-.07332-.41789c-.17923-.12573-.36994-.23632-.57027-.3299z"/><path d="m4.89641 3.70997c.09515-.13564.06233-.32273-.07331-.41788s-.32273-.06233-.41788.07331c-.12573.17923-.23633.36994-.32991.57027-.07012.15012-.00527.32865.14485.39877.15011.07013.32865.00528.39877-.14484.07865-.16838.17166-.32878.27748-.47963z"/><path d="m10.5964 3.3654c-.0951-.13564-.2822-.16846-.4178-.07331-.1357.09515-.1685.28224-.0734.41788.1059.15085.1989.31125.2775.47963.0701.15012.2487.21497.3988.14485.1501-.07013.215-.24866.1448-.39878-.0935-.20033-.2041-.39104-.3299-.57027z"/><path d="m4.33386 5.25563c.01426-.16507-.10799-.31045-.27306-.32472-.16507-.01426-.31045.10799-.32471.27306-.00938.10858-.01417.21841-.01417.32928s.00479.22069.01417.32927c.01426.16507.15964.28732.32471.27306s.28732-.15964.27306-.32471c-.0079-.09142-.01194-.18402-.01194-.27762 0-.09361.00404-.1862.01194-.27762z"/><path d="m11.2656 5.20397c-.0143-.16507-.1597-.28732-.3247-.27306-.1651.01427-.2874.15965-.2731.32472.0079.09142.0119.18401.0119.27762 0 .0936-.004.1862-.0119.27762-.0143.16507.108.31045.2731.32471.165.01426.3104-.10799.3247-.27306.0094-.10858.0141-.2184.0141-.32927s-.0047-.2207-.0141-.32928z"/><path d="m4.61893 6.87689c-.07012-.15011-.24866-.21496-.39877-.14484-.15012.07012-.21497.24866-.14485.39877.09358.20033.20418.39104.32991.57027.09515.13564.28224.16847.41788.07332s.16846-.28225.07331-.41789c-.10582-.15084-.19883-.31125-.27748-.47963z"/><path d="m10.9263 7.13082c.0702-.15011.0053-.32865-.1448-.39877s-.3287-.00527-.3988.14484c-.0786.16838-.1716.32879-.2775.47963-.0951.13564-.0623.32274.0734.41789.1356.09515.3227.06232.4178-.07332.1258-.17923.2364-.36994.3299-.57027z"/><path d="m5.67755 8.13767c-.13564-.09515-.32273-.06233-.41788.07331s-.06233.32273.07331.41788c.17924.12573.36994.23633.57027.3299.15012.07012.32866.00527.39878-.14484.07012-.15012.00527-.32865-.14485-.39878-.16838-.07865-.32878-.17166-.47963-.27747z"/><path d="m9.66867 8.62886c.13564-.09515.16847-.28224.07332-.41788s-.28224-.16846-.41788-.07331c-.15085.10581-.31126.19882-.47964.27747-.15011.07013-.21496.24866-.14484.39878.07012.15011.24866.21496.39877.14484.20033-.09357.39104-.20417.57027-.3299z"/><path d="m7.22321 8.70022c-.16507-.01427-.31045.10799-.32471.27306-.01427.16507.10799.31044.27306.32471.10857.00938.2184.01416.32927.01416s.2207-.00478.32927-.01416c.16507-.01427.28733-.15964.27306-.32471-.01426-.16507-.15964-.28733-.32471-.27306-.09142.0079-.18401.01193-.27762.01193s-.1862-.00403-.27762-.01193z"/><path clip-rule="evenodd" d="m2.3461 5.53325c0-2.84688 2.30785-5.154733 5.15473-5.154733 2.84687 0 5.15477 2.307853 5.15477 5.154733s-2.3079 5.15475-5.15477 5.15475c-2.84688 0-5.15473-2.30787-5.15473-5.15475zm5.15473-4.554733c-2.51551 0-4.55473 2.039223-4.55473 4.554733 0 2.5155 2.03922 4.55475 4.55473 4.55475 2.51547 0 4.55477-2.03925 4.55477-4.55475 0-2.51551-2.0393-4.554733-4.55477-4.554733z" fill-rule="evenodd"/><path d="m5.18885 10.7987c.16568 0 .3.1343.3.3v2.5161l1.79902-1.799c.11716-.1172.30711-.1172.42427 0l1.79903 1.799v-1.5869c0-.1657.13431-.3.3-.3.16568 0 .30003.1343.30003.3v2.3112c0 .1213-.0731.2307-.18523.2771-.1121.0465-.24114.0208-.32694-.065l-2.09902-2.099-2.09903 2.099c-.0858.0858-.21484.1115-.32694.065-.1121-.0464-.18519-.1558-.18519-.2771v-3.2404c0-.1657.13431-.3.3-.3z"/><path d="m9.80786 11.3716c.16569 0 .30004-.1343.30004-.3s-.13435-.3-.30004-.3-.3.1343-.3.3.13431.3.3.3z"/></g></svg>