<svg fill="none" height="15" viewBox="0 0 15 15" width="15" xmlns="http://www.w3.org/2000/svg"><g stroke="#2d3436" stroke-linecap="round" stroke-linejoin="round"><path d="m7.57621 9.72341c1.23226 0 2.2312-.99894 2.2312-2.2312 0-1.23225-.99894-2.23119-2.2312-2.23119-1.23225 0-2.23119.99894-2.23119 2.23119 0 1.23226.99894 2.2312 2.23119 2.2312z"/><path d="m9.80628 7.4916v1.18997c0 1.04123.89252 1.78493 1.78492 1.78493 1.0413 0 1.785-.89245 1.785-1.78493v-.89248c.1487-3.27242-2.3799-6.0986-5.65237-6.24735-3.27242-.14875-6.0986 2.52869-6.0986 5.80111-.14875 2.82615 1.78496 5.35485 4.61114 5.94985 1.04122.2975 1.9337.1488 2.97493 0"/></g></svg>