<svg fill="none" height="15" viewBox="0 0 15 15" width="15" xmlns="http://www.w3.org/2000/svg"><g stroke="#2d3436"><path d="m6 4.5h6c.8284 0 1.5.67157 1.5 1.5v3.79289l-3.70711 3.70711h-3.79289c-.82843 0-1.5-.6716-1.5-1.5v-6c0-.82843.67157-1.5 1.5-1.5z"/><g stroke-linecap="round"><path d="m6.5 6.5h5"/><path d="m6.5 8.5h3"/><path d="m6.5 10.5h2"/></g></g><path d="m3 12c.27614 0 .5-.2239.5-.5s-.22386-.5-.5-.5zm8-9c0 .27614.2239.5.5.5s.5-.22386.5-.5zm-7.5-1h6.5v-1h-6.5zm-1.5 8v-6.5h-1v6.5zm-1 0c0 1.1046.89543 2 2 2v-1c-.55228 0-1-.4477-1-1zm9-8c.5523 0 1 .44772 1 1h1c0-1.10457-.8954-2-2-2zm-6.5-1c-1.38071 0-2.5 1.11929-2.5 2.5h1c0-.82843.67157-1.5 1.5-1.5z" fill="#2d3436"/></svg>