<svg fill="none" height="25" viewBox="0 0 25 25" width="25" xmlns="http://www.w3.org/2000/svg"><g fill="#2d3436"><path d="m19.0792 6.71263c.2762 0 .5-.22386.5-.5s-.2238-.5-.5-.5c-.2761 0-.5.22386-.5.5s.2239.5.5.5z"/><path clip-rule="evenodd" d="m8.9473 20.7962c.10022-.0312.18628-.0924.24819-.1731.01793-.0136.03515-.0286.05151-.0449l13.2186-13.21868c.9764-.97631.9764-2.55923 0-3.53554l-.9975-.99751c-.9763-.97631-2.5592-.97631-3.5355 0l-13.21864 13.21863c-.01574.0158-.03021.0323-.04341.0495-.08168.062-.14368.1487-.17511.2497l-1.72678 5.5527c-.05516.1774-.00745.3707.12389.5021.13134.1313.32467.179.50203.1239zm-2.76275-3.7988-.50431-.5044 12.95946-12.95942c.5858-.58579 1.5355-.58579 2.1213 0l.9975.99751c.5858.58579.5858 1.53553 0 2.12132l-12.95943 12.95949-.41241-.4124-.00483-1.5826 9.63787-9.63784c.1952-.19526.1952-.51184 0-.70711-.1953-.19526-.5119-.19526-.7071 0l-9.64908 9.64905zm1.19825.9394-1.36877.0707c-.14138.0073-.27923-.0457-.37934-.1458l-.43013-.4301-1.03434 3.3261.36372.3637 3.3261-1.0343-.3263-.3263c-.09339-.0934-.14604-.22-.14644-.3521z" fill-rule="evenodd"/></g></svg>