<svg fill="none" height="24" viewBox="0 0 24 24" width="24" xmlns="http://www.w3.org/2000/svg"><path d="m2.64 5.91c-.35305-.35305-.35193-.92582.00251-1.27749.35248-.34973.92139-.34861 1.27249.00249l15.45 15.45c.3511.3511.3522.92.0025 1.2725-.3517.3544-.9244.3556-1.2775.0025l-2.44-2.44c-1.15.38-2.37.58-3.65.58-4.58171 0-8.55045-2.6114-10.51354-6.4262-.3468-.6739-.34773-1.4739-.00146-2.1481.67758-1.31921 1.59741-2.4926 2.705-3.4657zm9.36 3.09c.7956 0 1.5587.31607 2.1213.87868.5626.56262.8787 1.32572.8787 2.12132 0 .35-.06.69-.17 1l-3.83-3.83c.31-.11.65-.17 1-.17zm0-4.5c4.5805 0 8.5484 2.61008 10.512 6.4233.3479.6755.3479 1.4777.0001 2.1533-.7075 1.3744-1.6766 2.595-2.85 3.5911-.3697.3139-.9147.2679-1.2564-.0762-.4304-.4334-.3612-1.149.0963-1.5535.7083-.6261 1.329-1.357 1.8397-2.1778.328-.5271.3287-1.1938.001-1.7211-1.7776-2.86033-4.9147-4.6391-8.3427-4.6391-.8807 0-1.7483.1175-2.57645.3314-.3614.09335-.74972.00351-1.01452-.25957l-.05943-.05904c-.50236-.4991-.33801-1.34494.34204-1.54245 1.0498-.30489 2.16016-.47034 3.30836-.47034zm-8.34353 6.6408c-.32699.5265-.32719 1.1921-.0001 1.7186 1.7775 2.8612 4.91505 4.6406 8.34363 4.6406.69 0 1.37-.07 2-.21l-2.28-2.29c-1.43-.15-2.57-1.29-2.72-2.72l-3.4-3.41c-.74974.64372-1.40772 1.4079-1.94353 2.2708z" fill="#2d3436"/></svg>