<svg fill="none" height="25" viewBox="0 0 25 25" width="25" xmlns="http://www.w3.org/2000/svg"><g fill="#2d3436"><path d="m12.7714 2.95872c-2.4632-2.456028-6.37821-2.456028-8.84139 0-2.46397 2.45683-2.46397 6.36304 0 8.81988 1.94085 1.9352 4.80708 2.3174 7.11379 1.1935l2.0822 2.0738-1.3704 1.3665c-.1732.1727-.2949.4049-.2949.6736 0 .2686.1217.5009.2949.6736l1.6764 1.6715c.1733.1728.4056.2934.6735.2934s.5002-.1206.6735-.2934l.5061-.5061c.1952-.1952.1952-.5118 0-.7071-.1953-.1952-.5119-.1952-.7071 0l-.4725.4726-1.6092-1.6045 1.6911-1.6862c.0941-.0938.147-.2213.1469-.3542 0-.1329-.053-.2603-.1471-.3541l-2.6979-2.6872c-.159-.1583-.4041-.1914-.5993-.0807-1.97976 1.1216-4.54388.8519-6.25391-.8531-2.07208-2.06612-2.07208-5.33757 0-7.40365 2.07289-2.06687 5.35636-2.06687 7.42921 0 1.6629 1.65807 1.9776 4.26264.8555 6.23191-.1117.19594-.0784.44234.0813.60164l3.9912 3.9796 1.6738 1.718.0051.0052 1.7257 1.7206c.0044.0044.0089.0087.0134.013l.6505.6019-2.5761 2.5686c-.1955.195-.196.5116-.001.7071.195.1956.5116.196.7071.0011l2.5885-2.581c.357-.356.4275-.9702.0493-1.3473-.0044-.0044-.0088-.0087-.0134-.0129l-.7188-.6652-1.7166-1.7115-1.6738-1.7181-.0051-.0051-3.7324-3.7216c1.1238-2.30804.6932-5.2083-1.1981-7.09408z"/><path d="m17.8879 19.0905c.1955-.195.196-.5116.001-.7071-.195-.1956-.5115-.196-.7071-.0011l-1.7257 1.7207c-.1732.1728-.2948.405-.2948.6736 0 .2685.1214.5006.2944.6733l.5219.5218c.1953.1953.5118.1953.7071 0 .1953-.1952.1953-.5118 0-.7071l-.4879-.4879z"/><path clip-rule="evenodd" d="m11.082 7.40576c0 1.4929-1.2102 2.70314-2.70309 2.70314-1.4929 0-2.70313-1.21024-2.70313-2.70314 0-1.49289 1.21023-2.70312 2.70313-2.70312 1.49289 0 2.70309 1.21023 2.70309 2.70312zm-1 0c0 .94061-.76248 1.70313-1.70309 1.70313s-1.70313-.76252-1.70313-1.70313.76252-1.70312 1.70313-1.70312 1.70309.76251 1.70309 1.70312z" fill-rule="evenodd"/><path d="m16.6641 17.3984c0 .2762-.2239.5-.5.5-.2762 0-.5-.2238-.5-.5 0-.2761.2238-.5.5-.5.2761 0 .5.2239.5.5z"/><path d="m17.6055 23.1011c.2761 0 .5-.2239.5-.5 0-.2762-.2239-.5-.5-.5-.2762 0-.5.2238-.5.5 0 .2761.2238.5.5.5z"/></g></svg>