<svg fill="none" height="14" viewBox="0 0 11 14" width="11" xmlns="http://www.w3.org/2000/svg"><path clip-rule="evenodd" d="m.700195 5.04458c0-2.57496 2.159055-4.644556 4.800005-4.644556 2.64094 0 4.8 2.069596 4.8 4.644556 0 .2668-.0233.52858-.068.78345-.35428 3.15377-2.06711 5.91007-4.55593 7.71487-.10505.0762-.24718.0762-.35224 0-2.48921-1.8052-4.20218-4.56199-4.55605-7.71638-.044595-.25441-.067785-.51568-.067785-.78194zm4.800005-4.04456c-2.32963 0-4.2 1.82067-4.2 4.04456 0 .23429.02065.46372.06025.68674.00113.00639.00206.01282.00278.01927.32335 2.90569 1.86938 5.46161 4.13693 7.17611 2.26717-1.7142 3.81308-4.26959 4.13676-7.17472.00072-.00647.00165-.01292.00279-.01933.03975-.22341.06049-.45328.06049-.68807 0-2.22389-1.87038-4.04456-4.2-4.04456zm0 2.60674c-.83846 0-1.5.6536-1.5 1.43782s.66154 1.43782 1.5 1.43782c.83845 0 1.5-.6536 1.5-1.43782s-.66155-1.43782-1.5-1.43782zm-2.1 1.43782c0-1.1353.95023-2.03782 2.1-2.03782s2.1.90252 2.1 2.03782c0 1.13529-.95023 2.03782-2.1 2.03782s-2.1-.90253-2.1-2.03782z" fill="#18303f" fill-rule="evenodd"/></svg>