<svg fill="none" height="25" viewBox="0 0 25 25" width="25" xmlns="http://www.w3.org/2000/svg"><path clip-rule="evenodd" d="m3.79042 20.0099c.27412.3176.32085.7725.11702 1.1392l-1.5803 2.843h9.72406c.0118 0 .0235.0002.0353.0006.1372.0049.275.0073.4135.0073 6.3513 0 11.5-5.1487 11.5-11.5 0-6.35127-5.1487-11.5-11.5-11.5-6.35127 0-11.5 5.14873-11.5 11.5 0 2.8712 1.05093 5.4944 2.79042 7.5099zm-3.16325 4.9822 2.40623-4.3289c-1.89028-2.1901-3.0334-5.0431-3.0334-8.1632 0-6.90356 5.59644-12.5 12.5-12.5 6.9036 0 12.5 5.59644 12.5 12.5 0 6.9036-5.5964 12.5-12.5 12.5-.1502 0-.2998-.0026-.4488-.0079z" fill="#2d3436" fill-rule="evenodd"/><g stroke="#2d3436"><path d="m11.2265 7.51062c.4786-.84444 1.6153-.84444 2.094 0l4.3675 7.66028c.4786.8445-.1197 1.8096-1.0769 1.8096h-8.73507c-.95726 0-1.49573-1.0254-1.07692-1.8096z" stroke-linecap="round" stroke-linejoin="round"/><path d="m11.9443 15.1112c0 .1809.1197.3015.2992.3015s.2991-.1206.2991-.3015c0-.181-.1196-.3016-.2991-.3016-.1197 0-.2992.1206-.2992.3016z" fill="#2d3436" stroke-width=".5"/><path d="m12.3019 13.2414v-3.37778" stroke-linecap="round" stroke-linejoin="round"/></g></svg>