<svg fill="none" height="25" viewBox="0 0 25 25" width="25" xmlns="http://www.w3.org/2000/svg"><path clip-rule="evenodd" d="m20.9429 2.11429c0 .6154-.4989 1.11428-1.1143 1.11428-.0873 0-.1721-.01002-.2536-.02898l-4.296 5.15526c.0594.13634.0924.28689.0924.44515 0 .6154-.4989 1.11429-1.1143 1.11429-.6147 0-1.1132-.49787-1.1142-1.11241l-4.90433-2.45215c-.18599.13923-.41694.2217-.66714.2217-.07949 0-.15703-.00832-.2318-.02415l-3.21265 4.01582c.06522.1416.10159.2993.10159.4655 0 .6154-.49888 1.1143-1.11428 1.1143-.61541 0-1.11429-.4989-1.11429-1.1143s.49888-1.11431 1.11429-1.11431c.07948 0 .15702.00832.2318.02414l3.21264-4.0158c-.06522-.14165-.10159-.29932-.10159-.46549 0-.6154.49889-1.11428 1.11429-1.11428.61478 0 1.11327.49787 1.11428 1.11241l4.90429 2.45214c.186-.13923.4169-.2217.6671-.2217.0873 0 .1722.01003.2536.02898l4.2961-5.15525c-.0595-.13635-.0925-.2869-.0925-.44515 0-.61541.4989-1.11429 1.1143-1.11429s1.1143.49888 1.1143 1.11429zm-2.9575 8.91411c0-1.50697 1.2216-2.7286 2.7285-2.7286 1.507 0 2.7286 1.22163 2.7286 2.7286v10.0285c0 1.507-1.2216 2.7286-2.7286 2.7286-1.5069 0-2.7285-1.2216-2.7285-2.7286zm2.7285-1.7286c-.9546 0-1.7285.7739-1.7285 1.7286v10.0285c0 .9547.7739 1.7286 1.7285 1.7286.9547 0 1.7286-.7739 1.7286-1.7286v-10.0285c0-.9547-.7739-1.7286-1.7286-1.7286zm-7.6855 3.457c-1.507 0-2.7286 1.2217-2.7286 2.7286v5.5714c0 1.507 1.2216 2.7286 2.7286 2.7286 1.5069 0 2.7285-1.2216 2.7285-2.7286v-5.5714c0-1.5069-1.2216-2.7286-2.7285-2.7286zm-1.7286 2.7286c0-.9547.7739-1.7286 1.7286-1.7286.9546 0 1.7285.7739 1.7285 1.7286v5.5714c0 .9547-.7739 1.7286-1.7285 1.7286-.9547 0-1.7286-.7739-1.7286-1.7286zm-5.95694 1.7289c-1.50695 0-2.72857 1.2216-2.72857 2.7286v1.1142c0 1.507 1.22162 2.7286 2.72857 2.7286s2.72857-1.2216 2.72857-2.7286v-1.1142c0-1.507-1.22162-2.7286-2.72857-2.7286zm-1.72857 2.7286c0-.9547.7739-1.7286 1.72857-1.7286.95466 0 1.72857.7739 1.72857 1.7286v1.1142c0 .9547-.77391 1.7286-1.72857 1.7286-.95467 0-1.72857-.7739-1.72857-1.7286z" fill="#2d3436" fill-rule="evenodd"/></svg>