<svg fill="none" height="25" viewBox="0 0 25 25" width="25" xmlns="http://www.w3.org/2000/svg"><g fill="#18303f"><path d="m20.5351 3.31799c0-1.03875-.989-1.81799-2.003-1.81799h-8.517c-.54641 0-1.04744.16037-1.41937.48651-.37786.33135-.58367.80107-.58367 1.33148v6.13413c0 .27614.22386.5.5.5s.5-.22386.5-.5v-6.13413c0-.26038.09479-.44966.24298-.57961.15413-.13515.4046-.23838.76006-.23838h8.517c.5892 0 1.003.45089 1.003.81799v17.39751c0 .3671-.4138.818-1.003.818h-5.8831c-.2761 0-.5.2238-.5.5 0 .2761.2239.5.5.5h5.8831c1.014 0 2.003-.7793 2.003-1.818z"/><path d="m6.32417 20.7614c.40372-.1879.68359-.5972.68359-1.0719 0-.6526-.52906-1.1817-1.18168-1.1817-.65263 0-1.18168.5291-1.18168 1.1817 0 .4732.2781.8814.67977 1.0701v.349c0 .2762.22386.5.5.5s.5-.2238.5-.5z"/><path clip-rule="evenodd" d="m9.44917 15.5537v-1.4879c0-1.9804-1.64403-3.6244-3.62438-3.6244s-3.62438 1.644-3.62438 3.6244v1.4879h-.06525c-.90102 0-1.636137.7351-1.636137 1.6361v4.0483c0 .8737.400172 1.6881.990317 2.2783.59015.5901 1.40451.9903 2.27824.9903h4.12006c.87373 0 1.68809-.4002 2.27826-.9903.5901-.5902.9903-1.4046.9903-2.2783v-4.0483c0-.901-.7351-1.6361-1.63614-1.6361zm-1-1.4879c0-1.4281-1.19632-2.6244-2.62438-2.6244-1.42807 0-2.62438 1.1963-2.62438 2.6244v1.4879h5.24876zm.51796 2.4879h.55293c.34873 0 .63614.2874.63614.6361v4.0483c0 .5674-.26357 1.1373-.69743 1.5712-.43386.4338-1.00377.6974-1.57113.6974h-4.12006c-.56736 0-1.13727-.2636-1.57113-.6974-.43386-.4339-.69743-1.0038-.69743-1.5712v-4.0483c0-.3487.28741-.6361.63614-.6361h.54729c.00596.0002.01195.0003.01796.0003h6.24876c.00601 0 .012-.0001.01796-.0003z" fill-rule="evenodd"/><path d="m16.9804 10.8955c0-.2761.2239-.5.5-.5.2762 0 .5.2239.5.5v1.4059c0 .2761-.2238.5-.5.5-.2761 0-.5-.2239-.5-.5z"/><path d="m16.9765 13.8516c0 .2761.2239.5.5.5.2762 0 .5-.2239.5-.5 0-.2762-.2238-.5-.5-.5-.2761 0-.5.2238-.5.5z"/></g></svg>