<svg fill="none" height="25" viewBox="0 0 25 25" width="25" xmlns="http://www.w3.org/2000/svg"><g fill="#18303f"><path clip-rule="evenodd" d="m15.4687 19.7611c0 .4666-.2731.8694-.6681 1.0573v.3385c0 .2762-.2239.5-.5.5-.2762 0-.5-.2238-.5-.5v-.3364c-.3974-.187-.6725-.5911-.6725-1.0594 0-.6464.5239-1.1704 1.1703-1.1704.6463 0 1.1703.524 1.1703 1.1704zm-1.3406 0c0-.0941.0762-.1704.1703-.1704s.1703.0763.1703.1704c0 .0896-.0692.163-.1571.1698l-.011-.0002-.0143.0002c-.0884-.0062-.1582-.0799-.1582-.1698z" fill-rule="evenodd"/><path clip-rule="evenodd" d="m3.57722 1.5c-1.01402 0-2.003.77924-2.003 1.81799v17.39751c0 1.0387.98898 1.818 2.003 1.818h.00305l5.49699-.0335c.05581-.0003.10943-.0098.15946-.027.17351.3927.42346.7492.72229 1.0479.58769.5876 1.39879.9861 2.26909.9861h4.1005c.8702 0 1.6813-.3985 2.269-.9861.5877-.5875.9864-1.3985.9864-2.2686v-4.0281c0-.898-.7328-1.6304-1.6308-1.6304h-7.3498c-.89794 0-1.63074.7324-1.63074 1.6304v2.9218c-.00513-.0014-.0103-.0028-.01551-.0041l-2.85163-.7019c-.39553-.1049-.78657-.3544-1.07718-.682-.2932-.3306-.45022-.7006-.45022-1.0301v-11.59837c0-.32954.15702-.69958.45022-1.03015.29141-.32855.68381-.57844 1.08046-.68287l5.7111-1.49363c.7425-.19535 1.2773.25271 1.2773.83426v10.24286l.0001.0101v.4899c0 .2761.2238.5.5.5.2761 0 .5-.2239.5-.5v-11.18201c0-1.03875-.989-1.81799-2.003-1.81799zm6.39544 15.7242c0-.3455.28484-.6304.63074-.6304h7.3498c.3459 0 .6308.2849.6308.6304v4.0281c0 .5637-.262 1.1301-.6934 1.5614-.4314.4314-.9981.6933-1.562.6933h-4.1005c-.564 0-1.1307-.2619-1.5621-.6933-.4314-.4313-.69334-.9977-.69334-1.5614z" fill-rule="evenodd"/><path d="m6.28125 10.7871c0-.2761-.22386-.5-.5-.5s-.5.2239-.5.5v1.318c0 .2761.22386.5.5.5s.5-.2239.5-.5z"/><path d="m6.28125 13.6357c0 .2762-.22386.5-.5.5s-.5-.2238-.5-.5c0-.2761.22386-.5.5-.5s.5.2239.5.5z"/><path d="m17.3431 14.2314c0-1.3996 1.1726-2.5722 2.5722-2.5722.909 0 1.728.4951 2.1883 1.2367.1456.2346.4539.3068.6885.1612s.3068-.4539.1612-.6885c-.6304-1.0156-1.7603-1.7094-3.038-1.7094-1.9519 0-3.5722 1.6203-3.5722 3.5722v.4704c0 .2761.2238.5.5.5.2761 0 .5-.2239.5-.5z"/><path d="m23.6692 14.0999c0 .2762-.2239.5-.5.5-.2762 0-.5-.2238-.5-.5 0-.2761.2238-.5.5-.5.2761 0 .5.2239.5.5z"/></g></svg>