<svg fill="none" height="26" viewBox="0 0 26 26" width="26" xmlns="http://www.w3.org/2000/svg"><g stroke="#18303f"><path d="m13.8575 12.5722v-8.56634c0-1.10457-.8954-2-2-2h-7.23821c-1.10457 0-2 .89543-2 2v17.98784c0 1.1046.89544 2 2.00001 2h7.2382c1.1046 0 2-.8954 2-2v-2.3457m0-5.3351v-.022" stroke-linecap="round" stroke-linejoin="round"/><rect height="3.39757" rx="1.5" width="16.5292" x="5.9594" y="15.9734"/><g stroke-linecap="round" stroke-linejoin="round"><path d="m5.70744 5.48633h-.02557"/><path d="m8.25169 5.48633h-.02557"/><path d="m10.795 5.48633h-.0256"/><path d="m5.70744 8.41809h-.02557"/><path d="m8.25169 8.41809h-.02557"/><path d="m10.795 8.41809h-.0256"/><path d="m5.70744 11.3497h-.02557"/><path d="m8.25169 11.3497h-.02557"/><path d="m10.795 11.3497h-.0256"/></g></g></svg>