<svg fill="none" height="26" viewBox="0 0 26 26" width="26" xmlns="http://www.w3.org/2000/svg"><g stroke="#18303f" stroke-linecap="round" stroke-linejoin="round"><path d="m19.9075 12.556c0-.9569-.7829-1.7398-1.7397-1.7398h-11.30871c-.95689 0-1.7398.7829-1.7398 1.7398v6.1992c0 2.2067 2.03279 4.2395 4.23956 4.2395h6.30915c2.2068 0 4.2395-2.0328 4.2395-4.2395z"/><path d="m7.73135 7.77174c0-2.60969 2.17475-4.78444 4.78445-4.78444s4.7844 2.17475 4.7844 4.78444v3.04466h-9.56885z"/><path d="m12.5151 17.4274c.5765 0 1.0439-.4674 1.0439-1.0439s-.4674-1.0439-1.0439-1.0439-1.0439.4674-1.0439 1.0439.4674 1.0439 1.0439 1.0439z" fill="#18303f"/><path d="m12.5164 17.4266v1.1309"/></g></svg>