<svg fill="none" height="25" viewBox="0 0 25 25" width="25" xmlns="http://www.w3.org/2000/svg" xmlns:xlink="http://www.w3.org/1999/xlink"><clipPath id="a"><path d="m0 0h25v25h-25z"/></clipPath><g clip-path="url(#a)"><g stroke="#18303f" stroke-linecap="round" stroke-linejoin="round"><path d="m19.6082 16.6826c.6802 2.8812 1.6413 3.7707 1.0896 6.814h-1.6064l-2.0688-1.617m-3.7947-9.5336c-2.5737-.2522-5.24497-.0009-6.71783.4949-2.20144.7412-2.84497-1.4825-4.01592-1.1867-.40159.9286-.49415 1.2208-.49415 2.3518s1.38464 2.0475 1.88464 2.0475c0 3.3664.16344 4.6155.4044 5.9015.16064.5627.40159 1.1253.80318 1.6076h2.60637l.24095-.9645c.08032-.3215.4016-.6431.80319-.6431h2.53397c.4016 0 .7229.2412.8032.6431l.241.9645h1.8782s-.2718-1.6076 2.1377-1.6076c.5622 0 1.1245-.1607 1.6064-.4018m1.9016-14.42919s-1.9454-2.14606-2.1412-1.36649l-.1958.77965s-1.9453-2.14622-2.1411-1.36665l-1.8667 4.82948c-.5777 2.2999.3573 5.3039 2.732 5.9004l2.5993.6529c2.5703.6456 5.1773.0853 5.8229-2.485-.8384-1.7047-1.5879-6.03845-4.8085-6.94914m-9.2267 14.83584-1.34993 1.5416h-1.60637l.83913-1.5416z"/><path d="m24.1941 14.1729-.7107-.1785"/><path d="m24.2621 14.1897s-.4896 1.9489-2.0475 1.5576"/></g><circle cx="20.3762" cy="12.1371" fill="#18303f" r=".76" transform="matrix(.96987202 .24361501 -.24361501 .96987202 3.570674 -4.598282)"/><circle cx="15.9221" cy="17.9223" fill="#18303f" r=".76" transform="matrix(.96987202 .24361501 -.24361501 .96987202 4.845842 -3.3389)"/><g stroke="#18303f" stroke-linecap="round" stroke-linejoin="round" stroke-width="2"><path d="m12 11h-6"/><path d="m4 23h-1"/><path d="m3 17h-1"/><path d="m13 8h-3"/><path d="m15 5h-4"/><path d="m7 8h-2"/><path d="m5 5h-3"/><path d="m3 11h-1"/><path d="m3 20h-4"/><path d="m1 14h-2"/></g><g fill="#18303f"><circle cx="2" cy="8" r="1"/><circle cx="8" cy="5" r="1"/><circle cy="23" r="1"/></g></g></svg>