<svg fill="none" height="13" viewBox="0 0 14 13" width="14" xmlns="http://www.w3.org/2000/svg"><g fill="#00ac83"><path d="m7.61686 9.43914c.35192-.20402.58861-.5848.58861-1.02085 0-.65124-.52793-1.17917-1.17917-1.17917s-1.17917.52793-1.17917 1.17917c0 .43738.23813.81914.59181 1.0227v.20645c0 .32527.26369.58896.58896.58896.32528 0 .58896-.26369.58896-.58896z"/><path clip-rule="evenodd" d="m3.73341 3.54909v1.13507c-.82231.04943-1.47755.73542-1.47755 1.56979v3.50504c0 .80431.36779 1.54751.90314 2.08291.53534.5353 1.27858.9031 2.08287.9031h3.56719c.8043 0 1.54754-.3678 2.08284-.9031.5354-.5354.9032-1.2786.9032-2.08291v-3.50504c0-.833-.6531-1.5181-1.4735-1.56954v-1.13532c0-1.8008-1.49331-3.294085-3.2941-3.294085-1.8008 0-3.29409 1.493285-3.29409 3.294085zm3.29409-2.11617c-1.15025 0-2.11617.96592-2.11617 2.11617v1.13222h4.23233v-1.13222c0-1.15025-.96591-2.11617-2.11616-2.11617zm-3.199 4.42631h.47616l.01771.00026h5.41025l.01771-.00026h.47207c.2158 0 .3948.17897.3948.39472v3.50504c0 .44341-.2069.89871-.5582 1.25001-.35123.3512-.80652.5581-1.24994.5581h-3.56719c-.44342 0-.89871-.2069-1.24996-.5581-.35125-.3513-.55813-.8066-.55813-1.25001v-3.50504c0-.21575.17897-.39472.39472-.39472z" fill-rule="evenodd"/></g></svg>