<svg fill="none" height="26" viewBox="0 0 26 26" width="26" xmlns="http://www.w3.org/2000/svg"><g stroke="#18303f" stroke-linecap="round" stroke-linejoin="round"><path d="m16.9569 12.5874c0-.9601-.7855-1.7456-1.7456-1.7456h-11.3464c-.96008 0-1.74561.7855-1.74561 1.7456v6.2199c0 2.2142 2.03958 4.2537 4.25372 4.2537h6.33019c2.2142 0 4.2537-2.0395 4.2537-4.2537z"/><path d="m23.1182 7.78772c0-.03859 0 0 0-.03859m-9.6009.77352v-.73493c0-2.61841 2.182-4.80042 4.8004-4.80042 1.7084 0 3.231.92883 4.083 2.30169.171.27554.315.56897.4281.87637"/><path d="m9.54062 17.4749c.57848 0 1.04738-.469 1.04738-1.0474 0-.5785-.4689-1.0474-1.04738-1.0474-.57844 0-1.04736.4689-1.04736 1.0474 0 .5784.46892 1.0474 1.04736 1.0474z"/><path d="m9.54239 17.4741v1.1347"/></g></svg>