<svg fill="none" height="25" viewBox="0 0 25 25" width="25" xmlns="http://www.w3.org/2000/svg"><path clip-rule="evenodd" d="m4.57031 4.78174c0-1.933 1.56701-3.5 3.5-3.5h11.42919c1.933 0 3.5 1.567 3.5 3.5v13.75646c0 1.933-1.567 3.5-3.5 3.5h-4.3357-.613-.1443c-.5371 0-.9726-.4355-.9726-.9727 0-.5371.4355-.9726.9726-.9726h.7573c.528 0 .9577.4208.9722.9453h3.3635c1.3807 0 2.5-1.1193 2.5-2.5v-13.75646c0-1.38071-1.1193-2.5-2.5-2.5h-11.42919c-1.38071 0-2.5 1.11929-2.5 2.5v3.75643c0 .27614-.22386.5-.5.5s-.5-.22386-.5-.5zm6.37979 8.49546v1.4879h.0709c.9011 0 1.6362.7352 1.6362 1.6362v4.0482c0 .8738-.4002 1.6881-.9903 2.2783-.5902.5901-1.4046.9903-2.27828.9903h-4.12006c-.87373 0-1.68809-.4002-2.27824-.9903-.59015-.5902-.99032-1.4045-.99032-2.2783v-4.0482c0-.901.73512-1.6362 1.63614-1.6362h.06524v-1.4879c0-1.9803 1.64404-3.62437 3.62438-3.62437 1.98035 0 3.62434 1.64407 3.62434 3.62437zm-3.62434-2.6244c1.42807 0 2.62438 1.1963 2.62438 2.6244v1.4879h-5.24876v-1.4879c0-1.4281 1.19632-2.6244 2.62438-2.6244zm3.69524 5.1123h-.5529c-.006.0002-.0119.0004-.018.0004h-6.24872c-.00601 0-.012-.0002-.01796-.0004h-.54728c-.34873 0-.63614.2874-.63614.6362v4.0482c0 .5674.26356 1.1373.69742 1.5712.43386.4338 1.00378.6974 1.57114.6974h4.12006c.56736 0 1.13728-.2636 1.57118-.6974.4338-.4339.6974-1.0038.6974-1.5712v-4.0482c0-.3488-.2874-.6362-.6362-.6362zm-2.51226 3.1358c0 .4747-.27987.884-.6836 1.0719v.3472c0 .2762-.22385.5-.5.5-.27614 0-.5-.2238-.5-.5v-.349c-.40166-.1887-.67977-.5969-.67977-1.0701 0-.6526.52906-1.1817 1.18168-1.1817.65263 0 1.18169.5291 1.18169 1.1817z" fill="#18303f" fill-rule="evenodd"/></svg>