<svg fill="none" height="15" viewBox="0 0 15 15" width="15" xmlns="http://www.w3.org/2000/svg" xmlns:xlink="http://www.w3.org/1999/xlink"><clipPath id="a"><path d="m0 0h15v15h-15z"/></clipPath><g clip-path="url(#a)"><path d="m0 0h15v15h-15z" fill="#fff"/><g fill="#2d3436"><path clip-rule="evenodd" d="m6.75359.127337c.23576-.0824155.48753-.127337.74827-.127337 1.28928 0 2.35929 1.09834 2.35929 2.39706 0 1.0363-.68128 1.94501-1.61163 2.26994-.23576.08241-.48753.12733-.74827.12733-1.28928 0-2.35929-1.09834-2.35929-2.39706 0-1.03629.68128-1.945011 1.61163-2.269933zm.20844.605187c-.67418.237399-1.1799.901416-1.1799 1.664536 0 .95661.79469 1.7575 1.71973 1.7575.18689 0 .36845-.03269.53922-.09275.67418-.2374 1.1799-.90142 1.1799-1.66454 0-.95661-.79469-1.757492-1.71973-1.757492-.18689 0-.36845.032689-.53922.092746z" fill-rule="evenodd"/><path d="m5.96055 6.23546.00474-.00376.02028-.01624c.42704-.33705.95089-.53122 1.51527-.53122.15292 0 .30211.014.44671.04089.32644.06103.63242.18834.9054.37051.06347.04248.12514.08795.18487.13628.00404.00326.00813.00641.01227.00945.63378.51706 1.04601 1.35336 1.04601 2.33521v1.15906c0 .17661.1431.31976.3198.31976.1766 0 .3197-.14315.3197-.31976v-1.15906c0-1.94543-1.39645-3.53211-3.23333-3.53211-.07967 0-.15863.00302-.23679.00898-1.71949.1289-2.99801 1.6619-2.99801 3.52334v1.15906c0 .17661.14317.31975.31978.31975s.31978-.14314.31978-.31975v-1.15906c0-.98573.41547-1.82476 1.05352-2.34133z"/><path d="m8.64019 10.8011c.01261-.1668.15161-.2957.31887-.2957h.41751c.17661 0 .31978.1432.31978.3198s-.14317.3198-.31978.3198h-.12098l-.26901 3.5591c-.01261.1668-.15161.2957-.31887.2957h-.5854l-.00539.0001-.00644.0001h-1.73508c-.16726 0-.30626-.1289-.31887-.2957l-.26901-3.5591h-.12098c-.17661 0-.31978-.1432-.31978-.3198s.14317-.3198.31978-.3198h.41751c.16726 0 .30626.1289.31887.2957l.26901 3.5591h1.40962l.00676-.0001.00506-.0001h.31781z"/><path d="m10.763 10.8159c0-.0019 0-.0039 0-.0058 0-.1766-.1431-.3198-.3197-.3198-.0929 0-.1765.0396-.2349.1028-.0615.0582-.0998.1407-.0998.2321 0 .1766.1431.3198.3197.3198h.015c.1766 0 .3198-.1432.3198-.3198 0-.0031 0-.0062-.0001-.0093z"/><path d="m4.23999 10.8254.00009-.0076-.00009-.0077c0-.1766.14317-.3198.31978-.3198.09337 0 .17739.04.23585.1039.06095.0582.09892.1403.09892.2312 0 .1766-.14317.3198-.31978.3198h-.01499c-.17661 0-.31978-.1432-.31978-.3198z"/></g></g></svg>