<svg fill="none" height="25" viewBox="0 0 25 25" width="25" xmlns="http://www.w3.org/2000/svg"><path d="m4.32711 8.30414c-.19526.19526-.19526.51185 0 .70711s.51184.19526.70711 0l1.45343-1.45343 1.48056 1.48056c.19526.19526.51184.19526.7071 0 .19526-.19527.19526-.51185 0-.70711l-1.48055-1.48056 1.54403-1.54403c.19526-.19526.19526-.51185 0-.70711s-.51185-.19526-.70711 0l-1.54403 1.54404-1.51691-1.51691c-.19526-.19526-.51184-.19526-.70711 0-.19526.19526-.19526.51184 0 .7071l1.51691 1.51691z" fill="#f18303"/><g fill="#2d3436"><path clip-rule="evenodd" d="m17.3325.972538c.3687-.128863.7623-.1991 1.17-.1991 2.0159 0 3.6889 1.717332 3.6889 3.747962 0 1.62032-1.0652 3.04116-2.5199 3.5492-.3686.12886-.7623.1991-1.17.1991-2.0158 0-3.6889-1.71733-3.6889-3.74796 0-1.62033 1.0653-3.04117 2.5199-3.549202zm.3259.946252c-1.0541.37119-1.8448 1.40942-1.8448 2.60261 0 1.49573 1.2425 2.74796 2.6889 2.74796.2922 0 .5761-.05111.8431-.14501 1.0541-.37119 1.8448-1.40943 1.8448-2.60261 0-1.49573-1.2425-2.74797-2.6889-2.74797-.2922 0-.5761.05111-.8431.14502z" fill-rule="evenodd"/><path d="m16.0926 10.523.0074-.0059.0317-.0254c.6677-.52697 1.4867-.83057 2.3692-.83057.2391 0 .4724.02189.6985.06393.5104.09543.9888.29454 1.4156.57934.0992.0664.1957.1375.2891.2131.0063.0051.0127.01.0192.0147.9909.8085 1.6354 2.1161 1.6354 3.6513v1.8123c0 .2761.2239.5.5.5.2762 0 .5-.2239.5-.5v-1.8123c0-3.0418-2.1835-5.5227-5.0556-5.5227-.1245 0-.248.00473-.3702.01405-2.6885.20153-4.6876 2.59845-4.6876 5.50895v1.8123c0 .2761.2239.5.5.5.2762 0 .5-.2239.5-.5v-1.8123c0-1.5412.6496-2.8531 1.6473-3.6608z"/><path d="m20.2824 17.6617c.0197-.2608.237-.4623.4985-.4623h.6528c.2762 0 .5.2238.5.5 0 .2761-.2238.5-.5.5h-.1891l-.4206 5.5649c-.0198.2608-.2371.4623-.4986.4623h-.9153l-.0085.0002-.01.0001h-2.7129c-.2616 0-.4789-.2015-.4986-.4623l-.4206-5.5649h-.1892c-.2761 0-.5-.2238-.5-.5 0-.2761.2239-.5.5-.5h.6528c.2615 0 .4789.2015.4986.4623l.4206 5.5649h2.204l.0106-.0002.0079-.0001h.4969z"/><path d="m23.6015 17.6848c0-.003.0001-.006.0001-.009 0-.2762-.2239-.5-.5-.5-.1452 0-.2759.0618-.3672.1606-.0962.0911-.1561.2201-.1561.363 0 .2761.2238.5.5.5h.0234c.2761 0 .5-.2239.5-.5 0-.0049-.0001-.0098-.0002-.0146z"/><path d="m13.4023 17.6997.0002-.012-.0002-.0119c0-.2762.2239-.5.5-.5.146 0 .2774.0625.3688.1623.0953.0911.1547.2194.1547.3616 0 .2762-.2239.5-.5.5h-.0235c-.2761 0-.5-.2238-.5-.5z"/></g><path clip-rule="evenodd" d="m6.50147 1.77344c-2.69752 0-4.88428 2.18676-4.88428 4.88428 0 2.69751 2.18676 4.88428 4.88428 4.88428 2.69751 0 4.88423-2.18677 4.88423-4.88428 0-2.69752-2.18672-4.88428-4.88423-4.88428zm-5.884283 4.88428c0-3.2498 2.634483-5.884282 5.884283-5.884282 3.24979 0 5.88423 2.634482 5.88423 5.884282s-2.63444 5.88428-5.88423 5.88428c-3.2498 0-5.884283-2.63449-5.884283-5.88428z" fill="#85949a" fill-rule="evenodd"/></svg>