<svg fill="none" height="40" viewBox="0 0 40 40" width="40" xmlns="http://www.w3.org/2000/svg"><path d="m24.2171 15.9034c-.5794-.4741-1.2641-.8428-1.9488-1.1588-.8428-.316-1.7382-.474-2.6337-.474-4.3191 0-7.6902 3.7397-7.6902 8.4802v3.055l-.0526 2.897h.0526 2.7917 1.1062l.7901 10.1657h4.5824-.0527 1.6329l.7901-10.1657h1.106 2.7917.0527l-.0527-2.897v-3.055c0-4.7405-3.371-8.4802-7.6901-8.4802-.9481 0-1.8435.158-2.6336.474-.6848.2634-1.3696.6847-1.949 1.1588" fill="#d9eef9"/><path d="m24.7439 16.3774c-.1053 0-.2106 0-.2633 0s-.0527 0-.1053 0c-.2634 0-.5268 0-.7375.0527-.1054 0-.158 0-.2107.0527-.158 0-.3159.0526-.474.1053-.1053 0-.2107.0527-.2633.0527-.158.0527-.2634.0526-.4214.1053-.1054.0527-.2108.0527-.3161.1054-.0527 0-.1054.0527-.1581.0527-.1053.0526-.1579.0526-.2106.1053s-.158.0527-.2106.1053c-.2107.1054-.3688.2107-.5795.3161-.0526.0527-.1053.0526-.158.1053-.158.1054-.2634.158-.4214.2634-.0527.0526-.158.1053-.2107.158-.0526.0527-.1053.0527-.158.1053-1.8962 1.5275-3.1076 4.0031-3.1076 6.8474v3.0551l-.0527 2.8969h.0527 2.7916 1.1061l.632 8.0589h1.5802l.7901-10.1658h1.1061 2.7917.0526l-.0526-2.8969v-3.1077c-.2107-2.5283-1.2115-4.7932-2.7917-6.3734z" fill="#f0faff"/><path d="m19.6348 11.9003c2.9671 0 5.3725-2.45253 5.3725-5.4779 0-3.02538-2.4054-5.477942-5.3725-5.477942-2.9672 0-5.3726 2.452562-5.3726 5.477942 0 3.02537 2.4054 5.4779 5.3726 5.4779z" fill="#d9eef9"/><path d="m18.95 8.52924c0 1.26414.4213 2.42296 1.1587 3.37106 2.6863-.2634 4.8458-2.63365 4.8458-5.47796 0-1.26413-.4213-2.42294-1.1587-3.37104-2.6336.31603-4.8458 2.6863-4.8458 5.47794z" fill="#f0faff"/><path clip-rule="evenodd" d="m13.3177 6.42238c0-3.44734 2.8221-6.42238 6.317-6.42238 3.4362 0 6.3169 2.96898 6.3169 6.42238 0 3.44735-2.8221 6.42242-6.3169 6.42242-3.4949 0-6.317-2.97507-6.317-6.42242zm1.8888 0c0 2.45196 2.0237 4.53352 4.4282 4.53352 2.3577 0 4.4281-2.08762 4.4281-4.53352 0-2.44589-2.0704-4.53349-4.4281-4.53349-2.3578 0-4.4282 2.0876-4.4282 4.53349zm4.4018 6.90382c-.0088-.0001-.0176-.0001-.0264-.0001-1.0059 0-2.0138.1774-2.9652.5342-.0217.0081-.0431.0171-.0642.0268-.7136.3293-1.4813.7374-2.1511 1.2853-.0641.0525-.1195.1116-.166.1755-1.9968 1.7316-3.2354 4.4139-3.2354 7.4029v3.055c0 .5216.4228.9444.9444.9444s.9445-.4228.9445-.9444v-3.055c0-4.2994 3.0202-7.5205 6.7194-7.5357 3.6992.0152 6.7194 3.2363 6.7194 7.5357v3.055c0 .5216.4228.9444.9444.9444s.9445-.4228.9445-.9444v-3.055c0-2.989-1.2386-5.6713-3.2354-7.4029-.0465-.0639-.1019-.123-.166-.1755-.6698-.5479-1.4375-.956-2.1512-1.2853-.021-.0097-.0424-.0187-.0641-.0268-.9514-.3568-1.9594-.5342-2.9652-.5342-.0088 0-.0176 0-.0264.0001zm-5.922 15.3766c0-.5216.4229-.9445.9445-.9445h1.106c.4932 0 .9034.3796.9416.8713l.7224 9.2945h4.415l.7224-9.2945c.0382-.4917.4483-.8713.9416-.8713h1.106c.5216 0 .9444.4229.9444.9445s-.4228.9444-.9444.9444h-.2321l-.7224 9.2945c-.0382.4918-.4484.8713-.9416.8713h-6.1628c-.4932 0-.9034-.3795-.9416-.8713l-.7224-9.2945h-.2321c-.5216 0-.9445-.4228-.9445-.9444z" fill="#2d3436" fill-rule="evenodd"/></svg>