<svg fill="none" height="20" viewBox="0 0 20 20" width="20" xmlns="http://www.w3.org/2000/svg"><path d="m12.1086 7.95167c-.2897-.23703-.6321-.42138-.9745-.5794-.4213-.15802-.8691-.23702-1.31678-.23702-2.15956 0-3.8451 1.86987-3.8451 4.24015v1.5275l-.0263 1.4485h.0263 1.39583.55308l.39505 5.0828h2.29122-.0264.8165l.395-5.0828h.5531 1.3958.0263l-.0263-1.4485v-1.5275c0-2.37028-1.6855-4.24015-3.84505-4.24015-.47405 0-.92177.079-1.31681.23702-.34237.13168-.68479.34237-.97449.5794" fill="#d9eef9"/><path d="m12.3719 8.18872c-.0526 0-.1053 0-.1317 0-.0263 0-.0263 0-.0526 0-.1317 0-.2634-.00001-.3688.02633-.0526 0-.0789-.00001-.1053.02633-.079 0-.158.02634-.237.05268-.0526 0-.1053.02634-.1317.02634-.079.02634-.1317.02632-.2107.05266-.0526.02634-.1053.02634-.158.05268-.0263 0-.0527.02634-.079.02634-.0527.02634-.079.02633-.1053.05266-.0264.02634-.079.02634-.1054.05268-.1053.05267-.1843.10535-.2897.15802-.0263.02634-.0527.02633-.079.05266-.079.05268-.1317.07901-.2107.13168-.0263.02634-.079.05269-.1053.07903-.02636.02633-.05271.02632-.07905.05266-.9481.76374-1.5538 2.00153-1.5538 3.42373v1.5275l-.02637 1.4485h.02637 1.39582.55303l.316 4.0294h.7901l.395-5.0829h.5531 1.3959.0263l-.0263-1.4485v-1.5538c-.1054-1.2641-.6058-2.39659-1.3959-3.18668z" fill="#f0faff"/><path d="m9.81733 5.95011c1.48357 0 2.68627-1.22629 2.68627-2.73897 0-1.51269-1.2027-2.738972-2.68627-2.738972-1.48359 0-2.68627 1.226282-2.68627 2.738972 0 1.51268 1.20268 2.73897 2.68627 2.73897z" fill="#d9eef9"/><path d="m9.47495 4.2646c0 .63207.21067 1.21148.57935 1.68553 1.3432-.13168 2.4229-1.31682 2.4229-2.73897 0-.63207-.2106-1.21147-.5793-1.68553-1.3168.15802-2.42295 1.34316-2.42295 2.73897z" fill="#f0faff"/><path clip-rule="evenodd" d="m6.65883 3.21119c0-1.72367 1.41107-3.21119 3.1585-3.21119 1.71817 0 3.15847 1.48449 3.15847 3.21119 0 1.72367-1.411 3.21119-3.15847 3.21119-1.74743 0-3.1585-1.48752-3.1585-3.21119zm.94444 0c0 1.22598 1.01183 2.26675 2.21406 2.26675 1.17887 0 2.21407-1.0438 2.21407-2.26675s-1.0352-2.266745-2.21407-2.266745c-1.17886 0-2.21406 1.043795-2.21406 2.266745zm2.20088 3.4519c-.0044-.00002-.00879-.00002-.01318-.00002-.50295 0-1.00693.08869-1.48262.26708-.01086.00407-.02156.00854-.03208.0134-.3568.16467-.74069.36868-1.07557.64267-.03204.02622-.05974.05577-.08302.08774-.99838.8658-1.61768 2.20695-1.61768 3.70144v1.5275c0 .2608.21142.4722.47222.4722s.47222-.2114.47222-.4722v-1.5275c0-2.1497 1.5101-3.76024 3.35971-3.76786 1.84955.00762 3.35965 1.61816 3.35965 3.76786v1.5275c0 .2608.2115.4722.4723.4722s.4722-.2114.4722-.4722v-1.5275c0-1.49449-.6193-2.83564-1.6177-3.70144-.0233-.03197-.051-.06152-.083-.08774-.3349-.27399-.7188-.478-1.0756-.64267-.0105-.00486-.0212-.00933-.0321-.0134-.4756-.17839-.9796-.26708-1.48257-.26708-.0044 0-.00879 0-.01318.00002zm-2.96098 7.68831c0-.2608.21142-.4722.47222-.4722h.55302c.24661 0 .4517.1897.47081.4356l.36118 4.6473h2.2075l.3612-4.6473c.0191-.2459.2242-.4356.4708-.4356h.553c.2608 0 .4722.2114.4722.4722s-.2114.4722-.4722.4722h-.1161l-.3612 4.6473c-.0191.2458-.2242.4356-.4708.4356h-3.08134c-.24661 0-.4517-.1898-.47081-.4356l-.36118-4.6473h-.11608c-.2608 0-.47222-.2114-.47222-.4722z" fill="#2d3436" fill-rule="evenodd"/><path d="m13.2086 10.0146c.4429-.79714 1.5058-.79714 1.9486 0l4.0743 7.1743c.4428.7971-.1181 1.6828-1.0038 1.6828h-8.1781c-.88574 0-1.38766-.9447-1.00385-1.6828z" fill="#ffcd50"/><path d="m16.043 12.967c-.4429-.7971-1.5057-.7971-1.9486 0l-3.4248 5.9048h7.5581c.3839 0 .7086-.1772.9153-.4429z" fill="#ffda88"/><g clip-rule="evenodd" fill="#2d3436" fill-rule="evenodd"><path d="m14.793 10.2169c-.2841-.51141-.936-.51141-1.2201 0l-.0039.0067-4.15751 7.1651c-.24464.4834.09472 1.0663.63811 1.0663h8.1781c.5842 0 .9193-.5579.6404-1.0623zm.7274-.40653c-.6015-1.07989-2.0714-1.08049-2.674-.00182l-4.16105 7.17115c-.00322.0055-.00632.0112-.00928.0169-.51547.9913.14829 2.2917 1.37353 2.2917h8.1781c1.1866 0 1.9732-1.2124 1.368-2.3018z"/><path d="m13.7625 16.3725c.1079-.0913.2593-.1613.4205-.1613.1573 0 .3321.0488.468.1847.136.136.1848.3108.1848.4681 0 .1574-.0488.3322-.1848.4681-.1359.136-.3107.1848-.468.1848-.1574 0-.3322-.0489-.4681-.1848-.136-.136-.1848-.3107-.1848-.4681 0-.2243.1146-.3918.2324-.4915z"/><path d="m14.1829 12.1074c.2302 0 .4167.1866.4167.4167v2.6276c0 .2301-.1865.4167-.4167.4167-.2301 0-.4166-.1866-.4166-.4167v-2.6276c0-.2301.1865-.4167.4166-.4167z"/></g></svg>