<svg fill="none" height="25" viewBox="0 0 25 25" width="25" xmlns="http://www.w3.org/2000/svg"><path d="m17.0344 20.5639c.0059.0065.0119.0129.0182.0192.0928.0928.2129.1415.3343.1461.1347.0054.2711-.0432.3738-.146.0066-.0066.0129-.0132.019-.02l3.6852-3.6852c.1953-.1953.1953-.5119 0-.7071-.1953-.1953-.5119-.1953-.7071 0l-3.3511 3.3511-1.7094-1.7094c-.1953-.1952-.5118-.1952-.7071 0-.1953.1953-.1953.5119 0 .7071z" fill="#00ac83"/><path clip-rule="evenodd" d="m18.2288 13.3438c-2.698 0-4.885 2.187-4.885 4.885 0 2.6979 2.187 4.885 4.885 4.885 2.6979 0 4.885-2.1871 4.885-4.885 0-2.698-2.1871-4.885-4.885-4.885zm-5.885 4.885c0-3.2502 2.6348-5.885 5.885-5.885 3.2501 0 5.885 2.6348 5.885 5.885 0 3.2501-2.6349 5.885-5.885 5.885-3.2502 0-5.885-2.6349-5.885-5.885z" fill="#85949a" fill-rule="evenodd"/><g fill="#2d3436"><path clip-rule="evenodd" d="m4.33252.972538c.36863-.128863.76229-.1991 1.16998-.1991 2.01587 0 3.68891 1.717332 3.68891 3.747962 0 1.62032-1.06524 3.04116-2.51989 3.5492-.36864.12886-.7623.1991-1.16998.1991-2.01587 0-3.68891-1.71733-3.68891-3.74796 0-1.62033 1.06523-3.04117 2.51989-3.549202zm.32592.946252c-1.05413.37119-1.84485 1.40942-1.84485 2.60261 0 1.49573 1.24254 2.74796 2.68891 2.74796.2922 0 .57609-.05111.84309-.14501 1.05414-.37119 1.84486-1.40943 1.84486-2.60261 0-1.49573-1.24254-2.74797-2.68891-2.74797-.29221 0-.57609.05111-.8431.14502z" fill-rule="evenodd"/><path d="m3.09256 10.523.0074-.0059.03172-.0254c.66769-.52697 1.48677-.83057 2.36922-.83057.2391 0 .47237.02189.69847.06393.5104.09543.98881.29454 1.41565.57934.09923.0664.19566.1375.28906.2131.0063.0051.0127.01.01917.0147.99097.8085 1.63547 2.1161 1.63547 3.6513v1.8123c0 .2761.22386.5.49998.5.2762 0 .5-.2239.5-.5v-1.8123c0-3.0418-2.18349-5.5227-5.05556-5.5227-.12457 0-.24803.00473-.37024.01405-2.68854.20153-4.687588 2.59845-4.687588 5.50895v1.8123c0 .2761.223858.5.5.5.276138 0 .499998-.2239.499998-.5v-1.8123c0-1.5412.64962-2.8531 1.64725-3.6608z"/><path d="m7.28235 17.6617c.01971-.2608.23706-.4623.49858-.4623h.65279c.27615 0 .5.2238.5.5 0 .2761-.22385.5-.5.5h-.18915l-.42062 5.5649c-.01971.2608-.23705.4623-.49858.4623h-.91531l-.00842.0002-.01007.0001h-2.71291c-.26152 0-.47886-.2015-.49857-.4623l-.42062-5.5649h-.18916c-.27614 0-.5-.2238-.5-.5 0-.2761.22386-.5.5-.5h.6528c.26152 0 .47886.2015.49857.4623l.42062 5.5649h2.20403l.01057-.0002.00792-.0001h.49692z"/><path d="m10.6015 17.6848c0-.003.0001-.006.0001-.009 0-.2762-.2239-.5-.5-.5-.14518 0-.27589.0618-.36723.1606-.09615.0911-.15612.2201-.15612.363 0 .2761.22386.5.50005.5h.0234c.2761 0 .5-.2239.5-.5 0-.0049-.0001-.0098-.0002-.0146z"/><path d="m.402344 17.6997.00014-.012-.00014-.0119c0-.2762.223857-.5.5-.5.145986 0 .277356.0625.368766.1623.0953.0911.15467.2194.15467.3616 0 .2762-.22386.5-.499999.5h-.023437c-.276143 0-.5-.2238-.5-.5z"/></g></svg>