<svg fill="none" height="25" viewBox="0 0 25 25" width="25" xmlns="http://www.w3.org/2000/svg"><path d="m13.7382 11.703v-8.19128c0-1.10457-.8954-2-2-2h-7.2382c-1.10457 0-2 .89543-2 2v17.98788c0 1.1045.89543 2 2 2h7.2382c1.1046 0 2-.8955 2-2v-1.3457" stroke="#2d3436" stroke-linecap="round" stroke-linejoin="round"/><rect height="3.39757" rx="1.5" stroke="#2d3436" width="16.5292" x="5.83984" y="14.9912"/><g fill="#f18303"><circle cx="10.6484" cy="10.8564" r=".5"/><circle cx="10.6484" cy="7.9248" r=".5"/><circle cx="10.6484" cy="4.99316" r=".5"/><circle cx="8.13281" cy="10.8555" r=".5"/><circle cx="8.13281" cy="7.92383" r=".5"/><circle cx="8.13281" cy="4.99219" r=".5"/><circle cx="5.61719" cy="10.8545" r=".5"/><circle cx="5.61719" cy="7.92285" r=".5"/><circle cx="5.61719" cy="4.99121" r=".5"/></g></svg>