<svg fill="none" height="25" viewBox="0 0 25 25" width="25" xmlns="http://www.w3.org/2000/svg"><path d="m13.6879 10.8722c0-.8395.6805-1.52004 1.52-1.52004.4622 0 .8369-.37471.8369-.83695v-.7828c0-.41973.3403-.76.76-.76h2.4601c.4197 0 .76.34027.76.76v.78236c0 .46248.3749.83739.8374.83739.8394 0 1.52.68054 1.52 1.52004v11.3008c0 .8395-.6806 1.52-1.52 1.52h-5.6544c-.8395 0-1.52-.6805-1.52-1.52z" fill="#00ac83"/><g clip-rule="evenodd" fill="#2d3436" fill-rule="evenodd"><path d="m11.626 20.1937c-.3519.0267-.7266.0426-1.1188.0426-2.93548 0-5.62553-.4584-7.6532-1.2226-.92638-.3492-1.44521-1.2559-1.44521-2.1845l-.00053-13.046c0-.93662.52793-1.84905 1.46454-2.19311 2.0247-.743742 4.70712-1.189731 7.6339-1.189731 2.9269.000001 5.6096.446069 7.6343 1.189931.9366.34408 1.4645 1.25649 1.4645 2.19305v1.29744c0 .27615-.2239.5-.5.5-.2762 0-.5-.22386-.5-.5v-1.29744c0-.58012-.3222-1.07544-.8093-1.25439-1.8917-.69499-4.4535-1.12859-7.2895-1.12859-2.83589 0-5.39742.43353-7.28909 1.12841-.48712.17893-.80935.67428-.80935 1.2544l.00053 13.04603c0 .5754.31686 1.0674.7979 1.2487 1.89198.7131 4.45826 1.1584 7.30051 1.1584.3652 0 .7146-.0148 1.0433-.0397.2754-.0209.5155.1855.5364.4608.0208.2754-.1855.5155-.4609.5363z"/><path d="m10.5 8c-.2761 0-.5-.22386-.5-.5s.2239-.5.5-.5.5.22386.5.5-.2239.5-.5.5zm-1.5.5c0 .27614.22386.5.5.5s.5-.22386.5-.5-.22386-.5-.5-.5-.5.22386-.5.5zm2.5.5c-.2761 0-.5-.22386-.5-.5s.2239-.5.5-.5.5.22386.5.5-.2239.5-.5.5zm-3.5.5c0 .27614.22386.5.5.5s.5-.22386.5-.5-.22386-.5-.5-.5-.5.22386-.5.5zm2.5.5c-.2761 0-.5-.22386-.5-.5s.2239-.5.5-.5.5.22386.5.5-.2239.5-.5.5zm-1.5.5c0 .2761.22386.5.5.5s.5-.2239.5-.5-.22386-.5-.5-.5-.5.2239-.5.5zm2.5.5c-.2761 0-.5-.2239-.5-.5s.2239-.5.5-.5.5.2239.5.5-.2239.5-.5.5zm-3.5.5c0 .2761.22386.5.5.5s.5-.2239.5-.5-.22386-.5-.5-.5-.5.2239-.5.5zm2.5.5c-.2761 0-.5-.2239-.5-.5s.2239-.5.5-.5.5.2239.5.5-.2239.5-.5.5zm.5.5c0 .2761.2239.5.5.5s.5-.2239.5-.5-.2239-.5-.5-.5-.5.2239-.5.5zm-2 0c0 .2761.22386.5.5.5s.5-.2239.5-.5-.22386-.5-.5-.5-.5.2239-.5.5z"/><path d="m16.8045 6.47266h2.46c.6959 0 1.26.56412 1.26 1.26v.78236c0 .18633.1511.33739.3374.33739 1.1156 0 2.02.90438 2.02 2.01999v11.3009c0 1.1156-.9044 2.02-2.02 2.02h-5.6544c-1.1156 0-2.02-.9044-2.02-2.02v-11.3009c0-1.11561.9044-2.01999 2.02-2.01999.1861 0 .337-.15086.337-.33695v-.7828c0-.69588.5641-1.26 1.26-1.26zm2.46 1h-2.46c-.1436 0-.26.1164-.26.26v.7828c0 .73837-.5986 1.33695-1.337 1.33695-.5633 0-1.02.45669-1.02 1.01999v11.3009c0 .5633.4567 1.02 1.02 1.02h5.6544c.5633 0 1.02-.4567 1.02-1.02v-11.3009c0-.5633-.4567-1.01999-1.02-1.01999-.7386 0-1.3374-.59878-1.3374-1.33739v-.78236c0-.1436-.1164-.26-.26-.26z"/></g></svg>