<svg fill="none" height="28" viewBox="0 0 27 28" width="27" xmlns="http://www.w3.org/2000/svg"><rect fill="#f1f3fa" height="27" rx="10" width="27" y=".5"/><g fill="#2d3436"><path d="m9.72388 5.31055c1.21342 0 2.31022.82549 2.56972 2.00445.3272.00975.6463.11438.9191.31899.404.30295.5852.78874.5852 1.24289 0 .38845-.1837.84682-.4725 1.13552-.1502.1503-.3439.2702-.5483.3423-.2027.0716-.443.1053-.6781.0465-.201-.0503-.3231-.2539-.2729-.45478.0502-.20092.2538-.32309.4548-.27285.0549.01374.1411.01116.2466-.02609.1039-.03666.2003-.09807.2676-.1654.1465-.14646.2528-.4134.2528-.6052 0-.27115-.1088-.51066-.2852-.64289-.198-.14856-.4503-.20318-.7168-.14987-.1062.02123-.2163-.00445-.3022-.07044-.0858-.06599-.1389-.16585-.1456-.27389-.0591-.94427-.8926-1.67924-1.87422-1.67924-.65011 0-1.3212.4223-1.62291 1.02572-.06352.12704-.19337.20729-.33541.20729-.36075 0-.69144.12147-.89532.32535-.00978.00978-.0201.01902-.03091.02766-.26307.21046-.36697.45954-.36697.79513 0 .62532.45 1.15988 1.02142 1.22067h2.2301c.20711 0 .37502.16789.37502.37503 0 .2071-.16791.375-.37502.375h-2.24844c-.01134 0-.02266-.0005-.03395-.0016-1.01686-.0924-1.71913-1.00443-1.71913-1.9691 0-.52859.18195-.99999.63255-1.36793.31977-.31157.753-.47692 1.18504-.51919.46033-.74111 1.31324-1.24403 2.18393-1.24403z"/><path d="m10.9815 10.4316c.2071 0 .375-.1679.375-.375 0-.20707-.1679-.37496-.375-.37496s-.375.16789-.375.37496c0 .2071.1679.375.375.375z"/><path d="m23.38 19.7109c0 .2071-.1679.375-.375.375s-.375-.1679-.375-.375.1679-.375.375-.375.375.1679.375.375z"/><path clip-rule="evenodd" d="m19.0816 8.57422c.8707 0 1.7236.50292 2.1839 1.24403.432.04227.8653.20765 1.185.51915.4506.368.6326.8394.6326 1.368 0 .9646-.7023 1.8767-1.7191 1.9691-.0113.001-.0227.0015-.034.0015h-4.6419c-.3264 0-.8123-.0766-1.1356-.3999-.2887-.2887-.4725-.7471-.4725-1.1355 0-.4464.1751-.9233.5646-1.2272.2353-.2238.5504-.3245.8671-.3344.2594-1.17914 1.3564-2.00478 2.5699-2.00478zm1.6229 1.77568c-.3017-.60338-.9728-1.02568-1.6229-1.02568-.9817 0-1.8152.73498-1.8742 1.67928-.0068.108-.0599.2079-.1457.2738-.0858.066-.196.0917-.3021.0705-.2845-.0569-.5033.0141-.6042.115-.0126.0126-.026.0242-.0402.0349-.1763.1322-.2852.3717-.2852.6429 0 .1918.1064.4587.2529.6052.1118.1118.3481.1802.6052.1802h4.6236c.5714-.0608 1.0214-.5953 1.0214-1.2206 0-.3356-.1039-.5847-.367-.7952-.0108-.0086-.0211-.0178-.0309-.0276-.2039-.2039-.5346-.3254-.8953-.3254-.1421 0-.2719-.0802-.3354-.2073z" fill-rule="evenodd"/><path d="m15.8788 19.043c.031.001.0626-.0018.0942-.0088.1351-.03.2368-.1294.2761-.2524.0151-.0472.0209-.098.0159-.1496-.0018-.0189-.005-.0373-.0095-.0553-.3351-1.4863-1.6576-2.4597-3.1925-2.4597-.8206 0-1.6426.3268-2.2235.9077-.1464.1464-.1464.3838 0 .5303.1465.1464.3839.1464.5303 0 .4346-.4345 1.0632-.688 1.6932-.688 1.044 0 1.9249.5607 2.3119 1.4258h-5.0681c-.2071 0-.37496.1679-.37496.375s.16786.375.37496.375z"/><path clip-rule="evenodd" d="m6.46154 21.9447h.85032c.25961.429.73208.7254 1.25358.7254.52166 0 .99426-.2966 1.25382-.7258h4.89084c.2595.4292.7321.7258 1.2538.7258.5216 0 .9942-.2966 1.2538-.7258h1.1201c.0121.0006.0243.0006.0366 0h.4899c.2071 0 .375-.1679.375-.375s-.1679-.375-.375-.375h-.1917l-.3812-2.2238c-.3934-2.5085-2.5863-4.3035-5.0845-4.3035-2.1752 0-4.12603 1.2445-4.98537 3.2705l-.26374.5802c-.7141.0397-1.32336.259-1.73746.7145-.45974.5057-.608 1.224-.49593 2.0762.00675.1914.08178.3784.25626.503.158.1129.34331.1333.48088.1333zm3.56676-.7504c-.0072-.7818-.67976-1.4502-1.46286-1.4502-.78322 0-1.45587.6686-1.4629 1.4506h-.6366c-.09105-.7143.05181-1.1747.30935-1.458.26469-.2911.72309-.4756 1.42698-.4756.14706 0 .28054-.086.34139-.2198l.36675-.8069c.73734-1.7428 2.41159-2.8174 4.29649-2.8174 2.1428 0 4.0108 1.5401 4.3439 3.6721l.0009.0054.36 2.0998h-.4849c-.0073-.7818-.6798-1.4502-1.4629-1.4502s-1.4557.6684-1.4629 1.4502zm-1.46286-.7002c.37314 0 .71296.3399.71296.713s-.33982.713-.71296.713c-.37313 0-.71295-.3399-.71295-.713s.33982-.713.71295-.713zm8.04696.9938c.0079-.0356.0209-.0694.0381-.1004.0171-.0584.0263-.1189.0263-.1804 0-.3731-.3398-.713-.7129-.713-.3732 0-.713.3399-.713.713s.3398.713.713.713c.2754 0 .5326-.1852.6485-.4322z" fill-rule="evenodd"/><path d="m5.567 18.476c-.14645-.1464-.38388-.1464-.53033 0-.41079.4108-.73191.9756-.89324 1.5403-.0569.1991.05841.4067.25755.4636s.4067-.0585.46359-.2576c.12879-.4508.38792-.9014.70243-1.2159.14645-.1465.14645-.3839 0-.5304z"/><path d="m22.3565 20.6272c0-.6218-.5106-1.2454-1.2453-1.2454-.2071 0-.375.1679-.375.375s.1679.375.375.375c.2807 0 .4953.2468.4953.4954 0 .0956-.0516.2226-.1621.3332-.1106.1106-.2376.1622-.3332.1622-.2807 0-.4954-.2468-.4954-.4954 0-.2071-.1679-.375-.375-.375s-.375.1679-.375.375c0 .6218.5106 1.2454 1.2454 1.2454.3395 0 .6477-.166.8635-.3819.2158-.2158.3818-.5239.3818-.8635z"/><path d="m21.1104 17.2051c.2071 0 .375.1679.375.375s-.1679.375-.375.375c-.2485 0-.4953.2146-.4953.4953 0 .2071-.1679.375-.375.375s-.375-.1679-.375-.375c0-.7347.6235-1.2453 1.2453-1.2453z"/></g></svg>