<svg fill="none" height="25" viewBox="0 0 25 25" width="25" xmlns="http://www.w3.org/2000/svg"><path clip-rule="evenodd" d="m6.78516 2.03516c-1.933 0-3.5 1.567-3.5 3.5v13.75644c0 1.933 1.567 3.5 3.5 3.5h3.69664c.1709.1492.3945.2396.6393.2396h2.7572c.2448 0 .4684-.0904.6393-.2396h3.6968c1.933 0 3.5-1.567 3.5-3.5v-13.75644c0-1.933-1.567-3.5-3.5-3.5zm-.28516 2.96484c.27614 0 .5-.22386.5-.5s-.22386-.5-.5-.5-.5.22386-.5.5.22386.5.5.5zm0 2c.27614 0 .5-.22386.5-.5s-.22386-.5-.5-.5-.5.22386-.5.5.22386.5.5.5zm-.05764 1.99671c.02762.00473.05601.0072.08497.0072l3.57787.00007c1.4947 0 2.625 1.13032 2.625 2.62502v3.6001l-.9977-.9977c-.1953-.1953-.5119-.1953-.7071 0-.1953.1953-.1953.5119 0 .7071l1.8212 1.8213c.1953.1953.5119.1953.7072 0l1.8212-1.8213c.1953-.1952.1953-.5118 0-.7071-.1952-.1953-.5118-.1953-.7071 0l-.9377.9377v-3.5401c0-2.04699-1.578-3.62501-3.625-3.62502l-3.54239-.00007c-.02057-.00258-.04154-.00391-.06281-.00391-.27614 0-.5.22386-.5.5 0 .25665.19337.46814.44236.49671zm.05764 2.00329c.27614 0 .5-.2239.5-.5s-.22386-.5-.5-.5-.5.2239-.5.5.22386.5.5.5zm.5 1.5c0 .2761-.22386.5-.5.5s-.5-.2239-.5-.5.22386-.5.5-.5.5.2239.5.5zm-.5 2.5c.27614 0 .5-.2239.5-.5s-.22386-.5-.5-.5-.5.2239-.5.5.22386.5.5.5zm.5 1.5c0 .2761-.22386.5-.5.5s-.5-.2239-.5-.5.22386-.5.5-.5.5.2239.5.5zm-.5 2.5c.27614 0 .5-.2239.5-.5s-.22386-.5-.5-.5-.5.2239-.5.5.22386.5.5.5zm.5 1.5c0 .2761-.22386.5-.5.5s-.5-.2239-.5-.5.22386-.5.5-.5.5.2239.5.5zm11.5-15.5c.2761 0 .5-.22386.5-.5s-.2239-.5-.5-.5-.5.22386-.5.5.2239.5.5.5zm.5 1.5c0 .27614-.2239.5-.5.5s-.5-.22386-.5-.5.2239-.5.5-.5.5.22386.5.5zm-.5 2.5c.2761 0 .5-.22386.5-.5s-.2239-.5-.5-.5-.5.22386-.5.5.2239.5.5.5zm.5 1.5c0 .2761-.2239.5-.5.5s-.5-.2239-.5-.5.2239-.5.5-.5.5.2239.5.5zm-.5 2.5c.2761 0 .5-.2239.5-.5s-.2239-.5-.5-.5-.5.2239-.5.5.2239.5.5.5zm.5 1.5c0 .2761-.2239.5-.5.5s-.5-.2239-.5-.5.2239-.5.5-.5.5.2239.5.5zm-.5 2.5c.2761 0 .5-.2239.5-.5s-.2239-.5-.5-.5-.5.2239-.5.5.2239.5.5.5zm.5 1.5c0 .2761-.2239.5-.5.5s-.5-.2239-.5-.5.2239-.5.5-.5.5.2239.5.5zm-.5 2.5c.2761 0 .5-.2239.5-.5s-.2239-.5-.5-.5-.5.2239-.5.5.2239.5.5.5z" fill="#2d3436" fill-rule="evenodd"/></svg>