<svg fill="none" height="25" viewBox="0 0 25 25" width="25" xmlns="http://www.w3.org/2000/svg"><path d="m12.3164 11.0352c-1.1046 0-2 .8954-2 2v5.5823c0 1.1046.8954 2 2 2h2.5713c.4355 0 .8108.288 1.0105.675.7259 1.4067 2.1933 2.3685 3.8854 2.3685.2665 0 .381-.32.2231-.5347-.3267-.4442-.5715-.9524-.7118-1.5025-.1383-.5417.3236-1.0063.8827-1.0063h1.3207c1.1045 0 2-.8954 2-2v-5.5823c0-1.1046-.8955-2-2-2z" stroke="#85949a" stroke-linecap="round" stroke-linejoin="round"/><path clip-rule="evenodd" d="m14.7479 2.20914c-3.807-.48441-6.59904-.49937-10.3611-.01035-1.07135.13926-1.91157.9922-2.04079 2.06848-.44734 3.72596-.47211 6.50633-.00881 10.36603.13076 1.0895.99338 1.9457 2.08342 2.0676 1.45368.1626 2.7723.2597 4.05671.2941.27605.0073.49384.2371.48647.5131-.00738.2761-.23714.4939-.51319.4865-1.31722-.0352-2.66438-.1347-4.14115-.2999-1.55172-.1736-2.7791-1.3923-2.96514-2.9422-.473198-3.9422-.447612-6.80273.00882-10.60443.18331-1.52685 1.37614-2.74223 2.90475-2.94093 3.85106-.500593 6.72891-.484629 10.61631.00999 1.5287.19452 2.7312 1.40067 2.9224 2.92945.2306 1.84411.3571 3.46275.3721 5.07487.0026.27613-.2192.50206-.4953.50463-.2762.00257-.5021-.2192-.5046-.49533-.0146-1.56438-.1373-3.14347-.3645-4.96006-.1346-1.07606-.981-1.92472-2.0564-2.06155z" fill="#2d3436" fill-rule="evenodd"/></svg>