<svg fill="none" height="25" viewBox="0 0 25 25" width="25" xmlns="http://www.w3.org/2000/svg"><path d="m8.94778 5.28645c.19527-.19527.19527-.51185 0-.70711-.19526-.19526-.51184-.19526-.7071 0l-1.45226 1.45226-1.47939-1.47939c-.19527-.19526-.51185-.19526-.70711 0s-.19526.51184 0 .7071l1.47939 1.4794-1.54579 1.54579c-.19527.19527-.19527.51185 0 .70711.19526.19526.51184.19526.7071 0l1.5458-1.5458 1.51866 1.51867c.19527.19526.51185.19526.70711 0s.19526-.51185 0-.70711l-1.51866-1.51866z" fill="#f18303"/><path clip-rule="evenodd" d="m6.77171 11.6567c2.69791 0 4.88499-2.18705 4.88499-4.88496s-2.18708-4.885-4.88499-4.885-4.885 2.18709-4.885 4.885 2.18709 4.88496 4.885 4.88496zm5.88499-4.88496c0 3.25016-2.6348 5.88496-5.88499 5.88496-3.2502 0-5.885003-2.6348-5.885003-5.88496 0-3.2502 2.634803-5.885002 5.885003-5.885002 3.25019 0 5.88499 2.634802 5.88499 5.885002z" fill="#85949a" fill-rule="evenodd"/><g fill="#2d3436"><path d="m8.894 22.6826c4.3494.566 7.4748.5835 11.7724.0107 1.0722-.1429 1.9119-.9952 2.0442-2.072.5228-4.2569.5523-7.3686.0093-11.78124-.1342-1.09011-.997-1.94641-2.0878-2.07169-2.337-.2684-4.3522-.38488-6.3854-.35781-.2761.00368-.5029-.21718-.5066-.4933s.2172-.50293.4933-.50661c2.0832-.02774 4.1417.09193 6.5128.36425 1.55.17803 2.7757 1.39479 2.9662 2.94302.5534 4.49728.523 7.69108-.0093 12.02518-.1873 1.5255-1.3779 2.738-2.9046 2.9414-4.3888.585-7.6021.5664-12.03356-.0103-1.52716-.1987-2.72764-1.4031-2.92293-2.9303-.30609-2.3937-.45468-4.4332-.43328-6.509.00285-.2761.229-.4976.50513-.4948s.49766.229.49482.5051c-.02081 2.0181.12325 4.0101.42525 6.3719.13769 1.0767.98404 1.9254 2.06007 2.0655z"/><path d="m14.7596 18.9481c2.3127 0 4.1875-1.8748 4.1875-4.1875s-1.8748-4.1875-4.1875-4.1875c-.4903 0-.96.084-1.3959.2381-.2604.092-.546-.0444-.638-.3048-.0921-.2603.0444-.54599.3048-.63801.5414-.19139 1.1237-.29531 1.7291-.29531 2.865 0 5.1875 2.32252 5.1875 5.18752s-2.3225 5.1875-5.1875 5.1875-5.18753-2.3225-5.18753-5.1875c0-.6054.10392-1.1877.29531-1.7291.09203-.2604.37772-.3969.63802-.3048.2604.092.3968.3776.3048.638-.1541.4359-.2381.9056-.2381 1.3959 0 2.3127 1.8748 4.1875 4.1875 4.1875z"/><path d="m15.8221 20.5321c-.2762 0-.5.2238-.5.5 0 .2761.2238.5.5.5.2761 0 .5-.2239.5-.5 0-.2762-.2239-.5-.5-.5z"/><path d="m13.24 21.0321c0-.2762.2239-.5.5-.5.2762 0 .5.2238.5.5 0 .2761-.2238.5-.5.5-.2761 0-.5-.2239-.5-.5z"/><path d="m8.53301 14.2821c-.27614 0-.5.2238-.5.5 0 .2761.22386.5.5.5s.5-.2239.5-.5c0-.2762-.22386-.5-.5-.5z"/><path d="m6.99004 15.8231c0-.2762.22386-.5.5-.5s.5.2238.5.5c0 .2761-.22386.5-.5.5s-.5-.2239-.5-.5z"/><path d="m8.53301 16.3651c-.27614 0-.5.2238-.5.5 0 .2761.22386.5.5.5s.5-.2239.5-.5c0-.2762-.22386-.5-.5-.5z"/><path d="m6.99004 17.9071c0-.2762.22386-.5.5-.5s.5.2238.5.5c0 .2761-.22386.5-.5.5s-.5-.2239-.5-.5z"/><path d="m16.865 21.5731c-.2761 0-.5.2238-.5.5 0 .2761.2239.5.5.5.2762 0 .5-.2239.5-.5 0-.2762-.2238-.5-.5-.5z"/><path d="m14.283 22.0731c0-.2762.2239-.5.5-.5.2762 0 .5.2238.5.5 0 .2761-.2238.5-.5.5-.2761 0-.5-.2239-.5-.5z"/><path d="m17.908 9.07308c-.2761 0-.5.22386-.5.5s.2239.50002.5.50002c.2762 0 .5-.22388.5-.50002s-.2238-.5-.5-.5z"/><path d="m19.49 9.57308c0-.27614.2239-.5.5-.5.2762 0 .5.22386.5.5s-.2238.50002-.5.50002c-.2761 0-.5-.22388-.5-.50002z"/><path d="m18.9471 8.03206c-.2762 0-.5.22386-.5.5 0 .27615.2238.5.5.5.2761 0 .5-.22385.5-.5 0-.27614-.2239-.5-.5-.5z"/><path d="m18.4471 10.6151c0-.2762.2238-.5.5-.5.2761 0 .5.2238.5.5 0 .2761-.2239.5-.5.5-.2762 0-.5-.2239-.5-.5z"/><path d="m21.033 8.03206c-.2761 0-.5.22386-.5.5 0 .27615.2239.5.5.5.2762 0 .5-.22385.5-.5 0-.27614-.2238-.5-.5-.5z"/><path d="m17.408 7.49007c0-.27614.2239-.5.5-.5.2762 0 .5.22386.5.5s-.2238.5-.5.5c-.2761 0-.5-.22386-.5-.5z"/><path d="m19.99 6.99007c-.2761 0-.5.22386-.5.5s.2239.5.5.5c.2762 0 .5-.22386.5-.5s-.2238-.5-.5-.5z"/></g></svg>