<svg fill="none" height="25" viewBox="0 0 25 25" width="25" xmlns="http://www.w3.org/2000/svg"><path d="m17.0344 20.5639c.0059.0065.0119.0129.0182.0192.0928.0928.2129.1415.3343.1461.1347.0054.2711-.0432.3738-.146.0066-.0066.0129-.0132.019-.02l3.6852-3.6852c.1953-.1953.1953-.5119 0-.7071-.1953-.1953-.5119-.1953-.7071 0l-3.3511 3.3511-1.7094-1.7094c-.1953-.1952-.5118-.1952-.7071 0-.1953.1953-.1953.5119 0 .7071z" fill="#00ac83"/><path clip-rule="evenodd" d="m18.2288 13.3438c-2.698 0-4.885 2.187-4.885 4.885 0 2.6979 2.187 4.885 4.885 4.885 2.6979 0 4.885-2.1871 4.885-4.885 0-2.698-2.1871-4.885-4.885-4.885zm-5.885 4.885c0-3.2502 2.6348-5.885 5.885-5.885 3.2501 0 5.885 2.6348 5.885 5.885 0 3.2501-2.6349 5.885-5.885 5.885-3.2502 0-5.885-2.6349-5.885-5.885z" fill="#85949a" fill-rule="evenodd"/><g fill="#2d3436"><path d="m16.1078 2.31825c-4.3494-.56602-7.4748-.58357-11.77245-.01075-1.07221.14292-1.91193.99526-2.04417 2.07206-.5228 4.25682-.55231 7.36854-.00929 11.78124.13415 1.0901.99698 1.9464 2.08779 2.0716 2.33694.2684 4.35222.3849 6.38542.3579.2761-.0037.5029.2171.5066.4933.0037.2761-.2172.5029-.4933.5066-2.08325.0277-4.14175-.092-6.51282-.3643-1.55007-.178-2.77568-1.3948-2.9662-2.943-.553443-4.4973-.523043-7.69105.00925-12.02524.18735-1.52547 1.37797-2.73791 2.9046-2.94139 4.38885-.58498 7.60217-.566359 12.03357.01034 1.5272.19874 2.7277 1.4031 2.9229 2.9303.3061 2.39374.4547 4.4332.4333 6.50899-.0028.2761-.229.4977-.5051.4948-.2761-.0028-.4977-.229-.4948-.5051.0208-2.0181-.1233-4.01009-.4253-6.37185-.1377-1.07673-.984-1.92547-2.06-2.0655z"/><path d="m10.2383 6.05176c-2.31271 0-4.18752 1.87481-4.18752 4.18754 0 2.3127 1.87481 4.1875 4.18752 4.1875.4903 0 .9599-.0841 1.3959-.2382.2603-.092.546.0444.638.3048s-.0444.546-.3048.638c-.5415.1914-1.1237.2954-1.7291.2954-2.865 0-5.18752-2.3226-5.18752-5.1875 0-2.86502 2.32252-5.18754 5.18752-5.18754s5.1875 2.32252 5.1875 5.18754c0 .6054-.1039 1.1876-.2953 1.7291-.0921.2603-.3777.3968-.6381.3048-.2603-.092-.3968-.3777-.3048-.6381.1541-.4359.2382-.9055.2382-1.3958 0-2.31273-1.8748-4.18754-4.1875-4.18754z"/><path d="m9.17578 4.46875c.27614 0 .5-.22386.5-.5s-.22386-.5-.5-.5-.5.22386-.5.5.22386.5.5.5z"/><path d="m11.7617 3.96875c0 .27614-.2238.5-.5.5-.2761 0-.5-.22386-.5-.5s.2239-.5.5-.5c.2762 0 .5.22386.5.5z"/><path d="m16.4688 10.7188c.2761 0 .5-.2239.5-.5 0-.27619-.2239-.50005-.5-.50005-.2762 0-.5.22386-.5.50005 0 .2761.2238.5.5.5z"/><path d="m18.0117 9.17676c0 .27614-.2238.5-.5.5-.2761 0-.5-.22386-.5-.5s.2239-.5.5-.5c.2762 0 .5.22386.5.5z"/><path d="m16.4688 8.63574c.2761 0 .5-.22386.5-.5s-.2239-.5-.5-.5c-.2762 0-.5.22386-.5.5s.2238.5.5.5z"/><path d="m18.0117 7.09375c0 .27614-.2238.5-.5.5-.2761 0-.5-.22386-.5-.5s.2239-.5.5-.5c.2762 0 .5.22386.5.5z"/><path d="m8.13672 3.42676c.27614 0 .5-.22386.5-.5s-.22386-.5-.5-.5-.5.22386-.5.5.22386.5.5.5z"/><path d="m10.7188 2.92676c0 .27614-.2239.5-.5.5-.27619 0-.50005-.22386-.50005-.5s.22386-.5.50005-.5c.2761 0 .5.22386.5.5z"/><path d="m7.09375 15.9268c.27614 0 .5-.2239.5-.5 0-.2762-.22386-.5-.5-.5s-.5.2238-.5.5c0 .2761.22386.5.5.5z"/><path d="m5.51172 15.4268c0 .2761-.22386.5-.5.5s-.5-.2239-.5-.5c0-.2762.22386-.5.5-.5s.5.2238.5.5z"/><path d="m6.05078 16.9688c.27614 0 .5-.2239.5-.5 0-.2762-.22386-.5-.5-.5s-.5.2238-.5.5c0 .2761.22386.5.5.5z"/><path d="m6.55078 14.3857c0 .2762-.22386.5-.5.5s-.5-.2238-.5-.5c0-.2761.22386-.5.5-.5s.5.2239.5.5z"/><path d="m3.96875 16.9688c.27614 0 .5-.2239.5-.5 0-.2762-.22386-.5-.5-.5s-.5.2238-.5.5c0 .2761.22386.5.5.5z"/><path d="m7.59375 17.5107c0 .2762-.22386.5-.5.5s-.5-.2238-.5-.5c0-.2761.22386-.5.5-.5s.5.2239.5.5z"/><path d="m5.01172 18.0107c.27614 0 .5-.2238.5-.5 0-.2761-.22386-.5-.5-.5s-.5.2239-.5.5c0 .2762.22386.5.5.5z"/></g></svg>