<svg fill="none" height="25" viewBox="0 0 25 25" width="25" xmlns="http://www.w3.org/2000/svg" xmlns:xlink="http://www.w3.org/1999/xlink"><linearGradient id="a"><stop offset="0" stop-color="#f94409"/><stop offset="1" stop-color="#f18303"/></linearGradient><linearGradient id="b" gradientUnits="userSpaceOnUse" x1="12.5" x2="12.5" xlink:href="#a" y1="0" y2="25"/><linearGradient id="c" gradientUnits="userSpaceOnUse" x1="12.46" x2="12.46" xlink:href="#a" y1="4.5" y2="21.0996"/><path clip-rule="evenodd" d="m12.5 24c6.3513 0 11.5-5.1487 11.5-11.5 0-6.35127-5.1487-11.5-11.5-11.5-6.35127 0-11.5 5.14873-11.5 11.5 0 6.3513 5.14873 11.5 11.5 11.5zm0 1c6.9036 0 12.5-5.5964 12.5-12.5 0-6.90356-5.5964-12.5-12.5-12.5-6.90356 0-12.5 5.59644-12.5 12.5 0 6.9036 5.59644 12.5 12.5 12.5z" fill="url(#b)" fill-rule="evenodd"/><g fill="url(#c)"><path d="m16.832 14.4582c0 .1918-.1555.3473-.3473.3473s-.3473-.1555-.3473-.3473.1555-.3473.3473-.3473.3473.1555.3473.3473z"/><path d="m15.4401 14.4582c.1918 0 .3473-.1555.3473-.3473s-.1555-.3473-.3473-.3473-.3473.1555-.3473.3473.1555.3473.3473.3473z"/><path clip-rule="evenodd" d="m16.4852 4.5c-.1472 0-.2561.07141-.3099.11176-.0542.04062-.1035.09-.1335.12007l-.0052.00526c-.0214.02136-.0399.04542-.055.07157-.0512.0884-.1116.19201-.1798.30884-.4241.72712-1.1472 1.9667-1.8003 3.24355-.3791.74122-.7384 1.50194-1.0036 2.18835-.2608.6747-.4475 1.3187-.4475 1.8109 0 2.1547 1.78 3.9346 3.9348 3.9346s3.9348-1.7799 3.9348-3.9346c0-.4918-.1865-1.1398-.4471-1.8196-.2652-.69157-.6244-1.45861-1.0036-2.20431-.7589-1.4921-1.6102-2.92213-1.9847-3.53482-.0143-.02343-.0313-.04507-.0508-.06448l-.0052-.00522c-.03-.03007-.0793-.07948-.1335-.12011-.0538-.04035-.1627-.11176-.3099-.11176zm-.0851.9704.0873-.14967c.4059.67053 1.1741 1.97659 1.8627 3.33055.3738.73491.7211 1.47812.9742 2.13812.2576.6718.4011 1.2167.4011 1.5709 0 1.7711-1.469 3.24-3.2402 3.24s-3.2402-1.4689-3.2402-3.24c0-.3538.1433-.8943.4008-1.5605.253-.6547.6002-1.39149.9741-2.12242.6435-1.25796 1.3553-2.47839 1.7802-3.20698z" fill-rule="evenodd"/><path d="m8.73006 19.3259c0 .1918-.15549.3473-.3473.3473s-.34731-.1555-.34731-.3473.1555-.3473.34731-.3473.3473.1555.3473.3473z"/><path d="m7.33813 19.3259c.19181 0 .34731-.1555.34731-.3473s-.1555-.3473-.34731-.3473-.3473.1555-.3473.3473.15549.3473.3473.3473z"/><path clip-rule="evenodd" d="m8.43479 9.30461c-.14716 0-.25611.07141-.30991.11176-.05418.04063-.1035.09004-.13352.12011l-.00521.00522c-.02136.02136-.03985.04542-.05499.07156-.05122.08848-.11171.19218-.17993.30914-.42412.7271-1.147 1.9664-1.80013 3.2433-.37915.7412-.73839 1.5019-1.00364 2.1883-.26076.6747-.44746 1.3187-.44746 1.8109 0 2.1547 1.78003 3.9347 3.93479 3.9347 2.15251 0 3.93111-1.7762 3.93481-3.9279.0179-.4962-.1565-1.1455-.4077-1.8228-.2571-.6932-.6126-1.4614-.9923-2.2079-.7348-1.4448-1.57327-2.8337-2.00148-3.48403-.06942-.25019-.33655-.35236-.53333-.35236zm-.08508.97039.09079-.1557c.42799.6589 1.21614 1.9724 1.91 3.3366.3733.7341.7159 1.4761.9601 2.1345.2489.671.3786 1.2117.3647 1.5607-.0002.0046-.0003.0092-.0003.0138 0 1.7711-1.469 3.24-3.24021 3.24-1.77117 0-3.24018-1.4689-3.24018-3.24 0-.3538.14328-.8943.40076-1.5605.25299-.6547.60025-1.3915.97413-2.1224.64347-1.258 1.35527-2.4784 1.78021-3.207z" fill-rule="evenodd"/></g></svg>