<svg fill="none" height="25" viewBox="0 0 25 25" width="25" xmlns="http://www.w3.org/2000/svg"><g fill="#2d3436"><path d="m11.2235.5c-.1323 0-.2591.052365-.3528.145639-.5199.517521-1.32917 1.034581-2.28594 1.522321-.9493.48393-2.01098.92274-3.00973 1.29368-.99757.37049-1.92514.67063-2.60361.87818-.33901.1037-.61528.18413-.80631.23849-.09551.02718-.16967.04784-.21969.06163l-.05654.01549-.01402.00379-.00333.0009c-.21863.05854-.37153.25688-.37153.48321 0 5.40457.23561 10.57137 4.15842 14.24127.20165.1886.51806.1781.70671-.0236.18865-.2016.17811-.518-.02355-.7067-3.48316-3.2585-3.827-7.8361-3.8411-13.13178.19218-.05506.45216-.13121.76347-.22645.6915-.21153 1.63848-.51789 2.65924-.897 1.01957-.37867 2.11998-.83258 3.11574-1.34019.82028-.41817 1.59267-.88421 2.19187-1.38932.5993.50511 1.3717.97115 2.192 1.38932.9957.50761 2.0961.96152 3.1157 1.34019 1.0208.37911 1.9677.68547 2.6592.897.3114.09524.5713.17139.7635.22645-.0101 3.87495-.1946 7.36918-1.6686 10.24968-.1258.2459-.0285.5471.2174.6729.2458.1258.547.0285.6728-.2173 1.6469-3.2184 1.7789-7.08389 1.7789-11.08447 0-.22633-.1521-.42444-.3707-.48298l-.0042-.00113-.014-.00379-.0565-.01549c-.0501-.01379-.1242-.03445-.2197-.06163-.1911-.05436-.4673-.13479-.8063-.23849-.6785-.20755-1.6061-.50769-2.6036-.87818-.9988-.37094-2.0605-.80975-3.0098-1.29368-.9567-.48774-1.766-1.0048-2.2859-1.522321-.0937-.093274-.2206-.145639-.3528-.145639z"/><path d="m12.4707 19.0977c.1953.1953.1953.5118 0 .7071l-.7186.7186.7618.7618c.1953.1953.1953.5119 0 .7071-.1953.1953-.5118.1953-.7071 0l-.7618-.7618-.7619.7619c-.1952.1953-.51181.1953-.70708 0-.19526-.1953-.19526-.5118 0-.7071l.76188-.7619-.71872-.7187c-.19526-.1952-.19526-.5118 0-.7071.19526-.1952.51182-.1952.70712 0l.7187.7187.7186-.7186c.1953-.1953.5119-.1953.7071 0z"/><path d="m17.4707 19.0977c.1953.1953.1953.5118 0 .7071l-.7186.7186.7618.7618c.1953.1953.1953.5119 0 .7071-.1953.1953-.5118.1953-.7071 0l-.7618-.7618-.7619.7619c-.1952.1953-.5118.1953-.7071 0-.1952-.1953-.1952-.5118 0-.7071l.7619-.7619-.7187-.7187c-.1953-.1952-.1953-.5118 0-.7071.1952-.1952.5118-.1952.7071 0l.7187.7187.7186-.7186c.1953-.1953.5119-.1953.7071 0z"/><path d="m18.8164 21.6289c0-.2761.2239-.5.5-.5h2.4512c.2761 0 .5.2239.5.5s-.2239.5-.5.5h-2.4512c-.2761 0-.5-.2239-.5-.5z"/><path clip-rule="evenodd" d="m7.28516 18.5352c0-.8285.67157-1.5 1.5-1.5h14.00004c.8284 0 1.5.6715 1.5 1.5v4c0 .8284-.6716 1.5-1.5 1.5h-14.00004c-.82843 0-1.5-.6716-1.5-1.5zm1.5-.5c-.27615 0-.5.2238-.5.5v4c0 .2761.22385.5.5.5h14.00004c.2761 0 .5-.2239.5-.5v-4c0-.2762-.2239-.5-.5-.5z" fill-rule="evenodd"/></g><path d="m9.47463 9.00388c-.19525-.19528-.51182-.19528-.70707 0-.19525.19527-.19525.51187 0 .70714l1.79104 1.79118-1.78723 1.7874c-.19525.1953-.19525.5119 0 .7071.19525.1953.51182.1953.70707 0l1.78716-1.7873 1.7872 1.7873c.1953.1953.5118.1953.7071 0 .1952-.1952.1952-.5118 0-.7071l-1.7872-1.7874 1.791-1.79118c.1952-.19527.1952-.51187 0-.70714-.1953-.19528-.5118-.19528-.7071 0l-1.791 1.79122z" fill="#f18303"/></svg>