<svg fill="none" height="25" viewBox="0 0 25 25" width="25" xmlns="http://www.w3.org/2000/svg"><g fill="#18303f"><path clip-rule="evenodd" d="m20.2565.718141c-1.3297.567989-2.9635 1.565249-4.7504 2.884849-3.612-1.58529-8.00624-.3304-10.28051 3.03156-1.63228 2.41294-1.77099 5.40445-.68304 7.91795-1.33161 1.7543-2.33644 3.3991-2.90752 4.749-.2973.7027-.4889 1.3528-.53425 1.9121-.04465.5507.04719 1.1075.4373 1.4976.58135.5814 1.48394.5446 2.35666.2991.91337-.2569 2.01297-.8003 3.22191-1.5534 2.42539-1.5109 5.39815-3.934 8.38385-6.8674 2.9899-2.9375 5.4155-5.9129 6.9148-8.35421.7474-1.21706 1.2807-2.3271 1.5288-3.24921.2371-.88114.2633-1.78699-.3153-2.365596-.3885-.388502-.9369-.482336-1.4837-.437244-.5523.045552-1.1933.237853-1.8886.534901zm-4.8073 4.010359c-.0851-.01715-.1663-.05554-.2347-.11392-3.1694-1.46521-7.10073-.39042-9.12611 2.60363-2.22818 3.29379-1.26518 7.86889 2.04793 10.11009.23825.1612.30074.485.13957.7232-.16117.2383-.48497.3008-.72323.1396-1.03196-.6981-1.86539-1.5959-2.47909-2.6096-1.1483 1.5579-1.99449 2.9802-2.4792 4.1258-.27562.6515-.42255 1.1862-.45533 1.5905-.03347.4128.05698.5982.13561.6769.14782.1478.52127.2626 1.33801.0329.77608-.2183 1.77935-.7036 2.95322-1.4349 2.34023-1.4578 5.25292-3.8263 8.20462-6.7263 2.9476-2.8959 5.3137-5.80588 6.7572-8.15624.7239-1.17876 1.1997-2.19112 1.4106-2.97475.2218-.82459.1045-1.20779-.046-1.35836-.0803-.08024-.261-.1687-.6615-.13567-.395.03257-.9194.17882-1.5651.45468-1.131.48311-2.5461 1.32509-4.1343 2.46844.0837.05225.1668.10623.2492.16195.9894.65982 1.7738 1.43974 2.3389 2.34389.1524.24393.0783.56525-.1656.71771-.244.15245-.5653.0783-.7177-.16563-.4763-.76209-1.1498-1.44019-2.0348-2.03018l-.0029-.00196c-.2433-.16455-.4935-.3117-.7493-.44178z" fill-rule="evenodd"/><path d="m2.84408.363975c.28764 0 .52083.233185.52083.520834v1.041671h1.04167c.28764 0 .52083.23318.52083.52083s-.23319.52083-.52083.52083h-1.04167v1.14584c0 .28764-.23319.52083-.52083.52083-.28765 0-.52084-.23319-.52084-.52083v-1.14584h-1.04166c-.287653 0-.520838-.23318-.520838-.52083s.233185-.52083.520838-.52083h1.04166v-1.041671c0-.287649.23319-.520834.52084-.520834z"/><path clip-rule="evenodd" d="m22.1149 18.0723c0-.2876-.2332-.5208-.5208-.5208-.2877 0-.5209.2332-.5209.5208 0 1.4832-1.1209 2.6042-2.6041 2.6042-.2877 0-.5209.2332-.5209.5208 0 .2877.2332.5208.5209.5208 1.4832 0 2.6041 1.121 2.6041 2.6042 0 .2877.2332.5208.5209.5208.2876 0 .5208-.2331.5208-.5208 0-1.4832 1.121-2.6042 2.6042-2.6042.2876 0 .5208-.2331.5208-.5208 0-.2876-.2332-.5208-.5208-.5208-1.4832 0-2.6042-1.121-2.6042-2.6042zm.6879 3.125c-.4963.2984-.9103.7124-1.2087 1.2088-.2984-.4964-.7124-.9104-1.2088-1.2088.4964-.2984.9104-.7124 1.2088-1.2088.2984.4964.7124.9104 1.2087 1.2088z" fill-rule="evenodd"/><path d="m20.5524 11.3015c0-.2877-.2332-.5209-.5208-.5209-.2877 0-.5209.2332-.5209.5209 0 3.9832-3.3084 7.2916-7.2916 7.2916-.2877 0-.5209.2332-.5209.5209 0 .2876.2332.5208.5209.5208 4.5585 0 8.3333-3.7748 8.3333-8.3333z"/></g></svg>