<svg fill="none" height="25" viewBox="0 0 25 25" width="25" xmlns="http://www.w3.org/2000/svg"><g fill="#18303f"><path d="m9.90031 3.92283c-.72.4-1.08.808-1.08 1.224 0 .192.064.352.192.48.128.112.264.168.408.168s.32-.096.528-.288c.20799-.192.51199-.384.91199-.576.416-.208.936-.312 1.56-.312 1.04 0 1.84.272 2.4.816s.84 1.296.84 2.256c0 .576-.12 1.12-.36 1.632-.224.512-.456.90397-.696 1.17597s-.584.616-1.032 1.032c-.432.4-.712.664-.84.792-.336.384-.592.872-.768 1.464-.176.576-.264 1.48-.264 2.712 0 .464.216.696.648.696s.648-.184.648-.552c0-1.04.048-1.808.144-2.304s.328-.944.696-1.344c.112-.144.392-.424.84-.84.448-.432.816-.816 1.104-1.152.304-.336.584-.816.84-1.43997.272-.64.408-1.304.408-1.992 0-1.248-.4-2.272-1.2-3.072-.784-.8-1.896-1.2-3.336-1.2-.992 0-1.856.208-2.59199.624z"/><path d="m12.4186 20.9855c.4317 0 .7818-.35.7818-.7818s-.3501-.7818-.7818-.7818c-.4318 0-.7819.35-.7819.7818s.3501.7818.7819.7818z"/></g></svg>