<svg fill="none" height="24" viewBox="0 0 24 24" width="24" xmlns="http://www.w3.org/2000/svg"><circle cx="12" cy="12" fill="#09f9bf" r="12"/><g fill="#fff"><path d="m13.0615 8.93934 3.3251 3.32506c.5857.5858.5857 1.5355 0 2.1213-.5858.5858-1.5356.5858-2.1214 0l-2.2644-2.2644-2.26436 2.2644c-.58579.5858-1.53553.5858-2.12132 0s-.58579-1.5355 0-2.1213l3.32508-3.32506c.1464-.14645.3156-.25628.4962-.32951.4514-.18305.9739-.13729 1.3898.1373.0832.05492.1621.11899.2353.19221z"/><path d="m12.8252 8.74713c-.5822-.38442-1.3734-.32035-1.886.19221l-3.32506 3.32506c-.58578.5858-.58578 1.5355 0 2.1213.58579.5858 1.53554.5858 2.12132 0l2.26444-2.2644 2.2644 2.2644c.5857.5858 1.5355.5858 2.1213 0s.5858-1.5355 0-2.1213l-3.3251-3.32506c-.0732-.07322-.1521-.13729-.2353-.19221z"/></g></svg>