<svg fill="none" height="25" viewBox="0 0 26 25" width="26" xmlns="http://www.w3.org/2000/svg"><g clip-rule="evenodd" fill-rule="evenodd"><path d="m13.2187 1.6377h-.0148c-2.3003 2.28983-9.22343 4.14333-9.22343 4.14333 0 7.29757.46154 13.71427 9.23083 16.93997 8.7693-3.2257 9.2309-9.6424 9.2309-16.93997 0 0-6.9232-1.8535-9.2235-4.14333z" stroke="#18303f" stroke-linecap="round" stroke-linejoin="round"/><g fill="#f18303"><path d="m15.697 10.0542c.1673.1674.1673.4388 0 .6062l-4.2853 4.2857c-.1673.1674-.4387.1674-.606 0-.1674-.1674-.1674-.4388 0-.6061l4.2852-4.2858c.1674-.16733.4387-.16733.6061 0z"/><path d="m10.8052 10.0542c.1674-.16733.4387-.16733.6061 0l4.2852 4.2858c.1674.1673.1674.4387 0 .6061-.1673.1674-.4387.1674-.606 0l-4.2853-4.2857c-.1674-.1674-.1674-.4388 0-.6062z"/></g></g></svg>