<svg fill="none" height="25" viewBox="0 0 26 25" width="26" xmlns="http://www.w3.org/2000/svg"><g clip-rule="evenodd" fill-rule="evenodd"><path d="m13.2187 1.6377h-.0148c-2.3003 2.28983-9.22343 4.14333-9.22343 4.14333 0 7.29757.46154 13.71427 9.23083 16.93997 8.7693-3.2257 9.2309-9.6424 9.2309-16.93997 0 0-6.9232-1.8535-9.2235-4.14333z" stroke="#18303f" stroke-linecap="round" stroke-linejoin="round"/><path d="m11.7844 14.5639c.0059.0065.0119.0129.0182.0192.0928.0928.2129.1415.3343.1461.1347.0054.2711-.0432.3738-.146.0066-.0066.0129-.0132.019-.02l3.6852-3.6852c.1953-.1953.1953-.5119 0-.7071-.1953-.1953-.5119-.1953-.7071 0l-3.3511 3.3511-1.7094-1.7094c-.1953-.1952-.51184-.1952-.7071 0-.19527.1953-.19527.5119 0 .7071z" fill="#00ac83"/></g></svg>