<svg fill="none" height="25" viewBox="0 0 26 25" width="26" xmlns="http://www.w3.org/2000/svg"><path d="m8.85266 19.8387h-.21788c-.03352 0-.05586.0273-.05586.0546v.2129c0 .1474.1229.2675.27374.2675s.27374-.1201.27374-.2675-.1229-.2675-.27374-.2675z" fill="#f94409"/><path d="m8.78004 17.1365c-.0447-.0382-.11732-.0818-.1676-.1091l-1.02794-.5405c-.05586-.0327-.1229-.0546-.18435-.0764-.17877-.0491-.36872-.0491-.54749 0-.06704.0164-.12849.0437-.18436.0764l-1.03352.5405c-.05028.0273-.11731.0709-.16759.1091-.21788.1802-.34079.4422-.34079.7261v1.5667c0 .524.43576.9444.96648.9444h1.80447c.15084 0 .27375-.1201.27375-.2675v-.2129c0-.0328-.02794-.0546-.05587-.0546h-2.02235c-.22905 0-.41899-.1856-.41899-.4094v-1.5667c0-.1529.0838-.2894.21788-.3603l1.06145-.5514c.11173-.0491.22905-.0491.34078 0l1.06145.5514c.13408.0709.21788.2074.21788.3603v1.3756c0 .1474.12291.2675.27374.2675.15084 0 .27375-.1201.27375-.2675v-1.3756c.00558-.2839-.12291-.5459-.34078-.7261z" fill="#f94409"/><path d="m8.85266 19.8387h-.21788c-.03352 0-.05586.0273-.05586.0546v.2129c0 .1474.1229.2675.27374.2675s.27374-.1201.27374-.2675-.1229-.2675-.27374-.2675z" stroke="#f94409" stroke-width=".1"/><path d="m8.78004 17.1365c-.0447-.0382-.11732-.0818-.1676-.1091l-1.02794-.5405c-.05586-.0327-.1229-.0546-.18435-.0764-.17877-.0491-.36872-.0491-.54749 0-.06704.0164-.12849.0437-.18436.0764l-1.03352.5405c-.05028.0273-.11731.0709-.16759.1091-.21788.1802-.34079.4422-.34079.7261v1.5667c0 .524.43576.9444.96648.9444h1.80447c.15084 0 .27375-.1201.27375-.2675v-.2129c0-.0328-.02794-.0546-.05587-.0546h-2.02235c-.22905 0-.41899-.1856-.41899-.4094v-1.5667c0-.1529.0838-.2894.21788-.3603l1.06145-.5514c.11173-.0491.22905-.0491.34078 0l1.06145.5514c.13408.0709.21788.2074.21788.3603v1.3756c0 .1474.12291.2675.27374.2675.15084 0 .27375-.1201.27375-.2675v-1.3756c.00558-.2839-.12291-.5459-.34078-.7261z" stroke="#f94409" stroke-width=".1"/><g stroke="#18303f" stroke-linecap="round" stroke-linejoin="round"><path d="m2.21313 15.1376c.10274-.8679.78096-1.5578 1.64783-1.6688 2.35418-.3012 4.12828-.2918 6.50734.0066.8682.109 1.5519.7951 1.659 1.6635.2928 2.3733.3056 4.1386.0085 6.5126-.1096.8753-.8083 1.5593-1.6852 1.6552-2.31239.2529-4.12398.2611-6.46073.0041-.88076-.0969-1.57849-.7893-1.68249-1.6693-.28497-2.4112-.26977-4.1764.00575-6.5039z"/><path d="m17.9367 2.99111c0-.66615.3992-1.11025.9981-1.11025h3.9922c.5988 0 .998.4441.998 1.11025v7.77179c0 .6661-.3992 1.1102-.998 1.1102h-3.9922c-.5989 0-.9981-.4441-.9981-1.1102z"/><path d="m20.3586 2.24707h1.1508" stroke-width="1.5"/><path d="m6.6264 8.69751.00008-.57785c0-1.77084 1.35417-3.12501 3.125-3.12501h4.68752"/><path d="m12.6176 6.8147 1.8213-1.82128-1.8213-1.82128"/></g><circle cx="6.6264" cy="10.8264" fill="#18303f" r=".5" transform="matrix(0 -1 1 0 -4.2 17.4528)"/></svg>