<svg fill="none" height="26" viewBox="0 0 25 26" width="25" xmlns="http://www.w3.org/2000/svg"><path d="m9.65006 22.6649h-.45391c-.06983 0-.11639.0568-.11639.1137v.4435c0 .3071.25605.5573.5703.5573.31424 0 .57034-.2502.57034-.5573 0-.307-.2561-.5572-.57034-.5572z" fill="#f94409"/><path d="m9.49876 17.0354c-.09311-.0796-.24442-.1706-.34917-.2275l-2.14152-1.1259c-.11639-.0682-.25606-.1137-.38408-.1592-.37244-.1023-.76816-.1023-1.1406 0-.13966.0341-.26769.091-.38408.1592l-2.15316 1.1259c-.10475.0569-.24441.1479-.34916.2275-.45391.3753-.70997.9212-.70997 1.5125v3.264c0 1.0918.90783 1.9675 2.0135 1.9675h3.75932c.31424 0 .57029-.2502.57029-.5573v-.4435c0-.0683-.05819-.1137-.11638-.1137h-4.21323c-.47718 0-.8729-.3867-.8729-.853v-3.264c0-.3184.17458-.6027.45391-.7506l2.21136-1.1486c.23277-.1023.47719-.1023.70996 0l2.21136 1.1486c.27933.1479.45391.4322.45391.7506v2.866c0 .307.25605.5572.5703.5572s.57028-.2502.57028-.5572v-2.866c.0117-.5913-.25603-1.1372-.70994-1.5125z" fill="#f94409"/><path clip-rule="evenodd" d="m20.6106 6.08749c-.3908-2.08605-2.3052-3.56698-4.4371-3.56698-1.517 0-3.0094.89552-3.7884 2.20636-.7686.05885-1.5395.34384-2.0968.8898-.76272.62008-1.0701 1.41074-1.0701 2.30984 0 1.67829 1.2533 3.05659 2.9315 3.20919.015.0013.0301.002.0452.002h4.4799c.2761 0 .5-.2238.5-.5 0-.2761-.2239-.5-.5-.5h-4.4561c-1.1512-.1153-2.0005-1.05634-2.0005-2.21119 0-.64185.2033-1.13594.7161-1.54615.0144-.01152.0281-.02383.0412-.03688.4014-.40143 1.0367-.62818 1.7121-.62818.1894 0 .3625-.107.4472-.27639.5643-1.12855 1.8155-1.9184 3.0387-1.9184 1.8272 0 3.3921 1.36874 3.5032 3.14614.009.14406.0798.2772.1943.36518.1144.08798.2613.12223.4028.09392.5174-.10348 1.0157.00175 1.4094.29702.3647.27351.5746.75484.5746 1.27837 0 .22923-.0029.38691-.057.55655-.0513.16076-.1616.3675-.4363.63353-.0965.09341-.3134.17748-.6744.21818-.2842.0321-.5762.0304-.8412.0289-.0546-.0003-.1081-.0006-.1601-.0006h-.362c-.2762 0-.5.2239-.5.5 0 .2762.2238.5.5.5h.362c.0418 0 .088.0003.1376.0007.2636.0017.6265.0041.9758-.0353.397-.0448.9077-.1544 1.2579-.4935.3709-.3591.5833-.70272.6934-1.04816.1045-.32779.1044-.62505.1043-.84296v-.01734c0-.76752-.3064-1.57724-.9746-2.07837-.4926-.36949-1.0765-.54507-1.6726-.53528zm-2.397 6.16541c-.1284-.0003-.2569.0485-.3549.1465l-1.8229 1.8229c-.1953.1953-.1953.5118 0 .7071s.5118.1953.7071 0l.972-.972v3.483c0 1.4947-1.1303 2.625-2.625 2.625h-2.5889c-.2762 0-.5.2239-.5.5 0 .2762.2238.5.5.5h2.5889c2.0469 0 3.625-1.578 3.625-3.625v-3.4778l.9667.9668c.1953.1953.5119.1953.7071 0 .1953-.1953.1953-.5118 0-.7071l-1.7912-1.7912c-.0917-.109-.2291-.1782-.3826-.1782zm.0007-1.0795c.2761 0 .5-.2239.5-.5s-.2239-.5-.5-.5-.5.2239-.5.5.2239.5.5.5z" fill="#18303f" fill-rule="evenodd"/></svg>