<svg fill="none" height="26" viewBox="0 0 25 26" width="25" xmlns="http://www.w3.org/2000/svg"><path clip-rule="evenodd" d="m12.4342 3.35009c2.132 0 4.0464 1.48092 4.4371 3.56698.5961-.00979 1.18.16579 1.6726.53528.6682.50113.9747 1.31085.9747 2.07837v.01734c.0001.21791.0002.51514-.1043.84294-.1102.3455-.3226.6891-.6934 1.0482-.3502.3391-.8609.4487-1.2579.4935-.3494.0394-.7123.037-.9758.0352-.0497-.0003-.0958-.0006-.1377-.0006h-.362c-.2761 0-.5-.2239-.5-.5s.2239-.5.5-.5h.362c.0521 0 .1055.0003.1602.0006.2649.0015.5569.0032.8412-.0289.361-.0407.5779-.1248.6743-.2182.2747-.266.3851-.4728.4363-.6335.0541-.16968.0571-.32735.0571-.55658 0-.52353-.21-1.00486-.5747-1.27837-.3936-.29527-.892-.4005-1.4094-.29702-.1415.0283-.2884-.00594-.4028-.09392s-.1852-.22112-.1943-.36519c-.111-1.77739-1.676-3.14613-3.5032-3.14613-1.2232 0-2.47435.78985-3.03862 1.91839-.0847.1694-.25783.2764-.44721.2764-.6754 0-1.3107.22675-1.71214.62818-.01304.01305-.0268.02536-.0412.03688-.51276.41021-.71609.9043-.71609 1.54615 0 1.16088.83173 2.09651 1.97678 2.21121h4.49438c.2761 0 .5.2239.5.5s-.2239.5-.5.5h-4.51816c-.01511 0-.03021-.0007-.04526-.0021-1.6842-.1531-2.90774-1.5369-2.90774-3.20911 0-.8991.30738-1.68976 1.0701-2.30985.55735-.54595 1.32823-.83094 2.09682-.88979.77895-1.31085 2.27134-2.20636 3.78834-2.20636zm1.298 17.00421-.9681.968v-3.479c0-1.4947 1.1303-2.625 2.625-2.625h2.5889c.2761 0 .5-.2239.5-.5 0-.2762-.2239-.5-.5-.5h-2.5889c-2.047 0-3.625 1.578-3.625 3.6249v3.4817l-.9707-.9706c-.1952-.1953-.5118-.1953-.7071 0-.19523.1952-.19523.5118 0 .7071l1.8229 1.8229c.0978.0978.2259.1466.3541.1465h.0008c.149 0 .2828-.0652.3744-.1687l1.8008-1.8007c.1952-.1953.1952-.5119 0-.7071-.1953-.1953-.5119-.1953-.7071 0zm.7494-8.355c.2877 0 .5209-.2332.5209-.5208 0-.2877-.2332-.5209-.5209-.5209-.2876 0-.5208.2332-.5208.5209 0 .2876.2332.5208.5208.5208z" fill="#03a9f1" fill-rule="evenodd"/></svg>