<svg fill="none" height="61" viewBox="0 0 60 61" width="60" xmlns="http://www.w3.org/2000/svg"><path clip-rule="evenodd" d="m55.7421 4.57099c.3724.40786.3436 1.04037-.0642 1.41276l-3.4411 3.14187c-.4079.37238-1.0404.34363-1.4128-.06422s-.3436-1.04037.0642-1.41276l3.4411-3.14186c.4079-.37239 1.0404-.34364 1.4128.06421zm-21.4908-.32573c-3.3254 0-6.1138 2.40926-6.1138 5.65458 0 .55226.4477.99996 1 .99996s1-.4477 1-.99996c0-1.96781 1.7118-3.65458 4.1138-3.65458 2.4021 0 4.1139 1.68677 4.1139 3.65458 0 2.68676 2.3793 4.72366 5.091 4.72366 2.7118 0 5.0911-2.0369 5.0911-4.72366 0-.55228-.4477-1-1-1s-1 .44772-1 1c0 1.40926-1.3026 2.72366-3.0911 2.72366-1.7884 0-3.091-1.3144-3.091-2.72366 0-3.24532-2.7885-5.65458-6.1139-5.65458zm-8.2404 9.90704c-.8418 0-1.6269.2707-2.2088.8256-.5862.559-.8859 1.3307-.8859 2.1719v1.3983c0 .1452-.0623.3437-.202.5361-.1449.1996-.2969.2893-.3578.3087-.5264.1673-.8174.7296-.6501 1.2559.1673.5264.7296.8174 1.2559.6501.5675-.1804 1.044-.59 1.3704-1.0397.3316-.4567.5836-1.0573.5836-1.7111v-1.3983c0-.3573.1192-.5843.2661-.7245.1513-.1442.4136-.273.8286-.273h6.2843c.4151 0 .6773.1288.8286.273.147.1402.2662.3672.2662.7245v1.3983c0 .5846.1568 1.1385.4946 1.6217.3318.4746.7981.8243 1.3319 1.0788.0219.0104.0442.0201.0669.0289 4.3664 1.7034 7.7207 4.9091 9.4969 9.0454 3.3247 8.0285-.9705 17.4381-9.4862 20.6486-8.526 3.2143-18.4209-.9673-21.7659-9.0355-2.423-5.8445-.9204-12.3956 3.4186-16.7783.1546-.1562.3128-.3096.4746-.4601.4043-.3762.4271-1.0089.0509-1.4133-.3762-.4043-1.009-.4271-1.4133-.0509-.1818.1692-.3596.3416-.5335.5172-4.873 4.9222-6.59375 12.3208-3.8448 18.9513 3.7772 9.1108 14.8299 13.7184 24.3189 10.141 9.4972-3.5805 14.419-14.1426 10.6259-23.2917v-.0001l-.0048-.0112c-1.9899-4.6384-5.7426-8.2158-10.5732-10.1111-.2851-.1405-.4395-.2844-.5237-.4049-.0811-.116-.1338-.2613-.1338-.4758v-1.3983c0-.8412-.2998-1.6129-.886-2.1719-.5819-.5549-1.367-.8256-2.2088-.8256zm26.0716-1.9495c-.4718-.2872-1.087-.1375-1.3742.3342-.2871.4718-.1375 1.087.3343 1.3742l3.4411 2.0946c.4717.2871 1.0869.1375 1.3741-.3343s.1375-1.087-.3342-1.3741zm-31.2606 9.8589c0 .6627-.5373 1.2-1.2 1.2-.6628 0-1.2-.5373-1.2-1.2 0-.6628.5372-1.2 1.2-1.2.6627 0 1.2.5372 1.2 1.2zm26.7281-14.51956c.6628 0 1.2-.53726 1.2-1.2 0-.66275-.5372-1.2-1.2-1.2-.6627 0-1.2.53725-1.2 1.2 0 .66274.5373 1.2 1.2 1.2z" fill="#f18303" fill-rule="evenodd"/></svg>