<svg fill="none" height="52" viewBox="0 0 51 52" width="51" xmlns="http://www.w3.org/2000/svg"><path clip-rule="evenodd" d="m25.4682 9.09103c0 .56333-.4567 1.01997-1.02 1.01997-.5634 0-1.02-.45664-1.02-1.01997s.4566-1.02 1.02-1.02c.5633 0 1.02.45667 1.02 1.02zm2.0857.09457c.0966-.54377.6158-.90626 1.1595-.80965 6.3628 1.13049 11.9452 5.60315 14.1965 12.16685 3.296 9.6092-1.7941 20.0676-11.3781 23.3549-9.5841 3.2873-20.0217-1.8451-23.31768-11.4543-.70954-2.0687-1.03065-4.1783-1.00129-6.2479l-2.09023 1.7592c-.42255.3557-1.05338.3014-1.40902-.1211s-.3014-1.0534.12114-1.409l4.02364-3.3865c.20291-.1708.46536-.254.7296-.2313s.50863.1495.67942.3524l3.38652 4.0236c.3556.4226.3014 1.0534-.1211 1.4091-.4226.3556-1.0534.3014-1.4091-.1212l-1.91072-2.2702c-.02891 1.8504.25665 3.7389.89292 5.594 2.9397 8.5705 12.2439 13.1382 20.777 10.2114 8.5331-2.9269 13.0749-12.2437 10.1352-20.8142-2.0068-5.851-6.9809-9.8386-12.6545-10.8466-.5438-.0966-.9063-.61573-.8097-1.1595z" fill="#92a0a9" fill-rule="evenodd"/></svg>