<svg fill="none" height="26" viewBox="0 0 25 26" width="25" xmlns="http://www.w3.org/2000/svg"><path clip-rule="evenodd" d="m12.4844 4.73944c0 .27614-.2239.5-.5.5-.2762 0-.5-.22386-.5-.5s.2238-.5.5-.5c.2761 0 .5.22386.5.5zm1.0127.04464c.0483-.27188.3079-.45313.5798-.40482 3.1224.55476 5.8618 2.74964 6.9666 5.97064 1.6174 4.7155-.8804 9.8477-5.5836 11.4609s-9.82528-.9055-11.44268-5.621c-.34574-1.0079-.50354-2.0358-.49164-3.0445l-1.00823.8486c-.21127.1778-.52669.1507-.7045-.0606-.17782-.2113-.1507-.5267.06057-.7045l1.97237-1.6601c.10145-.0854.23267-.127.3648-.1156.13212.0114.25431.0747.3397.1762l1.66007 1.9724c.17782.2112.1507.5267-.06057.7045-.21128.1778-.52669.1507-.70451-.0606l-.91972-1.0927c-.01106.8975.12904 1.813.43757 2.7125 1.43927 4.1962 5.99457 6.4324 10.17227 4.9995 4.1778-1.433 6.4015-5.9944 4.9622-10.1906-.9825-2.8646-3.4178-4.81693-6.1956-5.31046-.2719-.04831-.4532-.30787-.4049-.57976z" fill="#18303f" fill-rule="evenodd"/></svg>