<svg fill="none" height="26" viewBox="0 0 25 26" width="25" xmlns="http://www.w3.org/2000/svg"><path d="m22.1537 8.65851h-.454c-.0698 0-.1163.05686-.1163.11372v.44354c0 .30706.256.55726.5703.55726.3142 0 .5703-.2502.5703-.55726s-.2561-.55726-.5703-.55726z" fill="#f94409"/><path d="m22.0024 3.02903c-.0932-.07961-.2445-.17059-.3492-.22745l-2.1415-1.1259c-.1164-.06824-.2561-.11373-.3841-.15922-.3724-.10235-.7682-.10235-1.1406 0-.1397.03412-.2677.09098-.3841.15922l-2.1532 1.1259c-.1047.05686-.2444.14784-.3491.22745-.4539.3753-.71.92119-.71 1.51257v3.26396c0 1.09177.9078 1.96747 2.0135 1.96747h3.7593c.3143 0 .5703-.2502.5703-.55726v-.44354c0-.06823-.0582-.11372-.1164-.11372h-4.2132c-.4772 0-.8729-.38667-.8729-.85295v-3.26396c0-.31844.1746-.60276.4539-.7506l2.2114-1.14864c.2328-.10236.4772-.10236.71 0l2.2113 1.14864c.2793.14784.4539.43216.4539.7506v2.86591c0 .30706.2561.55726.5703.55726.3143 0 .5703-.2502.5703-.55726v-2.86591c.0117-.59138-.256-1.13727-.7099-1.51257z" fill="#f94409"/><path clip-rule="evenodd" d="m7.16405 13.234c-.0916.1034-.22539.1686-.37441.1686h-.00056c-.12821.0002-.25648-.0486-.3543-.1465l-1.82291-1.8229c-.19527-.1952-.19527-.5118 0-.7071.19526-.1952.51184-.1952.7071 0l.97067.9707v-3.48171c0-2.04698 1.57802-3.625 3.625-3.625h2.58886c.2762 0 .5.22386.5.5s-.2238.5-.5.5h-2.58886c-1.49469 0-2.625 1.13031-2.625 2.625v3.47911l.96806-.9681c.19526-.1952.51185-.1952.70711 0 .19526.1953.19526.5119 0 .7071zm.5737 1.7434c-.02772.2747.17254.5199.44729.5477 1.79921.1815 3.06196 1.6684 3.15626 3.177.009.1441.0798.2772.1943.3652.1144.088.2613.1222.4028.0939.5174-.1035 1.0157.0018 1.4094.297.3647.2735.5747.7549.5747 1.2784 0 .2292-.003.3869-.0571.5565-.0513.1608-.1616.3675-.4363.6336-.0965.0934-.3134.1774-.6744.2182-.2842.032-.5762.0304-.8412.0289-.0546-.0003-.1081-.0006-.1601-.0006h-3.68378-4.21003c-1.14505-.1148-1.97678-1.0504-1.97678-2.2112 0-.6419.20332-1.136.71609-1.5462.0144-.0115.02816-.0238.0412-.0369.40144-.4014 1.03674-.6282 1.71213-.6282.18939 0 .36252-.107.44722-.2763.18-.36.66685-.9569 1.02505-1.254.21256-.1762.24198-.4914.06571-.704-.17628-.2126-.49149-.242-.70405-.0657-.37477.3108-.84043.8503-1.13019 1.3111-.77065.0578-1.5442.3429-2.10306.8903-.76271.6201-1.070098 1.4108-1.070098 2.3099 0 1.6721 1.223538 3.056 2.907738 3.2091.01505.0014.03015.0021.04526.0021h4.23381 3.68378c.0419 0 .088.0003.1376.0006h.0001c.2636.0018.6264.0042.9757-.0352.3971-.0448.9077-.1544 1.258-.4936.3708-.3591.5832-.7027.6933-1.0481.1045-.3278.1044-.6251.1044-.843v-.0173c0-.7675-.3065-1.5773-.9747-2.0784-.4933-.3699-1.078-.5455-1.6748-.5352-.3475-1.7846-1.8881-3.3811-3.98759-3.5929-.27475-.0277-.51994.1726-.54766.4473zm-.94811.5502c.27614 0 .5-.2239.5-.5 0-.2762-.22386-.5-.5-.5s-.5.2238-.5.5c0 .2761.22386.5.5.5z" fill="#18303f" fill-rule="evenodd"/></svg>