<svg fill="none" height="26" viewBox="0 0 26 26" width="26" xmlns="http://www.w3.org/2000/svg"><g fill="#18303f"><path d="m7.82422 13.7495v.4611c0 2.6469 2.15583 4.6342 4.89168 4.6342.2762 0 .5-.2238.5-.5 0-.2761-.2238-.5-.5-.5-2.2413 0-3.89168-1.5956-3.89168-3.6342v-.4636l.29351.2935c.19526.1952.51185.1952.70711 0 .19526-.1953.19526-.5119 0-.7071l-1.1458-1.1458c-.09782-.0978-.22608-.1467-.35428-.1465-.14887 0-.28308.0651-.37468.1683l-1.12395 1.124c-.19526.1952-.19526.5118 0 .7071.19527.1952.51185.1952.70711 0z"/><path d="m17.1719 12.89-.2935-.2935c-.1953-.1953-.5119-.1953-.7071 0-.1953.1952-.1953.5118 0 .7071l1.1458 1.1458c.0978.0978.226.1466.3542.1464.1489 0 .2831-.065.3747-.1683l1.124-1.1239c.1952-.1953.1952-.5119 0-.7071-.1953-.1953-.5119-.1953-.7071 0l-.291.2909v-.461c0-2.64696-2.1559-4.63429-4.8918-4.63429-.2761 0-.5.22386-.5.5s.2239.5.5.5c2.2414 0 3.8918 1.59569 3.8918 3.63429z"/><path d="m12.1662 8.30176c0 .27614-.2239.5-.5.5-.2762 0-.5-.22386-.5-.5s.2238-.5.5-.5c.2761 0 .5.22386.5.5z"/><path d="m14.5638 18.8448c.2761 0 .5-.2238.5-.5 0-.2761-.2239-.5-.5-.5-.2762 0-.5.2239-.5.5 0 .2762.2238.5.5.5z"/><path clip-rule="evenodd" d="m20.17 2.84009c1.7359.22206 3.1012 1.59222 3.3195 3.32865.663 5.27296.6921 9.12886.0175 14.40366-.2238 1.7499-1.6198 3.1164-3.3732 3.3123-5.1371.5738-9.1031.5927-14.29536.0083-1.76104-.1981-3.15505-1.5809-3.36749-3.3402-.64715-5.3597-.61224-9.2159.01185-14.38625.20946-1.73535 1.56422-3.11353 3.2973-3.34015 5.2289-.68373 9.1049-.66236 14.3899.01369zm-.1269.99192c-5.2043-.66573-8.994-.68608-14.13334-.01405-1.27654.16692-2.27904 1.18325-2.43417 2.46842-.61489 5.09422-.64898 8.86982-.01185 14.14652.15686 1.2991 1.18619 2.3201 2.48653 2.4664 5.11563.5757 9.00693.5574 14.07253-.0084 1.2975-.145 2.3273-1.1556 2.4923-2.4454.6633-5.1865.6353-8.9577-.0177-14.15202-.1615-1.28452-1.1715-2.29737-2.4543-2.46147z" fill-rule="evenodd"/></g></svg>