<svg fill="none" height="26" viewBox="0 0 25 26" width="25" xmlns="http://www.w3.org/2000/svg"><path clip-rule="evenodd" d="m12.5 4.27277c.2761 0 .5-.22386.5-.5 0-.27615-.2239-.5-.5-.5s-.5.22385-.5.5c0 .27614.2239.5.5.5zm-3.66762.98899c.13391.2415.04668.54583-.19483.67973-2.46741 1.36808-4.13755 4.00491-4.13755 7.03331 0 4.4362 3.58335 8.0294 8 8.0294 4.4167 0 8-3.5932 8-8.0294 0-3.0284-1.6701-5.66523-4.1376-7.03331-.2415-.1339-.3287-.43823-.1948-.67973.1339-.24151.4383-.32873.6798-.19483 2.7735 1.53779 4.6526 4.50273 4.6526 7.90787 0 4.9852-4.0278 9.0294-9 9.0294-4.97219 0-9-4.0442-9-9.0294 0-3.40514 1.87914-6.37008 4.65264-7.90787.24151-.1339.54584-.04668.67974.19483zm3.66762.24245c.2761 0 .5.22386.5.5v6.99999c0 .2762-.2239.5-.5.5s-.5-.2238-.5-.5v-6.99999c0-.27614.2239-.5.5-.5z" fill="#f18303" fill-rule="evenodd"/></svg>