<svg fill="none" height="13" viewBox="0 0 13 13" width="13" xmlns="http://www.w3.org/2000/svg"><g clip-rule="evenodd" fill="#c4c4c4" fill-rule="evenodd"><path d="m1.8728.80957c.55229 0 1 .44772 1 1v9.38113c0 .5523-.44771 1-1 1-.55228 0-.999997-.4477-.999997-1v-9.38113c0-.55228.447717-1 .999997-1z"/><path d="m11.1272.80957c.5523 0 1 .44772 1 1v9.38113c0 .5523-.4477 1-1 1s-1-.4477-1-1v-9.38113c0-.55228.4477-1 1-1z"/><path d="m11.4434.860906c.5239.174684.807.741024.6324 1.264954-.1201.36023-.3356.66146-.5075.87155-.1744.21319-.3623.40108-.4854.52416l-.0092.00922-3.04261 3.04257c-.00001 0 0-.00001 0 0-.40267.40266-.93089.67321-1.53113.67321s-1.12845-.27054-1.53111-.67321c-.00001 0 0 .00001 0 0l-3.04252-3.04252c-.32497-.32496-.62539-.77597-.85627-1.12258-.00989-.01486-.01966-.02952-.0293-.04398-.306359-.45952-.182196-1.08039.27733-1.386753.45952-.306361 1.08039-.182199 1.38675.277323.27263.40893.46752.6936.6357.86178l3.04252 3.04252c.05341.05341.09173.07508.10878.08287.00336.00154.00606.00263.00812.00338.00207-.00075.00476-.00184.00813-.00338.01705-.00779.05536-.02946.10877-.08286l3.04248-3.04247c.00002-.00002-.00002.00001 0 0 .13069-.13072.25463-.2557.36096-.38572.1134-.13854.1514-.21762.1581-.2377.1747-.523929.7411-.807049 1.265-.632364z"/></g></svg>