<svg fill="none" height="13" viewBox="0 0 11 13" width="11" xmlns="http://www.w3.org/2000/svg"><g clip-rule="evenodd" fill="#c4c4c4" fill-rule="evenodd"><path d="m.379883 4.09146c0-1.82 1.461887-3.28189 3.281887-3.28189h3.07086c.55229 0 1 .44772 1 1 0 .55229-.44771 1-1 1h-3.07086c-.71543 0-1.28189.56646-1.28189 1.28189 0 .71542.56645 1.28188 1.28189 1.28188h1.39449c.55229 0 1 .44772 1 1 0 .55229-.44771 1-1 1h-1.39449c-1.82 0-3.281887-1.46188-3.281887-3.28188z"/><path d="m4.05619 6.37354c0-.55229.44772-1 1-1h2.15511c1.98074 0 3.4087 1.62324 3.4087 3.40865 0 1.98071-1.62326 3.40871-3.4087 3.40871h-5.19763c-.55228 0-1-.4477-1-1s.44772-1 1-1h5.19763c.75 0 1.40866-.60043 1.40866-1.40871 0-.75002-.60042-1.40865-1.40866-1.40865h-2.15511c-.55228 0-1-.44772-1-1z"/></g></svg>