<svg fill="none" height="55" viewBox="0 0 59 55" width="59" xmlns="http://www.w3.org/2000/svg"><g stroke="#92a0a9" stroke-linecap="round" stroke-linejoin="round" stroke-width="2"><path d="m7.93555 16.1304v-6.0652c0-3.43694 2.40925-6.0652 5.55975-6.0652h5.5598"/><path d="m50.5605 16.1304v-6.0652c0-3.43694-2.4092-6.0652-5.5597-6.0652h-5.5598"/><path d="m7.93555 38.3696v6.0652c0 3.4369 2.40925 6.0652 5.55975 6.0652h5.5598"/><path d="m50.5605 38.3696v6.0652c0 3.4369-2.4092 6.0652-5.5597 6.0652h-5.5598"/><path d="m30.1747 19.163v9.0978c0 1.6174-1.2973 3.0327-2.7799 3.0327h-.9267"/><path d="m20.9084 19.163v5.0544"/><path d="m39.441 19.163v5.0544"/><path d="m22.2057 37.3587c3.8918 4.0435 10.0076 4.0435 13.8994 0"/></g></svg>