<svg fill="none" height="197" viewBox="0 0 197 197" width="197" xmlns="http://www.w3.org/2000/svg" xmlns:xlink="http://www.w3.org/1999/xlink"><clipPath id="a"><path d="m46.7617 47.1133h104v104h-104z"/></clipPath><g stroke="#92a0a9" stroke-linecap="round" stroke-linejoin="round" stroke-width="2"><path d="m1 8.37244c0-4.17771 3.19473-7.37244 7.37244-7.37244"/><path d="m5.91507 8.37489c0-1.47449.98299-2.45748 2.45748-2.45748"/><path d="m2.23047 188.625c0 4.178 3.19472 7.372 7.37244 7.372"/><path d="m7.14554 188.625c0 1.474.98299 2.457 2.45748 2.457"/><path d="m195.999 9.60291c0-4.17772-3.194-7.37244-7.372-7.37244"/><path d="m191.085 9.60536c0-1.47449-.983-2.45748-2.457-2.45748"/><path d="m195.999 188.625c0 4.178-3.194 7.372-7.372 7.372"/><path d="m191.084 188.625c0 1.474-.983 2.457-2.457 2.457"/></g><g clip-path="url(#a)" fill="#92a0a9"><path d="m67.1329 47.1133h-11.4365c-5.0034 0-8.9347 3.9313-8.9347 8.9347v11.4364c0 4.6461 3.9313 8.5773 8.9347 8.5773h11.4365c4.646 0 8.5773-3.9312 8.5773-8.5773v-11.4364c0-5.0034-3.9313-8.9347-8.5773-8.9347zm4.646 18.2268c0 3.9313-2.8591 6.7904-6.7904 6.7904h-7.5051c-3.5739 0-6.7904-2.8591-6.7904-6.7904v-7.5052c0-3.5739 3.2165-6.7903 6.7904-6.7903h7.5051c3.9313 0 6.7904 3.2164 6.7904 6.7903z"/><path d="m63.9184 55.3352h-5.3608c-2.1444 0-3.5739 1.787-3.5739 3.5739v5.3608c0 2.1444 1.7869 3.5739 3.5739 3.5739h5.3608c2.1443 0 3.5739-1.7869 3.5739-3.5739v-5.3608c0-1.7869-1.4296-3.5739-3.5739-3.5739z"/><path d="m141.828 47.1133h-11.436c-4.646 0-8.935 3.9313-8.935 8.9347v11.4364c0 4.6461 3.931 8.9347 8.935 8.9347h11.436c4.646 0 8.935-3.9312 8.935-8.9347v-11.4364c0-5.0034-3.932-8.9347-8.935-8.9347zm5.003 18.2268c0 3.9313-3.216 6.7904-7.147 6.7904h-7.148c-3.931 0-7.148-2.8591-7.148-6.7904v-7.5052c0-3.5739 3.217-6.7903 7.148-6.7903h7.148c3.931 0 7.147 3.2164 7.147 6.7903z"/><path d="m138.97 55.3352h-5.361c-2.144 0-3.574 1.787-3.574 3.5739v5.3608c0 2.1444 1.787 3.5739 3.574 3.5739h5.361c2.144 0 3.574-1.7869 3.574-3.5739v-5.3608c0-1.7869-1.787-3.5739-3.574-3.5739z"/><path d="m67.1329 121.813h-11.4365c-5.0034 0-8.9347 3.932-8.9347 8.935v11.437c0 4.646 3.9313 8.934 8.9347 8.934h11.4365c4.646 0 8.9347-3.931 8.9347-8.934v-11.437c-.3574-5.003-4.2887-8.935-8.9347-8.935zm4.646 18.227c0 3.932-2.8591 7.148-6.7904 7.148h-7.5051c-3.5739 0-6.7904-3.216-6.7904-7.148v-7.147c0-3.932 3.2165-7.148 6.7904-7.148h7.5051c3.9313 0 6.7904 3.216 6.7904 7.148z"/><path d="m63.9184 130.035h-5.3608c-2.1444 0-3.5739 1.787-3.5739 3.574v5.361c0 2.144 1.7869 3.574 3.5739 3.574h5.3608c2.1443 0 3.5739-1.787 3.5739-3.574v-5.361c0-1.787-1.4296-3.574-3.5739-3.574z"/><path d="m105.017 138.607c0-1.43 0-2.859 0-4.289-2.859 0-5.3608 0-8.2199 0v4.289c-1.4296 0-2.8591 0-4.2887 0 0-1.43 0-2.859 0-4.289-2.8591 0-5.3608 0-8.2199 0v4.289h4.2887v4.288c-1.4296 0-2.8591 0-4.2887 0v8.22c-1.4295 0-2.8591 0-3.9313 0 0-6.79 0-13.938 0-20.728h8.22c0-1.43 0-2.859 0-4.289h4.2886v4.289h4.2887c0-2.859 0-5.361 0-8.22h4.2885v8.22h4.289c0-4.289 0-8.22 0-12.509-2.859 0-5.361 0-8.2201 0v4.289c-2.8591 0-5.3608 0-8.22 0 0-2.859 0-5.361 0-8.22h3.9313c0-1.43 0-2.859 0-4.289h4.2887v4.289h12.5081c0-1.43 0-2.859 0-4.289-1.429 0-2.859 0-3.931 0 0-2.859 0-5.361 0-8.22-2.859 0-5.718 0-8.2197 0v4.289c-1.4296 0-2.8591 0-4.2887 0 0-1.43 0-2.859 0-4.289-2.8591 0-5.7182 0-8.2199 0 0-1.429 0-2.8588 0-4.2883h20.7283c0-4.2887 0-8.22 0-12.5086-2.859 0-5.361 0-8.2197 0 0-1.4296 0-2.8591 0-4.2887h12.5087v8.2199h4.289c0-1.4295 0-2.8591 0-4.2886h4.288v7.8625.3574c-2.859 0-5.361 0-8.22 0v12.5084h4.289c0-1.429 0-2.859 0-4.288h4.289c0-2.8596 0-5.7187 0-8.2204h4.288c0-1.4296 0-2.8591 0-4.2887h4.289v4.2887h4.289v4.2887h4.288v4.2887c-1.429 0-2.859 0-4.288 0v4.289h3.931c0-1.43 0-2.86 0-4.289h4.288v12.151.358c-1.429 0-2.859 0-4.288 0 0-1.43 0-2.86 0-4.289-4.289 0-8.22 0-12.509 0 0-1.43 0-2.859 0-4.289h4.289c0-1.429 0-2.859 0-4.288-1.43 0-2.859 0-3.931 0v4.288c-1.43 0-2.859 0-4.289 0v4.289c-1.43 0-2.859 0-3.931 0v4.289h.357 17.155 3.216v4.288h4.289c0-1.429 0-2.859 0-3.931h4.289v8.22h8.219v4.288c-1.429 0-2.859 0-3.931 0v8.22h3.931v16.798c-9.649 0-19.299 0-28.948 0 0-1.43 0-2.859 0-3.932-2.859 0-5.361 0-8.22 0 0-1.429 0-2.859 0-4.288h4.289c0-2.859 0-5.718 0-8.22-1.43 0-2.859 0-3.932 0v8.22c-1.429 0-2.859 0-4.288 0 0-1.43 0-2.859 0-4.289-4.289-.357-5.718-.357-7.148-.357zm33.237 4.288c0-2.859 0-5.36 0-8.22-1.429 0-2.859 0-4.289 0v4.289c-1.429 0-2.859 0-3.931 0v4.289c2.859-.358 5.718-.358 8.22-.358v4.289h8.22c0-2.859 0-5.361 0-8.22-1.429 0-2.859 0-4.289 0v4.289c-1.072-.358-2.501-.358-3.931-.358zm-20.728-25.017v12.509h12.508c0-4.289 0-8.22 0-12.509-4.288 0-8.22 0-12.508 0zm-8.22 4.289v8.22h4.288c0-2.859 0-5.361 0-8.22-1.429 0-2.859 0-4.288 0zm28.948 3.931v4.289h3.931c0-1.43 0-2.859 0-4.289-1.072 0-2.501 0-3.931 0zm-16.44 16.797h3.932c0-1.429 0-2.859 0-3.931-1.43 0-2.86 0-3.932 0z"/><path d="m54.9827 92.861c-1.4296 0-2.8592 0-4.2887 0v25.017c-1.4296 0-2.8591 0-4.2887 0 0-12.508 0-25.017 0-37.5256h20.7286v12.5086c-2.8592 0-5.7183 0-8.22 0 0-1.4296 0-2.8591 0-4.2887h4.2887c0-1.4295 0-2.8591 0-4.2886-2.8591 0-5.3608 0-8.2199 0z"/><path d="m92.5064 67.8438c0-1.0722 0-2.5017 0-3.5739 0-.3574 0-.3574 0-.7147-1.4295 0-2.8591 0-4.2886 0 0-1.4296 0-2.8592 0-4.2887h4.2886c0-1.4296 0-2.8591 0-4.2887h4.2887v3.9313h12.5089c0-1.4295 0-2.8591 0-3.9313h-.358c-3.931 0-7.862 0-11.7935 0h-.3574c0-1.4295 0-2.8591 0-4.2886h4.2889c0-1.4296 0-2.8591 0-4.2887h4.288v3.9313h12.509v8.2199c-1.43 0-2.859 0-4.289 0v4.2887c-4.288 0-8.22 0-12.508 0v4.2886c-2.502 0-5.3611 0-7.8628 0-.3574.7148-.3574.7148-.7148.7148z"/><path d="m71.7789 101.083c0-1.4296 0-2.8592 0-4.2887h3.9312c0-1.4296 0-2.8591 0-4.2887-1.4295 0-2.8591 0-3.9312 0 0-1.4295 0-2.8591 0-4.2886h3.9312c0-1.4296 0-2.8591 0-4.2887-1.4295 0-2.8591 0-3.9312 0 0-1.4296 0-2.8591 0-4.2887h12.5086c0-1.4295 0-2.8591 0-4.2886h4.2886c0-2.8591 0-5.3608 0-8.22h4.2887v5.0035 7.1477.3574c-1.4296 0-2.8591 0-4.2887 0v4.2887c-1.4295 0-2.8591 0-4.2886 0v4.2887c-1.4296 0-2.8591 0-3.9313 0v12.151h-.3574c-2.8591.715-5.7182.715-8.2199.715z"/><path d="m138.252 101.077c0-1.4297 0-2.8592 0-4.2888h8.22c0-1.4295 0-2.8591 0-4.2886-1.429 0-2.859 0-4.289 0 0-4.2887 0-8.2199 0-12.5086h4.289v8.2199h4.289v12.5091c-1.43 0-2.859 0-3.932 0v4.288h3.932v8.22c-1.43 0-2.859 0-3.932 0 0-1.429 0-2.859 0-4.289-1.429 0-2.859 0-4.288 0 0-2.859 0-5.36 0-8.219-1.43.357-2.859.357-4.289.357z"/><path d="m59.2713 97.1476h8.2199v4.2884h4.2887v4.289h4.2887v4.289c-2.8592 0-5.3609 0-8.22 0v4.288c-1.4295 0-2.8591 0-4.2886 0 0-2.859 0-5.361 0-8.22-2.8591 0-5.7183 0-8.22 0 0-1.429 0-2.859 0-4.288h4.2887c-.3574-1.787-.3574-3.2168-.3574-4.6464z"/><path d="m100.726 72.1345c0-1.4296 0-2.8591 0-4.2887h12.509c0-1.4295 0-2.8591 0-4.2886h4.289v12.5086c-1.43 0-2.859 0-3.932 0 0-1.4296 0-2.8592 0-3.9313-1.429 0-2.859 0-4.288 0v3.9313c-1.43 0-2.859 0-4.289 0 0-1.4296 0-2.8592 0-4.2887-1.43.3574-2.859.3574-4.289.3574z"/><path d="m80.0008 117.882c-4.2886 0-8.2199 0-12.5086 0 0-1.429 0-2.859 0-4.288h8.22c0-1.43 0-2.86 0-4.289h4.2886z"/><path d="m96.7961 147.182h12.5089v3.931c-4.289 0-8.22 0-12.5089 0 0-1.429 0-2.859 0-3.931z"/><path d="m125.744 88.9337c0-2.8591 0-5.3608 0-8.2199h4.288v8.2199c-1.429 0-2.859 0-4.288 0z"/><path d="m80.0009 117.878h4.2886v8.22c-1.4295 0-2.8591 0-3.9313 0-.3573-2.859-.3573-5.361-.3573-8.22z"/><path d="m84.2895 76.4252c-1.4295 0-2.8591 0-4.2886 0 0-2.8592 0-5.3609 0-8.22h3.9312c.3574 2.5017.3574 5.3608.3574 8.22z"/><path d="m92.5094 88.9277c0-1.4295 0-2.8591 0-4.2887h4.2887v4.2887c-1.4296 0-2.8591 0-4.2887 0z"/><path d="m84.2875 105.37h4.2886v3.931c-1.4295 0-2.8591 0-4.2886 0 0-1.072 0-2.502 0-3.931z"/><path d="m84.2895 105.372c-1.4295 0-2.8591 0-4.2886 0 0-1.43 0-2.86 0-4.289h3.9312.3574z"/><path d="m84.2885 59.6219v4.2886c-1.4295 0-2.8591 0-3.9313 0 0-1.4295 0-2.8591 0-4.2886z"/><path d="m117.527 84.6411c0-1.4296 0-2.8591 0-4.2887h4.288v3.9313c-1.429.3574-2.859.3574-4.288.3574z"/><path d="m134.322 92.857c0-1.4296 0-2.8591 0-3.9313h4.289v3.9313c-1.787 0-2.86 0-4.289 0z"/><path d="m88.5761 59.6239c-1.4295 0-2.8591 0-4.2886 0 0-1.4296 0-2.8591 0-4.2887h4.2886z"/><path d="m59.2723 97.1497c-1.4295 0-2.8591 0-4.2886 0 0-1.4296 0-2.8592 0-4.2887h4.2886z"/><path d="m134.322 80.3524h4.289v3.9313c-1.43 0-2.86 0-4.289 0 0-1.0722 0-2.5017 0-3.9313z"/><path d="m88.5792 55.3372c0-1.4295 0-2.8591 0-4.2886h4.2886v4.2886c-1.7869 0-3.2165 0-4.2886 0z"/><path d="m105.015 138.609v4.288c-1.43 0-2.859 0-4.289 0 0-1.429 0-2.859 0-3.931 1.43-.357 2.859-.357 4.289-.357z"/><path d="m84.2895 55.3372c-1.4295 0-2.8591 0-4.2886 0 0-1.4295 0-2.8591 0-4.2886h3.9312c.3574 1.7869.3574 3.2165.3574 4.2886z"/><path d="m92.5094 51.4019c0-1.4295 0-2.8591 0-4.2886h4.2887v4.2886c-1.4296 0-2.8591 0-4.2887 0z"/><path d="m100.727 72.1305v4.2886c-1.4292 0-2.8588 0-3.9309 0 0-1.4295 0-2.8591 0-3.9312 1.4295-.3574 2.8591-.3574 3.9309-.3574z"/><path d="m92.5104 88.9257v4.2887c-1.4295 0-2.8591 0-3.9312 0 0-1.4296 0-2.8591 0-3.9313 1.4295-.3574 2.5017-.3574 3.9312-.3574z"/><path d="m88.5792 147.182h3.9312v3.931c-1.4295 0-2.8591 0-3.9312 0 0-1.429 0-2.501 0-3.931z"/></g></svg>