<svg fill="none" height="51" viewBox="0 0 52 51" width="52" xmlns="http://www.w3.org/2000/svg"><g stroke="#92a0a9" stroke-linecap="round" stroke-linejoin="round" stroke-width="2"><path d="m40.463 11.4177h-3.7563-6.6088-8.6997-6.6088-3.7563c-.6733 0-1.22255.5442-1.22255 1.2112v1.5271 5.9855l5.38635 22.0816c.4784 1.9659 1.7186 3.1946 3.0475 3.1946h15.025c1.3289 0 2.5514-1.2287 3.0475-3.1946l5.3686-22.0816v-6.0031-1.5271c0-.6494-.5492-1.1936-1.2225-1.1936z"/><path d="m40.4794 11.4177h-3.7605-6.6162-8.7093-6.6162-3.7605c-.6031 0-1.11746.458-1.20615 1.0625.08869.6045.60305 1.0625 1.20615 1.0625h3.7605 6.6162 8.7093 6.6162 3.7605c.603 0 1.1175-.458 1.2061-1.0625-.0886-.6045-.6031-1.0625-1.2061-1.0625z"/><path d="m20.4355 11.4177v-1.85726c0-2.49311 2.3862-4.51772 5.3125-4.51772 2.9264 0 5.3125 2.02461 5.3125 4.51772v1.85726"/><path d="m19.3105 18.7927v10.75"/><path d="m25.6855 23.0427v10.75"/><path d="m25.6855 18.7927v.1351"/><path d="m19.3105 33.6573v.1351"/><path d="m25.6855 38.1907v.135"/><path d="m32.0605 18.7927v10.75"/></g></svg>