<svg fill="none" height="50" viewBox="0 0 50 50" width="50" xmlns="http://www.w3.org/2000/svg"><circle cx="25" cy="25" r="19" stroke="#2d3436" stroke-width="12"/><path clip-rule="evenodd" d="m19.6667 28.6768c0-1.7845 1.6383-2.6768 3.1111-2.6768.9275 0 1.7445.4754 2.2222 1.1966.4777-.7212 1.2947-1.1966 2.2222-1.1966 1.4728 0 3.1111.8923 3.1111 2.6768 0 1.6171.9733 1.8378 1.7438 2.0125.505.1145.9229.2093.9229.6643 0 1.1495-3.5556 1.7846-5.3333.8923-1.2958-.6503-2.1812-1.2984-2.6667-2.0498-.4855.7514-1.3709 1.3995-2.6667 2.0498-1.7777.8923-5.3333.2572-5.3333-.8923 0-.455.4179-.5498.9229-.6643.7705-.1747 1.7438-.3954 1.7438-2.0125z" fill="#2d3436" fill-rule="evenodd"/></svg>