<svg fill="none" height="60" viewBox="0 0 60 60" width="60" xmlns="http://www.w3.org/2000/svg"><g fill="#2d3436"><path d="m29.5761 38.029c-.5016 0-.9082.4066-.9082.9082s.4066.9083.9082.9083h2.9617c.5016 0 .9082-.4067.9082-.9083s-.4066-.9082-.9082-.9082z"/><path d="m29.5761 42.7676c-.5016 0-.9082.4066-.9082.9083 0 .5016.4066.9082.9082.9082h2.9617c.5016 0 .9082-.4066.9082-.9082 0-.5017-.4066-.9083-.9082-.9083z"/><path d="m29.5761 47.5063c-.5016 0-.9082.4066-.9082.9082s.4066.9082.9082.9082h2.9617c.5016 0 .9082-.4066.9082-.9082s-.4066-.9082-.9082-.9082z"/><path d="m22.4932 52.9132c.5016 0 .9083-.4066.9083-.9082s-.4067-.9083-.9083-.9083-.9082.4067-.9082.9083.4066.9082.9082.9082z"/><path d="m21.0544 17.5953c0 .5016-.4066.9082-.9083.9082-.5016 0-.9082-.4066-.9082-.9082s.4066-.9082.9082-.9082c.5017 0 .9083.4066.9083.9082z"/><path d="m20.1461 21.756c.5017 0 .9083-.4066.9083-.9083 0-.5016-.4066-.9082-.9083-.9082-.5016 0-.9082.4066-.9082.9082 0 .5017.4066.9083.9082.9083z"/><path d="m20.1461 25.0084c.5017 0 .9083-.4066.9083-.9082s-.4066-.9082-.9083-.9082c-.5016 0-.9082.4066-.9082.9082s.4066.9082.9082.9082z"/><path clip-rule="evenodd" d="m19.4217 1.46455c.1702-.16943.4006-.26455.6408-.26455h.0268c.2401 0 .4705.09512.6407.26455.9444.94006 2.4145 1.87929 4.1524 2.76526 1.7244.87905 3.6529 1.67613 5.4671 2.34993 1.8121.67299 3.497 1.21818 4.7294 1.59519.6158.18839 1.1176.33447 1.4647.43323.1734.04937.3082.0869.399.11194l.1027.02813.0255.0069.0076.00205c.3971.10634.6733.4662.6733.87732 0 2.6009-.031 5.1695-.2073 7.6629h11.5942c4.5144 0 8.1741 3.6597 8.1741 8.1742v21.0622c0 6.5209-5.2862 11.8071-11.8071 11.8071h-5.9732c-.5016 0-.9082-.4066-.9082-.9082s.4066-.9083.9082-.9083h4.3741v-6.1905c0-.5016-.4067-.9082-.9083-.9082h-3.5326c-.5016 0-.9083-.4066-.9083-.9083 0-.5016.4067-.9082.9083-.9082h3.5326c1.5049 0 2.7248 1.2199 2.7248 2.7247v6.1882c5.4173-.1156 9.7733-4.5432 9.7733-9.9883v-21.0622c0-3.5113-2.8465-6.3577-6.3577-6.3577h-11.7515c-.2544 2.4549-.6822 4.8242-1.3979 7.0653h1.6933c.5016 0 .9083.4067.9083.9083s-.4067.9082-.9083.9082h-2.3504c-.0199.0488-.0399.0975-.0601.1461-.5799 1.3974-1.2916 2.7304-2.1617 3.9909 2.3326 1.4384 3.8897 4.0179 3.8897 6.9625v11.0963c0 4.7543-3.8542 8.6085-8.6085 8.6085h-6.3577c-4.5145 0-8.1742-3.6597-8.1742-8.1741v-11.6887c0-.1526.0377-.2964.1042-.4227-4.58594-2.7762-7.3946-6.3014-9.08407-10.3727-2.27937-5.4928-2.47971-11.8953-2.47971-18.5073 0-.41112.27774-.7714.67487-.87774l.00605-.00163.02547-.0069.10271-.02813c.09085-.02504.22557-.06257.39906-.11194.34701-.09876.84883-.24484 1.46464-.43323 1.23243-.37701 2.91734-.9222 4.72939-1.59519 1.81419-.6738 3.74269-1.47088 5.46709-2.34993 1.738-.88597 3.208-1.8252 4.1524-2.76526zm-3.7456 38.00815v3.2949h3.2381c.5016 0 .9082.4066.9082.9083 0 .5016-.4066.9082-.9082.9082h-3.2381v6.0418c0 3.3518 2.5939 6.0978 5.8838 6.3402v-2.4002c0-.5016.4067-.9082.9083-.9082s.9082.4066.9082.9082v2.4176h4.1068v-3.1986c0-.5016-.4066-.9082-.9082-.9082h-1.5155c-.5016 0-.9082-.4066-.9082-.9082s.4066-.9083.9082-.9083h1.5155c1.5048 0 2.7247 1.2199 2.7247 2.7247v3.1384c3.3217-.4439 5.8838-3.2886 5.8838-6.7318v-11.0963c0-2.3514-1.2764-4.4061-3.1775-5.5065-2.5864 3.1115-6.3047 5.7154-11.6166 7.6693-.2024.0745-.4247.0745-.6271 0-1.4829-.5455-2.8416-1.1416-4.0862-1.7853zm-11.45874-29.1494c.0166 6.3737.29156 12.1857 2.34012 17.1223 1.98002 4.7714 5.65392 8.8006 12.61742 11.6374l.061-11.118c.0027-.5016.4116-.906.9132-.9033.5016.0028.906.4116.9032.9132l-.0609 11.1022c6.9541-2.8365 10.6242-6.8634 12.6029-11.6315 2.0485-4.9366 2.3235-10.7486 2.3401-17.1223-.3491-.1-.8214-.2384-1.3869-.41135-1.256-.38425-2.9762-.94074-4.8304-1.62938-1.852-.68784-3.8509-1.51236-5.6597-2.43443-1.093-.5572-2.1392-1.16121-3.0488-1.8057l.0571 9.95956c.0029.5016-.4014.9105-.903.9134s-.9105-.4014-.9134-.903l-.0574-10.00468c-.9209.65752-1.985 1.27322-3.0976 1.84042-1.8088.92207-3.8076 1.74659-5.6597 2.43443-1.85415.68864-3.57432 1.24513-4.83041 1.62938-.5655.17295-1.03775.31135-1.38683.41135z" fill-rule="evenodd"/><path d="m46.5978 26.1792c-.5016 0-.9083.4067-.9083.9083s.4067.9082.9083.9082h4.4576c.5016 0 .9082-.4066.9082-.9082s-.4066-.9083-.9082-.9083z"/><path d="m46.5978 33.3114c-.5016 0-.9083.4066-.9083.9083 0 .5016.4067.9082.9083.9082h4.4576c.5016 0 .9082-.4066.9082-.9082 0-.5017-.4066-.9083-.9082-.9083z"/><path d="m46.5978 40.4436c-.5016 0-.9083.4066-.9083.9082s.4067.9083.9083.9083h4.4576c.5016 0 .9082-.4067.9082-.9083s-.4066-.9082-.9082-.9082z"/><path d="m35.9839 58.3409c.4923 0 .8915-.3991.8915-.8915s-.3992-.8915-.8915-.8915c-.4924 0-.8916.3991-.8916.8915s.3992.8915.8916.8915z"/></g></svg>