<svg fill="none" height="25" viewBox="0 0 25 25" width="25" xmlns="http://www.w3.org/2000/svg"><g fill="#f94409"><path d="m21.1313 19.8251h-1.0894c-.1676 0-.2793.1365-.2793.273v1.0645c0 .7369.6145 1.3374 1.3687 1.3374s1.3687-.6005 1.3687-1.3374c0-.737-.6145-1.3375-1.3687-1.3375z"/><path d="m20.7682 6.3144c-.2235-.19106-.5866-.40942-.838-.54589l-5.1397-2.70215c-.2793-.16377-.6145-.27294-.9218-.38212-.8938-.24565-1.8436-.24565-2.7374 0-.3352.08188-.6425.21835-.9218.38212l-5.1676 2.70215c-.2514.13647-.58659.35483-.83799.54589-1.08938.90071-1.70391 2.21085-1.70391 3.63016v7.83354c0 2.6202 2.17877 4.7219 4.8324 4.7219h9.0223c.7542 0 1.3688-.6005 1.3688-1.3374v-1.0645c0-.1638-.1397-.273-.2794-.273h-10.1117c-1.14525 0-2.09497-.928-2.09497-2.047v-7.83354c0-.76425.41899-1.44661 1.08939-1.80143l5.30728-2.75674c.5586-.24565 1.1452-.24565 1.7039 0l5.3073 2.75674c.6703.35482 1.0893 1.03718 1.0893 1.80143v6.87824c0 .7369.6146 1.3374 1.3688 1.3374.7541 0 1.3687-.6005 1.3687-1.3374v-6.87824c.0279-1.41931-.6146-2.72945-1.7039-3.63016z"/></g></svg>