<svg fill="none" height="34" viewBox="0 0 34 34" width="34" xmlns="http://www.w3.org/2000/svg"><g fill="#895d25"><path d="m28.5756 6.77246c.2761 0 .5-.22386.5-.5s-.2239-.5-.5-.5zm-.967.43471h-.5v.00436zm-.9986.95003.0118-.5h-.0118zm-4.4305 0v-.50015l-.012.00029zm-.9986-.91172-.5-.00869c-.0001.00845 0 .0169.0003.02534zm-.9432-.9577.0157-.49975c-.0053-.00016-.0105-.00025-.0157-.00025zm-3.2416-.5c-.2761 0-.5.22386-.5.5 0 .27615.2239.5.5.5zm11.5795-.01532c-.3837 0-.755.14718-1.0313.41428l.6951.71898c.0863-.08348.207-.13326.3362-.13326zm-1.0313.41428c-.2769.26765-.4357.63434-.4357 1.02043h1c0-.10972.045-.21851.1308-.30145zm-.4357 1.02479c.0005.05686-.0108.11366-.0337.16719l.9193.39366c.077-.17997.1161-.37372.1144-.56957zm-.0337.16719c-.0229.05358-.0573.10333-.1019.14579l.6892.72452c.1417-.1348.2549-.29673.332-.47665zm-.1019.14579c-.0447.0425-.0987.07677-.1593.09991l.357.93411c.1826-.06977.3499-.17473.4915-.3095zm-.1593.09991c-.0606.02316-.1259.03448-.1919.03292l-.0236.99972c.1953.00461.39-.02877.5725-.09853zm-.2037.03278h-4.4305v1h4.4305zm-4.4425.00014c-.1307.00315-.2543-.04401-.3445-.12636l-.6743.73851c.284.25923.659.39681 1.0429.38756zm-.3445-.12636c-.0897-.08184-.1387-.19095-.1424-.30216l-.9994.03331c.0128.38601.183.74762.4675 1.00736zm-.1422-.27682c.0067-.38411-.1434-.75204-.4123-1.02512l-.7125.70169c.084.08527.1269.19546.1249.30606zm-.4123-1.02512c-.2684-.27252-.6334-.42906-1.0151-.44101l-.0313.99951c.1298.00407.2493.05736.3339.14319zm-1.0308-.44126h-3.2416v1h3.2416z"/><path d="m19.0898 20.5537c0 .2762-.2238.5-.5.5-.2761 0-.5-.2238-.5-.5 0-.2761.2239-.5.5-.5.2762 0 .5.2239.5.5z"/><path d="m9.10156 22.916c.27615 0 .5-.2238.5-.5 0-.2761-.22385-.5-.5-.5-.27614 0-.5.2239-.5.5 0 .2762.22386.5.5.5z"/><path d="m30.1484 6.77246c.2762 0 .5-.22386.5-.5s-.2238-.5-.5-.5c-.2761 0-.5.22386-.5.5s.2239.5.5.5z"/><path clip-rule="evenodd" d="m17.6615 3.44336c-.2975 0-.5861.11409-.8014.32227-.216.20874-.3406.49554-.3406.79831v8.82426h-2.733c-.3837 0-.7549.1472-1.0312.4143-.2743.2652-.4328.6275-.4357 1.0097-.0025.0537-.0156.107-.0391.1571-.0243.052-.0595.0999-.1044.1406s-.0987.0732-.1585.095-.124.0321-.1886.03l-.016-.0003h-4.45425l-.01208.0002c-.13205.0032-.25716-.0442-.34881-.1272-.08789-.0796-.13787-.185-.14545-.2935.00393-.3763-.14328-.7366-.40601-1.0056-.26725-.2737-.63207-.431-1.01376-.443-.00808-.0003-.01617-.0003-.02425-.0002l-1.34206.023c-.2761.0047-.49609.2324-.49136.5085s.23238.4961.50849.4913l1.32784-.0227c.12458.0064.2387.0588.31966.1418.08257.0845.12423.1936.12139.3027-.00029.0113-.0002.0225.00026.0337.01599.3859.18834.7465.47393 1.0051.28338.2567.65598.3935 1.03765.3859h4.44161c.1885.005.3765-.0255.5537-.0899.18-.0655.3459-.165.4879-.2937.1421-.1286.2575-.284.3388-.4577.0813-.1738.1267-.362.1331-.5538l.0003-.0166c0-.1097.0449-.2185.1307-.3014.0864-.0835.207-.1333.3362-.1333h2.6782v3.2082c0 .0264-.0107.0553-.0355.0793-.0254.0246-.0634.0413-.1065.0413h-13.47369c-.04302 0-.08101-.0167-.10643-.0413-.02485-.024-.03555-.0529-.03555-.0793v-1.9216c0-.2762-.22386-.5-.5-.5s-.5.2238-.5.5v1.9216c0 .2286.07101.4481.19873.6317-.04638.0667-.08555.1385-.11655.2143-.05829.1425-.08622.2955-.08171.4496v1.6398c-.00031.0073-.00047.0146-.00047.0219s.00016.0146.00047.0219v11.3326c-.00001.3023.12341.5891.33784.7989.21388.2093.50101.3258.79825.3293h.0059 13.47371.0059c.2384-.0028.4703-.0783.6631-.2161.1929.1379.4249.2135.6634.2163h.0059 13.4737c.1487 0 .2964-.0283.4346-.0836.1383-.0554.265-.137.3725-.2409s.1938-.2283.253-.3664c.0591-.1381.0898-.2867.0898-.4373v-11.2376c.0058-.0305.0089-.0619.0089-.0941s-.0031-.0636-.0089-.0941v-1.5934c.0029-.1505-.025-.2996-.0816-.4388-.0326-.0801-.0742-.1558-.1238-.2258.1293-.1826.2025-.4013.2054-.6298v-.0063-13.02456-.0063c-.0038-.30234-.1308-.58745-.3478-.79461-.2164-.20661-.5048-.31968-.8021-.31967zm13.6236 16.63334v-1.2055c.0004-.0147-.0021-.0296-.008-.0442s-.0153-.0291-.0284-.0421c-.0132-.013-.0299-.0243-.0496-.0323-.0196-.008-.0414-.0124-.0637-.0124h-13.47c-.0436.001-.082.0183-.1081.0435-.0253.0245-.0369.054-.0378.0815v13.0432c0 .0282.0114.0588.0373.0842.0261.0255.0647.043.1086.044h13.4698c.022 0 .0434-.0042.0629-.012.0194-.0077.036-.0187.0492-.0315.0131-.0127.0226-.0269.0288-.0412.0061-.0143.009-.0291.009-.0435v-10.8317h-2.713c-.0629-.0005-.1249.011-.1823.0336s-.1086.0556-.1509.0961-.0749.0878-.0968.1387c-.0219.0508-.0329.1047-.0329.1586l-.0003.0167c-.0128.386-.1831.7476-.4676 1.0074-.2823.2577-.6546.3952-1.0362.3877h.0055v-.5l-.0121.4998.0066.0002h-4.4196l.0066-.0002-.012-.4998v.5h.0054c-.3815.0075-.7539-.13-1.0362-.3877-.2845-.2598-.4547-.6214-.4676-1.0074-.0003-.0084-.0003-.0169-.0002-.0253.0019-.1091-.0407-.2179-.124-.3019-.084-.0845-.2026-.1366-.331-.1396-.2761-.0066-.4946-.2356-.4881-.5117s.2356-.4946.5117-.488c.3817.009.7476.1634 1.017.4348.2661.268.4166.6291.4145 1.0072.0059.1082.0547.2137.142.2933.0902.0824.2138.1296.3444.1264l.0121-.0003 4.4425.0002c.1306.0031.2543-.0439.3445-.1263.0881-.0804.1369-.1871.1421-.2963.0015-.1871.0405-.3718.1146-.5436.0754-.1751.1855-.3329.3231-.4647.1374-.1318.2996-.2351.4768-.3048.1764-.0694.3647-.1043.5542-.1031h.0022l-.004.5v-.5h.0018zm-14.8199 0v-1.1931c0-.0066.0001-.0132.0004-.0198.001-.0262-.0084-.0548-.0315-.0792-.0222-.0234-.0557-.0408-.0949-.0446h-13.45801c-.00808 0-.01616-.0002-.02423-.0005-.02211-.0011-.04391.0023-.0638.0096-.01987.0074-.03675.0182-.05002.0309-.01323.0126-.02254.0267-.02835.041-.00579.0141-.00824.0286-.00768.0428.00026.0066.00039.0132.00039.0198v1.1701h2.71723c.19032.003.37855.0426.55384.1169.17532.0743.33469.182.46836.3178.1337.1358.239.297.30887.4745.06687.1699.09979.351.09672.5335.00793.1079.05785.2128.14534.292.09165.083.21676.1304.34881.1272.27606-.0067.50526.2117.51193.4878.00667.276-.21171.5052-.48777.5119-.38398.0093-.75926-.1276-1.04429-.3857-.28559-.2587-.45794-.6192-.47393-1.0052-.00052-.0126-.00057-.0253-.00013-.038.00185-.0532-.00726-.1066-.02719-.1572-.01995-.0507-.05058-.0982-.091-.1392-.04045-.0411-.08989-.0749-.1459-.0987-.05507-.0233-.11491-.0362-.17602-.0376h-2.70487v10.8545c0 .0282.01135.0588.03725.0842.02608.0255.06473.043.10866.044h13.46589c.0439-.001.0826-.0185.1086-.044.0259-.0254.0373-.0559.0373-.0842v-10.8315h-2.6868c-.0625-.001-.1243.01-.1814.0323-.0572.0222-.1081.0548-.1501.0951-.042.0402-.0742.0873-.0957.1378s-.0321.1039-.0317.1575v.0127l-.0002.0082c-.0064.1918-.0518.38-.1331.5538-.0813.1737-.1967.3291-.3388.4578-.142.1286-.3079.2281-.4879.2936-.1772.0644-.3652.0949-.5537.09h-.9401c-.2761 0-.5-.2239-.5-.5 0-.2762.2239-.5.5-.5h.9473l.016.0002c.0646.0021.1288-.0082.1886-.03.0598-.0217.1136-.0543.1585-.095s.0801-.0886.1044-.1406c.0233-.0496.0363-.1023.039-.1556.0002-.1872.0383-.3722.1116-.5444.0751-.1764.1855-.3353.3237-.4678s.3015-.2361.4799-.3054c.1769-.0688.3657-.1027.5554-.1002zm1.0899-15.59208c.0254-.02458.0634-.04126.1064-.04126h13.4737c.0448 0 .0846.0172.1115.04291.0258.02462.0376.0544.0384.08212v13.01571c-.0008.0277-.0126.0575-.0384.0821-.0269.0257-.0667.0429-.1114.0429h-13.4738c-.043 0-.081-.0167-.1064-.0412-.0249-.0241-.0356-.053-.0356-.0794v-13.02456c0-.0264.0107-.0553.0356-.07932z" fill-rule="evenodd"/><path d="m2.70703 13.8652c0 .2762-.22386.5-.5.5s-.5-.2238-.5-.5c0-.2761.22386-.5.5-.5s.5.2239.5.5z"/></g></svg>