<svg fill="none" height="25" viewBox="0 0 25 25" width="25" xmlns="http://www.w3.org/2000/svg"><g fill="#03a9f1"><path d="m14.7656 4.66699c-1.1405 0-2 .85948-2 2 0 .50405.2571 1.04996.6869 1.47978.1953.19526.1953.51185 0 .70711-.1952.19526-.5118.19526-.7071 0-.5702-.57017-.9798-1.35761-.9798-2.18689 0-1.69281 1.3072-3 3-3 1.5625 0 2.7965 1.11368 2.9772 2.61633l2.5507.72877c.0491.01108.0974.02984.1432.0567l2.1232 1.24616c.0115.00654.0227.01352.0336.02093.0717.04843.1272.11275.1645.18544.0382.07451.0573.1578.0552.24177-.0061 1.01626-.7194 1.91371-1.8784 2.51421-1.1611.6016-2.7143.8872-4.234.8894-.0061.0002-.0123.0003-.0185.0003h-.4816l.2252 1.2388c.034.1635.1473.2612.3423.2612h.5c.2762 0 .5.2239.5.5s-.2238.5-.5.5h-.5c-.6369 0-1.1901-.4009-1.3236-1.0686l-.0017-.0086-.2586-1.4228h-2.4194c-.0173.5675-.2115 1.085-.5304 1.5h.8658c.2761 0 .5.2239.5.5s-.2239.5-.5.5h-2.8856l-.0319.0002c-1.76609 0-3.44574-1.0184-4.19983-2.6151-.11066-.2221-.20082-.4538-.27086-.6918-1.39986.1909-2.52852 1.3942-2.52852 2.807 0 1.5572 1.27615 2.8334 2.83334 2.8334h7.49997c1.1928 0 2.1667.9738 2.1667 2.1666s-.9739 2.1667-2.1667 2.1667h-4.99997c-.27615 0-.5-.2239-.5-.5 0-.2762.22385-.5.5-.5h4.99997c.6406 0 1.1667-.5262 1.1667-1.1667s-.5261-1.1666-1.1667-1.1666h-7.49997c-2.10948 0-3.83334-1.7239-3.83334-3.8334 0-1.9323 1.50727-3.5197 3.35436-3.792-.07418-1.10861.23954-2.25845.90836-3.17047 1.03887-1.41664 2.81643-2.05755 4.56449-1.78153.2728.04306.459.2991.4159.57186-.043.27276-.2991.45897-.5718.4159-1.41862-.22399-2.80772.30177-3.60219 1.38513-.61486.83845-.84442 1.9323-.66714 2.91701.00452.0182.00804.0368.0105.0558.05781.2941.15228.5778.28399.8412l.00532.0107c.57876 1.2298 1.89111 2.0415 3.28502 2.0463l.0132-.0002h.0244c.8784-.0129 1.5582-.701 1.5582-1.5832 0-.8905-.6928-1.5833-1.5834-1.5833-.2761 0-.49996-.2238-.49996-.5 0-.27613.22386-.49999.49996-.49999 1.1188 0 2.0558.68579 2.4203 1.66649h2.9898l.0083-.0001.0102.0001h1.054c.006-.0002.0121-.0003.0182-.0003 1.4237 0 2.812-.27 3.7912-.7773.8139-.42172 1.1988-.92409 1.3061-1.37211l-1.7934-1.0526-2.8486-.81389c-.038-.00994-.0743-.02424-.1083-.04235-.0651-.0346-.1205-.08258-.1635-.1394-.0441-.05817-.0758-.1263-.0911-.20044-.0076-.0363-.0112-.0737-.0104-.11157-.005-1.13557-.8628-1.99005-2-1.99005z"/><path d="m17.4336 8.26172c0-.25-.25-.5-.5-.5s-.5.25-.5.5.25.5.5.5.5-.25.5-.5z"/></g></svg>