<svg fill="none" height="50" viewBox="0 0 50 50" width="50" xmlns="http://www.w3.org/2000/svg"><g fill="#03a9f1"><path d="m29.5391 8.83301c-2.5572 0-4.5 1.94279-4.5 4.49999-.0003.2759-.2241.5-.5.5-.2762 0-.5-.2238-.5-.5 0-3.1095 2.3905-5.49999 5.5-5.49999 2.9813 0 5.3017 2.19759 5.4879 5.11939l5.4828 1.5665c.0525.015.1006.0379.1435.0669l4.226 2.4804c.0061.0036.0121.0072.0181.011.0859.0541.15.1306.189.2173.016.0356.028.0734.0354.1128.0067.035.0096.0709.0086.1068-.0066 1.7802-1.2565 3.441-3.4869 4.5965-2.231 1.1559-5.2543 1.7193-8.245 1.7227-.0062.0003-.0123.0005-.0185.0006l-.0076.0001h-1.57l.5585 3.0716c.1177.5799.5639.9274 1.1756.9274h1c.2761 0 .5.2239.5.5s-.2239.5-.5.5h-1c-1.0536 0-1.9401-.6509-2.157-1.7353l-.0017-.0086-.5918-3.2551h-5.761c.0075.1098.0113.2207.0113.3327 0 1.4998-.6796 2.8171-1.753 3.6663h2.9211c.2762 0 .5.2239.5.5s-.2238.5-.5.5h-5.7742c-.0202.0003-.0404.0004-.0606.0004-3.3495 0-6.5291-1.935-7.9499-4.9484-.2703-.5416-.476-1.1144-.6184-1.705-3.23118.2095-5.93021 2.9129-5.93021 6.1537 0 3.3905 2.77615 6.1666 6.16671 6.1666h15c2.1094 0 3.8333 1.7239 3.8333 3.8334 0 2.1094-1.7239 3.8333-3.8333 3.8333h-10c-.2762 0-.5-.2239-.5-.5 0-.2762.2238-.5.5-.5h10c1.5572 0 2.8333-1.2762 2.8333-2.8333 0-1.5572-1.2761-2.8334-2.8333-2.8334h-15c-3.94285 0-7.16671-3.2238-7.16671-7.1666 0-3.762 3.07648-6.846 6.75211-7.1432-.2706-2.2402.3115-4.6248 1.6765-6.4861 1.9556-2.6667 5.3165-3.8909 8.6479-3.3649.2727.0431.4589.2991.4159.5719-.0431.2727-.2991.4589-.5719.4159-3.0019-.474-5.9743.6351-7.6855 2.9684-1.3129 1.7904-1.8056 4.126-1.4197 6.2377.0073.0264.0125.0537.0154.0817.1237.6379.3282 1.2544.615 1.828l.0053.0107c1.2447 2.645 4.0547 4.3728 7.0301 4.3796.004-.0002.0081-.0003.0122-.0003.0022-.0001.0044-.0001.0067-.0001h.0525c2.0313-.0279 3.6127-1.6271 3.6127-3.6663 0-2.0572-1.6095-3.6667-3.6667-3.6667-.2761 0-.5-.2238-.5-.5 0-.2761.2239-.5.5-.5 2.1449 0 3.9166 1.3899 4.4795 3.334h6.322c.0219-.0014.0437-.0014.0651 0h2.1091l.016-.0006.0098-.0001c2.8981 0 5.7609-.5478 7.8124-1.6106 1.9041-.9865 2.8112-2.253 2.9327-3.4448l-3.9458-2.3159-5.758-1.6452c-.0381-.0099-.0744-.0242-.1083-.0423-.0646-.0343-.1196-.0818-.1624-.138-.0454-.0592-.0777-.1289-.0929-.2048-.0072-.0356-.0105-.0721-.0098-.1091-.0052-2.552-1.9462-4.48959-4.4999-4.48959z"/><path d="m34.3711 16.2744c0-.375-.375-.75-.75-.75s-.75.375-.75.75.375.75.75.75.75-.375.75-.75z"/></g></svg>