<svg fill="none" height="50" viewBox="0 0 50 50" width="50" xmlns="http://www.w3.org/2000/svg"><g fill="#f18303"><path d="m24.9974 29.9209c-1.0501 0-2.0773.3064-2.9557.8817s-1.5698 1.3945-1.9895 2.357c-.1104.2531-.405.3689-.6581.2585-.2532-.1103-.3689-.405-.2586-.6581.4975-1.141 1.3171-2.112 2.3583-2.7939 1.0413-.682 2.2589-1.0452 3.5036-1.0452s2.4623.3632 3.5035 1.0452c1.0413.6819 1.8609 1.6529 2.3583 2.7939.1104.2531-.0053.5478-.2585.6581-.2531.1104-.5478-.0054-.6581-.2585-.4197-.9625-1.1111-1.7817-1.9895-2.357-.8785-.5753-1.9057-.8817-2.9557-.8817z"/><path d="m26 18c0-.5-.5-1-1-1s-1 .5-1 1 .5 1 1 1 1-.5 1-1z"/><path d="m22 14c0-.5-.5-1-1-1s-1 .5-1 1 .5 1 1 1 1-.5 1-1z"/><path d="m29 13c.5 0 1 .5 1 1s-.5 1-1 1-1-.5-1-1 .5-1 1-1z"/><path clip-rule="evenodd" d="m37.3359 13.5375c-.4926.6216-1.0958 1.1457-1.7781 1.5464.0186.256.0279.5131.0278.7708-.0008 2.0457-.5943 4.0474-1.7086 5.7629-.7147 1.1004-1.6241 2.0529-2.6775 2.8142 1.1596-.2077 2.4444-.4078 3.6893-.5033 1.4334-.1099 2.8635-.0857 4.0034.2562 1.1585.3474 2.0963 1.0549 2.3355 2.3324.149.7976.0965 1.4684-.1548 2.0284-.2523.5621-.6792.9551-1.1721 1.2431-.4863.2841-1.0557.477-1.6262.6353-.3123.0867-.6608.1717-1.0028.2552-.214.0522-.4254.1038-.6238.1548-.0753.0426-.1617.0658-.2514.0648.1165.0694.2045.1857.2339.329.3069 1.4949.3501 3.032.1277 4.5418-.011.0744-.0378.1426-.0766.2016.0527-.0016.1056-.0023.1586-.0023 2.9407 0 5.3245 2.3838 5.3245 5.3245s-2.3838 5.3246-5.3245 5.3246c-2.3395 0-4.3266-1.5088-5.0413-3.6064-2.1542 1.7538-4.4354 2.6584-6.748 2.6584-2.3422 0-4.6522-.9278-6.8305-2.726-.6948 2.1327-2.6993 3.674-5.0638 3.674-2.9407 0-5.32457-2.3839-5.32457-5.3246s2.38387-5.3245 5.32457-5.3245c.0581 0 .1159.0009.1735.0027-.0455-.063-.0769-.1375-.089-.2197-.222-1.5098-.1788-3.0467.1277-4.5416.0276-.1346.1069-.2454.213-.316-.2466-.066-.498-.1279-.753-.1899l-.1053-.0256c-.268-.0651-.54-.1312-.8051-.2014-.5961-.158-1.1958-.3467-1.7098-.6264-.5201-.283-.97877-.6734-1.25444-1.245-.27551-.5712-.33842-1.2614-.18458-2.0883.23919-1.2775 1.17717-1.9855 2.33562-2.3329 1.1399-.3419 2.57-.3661 4.0034-.2562 1.2441.0954 2.5281.2954 3.6871.5029-.942-.6809-1.7695-1.5151-2.4458-2.4726-1.0994-1.5565-1.7584-3.3809-1.9073-5.2807-.0418-.5328-.0431-1.066-.0046-1.5952-.6833-.4016-1.2871-.9269-1.7801-1.55-.0036-.0046-.0072-.0092-.0106-.0139-.9561-1.2999-1.3679-2.9213-1.148-4.51986.2199-1.59858 1.0542-3.0485 2.3258-4.04192 1.2716-.99343 2.8803-1.45212 4.4846-1.2787 1.4951.16162 2.8767.86039 3.8914 1.96024.7749-.21223 1.5748-.3365 2.3847-.36804 1.0807-.04209 2.1564.08179 3.1908.36313.4531-.54845.9977-1.01556 1.6106-1.38015.713-.42415 1.5038-.70094 2.3256-.814s1.658-.06009 2.459.15578 1.5506.59025 2.2043 1.10098c.6537.51072 1.1983 1.14741 1.6016 1.87238.4033.72496.657 1.52347.7461 2.34824.0892.82477.012 1.65902-.2271 2.45342-.2384.7926-.6331 1.5294-1.1608 2.167zm-5.4868-9.10713c.6893-.09483 1.3906-.0504 2.0625.13066.6718.18107 1.3005.49508 1.8488.92345.5484.42837 1.0052.9624 1.3434 1.57047s.5511 1.27782.6258 1.9696c.0748.69178.01 1.39155-.1904 2.05785-.2005.6663-.5327 1.2856-.9768 1.8213l-.0072.0089c-.3254.4113-.7081.7721-1.1353 1.072-.2231-1.2461-.6688-2.4472-1.3208-3.5441-.9737-1.6381-2.3715-2.98302-4.0458-3.89292-.4021-.21851-.8166-.40998-1.2407-.57378.3213-.33329.6863-.62297 1.0859-.86069.598-.35575 1.2613-.58791 1.9506-.68274zm2.0931 25.43203c.6466.4473 1.3669.7758 2.1273.9709-.0098.0014-.0195.0031-.0293.0051-.2705.0556-.4448.3199-.3893.5904.2835 1.3807.3234 2.8005.118 4.195-.024.1624.0331.318.1406.426-2.4969.4402-4.3939 2.6203-4.3939 5.2435 0 .2095.0121.4162.0357.6195-2.1361 1.8602-4.336 2.7571-6.5004 2.7571-2.1969 0-4.4303-.9239-6.5963-2.8413.0176-.1761.0266-.3546.0266-.5353 0-2.6279-1.9038-4.8111-4.4073-5.2458.1177-.1083.1816-.271.1565-.4412-.205-1.3946-.1651-2.8143.118-4.1952.04-.1955-.0398-.3876-.1892-.5001.7343-.1836 1.4392-.4708 2.0931-.8534.2384-.1394.3185-.4457.1791-.684-.1394-.2384-.4457-.3186-.684-.1791-.5766.3373-1.1983.5898-1.8462.7502-.2795-.0759-.5612-.1452-.836-.2121l-.1058-.0257c-.2689-.0653-.5307-.1289-.7848-.1963-.5788-.1534-1.0832-.3178-1.4881-.5381-.3988-.217-.6737-.4735-.83164-.801-.15814-.3279-.22899-.789-.10221-1.4707.14685-.7837.69795-1.2758 1.63975-1.5582.9604-.2881 2.242-.3242 3.6397-.217 1.3879.1064 2.8418.3496 4.1269.5887.3564.0663.7027.1329 1.0319.1963l.0016.0003c.8068.1552 1.5107.2906 2.0059.3527.9095.2502 1.8508.378 2.7989.378.9473 0 1.8878-.1276 2.7966-.3773.4954-.0618 1.201-.1976 2.0105-.3533.3296-.0634.6772-.1303 1.034-.1967 1.2852-.2391 2.739-.4823 4.1269-.5887 1.3977-.1072 2.6793-.0711 3.6397.217.9419.2825 1.493.7746 1.6398 1.5585.1229.6584.0614 1.1105-.0842 1.4349-.1446.3222-.3976.5749-.7643.7892-.3733.2181-.8434.3837-1.3891.5351-.3159.0877-.6213.1619-.9375.2387-.2281.0554-.4619.1121-.7094.1764-.6614-.1643-1.2881-.4472-1.8492-.8354-.2272-.1571-.5386-.1003-.6957.1268s-.1003.5385.1268.6956zm-11.4458-4.754c.8132.2206 1.654.3332 2.5009.3332.8502 0 1.6944-.1135 2.5105-.3358.027-.0101.0552-.018.0844-.0234.4137-.1168.8199-.2616 1.2159-.4338.6688-.7236 1.1188-1.6228 1.2967-2.5934.1836-1.0022.0688-2.0363-.3301-2.9739s-1.0643-1.7374-1.9138-2.3001c-.8492-.5626-1.8449-.8634-2.8636-.8652-1.0186.0018-2.0143.3026-2.8636.8652-.8494.5627-1.5149 1.3625-1.9138 2.3001s-.5137 1.9717-.33 2.9739c.1717.9374.5974 1.8083 1.2289 2.5187.0225.0252.0453.0502.0683.0749.3943.1715.7988.3158 1.2107.4323.0343.0058.0673.015.0986.0273zm-6.9929-13.9437c-.442.8955-.7529 1.8447-.9274 2.8188-.4243-.298-.8046-.6561-1.1284-1.0641-.7983-1.0891-1.1418-2.4461-.9577-3.78397.1844-1.34082.8842-2.55695 1.9508-3.39019 1.0665-.83324 2.4158-1.21797 3.7614-1.07252 1.0995.11886 2.1258.58406 2.9357 1.31867-.6631.25963-1.3012.58659-1.9036.97756-1.5986 1.03736-2.8875 2.48692-3.7308 4.19575zm-2.3469 25.8041c-2.3884 0-4.32457 1.9361-4.32457 4.3245s1.93617 4.3246 4.32457 4.3246 4.3246-1.9362 4.3246-4.3246-1.9362-4.3245-4.3246-4.3245zm19.359 4.3245c0-2.3884 1.9362-4.3245 4.3246-4.3245s4.3245 1.9361 4.3245 4.3245-1.9361 4.3246-4.3245 4.3246-4.3246-1.9362-4.3246-4.3246zm-2.9398-33.86707c-1.5162-.82396-3.2267-1.22343-4.951-1.15627-1.7244.06716-3.3986.59845-4.8462 1.53784-1.4475.93938-2.6147 2.252-3.3784 3.7995-.7637 1.5474-1.0956 3.2723-.9607 4.9927.1349 1.7203.7316 3.3724 1.7272 4.7819.5935.8403 1.3157 1.5758 2.1362 2.1816-.1831-.4245-.319-.8703-.4037-1.3295-.2209-1.1967-.0849-2.4319.3911-3.5518s1.2709-2.075 2.2858-2.7464 2.2049-1.0294 3.4218-1.0294 2.4068.358 3.4217 1.0294 1.8099 1.6265 2.2859 2.7464.612 2.3551.3911 3.5518c-.0848.4592-.2207.905-.4037 1.3295.9203-.6796 1.7162-1.5218 2.3455-2.4906 1.0091-1.5535 1.5465-3.3661 1.5472-5.2186.0007-1.7257-.4644-3.4195-1.3461-4.9029-.8817-1.48332-2.1475-2.70122-3.6637-3.52517z" fill-rule="evenodd"/></g></svg>