<svg fill="none" height="34" viewBox="0 0 34 34" width="34" xmlns="http://www.w3.org/2000/svg"><g fill="#895d25"><path d="m19.9141 13.8994c-.2762 0-.5.2239-.5.5 0 .2762.2238.5.5.5h.7421v.7781c0 .2762.2239.5.5.5.2762 0 .5-.2238.5-.5v-1.2398c.001-.0126.0015-.0254.0015-.0383 0-.2761-.2239-.5-.5-.5z"/><path d="m21.625 17.5c0-.25-.25-.5-.5-.5s-.5.25-.5.5.25.5.5.5.5-.25.5-.5z"/><path clip-rule="evenodd" d="m24.7877 3.84047v22.72983h.6351c.4236 0 .8288.17 1.1267.4709.2978.3008.4642.7077.4642 1.1309v1.5977c0 .2742-.1078.5381-.3012.7335-.1936.1956-.4573.3064-.7333.3064h-17.97759c-.27229-.0057-.5305-.119-.71956-.3139-.18887-.1947-.2938-.4555-.29377-.726v-1.5977c0-.4232.16642-.8301.46421-1.1309.29797-.3009.70315-.4709 1.1267-.4709h.71105v-22.66791c-.00869-.22891.03085-.45666.11571-.66966.08635-.21677.21743-.41281.38378-.57706.16629-.16418.36447-.2933.58177-.38094.2172-.08759.4499-.13232.6844-.13215h7.6362l.0067.00004h4.3107c.2286-.00159.4559.03953.6691.12158.2139.08232.4101.20458.5768.36099.1667.15647.3006.34416.3926.55301.092.20893.1397.43412.1397.66227zm-14.0422-.63833c.0971-.03917.2026-.05966.3098-.05956h4.313l.0067.00004h7.6364l.004-.00001c.1048-.00086.2082.01798.304.05483.0957.03685.181.09062.2517.15694.0706.06626.125.14359.1616.22674.0366.08307.055.17112.055.25931v22.72987h-13.4975v-22.67827c0-.00759-.0001-.01518-.0005-.02276-.0041-.09011.0111-.18063.0452-.26645.0343-.08591.0873-.1663.1574-.23556.0702-.06932.1561-.12596.2532-.16512zm-2.16631 24.36816c-.15511 0-.30487.0622-.41608.1745-.11138.1125-.17483.2661-.17483.4273v1.5977c0 .012.0047.0227.0116.0298.00617.0063.01349.0094.02039.0101h17.95893c.0075 0 .0158-.003.0227-.01.007-.0071.0118-.0178.0118-.0299v-1.5977c0-.1612-.0634-.3148-.1748-.4273-.1112-.1123-.261-.1745-.4161-.1745z" fill-rule="evenodd"/></g></svg>