<svg fill="none" height="50" viewBox="0 0 50 50" width="50" xmlns="http://www.w3.org/2000/svg"><g fill="#895d25"><path d="m29.2852 20.6748c-.2762 0-.5.2239-.5.5s.2238.5.5.5h1.3281v1.3796c0 .2761.2238.5.5.5.2761 0 .5-.2239.5-.5v-1.852c.0005-.0091.0007-.0183.0007-.0276 0-.2761-.2238-.5-.5-.5z"/><path d="m31.6133 25c0-.25-.25-.5-.5-.5s-.5.25-.5.5.25.5.5.5.5-.25.5-.5z"/><path clip-rule="evenodd" d="m36.2163 39.1311c0 .0625-.0114.1223-.0324.1775h1.2021c.5597 0 1.0955.2246 1.4897.6228.3941.398.6146.9368.6146 1.4975v2.3495c0 .3416-.1343.6701-.3749.9132-.2408.2432-.5685.3807-.9112.3807h-26.4327c-.3381-.0069-.659-.1476-.8942-.3901-.2349-.2422-.3656-.5668-.3656-.9038v-2.3495c0-.5607.2205-1.0995.6146-1.4975.3942-.3982.93-.6228 1.4897-.6228h1.3127c-.021-.0552-.0324-.115-.0324-.1775v-33.39728c-.0122-.30505.0402-.60882.1534-.89313.1147-.28798.2891-.54907.5111-.76826.222-.21913.4869-.39196.7782-.50943.2912-.11743.6035-.17751.9184-.17726h11.2298l.0081.00007h6.3421c.3073-.00224.6126.05298.8986.16308.2867.11036.5492.27404.7718.48286.2225.20887.4008.45892.523.73648.1222.27764.1855.5765.1855.87908zm-20.5032-34.64068c.1711-.06901.3561-.10484.5437-.10468h6.3444l.0082.00007 11.2299.00002.0041-.00004c.1834-.0015.3648.03145.5334.09634.1685.06489.3201.16008.4466.2788.1265.11867.2253.25836.2921.41022.0668.15178.1008.31352.1008.47614v33.48381c0 .0625.0115.1223.0324.1775h-20.3849c.021-.0552.0325-.115.0325-.1775v-33.40792c0-.00759-.0002-.01519-.0006-.02277-.0075-.16615.0205-.33259.083-.48963.0626-.15713.1589-.30255.2847-.42676.1259-.12427.2786-.22461.4497-.2936zm-3.0971 35.81818c-.2913 0-.5716.1168-.7791.3264-.2076.2097-.3252.4952-.3252.7939v2.3495c0 .0785.0305.153.0835.2076.0519.0535.1211.0839.193.0863h26.416c.0743 0 .1465-.0297.2006-.0843.0542-.0548.0855-.1301.0855-.2096v-2.3495c0-.2987-.1175-.5842-.3252-.7939-.2075-.2096-.4878-.3264-.7791-.3264z" fill-rule="evenodd"/></g></svg>