<svg fill="none" height="25" viewBox="0 0 25 25" width="25" xmlns="http://www.w3.org/2000/svg"><g fill="#f94409"><path d="m13.5039.25c.2761 0 .5.223858.5.5v.97541c.2513.02636.4472.23892.4472.49725 0 .27614-.2238.5-.5.5h-.4373l-.0099.00009-.0099-.00009h-.4393c-.2762 0-.5-.22386-.5-.5 0-.259.1969-.47201.4492-.49746v-.9752c0-.276142.2238-.5.5-.5z"/><path d="m11.5039 7.03809c0-.25-.25-.5-.5-.5s-.5.25-.5.5.25.5.5.5.5-.25.5-.5z"/><path d="m16.0039 6.53809c.25 0 .5.25.5.5s-.25.5-.5.5-.5-.25-.5-.5.25-.5.5-.5z"/><path d="m13.5039 7.92578c.25 0 .5.25.5.5s-.25.5-.5.5-.5-.25-.5-.5.25-.5.5-.5z"/><path clip-rule="evenodd" d="m1.06135 8.58233c.15837-.11311.33197-.15167.48295-.15167h1.27105c.84933 0 1.47999.56974 1.73921 1.261.00364.00971.00698.01954.01001.02946l1.47124 4.81498c.27282.8709 1.08978 1.5208 2.06441 1.5208h4.21448c.1492 0 .2645.0387.3183.0568l.0071.0023.0144.0048.0106.0033c.1831.0058.349.1115.4313.2761.0449.0898.103.2239.103.3909 0 .1597-.0532.2894-.0971.3789l-.7313 1.6621c-.0033.0075-.0068.0149-.0104.0223-.1633.3266-.4863.477-.7817.477h-1.5041l.4012 1.0356c.0408.0445.074.0971.0972.1567.0231.0597.034.1212.0339.1816l1.0673 2.7542c.0284.0478.0487.1001.06.1547l.1764.4553c.0998.2575-.0281.5471-.2856.6469s-.5471-.0281-.6469-.2856l-.129-.3329-4.05357-1.5725-4.05278 1.5722-.12801.332c-.09933.2577-.38873.386-.64639.2867-.25766-.0994-.386-.3888-.28666-.6464l.17472-.4532c.01122-.0558.03187-.1092.06089-.1579l1.06701-2.7676c.00149-.0559.01243-.1124.0338-.1675.02111-.0544.05068-.103.08664-.1449l.58295-1.512c-.87391-.5349-1.45461-1.479-1.50578-2.5537l-.00025-.0052-.20066-5.4187c-.00023-.0062-.00035-.0123-.00035-.0185 0-.2123-.15695-.42-.28777-.4723-.02757-.0111-.05411-.0245-.0793-.0403l-.53518-.3345c-.03209-.02-.0618-.04365-.088552-.07041-.089816-.08982-.195827-.21618-.256768-.37868-.064419-.17179-.072289-.37072.012671-.56439.061936-.16939.164714-.32016.315389-.42779zm4.29609 10.74907h3.64488l.42624 1.1-2.63283 1.0214-2.63847-1.0236.45605-1.1829c.2376.0557.48659.0851.74413.0851zm2.82077 2.6577 1.61167-.6252.57032 1.4716zm-4.38069-.6268-.5683 1.474 2.18404-.8472zm8.26208-4.3054h-3.95938c-1.43314 0-2.62274-.9549-3.01933-2.2239l-.00094-.0031-1.46679-4.8004c-.14427-.37124-.44716-.59884-.79781-.59884h-.7987l.09422.05889c.5103.22871.86572.80085.86995 1.37085l.20029 5.4077c.05569 1.1425.97781 2.0633 2.17633 2.0633h6.14136z" fill-rule="evenodd"/><path d="m21.3515 20.5156c.25 0 .5.25.5.5s-.25.5-.5.5-.5-.25-.5-.5.25-.5.5-.5z"/><path d="m21.8515 15.9551c0-.25-.25-.5-.5-.5s-.5.25-.5.5.25.5.5.5.5-.25.5-.5z"/><g clip-rule="evenodd" fill-rule="evenodd"><path d="m14.6679 14.4531v8.1322c0 .5322.416.9482.9483.9482h.333v.7163c0 .2762.2239.5.5.5s.5-.2238.5-.5v-.7163h5.4687v.7163c0 .2762.2239.5.5.5.2762 0 .5-.2238.5-.5v-.7177c.5063-.027.8945-.4326.8945-.9468v-8.1322c0-.5323-.416-.9482-.9483-.9482h-7.7479c-.5323 0-.9483.4159-.9483.9482zm1 8.0804v-3.5462h7.6445v3.5462h-.3773l-.0172-.0003-.0171.0003h-6.4345l-.0171-.0003-.0171.0003zm0-8.0286v3.4824h7.6445v-3.4824z"/><path d="m12.9887 3.19238c-.1947 0-.3475.09228-.4416.18647-.0942.09419-.1865.24697-.1865.4416v.04995c-.4946.3133-.7044.82973-.7044 1.35877 0 .81862.6204 1.59692 1.4905 1.77094.8787.17574 1.6804-.27398 2.0277-1.05561.3243-.72965.1305-1.55737-.4691-2.04208v-.08197c0-.19463-.0923-.34741-.1865-.4416s-.247-.18647-.4416-.18647zm.33 1.04375c.0047-.01245.0098-.02711.0149-.04375h.3862c.021.10701.0722.24202.196.36582.0267.02676.0564.05039.0885.07044.2929.18305.4152.55219.2563.90972-.1648.37095-.5158.56157-.9178.48117-.4105-.08211-.6866-.45639-.6866-.79036 0-.28899.1077-.46655.3373-.56495.1491-.06391.2557-.19489.2907-.34882.009-.01839.0227-.04756.0345-.07927z"/></g></g></svg>