<svg fill="none" height="25" viewBox="0 0 25 25" width="25" xmlns="http://www.w3.org/2000/svg"><g fill="#00ac83"><path clip-rule="evenodd" d="m10.3035 4.69017c.4994-.49943 1.1768-.78001 1.8831-.78001h9.0678c.7063 0 1.3836.28058 1.8831.78001.4994.49944.78 1.17682.78 1.88313v3.9166c.2207.0777.4235.2042.5921.3727.2959.296.4622.6974.4622 1.116v5.4031c.0001.4119-.1601.8079-.4468 1.1038-.2867.2958-.6774.4684-1.0892.4811l-.0154.0003h-13.3971c-.41877-.0026-.81964-.1701-1.11574-.4662s-.46358-.697-.46614-1.1157l-.00002-.0031.00001-5.4033h.49999l-.49999-.0029c.00242-.412.16515-.8068.4537-1.1008.17701-.1804.39284-.3142.62833-.393v-3.9086c0-.70631.28058-1.38369.78006-1.88313zm13.6683 11.11353h-14.53039v-3.8234c.00121-.1516.06123-.2968.16743-.405.10526-.1073.24773-.1699.39786-.1749h13.3869c.1533 0 .3004.0609.4089.1693.1084.1085.1693.2556.1693.4089zm-14.53039 1.0012v.5753c.00129.1552.0635.3036.17326.4134.10975.1097.25823.172.41343.1733h13.3834c.1496-.0063.2911-.0698.3954-.1774.1058-.1092.165-.2553.1649-.4073v-.5773zm2.74519-11.89474c-.4411 0-.8641.17522-1.176.48712s-.4872.73492-.4872 1.17602v3.15981c.5891-1.53978 2.3133-2.58174 4.2163-2.58174h3.9312c1.9342 0 3.6809 1.0705 4.2466 2.6454v-3.22347c0-.4411-.1752-.86412-.4871-1.17602s-.735-.48712-1.176-.48712zm2.5531 3.24121c-1.7532 0-3.0833 1.02305-3.3724 2.24823h10.6828c-.2892-1.22487-1.6196-2.24823-3.3792-2.24823z" fill-rule="evenodd"/><path d="m3.55078 17.2793c.27614 0 .5-.2239.5-.5s-.22386-.5-.5-.5-.5.2239-.5.5.22386.5.5.5z"/><path clip-rule="evenodd" d="m7.09541 15.6414v4.1913c-.00299.2184-.08696.4279-.23557.5879-.1486.16-.35131.2592-.56886.2784-.01457.0012-.02919.0019-.04381.0019h-5.354106c-.114391.0013-.227954-.0198-.334254-.0622-.107975-.043-.20629-.1071-.289207-.1886s-.148772-.1786-.19372-.2858c-.0449379-.1072-.06807843-.2222-.0680705-.3384v-4.1845c-.00000775-.3332.1315835-.6529.3661325-.8895.234552-.2366.553079-.371.886245-.374h.00439.83535c-.02083-.0745-.03754-.1504-.04996-.2274-.06404-.3965-.01156-.803.15105-1.1703.07507-.1695.17213-.3273.28799-.4696h-.35026c-.15891-.002-.31508-.0416-.45581-.1154-.13657-.0717-.25483-.1736-.34578-.298-.09347-.1205-.15904-.2602-.19191-.4092-.03387-.1536-.0321-.3128.00517-.4656l.00094-.0039.52893-2.09554.98722-.77337 2.85564.00002c.22661.00122.44648.07722.62548.21619.17901.13896.30713.33313.3645.55236l.00148.00566.52023 2.08768c.04224.1502.04955.3082.0213.4618-.02898.1575-.09459.3061-.19152.4336-.09694.1276-.2225.2305-.36655.3007-.14274.0694-.29968.1047-.45838.103h-.33422c.11586.1423.21292.3001.28799.4696.16261.3673.21509.7738.15105 1.1703-.01387.0859-.03309.1706-.05742.2535.23999.0494.46238.1681.63826.344.23695.2369.37006.5583.37006.8934zm-6.0876 0v2.5393h5.0876v-2.5393c0-.0699-.02776-.1369-.07717-.1863s-.11642-.0772-.18629-.0772h-4.56461c-.06888.0011-.13465.029-.18318.078-.04891.0493-.07635.116-.07635.1855zm5.0876 3.5404h-5.0876v.5191h5.0876zm-3.43737-9.82742c.00371-.00292.00823-.00458.01293-.00477h2.84729c.00622.00014.01223.00228.01715.0061.00476.0037.00825.00877.00999.01453l.52122 2.09156c.00169.0068.00352.0135.00548.0202.00099.0033.00118.0069.00054.0103-.00063.0035-.00207.0067-.00419.0095s-.00486.0051-.00802.0066c-.00315.0015-.00662.0023-.01012.0023l-.0075-.0001h-3.89202c-.00115-.0001-.00228-.0004-.0033-.001-.00126-.0006-.00234-.0016-.00315-.0027-.00542-.0077-.01106-.0152-.0169-.0225-.00277-.0034-.00471-.0075-.00566-.0118-.00091-.0041-.00091-.0084-.00003-.0125l.52828-2.09301c.00121-.0048.00412-.00965.00801-.01271zm1.4392 3.39172c-.20796 0-.41145.0604-.58575.1738-.17429.1135-.3119.2751-.3961.4652-.0842.1902-.11137.4007-.07822.606.02221.1375.07084.2687.14252.3866h1.8351c.07168-.1179.12031-.2491.14252-.3866.03315-.2053.00598-.4158-.07822-.606-.0842-.1901-.22181-.3517-.3961-.4652-.1743-.1134-.37779-.1738-.58575-.1738z" fill-rule="evenodd"/><path d="m11.4766 20.2021c0 .2762-.2239.5-.5.5-.2762 0-.5-.2238-.5-.5 0-.2761.2238-.5.5-.5.2761 0 .5.2239.5.5z"/><path d="m22.4648 20.7021c.2762 0 .5-.2238.5-.5 0-.2761-.2238-.5-.5-.5-.2761 0-.5.2239-.5.5 0 .2762.2239.5.5.5z"/></g></svg>