<svg fill="none" height="50" viewBox="0 0 50 50" width="50" xmlns="http://www.w3.org/2000/svg" xmlns:xlink="http://www.w3.org/1999/xlink"><mask id="a" fill="#fff"><path clip-rule="evenodd" d="m20.7886 11.3477c.9051-.9051 2.1327-1.41362 3.4127-1.41362h18.1355c1.28 0 2.5076.50852 3.4127 1.41362s1.4136 2.1327 1.4136 3.4127v8.2046c.5107.1021.9843.3529 1.3579.7266.4982.4982.7781 1.1739.7781 1.8784v10.8084c.0003.6939-.2697 1.361-.7526 1.8593-.483.4984-1.1411.7891-1.8348.8105l-.0155.0002h-26.7911c-.706-.0043-1.3818-.2866-1.881-.7858-.4991-.4992-.7815-1.175-.7858-1.8809v-.0031-10.8086h.5l-.5-.0029c.0041-.694.2782-1.3591.7643-1.8544.3753-.3824.8542-.6404 1.3724-.746v-8.2063c0-1.28.5085-2.5076 1.4136-3.4127zm27.5105 22.3745h-30.0608v-8.1506c.0029-.4336.1743-.849.478-1.1584.3026-.3085.713-.4875 1.1448-.4996h26.7815c.4394 0 .8607.1745 1.1713.4851.3107.3107.4852.732.4852 1.1713zm-30.0608 1.0004v1.6544c.0031.4423.1801.8657.4929 1.1785.3129.3128.7362.4899 1.1786.4929h26.7782c.4312-.0151.8399-.1967 1.1404-.5067.3021-.3117.4709-.7288.4707-1.1629v-1.6562zm5.963-23.7885c-1.0148 0-1.988.4031-2.7056 1.1207-.7176.7175-1.1207 1.6908-1.1207 2.7056v8.1525h.6144c.3077-3.7051 4.0122-6.4964 8.3417-6.4964h7.8623c4.3417 0 8.0473 2.7909 8.355 6.4964h.6147v-8.1525c0-1.0148-.4031-1.9881-1.1207-2.7056-.7175-.7176-1.6908-1.1207-2.7056-1.1207zm5.1298 6.4824c-3.9411 0-7.0263 2.4874-7.3367 5.4964h22.549c-.3104-3.0086-3.3958-5.4964-7.35-5.4964z" fill="#fff" fill-rule="evenodd"/><path d="m7.10156 34.0581c.27615 0 .5-.2239.5-.5s-.22385-.5-.5-.5c-.27614 0-.5.2239-.5.5s.22386.5.5.5z" fill="#fff"/><path clip-rule="evenodd" d="m13.6908 31.2813v8.3777c-.0043.313-.1246.6131-.3375.8425-.213.2293-.5034.3714-.8152.3988-.0145.0013-.0291.002-.0438.002h-10.71133c-.16432.0022-.3275-.0279-.48019-.0888-.15425-.0615-.29471-.1531-.413162-.2695-.118455-.1163-.212535-.2552-.276748-.4083-.064203-.1531-.097261-.3175-.097245-.4835v-8.3709c-.000015-.5345.211091-1.0474.587375-1.427.37628-.3796.88728-.5952 1.42177-.5999h.00438 2.39526c-.16047-.3247-.27252-.6732-.33087-1.0345-.11263-.6974-.02033-1.4125.26569-2.0584.28602-.646.75345-1.1949 1.34552-1.5803.0323-.021.0649-.0415.09778-.0615h-2.01473c-.23907-.003-.47403-.0625-.68575-.1736-.20756-.1089-.38702-.2643-.52439-.4541-.14387-.1836-.24471-.3973-.29499-.6252-.05128-.2325-.04861-.4737.00782-.705l.00094-.0038 1.058-4.1918c.08335-.3316.27442-.6264.54314-.8378.2688-.2115.60018-.3278.94218-.3306l.00418-.0001 5.70857.0001c.3431.0018.676.1169.9471.3273.271.2104.465.5044.5519.8363l.0014.0057 1.0425 4.1832c.0655.2289.0771.47.034.7043-.0437.2381-.1429.4625-.2893.6552-.1465.1927-.3362.3483-.5539.4543-.2164.1053-.4544.1586-.695.1556h-1.9998c.0329.02.0655.0405.0978.0615.5921.3854 1.0595.9343 1.3455 1.5803.2861.6459.3784 1.361.2657 2.0584-.0583.3613-.1704.7098-.3309 1.0345h.1994c.5376 0 1.0531.2135 1.4332.5937.3802.3801.5937.8956.5937 1.4332zm-12.17518 0v5.5805h11.17518v-5.5805c0-.2723-.1082-.5335-.3008-.7261-.1925-.1926-.4537-.3008-.7261-.3008h-9.13234c-.27007.0029-.52817.1121-.71835.3039-.19064.1923-.2976.4522-.29759.723zm11.17518 6.5809h-11.17518v1.79c0 .0332.00661.0662.01946.0968.01284.0306.03166.0584.05536.0817s.05179.0416.08265.0539c.03085.0123.06385.0183.09707.0177l.00893-.0001 10.68761.0001c.0588-.0089.1131-.0375.1538-.0813.0438-.0472.0688-.1088.0703-.1731zm-7.67995-19.5479c.09433-.0742.21052-.1152.3305-.1165h5.70185c.1225.0009.2414.0421.3381.1172.0965.0749.1657.1793.1971.2972l1.0439 4.189.0023.0088.0032.0114c.0241.0819.0286.1683.0131.2523-.0154.0839-.0504.1631-.102.231-.0517.068-.1186.1229-.1953.1602-.0768.0374-.1612.0562-.2466.0549l-.0075-.0001h-7.79158c-.08065-.0014-.15986-.0217-.23132-.0591-.07224-.0379-.13451-.0924-.18173-.1589-.00542-.0076-.01106-.0151-.0169-.0224-.05319-.0667-.0904-.1447-.10877-.2279-.01825-.0828-.01743-.1686.0024-.2509l1.05757-4.1901c.02938-.117.09689-.2215.19168-.2961zm3.18363 6.6764c-.51276 0-1.01449.1489-1.44424.4286s-.76904.6782-.97664 1.1471c-.20761.4688-.27461.9879-.19286 1.494.07036.4357.2483.8457.51623 1.1935h4.19503c.2679-.3478.4459-.7578.5162-1.1935.0818-.5061.0148-1.0252-.1928-1.494-.2076-.4689-.5469-.8674-.97668-1.1471-.42975-.2797-.93148-.4286-1.44424-.4286z" fill="#fff" fill-rule="evenodd"/><path d="m21.3594 40.4028c0 .2762-.2239.5-.5.5-.2762 0-.5-.2238-.5-.5 0-.2761.2238-.5.5-.5.2761 0 .5.2239.5.5z" fill="#fff"/><path d="m45.6836 40.9028c.2761 0 .5-.2238.5-.5 0-.2761-.2239-.5-.5-.5s-.5.2239-.5.5c0 .2762.2239.5.5.5z" fill="#fff"/></mask><g fill="#00ac83"><path clip-rule="evenodd" d="m20.7886 11.3477c.9051-.9051 2.1327-1.41362 3.4127-1.41362h18.1355c1.28 0 2.5076.50852 3.4127 1.41362s1.4136 2.1327 1.4136 3.4127v8.2046c.5107.1021.9843.3529 1.3579.7266.4982.4982.7781 1.1739.7781 1.8784v10.8084c.0003.6939-.2697 1.361-.7526 1.8593-.483.4984-1.1411.7891-1.8348.8105l-.0155.0002h-26.7911c-.706-.0043-1.3818-.2866-1.881-.7858-.4991-.4992-.7815-1.175-.7858-1.8809v-.0031-10.8086h.5l-.5-.0029c.0041-.694.2782-1.3591.7643-1.8544.3753-.3824.8542-.6404 1.3724-.746v-8.2063c0-1.28.5085-2.5076 1.4136-3.4127zm27.5105 22.3745h-30.0608v-8.1506c.0029-.4336.1743-.849.478-1.1584.3026-.3085.713-.4875 1.1448-.4996h26.7815c.4394 0 .8607.1745 1.1713.4851.3107.3107.4852.732.4852 1.1713zm-30.0608 1.0004v1.6544c.0031.4423.1801.8657.4929 1.1785.3129.3128.7362.4899 1.1786.4929h26.7782c.4312-.0151.8399-.1967 1.1404-.5067.3021-.3117.4709-.7288.4707-1.1629v-1.6562zm5.963-23.7885c-1.0148 0-1.988.4031-2.7056 1.1207-.7176.7175-1.1207 1.6908-1.1207 2.7056v8.1525h.6144c.3077-3.7051 4.0122-6.4964 8.3417-6.4964h7.8623c4.3417 0 8.0473 2.7909 8.355 6.4964h.6147v-8.1525c0-1.0148-.4031-1.9881-1.1207-2.7056-.7175-.7176-1.6908-1.1207-2.7056-1.1207zm5.1298 6.4824c-3.9411 0-7.0263 2.4874-7.3367 5.4964h22.549c-.3104-3.0086-3.3958-5.4964-7.35-5.4964z" fill-rule="evenodd"/><path d="m7.10156 34.0581c.27615 0 .5-.2239.5-.5s-.22385-.5-.5-.5c-.27614 0-.5.2239-.5.5s.22386.5.5.5z"/><path clip-rule="evenodd" d="m13.6908 31.2813v8.3777c-.0043.313-.1246.6131-.3375.8425-.213.2293-.5034.3714-.8152.3988-.0145.0013-.0291.002-.0438.002h-10.71133c-.16432.0022-.3275-.0279-.48019-.0888-.15425-.0615-.29471-.1531-.413162-.2695-.118455-.1163-.212535-.2552-.276748-.4083-.064203-.1531-.097261-.3175-.097245-.4835v-8.3709c-.000015-.5345.211091-1.0474.587375-1.427.37628-.3796.88728-.5952 1.42177-.5999h.00438 2.39526c-.16047-.3247-.27252-.6732-.33087-1.0345-.11263-.6974-.02033-1.4125.26569-2.0584.28602-.646.75345-1.1949 1.34552-1.5803.0323-.021.0649-.0415.09778-.0615h-2.01473c-.23907-.003-.47403-.0625-.68575-.1736-.20756-.1089-.38702-.2643-.52439-.4541-.14387-.1836-.24471-.3973-.29499-.6252-.05128-.2325-.04861-.4737.00782-.705l.00094-.0038 1.058-4.1918c.08335-.3316.27442-.6264.54314-.8378.2688-.2115.60018-.3278.94218-.3306l.00418-.0001 5.70857.0001c.3431.0018.676.1169.9471.3273.271.2104.465.5044.5519.8363l.0014.0057 1.0425 4.1832c.0655.2289.0771.47.034.7043-.0437.2381-.1429.4625-.2893.6552-.1465.1927-.3362.3483-.5539.4543-.2164.1053-.4544.1586-.695.1556h-1.9998c.0329.02.0655.0405.0978.0615.5921.3854 1.0595.9343 1.3455 1.5803.2861.6459.3784 1.361.2657 2.0584-.0583.3613-.1704.7098-.3309 1.0345h.1994c.5376 0 1.0531.2135 1.4332.5937.3802.3801.5937.8956.5937 1.4332zm-12.17518 0v5.5805h11.17518v-5.5805c0-.2723-.1082-.5335-.3008-.7261-.1925-.1926-.4537-.3008-.7261-.3008h-9.13234c-.27007.0029-.52817.1121-.71835.3039-.19064.1923-.2976.4522-.29759.723zm11.17518 6.5809h-11.17518v1.79c0 .0332.00661.0662.01946.0968.01284.0306.03166.0584.05536.0817s.05179.0416.08265.0539c.03085.0123.06385.0183.09707.0177l.00893-.0001 10.68761.0001c.0588-.0089.1131-.0375.1538-.0813.0438-.0472.0688-.1088.0703-.1731zm-7.67995-19.5479c.09433-.0742.21052-.1152.3305-.1165h5.70185c.1225.0009.2414.0421.3381.1172.0965.0749.1657.1793.1971.2972l1.0439 4.189.0023.0088.0032.0114c.0241.0819.0286.1683.0131.2523-.0154.0839-.0504.1631-.102.231-.0517.068-.1186.1229-.1953.1602-.0768.0374-.1612.0562-.2466.0549l-.0075-.0001h-7.79158c-.08065-.0014-.15986-.0217-.23132-.0591-.07224-.0379-.13451-.0924-.18173-.1589-.00542-.0076-.01106-.0151-.0169-.0224-.05319-.0667-.0904-.1447-.10877-.2279-.01825-.0828-.01743-.1686.0024-.2509l1.05757-4.1901c.02938-.117.09689-.2215.19168-.2961zm3.18363 6.6764c-.51276 0-1.01449.1489-1.44424.4286s-.76904.6782-.97664 1.1471c-.20761.4688-.27461.9879-.19286 1.494.07036.4357.2483.8457.51623 1.1935h4.19503c.2679-.3478.4459-.7578.5162-1.1935.0818-.5061.0148-1.0252-.1928-1.494-.2076-.4689-.5469-.8674-.97668-1.1471-.42975-.2797-.93148-.4286-1.44424-.4286z" fill-rule="evenodd"/><path d="m21.3594 40.4028c0 .2762-.2239.5-.5.5-.2762 0-.5-.2238-.5-.5 0-.2761.2238-.5.5-.5.2761 0 .5.2239.5.5z"/><path d="m45.6836 40.9028c.2761 0 .5-.2238.5-.5 0-.2761-.2239-.5-.5-.5s-.5.2239-.5.5c0 .2762.2239.5.5.5z"/><path d="m48.7988 35.8786-.5.0002.0005 1 .5-.0002zm-28.0102-24.5309.7071.7071zm26.3745 11.6173h-1v.82l.8041.1607zm1.3579.7266-.7071.7071zm.7781 12.6868h-1v.0004zm-.7526 1.8593.7181.6959zm-1.8348.8105.0154.9999.0077-.0001.0077-.0003zm-.0155.0002v1h.0077l.0078-.0001zm-26.7911 0-.0062 1h.0062zm-2.6668-2.6667 1-.0061v-.0002zm0-.0031h-1v.0062zm0-10.8086v-1h-1v1zm.5 0v1l.0059-2zm-.5-.0029-1-.0059-.0059 1 1 .0059zm.7643-1.8544-.7138-.7004zm1.3724-.746.1997.9798.8003-.1631v-.8167zm-1.1367 10.7555h-1v1h1zm30.0608 0v1h1v-1zm-30.0608-8.1506-1-.0067v.0067zm.478-1.1584-.7137-.7005zm1.1448-.4996v-1h-.014l-.0141.0004zm27.9528.4851-.7071.7071zm-29.5756 11.9783h-1v.0069zm0-1.6544v-1h-1v1zm1.6715 3.3258-.007 1h.007zm26.7782 0v1h.0176l.0176-.0006zm1.1404-.5067.7181.696zm.4707-1.1629h-1v.0005zm0-1.6562h1v-1h-1zm-26.8034-22.6678-.7071-.7071zm-1.1207 10.8581h-1v1h1zm.6144 0v1h.9204l.0762-.9172zm24.559 0-.9966.0828.0762.9172h.9204zm.6147 0v1h1v-1zm-1.1207-10.8581.7071-.7071zm-23.048 10.8581-.9947-.1026-.1137 1.1026h1.1084zm22.549 0v1h1.1084l-.1137-1.1026zm-43.02778 13.9489h-.999995v1h.999995zm0-5.5805h1.00001-.00001zm11.17518 5.5805v1h1v-1zm-.3008-6.3066-.7071.7071zm-9.85844-.3008v-1.0001l-.01069.0002zm-.71835.3039.71022.704zm11.87759 9.1007 1 .0137v-.0137zm-.3375.8425-.7328-.6805zm-.8152.3988-.0876-.9961zm-10.75513.002v-1.0001l-.01382.0002zm-.48019-.0888.37031-.9289zm-.413162-.2695-.70082.7134zm-.276748-.4083.92221-.3867zm-.097245-.4835 1.000005.0001v-.0001zm0-8.3709h1.000005zm.587375-1.427-.710218-.7039h-.000002zm1.42177-.5999-.0087-.9999h-.00007zm.00438 0 .00001-1.0001-.0087.0001zm2.39526 0v1h1.60965l-.71315-1.4431zm-.33087-1.0345.9872-.1595zm1.61121-3.6387-.54548-.8381h-.00001zm.09778-.0615.51869.855 3.05756-1.855h-3.57625zm-2.01473 0-.01279 1h.01279zm-.68575-.1736.46455-.8855zm-.52439-.4541.81001-.5864-.01112-.0153-.01169-.015zm-.29499-.6252.97653-.2154zm.00782-.705-.9715-.237zm.00094-.0038-.96962-.2448-.00188.0077zm1.058-4.1918.96959.2447.00025-.0009zm.54314-.8378-.61829-.786zm.94218-.3306-.00833-1h-.00001zm.00418-.0001v-1l-.00834.0001zm5.70857.0001.0054-1h-.0054zm.9471.3273.6132-.7899zm.5519.8363.9674-.2531zm.0014.0057.9704-.2418-.0029-.0113zm1.0425 4.1832-.9704.2418.0042.0167.0047.0165zm.034.7043.9835.1809zm-.2893.6552-.7962-.6051zm-.5539.4543-.4376-.8992zm-.695.1556.0123-1h-.0123zm-1.9998 0v-1h-3.57626l3.05761 1.855zm.0978.0615.5455-.8381zm1.6112 3.6387.9872.1594zm-.3309 1.0345-.8965-.4431-.71311 1.4431h1.60961zm1.6326.5937.7072-.7071zm-11.58148 8.0141v-1h-.999995v1zm11.17518 0h1v-1h-1zm-11.17518 1.79 1 .0002v-.0002zm.01946.0968.92221-.3867h-.00001zm.05536.0817.70083-.7133-.00003-.0001zm.17972.0716.01785.9999h.00009zm.00893-.0001v-1h-.00897l-.00898.0001zm10.68761.0001v1h.0748l.074-.0112zm.1538-.0813.7328.6805zm.0703-.1731.9997.0233.0003-.0117v-.0116zm-7.34945-21.4501v-1.0001l-.01156.0001zm-.3305.1165-.61828-.7859h-.00001zm6.03235-.1165.0075-1h-.0075zm.3381.1172.6133-.7899zm.1971.2972.9703-.2418-.0019-.0078-.0021-.0078zm1.0439 4.189-.9703.2419.0022.0087zm.0023.0088-.9681.2505.0026.0102.0029.0101zm.0032.0114-.9627.2709.0033.0113zm-.0889.4833.7962.6051zm-.4419.2151.015-.9999-.0075-.0001zm-.0075-.0001.0075-1h-.0075zm-7.79158 0-.01795.9999.00898.0001h.00897zm-.23132-.0591.46455-.8856zm-.18173-.1589-.81543.5789zm-.0169-.0224.78164-.6238h-.00001zm-.10877-.2279-.97653.2154zm.0024-.2509-.96965-.2448-.00256.0107zm1.05757-4.1901.9696.2447.00029-.0012zm1.93107 6.8089.54549.8381zm-1.1695 2.6411.98721-.1594zm.51623 1.1935-.79223.6103.30023.3897h.492zm4.19503 0v1h.492l.3002-.3897zm.5162-1.1935-.98719-.1594zm-.1928-1.494.9143-.4049zm13.5859-17.63232c-1.5452 0-3.0272.61384-4.1198 1.70652l1.4142 1.4142c.7176-.7176 1.6908-1.1207 2.7056-1.1207zm18.1355 0h-18.1355v2.00002h18.1355zm4.1198 1.70652c-1.0926-1.09268-2.5745-1.70652-4.1198-1.70652v2.00002c1.0148 0 1.9881.4031 2.7056 1.1207zm1.7065 4.1198c0-1.5453-.6138-3.0272-1.7065-4.1198l-1.4142 1.4142c.7176.7175 1.1207 1.6908 1.1207 2.7056zm0 8.2046v-8.2046h-2v8.2046zm1.065.0195c-.5143-.5144-1.1662-.8596-1.8691-1.0001l-.3918 1.9613c.3185.0636.6137.22.8467.453zm1.071 2.5855c0-.9697-.3852-1.8998-1.071-2.5855l-1.4142 1.4142c.3107.3107.4852.732.4852 1.1713zm-1.0345 13.3636c.6639-.685 1.0349-1.6018 1.0345-2.5556l-2 .0008c.0002.4341-.1687.8513-.4707 1.1629zm-2.5221 1.1141c.9536-.0294 1.8581-.429 2.5221-1.1141l-1.4362-1.3919c-.3021.3118-.7137.4936-1.1476.507zm-.0308.0006.0154-.0002-.0309-1.9998-.0154.0003zm-29.3947-1.0786c.6853.6852 1.6129 1.0728 2.5819 1.0787l.0123-1.9999c-.4429-.0027-.8668-.1799-1.18-.493zm-1.0787-2.5819c.0059.969.3935 1.8967 1.0787 2.5819l1.4142-1.4142c-.3131-.3132-.4902-.7371-.4929-1.1799zm0-.003v.0031l2-.0125v-.003zm1.5-11.8148h-.5v2h.5zm-.5059 1.9971.5.0029.0118-2-.5-.0029zm.0564-3.5548c-.6681.6808-1.0449 1.595-1.0505 2.5489l2 .0117c.0025-.434.174-.85.478-1.1597zm1.8865-1.0255c-.7122.1451-1.3705.4998-1.8865 1.0255l1.4275 1.4009c.2347-.2392.5342-.4006.8584-.4667zm-.8003-7.2264v8.2063h2v-8.2063zm1.7065-4.1198c-1.0927 1.0926-1.7065 2.5745-1.7065 4.1198h2c0-1.0148.4031-1.9881 1.1207-2.7056zm-1.8432 24.0816h30.0608v-2h-30.0608zm-1-9.1506v8.1506h2v-8.1506zm.7643-1.8589c-.4856.4948-.7597 1.159-.7643 1.8522l2 .0134c.0011-.1739.0699-.3406.1917-.4647zm1.8304-.7987c-.6904.0194-1.3465.3056-1.8304.7987l1.4274 1.4009c.1214-.1237.286-.1955.4592-.2004zm26.8096-.0004h-26.7815v2h26.7815zm1.8784.778c-.4981-.4982-1.1738-.778-1.8784-.778v2c.1741 0 .3411.0691.4642.1922zm.7781 1.8784c0-.7045-.2799-1.3802-.7781-1.8784l-1.4142 1.4142c.1231.1231.1923.2901.1923.4642zm0 8.1522v-8.1522h-2v8.1522zm-30.0608 2.6548v-1.6544h-2v1.6544zm.2001.4714c-.127-.127-.1989-.2988-.2001-.4784l-2 .0139c.0049.7052.2872 1.38.7858 1.8787zm.4783.2001c-.1795-.0013-.3514-.0732-.4783-.2001l-1.4143 1.4142c.4987.4986 1.1736.7809 1.8787.7858zm26.7713-.0001h-26.7782v2h26.7782zm.4223-.2026c-.1206.1244-.2845.1972-.4575.2033l.0704 1.9987c.6895-.0242 1.3429-.3145 1.8233-.8101zm.1888-.4665c.0001.1741-.0677.3415-.1888.4665l1.4362 1.3919c.483-.4984.7529-1.1653.7526-1.8593zm0-1.6567v1.6562h2v-1.6562zm-29.0608 1h30.0608v-2h-30.0608zm3.9645-22.9607c.53-.53 1.2489-.8278 1.9985-.8278v-2.00002c-1.28 0-2.5076.50852-3.4127 1.41362zm-.8278 1.9985c0-.7496.2978-1.4685.8278-1.9985l-1.4142-1.4142c-.9051.9051-1.4136 2.1327-1.4136 3.4127zm0 8.1525v-8.1525h-2v8.1525zm-.3856-1h-.6144v2h.6144zm8.3417-6.4964c-4.6845 0-8.9751 3.0404-9.3383 7.4137l1.9932.1655c.2522-3.037 3.3706-5.5792 7.3451-5.5792zm7.8623 0h-7.8623v2h7.8623zm9.3516 7.4137c-.3633-4.3747-4.6561-7.4137-9.3516-7.4137v2c3.9879 0 7.1063 2.5428 7.3584 5.5792zm-.3819-.9173h-.6147v2h.6147zm-1-7.1525v8.1525h2v-8.1525zm-.8278-1.9985c.53.53.8278 1.2489.8278 1.9985h2c0-1.28-.5085-2.5076-1.4136-3.4127zm-1.9985-.8278c.7496 0 1.4685.2977 1.9985.8278l1.4142-1.4142c-.9051-.9051-2.1327-1.41362-3.4127-1.41362zm-18.1355 0h18.1355v-2.00002h-18.1355zm-1.2121 11.0814c.2436-2.3622 2.7629-4.599 6.3419-4.599v-2c-4.3032 0-7.9544 2.7381-8.3314 6.3938zm21.5542-1.1026h-22.549v2h22.549zm-7.35-3.4964c3.5933 0 6.1117 2.2382 6.3552 4.599l1.9895-.2052c-.3771-3.6563-4.0295-6.3938-8.3447-6.3938zm-7.8623 0h7.8623v-2h-7.8623zm-26.81548 18.4453v-5.5805h-1.999995v5.5805zm10.17518-1h-11.17518v2h11.17518zm-1-4.5805v5.5805h2v-5.5805zm-.0079-.019c.0051.005.0079.0119.0079.019h2c0-.5376-.2135-1.0531-.5937-1.4332zm-.019-.0079c.0071 0 .014.0028.019.0079l1.4142-1.4142c-.3801-.3802-.8956-.5937-1.4332-.5937zm-9.13234 0h9.13234v-2h-9.13234zm-.00813.0079c.00498-.005.01175-.0079.01883-.008l-.02139-1.9998c-.53307.0057-1.0425.2211-1.41787.5998zm-.00781.019c0-.0072.00282-.014.00781-.019l-1.42043-1.408c-.376296.3797-.587396.8925-.587375 1.4271zm11.57048 9.9006c.3814-.4107.5969-.9485.6046-1.5092l-1.9998-.0274c-.0009.0652-.0259.1278-.0704.1757zm-1.4603.7146c.5584-.0491 1.0788-.3038 1.4603-.7146l-1.4656-1.3609c-.0444.0478-.105.0775-.17.0832zm-.1315.0058c.0439 0 .0877-.002.1315-.0058l-.1753-1.9923c.0146-.0013.0292-.0019.0438-.0019zm-10.71133 0h10.71133v-2h-10.71133zm-.850508-.1599c.274838.1096.568558.1639.864338.1598l-.02765-1.9998c-.03288.0004-.06552-.0056-.09606-.0178zm-.743664-.485c.21321.2094.466019.3743.743667.485l.740625-1.8578c-.03086-.0123-.05895-.0306-.08265-.0539zm-.498136-.735c.115579.2756.2849192.5255.498136.735l1.401642-1.4267c-.0237-.0233-.04252-.0511-.05536-.0817zm-.175037-.8703c-.000029.2988.059475.5947.175038.8703l1.844417-.7734c-.01285-.0306-.01946-.0635-.01945-.0967zm.877155-10.5017c-.561927.5669-.877178 1.3328-.877155 2.131l2.000005-.0001c-.00001-.2708.10695-.5307.29758-.723zm2.12322-.8959c-.79819.007-1.561292.329-2.123218.8959l1.420428 1.4079c.19064-.1923.44954-.3015.72033-.3039zm.00446-.0001-.00439.0001.01739 1.9999.00439-.0001zm2.40395 0h-2.39525l-.00001 2h2.39526zm-1.31808.1249c.07435.4604.21712.9044.42158 1.3181l1.793-.8861c-.11648-.2357-.19781-.4886-.24017-.7509zm.33853-2.6227c-.36444.823-.48204 1.7341-.33853 2.6227l1.97441-.3189c-.08175-.5062-.01475-1.0252.19286-1.494zm1.7144-2.0135c-.75438.491-1.34997 1.1905-1.7144 2.0135l1.82874.8098c.2076-.4689.54689-.8674.97664-1.1471zm.12458-.0783c-.0419.0254-.08343.0515-.12457.0783l1.09097 1.6762c.02345-.0152.04712-.0301.07098-.0446zm-2.64634 1.5668c.3511.1842.74084.283 1.13751.2881l.02558-1.9999c-.08146-.001-.16164-.0213-.23399-.0592zm-.86986-.7532c.22787.3148.52557.5726.86986.7532l.9291-1.771c-.07082-.0372-.13206-.0902-.17893-.155zm-.46149-.9962c.08255.3742.2481.725.4843 1.0265l1.57441-1.2334c-.05153-.0658-.08765-.1423-.10566-.2239zm.01284-1.1574c-.09265.3798-.09704.7757-.01284 1.1574l1.95305-.4308c-.01837-.0833-.01742-.1697.0028-.2525zm.00094-.0039-.00094.0039 1.943.4741.00094-.0039zm1.05991-4.1994-1.058 4.1918 1.93919.4894 1.05799-4.1918zm.89444-1.3791c-.44285.3484-.75744.834-.89468 1.3801l1.93967.4875c.02944-.1172.097-.2213.19158-.2957zm1.55213-.5446c-.5634.0047-1.10931.1963-1.55213.5446l1.23657 1.5719c.09479-.0746.21165-.1156.33225-.1166zm.00418 0h-.00417l.01667 1.9999h.00418zm7.27721.5374c-.445-.3455-.9916-.5344-1.5549-.5374l-.0108 1.9999c.1229.0007.2422.0419.3392.1173zm.9061 1.3731c-.1426-.545-.4611-1.0277-.9061-1.3731l-1.2265 1.5798c.0971.0754.1666.1807.1977.2996zm.0015.0057-.0015-.0057-1.9349.5063.0015.0056zm1.0453 4.1945-1.0424-4.1832-1.9407.4836 1.0424 4.1832zm.0472 1.127c.071-.386.0518-.7831-.0561-1.1602l-1.9229.55c.0231.0808.0272.1658.012.2484zm-.4767 1.0794c.2413-.3175.4046-.6872.4767-1.0794l-1.967-.3618c-.0154.0839-.0504.1631-.102.231zm-.9123.7483c.3585-.1745.671-.4308.9123-.7483l-1.5923-1.2102c-.0517.068-.1186.1229-.1953.1602zm-1.1451.2565c.3964.0049.7885-.0829 1.1451-.2565l-.8753-1.7983c-.0763.0372-.1603.056-.2451.0549zm-1.9874 0h1.9998v-2h-1.9998zm.6433-1.7766c-.0412-.0268-.0827-.0529-.1246-.0783l-1.03735 1.7099c.02385.0145.04752.0294.07097.0446zm1.7144 2.0135c-.3644-.823-.96-1.5225-1.7144-2.0135l-1.09098 1.6762c.42978.2797.76908.6782.97668 1.1471zm.3385 2.6227c.1435-.8886.0259-1.7997-.3385-2.6227l-1.8287.8098c.2076.4688.2746.9878.1928 1.494zm-.4216 1.3181c.2045-.4137.3473-.8577.4216-1.3181l-1.9744-.3189c-.0423.2623-.1237.5152-.2402.7509zm-.6971-1.443h-.1994v2h.1994zm2.1404.8866c-.5677-.5677-1.3376-.8866-2.1404-.8866v2c.2724 0 .5336.1082.7261.3008zm.8865 2.1403c0-.8028-.3189-1.5727-.8865-2.1403l-1.4143 1.4142c.1926.1926.3008.4538.3008.7261zm-13.17518 7.5809h11.17518v-2h-11.17518zm1 .79v-1.79h-1.999995v1.79zm-.05834-.2899c.03866.0922.05836.1908.05834.2901l-1.999995-.0004c-.000026.1658.032903.3303.097249.4837zm-.16604-.245c.07109.0699.12753.1532.16605.245l-1.84442.7734c.064208.1531.15829.292.276773.4084zm-.24785-.1616c.09255.0369.17681.0918.24788.1617l-1.401661 1.4266c.118461.1164.258921.208.413181.2695zm-.29109-.0532c.09962-.0018.19857.0163.29109.0532l-.7406 1.8578c.15423.0615.31918.0916.48522.0887zm.00884-.0002-.00892.0002.03588 1.9997.00893-.0002zm10.70556 0-10.68761-.0001-.00001 2 10.68762.0001zm-.579.2382c.1138-.1225.2656-.2023.4301-.2271l.2977 1.9777c.2822-.0425.5426-.1794.7378-.3896zm-.1966.4841c.0042-.1799.0741-.3521.1966-.484l1.4656 1.3609c.2102-.2264.3301-.5218.3372-.8303zm-.0003-1.7624v1.7857h2v-1.7857zm-6.36101-20.6644c-.34024.004-.66972.1201-.93722.3306l1.23656 1.5719c-.07884.062-.17594.0962-.27621.0974zm5.71341 0h-5.70185v2h5.70185zm.9514.3273c-.2702-.2098-.6019-.3248-.9439-.3273l-.0149 1.9999c-.097-.0007-.1911-.0333-.2677-.0928zm.5501.8297c-.0877-.3292-.2809-.6207-.5501-.8297l-1.2265 1.5798c-.0763-.0593-.1311-.1419-.156-.2353zm1.0479 4.2046-1.0439-4.189-1.9406.4836 1.0439 4.1891zm.0001.0001-.0023-.0088-1.9362.5011.0023.0087zm-.0023-.0089-.0032-.0114-1.9252.5416.0032.0114zm.034.704c.0438-.2381.0311-.4831-.0372-.7153l-1.9188.5643c-.0201-.0685-.0239-.1407-.011-.2108zm-.2893.6552c.1464-.1927.2456-.4171.2893-.6552l-1.967-.3618c.013-.0702.0422-.1363.0853-.1931zm-.5539.4543c.2177-.106.4074-.2616.5539-.4543l-1.5924-1.2101c.0432-.0568.0991-.1027.1633-.1339zm-.6992.1556c.2421.0036.4816-.0497.6992-.1556l-.8752-1.7983c.0641-.0312.1347-.047.206-.0459zm0 0 .0075.0001.015-2h-.0075zm-7.78408 0h7.79158v-2h-7.79158zm-.69587-.1736c.20941.1099.44156.1692.67792.1735l.0359-1.9997c.07506.0014.14878.0202.21528.0551zm-.53261-.4655c.1384.1949.32089.3544.53262.4655l.92909-1.7711c.06724.0353.12519.0859.16914.1478zm.01689.0224c-.00581-.0073-.01145-.0148-.01689-.0224l1.63086-1.1578c-.01629-.0229-.03319-.0453-.05069-.0673zm-.30366-.6362c.05129.2325.15517.4501.30367.6362l1.56326-1.2475c.04212.0528.07158.1145.08612.1805zm.00672-.7004c-.05536.2299-.05767.4694-.00672.7004l1.95305-.4308c.01445.0655.0138.1334-.00191.1986zm1.06019-4.2008-1.05757 4.1902 1.93919.4894 1.05757-4.1901zm.54298-.8372c-.2697.2121-.46025.5078-.54327.8384l1.93977.4871c-.02427.0967-.07981.1833-.15992.2464zm2.90317 8.729c.26744-.174.57966-.2667.89875-.2667v-2c-.70643 0-1.39766.2052-1.98973.5905zm-.60777.7138c.1292-.2917.34034-.5397.60777-.7138l-1.09098-1.6762c-.59207.3854-1.0595.9343-1.34552 1.5803zm-.12001.9298c-.05087-.315-.00918-.638.12001-.9298l-1.82873-.8097c-.28602.6459-.37832 1.361-.26569 2.0584zm.32124.7427c-.16673-.2164-.27745-.4716-.32124-.7427l-1.97441.3189c.09693.6002.34207 1.1651.7112 1.6443zm3.40281-.3898h-4.19503v2h4.19503zm-.47099-.3529c-.04379.2711-.15451.5263-.32124.7427l1.58443 1.2205c.3691-.4792.6143-1.0441.7112-1.6443zm-.12001-.9298c.12919.2918.17088.6148.12001.9298l1.97439.3189c.1127-.6974.0204-1.4125-.2657-2.0584zm-.60777-.7138c.26743.1741.47857.4221.60777.7138l1.8287-.8097c-.286-.646-.7534-1.1949-1.3455-1.5803zm-.89875-.2667c.31909 0 .63131.0927.89875.2667l1.09097-1.6762c-.59206-.3853-1.28329-.5905-1.98972-.5905zm-1.59292 7.5674c0-.2761.22386-.5.5-.5v2c.82843 0 1.5-.6716 1.5-1.5zm.5.5c-.27614 0-.5-.2239-.5-.5h2c0-.8284-.67157-1.5-1.5-1.5zm.5-.5c0 .2761-.22385.5-.5.5v-2c-.82843 0-1.5.6716-1.5 1.5zm-.5-.5c.27615 0 .5.2239.5.5h-2c0 .8284.67157 1.5 1.5 1.5zm13.75784 8.8447c.8284 0 1.5-.6715 1.5-1.5h-2c0-.2761.2238-.5.5-.5zm-1.5-1.5c0 .8285.6715 1.5 1.5 1.5v-2c.2761 0 .5.2239.5.5zm1.5-1.5c-.8285 0-1.5.6716-1.5 1.5h2c0 .2762-.2239.5-.5.5zm1.5 1.5c0-.8284-.6716-1.5-1.5-1.5v2c-.2762 0-.5-.2238-.5-.5zm22.8242 0c0-.2761.2239-.5.5-.5v2c.8284 0 1.5-.6715 1.5-1.5zm.5.5c-.2761 0-.5-.2238-.5-.5h2c0-.8284-.6716-1.5-1.5-1.5zm.5-.5c0 .2762-.2239.5-.5.5v-2c-.8284 0-1.5.6716-1.5 1.5zm-.5-.5c.2761 0 .5.2239.5.5h-2c0 .8285.6716 1.5 1.5 1.5zm4.6155-3.5244v-10.8084h-2v10.8084zm-30.394 3.67h26.7911v-2h-26.7911zm-3.6668-14.4784v10.8086h2v-10.8086zm-1.5475 14.089v-8.3777h-2v8.3777zm-15.175175-8.3777v8.3709h2.000005v-8.3709zm4.772175-5.7616h2.01473v-2h-2.01473zm6.7597-9.3219-5.70857-.0001v2l5.70857.0001z" mask="url(#a)"/></g></svg>