<svg fill="none" height="50" viewBox="0 0 50 50" width="50" xmlns="http://www.w3.org/2000/svg"><g fill="#895d25"><path clip-rule="evenodd" d="m3.36937 2.81934c-.41073 0-.89209.14055-1.21132.61059-.11652.17156-.23638.38817-.27875.63767-.04231.24921-.00257.50493.1403.74432l3.46467 9.73048c-.01134.0418-.01739.0858-.01739.1312v2.8384c0 .4101.14169.7894.42395 1.0665.28143.2762.66317.4123 1.07317.4123h2.75702c-.15749.0842-.26464.2503-.26462.4413l.00255 26.747h-3.49207c-.27614 0-.5.2239-.5.5 0 .2762.22386.5.5.5h7.97702c.2761 0 .5-.2238.5-.5 0-.2761-.2239-.5-.5-.5h-3.4849l-.0026-26.7471c0-.191-.1072-.357-.2646-.4412h2.7549c.8979 0 1.4972-.7373 1.4972-1.4788v-2.5459c.0281-.0389.0509-.0823.0672-.1293l3.4899-10.08148.001-.0028c.1375-.40514.1478-.87004-.1596-1.32259-.3192-.47004-.8006-.61059-1.2113-.61059zm-.38407 1.17243c.07961-.11723.19653-.17243.38407-.17243h13.26173c.1876 0 .3045.0552.3841.17243.0913.1344.1017.25649.0403.4379l-.0004.00131-3.3725 9.74222h-7.26828l-3.47133-9.74917c-.01425-.04002-.03354-.07806-.05741-.1132-.01638-.02412-.02002-.03797-.02111-.04311-.00113-.00533-.00233-.01473.00072-.03272.00749-.04413.0372-.12116.12011-.24323zm3.48158 11.18183v2.3384c0 .1772.05773.2873.12446.3528.06757.0664.18439.126.37266.126h5.9827c.2987 0 .4972-.2414.4972-.4788v-2.3384z" fill-rule="evenodd"/><path clip-rule="evenodd" d="m36.7253 23.9464c-.1223-.2476-.4221-.3491-.6697-.2268-.2476.1222-.3492.4221-.2269.6697l1.1599 2.3482c-1.1183-.1763-2.2816-.0073-3.3267.5056-.2479.1217-.3502.4212-.2286.6691.1217.2479.4213.3503.6692.2286 1.4371-.7054 3.1395-.6173 4.4831.2577 1.0263.7348 1.8401 1.7262 2.1982 2.8687.0022.0072.0047.0143.0072.0214l.4329 1.1897h-.1572c-.261 0-.4713.1242-.6086.2397-.1426.12-.2579.2724-.3355.4249-.0121.0237-.0223.0484-.0305.0738-.6138 1.908-.9214 3.8193-.9214 5.83v1.2617h-13.4679c-.41 0-.7917.1361-1.0731.4123-.2823.2771-.424.6564-.424 1.0664v.9788c0 .4101.1417.7894.424 1.0665.2814.2762.6631.4123 1.0731.4123h1.6792l-1.1242 2.207c-.1254.2461-.0275.5472.2186.6725.246.1253.5471.0275.6724-.2186l1.3554-2.6609h15.3388l1.3554 2.6609c.1253.2461.4264.3439.6725.2186.246-.1253.3439-.4264.2186-.6725l-1.1242-2.207h1.6771c.41 0 .7918-.1361 1.0732-.4123.2823-.2771.4239-.6564.4239-1.0665v-.9788c0-.41-.1416-.7893-.4239-1.0664-.2814-.2762-.6632-.4123-1.0732-.4123h-2.3835v-1.2617c0-2.0107-.3076-3.922-.9215-5.83l-.0025-.0077c-.0779-.2295-.2098-.4223-.3983-.5545-.1867-.1309-.3918-.1762-.5737-.1762h-.0678l.6449-2.6115.0023-.0095c.3772-1.6662 1.2239-3.1399 2.4406-4.2423.0049-.0044.0098-.009.0145-.0137l.9971-.9787c.1971-.1935.2-.51.0066-.7071-.1935-.1971-.51-.2-.7071-.0066l-.9901.9719c-1.3706 1.2448-2.3156 2.8988-2.7358 4.7509l-.2874 1.1636c-.4627-1.322-1.4071-2.4205-2.5224-3.2167-.0055-.0039-.0111-.0077-.0167-.0114-.2736-.179-.5593-.3313-.8534-.4567zm4.3039 9.6229c-.5728 1.7959-.8585 3.5893-.8585 5.4774v1.2617h3.0882v-1.2617c0-1.9027-.2902-3.7094-.8719-5.5192-.0091-.0259-.0174-.0412-.0224-.0492h-.0017-1.2549l-.0061.0049c-.0144.0121-.0311.0292-.0478.0506-.0093.0118-.0176.0238-.0249.0355zm-15.3264 7.7391h13.9549l.013.0001h4.0882l.0129-.0001h2.8706c.1883 0 .3051.0596.3727.1259.0667.0656.1244.1757.1244.3528v.9788c0 .1772-.0577.2873-.1244.3528-.0676.0663-.1844.126-.3727.126h-2.4449c-.0328-.0033-.066-.0033-.0992 0h-15.8493c-.0332-.0033-.0665-.0033-.0992 0h-2.447c-.1882 0-.3051-.0597-.3726-.126-.0668-.0655-.1245-.1756-.1245-.3528v-.9788c0-.1771.0577-.2872.1245-.3528.0675-.0663.1844-.1259.3726-.1259z" fill-rule="evenodd"/><path d="m43.6172 24.9992c0 .2762-.2239.5-.5.5-.2762 0-.5-.2238-.5-.5 0-.2761.2238-.5.5-.5.2761 0 .5.2239.5.5z"/><path d="m35.3711 22.4717c.2761 0 .5-.2239.5-.5 0-.2762-.2239-.5-.5-.5s-.5.2238-.5.5c0 .2761.2239.5.5.5z"/><path d="m45.6406 27.8691c0 .2762-.2238.5-.5.5-.2761 0-.5-.2238-.5-.5 0-.2761.2239-.5.5-.5.2762 0 .5.2239.5.5z"/><path d="m37.3984 29.4473c.2762 0 .5-.2239.5-.5 0-.2762-.2238-.5-.5-.5-.2761 0-.5.2238-.5.5 0 .2761.2239.5.5.5z"/></g></svg>