<svg fill="none" height="15" viewBox="0 0 15 15" width="15" xmlns="http://www.w3.org/2000/svg"><g fill="#f94409"><path d="m8.52886 1.27151c.16568 0 .3-.13432.3-.300001 0-.165686-.13432-.3-.3-.3-.16569 0-.3.134314-.3.3 0 .165681.13431.300001.3.300001z"/><path d="m9.73589 9.5971c-.16569 0-.3.13431-.3.3 0 .1657.13431.3.3.3h.55831c.1657 0 .3-.1343.3-.3 0-.16569-.1343-.3-.3-.3z"/><path clip-rule="evenodd" d="m7.50678 9.6012c-.63683 0-1.15292.5165-1.15292 1.1531 0 .6369.51636 1.1526 1.15292 1.1526.63657 0 1.15293-.5157 1.15293-1.1526 0-.6366-.51609-1.1531-1.15293-1.1531zm-.55292 1.1531c0-.3054.24764-.5531.55292-.5531.30529 0 .55293.2477.55293.5531 0 .3052-.24737.5526-.55293.5526-.30555 0-.55292-.2474-.55292-.5526z" fill-rule="evenodd"/><path d="m9.73589 11.2887c-.16569 0-.3.1343-.3.3s.13431.3.3.3h.55831c.1657 0 .3-.1343.3-.3s-.1343-.3-.3-.3z"/><path clip-rule="evenodd" d="m6.10308 4.23518c-.16569 0-.3.13432-.3.3 0 .16569.13431.3.3.3h.25781v.59878c-1.33108.17339-2.2414.64025-2.84612 1.12218-.37959.3025-.63371.6069-.79435.83924-.08031.11615-.13732.21436-.17506.28551-.01888.03559-.03295.06444-.04274.08543-.00489.0105-.00871.01903-.01152.02546l-.00347.00806-.00118.00281-.00045.0011c-.00009.00022-.00037.00089.27723.11463l-.2776-.11374c-.01479.0361-.0224.07473-.0224.11374v.26895h-1.38515c-.165689 0-.300004.13431-.300004.3 0 .16568.134315.3.300004.3h1.38515v3.64217c-.00001.3756.14686.7365.40953 1.0041.26266.2676.6201.4206.99481.4238h.00261 7.26252c.3768 0 .7374-.1513 1.0028-.4193.2653-.268.4138-.6309.4138-1.0086v-3.64217h1.374c.1656 0 .3-.13432.3-.3 0-.16569-.1344-.3-.3-.3h-1.374v-.26895c0-.03956-.0078-.07873-.023-.11526l-.277.11526c.277-.11526.2771-.11504.277-.11526l-.0004-.00088-.0004-.00109-.0012-.0028-.0035-.00804c-.0029-.00641-.0067-.01493-.0117-.02541-.0099-.02096-.0241-.04978-.0432-.08532-.0382-.07108-.0958-.16921-.1768-.28526-.162-.23215-.4178-.53634-.7991-.83865-.6075-.48168-1.52075-.94857-2.85333-1.12184v-.59865h.25785c.16569 0 .3-.13431.3-.3 0-.16568-.13431-.3-.3-.3zm.85781 1.14305v-.54305h1.07578v.54301c-.17298-.0099-.35212-.01508-.53761-.01508-.18572 0-.36504.0052-.53817.01512zm4.98841 2.84015h-8.88607v4.21112c-.00001.2192.08575.429.23773.5838.1517.1546.35685.242.57063.2441h7.26111c.2155 0 .423-.0865.5764-.2415.1535-.155.2402-.3659.2402-.5864v-3.91828c-.0006-.00788-.0009-.01585-.0009-.02389s.0003-.01601.0009-.02389zm-8.0606-1.19302c-.26426.2106-.45527.41996-.58842.59302h8.40892c-.1344-.17304-.3267-.38219-.592-.59256-.6553-.51956-1.77628-1.06271-3.61814-1.06271-1.84185 0-2.95896.54313-3.61036 1.06225z" fill-rule="evenodd"/><path d="m6.78511.971509c0 .165681-.13432.300001-.3.300001-.16569 0-.3-.13432-.3-.300001 0-.165686.13431-.3.3-.3.16568 0 .3.134314.3.3z"/><path d="m7.50698 1.27151c.16569 0 .3-.13432.3-.300001 0-.165686-.13431-.3-.3-.3-.16568 0-.3.134314-.3.3 0 .165681.13432.300001.3.300001z"/><path d="m8.82886 3.37151c0 .16568-.13432.3-.3.3-.16569 0-.3-.13432-.3-.3 0-.16569.13431-.3.3-.3.16568 0 .3.13431.3.3z"/><path d="m6.48511 3.67151c.16568 0 .3-.13432.3-.3 0-.16569-.13432-.3-.3-.3-.16569 0-.3.13431-.3.3 0 .16568.13431.3.3.3z"/><path d="m7.80698 3.37151c0 .16568-.13431.3-.3.3-.16568 0-.3-.13432-.3-.3 0-.16569.13432-.3.3-.3.16569 0 .3.13431.3.3z"/><path d="m7.92886 2.47151c.16568 0 .3-.13432.3-.3 0-.16569-.13432-.3-.3-.3-.16569 0-.3.13431-.3.3 0 .16568.13431.3.3.3z"/><path d="m6.18511 2.17151c0 .16568-.13432.3-.3.3-.16569 0-.3-.13432-.3-.3 0-.16569.13431-.3.3-.3.16568 0 .3.13431.3.3z"/><path d="m6.90698 2.47151c.16569 0 .3-.13432.3-.3 0-.16569-.13431-.3-.3-.3-.16568 0-.3.13431-.3.3 0 .16568.13432.3.3.3z"/></g></svg>