<svg fill="none" height="15" viewBox="0 0 15 15" width="15" xmlns="http://www.w3.org/2000/svg"><g fill="#03a9f1"><path clip-rule="evenodd" d="m3.99897 2.51952-.00391.00005c-.08026.00104-.1594.01903-.23222.05278-.0035.00161-.00696.0033-.01038.00505-.12805.06543-.2257.17801-.27239.31401-.04669.13601-.03877.28483.02209.41511l.00348.00719.32.64c.05082.10163.1547.16583.26833.16583h1.87l.00306-.00001c.10171-.00104.20118-.03001.28754-.08375.08636-.05373.1563-.13017.20217-.22096l.00056-.00111.25-.5c.01157-.02316.0201-.04771.02538-.07306.01386-.06662.01566-.1351.00541-.20221-.00762-.13453-.06442-.26202-.16021-.35781-.10315-.10314-.24304-.16109-.38891-.16109zm.28041 1.00002-.2-.4h2.05418l-.2.4z" fill-rule="evenodd"/><path d="m8.04844 3.28068c0-.15-.15-.3-.3-.3s-.3.15-.3.3.15.3.3.3.3-.15.3-.3z"/><path d="m9.24375 2.98068c.15 0 .3.15.3.3s-.15.3-.3.3-.3-.15-.3-.3.15-.3.3-.3z"/><path d="m11.0414 3.28068c0-.15-.15-.3-.3-.3s-.3.15-.3.3.15.3.3.3.3-.15.3-.3z"/><g clip-rule="evenodd" fill-rule="evenodd"><path d="m10.5484 9.06935c0-1.68371-1.36426-3.04877-3.04769-3.05h-.00227c-1.68447 0-3.05 1.36553-3.05 3.05 0 1.68445 1.36553 3.04995 3.05 3.04995.99085 0 1.87135-.4724 2.42847-1.2044.00576-.0064.0113-.0131.01658-.0202.0058-.0077.01118-.0155.01613-.0236.37018-.5048.58878-1.12775.58878-1.80175zm-5.49996 0c0-1.25208.93922-2.28478 2.15156-2.43201v1.1668c-.57373.13515-1.00078.65041-1.00078 1.2654 0 .18074.03688.35286.10353.50924l-.9335.70342c-.20416-.35757-.32081-.77159-.32081-1.21285zm4.9 0c0-1.251-.93761-2.28301-2.14844-2.43163v1.16679c.57295.13572.99922.6506.99922 1.26503 0 .18074-.03688.35286-.10353.50924l.93241.70262c.20386-.35741.32034-.77113.32034-1.21205zm-1.88412.40929c.00575-.00763.0118-.01491.01811-.02183.07379-.11091.11679-.24407.11679-.38727 0-.3866-.3134-.7-.7-.7s-.7.3134-.7.7c0 .1432.043.27636.11679.38727.00631.00692.01236.0142.01811.02183.00735.00975.01401.0198.01999.0301.12832.15906.32483.2608.54511.2608s.41679-.10174.54511-.2608c.00598-.0103.01264-.02035.01999-.0301zm-.5651.89086c-.32033 0-.6136-.1158-.84019-.3079l-.93086.7015c.44601.466 1.07425.7562 1.77027.7562.69636 0 1.32487-.2905 1.77092-.7569l-.92995-.7008c-.22659.1921-.51986.3079-.84019.3079z"/><path d="m2.44922 2.81935v9.49995c0 .718.58203 1.3 1.3 1.3h7.49998c.718 0 1.3-.582 1.3-1.3v-9.49995c0-.71797-.582-1.3-1.3-1.3h-7.49998c-.71797 0-1.3.58203-1.3 1.3zm1.3-.7c-.3866 0-.7.3134-.7.7v1.7h8.89998v-1.7c0-.3866-.3134-.7-.7-.7zm8.19998 10.19995v-7.19995h-8.89998v7.19995c0 .3866.3134.7.7.7h7.49998c.3866 0 .7-.3134.7-.7z"/></g></g></svg>