<svg fill="none" height="34" viewBox="0 0 34 34" width="34" xmlns="http://www.w3.org/2000/svg"><g fill="#f18303"><path clip-rule="evenodd" d="m3.05315 18.883h27.89805c.543.0039 1.0616.2234 1.444.6097.3823.3861.5978.9076.6016 1.4515v.0034 6.2694c0 .2761-.2239.5-.5.5h-30.99274c-.27614 0-.5-.2239-.5-.5v-6.2457c-.00164-.2713.0495-.5403.15065-.792.10138-.2521.25108-.482.44078-.6763.18972-.1943.41574-.3493.66529-.4557.24957-.1065.51763-.1623.78885-.1643zm.00193 1c-.13796.0012-.27449.0297-.40188.0841-.12789.0545-.24421.1341-.34219.2345-.09799.1004-.17571.2195-.22847.3507-.05276.1313-.07948.2719-.07849.4139l.00002.0034-.00001 5.7474h29.99274v-5.7677c-.0024-.2836-.1151-.5539-.3122-.753-.197-.199-.4624-.3109-.7388-.3133z" fill-rule="evenodd"/><path clip-rule="evenodd" d="m1.50406 26.739c.27614 0 .5.2239.5.5v1.5715c-.00198.1426.02395.284.07628.4162.05232.1321.12988.2521.22797.3533s.21475.1814.34312.2365c.12789.0548.26503.0835.40363.0847h27.89074c.1386-.0012.2757-.0299.4036-.0847.1284-.0551.245-.1353.3431-.2365s.1757-.2212.228-.3533c.0523-.1322.0783-.2736.0763-.4162l-.0001-.0069.0001-1.5646c0-.2761.2238-.5.5-.5.2761 0 .5.2239.5.5v1.5615c.0033.2718-.0465.5417-.1465.7943-.1006.2539-.25.4855-.4398.6813-.1899.1959-.4166.3521-.6671.4595s-.5198.1637-.7922.1656h-.0035-27.89803c-.27245-.0019-.54171-.0582-.79222-.1656-.2505-.1074-.47717-.2636-.66707-.4595-.18988-.1958-.33927-.4274-.4398-.6813-.10006-.2526-.14981-.5226-.14652-.7945v-1.5613c0-.2761.22386-.5.5-.5z" fill-rule="evenodd"/><path d="m3.5 32.3516c0 .2761-.22386.5-.5.5s-.5-.2239-.5-.5c0-.2762.22386-.5.5-.5s.5.2238.5.5z"/><path d="m31.5 32.3516c0 .2761-.2239.5-.5.5s-.5-.2239-.5-.5c0-.2762.2239-.5.5-.5s.5.2238.5.5z"/><g clip-rule="evenodd" fill-rule="evenodd"><path d="m6.15287 10.5176c-.68747 0-1.34779.2758-1.83544.7683-.48781.4927-.76274 1.1619-.76274 1.8608v6.2363c0 .2762-.22347.5-.49961.5s-.50039-.2238-.50039-.5v-6.2363c0-.9609.37789-1.8834 1.05213-2.5644.67439-.68114 1.59014-1.06472 2.54605-1.06472h21.69813c.956 0 1.8717.38358 2.5461 1.06472.6742.681 1.0521 1.6035 1.0521 2.5644v6.2363c0 .2762-.2238.5-.5.5-.2761 0-.5-.2238-.5-.5v-6.2363c0-.6989-.2749-1.3681-.7627-1.8608-.4877-.4925-1.148-.7683-1.8355-.7683z"/><path d="m7.70195 15.2109c-1.09495 0-2.14635.4379-2.92394 1.2196-.77776.7819-1.21817 1.844-1.22333 2.9545-.00128.2761-.22618.4989-.50232.4976-.27614-.0012-.49895-.2261-.49767-.5023.00638-1.3716.5503-2.6859 1.51436-3.655.96423-.9693 2.27034-1.5144 3.63291-1.5144h4.64724c1.3634 0 2.6705.5445 3.6364 1.5133.9658.9686 1.5122 2.2825 1.5218 3.655.0019.2761-.2204.5015-.4965.5034-.2761.002-.5016-.2203-.5035-.4965-.0077-1.1116-.4504-2.1741-1.2299-2.9558-.7794-.7817-1.8321-1.2194-2.9283-1.2194z"/><path d="m21.6842 15.211c-.5447-.0038-1.085.1008-1.5899.3082s-.9647.5135-1.3528.901c-.3882.3875-.6972.8488-.909 1.3576-.2117.5088-.3221 1.055-.3247 1.6073-.0013.2761-.2262.4989-.5023.4977-.2761-.0013-.499-.2262-.4977-.5023.0032-.6824.1396-1.3576.4015-1.987.262-.6293.6444-1.2006 1.1257-1.6811.4813-.4804 1.0519-.8605 1.6794-1.1182.6269-.2575 1.2981-.3877 1.9751-.3831h4.6491c1.3563.0096 2.6531.5589 3.6095 1.5272.9563.968 1.4952 2.2768 1.5015 3.6422.0013.2761-.2215.501-.4977.5023-.2761.0012-.501-.2216-.5023-.4977-.0051-1.1053-.4415-2.1631-1.2129-2.9441-.7709-.7804-1.8142-1.2218-2.9034-1.2299z"/></g></g></svg>