<svg fill="none" height="34" viewBox="0 0 34 34" width="34" xmlns="http://www.w3.org/2000/svg"><path d="m20.1245 11.6507c-.0322.2743.1641.5227.4384.5549.2742.0321.5226-.1642.5548-.4384zm2.957-4.2856c.1816-.20795.1603-.52382-.0476-.7055-.208-.18169-.5238-.16039-.7055.04756zm3.7568-2.06107.3777.3276.002-.00231zm-.3581-.79953.0294-.49914-.0028-.00016zm-1.5055-.07995-.4857.11847c.0523.21437.2389.36912.4592.38082zm-.3488-1.43028-.4879.10958.0022.00889zm-.3672-.36423.1146-.48669c-.0051-.00121-.0103-.00234-.0155-.00339zm-.5049.1599-.3663-.34028c-.0042.00453-.0083.00913-.0124.0138zm-1.2943 1.50135.3777.3276.001-.00112zm3.0844 2.50521.3777.32759zm-19.87593 7.4893h.5zm1.0006-.9772v-.5h-.0044zm22.12343.9772h.5zm0 11.7176h-.5zm-1.0098.9683.0044-.5h-.0044zm-19.10127-.0515c-.02844-.2747-.27417-.4743-.54885-.4459-.27467.0285-.47427.2742-.44583.5489zm-.09342 3.9514.49781-.0469-.00047-.0046zm2.21229 0-.4973-.0515-.0004.0046zm.9013-3.8484c.0284-.2747-.1712-.5204-.4458-.5489-.2747-.0284-.5204.1712-.5489.4459zm15.1094 0c.0284-.2747-.1712-.5204-.4459-.5489-.2746-.0284-.5204.1712-.5488.4459zm-.9013 3.8484.4956.066c.0007-.0048.0013-.0096.0018-.0145zm-1.1107.9454v-.5zm-1.1108-.9454-.4975.0504c.0006.0052.0012.0104.0019.0156zm.1027-3.9503c-.0278-.2747-.273-.4749-.5478-.4471-.2747.0278-.4749.2731-.4471.5478zm-18.12243-8.2406c-.27614 0-.5.2238-.5.5 0 .2761.22386.5.5.5zm23.16073 1c.2761 0 .5-.2239.5-.5 0-.2762-.2239-.5-.5-.5zm-13.1099-3.9229c-.2762 0-.5.2239-.5.5 0 .2762.2238.5.5.5zm3.0201 1c.2762 0 .5-.2238.5-.5 0-.2761-.2238-.5-.5-.5zm3.0392-3.4321v-.5zm-1.0098 0v-.5zm-2.0104-1.9455h-.5zm0-1.45694h.5001l-.0002-.00966zm.5049-.48861-.0091.5h.0091zm4.0299 0v.5h.0001zm.4957.48861-.5-.00957v.00957zm-16.10871 11.69134h-.5zm1.51467-.4886.0088-.5h-.0088zm.49571.4886-.5-.0001v.0001zm0 4.8771h-.5zm-1.50549.4798v-.5h-.00008zm-.50489-.4798h-.50009l.00018.0094zm2.00781-4.8778-.5.0004v.0015zm.5233-.4886-.0176.4997c.0058.0002.0117.0003.0176.0003zm1.5146.4886h.5zm0 4.8772.5.0094v-.0094zm-.5049.4797.0001-.5h-.0001zm-1.0097 0v-.5h-.0001zm-.50494-.4797-.50005.0019.00014.0075zm2.00114-4.8765h-.5zm2.0104 4.8771h-.5v.0001zm-.5049.4798.009-.5h-.009zm-1.0006 0v-.5001l-.0089.0001zm-.5049-.4798.5.0001v-.0001zm2.1127-3.6783.4017-.2978-.0043-.0057zm.1101-.6752.2848.411.0008-.0006zm.817-.5685-.2821-.4129-.0035.0024zm.7069.1066.4018-.2979-.0076-.0097zm2.9375 3.9621.4062-.2917-.0045-.0061zm-.1193.6752.2856.4104.0005-.0004zm-.817.5685-.2856-.4104-.0052.0037zm-.6977-.1066.402-.2973-.0003-.0005zm4.3605-15.0083c.19-1.621.8725-3.15307 1.9638-4.4021l-.7531-.65794c-1.2222 1.39893-1.99 3.11911-2.2039 4.94354zm6.1003-6.13788c.12-.1401.199-.31137.2261-.49526l-.9894-.14577c.0008-.00523.0028-.00838.0038-.00954zm.2261-.49526c.0271-.18397.0008-.37123-.0749-.54047l-.9127.40868c-.0016-.00365-.0025-.00868-.0018-.01398zm-.0749-.54047c-.0757-.16909-.1973-.31228-.3492-.41528l-.5613.82757c.0008.00059-.0006-.00012-.0022-.00361zm-.3492-.41528c-.1517-.10291-.3284-.16222-.5104-.17294l-.0588.99826c.0042.00025.0069.00158.0079.00225zm-.5132-.17311-1.5055-.07995-.0531.99859 1.5055.07996zm-1.0463.30087-.3488-1.43027-.9715.23694.3488 1.43028zm-.3467-1.42137c-.041-.18246-.1338-.348-.2653-.47853l-.7043.70997c-.0017-.00172-.0046-.0057-.0061-.01231zm-.2653-.47853c-.1315-.13039-.2964-.22073-.4752-.26282l-.2292.97337.0001-.00058zm-.4907-.26621c-.1742-.03524-.3549-.02565-.5246.02807l.302.95333c.0075-.0024.0161-.00292.0244-.00125zm-.5246.02807c-.1697.05375-.3237.15025-.4457.28163l.7327.68056c.0026-.00281.0074-.00648.015-.00886zm-.4581.29543-1.2943 1.50135.7574.65296 1.2943-1.50134zm-1.2934 1.50024c-.4309.49692-.6426 1.14252-.5837 1.79476l.9959-.08992c-.0341-.37736.0877-.75493.3433-1.04966zm-.5837 1.79476c.0588.65207.3827 1.25061.8941 1.66601l.6305-.77622c-.3066-.24903-.4946-.60218-.5287-.97971zm.8941 1.66601c.5109.41494 1.168.61442 1.827.5587l-.0843-.99644c-.405.03424-.8051-.089-1.1122-.33848zm1.827.5587c.659-.05573 1.2721-.36276 1.7025-.85908l-.7554-.65519c-.2562.29534-.6265.48359-1.0314.51783zm1.7025-.85908 1.2944-1.49246-.7555-.65519-1.2943 1.49246zm-19.75363 7.16171c-.00001-.1205.049-.2395.14185-.3302l-.69869-.7154c-.28193.2754-.44318.6508-.44316 1.0456zm.14185-.3302c.0934-.0912.22361-.1458.36315-.147l-.0088-1c-.39289.0035-.77166.1568-1.05304.4316zm.35875-.147h21.11363v-1h-21.11363zm21.11363 0c.1404 0 .2719.0541.3663.1455l.6954-.7186c-.2843-.2751-.6665-.4269-1.0617-.4269zm.3663.1455c.0939.0909.1435.2105.1435.3317h1c0-.3972-.1632-.7746-.4481-1.0503zm.1435.3317v11.7176h1v-11.7176zm0 11.7176c0 .0596-.0122.1189-.0363.1748l.9184.3956c.0777-.1802.1179-.3741.1179-.5704zm-.0363.1748c-.0241.056-.0599.1079-.1061.1522l.6921.7218c.1416-.1358.2548-.2982.3324-.4784zm-.1061.1522c-.0463.0444-.1021.0803-.1646.1049l.3658.9306c.1824-.0717.3494-.178.4909-.3137zm-.1646.1049c-.0625.0245-.13.0371-.1984.0365l-.0089.9999c.196.0018.3907-.0341.5731-.1058zm-.2028.0364h-21.11363v1h21.11363zm-21.11363 0c-.13796 0-.26711-.0532-.35982-.1429l-.69542.7186c.28258.2735.66245.4243 1.05524.4243zm-.35982-.1429c-.09216-.0892-.14078-.2066-.14078-.3254h-1c0 .3948.16222.77.44536 1.044zm-.14078-.3254v-11.7176h-1v11.7176zm1.51828 1.0198.40392 3.8999.99468-.103-.40392-3.8999zm.40346 3.8953c.03732.3961.22604.7608.524 1.0241l.66211-.7494c-.11137-.0984-.17751-.2304-.19052-.3685zm.524 1.0241c.29752.2628.68288.4063 1.07997.4063v-1c-.15718 0-.30605-.057-.41786-.1557zm1.07997.4063c.39712 0 .78242-.1435 1.07992-.4063l-.6621-.7494c-.11177.0987-.26065.1557-.41782.1557zm1.07992-.4063c.298-.2633.4867-.628.524-1.0241l-.9955-.0938c-.0131.1381-.0792.2701-.1906.3685zm.5236-1.0195.4039-3.8999-.9947-.103-.4039 3.8999zm14.5186-4.0029-.4039 3.8999.9947.103.4039-3.8999zm-.4022 3.8854c-.0182.1364-.0874.2651-.1996.3606l.6481.7616c.2967-.2525.4913-.6039.5427-.9902zm-.1996.3606c-.1126.0959-.2602.1508-.4155.1508v1c.3891 0 .7674-.1371 1.0636-.3892zm-.4155.1508c-.1554 0-.303-.0549-.4156-.1508l-.6481.7616c.2963.2521.6745.3892 1.0637.3892zm-.4156-.1508c-.1122-.0955-.1814-.2242-.1996-.3606l-.9912.132c.0514.3863.246.7377.5427.9902zm-.1977-.3449-.3948-3.9-.9949.1007.3947 3.9zm-18.51723-11.1406h23.16073v-1h-23.16073zm10.05083-2.9229h3.0201v-1h-3.0201zm7.5696-5.3776c0 .378-.155.7439-.4365 1.0164l.6954.7186c.4725-.4573.7411-1.081.7411-1.735zm-.4365 1.0164c-.2821.273-.6681.4291-1.0738.4291v1c.6606 0 1.2973-.2538 1.7692-.7105zm-1.0738.4291h-1.0098v1h1.0098zm-1.0098 0c-.2006 0-.3989-.0382-.5833-.1122l-.3721.9282c.3034.1216.6279.184.9554.184zm-.5833-.1122c-.1845-.0739-.351-.1819-.4906-.3169l-.6954.7186c.2338.2263.5105.4049.8139.5265zm-.4906-.3169c-.1395-.135-.2492-.2944-.3238-.4686l-.9193.3935c.1275.2978.3139.5674.5477.7937zm-.3238-.4686c-.0746-.1742-.1127-.3603-.1127-.5478h-1c0 .3235.0659.6434.1934.9413zm-.1127-.5478v-1.45694h-1v1.45694zm-.0001-1.4666c.0001.0051-.0009.00979-.0025.0136l-.923-.38468c-.0515.12346-.0769.2563-.0743.3904zm-.0025.0136c-.0016.00377-.0034.00605-.0046.00718l-.6954-.7186c-.0954.09235-.1716.20332-.223.32674zm-.0046.00718c-.0011.00109-.0015.00108-.0008.00079l-.3636-.93156c-.1229.04797-.2356.11985-.331.21217zm-.0008.00079c.0008-.0003.0021-.00063.0038-.0006l.0181-.99983c-.1315-.00238-.2626.02091-.3855.06887zm.0129-.00052h4.0299v-1h-4.0299zm4.03 0c.0017 0 .003.00035.0037.00063l.3762-.92656c-.1209-.04904-.25-.07409-.38-.07407zm.0037.00063c.0007.00027.0002.00024-.0009-.0009l.7019-.71219c-.0934-.09212-.204-.16442-.3248-.21347zm-.0009-.0009c-.0012-.00117-.0031-.00348-.0046-.00722l.9248-.38042c-.0503-.12221-.1248-.23239-.2183-.32455zm-.0046-.00722c-.0016-.00379-.0026-.00842-.0025-.01347l.9999.01914c.0025-.13253-.0223-.26384-.0726-.38609zm-.0026-.0039v1.45694h1v-1.45694zm-15.10871 11.69134c0 .0084-.00361.013-.00441.0138l-.69542-.7186c-.19018.184-.30017.4372-.30017.7048zm-.00441.0138c-.00025.0002.00281-.0024.0093-.0024v-1c-.26132 0-.51511.1003-.70472.2838zm.0093-.0024h1.00978v-1h-1.00978zm1.00098-.0001c.00638.0001.00925.0027.0089.0024l.70198-.7122c-.18576-.1831-.43505-.2855-.69328-.29zm.0089.0024c-.00087-.0009-.00439-.0055-.00439-.0138l1.00003.0002c0-.2645-.1074-.515-.29366-.6986zm-.00439-.0137v4.8771h1.00003v-4.8771zm0 4.8771c0-.0107.00457-.0176.0071-.0201l.69542.7186c.18841-.1823.29751-.4332.29751-.6985zm.0071-.0201c.00197-.0019.00125-.0001-.00281-.0001v1c.25889 0 .51034-.0994.69823-.2813zm-.00281-.0001h-1.00978v1h1.00978zm-1.00986 0c-.00639 0-.00948-.0026-.00932-.0025l-.68881.725c.18901.1796.44002.2775.69829.2775zm-.00932-.0025c.00069.0007.00426.0051.00442.0133l-.99982.0188c.00496.2644.11705.5128.30659.6929zm.00451.0227v-4.8771h-1v4.8771zm2.00781-4.8781c0 .0039-.0008.0073-.002.0099l-.91581-.4015c-.05416.1235-.08228.257-.08219.3923zm-.002.0099c-.0011.0026-.0022.0037-.0024.0039l-.68254-.7308c-.0979.0914-.17672.2019-.23087.3254zm-.0024.0039c-.0002.0002.0005-.0005.0025-.0012l-.34739-.9378c-.12482.0463-.23979.1168-.33765.2082zm.0025-.0012c.002-.0008.0046-.0013.0076-.0012l.0351-.9994c-.1327-.0046-.26531.0166-.39009.0628zm.0252-.0009h1.0097v-1h-1.0097zm1.0097 0c.0065 0 .0096.0027.0093.0024l.6955-.7186c-.1897-.1835-.4434-.2838-.7048-.2838zm.0093.0024c-.0008-.0007-.0044-.0054-.0044-.0138h1c0-.2676-.11-.5207-.3001-.7048zm-.0044-.0138v4.8772h1v-4.8772zm.0001 4.8678c.0002-.0083.0037-.0127.0044-.0133l.6888.7249c.1896-.1801.3017-.4285.3066-.6928zm.0044-.0133c.0002-.0002-.0029.0024-.0093.0024l-.0001 1c.2582 0 .5092-.0979.6982-.2775zm-.0094.0024h-1.0097v1h1.0097zm-1.0098 0c-.0064 0-.0095-.0026-.0094-.0024l-.68876.7249c.18901.1796.44002.2775.69826.2775zm-.0094-.0024c.0007.0006.0043.005.0045.0133l-.99985.0188c.00496.2643.11705.5127.30659.6928zm.0046.0208-.0184-4.8772-1 .0038.01836 4.8772zm2.0011-4.8746c0 .0084-.0036.013-.0044.0138l-.6954-.7186c-.1902.184-.3002.4372-.3002.7048zm-.0044.0138c-.0002.0002.0028-.0024.0093-.0024v-1c-.2613 0-.5151.1003-.7047.2838zm.0093-.0024h1.0006v-1h-1.0006zm1.0006 0c.0065 0 .0096.0026.0093.0024l.6954-.7186c-.1896-.1835-.4434-.2838-.7047-.2838zm.0093.0024c-.0008-.0008-.0044-.0054-.0044-.0138h1c0-.2676-.11-.5208-.3002-.7048zm-.0044-.0138v4.8771h1v-4.8771zm0 4.8772c0-.005.0011-.0096.0027-.0133l.9175.3978c.0525-.1213.0798-.2521.0798-.3847zm.0027-.0133c.0015-.0036.0034-.0058.0045-.0068l.6888.7249c.0951-.0904.1716-.1991.2242-.3203zm.0045-.0068c.0011-.0011.0015-.001.0007-.0008l.3595.9332c.1216-.0469.2335-.1171.3286-.2075zm.0007-.0008c-.0008.0003-.0021.0007-.0038.0006l-.0179.9999c.13.0023.2596-.0204.3812-.0673zm-.0128.0006h-1.0006v1h1.0006zm-1.0095 0c-.0017.0001-.0031-.0003-.0039-.0006l-.3594.9332c.1216.0469.2511.0696.3812.0673zm-.0039-.0006c-.0007-.0002-.0003-.0003.0008.0008l-.6889.7249c.0951.0904.207.1606.3287.2075zm.0008.0008c.0011.001.0029.0032.0045.0068l-.9175.3978c.0525.1212.129.2299.2241.3203zm.0045.0068c.0016.0037.0026.0083.0026.0133l-1-.0002c0 .1326.0273.2634.0799.3847zm.0026.0132v-4.8771h-1v4.8771zm2.0101-3.9818c.0016.0021.0034.0054.0045.0098l-.9695.2451c.0324.128.0905.2476.1702.352zm.0045.0098c.0011.0046.0014.0095.0006.0143l-.987-.161c-.0212.1304-.0155.2637.0169.3918zm.0006.0143c-.0008.0048-.0024.0086-.0041.0112l-.8431-.5378c-.0707.1109-.1185.2351-.1398.3656zm-.0041.0112c-.0017.0026-.0031.0037-.0035.004l-.5695-.822c-.1073.0743-.1994.1693-.2701.2802zm-.0027.0034.817-.5685-.5712-.8209-.817.5686zm.8136-.5662c.0036-.0024.0106-.0048.019-.0035l.1491-.9889c-.2554-.0385-.5179.0202-.7324.1669zm.019-.0035c.0082.0012.0115.0049.0115.0049l.7884-.6151c-.1609-.2062-.3951-.3401-.6508-.3787zm.004-.0049 2.9376 3.9622.8033-.5956-2.9376-3.9621zm2.9331 3.956c-.0009-.0013-.0022-.0036-.0029-.0069-.0008-.0033-.0009-.007-.0003-.0105l.9848.174c.046-.2604-.0161-.5264-.1693-.7398zm-.0032-.0174c.0014-.0076.0049-.0098.0039-.0091l.5722.8201c.2137-.1491.3627-.3768.4087-.637zm.0044-.0095-.817.5686.5712.8208.817-.5685zm-.8222.5723c.0004-.0003.0001 0-.0012.0003l.2303.9731c.1264-.0299.2463-.084.3525-.16zm-.0012.0003c-.0013.0003-.0029.0004-.0044.0002l-.151.9885c.1283.0196.2594.0143.3857-.0156zm-.0044.0002c-.0015-.0003-.0022-.0007-.0022-.0007l-.5128.8585c.1119.0669.2356.1111.364.1307zm-.0022-.0007c.0001.0001.0013.0008.0029.003l-.804.5946c.0781.1056.1763.194.2883.2609zm.0026.0025-2.9376-3.9621-.8033.5956 2.9376 3.9621z" fill="#f18303"/></svg>