<svg fill="none" height="50" viewBox="0 0 50 50" width="50" xmlns="http://www.w3.org/2000/svg"><g fill="#f18303"><path d="m22.6165 23.9084c0-.2761.2239-.5.5-.5h4.4414c.2762 0 .5.2239.5.5 0 .2762-.2238.5-.5.5h-4.4414c-.2761 0-.5-.2238-.5-.5z"/><path clip-rule="evenodd" d="m35.7744 3.37751c-.2172-.04393-.4425-.03196-.6538.03497-.2114.06695-.4028.18702-.5542.34998-.0042.00453-.0083.00913-.0123.0138l-1.9025 2.20675c-.5922.68312-.8827 1.5698-.8019 2.46405.0654.72423.3691 1.40135.8562 1.93634-.7472.9189-1.3638 1.925-1.8377 2.991h-2.5359c-.1612-.0023-.3217.0266-.4721.0853-.1519.0593-.2911.1481-.4087.2619s-.2112.2503-.2744.4019c-.0625.1499-.0936.311-.0913.4736v2.1384c0 .4437.0904.8826.2654 1.2916.1664.3888.4061.7428.7057 1.0442h-18.24949l-.0044.0001c-.51817.0045-1.0167.2068-1.38626.5677-.37011.3615-.58083.8533-.58081 1.3693v17.2318c0 .5157.21183 1.0068.58327 1.3662.37089.3589.87053.5578 1.3882.5578h1.77709l.5473 5.2845c.0497.5208.2982 1.0014.6919 1.3492.3938.348.9049.5387 1.4324.5387s1.0386-.1907 1.4324-.5387c.3936-.3478.6422-.8284.6919-1.3492l.5473-5.2845h8.1835c.0834.0084.1673.0084.2505 0h8.4414l.535 5.2855.0018.0156c.0678.5093.3246.9737.7174 1.308.3925.334.8945.5162 1.4117.5162.5173 0 1.0193-.1822 1.4117-.5162.3929-.3343.6496-.7987.7174-1.308l.0017-.0145.5476-5.2866h1.7073c.2574.002.513-.0452.7523-.1393.2401-.0943.4595-.2342.6451-.4122.1858-.1781.3341-.391.4356-.6267.1016-.2358.1541-.4893.1541-.7458v-9.8072c.0345-.0679.054-.1448.054-.2263 0-.0814-.0195-.1583-.054-.2262v-6.9721c0-.5191-.2132-1.0135-.5872-1.3754-.3734-.3614-.8765-.5617-1.3978-.5617h-6.3442c.6206-.6243.9711-1.461.9711-2.3358v-2.1385c.0023-.1606-.0281-.3198-.0892-.4683-.0617-.1501-.1533-.2856-.2685-.3992-.1152-.1135-.2517-.2028-.4011-.2635-.1493-.0606-.3091-.0916-.4702-.0916h-2.2831c.4082-.8344.9132-1.6256 1.5082-2.3577.6306.3784 1.3729.5516 2.1174.4887.9093-.0769 1.7538-.5005 2.3458-1.1831l1.9035-2.19477.0019-.00231c.1481-.17279.2451-.38361.2784-.60955.0333-.22601.0011-.45614-.0921-.66435-.0931-.20805-.243-.38477-.4308-.51214-.1876-.12729-.4065-.20086-.6323-.21417l-1.8456-.09802-.424-1.73839c-.0509-.22185-.1642-.42355-.3252-.58318-.162-.1607-.3657-.27242-.5869-.32452zm-8.7003 35.78669h7.1705l.0131-.0001.009.0001h4.418c.0074-.0002.0149-.0002.0224 0h2.1497.0045c.1306.0012.2597-.0227.3799-.07.1201-.0472.2283-.1166.3188-.2033.0904-.0867.1613-.189.2093-.3005s.0725-.2305.0725-.3502v-9.5335h-33.00586v9.5335c0 .2397.09823.473.27869.6476.18103.1752.42994.2764.69278.2764h1.00699c-.012-.0643-.0187-.13-.02-.1965l-.0001-.0094v-7.1723c0-.3285.1351-.6402.3698-.8673.2342-.2267.5484-.3512.8727-.3512h1.4938c.2587.0046.5096.0883.7174.2393.0927-.0676.1945-.1222.3024-.1621.1515-.0561.3125-.0826.4738-.0782h1.4773c.2621 0 .5176.0814.7296.2322.2117-.1502.4667-.2312.7283-.2312h1.4715c.3243 0 .6385.1245.8727.3512.2347.2271.3698.5388.3698.8673v.0304l.7317-.5092c.2658-.1817.5917-.2548.9092-.2069.3177.0479.6079.2141.8066.4689l.0076.0097 4.3243 5.8328c.1888.263.2649.59.2083.9099-.0565.3196-.2396.6003-.5039.7847zm-6.4007-4.3042v4.0982c0 .0693-.0061.1382-.0181.206h3.2092zm2.5194 1.7191 1.8525 2.4987c.0164.0223.0384.0426.0646.0583.0214.0127.0452.0223.0706.0281h.1119c.0007-.0002.0014-.0003.0021-.0005.0313-.0074.0599-.0206.0843-.038l.0052-.0037 1.201-.8358c.0515-.0359.0822-.0868.0914-.1386.009-.0508-.0022-.1043-.0343-.1504l-4.3124-5.8164c-.0379-.0468-.0959-.0814-.1645-.0917-.0699-.0106-.1398.0059-.1946.0428l-.2313.161-.968.6736-.0008.0006c-.0248.0171-.0446.0381-.0592.0609-.0146.0229-.0238.0474-.0278.0722-.0041.0248-.003.05.0032.0746s.0177.0487.0345.0707l.0042.0056zm7.2791-22.2047c-.3144.8993-.5309 1.833-.6427 2.7863-.0321.2743.1642.5227.4384.5548.2743.0322.5227-.1641.5548-.4383.1169-.9969.3579-1.9712.7143-2.9028h2.718c.0327 0 .0648.0063.0941.0182.0292.0119.0547.0288.0752.0491.0206.0202.0358.0433.0457.0674s.0146.0493.0141.0742l-.0001.0096v2.1426c0 .6208-.2547 1.2196-.7136 1.6637-.3751.363-.8616.5981-1.3849.6721h-2.2007c-.2015-.0285-.3989-.081-.5876-.1567-.2992-.1199-.57-.2953-.7974-.5154-.2274-.22-.4068-.4803-.529-.7656-.122-.2853-.1847-.5904-.1847-.8981v-2.1426l-.0001-.0096c-.0004-.0253.0043-.0508.0144-.0751.0102-.0244.0258-.0477.0468-.068.0211-.0204.0471-.0373.0769-.049.0299-.0116.0624-.0175.0955-.0169l.009.0001zm-.352 5.6969c.1399.0168.2809.0252.4224.0252h1.485c.1418 0 .2829-.0085.4224-.0252h8.4071c.2665 0 .5188.1026.7024.2803.183.1771.2826.4137.2826.6568v6.6983h-33.00586v-6.6983c-.00001-.2417.09846-.477.2795-.6538.18113-.1769.4303-.2804.69439-.2833zm5.3026-15.70549c.0467-.01479.0969-.01816.1456-.00966.0413.01108.0772.03212.1045.05924.0288.02859.047.06263.0548.0974l.0021.00891.513 2.10334c.0523.21437.2389.36913.4592.38083l2.2122.11748c.0475.00299.092.01854.1287.0434.0368.02496.0636.05778.0794.09325.0158.03531.0209.07317.0155.1099-.0054.03649-.0212.0726-.0478.10395l-1.9022 2.19329c-.4177.48156-1.0194.78636-1.6746.84176-.6553.0555-1.3042-.1437-1.8038-.54954-.4991-.40536-.8075-.98244-.8635-1.60223-.0559-.61962.1443-1.23793.5615-1.71893l1.8968-2.20015c.0313-.03204.0718-.05741.1186-.07224zm-17.6786 34.60099c-.0005.027-.002.0538-.0043.0805.01.0186.0234.0363.04.0521.021.02.0469.0365.0764.0479.0296.0114.0618.0172.0944.0166l.009-.0002 1.4804.0001c.0327.0006.0649-.0051.0944-.0165.0296-.0114.0555-.0279.0765-.0479s.0367-.0429.0472-.0669c.0104-.024.0155-.0491.0155-.0741v-7.1724c0-.0525-.0215-.1064-.0652-.1487-.0443-.0429-.1078-.0698-.1773-.0698h-1.4715c-.0695 0-.133.0269-.1773.0698-.0174.0168-.0313.0355-.0417.0552.0024.0307.0036.0616.0036.0926v7.1723zm-1.0651-7.3305c.0175.0169.0314.0357.0418.0555-.0024.0312-.0037.0627-.0037.0942v7.1722c0 .0272.0009.0543.0028.0813-.0106.0197-.0247.0383-.0423.055-.0443.0421-.1072.0683-.1758.0683h-.1541l-1.1694-7.5963h1.3234c.0695 0 .133.0269.1773.0698zm-.3313 7.5265-1.1694-7.5963h-.1616c-.0059 0-.0117-.0001-.0176-.0003-.0349-.0012-.0693.0044-.1011.0162-.0319.0118-.0598.0293-.0826.0506-.0228.0212-.0399.0458-.0513.0717-.0064.0145-.0109.0295-.0137.0446.0004.0122.0006.0244.0006.0367v1.0032l.0232 6.1614c.0016.0511.0236.1031.0666.1439.0443.0421.1072.0683.1758.0683zm-2.6-7.4126-.0002.0102-.0003.025v.0016l.0038 1.0035v6.1678c0 .0491-.02.0997-.0612.1396-.0418.0404-.1019.0659-.1678.0659h-1.485c-.0686 0-.1316-.0262-.1759-.0683-.0428-.0407-.0647-.0924-.0666-.1433v-7.1662c0-.0525.0215-.1064.0652-.1487.0443-.0429.1078-.0698.1773-.0698h1.4795c.0673.002.1282.0291.1708.0711.033.0325.053.0716.0604.1116zm24.3945 8.414h-3.3338l.5239 5.1762c.036.2566.1668.4956.3733.6714.2088.1777.4802.2777.7636.2777.2835 0 .5548-.1.7636-.2777.2067-.1759.3375-.4151.3734-.6719zm-25.5521 0 .5373 5.1882c.0248.2638.1509.5126.3586.6961.2081.1839.4827.2881.7703.2881s.5622-.1042.7703-.2881c.2077-.1835.3338-.4323.3586-.6961l.0005-.0046.5368-5.1836z" fill-rule="evenodd"/></g></svg>