<svg fill="none" height="34" viewBox="0 0 34 34" width="34" xmlns="http://www.w3.org/2000/svg"><g fill="#00ac83"><path d="m26.3125 13.1992c.2762 0 .5-.2238.5-.5 0-.2761-.2238-.5-.5-.5-.2761 0-.5.2239-.5.5 0 .2762.2239.5.5.5z"/><path d="m25.3008 18.0947c0 .2762-.2239.5-.5.5s-.5-.2238-.5-.5c0-.2761.2239-.5.5-.5s.5.2239.5.5z"/><path d="m29.9063 20.3965c.2761 0 .5-.2239.5-.5 0-.2762-.2239-.5-.5-.5-.2762 0-.5.2238-.5.5 0 .2761.2238.5.5.5z"/><g clip-rule="evenodd" fill-rule="evenodd"><path d="m25.7867 1.36616c.1536-.10923.3375-.16792.526-.16792.1886 0 .3724.05869.5261.16792.1498.10646.2636.2558.3267.42818.7167 1.78054 2.2975 5.77286 3.7009 9.69806.7026 1.9653 1.3629 3.9196 1.8481 5.5737.4783 1.6301.8076 3.0355.8076 3.8667l-.0002.0146c-.0543 1.862-.8456 3.6263-2.2 4.9053-1.2294 1.1608-2.8315 1.8356-4.5094 1.911v4.6273c0 .2762-.2238.5-.5.5-.2761 0-.5-.2238-.5-.5v-4.614c-.8439-.0185-1.678-.1991-2.4565-.5338-.5618-.2415-1.0852-.5591-1.5564-.9426v5.6657c.0022.1164-.018.2322-.0595.341-.0426.1114-.1067.2134-.1887.3001-.082.0866-.1802.1563-.2891.205-.109.0487-.2264.0754-.3457.0787l-.0136.0003-3.9691-.0002c-.1192-.0032-.2367-.0301-.3456-.0788s-.2072-.1184-.2891-.205c-.082-.0867-.1461-.1887-.1887-.3001-.0415-.1088-.0617-.2246-.0595-.341v-2.2261h-1.176-.001l-.0068 2.227c.0021.1161-.0181.2316-.0596.3401-.0425.1115-.1066.2134-.1886.3001s-.1803.1563-.2892.205-.2263.0754-.3456.0787l-.0137.0004-3.935-.0002c-.11926-.0033-.2367-.0302-.34562-.0789s-.20718-.1183-.28916-.205-.14608-.1886-.18864-.3001c-.04155-.1088-.06176-.2246-.05956-.341v-2.2261h-1.22399v2.2261c.00219.1164-.01802.2322-.05957.341-.04255.1114-.10665.2134-.18864.3001-.08198.0866-.18024.1563-.28915.205-.10893.0487-.22637.0754-.34562.0787l-.01369.0003-3.96903-.0002c-.11925-.0032-.23668-.0301-.34561-.0788-.10892-.0487-.20717-.1184-.28915-.205-.08199-.0867-.14609-.1887-.18864-.3001-.04155-.1088-.06177-.2246-.05957-.341v-11.1644c.00302-.2269.08415-.4458.22966-.6199.00657-.0079.01339-.0156.02044-.023l1.97768-2.0907c.07902-.0882.17538-.1592.2831-.2086.11158-.0511.23278-.0779.35551-.0784l.00287-.0001c.12241.0002.24346.0257.35551.075.11096.0488.2107.1199.29305.2089l1.96828 2.0927c.16758.1745.26164.4068.26256.6489l.00001.0019v1.6299h1.22399v-1.6365c.00302-.2269.08415-.4459.22965-.62l.00856-.01.00546-.0061.00643-.0069 1.97948-2.0926c.0822-.0901.1823-.162.2939-.2111.1136-.05.2366-.0752.3607-.074.1221.0008.2426.0275.3536.0784.1077.0494.2041.1204.2831.2086l1.9777 2.0907c.007.0075.0138.0151.0204.023.1455.1741.2266.3931.2296.62l.0001.0081-.005 1.6284h1.1548v-1.6318c.0009-.2421.0949-.4744.2625-.6489l1.9683-2.0927c.0823-.089.1821-.1601.2931-.2089.112-.0493.2331-.0748.3555-.075h.0028c.1228.0006.244.0274.3555.0785.1003.0459.1907.1106.2664.1904l.0101.0103.0562.0591c1.2896-4.8468 4.6902-13.47512 5.8386-16.32526.0631-.17233.1769-.32163.3267-.42808zm-10.9097 27.37404h1.174v-5.3017h-1.1578zm2.174.5376c.0009-.0124.0013-.0249.0013-.0376 0-.0126-.0004-.0251-.0013-.0375v-6.2267c.0009-.0124.0013-.0249.0013-.0375 0-.0127-.0004-.0252-.0013-.0376v-2.0676l1.8752-1.9938.5784.6073.0064.0072.0081.0089 1.2805 1.3584v11.0699h-3.7486zm3.3836-10.3016c1.0972-4.5081 4.5999-13.44109 5.8781-16.62218.7454 1.85652 2.262 5.69905 3.612 9.47508.6999 1.9574 1.3529 3.8911 1.8303 5.5184.4826 1.6454.7651 2.9116.7671 3.5782-.0485 1.5944-.7268 3.1046-1.8867 4.1999-1.0435.9853-2.4001 1.5623-3.8229 1.6369v-2.9248l2.3824-2.5648c.1879-.2023.1762-.5187-.0261-.7066-.2023-.188-.5187-.1763-.7066.026l-1.6497 1.776v-7.8839c0-.2762-.2238-.5-.5-.5-.2761 0-.5.2238-.5.5v12.2923c-.7083-.0183-1.4081-.1713-2.0616-.4522-.745-.3202-1.4106-.7985-1.9513-1.401v-4.1149-.0067c-.003-.2269-.0841-.4458-.2296-.6199-.0064-.0077-.013-.0151-.0199-.0224zm-12.50607 9.764h1.22399v-5.3017h-1.22399zm-2.87458-9.9-1.87409 1.9812v11.0698h3.74867v-11.0579zm8.84715 1.9812-1.8742-1.9814-1.8744 1.9814v11.0699h3.7149z"/><path d="m8.15921 6.25387c-.56811-1.69475-2.18581-2.82057-3.93146-2.75081l-.01704.00098c-2.16545.16072-3.805419 1.9373-3.727582 4.12112.077316 2.1692 1.786762 3.87484 3.968642 3.87484h5.23746c1.32427 0 2.40207-.869 2.72897-2.14272.0025-.00986.0047-.01979.0066-.02978.2431-1.2631-.3235-2.54999-1.4848-3.15336l-.0123-.0062c-.9162-.4443-1.95361-.41413-2.76849.08593zm-3.88304-1.75193c-1.63927.12598-2.85178 1.45753-2.79368 3.0876.05873 1.64754 1.34211 2.91046 2.96928 2.91046h5.23746c.84737 0 1.53497-.53829 1.75647-1.37651.1572-.84968-.2257-1.67354-.9606-2.0588-.83233-.40049-1.72523-.21338-2.24232.43139-.12669.15798-.33615.22394-.5305.16706-.19435-.05687-.3352-.22536-.35673-.42671-.17576-1.64373-1.57732-2.79001-3.07938-2.73449z"/></g></g></svg>