<svg fill="none" height="34" viewBox="0 0 34 34" width="34" xmlns="http://www.w3.org/2000/svg"><g fill="#03a9f1"><path d="m25.5318 4.21512c0-.30385-.3038-.6077-.6077-.6077-.3038 0-.6077.30385-.6077.6077s.3039.6077.6077.6077c.3039 0 .6077-.30385.6077-.6077z"/><path d="m17.885 3.60742c.3039 0 .6077.30385.6077.6077s-.3038.6077-.6077.6077c-.3038 0-.6077-.30385-.6077-.6077s.3039-.6077.6077-.6077z"/><path clip-rule="evenodd" d="m4.93359 6.57396v-5.02813c0-.05885.00631-.1149.01809-.16794-.01179-.04257-.01809-.08743-.01809-.13375 0-.276142.22386-.499999.5-.499999h22.62661c.1941 0 .4185.030377.6126.1413.2212.126419.3902.355849.3902.660389v5.02813c0 .38572-.1985.70442-.4859.90968-.2798.19982-.6398.29426-1.0197.29426h-21.11818c-.3799 0-.73996-.09444-1.0197-.29426-.28737-.20526-.48593-.52396-.48593-.90968zm1-4.82981v2.01659h8.05081v-2.0166h-8.04799zm8.05081 3.01659h-8.05081v1.81322c0 .01653.00257.04981.06717.09595.07223.05159.21498.10799.43846.10799h7.54518zm13.573 2.01716h-5.534v-5.03376h6.0368l.0028.00001v4.82981c0 .01653-.0026.04981-.0672.09595-.0722.05159-.2149.10799-.4384.10799zm-6.534-5.03376h-6.039v5.03376h6.039z" fill-rule="evenodd"/><path d="m14.9883 22.7666c.2761 0 .5.2239.5.5v3.0169c0 .2761-.2239.5-.5.5-.2762 0-.5-.2239-.5-.5v-3.0169c0-.2761.2238-.5.5-.5z"/><path d="m19.5117 23.2666c0-.2761-.2238-.5-.5-.5-.2761 0-.5.2239-.5.5v3.0169c0 .2761.2239.5.5.5.2762 0 .5-.2239.5-.5z"/><path clip-rule="evenodd" d="m8.47661 15.7275h-1.63566c-.18367 0-.35551.0775-.47847.1594-.12142.081-.24508.1989-.33761.3571-.12337.159-.16159.3457-.16159.4989 0 .1792.04984.356.12821.5127.01005.0201.02144.0395.0341.0581l1.39576 2.0471-1.76653 9.6178c-.14817.4931.0261.9711.33377 1.2787.23358.2336.65684.5487 1.15805.5487h.06602l-.73159 1.829c-.10255.2564.02216.5474.27855.6499.25639.1026.54737-.0221.64993-.2785l.88015-2.2004h17.4223l.8802 2.2004c.1025.2564.3935.3811.6499.2785.2564-.1025.3811-.3935.2785-.6499l-.7315-1.829h.0678c.4052 0 .8738-.1377 1.193-.585.2857-.3082.4413-.7683.2988-1.2424l-1.7699-9.6363 1.2782-2.0086c.1338-.1624.1747-.3568.1747-.5154 0-.1446-.0324-.2876-.0862-.4199-.0386-.2295-.1763-.4039-.3375-.5115-.1759-.1172-.3792-.1594-.5539-.1594h-2.0103v-.5992l.8226-.2244c.7488-.16 1.3263-.9035 1.181-1.7754-.0649-.3894-.2333-.748-.5166-1.0124-.2876-.2684-.6636-.411-1.0828-.411h-.4042v-.5059c0-.2761-.2239-.5-.5-.5h-5.0282c-.2761 0-.5.2239-.5.5v4.5283h-4.0516c.6391-.6319 1.0274-1.5166 1.0274-2.5166 0-.2761-.2238-.5-.5-.5h-7.54218c-.27614 0-.5.2239-.5.5 0 1 .38829 1.8847 1.02739 2.5166zm-1.57819 1.0076c-.00574.0063-.00977.0123-.0125.0177-.00423.0085-.00868.0168-.01337.025l.00265.0069 1.3362 1.9597h8.7718l.0168-.0003.0168.0003h8.7572l1.2482-1.9615c-.0032-.0086-.0074-.0187-.0131-.0301-.0042-.0083-.0081-.0167-.0118-.0253h-14.4762l-.0466.0003h-1.5084l-.0466-.0003h-4.01338c-.00264.0024-.00524.0049-.0077.0076zm17.14538-4.5584c-.0006.0094-.0008.0189-.0008.0284s.0002.0189.0008.0283v3.494h-4.0282v-4.0282h4.0282zm1 .5284h.4042c.1842 0 .311.0585.4005.1421.0939.0875.1769.2317.2125.4457.0546.3276-.1615.5847-.4093.6343-.0113.0022-.0225.0049-.0335.0079l-.5744.1566zm-12.5293 3.0224h-1.5884c-1.24216-.0175-2.21394-.851-2.43128-2.0166h6.45098c-.2173 1.1656-1.1891 1.9991-2.4313 2.0166zm3.9855 4.0169h-8.13238l-1.73483 9.4452c-.00422.023-.01005.0456-.01743.0678-.03239.0971-.00648.206.08033.2928.16867.1687.34878.2558.45095.2558h9.35336zm1 10.0616v-10.0616h8.1359l1.7349 9.4452c.0042.023.01.0456.0174.0678.0324.0971.0065.206-.0803.2928-.0233.0233-.0442.0488-.0625.0762-.0829.1244-.2021.1796-.3885.1796z" fill-rule="evenodd"/></g></svg>