<svg fill="none" height="50" viewBox="0 0 50 50" width="50" xmlns="http://www.w3.org/2000/svg"><g fill="#00ac83"><path d="m8.53906 3.35156c.27615 0 .5-.22386.5-.5s-.22385-.5-.5-.5c-.27614 0-.5.22386-.5.5s.22386.5.5.5z"/><path d="m1.53516 47.6357c.27614 0 .5-.2238.5-.5 0-.2761-.22386-.5-.5-.5-.27615 0-.5.2239-.5.5 0 .2762.22385.5.5.5z"/><path d="m40.6992 47.1357c0 .2762-.2238.5-.5.5-.2761 0-.5-.2238-.5-.5 0-.2761.2239-.5.5-.5.2762 0 .5.2239.5.5z"/><path clip-rule="evenodd" d="m4.02344 12.8039c-.27614 0-.5.2239-.5.5v33.8317c0 .2762.22386.5.5.5h33.83176c.2761 0 .5-.2238.5-.5v-8.4804c0-.0738-.016-.1439-.0447-.207.0283-.0627.0441-.1323.0441-.2056v-9.9524h2.7736c.2762 0 .5-.2239.5-.5 0-.2762-.2238-.5-.5-.5h-3.0645l-24.7922-24.79219c-.0973-.09734-.2248-.14615-.3524-.14645h-2.1966c-.2762 0-.5.22386-.5.5s.2238.5.5.5h1.258v9.45234zm25.85106 7.7113 7.4801 7.4801v10.1599h-7.4799v-7.9419l-.0002-.0147zm-8.4803-8.4803 7.4803 7.4803v10.1981h-7.4545v-7.9547c0-.0555-.0091-.1089-.0258-.1587zm-8.4137-8.41373 7.4137 7.41373v10.2237h-7.416v-7.9062c.0015-.0159.0023-.0321.0023-.0484zm15.894 27.18493v-.0928h-7.9545c-.2762 0-.5-.2238-.5-.5v-7.9547h-7.9418c-.2762 0-.5-.2238-.5-.5v-7.9547h-7.45476v32.8317h32.83176v-7.4804h-7.9805c-.2762 0-.5-.2239-.5-.5v-7.8343z" fill-rule="evenodd"/><path d="m42.4149 46.6357c-.2761 0-.5.2239-.5.5 0 .2762.2239.5.5.5h3.5584c.2761 0 .5-.2238.5-.5 0-.2761-.2239-.5-.5-.5z"/></g></svg>