<svg fill="none" height="15" viewBox="0 0 15 15" width="15" xmlns="http://www.w3.org/2000/svg"><g fill="#f18303"><path d="m9.05147.74707c.15 0 .3.15.3.3s-.15.3-.3.3-.3-.15-.3-.3.15-.3.3-.3z"/><path clip-rule="evenodd" d="m5.37846 3.74239h2.33647c.42653 0 .83986.15644 1.14807.44142.30901.2857.48753.67846.48753 1.09347v1.85082c0 .41501-.17852.80777-.48753 1.09347-.30821.28498-.72154.44142-1.14807.44142h-2.33647c-.42652 0-.83986-.15644-1.14807-.44142-.309-.2857-.48752-.67846-.48752-1.09347v-.00158l.00975-1.84924v-.00084c.00023-.41271.17701-.80347.48326-1.08872.30569-.28471.71605-.44246 1.14056-.44532zm.00107.6c-.28019.00212-.54387.10665-.73471.28439-.19027.17722-.29221.4116-.2922.65049v.00159l-.00975 1.84924v.00073c.00021.23977.10311.47491.29485.6522.19273.1782.45883.28196.74074.28196h2.33647c.28192 0 .54801-.10376.74074-.28196.19194-.17747.29485-.41291.29485-.65293v-1.85082c0-.24002-.1029-.47546-.29485-.65293-.19273-.1782-.45882-.28196-.74074-.28196z" fill-rule="evenodd"/><path d="m10.5163 4.84043c0-.16569-.1343-.3-.3-.3s-.29999.13431-.29999.3v2.87116c0 .16568.13429.3.29999.3s.3-.13432.3-.3z"/><path clip-rule="evenodd" d="m4.42306.984419c.11679-.117517.30674-.1181.42426-.001303l1.87249 1.861024h.14304l1.35745-1.34676c.11762-.11669.30757-.11594.42426.00168.1167.11762.11594.30757-.00168.42426l-.92813.92082h3.06775c.267 0 .5275.09788.7229.27861.1963.18146.3115.43284.3115.70043v4.75626c0 .26759-.1152.51897-.3115.70043-.1954.18073-.4559.27861-.7229.27861h-6.98022c-.26708 0-.5275-.09788-.72297-.27861-.19626-.18146-.31144-.43284-.31144-.70043v-4.75626c0-.26759.11518-.51897.31144-.70043.19547-.18073.45589-.27861.72297-.27861h2.06638l-1.4443-1.43546c-.11752-.1168-.1181-.30674-.0013-.424261zm-.93642 2.578881c.07999-.07396.19317-.11916.31564-.11916h6.98022c.1224 0 .2356.0452.3156.11916.0792.07323.1188.16728.1188.25988v4.75626c0 .0926-.0396.18665-.1188.25988-.08.07396-.1932.11916-.3156.11916h-6.98022c-.12247 0-.23565-.0452-.31564-.11916-.0792-.07323-.11877-.16728-.11877-.25988v-4.75626c0-.0926.03957-.18665.11877-.25988z" fill-rule="evenodd"/><path d="m7.146 11.9865c0-.15-.15-.3-.3-.3s-.3.15-.3.3.15.3.3.3.3-.15.3-.3z"/><path d="m12.2319 11.9871c0-.15-.15-.3-.3-.3s-.3.15-.3.3.15.3.3.3.3-.15.3-.3z"/><path clip-rule="evenodd" d="m2.68908 9.86016-.00223.00001c-.19937.00148-.39051.08084-.53204.22153-.14159.1407-.22214.3315-.22365.5313v1.366l-.00001.0017.00001.0016-.00001 1.3637.00002.0022c.00151.1998.08205.3906.22364.5314.14153.1406.33267.22.53204.2215h9.61855c.2004 0 .393-.0791.5352-.2205.1424-.1415.2227-.3338.2227-.5346v-2.7307c0-.2009-.0803-.3932-.2227-.5346-.1422-.14143-.3348-.22054-.5352-.22054zm-.15792 3.48434v-1.0638h3.04921v1.2204h-2.88989c-.04266-.0006-.08308-.0177-.11272-.0471-.02956-.0294-.04607-.0687-.0466-.1095zm0-1.6638h3.04921v-1.2205h-2.88989c-.04266.0005-.08308.0176-.11272.047-.02956.0294-.04607.0687-.0466.1095zm3.64946.3c0 .0041-.00008.0083-.00025.0124v1.508h2.62031v-3.0409h-2.62031v1.5081l.00019.0062zm3.22006 1.5204v-3.0409h2.90472c.0424 0 .0828.0167.1123.046.0294.0293.0456.0685.0456.1091v2.7307c0 .0405-.0162.0798-.0456.109-.0295.0293-.0699.0461-.1123.0461z" fill-rule="evenodd"/></g><g clip-rule="evenodd" fill="#2d3436" fill-rule="evenodd"><path d="m4.59579 9.4461c.06332.04199.16822.07773.29914.07773s.23581-.03574.29914-.07773c.04792-.03178.05698-.05458.05838-.05991.00088-.16494.13486-.29837.3-.29837.16568 0 .3.13431.3.3 0 .25267-.15439.444-.32679.55833-.17465.11585-.39852.17765-.63073.17765-.23222 0-.45608-.0618-.63073-.17765-.17241-.11433-.32679-.30566-.32679-.55833 0-.16569.13432-.3.3-.3.16514 0 .29912.13343.3.29837.0014.00533.01046.02813.05838.05991zm-.05861-.06111c.00003 0 .00017.00058.00023.0012zm.71549 0c.00002.00001-.00008.00061-.00022.0012z"/><path d="m9.49188 9.4461c.06333.04199.16822.07773.29914.07773.13093 0 .23578-.03574.29918-.07773.0479-.03178.0569-.05458.0583-.05991.0009-.16494.1349-.29837.3-.29837.1657 0 .3.13431.3.3 0 .25267-.1543.444-.3267.55833-.1747.11585-.3986.17765-.63078.17765-.23221 0-.45608-.0618-.63073-.17765-.1724-.11433-.32679-.30566-.32679-.55833 0-.16569.13432-.3.3-.3.16515 0 .29912.13343.3.29837.0014.00533.01046.02813.05838.05991zm-.0586-.06111c.00002 0 .00016.00058.00022.0012zm.71552 0c0 .00001-.0001.00061-.0003.0012z"/></g></svg>