<svg fill="none" height="50" viewBox="0 0 50 50" width="50" xmlns="http://www.w3.org/2000/svg"><g fill="#f18303"><path clip-rule="evenodd" d="m25.7168 12.9736h-7.7883-.0033c-1.2951.0088-2.5411.4903-3.4645 1.3504-.9244.8609-1.4513 2.0334-1.4516 3.2646v.0013l-.0325 6.1668v.0026c0 1.2376.532 2.4157 1.4645 3.2778.9311.861 2.1862 1.3385 3.4874 1.3385h7.7883c1.3012 0 2.5563-.4775 3.4874-1.3385.9325-.8621 1.4645-2.0402 1.4645-3.2778v-6.1694c0-1.2375-.532-2.4156-1.4645-3.2778-.9311-.8609-2.1862-1.3385-3.4874-1.3385zm-10.5745 2.0821c.732-.6818 1.7334-1.0746 2.788-1.0821h7.7865c1.0602 0 2.0699.3898 2.8085 1.0728.7374.6817 1.1434 1.5976 1.1434 2.5435v6.1694c0 .9459-.406 1.8618-1.1434 2.5436-.7386.683-1.7483 1.0727-2.8085 1.0727h-7.7883c-1.0602 0-2.0699-.3897-2.8085-1.0727-.7371-.6815-1.1431-1.5968-1.1434-2.5423v-.0013l.0325-6.1667v-.0027c-.0001-.9414.4021-1.8533 1.1332-2.5342z" fill-rule="evenodd"/><path d="m34.0625 15.6328c.2761 0 .5.2239.5.5v7.2677c0 .2761-.2239.5-.5.5s-.5-.2239-.5-.5v-7.2677c0-.2761.2239-.5.5-.5z"/><path d="m34.0625 25.2031c.25 0 .5.25.5.5s-.25.5-.5.5-.5-.25-.5-.5.25-.5.5-.5z"/><path d="m22.8477 39.9346c0-.25-.25-.5-.5-.5s-.5.25-.5.5.25.5.5.5.5-.25.5-.5z"/><path d="m39.875 39.4346c.25 0 .5.25.5.5s-.25.5-.5.5-.5-.25-.5-.5.25-.5.5-.5z"/><path clip-rule="evenodd" d="m15.8095 3.63071c-.1959-.19466-.5124-.19369-.7071.00218-.1947.19586-.1937.51244.0022.7071l5.6742 5.6395h-8.1042c-.7698 0-1.5151.28241-2.0705.79581-.5566.5147-.87754 1.2215-.87754 1.9676v15.8543c0 .7461.32094 1.4529.87754 1.9676.5554.5134 1.3007.7958 2.0705.7958h.3465c.1582.8774.7247 1.6124 1.4955 2.0056h-5.5488-.00372c-.53422.004-1.04604.2167-1.42473.593-.37878.3765-.59391.8866-.59794 1.4203v9.106l.00001.0038c.00402.5337.21915 1.0438.59793 1.4203.37869.3763.89051.589 1.42473.593h32.05802c.5364 0 1.0515-.2118 1.4318-.5897.3803-.378.5946-.8914.5946-1.4274v-9.1022c0-.536-.2143-1.0494-.5946-1.4274-.3803-.3779-.8954-.5897-1.4318-.5897h-6.5799c.7708-.3932 1.3374-1.1282 1.4955-2.0056h.0041c.7698 0 1.5152-.2824 2.0705-.7958.5567-.5147.8776-1.2215.8776-1.9676v-15.8543c0-.7461-.3209-1.4529-.8776-1.9676-.5553-.5134-1.3007-.79581-2.0705-.79581h-11.4317l3.9555-3.92435c.196-.19448.1973-.51106.0028-.7071-.1945-.19603-.5111-.19728-.7071-.00279l-4.6711 4.63424h-.8928zm19.6972 26.72989c-.0081-.0004-.0162-.0006-.0244-.0006l-.0139.0002-.0106.0004h-4.6091c-.0081-.0004-.0163-.0006-.0245-.0006l-.013.0002-.0114.0004h-12.6408c-.0081-.0004-.0162-.0006-.0244-.0006s-.0163.0002-.0244.0006h-4.6092c-.0081-.0004-.0163-.0006-.0244-.0006-.0082 0-.0164.0002-.0245.0006h-.7775c-.5287 0-1.0287-.1946-1.3916-.5301-.3615-.3342-.5564-.7789-.5564-1.2333v-15.8543c0-.4544.1949-.899.5564-1.2333.3629-.3355.8629-.5301 1.3916-.5301h23.2672c.5288 0 1.0288.1946 1.3916.5301.3616.3343.5565.7789.5565 1.2333v15.8543c0 .4544-.1949.8991-.5565 1.2333-.3628.3355-.8628.5301-1.3916.5301zm-5.1379 1h-11.7787c-.1582.8774-.7247 1.6124-1.4955 2.0056h14.7697c-.7709-.3932-1.3374-1.1282-1.4955-2.0056zm4.5429 0c-.2187.7574-.9213 1.3142-1.7585 1.3142-.8371 0-1.5397-.5568-1.7584-1.3142zm-19.1061 1.3142c-.8372 0-1.5398-.5568-1.7585-1.3142h3.517c-.2188.7574-.9213 1.3142-1.7585 1.3142zm-7.86419 7.7598v4.0489c.00247.2685.11086.526.30288.7168.19213.191.45264.2998.72561.3023h10.1356v-5.068zm11.16409-1h-11.16409v-4.0493c.00247-.2685.11086-.526.30288-.7168.19212-.1909.45261-.2998.72555-.3023h10.13566zm1 .5292c.0005-.0097.0008-.0194.0008-.0292l-.0001-.012-.0007-.0173v-5.5391h9.7343v11.1364h-9.7343zm20.9166-5.5976h-10.1823v11.1364h10.1823c.2732 0 .5346-.1079.7269-.299.1921-.191.2995-.4493.2995-.7181v-9.1022c0-.2688-.1074-.5271-.2995-.7181-.1923-.1911-.4537-.299-.7269-.299z" fill-rule="evenodd"/><path d="m30.0039 4.3252c0-.25-.25-.5-.5-.5s-.5.25-.5.5.25.5.5.5.5-.25.5-.5z"/></g></svg>