<svg fill="none" height="34" viewBox="0 0 34 34" width="34" xmlns="http://www.w3.org/2000/svg"><g fill="#895d25"><path d="m14.9464 17c0-.25-.25-.5-.5-.5s-.5.25-.5.5.25.5.5.5.5-.25.5-.5z"/><path d="m19.5557 16.5c.25 0 .5.25.5.5s-.25.5-.5.5-.5-.25-.5-.5.25-.5.5-.5z"/><path clip-rule="evenodd" d="m9 30.0769v.6336c0 .2761-.22386.5-.5.5s-.5-.2239-.5-.5v-.6336h-.63229c-.45363 0-.8705-.1534-1.17522-.4581s-.45811-.7216-.45811-1.1752v-22.66671c0-.45363.15339-.8705.45811-1.17522s.72159-.45812 1.17522-.45812h19.26669c.4536 0 .8705.1534 1.1752.45812s.4581.72159.4581 1.17522v22.66671c0 .4536-.1534.8705-.4581 1.1752s-.7216.4581-1.1752.4581h-.6344v.6336c0 .2761-.2239.5-.5.5s-.5-.2239-.5-.5v-.6336zm-2.26562-24.30001c0-.22638.07327-.37617.16522-.46812.09194-.09194.24173-.16522.46811-.16522h9.13229v23.93335h-9.13229c-.22638 0-.37617-.0733-.46811-.1652-.09195-.092-.16522-.2418-.16522-.4681zm10.76562 23.30001v-23.93335h9.1344c.2264 0 .3761.07328.4681.16522.0919.09195.1652.24174.1652.46812v22.66671c0 .2263-.0733.3761-.1652.4681-.092.0919-.2417.1652-.4681.1652z" fill-rule="evenodd"/></g></svg>