<svg fill="none" height="26" viewBox="0 0 25 26" width="25" xmlns="http://www.w3.org/2000/svg"><rect height=".945259" rx=".47263" stroke="#18303f" stroke-linecap="round" stroke-linejoin="round" width="3.70252" x="10.6484" y="3.36377"/><path d="m9.94015 22.5694c-.27615 0-.5.2239-.5.5 0 .2762.22385.5.5.5zm-3.77214 1c.27614 0 .5-.2238.5-.5 0-.2761-.22386-.5-.5-.5zm.61715-19.75641h11.42924v-1h-11.42924zm13.92924 2.5v13.75641h1v-13.75641zm-16.42924 14.37361v-14.37361h-1v14.37361zm13.92924 1.8828h-8.27425v1h8.27425zm-14.92924-1.8828c0 1.5921 1.29069 2.8828 2.88285 2.8828v-1c-1.03987 0-1.88285-.843-1.88285-1.8828zm17.42924-.6172c0 1.3807-1.1193 2.5-2.5 2.5v1c1.933 0 3.5-1.567 3.5-3.5zm-2.5-16.25641c1.3807 0 2.5 1.11929 2.5 2.5h1c0-1.933-1.567-3.5-3.5-3.5zm-11.42924-1c-1.933 0-3.5 1.567-3.5 3.5h1c0-1.38071 1.11929-2.5 2.5-2.5z" fill="#18303f"/><path d="m7.99609 23.0791v-.01" stroke="#18303f" stroke-linecap="round" stroke-linejoin="round" stroke-miterlimit="10"/></svg>