<svg fill="none" height="26" viewBox="0 0 25 26" width="25" xmlns="http://www.w3.org/2000/svg"><rect fill="#18303f" height="19.7512" rx="3" width="17.4292" x="3.78516" y="3.31299"/><g stroke="#18303f" stroke-linecap="round" stroke-linejoin="round"><rect height=".945259" rx=".47263" width="3.70252" x="10.6484" y="22.3638"/><path d="m8.91069 23.0694h-2.12553c-1.65686 0-3-1.3431-3-3v-13.75641c0-1.65685 1.34314-3 3-3h11.42924c1.6568 0 3 1.34314 3 3v13.75641c0 1.6569-1.3432 3-3 3h-.7824"/><path d="m3.78563 19.8968v.1725c0 1.6569 1.34314 3 3 3h11.42917c1.6569 0 3-1.3431 3-3v-.1725"/><path d="m15.981 23.0745v-.01" stroke-miterlimit="10"/></g><g fill="#fff"><circle cx="6.5" cy="5.27832" r=".5"/><circle cx="6.5" cy="7.27832" r=".5"/><circle cx="6.5" cy="9.27832" r=".5"/><circle cx="6.5" cy="11.2783" r=".5"/><circle cx="6.5" cy="13.2783" r=".5"/><circle cx="6.5" cy="15.2783" r=".5"/><circle cx="6.5" cy="17.2783" r=".5"/><circle cx="6.5" cy="19.2783" r=".5"/><circle cx="6.5" cy="21.2783" r=".5"/><circle cx="18.5" cy="5.27832" r=".5"/><circle cx="18.5" cy="7.27832" r=".5"/><circle cx="18.5" cy="9.27832" r=".5"/><circle cx="18.5" cy="11.2783" r=".5"/><circle cx="18.5" cy="13.2783" r=".5"/><circle cx="18.5" cy="15.2783" r=".5"/><circle cx="18.5" cy="17.2783" r=".5"/><circle cx="18.5" cy="19.2783" r=".5"/><circle cx="18.5" cy="21.2783" r=".5"/></g></svg>