<svg fill="none" height="13" viewBox="0 0 13 13" width="13" xmlns="http://www.w3.org/2000/svg"><g clip-rule="evenodd" fill="#09f9bf" fill-rule="evenodd"><path d="m4.20144 10.3892c-.39053-.39049-.39053-1.02365 0-1.41418l6.36666-6.3667c.3906-.39052 1.0237-.39052 1.4142 0 .3906.39053.3906 1.02369 0 1.41422l-6.36665 6.36666c-.39052.3906-1.02369.3906-1.41421 0z"/><path d="m5.61174 10.3902c-.39052.3905-1.02369.3905-1.41421 0l-3.18198-3.18197c-.390525-.39052-.390525-1.02369 0-1.41421.39052-.39053 1.02369-.39053 1.41421 0l3.18198 3.18198c.39053.39052.39053 1.02369 0 1.4142z"/></g></svg>