<svg fill="none" height="25" viewBox="0 0 26 25" width="26" xmlns="http://www.w3.org/2000/svg" xmlns:xlink="http://www.w3.org/1999/xlink"><mask id="a" fill="#fff"><path clip-rule="evenodd" d="m13 25c6.9036 0 12.5-5.5964 12.5-12.5 0-6.90356-5.5964-12.5-12.5-12.5-6.90356 0-12.5 5.59644-12.5 12.5 0 3.1201 1.14312 5.9731 3.0334 8.1632l-2.40623 4.3289h11.42403c.149.0053.2986.0079.4488.0079z" fill="#fff" fill-rule="evenodd"/></mask><path d="m3.5334 20.6632.87404.4859c.20383-.3667.1571-.8216-.11702-1.1392zm-2.40623 4.3289-.874045-.4859c-.1721643.3098-.1675554.6875.012116.9929.17967.3055.507568.493.861929.493zm11.42403 0 .0353-.9994c-.0118-.0004-.0235-.0006-.0353-.0006zm11.9488-12.4921c0 6.3513-5.1487 11.5-11.5 11.5v2c7.4558 0 13.5-6.0442 13.5-13.5zm-11.5-11.5c6.3513 0 11.5 5.14873 11.5 11.5h2c0-7.45584-6.0442-13.5-13.5-13.5zm-11.5 11.5c0-6.35127 5.14873-11.5 11.5-11.5v-2c-7.45584 0-13.5 6.04416-13.5 13.5zm2.79042 7.5099c-1.73949-2.0155-2.79042-4.6387-2.79042-7.5099h-2c0 3.3689 1.235313 6.4518 3.27637 8.8166zm-2.28921 5.468 2.40623-4.3288-1.74809-.9717-2.406225 4.3288zm10.54999-1.4858h-11.42403v2h11.42403zm.4488.0079c-.1385 0-.2763-.0024-.4135-.0073l-.0705 1.9988c.1607.0056.322.0085.484.0085z" fill="#18303f" mask="url(#a)"/><g stroke="#18303f"><path d="m11.727 7.51095c.4786-.84444 1.6154-.84444 2.094 0l4.3675 7.66035c.4787.8444-.1196 1.8095-1.0769 1.8095h-8.73502c-.95726 0-1.49573-1.0254-1.07692-1.8095z" stroke-linecap="round" stroke-linejoin="round"/><path d="m12.8038 13.2411v-3.37777" stroke-linecap="round" stroke-linejoin="round"/><path d="m12.4449 15.1109c0 .181.1196.3016.2991.3016s.2992-.1206.2992-.3016c0-.1809-.1197-.3016-.2992-.3016-.1196 0-.2991.1207-.2991.3016z" fill="#18303f" stroke-width=".5"/></g></svg>