<svg fill="none" height="25" viewBox="0 0 25 25" width="25" xmlns="http://www.w3.org/2000/svg"><g fill="#18303f"><g clip-rule="evenodd" fill-rule="evenodd"><path d="m17.4048 8.79173c-1.3538-1.06368-3.1075-1.55635-4.8771-1.45804-.2757.01532-.5116-.19578-.527-.47149-.0153-.27572.1958-.51165.4715-.52697 1.9844-.11024 3.9845.43983 5.5504 1.67018.2171.17061.2548.48494.0842.70207-.1706.21714-.4849.25486-.702.08425z"/><path d="m24.4919 9.46342c.2761 0 .5.22385.5.5 0 1.42318-1.1624 2.58548-2.5855 2.58548-.2762 0-.5-.2239-.5-.5s.2238-.5.5-.5c.8709 0 1.5855-.7146 1.5855-1.58548 0-.27615.2238-.5.5-.5z"/><path d="m10.2337 3.45745c6.4515-1.28558 12.672 2.85564 12.672 8.59115 0 4.94-4.7886 8.8387-10.3991 8.8419-3.83975.1041-7.46931-1.871-9.47085-5.2137h-1.48483c-.42645 0-.820672-.1443-1.109541-.4332s-.43320029-.6831-.43320029-1.1095v-2.0855c0-.4265.14433129-.8207.43320029-1.1096.288869-.2888.683091-.4332 1.109541-.4332h.73987c.52182-2.25419 1.90922-4.19068 3.88013-5.44042-.18457-.63092-.45185-1.07151-.90688-1.52653-.16749-.1675-.21455-.37763-.23266-.50442-.01817-.1272-.01811-.26249-.01807-.35719 0-.00453.00001-.00897.00001-.01332 0-.07762.01807-.15418.05278-.2236.00256-.00512.00522-.01046.00799-.01601.04601-.09235.12111-.24309.22459-.36725.11247-.13495.29396-.28157.55369-.30652 1.66275-.42002 3.40022.28528 4.38133 1.70691zm-3.99781 1.57014-.00086.00064zm3.3271-.76005c-.72833-1.27458-2.17167-1.8928-3.50372-1.53759-.00586.00156-.01174.00302-.01764.00436-.00405.00665-.00854.01428-.01348.02299-.00463.00818-.00928.01661-.01401.0254.00016.00672.00033.01334.00055.01988.00107.03341.00286.05888.00509.07837.54333.55627.88481 1.13143 1.11062 1.90266.09448.22049.09359.45864.00256.67108-.0893.2084-.25126.36199-.4316.45844-1.85578 1.17865-3.12115 3.0353-3.51149 5.18217-.04322.2377-.25029.4105-.49193.4105h-1.14702c-.1992 0-.32634.0643-.40243.1403-.07609.0761-.14031.2033-.14031.4025v2.0855c0 .1992.06422.3263.14031.4024s.20323.1403.40243.1403h1.77267c.18063 0 .34723.0974.43579.2549 1.7857 3.1746 5.15764 5.0581 8.72642 4.959l.0139-.0004c5.231 0 9.4067-3.6073 9.4067-7.8414 0-5.0058-5.65-8.95298-11.7974-7.5421-.21487.04931-.43665-.04788-.54601-.23926z"/><path d="m7.11484 22.2693c-.26552-.0759-.41926-.3526-.3434-.6181l.32988-1.1546c.07586-.2655.3526-.4193.61812-.3434.26552.0758.41927.3526.3434.6181l-.32988 1.1546c-.07586.2655-.3526.4192-.61812.3434z"/><path d="m18.0376 22.2693c.2655-.0759.4193-.3526.3434-.6181l-.3299-1.1546c-.0758-.2655-.3526-.4193-.6181-.3434-.2655.0758-.4192.3526-.3434.6181l.3299 1.1546c.0759.2655.3526.4192.6181.3434z"/></g><path d="m7.02979 10.4147c0 .4143-.33579.75-.75.75-.41422 0-.75-.3357-.75-.75 0-.4142.33578-.74995.75-.74995.41421 0 .75.33575.75.74995z"/><path d="m6.43372 23.005c0-.2762.22385-.5.5-.5.27614 0 .5.2238.5.5 0 .2761-.22386.5-.5.5-.27615 0-.5-.2239-.5-.5z"/><path d="m18.6737 23.005c0-.2762-.2239-.5-.5-.5-.2762 0-.5.2238-.5.5 0 .2761.2238.5.5.5.2761 0 .5-.2239.5-.5z"/></g></svg>