<svg fill="none" height="134" width="238" xmlns="http://www.w3.org/2000/svg"><rect fill="#ecfaff" height="133" rx="27" width="238"/><g stroke="#00ac83" stroke-linecap="round" stroke-linejoin="round" stroke-miterlimit="10"><path d="m204.772 67.353-.956-4.923c-.024-.125-.134-.216-.262-.216s-.238.09-.263.216l-.956 4.923-.985 5.084a1 1 0 0 0 .981 1.19h2.449a1 1 0 0 0 .982-1.191zm16.536 0-.941-4.923a.267.267 0 0 0 -.524 0l-.941 4.923-.972 5.086a1 1 0 0 0 .982 1.188h2.387a1 1 0 0 0 .982-1.188z" fill="#d2caeb"/><path d="m220.946 122.706h-18.264a1 1 0 0 0 -1 1v7.494a1 1 0 0 0 1 1h18.264a1 1 0 0 0 1-1v-7.494a1 1 0 0 0 -1-1z" fill="#b9d2ca"/><path d="m222.366 74.43a1 1 0 0 0 -1-1h-2.573a1 1 0 0 0 -1 1v17.4c0 .888 1.072 1.335 1.704.71l2.572-2.542a1 1 0 0 0 .297-.711zm-21.104 0a1 1 0 0 1 1-1h2.636a1 1 0 0 1 1 1v17.423c0 .885-1.064 1.334-1.698.716l-2.636-2.57a1 1 0 0 1 -.302-.716z" fill="#caebe0"/><path d="m218.886 74.08a.058.058 0 0 0 .056-.072l-3.554-13.09-2.756-10.145a.851.851 0 0 0 -1.642 0l-2.75 10.146-3.544 13.05a.088.088 0 0 0 .085.111c.048 0 .087.04.087.088v13.63a1 1 0 0 0 1 1h11.961a1 1 0 0 0 1-1v-13.66c0-.032.025-.058.057-.058z" fill="#e2caeb"/><path d="m217.094 85.637a1 1 0 0 1 -1-1v-6.677a1 1 0 0 0 -.354-.764l-3.28-2.77a1 1 0 0 0 -1.291 0l-3.28 2.77a1 1 0 0 0 -.355.764v6.676a1 1 0 0 1 -1 1h-.702a1 1 0 0 0 -1 1v35.069a1 1 0 0 0 1 1h11.96a1 1 0 0 0 1-1v-35.07a1 1 0 0 0 -1-1z" fill="#deeee9"/><path d="m132.267 67.353-.957-4.923a.267.267 0 0 0 -.524 0l-.957 4.923-.985 5.084a1 1 0 0 0 .982 1.19h2.449a1 1 0 0 0 .981-1.191zm16.535 0-.946-4.925a.264.264 0 0 0 -.518 0l-.941 4.925-.973 5.086a1 1 0 0 0 .982 1.188h2.387a1 1 0 0 0 .982-1.188z" fill="#d2caeb"/><path d="m148.44 122.706h-18.263a1 1 0 0 0 -1 1v7.494a1 1 0 0 0 1 1h18.263a1 1 0 0 0 1-1v-7.494a1 1 0 0 0 -1-1z" fill="#b9d2ca"/><path d="m149.86 74.43a1 1 0 0 0 -1-1h-2.572a1 1 0 0 0 -1 1v17.4c0 .888 1.071 1.335 1.703.71l2.572-2.542a1 1 0 0 0 .297-.711zm-21.103 0a1 1 0 0 1 1-1h2.636a1 1 0 0 1 1 1v17.423c0 .885-1.065 1.334-1.699.716l-2.635-2.57a1 1 0 0 1 -.302-.716z" fill="#caebe0"/><path d="m146.38 74.08a.058.058 0 0 0 .056-.072l-3.554-13.09-2.756-10.145a.849.849 0 0 0 -1.641 0l-2.751 10.146-3.543 13.05a.087.087 0 0 0 .084.111c.048 0 .087.04.087.088v13.63a1 1 0 0 0 1 1h11.961a1 1 0 0 0 1-1v-13.66c0-.032.026-.058.057-.058z" fill="#e2caeb"/><path d="m144.583 85.637a1 1 0 0 1 -1-1v-6.677a.999.999 0 0 0 -.354-.764l-3.275-2.769a1 1 0 0 0 -1.291 0l-3.28 2.77a1 1 0 0 0 -.354.763v6.676a1 1 0 0 1 -1 1h-.703a1 1 0 0 0 -1 1v35.069a1 1 0 0 0 1 1h11.96a1 1 0 0 0 1-1v-35.07a1 1 0 0 0 -1-1z" fill="#deeee9"/><path d="m200.15 77.497h-49.339a1 1 0 0 0 -1 1v10.207a1 1 0 0 0 1 1h49.339a1 1 0 0 0 1-1v-10.207a1 1 0 0 0 -1-1z" fill="#c6bae9"/><path d="m152.317 77.497v12.207m4.893-12.207v12.207m4.895-12.207v12.207m4.893-12.207v12.207m4.892-12.207v12.207m4.895-12.207v12.207m4.892-12.207v12.207m4.893-12.207v12.207m4.895-12.207v12.207m4.891-12.207v12.207m-41.592-12.207v12.207m4.894-12.207v12.207m4.895-12.207v12.207m4.891-12.207v12.207m4.894-12.207v12.207m4.895-12.207v12.207m4.89-12.207v12.207m4.895-12.207v12.207m4.894-12.207v12.207m4.891-12.207v12.207"/><path d="m134.229 101.803a1.268 1.268 0 0 0 -.194.675v2.702a1.272 1.272 0 0 0 2.544 0v-2.702a1.272 1.272 0 0 0 -2.35-.675zm4.065 0a1.268 1.268 0 0 0 -.194.675v2.702a1.271 1.271 0 1 0 2.544 0v-2.702a1.27 1.27 0 0 0 -2.35-.675zm4.066 0a1.268 1.268 0 0 0 -.194.675v2.702a1.272 1.272 0 0 0 2.544 0v-2.702a1.272 1.272 0 0 0 -2.35-.675zm-4.221-19.952a1.28 1.28 0 0 0 -.194.675v2.702a1.272 1.272 0 0 0 2.544 0v-2.702a1.272 1.272 0 0 0 -2.35-.675zm-3.91 9.952a1.271 1.271 0 0 0 -.194.675v2.702a1.272 1.272 0 0 0 2.544 0v-2.702a1.271 1.271 0 0 0 -2.35-.675zm4.065 0a1.271 1.271 0 0 0 -.194.675v2.702a1.272 1.272 0 1 0 2.544 0v-2.702a1.271 1.271 0 0 0 -2.35-.675zm4.066 0a1.271 1.271 0 0 0 -.194.675v2.702a1.272 1.272 0 0 0 2.544 0v-2.702a1.271 1.271 0 0 0 -2.35-.675zm64.307 10a1.268 1.268 0 0 0 -.194.675v2.702a1.271 1.271 0 1 0 2.544 0v-2.702a1.272 1.272 0 0 0 -2.35-.675zm4.064 0a1.268 1.268 0 0 0 -.194.675v2.702a1.272 1.272 0 0 0 2.544 0v-2.702a1.272 1.272 0 0 0 -2.35-.675zm4.067 0a1.268 1.268 0 0 0 -.194.675v2.702a1.271 1.271 0 1 0 2.544 0v-2.702a1.27 1.27 0 0 0 -2.35-.675zm-4.221-19.952a1.27 1.27 0 0 0 -.194.675v2.702a1.272 1.272 0 1 0 2.544 0v-2.702a1.272 1.272 0 0 0 -2.35-.675zm-3.91 9.952a1.271 1.271 0 0 0 -.194.675v2.702a1.272 1.272 0 1 0 2.544 0v-2.702a1.272 1.272 0 0 0 -2.35-.675zm4.064 0a1.271 1.271 0 0 0 -.194.675v2.702a1.272 1.272 0 0 0 2.544 0v-2.702a1.271 1.271 0 0 0 -2.35-.675zm4.067 0a1.271 1.271 0 0 0 -.194.675v2.702a1.272 1.272 0 1 0 2.544 0v-2.702a1.271 1.271 0 0 0 -2.35-.675z" fill="#ceede3"/><path d="m195.416 118.965h-40.945a1 1 0 0 0 -1 1v9.104a1 1 0 0 0 1 1h43.568c.605 0 1.099-.496 1.099-1.104v-6.263a3.73 3.73 0 0 0 -3.722-3.737z" fill="#ffadad"/><path d="m153.471 113.506v4.459a1 1 0 0 0 1 1h40.945c.296 0 .536-.24.536-.536v-8.416a1 1 0 0 0 -1-1h-54.623a.133.133 0 1 0 0 .266h8.931a4.22 4.22 0 0 1 4.211 4.227z" fill="#ffa9a9"/><path d="m149.265 109.279h-8.07a1 1 0 0 0 -1 1v18.692c0 .607.494 1.103 1.1 1.103h11.176a1 1 0 0 0 1-1v-15.562c0-2.34-1.885-4.233-4.206-4.233z" fill="#ffad93"/><path d="m195.576 107.997a1 1 0 0 1 -.96 1.282h-53.421a1 1 0 0 1 -1-1v-7.135c0-2.868 2.316-5.192 5.172-5.192h41.627a6.77 6.77 0 0 1 6.346 4.435z" fill="#ffacac"/><path d="m157.453 132.733c2.2 0 3.983-1.79 3.983-3.998s-1.783-3.998-3.983-3.998c-2.199 0-3.982 1.79-3.982 3.998s1.783 3.998 3.982 3.998zm31.861 0c2.2 0 3.983-1.79 3.983-3.998s-1.783-3.998-3.983-3.998c-2.199 0-3.982 1.79-3.982 3.998s1.783 3.998 3.982 3.998z" fill="#d3c5c5"/><path d="m191.38 103.17c-.021-.08-.042-.16-.074-.24-.972-2.601-3.372-4.318-6.054-4.318h-2.336c-.998 0-1.811.848-1.811 1.893v3.145c0 1.045.813 1.892 1.811 1.892h6.712c1.184.005 2.055-1.167 1.752-2.372zm-26.678-4.553h-7.243c-1.031 0-1.864.87-1.864 1.946v3.038c0 1.077.833 1.946 1.864 1.946h7.243c1.03 0 1.864-.869 1.864-1.946v-3.038c0-1.077-.834-1.946-1.864-1.946zm12.908 0h-7.546c-.945 0-1.71.8-1.71 1.786v3.358c0 .986.765 1.786 1.71 1.786h7.546c.945 0 1.71-.8 1.71-1.786v-3.358c0-.986-.77-1.786-1.71-1.786zm-.164 12.528h-7.243c-1.03 0-1.864.772-1.864 1.721v2.687c0 .949.834 1.722 1.864 1.722h7.243c1.03 0 1.864-.773 1.864-1.722v-2.687c0-.949-.834-1.721-1.864-1.721zm12.909 0h-7.546c-.945 0-1.71.709-1.71 1.583v2.969c0 .874.765 1.583 1.71 1.583h7.546c.945 0 1.71-.709 1.71-1.583v-2.969c0-.874-.77-1.583-1.71-1.583zm-25.489 0h-7.546c-.945 0-1.71.709-1.71 1.583v2.969c0 .874.765 1.583 1.71 1.583h7.546c.945 0 1.71-.709 1.71-1.583v-2.969c0-.874-.77-1.583-1.71-1.583z" fill="#c8e8f2"/><path d="m57.815 131.734a1 1 0 0 0 .978-1.211l-13.929-64.718c-.063-.297.021-.602.169-.867a2.72 2.72 0 0 0 -2.372-4.043 2.72 2.72 0 0 0 -2.373 4.043c.148.265.232.57.169.867l-13.939 64.718a1 1 0 0 0 .978 1.211h.933a1 1 0 0 0 .977-.79l12.272-57c.226-1.053 1.728-1.053 1.955 0l12.271 57a1 1 0 0 0 .978.79z" fill="#d3d9c4"/><path d="m42.654 32.948c-17.104 0-30.975 13.919-30.975 31.094s13.865 31.094 30.975 31.094 30.974-13.919 30.974-31.094-13.87-31.094-30.974-31.094zm0 58.558c-15.108 0-27.358-12.298-27.358-27.464s12.25-27.464 27.358-27.464c15.107 0 27.358 12.298 27.358 27.464s-12.246 27.464-27.358 27.464z" fill="#cbe6d4"/><path d="m42.654 88.654c13.54 0 24.517-11.019 24.517-24.612 0-13.592-10.977-24.611-24.517-24.611s-24.518 11.019-24.518 24.611c0 13.593 10.977 24.612 24.518 24.612z"/><g fill="#ceddba"><path d="m42.653 32.948c1.71 0 3.096-1.391 3.096-3.108s-1.386-3.108-3.096-3.108-3.095 1.392-3.095 3.108 1.386 3.108 3.095 3.108z"/><path d="m42.653 31.396c.857 0 1.55-.697 1.55-1.556 0-.86-.693-1.557-1.55-1.557-.856 0-1.55.697-1.55 1.557s.694 1.556 1.55 1.556zm0 69.955c1.71 0 3.096-1.391 3.096-3.107s-1.386-3.108-3.096-3.108-3.095 1.391-3.095 3.108 1.386 3.107 3.095 3.107z"/><path d="m42.653 99.8c.857 0 1.55-.697 1.55-1.557s-.693-1.556-1.55-1.556c-.856 0-1.55.696-1.55 1.556s.694 1.557 1.55 1.557zm34.07-32.65a3.102 3.102 0 0 0 3.097-3.109 3.102 3.102 0 0 0 -3.096-3.107 3.102 3.102 0 0 0 -3.096 3.107 3.102 3.102 0 0 0 3.096 3.108z"/><path d="m76.724 65.597c.856 0 1.55-.696 1.55-1.556s-.694-1.557-1.55-1.557c-.857 0-1.55.697-1.55 1.557s.693 1.556 1.55 1.556zm-68.14 1.553a3.102 3.102 0 0 0 3.095-3.108 3.102 3.102 0 0 0 -3.095-3.107 3.102 3.102 0 0 0 -3.096 3.107 3.102 3.102 0 0 0 3.096 3.108z"/><path d="m8.584 65.597c.856 0 1.55-.696 1.55-1.556s-.694-1.557-1.55-1.557-1.551.697-1.551 1.557.694 1.556 1.55 1.556zm58.162 25.738c1.71 0 3.095-1.392 3.095-3.108s-1.386-3.108-3.095-3.108-3.096 1.392-3.096 3.108 1.386 3.108 3.096 3.108z"/><path d="m66.745 89.783c.857 0 1.551-.697 1.551-1.556 0-.86-.694-1.557-1.55-1.557s-1.551.697-1.551 1.556c0 .86.694 1.557 1.55 1.557zm-48.183-46.818c1.71 0 3.096-1.392 3.096-3.108s-1.386-3.108-3.096-3.108-3.096 1.391-3.096 3.108 1.386 3.108 3.096 3.108z"/><path d="m18.562 41.413c.856 0 1.55-.697 1.55-1.557s-.694-1.556-1.55-1.556-1.55.697-1.55 1.556c0 .86.693 1.557 1.55 1.557zm0 49.922c1.71 0 3.096-1.392 3.096-3.108s-1.386-3.108-3.096-3.108-3.096 1.392-3.096 3.108 1.386 3.108 3.096 3.108z"/><path d="m18.562 89.783c.856 0 1.55-.697 1.55-1.556 0-.86-.694-1.557-1.55-1.557s-1.55.697-1.55 1.556c0 .86.693 1.557 1.55 1.557zm48.184-46.818c1.71 0 3.095-1.392 3.095-3.108s-1.386-3.108-3.095-3.108-3.096 1.391-3.096 3.108 1.386 3.108 3.096 3.108z"/><path d="m66.745 41.413c.857 0 1.551-.697 1.551-1.557s-.694-1.556-1.55-1.556-1.551.697-1.551 1.556c0 .86.694 1.557 1.55 1.557zm-15.234-7.287a3.102 3.102 0 0 0 3.096-3.108c0-1.716-1.386-3.108-3.096-3.108s-3.096 1.392-3.096 3.108a3.102 3.102 0 0 0 3.096 3.108z"/><path d="m51.511 32.574c.856 0 1.55-.697 1.55-1.556s-.694-1.557-1.55-1.557-1.55.697-1.55 1.557.694 1.556 1.55 1.556zm-17.715 67.599c1.71 0 3.096-1.392 3.096-3.108s-1.386-3.108-3.096-3.108-3.096 1.391-3.096 3.108 1.386 3.108 3.096 3.108z"/><path d="m33.796 98.62c.856 0 1.55-.696 1.55-1.556s-.694-1.556-1.55-1.556-1.55.697-1.55 1.556c0 .86.694 1.557 1.55 1.557zm41.754-22.58a3.102 3.102 0 0 0 3.096-3.107 3.102 3.102 0 0 0 -3.096-3.108 3.102 3.102 0 0 0 -3.096 3.108 3.102 3.102 0 0 0 3.096 3.108z"/><path d="m75.55 74.49c.857 0 1.551-.698 1.551-1.558s-.694-1.556-1.55-1.556c-.857 0-1.551.697-1.551 1.556 0 .86.694 1.557 1.55 1.557zm-65.792-16.233a3.102 3.102 0 0 0 3.096-3.108c0-1.717-1.386-3.108-3.096-3.108s-3.098 1.392-3.098 3.109a3.102 3.102 0 0 0 3.096 3.108z"/><path d="m9.757 56.706c.856 0 1.55-.697 1.55-1.557s-.694-1.556-1.55-1.556c-.857 0-1.551.697-1.551 1.556 0 .86.694 1.557 1.55 1.557zm49.893 40.082a3.102 3.102 0 0 0 3.096-3.108c0-1.716-1.386-3.108-3.096-3.108s-3.096 1.392-3.096 3.108a3.102 3.102 0 0 0 3.096 3.108z"/><path d="m59.65 95.236c.857 0 1.551-.697 1.551-1.556s-.694-1.557-1.55-1.557c-.857 0-1.55.697-1.55 1.557s.693 1.556 1.55 1.556zm-33.992-57.725a3.102 3.102 0 0 0 3.095-3.107c0-1.717-1.386-3.108-3.095-3.108s-3.096 1.391-3.096 3.108a3.102 3.102 0 0 0 3.096 3.107z"/><path d="m25.657 35.96c.856 0 1.55-.697 1.55-1.557s-.694-1.556-1.55-1.556c-.857 0-1.551.697-1.551 1.556 0 .86.694 1.557 1.55 1.557zm-12.527 48.253a3.102 3.102 0 0 0 3.096-3.108c0-1.717-1.386-3.108-3.096-3.108s-3.096 1.392-3.096 3.108a3.102 3.102 0 0 0 3.096 3.108z"/><path d="m13.13 82.661c.856 0 1.55-.697 1.55-1.557s-.694-1.556-1.55-1.556c-.857 0-1.55.697-1.55 1.556s.693 1.557 1.55 1.557zm59.048-32.575c1.71 0 3.096-1.392 3.096-3.108s-1.387-3.108-3.096-3.108-3.096 1.392-3.096 3.108 1.386 3.108 3.096 3.108z"/><path d="m72.177 48.534c.857 0 1.551-.697 1.551-1.557s-.694-1.556-1.55-1.556c-.857 0-1.551.697-1.551 1.556 0 .86.694 1.557 1.55 1.557zm-12.413-10.96a3.102 3.102 0 0 0 3.095-3.107 3.102 3.102 0 0 0 -3.095-3.108 3.102 3.102 0 0 0 -3.096 3.108 3.102 3.102 0 0 0 3.096 3.108z"/><path d="m59.764 36.023c.856 0 1.55-.697 1.55-1.556s-.694-1.557-1.55-1.557c-.857 0-1.551.697-1.551 1.557s.694 1.556 1.55 1.556zm-34.214 60.701a3.102 3.102 0 0 0 3.096-3.107 3.102 3.102 0 0 0 -3.096-3.108 3.102 3.102 0 0 0 -3.096 3.108 3.102 3.102 0 0 0 3.096 3.107z"/><path d="m25.55 95.173c.856 0 1.55-.697 1.55-1.557s-.694-1.556-1.55-1.556-1.55.697-1.55 1.556c0 .86.694 1.557 1.55 1.557zm46.564-10.854c1.71 0 3.096-1.391 3.096-3.108s-1.386-3.107-3.096-3.107-3.095 1.39-3.095 3.107 1.386 3.108 3.095 3.108z"/><path d="m72.114 82.767c.857 0 1.55-.697 1.55-1.556 0-.86-.693-1.557-1.55-1.557-.856 0-1.55.697-1.55 1.557s.694 1.556 1.55 1.556zm-58.921-32.793a3.102 3.102 0 0 0 3.096-3.107c0-1.717-1.386-3.108-3.096-3.108s-3.096 1.391-3.096 3.108a3.102 3.102 0 0 0 3.096 3.107z"/><path d="m13.193 48.423c.856 0 1.55-.697 1.55-1.557s-.694-1.556-1.55-1.556-1.55.696-1.55 1.556.693 1.557 1.55 1.557zm38.196 51.782a3.102 3.102 0 0 0 3.096-3.108c0-1.716-1.386-3.108-3.096-3.108s-3.096 1.392-3.096 3.108a3.102 3.102 0 0 0 3.096 3.108z"/><path d="m51.39 98.653c.856 0 1.55-.697 1.55-1.556 0-.86-.694-1.557-1.55-1.557s-1.551.697-1.551 1.557.694 1.556 1.55 1.556zm-17.472-64.56c1.71 0 3.096-1.39 3.096-3.107s-1.386-3.108-3.096-3.108-3.096 1.391-3.096 3.108 1.386 3.108 3.096 3.108z"/><path d="m33.918 32.542c.856 0 1.55-.697 1.55-1.557s-.694-1.556-1.55-1.556-1.55.697-1.55 1.556c0 .86.694 1.557 1.55 1.557zm-24.192 43.377c1.71 0 3.096-1.392 3.096-3.108s-1.386-3.108-3.096-3.108-3.096 1.392-3.096 3.108 1.386 3.108 3.096 3.108z"/><path d="m9.726 74.367c.856 0 1.55-.697 1.55-1.556 0-.86-.694-1.557-1.55-1.557s-1.55.697-1.55 1.556c0 .86.694 1.557 1.55 1.557zm65.854-15.986c1.71 0 3.096-1.392 3.096-3.108s-1.386-3.108-3.096-3.108-3.095 1.391-3.095 3.108 1.386 3.108 3.095 3.108z"/><path d="m75.581 56.829c.857 0 1.55-.697 1.55-1.557s-.693-1.556-1.55-1.556c-.856 0-1.55.697-1.55 1.556 0 .86.694 1.557 1.55 1.557z"/></g><path d="m115.8 91.42a.053.053 0 0 1 -.052-.042l-2.796-15.693-2.276-12.79a.63.63 0 0 0 -1.241 0l-2.276 12.79c-.192 1.073-1.731 1.073-1.923 0l-2.275-12.79a.632.632 0 0 0 -1.242 0l-2.276 12.79c-.191 1.073-1.73 1.073-1.922 0l-2.276-12.79a.63.63 0 0 0 -1.242 0l-2.276 12.79c-.191 1.073-1.73 1.073-1.922 0l-2.276-12.79a.63.63 0 0 0 -1.242 0l-2.275 12.79c-.192 1.073-1.731 1.073-1.923 0l-2.281-12.793a.628.628 0 0 0 -1.236 0l-2.281 12.793-.067.375c-.196 1.1-1.774 1.1-1.97 0l-.066-.375-2.276-12.79a.63.63 0 0 0 -1.242 0l-2.276 12.79c-.191 1.073-1.73 1.073-1.922 0l-2.276-12.79a.63.63 0 0 0 -1.242 0l-2.275 12.79c-.192 1.073-1.731 1.073-1.923 0l-2.275-12.79a.63.63 0 0 0 -1.242 0l-2.276 12.79c-.191 1.073-1.73 1.073-1.922 0l-2.276-12.79a.63.63 0 0 0 -1.242 0l-2.276 12.79c-.191 1.073-1.73 1.073-1.922 0l-2.281-12.793a.628.628 0 0 0 -1.236 0l-2.282 12.793-2.79 15.693a.052.052 0 0 1 -.052.043.052.052 0 0 0 -.052.052v39.727a1 1 0 0 0 1 1h79.22a1 1 0 0 0 1-1v-39.727a.052.052 0 0 0 -.052-.052z" fill="#f7dfb5"/><path d="m127.788 60.235h-14.462a1 1 0 0 0 -1 1v69.965a1 1 0 0 0 1 1h14.462a1 1 0 0 0 1-1v-69.965a1 1 0 0 0 -1-1z" fill="#fff1d4"/><path d="m123.05 8.234-1.978-6.595a.633.633 0 0 0 -1.212 0l-1.978 6.595-2.192 7.324a1 1 0 0 0 .958 1.287h7.641a1 1 0 0 0 .958-1.287zm10.464 33.158-.689-2.178a.224.224 0 0 0 -.428 0l-.694 2.179-.492 1.549a1 1 0 0 0 .953 1.302h.888a1 1 0 0 0 .953-1.302zm-24.284 0-.689-2.178a.224.224 0 0 0 -.428 0l-.694 2.179-.492 1.549a1 1 0 0 0 .953 1.302h.888a1 1 0 0 0 .953-1.302z" fill="#dfcde8"/><path d="m125.283 22.314-3.724-12.321a1 1 0 0 0 -.957-.71h-.267a1 1 0 0 0 -.957.71l-3.729 12.32-4.427 14.639a1 1 0 0 0 .957 1.29h16.579a1 1 0 0 0 .957-1.29z" fill="#dabbe9"/><path d="m124.745 16.845c-.504 0-.913.409-.913.913s-.409.913-.913.913h-4.902c-.505 0-.914-.409-.914-.913s-.409-.913-.913-.913h-1.038a1 1 0 0 0 -1 1v2.088c0 .168.137.304.305.304h11.326a1 1 0 0 0 1-1v-1.392a1 1 0 0 0 -1-1zm1.038 3.392h-10.631a1 1 0 0 0 -1 1v4.785a1 1 0 0 0 1 1h10.631a1 1 0 0 0 1-1v-4.785a1 1 0 0 0 -1-1zm3.44 17.744h-17.52a1 1 0 0 0 -1 1v4.263a1 1 0 0 0 1 1h17.52a1 1 0 0 0 1-1v-4.263a1 1 0 0 0 -1-1z" fill="#fff1d4"/><path d="m133.417 44.243h-25.905a1 1 0 0 0 -1 1v18.081a1 1 0 0 0 1 1h25.905a1 1 0 0 0 1-1v-18.08a1 1 0 0 0 -1-1z" fill="#fff1d4"/><path d="m129.804 44.243h-18.671a1 1 0 0 0 -1 1v18.081a1 1 0 0 0 1 1h18.671a1 1 0 0 0 1-1v-18.08a1 1 0 0 0 -1-1z" fill="#e3d0b3"/></g><path d="m127.579 47.189a10.035 10.035 0 0 1 0 14.195c-3.92 3.92-10.274 3.92-14.228 0-3.921-3.92-3.921-10.275 0-14.23 3.954-3.886 10.308-3.886 14.228.035z" fill="#e0f8f3"/><path d="m115.852 49.52 3.718 3.718m1.047 1.048-.034-.034zm.007 7.274v-6.425" stroke="#175056" stroke-linecap="round" stroke-linejoin="round" stroke-opacity=".7"/><path d="m127.579 47.189a10.035 10.035 0 0 1 0 14.195c-3.92 3.92-10.274 3.92-14.228 0-3.921-3.92-3.921-10.275 0-14.23 3.954-3.886 10.308-3.886 14.228.035zm-12.403 2.331 3.717 3.718m1.048 1.048-.034-.034zm.099 7.663v-6.424" stroke="#00ac83" stroke-linecap="round" stroke-linejoin="round"/><path d="m119.992 45.822a.303.303 0 1 0 0-.606.303.303 0 0 0 0 .606zm-2.299.302a.303.303 0 1 0 0-.606.303.303 0 0 0 0 .606zm-2.117.908a.302.302 0 1 0 0-.604.302.302 0 0 0 0 .604zm-1.875 1.391a.302.302 0 1 0 0-.604.302.302 0 0 0 0 .604zm-1.391 1.875a.302.302 0 1 0 0-.604.302.302 0 0 0 0 .604zm-.908 2.117a.303.303 0 1 0 0-.605.303.303 0 0 0 0 .605zm-.302 2.3a.302.302 0 1 0 0-.605.302.302 0 0 0 0 .604zm.302 2.298a.303.303 0 1 0 0-.606.303.303 0 0 0 0 .606zm.908 2.178a.302.302 0 1 0 0-.604.302.302 0 0 0 0 .604zm1.391 1.814a.302.302 0 1 0 0-.604.302.302 0 0 0 0 .604zm1.875 1.392a.302.302 0 1 0 0-.604.302.302 0 0 0 0 .604zm2.117.907a.303.303 0 1 0 0-.606.303.303 0 0 0 0 .606zm2.299.303a.303.303 0 1 0 0-.606.303.303 0 0 0 0 .606zm2.299-.303a.302.302 0 1 0 0-.604.302.302 0 0 0 0 .604zm2.178-.907a.302.302 0 1 0 0-.604.302.302 0 0 0 0 .604zm1.815-1.392a.302.302 0 1 0 0-.604.302.302 0 0 0 0 .604zm1.391-1.814a.302.302 0 1 0 0-.604.302.302 0 0 0 0 .604zm.907-2.178a.302.302 0 1 0 0-.604.302.302 0 0 0 0 .604zm.303-2.299a.302.302 0 1 0 0-.604.302.302 0 0 0 0 .604zm-.303-2.298a.302.302 0 1 0 0-.605.302.302 0 0 0 0 .605zm-.907-2.118a.302.302 0 1 0 0-.604.302.302 0 0 0 0 .604zm-1.391-1.875a.302.302 0 1 0 0-.604.302.302 0 0 0 0 .604zm-1.815-1.391a.302.302 0 1 0 0-.604.302.302 0 0 0 0 .604zm-2.178-.907a.302.302 0 1 0 0-.605.302.302 0 0 0 0 .604z" fill="#50d3b4"/><path d="m120.384 45.626a.302.302 0 1 0 0-.604.302.302 0 0 0 0 .604zm-2.3.303a.303.303 0 1 0 0-.606.303.303 0 0 0 0 .606zm-2.117.907a.303.303 0 1 0 0-.605.303.303 0 0 0 0 .605zm-1.875 1.392a.303.303 0 1 0 0-.606.303.303 0 0 0 0 .606zm-1.391 1.875a.303.303 0 1 0 0-.606.303.303 0 0 0 0 .606zm-.908 2.117a.303.303 0 1 0 0-.606.303.303 0 0 0 0 .606zm-.302 2.299a.303.303 0 1 0 0-.606.303.303 0 0 0 0 .606zm.302 2.299a.303.303 0 1 0 0-.606.303.303 0 0 0 0 .606zm.908 2.178a.303.303 0 1 0 0-.606.303.303 0 0 0 0 .606zm1.391 1.814a.303.303 0 1 0 0-.606.303.303 0 0 0 0 .606zm1.875 1.392a.303.303 0 1 0 0-.606.303.303 0 0 0 0 .606zm2.117.907a.303.303 0 1 0 0-.606.303.303 0 0 0 0 .606zm2.3.303a.302.302 0 1 0 0-.605.302.302 0 0 0 0 .605zm2.298-.303a.303.303 0 1 0 0-.606.303.303 0 0 0 0 .606zm2.178-.907a.303.303 0 1 0 0-.606.303.303 0 0 0 0 .606zm1.815-1.392a.303.303 0 1 0 0-.606.303.303 0 0 0 0 .606zm1.391-1.814a.303.303 0 1 0 0-.606.303.303 0 0 0 0 .606zm.907-2.178a.303.303 0 1 0 0-.606.303.303 0 0 0 0 .606zm.303-2.299a.303.303 0 1 0 0-.606.303.303 0 0 0 0 .606zm-.303-2.299a.303.303 0 1 0 0-.606.303.303 0 0 0 0 .606zm-.907-2.117a.303.303 0 1 0 0-.606.303.303 0 0 0 0 .606zm-1.391-1.875a.303.303 0 1 0 0-.606.303.303 0 0 0 0 .606zm-1.815-1.392a.303.303 0 1 0 0-.605.303.303 0 0 0 0 .605zm-2.178-.907a.303.303 0 1 0 0-.606.303.303 0 0 0 0 .606z" fill="#175056"/><path d="m39.3 75.487v55.68m7.848-55.68v55.68m7.852-55.68v55.68m7.848-55.68v55.68m7.843-55.68v55.68m7.848-55.68v55.68m7.852-55.68v55.68m7.847-55.68v55.68m7.848-55.68v55.68m-58.86-44.249v44.249m7.848-44.249v44.249m7.852-44.249v44.249m7.847-44.249v44.249m7.844-44.249v44.249m7.848-44.249v44.249m7.851-44.249v44.249m7.848-44.249v44.249m7.848-44.249v44.249m4.074-55.68v55.68m6.93-62.417v59.485m3-59.485v59.485m3-59.485v59.485" stroke="#00ac83" stroke-linecap="round" stroke-linejoin="round"/></svg>