<svg fill="none" height="25" viewBox="0 0 25 25" width="25" xmlns="http://www.w3.org/2000/svg"><path d="m17.1261 22.2455-.4028.2963zm-6.2893-3.0622-.4564.2043zm-7.6753-14.22773c0-1.38072 1.11929-2.5 2.5-2.5v-1c-1.933 0-3.5 1.567-3.5 3.5zm0 10.54473v-10.54473h-1v10.54473zm2.5 2.5c-1.38071 0-2.5-1.1193-2.5-2.5h-1c0 1.933 1.567 3.5 3.5 3.5zm4.18343 0h-4.18343v1h4.18343zm6.94807 4.5433c-2.4498 0-4.559-1.4627-5.4998-3.5646l-.9128.4086c1.096 2.4486 3.5544 4.156 6.4126 4.156zm-1.3272-2.9454c.1896 1.088.6294 2.0898 1.2575 2.9436l.8055-.5926c-.5388-.7325-.9155-1.5908-1.0779-2.5227zm3.8726-1.5979h-2.4586v1h2.4586zm2.5-2.5c0 1.3807-1.1192 2.5-2.5 2.5v1c1.933 0 3.5-1.567 3.5-3.5zm0-10.54473v10.54473h1v-10.54473zm-2.5-2.5c1.3808 0 2.5 1.11928 2.5 2.5h1c0-1.933-1.567-3.5-3.5-3.5zm-13.6769 0h13.6769v-1h-13.6769zm10.7894 16.97093c-.0334-.1916.1236-.4262.4289-.4262v-1c-.8129 0-1.5726.6879-1.414 1.5979zm.3421 4.1171c.4299 0 .7407-.27.8691-.5952.1239-.3136.0903-.6953-.1333-.9992l-.8055.5926c.0061.0083.0088.0162.0098.0238.0004.004.0004.0077 0 .0107-.0002.0015-.0004.0026-.0006.0035-.0003.0008-.0004.0012-.0004.0012s.0002-.0006.0008-.0016c.0005-.001.0015-.0025.0029-.0044.003-.004.008-.0095.0156-.015.0079-.0057.0168-.0103.0258-.0132.0091-.003.015-.0032.0158-.0032zm-6.94807-4.5433c.20737 0 .42457.1396.53547.3873l.9128-.4086c-.245-.5472-.7846-.9787-1.44827-.9787z" fill="#18303f"/></svg>