<svg fill="none" height="24" viewBox="0 0 24 24" width="24" xmlns="http://www.w3.org/2000/svg"><g stroke="#18303f"><path d="m4.11066 18.2457.25507.43-.25507-.43c-.01399.0083-.02864.0046-.03636-.0032-1.59166-1.6016-2.5743-3.8069-2.5743-6.2426 0-2.43592.98278-4.64135 2.57465-6.24303.00771-.00776.02236-.01147.03635-.00317.00707.0042.0089.00712.00994.00887.00168.00284.00493.0099.0059.0224.00211.02723-.00797.06319-.03602.09189-1.54316 1.57887-2.49507 3.7403-2.49507 6.12304 0 2.3826.95177 4.5438 2.49473 6.1226.02805.0287.03812.0647.03601.0919-.00097.0125-.00421.0196-.00589.0224-.00105.0018-.00288.0047-.00994.0089zm3.34233-9.59244c.00226.00061.00498.00159.00792.00313.00468.00246.00903.00584.01275.01017.00411.00477.00527.00777.00605.01061.00102.00372.0025.01221.00062.02621-.0041.03055-.02279.07324-.0613.10874-.85855.79148-1.39748 1.92718-1.39748 3.18808 0 1.2606.5387 2.3961 1.39694 3.1875.0385.0355.05718.0782.06128.1088.00188.014.0004.0225-.00062.0262-.00078.0028-.00195.0058-.00605.0106-.00373.0043-.00808.0077-.01276.0102-.00294.0015-.00566.0025-.00793.0031-.93603-.8132-1.52661-2.0106-1.52661-3.3464 0-1.3362.59082-2.5338 1.52719-3.34694zm9.13061.1607c-.0385-.03552-.0572-.0782-.0613-.10872-.0018-.014-.0004-.02249.0007-.02621.0007-.00284.0019-.00585.006-.01061.0037-.00434.0081-.00773.0128-.01019.0029-.00154.0057-.00253.0079-.00313.9352.81311 1.5251 2.0099 1.5251 3.3451 0 1.3348-.5897 2.5315-1.5245 3.3446-.0023-.0007-.005-.0016-.0079-.0032-.0047-.0024-.0091-.0058-.0128-.0102-.0041-.0047-.0053-.0077-.0061-.0106-.001-.0037-.0025-.0122-.0006-.0262.0041-.0305.0227-.0732.0612-.1087.8571-.7914 1.3949-1.9261 1.3949-3.1857 0-1.2599-.538-2.39484-1.3954-3.18624zm5.9164 3.18594c0 2.4349-.982 4.6395-2.5727 6.241-.0077.0078-.0224.0115-.0364.0032-.007-.0042-.0089-.0071-.0099-.0089-.0017-.0028-.005-.0099-.0059-.0224-.0021-.0272.0079-.0632.036-.0919 1.542-1.5786 2.4932-3.7392 2.4932-6.121 0-2.38194-.9513-4.54272-2.4936-6.12145-.028-.0287-.0381-.06464-.036-.09186.001-.01251.0042-.01957.0059-.0224.0011-.00177.0029-.00469.01-.00888.014-.00831.0286-.0046.0363.00316 1.591 1.60155 2.5731 3.80633 2.5731 6.24143z"/><circle cx="12" cy="11.999" r="1.5"/></g></svg>