<svg fill="none" height="28" viewBox="0 0 28 28" width="28" xmlns="http://www.w3.org/2000/svg"><path clip-rule="evenodd" d="m13.7038 3.72882c.1362-.00329.2679.04915.3646.14519.3725.37015.8299 1.03281 1.2951 1.81222.4727.79173.9761 1.74291 1.4374 2.72056.2891.61253.5631 1.23859.8033 1.84531.0544-.0395.1089-.0787.1635-.1177.7975-.56966 1.6188-1.09496 2.356-1.50838.727-.40766 1.4054-.72558 1.9079-.85541.1297-.03352.2678-.01203.3826.05958.1149.07161.1968.18722.2269.32043.2273 1.00296.2518 3.00468.0957 4.95528-.0292.3644-.0649.7299-.1072 1.0902.559-.0257 1.0996-.0334 1.5958-.0222.8293.0186 1.5727.0901 2.0715.2346.1268.0367.2335.1236.2963.2414.0628.1177.0765.2565.038.3856-.2939.9853-1.252 2.732-2.3413 4.3419-.5506.8138-1.147 1.6108-1.7287 2.2782-.5739.6584-1.1624 1.2247-1.6995 1.5417-1.0359.6115-2.4346.872-3.7152.7336-1.2735-.1376-2.5485-.6869-3.1953-1.8323-.1077-.1907-.1927-.3885-.2571-.5914-.0359-.0002-.0717-.0009-.1076-.0022-.0645.2037-.1497.4022-.2577.5936-.6468 1.1454-1.9219 1.6947-3.1954 1.8323-1.28055.1384-2.67926-.1221-3.71518-.7336-.53703-.317-1.12553-.8833-1.69942-1.5417-.58173-.6674-1.17812-1.4644-1.72876-2.2782-1.08933-1.6099-2.047423-3.3566-2.341266-4.3419-.038482-.1291-.024813-.2679.037966-.3856.06278-.1178.169466-.2047.296337-.2414.498773-.1445 1.242183-.216 2.071453-.2346.47074-.0106.98144-.0043 1.50993.0184-.04216-.359-.0777-.7233-.10675-1.0864-.15609-1.9506-.13159-3.95232.09564-4.95528.03018-.13321.11205-.24882.22692-.32043.11486-.07161.25292-.0931.38265-.05958.50243.12983 1.18086.44775 1.90782.85541.73722.41342 1.55854.93872 2.35607 1.50838.0719.0514.14365.1032.21519.1553.26388-.61152.5648-1.24331.8805-1.86176.9816-1.92326 2.1439-3.79162 2.8242-4.53647.0919-.1006.2209-.15935.3571-.16265zm-8.99923 11.47878c-.57048-.0282-1.12012-.0369-1.61864-.0257-.50691.0114-.94622.0431-1.29531.0916.37805.8939 1.12943 2.2296 2.01464 3.5378.53426.7896 1.10544 1.5515 1.65288 2.1796.55526.637 1.05752 1.1029 1.45178 1.3356.82664.488 2.00732.7209 3.10928.6018 1.1091-.1199 2.0198-.5791 2.4484-1.3381.0464-.082.0869-.1673.1218-.2555-.3074-.0959-.6082-.2318-.8979-.4075-1.0446.4273-2.24533.2333-3.28165-.2377-1.1759-.5344-2.25722-1.4736-2.85322-2.5291-.30871-.5467-.54108-1.3359-.71605-2.1993-.04922-.2428-.09454-.4949-.13601-.7535zm8.93543 4.2438c.0257-.1195.0556-.2385.0894-.3565-.0482-.1108-.0922-.2239-.1322-.339-.0257.0741-.0531.1474-.0822.2199.0486.1568.0906.3157.125.4756zm-.8913.7488c.0027.0421.0046.084.0057.1256-.0311-.0117-.0622-.024-.0933-.0369.0298-.029.059-.0586.0876-.0887zm.1206-2.6463c.0086-.0621.0162-.1249.0228-.1883.1166-1.1277-.1112-2.3379-.5905-3.1868-.2297-.4068-.689-.9283-1.3137-1.504-.2784-.2566-.5835-.5183-.9057-.7792-.26926.7644-.41471 1.3855-.41471 1.7978 0 .4509.0191.8761.05513 1.2767.41518.1326.78518.2851 1.08148.46.801.4729 1.5327 1.2427 2.0652 2.1238zm-2.99136-1.4628c.16726.0679.31296.1381.43446.2098.8266.488 1.6143 1.417 2.0644 2.4523.0248.0573.0486.1144.0711.1716-.1786.3349-.4059.6136-.679.8183-.8226-.6848-1.5477-1.8611-1.89096-3.652zm-1.06588-.3338c.29032 1.9619.99543 3.4244 1.91004 4.3834-.5809.0619-1.2381-.0714-1.90036-.3724-1.01341-.4605-1.9246-1.2673-2.40396-2.1162-.22896-.4055-.4365-1.0677-.60589-1.9036-.031-.1529-.06045-.3102-.08834-.4712.0112.001.0224.002.03361.0029.93905.083 1.87578.2149 2.6866.3916.12696.0276.24983.0562.3683.0855zm-.11209-1.0588c-.01909-.0042-.03821-.0084-.05738-.0126-.86074-.1875-1.83981-.3245-2.809-.4102-.08716-.0077-.17432-.015-.26137-.0218-.05067-.4054-.09273-.8219-.12613-1.2394-.12636-1.579-.12449-3.11401-.01606-4.08273.32395.13637.71599.33183 1.15543.57826.70223.39379 1.49351.89937 2.2661 1.45127.13447.0961.26816.1934.40052.2916l-.02032.0544c-.33058.8901-.56427 1.7413-.56427 2.3861 0 .3465.01106.6816.03248 1.0051zm13.04843-1.684c-.0336.4199-.076.8387-.127 1.2463-.0583.0048-.1167.0098-.175.0149-.9692.0857-1.9483.2227-2.809.4102-.0535.0117-.1066.0235-.1595.0357.0199-.3304.0301-.6731.0301-1.0282 0-.6363-.2106-1.4873-.5145-2.3854l-.0253-.0742c.1239-.0918.249-.1827.3747-.2725.7726-.5519 1.5639-1.05748 2.2661-1.45127.4395-.24643.8315-.44189 1.1555-.57826.1084.96872.1103 2.50373-.0161 4.08273zm-2.9122 2.6573c-.16.0348-.3135.0711-.4599.1086-.212 1.5792-.6693 2.8264-1.2931 3.7526-.1517.2252-.3132.4312-.4832.6181.5487.0312 1.1585-.1036 1.7727-.3828 1.0135-.4605 1.9246-1.2673 2.404-2.1162.229-.4055.4365-1.0677.6059-1.9036.0305-.1505.0595-.3052.087-.4635-.9212.0832-1.8379.2134-2.6334.3868zm-1.3282-1.9784c0 .4628-.0183.8992-.0528 1.31-.3738.1247-.7076.2663-.9794.4267-.8357.4934-1.596 1.3101-2.1333 2.239-.0161-.0993-.0295-.2006-.0401-.3035-.1166-1.1277.1112-2.3379.5905-3.1868.2297-.4068.689-.9283 1.3137-1.504.2834-.2612.5945-.5278.923-.7932.2451.7662.3784 1.3938.3784 1.8118zm-2.6048 5.0598c-.0381.0877-.0735.1753-.106.2626.1913.3311.4331.6019.7222.7936.2596-.2207.5069-.4973.7344-.835.4616-.6855.8402-1.6238 1.0566-2.845-.1293.0559-.2441.1132-.3429.1715-.8266.488-1.6142 1.417-2.0643 2.4523zm-.3762 1.5295c-.0013.0317-.002.0633-.0023.0947.0249-.0082.0499-.0168.0748-.0258-.0246-.0226-.0487-.0456-.0725-.0689zm1.0868.6874c-.2918.1759-.5966.3088-.9095.3984.0317.0762.0677.1502.108.2217.4286.759 1.3393 1.2182 2.4484 1.3381 1.102.1191 2.2827-.1138 3.1093-.6018.3943-.2327.8966-.6986 1.4518-1.3356.5475-.6281 1.1186-1.39 1.6529-2.1796.8852-1.3082 1.6366-2.6439 2.0146-3.5378-.3491-.0485-.7884-.0802-1.2953-.0916-.5235-.0117-1.1035-.0015-1.7048.0301-.0413.2571-.0864.5077-.1353.7491-.175.8634-.4073 1.6526-.716 2.1993-.596 1.0555-1.6774 1.9947-2.8533 2.5291-.9998.4544-2.1527.651-3.1708.2806zm1.1609-10.0926c-.2529-.6603-.5544-1.35794-.8781-2.04395-.4494-.95242-.9379-1.87449-1.3917-2.63474-.2882-.48279-.5539-.88571-.7802-1.18712-.6169.82961-1.5098 2.30004-2.3115 3.87087-.3486.68282-.6749 1.37504-.9493 2.02964.4248.3351.8291.6765 1.1938 1.0126.6449.5942 1.197 1.2002 1.505 1.7457.1745.309.3198.6498.4345 1.0103.1148-.3605.2601-.7013.4346-1.0103.308-.5455.8601-1.1515 1.505-1.7457.3773-.3477.797-.7011 1.2379-1.0473z" fill="#c4c4c4" fill-rule="evenodd"/></svg>