<svg fill="none" height="28" viewBox="0 0 28 28" width="28" xmlns="http://www.w3.org/2000/svg"><path d="m7.80658 7.62861h-2.79377c-.48148 0-.94324.17952-1.28369.49908-.34046.31955-.53172.75296-.53172 1.20488v11.93523c0 .4519.19126.8854.53172 1.2049.34045.3196.80221.4991 1.28369.4991h2.79377m0-15.34319v15.34319m0-15.34319h11.28082m-11.28082 15.34319h11.28082m0-15.34319h3.1799c.4814 0 .9432.17952 1.2837.49908.3404.31955.5317.75296.5317 1.20488v11.93523c0 .4519-.1913.8854-.5317 1.2049-.3405.3196-.8023.4991-1.2837.4991h-3.1799m0-15.34319v15.34319m-2.9262-15.41876h-5.0423v-.83139c0-1.10457.8955-2 2-2h1.0423c1.1045 0 2 .89543 2 2z" stroke="#c4c4c4" stroke-linecap="round" stroke-linejoin="round"/></svg>