<svg fill="none" height="28" viewBox="0 0 28 28" width="28" xmlns="http://www.w3.org/2000/svg"><path clip-rule="evenodd" d="m14.1969 1.19175c0-.276144-.2239-.500002-.5-.500002-.2762 0-.5.223858-.5.500002v3.76783l-1.9789-1.92484c-.1979-.19254-.5145-.18816-.707.00978-.1925.19795-.1882.5145.0098.70704l2.6761 2.60307v2.03933h-1.1908c-.2762 0-.5.22386-.5.5s.2238.5.5.5h1.1908v3.62294l-3.28745-1.864.60035-1.0123c.1409-.23747.0626-.5442-.1749-.68507-.2376-.14087-.54429-.06252-.68516.17498l-.61035 1.02909-1.81979-1.03186-.95371-3.5046c-.07251-.26645-.34729-.42367-.61375-.35116-.26645.07251-.42367.34729-.35116.61375l.69316 2.54717-3.36049-1.90543c-.24021-.13621-.54536-.05189-.68157.18832-.1362.24022-.05188.54537.18833.68157l3.37439 1.91331-2.68411.69113c-.26742.0688-.42839.3414-.35953.6089.06885.2674.34146.4284.60888.3595l3.68719-.9494 1.76194.999-.57627.9717c-.14087.2375-.06253.5442.17498.6851.23751.1408.54425.0625.68512-.175l.58623-.9884 3.22977 1.8313-3.18271 1.8047-.63329-1.0678c-.14087-.2375-.44761-.3158-.68512-.175-.23751.1409-.31585.4476-.17498.6851l.62333 1.051-1.81495 1.0291-3.68124-.9479c-.26742-.0688-.54003.0922-.60888.3596-.06886.2674.09211.54.35953.6089l2.67816.6895-3.36844 1.91c-.24021.1362-.32453.4413-.18833.6815.13621.2403.44136.3246.68157.1884l3.36207-1.9064-.69474 2.553c-.07251.2665.08471.5412.35116.6138.26646.0725.54124-.0848.61375-.3512l.95529-3.5104 1.86527-1.0576.56329.9497c.14087.2375.44756.3158.68516.175.2375-.1409.3158-.4476.1749-.6851l-.55329-.933 3.24039-1.8373v3.6255h-1.1908c-.2762 0-.5.2238-.5.5 0 .2761.2238.5.5.5h1.1908v2.0407l-2.6761 2.6031c-.198.1925-.2023.5091-.0098.707s.5091.2023.707.0098l1.9789-1.9248v3.7667c0 .2761.2238.5.5.5.2761 0 .5-.2239.5-.5v-3.7679l1.98 1.926c.198.1925.5145.1881.7071-.0098.1925-.1979.1881-.5145-.0098-.707l-2.6773-2.6043v-2.0395h1.2029c.2761 0 .5-.2239.5-.5 0-.2762-.2239-.5-.5-.5h-1.2029v-3.5641l3.1488 1.7854-.5649.916c-.145.235-.072.543.163.688.2351.145.5431.072.6881-.163l.5843-.9474 1.8534 1.0509.9545 3.5074c.0725.2664.3473.4237.6137.3512.2665-.0726.4237-.3473.3512-.6138l-.6939-2.55 3.3568 1.9034c.2402.1362.5453.0519.6815-.1884.1362-.2402.0519-.5453-.1883-.6815l-3.367-1.9092 2.6812-.6903c.2674-.0689.4284-.3415.3595-.6089-.0688-.2674-.3414-.4284-.6089-.3596l-3.6843.9487-1.784-1.0116.5871-.9518c.145-.2351.072-.5431-.163-.6881-.2351-.145-.5431-.072-.6881.1631l-.6065.9832-3.2146-1.8227 3.1814-1.8039.6352 1.071c.1409.2375.4476.3158.6851.175.2375-.1409.3159-.4477.175-.6852l-.6252-1.0541 1.8117-1.0273 3.6902.9502c.2675.0689.5401-.0921.6089-.3595.0689-.2675-.0921-.5401-.3595-.6089l-2.6872-.69192 3.373-1.91252c.2402-.1362.3245-.44135.1883-.68157-.1362-.24021-.4413-.32453-.6815-.18832l-3.3552 1.90242.6923-2.54416c.0725-.26646-.0847-.54124-.3512-.61375-.2664-.07251-.5412.08471-.6137.35116l-.9529 3.5016-1.8734 1.06226-.5614-.94651c-.1409-.2375-.4476-.31585-.6851-.17498-.2376.14087-.3159.44759-.175.68509l.5514.9297-3.1308 1.7752v-3.56154h1.2029c.2761 0 .5-.22386.5-.5s-.2239-.5-.5-.5h-1.2029v-2.03814l2.6773-2.60426c.1979-.19254.2023-.50909.0098-.70704-.1926-.19794-.5091-.20232-.7071-.00978l-1.98 1.92603z" fill="#c4c4c4" fill-rule="evenodd"/></svg>