<svg fill="none" height="64" viewBox="0 0 27 64" width="27" xmlns="http://www.w3.org/2000/svg"><g fill="#92a0a9"><path d="m12.7657 3.6716c0 .2733-.2239.49485-.5.49485s-.5-.22155-.5-.49485c0-.27329.2239-.49484.5-.49484s.5.22155.5.49484z"/><path d="m14.7345 4.16645c.2761 0 .5-.22155.5-.49485 0-.27329-.2239-.49484-.5-.49484-.2762 0-.5.22155-.5.49484 0 .2733.2238.49485.5.49485z"/><path clip-rule="evenodd" d="m17.2661 6.13391c.3507-.55027.5543-1.18766.5543-1.875 0-2.25223-2.0032-4.062621-4.3179-4.062621-2.3044 0-4.31793 1.800911-4.31793 3.954671 0 .73012.20916 1.3995.56922 1.97174-.42474.26319-.81331.581-1.15616.94137l-.36125-.05959c-1.16453-.19209-2.1291-.86197-2.70814-1.81708-.14316-.23614-.45064-.31151-.68678-.16836-.23613.14316-.31151.45064-.16835.68678.70009 1.15478 1.84828 1.97611 3.22333 2.25289-.49337.77172-.80632 1.65695-.87887 2.57999-1.07547.1739-2.16292-.0513-2.91665-.62895l-1.19493-.96759c-.21461-.17378-.52946-.14068-.70323.07393-.17378.2146-.14068.52945.07392.70323l1.19992.97158.00966.0077c.97664.7517 2.29785 1.0198 3.56308.8462.14144 1.0762.56815 2.0514 1.19795 2.8637l-.3421.2117c-1.27436.6731-2.81471.6564-3.94809-.0914-.00659-.0044-.01328-.0086-.02007-.0126l-2.18166-1.2955c-.23744-.141-.54422-.0628-.68521.1746-.14099.2375-.06281.5442.17463.6852l2.17179 1.2897c1.47923.97 3.41716.9541 4.97272.1251.00946-.005.01876-.0104.02788-.016l.51843-.3207c1.08209 1.0001 2.52549 1.6237 4.08829 1.6885-.0155.0482-.0238.0996-.0238.1529v46c0 .2761.2238.5.5.5.2761 0 .5-.2239.5-.5v-46c0-.0533-.0084-.1047-.0238-.1529 1.5631-.0644 3.0068-.6878 4.0893-1.6878l.5174.32c.0091.0057.0184.011.0279.016 1.5555.829 3.4934.8449 4.9727-.1251l2.1718-1.2897c.2374-.141.3156-.4477.1746-.6852-.141-.2374-.4478-.3156-.6852-.1746l-2.1817 1.2955-.0083.005-.0117.0076c-1.1334.7478-2.6738.7645-3.9481.0914l-.341-.2109c.6301-.8125 1.0571-1.788 1.1985-2.8646 1.2649.1732 2.5855-.0949 3.5618-.8464l.0097-.0076 1.1999-.97166c.2146-.17377.2477-.48862.0739-.70323-.1737-.21461-.4886-.2477-.7032-.07393l-1.1949.96759c-.7535.57743-1.8404.80273-2.9154.62923-.0726-.9232-.3856-1.80852-.8791-2.58029 1.3744-.27708 2.522-1.09823 3.2218-2.25259.1432-.23614.0678-.54362-.1683-.68678s-.5436-.06778-.6868.16835c-.579.95512-1.5436 1.625-2.7081 1.81709l-.3598.05934c-.3379-.35516-.7203-.66898-1.1379-.92991zm.4604 7.94549c.7548-.8428 1.2293-1.9296 1.2739-3.1348l.0001-.0044c-.0028-1.05997-.4058-2.09149-1.0783-2.91257-.0807-.05141-.1465-.1257-.1871-.2155-.3247-.35272-.7018-.65929-1.1194-.90303-.8021.74234-1.924 1.19652-3.1132 1.19652-1.1886 0-2.3047-.45196-3.1044-1.20348-.42378.2457-.80619.55604-1.13471.91367-.04012.08682-.10389.1589-.18187.20949-.67415.82207-1.07797 1.85545-1.08016 2.9172.04416 1.2071.5195 2.2954 1.27581 3.1389.06924.0399.12987.0971.17487.1699.00737.0119.01417.024.02042.0362 1.01104 1.0105 2.44844 1.6153 4.01144 1.5619.0113-.0004.0227-.0004.0341 0 1.5612.0533 2.9971-.5501 4.008-1.5585.0067-.0134.0141-.0266.0221-.0396.0458-.074.1077-.1319.1784-.1719zm-.9061-9.82049c0 1.49766-1.4557 2.84671-3.3179 2.84671-1.8514 0-3.3179-1.33943-3.3179-2.95466 0-1.51684 1.4771-2.95467 3.3179-2.95467 1.8304 0 3.3179 1.42835 3.3179 3.06262z" fill-rule="evenodd"/></g><g stroke="#92a0a9" stroke-width=".25"><path d="m12.7657 3.6716c0 .2733-.2239.49485-.5.49485s-.5-.22155-.5-.49485c0-.27329.2239-.49484.5-.49484s.5.22155.5.49484z"/><path d="m14.7345 4.16645c.2761 0 .5-.22155.5-.49485 0-.27329-.2239-.49484-.5-.49484-.2762 0-.5.22155-.5.49484 0 .2733.2238.49485.5.49485z"/><path clip-rule="evenodd" d="m17.2661 6.13391c.3507-.55027.5543-1.18766.5543-1.875 0-2.25223-2.0032-4.062621-4.3179-4.062621-2.3044 0-4.31793 1.800911-4.31793 3.954671 0 .73012.20916 1.3995.56922 1.97174-.42474.26319-.81331.581-1.15616.94137l-.36125-.05959c-1.16453-.19209-2.1291-.86197-2.70814-1.81708-.14316-.23614-.45064-.31151-.68678-.16836-.23613.14316-.31151.45064-.16835.68678.70009 1.15478 1.84828 1.97611 3.22333 2.25289-.49337.77172-.80632 1.65695-.87887 2.57999-1.07547.1739-2.16292-.0513-2.91665-.62895l-1.19493-.96759c-.21461-.17378-.52946-.14068-.70323.07393-.17378.2146-.14068.52945.07392.70323l1.19992.97158.00966.0077c.97664.7517 2.29785 1.0198 3.56308.8462.14144 1.0762.56815 2.0514 1.19795 2.8637l-.3421.2117c-1.27436.6731-2.81471.6564-3.94809-.0914-.00659-.0044-.01328-.0086-.02007-.0126l-2.18166-1.2955c-.23744-.141-.54422-.0628-.68521.1746-.14099.2375-.06281.5442.17463.6852l2.17179 1.2897c1.47923.97 3.41716.9541 4.97272.1251.00946-.005.01876-.0104.02788-.016l.51843-.3207c1.08209 1.0001 2.52549 1.6237 4.08829 1.6885-.0155.0482-.0238.0996-.0238.1529v46c0 .2761.2238.5.5.5.2761 0 .5-.2239.5-.5v-46c0-.0533-.0084-.1047-.0238-.1529 1.5631-.0644 3.0068-.6878 4.0893-1.6878l.5174.32c.0091.0057.0184.011.0279.016 1.5555.829 3.4934.8449 4.9727-.1251l2.1718-1.2897c.2374-.141.3156-.4477.1746-.6852-.141-.2374-.4478-.3156-.6852-.1746l-2.1817 1.2955-.0083.005-.0117.0076c-1.1334.7478-2.6738.7645-3.9481.0914l-.341-.2109c.6301-.8125 1.0571-1.788 1.1985-2.8646 1.2649.1732 2.5855-.0949 3.5618-.8464l.0097-.0076 1.1999-.97166c.2146-.17377.2477-.48862.0739-.70323-.1737-.21461-.4886-.2477-.7032-.07393l-1.1949.96759c-.7535.57743-1.8404.80273-2.9154.62923-.0726-.9232-.3856-1.80852-.8791-2.58029 1.3744-.27708 2.522-1.09823 3.2218-2.25259.1432-.23614.0678-.54362-.1683-.68678s-.5436-.06778-.6868.16835c-.579.95512-1.5436 1.625-2.7081 1.81709l-.3598.05934c-.3379-.35516-.7203-.66898-1.1379-.92991zm.4604 7.94549c.7548-.8428 1.2293-1.9296 1.2739-3.1348l.0001-.0044c-.0028-1.05997-.4058-2.09149-1.0783-2.91257-.0807-.05141-.1465-.1257-.1871-.2155-.3247-.35272-.7018-.65929-1.1194-.90303-.8021.74234-1.924 1.19652-3.1132 1.19652-1.1886 0-2.3047-.45196-3.1044-1.20348-.42378.2457-.80619.55604-1.13471.91367-.04012.08682-.10389.1589-.18187.20949-.67415.82207-1.07797 1.85545-1.08016 2.9172.04416 1.2071.5195 2.2954 1.27581 3.1389.06924.0399.12987.0971.17487.1699.00737.0119.01417.024.02042.0362 1.01104 1.0105 2.44844 1.6153 4.01144 1.5619.0113-.0004.0227-.0004.0341 0 1.5612.0533 2.9971-.5501 4.008-1.5585.0067-.0134.0141-.0266.0221-.0396.0458-.074.1077-.1319.1784-.1719zm-.9061-9.82049c0 1.49766-1.4557 2.84671-3.3179 2.84671-1.8514 0-3.3179-1.33943-3.3179-2.95466 0-1.51684 1.4771-2.95467 3.3179-2.95467 1.8304 0 3.3179 1.42835 3.3179 3.06262z" fill-rule="evenodd"/></g></svg>