<svg fill="none" height="15" viewBox="0 0 15 15" width="15" xmlns="http://www.w3.org/2000/svg"><circle cx="7.5" cy="7.5" r="6.5" stroke="#2d3436"/><g fill="#2d3436"><path d="m8.16683 10.4339c0 .3682-.29848.6667-.66667.6667s-.66666-.2985-.66666-.6667.29847-.66666.66666-.66666.66667.29846.66667.66666z"/><path d="m6.93783 5.15411c-.1877.2186-.51656.24893-.74129.06589-.22838-.18601-.26273-.52194-.07672-.75033l.01661-.0196c.00717-.00817.01598-.01792.02648-.02898.02096-.0221.04878-.04962.08364-.08042.06957-.06147.16837-.13704.29777-.2084.26301-.14506.64122-.26611 1.13058-.22766.23428.01841.47157.06273.69864.17296.23295.11309.42152.27901.58307.49258.28445.37604.33935.86612.31029 1.2122-.03219.38323-.21778.79172-.38019 1.01734-.14559.20226-.30565.35429-.43525.4743l-.04132.0382-.00001.00001c-.11585.107-.19806.18294-.2724.27376-.02957.03613-.05551.08658-.07583.14663-.01979.05849-.02898.10935-.03586.14812l-.00395.03344c-.00197.02053-.00387.04588-.0056.0755-.00348.05937-.00584.12757-.00738.19406-.00152.06597-.00218.12742-.00245.17251l-.00018.05313.00001.01412.00001.00418c.00117.29453-.23665.53436-.53119.53554-.29455.00118-.53428-.23664-.53547-.53119l-.00001-.00649-.00001-.01662.00019-.0591c.0003-.04922.00102-.11701.00272-.19072.00301-.12998.00976-.33339.03303-.46462l.00152-.00862c.01732-.09904.08143-.46564.33502-.77547.1249-.1526.26435-.28088.37392-.38168l.0405-.03734c.12272-.11364.2152-.20494.29428-.3148.02726-.03787.07246-.11718.11312-.21969.04069-.10258.06423-.19684.06985-.26376.01677-.19971-.03058-.39024-.09805-.47943-.07722-.10209-.14043-.14847-.19821-.17652-.06366-.0309-.15605-.05655-.31635-.06914-.26091-.0205-.4326.04353-.53191.0983-.05176.02855-.08722.05657-.10663.07372-.00781.00691-.01281.01186-.01499.01409z"/></g></svg>