<svg fill="none" height="24" viewBox="0 0 24 24" width="24" xmlns="http://www.w3.org/2000/svg"><circle cx="12" cy="12" r="11.5" stroke="#c4c4c4"/><g fill="#c4c4c4"><path d="m12.5315 9.47002 3.3247 3.32478c.2929.2929.2929.7677 0 1.0606s-.7677.2929-1.0606 0l-2.7948-2.7947-2.79469 2.7947c-.29289.2929-.76777.2929-1.06066 0s-.29289-.7677 0-1.0606l3.32505-3.32509c.0732-.07322.1578-.12814.2481-.16475.2709-.10984.5932-.05461.8129.16506.0001.00011-.0001-.0001 0 0z"/><path d="m12.5315 9.46953 3.3247 3.32477c.2929.2929.2929.7677 0 1.0606s-.7677.2929-1.0606 0l-2.7948-2.7947-2.79469 2.7947c-.29289.2929-.76777.2929-1.06066 0s-.29289-.7677 0-1.0606l3.32505-3.32508c.0732-.07322.1578-.12814.2481-.16475.2709-.10983.5932-.05461.8129.16506z"/></g></svg>