<svg fill="none" height="30" viewBox="0 0 30 30" width="30" xmlns="http://www.w3.org/2000/svg"><circle fill="#18303f" r="15" transform="matrix(1 0 0 -1 15 14.9999)"/><g fill="#03a9f1"><path clip-rule="evenodd" d="m13.9403 18.394-3.3867-3.3867c-.58579-.5858-.58579-1.5355 0-2.1213.5858-.5858 1.5355-.5858 2.1213 0l2.3261 2.326 2.326-2.326c.5858-.5858 1.5356-.5858 2.1213 0 .5858.5858.5858 1.5355 0 2.1213l-3.3867 3.3867c-.5858.5858-1.5355.5858-2.1213 0z" fill-rule="evenodd"/><path d="m13.9403 18.394-3.3867-3.3867c-.58579-.5858-.58579-1.5355 0-2.1213.5858-.5858 1.5355-.5858 2.1213 0l2.3261 2.326 2.326-2.326c.5858-.5858 1.5356-.5858 2.1213 0 .5858.5858.5858 1.5355 0 2.1213l-3.3867 3.3867c-.5858.5858-1.5355.5858-2.1213 0z"/></g></svg>