<svg fill="none" height="25" viewBox="0 0 25 25" width="25" xmlns="http://www.w3.org/2000/svg"><g fill="#18303f"><path d="m9.10547 10.374c.27614 0 .5.2239.5.5v1.4059c0 .2761-.22386.5-.5.5s-.5-.2239-.5-.5v-1.4059c0-.2761.22386-.5.5-.5z"/><path d="m9.10547 14.0596c.27614 0 .5-.2239.5-.5 0-.2762-.22386-.5-.5-.5s-.5.2238-.5.5c0 .2761.22386.5.5.5z"/><path clip-rule="evenodd" d="m6.5 3.31799c0-1.03875.98898-1.81799 2.00301-1.81799h8.51699c.5464 0 1.0474.16037 1.4194.48651.3778.33135.5836.80107.5836 1.33148v17.39751c0 1.0387-.9889 1.818-2.003 1.818h-8.51699c-1.01403 0-2.00301-.7793-2.00301-1.818zm2.00301-.81799c-.58919 0-1.00301.45089-1.00301.81799v17.39751c0 .3671.41382.818 1.00301.818h8.51699c.5892 0 1.003-.4509 1.003-.818v-17.39751c0-.26038-.0947-.44966-.2429-.57961-.1542-.13515-.4046-.23838-.7601-.23838z" fill-rule="evenodd"/></g></svg>