<svg fill="none" height="25" viewBox="0 0 25 25" width="25" xmlns="http://www.w3.org/2000/svg"><g fill="#18303f"><path d="m3.28516 5.53516c0-1.933 1.567-3.5 3.5-3.5h11.42924c1.933 0 3.5 1.567 3.5 3.5v13.75644c0 1.933-1.567 3.5-3.5 3.5h-.7824c-.2761 0-.5-.2239-.5-.5 0-.2762.2239-.5.5-.5h.7824c1.3807 0 2.5-1.1193 2.5-2.5v-13.75644c0-1.38072-1.1193-2.5-2.5-2.5h-11.42924c-1.38071 0-2.5 1.11929-2.5 2.5v13.75644c0 1.3807 1.11928 2.5 2.5 2.5h3.40034c.1161-.4074.491-.7057.9356-.7057h2.7572c.5372 0 .9727.4355.9727.9727 0 .5371-.4355.9726-.9727.9726h-2.7572c-.2448 0-.4684-.0904-.6393-.2396h-3.69664c-1.933 0-3.5-1.567-3.5-3.5z"/><path d="m15.8633 22.792c.2761 0 .5-.2239.5-.5s-.2239-.5-.5-.5c-.2762 0-.5.2239-.5.5s.2238.5.5.5z"/></g></svg>