<svg fill="none" height="25" viewBox="0 0 25 25" width="25" xmlns="http://www.w3.org/2000/svg"><g fill="#18303f"><path clip-rule="evenodd" d="m15.9687 19.7611c0 .4666-.2731.8694-.6681 1.0573v.3385c0 .2762-.2239.5-.5.5-.2762 0-.5-.2238-.5-.5v-.3364c-.3974-.187-.6725-.5911-.6725-1.0594 0-.6464.5239-1.1704 1.1703-1.1704.6463 0 1.1703.524 1.1703 1.1704zm-1.3406 0c0-.0941.0762-.1704.1703-.1704s.1703.0763.1703.1704c0 .0896-.0692.163-.1571.1698l-.011-.0002-.0143.0002c-.0884-.0062-.1582-.0799-.1582-.1698z" fill-rule="evenodd"/><path clip-rule="evenodd" d="m1.28516 5.53516c0-1.933 1.567-3.5 3.5-3.5h11.42924c1.933 0 3.5 1.567 3.5 3.5v4.34968c0 .095-.0265.18386-.0725.25946-.0799.1355-.2224.2312-.3911.2447l-.5672.0454c-.4084.0326-.7401-.3247-.6773-.72951l.6871-4.4287c.0014-.00891.003-.01771.0049-.02644-.1417-1.24631-1.1997-2.21459-2.4839-2.21459h-11.42924c-1.28368 0-2.34139.96749-2.48372 2.21306.00196.00918.00367.01847.00513.02786l1.84289 11.85932c.03785.2435.24757.4232.49407.4232h3.48966c.01446-.5245.44422-.9453.97225-.9453h.26946c.07139 0 .14099.0077.208.0223.237-.6086.8299-1.0418 1.5205-1.0418h7.3498c.898 0 1.6308.7324 1.6308 1.6304v4.0281c0 .8701-.3987 1.6811-.9864 2.2686-.5877.5876-1.3988.9861-2.269.9861h-4.1005c-.8703 0-1.6814-.3985-2.2691-.9861-.2339-.2338-.4378-.503-.59862-.7972-.07394.0431-.15997.0679-.25178.0679h-4.82344c-1.933 0-3.5-1.567-3.5-3.5zm8.23838 16.25644c-.00116-.0062-.00231-.0124-.00344-.0186-.01167.0064-.02348.0126-.03543.0186zm.94916-4.5674c0-.3455.2848-.6304.6307-.6304h7.3498c.3459 0 .6308.2849.6308.6304v4.0281c0 .5637-.262 1.1301-.6934 1.5614-.4314.4314-.9981.6933-1.562.6933h-4.1005c-.564 0-1.1307-.2619-1.5621-.6933-.4314-.4313-.6933-.9977-.6933-1.5614z" fill-rule="evenodd"/><path d="m17.8431 14.2314c0-1.3996 1.1726-2.5722 2.5722-2.5722.909 0 1.728.4951 2.1883 1.2367.1456.2346.4539.3068.6885.1612s.3068-.4539.1612-.6885c-.6304-1.0156-1.7603-1.7094-3.038-1.7094-1.9519 0-3.5722 1.6203-3.5722 3.5722v.4704c0 .2761.2238.5.5.5.2761 0 .5-.2239.5-.5z"/><path d="m24.1692 14.0999c0 .2762-.2239.5-.5.5-.2762 0-.5-.2238-.5-.5 0-.2761.2238-.5.5-.5.2761 0 .5.2239.5.5z"/></g></svg>