<svg fill="none" height="25" viewBox="0 0 25 25" width="25" xmlns="http://www.w3.org/2000/svg"><path clip-rule="evenodd" d="m6.78516 2.03516c-1.933 0-3.5 1.567-3.5 3.5v13.75644c0 1.933 1.567 3.5 3.5 3.5h11.42924c1.933 0 3.5-1.567 3.5-3.5v-13.75644c0-1.933-1.567-3.5-3.5-3.5zm-2.47859 3.24092c-.00146-.00939-.00317-.01868-.00513-.02786.14233-1.24557 1.20004-2.21306 2.48372-2.21306h11.42924c1.2842 0 2.3422.96825 2.4839 2.21452-.0019.00875-.0035.01758-.0049.02651l-1.84 11.85911c-.0378.2436-.2475.4233-.4941.4233h-3.5243c-.0145-.5245-.4443-.9453-.9723-.9453h-2.7573c-.528 0-.9577.4208-.9722.9453h-3.4897c-.24649 0-.45622-.1797-.49407-.4232z" fill="#18303f" fill-rule="evenodd"/></svg>