<svg fill="none" height="60" viewBox="0 0 61 60" width="61" xmlns="http://www.w3.org/2000/svg"><path clip-rule="evenodd" d="m23.6056 1.56813.0393.00001c1.2397 0 2.0494.81775 2.4721 1.24469l.0662.06665c.0487.04868.0933.10131.1333.15733.9495 1.32926 2.4634 2.07678 3.9467 2.07678 1.6929 0 2.9805-.72495 3.9461-2.07678.04-.05602.0846-.10865.1333-.15733l.0662-.06665c.4227-.42694 1.2324-1.24469 2.4721-1.24469l.0393-.00001c.3273-.00014.7803-.00033 1.2189.07957.4563.08311.9841.26586 1.4403.68641 1.0547.79505 1.9493 1.97314 2.6967 3.28008.7715 1.34907 1.4302 2.91368 1.9658 4.52021.4235 1.2707.7772 2.5895 1.0496 3.8763.1066.184.1676.3976.1676.6256 0 .0546-.0035.1085-.0104.1613.2193 1.1671.368 2.2932.4375 3.3159h3.5232c.6904 0 1.25.5596 1.25 1.25 0 .6903-.5596 1.25-1.25 1.25h-3.4784v3.4774c0 3.4836-1.1123 6.8028-3.1954 9.4682 1.0614.3893 2.5833.6123 4.9028.3966.0385-.0036.0772-.0054.1158-.0054h.2366c.6904 0 1.25.5596 1.25 1.25v.2354c0 .1344-.0216.2678-.0641.3953-.3219.9655-1.2058 2.5686-3.3599 3.915-2.1426 1.3393-5.4634 2.3768-10.59 2.3768-1.7701 0-3.49-.8076-4.7272-2.0499-1.2373 1.2423-2.9572 2.0499-4.7273 2.0499-10.072 0-13.2615-4.2286-13.9493-6.2918-.0425-.1275-.0641-.2609-.0641-.3953v-.2354c0-.6904.5596-1.25 1.25-1.25h.236c.0387 0 .0773.0018.1158.0054 2.0593.1915 3.4899.0372 4.5278-.2722-2.1464-2.6862-3.2937-6.0546-3.2937-9.5926v-3.4774h-3.0036c-.6903 0-1.25-.5597-1.25-1.25 0-.6904.5597-1.25 1.25-1.25h3.0484c.1605-2.364.7447-5.2804 1.6443-7.9791.5356-1.60653 1.1943-3.17114 1.9658-4.52021.7474-1.30694 1.642-2.48503 2.6967-3.28008.4562-.42055.984-.6033 1.4403-.68641.4386-.0799.8916-.07971 1.2189-.07957zm18.9774 11.81817c-.2037-.8204-.4421-1.6491-.7128-2.4613-.4986-1.49556-1.0955-2.90016-1.7643-4.06975-.6769-1.1836-1.3848-2.05111-2.0732-2.55592-.0513-.03763-.0997-.07912-.1446-.12412-.0045-.0045-.0124-.0118-.0354-.02242-.0267-.01229-.0761-.02999-.1617-.04557-.1936-.03527-.4308-.03908-.8101-.03908-.0504 0-.1084.00936-.2226.08547-.1307.08716-.2653.21258-.4781.424-1.3955 1.90436-3.3939 3.03598-5.917 3.03598-2.2642 0-4.499-1.10989-5.917-3.03542-.2131-.21176-.3478-.33733-.4787-.42456-.1142-.07611-.1722-.08547-.2226-.08547-.3793 0-.6165.00381-.8101.03908-.0856.01558-.135.03328-.1617.04557-.023.01062-.0309.01792-.0354.02242-.0449.045-.0933.08649-.1446.12412-.6884.50481-1.3963 1.37232-2.0732 2.55592-.6688 1.16959-1.2657 2.57419-1.7643 4.06975-.2707.8122-.5091 1.6409-.7128 2.4613zm-25.1601 2.5h25.68c.131.7859.2241 1.5369.2769 2.2272h-1.0616-11.8182-.0005-11.8182-1.5353c.0528-.6903.1459-1.4413.2769-2.2272zm13.0768 8.3594c-.2979.4057-.6374.778-1.0055 1.113-1.3013 1.1841-3.0174 1.9632-4.7427 2.1875-1.7251.2243-3.5774-.0966-5.0182-1.2828-1.452-1.1955-2.2872-3.105-2.3018-5.6499h-.3367v3.4774c0 3.1375 1.063 6.075 3.0096 8.3496.2315-.21.4466-.4348.6563-.6707.2089-.2349.3835-.4461.5696-.6711l.0001-.0001.0001-.0001c.1289-.1559.2633-.3184.4184-.5.3455-.4047.7383-.8346 1.2085-1.2189.9918-.8106 2.2316-1.3384 3.9967-1.3384 1.3692 0 2.531.5048 3.48 1.201 1.0453-.8449 2.2728-1.201 3.6109-1.201 1.7652 0 3.005.5278 3.9967 1.3384.4703.3843.8631.8142 1.2086 1.2189.155.1817.2895.3442.4184.5001l.0001.0001.0002.0002v.0001l.0001.0001c.186.2248.3606.4359.5693.6707.1281.1441.2581.284.3927.4189 1.8132-2.2376 2.7999-5.0748 2.7999-8.0978v-1.8284c-.293 1.7338-1.0457 3.0794-2.1649 4.0009-1.4408 1.1862-3.2931 1.5071-5.0182 1.2828-1.7253-.2243-3.4414-1.0034-4.7426-2.1875-.3681-.335-.7077-.7073-1.0056-1.113zm10.5682-3.6322h-9.3172c.0212 1.0844.548 2.087 1.4372 2.8962.9147.8323 2.1531 1.3976 3.3823 1.5574 1.2295.1598 2.3317-.0955 3.1069-.7337.7425-.6113 1.3767-1.7325 1.3908-3.7199zm-21.1364 0h9.3173c-.0212 1.0844-.5481 2.087-1.4372 2.8962-.9147.8323-2.1531 1.3976-3.3824 1.5574-1.2295.1598-2.3317-.0955-3.1068-.7337-.7425-.6113-1.3767-1.7325-1.3909-3.7199zm18.4384 12.8172c.3408.3834.7227.775 1.1739 1.1453.0586.1178.1371.2283.2353.3265.2061.2061.4662.3252.7348.3572.3562.2129.7488.4088 1.1852.5799 1.1172.438 2.4638.6908 4.1446.6999-.334.3519-.7741.7254-1.352 1.0866-1.6394 1.0247-4.4641 1.9967-9.2649 1.9967-1.4046 0-2.8997-.908-3.6419-2.207-.2226-.3895-.6368-.6299-1.0853-.6299-.4486 0-.8628.2404-1.0853.6299-.7423 1.299-2.2374 2.207-3.642 2.207-6.2568 0-9.2165-1.7205-10.563-3.0836 1.6557-.0142 2.9855-.2663 4.0907-.6996 1.5514-.6082 2.5484-1.5304 3.3292-2.4089.2256-.2538.4639-.541.6791-.8004.1239-.1493.2401-.2893.3419-.4085.3119-.3654.5913-.6629.8892-.9065.5446-.4451 1.2253-.7741 2.4147-.7741.9701 0 1.8527.4789 2.6616 1.2877.2514.2514.598.3839.953.3642.355-.0196.6848-.1895.9069-.4672.6797-.8496 1.4827-1.1847 2.5694-1.1847 1.1894 0 1.8701.329 2.4147.7741.298.2436.5773.5411.8892.9065.1013.1186.2169.258.3402.4065l.0013.0016.0004.0004v.0001c.2153.2594.4535.5466.6791.8003zm-7.8699 9.5012c-6.7093 0-12.0091 1.0348-16.0595 2.3883-.4513-.0923-.9199.0735-1.2129.4279-3.59276 1.3366-6.08035 2.8928-7.59871 4.0607l-.01873.0147c-1.45542 1.1644-2.36016 2.9318-2.36016 4.7582v2.6002c0 .6903.55964 1.25 1.25 1.25s1.25-.5597 1.25-1.25v-2.6002c0-1.0068.51035-2.0725 1.41307-2.7989.95934-.7369 2.41534-1.6923 4.42253-2.6373l-2.30784 4.9037c-.24229.5148-.10634 1.1283.33075 1.4925l2.83629 2.3637c.5303.4419 1.3185.3703 1.7605-.1601.4419-.5303.3703-1.3185-.16-1.7605l-2.0942-1.7451 3.0441-6.468c.6955-.2378 1.4334-.4664 2.2147-.6814l4.0887 10.5434c.2496.6436.9737.9631 1.6174.7135.6436-.2497.963-.9738.7134-1.6174l-3.9685-10.2337c3.0486-.644 6.6461-1.0642 10.8391-1.0642 4.093 0 7.6186.4004 10.6201 1.0185l-3.9858 10.2794c-.2496.6437.0699 1.3678.7136 1.6174.6436.2496 1.3677-.0699 1.6173-.7136l4.1107-10.6016c.7064.1902 1.378.3916 2.0154.601l3.2206 6.8432-2.0946 1.7452c-.5303.4419-.6021 1.2301-.1602 1.7605.442.5304 1.2302.6021 1.7605.1602l2.8369-2.3636c.4371-.3643.5731-.9778.3308-1.4926l-2.5157-5.3455c2.2385 1.0106 3.8385 2.0522 4.8673 2.8424.9028.7264 1.4131 1.7921 1.4131 2.7989v2.6002c0 .6903.5596 1.25 1.25 1.25s1.25-.5597 1.25-1.25v-2.6002c0-1.8264-.9047-3.5938-2.3602-4.7582l-.0187-.0147c-3.2873-2.5287-11.1178-6.8769-24.8711-6.8769zm-1.4053 4.2214c.4564-.3259.9595-.4394 1.4059-.4394.6469 0 1.1625.3131 1.4929.5961.3445.2952.6211.6683.8069 1.0401.0446.0891.0784.1833.1006.2805l1.891 8.2727c.1538.673-.267 1.3433-.94 1.4971s-1.3433-.267-1.4971-.94l-1.85-8.093-.0065-.0095-1.8521 8.1025c-.1538.673-.8241 1.0938-1.4971.94s-1.0939-.8241-.94-1.4971l1.891-8.2727c.009-.0395.0199-.0784.0327-.1168.1859-.5576.5024-1.0325.9618-1.3605z" fill="#92a0a9" fill-rule="evenodd"/></svg>