<svg fill="none" height="15" viewBox="0 0 15 15" width="15" xmlns="http://www.w3.org/2000/svg"><g fill="#18303f"><path d="m5.18844 3.45996c-1.0114-.00006-2.00652.34006-3.06597 1.06585-.22781.15606-.539.0979-.69507-.12991-.15606-.22781-.0979-.53901.12991-.69507 1.18575-.81231 2.37433-1.24095 3.6312-1.24087 1.24584.00008 2.50497.42143 3.83986 1.21292 1.02023.49502 1.80703.545 2.37583.4465.2721-.04712.5309.13526.578.40735.0471.2721-.1353.53087-.4074.57798-.8011.13872-1.8063.04332-3.00365-.54222-.01228-.00601-.02431-.01251-.03606-.0195-1.24189-.73909-2.32985-1.08296-3.34665-1.08303z"/><path d="m13.6563 3.81055c0 .27614-.2239.5-.5.5s-.5-.22386-.5-.5c0-.27615.2239-.5.5-.5s.5.22385.5.5z"/><path d="m1.83989 11.4258c.27614 0 .5-.2239.5-.5 0-.2762-.22386-.5-.5-.5s-.5.2238-.5.5c0 .2761.22386.5.5.5z"/><path d="m8.53498 11.4112c-1.88758-1.1234-3.43394-1.3462-4.9489-.7912-.25929.0949-.54649-.0383-.64147-.2976-.09497-.2593.03823-.54646.29753-.64144 1.87279-.68599 3.73142-.35817 5.78612.86004 1.29264.6272 2.21634.5433 2.80564.3345.3038-.1077.5344-.2542.692-.3779.1438-.1129.22-.2015.2311-.2144.0007-.0009.0011-.0014.0013-.0016.0002-.0001.0003-.0003 0 0 .1657-.2209.4789-.2653.6998-.0997.2209.1657.2657.4791.1.7-.0912.1217-.551.6388-1.3902.9361-.8613.3052-2.0693.3597-3.59687-.3873-.01228-.0061-.0243-.0126-.03605-.0195z"/><path d="m2.12247 7.9594c1.05945-.72579 2.05457-1.06591 3.06597-1.06585 1.0168.00007 2.10477.34395 3.34665 1.08303.01175.00699.02378.0135.03606.0195 1.52755.74704 2.73555.69258 3.59685.38739.8392-.29737 1.299-.81441 1.3902-.93609.1657-.22092.1209-.53432-.1-.7-.2209-.16569-.5343-.12091-.7.1.0006-.00078.0002-.00034-.0011.00124-.0111.01291-.0873.10148-.2311.21443-.1576.12373-.3882.27021-.692.37785-.5892.20879-1.513.29278-2.80563-.33443-1.33489-.79149-2.59402-1.21284-3.83986-1.21292-1.25687-.00008-2.44545.42856-3.6312 1.24087-.22781.15607-.28597.46726-.12991.69507.15607.22782.46726.28598.69507.12991z"/></g></svg>