<svg fill="none" height="15" viewBox="0 0 15 15" width="15" xmlns="http://www.w3.org/2000/svg"><g fill="#18303f"><path clip-rule="evenodd" d="m5.81528 5.90866c.60862-1.01648 1.92603-1.34711 2.94251-.73848.75623.45279 1.13398 1.2987 1.02526 2.12257-.04515.34222.19566.65624.53785.7014.3422.04515.6563-.19566.7014-.53787.1716-1.30035-.4233-2.64062-1.62237-3.35856-1.60878-.96327-3.69383-.43998-4.6571 1.16879-.85042 1.4203-.54212 3.21045.64777 4.27395.25737.23003.65247.20786.8825-.0495.23002-.25736.20786-.65247-.0495-.8825-.7514-.67158-.94506-1.80339-.40832-2.6998z" fill-rule="evenodd"/><path d="m1.875 6.93359c0 .34518.27982.625.625.625s.625-.27982.625-.625c0-2.41624 1.95875-4.375 4.375-4.375s4.375 1.95876 4.375 4.375c0 2.35425-1.8595 4.27421-4.18994 4.37121l.06111-.0612c.24408-.244.24408-.6398 0-.8838-.24408-.2441-.6398-.2441-.88388 0l-1.13236 1.1323c-.24407.2441-.24407.6398 0 .8839l1.13236 1.1323c.24408.2441.6398.2441.88388 0 .24408-.244.24408-.6398 0-.8838l-.06862-.0687c3.02445-.0937 5.44745-2.57501 5.44745-5.62221 0-3.1066-2.5184-5.625-5.625-5.625s-5.625 2.5184-5.625 5.625z"/></g></svg>