<svg fill="none" height="15" viewBox="0 0 15 15" width="15" xmlns="http://www.w3.org/2000/svg"><path clip-rule="evenodd" d="m10.003.927489c-.0004.001311-.0022.007626-.00363.022852-.00224.023577-.00262.050979-.00262.106019 0 .0068-.00014.0136-.00041.02039-.02606.63834.42736 1.27874 1.56456 1.65214l-.0009-.00028-.1541.47561.1558-.47504-.0008-.00029c.089.02884.1776.05716.2654.08525.412.13168.808.25824 1.1533.40935.4321.18902.8293.43367 1.1495.82168l-.0011-.00132-.3845.31957.3856-.31825c.3787.4561.5715.962.619 1.50185.0013.01456.0019.02917.0019.04378 0 1.0111-.6494 1.87738-1.5533 2.35193-.184.09664-.4087.0693-.5642-.06865-.1555-.13796-.2095-.35776-.1355-.55203-.0006.00159.0018-.00326.0036-.02283.0023-.02358.0026-.05098.0026-.10602 0-.66707-.5965-1.28886-1.515-1.56709l-.0057-.00173v-.00003c-1.40437-.44377-2.07348-.74931-2.63953-1.40693l.00554.00607.36902-.33737-.37964.32539.00508.00591c-.39845-.43906-.59297-1.00272-.59297-1.55866 0-1.0111.64945-1.877383 1.55328-2.351933.18407-.09664.40872-.069305.56424.068653l.13548.552025m0-.000016c.074-.194269.02-.414055-.13548-.552009zm-.92238.825971c-.21614.27728-.33062.59262-.33062.9053 0 .32792.11537.64804.33656.88999l.01061.01199c.36769.42901.78939.66843 2.18383 1.10922.9051.27492 1.8163.91232 2.1181 1.8517.2242-.27712.3455-.59418.3507-.90949-.0335-.33714-.1521-.64189-.3908-.92915l-.0011-.00132c-.1863-.22568-.4319-.39015-.7791-.54206-.2936-.12849-.6284-.23566-1.0379-.36675v-.00001c-.0925-.0296-.1887-.06042-.2892-.09298l-.0018-.00057c-1.0856-.35626-1.91038-1.02216-2.16928-1.92587zm-6.76311 4.99227c.16031.13354.22084.35259.15184.5495-.00149.00425-.00466.01508-.00685.04012-.0025.02857-.00282.06066-.00282.11821 0 .00625-.00012.01251-.00035.01876-.02697.71832.44128 1.39063 1.51978 1.77566.08588.03026.17153.06002.25658.08957l.00002.00001.00001.00001c.39979.13891.7865.27328 1.12359.43362.42376.20158.80996.46131 1.11908.86841.36431.4771.54665 1.0013.59156 1.5568.00109.0134.00163.0268.00163.0402 0 1.0326-.61156 1.9413-1.49962 2.4482-.1812.1035-.40758.0835-.56789-.0501-.16031-.1335-.22084-.3525-.15184-.5495.00148-.0042.00466-.015.00685-.0401.0025-.0285.00282-.0606.00282-.1182 0-.7471-.60524-1.3978-1.47091-1.6829l-.00607-.002h.00001c-1.3674-.4698-2.02031-.7946-2.569184-1.4879-.38308-.4588-.565746-1.0414-.565746-1.61028 0-1.03258.61156-1.94126 1.49962-2.44817.1812-.10343.40758-.08347.56789.05008zm-.76978 1.45626c-.19252.28561-.29773.61089-.29773.94183 0 .3636.1181.71338.33631.97288l.00997.0122c.35714.4531.76256.7031 2.11065 1.1664.88948.2938 1.75087.9598 2.0469 1.9123.20129-.2869.31338-.6158.31762-.9512-.03327-.3708-.15302-.7027-.38853-1.0108l-.00101-.0013c-.18231-.2401-.41986-.412-.75215-.5701-.28292-.1345-.60523-.2467-1.00233-.385h-.00003c-.08989-.0312-.1836-.0639-.28156-.0984l-.00185-.0006c-1.06096-.37854-1.84127-1.0727-2.09626-1.98821zm3.8838-5.27448c.07401-.19427.02009-.41406-.13543-.55203-.15551-.13796-.38017-.1653-.56423-.06867-1.16357.61088-1.98187 1.71574-1.98187 2.98816 0 .70364.24648 1.41502.74885 1.9677.72188.8394 1.57301 1.23586 3.44466 1.82725l-.00001.00003.00572.00173c1.25619.38048 2.13844 1.25222 2.13844 2.24872 0 .1484-.00491.1936-.01919.2311-.07401.1943-.02008.4141.13543.552.15551.138.38017.1653.56423.0687 1.16357-.6109 1.98187-1.7157 1.98187-2.98814 0-.01462-.0006-.02923-.0019-.04379-.0605-.68781-.3055-1.33027-.7884-1.91152-.4045-.48987-.9087-.80251-1.47033-1.04822-.45181-.19767-.9695-.36316-1.51859-.53869l-.00001-.00001-.00068-.00021c-.11777-.03765-.23698-.07576-.3573-.11475-1.55276-.50975-2.23991-1.41147-2.20087-2.36787.00028-.0068.00042-.0136.00042-.0204 0-.1484.00491-.19361.01919-.23109zm-1.68153 2.36746c0-.55977.24899-1.11286.69888-1.56015.21516 1.28998 1.31108 2.25655 2.85303 2.7625l.00174.00057c.13201.04278.25912.08346.38169.12269.54661.17495 1.0031.32106 1.40321.4961.47707.20872.82984.44136 1.10055.7693l.0011.00132c.3426.41229.5132.85333.5597 1.33831-.0064.56042-.2619 1.11289-.7183 1.55779-.27441-1.33762-1.51544-2.26114-2.78956-2.64789-1.86204-.58849-2.46552-.91881-2.98903-1.52957l-.01062-.01199c-.32508-.35556-.49239-.82338-.49239-1.29898z" fill="#18303f" fill-rule="evenodd"/></svg>