<svg fill="none" height="27" viewBox="0 0 27 27" width="27" xmlns="http://www.w3.org/2000/svg"><g fill="#92a0a9"><path d="m7.99609 1.1543c0-.276146-.22385-.500003-.5-.500003-.27614 0-.5.223857-.5.500003v1.14417c0 .27614.22386.5.5.5.27615 0 .5-.22386.5-.5z"/><path d="m3.37699 2.67281c-.19526-.19526-.51184-.19526-.70711 0-.19526.19527-.19526.51185 0 .70711l.83213.83213c.19526.19526.51185.19526.70711 0s.19526-.51185 0-.70711z"/><path d="m.652344 7.49902c0-.27614.223857-.5.499996-.5h1.14418c.27614 0 .5.22386.5.5 0 .27615-.22386.5-.5.5h-1.14418c-.276139 0-.499996-.22385-.499996-.5z"/><path d="m4.20912 11.5977c.19526-.1953.19526-.5119 0-.7071-.19526-.1953-.51185-.1953-.70711 0l-.83213.8321c-.19526.1953-.19526.5119 0 .7071.19527.1953.51185.1953.70711 0z"/><path d="m7.49609 12.2002c.27615 0 .5.2239.5.5v1.1442c0 .2761-.22385.5-.5.5-.27614 0-.5-.2239-.5-.5v-1.1442c0-.2761.22386-.5.5-.5z"/><path d="m11.5957 10.8896c-.1952-.1953-.5118-.1953-.7071 0-.1952.1953-.1952.5119 0 .7071l.8322.8321c.1952.1953.5118.1953.7071 0 .1952-.1952.1952-.5118 0-.7071z"/><path d="m12.1992 7.49902c0-.27614.2239-.5.5-.5h1.1442c.2761 0 .5.22386.5.5 0 .27615-.2239.5-.5.5h-1.1442c-.2761 0-.5-.22385-.5-.5z"/><path d="m12.4279 3.37992c.1952-.19526.1952-.51184 0-.70711-.1953-.19526-.5119-.19526-.7071 0l-.8322.83213c-.1952.19526-.1952.51185 0 .70711.1953.19526.5119.19526.7071 0z"/><path clip-rule="evenodd" d="m4.08594 7.60287c0-1.95196 1.58777-3.41244 3.41244-3.41244 1.91592 0 3.41242 1.34417 3.41242 3.30843 0 1.95196-1.58775 3.41244-3.41242 3.41244-1.79992 0-3.41244-1.33293-3.41244-3.30843zm3.41244-2.41244c-1.2958 0-2.41244 1.0359-2.41244 2.41244 0 1.35302 1.09189 2.30843 2.41244 2.30843 1.29581 0 2.41244-1.0359 2.41244-2.41244 0-1.36426-.99985-2.30843-2.41244-2.30843z" fill-rule="evenodd"/><path clip-rule="evenodd" d="m15.8219 18.3926c-.2969 0-.5832.1011-.7965.3144-.2133.2134-.3145.4996-.3145.7966v3.7775h-2.2484c-.0683 0-.088-.0203-.0892-.0216-.0012-.0012-.0217-.0211-.0217-.0897v-2.4121c0-.2762-.2239-.5-.5-.5-.2762 0-.5.2238-.5.5v2.4121c0 .2969.1011.5832.3143.7965.2132.2134.4995.3148.7966.3148h9.1648c.2971 0 .5834-.1014.7966-.3148.2132-.2133.3144-.4996.3144-.7965l-.0005-5.3037h1.0274c.2847 0 .5955-.1457.7527-.46.1968-.3937-.0149-.743-.1547-.8828l-.0048-.0047-2.1705-2.1136v-2.7831c0-.2054-.0707-.4155-.2312-.5753-.1602-.1596-.37-.2294-.5743-.2294h-1.222c-.2043 0-.4141.0698-.5744.2294-.1604.1598-.2311.3699-.2311.5753v.1567l-1.7234-1.559c-.3155-.30443-.8027-.30321-1.1168.0037l-6.67961 6.2543c-.19989.1373-.27381.3495-.29101.5041-.01911.1717.01764.3444.0879.4849.15717.3144.46802.46.75272.46h1.5274c.2762 0 .5-.2238.5-.5 0-.2761-.2238-.5-.5-.5h-1.0935l6.2585-5.86 2.4424 2.2093c.1466.1326.3576.1664.5383.0862.1806-.0802.2971-.2593.2971-.457v-1.0879h.833v2.7989c0 .1349.0545.2641.1512.3582l1.9428 1.8918h-1.0442c-.1326 0-.2598.0526-.3535.1464-.0938.0938-.1465.221-.1465.3536l.0006 5.8037c0 .0685-.0204.0884-.0217.0897-.0012.0012-.021.0216-.0893.0216h-2.2505v-3.7775c0-.297-.1011-.5832-.3144-.7966-.2133-.2133-.4996-.3144-.7965-.3144zm-.111 1.111c0-.0686.0204-.0883.0216-.0894.0011-.0012.0209-.0216.0894-.0216h2.444c.0685 0 .0882.0204.0893.0215.0012.0011.0216.0209.0216.0895v3.7768h-2.6659z" fill-rule="evenodd"/><path d="m12.3516 19.0332c0 .2761-.2239.5-.5.5-.2762 0-.5-.2239-.5-.5s.2238-.5.5-.5c.2761 0 .5.2239.5.5z"/></g></svg>