<svg fill="none" height="27" viewBox="0 0 27 27" width="27" xmlns="http://www.w3.org/2000/svg"><g fill="#92a0a9"><path d="m10.3789 15.5498c.2761 0 .5-.2239.5-.5s-.2239-.5-.5-.5-.49999.2239-.49999.5.22389.5.49999.5z"/><path d="m15.2109 18.0645c0-.2762.2239-.5.5-.5h.8723c.2762 0 .5.2238.5.5 0 .2761-.2238.5-.5.5h-.8723c-.2761 0-.5-.2239-.5-.5z"/><path d="m14.3828 18.0645c0 .2761-.2238.5-.5.5-.2761 0-.5-.2239-.5-.5 0-.2762.2239-.5.5-.5.2762 0 .5.2238.5.5z"/><path clip-rule="evenodd" d="m6.73047 6.68883v-.58331c0-.40913.13258-.79148.40461-1.07484.27379-.28521.65079-.43009 1.06013-.43009h1.92949c.4093 0 .7863.14488 1.0601.43009.272.28336.4046.66571.4046 1.07484v.50483h1.4294c.4093 0 .7863.14489 1.0601.43009.272.28337.4046.66572.4046 1.07485v1.50971h2.2974c.7803 0 1.5483.5243 1.8174 1.2252l.0015.0038 1.4676 3.9174 2.6415 1.1007c.9308.173 1.3991 1.0063 1.5119 1.7109l.3724 2.3277c.0344.0293.0676.0605.0993.0936.272.2834.4046.6657.4046 1.0749 0 .4091-.1326.7914-.4046 1.0748-.2738.2852-.6508.4301-1.0601.4301h-1.4785c-.2244 1.1317-1.1943 2.0099-2.3807 2.0099s-2.1561-.8782-2.3805-2.0099h-5.3219l-.0161.0002-.0162-.0002h-2.42774c-.22434 1.1317-1.19403 2.0099-2.3805 2.0099-1.18639 0-2.15641-.8782-2.38082-2.0099h-1.28551c-.84725 0-1.65768-.7187-1.65768-1.7059v-.3015c0-.2584.08434-.5151.27196-.7106.1852-.1929.43449-.2876.69288-.2917v-3.5203c0-.8026.22224-1.4812.53161-2.1257.00542-.0113.01125-.0224.0175-.0332l2.31536-4.01976c.00924-.01603.01928-.03142.03006-.04613v-1.71402c0-.40913.13258-.79148.40461-1.07485.1572-.16374.34842-.28124.56024-.35161zm1-.58331c0-.19383.06037-.31395.12599-.38231.06387-.06652.16924-.12262.33875-.12262h1.92949c.1695 0 .2749.0561.3387.12262.0656.06836.126.18848.126.38231v.50483h-2.85893zm-.50797 1.50487.00797.00006.01024-.0001h.4546v2.01465h-.92969v-1.50971c0-.19384.06038-.31396.126-.38232.06287-.06548.16597-.12087.33088-.12258zm3.8567-.00004.0102.0001.0103-.0001h.455v2.01465h-2.85939v-2.01465zm-2.88389 3.01485-.01253-.0002h-1.72494l-2.16158 3.7528c-.0275.0576-.05386.1149-.07904.172h4.49693c.27615 0 .5.2239.5.5s-.22385.5-.5.5h-4.80392c-.02563.1635-.03914.3307-.03914.5043v3.5201h3.35884c1.18639 0 2.15641.8781 2.38082 2.0099h1.94395v-6.5343c0-.2761.2238-.5.5-.5h1.4297v-3.9248h-1.4172l-.0125.0002-.0125-.0002h-3.83435zm4.35939-1.0002v-2.01465h.4641c.1695 0 .2749.0561.3387.12262.0656.06836.126.18848.126.38232v1.50971zm0 11.9591h4.838c.2244-1.1317 1.1943-2.0099 2.3807-2.0099h3.7532l-.2933-1.8332c-.0776-.4849-.3616-.8349-.7375-.8909-.0408-.006-.0807-.0171-.1188-.033l-2.8942-1.2059c-.0412-.0172-.0796-.0396-.1142-.0665-.0236.0033-.0476.0051-.0721.0051h-6.7418zm1.9297-7.0343h4.4321l-1.2517-3.3411-.0006-.0016c-.1175-.3035-.5065-.5821-.8833-.5821h-2.2965zm3.8594 7.5343c0-.8487.6635-1.5099 1.4296-1.5099s1.4295.6612 1.4295 1.5099c0 .8486-.6636 1.5099-1.4297 1.5099-.766 0-1.4294-.6612-1.4294-1.5099zm5.2886-1.5099h-1.9212c.2153.2947.3691.6386.4427 1.0099h1.4785c.1695 0 .2749-.0561.3387-.1226.0657-.0684.126-.1885.126-.3823 0-.1939-.0603-.314-.126-.3824-.0638-.0665-.1692-.1226-.3387-.1226zm-20.72614 0h2.38594c-.21536.2947-.36917.6386-.44277 1.0099h-1.2855c-.31043 0-.65768-.2863-.65768-.7059v-.3015zm5.75347 1.5099c0-.8486-.66366-1.5099-1.4298-1.5099-.76602 0-1.42947.6612-1.42947 1.5099 0 .8486.66366 1.5099 1.4298 1.5099.76602 0 1.42947-.6612 1.42947-1.5099z" fill-rule="evenodd"/></g></svg>