<svg fill="none" height="26" viewBox="0 0 26 26" width="26" xmlns="http://www.w3.org/2000/svg"><g clip-rule="evenodd" fill="#18303f" fill-rule="evenodd"><path d="m13.1337 5.19598c-3.38144 0-6.18327 2.62272-6.40633 5.99682l-.4799 7.2588c-.05721.8655.62937 1.599 1.49674 1.599h2.96019c.1505 1.2096 1.1823 2.1457 2.4326 2.1457s2.2821-.9361 2.4326-2.1457h2.9536c.8674 0 1.5539-.7335 1.4967-1.599l-.4799-7.2588c-.223-3.3741-3.0249-5.99682-6.4063-5.99682zm1.4225 14.85462h-2.8384c.1404.6548.7225 1.1457 1.4192 1.1457s1.2788-.4909 1.4192-1.1457zm-6.83101-8.7919c.18832-2.8485 2.55371-5.06272 5.40851-5.06272 2.8547 0 5.2202 2.21422 5.4085 5.06272l.4799 7.2589c.0191.2885-.2098.533-.4989.533h-10.77899c-.28912 0-.51799-.2445-.49891-.533z"/><path d="m23.6327 2.05727c.1953-.19526.5119-.19526.7071 0 .1953.19527.1953.51185 0 .70711l-10.2928 10.29282 10.9973 10.9973c.1953.1953.1953.5119 0 .7072-.1953.1952-.5119.1952-.7071 0l-10.9973-10.9974-10.99733 10.9974c-.19526.1952-.51185.1952-.70711 0-.19526-.1953-.19526-.5119 0-.7072l10.99734-10.9973-10.29288-10.29282c-.19527-.19526-.19527-.51184 0-.70711.19526-.19526.51184-.19526.7071 0l10.29288 10.29283z"/></g></svg>