<svg fill="none" height="26" viewBox="0 0 26 26" width="26" xmlns="http://www.w3.org/2000/svg"><g stroke="#92a0a9" stroke-linecap="round" stroke-linejoin="round"><path d="m20.423 12.2724c0-.9568-.7829-1.7397-1.7398-1.7397h-11.30864c-.95689 0-1.73979.7829-1.73979 1.7397v6.1993c0 2.2067 2.03278 4.2395 4.23955 4.2395h6.30918c2.2067 0 4.2395-2.0328 4.2395-4.2395z"/><path d="m8.24683 7.48823c0-2.60969 2.17477-4.78443 4.78447-4.78443s4.7844 2.17474 4.7844 4.78443v3.04467h-9.56887z"/><path d="m13.0307 17.1439c.5765 0 1.0439-.4674 1.0439-1.0439s-.4674-1.0439-1.0439-1.0439-1.0439.4674-1.0439 1.0439.4674 1.0439 1.0439 1.0439z" fill="#92a0a9"/><path d="m13.032 17.1431v1.1309"/></g></svg>