<svg fill="none" height="26" viewBox="0 0 26 26" width="26" xmlns="http://www.w3.org/2000/svg"><g stroke="#92a0a9" stroke-linecap="round" stroke-linejoin="round"><path d="m10.4949 22.9743h-5.59823c-1.87782-.1707-3.24351-1.7071-3.24351-3.5849 0-1.0243.34142-1.8778 1.19498-2.5607.68284-.6828 1.70711-1.0243 2.73138-1.0243.85356-1.7071 2.73138-2.9021 4.60918-2.9021 2.7314 0 5.1214 2.0486 5.2921 4.78.8535-.1707 1.7071 0 2.3899.5121.6829.5121 1.0243 1.3657 1.0243 2.2193 0 .5931 0 1.2219-.8535 2.0485-.5907.572-1.9242.5121-2.6757.5121h-.4786" stroke-miterlimit="10"/><path d="m12.7141 22.9188h-.1254"/><path d="m16.165 5.15065v-2.157"/><path d="m11.8669 6.9806-1.8295-1.82954"/><path d="m10.0391 11.0823h-2.15702"/><path d="m20.6055 15.7158 1.8368 1.8368"/><path d="m22.1665 11.2709h2.2699"/><path d="m20.6055 6.98051 1.8295-1.82945"/><path d="m17.2192 15.4361c1.8172-.4667 3.2275-2.0971 3.2275-4.1614 0-2.45506-1.8413-4.14293-4.2964-4.14293-2.1927 0-4.1068 1.67114-4.2831 3.95203"/></g></svg>