<svg fill="none" height="26" viewBox="0 0 25 26" width="25" xmlns="http://www.w3.org/2000/svg"><path d="m9.68644 19.458c-3.61742-1.1153-6.23063-4.3229-6.23063-8.1059 0-4.70899 4.04919-8.52642 9.04409-8.52642 4.995 0 9.0441 3.81743 9.0441 8.52642 0 3.783-2.6132 6.9906-6.2306 8.1059" stroke="#92a0a9" stroke-linecap="round" stroke-linejoin="round"/><g fill="#92a0a9"><path d="m2.75 19.1431c0-.2762-.22386-.5-.5-.5s-.5.2238-.5.5zm-.5 4.8235h-.5c0 .2761.22386.5.5.5zm6.44118 0v.5c.22302 0 .41908-.1477.4806-.3621zm.98796-3.4429.48056.1379c.0129-.0448.0194-.0912.0194-.1379zm-7.92914-1.3806v4.8235h1v-4.8235zm.5 5.3235h6.44118v-1h-6.44118zm6.92178-.3621.98792-3.4429-.96116-.2758-.98797 3.4429zm1.00732-3.5808v-1.034h-.99996v1.034z"/><path d="m22.25 19.1431c0-.2762.2239-.5.5-.5s.5.2238.5.5zm.5 4.8235h.5c0 .2761-.2239.5-.5.5zm-6.4412 0v.5c-.2237 0-.4201-.1486-.4811-.3638zm-.9779-3.4535-.481.1362c-.0126-.0443-.019-.0902-.019-.1362zm7.9191-1.37v4.8235h-1v-4.8235zm-.5 5.3235h-6.4412v-1h6.4412zm-6.9223-.3638-.9778-3.4535.9621-.2724.9779 3.4535zm-.9968-3.5897v-1.0859h1v1.0859z"/></g></svg>