<svg fill="none" height="26" viewBox="0 0 25 26" width="25" xmlns="http://www.w3.org/2000/svg"><g fill="#18303f" stroke="#18303f" stroke-linecap="round" stroke-linejoin="round"><path d="m8.00826 22.427c1.50901-.4032 1.76194.7152 2.96024.395.3107-.083 1.3196-.4001.9153-1.905-.4044-1.505-1.5812-.5738-2.45552-1.5262-.94245-1.029-1.20408-2.0028-2.66871-1.6114-1.46462.3914-1.24738 1.377-1.50326 2.7263-.27966 1.2608-1.76574 1.0412-1.36141 2.5461.40434 1.505 1.43704 1.2764 1.74771 1.1934 1.19833-.3202.85665-1.4149 2.36565-1.8182z"/><path d="m3.49038 18.8902c.13081.4869-.1616.992-.64981 1.1225s-.99468-.1612-1.1255-.6481l-.23784-.8852c-.13082-.4869.16159-.992.6498-1.1225s.99469.1612 1.1255.6481z"/><path d="m5.38076 15.3014c.13081.4869-.1616.992-.64981 1.1224-.48821.1305-.99468-.1611-1.1255-.648l-.23784-.8853c-.13082-.4869.16159-.992.6498-1.1225.48821-.1304.99469.1612 1.1255.6481z"/><path d="m10.1477 17.1111c.1308.4869.6373.7785 1.1255.6481.4882-.1305.7806-.6356.6498-1.1225l-.2379-.8853c-.1308-.4869-.6372-.7785-1.1255-.648-.4882.1304-.78057.6355-.64976 1.1224z"/><path d="m6.71178 14.9456c.13081.4869.63729.7785 1.12549.648.48821-.1304.78063-.6355.64981-1.1224l-.23784-.8853c-.13082-.4869-.63729-.7785-1.1255-.6481-.48821.1305-.78063.6356-.64981 1.1225z"/><path d="m16.9918 11.3326c1.5091.4033 1.1674 1.498 2.3657 1.8182.3107.0831 1.3434.3116 1.7477-1.1934.4043-1.5049-1.0817-1.2853-1.3614-2.54608-.3003-1.36115-.0386-2.33495-1.5033-2.72634-1.4646-.39139-1.7706.57055-2.6687 1.61147-.8743.9524-2.0511.02117-2.4555 1.52612-.4043 1.50493.6046 1.82203.9153 1.90503 1.1983.3202 1.4512-.7982 2.9602-.395z"/><path d="m14.8523 6.0168c-.1308.48689-.6372.77852-1.1255.64806-.4882-.13047-.7806-.63558-.6498-1.12248l.2379-.88526c.1308-.4869.6373-.77853 1.1255-.64806.4882.13046.7806.63557.6498 1.12247z"/><path d="m18.2884 3.85139c-.1308.4869-.6373.77853-1.1255.64806-.4882-.13046-.7806-.63557-.6498-1.12247l.2378-.88527c.1308-.48689.6373-.77852 1.1255-.64806.4882.13047.7806.63558.6498 1.12247z"/><path d="m21.5097 7.79592c-.1309.4869.1616.99201.6498 1.12248.4882.13046.9947-.16117 1.1255-.64806l.2378-.88527c.1308-.4869-.1616-.99201-.6498-1.12247-.4882-.13047-.9947.16116-1.1255.64806z"/><path d="m19.6198 4.20718c-.1308.4869.1616.99201.6498 1.12247.4882.13047.9947-.16116 1.1255-.64806l.2378-.88526c.1308-.4869-.1616-.99201-.6498-1.12248-.4882-.13046-.9947.16117-1.1255.64806z"/></g></svg>