<svg fill="none" height="26" viewBox="0 0 26 26" width="26" xmlns="http://www.w3.org/2000/svg"><g stroke="#92a0a9"><path d="m4.37085 17.8442c0-1.3807 1.11929-2.5 2.5-2.5h11.73235c1.3808 0 2.5 1.1193 2.5 2.5v.2558c0 .2761-.2238.5-.5.5h-15.73235c-.27614 0-.5-.2239-.5-.5z"/><path d="m12.637 9.67514v5.38366" stroke-linecap="round" stroke-linejoin="round"/><path d="m9.44605 7.6535c0 1.38072-1.11929 2.5-2.50001 2.5h-3.57549c-1.38071 0-2.499999-1.11928-2.499999-2.5v-.25577c0-.27614.223859-.5.499999-.5h7.5755c.27614 0 .5.22386.5.5z"/><rect fill="#92a0a9" height="1.12789" rx=".5" width="2.19183" x="4.06323" y="11.1535"/><path d="m4.62622 10.6671c2.02098 1.4444 3.14048 1.6082 5.31972 0 1.05926-.71781 1.87656-1.06562 2.65986-1.07774" stroke-linecap="round" stroke-linejoin="round"/><path d="m16.0278 7.65253c0 1.38071 1.1193 2.49997 2.5 2.49997h3.5755c1.3807 0 2.5-1.11926 2.5-2.49997v-.25578c0-.27614-.2238-.5-.5-.5h-7.5755c-.2761 0-.5.22386-.5.5z"/><rect fill="#92a0a9" height="1.12789" rx=".5" transform="matrix(-1 0 0 1 20.9106 10.6525)" width="2.19183" x="-.5" y=".5"/><path d="m20.8474 10.6661c-2.021 1.4444-3.1405 1.6082-5.3197 0-1.0592-.71779-1.8766-1.0656-2.6599-1.07772" stroke-linecap="round" stroke-linejoin="round"/><circle cx="12.582" cy="7.89612" r="1"/></g></svg>