<svg fill="none" height="25" viewBox="0 0 25 25" width="25" xmlns="http://www.w3.org/2000/svg"><g stroke="#92a0a9"><g stroke-linecap="round" stroke-linejoin="round"><path d="m16.1717 4.81365c-1.166-.55174-2.4695-.86034-3.845-.86034-4.9706 0-9.00004 4.02944-9.00004 8.99999 0 4.9706 4.02944 9 9.00004 9 4.4356 0 8.1218-3.2088 8.8638-7.4318"/><path d="m23.8824 12.9533c0 6.3828-5.1743 11.5572-11.5572 11.5572-6.38281 0-11.557134-5.1744-11.557134-11.5572 0-6.38286 5.174324-11.55718 11.557134-11.55718 1.5666 0 3.0604.31169 4.4227.87644"/><path d="m12.3289 21.9147v-.9434"/><path d="m12.3289 3.98773v.94347"/><path d="m8.65186 21.1576.37738-.8493"/><path d="m16.0117 21.1576-.3774-.8493"/><path d="m3.36719 12.9514h.94346"/><path d="m4.12207 16.4416.84913-.3775"/><path d="m18.6534 19.2731-.6605-.6606"/><path d="m15.726 4.6488-.3774.84903"/><path d="m8.93359 4.6488.3774.84903"/><path d="m6.01147 6.63007.66044.6606"/><path d="m6.01147 19.2731.66044-.6606"/><path d="m20.5359 16.4416-.8491-.3775"/><path d="m4.02441 9.5531.84912.37752"/></g><circle cx="12.328" cy="12.953" fill="#18303f" r=".5" stroke-width=".778027"/><path d="m12.6151 11.0068c.1309-.3365.5643-.4276.8196-.1723l1.1227 1.1227c.2553.2553.1642.6887-.1723.8196l-.7448.2896c-.2874.1118-.5334.3094-.7044.566l-1.1071 1.6605c-.0293.0441-.0655.0831-.1071.1158l-3.71275 2.9172-1.12412.8832c-.46506.3655-1.06747-.237-.70207-.702l.88324-1.1241 2.91718-3.7128c.03272-.0416.07182-.0778.11582-.1071l1.6605-1.1071c.2566-.171.4542-.417.566-.7044z"/></g><circle cx="10.5" cy="18.8961" fill="#92a0a9" r=".5"/><circle cx="14.5" cy="18.8961" fill="#92a0a9" r=".5"/><path d="m19.9241 1.53626c0-.07007-.0701-.14014-.2103-.14014-.07 0-.1401.07007-.2102.14014-.7708 1.3313-3.5036 5.88578-3.5036 7.6375 0 2.03204 1.6817 3.71364 3.7138 3.71364s3.7139-1.6816 3.7139-3.71364c.0701-1.75172-2.6628-6.37626-3.5036-7.6375z" stroke="#92a0a9" stroke-linecap="round" stroke-linejoin="round"/></svg>