<svg fill="none" height="26" viewBox="0 0 25 26" width="25" xmlns="http://www.w3.org/2000/svg"><g stroke="#92a0a9"><path d="m23.5 1.88176v21.51434c0 .2762-.2239.5-.5.5h-20.65378c-.44055 0-.66579-.5284-.3607-.8462l20.65378-21.5144-.3607-.34627.3607.34627c.3119-.32491.8607-.10412.8607.34626z"/><path d="m18.5 13.0263v5.3698c0 .2762-.2239.5-.5.5h-4.7732c-.4314 0-.6603-.5097-.3737-.8322l4.7732-5.3698c.3054-.3436.8737-.1275.8737.3322z"/><g stroke-linecap="round" stroke-linejoin="round"><path d="m21.5 5.89612h2"/><path d="m21.5 7.89612h2"/><path d="m21.5 9.89612h2"/><path d="m21.5 11.8961h2"/><path d="m21.5 13.8961h2"/><path d="m21.5 15.8961h2"/><path d="m21.5 17.8961h2"/><path d="m21.5 19.8961h2"/><path d="m21.5 21.8961h2"/></g></g></svg>