<svg fill="none" height="40" viewBox="0 0 40 40" width="40" xmlns="http://www.w3.org/2000/svg"><path clip-rule="evenodd" d="m14.4 3.2c-2.651 0-4.8 2.14903-4.8 4.8v19.2c0 2.651 2.149 4.8 4.8 4.8h-4.8c-.88366 0-1.6.7163-1.6 1.6v1.6c0 .8836.71634 1.6 1.6 1.6h19.2c1.7673 0 3.2-1.4327 3.2-3.2 0-.8837-.7163-1.6-1.6-1.6h-4.8c2.651 0 4.8-2.149 4.8-4.8v-16c0-4.41828-3.5817-8-8-8z" fill="#f0faff" fill-rule="evenodd"/><path clip-rule="evenodd" d="m14.4001 3.2c-2.651 0-4.8 2.14903-4.8 4.8v1.6 19.2c0 1.7673 1.4327 3.2 3.2 3.2h3.2v-17.6c0-2.651 2.149-4.8 4.8-4.8h8.8c0-3.53463-3.6654-6.4-7.2-6.4h-6.4z" fill="#d9eef9" fill-rule="evenodd"/><g fill="#2d3436"><path d="m15.7923 24.3911c.4418 0 .8-.3582.8-.8s-.3582-.8-.8-.8-.8.3582-.8.8.3582.8.8.8z"/><path clip-rule="evenodd" d="m10.2008 31.1006c-.50211-.6685-.79967-1.4995-.79967-2.4v-21.60059c0-2.20914 1.79087-4 3.99997-4h10.0005c3.9764 0 7.2 3.22355 7.2 7.19999v18.4006c0 .9005-.2976 1.7315-.7997 2.4h1.3987c1.2151 0 2.2.985 2.2 2.2001 0 1.9882-1.6118 3.6-3.6 3.6h-20.30046c-1.60165 0-2.90004-1.2984-2.90004-2.9 0-1.6017 1.29839-2.9001 2.90004-2.9001zm3.2003 0h13.2005c1.3254 0 2.4-1.0745 2.4-2.4v-18.4006c0-3.09279-2.5072-5.59999-5.6-5.59999h-10.0005c-1.3254 0-2.4 1.07451-2.4 2.4v8.60089h1.5982c2.2091 0 4 1.7908 4 4v1.3414c0 .4418-.3582.8-.8.8-.4419 0-.8-.3582-.8-.8v-1.3414c0-1.3255-1.0746-2.4-2.4-2.4h-1.5982v11.3997c0 1.3255 1.0746 2.4 2.4 2.4zm-3.90096 1.6c-.71799 0-1.30004.5821-1.30004 1.3001s.58205 1.3 1.30004 1.3h20.30046c1.1046 0 2-.8954 2-2 0-.3314-.2686-.6001-.6-.6001z" fill-rule="evenodd"/></g></svg>