<svg fill="none" height="25" viewBox="0 0 25 25" width="25" xmlns="http://www.w3.org/2000/svg"><g fill="#2d3436"><path d="m9.87012 15.2444c.27618 0 .49998-.2238.49998-.5 0-.2761-.2238-.5-.49998-.5-.27615 0-.5.2239-.5.5 0 .2762.22385.5.5.5z"/><path clip-rule="evenodd" d="m6.37547 19.4379c-.31385-.4178-.49982-.9372-.49982-1.5v-13.5004c0-1.38071 1.11929-2.5 2.5-2.5h6.25025c2.4853 0 4.5 2.01472 4.5 4.5v11.5004c0 .5628-.186 1.0822-.4998 1.5h.8742c.7594 0 1.375.6156 1.375 1.375 0 1.2427-1.0073 2.25-2.25 2.25h-12.68777c-1.00103 0-1.81253-.8115-1.81253-1.8125s.8115-1.8125 1.81253-1.8125zm2.00018 0h8.25025c.8284 0 1.5-.6716 1.5-1.5v-11.5004c0-1.933-1.567-3.5-3.5-3.5h-6.25025c-.82843 0-1.5.67157-1.5 1.5v5.37555h.99883c1.38071 0 2.50002 1.11925 2.50002 2.49995v.8384c0 .2762-.2239.5-.50002.5-.27614 0-.5-.2238-.5-.5v-.8384c0-.8284-.67157-1.5-1.5-1.5h-.99883v7.1249c0 .8284.67157 1.5 1.5 1.5zm-2.43812 1c-.44875 0-.81253.3638-.81253.8125 0 .4488.36378.8125.81253.8125h12.68777c.6904 0 1.25-.5596 1.25-1.25 0-.2071-.1679-.375-.375-.375z" fill-rule="evenodd"/></g></svg>