<svg fill="none" height="40" viewBox="0 0 40 40" width="40" xmlns="http://www.w3.org/2000/svg"><path clip-rule="evenodd" d="m14.4001 3.2c-2.651 0-4.8 2.14903-4.8 4.8v6.4h-1.6c-3.53462 0-6.4 2.8654-6.4 6.4v11.2c0 2.651 2.14903 4.8 4.8 4.8h8 1.6 12.8c5.3019 0 9.6-4.2981 9.6-9.6v-19.2c0-2.65097-2.149-4.8-4.8-4.8z" fill="#f0faff" fill-rule="evenodd"/><path clip-rule="evenodd" d="m9.6001 8c0-2.65097 2.149-4.8 4.8-4.8h1.6 17.6c2.651 0 4.8 2.14903 4.8 4.8v1.6h-19.2c-1.7673 0-3.2 1.4327-3.2 3.2v1.8016c2.7604.7105 4.8 3.2163 4.8 6.1984h-9.6c-1.76731 0-3.2 1.4327-3.2 3.2v12.8h-1.6c-2.65097 0-4.8-2.149-4.8-4.8v-11.2c0-3.5346 2.86538-6.4 6.4-6.4h1.6z" fill="#d9eef9" fill-rule="evenodd"/><g fill="#2d3436"><path d="m13.906 20.7827c0-.4418.3582-.8.8-.8h2.6087c.4418 0 .8.3582.8.8 0 .4419-.3582.8-.8.8h-2.6087c-.4418 0-.8-.3581-.8-.8z"/><path d="m13.906 24.9567c0-.4419.3582-.8.8-.8h2.6087c.4418 0 .8.3581.8.8 0 .4418-.3582.8-.8.8h-2.6087c-.4418 0-.8-.3582-.8-.8z"/><path d="m13.906 29.1306c0-.4419.3582-.8.8-.8h2.6087c.4418 0 .8.3581.8.8 0 .4418-.3582.8-.8.8h-2.6087c-.4418 0-.8-.3582-.8-.8z"/><path d="m9.26724 32.2932c0 .4418-.35818.8-.8.8-.44183 0-.8-.3582-.8-.8 0-.4419.35817-.8.8-.8.44182 0 .8.3581.8.8z"/><path clip-rule="evenodd" d="m9.26724 8.92188c0-3.97645 3.22356-7.2 7.19996-7.2h15.47c3.9764 0 7.2 3.22355 7.2 7.2v18.55212c0 5.7438-4.6563 10.4-10.4 10.4h-5.2614c-.4418 0-.8-.3581-.8-.8 0-.4418.3582-.8.8-.8h3.8528v-5.4527c0-.4419-.3582-.8-.8-.8h-3.1117c-.4418 0-.8-.3582-.8-.8 0-.4419.3582-.8.8-.8h3.1117c1.3255 0 2.4 1.0745 2.4 2.4v5.4507c4.7717-.1018 8.6086-4.0018 8.6086-8.798v-18.55212c0-3.0928-2.5072-5.6-5.6-5.6h-15.47c-3.0928 0-5.6 2.5072-5.6 5.6v.62331h10.9792c.4418 0 .8.35817.8.80001 0 .4418-.3582.8-.8.8h-10.9792v2.5767h3.178c3.9764 0 7.2 3.2235 7.2 7.2v9.7739c0 4.1878-3.3949 7.5826-7.5827 7.5826h-5.59995c-3.97645 0-7.200001-3.2236-7.200001-7.2v-10.2957c0-3.8996 3.161261-7.0608 7.060871-7.0608h1.34382zm-6.74651 11.06082h6.96791c.44182 0 .79996.3582.79996.8 0 .4419-.35814.8-.79996.8h-7.02609v2.574h2.85217c.44183 0 .8.3581.8.8 0 .4418-.35817.8-.8.8h-2.85217v5.3217c0 2.9524 2.28474 5.3712 5.18261 5.5847v-2.1142c0-.4418.35817-.8.8-.8.44182 0 .8.3582.8.8v2.1295h3.61734v-2.8174c0-.4418-.3581-.8-.8-.8h-1.3348c-.4419 0-.80003-.3582-.80003-.8s.35813-.8.80003-.8h1.3348c1.3255 0 2.4 1.0745 2.4 2.4v2.7644c2.9259-.391 5.1827-2.8968 5.1827-5.9296v-9.7739c0-3.0928-2.5072-5.6-5.6-5.6h-6.12178c-2.7442 0-5.01562 2.0241-5.40269 4.6608z" fill-rule="evenodd"/><path d="m28.8991 10.3452c0-.44184.3582-.80001.8-.80001h3.9264c.4419 0 .8.35817.8.80001 0 .4418-.3581.8-.8.8h-3.9264c-.4418 0-.8-.3582-.8-.8z"/><path d="m28.8991 16.6274c0-.4418.3582-.8.8-.8h3.9264c.4419 0 .8.3582.8.8s-.3581.8-.8.8h-3.9264c-.4418 0-.8-.3582-.8-.8z"/><path d="m28.8991 22.9096c0-.4418.3582-.8.8-.8h3.9264c.4419 0 .8.3582.8.8s-.3581.8-.8.8h-3.9264c-.4418 0-.8-.3582-.8-.8z"/><path d="m21.1354 37.0888c0 .4336-.3516.7852-.7853.7852s-.7852-.3516-.7852-.7852c0-.4337.3515-.7853.7852-.7853s.7853.3516.7853.7853z"/></g></svg>