<svg fill="none" height="25" viewBox="0 0 25 25" width="25" xmlns="http://www.w3.org/2000/svg"><g fill="#2d3436"><path d="m8.69124 12.9892c0-.2761.22385-.5.5-.5h1.63046c.2761 0 .5.2239.5.5 0 .2762-.2239.5-.5.5h-1.63046c-.27615 0-.5-.2238-.5-.5z"/><path d="m8.69124 15.5979c0-.2761.22385-.5.5-.5h1.63046c.2761 0 .5.2239.5.5 0 .2762-.2239.5-.5.5h-1.63046c-.27615 0-.5-.2238-.5-.5z"/><path d="m8.69124 18.2066c0-.2761.22385-.5.5-.5h1.63046c.2761 0 .5.2239.5.5s-.2239.5-.5.5h-1.63046c-.27615 0-.5-.2239-.5-.5z"/><path d="m5.79199 20.1832c0 .2762-.22386.5-.5.5s-.5-.2238-.5-.5c0-.2761.22386-.5.5-.5s.5.2239.5.5z"/><path clip-rule="evenodd" d="m5.79199 5.57617c0-2.48528 2.01472-4.5 4.50001-4.5h9.6687c2.4853 0 4.5 2.01472 4.5 4.5v11.59513c0 3.5898-2.9101 6.5-6.5 6.5h-3.2883c-.2762 0-.5-.2239-.5-.5 0-.2762.2238-.5.5-.5h2.4079v-3.408c0-.2762-.2238-.5-.5-.5h-1.9447c-.2762 0-.5-.2239-.5-.5 0-.2762.2238-.5.5-.5h1.9447c.8285 0 1.5.6716 1.5 1.5v3.4067c2.9824-.0637 5.3804-2.5011 5.3804-5.4987v-11.59513c0-1.93299-1.567-3.5-3.5-3.5h-9.6687c-1.933 0-3.50001 1.56701-3.50001 3.5v.38957h6.86201c.2761 0 .5.22386.5.5 0 .27615-.2239.5-.5.5h-6.86201v1.61043h1.9862c2.48531 0 4.50001 2.01473 4.50001 4.50003v6.1087c0 2.6173-2.1218 4.7391-4.73914 4.7391h-3.5c-2.48528 0-4.499998-2.0147-4.499998-4.5v-6.4348c0-2.4372 1.975788-4.41303 4.413038-4.41303h.83989zm-4.21656 6.91303h4.35494c.27614 0 .5.2239.5.5 0 .2762-.22386.5-.5.5h-4.39131v1.6087h1.78261c.27614 0 .5.2239.5.5 0 .2762-.22386.5-.5.5h-1.78261v3.3261c0 1.8452 1.42797 3.357 3.23913 3.4904v-1.3213c0-.2762.22386-.5.5-.5.27615 0 .5.2238.5.5v1.3309h2.26087v-1.7609c0-.2761-.22386-.5-.5-.5h-.8343c-.27614 0-.5-.2238-.5-.5 0-.2761.22386-.5.5-.5h.8343c.82843 0 1.5.6716 1.5 1.5v1.7278c1.82864-.2444 3.23914-1.8105 3.23914-3.706v-6.1087c0-1.933-1.567-3.50003-3.50001-3.50003h-3.82609c-1.71512 0-3.13476 1.26513-3.37667 2.91303z" fill-rule="evenodd"/><path d="m18.0619 6.46574c0-.27614.2239-.5.5-.5h2.454c.2762 0 .5.22386.5.5 0 .27615-.2238.5-.5.5h-2.454c-.2761 0-.5-.22385-.5-.5z"/><path d="m18.0619 10.3921c0-.2761.2239-.49998.5-.49998h2.454c.2762 0 .5.22388.5.49998 0 .2762-.2238.5-.5.5h-2.454c-.2761 0-.5-.2238-.5-.5z"/><path d="m18.0619 14.3185c0-.2761.2239-.5.5-.5h2.454c.2762 0 .5.2239.5.5s-.2238.5-.5.5h-2.454c-.2761 0-.5-.2239-.5-.5z"/><path d="m13.2096 23.1805c0 .271-.2197.4908-.4908.4908s-.4908-.2198-.4908-.4908c0-.2711.2197-.4908.4908-.4908s.4908.2197.4908.4908z"/></g></svg>