<svg fill="none" height="80" viewBox="0 0 80 80" width="80" xmlns="http://www.w3.org/2000/svg"><path clip-rule="evenodd" d="m28.8 6.39999c-5.302 0-9.6 4.29811-9.6 9.60001v12.8h-3.2c-7.06929 0-12.80005 5.7307-12.80005 12.8v22.4c0 5.3019 4.29807 9.6 9.60005 9.6h16 3.2 25.6c10.6038 0 19.2-8.5961 19.2-19.2v-38.4c0-5.3019-4.2981-9.60001-9.6-9.60001z" fill="#f0faff" fill-rule="evenodd"/><path clip-rule="evenodd" d="m19.2 16c0-5.3019 4.298-9.60001 9.6-9.60001h3.2 35.2c5.3019 0 9.6 4.29811 9.6 9.60001v3.2h-38.4c-3.5347 0-6.4 2.8654-6.4 6.4v3.6032c5.5207 1.421 9.6 6.4325 9.6 12.3968h-19.2c-3.5347 0-6.4 2.8654-6.4 6.4v25.6h-3.2c-5.30198 0-9.60005-4.2981-9.60005-9.6v-22.4c0-7.0693 5.73076-12.8 12.80005-12.8h3.2z" fill="#d9eef9" fill-rule="evenodd"/><g fill="#2d3436"><path d="m27.8123 41.5655c0-.8836.7163-1.6 1.6-1.6h5.2174c.8836 0 1.6.7164 1.6 1.6 0 .8837-.7164 1.6-1.6 1.6h-5.2174c-.8837 0-1.6-.7163-1.6-1.6z"/><path d="m27.8123 49.9133c0-.8836.7163-1.6 1.6-1.6h5.2174c.8836 0 1.6.7164 1.6 1.6 0 .8837-.7164 1.6-1.6 1.6h-5.2174c-.8837 0-1.6-.7163-1.6-1.6z"/><path d="m27.8123 58.2612c0-.8837.7163-1.6 1.6-1.6h5.2174c.8836 0 1.6.7163 1.6 1.6 0 .8836-.7164 1.6-1.6 1.6h-5.2174c-.8837 0-1.6-.7164-1.6-1.6z"/><path d="m18.5347 64.5863c0 .8837-.7163 1.6-1.6 1.6-.8836 0-1.6-.7163-1.6-1.6 0-.8836.7164-1.6 1.6-1.6.8837 0 1.6.7164 1.6 1.6z"/><path clip-rule="evenodd" d="m18.5347 17.8438c0-7.95293 6.4471-14.40003 14.4-14.40003h30.9399c7.9529 0 14.4 6.4471 14.4 14.40003v37.1043c0 11.4875-9.3125 20.8-20.8 20.8h-10.5227c-.8837 0-1.6-.7164-1.6-1.6 0-.8837.7163-1.6 1.6-1.6h7.7055v-10.9055c0-.8837-.7163-1.6-1.6-1.6h-6.2233c-.8836 0-1.6-.7164-1.6-1.6 0-.8837.7164-1.6 1.6-1.6h6.2233c2.651 0 4.8 2.149 4.8 4.8v10.9014c9.5435-.2037 17.2172-8.0036 17.2172-17.5959v-37.1043c0-6.1856-5.0144-11.20003-11.2-11.20003h-30.9399c-6.1856 0-11.2 5.01443-11.2 11.20003v1.2466h21.9583c.8837 0 1.6.7163 1.6 1.6s-.7163 1.6-1.6 1.6h-21.9583v5.1534h6.3559c7.9529 0 14.4 6.4471 14.4 14.4v19.5478c0 8.3755-6.7897 15.1652-15.1653 15.1652h-11.2c-7.95285 0-14.39996-6.4471-14.39996-14.4v-20.5913c0-7.7992 6.32252-14.1217 14.12176-14.1217h2.6876zm-13.49299 22.1217h13.93579c.8837 0 1.6.7164 1.6 1.6 0 .8837-.7163 1.6-1.6 1.6h-14.05216v5.1478h5.70436c.8836 0 1.6.7164 1.6 1.6 0 .8837-.7164 1.6-1.6 1.6h-5.70436v10.6435c0 5.9048 4.56949 10.7423 10.36526 11.1694v-4.2284c0-.8836.7163-1.6 1.6-1.6.8836 0 1.6.7164 1.6 1.6v4.259h7.2347v-5.6348c0-.8836-.7163-1.6-1.6-1.6h-2.6697c-.8837 0-1.6-.7163-1.6-1.6 0-.8836.7163-1.6 1.6-1.6h2.6697c2.651 0 4.8 2.1491 4.8 4.8v5.5288c5.8517-.782 10.3653-5.7935 10.3653-11.8592v-19.5478c0-6.1856-5.0144-11.2-11.2-11.2h-12.2435c-5.4884 0-10.03126 4.0483-10.80539 9.3217z" fill-rule="evenodd"/><path d="m57.7985 20.6904c0-.8837.7164-1.6 1.6-1.6h7.8528c.8836 0 1.6.7163 1.6 1.6s-.7164 1.6-1.6 1.6h-7.8528c-.8836 0-1.6-.7163-1.6-1.6z"/><path d="m57.7985 33.2548c0-.8836.7164-1.6 1.6-1.6h7.8528c.8836 0 1.6.7164 1.6 1.6 0 .8837-.7164 1.6-1.6 1.6h-7.8528c-.8836 0-1.6-.7163-1.6-1.6z"/><path d="m57.7985 45.8192c0-.8836.7164-1.6 1.6-1.6h7.8528c.8836 0 1.6.7164 1.6 1.6 0 .8837-.7164 1.6-1.6 1.6h-7.8528c-.8836 0-1.6-.7163-1.6-1.6z"/><path d="m42.2711 74.1775c0 .8674-.7032 1.5706-1.5706 1.5706s-1.5705-.7032-1.5705-1.5706.7031-1.5705 1.5705-1.5705 1.5706.7031 1.5706 1.5705z"/></g></svg>