<svg fill="none" height="24" viewBox="0 0 24 24" width="24" xmlns="http://www.w3.org/2000/svg"><path d="m12 9c.7956 0 1.5587.31607 2.1213.87868.5626.56262.8787 1.32572.8787 2.12132s-.3161 1.5587-.8787 2.1213-1.3257.8787-2.1213.8787-1.5587-.3161-2.12132-.8787c-.56261-.5626-.87868-1.3257-.87868-2.1213s.31607-1.5587.87868-2.12132c.56262-.56261 1.32572-.87868 2.12132-.87868zm0-4.5c4.5806 0 8.5486 2.61017 10.5121 6.4235.3479.6754.3479 1.4776 0 2.153-1.9635 3.8133-5.9315 6.4235-10.5121 6.4235-4.58062 0-8.54857-2.6102-10.51215-6.4235-.3478-.6754-.3478-1.4776 0-2.153 1.96358-3.81333 5.93153-6.4235 10.51215-6.4235zm-8.34401 6.6412c-.32684.5262-.32684 1.1914 0 1.7176 1.77742 2.8616 4.91519 4.6412 8.34401 4.6412 3.4288 0 6.5666-1.7796 8.344-4.6412.3268-.5262.3268-1.1914 0-1.7176-1.7774-2.86158-4.9152-4.6412-8.344-4.6412-3.42882 0-6.56659 1.77963-8.34401 4.6412z" fill="#2d3436"/></svg>