<svg fill="none" height="25" viewBox="0 0 25 25" width="25" xmlns="http://www.w3.org/2000/svg"><g fill="#2d3436"><path d="m9.53125 5.50775c0-.30116.26062-.59652.78185-.8861.5328-.30115 1.1583-.45173 1.8764-.45173 1.0425 0 1.8475.28957 2.4151.86872.5791.57914.8687 1.32045.8687 2.22392 0 .49806-.0985.97875-.2954 1.44207-.1853.45173-.388.79922-.6081 1.04246-.2085.24324-.4749.52121-.7992.83401-.3243.3011-.527.5038-.6081.6081-.2664.2895-.4344.6139-.5039.9729-.0695.3591-.1042.9151-.1042 1.668 0 .2664-.1564.3996-.4691.3996-.3128 0-.4691-.168-.4691-.5039 0-.8919.0637-1.5463.1911-1.9633.1274-.4286.3127-.7818.556-1.0598.0926-.0927.2953-.2838.6081-.5734.3243-.30113.5733-.55016.7471-.74707.1737-.19691.3417-.48069.5038-.85135.1738-.37065.2606-.76447.2606-1.18145 0-.69498-.2027-1.23937-.6081-1.63319s-.9845-.59073-1.7374-.59073c-.4517 0-.8282.07529-1.1293.22587-.2896.13899-.5097.27799-.6603.41698-.1505.139-.2779.20849-.38219.20849-.10425 0-.2027-.04054-.29536-.12162-.09267-.09266-.139-.20849-.139-.34748z"/><path d="m12.6984 16.4088c0 .3126-.2534.566-.566.566s-.566-.2534-.566-.566.2534-.566.566-.566.566.2534.566.566z"/><path clip-rule="evenodd" d="m9.9433 0c-5.306 0-9.607362 4.30136-9.607362 9.60736 0 4.79124 3.506702 8.76244 8.093602 9.48874.22648.0358.42197.1912.50962.4072 1.30764 3.2226 4.46904 5.4965 8.16274 5.4965.4843 0 .8339-.3026.9796-.6714.1411-.3572.103-.7935-.1527-1.1412-.7716-1.0488-1.2868-2.297-1.4542-3.6532-.0238-.1929.1285-.437.4512-.5006 4.4125-.869 7.7408-4.7583 7.7408-9.42604 0-5.306-4.3013-9.60736-9.6073-9.60736zm-8.60736 9.60736c0-4.75371 3.85364-8.60736 8.60736-8.60736h5.116c4.7537 0 8.6073 3.85365 8.6073 8.60736 0 4.18084-2.9812 7.66644-6.9341 8.44494-.7.1379-1.3543.7626-1.2504 1.6042.189 1.5311.7709 2.9403 1.6411 4.1233.0444.0604.0475.1323.0282.1812-.0088.0223-.0189.0312-.0219.0334 0 0-.0055.0054-.0276.0054-3.2728 0-6.0763-2.0141-7.23612-4.8725-.21801-.5373-.70343-.9276-1.27985-1.0189-4.10867-.6506-7.24999-4.2094-7.24999-8.50104z" fill-rule="evenodd"/></g></svg>