<svg fill="none" height="25" viewBox="0 0 25 25" width="25" xmlns="http://www.w3.org/2000/svg"><g fill="#2d3436"><path d="m5 2.5c-.82843 0-1.5.67157-1.5 1.5v16c0 .8284.67157 1.5 1.5 1.5h15c.8284 0 1.5-.6716 1.5-1.5v-16c0-.82843-.6716-1.5-1.5-1.5h-1.4503c-.2761 0-.5-.22386-.5-.5s.2239-.5.5-.5h1.4503c1.3807 0 2.5 1.11929 2.5 2.5v16c0 1.3807-1.1193 2.5-2.5 2.5h-15c-1.38071 0-2.5-1.1193-2.5-2.5v-16c0-1.38071 1.11929-2.5 2.5-2.5h1.65745c.27614 0 .5.22386.5.5s-.22386.5-.5.5z"/><path d="m8.5 2c0-.27614.22386-.5.5-.5h1c.2761 0 .5.22386.5.5s-.2239.5-.5.5h-1c-.27614 0-.5-.22386-.5-.5z"/><path d="m11.5 2c0-.27614.2239-.5.5-.5h1c.2761 0 .5.22386.5.5s-.2239.5-.5.5h-1c-.2761 0-.5-.22386-.5-.5z"/><path d="m14.5 2c0-.27614.2239-.5.5-.5h1c.2761 0 .5.22386.5.5s-.2239.5-.5.5h-1c-.2761 0-.5-.22386-.5-.5z"/><path d="m10 6.5c0-.27614.2239-.5.5-.5h8c.2761 0 .5.22386.5.5s-.2239.5-.5.5h-8c-.2761 0-.5-.22386-.5-.5z"/><path d="m10.5 14c-.2761 0-.5.2239-.5.5s.2239.5.5.5h8c.2761 0 .5-.2239.5-.5s-.2239-.5-.5-.5z"/><path d="m10 10.5c0-.2761.2239-.5.5-.5h5c.2761 0 .5.2239.5.5s-.2239.5-.5.5h-5c-.2761 0-.5-.2239-.5-.5z"/><path d="m10.5 18c-.2761 0-.5.2239-.5.5s.2239.5.5.5h5c.2761 0 .5-.2239.5-.5s-.2239-.5-.5-.5z"/><path d="m7 5c-.55228 0-1 .44772-1 1s.44772 1 1 1 1-.44772 1-1-.44772-1-1-1z"/><path d="m6 10c0-.55228.44772-1 1-1s1 .44772 1 1c0 .5523-.44772 1-1 1s-1-.4477-1-1z"/><path d="m7 13c-.55228 0-1 .4477-1 1s.44772 1 1 1 1-.4477 1-1-.44772-1-1-1z"/><path d="m6 18c0-.5523.44772-1 1-1s1 .4477 1 1-.44772 1-1 1-1-.4477-1-1z"/></g></svg>