<svg fill="none" height="25" viewBox="0 0 25 25" width="25" xmlns="http://www.w3.org/2000/svg"><g fill="#2d3436"><path d="m9.35547 8.72168c.27614 0 .5.22386.5.5v5.25002c0 .2761-.22386.5-.5.5s-.5-.2239-.5-.5v-5.25002c0-.27614.22386-.5.5-.5z"/><path d="m12.9805 11.3047c0-.2762-.2239-.5-.5-.5-.2762 0-.5.2238-.5.5v5.25c0 .2761.2238.5.5.5.2761 0 .5-.2239.5-.5z"/><path d="m15.6055 8.72168c.2761 0 .5.22386.5.5v5.25002c0 .2761-.2239.5-.5.5-.2762 0-.5-.2239-.5-.5v-5.25002c0-.27614.2238-.5.5-.5z"/><path d="m9.39453 17.0312c.27614 0 .5-.2238.5-.5 0-.2761-.22386-.5-.5-.5s-.5.2239-.5.5c0 .2762.22386.5.5.5z"/><path d="m13 18.7773c0 .2762-.2239.5-.5.5s-.5-.2238-.5-.5c0-.2761.2239-.5.5-.5s.5.2239.5.5z"/><path d="m12.4805 9.72168c.2761 0 .5-.22386.5-.5s-.2239-.5-.5-.5c-.2762 0-.5.22386-.5.5s.2238.5.5.5z"/><path clip-rule="evenodd" d="m9.39453 5.09668v-.41043c0-1.57147 1.47287-2.71457 3.10417-2.71457 1.6312 0 3.1042 1.1431 3.1042 2.71457v.41043h4.1103c.597 0 1.0993.48148 1.0993 1.0851v3.69127c0 .0398-.0048.07945-.0142.11812l-2.6326 10.82853c-.2675 1.0599-.9902 1.9436-1.9788 1.9436h-7.36516c-.98616 0-1.71983-.8802-1.97964-1.9475l-2.64036-10.82426c-.00946-.03878-.01424-.07856-.01424-.11849v-3.68267c0-.60752.49754-1.0937 1.09929-1.0937zm.99997-.41043c0-.87277.8664-1.71457 2.1042-1.71457 1.2377 0 2.1042.84181 2.1042 1.71457v.41043h-4.2084zm-5.10771 1.41043c-.05833 0-.09929.04729-.09929.0937v3.62257l2.62611 10.76595c.20927.8599.69157 1.1844 1.00813 1.1844h7.36516c.314 0 .7895-.3204 1.0086-1.1863l2.617-10.76386v-3.63136c0-.01542-.0063-.03567-.026-.05497-.0195-.0191-.0452-.03013-.0733-.03013z" fill-rule="evenodd"/><path d="m19.7212 5.59668h-14.44244c-.29563 0-.54778.2245-.59126.52083.04348.29634.29563.52084.59126.52084h14.44244c.2957 0 .5478-.2245.5913-.52084-.0435-.29633-.2956-.52083-.5913-.52083z"/></g></svg>