<svg height="15" width="15" xmlns="http://www.w3.org/2000/svg" xmlns:xlink="http://www.w3.org/1999/xlink"><linearGradient id="a" x1="50%" x2="50%" y1="0%" y2="100%"><stop offset="0" stop-color="#e54252"/><stop offset="1" stop-color="#c63442"/></linearGradient><linearGradient id="b" x1="50%" x2="50%" y1="0%" y2="100%"><stop offset="0" stop-color="#5cbe6b"/><stop offset="1" stop-color="#4ea55b"/></linearGradient><linearGradient id="c" x1="50%" x2="50%" y1="0%" y2="100%"><stop offset="0" stop-color="#f0f0f0"/><stop offset="1" stop-color="#f0f0f0"/></linearGradient><g fill="none" fill-rule="evenodd"><path d="m0 0h15v10h-15z" fill="url(#a)"/><path d="m0 10h15v5h-15z" fill="url(#b)"/><path d="m3 12.75v2.25h-3v-15h3v2.25l-.5.75.5.75v1.5l-.5.75.5.75v1.5l-.5.75.5.75v1.5l-.5.75z" fill="url(#c)"/><path d="m.5 1.5 1-1.5 1 1.5-1 1.5zm0 3 1-1.5 1 1.5-1 1.5zm0 3 1-1.5 1 1.5-1 1.5zm0 3 1-1.5 1 1.5-1 1.5zm0 3 1-1.5 1 1.5-1 1.5z" fill="url(#a)" fill-rule="nonzero"/></g></svg>