<svg fill="none" height="24" viewBox="0 0 24 24" width="24" xmlns="http://www.w3.org/2000/svg"><path clip-rule="evenodd" d="m14.4034.642578c4.7583 0 8.6156 3.857342 8.6156 8.615602 0 4.28382-3.1264 7.83742-7.222 8.50352-.4012.0652-.7414.338-.896.7139-1.1756 2.8582-3.9877 4.8704-7.26978 4.8704-.47918 0-.68515-.5754-.40121-.9614.76711-1.0428 1.28283-2.282 1.45777-3.6284.06715-.5168-.33677-.9511-.84754-1.0548-3.93239-.7984-6.89212-4.2752-6.89212-8.44322 0-4.75826 3.85734-8.615602 8.6156-8.615602z" fill="#26448f" fill-rule="evenodd"/><path d="m7.84024 17.7014-.09949.49zm-.61023 4.6832.40276.2963zm8.56699-4.6229-.0803-.4935zm-.896.7139-.4625-.1902zm7.618-9.21742c0-4.48212-3.6334-8.1156-8.1156-8.1156v-1.000002c5.0344 0 9.1156 4.081202 9.1156 9.115602zm-6.8023 8.01002c3.8575-.6274 6.8023-3.9753 6.8023-8.01002h1c0 4.53292-3.3081 8.29222-7.6418 8.99702zm-8.08548 5.5778c3.07248 0 5.70618-1.8833 6.80728-4.5606l.9249.3804c-1.25 3.0391-4.2405 5.1802-7.73218 5.1802zm1.55239-4.0254c-.18615 1.4327-.735 2.7512-1.55084 3.8603l-.80552-.5926c.71839-.9766 1.20096-2.1364 1.36469-3.3965zm-7.73549-9.56242c0 3.92552 2.78764 7.20112 6.49161 7.95322l-.19898.98c-4.16081-.8448-7.29263-4.5227-7.29263-8.93322zm8.1156-8.1156c-4.48212 0-8.1156 3.63348-8.1156 8.1156h-1c0-5.0344 4.08119-9.115602 9.1156-9.115602zm4.83968 0h-4.83968v-1.000002h4.83968zm-6.21146 17.54922c.02456-.189-.1248-.4342-.45119-.5004l.19898-.98c.69515.1411 1.35363.7646 1.24388 1.6092zm-.56072 5.1542c-.47059 0-.81043-.2944-.9518-.6522-.1368-.3463-.09981-.7688.14783-1.1055l.80552.5926c-.0363.0493-.03829.1075-.0233.1454.00666.0169.01321.021.01157.0198-.0044-.0032-.0051-.0001.01018-.0001zm8.24598-5.5908c-.2277.037-.4245.1934-.5138.4106l-.9249-.3804c.2199-.5346.7036-.9238 1.2782-1.0172z" fill="#c4c4c4"/><g clip-rule="evenodd" fill="#fff" fill-rule="evenodd"><path d="m14.0297.552246h-4.76045v6.160004h-8.321008v4.71065h8.321008v11.5678l4.76045-3.0197v-8.5481h8.8934v-4.71065h-8.8934z"/><path d="m14.0297.552246h-4.76045v6.160004h-8.321008v4.71065h8.321008v11.5678l4.76045-3.0197v-8.5481h8.8934v-4.71065h-8.8934z"/><path d="m21.7447 13.3833-7.6209-4.35377 7.6774-4.38607-.8769-1.50284h-.5661l-8.2711 4.7253-8.27118-4.7253h-.9231l-.66723 1.14357v.27509l7.82471 4.47025-7.82471 4.47027v.4574l.56285.9647h1.02143l8.27723-4.7288 8.2771 4.7288h.4828z"/></g><path d="m2.7075 14.4878 18.337-10.47801" stroke="#f03232"/><path d="m21.0462 13.9547-18.33702-10.379" stroke="#f03232"/><path clip-rule="evenodd" d="m13.0775.552246h-2.8563v7.102104h-9.272958v2.82635h9.272958v12.0883l2.8563-1.4824v-10.6059h9.846v-2.82635h-9.846z" fill="#f03232" fill-rule="evenodd"/><path d="m8.68785 18.7557-.49584-.0644zm-.84755-1.0548-.09948.49zm7.9568.0603.0803.4935zm-.8959.7139-.4625-.1901zm7.6178-9.21741c0-4.48212-3.6334-8.1156-8.1156-8.1156v-1c5.0344 0 9.1156 4.0812 9.1156 9.1156zm-6.8021 8.00991c3.8574-.6274 6.8021-3.9752 6.8021-8.00991h1c0 4.53281-3.308 8.29211-7.6416 8.99701zm-8.08568 5.5784c3.07258 0 5.70648-1.8835 6.80748-4.561l.9249.3803c-1.2499 3.0394-4.2405 5.1807-7.73238 5.1807zm1.55246-4.0259c-.18607 1.4328-.73497 2.7516-1.55091 3.8608l-.80552-.5926c.71848-.9767 1.20109-2.1367 1.36476-3.397zm-7.73556-9.56241c0 3.92561 2.78766 7.20121 6.49167 7.95321l-.19897.98c-4.16085-.8448-7.2927-4.5227-7.2927-8.93321zm8.1156-8.1156c-4.48212 0-8.1156 3.63348-8.1156 8.1156h-1c0-5.0344 4.08119-9.1156 9.1156-9.1156zm4.83968 0h-4.83968v-1h4.83968zm-6.21139 17.54921c.02454-.189-.12483-.4341-.45119-.5004l.19897-.98c.69512.1411 1.35358.7645 1.24389 1.6092zm-.56079 5.1547c-.47059 0-.81043-.2944-.9518-.6522-.1368-.3463-.09981-.7688.14783-1.1055l.80552.5926c-.0363.0493-.03829.1075-.0233.1454.00666.0169.01321.021.01157.0198-.0044-.0032-.0051-.0001.01018-.0001zm8.24618-5.5913c-.2277.037-.4245.1934-.5138.4106l-.9249-.3803c.2199-.5347.7035-.9239 1.2782-1.0174z" fill="#c4c4c4"/></svg>