<svg fill="none" height="26" viewBox="0 0 26 26" width="26" xmlns="http://www.w3.org/2000/svg"><g clip-rule="evenodd" fill="#18303f" fill-rule="evenodd"><path d="m1.94922 4.96428c0-1.22831.99574-2.22405 2.22404-2.22405h.88962c1.22831 0 2.22405.99574 2.22405 2.22405 0 1.2283-.99574 2.22404-2.22405 2.22404h-.88962c-1.2283 0-2.22404-.99574-2.22404-2.22404zm2.22404-1.22405h.88962c.67602 0 1.22405.54803 1.22405 1.22405s-.54803 1.22404-1.22405 1.22404h-.88962c-.67602 0-1.22404-.54802-1.22404-1.22404s.54802-1.22405 1.22404-1.22405z"/><path d="m8.47266 4.96428c0-1.22831.99573-2.22405 2.22404-2.22405h.8896c1.2283 0 2.2241.99574 2.2241 2.22405 0 1.2283-.9958 2.22404-2.2241 2.22404h-.8896c-1.22831 0-2.22404-.99574-2.22404-2.22404zm2.22404-1.22405h.8896c.676 0 1.2241.54803 1.2241 1.22405s-.5481 1.22404-1.2241 1.22404h-.8896c-.676 0-1.22404-.54802-1.22404-1.22404s.54804-1.22405 1.22404-1.22405z"/><path d="m17.2201 2.74023c-1.2283 0-2.224.99574-2.224 2.22405 0 1.2283.9957 2.22404 2.224 2.22404h.8897c1.2283 0 2.224-.99574 2.224-2.22404 0-1.22831-.9957-2.22405-2.224-2.22405zm.8897 1h-.8897c-.676 0-1.224.54803-1.224 1.22405s.548 1.22404 1.224 1.22404h.8897c.676 0 1.224-.54802 1.224-1.22404s-.548-1.22405-1.224-1.22405z"/><path d="m21.5234 4.51947c0-.98264.7966-1.77924 1.7793-1.77924.9826 0 1.7792.7966 1.7792 1.77924v.88962c0 .98264-.7966 1.77923-1.7792 1.77923-.9827 0-1.7793-.79659-1.7793-1.77923zm1.7793-.77924c.4303 0 .7792.34888.7792.77924v.88962c0 .43036-.3489.77923-.7792.77923-.4304 0-.7793-.34887-.7793-.77923v-.88962c0-.43036.3489-.77924.7793-.77924z"/><path d="m3.72845 8.96729c-.98264 0-1.77923.79659-1.77923 1.77921 0 .9827.79659 1.7793 1.77923 1.7793h7.11695c.9826 0 1.7792-.7966 1.7792-1.7793 0-.98262-.7966-1.77921-1.7792-1.77921zm0 1c-.43036 0-.77923.34891-.77923.77921 0 .4304.34887.7793.77923.7793h7.11695c.4304 0 .7792-.3489.7792-.7793 0-.4303-.3488-.77921-.7792-.77921z"/><path d="m14.4062 10.7465c0-.98262.7966-1.77921 1.7793-1.77921h7.1169c.9827 0 1.7793.79659 1.7793 1.77921 0 .9827-.7966 1.7793-1.7793 1.7793h-7.1169c-.9827 0-1.7793-.7966-1.7793-1.7793zm1.7793-.77921h7.1169c.4304 0 .7793.34891.7793.77921 0 .4304-.3489.7793-.7793.7793h-7.1169c-.4304 0-.7793-.3489-.7793-.7793 0-.4303.3489-.77921.7793-.77921z"/><path d="m3.72845 14.3057c-.98264 0-1.77923.7966-1.77923 1.7792s.79659 1.7792 1.77923 1.7792h7.11695c.9826 0 1.7792-.7966 1.7792-1.7792s-.7966-1.7792-1.7792-1.7792zm0 1c-.43036 0-.77923.3488-.77923.7792s.34887.7792.77923.7792h7.11695c.4304 0 .7792-.3488.7792-.7792s-.3488-.7792-.7792-.7792z"/><path d="m14.4062 16.0849c0-.9826.7966-1.7792 1.7793-1.7792h7.1169c.9827 0 1.7793.7966 1.7793 1.7792s-.7966 1.7792-1.7793 1.7792h-7.1169c-.9827 0-1.7793-.7966-1.7793-1.7792zm1.7793-.7792h7.1169c.4304 0 .7793.3488.7793.7792s-.3489.7792-.7793.7792h-7.1169c-.4304 0-.7793-.3488-.7793-.7792s.3489-.7792.7793-.7792z"/><path d="m3.72845 19.6426c-.98264 0-1.77923.7966-1.77923 1.7792 0 .9827.79659 1.7792 1.77923 1.7792h7.11695c.9826 0 1.7792-.7965 1.7792-1.7792 0-.9826-.7966-1.7792-1.7792-1.7792zm0 1c-.43036 0-.77923.3489-.77923.7792 0 .4304.34887.7792.77923.7792h7.11695c.4304 0 .7792-.3488.7792-.7792 0-.4303-.3488-.7792-.7792-.7792z"/><path d="m14.4062 21.4218c0-.9826.7966-1.7792 1.7793-1.7792h7.1169c.9827 0 1.7793.7966 1.7793 1.7792 0 .9827-.7966 1.7792-1.7793 1.7792h-7.1169c-.9827 0-1.7793-.7965-1.7793-1.7792zm1.7793-.7792h7.1169c.4304 0 .7793.3489.7793.7792 0 .4304-.3489.7792-.7793.7792h-7.1169c-.4304 0-.7793-.3488-.7793-.7792 0-.4303.3489-.7792.7793-.7792z"/></g></svg>