<svg fill="none" height="25" viewBox="0 0 25 25" width="25" xmlns="http://www.w3.org/2000/svg"><g fill="#18303f"><path clip-rule="evenodd" d="m13.2064 8.59424c-.8799 0-1.5931.71326-1.5931 1.59316 0 .8798.7132 1.5931 1.5931 1.5931s1.5931-.7133 1.5931-1.5931c0-.8799-.7132-1.59316-1.5931-1.59316zm-.5931 1.59316c0-.32761.2655-.59316.5931-.59316s.5931.26555.5931.59316c0 .3275-.2655.5931-.5931.5931s-.5931-.2656-.5931-.5931z" fill-rule="evenodd"/><path clip-rule="evenodd" d="m17.6147 2.47547c.1936-.19694.1908-.51352-.0061-.70708-.197-.19356-.5135-.19081-.7071.00614l-1.5109 1.53737-.9048-.92058c-.1192-.12131-.2586-.23292-.4321-.31135-.1759-.07954-.3605-.11317-.5551-.11317s-.3793.03363-.5551.11317c-.1735.07843-.3129.19004-.4321.31135l-2.88292 2.93334c-.0053.00539-.01048.01091-.01553.01654-1.66414 1.85452-1.86226 4.53105-.72287 6.6505l-1.68809 1.7176c-.19119.1945-.19119.5064 0 .7009l.57799.5882-3.91636 3.9849c-.47378.482-.68393 1.1703-.68393 1.8171 0 .6875.33018 1.4045.93775 1.7878.96311.7176 2.22229.4356 2.98192-.3373l3.06304-3.1167c.3446-.3506.9242-.3506 1.2688 0 .3493.3555.3493.9603 0 1.3157-.1936.197-.1908.5135.0061.7071.197.1936.5135.1908.7071-.0061.7317-.7446.7317-1.9731 0-2.7176-.7365-.7494-1.9587-.7494-2.69519 0l-3.06307 3.1166c-.49627.505-1.20663.5911-1.6824.228-.01375-.0105-.02804-.0203-.0428-.0293-.27903-.1703-.48125-.5441-.48125-.9482 0-.4532.1502-.8649.39714-1.1162l3.9042-3.9725.56717.5771c.09401.0956.2225.1495.35661.1495s.2626-.0539.3566-.1495l1.64459-1.6734c2.0743 1.1818 4.7672.8991 6.5771-.7823.0055-.0051.0109-.0104.0162-.0158l2.8829-2.9334c.5516-.5612.5516-1.42304 0-1.98424l-.9615-.97833.9272-.94342c.1936-.19694.1908-.51351-.0061-.70708-.197-.19356-.5135-.19081-.7071.00614l-.915.93104-3.1281-3.18279zm-9.35505 11.58433 1.19007-1.2109c.16198.2072.33908.4058.53115.5941.18663.2152.38573.412.59513.5902l-1.17119 1.1918zm3.42975-.4461.0083.0083c1.7168 1.1035 4.0433.9222 5.5966-.514l2.8747-2.925c.1692-.1721.1692-.41027 0-.5824l-6.3964-6.50833c-.0609-.06202-.1017-.08791-.1309-.10114-.0269-.01214-.0674-.02433-.1431-.02433s-.1162.01219-.1431.02433c-.0292.01323-.07.03912-.1309.10114l-2.8748 2.92503c-1.69474 1.8978-1.54378 4.8869.3444 6.7245.0106.0103.0207.0211.0303.0323.2434.283.5136.5273.8034.7332.0586.0238.1136.0593.1615.1064z" fill-rule="evenodd"/><path d="m22.0078 5.5835c0 .27614-.2238.5-.5.5-.2761 0-.5-.22386-.5-.5 0-.27615.2239-.5.5-.5.2762 0 .5.22385.5.5z"/><path d="m10.8398 22.501c.2762 0 .5-.2239.5-.5 0-.2762-.2238-.5-.5-.5-.2761 0-.5.2238-.5.5 0 .2761.2239.5.5.5z"/></g></svg>