<svg fill="none" height="35" viewBox="0 0 34 35" width="34" xmlns="http://www.w3.org/2000/svg"><g fill="#92a0a9"><path d="m19.9863 1.05291c.0599-.269568-.11-.536657-.3796-.59656-.0421-.009346-.0841-.013097-.1252-.011747-.1513.004259-.2988.076845-.3934.209522l-11.84382 16.607275c-.16034.2249-.10806.5371.11676.6974.22483.1604.53707.1081.6974-.1167l10.41916-14.60967-2.1875 9.84357c-.0329.148.0032.303.0981.4213s.2384.1871.39.1871h9.9084l-11.6074 16.2504 2.1871-9.8419c.0599-.2696-.11-.5366-.3796-.5966-.04-.0089-.08-.0127-.1193-.0119h-7.97916c-.27614 0-.5.2239-.5.5 0 .2762.22386.5.5.5h7.36666l-2.5848 11.6316c-.0515.232.0674.4683.2845.5651s.4723.0274.6105-.166l13.6-19.04c.1089-.1524.1234-.3529.0377-.5194-.0857-.1666-.2573-.2713-.4446-.2713h-10.2567z"/><path d="m6.15234 20.4468c.27615 0 .5-.2238.5-.5 0-.2761-.22385-.5-.5-.5-.27614 0-.5.2239-.5.5 0 .2762.22386.5.5.5z"/></g></svg>