<svg fill="none" height="26" viewBox="0 0 25 26" width="25" xmlns="http://www.w3.org/2000/svg"><g fill="#18303f"><path d="m14.824 1.45379c.0599-.26957-.11-.536658-.3796-.596562-.0446-.009913-.0891-.013531-.1327-.011444-.1483.00663-.2922.078968-.3851.209216l-8.70868 12.2113c-.16034.2248-.10806.537.11676.6974.22483.1603.53706.108.6974-.1168l7.28282-10.21196-1.4671 6.60196c-.0329.148.0032.303.0981.4213s.2384.1871.39.1871h7.0284l-8.0074 11.2104 1.4671-6.6019c.0599-.2696-.11-.5367-.3796-.5966-.04-.0089-.08-.0127-.1192-.0119h-5.86426c-.27615 0-.5.2239-.5.5 0 .2762.22386.5.5.5h5.25166l-1.86476 8.3916c-.05156.232.06737.4683.28446.5651.2171.0968.4723.0274.6105-.1661l10-14c.1089-.1524.1234-.3528.0377-.5194-.0857-.1665-.2573-.27118-.4446-.27118h-7.3767z"/><path d="m4.39453 15.8453c.27614 0 .5-.2238.5-.5 0-.2761-.22386-.5-.5-.5s-.5.2239-.5.5c0 .2762.22386.5.5.5z"/></g></svg>