<svg fill="none" height="26" viewBox="0 0 25 26" width="25" xmlns="http://www.w3.org/2000/svg"><g fill="#18303f"><path d="m6.5 5.64844c.27614 0 .5-.22386.5-.5s-.22386-.5-.5-.5-.5.22386-.5.5.22386.5.5.5z"/><path d="m6.5 7.64844c.27614 0 .5-.22386.5-.5 0-.27615-.22386-.5-.5-.5s-.5.22385-.5.5c0 .27614.22386.5.5.5z"/><path d="m19 5.14844c0 .27614-.2239.5-.5.5s-.5-.22386-.5-.5.2239-.5.5-.5.5.22386.5.5z"/><path d="m18.5 7.64844c.2761 0 .5-.22386.5-.5 0-.27615-.2239-.5-.5-.5s-.5.22385-.5.5c0 .27614.2239.5.5.5z"/><path clip-rule="evenodd" d="m3.28516 6.1836c0-1.933 1.567-3.50001 3.5-3.50001h11.42924c1.933 0 3.5 1.56701 3.5 3.5v.56149c.0003.00725.0004.01454.0004.02186v1.17251c0 .01267-.0001.0253-.0004.03789v11.96266c0 1.933-1.567 3.5-3.5 3.5h-6.3715c-.2761 0-.5-.2238-.5-.5 0-.2761.2239-.5.5-.5h6.3715c1.3807 0 2.5-1.1193 2.5-2.5v-10.58573c-.1563.05517-.3244.08518-.4996.08518h-15.42917c-.1755 0-.34395-.03014-.50047-.08552v10.58607c0 1.3807 1.11929 2.5 2.5 2.5h2.12553c.27614 0 .5.2239.5.5 0 .2762-.22386.5-.5.5h-2.12553c-1.933 0-3.5-1.567-3.5-3.5zm17.42924-.00001v1.77772c-.0115.266-.2307.47814-.4996.47814h-15.42917c-.27615 0-.5-.22386-.5-.5v-1.17251c0-.00732-.00016-.01461-.00047-.02186v-.56148c0-1.38072 1.11929-2.50001 2.5-2.50001h11.42924c1.3807 0 2.5 1.11929 2.5 2.5z" fill-rule="evenodd"/><path d="m8.80078 17.6484v-3.7937l-1.09176 1.0917c-.19526.1953-.51184.1953-.7071 0-.19527-.1952-.19527-.5118 0-.7071l1.94444-1.9444c.09377-.0938.22094-.1465.35355-.1465.14701 0 .28007.0635.37156.1645l1.92643 1.9264c.1953.1953.1953.5119 0 .7071-.1953.1953-.5118.1953-.7071 0l-1.09002-1.09v3.792c0 .2762-.22386.5-.5.5s-.5-.2238-.5-.5z"/><path d="m17.2931 15.3504-1.09 1.0901v-3.7921c0-.2761-.2238-.5-.5-.5-.2761 0-.5.2239-.5.5v3.7938l-1.0917-1.0918c-.1953-.1952-.5119-.1952-.7071 0-.1953.1953-.1953.5119 0 .7071l1.9444 1.9445c.0938.0938.2209.1464.3536.1464.147 0 .28-.0634.3715-.1644l1.9265-1.9265c.1952-.1952.1952-.5118 0-.7071-.1953-.1952-.5119-.1952-.7072 0z"/><path d="m10.8844 22.94c0 .2762-.2238.5-.5.5-.2761 0-.49997-.2238-.49997-.5 0-.2761.22387-.5.49997-.5.2762 0 .5.2239.5.5z"/><path d="m10.6484 9.41208c0-.26102.2116-.47263.4727-.47263h2.7572c.2611 0 .4727.21161.4727.47263 0 .26103-.2116.47263-.4727.47263h-2.7572c-.2611 0-.4727-.2116-.4727-.47263z"/></g></svg>