<svg fill="none" height="35" viewBox="0 0 34 35" width="34" xmlns="http://www.w3.org/2000/svg"><g fill="#92a0a9"><path d="m8.83984 6.68124c.27615 0 .5-.22386.5-.5s-.22385-.5-.5-.5c-.27614 0-.5.22386-.5.5s.22386.5.5.5z"/><path d="m8.83984 9.40097c.27615 0 .5-.22386.5-.5s-.22385-.5-.5-.5c-.27614 0-.5.22386-.5.5s.22386.5.5.5z"/><path d="m25.6602 6.18124c0 .27614-.2239.5-.5.5-.2762 0-.5-.22386-.5-.5s.2238-.5.5-.5c.2761 0 .5.22386.5.5z"/><path d="m25.1602 9.40097c.2761 0 .5-.22386.5-.5s-.2239-.5-.5-.5c-.2762 0-.5.22386-.5.5s.2238.5.5.5z"/><path clip-rule="evenodd" d="m4.64844 6.50879c0-1.93299 1.567-3.5 3.5-3.5h17.70376c1.933 0 3.5 1.567 3.5 3.5v1.84782c.0004.00845.0006.01697.0006.02553v1.95466l-.0002.0268-.0004.0174v16.9965c0 1.933-1.567 3.5-3.5 3.5h-9.7452c-.2761 0-.5-.2238-.5-.5 0-.2761.2239-.5.5-.5h9.7452c1.3807 0 2.5-1.1193 2.5-2.5v-15.6259c-.1562.0552-.3243.0852-.4994.0852h-21.70372c-.17556 0-.34407-.0302-.50064-.0856v15.6263c0 1.3807 1.11928 2.5 2.5 2.5h3.97076c.2761 0 .5.2239.5.5 0 .2762-.2239.5-.5.5h-3.97076c-1.933 0-3.5-1.567-3.5-3.5zm23.70376 0v3.85351c-.0133.2643-.2318.4745-.4994.4745h-21.70372c-.27615 0-.5-.2239-.5-.5v-1.95466c0-.00855-.00022-.01705-.00064-.0255v-1.84785c0-1.38071 1.11929-2.5 2.5-2.5h17.70376c1.3807 0 2.5 1.11929 2.5 2.5z" fill-rule="evenodd"/><path d="m12.1497 23.181v-5.5941l-1.7921 1.7921c-.1952.1952-.51183.1952-.70709 0-.19526-.1953-.19526-.5119 0-.7071l2.64449-2.6445c.0978-.0978.226-.1466.3542-.1464.1485 0 .2824.0647.3739.1675l2.6234 2.6234c.1953.1952.1953.5118 0 .7071-.1953.1952-.5118.1952-.7071 0l-1.7897-1.7897v5.5917c0 .2761-.2239.5-.5.5-.2762 0-.5-.2239-.5-.5z"/><path d="m23.6466 20.183-1.7897 1.7897v-5.5917c0-.2762-.2239-.5-.5-.5-.2762 0-.5.2238-.5.5v5.5941l-1.7921-1.7921c-.1953-.1953-.5118-.1953-.7071 0-.1953.1952-.1953.5118 0 .7071l2.6444 2.6444c.0938.0938.221.1465.3536.1465h.0012c.1485 0 .2819-.0648.3734-.1676l2.6234-2.6233c.1953-.1953.1953-.5119 0-.7071-.1953-.1953-.5119-.1953-.7071 0z"/><path d="m14.6211 30.3775c0 .2762-.2239.5-.5.5s-.5-.2238-.5-.5c0-.2761.2239-.5.5-.5s.5.2239.5.5z"/><path d="m14.4825 11.9795c0-.355.2878-.6427.6428-.6427h3.7499c.3549 0 .6427.2877.6427.6427s-.2878.6428-.6427.6428h-3.7499c-.355 0-.6428-.2878-.6428-.6428z"/></g></svg>