<svg fill="none" height="25" viewBox="0 0 25 25" width="25" xmlns="http://www.w3.org/2000/svg"><g fill="#18303f"><path clip-rule="evenodd" d="m13.0827 9.17522c.179.11778.3282.34136.3078.61776-.0289.38922.0172.94022.1183 1.49722.0605.3329.1374.65.2213.9196.1504-.1542.2818-.3176.3581-.4715.141-.2841.5357-.5072.9158-.2901 1.2174.6951 1.9133 1.9813 1.8285 3.3572-.0039 1.0323-.3797 1.9717-1.0284 2.7191-.0073.0084-.0149.0165-.0227.0244-.7476.7535-1.7059 1.1513-2.7664 1.061-1.0234-.0055-1.9626-.3855-2.7093-1.1324-.77313-.6887-1.14519-1.6587-1.14519-2.6885 0-2.2441 1.41029-4.3689 3.18599-5.60881.2594-.18113.5528-.12557.7362-.00497zm-.6892 1.23178c-1.3085 1.1188-2.233 2.7537-2.233 4.382 0 .7911.2829 1.4767.8192 1.9497.0083.0074.0164.015.0242.0229.5638.5682 1.2592.8484 2.0338.8484.0153 0 .0305.0007.0457.0021.7374.0676 1.4138-.1944 1.9764-.7558.4942-.5748.7728-1.2852.7728-2.0673 0-.011.0003-.022.0011-.033.0585-.8857-.3285-1.7216-1.0433-2.2547-.2482.3465-.5773.6403-.8095.8278-.3104.2506-.7972.1669-.9799-.2241-.2005-.4293-.3672-1.0366-.4761-1.6361-.0638-.3514-.1109-.7173-.1314-1.0619z" fill-rule="evenodd"/><path d="m11 21c.2761 0 .5-.2239.5-.5s-.2239-.5-.5-.5-.5.2239-.5.5.2239.5.5.5z"/><path d="m13.5 20.5c0 .2761-.2239.5-.5.5s-.5-.2239-.5-.5.2239-.5.5-.5.5.2239.5.5z"/><path d="m15 21c.2761 0 .5-.2239.5-.5s-.2239-.5-.5-.5-.5.2239-.5.5.2239.5.5.5z"/><path clip-rule="evenodd" d="m10.5 1c0-.276142-.2239-.5-.5-.5-.27614 0-.5.223858-.5.5v1.81605c-.75989.11564-1.47293.24648-2.05784.36234-1.15102.22799-1.94216 1.24494-1.94216 2.39754v14.84817c0 1.1526.79114 2.1695 1.94216 2.3975 1.08474.2149 2.61014.4813 4.05784.6067v.5717c0 .2761.2239.5.5.5s.5-.2239.5-.5v-.5092c.17.006.337.0092.5.0092s.33-.0032.5-.0092v.5092c0 .2761.2239.5.5.5s.5-.2239.5-.5v-.5717c1.4477-.1254 2.9731-.3918 4.0578-.6067 1.1511-.228 1.9422-1.2449 1.9422-2.3975v-14.84817c0-1.1526-.7911-2.16955-1.9422-2.39754-.5849-.11586-1.2979-.2467-2.0578-.36234v-1.81605c0-.276142-.2239-.5-.5-.5s-.5.223858-.5.5v1.67768c-.6751-.0834-1.359-.14596-2-.16853v-1.50915c0-.276142-.2239-.5-.5-.5s-.5.223858-.5.5v1.50915c-.641.02257-1.3249.08514-2 .16853zm-2.86353 3.15933c1.46697-.29058 3.66903-.65933 5.36353-.65933s3.8966.36875 5.3635.65933c.6625.13123 1.1365.72045 1.1365 1.4166v.92407h-13v-.92407c0-.69615.47396-1.28537 1.13647-1.4166zm-1.13647 16.26477v-12.9241h13v12.9241c0 .6961-.474 1.2853-1.1365 1.4166-1.4669.2906-3.669.6593-5.3635.6593s-3.89656-.3687-5.36353-.6593c-.66251-.1313-1.13647-.7205-1.13647-1.4166z" fill-rule="evenodd"/></g></svg>