<svg fill="none" height="34" viewBox="0 0 34 34" width="34" xmlns="http://www.w3.org/2000/svg"><g fill="#92a0a9"><path clip-rule="evenodd" d="m17.7924 12.4783c.2436.1602.4465.4642.4186.8401-.0392.5294.0234 1.2788.161 2.0363.0822.4528.1868.884.3009 1.2507.2046-.2097.3832-.432.4871-.6414.1916-.3863.7284-.6897 1.2455-.3945 1.6556.9454 2.602 2.6946 2.4867 4.5658-.0053 1.4039-.5164 2.6816-1.3987 3.698-.0099.0114-.0201.0225-.0308.0332-1.0167 1.0248-2.32 1.5658-3.7623 1.443-1.3918-.0075-2.6691-.5243-3.6847-1.54-1.0514-.9367-1.5574-2.2559-1.5574-3.6565 0-3.052 1.918-5.9417 4.3329-7.628.3528-.2463.7518-.1707 1.0012-.0067zm-.9373 1.6752c-1.7795 1.5216-3.0368 3.7451-3.0368 5.9595 0 1.076.3847 2.0084 1.1141 2.6516.0113.01.0223.0204.0329.0311.7668.7728 1.7125 1.1539 2.766 1.1539.0207 0 .0414.001.062.0028 1.0029.0919 1.9229-.2644 2.688-1.0278.6721-.7818 1.051-1.7479 1.051-2.8116 0-.015.0005-.0299.0015-.0449.0796-1.2045-.4468-2.3413-1.4189-3.0664-.3375.4713-.785.8708-1.1009 1.1258-.4222.3409-1.0842.2271-1.3326-.3047-.2727-.5839-.4995-1.4098-.6476-2.2251-.0867-.4779-.1507-.9756-.1787-1.4442z" fill-rule="evenodd"/><path d="m14.96 28.56c.3755 0 .68-.3045.68-.68 0-.3756-.3045-.68-.68-.68-.3756 0-.68.3044-.68.68 0 .3755.3044.68.68.68z"/><path d="m18.36 27.88c0 .3755-.3045.68-.68.68-.3756 0-.68-.3045-.68-.68 0-.3756.3044-.68.68-.68.3755 0 .68.3044.68.68z"/><path d="m20.4 28.56c.3755 0 .68-.3045.68-.68 0-.3756-.3045-.68-.68-.68-.3756 0-.68.3044-.68.68 0 .3755.3044.68.68.68z"/><path clip-rule="evenodd" d="m14.28 1.35999c0-.375551-.3045-.679997-.68-.679997-.3756 0-.68.304446-.68.679997v2.46983c-1.0335.15727-2.0032.33521-2.7987.49278-1.56536.31007-2.64132 1.69312-2.64132 3.26066v20.19344c0 1.5676 1.07596 2.9506 2.64132 3.2607 1.4753.2922 3.5498.6545 5.5187.8251v.7775c0 .3755.3044.68.68.68.3755 0 .68-.3045.68-.68v-.6925c.2312.0082.4583.0125.68.0125s.4488-.0043.68-.0125v.6925c0 .3755.3044.68.68.68.3755 0 .68-.3045.68-.68v-.7775c1.9689-.1706 4.0434-.5329 5.5186-.8251 1.5654-.3101 2.6414-1.6931 2.6414-3.2607v-20.19344c0-1.56754-1.076-2.95059-2.6414-3.26066-.7954-.15757-1.7652-.33551-2.7986-.49278v-2.46983c0-.375551-.3045-.679997-.68-.679997-.3756 0-.68.304446-.68.679997v2.28164c-.9181-.11341-1.8482-.1985-2.72-.22919v-2.05245c0-.375551-.3045-.679997-.68-.679997-.3756 0-.68.304446-.68.679997v2.05245c-.8718.03069-1.8019.11578-2.72.22919zm-3.8944 4.29669c1.9951-.39519 4.9899-.89669 7.2944-.89669 2.3044 0 5.2993.5015 7.2944.89669.901.17847 1.5456.97981 1.5456 1.92658v1.25673h-17.68002v-1.25673c0-.94677.64458-1.74811 1.54562-1.92658zm-1.54562 22.12002v-17.5767h17.68002v17.5767c0 .9468-.6446 1.7481-1.5456 1.9266-1.9951.3952-4.99.8967-7.2944.8967-2.3045 0-5.2993-.5015-7.2944-.8967-.90104-.1785-1.54562-.9798-1.54562-1.9266z" fill-rule="evenodd"/></g></svg>