<svg fill="none" height="26" viewBox="0 0 25 26" width="25" xmlns="http://www.w3.org/2000/svg"><g fill="#18303f"><path clip-rule="evenodd" d="m4.5 1.48438c-1.38071 0-2.5 1.11928-2.5 2.49999v17.98783c0 1.3807 1.11929 2.5 2.5 2.5h7.2382c1.3807 0 2.5-1.1193 2.5-2.5v-2.1225h6.6308c1.1046 0 2-.8954 2-2v-.3976c0-1.1045-.8954-2-2-2h-13.52916c-1.10457 0-2 .8955-2 2v.3976c0 1.1046.89544 2 2 2h5.89836v2.1225c0 .8284-.6715 1.5-1.5 1.5h-7.2382c-.82843 0-1.5-.6716-1.5-1.5v-17.98783c0-.82842.67157-1.49999 1.5-1.49999h7.2382c.8285 0 1.5.67157 1.5 1.5v8.56642c0 .2761.2239.5.5.5.2762 0 .5-.2239.5-.5v-8.56642c0-1.38072-1.1193-2.5-2.5-2.5zm2.83984 14.96772h13.52916c.5523 0 1 .4478 1 1v.3976c0 .5523-.4477 1-1 1h-13.52916c-.55228 0-1-.4477-1-1v-.3976c0-.5522.44772-1 1-1z" fill-rule="evenodd"/><path d="m14.2383 14.2422c0 .2761-.2239.5-.5.5-.2762 0-.5-.2239-.5-.5 0-.2762.2238-.5.5-.5.2761 0 .5.2238.5.5z"/><path d="m10.6484 11.8291c.2762 0 .5-.2239.5-.5s-.2238-.5-.5-.5c-.2761 0-.5.2239-.5.5s.2239.5.5.5z"/><path d="m11.1484 8.39746c0 .27614-.2238.5-.5.5-.2761 0-.5-.22386-.5-.5s.2239-.5.5-.5c.2762 0 .5.22386.5.5z"/><path d="m10.6484 5.96582c.2762 0 .5-.22386.5-.5s-.2238-.5-.5-.5c-.2761 0-.5.22386-.5.5s.2239.5.5.5z"/><path d="m8.63281 11.3281c0 .2762-.22385.5-.5.5-.27614 0-.5-.2238-.5-.5 0-.2761.22386-.5.5-.5.27615 0 .5.2239.5.5z"/><path d="m8.13281 8.89648c.27615 0 .5-.22385.5-.5 0-.27614-.22385-.5-.5-.5-.27614 0-.5.22386-.5.5 0 .27615.22386.5.5.5z"/><path d="m8.63281 5.46484c0 .27615-.22385.5-.5.5-.27614 0-.5-.22385-.5-.5 0-.27614.22386-.5.5-.5.27615 0 .5.22386.5.5z"/><path d="m5.61719 11.8271c.27614 0 .5-.2238.5-.5 0-.2761-.22386-.5-.5-.5s-.5.2239-.5.5c0 .2762.22386.5.5.5z"/><path d="m6.11719 8.39551c0 .27614-.22386.5-.5.5s-.5-.22386-.5-.5.22386-.5.5-.5.5.22386.5.5z"/><path d="m5.61719 5.96387c.27614 0 .5-.22386.5-.5 0-.27615-.22386-.5-.5-.5s-.5.22385-.5.5c0 .27614.22386.5.5.5z"/></g></svg>