<svg fill="none" height="35" viewBox="0 0 34 35" width="34" xmlns="http://www.w3.org/2000/svg"><g fill="#92a0a9"><path clip-rule="evenodd" d="m5.39844 2.44043c-1.38072 0-2.5 1.11929-2.5 2.5v25.90347c0 1.3807 1.11929 2.5 2.5 2.5h11.28396c1.3807 0 2.5-1.1193 2.5-2.5v-3.6066h9.9179c1.1046 0 2-.8954 2-2v-1.9807c0-1.1046-.8954-2-2-2h-19.83968c-1.10456 0-2 .8954-2 2v1.9807c0 1.1046.89543 2 2 2h8.92178v3.6066c0 .8284-.6715 1.5-1.5 1.5h-11.28396c-.82843 0-1.5-.6716-1.5-1.5v-25.90347c0-.82843.67157-1.5 1.5-1.5h11.28396c.8285 0 1.5.67157 1.5 1.5v12.37027c0 .2762.2239.5.5.5.2762 0 .5-.2238.5-.5v-12.37027c0-1.38071-1.1193-2.5-2.5-2.5zm3.86218 19.81617h19.83968c.5523 0 1 .4477 1 1v1.9807c0 .5523-.4477 1-1 1h-19.83968c-.55228 0-1-.4477-1-1v-1.9807c0-.5523.44772-1 1-1z" fill-rule="evenodd"/><path d="m19.2055 19.5113c0 .2761-.2239.5-.5.5-.2762 0-.5-.2239-.5-.5s.2238-.5.5-.5c.2761 0 .5.2239.5.5z"/><path d="m14.5427 16.2923c.2761 0 .5-.2239.5-.5 0-.2762-.2239-.5-.5-.5-.2762 0-.5.2238-.5.5 0 .2761.2238.5.5.5z"/><path d="m15.0427 11.805c0 .2761-.2239.5-.5.5-.2762 0-.5-.2239-.5-.5 0-.2762.2238-.5.5-.5.2761 0 .5.2238.5.5z"/><path d="m14.5427 8.31765c.2761 0 .5-.22386.5-.5s-.2239-.5-.5-.5c-.2762 0-.5.22386-.5.5s.2238.5.5.5z"/><path d="m11.6208 15.7903c0 .2762-.2239.5-.5.5s-.5-.2238-.5-.5c0-.2761.2239-.5.5-.5s.5.2239.5.5z"/><path d="m11.1208 12.303c.2761 0 .5-.2239.5-.5s-.2239-.5-.5-.5-.5.2239-.5.5.2239.5.5.5z"/><path d="m11.6208 7.81667c0 .27615-.2239.5-.5.5s-.5-.22385-.5-.5c0-.27614.2239-.5.5-.5s.5.22386.5.5z"/><path d="m7.69893 16.2893c.27614 0 .5-.2238.5-.5 0-.2761-.22386-.5-.5-.5s-.5.2239-.5.5c0 .2762.22386.5.5.5z"/><path d="m8.19893 11.802c0 .2762-.22386.5-.5.5s-.5-.2238-.5-.5c0-.2761.22386-.5.5-.5s.5.2239.5.5z"/><path d="m7.69893 8.31472c.27614 0 .5-.22386.5-.5s-.22386-.5-.5-.5-.5.22386-.5.5.22386.5.5.5z"/></g></svg>