<svg fill="none" height="26" viewBox="0 0 25 26" width="25" xmlns="http://www.w3.org/2000/svg"><g fill="#18303f"><path d="m12.7792 13.328c.2789-.146.3867-.4905.2406-.7695-.146-.2789-.4905-.3866-.7694-.2406s-.3867.4905-.2407.7694c.146.279.4905.3867.7695.2407z"/><path clip-rule="evenodd" d="m4.94975 15.9073c.04453.0614.09282.1181.14431.1698l-3.74236 1.959c-1.071908.5611-1.078554 2.1173.07695 2.6155 2.04855.8834 5.57439 2.2224 8.5287 2.3949.05365.0031.10755-.0025.15945-.0165 2.4429-.6592 4.511-1.9984 5.5092-2.7215.0606-.0439.1166-.0915.1678-.1422l1.9865 3.7949c.5611 1.0719 2.1172 1.0786 2.6155-.0769.8833-2.0486 2.2223-5.5744 2.3948-8.5287.0031-.0537-.0024-.1075-.0164-.1594-.6593-2.443-1.9985-4.5111-2.7216-5.50929-.0437-.06042-.0911-.11617-.1417-.16723l3.7437-1.95968c1.0719-.5611 1.0785-2.11724-.077-2.6155-2.0485-.88335-5.5743-2.22237-8.5287-2.39481-.0536-.00313-.1075.00241-.1594.01642-2.4429.65923-4.511 1.99842-5.50923 2.72153-.06137.04446-.11792.09268-.16963.14408l-1.98853-3.79877c-.56111-1.071908-2.11724-1.078554-2.6155.07695-.88335 2.04855-2.22237 5.57439-2.39481 8.5287-.00313.0537.00241.1075.01642.1594.65923 2.4429 1.99842 4.5111 2.72153 5.5093zm1.38641-13.81058c-.19335-.36937-.6654-.32919-.81129.00914-.83832 1.94415-2.0325 5.10607-2.28414 7.79016l7.57027 2.10388c.266.0739.4218.3496.3478.6156-.0739.2661-.3495.4218-.6156.3479l-7.08429-1.9688c.66159 1.8998 1.69591 3.4912 2.30068 4.326.11872.1639.34949.2241.56112.1133l2.6122-1.3674c.24465-.128.54679-.0335.67486.2111.12807.2447.03356.5468-.21109.6749l-2.6122 1.3674c-.08068.0422-.16418.0766-.24935.103-.03627.0375-.07909.07-.12788.0956l-4.59178 2.4036c-.36937.1933-.32919.6654.00914.8113 1.94415.8383 5.10607 2.0325 7.79016 2.2841l2.10383-7.5702c.074-.2661.3496-.4218.6157-.3479.266.074.4218.3496.3478.6156l-1.9688 7.0843c1.8998-.6615 3.4912-1.6959 4.3261-2.3006.1639-.1188.2241-.3495.1133-.5612l-1.3674-2.6122c-.1281-.2446-.0336-.5468.2111-.6748.2446-.1281.5468-.0336.6748.2111l1.3674 2.6122c.0493.0941.0878.1921.1156.2921.043.0387.08.0855.1084.1398l2.4036 4.5918c.1934.3693.6654.3292.8113-.0092.8383-1.9441 2.0325-5.106 2.2842-7.7901l-7.5703-2.1039c-.266-.0739-.4218-.3496-.3478-.6156.0739-.2661.3495-.4218.6156-.3479l7.0843 1.9688c-.6616-1.8998-1.6959-3.4912-2.3007-4.326-.1187-.1639-.3495-.2241-.5611-.1133l-2.6122 1.3674c-.2447.128-.5468.0335-.6749-.2111-.128-.2447-.0335-.5468.2111-.6749l2.6122-1.3674c.0833-.04361.1696-.07879.2577-.10556.0353-.03565.0766-.06654.1234-.09105l4.5918-2.40364c.3694-.19335.3292-.66539-.0091-.81128-1.9442-.83833-5.1061-2.03251-7.7902-2.28415l-2.1038 7.57028c-.074.266-.3496.4218-.6157.3478-.266-.0739-.4218-.3495-.3478-.6156l1.9688-7.08429c-1.8998.66158-3.4912 1.6959-4.32608 2.30067-.16388.11872-.22409.34949-.11331.56112l1.36739 2.6122c.1281.24465.0336.5468-.2111.67486-.2446.12804-.5468.03356-.6748-.21109l-1.36744-2.6122c-.04895-.0935-.08727-.19079-.11502-.29007-.04491-.03945-.08346-.08767-.11284-.14381z" fill-rule="evenodd"/></g></svg>