<svg fill="none" height="26" viewBox="0 0 25 26" width="25" xmlns="http://www.w3.org/2000/svg"><g fill="#18303f"><path clip-rule="evenodd" d="m8.99829 7.38184c-1.34281 0-2.5 1.15719-2.5 2.5 0 1.34276 1.15719 2.49996 2.5 2.49996s2.50001-1.1572 2.50001-2.49996c0-1.34281-1.1572-2.5-2.50001-2.5zm-1.5 2.5c0-.79053.70947-1.5 1.5-1.5.79052 0 1.50001.70947 1.50001 1.5 0 .79056-.70949 1.49996-1.50001 1.49996-.79053 0-1.5-.7094-1.5-1.49996z" fill-rule="evenodd"/><path clip-rule="evenodd" d="m15.9983 7.38184c-1.3428 0-2.5 1.15719-2.5 2.5 0 1.34276 1.1572 2.49996 2.5 2.49996s2.5-1.1572 2.5-2.49996c0-1.34281-1.1572-2.5-2.5-2.5zm-1.5 2.5c0-.79053.7095-1.5 1.5-1.5s1.5.70947 1.5 1.5c0 .79056-.7095 1.49996-1.5 1.49996s-1.5-.7094-1.5-1.49996z" fill-rule="evenodd"/><path d="m11.3599 15.5418c.3248 0 .5882-.2633.5882-.5882 0-.3248-.2634-.5882-.5882-.5882-.3249 0-.5882.2634-.5882.5882 0 .3249.2633.5882.5882.5882z"/><path d="m10.1841 17.7176c.3248 0 .5882-.2633.5882-.5882 0-.3248-.2634-.5882-.5882-.5882-.32484 0-.58818.2634-.58818.5882 0 .3249.26334.5882.58818.5882z"/><path d="m13.1238 17.1294c0 .3249-.2633.5882-.5881.5882-.3249 0-.5882-.2633-.5882-.5882 0-.3248.2633-.5882.5882-.5882.3248 0 .5881.2634.5881.5882z"/><path d="m13.7114 15.5418c.3249 0 .5882-.2633.5882-.5882 0-.3248-.2633-.5882-.5882-.5882-.3248 0-.5881.2634-.5881.5882 0 .3249.2633.5882.5881.5882z"/><path d="m14.8872 17.7176c.3249 0 .5882-.2633.5882-.5882 0-.3248-.2633-.5882-.5882-.5882-.3248 0-.5882.2634-.5882.5882 0 .3249.2634.5882.5882.5882z"/><path d="m13.7114 19.7879c.3249 0 .5882-.2633.5882-.5882 0-.3248-.2633-.5882-.5882-.5882-.3248 0-.5881.2634-.5881.5882 0 .3249.2633.5882.5881.5882z"/><path d="m11.3599 19.7879c.3248 0 .5882-.2633.5882-.5882 0-.3248-.2634-.5882-.5882-.5882-.3249 0-.5882.2634-.5882.5882 0 .3249.2633.5882.5882.5882z"/><path clip-rule="evenodd" d="m17.6198 17.3255c.1989-.2104.5395-.6049.8492-1.0019.1768-.2265.3512-.4636.4875-.6761.0681-.106.1312-.213.1811-.3141.029-.0588.0613-.1307.0858-.2093.4679-.6945.8186-1.6697 1.0553-2.6464.2481-1.0238.3841-2.1044.3841-2.97086 0-4.48732-3.6377-8.125-8.125-8.125-4.48733 0-8.12502 3.63768-8.12502 8.125 0 .86646.13596 1.94706.38406 2.97086.23671.9767.58744 1.9519 1.05531 2.6464.02447.0786.05679.1505.08579.2093.04995.1011.11306.2081.18109.3141.13637.2125.31077.4496.48749.6761.27689.3549.57846.7078.7814.929.0295.7264.32156 1.4442.8762 1.9988l2.12028 2.1203c1.1716 1.1716 3.0711 1.1716 4.2427 0l2.1203-2.1203c.5361-.536.8269-1.2245.8724-1.9259zm-5.082-14.94366c-3.93505 0-7.12502 3.18997-7.12502 7.125 0 .77576.12364 1.77676.35592 2.73526.23445.9674.56663 1.837.95421 2.3832.04334.0611.07237.131.08502.2047l.00053.0014c.00222.006.0092.0249.02613.0592.02756.0558.06945.1286.1261.2169.11299.1761.26666.3862.43424.601.0724.0928.14597.1846.21823.273.1464-.3537.36339-.6852.65096-.9727l2.12028-2.1204c1.1716-1.1715 3.0711-1.1715 4.2427 0l2.1203 2.1204c.3017.3017.5257.6517.672 1.0251.086-.1043.1744-.2142.2612-.3254.1676-.2148.3213-.4249.4343-.601.0566-.0883.0985-.1611.1261-.2169.0169-.0343.0239-.0532.0261-.0592l.0005-.0014c.0127-.0737.0417-.1436.085-.2047.3876-.5462.7198-1.4158.9543-2.3832.2322-.9585.3559-1.9595.3559-2.73526 0-3.93503-3.19-7.125-7.125-7.125zm-1.4462 11.21376-2.12038 2.1203c-.78105.781-.78105 2.0474 0 2.8284l2.12038 2.1203c.781.7811 2.0473.7811 2.8284 0l2.1203-2.1203c.7811-.781.7811-2.0474 0-2.8284l-2.1203-2.1203c-.7811-.7811-2.0474-.7811-2.8284 0z" fill-rule="evenodd"/></g><g stroke="#18303f" stroke-linecap="round" stroke-linejoin="round"><path d="m15.6046 19.8396 1.9046 1.9034c0 .4518.3147 1.5227.905 1.8067s1.3442.082 1.6265-.5095l1.0291-1.6081c.3508-.6099 1.1004-2.1379.0569-2.8548-.5402-.3712-1.8087.0003-2.1801.2818l-1.622-.7341"/><path d="m9.30494 20.0003-1.74185 1.7419c-.0008.4517-.31148 1.5316-.90052 1.8108-.58903.2792-1.34296.0772-1.62672-.5087l-1.01452-1.6626c-.3523-.6043-1.35188-1.9387-.076-2.8048.53872-.3656 1.3568-.0001 2.15851.2509l1.54708-.6559"/><path d="m18.7608 14.9147c.8832-1.2446 1.4024-3.7656 1.4024-5.40786 0-4.21118-3.4138-7.625-7.625-7.625-4.21116 0-7.62499 3.41382-7.62499 7.625 0 1.64226.51918 4.16326 1.40237 5.40786.05884.4138.24743 1.8128.56577 2.1311l4.24265 4.2427c.781.781 2.0474.781 2.8284 0l4.2427-4.2427c.3183-.3183.5069-1.7173.5657-2.1311z"/></g></svg>