<svg fill="none" height="26" viewBox="0 0 25 26" width="25" xmlns="http://www.w3.org/2000/svg"><g fill="#18303f"><path clip-rule="evenodd" d="m8.6934 17.1201c0 .2762.22385.5.5.5.27614 0 .5-.2238.5-.5v-1.7824c.6396-.2099 1.1016-.8118 1.1016-1.5217 0-.8843-.7169-1.6012-1.60121-1.6012-.8843 0-1.60116.7169-1.60116 1.6012 0 .7096.46153 1.3113 1.10077 1.5214zm1.10156-3.3041c0-.332-.26915-.6012-.60117-.6012-.33201 0-.60116.2692-.60116.6012s.26915.6012.60116.6012c.33202 0 .60117-.2692.60117-.6012z" fill-rule="evenodd"/><path d="m4.77344 17.8525c.27614 0 .5-.2238.5-.5 0-.2761-.22386-.5-.5-.5-.27615 0-.5.2239-.5.5 0 .2762.22385.5.5.5z"/><g clip-rule="evenodd" fill-rule="evenodd"><path d="m15.3028 17.1201c0 .2762.2238.5.5.5.2761 0 .5-.2238.5-.5v-1.7827c.6392-.2101 1.1007-.8118 1.1007-1.5214 0-.8843-.7168-1.6012-1.6011-1.6012s-1.6012.7169-1.6012 1.6012c0 .7099.4619 1.3118 1.1016 1.5217zm-.1016-3.3041c0-.332.2692-.6012.6012-.6012s.6011.2692.6011.6012-.2691.6012-.6011.6012-.6012-.2692-.6012-.6012z"/><path d="m1.15049 22.4448v-7.1857c-.177492-.0431-.343732-.1115-.489531-.2092-.29121-.195-.49299-.5067-.49299-.8944v-1.9821c0-.3877.20178-.6994.49299-.8944.145799-.0977.312039-.1661.489531-.2092v-1.93474c0-3.59495 2.65246-6.62822 6.00583-6.62822 2.41028 0 4.45848 1.56706 5.41988 3.7834.9471-2.21404 2.9642-3.7834 5.3457-3.7834 3.3149 0 5.9238 3.04069 5.9238 6.62822v1.93384c.179.043.3466.1117.4934.2101.2912.195.493.5067.493.8944v1.9821c0 .3877-.2018.6994-.493.8944-.1468.0984-.3144.1671-.4934.2101v7.1848c0 .2116-.0631.4332-.2188.6091-.1605.1813-.3851.2739-.6201.2739h-10.1697c-.0887 0-.1759-.0132-.2587-.0393-.0835.0262-.1713.0393-.2604.0393h-10.3234c-.23404 0-.4592-.0906-.62142-.2711-.15785-.1757-.22269-.3984-.22269-.6119zm6.00583-18.93796c.53384 0 1.05206.09681 1.54002.27643-.00194.01794-.00294.03616-.00294.05462v6.87691c0 .2761.22385.5.5.5.27614 0 .5-.2239.5-.5v-6.42292c1.2087.80511 2.1056 2.16681 2.3806 3.78885-.05.34436-.0759.69663-.0759 1.05433v13.19274h-2.31114c.00424-.0262.00644-.053.00644-.0804v-2.723c0-.2761-.22386-.5-.5-.5-.27615 0-.5.2239-.5.5v2.723c0 .0274.0022.0542.00643.0804h-3.41521c.00423-.0262.00643-.053.00643-.0804v-2.723c0-.2761-.22386-.5-.5-.5s-.5.2239-.5.5v2.723c0 .0274.0022.0542.00643.0804h-2.14699v-7.4493c.00254-.0204.00384-.0412.00384-.0623s-.0013-.0419-.00384-.0623v-3.1789c.00254-.0204.00384-.0412.00384-.0623s-.0013-.0419-.00384-.0623v-2.31534c0-1.92001.85767-3.59274 2.14056-4.6049v10.58964c0 .2761.22386.5.5.5s.5-.2239.5-.5v-11.20258c.58033-.265 1.21108-.41038 1.86527-.41038zm6.00578 5.62822v13.19274h2.1471c-.0042-.0262-.0064-.053-.0064-.0804v-2.723c0-.2761.2238-.5.5-.5.2761 0 .5.2239.5.5v2.723c0 .0274-.0022.0542-.0065.0804h3.4152c-.0042-.0262-.0064-.053-.0064-.0804v-2.723c0-.2761.2239-.5.5-.5.2762 0 .5.2239.5.5v2.723c0 .0274-.0022.0542-.0064.0804h2.147v-13.19274c0-1.9407-.8606-3.62432-2.1406-4.63228v10.61702c0 .2761-.2238.5-.5.5-.2761 0-.5-.2239-.5-.5v-11.22566c-.557-.25042-1.1596-.3873-1.7832-.3873-.5629 0-1.1087.11154-1.6193.31744l.0002.01361v6.87691c0 .2761-.2239.5-.5.5-.2762 0-.5-.2239-.5-.5v-6.33586c-1.1249.81314-1.9563 2.13393-2.2178 3.7001.0508.34479.0771.69762.0771 1.05602z"/></g></g></svg>