<svg fill="none" height="35" viewBox="0 0 34 35" width="34" xmlns="http://www.w3.org/2000/svg"><g fill="#92a0a9"><path clip-rule="evenodd" d="m12.0045 23.5446c0 .2762.2238.5.5.5.2761 0 .5-.2238.5-.5v-2.5589c.8615-.2218 1.4981-1.0039 1.4981-1.9346 0-1.1033-.8944-1.9976-1.9976-1.9976s-1.9976.8943-1.9976 1.9976c0 .9303.6361 1.7122 1.4971 1.9343zm.5005-5.4911c.5509 0 .9976.4466.9976.9976 0 .5509-.4467.9975-.9976.9975-.551 0-.9976-.4466-.9976-.9975 0-.551.4466-.9976.9976-.9976z" fill-rule="evenodd"/><path d="m6.49268 24.1957c.27614 0 .5-.2239.5-.5 0-.2762-.22386-.5-.5-.5s-.5.2238-.5.5c0 .2761.22386.5.5.5z"/><g clip-rule="evenodd" fill-rule="evenodd"><path d="m20.9932 23.5446c0 .2762.2239.5.5.5s.5-.2238.5-.5v-2.5592c.861-.2221 1.497-1.004 1.497-1.9343 0-1.1033-.8943-1.9976-1.9975-1.9976-1.1033 0-1.9976.8943-1.9976 1.9976 0 .9307.6366 1.7128 1.4981 1.9346zm.4995-5.4911c-.551 0-.9976.4466-.9976.9976 0 .5509.4466.9975.9976.9975.5509 0 .9975-.4466.9975-.9975 0-.551-.4466-.9976-.9975-.9976z"/><path d="m1.74609 30.7862v-9.9181c-.27641-.0501-.5309-.1445-.74529-.2881-.353355-.2367-.590644-.6078-.590644-1.0668v-2.6957c0-.459.237289-.8302.590644-1.0669.21439-.1436.46888-.2379.74529-.288v-2.7776c0-4.80837 3.54441-8.83441 7.98793-8.83441 3.34488 0 6.18038 2.28135 7.37788 5.46043 1.1979-3.17844 4.033-5.45921 7.3775-5.45921 4.4435 0 7.9879 4.02604 7.9879 8.83439v2.7709c.2885.0486.5542.1445.7766.2935.3534.2367.5907.6079.5907 1.0669v2.6957c0 .459-.2373.8301-.5907 1.0668-.2224.149-.4881.245-.7766.2936v9.9138c0 .2549-.0772.512-.2567.7119-.1839.2046-.44.309-.7113.309h-14.0398c-.1249 0-.2465-.0221-.3594-.0659-.1119.043-.2325.0647-.3561.0647h-14.03991c-.27121 0-.52734-.1044-.71123-.3091-.17954-.1998-.25677-.4569-.25677-.7118zm7.98793-25.93561c.80398 0 1.58098.15608 2.30638.4436-.0232.05766-.0359.12066-.0359.18663v9.35258c0 .2762.2238.5.5.5.2761 0 .5-.2238.5-.5v-9.06258c1.8389 1.10133 3.2077 3.09977 3.6018 5.49198-.069.4643-.1048.9399-.1048 1.4234v18.1012l.0001.0197h-3.5893c.058-.0816.0922-.1815.0922-.2893v-3.7033c0-.2762-.2239-.5-.5-.5-.2762 0-.5.2238-.5.5v3.7033c0 .1078.0341.2077.0921.2893h-5.17153c.05806-.0816.09219-.1815.09219-.2893v-3.7033c0-.2762-.22385-.5-.5-.5-.27614 0-.5.2238-.5.5v3.7033c0 .1078.03414.2077.09219.2893h-3.36251c-.00052-.006-.00085-.0129-.00085-.0209v-10.3c.00364-.0243.00552-.0492.00552-.0745s-.00188-.0502-.00552-.0745v-4.3437c.00364-.0243.00552-.0492.00552-.0746 0-.0253-.00188-.0502-.00552-.0745v-3.1594c0-2.8026 1.32032-5.2396 3.27117-6.62281v14.76201c0 .2761.22386.5.5.5.27615 0 .5-.2239.5-.5v-15.35083c.83959-.40129 1.7591-.62278 2.71676-.62278zm-7.98793 11.64111v3.3472c-.0773-.0261-.14013-.0571-.18877-.0897-.11616-.0778-.14716-.156-.14716-.236v-2.6957c0-.0801.031-.1582.14716-.236.04864-.0326.11147-.0637.18877-.0898zm30.73121 3.3572c.0918-.0279.165-.0628.2201-.0997.1162-.0778.1472-.156.1472-.236v-2.6957c0-.0801-.031-.1582-.1472-.236-.0551-.0369-.1283-.0718-.2201-.0998zm-14.7555 10.9594h3.3645c-.0586-.0819-.0931-.1822-.0931-.2905v-3.7033c0-.2762.2239-.5.5-.5s.5.2238.5.5v3.7033c0 .1083-.0345.2086-.0931.2905h5.1733c-.0585-.0819-.093-.1822-.093-.2905v-3.7033c0-.2762.2238-.5.5-.5.2761 0 .5.2238.5.5v3.7033c0 .1083-.0345.2086-.0931.2905h3.5892c.0005-.006.0008-.0129.0008-.0209v-18.1012c0-2.9094-1.4228-5.42482-3.4969-6.77632v14.91432c0 .2761-.2239.5-.5.5-.2762 0-.5-.2239-.5-.5v-15.45234c-.7776-.33619-1.6185-.52005-2.491-.52005-.8784 0-1.7247.18634-2.5066.52686.0068.03297.0104.06714.0104.10215v9.35258c0 .2762-.2239.5-.5.5s-.5-.2238-.5-.5v-8.9201c-1.7245 1.12591-2.9978 3.05683-3.3759 5.3495.0689.464.1046.9391.1046 1.4222v18.1012z"/></g></g></svg>