<svg fill="none" height="35" viewBox="0 0 34 35" width="34" xmlns="http://www.w3.org/2000/svg"><g fill="#92a0a9"><path clip-rule="evenodd" d="m16.9987 26.2701c-.626 0-1.1697.4901-1.1697 1.1405 0 .6505.5437 1.1406 1.1697 1.1406.6244 0 1.1696-.4896 1.1696-1.1406 0-.6509-.5452-1.1405-1.1696-1.1405zm-.1697 1.1405c0-.0573.0543-.1405.1697-.1405.1148 0 .1696.0837.1696.1405 0 .0569-.0548.1406-.1696.1406-.1154 0-.1697-.0832-.1697-.1406z" fill-rule="evenodd"/><path d="m17 10.9322c.2761 0 .5-.2238.5-.5 0-.2761-.2239-.49995-.5-.49995s-.5.22385-.5.49995c0 .2762.2239.5.5.5z"/><path d="m17 13.6721c.2761 0 .5-.2238.5-.5 0-.2761-.2239-.5-.5-.5s-.5.2239-.5.5c0 .2762.2239.5.5.5z"/><path d="m17.5 15.8686c0 .2762-.2239.5-.5.5s-.5-.2238-.5-.5c0-.2761.2239-.5.5-.5s.5.2239.5.5z"/><path d="m17 19.019c.2761 0 .5-.2239.5-.5 0-.2762-.2239-.5-.5-.5s-.5.2238-.5.5c0 .2761.2239.5.5.5z"/><path d="m17.5 21.2588c0 .2762-.2239.5-.5.5s-.5-.2238-.5-.5c0-.2761.2239-.5.5-.5s.5.2239.5.5z"/><path d="m17 24.4553c.2761 0 .5-.2238.5-.5 0-.2761-.2239-.5-.5-.5s-.5.2239-.5.5c0 .2762.2239.5.5.5z"/><path clip-rule="evenodd" d="m16.9986 2.19434c-1.7586 0-3.22 1.36823-3.22 3.10173v17.32883c-1.6291 1.0103-2.72 2.7685-2.72 4.786 0 3.1704 2.6793 5.7034 5.94 5.7034 3.2592 0 5.94-2.533 5.94-5.7034 0-2.0178-1.0936-3.7757-2.72-4.7858v-17.32903c0-1.7335-1.4614-3.10173-3.22-3.10173zm-2.22 3.10173c0-1.14011.9716-2.10173 2.22-2.10173 1.2483 0 2.22.96162 2.22 2.10173v17.61503c0 .1818.0986.3493.2576.4374 1.4788.8195 2.4624 2.3356 2.4624 4.0624 0 2.5767-2.1907 4.7034-4.94 4.7034-2.7506 0-4.94-2.1266-4.94-4.7034 0-1.7271.9812-3.2429 2.4621-4.0623.1591-.088.2579-.2556.2579-.4375z" fill-rule="evenodd"/><path d="m22.5767 4.79613c-.2761 0-.5.22386-.5.5 0 .27615.2239.5.5.5h1.36c.2762 0 .5-.22385.5-.5 0-.27614-.2238-.5-.5-.5z"/><path d="m22.5767 11.3006c-.2761 0-.5.2239-.5.5 0 .2762.2239.5.5.5h4.08c.2762 0 .5-.2238.5-.5 0-.2761-.2238-.5-.5-.5z"/><path d="m22.5767 17.8038c-.2761 0-.5.2238-.5.5 0 .2761.2239.5.5.5h1.36c.2762 0 .5-.2239.5-.5 0-.2762-.2238-.5-.5-.5z"/></g></svg>