<svg fill="none" height="35" viewBox="0 0 34 35" width="34" xmlns="http://www.w3.org/2000/svg"><g fill="#92a0a9"><path clip-rule="evenodd" d="m16.9987 26.0943c-.626 0-1.1697.4901-1.1697 1.1406 0 .6504.5437 1.1405 1.1697 1.1405.6244 0 1.1696-.4896 1.1696-1.1405s-.5452-1.1406-1.1696-1.1406zm-.1697 1.1406c0-.0574.0543-.1406.1697-.1406.1148 0 .1696.0837.1696.1406 0 .0568-.0548.1405-.1696.1405-.1154 0-.1697-.0832-.1697-.1405z" fill-rule="evenodd"/><path d="m17 10.7565c.2761 0 .5-.2239.5-.5 0-.27618-.2239-.50003-.5-.50003s-.5.22385-.5.50003c0 .2761.2239.5.5.5z"/><path d="m17 13.4963c.2761 0 .5-.2238.5-.5 0-.2761-.2239-.5-.5-.5s-.5.2239-.5.5c0 .2762.2239.5.5.5z"/><path d="m17.5 15.6928c0 .2762-.2239.5-.5.5s-.5-.2238-.5-.5c0-.2761.2239-.5.5-.5s.5.2239.5.5z"/><path d="m17 18.8432c.2761 0 .5-.2239.5-.5 0-.2762-.2239-.5-.5-.5s-.5.2238-.5.5c0 .2761.2239.5.5.5z"/><path d="m17.5 21.083c0 .2762-.2239.5-.5.5s-.5-.2238-.5-.5c0-.2761.2239-.5.5-.5s.5.2239.5.5z"/><path d="m17 24.2796c.2761 0 .5-.2239.5-.5 0-.2762-.2239-.5-.5-.5s-.5.2238-.5.5c0 .2761.2239.5.5.5z"/><path clip-rule="evenodd" d="m16.9986 2.01855c-1.7586 0-3.22 1.36824-3.22 3.10174v17.32881c-1.6291 1.0103-2.72 2.7685-2.72 4.786 0 3.1704 2.6793 5.7035 5.94 5.7035 3.2592 0 5.94-2.533 5.94-5.7035 0-2.0178-1.0936-3.7756-2.72-4.7858v-17.32901c0-1.7335-1.4614-3.10174-3.22-3.10174zm-2.22 3.10174c0-1.14011.9716-2.10174 2.22-2.10174 1.2483 0 2.22.96163 2.22 2.10174v17.61511c0 .1817.0986.3492.2576.4373 1.4788.8195 2.4624 2.3356 2.4624 4.0624 0 2.5767-2.1907 4.7035-4.94 4.7035-2.7506 0-4.94-2.1267-4.94-4.7035 0-1.7271.9812-3.2429 2.4621-4.0622.1591-.0881.2579-.2556.2579-.4375z" fill-rule="evenodd"/><path d="m22.5767 4.62035c-.2761 0-.5.22386-.5.5s.2239.5.5.5h1.36c.2762 0 .5-.22386.5-.5s-.2238-.5-.5-.5z"/><path d="m22.5767 11.1248c-.2761 0-.5.2239-.5.5 0 .2762.2239.5.5.5h4.08c.2762 0 .5-.2238.5-.5 0-.2761-.2238-.5-.5-.5z"/><path d="m22.5767 17.628c-.2761 0-.5.2239-.5.5s.2239.5.5.5h1.36c.2762 0 .5-.2239.5-.5s-.2238-.5-.5-.5z"/></g></svg>