<svg fill="none" height="34" viewBox="0 0 34 34" width="34" xmlns="http://www.w3.org/2000/svg"><g fill="#92a0a9"><path d="m25.2772 20.0662c0 .2762-.2239.5-.5.5-.2762 0-.5-.2238-.5-.5 0-.2761.2238-.5.5-.5.2761 0 .5.2239.5.5z"/><path d="m22.7305 19.8867c.2761 0 .5-.2238.5-.5 0-.2761-.2239-.5-.5-.5-.2762 0-.5.2239-.5.5 0 .2762.2238.5.5.5z"/><path clip-rule="evenodd" d="m24.9581.928711c-.2294 0-.4038.111579-.4988.182819-.0953.07152-.1836.15986-.2434.21971l-.0089.00895c-.0308.03076-.0574.0654-.0792.10304-.1006.17379-.2193.37734-.3531.60676-.8307 1.42403-2.2429 3.8453-3.5192 6.34038-.741 1.44859-1.4413 2.93183-1.9574 4.26753-.5097 1.3189-.864 2.553-.864 3.4808 0 4.1194 3.4046 7.5237 7.524 7.5237 4.1195 0 7.5241-3.4043 7.5241-7.5237 0-.9273-.354-2.1693-.8635-3.4983-.5161-1.3458-1.2162-2.84146-1.9574-4.29869-1.4828-2.91548-3.1469-5.71091-3.8789-6.90869-.0207-.03372-.0452-.06488-.0731-.09283l-.009-.00895c-.0598-.05985-.148-.14818-.2434-.21971-.095-.07124-.2694-.182819-.4988-.182819zm-.3216 1.628509c.1198-.20539.2279-.39069.3221-.55323l.0017.00163c.741 1.21457 2.3643 3.94763 3.8097 6.78942.7332 1.44166 1.4163 2.90296 1.915 4.20346.5051 1.3174.7972 2.411.7972 3.1402 0 3.567-2.9568 6.5237-6.5241 6.5237-3.5672 0-6.524-2.9567-6.524-6.5237 0-.7286.2917-1.8137.7967-3.1204.4985-1.2899 1.1816-2.7388 1.915-4.17253 1.2623-2.46781 2.6589-4.86237 3.4907-6.28855z" fill-rule="evenodd"/><path d="m9.41406 29.5969c0 .2761-.22385.5-.5.5-.27614 0-.5-.2239-.5-.5 0-.2762.22386-.5.5-.5.27615 0 .5.2238.5.5z"/><path d="m6.86719 29.417c.27614 0 .5-.2239.5-.5s-.22386-.5-.5-.5c-.27615 0-.5.2239-.5.5s.22385.5.5.5z"/><path clip-rule="evenodd" d="m9.19594 10.3358c-.2294 0-.40379.1116-.49878.1828-.09537.0716-.18361.1599-.2434.2197l-.00895.009c-.03076.0308-.05737.0654-.07917.103-.1006.1738-.2193.3773-.3531.6067-.83061 1.424-2.24298 3.8454-3.51925 6.3405-.74099 1.4486-1.44125 2.9318-1.95742 4.2675-.50969 1.3189-.86399 2.553-.86399 3.4808 0 4.1194 3.40459 7.5237 7.52406 7.5237 4.11626 0 7.51866-3.3989 7.52406-7.5139.0346-.9337-.2955-2.1777-.787-3.5029-.5001-1.3481-1.1927-2.8454-1.9345-4.3039-1.446-2.8432-3.0977-5.5757-3.9266-6.8313-.09989-.403-.52669-.5817-.87596-.5817zm-.32169 1.6287c.12039-.2065.22896-.3926.32357-.5558.79271 1.1932 2.45638 3.9366 3.90938 6.7935.7326 1.4404 1.4067 2.9 1.8882 4.1982.4882 1.3163.7539 2.4038.725 3.1255l-.0003.011-.0001.0089c0 3.567-2.9568 6.5237-6.52406 6.5237-3.56724 0-6.52406-2.9567-6.52406-6.5237 0-.7286.29178-1.8137.79676-3.1204.49851-1.2899 1.18153-2.7387 1.91493-4.1725 1.26236-2.4679 2.65888-4.8623 3.49068-6.2884z" fill-rule="evenodd"/></g></svg>