<svg fill="none" height="35" viewBox="0 0 34 35" width="34" xmlns="http://www.w3.org/2000/svg"><g fill="#92a0a9"><path clip-rule="evenodd" d="m12.9208 7.9998c-1.3641 0-2.54 1.17586-2.54 2.54 0 1.3641 1.1759 2.54 2.54 2.54h1.54v3.6022c0 .2761.2239.5.5.5.2762 0 .5-.2239.5-.5v-3.6022h3.08v4.7156l-.0001.0119c0 1.0227-.692 1.8851-1.6342 2.142-.2664.0727-.4235.3475-.3509.614.0727.2664.3475.4235.614.3508 1.2577-.343 2.2093-1.4289 2.3524-2.758.0123-.0433.0188-.089.0188-.1363v-4.94h1.54c1.3642 0 2.54-1.1759 2.54-2.54 0-1.36414-1.1758-2.54-2.54-2.54-1.3641 0-2.54 1.17586-2.54 2.54v1.54h-3.08v-1.54c0-1.36414-1.1758-2.54-2.54-2.54zm1.54 2.54v1.54h-1.54c-.8118 0-1.54-.7281-1.54-1.54 0-.81185.7282-1.53999 1.54-1.53999.8119 0 1.54.72814 1.54 1.53999zm6.62 1.54h-1.54v-1.54c0-.81185.7282-1.53999 1.54-1.53999.8119 0 1.54.72814 1.54 1.53999 0 .8119-.7281 1.54-1.54 1.54z" fill-rule="evenodd"/><path d="m15.2808 18.8757c0 .2762-.2238.5-.5.5-.2761 0-.5-.2238-.5-.5 0-.2761.2239-.5.5-.5.2762 0 .5.2239.5.5z"/><path clip-rule="evenodd" d="m6.3112 11.984c.00647-6.0667 4.7688-10.996695 10.6896-10.996695 5.9209 0 10.6832 4.929985 10.6897 10.996695.2112 4.3708-2.8298 8.0471-5.5864 10.1555-.0974.116-.1932.2945-.2886.5395-.0924.2373-.1703.4979-.2521.7717l-.0258.0864c-.087.2901-.1841.6073-.3067.8651-.0966.2031-.2602.4845-.5475.629.0244.0865.0374.1777.0374.272v2.72c0 2.0755-1.6445 3.72-3.72 3.72s-3.72-1.6445-3.72-3.72v-2.72c0-.0943.0131-.1855.0375-.272-.2874-.1446-.451-.4259-.5475-.629-.1226-.2578-.2198-.575-.3067-.8651l-.0259-.0864c-.0818-.2738-.1596-.5344-.252-.7717-.0954-.245-.1912-.4234-.2886-.5395-2.7591-2.1085-5.79761-5.7848-5.5864-10.1555zm13.9163 12.1547c-.105.0389-.1898.1101-.2466.1987-.0829-.0223-.1701-.0342-.2601-.0342h-5.44c-.0899 0-.1771.0119-.2601.0342-.0567-.0886-.1415-.1598-.2465-.1987-.0106-.0116-.0468-.0533-.1003-.1659-.0841-.1769-.1609-.4192-.2519-.7227l-.0264-.0885c-.0798-.2672-.1695-.5678-.2776-.8455-.1188-.3051-.2777-.6319-.5118-.8846-.0197-.0212-.0413-.0408-.0644-.0583-2.67401-2.0311-5.42533-5.4482-5.23122-9.352.00041-.0082.00061-.0165.00061-.0248 0-5.54943 4.34591-10.0091 9.68961-10.0091s9.6897 4.45967 9.6897 10.0091c0 .0083.0002.0166.0006.0248.1941 3.9037-2.5593 7.3209-5.2314 9.3521-.0231.0175-.0445.037-.0642.0582-.2341.2527-.393.5795-.5118.8846-.1081.2777-.1978.5782-.2776.8455l-.0264.0885c-.091.3035-.1678.5458-.2519.7227-.0535.1126-.0898.1543-.1003.1659zm-.5067 3.8845v-2.72h-5.44v2.72c0 1.5232 1.1968 2.72 2.72 2.72s2.72-1.1968 2.72-2.72z" fill-rule="evenodd"/><path d="m17.0008 33.9555c.2762 0 .5-.2238.5-.5 0-.2761-.2238-.5-.5-.5-.2761 0-.5.2239-.5.5 0 .2762.2239.5.5.5z"/></g></svg>