<svg fill="none" height="25" viewBox="0 0 25 25" width="25" xmlns="http://www.w3.org/2000/svg"><g clip-rule="evenodd" fill="#18303f" fill-rule="evenodd"><path d="m12.2672 8.9487v6.25c0 .2655.2153.4807.4808.4807.2656 0 .4808-.2152.4808-.4807v-6.25h.4807c.3978 0 .7666-.13467 1.0371-.40524.2706-.27057.4052-.63936.4052-1.03707s-.1346-.7665-.4052-1.03707c-.2705-.27056-.6393-.40524-1.0371-.40524h-.4807v-1.4423c0-.26552-.2152-.48077-.4808-.48077-.2655 0-.4808.21525-.4808.48077v1.4423h-.4808c-.3976 0-.7664.13468-1.037.40524-.2706.27057-.4053.63936-.4053 1.03707s.1347.7665.4053 1.03707.6394.40524 1.037.40524zm1.4423-.96154c.1793 0 .2913-.05763.3572-.12361.066-.06597.1236-.17795.1236-.35716s-.0576-.29119-.1236-.35716c-.0659-.06597-.1779-.12361-.3572-.12361h-1.9231c-.1791 0-.2911.05764-.3571.12361-.0659.06597-.1236.17795-.1236.35716s.0577.29119.1236.35716c.066.06598.178.12361.3571.12361z"/><path d="m18.5172 15.1987v-1.4423h-.4808c-.7145 0-1.4423-.5692-1.4423-1.4424 0-.3976.1347-.7664.4053-1.037s.6393-.4053 1.037-.4053h.4808v-6.24992c0-.26552.2153-.48077.4808-.48077.2656 0 .4807.21525.4807.48077v6.24992h.4808c.3978 0 .7666.1347 1.0371.4053.2706.2706.4052.6394.4052 1.037 0 .3978-.1346.7666-.4052 1.0372-.2705.2705-.6393.4052-1.0371.4052h-.4808v1.4423c0 .2655-.2151.4807-.4807.4807-.2655 0-.4808-.2152-.4808-.4807zm1.7995-2.5274c-.0659.0659-.178.1235-.3572.1235h-1.9231c-.247 0-.4807-.2-.4807-.4808 0-.1791.0577-.2911.1236-.3571.066-.0659.178-.1236.3571-.1236h1.9231c.1792 0 .2913.0577.3572.1236.066.066.1236.178.1236.3571 0 .1793-.0576.2913-.1236.3573z"/><path d="m6.49801 4.14101c.26553 0 .48077.21525.48077.48077v4.32692h.48077c.39772 0 .76651.13467 1.03707.40524.27057.27059.40523.63933.40523 1.03706 0 .3978-.13466.7665-.40523 1.0371-.27056.2706-.63935.4052-1.03707.4052h-.48077v3.3654c0 .2655-.21524.4807-.48077.4807-.26552 0-.48077-.2152-.48077-.4807v-3.3654h-.48077c-.39771 0-.7665-.1346-1.03707-.4052-.27056-.2706-.40524-.6393-.40524-1.0371 0-.39773.13468-.76647.40524-1.03706.27057-.27057.63936-.40524 1.03707-.40524h.48077v-4.32692c0-.26552.21525-.48077.48077-.48077zm1.3187 6.60719c-.06597.0659-.17795.1235-.35716.1235h-1.92308c-.1792 0-.29118-.0576-.35715-.1235-.06598-.066-.12362-.178-.12362-.3572s.05764-.2912.12362-.3571c.06597-.06601.17795-.1237.35715-.1237h1.92308c.17921 0 .29119.05769.35716.1237.06597.0659.12361.1779.12361.3571s-.05764.2912-.12361.3572z"/><path d="m18.998 17.9649c-.8416 0-1.5608.7192-1.5608 1.5608 0 .8415.7192 1.5608 1.5608 1.5608.8415 0 1.5608-.7193 1.5608-1.5608 0-.8416-.7193-1.5608-1.5608-1.5608zm-.5993 1.5608c0-.3105.2888-.5993.5993-.5993s.5993.2888.5993.5993c0 .3106-.2888.5993-.5993.5993s-.5993-.2887-.5993-.5993z"/><path d="m11.1675 19.524c0-.8424.7201-1.5625 1.5625-1.5625.8425 0 1.5625.7201 1.5625 1.5625 0 .8425-.72 1.5625-1.5625 1.5625-.8424 0-1.5625-.72-1.5625-1.5625zm1.5625-.6009c-.3113 0-.601.2895-.601.6009 0 .3115.2897.601.601.601.3114 0 .601-.2895.601-.601 0-.3114-.2896-.6009-.601-.6009z"/><path d="m6.49807 17.9648c-.84157 0-1.56085.7193-1.56085 1.5609 0 .8415.71928 1.5608 1.56085 1.5608.84156 0 1.56083-.7193 1.56083-1.5608 0-.8416-.71927-1.5609-1.56083-1.5609zm-.59931 1.5609c0-.3105.28879-.5993.59931-.5993s.5993.2888.5993.5993-.28878.5993-.5993.5993-.59931-.2888-.59931-.5993z"/><path d="m1.20955 6.54484c0-2.92074 2.36773-5.28846 5.28846-5.28846h12.49999c2.9208 0 5.2884 2.36772 5.2884 5.28846v12.49996c0 2.9208-2.3676 5.2885-5.2884 5.2885h-12.49999c-2.92073 0-5.28846-2.3677-5.28846-5.2885zm5.28846-4.32692c-2.38969 0-4.32692 1.93723-4.32692 4.32692v12.49996c0 2.3897 1.93723 4.3269 4.32692 4.3269h12.49999c2.3897 0 4.3269-1.9372 4.3269-4.3269v-12.49996c0-2.38969-1.9372-4.32692-4.3269-4.32692z"/></g></svg>