<svg fill="none" height="35" viewBox="0 0 34 35" width="34" xmlns="http://www.w3.org/2000/svg"><g fill="#92a0a9"><path d="m6.18609 27.0574c-.29568.1754-.67295.1295-.91529-.1144-2.38136-2.3962-3.85283-5.6978-3.85283-9.343 0-3.6455 1.47168-6.9473 3.85334-9.34362.24235-.24384.61962-.28977.91529-.11437.45453.26962.11186.90296-.25754 1.28091-2.06203 2.10978-3.33291 4.99608-3.33291 8.17918 0 3.1829 1.2707 6.069 3.33245 8.1787.36938.3779.71203 1.007.25749 1.2766z"/><path d="m10.108 12.313c.3009-.26.7585-.1987 1.0179.1027.3029.3521-.1483.8766-.4897 1.1914-1.07697.9928-1.75158 2.4154-1.75158 3.9956 0 1.5798.67432 3.0022 1.75088 3.995.3414.3148.7925.8346.4896 1.1866-.2594.3015-.7171.3627-1.018.1026-1.48167-1.2809-2.41925-3.1742-2.41925-5.2865 0-2.1127.93796-4.0064 2.42015-5.2874z"/><path d="m22.8804 12.4184c-.3027.352.1544.8784.4956 1.1933 1.0754.9927 1.749 2.4143 1.749 3.9933 0 1.5786-.6733 3-1.7484 3.9927-.341.3149-.7981.8321-.4954 1.1839.2596.3017.7176.3629 1.0185.1025 1.4797-1.2809 2.4159-3.173 2.4159-5.2837 0-2.1111-.9365-4.0036-2.4168-5.2845-.3009-.2603-.7589-.1991-1.0184.1025z"/><path d="m28.7342 26.9406c2.3799-2.396 3.8504-5.6966 3.8504-9.3406 0-3.6443-1.4707-6.9451-3.8509-9.34123-.2424-.24401-.6199-.28994-.9157-.11438-.4543.26968-.2199.90561.1492 1.28352 2.0608 2.10959 3.3309 4.99499 3.3309 8.17709 0 3.1818-1.2699 6.067-3.3304 8.1765-.3692.3779-.6035 1.0039-.1492 1.2735.2958.1756.6733.1296.9157-.1144z"/><path clip-rule="evenodd" d="m19.8346 17.5981c0 1.5648-1.2685 2.8333-2.8333 2.8333s-2.8333-1.2685-2.8333-2.8333 1.2685-2.8333 2.8333-2.8333 2.8333 1.2685 2.8333 2.8333zm-1 0c0 1.0125-.8208 1.8333-1.8333 1.8333s-1.8333-.8208-1.8333-1.8333.8208-1.8333 1.8333-1.8333 1.8333.8208 1.8333 1.8333z" fill-rule="evenodd"/></g></svg>