<svg fill="none" height="26" viewBox="0 0 25 26" width="25" xmlns="http://www.w3.org/2000/svg"><g fill="#18303f"><path d="m4.54894 19.6415c-.21741.1289-.49482.0952-.67301-.0841-1.75099-1.762-2.83296-4.1896-2.83296-6.8699 0-2.6805 1.08212-5.10829 2.83334-6.87031.17819-.17929.4556-.21306.67301-.0841.33421.19826.35734.66239.08572.94029-1.51619 1.55129-2.45067 3.67362-2.45067 6.01412 0 2.3404.93434 4.4625 2.45033 6.0137.27161.2779.24846.742-.08576.9403z"/><path d="m7.43272 8.80003c.22121-.19117.55773-.1461.74844.07552.22275.25886.15241.64281-.09868.87429-.79186.72996-1.28789 1.77606-1.28789 2.93796 0 1.1616.49583 2.2075 1.28739 2.9375.25103.2315.32132.6154.09857.8742-.19073.2216-.52729.2667-.74849.0755-1.08949-.9419-1.77888-2.3341-1.77888-3.8872 0-1.5535.68967-2.9459 1.77954-3.88777z"/><path d="m16.8242 8.87753c-.2226.25877-.1524.64249.0984.874.7908.72987 1.286 1.77527 1.286 2.93627 0 1.1607-.495 2.2059-1.2855 2.9358-.2508.2315-.3209.6152-.0983.8739.1908.2218.5276.2668.7488.0753 1.0881-.9418 1.7765-2.333 1.7765-3.885 0-1.5523-.6887-2.94381-1.7771-3.88565-.2213-.19142-.558-.14639-.7488.07538z"/><path d="m21.1284 19.5556c1.75-1.7618 2.8312-4.1887 2.8312-6.8681 0-2.6796-1.0814-5.10667-2.8316-6.86855-.1782-.17942-.4557-.21319-.6732-.0841-.3341.19829-.3572.66222-.0857.94009 1.5153 1.55115 2.4491 3.67276 2.4491 6.01256 0 2.3396-.9337 4.4611-2.4488 6.0121-.2714.2779-.2483.7419.0858.9401.2174.1291.495.0953.6732-.0841z"/><path clip-rule="evenodd" d="m14.5846 12.6869c0 1.1506-.9327 2.0833-2.0833 2.0833s-2.0833-.9327-2.0833-2.0833.9327-2.0833 2.0833-2.0833 2.0833.9327 2.0833 2.0833zm-1 0c0 .5983-.485 1.0833-1.0833 1.0833s-1.0833-.485-1.0833-1.0833.485-1.0833 1.0833-1.0833 1.0833.485 1.0833 1.0833z" fill-rule="evenodd"/></g></svg>