<svg fill="none" height="34" viewBox="0 0 34 34" width="34" xmlns="http://www.w3.org/2000/svg"><path clip-rule="evenodd" d="m28.5126 2.5392c-.3264.19968-.4355.42108-.4355.60514v.06387c.0006.00985.0009.01978.0009.02977v7.00602c0 .01-.0003.0199-.0009.0297v.0923c0 .184.1091.4054.4355.6051.3262.1995.8209.3392 1.4255.3392.6045 0 1.0993-.1397 1.4255-.3392.3264-.1997.4354-.4211.4354-.6051v-7.22166c0-.18406-.109-.40546-.4354-.60514-.3262-.19952-.821-.33919-1.4255-.33919-.6046 0-1.0993.13967-1.4255.33919zm-5.6689 8.2048h4.2815c.1205.4617.4552.8291.8656 1.0802.517.3163 1.2027.4861 1.9473.4861s1.4302-.1698 1.9473-.4861c.5168-.3162.9136-.817.9136-1.4582v-7.22166c0-.64127-.3968-1.14203-.9136-1.45818-.5171-.31632-1.2027-.48615-1.9473-.48615s-1.4303.16983-1.9473.48615c-.4019.24587-.7313.60339-.8579 1.05182h-4.2892c-5.8693 0-10.6882 4.60843-11.1077 10.27142-.0009.0123-.0014.0246-.0014.037v1.1658c-.4483.127-.8087.4514-1.059.8519-.3236.5178-.4975 1.205-.4975 1.9514s.1739 1.4336.4975 1.9514c.2165.3464.5155.6359.8824.7899v.5961c0 1.3271-.9905 2.533-2.36611 2.9029h-2.32101c-.12249-.4578-.45368-.8236-.86108-1.0749-.51734-.3191-1.20363-.4906-1.9489-.4906s-1.43156.1715-1.9489.4906c-.5175.3192-.91205.8231-.91205 1.4658v7.2819c0 .6427.39455 1.1466.91205 1.4658.51734.3192 1.20363.4906 1.9489.4906s1.43156-.1714 1.9489-.4906c.42439-.2617.7661-.6477.87532-1.1326h2.3705c.01188 0 .02376-.0005.03562-.0013 5.86536-.419 10.27276-5.2396 10.27276-10.9076v-.4768c.6289-.0134 1.1257-.3998 1.4441-.9092.3235-.5178.4975-1.205.4975-1.9514s-.174-1.4336-.4975-1.9514c-.2518-.4029-.6152-.7288-1.0673-.8542v-1.1308c.18-1.296 1.5198-2.3351 2.9029-2.3351zm4.2334-1.00004v-6.00598h-4.2334c-5.334 0-9.7189 4.18919-10.1091 9.32712v1.0598h6.2062v-1.0785c0-.0208.0013-.0415.0039-.0621.2366-1.8931 2.0897-3.24034 3.899-3.24034zm-14.5191 10.16124v.4477c0 1.8572-1.3838 3.4386-3.18112 3.888-.03966.0099-.08038.0149-.12126.0149h-2.32223v6.006h2.30419c5.33542-.3901 9.32642-4.7733 9.32642-9.9089v-.4477zm-1.3799-2.8897c0-.6027.1422-1.096.3455-1.4214.2029-.3247.4317-.4396.6298-.4396h7.3768c.1981 0 .427.1149.6298.4396.2034.3254.3456.8187.3456 1.4214s-.1422 1.096-.3456 1.4214c-.2028.3246-.4317.4395-.6298.4395h-7.3768c-.1981 0-.4269-.1149-.6298-.4395-.2033-.3254-.3455-.8187-.3455-1.4214zm-8.97815 6.6312c0-.1895.11137-.4138.43706-.6147.32586-.201.82005-.3417 1.42389-.3417s1.09803.1407 1.42389.3417c.32569.2009.43706.4252.43706.6147v7.2819c0 .1896-.11137.4138-.43706.6148-.32586.201-.82005.3416-1.42389.3416s-1.09803-.1406-1.42389-.3416c-.32569-.201-.43706-.4252-.43706-.6148z" fill="#92a0a9" fill-rule="evenodd"/></svg>