<svg fill="none" height="15" viewBox="0 0 15 15" width="15" xmlns="http://www.w3.org/2000/svg"><g fill="#2d3436"><path d="m3.89768.639261c.16569 0 .3-.134315.3-.3 0-.165686-.13431-.3000001-.3-.3000001-.16568 0-.3.1343141-.3.3000001 0 .165685.13432.3.3.3z"/><path d="m3.16351.610409c.09004.139084.05028.324826-.0888.414871-1.42473.92233-2.336404 2.48515-2.336404 4.1848 0 .67324.386294 1.33836.768804 1.78313.16285.18937.4353.37777.76819.51907.33059.14033.6984.22458 1.03761.22458.00914 0 .01827.00042.02737.00125.67.06139 1.28274-.17917 1.78591-.68287.45351-.52527.76152-1.18003.76152-1.86339 0-.0066.00022-.01321.00066-.0198.05282-.79867-.44812-1.58984-1.1942-2.07974-.1983.43442-.53695.6899-.75755.85633l-.02213.0167c-.06894.05211-.15701.07197-.24165.05447-.08463-.0175-.15761-.07065-.20023-.14583-.41931-.73963-.48399-1.5812-.27439-2.35421.04336-.15991.20814-.2544.36805-.21104s.2544.20815.21104.36806c-.14166.52244-.12893 1.07126.06386 1.57588.17819-.16487.3298-.36669.38791-.66271.01808-.0921.07822-.17043.16253-.21168.0843-.04125.18305-.04067.26687.00157 1.0495.52892 1.90437 1.6093 1.82922 2.82185-.00294.86422-.3925 1.65259-.91499 2.25446-.00436.00503-.00889.0099-.01357.01463-.61409.61897-1.39602.9411-2.25998.86603-.42776-.00221-.8699-.10737-1.2583-.27223-.39025-.16565-.74881-.40126-.98866-.68015-.422892-.49172-.913894-1.29287-.913894-2.17436 0-1.91778 1.027474-3.66377 2.610334-4.688474.13909-.09004.32483-.050282.41487.088803z"/><path d="m11.7988 13.6155c-2.57857.3437-4.45382.3332-7.06343-.0064-.64562-.0841-1.15343-.5933-1.23604-1.2393-.14402-1.1263-.22812-2.112-.25036-3.07671-.00382-.16564-.14119-.29683-.30683-.29301s-.29683.14119-.29301.30684c.02284.99078.10915 1.99798.25505 3.13898.11717.9163.83746 1.6389 1.75375 1.7581 2.65885.3461 4.58685.3572 7.22017.0062.916-.122 1.6303-.8495 1.7427-1.7648.3194-2.60051.3377-4.51674.0056-7.21513-.1143-.92894-.8497-1.659-1.7797-1.76581-1.4219-.16331-2.65646-.23512-3.90572-.21858h-.74096c-.16568 0-.3.13431-.3.3 0 .16568.13432.3.3.3h.74297l.004-.00003c1.2199-.01624 2.42911.05365 3.83121.21469.6545.07517 1.1722.58894 1.2527 1.24301.3258 2.64761.3081 4.51462-.0056 7.06875-.0793.646-.5832 1.1575-1.2265 1.2432z"/><path d="m10.7672 8.85586c0 1.38764-1.12487 2.51254-2.51249 2.51254-1.38761 0-2.5125-1.1249-2.5125-2.51254 0-.16568-.13431-.3-.3-.3-.16568 0-.3.13432-.3.3 0 1.71894 1.39352 3.11254 3.1125 3.11254 1.71899 0 3.11249-1.3936 3.11249-3.11254 0-1.71899-1.3935-3.1125-3.11249-3.1125-.36324 0-.71258.06235-1.03747.17719-.15622.05521-.23809.22661-.18288.38282.05521.15622.22661.23809.38283.18288.26156-.09245.54333-.14289.83752-.14289 1.38762 0 2.51249 1.12489 2.51249 2.5125z"/><path d="m8.59221 12.6188c0-.1657.13432-.3.3-.3.16569 0 .3.1343.3.3 0 .1656-.13431.3-.3.3-.16568 0-.3-.1344-.3-.3z"/><path d="m7.64299 12.3188c-.16568 0-.3.1343-.3.3 0 .1656.13432.3.3.3.16569 0 .3-.1344.3-.3 0-.1657-.13431-.3-.3-.3z"/><path d="m3.59299 9.49336c0-.16568.13432-.3.3-.3.16569 0 .3.13432.3.3 0 .16569-.13431.3-.3.3-.16568 0-.3-.13431-.3-.3z"/><path d="m4.51877 9.81856c-.16568 0-.3.13431-.3.30004 0 .1656.13432.3.3.3.16569 0 .3-.1344.3-.3 0-.16573-.13431-.30004-.3-.30004z"/><path d="m3.59299 10.7438c0-.1657.13432-.3.3-.3.16569 0 .3.1343.3.3 0 .1656-.13431.3-.3.3-.16568 0-.3-.1344-.3-.3z"/><path d="m9.51799 12.9434c-.16568 0-.3.1343-.3.3 0 .1656.13432.3.3.3.16569 0 .3-.1344.3-.3 0-.1657-.13431-.3-.3-.3z"/><path d="m7.96877 13.2434c0-.1657.13432-.3.3-.3.16569 0 .30001.1343.30001.3 0 .1656-.13432.3-.30001.3-.16568 0-.3-.1344-.3-.3z"/><path d="m10.1438 5.44336c-.16571 0-.30003.13432-.30003.3 0 .16569.13432.3.30003.3.1657 0 .3-.13431.3-.3 0-.16568-.1343-.3-.3-.3z"/><path d="m11.093 5.74336c0-.16568.1343-.3.3-.3s.3.13432.3.3c0 .16569-.1343.3-.3.3s-.3-.13431-.3-.3z"/><path d="m10.7672 4.81875c-.1657 0-.3.13432-.3.3 0 .16569.1343.3.3.3s.3-.13431.3-.3c0-.16568-.1343-.3-.3-.3z"/><path d="m10.4672 6.36856c0-.16569.1343-.3.3-.3s.3.13431.3.3c0 .16568-.1343.3-.3.3s-.3-.13432-.3-.3z"/><path d="m12.0188 4.81875c-.1657 0-.3.13432-.3.3 0 .16569.1343.3.3.3s.3-.13431.3-.3c0-.16568-.1343-.3-.3-.3z"/><path d="m9.84377 4.49356c0-.16569.13432-.3.30003-.3.1657 0 .3.13431.3.3 0 .16568-.1343.3-.3.3-.16571 0-.30003-.13432-.30003-.3z"/><path d="m11.393 4.19356c-.1657 0-.3.13431-.3.3 0 .16568.1343.3.3.3s.3-.13432.3-.3c0-.16569-.1343-.3-.3-.3z"/></g></svg>