<svg fill="none" height="25" viewBox="0 0 25 25" width="25" xmlns="http://www.w3.org/2000/svg"><path d="m1.9828 5.34331c.20946-1.73529 1.56417-3.11353 3.2973-3.34015 5.2289-.68373 9.1049-.66236 14.3899.01369 1.7359.22206 3.1012 1.59222 3.3195 3.32865.663 5.2729.6921 9.1288.0175 14.4036-.2238 1.75-1.6198 3.1165-3.3732 3.3124-5.1371.5738-9.1031.5926-14.29536.0083-1.76104-.1982-3.15505-1.5809-3.36749-3.3403-.64715-5.3597-.61224-9.2158.01185-14.38619z" stroke="#2d3436" stroke-linecap="round" stroke-linejoin="round"/><g fill="#f94409"><path d="m15.9525 15.4301h-.4357c-.0671 0-.1118.0545-.1118.1091v.4258c0 .2948.2458.535.5475.535s.5475-.2402.5475-.535-.2458-.5349-.5475-.5349z"/><path d="m15.8073 10.0258c-.0894-.07647-.2347-.16381-.3352-.2184l-2.0559-1.08086c-.1117-.0655-.2458-.10917-.3687-.15285-.3576-.09825-.7374-.09825-1.095 0-.1341.03276-.257.08735-.3687.15285l-2.06704 1.08086c-.10056.05459-.23464.14193-.3352.2184-.43575.3602-.68156.8843-.68156 1.452v3.1334c0 1.0481.87151 1.8888 1.933 1.8888h3.6089c.3017 0 .5475-.2402.5475-.535v-.4258c0-.0655-.0559-.1091-.1117-.1091h-4.0447c-.45814 0-.83803-.3712-.83803-.8189v-3.1334c0-.3057.1676-.5786.43573-.7205l2.1229-1.10275c.2235-.09826.4581-.09826.6816 0l2.1229 1.10275c.2682.1419.4358.4148.4358.7205v2.7513c0 .2948.2458.535.5474.535.3017 0 .5475-.2402.5475-.535v-2.7513c.0112-.5677-.2458-1.0918-.6815-1.452z"/></g></svg>