<svg fill="none" height="25" viewBox="0 0 25 25" width="25" xmlns="http://www.w3.org/2000/svg"><path clip-rule="evenodd" d="m7.83311 21.5106c3.80709.4844 6.59909.4994 10.36119.0103 1.0713-.1392 1.9115-.9922 2.0407-2.0684.4474-3.726.4722-6.5064.0089-10.36611-.1308-1.08944-.9934-1.94563-2.0835-2.06756-1.4536-.16259-2.7723-.25972-4.0567-.29406-.276-.00738-.4938-.23714-.4864-.51318.0073-.27605.2371-.49384.5131-.48646 1.3173.03521 2.6644.13472 4.1412.2999 1.5517.17356 2.7791 1.39233 2.9651 2.94218.4732 3.94229.4476 6.80279-.0088 10.60449-.1833 1.5268-1.3761 2.7422-2.9047 2.9409-3.8511.5006-6.7289.4846-10.61631-.01-1.52875-.1945-2.7312-1.4007-2.92242-2.9295-.23066-1.8441-.35714-3.4627-.37213-5.0748-.00256-.2762.2192-.5021.49534-.5047.27613-.0025.50206.2192.50462.4954.01455 1.5644.13722 3.1434.36444 4.96.13459 1.0761.98098 1.9248 2.05637 2.0616z" fill="#2d3436" fill-rule="evenodd"/><path d="m8.96877 5.94001c.19526-.19527.19526-.51185 0-.70711s-.51185-.19526-.70711 0l-1.45343 1.45343-1.48056-1.48056c-.19526-.19526-.51184-.19526-.7071 0s-.19526.51185 0 .70711l1.48056 1.48056-1.54404 1.54403c-.19526.19526-.19526.51185 0 .70711s.51185.19526.70711 0l1.54403-1.54404 1.51691 1.51691c.19526.19526.51184.19526.70711 0 .19526-.19526.19526-.51184 0-.70711l-1.51691-1.5169z" fill="#f18303"/><path clip-rule="evenodd" d="m6.79443 12.3105c2.69751 0 4.88427-2.1867 4.88427-4.88423 0-2.69752-2.18676-4.88428-4.88427-4.88428s-4.88428 2.18676-4.88428 4.88428c0 2.69753 2.18677 4.88423 4.88428 4.88423zm5.88427-4.88423c0 3.24983-2.6345 5.88423-5.88427 5.88423-3.2498 0-5.884278-2.6344-5.884278-5.88423 0-3.2498 2.634478-5.88428 5.884278-5.88428 3.24977 0 5.88427 2.63448 5.88427 5.88428z" fill="#85949a" fill-rule="evenodd"/></svg>