<svg fill="none" height="40" viewBox="0 0 40 40" width="40" xmlns="http://www.w3.org/2000/svg"><path d="m4.80005 9.60001c0-4.41828 3.58172-8 7.99995-8h14.4c4.4183 0 8 3.58172 8 8v17.59999c0 6.1856-5.0144 11.2-11.2 11.2h-11.2c-4.41823 0-7.99995-3.5817-7.99995-8z" fill="#d9eef9"/><path d="m26.4001 6.39999h-8.8c-4.4183 0-8 3.58173-8 8.00001v15.2c0 4.4183 3.5817 8 8 8h8l3.2-.8 3.2-2.4 1.6-2.4.8-3.2v-14.4c0-4.41828-3.5817-8.00001-8-8.00001z" fill="#f0faff"/><g fill="#2d3436"><path d="m25.6 11.2c-.4418 0-.7999.3582-.7999.8s.3581.8.7999.8h4c.4419 0 .8001-.3582.8001-.8s-.3582-.8-.8001-.8z"/><path d="m25.6 17.6c-.4418 0-.7999.3582-.7999.8s.3581.8.7999.8h4c.4419 0 .8001-.3582.8001-.8s-.3582-.8-.8001-.8z"/><path d="m25.6 24c-.4418 0-.7999.3582-.7999.8s.3581.8.7999.8h4c.4419 0 .8001-.3582.8001-.8s-.3582-.8-.8001-.8z"/><path d="m16.0438 30.5516c.4418 0 .8-.3582.8-.8 0-.4419-.3582-.8-.8-.8s-.8.3581-.8.8c0 .4418.3582.8.8.8z"/><path clip-rule="evenodd" d="m12 1.60001c-3.9764 0-7.19995 3.22355-7.19995 7.2v22.39999c0 3.9765 3.22355 7.2 7.19995 7.2h12.8001c5.7437 0 10.4-4.6562 10.4-10.4v-19.19999c0-3.97645-3.2236-7.2-7.2001-7.2zm-5.59995 7.2c0-3.0928 2.5072-5.6 5.59995-5.6h16c3.0928 0 5.6 2.5072 5.6 5.6v19.19999c0 4.8601-3.9398 8.8-8.7999 8.8v-5.6c0-1.3255-1.0746-2.4-2.4001-2.4h-3.2c-.4418 0-.8.3582-.8.8s.3582.8.8.8h3.2c.4419 0 .8.3582.8.8v5.6h-6.4v-4.4968c0-.4418-.3581-.8-.8-.8-.4418 0-.8.3582-.8.8v4.4968h-3.2c-3.09275 0-5.59995-2.5072-5.59995-5.6v-12h4.79995c.4419 0 .8-.3582.8-.8s-.3581-.8-.8-.8h-4.79995v-4.8h11.19995c.4419 0 .8-.3582.8-.8s-.3581-.8-.8-.8h-11.19995z" fill-rule="evenodd"/></g></svg>