<svg fill="none" height="15" viewBox="0 0 15 15" width="15" xmlns="http://www.w3.org/2000/svg"><g fill="#2d3436"><path clip-rule="evenodd" d="m9.61321 5.57015c.00784.00705.0153.01451.02235.02235l2.44484 2.4448h.8595c.1657 0 .3.13432.3.3 0 .16569-.1343.3-.3.3h-.682v2.8357c0 .0223-.0025.044-.0071.0649.0038.019.0058.0387.0058.0589v2.2436h1.3138c.1657 0 .3.1343.3.3s-.1343.3-.3.3h-1.5963c-.0058.0004-.0116.0005-.0175.0005h-10.14952c-.16569 0-.3-.1343-.3-.3v-10.1495c0-.16568.13431-.3.3-.3h2.23594v-2.53593h-.225c-.16569 0-.3-.13432-.3-.300004 0-.165686.13431-.3.3-.3h.65832c.09355 0 .1771.04282.23212.109931zm-4.97019-1.5958v-2.52587l1.92422 1.92422v2.85512h-1.92375v-2.23642c0-.00572-.00016-.01141-.00047-.01705zm2.52422 2.48102v-2.48267l1.94531 1.94531v2.84622h-1.93651v-2.23641c0-.02498-.00305-.04925-.0088-.07245zm2.54531 2.7867v-2.72406l1.94535 1.94531v2.83348h-1.94544v-2.0472zm-7.60547-4.95067v9.5495h9.54952v-1.9441h-2.24414c-.16569 0-.3-.1343-.3-.3v-2.23257h-2.23642c-.16568 0-.3-.13431-.3-.3v-2.23641h-2.23255c-.16568 0-.3-.13432-.3-.3v-2.23642z" fill-rule="evenodd"/><path d="m3.15239.855466c0 .165684-.13431.300004-.3.300004-.16568 0-.3-.13432-.3-.300004 0-.165686.13432-.3.3-.3.16569 0 .3.134314.3.3z"/><path d="m.600049 14.4404c.165685 0 .3-.1343.3-.3s-.134315-.3-.3-.3c-.165686 0-.3.1343-.3.3s.134314.3.3.3z"/></g></svg>