<svg fill="none" height="20" viewBox="0 0 20 20" width="20" xmlns="http://www.w3.org/2000/svg"><path d="m7.61151 19.3754c-.10471.0001-.20818-.0227-.30313-.0669-.09494-.0442-.17906-.1086-.24645-.1888-.06738-.0801-.1164-.1741-.1436-.2752s-.03193-.207-.01385-.3101v-.0043l1.09805-6.0297h-4.25117c-.118 0-.23359-.0334-.33339-.0964-.0998-.0629-.17974-.1528-.23058-.2593-.05083-.1065-.07048-.2252-.05667-.3424s.06051-.2281.1347-.3199l8.56128-10.583546c.0975-.123702.2328-.212081.3852-.251623s.3136-.028071.4589.03266.2667.167379.3457.303635c.0789.136254.1111.294624.0915.450874 0 .01172-.0031.02305-.0051.03477l-1.1019 6.03125h4.2504c.118.00001.2335.03343.3333.09638.0998.06296.1798.15288.2306.25937.0509.10649.0705.22519.0567.34238s-.0605.22808-.1347.31984l-8.5625 10.58361c-.06728.085-.15287.1537-.2504.2011-.09753.0473-.20448.072-.31289.0723z" fill="#ffb000"/></svg>