<svg fill="none" height="15" viewBox="0 0 15 15" width="15" xmlns="http://www.w3.org/2000/svg"><path clip-rule="evenodd" d="m.496069 6.5c-.276142 0-.50000005.22386-.50000005.5s.22385805.5.50000005.5h.45611c.276141 0 .500001-.22386.500001-.5s-.22386-.5-.500001-.5zm4.104991 0c-.27614 0-.5.22386-.5.5s.22386.5.5.5h.91222c.27614 0 .5-.22386.5-.5s-.22386-.5-.5-.5zm4.16106.2c.09122-.12144.23646-.2.40004-.2h.91224c.2761 0 .5.22386.5.5 0 .01791-.001.03561-.0028.05303.0883.13605.1284.29292.1284.44697v6.1601h.8v-3.88022c0-.20362.0701-.41216.229-.57105s.3674-.22895.571-.22895h1.2c.2036 0 .4122.07006.5711.22895s.2289.36743.2289.57105v3.88022h.1c.2762 0 .5.2238.5.5 0 .2761-.2238.5-.5.5h-11.39227-.00771-1.79999-.00771-.592295c-.276142 0-.5-.2239-.5-.5 0-.2762.223858-.5.5-.5h.100001v-5.43998c0-.20363.070056-.41217.228946-.57106.158888-.15889.367428-.22894.571048-.22894h1.20001c.20362 0 .41216.07005.57105.22894s.22894.36743.22894.57106v5.43998h.80001v-5.02016c0-.20362.07005-.41216.22894-.57105s.36743-.22895.57106-.22895h1.2c.20362 0 .41216.07006.57105.22895s.22895.36743.22895.57105v5.02016h.79999v-6.1601c0-.20362.07006-.41216.22895-.57105s.36743-.22895.57105-.22895zm4.96118-.2c-.2762 0-.5.22386-.5.5s.2238.5.5.5h.4561c.2761 0 .5-.22386.5-.5s-.2239-.5-.5-.5zm-11.22328 7.1601h-.79999v-5.23998h.79999zm7.2-5.9601v5.96h-.8v-5.96zm3.59998 5.9599v-3.68002h-.8v3.68002zm-7.19997 0v-4.81996h-.8v4.81996z" fill="#18303f" fill-rule="evenodd"/></svg>