<svg fill="none" height="41" viewBox="0 0 40 41" width="40" xmlns="http://www.w3.org/2000/svg"><circle cx="20" cy="20.687" r="18.5" stroke="#00ac83"/><g fill="#00ac83"><path clip-rule="evenodd" d="m19.8955 10.687c-2.4125 0-4.4071 1.9628-4.4071 4.2844v2.5442h8.8142v-2.5442c0-2.3216-1.9946-4.2844-4.4071-4.2844zm-5.4071 4.2844v2.5442h-.3959c-1.2455 0-2.2844.9949-2.2844 2.2398v6.1992c0 1.261.5933 2.4444 1.4763 3.3053.8834.8614 2.0914 1.4343 3.372 1.4343h6.4709c1.2805 0 2.4885-.5729 3.3719-1.4343.883-.8609 1.4763-2.0443 1.4763-3.3053v-6.1992c0-1.2449-1.0388-2.2398-2.2844-2.2398h-.3885v-2.5442c0-2.8976-2.4664-5.28439-5.4071-5.28439s-5.4071 2.38679-5.4071 5.28439zm-.3959 3.5442h.8742c.0072.0003.0144.0005.0217.0005h9.8142c.0073 0 .0145-.0002.0217-.0005h.8668c.7173 0 1.2844.5709 1.2844 1.2398v6.1992c0 .9458-.4491 1.8822-1.1744 2.5893-.7249.7068-1.691 1.1503-2.6738 1.1503h-6.4709c-.9828 0-1.949-.4435-2.6739-1.1503-.7252-.7071-1.1744-1.6435-1.1744-2.5893v-6.1992c0-.6689.5671-1.2398 1.2844-1.2398zm6.3037 6.1109c0-.2762-.2238-.5-.5-.5-.2761 0-.5.2238-.5.5v1.1308c0 .2762.2239.5.5.5.2762 0 .5-.2238.5-.5z" fill-rule="evenodd"/><path d="m19.8934 24.6273c.5913 0 1.0706-.4674 1.0706-1.0439s-.4793-1.0438-1.0706-1.0438-1.0706.4673-1.0706 1.0438.4793 1.0439 1.0706 1.0439z" stroke="#00ac83" stroke-linecap="round" stroke-linejoin="round"/></g></svg>