<svg fill="none" height="25" viewBox="0 0 25 25" width="25" xmlns="http://www.w3.org/2000/svg"><g fill="#92a0a9"><path d="m8.10781 2.33685c1.09943-1.20769 2.70129-1.932553 4.39299-1.932553s3.2935.724863 4.3929 1.932553c.506-.29077 1.0793-.43255 1.7071-.43255 1.8007 0 3.3391 1.27549 3.5701 3.03816.7917.12866 1.5441.57995 1.9632 1.31338.4879.85371.4879 1.9432 0 2.79692-.5017.87801-1.4818 1.35154-2.4341 1.35154h-2.7c-.2761 0-.5-.2239-.5-.5 0-.27615.2239-.5.5-.5h2.7c.6477 0 1.2676-.3257 1.5659-.84768.3121-.54629.3121-1.25836 0-1.80464-.2984-.52213-.9176-.84768-1.5651-.84768-.2762 0-.5-.22386-.5-.5 0-1.40268-1.1545-2.5-2.6-2.5-.598 0-1.0849.16783-1.4877.49004-.1048.08387-.239.12206-.3723.10596s-.2545-.08512-.3363-.19154c-.905-1.17648-2.3583-1.90446-3.9037-1.90446s-2.99872.72798-3.90371 1.90446c-.08186.10642-.20307.17544-.33636.19154s-.26746-.02209-.3723-.10596c-.40276-.32221-.88969-.49004-1.48765-.49004-1.41903 0-2.51544 1.07713-2.60086 2.52936-.01555.26428-.2344.47064-.49914.47064-.64792 0-1.26847.32584-1.56666.84768-.31216.54628-.31216 1.25835 0 1.80464.29828.52198.91815.84768 1.56588.84768h2.7c.27614 0 .5.22385.5.5 0 .2761-.22386.5-.5.5h-2.7c-.95227 0-1.9324-.47353-2.434122-1.35154-.487837-.85372-.487837-1.94321 0-2.79692.422882-.74004 1.186072-1.19261 1.985472-1.31668.29591-1.73444 1.71885-3.03486 3.54943-3.03486.62782 0 1.20113.14178 1.70703.43255z"/><path d="m9 8.9043c.27614 0 .5.22385.5.5v2.5c0 .2761-.22386.5-.5.5s-.5-.2239-.5-.5v-2.5c0-.27615.22386-.5.5-.5z"/><path d="m13 9.4043c0-.27615-.2239-.5-.5-.5s-.5.22385-.5.5v1.5c0 .2761.2239.5.5.5s.5-.2239.5-.5z"/><path d="m16 8.9043c.2761 0 .5.22385.5.5v2.5c0 .2761-.2239.5-.5.5s-.5-.2239-.5-.5v-2.5c0-.27615.2239-.5.5-.5z"/><path d="m12.5 12.4043c-.8575 0-1.8041.3829-2.4198 1h-1.5802c-1.37614 0-2.5 1.1239-2.5 2.5s1.12386 2.5 2.5 2.5c.27614 0 .5-.2239.5-.5s-.22386-.5-.5-.5c-.82386 0-1.5-.6761-1.5-1.5s.67614-1.5 1.5-1.5h1.8c.1484 0 .2891-.0659.3841-.1799.3986-.4783 1.154-.8201 1.8159-.8201.6374 0 1.3166.3237 1.8464.8536.0938.0937.221.1464.3536.1464h1.8c.8239 0 1.5.6761 1.5 1.5s-.6761 1.5-1.5 1.5c-.2761 0-.5.2239-.5.5s.2239.5.5.5c1.3761 0 2.5-1.1239 2.5-2.5s-1.1239-2.5-2.5-2.5h-1.6003c-.6538-.5921-1.5088-1-2.3997-1z"/><path d="m9 19.4863c.27614 0 .5.2239.5.5 0 3.0274-1.8775 4.5-3.5 4.5-.27614 0-.5-.2238-.5-.5 0-.2761.22386-.5.5-.5.9775 0 2.5-.9274 2.5-3.5 0-.2761.22386-.5.5-.5z"/><path d="m16.5 19.9863c0-.2761-.2239-.5-.5-.5s-.5.2239-.5.5c0 2.138.9295 3.503 2.074 4.1233.2428.1316.5463.0414.6778-.2013.1316-.2428.0415-.5463-.2013-.6779-.7745-.4197-1.5505-1.4157-1.5505-3.2441z"/><path d="m12.5 18.7568c.2761 0 .5.2239.5.5v4.7297c0 .2761-.2239.5-.5.5s-.5-.2239-.5-.5v-4.7297c0-.2761.2239-.5.5-.5z"/><path d="m12.5 7.9043c.2761 0 .5-.22386.5-.5 0-.27615-.2239-.5-.5-.5s-.5.22385-.5.5c0 .27614.2239.5.5.5z"/><path d="m13 17.4043c0 .2761-.2239.5-.5.5s-.5-.2239-.5-.5.2239-.5.5-.5.5.2239.5.5z"/><path d="m19.5 24.5947c.2761 0 .5-.2238.5-.5 0-.2761-.2239-.5-.5-.5s-.5.2239-.5.5c0 .2762.2239.5.5.5z"/></g></svg>