<svg fill="none" height="25" viewBox="0 0 25 25" width="25" xmlns="http://www.w3.org/2000/svg"><path clip-rule="evenodd" d="m7.03365 4.45792c.18443-.5533.45678-1.09555.81019-1.5393.5136-.596 1.17803-.91862 1.91566-.91862h1.8994c.631 0 1.1761.31492 1.4844.77735.0769.11544.1361.36193-.0138.61398-.0153.02584-.0283.053-.0388.08117l-.4775 1.28304-.6165.21586-1.2708-.42721c.2-.34458.2963-.68451.2963-1.04419 0-.27614-.2238-.5-.5-.5-.2761 0-.5.22386-.5.5 0 .23865-.08434.52502-.47838.96713-.11175.12539-.15308.29851-.11002.46086s.16476.29223.32397.34575l2.08293.7002c.1054.03543.2196.03472.3245-.00203l1-.35009c.0018-.00065.0022-.00054.0018-.00052-.0002.00001.0004-.00007.0021.00037.0019.00047.0048.00151.0084.00354.0027.00154.0053.00338.0077.00542-.1255.31187-.2754.56904-.5181.78733-.249.22397-.6307.43809-1.2662.59697v-.00003l-.0054.00143-1.60517.42067c-.19418.05089-.3391.21298-.36803.41162l-1.39489 9.57938c-.03143.2158.08071.4271.27708.5221s.43165.0517.58136-.1069c1.97495-2.093 4.05855-4.0478 6.18875-5.2721 2.1052-1.21 4.1962-1.6743 6.2585-.922 1.2082.8017 1.9159 2.3043 1.8267 3.8215l-.0007.0144-.0002.015c0 1.586-.0498 2.7938-.4252 3.7631-.3585.9251-1.0334 1.6747-2.4122 2.2789-3.0264 1.3263-7.434 1.7592-11.0951 1.389-1.82883-.1849-3.42858-.5663-4.55471-1.1081-1.15259-.5546-1.64949-1.1906-1.64949-1.8229 0-.0329-.00326-.0658-.00971-.0981-.02022-.1011-.02062-.3638.03084-.8198.04892-.4334.13725-.9852.25825-1.6251.24175-1.2786.60901-2.8833 1.03465-4.5455.85545-3.34064 1.92942-6.84543 2.67378-8.39522.0091-.01894.01699-.03843.02364-.05836zm6.85105.4579c-.0608-.05916-.1302-.11184-.2062-.15571l.335-.90003c.3406-.6107.2191-1.25148-.0382-1.63743-.4917-.73757-1.3474-1.22265-2.3164-1.22265h-1.8994c-1.05974 0-1.99477.4743-2.68041 1.27421l-.01081.01305c-.43711.54639-.75855 1.19015-.97323 1.8244-.79157 1.66293-1.87857 5.23633-2.72756 8.55174-.42901 1.6754-.80158 3.3019-1.0485 4.6078-.12334.6523-.21655 1.2309-.26935 1.6987-.04714.4177-.06967.8037-.027 1.076.02375 1.211.9861 2.0866 2.21549 2.6781 1.27133.6117 2.99853 1.0109 4.88767 1.2019 3.7748.3817 8.3672-.0525 11.5971-1.4679 1.5794-.6922 2.4728-1.6195 2.9432-2.8337.4519-1.1665.4926-2.5556.4928-4.1099.1041-1.8595-.7686-3.732-2.3292-4.7353-.0299-.0192-.0617-.0352-.095-.0476-2.4583-.92097-4.8874-.3327-7.1584.9726-1.8592 1.0685-3.6528 2.6391-5.3359 4.3336l1.1238-7.71731 1.2821-.33601c.748-.18735 1.2895-.46313 1.6895-.82291.4023-.36176.6263-.77722.786-1.17978.1643-.41394.0171-.81878-.2371-1.06587zm3.574 9.98408c-.2761 0-.5.2239-.5.5s.2239.5.5.5h.5v2.191l-1.2763-.6382c-.247-.1235-.5474-.0234-.6709.2236s-.0234.5473.2236.6708l1.9911.9955c.0623.0328.1324.0529.2068.0567.0085.0004.0171.0006.0257.0006.01 0 .0199-.0003.0298-.0009.0729-.0042.1416-.0241.2028-.0564l1.9911-.9955c.2469-.1235.3471-.4238.2236-.6708s-.4239-.3471-.6709-.2236l-1.2764.6382v-2.191h.5c.2762 0 .5-.2239.5-.5s-.2238-.5-.5-.5h-.5v-1c0-.2761-.2238-.5-.5-.5-.2761 0-.5.2239-.5.5v1z" fill="#92a0a9" fill-rule="evenodd"/></svg>