<svg fill="none" height="25" viewBox="0 0 25 25" width="25" xmlns="http://www.w3.org/2000/svg"><g clip-rule="evenodd" fill="#92a0a9" fill-rule="evenodd"><path d="m12.5 24c6.3513 0 11.5-5.1487 11.5-11.5 0-6.35127-5.1487-11.5-11.5-11.5-6.35127 0-11.5 5.14873-11.5 11.5 0 6.3513 5.14873 11.5 11.5 11.5zm0 1c6.9036 0 12.5-5.5964 12.5-12.5 0-6.90356-5.5964-12.5-12.5-12.5-6.90356 0-12.5 5.59644-12.5 12.5 0 6.9036 5.59644 12.5 12.5 12.5z"/><path d="m10.2014 16.8892c-.39049-.3905-.39049-1.0237 0-1.4142l6.3667-6.36668c.3906-.39052 1.0237-.39052 1.4142 0 .3906.39053.3906 1.02368 0 1.41418l-6.3666 6.3667c-.3906.3906-1.0237.3906-1.4143 0z"/><path d="m11.6117 16.8902c-.3905.3905-1.0236.3905-1.4142 0l-3.18195-3.182c-.39052-.3905-.39052-1.0237 0-1.4142s1.02369-.3905 1.41421 0l3.18194 3.182c.3906.3905.3906 1.0237 0 1.4142z"/></g></svg>