<svg fill="none" height="25" viewBox="0 0 25 25" width="25" xmlns="http://www.w3.org/2000/svg"><g fill="#92a0a9"><path clip-rule="evenodd" d="m8.99829 6.78809c-1.34281 0-2.5 1.15719-2.5 2.5s1.15719 2.50001 2.5 2.50001 2.50001-1.1572 2.50001-2.50001-1.1572-2.5-2.50001-2.5zm-1.5 2.5c0-.79053.70947-1.5 1.5-1.5.79052 0 1.50001.70947 1.50001 1.5 0 .79051-.70949 1.50001-1.50001 1.50001-.79053 0-1.5-.7095-1.5-1.50001z" fill-rule="evenodd"/><path clip-rule="evenodd" d="m15.9983 6.78809c-1.3428 0-2.5 1.15719-2.5 2.5s1.1572 2.50001 2.5 2.50001 2.5-1.1572 2.5-2.50001-1.1572-2.5-2.5-2.5zm-1.5 2.5c0-.79053.7095-1.5 1.5-1.5s1.5.70947 1.5 1.5c0 .79051-.7095 1.50001-1.5 1.50001s-1.5-.7095-1.5-1.50001z" fill-rule="evenodd"/><path d="m11.3599 14.9481c.3248 0 .5882-.2634.5882-.5882 0-.3249-.2634-.5882-.5882-.5882-.3249 0-.5882.2633-.5882.5882 0 .3248.2633.5882.5882.5882z"/><path d="m10.1841 17.1238c.3248 0 .5882-.2633.5882-.5881 0-.3249-.2634-.5882-.5882-.5882-.32484 0-.58818.2633-.58818.5882 0 .3248.26334.5881.58818.5881z"/><path d="m13.1238 16.5357c0 .3248-.2633.5881-.5881.5881-.3249 0-.5882-.2633-.5882-.5881 0-.3249.2633-.5882.5882-.5882.3248 0 .5881.2633.5881.5882z"/><path d="m13.7114 14.9481c.3249 0 .5882-.2634.5882-.5882 0-.3249-.2633-.5882-.5882-.5882-.3248 0-.5881.2633-.5881.5882 0 .3248.2633.5882.5881.5882z"/><path d="m14.8872 17.1238c.3249 0 .5882-.2633.5882-.5881 0-.3249-.2633-.5882-.5882-.5882-.3248 0-.5882.2633-.5882.5882 0 .3248.2634.5881.5882.5881z"/><path d="m13.7114 19.1941c.3249 0 .5882-.2633.5882-.5881 0-.3249-.2633-.5882-.5882-.5882-.3248 0-.5881.2633-.5881.5882 0 .3248.2633.5881.5881.5881z"/><path d="m11.3599 19.1941c.3248 0 .5882-.2633.5882-.5881 0-.3249-.2634-.5882-.5882-.5882-.3249 0-.5882.2633-.5882.5882 0 .3248.2633.5881.5882.5881z"/><path clip-rule="evenodd" d="m17.6198 16.7318c.1989-.2104.5395-.6049.8492-1.0019.1768-.2265.3512-.4636.4875-.6762.0681-.106.1312-.2129.1811-.3141.029-.0587.0613-.1306.0858-.2092.4679-.6945.8186-1.6697 1.0553-2.6465.2481-1.0237.3841-2.10434.3841-2.97081 0-4.48732-3.6377-8.125004-8.125-8.125004-4.48733 0-8.12502 3.637684-8.12502 8.125004 0 .86647.13596 1.94711.38406 2.97081.23671.9768.58744 1.952 1.05531 2.6465.02447.0786.05679.1505.08579.2092.04995.1012.11306.2081.18109.3141.13637.2126.31077.4497.48749.6762.27689.3549.57846.7078.7814.9289.0295.7265.32156 1.4442.8762 1.9989l2.12028 2.1203c1.1716 1.1716 3.0711 1.1716 4.2427 0l2.1203-2.1203c.5361-.5361.8269-1.2246.8724-1.9259zm-5.082-14.94371c-3.93505 0-7.12502 3.18997-7.12502 7.125 0 .77578.12364 1.77681.35592 2.73531.23445.9674.56663 1.837.95421 2.3831.04334.0611.07237.1311.08502.2048l.00053.0014c.00222.006.0092.0249.02613.0592.02756.0558.06945.1285.1261.2168.11299.1761.26666.3863.43424.601.0724.0928.14597.1847.21823.2731.1464-.3538.36339-.6852.65096-.9728l2.12028-2.1203c1.1716-1.1716 3.0711-1.1716 4.2427 0l2.1203 2.1203c.3017.3017.5257.6517.672 1.0251.086-.1042.1744-.2141.2612-.3254.1676-.2147.3213-.4249.4343-.601.0566-.0883.0985-.161.1261-.2168.0169-.0343.0239-.0532.0261-.0592l.0005-.0014c.0127-.0737.0417-.1437.085-.2048.3876-.5461.7198-1.4157.9543-2.3831.2322-.9585.3559-1.95953.3559-2.73531 0-3.93503-3.19-7.125-7.125-7.125zm-1.4462 11.21371-2.12038 2.1203c-.78105.7811-.78105 2.0474 0 2.8285l2.12038 2.1203c.781.781 2.0473.781 2.8284 0l2.1203-2.1203c.7811-.7811.7811-2.0474 0-2.8285l-2.1203-2.1203c-.7811-.781-2.0474-.781-2.8284 0z" fill-rule="evenodd"/></g><g stroke="#92a0a9" stroke-linecap="round" stroke-linejoin="round"><path d="m15.6046 19.2458 1.9046 1.9034c0 .4519.3147 1.5228.905 1.8068s1.3442.082 1.6265-.5095l1.0291-1.6082c.3508-.6098 1.1004-2.1379.0569-2.8548-.5402-.3711-1.8087.0004-2.1801.2818l-1.622-.7341"/><path d="m9.30494 19.4066-1.74185 1.7418c-.0008.4518-.31148 1.5316-.90052 1.8108-.58903.2793-1.34296.0773-1.62672-.5087l-1.01452-1.6625c-.3523-.6043-1.35188-1.9388-.076-2.8049.53872-.3656 1.3568 0 2.15851.251l1.54708-.656"/><path d="m18.7608 14.3209c.8832-1.2446 1.4024-3.7656 1.4024-5.40781 0-4.21118-3.4138-7.625-7.625-7.625-4.21116 0-7.62499 3.41382-7.62499 7.625 0 1.64221.51918 4.16321 1.40237 5.40781.05884.4139.24743 1.8128.56577 2.1312l4.24265 4.2426c.781.7811 2.0474.7811 2.8284 0l4.2427-4.2426c.3183-.3184.5069-1.7173.5657-2.1312z"/></g></svg>