<svg fill="none" height="26" viewBox="0 0 25 26" width="25" xmlns="http://www.w3.org/2000/svg"><path d="m3.78516 6.31348c0-1.65686 1.34314-3 3-3h11.42924c1.6568 0 3 1.34314 3 3v.46484c0 .55229-.4477 1-1 1h-15.42924c-.55229 0-1-.44771-1-1z" fill="#18303f"/><g stroke="#18303f" stroke-linecap="round" stroke-linejoin="round"><rect height=".945259" rx=".47263" width="3.70252" x="10.6484" y="8.06934"/><path d="m3.78563 6.89682v.17251c0 .55229.44771 1 1 1l15.42917.00001c.5523 0 1-.44772 1-1v-.17252"/><path d="m10.7812 23.0699h-3.99604c-1.65686 0-3-1.3431-3-3v-13.75642c0-1.65685 1.34314-3 3-3h11.42924c1.6568 0 3 1.34314 3 3v13.75642c0 1.6569-1.3432 3-3 3h-3.9488"/><path d="m12.5 23.0693v-.01" stroke-miterlimit="10"/></g><g fill="#fff"><circle cx="6.5" cy="5.27832" r=".5"/><circle cx="6.5" cy="7.27832" r=".5"/><circle cx="18.5" cy="5.27832" r=".5"/><circle cx="18.5" cy="7.27832" r=".5"/></g></svg>