<svg fill="none" height="26" viewBox="0 0 25 26" width="25" xmlns="http://www.w3.org/2000/svg"><path d="m3.78516 6.31299c0-1.65686 1.34314-3 3-3h11.42924c1.6568 0 3 1.34314 3 3v6.75631c0 .5523-.4477 1-1 1h-15.42924c-.55229 0-1-.4477-1-1z" fill="#18303f"/><g stroke="#18303f" stroke-linecap="round" stroke-linejoin="round"><rect height=".945259" rx=".47263" width="3.70252" x="10.6486" y="14.0695"/><path d="m3.78563 10.8968v2.1725c0 .5523.44771 1 1 1h15.42917c.5523 0 1-.4477 1-1v-2.1725"/><path d="m10.7812 23.0694h-3.99604c-1.65686 0-3-1.3431-3-3v-13.75641c0-1.65685 1.34314-3 3-3h11.42924c1.6568 0 3 1.34314 3 3v13.75641c0 1.6569-1.3432 3-3 3h-3.9488"/><path d="m12.4998 23.0693v-.01" stroke-miterlimit="10"/></g><g fill="#fff"><circle cx="6.5" cy="5.27832" r=".5"/><circle cx="6.5" cy="7.27832" r=".5"/><circle cx="6.5" cy="9.27832" r=".5"/><circle cx="6.5" cy="11.2783" r=".5"/><circle cx="6.5" cy="13.2783" r=".5"/><circle cx="18.5" cy="5.27832" r=".5"/><circle cx="18.5" cy="7.27832" r=".5"/><circle cx="18.5" cy="9.27832" r=".5"/><circle cx="18.5" cy="11.2783" r=".5"/><circle cx="18.5" cy="13.2783" r=".5"/></g></svg>