<svg fill="none" height="26" viewBox="0 0 26 26" width="26" xmlns="http://www.w3.org/2000/svg"><g fill="#18303f"><path clip-rule="evenodd" d="m6.16797 5.50098c0-2.76143 2.23858-5.000003 5.00003-5.000003h3.6635c2.7614 0 5 2.238573 5 5.000003v3.66351c0 2.76141-2.2386 5.00001-5 5.00001h-3.6635c-2.76145 0-5.00003-2.2386-5.00003-5.00001zm5.00003-4h3.6635c2.2091 0 4 1.79086 4 4v3.66351c0 2.20911-1.7909 4.00001-4 4.00001h-3.6635c-2.20917 0-4.00003-1.7909-4.00003-4.00001v-3.66351c0-2.20914 1.79086-4 4.00003-4z" fill-rule="evenodd"/><path d="m13.5455 22.5432c-.1535.1535-.3904.1727-.5647.0576-.0249-.0164-.0485-.0356-.0704-.0576l-1.5211-1.521c-.1754-.1754-.1754-.4598 0-.6352s.4597-.1754.6351 0l.7331.7331v-2.4491c0-.2602.211-.4711.4712-.4711s.4711.2109.4711.4711v2.4477l.7316-.7317c.1754-.1754.4598-.1754.6352 0s.1754.4598 0 .6352z"/><path clip-rule="evenodd" d="m13.1925 25.5003c2.8678 0 5.1926-2.3248 5.1926-5.1925 0-2.8678-2.3248-5.1926-5.1926-5.1926-2.8677 0-5.1925 2.3248-5.1925 5.1926 0 2.8677 2.3248 5.1925 5.1925 5.1925zm0-1c2.3155 0 4.1926-1.8771 4.1926-4.1925 0-2.3155-1.8771-4.1926-4.1926-4.1926-2.3154 0-4.1925 1.8771-4.1925 4.1926 0 2.3154 1.8771 4.1925 4.1925 4.1925z" fill-rule="evenodd"/></g></svg>