<svg fill="none" height="25" viewBox="0 0 26 25" width="26" xmlns="http://www.w3.org/2000/svg"><g stroke="#18303f" stroke-linecap="round" stroke-linejoin="round"><path d="m20.736 9.37216 3.9099 2.73694v10.1657c0 .782-.6842 1.4662-1.4662 1.4662h-19.54943c-.78198 0-1.46621-.6842-1.46621-1.4662v-10.2635l3.90989-2.73689"/><path d="m5.09788 20.8083-.02366.0231m16.64068-.0231-4.8874-3.9099h-6.84226l-3.51843 2.8148"/><path d="m24.648 12.0107-5.8648 3.9099"/><path d="m2.16406 12.0107 5.86484 3.9099"/><path d="m20.7383 14.6511v-12.41386c0-.58649-.391-.97747-.9775-.97747h-12.70716c-.58648 0-.97747.39098-.97747.97747v12.41386"/><path d="m13.4062 9.79199c.8975 0 1.625-.72753 1.625-1.625 0-.89746-.7275-1.625-1.625-1.625-.8974 0-1.625.72754-1.625 1.625 0 .89747.7276 1.625 1.625 1.625z"/><path d="m15.0306 8.16674v.86667c0 .75833.65 1.29999 1.3 1.29999.7583 0 1.3-.64999 1.3-1.29999v-.65c.1083-2.38334-1.7334-4.44167-4.1167-4.55-2.3833-.10834-4.44165 1.84166-4.44165 4.225-.10833 2.05829 1.30005 3.89999 3.35835 4.33329.7583.2167 1.4083.1084 2.1666 0"/></g></svg>