<svg fill="none" height="26" viewBox="0 0 25 26" width="25" xmlns="http://www.w3.org/2000/svg"><path d="m12.5001 21.0818c-6.88854 0-12.5001-1.6657-12.5001-3.6881 0-2.0227 5.10848-11.93691 12.0356-11.93691 6.9274 0 12.9644 9.91401 12.9644 11.93691 0 2.0224-5.6112 3.6881-12.4999 3.6881zm0-1.0674c6.2524 0 11.4582-1.5389 11.4582-2.6207 0-.2731-.3367-1.149-.9151-2.1905-.6932-1.248-1.6396-2.6008-2.7053-3.8264-2.6304-3.02484-5.5594-4.85254-8.3022-4.85254-2.71995 0-5.44067 1.7995-7.80375 4.81134-1.79064 2.2823-3.19029 5.1759-3.19029 6.0581 0 1.0817 5.20613 2.6206 11.45844 2.6206zm5.1856-7.0225c.5419 0 .271-.3966.0776-.6347-.0762-.0806-.2453-.2492-.5074-.5058-2.2694-2.126-4.546-2.44753-6.9232-1.6353-2.47665.8325-4.79877 4.0845-4.41163 4.5208.50307.5553 3.59893 2.9345 7.19823 2.7757 2.6701-.0793 3.8701-1.3881 4.412-2.3.0718-.1308.1879-.2212.3244-.2777.5866-.198 1.0713.0888 1.1072.2014.0685.0876.0656.1652 0 .2745-.9287 1.3881-3.1347 2.9741-5.186 3.1726-2.5155.2376-4.76014-.714-5.95984-1.1899-1.12206-.4363-3.32789-1.4276-3.7925-1.7051-.92885-.5553.30968-1.5863 1.39327-2.9745 1.81888-2.2602 4.06336-3.68792 6.61767-3.8861 1.9736-.15876 3.9088.71368 5.1085 1.6259.8127.6345 1.4316 1.4673 1.8579 2.3792.0386.0794.8508.1588 1.0834.2381.2324.0794.6966.1588.6966.3172 0 .2775-.0388.5157-.1161.8328-.0597.1218-.7796-.0132-1.234-.1007-.5733-.1091-1.0157-.1768-1.6719-.2756-.8432-.1119-1.697-.1788-2.5509-.1788-1.7804 0-4.3344.3175-4.4893.2776-1.12224-.2776 1.3545-.8329 3.5605-1.1104.9992-.1191 1.8728-.0522 2.5035.0289.505.0776.8057.1209.902.1298z" fill="#18303f"/></svg>