<svg fill="none" height="13" viewBox="0 0 13 13" width="13" xmlns="http://www.w3.org/2000/svg"><g clip-rule="evenodd" fill="#18303f" fill-rule="evenodd"><path d="m7.20481 3.20173c.39053.39053.39053 1.02369 0 1.41422l-3.18198 3.18198c-.39052.39052-1.02373.39052-1.41423 0-.3905-.39053-.3905-1.02369 0-1.41422l3.182-3.18198c.39053-.39052 1.02369-.39052 1.41421 0z"/><path d="m5.7906 3.20173c.39053-.39052 1.02369-.39052 1.41421 0l3.18199 3.18198c.3905.39053.3905 1.02369 0 1.41422-.39053.39052-1.0237.39052-1.41422 0l-3.18198-3.18198c-.39052-.39053-.39052-1.02369 0-1.41422z"/></g></svg>