<svg fill="none" height="25" viewBox="0 0 26 25" width="26" xmlns="http://www.w3.org/2000/svg"><path d="m7.93298 8.30457c.36486.8289.83988 1.59075 1.45831 2.35263.69141-1.49341 1.08651-3.08635 1.08651-4.6793 0-1.21384-.2266-2.382-.61836-3.47355m.82016-1.12935c4.6625 1.48869 8.0437 5.62064 8.6067 10.6084.0469.4152.0743.8363.0812 1.2623v.2987c.3746-.1373.7493-.2983 1.1158-.4789.275-.1355.5454-.2819.8078-.4377m-14.76003-4.51036c-.07466.08345-.14764.16816-.21894.25406-1.40398 1.6915-2.15588 3.8487-2.15588 6.0689v.4978c.19755 5.1771 4.44484 9.1595 9.58115 9.0599 5.0374-.1991 9.0872-4.3806 9.0872-9.5577 0-.4012-.0198-.8024-.0683-1.1947" stroke="#18303f" stroke-linecap="round" stroke-linejoin="round"/><path d="m13.7844 14.7286c-.2694.9933-.1838 2.0626.3463 2.9975.3951-.2986.7902-.6969.9877-1.2942 0-.0996.0988-.0996.0988-.1991h.1975c1.3829.6969 2.1731 2.0907 2.0743 3.5841 0 1.0951-.3951 2.0907-1.0865 2.8872-.7902.7965-1.778 1.1947-2.8645 1.0952-1.0865 0-2.0742-.3983-2.8644-1.1948-.79022-.6969-1.18532-1.6925-1.18532-2.7876 0-2.6004 1.42252-4.9743 3.61572-6.3335" stroke="#18303f" stroke-linecap="round" stroke-linejoin="round"/><g fill="#18303f"><circle cx="22.5586" cy="11.7432" r=".5"/><circle cx="14.4492" cy="12.8457" r=".5"/><circle cx="9.17578" cy=".890625" r=".5"/><circle cx="7.5" cy="7.12988" r=".5"/></g></svg>