<svg fill="none" height="16" viewBox="0 0 15 16" width="15" xmlns="http://www.w3.org/2000/svg"><circle cx="7.005" cy="7.505" fill="#e0e5f0" opacity=".25" r=".005"/><path clip-rule="evenodd" d="m7.5 2.875c-2.83046 0-5.125 2.29454-5.125 5.125 0 2.8305 2.29454 5.125 5.125 5.125 2.8305 0 5.125-2.2945 5.125-5.125 0-2.83046-2.2945-5.125-5.125-5.125zm-5.875 5.125c0-3.24467 2.63033-5.875 5.875-5.875 3.2447 0 5.875 2.63033 5.875 5.875 0 3.2447-2.6303 5.875-5.875 5.875-3.24467 0-5.875-2.6303-5.875-5.875zm5.875-2.875c.20711 0 .375.16789.375.375v.1c0 .20711-.16789.375-.375.375s-.375-.16789-.375-.375v-.1c0-.20711.16789-.375.375-.375zm0 2c.20711 0 .375.16789.375.375v3c0 .2071-.16789.375-.375.375s-.375-.1679-.375-.375v-3c0-.20711.16789-.375.375-.375z" fill="#18303f" fill-rule="evenodd"/></svg>