<svg fill="none" height="25" viewBox="0 0 25 25" width="25" xmlns="http://www.w3.org/2000/svg"><path clip-rule="evenodd" d="m.76881 2.98625c-.232411-.39294-.169203-.89339.153607-1.2162l.865693-.865691c.32281-.322811.82326-.386019 1.2162-.153607l2.57312 1.521928c.56219.33253.65987 1.10596.19801 1.56782l-.00334.00335 6.5035 6.50355 3.4047-3.40462c-.7044-1.66344-.3809-3.58557.93-4.89647 1.3891-1.389123 3.4767-1.738755 5.2181-.9029.1462.07017.2493.20686.2765.36669.0273.15984-.0247.32297-.1393.43763l-1.8988 1.89876v1.15218h1.1522l1.8988-1.89877c.1146-.11465.2777-.16659.4376-.13933.1598.02727.2965.13034.3667.27652.8327 1.73484.4927 3.89247-.9121 5.22707-1.2996 1.23458-3.2142 1.62244-4.8868.92061l-2.309 2.30893 3.6428 2.7955 3.9819 3.9819c.9763.9763.9763 2.5593 0 3.5356l-1.4142 1.4142c-.9763.9763-2.5592.9763-3.5355 0l-3.9819-3.9819-2.7955-3.6428-2.34502 2.3449c.70182 1.6727.31397 3.5873-.92061 4.8869-1.3346 1.4048-3.49223 1.7448-5.22707.9121-.14617-.0702-.24925-.2069-.27651-.3667-.02727-.1599.02467-.323.13933-.4377l1.89876-1.8987v-1.1522h-1.15218l-1.89876 1.8988c-.11465.1146-.27779.1666-.43762.1393-.15984-.0273-.29653-.1303-.3667-.2765-.835852-1.7414-.486219-3.829.9029-5.2181 1.31091-1.3109 3.23304-1.6344 4.89648-.93l3.4406-3.4407-6.50352-6.50353-.00332.00332c-.46186.46186-1.2353.36417-1.56782-.19802zm4.29618.1505.00335-.00335-.0164-.0097zm-.20541-.12683-2.36436-1.39845-.8657.86569 1.39846 2.36436zm-1.71772 2.02413.01291.01292-.00332.00331zm1.42712.01291 6.46182 6.46174.068-.068c.002-.002.004-.0041.006-.0061l.3479-.3478.006-.006.0681-.0681-6.46181-6.46174zm7.23832 7.09944c-.528.5326-.5816 1.3738-.1247 1.9692l3.5781 4.6626 3.9356 3.9356c.5858.5858 1.5355.5858 2.1213 0l1.4142-1.4142c.5858-.5858.5858-1.5356 0-2.1214l-3.9356-3.9356-4.6625-3.578c-.5955-.457-1.4367-.4033-1.9692.1246zm3.2067-1.0667 2.6499-2.64986c.1542-.15424.3907-.19069.5842-.09005 1.352.70307 2.9817.43623 4.0732-.60063.8977-.85283 1.2406-2.16969.9469-3.37547l-1.4885 1.48853c-.0938.09377-.221.14645-.3536.14645h-1.8593c-.2761 0-.5-.22386-.5-.5v-1.85929c0-.1326.0527-.25978.1465-.35355l1.4892-1.48923c-1.1896-.29129-2.4757.04738-3.3851.95682-1.0789 1.07886-1.301 2.69995-.5917 4.06397.1006.19354.0642.42998-.0901.58423l-2.9892 2.98928c.3881.0668.7649.2262 1.0961.4803zm-3.9163 3.9163-.2084-.2716c-.2542-.3312-.4135-.708-.4804-1.0961l-3.02527 3.0253c-.15424.1543-.39069.1907-.58422.0901-1.36403-.7093-2.98511-.4872-4.06398.5917-.90943.9094-1.2481 2.1955-.95681 3.3851l1.48922-1.4892c.09377-.0938.22095-.1465.35356-.1465h1.85928c.13261 0 .25978.0527.35355.1465.09377.0937.14645.2209.14645.3535v1.8593c0 .1326-.05268.2598-.14645.3535l-1.48853 1.4886c1.20579.2937 2.52264-.0492 3.37548-.947 1.03685-1.0914 1.30369-2.7211.60062-4.0731-.10064-.1936-.06419-.43.09006-.5842z" fill="#18303f" fill-rule="evenodd"/></svg>