<svg fill="none" height="25" viewBox="0 0 25 25" width="25" xmlns="http://www.w3.org/2000/svg"><g fill="#18303f"><path clip-rule="evenodd" d="m8.39427.5c-2.88609 0-5.28489 2.39881-5.28489 5.28489v2.5696h-.36377c-1.23623 0-2.24561 1.00938-2.24561 2.24561v6.2199c0 1.2603.5782 2.4459 1.443 3.3107.86481.8648 2.05046 1.443 3.31072 1.443h1.06764c.27614 0 .5-.2238.5-.5 0-.2761-.22386-.5-.5-.5h-1.06764c-.95389 0-1.89509-.4416-2.60361-1.1501s-1.15011-1.6497-1.15011-2.6036v-6.2199c0-.68394.56166-1.24561 1.24561-1.24561h11.34639c.684 0 1.2456.56167 1.2456 1.24561v5.6868c0 .2761.2239.5.5.5.2762 0 .5-.2239.5-.5v-5.6868c0-1.23623-1.0093-2.24561-2.2456-2.24561h-.4128v-2.5696c0-2.88608-2.3989-5.28489-5.28493-5.28489zm-4.28489 5.28489c0-2.3338 1.95109-4.28489 4.28489-4.28489 2.33383 0 4.28493 1.95109 4.28493 4.28489v2.54493h-8.56982z" fill-rule="evenodd"/><path clip-rule="evenodd" d="m8.89453 15.8595c.60785-.2074 1.04498-.7834 1.04498-1.4615 0-.8527-.69126-1.544-1.54397-1.544-.85272 0-1.54398.6913-1.54398 1.544 0 .6773.43617 1.2528 1.04297 1.4609v.714c0 .2761.22386.5.5.5s.5-.2239.5-.5zm-.49899-2.0055c-.30043 0-.54398.2436-.54398.544 0 .2983.24016.5405.53769.5439h.00528.00625c.29801-.0028.53873-.2452.53873-.5439 0-.3004-.24354-.544-.54397-.544z" fill-rule="evenodd"/><path d="m12.6895 20.2696c.1953-.1952.1953-.5118 0-.7071-.1953-.1952-.5119-.1952-.7071 0l-.7187.7187-.7187-.7187c-.1952-.1953-.5118-.1953-.70707 0-.19526.1952-.19526.5118 0 .7071l.71867.7187-.76183.7618c-.19526.1953-.19526.5119 0 .7072.19527.1952.51183.1952.70713 0l.7618-.7619.7618.7618c.1953.1952.5119.1952.7071 0 .1953-.1953.1953-.5119 0-.7071l-.7617-.7618z"/><path d="m17.6895 20.2696c.1953-.1952.1953-.5118 0-.7071-.1953-.1952-.5119-.1952-.7071 0l-.7187.7187-.7187-.7187c-.1952-.1953-.5118-.1953-.7071 0-.1952.1952-.1952.5118 0 .7071l.7187.7187-.7618.7618c-.1953.1953-.1953.5119 0 .7072.1952.1952.5118.1952.7071 0l.7618-.7619.7618.7618c.1953.1952.5119.1952.7071 0 .1953-.1953.1953-.5119 0-.7071l-.7617-.7618z"/><path d="m19.5312 21.5938c-.2761 0-.5.2238-.5.5 0 .2761.2239.5.5.5h2.4512c.2762 0 .5-.2239.5-.5 0-.2762-.2238-.5-.5-.5z"/><path clip-rule="evenodd" d="m7.5 19c0-.8284.67157-1.5 1.5-1.5h14c.8284 0 1.5.6716 1.5 1.5v4c0 .8284-.6716 1.5-1.5 1.5h-14c-.82843 0-1.5-.6716-1.5-1.5zm1.5-.5c-.27614 0-.5.2239-.5.5v4c0 .2761.22386.5.5.5h14c.2761 0 .5-.2239.5-.5v-4c0-.2761-.2239-.5-.5-.5z" fill-rule="evenodd"/></g></svg>