<svg fill="none" height="25" viewBox="0 0 25 25" width="25" xmlns="http://www.w3.org/2000/svg"><g fill="#18303f"><path d="m18.9034 2.03454c-.2525-.11164-.5478.0026-.6594.25516-.1117.25257.0026.54782.2551.65947.2959.1308.5008.42637.5008.76868 0 .4638-.376.83978-.8398.83978-1.016 0-1.8398.82368-1.8398 1.83978 0 .72832.4233 1.35683 1.035 1.65475.2482.12091.5475.01767.6684-.23059.1209-.24827.0177-.54754-.2306-.66845-.2809-.13684-.4728-.42434-.4728-.75571 0-.46377.376-.83978.8398-.83978 1.0161 0 1.8398-.82369 1.8398-1.83978 0-.75241-.4516-1.39825-1.0965-1.68331z"/><path d="m6.50003 11.935c.27614 0 .5.2239.5.5v7.13c0 .2762-.22386.5-.5.5s-.5-.2238-.5-.5v-7.13c0-.2761.22386-.5.5-.5z"/><path d="m10 12.435c0-.2761-.22383-.5-.49997-.5s-.5.2239-.5.5v7.13c0 .2762.22386.5.5.5s.49997-.2238.49997-.5z"/><path d="m12.5 11.935c.2762 0 .5.2239.5.5v7.13c0 .2762-.2238.5-.5.5-.2761 0-.5-.2238-.5-.5v-7.13c0-.2761.2239-.5.5-.5z"/><path d="m16 12.435c0-.2761-.2238-.5-.5-.5-.2761 0-.5.2239-.5.5v7.13c0 .2762.2239.5.5.5.2762 0 .5-.2238.5-.5z"/><path d="m18.5 11.935c.2762 0 .5.2239.5.5v7.13c0 .2762-.2238.5-.5.5-.2761 0-.5-.2238-.5-.5v-7.13c0-.2761.2239-.5.5-.5z"/><path clip-rule="evenodd" d="m20.092 9.47225c1.6488 0 2.968 1.33605 2.968 2.98835v7.0788c0 1.6524-1.3192 2.9884-2.968 2.9884h-15.18414c-1.64878 0-2.96792-1.336-2.96792-2.9884v-7.0788c0-1.6523 1.31914-2.98835 2.96792-2.98835zm1.968 2.98835c0-1.1078-.8792-1.9884-1.968-1.9884h-15.18414c-1.08874 0-1.96792.8806-1.96792 1.9884v7.0788c0 1.1079.87918 1.9884 1.96792 1.9884h15.18414c1.0888 0 1.968-.8805 1.968-1.9884z" fill-rule="evenodd"/><path d="m13.244 2.2897c.1116-.25256.4069-.3668.6594-.25516.6449.28506 1.0965.9309 1.0965 1.68331 0 1.01609-.8237 1.83978-1.8398 1.83978-.4638 0-.8398.37601-.8398.83978 0 .33137.1919.61887.4728.75571.2483.12091.3515.42018.2306.66845-.1209.24826-.4202.3515-.6684.23059-.6117-.29792-1.035-.92643-1.035-1.65475 0-1.0161.8238-1.83978 1.8398-1.83978.4638 0 .8398-.37598.8398-.83978 0-.34231-.2049-.63788-.5008-.76868-.2525-.11165-.3668-.4069-.2551-.65947z"/><path d="m8.90345 2.03454c-.25257-.11164-.54782.0026-.65947.25516-.11164.25257.00259.54782.25516.65947.2959.1308.50078.42637.50078.76868 0 .4638-.37598.83978-.83978.83978-1.01606 0-1.83983.82368-1.83983 1.83978 0 .72832.42326 1.35683 1.03496 1.65475.24827.12091.54754.01767.66845-.23059.12092-.24827.01768-.54754-.23058-.66845-.28096-.13684-.47283-.42434-.47283-.75571 0-.46377.37601-.83978.83983-.83978 1.01608 0 1.83978-.82369 1.83978-1.83978 0-.75241-.45161-1.39825-1.09647-1.68331z"/></g></svg>