<svg fill="none" height="25" viewBox="0 0 25 25" width="25" xmlns="http://www.w3.org/2000/svg" xmlns:xlink="http://www.w3.org/1999/xlink"><clipPath id="a"><path d="m.5.5h24v24h-24z"/></clipPath><g clip-path="url(#a)" stroke="#18303f" stroke-linecap="round" stroke-linejoin="round"><path d="m17 11 6.5 2c.3.1.4.3.4.5v10 .1c-.1.2-.3.4-.6.3l-6.2-1.8s-.1 0-.2 0l-8.8 1.9s-.1 0-.2 0l-6.5-1.9c-.3-.1-.4-.3-.4-.5v-10-.1c.1-.2.3-.4.6-.3l6.4 1.8 1.42939-.3176"/><path d="m8 13v11"/><path d="m17 11v11"/><path clip-rule="evenodd" d="m17.5 6.32728c0 .28055-.0248.5555-.0724.82291-.3799 3.40971-2.2307 6.39411-4.9276 8.34981-2.69737-1.9561-4.5484-4.941-4.92792-8.3514-.04739-.26694-.07208-.54136-.07208-.82132 0-2.66602 2.23857-4.82728 5-4.82728 2.7614 0 5 2.16126 5 4.82728zm-5 1.93091c1.1046 0 2-.86451 2-1.93091s-.8954-1.93091-2-1.93091-2 .86451-2 1.93091.8954 1.93091 2 1.93091z" fill-rule="evenodd"/><path d="m12.5065 17.2788h-.0129"/></g></svg>