<svg fill="none" height="26" viewBox="0 0 25 26" width="25" xmlns="http://www.w3.org/2000/svg"><g fill="#18303f"><path d="m18.0828 5.30691c.0639.29231-.17.55426-.4692.55426h-2.0864c-.557 0-1.0086.45157-1.0086 1.00862 0 .55704.4516 1.00862 1.0086 1.00862h2.1876c.2762 0 .5.22386.5.5v.34537c0 .27614-.2238.5-.5.5h-2.1885c-.5571 0-1.0087.45157-1.0087 1.00862 0 .557.4516 1.0086 1.0087 1.0086h2.1885c.2762 0 .5.2239.5.5v.3452c0 .2761-.2238.5-.5.5h-2.1885c-.5571 0-1.0087.4516-1.0087 1.0086s.4516 1.0086 1.0087 1.0086h2.0028c.3113 0 .548.2823.4616.5813-.6888 2.3829-2.8866 4.1253-5.4914 4.1253-2.60472 0-4.80251-1.7424-5.49135-4.1253-.08643-.299.15033-.5813.46156-.5813h2.00503c.55706 0 1.00866-.4516 1.00866-1.0086s-.4516-1.0086-1.00866-1.0086h-2.19073c-.27614 0-.5-.2239-.5-.5v-.3452c0-.2761.22386-.5.5-.5h2.19073c.55706 0 1.00866-.4516 1.00866-1.0086 0-.55705-.4516-1.00862-1.00866-1.00862h-2.19073c-.27614 0-.5-.22386-.5-.5v-.34517c0-.27614.22386-.5.5-.5h2.19073c.55706 0 1.00866-.45157 1.00866-1.00862s-.4516-1.00862-1.00866-1.00862h-2.0895c-.29922 0-.53315-.26193-.46921-.55424.5615-2.56693 2.84809-4.488526 5.58347-4.488526 2.7354 0 5.0219 1.921486 5.5835 4.488306z"/><path d="m20.5 14.3186c-.2761 0-.5.2239-.5.5 0 3.5292-3.2931 6.5-7.5 6.5-4.20694 0-7.5-2.9708-7.5-6.5 0-.2761-.22386-.5-.5-.5s-.5.2239-.5.5c0 4.2028 3.87038 7.5 8.5 7.5 4.6296 0 8.5-3.2972 8.5-7.5 0-.2761-.2239-.5-.5-.5z"/><path d="m15.5 23.8186c.2761 0 .5.2239.5.5s-.2239.5-.5.5h-6c-.27614 0-.5-.2239-.5-.5s.22386-.5.5-.5z"/></g></svg>