<svg fill="none" height="7" viewBox="0 0 7 7" width="7" xmlns="http://www.w3.org/2000/svg"><g clip-rule="evenodd" fill="#00ac83" fill-rule="evenodd"><path d="m1.64571 3.85392c.19527.19526.51185.19526.70711 0l3-3c.19526-.195263.19526-.511845 0-.707107-.19526-.1952623-.51184-.1952624-.70711 0l-3 2.999997c-.19526.19527-.19526.51185 0 .70711z"/><path d="m1.64571 3.14681c-.19526.19527-.19526.51185 0 .70711l3 3c.19527.19526.51185.19526.70711 0s.19526-.51184 0-.70711l-3-3c-.19526-.19526-.51184-.19526-.70711 0z"/></g></svg>