<svg fill="none" height="28" viewBox="0 0 112 28" width="112" xmlns="http://www.w3.org/2000/svg"><g fill="#18303f"><path d="m4.16778 4.17288c-.19334.16972-.37862.36369-.61224.59808.19334 0 .31417.00808.42695 0 3.82646-.46069 7.66901-.69507 11.51961-.4526 1.1601.07273 2.3362.12931 3.4157.63849 1.16.54958 1.9092 1.41438 2.0461 2.73177.0161.18589-.0644.42836-.1933.56575-3.7459 3.87943-7.4999 7.74273-11.25384 11.60603-.30611.3152-.59612.6304-.90224.9456.00806.0404.02417.0889.03223.1293 1.70785.0162 3.42365.0485 5.13145.0404 2.9242-.0242 5.8324-.3314 8.7324-.7193.29-.0404.4511-.1616.5881-.396 1.4419-2.4651 1.9817-5.116 1.6433-7.9529-.6041-5.05942-4.2937-9.26215-9.1996-10.49873-.6847-.16972-1.3856-.27479-2.0783-.412188-.6687 0-1.3453 0-2.014 0-.1047.024248-.2014.072738-.3061.080818-2.65837.2748-4.97841 1.32548-6.97622 3.09548z"/><path d="m110.671 9.98391c-1.748-2.32767-4.157-3.0389-6.888-2.59438-2.578.42027-4.5352 1.84274-5.3891 4.40477-.8942 2.6833-.5075 5.1969 1.4984 7.3063 2.0947 2.1984 5.5177 2.7803 8.3697 1.479.943-.4283 1.805-.986 2.538-1.7619-.741-.7839-1.458-1.5437-2.175-2.3034-2.28 2.2549-5.051 1.8589-5.97.3718.065-.0243.121-.0485.186-.0647 1.764-.5657 3.52-1.1315 5.284-1.6891 1.289-.4122 2.578-.8083 3.875-1.2124 0-.1859 0-.3798 0-.5657-.024-.0808-.064-.1698-.08-.2506-.202-1.1234-.556-2.1902-1.249-3.11969zm-9.055 4.26739c-.105-1.6892.951-3.1116 2.626-3.6127 1.563-.4607 3.239.1454 3.98 1.4871-2.199.7031-4.39 1.4144-6.606 2.1256z"/><path d="m65.7116 7.5592c-1.2567 0-2.4973 0-3.7701 0v2.02055c-.282-.31521-.4672-.55767-.6847-.77589-.2337-.2263-.4753-.43644-.7412-.62233-2.457-1.69726-6.1384-.96178-7.8623 1.64068-1.5951 2.41659-1.6998 5.04329-.7009 7.68619 1.6434 4.332 7.0004 4.7846 9.5541 2.2711.153-.1536.3222-.2991.58-.5335-.0564.6951-.0644 1.277-.1611 1.8428-.2739 1.6083-1.0956 2.7883-2.7067 3.2975-1.0634.3314-2.1187.2182-3.0934-.2667-.87-.4365-1.6676-1.0022-2.3684-1.4306-.8056.7193-1.6675 1.4872-2.5456 2.2711.1531.1698.2336.2748.3222.3637 2.0703 2.0206 4.5676 2.8692 7.4193 2.6348 2.8034-.2344 4.8334-1.6326 5.9532-4.2674.5478-1.2931.7894-2.659.8056-4.0572.0322-3.9765.0161-7.9448.0241-11.92124.0081-.04849-.008-.10506-.0241-.15356zm-4.6723 9.343c-.5962.8001-1.4501 1.1719-2.6584 1.1719-1.152-.0323-2.1026-.7112-2.6584-1.9235-.572-1.2447-.5961-2.5378-.0322-3.7906.5316-1.1881 1.4661-1.867 2.7953-1.9155 1.3856-.0485 2.4328.5658 3.0128 1.8185.7412 1.6084.6123 3.1925-.4591 4.6392z"/><path d="m8.35519 22.0989c-.89418-.0808-1.78837-.2101-2.60199-.6385-1.07947-.5657-1.77226-1.4224-1.89309-2.6671-.01611-.1697.06444-.4041.18528-.5334 3.24645-3.3622 6.50901-6.7163 9.76351-10.0704.8056-.82438 1.6031-1.65685 2.4892-2.57013-1.1761-.04849-2.2314-.12123-3.2867-.12932-3.46397-.03233-6.91181.25055-10.34354.71932-.20139.02424-.45112.19397-.5639.3637-1.860864 2.83684-2.529487 5.94843-1.836697 9.27833.974737 4.6715 3.745897 7.9125 8.249037 9.3996 4.5595 1.5113 8.7324.5496 12.3494-2.6591.3222-.2828.6042-.6061.9667-.9779-.8781.097-1.6434.1778-2.4006.2586-3.6815.388-7.379.5496-11.07661.2263z"/><path d="m71.7462 8.80425c-.0402.04041-.0966.05657-.1933.10507 0-1.01836 0-1.98822 0-2.95808 0-.97794 0-1.95589 0-2.95808-1.2808 0-2.5053 0-3.762 0v18.02324h3.7862c0-.5577 0-1.083 0-1.6083.1208.0161.153.0808.2014.1293 1.9092 2.2226 5.0912 2.1983 7.2018.4607 1.5709-1.2932 2.4892-2.942 2.6745-4.9706.2094-2.3357-.3222-4.4209-2.0623-6.11818-2.2797-2.23068-6.0176-2.10137-7.8463-.10507zm5.6793 7.69425c-.6767 1.1396-1.74 1.6649-3.0611 1.5113-1.442-.1697-2.2879-1.083-2.7148-2.4165-.145-.4526-.1772-.9456-.282-1.4871.1128-.5011.1692-1.075.3706-1.5922.4994-1.3013 1.4581-2.061 2.8598-2.1176 1.3936-.0565 2.4489.59 3.037 1.8509.6686 1.4386.6042 2.8934-.2095 4.2512z"/><path d="m91.0489 7.35731c-3.8587-.59808-7.9429 1.98013-8.1926 6.43339-.1531 2.7965 1.2567 5.4312 3.762 6.6921 2.8759 1.4467 6.646.8163 8.9016-1.4872.0483-.0565.0886-.1212.1369-.1939-.725-.7678-1.4339-1.5195-2.1589-2.2873-2.0059 1.9721-4.6562 2.1418-5.9854.396.1128-.0485.2255-.0889.3303-.1293 2.8356-.9052 5.6712-1.8104 8.4988-2.7075.5558-.1778.5558-.1778.4833-.7516-.4189-3.2733-2.5456-5.4636-5.776-5.96469zm-4.4951 6.87789c-.3141-1.2769.7331-2.8853 2.2154-3.4672 1.6997-.6628 3.5364-.1051 4.3501 1.3578-2.1992.7031-4.3824 1.4063-6.5655 2.1094z"/><path d="m37.8386 17.5247c1.9817-2.2469 3.9634-4.4937 5.9451-6.7486.0967-.1051.2336-.2344.2336-.3637.0161-.95374.0081-1.90743.0081-2.86113-3.6493 0-7.2502 0-10.8591 0v3.14393h5.792c-.1128.1455-.1853.2425-.2578.3233-1.9494 2.2226-3.8989 4.4452-5.8404 6.6759-.0886.097-.2013.2182-.2013.3314-.0162.9941-.0081 1.9882-.0081 2.9985h11.7291c0-1.0588 0-2.0852 0-3.1521-2.2717 0-4.5192 0-6.8312 0 .1289-.1455.2094-.2505.29-.3475z"/><path d="m46.0717 21.0404h3.7861c0-4.518 0-8.9955 0-13.47302-1.2808 0-2.5295 0-3.7861 0z"/><path d="m47.9582 1.9666c-1.2487.00809-2.2476 1.03452-2.2234 2.27918.0242 1.24465 1.007 2.21452 2.2475 2.20643 1.2648 0 2.2395-.98602 2.2314-2.25493-.008-1.2689-.9989-2.23876-2.2555-2.23068z"/></g></svg>