<svg fill="none" height="56" viewBox="0 0 56 56" width="56" xmlns="http://www.w3.org/2000/svg"><path clip-rule="evenodd" d="m40.013 24.0272c4.24-.0008 8.3066 1.6831 11.3048 4.681 2.9983 2.9979 4.6826 7.0641 4.6822 11.304.0005 6.4659-3.8943 12.2953-9.8681 14.7701-5.9738 2.4747-12.8502 1.1074-17.4227-3.4645s-5.9405-11.4479-3.4662-17.4217c2.4744-5.9738 8.3038-9.8688 14.77-9.8689zm4.7932 23.77 3.1522-5.0392h-7.1304l7.1294-11.3473h-13.3641l-3.0451 4.8824h7.035l-7.3366 11.5041h13.5595zm-4.7932-42.40232c-19.1103.02192-34.5966 15.50792-34.61807 34.61722h-5.39493c.0248734-22.0874 17.9246-39.9866668 40.0129-40.0121v5.39469zm0 5.26872v5.3955c-13.2226.0157-23.9373 10.7311-23.9513 23.953h-5.3958c.0177-16.2003 13.146-29.3292 29.347-29.3485z" fill="#18303f" fill-rule="evenodd"/></svg>