<svg fill="none" height="26" viewBox="0 0 25 26" width="25" xmlns="http://www.w3.org/2000/svg"><path clip-rule="evenodd" d="m17.8629 10.975c1.8929-.0004 3.7083.7513 5.0468 2.0897 1.3386 1.3383 2.0905 3.1536 2.0903 5.0464.0002 2.8866-1.7385 5.489-4.4054 6.5938s-5.7367.4944-7.778-1.5466c-2.0413-2.0411-2.652-5.1107-1.5474-7.7776 1.1046-2.6668 3.707-4.4057 6.5937-4.4057zm2.1399 10.6116 1.4072-2.2497h-3.1832l3.1828-5.0657h-5.9662l-1.3594 2.1796h3.1407l-3.2753 5.1358h6.0533zm-2.1399-18.92964c-8.53132.00979-15.44486 6.92318-15.45445 15.45414h-2.40845c.0111042-9.86046 8.00204-17.851211 17.8629-17.862565v2.408345zm0 2.35213v2.4087c-5.9029.00699-10.68623 4.79071-10.69249 10.69331h-2.40886c.00793-7.2323 5.86875-13.0934 13.10135-13.10205z" fill="#18303f" fill-rule="evenodd"/></svg>