<svg fill="none" height="40" viewBox="0 0 40 40" width="40" xmlns="http://www.w3.org/2000/svg"><circle cx="20" cy="20" fill="#2d3436" r="20"/><ellipse fill="#fff" rx="11.25" ry="11.25" transform="matrix(-1 0 0 1 20.25 20.25)"/><path clip-rule="evenodd" d="m15.75 23.2586c0-1.5057 1.3824-2.2586 2.625-2.2586.7826 0 1.4719.4011 1.875 1.0097.4031-.6086 1.0924-1.0097 1.875-1.0097 1.2426 0 2.625.7529 2.625 2.2586 0 1.3644.8212 1.5506 1.4713 1.698.4261.0966.7787.1766.7787.5605 0 .9699-3 1.5057-4.5.7529-1.0933-.5487-1.8403-1.0956-2.25-1.7295-.4097.6339-1.1567 1.1808-2.25 1.7295-1.5.7528-4.5.217-4.5-.7529 0-.3839.3526-.4639.7787-.5605.6501-.1474 1.4713-.3336 1.4713-1.698z" fill="#2d3436" fill-rule="evenodd"/></svg>