<svg fill="none" height="11" viewBox="0 0 92 11" width="92" xmlns="http://www.w3.org/2000/svg"><g clip-rule="evenodd" fill="#18303f" fill-rule="evenodd"><path d="m10.1995 2.85038c0-.75145.5757-1.55 1.55-1.55h2.9c.4142 0 .75.33579.75.75 0 .41422-.3358.75-.75.75h-2.9c-.0123 0-.0202.00121-.0245.0021s-.0063.00177-.0069.00201c0 .00002.0001-.00001 0 0-.0004.00021-.0014.00061-.0033.00269-.0026.00283-.0068.00869-.0103.01791-.0036.00935-.005.01844-.005.02529v5.77984c.005.0096.0148.0243.0303.03983.0155.01554.0302.02532.0398.03033h2.8799c.4142 0 .75.33579.75.75 0 .41422-.3358.75002-.75.75002h-2.9c-.444 0-.8251-.21443-1.0804-.46969-.2552-.25525-.4696-.6364-.4696-1.08033z"/><path d="m10.1995 5.75038c0-.41421.3357-.75.75-.75h3.1c.4142 0 .75.33579.75.75 0 .41422-.3358.75-.75.75h-3.1c-.4143 0-.75-.33578-.75-.75z"/><path d="m25.7737 2.85038c0-.75145.5757-1.55 1.55-1.55h2.9c.4142 0 .75.33579.75.75 0 .41422-.3358.75-.75.75h-2.9c-.0123 0-.0202.00121-.0245.0021-.0042.00089-.0063.00177-.0069.00201 0 .00002.0001-.00001 0 0-.0004.00021-.0013.00061-.0033.00269-.0026.00283-.0068.00869-.0103.01791-.0036.00935-.005.01844-.005.02529v5.77984c.005.0096.0148.0243.0303.03983.0155.01554.0302.02532.0398.03033h2.8799c.4142 0 .75.33579.75.75 0 .41422-.3358.75002-.75.75002h-2.9c-.4439 0-.8251-.21443-1.0803-.46969-.2553-.25525-.4697-.6364-.4697-1.08033z"/><path d="m25.7737 5.75038c0-.41421.3358-.75.75-.75h3.1c.4142 0 .75.33579.75.75 0 .41422-.3358.75-.75.75h-3.1c-.4142 0-.75-.33578-.75-.75z"/><path d="m36.1963 1.30038c.4142 0 .75.33579.75.75v7.4c0 .41422-.3358.75002-.75.75002s-.75-.3358-.75-.75002v-7.4c0-.41421.3358-.75.75-.75z"/><path d="m32.2463 2.05038c0-.41421.3358-.75.75-.75h6.5c.4143 0 .75.33579.75.75 0 .41422-.3357.75-.75.75h-6.5c-.4142 0-.75-.33578-.75-.75z"/><path d="m16.5002 3.85038c0-1.41421 1.1358-2.55 2.55-2.55h4c.4143 0 .75.33579.75.75 0 .41422-.3357.75-.75.75h-4c-.5857 0-1.05.46422-1.05 1.05 0 .58579.4643 1.05 1.05 1.05h1.1c.4143 0 .75.33579.75.75 0 .41422-.3357.75-.75.75h-1.1c-1.4142 0-2.55-1.13578-2.55-2.55z"/><path d="m19.4002 5.65039c0-.41421.3358-.75.75-.75h1.7c1.5397 0 2.65 1.26173 2.65 2.65 0 1.53969-1.2617 2.65001-2.65 2.65001h-4.1c-.4142 0-.75-.3358-.75-.75001s.3358-.75.75-.75h4.1c.6118 0 1.15-.48969 1.15-1.15 0-.61173-.4896-1.15-1.15-1.15h-1.7c-.4142 0-.75-.33579-.75-.75z"/><path d="m56.1995 1.30038c.4142 0 .75.33579.75.75v6.57984c.005.0096.0148.0243.0303.03983.0155.01554.0302.02532.0398.03033h2.8799c.4142 0 .75.33579.75.75 0 .41422-.3358.75002-.75.75002h-2.9c-.444 0-.8251-.21443-1.0804-.46968-.2552-.25526-.4696-.63641-.4696-1.08034v-6.6c0-.41421.3357-.75.75-.75z"/><path d="m48.2691 1.71966c.5929-.59289 1.5678-.59289 2.1607 0l2 2c.839.83905 1.3197 2.02916 1.3197 3.13033 0 .41422-.3358.75-.75.75-.4143 0-.75-.33578-.75-.75 0-.69883-.3194-1.50871-.8804-2.06967l-2-2c-.0002-.00022-.0053-.00533-.0196-.00533-.0145 0-.0196.00518-.0197.00533l-2 2c-.561.56096-.8803 1.37084-.8803 2.06967 0 .41422-.3358.75-.75.75-.4143 0-.75-.33578-.75-.75 0-1.10117.4806-2.29128 1.3196-3.13033z"/><path d="m52.9995 6.09999c.4142 0 .75.33579.75.75v2.6c0 .41421-.3358.75001-.75.75001s-.75-.3358-.75-.75001v-2.6c0-.41421.3358-.75.75-.75z"/><path d="m45.6995 6.09999c.4142 0 .75.33579.75.75v2.6c0 .41421-.3358.75001-.75.75001-.4143 0-.75-.3358-.75-.75001v-2.6c0-.41421.3357-.75.75-.75z"/><path d="m45.051 5.9498c0-.41421.3358-.75.75-.75h7.1c.4142 0 .75.33579.75.75s-.3358.75-.75.75h-7.1c-.4142 0-.75-.33579-.75-.75z"/><path d="m65.6676 1.71966c.5929-.59289 1.5677-.59289 2.1606 0l2 2c.8391.83905 1.3197 2.02916 1.3197 3.13033 0 .41422-.3358.75-.75.75s-.75-.33578-.75-.75c0-.69883-.3194-1.50871-.8803-2.06967l-2-2c-.0003-.00022-.0053-.00533-.0197-.00533-.0145 0-.0195.00518-.0197.00533l-2 2c-.5609.56096-.8803 1.37084-.8803 2.06967 0 .41422-.3358.75-.75.75s-.75-.33578-.75-.75c0-1.10117.4806-2.29128 1.3197-3.13033z"/><path d="m70.3979 6.09999c.4143 0 .75.33579.75.75v2.6c0 .41421-.3357.75001-.75.75001-.4142 0-.75-.3358-.75-.75001v-2.6c0-.41421.3358-.75.75-.75z"/><path d="m63.0979 6.09999c.4142 0 .75.33579.75.75v2.6c0 .41421-.3358.75001-.75.75001s-.75-.3358-.75-.75001v-2.6c0-.41421.3358-.75.75-.75z"/><path d="m62.4495 5.9498c0-.41421.3357-.75.75-.75h7.1c.4142 0 .75.33579.75.75s-.3358.75-.75.75h-7.1c-.4143 0-.75-.33579-.75-.75z"/><path d="m83.0002 1.2999c.4143 0 .75.33578.75.75v7.4c0 .41421-.3357.75-.75.75-.4142 0-.75-.33579-.75-.75v-7.4c0-.41422.3358-.75.75-.75z"/><path d="m90.3002 1.2999c.4142 0 .75.33578.75.75v7.4c0 .41421-.3358.75-.75.75s-.75-.33579-.75-.75v-7.4c0-.41422.3358-.75.75-.75z"/><path d="m90.5374 1.33839c.3929.13098.6053.55572.4743.94868-.0925.27759-.2591.51092-.3935.67526-.1364.1667-.2835.31379-.3807.41097l-2.407 2.40693c-.3118.31184-.719.51967-1.1803.51967s-.8685-.20783-1.1803-.51967l-2.4-2.4c-.2536-.25356-.4887-.60646-.6714-.88077-.0075-.01131-.015-.0225-.0223-.03353-.2298-.34465-.1367-.8103.208-1.04007.3446-.22976.8103-.13663 1.04.20802.2143.32144.3703.54971.5063.68569l2.4 2.4c.045.04498.079.06492.0971.07323.0091.00415.0151.0058.018.00645.0029.00064.0042.00065.0046.00065s.0017-.00001.0046-.00065c.0029-.00065.0089-.0023.018-.00645.0181-.00831.0521-.02825.0971-.07323l2.4-2.4c.1029-.10296.202-.20281.2873-.3071.0906-.11065.124-.17733.1315-.19974.131-.39296.5557-.60533.9487-.47434z"/><path d="m73.551 5.75058c0-.41421.3358-.75.75-.75 1.1012 0 2.2913.48062 3.1304 1.31967l2.6 2.6c.2929.29289.2929.76777 0 1.06066s-.7678.29289-1.0607 0l-2.6-2.6c-.561-.56095-1.3708-.88033-2.0697-.88033-.4142 0-.75-.33579-.75-.75z"/><path d="m73.6995 1.30038c.4142 0 .75.33579.75.75v7.3c0 .41422-.3358.75002-.75.75002-.4143 0-.75-.3358-.75-.75002v-7.3c0-.41421.3357-.75.75-.75z"/><path d="m72.9495 2.05038c0-.41421.3357-.75.75-.75h4c1.4406 0 2.55 1.16272 2.55 2.65 0 1.41422-1.1358 2.55-2.55 2.55h-4c-.4143 0-.75-.33578-.75-.75zm1.5.75v2.2h3.25c.5858 0 1.05-.46421 1.05-1.05 0-.71271-.4907-1.15-1.05-1.15z"/><path d="m1.55103 5.75058c0-.41421.33578-.75.75-.75 1.10117 0 2.29128.48062 3.13033 1.31967l2.6 2.6c.29289.29289.29289.76777 0 1.06066s-.76777.29289-1.06066 0l-2.6-2.6c-.56095-.56095-1.37084-.88033-2.06967-.88033-.41422 0-.75-.33579-.75-.75z"/><path d="m1.69946 1.30038c.41422 0 .75.33579.75.75v7.3c0 .41422-.33578.75002-.75.75002-.41421 0-.749997-.3358-.749997-.75002v-7.3c0-.41421.335787-.75.749997-.75z"/><path d="m.949463 2.05038c0-.41421.335787-.75.749997-.75h4c1.44064 0 2.55001 1.16272 2.55001 2.65 0 1.41422-1.1358 2.55-2.55001 2.55h-4c-.41421 0-.749997-.33578-.749997-.75zm1.499997.75v2.2h3.25c.58579 0 1.05001-.46421 1.05001-1.05 0-.71271-.49065-1.15-1.05001-1.15z"/></g></svg>