<svg fill="none" height="10" viewBox="0 0 32 10" width="32" xmlns="http://www.w3.org/2000/svg"><g stroke="#f94409" stroke-linecap="round" stroke-linejoin="round" stroke-miterlimit="10" stroke-width="1.5"><path d="m19.1825 8.30498c1.8998 0 3.4399-1.54007 3.4399-3.43985 0-1.89977-1.5401-3.43984-3.4399-3.43984s-3.4398 1.54007-3.4398 3.43984c0 1.89978 1.54 3.43985 3.4398 3.43985z"/><path d="m11.2051 8.30497v-6.87968"/><path d="m14.2939 1.42529h-6.17769"/><path d="m25.3071 8.30498v-6.87969"/><path d="m29.0278 1.42529h-3.7207v3.43985h3.7207c.9828 0 1.755-.77221 1.755-1.75503 0-.91261-.7722-1.68482-1.755-1.68482z"/><path d="m5.3321 1.42529h-2.87824c-.91261 0-1.684817.7883-1.684817 1.71992 0 .93163.772207 1.71993 1.684817 1.71993h.98281"/><path d="m1.0498 8.37528h3.86105c.98281 0 1.75502-.77221 1.75502-1.75502 0-.98282-.77221-1.75503-1.75502-1.75503h-1.68482"/></g></svg>