<svg width="25" height="25" viewBox="0 0 25 25" fill="none"><path fill-rule="evenodd" clip-rule="evenodd" d="M7 1c-.402 0-.792.069-1.156.195-1.44.498-2.492 1.892-2.492 3.48 0 1.992 1.654 3.676 3.648 3.676a3.53 3.53 0 0 0 1.157-.195c1.438-.498 2.49-1.892 2.49-3.48C10.648 2.683 8.995 1 7.002 1ZM4.343 4.675c0-1.17.782-2.188 1.824-2.552A2.53 2.53 0 0 1 7 1.981c1.43 0 2.658 1.228 2.658 2.695 0 1.17-.781 2.188-1.824 2.552A2.524 2.524 0 0 1 7 7.37c-1.43 0-2.66-1.228-2.66-2.695Zm.283 5.88-.007.006c-.987.792-1.63 2.079-1.63 3.59v1.777a.49.49 0 0 1-.493.49.493.493 0 0 1-.495-.49v-1.777c0-2.854 1.977-5.205 4.635-5.402.12-.01.243-.014.366-.014C9.84 8.735 12 11.168 12 14.15v1.777c0 .27-.221.49-.494.49a.493.493 0 0 1-.495-.49V14.15c0-1.506-.637-2.788-1.617-3.58l-.003-.003-.016-.012a3.783 3.783 0 0 0-2.376-.84c-.872 0-1.682.298-2.343.814l-.031.025Zm4.629 6.553a.492.492 0 0 0-.493.454l-.416 5.457H5.655l-.415-5.457a.493.493 0 0 0-.493-.453H4.1a.492.492 0 0 0-.494.49c0 .27.22.49.494.49h.187l.416 5.458c.02.255.235.453.493.453h3.606a.492.492 0 0 0 .493-.454l.416-5.457h.187c.273 0 .494-.22.494-.49a.492.492 0 0 0-.494-.49h-.645Zm-6.752.965a.493.493 0 0 0 .495-.49c0-.27-.222-.49-.495-.49a.492.492 0 0 0-.494.49c0 .271.22.49.494.49Zm9.494-.49c0 .271-.221.49-.494.49a.493.493 0 0 1-.495-.49c0-.27.222-.49.495-.49s.494.22.494.49Zm7-16.583c-.4 0-.79.069-1.15.195-1.44.498-2.49 1.892-2.49 3.48 0 1.992 1.65 3.676 3.64 3.676.41 0 .8-.069 1.16-.195 1.44-.498 2.49-1.892 2.49-3.48 0-1.992-1.65-3.676-3.65-3.676Zm-2.66 3.675c0-1.17.79-2.188 1.83-2.552.26-.092.54-.142.83-.142 1.43 0 2.66 1.228 2.66 2.695 0 1.17-.78 2.188-1.82 2.552a2.59 2.59 0 0 1-.84.142c-1.43 0-2.66-1.228-2.66-2.695Zm.28 5.886.01-.006.03-.025a3.777 3.777 0 0 1 4.72.026c0 .005.01.01.02.014.98.793 1.61 2.075 1.61 3.58v1.778c0 .27.23.49.5.49s.49-.22.49-.49v-1.777c0-2.983-2.16-5.416-5-5.416-.12 0-.24.005-.36.014-2.66.197-4.64 2.548-4.64 5.402v1.777c0 .271.22.49.5.49a.49.49 0 0 0 .49-.49v-1.777c0-1.511.64-2.798 1.63-3.59Zm4.14 7a.499.499 0 0 1 .5-.453h.64c.28 0 .5.22.5.49 0 .272-.22.491-.5.491h-.19l-.41 5.457a.496.496 0 0 1-.49.454h-3.609a.49.49 0 0 1-.49-.453l-.42-5.458h-.19a.49.49 0 0 1 0-.98h.65c.26 0 .47.197.49.453l.42 5.457h2.689l.41-5.457Zm-5.76.022a.49.49 0 0 1-.49.49c-.28 0-.5-.219-.5-.49 0-.27.22-.49.5-.49.27 0 .49.22.49.49Zm8.5.49c.28 0 .5-.219.5-.49 0-.27-.22-.49-.5-.49a.49.49 0 0 0 0 .98Z" fill="#18303F" yggColor="access_group"/></svg>