<svg fill="none" height="25" viewBox="0 0 25 25" width="25"><path clip-rule="evenodd" d="m9.386.633c-.408 0-.802.07-1.17.2a3.793 3.793 0 0 0 -2.52 3.549c0 2.03 1.673 3.748 3.689 3.748.407 0 .8-.07 1.17-.2a3.794 3.794 0 0 0 2.52-3.549c0-2.03-1.674-3.748-3.69-3.748zm-2.69 3.748a2.79 2.79 0 0 1 1.847-2.601c.267-.094.55-.145.843-.145 1.446 0 2.689 1.252 2.689 2.748a2.79 2.79 0 0 1 -1.845 2.602 2.538 2.538 0 0 1 -.843.145c-1.447 0-2.69-1.252-2.69-2.748zm.287 5.996-.007.006c-.998.807-1.648 2.12-1.648 3.66v1.813a.5.5 0 1 1 -1 0v-1.813c0-2.91 1.999-5.307 4.688-5.508a4.87 4.87 0 0 1 .39-.014c.608.003 1.19.118 1.727.33a4.86 4.86 0 0 1 1.283.749.5.5 0 1 1 -.63.777 3.768 3.768 0 0 0 -2.403-.856 3.8 3.8 0 0 0 -2.368.83zm-1.03 7.183a.5.5 0 0 1 .5-.5h.653a.5.5 0 0 1 .499.462l.42 5.565h1.504a.5.5 0 0 1 0 1h-1.967a.5.5 0 0 1 -.5-.462l-.42-5.565h-.19a.5.5 0 0 1 -.5-.5zm-1.117.484a.5.5 0 1 0 0-1 .5.5 0 0 0 0 1zm10.012 2.577a1.182 1.182 0 1 1 1-.002v.35a.5.5 0 0 1 -1 0zm-4.832-3.571a1.64 1.64 0 0 1 1.636-1.636h.07v-1.488c0-1.98 1.645-3.625 3.625-3.625s3.625 1.644 3.625 3.625v1.488h.065a1.64 1.64 0 0 1 1.636 1.636v4.048c0 .874-.4 1.688-.99 2.278s-1.405.99-2.278.99h-4.121c-.873 0-1.688-.4-2.278-.99s-.99-1.404-.99-2.278zm2.2-.636a.13.13 0 0 0 .007 0h6.814a.64.64 0 0 1 .636.636v4.048c0 .567-.263 1.137-.697 1.571s-1.004.698-1.571.698h-4.121c-.567 0-1.137-.264-1.571-.698s-.697-1.004-.697-1.571v-4.048a.64.64 0 0 1 .636-.636zm5.756-1v-1.488c0-1.428-1.197-2.625-2.625-2.625s-2.624 1.197-2.624 2.625v1.488z" fill="#18303f" fill-rule="evenodd"/></svg>