<svg width="25" height="25" viewBox="0 0 25 25" fill="none"><path fill-rule="evenodd" clip-rule="evenodd" d="M12.501.63a8.592 8.592 0 1 0 .001 17.184 8.592 8.592 0 0 0 0-17.183Zm-7.59 8.592a7.591 7.591 0 1 1 15.182 0 7.591 7.591 0 0 1-15.183 0Zm7.042-6.275a6.37 6.37 0 0 1 1.097 0 .5.5 0 1 1-.086.997 5.375 5.375 0 0 0-.925 0 .5.5 0 0 1-.086-.997Zm1 2.868a.501.501 0 0 0-.898 0l-.913 1.85-2.195.236a.5.5 0 0 0-.27.878l1.6 1.367-.427 1.969a.5.5 0 0 0 .72.549l1.933-1.01 1.933 1.01a.5.5 0 0 0 .721-.55l-.428-1.968 1.602-1.367a.5.5 0 0 0-.272-.877l-2.194-.237-.913-1.85Zm-1.036 2.54.586-1.189.586 1.188a.5.5 0 0 0 .395.276l1.315.141-.946.809a.5.5 0 0 0-.164.486l.264 1.216-1.218-.636a.5.5 0 0 0-.463 0l-1.218.636.264-1.216a.5.5 0 0 0-.164-.486l-.947-.809 1.315-.141a.5.5 0 0 0 .395-.276Zm-1.655-3.936a.5.5 0 0 0-.423-.906c-.334.156-.652.34-.95.55a.5.5 0 0 0 .574.818c.251-.176.518-.331.8-.462Zm4.237-.665a.5.5 0 0 1 .665-.241c.334.156.652.34.95.55a.5.5 0 1 1-.574.818 5.299 5.299 0 0 0-.799-.462.501.501 0 0 1-.242-.665Zm-6.338 2.43a.5.5 0 0 0-.819-.575c-.21.299-.394.616-.55.95a.5.5 0 1 0 .906.424c.131-.281.286-.548.463-.8Zm8.803-.697a.5.5 0 0 1 .697.122c.21.299.394.616.55.95a.501.501 0 0 1-.906.424 5.405 5.405 0 0 0-.463-.8.5.5 0 0 1 .122-.696Zm-9.74 3.272a.5.5 0 1 0-.997-.086 6.23 6.23 0 0 0 0 1.098.5.5 0 0 0 .996-.086 5.441 5.441 0 0 1 0-.926Zm11.011-.54a.5.5 0 0 1 .541.454 6.23 6.23 0 0 1 0 1.098.5.5 0 0 1-.996-.086 5.441 5.441 0 0 0 0-.926.5.5 0 0 1 .455-.54ZM7.698 11.46a.5.5 0 1 0-.906.424c.156.334.34.651.55.95a.5.5 0 1 0 .82-.574 5.236 5.236 0 0 1-.464-.8Zm10.271-.241c.25.117.358.414.242.665a6.347 6.347 0 0 1-.55.95.5.5 0 0 1-.819-.574c.176-.252.331-.519.463-.8a.5.5 0 0 1 .664-.241Zm-8.506 2.343a.5.5 0 0 0-.575.819c.3.21.617.393.951.55a.5.5 0 1 0 .423-.907 5.246 5.246 0 0 1-.799-.462Zm6.774.122a.5.5 0 0 1-.123.697c-.298.21-.616.393-.95.55a.5.5 0 0 1-.423-.907c.28-.13.548-.286.8-.462a.5.5 0 0 1 .696.122Zm-4.198.815a.5.5 0 0 0-.086.997 6.347 6.347 0 0 0 1.097 0 .5.5 0 1 0-.086-.997 5.399 5.399 0 0 1-.925 0Zm-3.39 3.498a.5.5 0 0 1 .5.5v4.193l2.997-2.998a.501.501 0 0 1 .708 0l2.998 2.998v-2.645a.5.5 0 0 1 1 0v3.852a.5.5 0 0 1-.854.354L12.5 20.753l-3.498 3.499a.5.5 0 0 1-.854-.354v-5.4a.5.5 0 0 1 .5-.5Zm8.197.455a.5.5 0 1 1-.999 0 .5.5 0 0 1 1 0Z" fill="#18303F" yggColor="access"/></svg>