<svg width="25" height="25" viewBox="0 0 25 25" fill="none"><g id="access_owner"><path d="M12.5 1.003a.499.499 0 0 0-.441.266l-.631 1.191-1.33.209a.5.5 0 0 0-.276.848l.971.97-.275 1.313a.5.5 0 0 0 .713.55l1.263-.632 1.184.627a.501.501 0 0 0 .728-.52L14.197 4.5l.98-.982a.5.5 0 0 0-.275-.848l-1.33-.209-.63-1.191a.499.499 0 0 0-.442-.266Zm0 1.568.307.576c.073.14.207.236.363.26l.607.098-.468.467a.5.5 0 0 0-.141.431l.094.59-.528-.28a.5.5 0 0 0-.457-.005l-.568.285.12-.564a.501.501 0 0 0-.138-.457l-.468-.467.609-.098a.499.499 0 0 0 .363-.26l.305-.576Zm0 3.977c-.611 0-1.202.432-1.426 1.119-.256.718-.572 1.654-.943 2.383-.187.366-.388.677-.574.869-.186.192-.324.25-.436.25-.055 0-.266-.09-.516-.354-.249-.262-.52-.652-.77-1.06-.248-.408-.478-.834-.669-1.186-.095-.175-.18-.333-.258-.465-.077-.131-.123-.224-.248-.35a.5.5 0 0 0-.848.272c-.075.45-.119 1.423-.261 2.346-.072.462-.17.896-.276 1.17a.934.934 0 0 1-.109.21c-.216-.016-.536-.125-.9-.366a8.354 8.354 0 0 1-1.182-.99c-.747-.737-1.316-1.479-1.316-1.479a.5.5 0 0 0-.051-.006V8.91a.5.5 0 0 0-.139-.12.5.5 0 0 0-.183-.032.5.5 0 0 0-.135-.022.502.502 0 0 0-.047.034.5.5 0 0 0-.063.003.5.5 0 0 0-.05.057.5.5 0 0 0-.034-.004.497.497 0 0 0-.005.051l-.002.002a.5.5 0 0 0-.121.137.5.5 0 0 0-.032.18.5.5 0 0 0-.023.138s1.452 6.342 1.892 10.02v.002c.014.11.037.218.063.322v.004l.004.005.002.004c.14.543.411.995.625 1.385.215.394.353.719.353.934 0 1.069.79 1.988 1.828 1.988h13.782c.99 0 1.746-.92 1.746-1.988 0-.257.151-.625.369-1.069.213-.435.472-.948.555-1.556a.603.603 0 0 0 .01-.018c.54-3.742 1.944-9.766 2.001-10.01l.002-.013v-.006l.002-.008v-.002a.46.46 0 0 0 .002-.023V9.3a.499.499 0 0 0-.014-.213v-.004l-.002-.004a.5.5 0 0 0-.123-.205.502.502 0 0 0-.043-.049.499.499 0 0 0-.033.004.486.486 0 0 0-.033-.017.49.49 0 0 0-.031-.028.535.535 0 0 0-.012.004.499.499 0 0 0-.086-.047.505.505 0 0 0-.05.031.502.502 0 0 0-.026-.005.5.5 0 0 0-.2.025.5.5 0 0 0-.214.123.488.488 0 0 0-.016.002l-.006.008v.002h-.002v.002c-.074.095-.664.843-1.394 1.548-.709.685-1.578 1.23-2.002 1.264-.029-.043-.062-.093-.104-.199-.106-.274-.204-.71-.275-1.172-.142-.923-.186-1.893-.262-2.344a.5.5 0 0 0-.845-.271c-.125.125-.173.218-.25.35-.078.131-.163.289-.258.464-.19.352-.42.778-.67 1.186-.25.408-.52.798-.77 1.06-.249.263-.46.354-.515.354-.112 0-.25-.058-.436-.25s-.387-.503-.574-.87c-.373-.732-.69-1.676-.947-2.396a.495.495 0 0 0-.04-.043c-.24-.645-.796-1.062-1.386-1.062Zm11.629 0a.5.5 0 1 0 0 1 .5.5 0 0 0 0-1ZM.875 6.743a.5.5 0 1 0 0 1 .5.5 0 0 0 0-1Zm11.625.805c.172 0 .363.083.475.428l.013.005a1.895 1.895 0 0 0-.004.008c.25.7.57 1.68.996 2.516.213.418.45.803.748 1.111.299.308.691.553 1.155.553.52 0 .906-.312 1.24-.664.334-.352.63-.79.898-1.229.135-.22.232-.406.348-.615.036.35.04.496.096.863.077.497.173.976.33 1.38.078.2.17.386.314.552.145.166.385.324.662.324.776 0 1.453-.476 2.084-1.015l-3.447 7.19c-.219.152-.483.348-.79.525-.35.2-.726.337-.923.337-.515 0-1.098-.6-1.529-.998l-.396-.433a.5.5 0 0 0-.653-.076c-.39.267-.608.646-.91.982-.302.336-.617.525-.684.525-.156 0-.432-.188-.716-.517-.143-.165-.283-.348-.42-.52-.138-.171-.256-.331-.46-.47a.5.5 0 0 0-.652.076l-.392.433c-.21.195-.476.458-.762.664-.287.208-.58.334-.771.334-.51 0-1.167-.533-1.664-.882l-3.508-7.162c.182.148.344.32.535.447.475.314.972.56 1.52.56.277 0 .517-.156.662-.322.144-.166.236-.351.314-.553.157-.403.253-.884.33-1.38.057-.368.06-.514.096-.864.116.21.213.396.347.615.269.44.565.877.899 1.229.334.352.719.664 1.24.664.464 0 .856-.245 1.154-.553.298-.307.536-.693.748-1.111.426-.836.746-1.816.997-2.516a.363.363 0 0 0 .005-.013c.112-.345.303-.428.475-.428Zm0 3.752a1.254 1.254 0 1 0 0 2.507 1.254 1.254 0 0 0 0-2.507Zm0 1a.254.254 0 1 1 0 .507.254.254 0 0 1 0-.507Zm-9.951.46 3.308 6.755a.5.5 0 0 0 .166.191c.331.227 1.198 1.111 2.327 1.111.54 0 .988-.256 1.357-.523.37-.267.674-.57.861-.744a.54.54 0 0 0 .03-.031l.052-.059c.116.146.245.316.399.494.341.396.796.863 1.474.863.664 0 1.078-.465 1.428-.855.213-.237.304-.34.445-.502l.057.06.03.03c.305.282 1.06 1.267 2.212 1.267.534 0 1.004-.232 1.42-.47.416-.24.778-.51.969-.64a.5.5 0 0 0 .168-.196l3.105-6.48c-.473 2.16-.896 3.84-1.236 6.19l.002.006-.004.006c-.085.69-.56 1.108-1.068 1.108a.5.5 0 0 0 0 1c.149 0 .247-.13.387-.162-.106.27-.26.51-.26.83 0 .606-.41.988-.746.988H5.65c-.456 0-.828-.382-.828-.988 0-.3-.155-.521-.26-.772.1.017.172.104.276.104a.5.5 0 0 0 0-1c-.458 0-.884-.337-1.031-.91a1.63 1.63 0 0 1-.037-.196v-.004l-.002-.002c-.292-2.428-.753-4.29-1.22-6.468Zm8.014.48a1.254 1.254 0 1 0 0 2.507 1.254 1.254 0 0 0 0-2.508Zm3.874 0a1.254 1.254 0 1 0 0 2.507 1.254 1.254 0 0 0 0-2.508Zm-3.874 1a.254.254 0 1 1 0 .507.254.254 0 0 1 0-.508Zm3.874 0a.254.254 0 1 1 0 .507.254.254 0 0 1 0-.508Zm-1.937.937a1.254 1.254 0 1 0 0 2.508 1.254 1.254 0 0 0 0-2.508Zm0 1a.254.254 0 1 1 0 .508.254.254 0 0 1 0-.508ZM8.285 17.24a.5.5 0 1 0 0 1 .5.5 0 0 0 0-1Zm8.43 0a.5.5 0 1 0 0 1 .5.5 0 0 0 0-1Z" fill="#18303F" yggColor="iconDefault"/></g></svg>