<svg fill="none" height="25" viewBox="0 0 25 25" width="25"><path clip-rule="evenodd" d="m11.331.973c.368-.13.762-.2 1.17-.2 2.015 0 3.689 1.718 3.689 3.748a3.796 3.796 0 0 1 -2.52 3.55 3.566 3.566 0 0 1 -1.17.199c-2.016 0-3.689-1.718-3.689-3.748a3.793 3.793 0 0 1 2.52-3.55zm.326.946a2.79 2.79 0 0 0 -1.845 2.601c0 1.496 1.242 2.748 2.689 2.748.292 0 .576-.05.843-.145a2.79 2.79 0 0 0 1.845-2.602c0-1.496-1.243-2.748-2.689-2.748-.293 0-.576.05-.843.145zm-1.566 8.604.007-.006.032-.025a3.802 3.802 0 0 1 3.067-.767 3.807 3.807 0 0 1 1.705.792l.012.01.007.005c.99.809 1.636 2.116 1.636 3.651v1.813a.5.5 0 0 0 1 0v-1.813c0-3.041-2.184-5.522-5.056-5.522a4.54 4.54 0 0 0 -.37.014c-2.69.201-4.688 2.598-4.688 5.509v1.812a.5.5 0 0 0 1 0v-1.812c0-1.542.65-2.853 1.648-3.661zm4.688 6.676a.5.5 0 0 0 -.5.462l-.42 5.565h-2.719l-.42-5.564a.5.5 0 0 0 -.5-.462h-.652a.5.5 0 0 0 0 1h.19l.42 5.564a.5.5 0 0 0 .499.463h3.646a.5.5 0 0 0 .499-.463l.42-5.565h.19a.5.5 0 0 0 0-1zm-6.328.485a.5.5 0 1 1 -1 0 .5.5 0 0 1 1 0zm9.102 0a.5.5 0 1 1 -1 0 .5.5 0 0 1 1 0z" fill="#18303f" fill-rule="evenodd"/></svg>