<svg fill="none" height="25" viewBox="0 0 25 25" width="25"><path clip-rule="evenodd" d="m1.5 6a4.5 4.5 0 0 1 4.5-4.5h1.75a.5.5 0 0 0 0-1h-1.75a5.5 5.5 0 0 0 -5.5 5.5v2a.5.5 0 0 0 1 0zm15.75-5.5a.5.5 0 0 0 0 1h1.75a4.5 4.5 0 0 1 4.5 4.5v2a.5.5 0 0 0 1 0v-2a5.5 5.5 0 0 0 -5.5-5.5zm-16.25 16a.5.5 0 0 1 .5.5v2a4.5 4.5 0 0 0 4.5 4.5h1.75a.5.5 0 0 1 0 1h-1.75a5.5 5.5 0 0 1 -5.5-5.5v-2a.5.5 0 0 1 .5-.5zm23.5.5a.5.5 0 0 0 -1 0v2a4.5 4.5 0 0 1 -4.5 4.5h-1.75a.5.5 0 0 0 0 1h1.75a5.5 5.5 0 0 0 5.5-5.5zm-11.5-7.5a.5.5 0 0 0 -1 0v2.5h-2.5a.5.5 0 0 0 0 1h2.5v2.5a.5.5 0 0 0 1 0v-2.5h2.5a.5.5 0 0 0 0-1h-2.5z" fill="#18303f" fill-rule="evenodd"/></svg>