<svg width="25" height="25" viewBox="0 0 25 25" fill="none"><g yggColor="add_automation"><path yggColor="iconDefault" fill-rule="evenodd" clip-rule="evenodd" d="M1.5 6A4.5 4.5 0 0 1 6 1.5h1.75a.5.5 0 0 0 0-1H6A5.5 5.5 0 0 0 .5 6v2a.5.5 0 0 0 1 0V6ZM17.25.5a.5.5 0 0 0 0 1H19A4.5 4.5 0 0 1 23.5 6v2a.5.5 0 0 0 1 0V6A5.5 5.5 0 0 0 19 .5h-1.75ZM1 16.5a.5.5 0 0 1 .5.5v2A4.5 4.5 0 0 0 6 23.5h1.75a.5.5 0 0 1 0 1H6A5.5 5.5 0 0 1 .5 19v-2a.5.5 0 0 1 .5-.5Zm23.5.5a.5.5 0 0 0-1 0v2a4.5 4.5 0 0 1-4.5 4.5h-1.75a.5.5 0 0 0 0 1H19a5.5 5.5 0 0 0 5.5-5.5v-2ZM13 9.5a.5.5 0 0 0-1 0V12H9.5a.5.5 0 0 0 0 1H12v2.5a.5.5 0 0 0 1 0V13h2.5a.5.5 0 0 0 0-1H13V9.5Z" fill="#18303F"/></g></svg>