<svg width="25" height="25" viewBox="0 0 25 25" fill="none"><g yggColor="additional"><path yggColor="iconDefault" fill-rule="evenodd" clip-rule="evenodd" d="M1 5.47a1.5 1.5 0 1 1 3 0v4a1.5 1.5 0 1 1-3 0v-4Zm1.5-.5a.5.5 0 0 0-.5.5v4a.5.5 0 0 0 1 0v-4a.5.5 0 0 0-.5-.5ZM6 9.47a1.5 1.5 0 1 1 3 0 1.5 1.5 0 0 1-3 0Zm1.5-.5a.5.5 0 1 0 0 1 .5.5 0 0 0 0-1Zm3.865 5.508c.64-.639 1.736-.637 2.374.004l2.694 2.707.01.01.004.005.008.008C17.44 18.312 18 19.65 18 21.106v2.306a.6.6 0 0 1-.611.588H7.61A.6.6 0 0 1 7 23.412v-2.306c0-1.35.555-2.789 1.545-3.894l.005-.006.008-.008a.592.592 0 0 1 .016-.016l2.79-2.704ZM17.5 7.97a1.5 1.5 0 1 0 0 3 1.5 1.5 0 0 0 0-3Zm-.5 1.5a.5.5 0 1 1 1 0 .5.5 0 0 1-1 0Zm-6-4a1.5 1.5 0 0 1 3 0v4a1.5 1.5 0 1 1-3 0v-4Zm1.5-.5a.5.5 0 0 0-.5.5v4a.5.5 0 0 0 1 0v-4a.5.5 0 0 0-.5-.5Zm8.5.5a1.5 1.5 0 0 1 3 0v4a1.5 1.5 0 1 1-3 0v-4Zm1.5-.5a.5.5 0 0 0-.5.5v4a.5.5 0 0 0 1 0v-4a.5.5 0 0 0-.5-.5Z" fill="#18303F"/></g></svg>