<svg fill="none" height="25" viewBox="0 0 25 25" width="25"><path clip-rule="evenodd" d="m1 5.47a1.5 1.5 0 1 1 3 0v4a1.5 1.5 0 1 1 -3 0zm1.5-.5a.5.5 0 0 0 -.5.5v4a.5.5 0 0 0 1 0v-4a.5.5 0 0 0 -.5-.5zm3.5 4.5a1.5 1.5 0 1 1 3 0 1.5 1.5 0 0 1 -3 0zm1.5-.5a.5.5 0 1 0 0 1 .5.5 0 0 0 0-1zm3.865 5.508c.64-.639 1.736-.637 2.374.004l2.694 2.707.01.01.004.005.008.008c.985 1.1 1.545 2.438 1.545 3.894v2.306a.6.6 0 0 1 -.611.588h-9.779a.6.6 0 0 1 -.61-.588v-2.306c0-1.35.555-2.789 1.545-3.894l.005-.006.008-.008a.592.592 0 0 1 .016-.016l2.79-2.704zm6.135-6.508a1.5 1.5 0 1 0 0 3 1.5 1.5 0 0 0 0-3zm-.5 1.5a.5.5 0 1 1 1 0 .5.5 0 0 1 -1 0zm-6-4a1.5 1.5 0 0 1 3 0v4a1.5 1.5 0 1 1 -3 0zm1.5-.5a.5.5 0 0 0 -.5.5v4a.5.5 0 0 0 1 0v-4a.5.5 0 0 0 -.5-.5zm8.5.5a1.5 1.5 0 0 1 3 0v4a1.5 1.5 0 1 1 -3 0zm1.5-.5a.5.5 0 0 0 -.5.5v4a.5.5 0 0 0 1 0v-4a.5.5 0 0 0 -.5-.5z" fill="#18303f" fill-rule="evenodd"/></svg>