<svg width="25" height="25" viewBox="0 0 25 25" fill="none"><g id="admin"><path fill-rule="evenodd" clip-rule="evenodd" d="M16.665 2.147a4.649 4.649 0 0 1 5.305-.918.5.5 0 0 1 .137.805L20.17 3.97v1.186h1.187l1.937-1.937a.5.5 0 0 1 .805.138c.846 1.763.5 3.957-.927 5.314-1.323 1.256-3.273 1.65-4.974.933l-3.845 3.845c-.7.7-1.775.7-2.475 0l-.023-.024c-.58-.662-.705-1.723.023-2.45l3.844-3.845c-.72-1.693-.391-3.65.943-4.984Zm4.18-.266a3.657 3.657 0 0 0-3.473.973c-1.102 1.102-1.328 2.758-.604 4.151a.5.5 0 0 1-.09.584l-4.093 4.093c-.28.28-.282.726.012 1.072.309.299.743.295 1.049-.011l4.093-4.093a.5.5 0 0 1 .584-.09c1.38.718 3.045.445 4.16-.613.92-.875 1.27-2.228.963-3.464l-1.528 1.528a.5.5 0 0 1-.354.146H19.67a.5.5 0 0 1-.5-.5V3.763a.5.5 0 0 1 .147-.353l1.529-1.529ZM4.335.972c.368-.129.762-.199 1.17-.199 2.015 0 3.689 1.718 3.689 3.748 0 1.62-1.066 3.041-2.52 3.55-.37.128-.763.198-1.17.198-2.016 0-3.69-1.717-3.69-3.748A3.793 3.793 0 0 1 4.334.972Zm.326.947A2.79 2.79 0 0 0 2.815 4.52c0 1.496 1.242 2.748 2.689 2.748.292 0 .576-.051.843-.145a2.79 2.79 0 0 0 1.845-2.603c0-1.495-1.243-2.747-2.69-2.747-.292 0-.575.05-.842.145ZM3.1 10.517l-.006.006c-.998.807-1.648 2.12-1.648 3.66v1.813a.5.5 0 1 1-1 0v-1.813c0-2.91 1.999-5.307 4.688-5.509.122-.009.246-.014.37-.014 2.872 0 5.056 2.481 5.056 5.523v1.812a.5.5 0 0 1-1 0v-1.812c0-1.535-.645-2.843-1.636-3.651l-.008-.006a3.807 3.807 0 0 0-2.414-.865c-.882 0-1.702.303-2.37.83l-.031.026Zm4.183 7.144a.5.5 0 0 1 .499-.462h.653a.5.5 0 0 1 0 1h-.19l-.42 5.565a.5.5 0 0 1-.5.462h-.914a.36.36 0 0 1-.018 0H3.68a.5.5 0 0 1-.5-.462L2.76 18.2h-.19a.5.5 0 0 1 0-1h.654a.5.5 0 0 1 .499.463l.42 5.565h2.204a.43.43 0 0 1 .019 0h.497l.42-5.566Zm-6.33.522a.5.5 0 1 0 0-1 .5.5 0 0 0 0 1Zm9.103 0a.5.5 0 1 0 0-1 .5.5 0 0 0 0 1Z" fill="#18303F" yggColor="iconDefault"/></g></svg>