<svg fill="none" height="25" viewBox="0 0 25 25" width="25"><path clip-rule="evenodd" d="m9.943 1a8.607 8.607 0 0 0 -1.357 17.108 1.666 1.666 0 0 1 1.28 1.02 7.808 7.808 0 0 0 7.236 4.872c.022 0 .027-.006.027-.006a.076.076 0 0 0 .022-.033.194.194 0 0 0 -.028-.181 8.761 8.761 0 0 1 -1.64-4.123c-.105-.842.55-1.467 1.25-1.605a8.607 8.607 0 0 0 -1.673-17.052h-5.118zm-9.607 8.607a9.607 9.607 0 0 1 9.607-9.607h5.116a9.607 9.607 0 0 1 9.608 9.607c0 4.668-3.329 8.557-7.741 9.426-.323.064-.475.308-.451.501a7.76 7.76 0 0 0 1.454 3.653c.256.348.294.784.152 1.141a1.04 1.04 0 0 1 -.98.672 8.808 8.808 0 0 1 -8.162-5.497.666.666 0 0 0 -.51-.407c-4.585-.726-8.092-4.696-8.092-9.489zm12.789-4.274a.625.625 0 1 0 -1.25 0v5a.625.625 0 0 0 1.25 0zm0 8.334a.625.625 0 1 0 -1.25 0v.166a.625.625 0 0 0 1.25 0z" fill="#18303f" fill-rule="evenodd"/></svg>