<svg width="25" height="25" viewBox="0 0 25 25" fill="none"><g id="alert"><path fill-rule="evenodd" clip-rule="evenodd" d="M12.5 3.958a8.542 8.542 0 1 0 0 17.084 8.542 8.542 0 0 0 0-17.084ZM2.708 12.5c0-5.408 4.384-9.792 9.792-9.792 5.408 0 9.792 4.384 9.792 9.792 0 5.408-4.384 9.792-9.792 9.792-5.408 0-9.792-4.384-9.792-9.792ZM12.5 7.708c.345 0 .625.28.625.625v5a.625.625 0 1 1-1.25 0v-5c0-.345.28-.625.625-.625Zm0 8.334c.345 0 .625.28.625.625v.166a.625.625 0 1 1-1.25 0v-.166c0-.346.28-.625.625-.625Z" fill="#18303F" yggColor="iconDefault"/></g></svg>