<svg width="25" height="25" viewBox="0 0 25 25" fill="none"><g id="alert_bubble"><path id="iconDefault" fill-rule="evenodd" clip-rule="evenodd" d="M9.943 1a8.607 8.607 0 0 0-1.357 17.108 1.666 1.666 0 0 1 1.28 1.02A7.808 7.808 0 0 0 17.102 24c.022 0 .027-.006.027-.006a.076.076 0 0 0 .022-.033.194.194 0 0 0-.028-.181 8.761 8.761 0 0 1-1.64-4.123c-.105-.842.55-1.467 1.25-1.605A8.607 8.607 0 0 0 15.06 1H9.942ZM.336 9.607A9.607 9.607 0 0 1 9.943 0h5.116a9.607 9.607 0 0 1 9.608 9.607c0 4.668-3.329 8.557-7.741 9.426-.323.064-.475.308-.451.501a7.76 7.76 0 0 0 1.454 3.653c.256.348.294.784.152 1.141a1.04 1.04 0 0 1-.98.672 8.808 8.808 0 0 1-8.162-5.497.666.666 0 0 0-.51-.407C3.844 18.37.337 14.4.337 9.607Zm12.789-4.274a.625.625 0 1 0-1.25 0v5a.625.625 0 0 0 1.25 0v-5Zm0 8.334a.625.625 0 1 0-1.25 0v.166a.625.625 0 0 0 1.25 0v-.166Z" fill="#18303F"/></g></svg>