<svg width="25" height="25" viewBox="0 0 25 25" fill="none"><g yggColor="angle_position"><path yggColor="iconDefault" fill-rule="evenodd" clip-rule="evenodd" d="M12.5.985a.5.5 0 0 1 .5.5v.55a.5.5 0 0 1-1 0v-.55a.5.5 0 0 1 .5-.5Zm0 4.95a.5.5 0 0 1 .5.5v1.1a.5.5 0 0 1-1 0v-1.1a.5.5 0 0 1 .5-.5Zm.496 17.58v-1.543A9.46 9.46 0 0 0 22 12.484c0-2.406-.88-4.596-2.338-6.265a.502.502 0 0 0-.038-.038 251.534 251.534 0 0 0 2.032-2.138l.192-.206.068-.072-.004-.004.004.004a.5.5 0 1 0-.732-.681l.366.34.14.13-.14-.13-.366-.34-.066.07-.012.013-.18.192a243.38 243.38 0 0 1-3.077 3.218c-1.63 1.673-3.553 3.59-5.069 4.944a.5.5 0 0 0-.78.414v.05h-.05a.5.5 0 1 0 0 1h.046v10.53a.5.5 0 1 0 1 0Zm0-7.06v-3.47h.054a.5.5 0 0 0 .433-.75 73.824 73.824 0 0 0 2.25-2.119c.483.66.767 1.478.767 2.368a3.979 3.979 0 0 1-3.504 3.97Zm0 4.516v-3.51a4.977 4.977 0 0 0 4.48-4.476h1.074a.5.5 0 0 0 0-1h-1.074a4.978 4.978 0 0 0-1.024-2.576A178.005 178.005 0 0 0 18.929 6.9 8.476 8.476 0 0 1 21 12.484a8.46 8.46 0 0 1-8.004 8.487ZM1.5 11.985a.5.5 0 1 0 0 1h.55a.5.5 0 0 0 0-1H1.5Zm4.45.5a.5.5 0 0 1 .5-.5h1.1a.5.5 0 1 1 0 1h-1.1a.5.5 0 0 1-.5-.5Zm17-.5a.5.5 0 1 0 0 1h.55a.5.5 0 0 0 0-1h-.55Z" fill="#18303F"/></g></svg>