<svg fill="none" height="25" viewBox="0 0 25 25" width="25"><path clip-rule="evenodd" d="m7.424 2.244c.065-.253.366-.593.611-.674.155-.056.775-.07 4.448-.07 3.788-.003 4.288.005 4.464.065.263.09.56.413.629.68.064.266.064 3.545 0 3.695-.1.22-.444.237-.551.03-.03-.055-.047-.683-.047-1.83v-1.75l-.25-.249h-8.456l-.25.25v20.464h2.498v-.43c0-.403.008-.442.107-.537.134-.137.297-.137.43 0 .1.095.108.134.108.538v.43h2.67v-3.697h-2.67v.774c0 .77 0 .778-.107.881-.13.129-.276.138-.426.017l-.112-.086v-.868c0-.975.025-1.083.297-1.263.146-.1.155-.1 1.683-.1s1.537 0 1.683.1l.008.005a.775.775 0 0 1 .134.101c.155.16.155.47.155 2.12v2.015h2.497v-7.843c0-7.787 0-7.843.087-7.929a.322.322 0 0 1 .469.026l.09.116v15.63h2.837c2.709 0 2.842.005 2.937.082.137.112.137.37 0 .481-.1.078-.414.082-10.897.082s-10.798-.004-10.897-.082c-.137-.111-.137-.37 0-.481.095-.077.228-.082 2.936-.082h2.838v-10.21c0-7.431.013-10.259.047-10.4zm1.916 1.11a.794.794 0 0 1 .232-.108c.06-.013.526-.017 1.034-.013h.24c.489 0 .764 0 .92.137.2.177.199.582.196 1.512v.353c0 1.5-.005 1.578-.086 1.72-.164.279-.267.3-1.36.3-.94 0-.978-.004-1.12-.099-.293-.193-.297-.219-.297-1.912 0-1.654.008-1.723.24-1.89zm1.998 1.924-.009-.7-.013-.696-.758-.013c-.413-.004-.766.004-.783.017-.017.017-.03.34-.03.713v.68h1.593zm-.805 1.324.783-.013.026-.666h-1.597v.688zm2.953-3.348c-.202.065-.297.134-.37.275-.07.125-.078.293-.078 1.728v1.59l.104.146c.172.24.28.262 1.351.262.93 0 .969-.004 1.111-.098.293-.194.297-.22.297-1.913 0-1.676-.004-1.719-.262-1.904-.143-.098-.168-.103-1.094-.111-.52-.005-.999.008-1.06.025zm1.76 1.324.01.7h-1.594v-.678c0-.374.013-.697.03-.714.018-.013.37-.021.784-.017l.758.013.013.696zm.01 2.033-.784-.009-.788-.013-.026-.666h1.597v.688zm-6.157 3.73c0-1.693.004-1.719.297-1.912.142-.095.176-.1 1.14-.1.91 0 1.008.01 1.133.087l.018.01c.057.035.102.062.138.1.137.139.137.412.137 1.728v.074c0 1.483-.005 1.599-.082 1.724-.16.266-.21.274-1.348.274l-.262.002c-.525.003-.816.004-.976-.14-.2-.178-.199-.58-.196-1.484v-.363zm2.217.03.013-.7.009-.697h-1.593l.008.697.013.7zm-1.571 1.31h1.593v-.644h-1.593v.645zm3.569-3.259c-.058.036-.103.064-.14.101-.136.142-.136.415-.136 1.73v.472c-.004.897-.005 1.295.192 1.47.157.14.44.137.949.134l.288-.002.258.001c.53.003.822.005.982-.14.199-.178.198-.578.195-1.473v-.36c0-1.633-.005-1.685-.233-1.895l-.12-.108-1.038-.013c-.973-.008-1.05-.004-1.18.073l-.018.011zm1.933 1.249-.013.7h-1.55l-.013-.7-.009-.697h1.593zm.008 2.01h-1.593v-.644h1.593v.645zm-6.155 3.749c0-1.805.004-1.813.417-1.968.125-.047.384-.056 1.09-.047l.237.002c.489.003.765.004.92.142.203.18.202.588.2 1.527l-.001.357v1.59l-.104.146c-.172.24-.28.262-1.351.262-.93 0-.969-.004-1.111-.099-.293-.193-.297-.219-.297-1.912zm2.239.034-.009-.7-.013-.696-.758-.013c-.413-.004-.766.004-.783.017-.017.017-.03.34-.03.713v.68h1.593zm-1.593 1.333h1.597l-.026-.666-.784-.013-.787-.009zm3.767-3.356a.581.581 0 0 0 -.392.279c-.077.124-.082.25-.082 1.732 0 1.547.005 1.598.09 1.719.186.249.285.27 1.357.27.938 0 .977-.004 1.12-.098.292-.194.296-.22.296-1.921 0-1.707-.004-1.74-.301-1.913-.138-.077-.233-.086-1.055-.094-.495-.005-.96.008-1.033.026zm1.735 1.323.008.7h-1.593v-.678c0-.374.013-.697.03-.714.018-.013.37-.021.784-.017l.758.013zm.008 2.033h-1.593v-.314c0-.176.013-.33.03-.344.014-.017.375-.03.797-.03h.766zm-3.444 4.224c0-.266.052-.387.185-.442.134-.052.147-.052.284.021.134.069.177.168.177.434 0 .352-.31.529-.547.31-.077-.073-.099-.138-.099-.323z" fill="#18303f" fill-rule="evenodd"/></svg>