<svg width="25" height="25" viewBox="0 0 25 25" fill="none"><g id="apartment_alt"><path fill-rule="evenodd" clip-rule="evenodd" d="M10.357 1.5h4.254c.13.08.223.195.279.344.029 5.6.029 11.2 0 16.8-.147.183-.326.22-.537.108a.299.299 0 0 1-.107-.193c-.022-5.472-.03-10.943-.022-16.414h-3.48c.007 1.131 0 2.263-.022 3.394-.2.23-.401.23-.601 0-.022-.386-.03-.773-.022-1.16H4.728v3.437h.516c-.007-.472 0-.945.02-1.418a.502.502 0 0 1 .409-.408 29.06 29.06 0 0 1 2.235 0c.153.03.275.11.365.237.06.527.082 1.057.064 1.59.2-.008.402 0 .602.02.107.051.186.13.236.237.029.502.029 1.003 0 1.504a.35.35 0 0 1-.28.28c-1.388.02-2.778.028-4.167.02v3.567h.516c-.007-.473 0-.945.02-1.418a.464.464 0 0 1 .28-.365 36.104 36.104 0 0 1 2.493 0c.157.072.25.193.279.365.02.473.029.945.02 1.418.188-.007.374 0 .56.022a.45.45 0 0 1 .279.28 13.01 13.01 0 0 1 0 1.503 1.585 1.585 0 0 1-.15.193 72.615 72.615 0 0 1-4.297.065v3.566h.516c-.007-.458 0-.917.02-1.375a.498.498 0 0 1 .323-.408 33.773 33.773 0 0 1 2.407 0 .49.49 0 0 1 .322.365c.02.473.029.945.02 1.418.22-.01.435.011.646.065a.758.758 0 0 1 .193.236 13.01 13.01 0 0 1 0 1.504.46.46 0 0 1-.365.28c-1.361.02-2.721.028-4.082.02v1.677h5.37c-.006-5.458 0-10.915.023-16.372.059-.123.16-.18.3-.171.14-.009.24.048.3.171.023 5.457.03 10.914.023 16.371h3.48c-.007-1.06 0-2.12.022-3.18.197-.314.412-.328.644-.042.022 1.074.029 2.148.022 3.223h5.328V21.18c-1.406.02-2.81-.002-4.211-.065a.533.533 0 0 1-.237-.365 6.403 6.403 0 0 1 .043-1.418.603.603 0 0 1 .323-.236c.17-.022.343-.029.515-.022-.007-.501 0-1.003.022-1.504a.52.52 0 0 1 .322-.279 32.55 32.55 0 0 1 2.363 0c.116.03.209.094.28.193.062.526.084 1.056.064 1.59h.516v-3.566c-1.422.02-2.84 0-4.254-.065a.544.544 0 0 1-.194-.322 6.402 6.402 0 0 1 .043-1.418.396.396 0 0 1 .28-.236 3.65 3.65 0 0 1 .558-.022 10.27 10.27 0 0 1 .065-1.59.765.765 0 0 1 .236-.193 34.84 34.84 0 0 1 2.449 0c.092.048.17.113.237.193.062.526.084 1.056.064 1.59h.516V9.88c-1.39.007-2.78 0-4.168-.022a.457.457 0 0 1-.28-.408 9.253 9.253 0 0 1 0-1.246.463.463 0 0 1 .28-.365c.2-.022.4-.029.6-.022-.006-.501 0-1.002.023-1.503a.494.494 0 0 1 .408-.323 27.927 27.927 0 0 1 2.19 0 .602.602 0 0 1 .41.28c.02.515.028 1.03.02 1.546h.517V4.38c-1.49.007-2.98 0-4.47-.022-.212-.184-.226-.385-.042-.601l.129-.043a125.31 125.31 0 0 1 4.64 0c.204.048.34.17.409.365.02 1.246.028 2.492.02 3.738.188-.007.374 0 .56.022a.395.395 0 0 1 .236.28l.022.73c.192.736-.08 1.08-.817 1.03v3.567c.737-.048 1.009.295.817 1.032l-.022.73a.395.395 0 0 1-.236.28c-.186.02-.372.028-.56.02v3.567c.744-.037 1.016.313.818 1.053l-.022.709a.427.427 0 0 1-.365.322 2.173 2.173 0 0 1-.43.022c.007.644 0 1.289-.021 1.933a.862.862 0 0 1-.322.387H4.427a.779.779 0 0 1-.365-.473 39.246 39.246 0 0 1-.021-1.847c-.731.02-.988-.331-.774-1.053l.022-.795c.194-.232.445-.318.752-.258v-3.566c-.173.007-.345 0-.516-.022a.49.49 0 0 1-.193-.15 4.551 4.551 0 0 1-.065-.86l.022-.773a.393.393 0 0 1 .279-.236c.157-.022.314-.029.473-.022V9.88c-.24.03-.461-.013-.666-.129a.317.317 0 0 0-.086-.129l-.022-.773c-.005-.291.016-.578.065-.86a.491.491 0 0 1 .193-.15 3.11 3.11 0 0 1 .516-.022c-.008-1.203 0-2.406.02-3.609a.579.579 0 0 1 .452-.494c1.862-.022 3.724-.029 5.586-.022-.007-.644 0-1.289.022-1.933.076-.091.154-.177.236-.258ZM5.93 6.656H7.65v1.16H5.93v-1.16Zm11.43 0h1.676v1.16H17.36v-1.16ZM3.91 8.504H8.51v.687H3.912v-.687Zm12.548 0h4.597v.687h-4.597v-.687ZM5.93 12.285H7.65v1.16H5.93v-1.16Zm11.43 0h1.676v1.16H17.36v-1.16ZM3.91 14.133H8.51v.73H3.912v-.73Zm12.548 0h4.597v.73h-4.597v-.73ZM5.93 17.957H7.65v1.117H5.93v-1.117Zm11.43 0h1.676v1.117H17.36v-1.117ZM3.91 19.762H8.51v.73H3.912v-.73Zm12.548 0h4.597v.73h-4.597v-.73Z" fill="#18303F" yggColor="iconDefault"/></g></svg>