<svg width="25" height="25" viewBox="0 0 25 25" fill="none"><g id="app_store"><path id="iconDefault" fill-rule="evenodd" clip-rule="evenodd" d="M5.668 5a5 5 0 0 1 5-5h3.663a5 5 0 0 1 5 5v3.664a5 5 0 0 1-5 5H10.67a5 5 0 0 1-5-5V5Zm5-4h3.663a4 4 0 0 1 4 4v3.664a4 4 0 0 1-4 4H10.67a4 4 0 0 1-4-4V5a4 4 0 0 1 4-4Zm2.379 21.043a.45.45 0 0 1-.636 0l-1.521-1.521a.45.45 0 0 1 .635-.636l.734.733V18.17a.47.47 0 1 1 .942 0v2.448l.73-.732a.45.45 0 0 1 .637.636l-1.521 1.52Zm4.838-2.236a5.193 5.193 0 1 1-10.385 0 5.193 5.193 0 0 1 10.386 0Zm-1 0a4.192 4.192 0 1 1-8.384 0 4.192 4.192 0 0 1 8.385 0Z" fill="#18303F"/></g></svg>