<svg fill="none" height="25" viewBox="0 0 25 25" width="25"><path clip-rule="evenodd" d="m5.669 5a5 5 0 0 1 5-5h3.662a5 5 0 0 1 5 5v3.664a5 5 0 0 1 -5 5h-3.661a5 5 0 0 1 -5-5v-3.664zm5-4h3.662a4 4 0 0 1 4 4v3.664a4 4 0 0 1 -4 4h-3.661a4 4 0 0 1 -4-4v-3.664a4 4 0 0 1 4-4zm2.378 21.043a.45.45 0 0 1 -.636 0l-1.521-1.521a.45.45 0 0 1 .635-.636l.734.733v-2.449a.47.47 0 1 1 .942 0v2.448l.73-.732a.45.45 0 0 1 .637.636l-1.521 1.52zm4.839-2.236a5.193 5.193 0 1 1 -10.386 0 5.193 5.193 0 0 1 10.386 0zm-1 0a4.192 4.192 0 1 1 -8.385 0 4.192 4.192 0 0 1 8.385 0z" fill="#18303f" fill-rule="evenodd"/></svg>