<svg fill="none" height="25" viewBox="0 0 25 25" width="25"><path clip-rule="evenodd" d="m17.609 1.768a.5.5 0 0 1 .006.707l-1.523 1.55 3.128 3.183.915-.931a.5.5 0 1 1 .713.7l-.927.944.96.979a1.396 1.396 0 0 1 0 1.984l-2.881 2.933-.004.004a.152.152 0 0 1 -.012.012c-1.81 1.681-4.503 1.964-6.577.782l-1.647 1.675a.499.499 0 0 1 -.713 0l-.567-.577-3.904 3.972c-.247.252-.397.663-.397 1.116 0 .404.202.778.48.949a.5.5 0 0 1 .044.029c.476.363 1.186.277 1.682-.228l3.063-3.117a1.896 1.896 0 0 1 2.695 0 1.956 1.956 0 0 1 0 2.718.5.5 0 1 1 -.713-.701.956.956 0 0 0 0-1.316.897.897 0 0 0 -1.27 0l-3.06 3.116c-.76.773-2.018 1.055-2.982.337-.607-.383-.937-1.1-.937-1.788 0-.646.21-1.335.684-1.817l3.916-3.985-.578-.588a.5.5 0 0 1 0-.7l1.688-1.718c-1.14-2.12-.941-4.796.723-6.65l.015-.017 2.883-2.934c.12-.121.259-.233.432-.311.176-.08.36-.113.556-.113.194 0 .379.033.555.113.173.078.313.19.432.311l.905.92 1.51-1.536a.501.501 0 0 1 .708-.007zm-8.16 11.08-1.189 1.212 1.146 1.165 1.17-1.192a5.517 5.517 0 0 1 -.594-.59 6.06 6.06 0 0 1 -.531-.594zm2.249.774-.01-.008a.502.502 0 0 0 -.16-.107c-.29-.206-.56-.45-.803-.733a.497.497 0 0 0 -.031-.032c-1.888-1.838-2.04-4.827-.344-6.725l2.875-2.925a.44.44 0 0 1 .13-.1.328.328 0 0 1 .144-.025c.075 0 .116.012.143.024.029.013.07.04.13.101l6.397 6.509a.398.398 0 0 1 0 .582l-2.875 2.925c-1.553 1.436-3.88 1.617-5.596.514zm-.085-3.435a1.594 1.594 0 1 1 3.187.001 1.594 1.594 0 0 1 -3.187 0zm1.593-.593a.593.593 0 1 0 0 1.187.593.593 0 0 0 0-1.187zm8.802-4.01a.5.5 0 1 1 -1 0 .5.5 0 0 1 1 0zm-11.168 16.916a.5.5 0 1 0 0-1 .5.5 0 0 0 0 1z" fill="#18303f" fill-rule="evenodd"/></svg>