<svg fill="none" height="25" viewBox="0 0 25 25" width="25"><path clip-rule="evenodd" d="m5.5 2.5a3 3 0 0 0 -3 3v3a3 3 0 0 0 3 3h3a3 3 0 0 0 3-3v-3a3 3 0 0 0 -3-3zm3 1h-3a2 2 0 0 0 -2 2v3a2 2 0 0 0 2 2h3a2 2 0 0 0 2-2v-3a2 2 0 0 0 -2-2zm8-1a3 3 0 0 0 -3 3v3a3 3 0 0 0 3 3h3a3 3 0 0 0 3-3v-3a3 3 0 0 0 -3-3zm3 1h-3a2 2 0 0 0 -2 2v3a2 2 0 0 0 2 2h3a2 2 0 0 0 2-2v-3a2 2 0 0 0 -2-2zm-14 10a3 3 0 0 0 -3 3v3a3 3 0 0 0 3 3h3a3 3 0 0 0 3-3v-3a3 3 0 0 0 -3-3zm3 1h-3a2 2 0 0 0 -2 2v3a2 2 0 0 0 2 2h3a2 2 0 0 0 2-2v-3a2 2 0 0 0 -2-2zm8-1a3 3 0 0 0 -3 3v3a3 3 0 0 0 3 3h3a3 3 0 0 0 3-3v-3a3 3 0 0 0 -3-3zm3 1h-3a2 2 0 0 0 -2 2v3a2 2 0 0 0 2 2h3a2 2 0 0 0 2-2v-3a2 2 0 0 0 -2-2z" fill="#18303f" fill-rule="evenodd"/></svg>