<svg width="25" height="25" viewBox="0 0 25 25" fill="none"><g id="associations"><path fill-rule="evenodd" clip-rule="evenodd" d="M12.297 7.326 14.222 5.4a3.806 3.806 0 0 1 5.377 5.376l-2.755 2.746a3.789 3.789 0 0 1-5.367 0 .5.5 0 1 0-.708.707 4.786 4.786 0 0 0 6.782 0l2.763-2.753a4.807 4.807 0 0 0-6.79-6.792L11.59 6.62a.5.5 0 1 0 .707.707Zm-2.91 3.325a3.787 3.787 0 0 1 4.136.825.5.5 0 0 0 .708-.706 4.787 4.787 0 0 0-6.782 0l-2.763 2.753a4.807 4.807 0 0 0 6.79 6.792l1.934-1.934a.5.5 0 1 0-.707-.707l-1.925 1.925A3.807 3.807 0 0 1 5.4 14.222l2.755-2.745v-.001c.353-.353.77-.634 1.231-.825Z" fill="#18303F" yggColor="iconDefault"/></g></svg>