<svg fill="none" height="25" viewBox="0 0 25 25" width="25"><path clip-rule="evenodd" d="m12.297 7.326 1.925-1.925a3.806 3.806 0 0 1 5.377 5.377l-2.755 2.745v.001a3.787 3.787 0 0 1 -5.367 0 .5.5 0 0 0 -.708.706 4.788 4.788 0 0 0 6.782 0l2.763-2.753a4.807 4.807 0 0 0 -6.79-6.792l-1.934 1.935a.5.5 0 1 0 .707.707zm-2.91 3.326a3.786 3.786 0 0 1 4.136.824.5.5 0 1 0 .708-.706 4.786 4.786 0 0 0 -6.782 0l-2.763 2.753a4.806 4.806 0 0 0 6.79 6.792l1.934-1.934a.5.5 0 1 0 -.707-.707l-1.925 1.925a3.807 3.807 0 0 1 -5.378-5.377l2.755-2.745v-.001c.353-.353.77-.633 1.231-.825z" fill="#18303f" fill-rule="evenodd"/></svg>