<svg width="25" height="25" viewBox="0 0 25 25" fill="none"><g id="auto_change"><path fill-rule="evenodd" clip-rule="evenodd" d="M7.5 12.434a.5.5 0 0 1-.5-.5 5.5 5.5 0 1 1 5.5 5.5.502.502 0 0 1-.142-.02l.3.299a.5.5 0 0 1-.707.707l-1.133-1.132a.5.5 0 0 1 0-.707l1.133-1.133a.5.5 0 0 1 .707.707l-.299.299a.506.506 0 0 1 .141-.02 4.5 4.5 0 1 0-4.5-4.5.5.5 0 0 1-.5.5Zm4.5 4.5c0 .049.007.096.02.142l-.141-.142.141-.141a.502.502 0 0 0-.02.14Zm1.822-6.871a2.27 2.27 0 0 0-2.682 3.639.5.5 0 1 1-.666.745 3.271 3.271 0 1 1 5.424-2.007.5.5 0 1 1-.991-.13 2.27 2.27 0 0 0-1.085-2.247Z" fill="#18303F" yggColor="iconDefault"/></g></svg>