<svg width="25" height="25" viewBox="0 0 25 25" fill="none"><g id="aux"><path fill-rule="evenodd" clip-rule="evenodd" d="M16.497 5.256a.5.5 0 0 1-.055.566.177.177 0 0 0-.024.042 1.258 1.258 0 0 0-.047.122l-.008.019c-.296.732-.029 1.634 1.05 2.481l.252.195c.389.3.76.587 1.068.881.383.367.704.776.892 1.305a3.02 3.02 0 0 1 .063 1.861c-.38 1.061-1.381 1.74-2.514 1.907a.5.5 0 0 1-.456-.818.178.178 0 0 0 .026-.042c.012-.029.026-.062.047-.122.277-.775-.152-1.708-1.033-2.367l-.004-.004c-1.33-1.02-1.912-1.598-2.253-2.509a2.612 2.612 0 0 1-.027-1.862c.38-1.061 1.38-1.74 2.514-1.907a.5.5 0 0 1 .51.252Zm-1.232 1.027c-.409.23-.708.568-.85.965-.134.375-.135.788.015 1.154l.005.014c.233.627.605 1.058 1.925 2.071.887.665 1.61 1.737 1.509 2.884.416-.226.721-.563.87-.96.1-.396.091-.79-.058-1.21v-.002c-.117-.33-.323-.612-.64-.913-.265-.255-.585-.502-.971-.801l-.273-.21v-.002c-1.058-.83-1.667-1.898-1.532-2.99Zm-6.888 4.334a.5.5 0 0 1-.056.566.175.175 0 0 0-.025.042 1.607 1.607 0 0 0-.048.121c-.002.006-.003.013-.006.019-.296.733-.03 1.634 1.05 2.482l.252.195c.389.3.76.587 1.066.88.385.367.707.776.893 1.305a3.02 3.02 0 0 1 .063 1.862c-.38 1.06-1.382 1.74-2.514 1.906a.5.5 0 0 1-.454-.818.241.241 0 0 0 .024-.042c.014-.029.026-.062.047-.121.278-.775-.152-1.71-1.033-2.368l-.004-.004c-1.328-1.02-1.911-1.598-2.252-2.508a2.617 2.617 0 0 1-.028-1.863c.38-1.06 1.38-1.74 2.515-1.906a.5.5 0 0 1 .51.252Zm-1.233 1.026c-.41.23-.708.568-.85.966-.134.374-.136.787.014 1.153l.005.015c.234.627.607 1.058 1.926 2.07.887.665 1.61 1.738 1.509 2.885.416-.226.72-.563.87-.96.1-.397.091-.791-.058-1.21v-.002c-.117-.331-.324-.612-.64-.914-.266-.254-.585-.501-.972-.8a89.198 89.198 0 0 1-.271-.211l-.002-.001c-1.057-.83-1.665-1.899-1.531-2.99Zm5.238-3.14a.5.5 0 0 0-.454-.819c-1.135.167-2.136.846-2.516 1.907a2.617 2.617 0 0 0 .029 1.862c.34.911.923 1.49 2.252 2.51l.005.003c.88.659 1.31 1.592 1.031 2.368-.02.059-.032.092-.046.121-.011.026-.02.037-.024.042a.5.5 0 0 0 .454.818c1.133-.167 2.133-.846 2.514-1.907a3.02 3.02 0 0 0-.063-1.862c-.187-.528-.508-.937-.893-1.304-.306-.294-.678-.58-1.066-.88l-.002-.001-.25-.195c-1.08-.847-1.346-1.748-1.05-2.481a.138.138 0 0 0 .006-.02c.023-.058.035-.092.048-.12a.177.177 0 0 1 .025-.043Zm-2.027 1.425c.141-.397.44-.735.85-.965-.135 1.092.473 2.16 1.53 2.99l.003.001.27.211c.388.3.707.546.974.8.316.302.523.584.639.914v.002c.15.42.157.814.057 1.21-.149.397-.453.734-.87.96.101-1.147-.621-2.22-1.508-2.884-1.32-1.012-1.692-1.444-1.926-2.07l-.006-.015a1.614 1.614 0 0 1-.014-1.154Z" fill="#18303F" yggColor="iconDefault"/></g></svg>