<svg width="25" height="25" viewBox="0 0 25 25" fill="none"><g id="axis_y"><path id="iconDefault" fill-rule="evenodd" clip-rule="evenodd" d="M12.854.709a.501.501 0 0 0-.708 0l-1.75 1.75a.5.5 0 0 0 .708.707L12 2.27v10.168h-.05a.5.5 0 0 0 0 1H12v10h-.5a.5.5 0 0 0 0 1h2a.5.5 0 0 0 0-1H13v-10h.05a.5.5 0 0 0 0-1H13V2.27l.896.896a.501.501 0 0 0 .708-.707l-1.75-1.75ZM1.5 12.438a.5.5 0 0 0 0 1h.55a.5.5 0 0 0 0-1H1.5Zm4.45.5a.5.5 0 0 1 .5-.5h1.1a.5.5 0 0 1 0 1h-1.1a.5.5 0 0 1-.5-.5Zm11.5-.5a.5.5 0 0 0 0 1h1.1a.5.5 0 0 0 0-1h-1.1Zm5 .5a.5.5 0 0 1 .5-.5h.55a.5.5 0 0 1 0 1h-.55a.5.5 0 0 1-.5-.5Z" fill="#18303F"/></g></svg>