<svg width="25" height="25" viewBox="0 0 25 25" fill="none"><g id="axis_z"><path fill-rule="evenodd" clip-rule="evenodd" d="M12.854 1.223a.5.5 0 0 0-.707 0l-1.75 1.75a.5.5 0 0 0 .707.707L12 2.783v17.152a.501.501 0 0 0-.51.64.5.5 0 0 0 .608.626l.402-.107.402.108a.5.5 0 0 0 .609-.626.501.501 0 0 0-.511-.64V2.782l.896.897a.5.5 0 1 0 .707-.707l-1.75-1.75ZM2.004 17.247a.5.5 0 1 0-.258.965l.53.143a.5.5 0 0 0 .26-.966l-.531-.142Zm4.17 1.634a.5.5 0 0 1 .611-.353l1.063.284a.5.5 0 0 1-.259.966l-1.063-.284a.5.5 0 0 1-.353-.613Zm11.236 2.494a.5.5 0 0 0-.258.966l1.063.284a.5.5 0 1 0 .259-.966l-1.064-.284Zm4.701 1.777a.5.5 0 0 1 .613-.354l.53.143a.5.5 0 1 1-.259.965l-.53-.142a.5.5 0 0 1-.354-.612Zm1.497-5.552a.5.5 0 0 0-.613-.354l-.53.143a.5.5 0 1 0 .259.966l.53-.143a.5.5 0 0 0 .354-.612Zm-5.393.928a.5.5 0 0 1 .259.966l-1.064.284a.5.5 0 1 1-.259-.966l1.064-.284ZM8.2 21.728a.5.5 0 0 0-.612-.353l-1.063.284a.5.5 0 1 0 .26.966l1.062-.284a.5.5 0 0 0 .353-.613Zm-5.925 1.07a.5.5 0 1 1 .26.966l-.532.142a.5.5 0 0 1-.259-.965l.531-.143Z" fill="#18303F" yggColor="iconDefault"/></g></svg>