<svg fill="none" height="25" viewBox="0 0 25 25" width="25"><path clip-rule="evenodd" d="m12.563 1.5a.5.5 0 0 0 -1 0v.55a.5.5 0 0 0 1 0zm0 4.95a.5.5 0 0 0 -1 0v1.1a.5.5 0 0 0 1 0zm-.5 5a.5.5 0 0 1 .5.5v.05h10.167l-.896-.896a.5.5 0 0 1 .707-.708l1.75 1.75a.5.5 0 0 1 0 .708l-1.75 1.75a.5.5 0 0 1 -.707-.708l.896-.896h-10.168v.05a.5.5 0 0 1 -1 0v-.05h-10v.5a.5.5 0 0 1 -1 0v-2a.5.5 0 0 1 1 0v.5h10v-.05a.5.5 0 0 1 .5-.5zm.5 6a.5.5 0 0 0 -1 0v1.1a.5.5 0 0 0 1 0zm-.5 5a.5.5 0 0 1 .5.5v.55a.5.5 0 0 1 -1 0v-.55a.5.5 0 0 1 .5-.5z" fill="#18303f" fill-rule="evenodd"/></svg>