<svg width="25" height="25" viewBox="0 0 25 25" fill="none"><g id="axis_x"><path id="iconDefault" fill-rule="evenodd" clip-rule="evenodd" d="M12.563 1.5a.5.5 0 0 0-1 0v.55a.5.5 0 0 0 1 0V1.5Zm0 4.95a.5.5 0 0 0-1 0v1.1a.5.5 0 0 0 1 0v-1.1Zm-.5 5a.5.5 0 0 1 .5.5V12H22.73l-.896-.896a.5.5 0 0 1 .707-.708l1.75 1.75a.5.5 0 0 1 0 .708l-1.75 1.75a.5.5 0 0 1-.707-.708L22.73 13H12.562v.05a.5.5 0 0 1-1 0V13h-10v.5a.5.5 0 0 1-1 0v-2a.5.5 0 0 1 1 0v.5h10v-.05a.5.5 0 0 1 .5-.5Zm.5 6a.5.5 0 0 0-1 0v1.1a.5.5 0 0 0 1 0v-1.1Zm-.5 5a.5.5 0 0 1 .5.5v.55a.5.5 0 0 1-1 0v-.55a.5.5 0 0 1 .5-.5Z" fill="#18303F"/></g></svg>