<svg fill="none" height="25" viewBox="0 0 25 25" width="25"><path clip-rule="evenodd" d="m12.854.709a.501.501 0 0 0 -.708 0l-1.75 1.75a.5.5 0 0 0 .708.707l.896-.896v10.168h-.05a.5.5 0 0 0 0 1h.05v10h-.5a.5.5 0 0 0 0 1h2a.5.5 0 0 0 0-1h-.5v-10h.05a.5.5 0 0 0 0-1h-.05v-10.168l.896.896a.501.501 0 0 0 .708-.707zm-11.354 11.729a.5.5 0 0 0 0 1h.55a.5.5 0 0 0 0-1zm4.45.5a.5.5 0 0 1 .5-.5h1.1a.5.5 0 0 1 0 1h-1.1a.5.5 0 0 1 -.5-.5zm11.5-.5a.5.5 0 0 0 0 1h1.1a.5.5 0 0 0 0-1zm5 .5a.5.5 0 0 1 .5-.5h.55a.5.5 0 0 1 0 1h-.55a.5.5 0 0 1 -.5-.5z" fill="#18303f" fill-rule="evenodd"/></svg>