<svg fill="none" height="25" viewBox="0 0 25 25" width="25"><path clip-rule="evenodd" d="m12.854 1.223a.5.5 0 0 0 -.707 0l-1.75 1.75a.5.5 0 0 0 .707.707l.896-.897v17.152a.501.501 0 0 0 -.51.641.5.5 0 0 0 .608.626l.402-.108.402.108a.5.5 0 0 0 .609-.626.501.501 0 0 0 -.511-.64v-17.154l.896.897a.5.5 0 1 0 .707-.707l-1.75-1.75zm-10.85 16.024a.5.5 0 1 0 -.258.966l.53.142a.5.5 0 0 0 .26-.966l-.531-.142zm4.17 1.634a.5.5 0 0 1 .611-.353l1.063.285a.5.5 0 0 1 -.259.965l-1.063-.284a.5.5 0 0 1 -.353-.613zm11.236 2.494a.5.5 0 0 0 -.258.966l1.063.284a.5.5 0 1 0 .259-.965zm4.701 1.777a.5.5 0 0 1 .613-.354l.53.143a.5.5 0 1 1 -.259.966l-.53-.143a.5.5 0 0 1 -.354-.612zm1.497-5.552a.5.5 0 0 0 -.613-.353l-.53.142a.5.5 0 1 0 .259.966l.53-.142a.5.5 0 0 0 .354-.613zm-5.393.928a.5.5 0 0 1 .259.966l-1.064.284a.5.5 0 1 1 -.259-.965zm-10.015 3.2a.5.5 0 0 0 -.612-.353l-1.063.285a.5.5 0 1 0 .26.965l1.062-.284a.5.5 0 0 0 .353-.613zm-5.925 1.07a.5.5 0 1 1 .26.966l-.531.143a.5.5 0 0 1 -.26-.966z" fill="#18303f" fill-rule="evenodd"/></svg>