<svg width="25" height="25" viewBox="0 0 25 25" fill="none"><g id="backyard"><path id="iconSuccess" fill-rule="evenodd" clip-rule="evenodd" d="M12.817 1.363a.501.501 0 0 0-.634 0l-11 9a.5.5 0 0 0 .634.774L5 8.532v6.218h-.003c-.14 0-.274.06-.369.162L3.131 16.55a.501.501 0 0 0-.131.338v5.863h-.5a.5.5 0 0 0 0 1h20a.5.5 0 0 0 0-1H22v-5.863a.499.499 0 0 0-.132-.338l-1.502-1.637a.501.501 0 0 0-.738 0l-1.497 1.637a.501.501 0 0 0-.131.338v5.863h-1v-5.863a.499.499 0 0 0-.132-.338l-1.502-1.637a.501.501 0 0 0-.738 0l-1.497 1.637a.501.501 0 0 0-.131.338v5.863h-1v-5.863a.499.499 0 0 0-.132-.338l-1.502-1.637a.501.501 0 0 0-.738 0L8.131 16.55a.501.501 0 0 0-.131.338v5.863H7v-5.863a.499.499 0 0 0-.132-.338L6 15.603V7.75l-.001-.035L12.5 2.396l6.501 5.32L19 7.75v4.246a.5.5 0 0 0 1 0V8.532l3.183 2.605a.5.5 0 0 0 .634-.774l-11-9ZM21 17.081v5.669h-2v-5.669l.998-1.09L21 17.08Zm-5 0v5.669h-2v-5.669l.998-1.09L16 17.08Zm-5 5.669H9v-5.669l.998-1.09L11 17.08v5.669Zm-5-5.669v5.669H4v-5.669l.998-1.09L6 17.08Zm2.5-4.331v-5h8v5h-8Zm1-4h6v1h-6v-1Zm0 2h6v1h-6v-1Zm10 3.171a.5.5 0 1 0 0-1 .5.5 0 0 0 0 1Z" fill="#038C6A"/></g></svg>