<svg fill="none" height="25" viewBox="0 0 25 25" width="25"><path clip-rule="evenodd" d="m12.817 1.363a.501.501 0 0 0 -.634 0l-11 9a.5.5 0 0 0 .634.774l3.183-2.605v6.218h-.003c-.14 0-.274.06-.369.162l-1.497 1.638a.501.501 0 0 0 -.131.338v5.863h-.5a.5.5 0 0 0 0 1h20a.5.5 0 0 0 0-1h-.5v-5.863a.499.499 0 0 0 -.132-.338l-1.502-1.637a.501.501 0 0 0 -.738 0l-1.497 1.637a.501.501 0 0 0 -.131.338v5.863h-1v-5.863a.499.499 0 0 0 -.132-.338l-1.502-1.637a.501.501 0 0 0 -.738 0l-1.497 1.637a.501.501 0 0 0 -.131.338v5.863h-1v-5.863a.499.499 0 0 0 -.132-.338l-1.502-1.637a.501.501 0 0 0 -.738 0l-1.497 1.637a.501.501 0 0 0 -.131.338v5.863h-1v-5.863a.499.499 0 0 0 -.132-.338l-.868-.947v-7.853l-.001-.035 6.501-5.319 6.501 5.32-.001.034v4.246a.5.5 0 0 0 1 0v-3.464l3.183 2.605a.5.5 0 0 0 .634-.774zm8.183 15.718v5.669h-2v-5.669l.998-1.09 1.002 1.089zm-5 0v5.669h-2v-5.669l.998-1.09 1.002 1.089zm-5 5.669h-2v-5.669l.998-1.09 1.002 1.089v5.669zm-5-5.669v5.669h-2v-5.669l.998-1.09 1.002 1.089zm2.5-4.331v-5h8v5zm1-4h6v1h-6zm0 2h6v1h-6zm10 3.171a.5.5 0 1 0 0-1 .5.5 0 0 0 0 1z" fill="#038c6a" fill-rule="evenodd"/></svg>