<svg width="25" height="25" viewBox="0 0 25 25" fill="none"><path fill-rule="evenodd" clip-rule="evenodd" d="M12.767 6.667c0-1.141.86-2 2-2 1.137 0 1.995.854 2 1.99a.496.496 0 0 0 .373.494l2.85.813 1.792 1.053c-.107.448-.492.95-1.306 1.372-.979.507-2.368.777-3.79.777h-4.083a2.56 2.56 0 0 0-2.42-1.666.5.5 0 0 0 0 1c.89 0 1.583.693 1.583 1.583 0 .883-.68 1.57-1.558 1.583h-.038c-1.394-.004-2.706-.816-3.285-2.046l-.005-.01a3.302 3.302 0 0 1-.294-.897 3.855 3.855 0 0 1 .667-2.917c.794-1.084 2.183-1.61 3.602-1.385a.5.5 0 1 0 .156-.988c-1.748-.276-3.526.365-4.565 1.781a4.862 4.862 0 0 0-.908 3.17c-1.847.273-3.354 1.86-3.354 3.793A3.843 3.843 0 0 0 6.018 18h7.5c.64 0 1.167.526 1.167 1.167 0 .64-.527 1.166-1.167 1.166h-5a.5.5 0 0 0 0 1h5a2.172 2.172 0 0 0 2.167-2.166A2.172 2.172 0 0 0 13.518 17h-7.5a2.843 2.843 0 0 1-2.833-2.833c0-1.413 1.128-2.616 2.528-2.807.07.238.16.47.271.692.754 1.596 2.434 2.615 4.2 2.615h2.917a.5.5 0 0 0 0-1h-.865c.318-.415.513-.933.53-1.5h2.42l.258 1.422.002.009c.133.668.686 1.068 1.323 1.068h.5a.5.5 0 0 0 0-1h-.5c-.195 0-.308-.097-.342-.26l-.225-1.24h.501c1.52-.002 3.072-.288 4.233-.89 1.16-.6 1.872-1.497 1.878-2.513a.506.506 0 0 0-.248-.446l-.005-.003-2.123-1.246a.497.497 0 0 0-.144-.056l-2.55-.73c-.18-1.502-1.415-2.615-2.977-2.615-1.693 0-3 1.307-3 3 0 .829.41 1.616.98 2.186a.501.501 0 0 0 .707-.707c-.43-.43-.687-.975-.687-1.48Zm4.168 1.094c.25 0 .5.25.5.5s-.25.5-.5.5-.5-.25-.5-.5.25-.5.5-.5Z" fill="#18303F" yggColor="basement"/></svg>