<svg width="25" height="25" viewBox="0 0 25 25" fill="none"><g id="bathroom"><path d="M20.084 1c-.91-.001-1.888.422-2.658 1.287-.46-.322-.946-.46-1.504-.367-.656.11-1.338.537-2.121 1.105a.598.598 0 0 0-.072.909l2.835 2.836a.599.599 0 0 0 .907-.069c.519-.704.965-1.332 1.093-1.972.122-.606-.04-1.154-.435-1.727.692-.808 1.55-1.075 2.203-.984.363.05.66.207.861.439.198.229.328.561.307 1.018v10.523h-7.05a2.5 2.5 0 0 0-2.45-2H9c-1.21 0-2.22.859-2.451 2h-4.51a.534.534 0 0 0-.523.633c2.29 12.182 19.87 12.276 21.97-.01a.533.533 0 0 0-.525-.623H22.5V3.51c.03-.68-.171-1.266-.55-1.705-.38-.439-.91-.698-1.481-.778A2.831 2.831 0 0 0 20.084 1Zm-3.762 1.893c.237.018.485.139.809.445.452.562.515.893.455 1.193-.063.313-.268.666-.646 1.2L14.77 3.562c.586-.4.99-.602 1.317-.657a.955.955 0 0 1 .234-.013Zm-4.234 1.142a.5.5 0 1 0 .025 0h-.025Zm1.86 2.057a.5.5 0 1 0 .025 0h-.026Zm-2.335.517a.5.5 0 1 0 0 1 .5.5 0 0 0 0-1Zm4.405 1.06a.5.5 0 1 0 .025 0h-.025Zm-2.258 1a.5.5 0 1 0 .025 0h-.025ZM9 13h3a1.5 1.5 0 0 1 1.5 1.5v2.5a1.5 1.5 0 0 1-1.5 1.5H9a1.5 1.5 0 0 1-1.5-1.5v-2.5a1.5 1.5 0 0 1 1.5-1.5Zm-6.385 2H6.5v2a2.5 2.5 0 0 0 2.5 2.5h3a2.5 2.5 0 0 0 2.5-2.5v-2h7.895c-2.284 10.389-17.308 10.416-19.78 0Z" fill="#18303F" yggColor="iconDefault"/></g></svg>