<svg width="25" height="25" viewBox="0 0 25 25" fill="none"><g id="bathroom"><g id="backgroundHighlightDefault" fill="#18303F"><path fill-rule="evenodd" clip-rule="evenodd" d="M22.5 14.098V3.609c.029-.68-.171-1.266-.55-1.705-.38-.439-.909-.698-1.48-.778-1.011-.14-2.164.273-3.045 1.261-.459-.322-.944-.462-1.502-.368-.656.11-1.338.537-2.122 1.105a.6.6 0 0 0-.072.91l2.835 2.835a.6.6 0 0 0 .908-.068c.518-.705.964-1.332 1.093-1.972.122-.605-.042-1.154-.437-1.727.692-.808 1.55-1.076 2.204-.985.363.05.66.208.86.44.198.229.33.561.308 1.018v10.523h-7.05a2.5 2.5 0 0 0-2.45-2H9a2.5 2.5 0 0 0-2.45 2H2.04a.533.533 0 0 0-.524.631c2.29 12.182 19.87 12.278 21.97-.008a.533.533 0 0 0-.525-.623H22.5ZM16.088 3.005c.313-.052.612.025 1.043.433.453.562.514.894.454 1.194-.063.312-.267.665-.645 1.199l-2.168-2.168c.585-.4.989-.603 1.316-.658ZM14.5 15.098h7.894c-2.284 10.39-17.306 10.417-19.778 0H6.5v2a2.5 2.5 0 0 0 2.5 2.5h3a2.5 2.5 0 0 0 2.5-2.5v-2Zm-5.5 3.5a1.5 1.5 0 0 1-1.5-1.5v-2.5a1.5 1.5 0 0 1 1.5-1.5h3a1.5 1.5 0 0 1 1.5 1.5v2.5a1.5 1.5 0 0 1-1.5 1.5H9Z"/><path d="M12.613 4.634a.5.5 0 1 1-1 0 .5.5 0 0 1 1 0ZM14.472 6.69a.5.5 0 1 1-1 0 .5.5 0 0 1 1 0ZM16.543 8.27a.5.5 0 1 1-1 0 .5.5 0 0 1 1 0ZM13.785 9.77a.5.5 0 1 0 0-1 .5.5 0 0 0 0 1ZM12.113 7.21a.5.5 0 1 1-1 0 .5.5 0 0 1 1 0Z"/></g></g></svg>