<svg fill="none" height="25" viewBox="0 0 25 25" width="25"><g fill="#18303f"><path clip-rule="evenodd" d="m22.5 14.098v-10.489c.029-.68-.171-1.266-.55-1.705-.38-.439-.909-.698-1.48-.778-1.011-.14-2.164.273-3.045 1.261-.459-.322-.944-.462-1.502-.368-.656.11-1.338.537-2.122 1.105a.6.6 0 0 0 -.072.91l2.835 2.835a.6.6 0 0 0 .908-.068c.518-.705.964-1.332 1.093-1.972.122-.605-.042-1.154-.437-1.727.692-.808 1.55-1.076 2.204-.985.363.05.66.208.86.44.198.229.33.561.308 1.018v10.523h-7.05a2.5 2.5 0 0 0 -2.45-2h-3a2.5 2.5 0 0 0 -2.45 2h-4.51a.533.533 0 0 0 -.524.631c2.29 12.182 19.87 12.278 21.97-.008a.533.533 0 0 0 -.525-.623zm-6.412-11.093c.313-.052.612.025 1.043.433.453.562.514.894.454 1.194-.063.312-.267.665-.645 1.199l-2.168-2.168c.585-.4.989-.603 1.316-.658zm-1.588 12.093h7.894c-2.284 10.39-17.306 10.417-19.778 0h3.884v2a2.5 2.5 0 0 0 2.5 2.5h3a2.5 2.5 0 0 0 2.5-2.5zm-5.5 3.5a1.5 1.5 0 0 1 -1.5-1.5v-2.5a1.5 1.5 0 0 1 1.5-1.5h3a1.5 1.5 0 0 1 1.5 1.5v2.5a1.5 1.5 0 0 1 -1.5 1.5z" fill-rule="evenodd"/><path d="m12.613 4.634a.5.5 0 1 1 -1 0 .5.5 0 0 1 1 0zm1.859 2.056a.5.5 0 1 1 -1 0 .5.5 0 0 1 1 0zm2.071 1.58a.5.5 0 1 1 -1 0 .5.5 0 0 1 1 0zm-2.758 1.5a.5.5 0 1 0 0-1 .5.5 0 0 0 0 1zm-1.672-2.56a.5.5 0 1 1 -1 0 .5.5 0 0 1 1 0z"/></g></svg>