<svg width="25" height="25" viewBox="0 0 25 25" fill="none"><g id="battery"><path fill-rule="evenodd" clip-rule="evenodd" d="M5.781 6.41a3 3 0 0 1 3-3 .101.101 0 0 0 .101-.1V2.28a2 2 0 0 1 2-2h3.237a2 2 0 0 1 2 2v1.029c0 .056.046.101.102.101a3 3 0 0 1 3 3v14.87a3 3 0 0 1-3 3h-7.44a3 3 0 0 1-3-3V6.41Zm3-2a2 2 0 0 0-2 2v14.87a2 2 0 0 0 2 2h7.44a2 2 0 0 0 2-2V6.41a2 2 0 0 0-2-2A1.102 1.102 0 0 1 15.12 3.31v-1.03a1 1 0 0 0-1-1h-3.236a1 1 0 0 0-1 1v1.03c0 .608-.494 1.101-1.102 1.101Zm4.967 4.714a.5.5 0 0 0-.896-.399l-3.568 5.003a.498.498 0 0 0-.092.309v.019a.5.5 0 0 0 .5.5h2.225l-.585 2.631a.5.5 0 0 0 .895.4l3.6-5.04a.5.5 0 0 0-.407-.792h-2.256l.584-2.631Zm-3.113 4.431 1.604-2.248-.187.84a.5.5 0 0 0 .488.608h1.909l-1.608 2.25.187-.841a.5.5 0 0 0-.5-.608h-1.893Z" fill="#18303F" yggColor="iconDefault"/></g></svg>