<svg width="25" height="25" viewBox="0 0 25 25" fill="none"><g id="battery_0_percent_colorful"><path d="M19.221 21.283v-.22H5.781v.217a3 3 0 0 0 3 3h7.44a3 3 0 0 0 3-2.997Z" fill="#F28102" yggColor="iconWarning"/><path fill-rule="evenodd" clip-rule="evenodd" d="M5.781 6.41a3 3 0 0 1 3-3 .101.101 0 0 0 .101-.1V2.28a2 2 0 0 1 2-2h3.237a2 2 0 0 1 2 2v1.029c0 .056.046.102.102.102a3 3 0 0 1 3 3v14.87a3 3 0 0 1-3 3h-7.44a3 3 0 0 1-3-3V6.41Zm3-2a2 2 0 0 0-2 2v14.87a2 2 0 0 0 2 2h7.44a2 2 0 0 0 2-2V6.41a2 2 0 0 0-2-2A1.102 1.102 0 0 1 15.12 3.31v-1.03a1 1 0 0 0-1-1h-3.236a1 1 0 0 0-1 1v1.03c0 .608-.494 1.102-1.102 1.102Zm4.588 4.117a.5.5 0 0 1 .38.597l-.585 2.632h2.256a.5.5 0 0 1 .407.79l-3.6 5.04a.5.5 0 0 1-.895-.399l.585-2.631H9.691a.5.5 0 0 1-.5-.519.498.498 0 0 1 .093-.31l3.568-5.002a.499.499 0 0 1 .517-.198Zm-2.734 5.029h1.893a.5.5 0 0 1 .5.608l-.187.842 1.608-2.25H12.54a.5.5 0 0 1-.488-.609l.187-.84-1.604 2.249Z" fill="#18303F" yggColor="iconDefault"/></g></svg>