<svg fill="none" height="25" viewBox="0 0 25 25" width="25"><path d="m9 3.131a3 3 0 0 0 -3 3v14.87a3 3 0 0 0 3 3h7.44a3 3 0 0 0 3-3v-14.871a3 3 0 0 0 -3-3 .102.102 0 0 1 -.102-.102v-1.028a2 2 0 0 0 -2-2h-3.237a2 2 0 0 0 -2 2v1.03a.101.101 0 0 1 -.101.101z" fill="#9ca8ad"/><path clip-rule="evenodd" d="m6 6.131a3 3 0 0 1 3-3 .101.101 0 0 0 .101-.101v-1.03a2 2 0 0 1 2-2h3.237a2 2 0 0 1 2 2v1.03c0 .056.046.101.102.101a3 3 0 0 1 3 3v14.87a3 3 0 0 1 -3 3h-7.44a3 3 0 0 1 -3-3v-14.871zm3-2a2 2 0 0 0 -2 2v14.87a2 2 0 0 0 2 2h7.44a2 2 0 0 0 2-2v-14.871a2 2 0 0 0 -2-2 1.102 1.102 0 0 1 -1.102-1.102v-1.028a1 1 0 0 0 -1-1h-3.237a1 1 0 0 0 -1 1v1.03c0 .608-.493 1.101-1.101 1.101zm4.588 4.117a.5.5 0 0 1 .38.597l-.585 2.631h2.256a.5.5 0 0 1 .407.79l-3.6 5.04a.5.5 0 0 1 -.895-.398l.585-2.632h-2.226a.5.5 0 0 1 -.5-.518.498.498 0 0 1 .093-.31l3.567-5.002a.5.5 0 0 1 .518-.198zm-2.734 5.028h1.893a.5.5 0 0 1 .5.609l-.187.842 1.608-2.25h-1.909a.5.5 0 0 1 -.488-.61l.187-.84-1.604 2.25z" fill="#6d7b82" fill-rule="evenodd"/></svg>