<svg fill="none" height="25" viewBox="0 0 25 25" width="25"><path d="m8.781 3.41a3 3 0 0 0 -3 3v14.87a3 3 0 0 0 3 3h7.44a3 3 0 0 0 3-3v-14.87a3 3 0 0 0 -3-3 .102.102 0 0 1 -.102-.101v-1.03a2 2 0 0 0 -2-2h-3.236a2 2 0 0 0 -2 2v1.03a.101.101 0 0 1 -.102.102z" fill="#038c6a"/><path clip-rule="evenodd" d="m5.781 6.41a3 3 0 0 1 3-3 .101.101 0 0 0 .101-.1v-1.03a2 2 0 0 1 2-2h3.237a2 2 0 0 1 2 2v1.029c0 .056.046.102.102.102a3 3 0 0 1 3 3v14.87a3 3 0 0 1 -3 3h-7.44a3 3 0 0 1 -3-3zm3-2a2 2 0 0 0 -2 2v14.87a2 2 0 0 0 2 2h7.44a2 2 0 0 0 2-2v-14.87a2 2 0 0 0 -2-2 1.102 1.102 0 0 1 -1.101-1.1v-1.03a1 1 0 0 0 -1-1h-3.236a1 1 0 0 0 -1 1v1.03c0 .608-.494 1.102-1.102 1.102zm4.588 4.117a.5.5 0 0 1 .38.597l-.585 2.632h2.256a.5.5 0 0 1 .407.79l-3.6 5.04a.5.5 0 0 1 -.895-.399l.585-2.631h-2.226a.5.5 0 0 1 -.5-.519.498.498 0 0 1 .093-.31l3.568-5.002a.499.499 0 0 1 .517-.198zm-2.734 5.029h1.893a.5.5 0 0 1 .5.608l-.187.842 1.608-2.25h-1.909a.5.5 0 0 1 -.488-.609l.187-.84z" fill="#18303f" fill-rule="evenodd"/></svg>