<svg width="25" height="25" viewBox="0 0 25 25" fill="none"><g id="bedroom"><path d="M3.918 4c-.738 0-1.444.296-1.965.822a2.813 2.813 0 0 0-.812 1.979v4.166c-.247.08-.474.218-.66.406a1.666 1.666 0 0 0-.48 1.16v5.778a1.664 1.664 0 0 0 1.001 1.544c.2.087.415.132.633.133h20.52a1.633 1.633 0 0 0 1.165-.5 1.662 1.662 0 0 0 .47-1.177V12.533a1.666 1.666 0 0 0-.481-1.16 1.643 1.643 0 0 0-.659-.404V6.8a2.81 2.81 0 0 0-.81-1.979A2.768 2.768 0 0 0 19.873 4H3.918Zm0 1h15.955c.47 0 .922.188 1.256.525.334.338.521.797.521 1.276v1.967a3.902 3.902 0 0 0-2.89-1.316h-3.418a3.892 3.892 0 0 0-2.781 1.142c-.263.262-.487.56-.666.885a3.914 3.914 0 0 0-1.943-1.736 3.892 3.892 0 0 0-1.505-.292H5.03a3.902 3.902 0 0 0-2.888 1.313V6.8c0-.48.19-.938.523-1.276A1.763 1.763 0 0 1 3.918 5Zm1.115 3.451h3.42a2.886 2.886 0 0 1 2.069.852 2.945 2.945 0 0 1 .824 1.584H2.184c.103-.592.384-1.14.808-1.57a2.9 2.9 0 0 1 2.041-.866Zm10.303 0h3.42a2.9 2.9 0 0 1 2.041.865c.424.43.705.98.809 1.57h-9.163a2.947 2.947 0 0 1 1.775-2.219c.356-.145.735-.219 1.118-.216ZM1.641 11.887h20.508a.64.64 0 0 1 .449.191c.12.122.19.287.191.461v4.107H1V12.541a.665.665 0 0 1 .192-.463.64.64 0 0 1 .449-.191ZM1 17.647h21.788v.673a.672.672 0 0 1-.187.473.645.645 0 0 1-.453.195H1.64a.632.632 0 0 1-.455-.195A.659.659 0 0 1 1 18.32v-.674Zm1.368 2.775a.5.5 0 1 0 .026 0h-.026Zm19 0a.501.501 0 1 0 .026 0h-.026Z" fill="#18303F" yggColor="iconDefault"/></g></svg>