<svg fill="none" height="25" viewBox="0 0 25 25" width="25"><path clip-rule="evenodd" d="m10.314 4.884c.5-.5 1.177-.78 1.883-.78h9.068a2.663 2.663 0 0 1 2.663 2.663v3.917a1.58 1.58 0 0 1 1.054 1.488v5.404a1.586 1.586 0 0 1 -1.536 1.584h-13.413a1.592 1.592 0 0 1 -1.581-1.581v-5.407h.5l-.5-.003a1.585 1.585 0 0 1 1.082-1.493v-3.909c0-.706.28-1.384.78-1.883zm13.668 11.114h-14.53v-3.824a.585.585 0 0 1 .565-.58h13.387a.579.579 0 0 1 .578.578v3.825zm-14.53 1v.576a.592.592 0 0 0 .586.587h13.384a.585.585 0 0 0 .56-.585v-.577h-14.53zm2.745-11.894a1.663 1.663 0 0 0 -1.663 1.663v3.16c.589-1.54 2.313-2.582 4.216-2.582h3.931c1.934 0 3.681 1.07 4.247 2.646v-3.224a1.663 1.663 0 0 0 -1.663-1.663zm2.553 3.241c-1.753 0-3.083 1.023-3.373 2.248h10.683c-.289-1.224-1.62-2.248-3.379-2.248zm-11.19 9.128a.5.5 0 1 0 0-1 .5.5 0 0 0 0 1zm3.545 2.554v-4.192a1.263 1.263 0 0 0 -1.009-1.237 2.086 2.086 0 0 0 -.093-1.424 2.077 2.077 0 0 0 -.288-.47h.334a1.024 1.024 0 0 0 .995-1.299l-.52-2.087-.002-.006a1.029 1.029 0 0 0 -.99-.769h-2.854l-.987.774-.53 2.095v.004a1.028 1.028 0 0 0 .186.875 1.01 1.01 0 0 0 .802.413h.35a2.074 2.074 0 0 0 -.389 1.868h-.84a1.264 1.264 0 0 0 -1.252 1.263v4.185a.874.874 0 0 0 .885.875h5.354c.015 0 .03 0 .044-.002a.882.882 0 0 0 .805-.866zm-6.088-1.652v-2.54a.263.263 0 0 1 .26-.263h4.564a.263.263 0 0 1 .264.263v2.54h-5.087zm0 1h5.088v.52h-5.087v-.52zm1.663-9.832a.023.023 0 0 0 -.013.005.024.024 0 0 0 -.008.013l-.528 2.093a.03.03 0 0 0 .006.024.413.413 0 0 1 .017.023l.003.002.003.002h3.9a.023.023 0 0 0 .018-.01.022.022 0 0 0 .004-.009v-.01a.463.463 0 0 1 -.006-.02l-.521-2.092a.029.029 0 0 0 -.027-.02h-2.848zm.84 3.57a1.074 1.074 0 0 1 1.504 1.459h-1.834a1.073 1.073 0 0 1 .332-1.458zm7.966 7.283a.5.5 0 1 1 -1 0 .5.5 0 0 1 1 0zm11.488 0a.5.5 0 1 1 -1 0 .5.5 0 0 1 1 0z" fill="#18303f" fill-rule="evenodd"/></svg>