<svg width="25" height="25" viewBox="0 0 25 25" fill="none"><g yggColor="bedroom"><g yggColor="backgroundWarningDefault" fill="#F28102"><path fill-rule="evenodd" clip-rule="evenodd" d="M23.914 11.163a1.641 1.641 0 0 0-.657-.406V6.59c0-.741-.292-1.453-.812-1.979a2.767 2.767 0 0 0-1.966-.822H4.524c-.738 0-1.445.296-1.966.822a2.813 2.813 0 0 0-.812 1.979v4.166c-.247.08-.474.219-.66.407a1.665 1.665 0 0 0-.48 1.16v5.776a1.668 1.668 0 0 0 .468 1.179 1.646 1.646 0 0 0 1.167.5H22.76a1.636 1.636 0 0 0 1.167-.5 1.661 1.661 0 0 0 .468-1.179V12.323a1.665 1.665 0 0 0-.48-1.16ZM3.269 5.315a1.767 1.767 0 0 1 1.255-.526H20.48c.47 0 .921.189 1.255.526.334.337.523.796.523 1.275v1.966a3.9 3.9 0 0 0-2.891-1.316h-3.42a3.888 3.888 0 0 0-2.78 1.143 3.95 3.95 0 0 0-.666.884 3.952 3.952 0 0 0-1.944-1.735 3.888 3.888 0 0 0-1.503-.292H5.634a3.9 3.9 0 0 0-2.888 1.313V6.59c0-.48.189-.938.523-1.275Zm18.133 3.79c.424.43.704.98.808 1.57H13.05a2.975 2.975 0 0 1 .823-1.584 2.889 2.889 0 0 1 2.07-.851h3.418a2.9 2.9 0 0 1 2.042.865Zm1.351 2.57c.169.002.33.07.45.191.12.122.19.288.191.462v4.108H1.606V12.33a.665.665 0 0 1 .19-.464.641.641 0 0 1 .45-.19h20.507Zm-10.802-1H2.789c.104-.59.385-1.14.81-1.57a2.9 2.9 0 0 1 2.04-.865h3.42a2.889 2.889 0 0 1 2.069.851 2.948 2.948 0 0 1 .823 1.585ZM1.606 18.103v-.666h21.788v.674a.668.668 0 0 1-.186.472.647.647 0 0 1-.455.195H2.247a.637.637 0 0 1-.455-.195.661.661 0 0 1-.186-.473v-.007Z"/><path d="M3.5 20.71a.5.5 0 1 1-1 .001.5.5 0 0 1 1 0ZM22 21.21a.5.5 0 1 0 0-1 .5.5 0 0 0 0 1Z"/></g></g></svg>