<svg fill="none" height="25" viewBox="0 0 25 25" width="25"><path d="m3.918 4c-.738 0-1.444.296-1.965.822a2.813 2.813 0 0 0 -.812 1.979v4.166c-.247.08-.474.218-.66.406a1.666 1.666 0 0 0 -.48 1.16v5.778a1.664 1.664 0 0 0 1.001 1.544c.2.087.415.132.633.133h20.52a1.633 1.633 0 0 0 1.165-.5 1.662 1.662 0 0 0 .47-1.177v-5.778a1.666 1.666 0 0 0 -.481-1.16 1.643 1.643 0 0 0 -.659-.404v-4.169a2.81 2.81 0 0 0 -.81-1.979 2.768 2.768 0 0 0 -1.967-.821zm0 1h15.955c.47 0 .922.188 1.256.525.334.338.521.797.521 1.276v1.967a3.902 3.902 0 0 0 -2.89-1.316h-3.418a3.892 3.892 0 0 0 -2.781 1.142c-.263.262-.487.56-.666.885a3.914 3.914 0 0 0 -1.943-1.736 3.892 3.892 0 0 0 -1.505-.292h-3.417a3.902 3.902 0 0 0 -2.888 1.313v-1.964c0-.48.19-.938.523-1.276a1.763 1.763 0 0 1 1.253-.524zm1.115 3.451h3.42a2.886 2.886 0 0 1 2.069.852 2.945 2.945 0 0 1 .824 1.584h-9.162c.103-.592.384-1.14.808-1.57a2.9 2.9 0 0 1 2.041-.866zm10.303 0h3.42a2.9 2.9 0 0 1 2.041.865c.424.43.705.98.809 1.57h-9.163a2.947 2.947 0 0 1 1.775-2.219c.356-.145.735-.219 1.118-.216zm-13.695 3.436h20.508a.64.64 0 0 1 .449.191c.12.122.19.287.191.461v4.107h-21.789v-4.105a.665.665 0 0 1 .192-.463.64.64 0 0 1 .449-.191zm-.641 5.76h21.788v.673a.672.672 0 0 1 -.187.473.645.645 0 0 1 -.453.195h-20.508a.632.632 0 0 1 -.455-.195.659.659 0 0 1 -.185-.473v-.674zm1.368 2.775a.5.5 0 1 0 .026 0zm19 0a.501.501 0 1 0 .026 0z" fill="#18303f"/></svg>