<svg fill="none" height="25" viewBox="0 0 25 25" width="25"><g fill="#18303f"><path clip-rule="evenodd" d="m23.914 11.163a1.641 1.641 0 0 0 -.657-.406v-4.167c0-.741-.292-1.453-.812-1.979a2.767 2.767 0 0 0 -1.966-.822h-15.955c-.738 0-1.445.296-1.966.822a2.813 2.813 0 0 0 -.812 1.979v4.166a1.64 1.64 0 0 0 -.66.407 1.665 1.665 0 0 0 -.48 1.16v5.776a1.668 1.668 0 0 0 .468 1.179 1.646 1.646 0 0 0 1.167.5h20.519a1.636 1.636 0 0 0 1.167-.5 1.661 1.661 0 0 0 .468-1.179v-5.776a1.665 1.665 0 0 0 -.48-1.16zm-20.645-5.848a1.767 1.767 0 0 1 1.255-.526h15.956c.47 0 .921.189 1.255.526s.523.796.523 1.275v1.966a3.9 3.9 0 0 0 -2.891-1.316h-3.42a3.888 3.888 0 0 0 -2.78 1.143 3.95 3.95 0 0 0 -.666.884 3.952 3.952 0 0 0 -1.944-1.735 3.888 3.888 0 0 0 -1.503-.292h-3.42a3.9 3.9 0 0 0 -2.888 1.313v-1.963c0-.48.189-.938.523-1.275zm18.133 3.79c.424.43.704.98.808 1.57h-9.16a2.975 2.975 0 0 1 .823-1.584 2.889 2.889 0 0 1 2.07-.851h3.418a2.9 2.9 0 0 1 2.042.865zm1.351 2.57c.169.002.33.07.45.191.12.122.19.288.191.462v4.108h-21.788v-4.106a.665.665 0 0 1 .19-.464.641.641 0 0 1 .45-.19h20.507zm-10.802-1h-9.162c.104-.59.385-1.14.81-1.57a2.9 2.9 0 0 1 2.04-.865h3.42a2.889 2.889 0 0 1 2.069.851 2.948 2.948 0 0 1 .823 1.585zm-10.345 7.428v-.666h21.788v.674a.668.668 0 0 1 -.186.472.647.647 0 0 1 -.455.195h-20.506a.637.637 0 0 1 -.455-.195.661.661 0 0 1 -.186-.473z" fill-rule="evenodd"/><path d="m3.5 20.71a.5.5 0 1 1 -1 .001.5.5 0 0 1 1 0zm18.5.5a.5.5 0 1 0 0-1 .5.5 0 0 0 0 1z"/></g></svg>