<svg fill="none" height="25" viewBox="0 0 25 25" width="25"><path clip-rule="evenodd" d="m18.528.815a.5.5 0 0 1 .707 0c.601.601.843 1.36.921 2.066a.509.509 0 0 1 .003.055c0 .863-.353 1.55-.924 2.122l-.077.077c.263.205.503.439.716.697l.068-.067a2.976 2.976 0 0 1 4.243 0 .5.5 0 0 1 -.707.707 1.976 1.976 0 0 0 -2.829 0l-.215.215c.301.592.48 1.258.503 1.96v.017c0 2.352-1.909 4.292-4.28 4.451-.287 1.197-.959 2.439-1.953 3.53a.586.586 0 0 1 -.114.122c-.065.07-.13.138-.199.205-1.227 1.228-2.692 2.024-4.082 2.302-1.208.242-2.408.097-3.315-.562l-1.548 1.548a.5.5 0 0 1 -.707-.707l1.548-1.548c-.659-.906-.803-2.107-.562-3.314.278-1.39 1.075-2.855 2.302-4.083.068-.067.136-.133.205-.198a.525.525 0 0 1 .123-.114c1.133-1.032 2.428-1.717 3.667-1.984.124-2.312 2.11-4.18 4.463-4.108a4.298 4.298 0 0 1 1.794.395l.25-.249c.411-.412.623-.848.63-1.387-.066-.556-.249-1.059-.63-1.441a.5.5 0 0 1 0-.707zm-5.493 7.373a4.32 4.32 0 0 1 1.038.093.5.5 0 0 1 -.212.977c-1.235-.268-2.95.216-4.496 1.486l4.891 4.89c1.27-1.545 1.754-3.26 1.485-4.495a.5.5 0 0 1 .977-.213c.081.372.11.765.09 1.17 1.768-.224 3.125-1.702 3.13-3.424-.068-1.934-1.627-3.468-3.46-3.468h-.017c-1.748-.057-3.24 1.29-3.426 2.984zm.542 8.182-4.947-4.948a8.07 8.07 0 0 0 -1.214 1.615l4.548 4.547a8.066 8.066 0 0 0 1.614-1.214zm-2.576 1.667-4.038-4.038c-.113.3-.199.598-.257.888-.195.972-.073 1.818.325 2.433a.5.5 0 0 1 .648.649c.616.398 1.461.52 2.433.325a5.68 5.68 0 0 0 .89-.257zm-.883-10.544a.501.501 0 0 0 .414-.91c-1.198-.545-2.75-1.067-4.343-1.124-1.605-.056-3.273.361-4.632 1.72a2.976 2.976 0 0 0 0 4.242 2.976 2.976 0 0 0 4.243 0 .5.5 0 0 0 -.707-.707 1.977 1.977 0 0 1 -2.829 0 1.977 1.977 0 0 1 0-2.828c1.116-1.116 2.49-1.477 3.89-1.427 1.412.05 2.83.518 3.964 1.034zm8.3 6.974a.5.5 0 1 0 -.91.414c.515 1.135.983 2.553 1.033 3.965.05 1.4-.31 2.773-1.427 3.89a1.976 1.976 0 0 1 -2.829 0 1.977 1.977 0 0 1 0-2.83.5.5 0 0 0 -.707-.706 2.976 2.976 0 0 0 0 4.242 2.976 2.976 0 0 0 4.243 0c1.358-1.358 1.776-3.027 1.72-4.631-.057-1.593-.579-3.146-1.124-4.344z" fill="#18303f" fill-rule="evenodd"/></svg>