<svg width="25" height="25" viewBox="0 0 25 25" fill="none"><g yggColor="bell"><path yggColor="iconDefault" d="M21.491 17.28c-.552-.952-1.374-3.635-1.374-7.124a7.617 7.617 0 0 0-15.234 0c0 3.49-.822 6.172-1.375 7.123a1.367 1.367 0 0 0 1.18 2.057h4.148a3.71 3.71 0 0 0 7.324 0h4.152a1.367 1.367 0 0 0 1.18-2.057ZM12.5 21.29a2.54 2.54 0 0 1-2.47-1.954h4.94a2.54 2.54 0 0 1-2.47 1.953Zm7.98-3.224a.185.185 0 0 1-.166.098H4.688a.186.186 0 0 1-.166-.098.195.195 0 0 1 0-.195c.739-1.27 1.533-4.23 1.533-7.715a6.445 6.445 0 0 1 12.89 0c0 3.485.795 6.44 1.535 7.715a.195.195 0 0 1 0 .195Z" fill="#18303F"/></g></svg>