<svg width="25" height="25" viewBox="0 0 25 25" fill="none"><path d="M21.17 17.74c-.553-.95-1.374-3.634-1.374-7.123a7.617 7.617 0 1 0-15.234 0c0 3.49-.823 6.172-1.375 7.123a1.368 1.368 0 0 0 1.18 2.057h4.148a3.711 3.711 0 0 0 7.324 0h4.152a1.368 1.368 0 0 0 1.179-2.057Zm-8.991 4.01a2.54 2.54 0 0 1-2.47-1.953h4.94a2.54 2.54 0 0 1-2.47 1.953Zm7.98-3.223a.185.185 0 0 1-.167.098H4.366a.185.185 0 0 1-.166-.098.195.195 0 0 1 0-.195c.74-1.27 1.533-4.23 1.533-7.715a6.445 6.445 0 1 1 12.891 0c0 3.485.795 6.44 1.534 7.715a.196.196 0 0 1 0 .195Z" fill="#18303F" yggColor="bell"/></svg>