<svg width="25" height="25" viewBox="0 0 25 25" fill="none"><g id="birdcage"><path id="iconDefault" fill-rule="evenodd" clip-rule="evenodd" d="M12.962.319c-.746 0-1.381.634-1.381 1.381 0 .134.019.267.056.393-5.421.608-9.618 4.904-9.618 10.232v9.511a1.014 1.014 0 0 0-.554.28 1.04 1.04 0 0 0-.296.747v1.024c0 .274.093.544.296.747.203.203.473.296.747.296h21.501c.274 0 .544-.093.747-.296.202-.203.296-.473.296-.747v-1.024c0-.274-.094-.544-.296-.747a1.014 1.014 0 0 0-.554-.28v-9.51c0-5.33-4.2-9.627-9.622-10.234.039-.125.06-.256.06-.392 0-.747-.635-1.381-1.382-1.381ZM6.289 21.82H3.08v-9.495c0-2.702 1.22-5.132 3.188-6.822v16.172c0 .05.007.099.02.145Zm1.042-.145V4.71a10.296 10.296 0 0 1 5.1-1.615v5.938a2.992 2.992 0 0 0-.488-.04c-1.318 0-2.388.842-2.72 2.034l-.347-.348a.532.532 0 0 0-.752.752l.39.389-.39.39a.532.532 0 0 0 .752.75l.316-.315a4.3 4.3 0 0 0 3.239 3.41v.647h-2.028a.53.53 0 1 0 0 1.062h2.028v4.057h-5.12a.533.533 0 0 0 .02-.145Zm6.163-12.237V3.094c1.899.092 3.644.675 5.1 1.615v16.966c0 .05.007.099.02.145h-5.12v-4.057h2.028a.53.53 0 1 0 0-1.062h-1.518v-.557c2.178-.256 3.825-2.07 3.825-4.325a.531.531 0 0 0-.531-.531h-2.576a2.767 2.767 0 0 0-1.228-1.85Zm-.532 13.444H23.694v.986H2.23v-.985h10.73Zm3.764-10.532c-.246 1.58-1.575 2.753-3.232 2.763v-4.161c.136.253.212.547.212.867 0 .293.238.531.532.531h2.488Zm-4.783-2.295c.17 0 .334.022.488.063v4.833c-1.322-.426-2.252-1.649-2.252-3.132 0-1.007.756-1.764 1.764-1.764Zm7.713 11.62V5.503c1.968 1.69 3.188 4.12 3.188 6.822v9.495h-3.208a.533.533 0 0 0 .02-.145ZM13.28 1.7c0 .16-.16.319-.32.319a.304.304 0 0 1-.317-.319c0-.16.159-.319.318-.319.16 0 .319.16.319.32Zm-1.594 10.374a.637.637 0 1 0 .001-1.275.637.637 0 0 0 0 1.275Z" fill="#18303F"/></g></svg>