<svg fill="none" height="25" viewBox="0 0 25 25" width="25"><path clip-rule="evenodd" d="m11.242 1.594c-1.067 0-1.966.75-2.194 1.75h-1.308a.937.937 0 0 0 -.67.267.927.927 0 0 0 -.266.608h-3.001c-.376 0-.729.128-.988.388-.26.26-.387.611-.387.988v15.752c0 .377.127.729.387.988.26.26.612.387.988.387h7.439a.5.5 0 0 0 0-1h-7.44c-.148 0-.233-.047-.28-.094s-.094-.132-.094-.28v-15.754c0-.15.047-.235.094-.281.047-.047.132-.095.28-.095h3.002v.813c0 .245.083.488.266.671a.937.937 0 0 0 .671.267h7.001a.937.937 0 0 0 .671-.267.937.937 0 0 0 .267-.67v-.814h3c.15 0 .235.048.281.095.047.046.095.132.095.28v5.543a.5.5 0 1 0 1 0v-5.541c0-.377-.128-.729-.387-.988a1.374 1.374 0 0 0 -.989-.388h-3.002a.926.926 0 0 0 -.265-.608.937.937 0 0 0 -.67-.267h-1.307a2.257 2.257 0 0 0 -2.194-1.75zm3.438 3.125v-.374h-1.688a.5.5 0 0 1 -.5-.5c0-.687-.564-1.251-1.25-1.251-.687 0-1.25.564-1.25 1.25a.5.5 0 0 1 -.5.5h-1.689v1.626h6.876v-1.251zm.823 15.146-.008-.009-2.045-2.044a.5.5 0 1 1 .708-.707l1.709 1.71 3.35-3.351a.5.5 0 1 1 .707.707l-3.693 3.693-.01.01a.5.5 0 0 1 -.718-.009zm1.185-8.227a5.884 5.884 0 1 0 0 11.768 5.884 5.884 0 0 0 0-11.768zm-4.884 5.884a4.884 4.884 0 1 1 9.768 0 4.884 4.884 0 0 1 -9.768 0z" fill="#18303f" fill-rule="evenodd"/></svg>