<svg width="15" height="15" viewBox="0 0 15 15" fill="none" xmlns="http://www.w3.org/2000/svg">
<path fill-rule="evenodd" clip-rule="evenodd" d="M6.83232 1.03959C6.95936 0.97607 7.11139 0.989778 7.22502 1.075L11.225 4.075C11.3194 4.14582 11.375 4.25697 11.375 4.375C11.375 4.49304 11.3194 4.60418 11.225 4.675L7.62502 7.375L11.225 10.075C11.3194 10.1458 11.375 10.257 11.375 10.375C11.375 10.493 11.3194 10.6042 11.225 10.675L7.22502 13.675C7.11139 13.7602 6.95936 13.7739 6.83232 13.7104C6.70527 13.6469 6.62502 13.517 6.62502 13.375V8.125L3.22502 10.675C3.05934 10.7993 2.82429 10.7657 2.70002 10.6C2.57576 10.4343 2.60934 10.1993 2.77502 10.075L6.37502 7.375L2.77502 4.675C2.60934 4.55074 2.57576 4.31569 2.70002 4.15C2.82429 3.98432 3.05934 3.95074 3.22502 4.075L6.62502 6.625V1.375C6.62502 1.23296 6.70527 1.10311 6.83232 1.03959ZM7.37502 8.125L10.375 10.375L7.37502 12.625V8.125ZM7.37502 6.625V2.125L10.375 4.375L7.37502 6.625Z" fill="#18303F"/>
</svg>
