<svg width="25" height="25" viewBox="0 0 25 25" fill="none"><path fill-rule="evenodd" clip-rule="evenodd" d="M9.5.5a.5.5 0 0 1 .5.5v1.678a23.261 23.261 0 0 1 2-.169V1a.5.5 0 0 1 1 0v1.51a22.79 22.79 0 0 1 2 .168V1a.5.5 0 0 1 1 0v1.816c.76.116 1.473.247 2.058.362C19.208 3.406 20 4.423 20 5.576v14.848c0 1.153-.791 2.17-1.942 2.398-1.085.215-2.61.48-4.058.606V24a.5.5 0 0 1-1 0v-.51a14.2 14.2 0 0 1-1 0V24a.5.5 0 0 1-1 0v-.572c-1.448-.125-2.973-.392-4.058-.606C5.792 22.594 5 21.577 5 20.424V5.576c0-1.153.791-2.17 1.942-2.398A47.438 47.438 0 0 1 9 2.816V1a.5.5 0 0 1 .5-.5Zm3 3c-1.694 0-3.897.369-5.364.66A1.426 1.426 0 0 0 6 5.575V6.5h13v-.924c0-.696-.474-1.285-1.137-1.417-1.466-.29-3.668-.659-5.363-.659ZM6 7.5v12.924c0 .696.474 1.285 1.136 1.417 1.467.29 3.67.659 5.364.659s3.897-.369 5.363-.66A1.427 1.427 0 0 0 19 20.425V7.5H6Zm6.583 1.675a.682.682 0 0 1 .307.618c-.028.39.018.94.119 1.497.06.333.137.65.221.92a1.99 1.99 0 0 0 .358-.472c.141-.284.536-.507.916-.29a3.591 3.591 0 0 1 1.829 3.357 4.134 4.134 0 0 1-1.052 2.744c-.747.753-1.706 1.151-2.766 1.06a3.783 3.783 0 0 1-2.71-1.132c-.772-.688-1.144-1.658-1.144-2.688 0-2.244 1.41-4.369 3.186-5.609a.653.653 0 0 1 .736-.005Zm-.69 1.232c-1.308 1.119-2.232 2.754-2.232 4.382 0 .791.282 1.477.819 1.95a2.786 2.786 0 0 0 2.058.871c.015 0 .03 0 .045.002.738.068 1.414-.194 1.977-.756a3.132 3.132 0 0 0 .774-2.1A2.58 2.58 0 0 0 14.29 12.5a4.47 4.47 0 0 1-.81.828.638.638 0 0 1-.979-.224c-.2-.43-.367-1.037-.476-1.636a9.064 9.064 0 0 1-.132-1.062ZM10.5 21a.5.5 0 1 0 0-1 .5.5 0 0 0 0 1Zm2 0a.5.5 0 1 0 0-1 .5.5 0 0 0 0 1Zm2 0a.5.5 0 1 0 0-1 .5.5 0 0 0 0 1Z" fill="#18303F" yggColor="boiler"/></svg>