<svg width="25" height="25" viewBox="0 0 25 25" fill="none"><g id="bomb"><path fill-rule="evenodd" clip-rule="evenodd" d="M21.927 2.908a.5.5 0 1 0-.674-.738l-1.434 1.309a.5.5 0 1 0 .675.738l1.433-1.309Zm-11.614 1.57c0-1.405 1.207-2.439 2.63-2.439 1.425 0 2.63 1.034 2.63 2.44 0 .533.499 1.051 1.206 1.051s1.205-.518 1.205-1.051a.5.5 0 1 1 1 0c0 1.172-1.037 2.051-2.205 2.051-1.168 0-2.205-.879-2.205-2.051 0-.767-.668-1.44-1.63-1.44-.963 0-1.631.673-1.631 1.44a.5.5 0 0 1-1 0ZM9.51 6.168c-.368 0-.717.119-.978.367-.262.25-.395.595-.395.965v.583c0 .04-.018.105-.068.174a.366.366 0 0 1-.072.076.152.152 0 0 1-.035.022.5.5 0 1 0 .303.954c.258-.082.47-.266.613-.464.146-.201.259-.468.259-.762v-.583c0-.128.042-.2.085-.241.045-.043.133-.091.288-.091h2.619c.155 0 .242.048.287.09.043.042.085.114.085.242v.583c0 .259.07.507.22.723a1.48 1.48 0 0 0 .622.492c1.799.702 3.18 2.022 3.91 3.723 1.366 3.299-.397 7.172-3.904 8.494-3.513 1.324-7.587-.4-8.963-3.719-.996-2.402-.38-5.097 1.407-6.9.063-.065.128-.128.195-.19a.5.5 0 0 0-.681-.732 6.966 6.966 0 0 0-.225.218c-2.053 2.073-2.78 5.191-1.62 7.987 1.592 3.84 6.246 5.777 10.239 4.271 3.998-1.507 6.075-5.956 4.475-9.814l-.002-.006c-.838-1.953-2.417-3.458-4.448-4.256a.468.468 0 0 1-.184-.14.246.246 0 0 1-.041-.151v-.583c0-.37-.132-.715-.395-.965a1.393 1.393 0 0 0-.977-.367h-2.62Zm10.219-.633a.501.501 0 0 1 .688-.167l1.433.873a.5.5 0 1 1-.52.854l-1.433-.873a.5.5 0 0 1-.168-.687ZM7.348 9.546a.5.5 0 1 1-1 0 .5.5 0 0 1 1 0Zm11.637-6.55a.5.5 0 1 1-1 0 .5.5 0 0 1 1 0Z" fill="#18303F" yggColor="iconDefault"/></g></svg>