<svg width="25" height="25" viewBox="0 0 25 25" fill="none"><path fill-rule="evenodd" clip-rule="evenodd" d="M6.414 7.28c0-2.333 1.95-4.284 4.285-4.284a.5.5 0 0 0 0-1c-2.886 0-5.285 2.399-5.285 5.285v2.545h-.372a2.246 2.246 0 0 0-2.241 2.24v6.2c0 1.256.576 2.438 1.439 3.3.862.862 2.044 1.439 3.3 1.439h3.155a.5.5 0 0 0 .409-.788l-1.406-1.993 1.332-2.22a.5.5 0 0 0-.031-.562l-2.806-3.666 2.87-3.11a.5.5 0 0 0-.368-.84H6.414V7.281ZM5.04 10.827h4.514l-2.381 2.581a.5.5 0 0 0-.03.643l2.855 3.73-1.325 2.209a.5.5 0 0 0 .02.545l1.037 1.47H7.54c-.95 0-1.887-.44-2.593-1.145-.706-.706-1.146-1.644-1.146-2.594v-6.199c0-.68.559-1.24 1.24-1.24Zm14.919-1h-.373V7.281c0-2.886-2.398-5.285-5.284-5.285a.5.5 0 0 0 0 1c2.333 0 4.284 1.951 4.284 4.285v2.545h-4.281a.5.5 0 0 0-.384.18l-2.846 3.42a.501.501 0 0 0-.018.616l2.742 3.732-1.33 2.215a.5.5 0 0 0 .005.521l1.407 2.26a.5.5 0 0 0 .424.235h3.155c1.256 0 2.439-.577 3.3-1.439.863-.862 1.439-2.044 1.439-3.3v-6.2a2.244 2.244 0 0 0-2.24-2.24Zm0 1c.68 0 1.239.56 1.239 1.24v6.2c0 .95-.44 1.887-1.145 2.593-.706.706-1.644 1.146-2.594 1.146h-2.877l-1.098-1.764 1.342-2.238a.5.5 0 0 0-.025-.553l-2.708-3.685 2.446-2.939h5.421Z" fill="#18303F" yggColor="burglary"/></svg>