<svg width="25" height="25" viewBox="0 0 25 25" fill="none"><g yggColor="cabin"><path yggColor="iconDefault" fill-rule="evenodd" clip-rule="evenodd" d="M16.706 2.795a.501.501 0 0 0-.792-.006l-3.075 3.93c-.713.677-.537 1.62-.119 2.164.151.198.355.376.598.485l-1.02 1.494-1.182-1.116a.822.822 0 0 0-.335-.261.992.992 0 0 0-.393-.084c-.287 0-.517.143-.684.307l-6.325 5.97a.5.5 0 0 0 .687.727l.227-.214v5.711a.5.5 0 0 0 .5.5h3.032a.5.5 0 0 0 0-1H5.293v-6.155l5.096-4.811 5.212 4.92v6.047h-4.48a.5.5 0 0 0 0 1h4.98a.5.5 0 0 0 .5-.5v-2.906h3.99c.688 0 1.133-.496 1.305-1.005.168-.495.123-1.126-.267-1.597l-1.235-1.86c.223-.095.413-.249.559-.424.433-.52.617-1.41.038-2.128l-1.767-2.586c.25-.102.46-.278.614-.482.43-.565.534-1.488-.145-2.184l-2.988-3.936ZM16.6 16.3v1.697h3.99c.133 0 .278-.09.357-.324.08-.238.038-.493-.096-.65a.525.525 0 0 1-.04-.05l-1.914-2.882a.5.5 0 0 1 .802-.596c.117.14.197.142.232.139.058-.005.155-.046.252-.163.2-.24.245-.6.021-.87a.532.532 0 0 1-.027-.036l-2.46-3.602a.5.5 0 0 1 .78-.62c.134.146.232.151.282.145.07-.008.171-.058.261-.177a.659.659 0 0 0-.078-.896.454.454 0 0 1-.047-.053l-2.614-3.446-2.7 3.452a.484.484 0 0 1-.06.064c-.248.222-.242.564-.027.843.102.136.214.192.282.203.037.006.107.01.211-.116a.5.5 0 0 1 .799.6l-1.774 2.595 4.367 4.121a.5.5 0 0 1-.688.727l-.111-.106ZM3.01 6.153a.5.5 0 0 1 .5-.5c.617 0 1.171.268 1.547.696a2.05 2.05 0 0 1 1.548-.696.5.5 0 0 1 0 1c-.59 0-1.048.46-1.048 1.029a.5.5 0 0 1-1 0c0-.568-.458-1.03-1.047-1.03a.5.5 0 0 1-.5-.5Zm11.695 9.88a.5.5 0 1 1-1 0 .5.5 0 0 1 1 0Zm3.974 5.869a.5.5 0 1 1-1 0 .5.5 0 0 1 1 0Zm-8.754 0a.5.5 0 1 1-1 0 .5.5 0 0 1 1 0Z" fill="#18303F"/></g></svg>