<svg width="25" height="25" viewBox="0 0 25 25" fill="none"><path fill-rule="evenodd" clip-rule="evenodd" d="M4.5 1.25a.5.5 0 0 1 .5.5v2h3v-2a.5.5 0 0 1 1 0v2h3v-2a.5.5 0 0 1 1 0v2h3v-2a.5.5 0 0 1 1 0v2h3v-2a.5.5 0 0 1 1 0v2.041a3 3 0 0 1 2.5 2.959v14a3 3 0 0 1-3 3h-16a3 3 0 0 1-3-3v-14A3 3 0 0 1 4 3.791V1.75a.5.5 0 0 1 .5-.5ZM17 4.75h3a.5.5 0 0 0 .996.062A2 2 0 0 1 22.5 6.75v14a2 2 0 0 1-2 2h-16a2 2 0 0 1-2-2v-14a2 2 0 0 1 1.504-1.938A.5.5 0 0 0 5 4.75h3a.5.5 0 0 0 1 0h3a.5.5 0 0 0 1 0h3a.5.5 0 0 0 1 0ZM4.421 20.829c.282.28.665.421 1.079.421h14c.414 0 .797-.14 1.079-.421.28-.282.421-.665.421-1.079v-10c0-.414-.14-.797-.421-1.079A1.506 1.506 0 0 0 19.5 8.25h-6c-.414 0-.797.14-1.079.421-.28.282-.421.665-.421 1.079v2.5H5.5c-.414 0-.797.14-1.079.421-.28.282-.421.665-.421 1.079v6c0 .414.14.797.421 1.079ZM13 9.75c0-.186.06-.303.129-.371.068-.07.185-.129.371-.129H16v3h-3v-2.5Zm-4 3.5h3v3H9v-3Zm4 7v-3h3v3h-3Zm-1-3v3H9v-3h3Zm-4 0v3H5.5c-.186 0-.303-.06-.371-.129-.07-.068-.129-.185-.129-.371v-2.5h3Zm-3-1h3v-3H5.5c-.186 0-.303.06-.371.129-.07.068-.129.185-.129.371v2.5Zm11 0h-3v-3h3v3Zm1 1h3v2.5c0 .186-.06.303-.129.371-.068.07-.185.129-.371.129H17v-3Zm3-4v3h-3v-3h3Zm0-3.5v2.5h-3v-3h2.5c.186 0 .303.06.371.129.07.068.129.185.129.371Z" fill="#18303F" yggColor="calendar"/></svg>