<svg fill="none" height="25" viewBox="0 0 25 25" width="25"><path clip-rule="evenodd" d="m4.5 1.25a.5.5 0 0 1 .5.5v2h3v-2a.5.5 0 0 1 1 0v2h3v-2a.5.5 0 0 1 1 0v2h3v-2a.5.5 0 0 1 1 0v2h3v-2a.5.5 0 0 1 1 0v2.041a3 3 0 0 1 2.5 2.959v14a3 3 0 0 1 -3 3h-16a3 3 0 0 1 -3-3v-14a3 3 0 0 1 2.5-2.959v-2.041a.5.5 0 0 1 .5-.5zm12.5 3.5h3a.5.5 0 0 0 .996.062 2 2 0 0 1 1.504 1.938v14a2 2 0 0 1 -2 2h-16a2 2 0 0 1 -2-2v-14a2 2 0 0 1 1.504-1.938.5.5 0 0 0 .996-.062h3a.5.5 0 0 0 1 0h3a.5.5 0 0 0 1 0h3a.5.5 0 0 0 1 0zm-12.579 16.079c.282.28.665.421 1.079.421h14c.414 0 .797-.14 1.079-.421.28-.282.421-.665.421-1.079v-10c0-.414-.14-.797-.421-1.079-.282-.28-.665-.421-1.079-.421h-6c-.414 0-.797.14-1.079.421-.28.282-.421.665-.421 1.079v2.5h-6.5c-.414 0-.797.14-1.079.421-.28.282-.421.665-.421 1.079v6c0 .414.14.797.421 1.079zm8.579-11.079c0-.186.06-.303.129-.371.068-.07.185-.129.371-.129h2.5v3h-3zm-4 3.5h3v3h-3zm4 7v-3h3v3zm-1-3v3h-3v-3zm-4 0v3h-2.5c-.186 0-.303-.06-.371-.129-.07-.068-.129-.185-.129-.371v-2.5zm-3-1h3v-3h-2.5c-.186 0-.303.06-.371.129-.07.068-.129.185-.129.371zm11 0h-3v-3h3zm1 1h3v2.5c0 .186-.06.303-.129.371-.068.07-.185.129-.371.129h-2.5zm3-4v3h-3v-3zm0-3.5v2.5h-3v-3h2.5c.186 0 .303.06.371.129.07.068.129.185.129.371z" fill="#18303f" fill-rule="evenodd"/></svg>