<svg width="25" height="25" viewBox="0 0 25 25" fill="none"><g id="calendar_add"><g id="iconDefault" fill="#18303F"><path d="M17.708 15.104a.52.52 0 0 1 .521.521v1.563h1.563a.52.52 0 1 1 0 1.041h-1.563v1.563a.52.52 0 1 1-1.041 0v-1.563h-1.563a.52.52 0 1 1 0-1.041h1.563v-1.563a.52.52 0 0 1 .52-.52Z"/><path fill-rule="evenodd" clip-rule="evenodd" d="M8.854 2.083a.52.52 0 0 0-1.041 0v.521h-.521a4.687 4.687 0 0 0-4.688 4.688v10.416a4.687 4.687 0 0 0 4.688 4.688h7.122a5.73 5.73 0 0 0 7.982-7.982V7.292a4.687 4.687 0 0 0-4.688-4.688h-.52v-.52a.52.52 0 0 0-1.042 0v.52H8.854v-.52Zm12.594 12.8a4.667 4.667 0 0 1 .948 2.826 4.687 4.687 0 1 1-.948-2.827Zm-.094-1.594V9.896H3.646v7.812a3.646 3.646 0 0 0 3.646 3.646h5.997a5.73 5.73 0 0 1 8.065-8.065Zm0-4.435V7.292a3.646 3.646 0 0 0-3.646-3.646h-.52v.52a.52.52 0 0 1-1.042 0v-.52H8.854v.52a.52.52 0 0 1-1.041 0v-.52h-.521a3.646 3.646 0 0 0-3.646 3.646v1.562h17.708Z"/></g></g></svg>