<svg fill="none" height="25" viewBox="0 0 25 25" width="25"><g clip-rule="evenodd" fill="#18303f" fill-rule="evenodd"><path d="m8.333 1.563a.52.52 0 0 1 .521.52v.521h7.292v-.52a.52.52 0 0 1 1.041 0v.52h.521a4.688 4.688 0 0 1 4.688 4.688v5.208a.52.52 0 0 1 -1.042 0v-2.604h-17.708v7.812a3.646 3.646 0 0 0 3.646 3.646h4.166a.52.52 0 0 1 0 1.042h-4.167a4.687 4.687 0 0 1 -4.687-4.688v-10.416a4.687 4.687 0 0 1 4.688-4.688h.52v-.52a.52.52 0 0 1 .521-.522zm-.52 2.083h-.521a3.646 3.646 0 0 0 -3.646 3.646v1.562h17.708v-1.562a3.646 3.646 0 0 0 -3.646-3.646h-.52v.52a.52.52 0 1 1 -1.042 0v-.52h-7.292v.52a.52.52 0 1 1 -1.042 0v-.52z"/><path d="m22.381 17.232a1.562 1.562 0 0 0 -.192-2.201l-1.596-1.34a1.563 1.563 0 0 0 -2.201.193l-3.815 4.546a1.562 1.562 0 0 0 -.356.833l-.207 1.866a1.563 1.563 0 0 0 1.992 1.672l1.803-.528c.296-.086.56-.259.758-.495zm-.862-1.403a.52.52 0 0 1 .065.733l-1.005 1.197-2.394-2.008 1.005-1.197a.52.52 0 0 1 .733-.065zm-4.003.72 2.394 2.008-2.141 2.551a.521.521 0 0 1 -.253.165l-1.802.528a.52.52 0 0 1 -.664-.557l.206-1.867a.52.52 0 0 1 .119-.277l2.14-2.552z"/></g></svg>