<svg fill="none" height="25" viewBox="0 0 26 25" width="26"><path clip-rule="evenodd" d="m6.513 1a.5.5 0 0 0 -1 0v1.5h-2.5c-.385 0-.99.122-1.513.492-.55.387-.987 1.035-.987 2.008v12c0 .385.122.99.492 1.513.387.55 1.036.987 2.008.987h3a.5.5 0 0 0 0-1h-3c-.627 0-.979-.262-1.191-.563a1.763 1.763 0 0 1 -.31-.937v-8.5h19v8a.5.5 0 0 0 1 0v-11.5c0-.973-.436-1.62-.985-2.008a2.762 2.762 0 0 0 -1.514-.492h-2.5v-1.5a.5.5 0 0 0 -1 0v1.5h-9zm14 6.5v-2.5c0-.627-.262-.98-.563-1.192a1.766 1.766 0 0 0 -.937-.308h-2.5v2.5a.5.5 0 0 1 -1 0v-2.5h-9v2.5a.5.5 0 0 1 -1 0v-2.5h-2.5c-.215 0-.61.078-.936.308-.301.213-.564.565-.564 1.192v2.5zm-7.81 12.77a.5.5 0 0 0 -.707-.707l-.719.718-.719-.718a.5.5 0 1 0 -.707.707l.719.718-.762.762a.5.5 0 0 0 .707.707l.762-.762.762.762a.5.5 0 0 0 .707-.707l-.762-.762zm5-.707a.5.5 0 0 1 0 .707l-.719.718.762.762a.5.5 0 0 1 -.707.707l-.762-.762-.762.762a.5.5 0 1 1 -.707-.707l.762-.762-.719-.718a.5.5 0 0 1 .707-.707l.719.718.719-.718a.5.5 0 0 1 .707 0zm1.84 2.03a.5.5 0 0 0 0 1h2.453a.5.5 0 0 0 0-1h-2.452zm-12.029-2.593a1.5 1.5 0 0 1 1.5-1.5h14a1.5 1.5 0 0 1 1.5 1.5v4a1.5 1.5 0 0 1 -1.5 1.5h-14a1.5 1.5 0 0 1 -1.5-1.5zm1.5-.5a.5.5 0 0 0 -.5.5v4a.5.5 0 0 0 .5.5h14a.5.5 0 0 0 .5-.5v-4a.5.5 0 0 0 -.5-.5z" fill="#18303f" fill-rule="evenodd"/></svg>