<svg width="26" height="25" viewBox="0 0 26 25" fill="none"><g id="calendar_pin"><path id="iconDefault" fill-rule="evenodd" clip-rule="evenodd" d="M6.513 1a.5.5 0 0 0-1 0v1.5h-2.5c-.385 0-.99.122-1.513.492C.95 3.379.513 4.027.513 5v12c0 .385.122.99.492 1.513.387.55 1.036.987 2.008.987h3a.5.5 0 0 0 0-1h-3c-.627 0-.979-.262-1.191-.563a1.763 1.763 0 0 1-.31-.937V8.5h19v8a.5.5 0 0 0 1 0V5c0-.973-.436-1.62-.985-2.008a2.762 2.762 0 0 0-1.514-.492h-2.5V1a.5.5 0 0 0-1 0v1.5h-9V1Zm14 6.5V5c0-.627-.262-.98-.563-1.192a1.766 1.766 0 0 0-.937-.308h-2.5V6a.5.5 0 0 1-1 0V3.5h-9V6a.5.5 0 0 1-1 0V3.5h-2.5c-.215 0-.61.078-.936.308-.301.213-.564.565-.564 1.192v2.5h19Zm-7.81 12.77a.5.5 0 0 0-.707-.707l-.719.718-.719-.718a.5.5 0 1 0-.707.707l.719.718-.762.762a.5.5 0 0 0 .707.707l.762-.762.762.762a.5.5 0 0 0 .707-.707l-.762-.762.719-.718Zm5-.707a.5.5 0 0 1 0 .707l-.719.718.762.762a.5.5 0 0 1-.707.707l-.762-.762-.762.762a.5.5 0 1 1-.707-.707l.762-.762-.719-.718a.5.5 0 0 1 .707-.707l.719.718.719-.718a.5.5 0 0 1 .707 0Zm1.84 2.03a.5.5 0 0 0 0 1h2.453a.5.5 0 0 0 0-1h-2.452ZM7.514 19a1.5 1.5 0 0 1 1.5-1.5h14a1.5 1.5 0 0 1 1.5 1.5v4a1.5 1.5 0 0 1-1.5 1.5h-14a1.5 1.5 0 0 1-1.5-1.5v-4Zm1.5-.5a.5.5 0 0 0-.5.5v4a.5.5 0 0 0 .5.5h14a.5.5 0 0 0 .5-.5v-4a.5.5 0 0 0-.5-.5h-14Z" fill="#18303F"/></g></svg>