<svg fill="none" height="25" viewBox="0 0 25 25" width="25"><path clip-rule="evenodd" d="m8.333 1.583a.5.5 0 0 1 .5.5v.542h7.334v-.542a.5.5 0 1 1 1 0v.542h.708a4.5 4.5 0 0 1 4.5 4.5v5.375a.5.5 0 1 1 -1 0v-2.625h-17.75v8a3.5 3.5 0 0 0 3.5 3.5h4.333a.5.5 0 1 1 0 1h-4.333a4.5 4.5 0 0 1 -4.5-4.5v-10.75a4.5 4.5 0 0 1 4.5-4.5h.708v-.542a.5.5 0 0 1 .5-.5zm-.5 2.042h-.708a3.5 3.5 0 0 0 -3.5 3.5v1.75h17.75v-1.75a3.5 3.5 0 0 0 -3.5-3.5h-.708v.542a.5.5 0 0 1 -1 0v-.542h-7.334v.542a.5.5 0 1 1 -1 0zm14.56 13.561a1.5 1.5 0 0 0 -.186-2.113l-1.66-1.393a1.5 1.5 0 0 0 -2.113.185l-1.365 1.628-2.484 2.96a1.5 1.5 0 0 0 -.342.8l-.215 1.94a1.5 1.5 0 0 0 1.913 1.605l1.874-.548a1.5 1.5 0 0 0 .728-.476l2.483-2.96 1.366-1.628zm-.828-1.347a.5.5 0 0 1 .061.705l-1.044 1.244-2.426-2.035 1.045-1.245a.5.5 0 0 1 .704-.061zm-4.052.68 2.426 2.036-2.162 2.576a.5.5 0 0 1 -.243.159l-1.874.548a.5.5 0 0 1 -.638-.534l.215-1.942a.5.5 0 0 1 .114-.266z" fill="#18303f" fill-rule="evenodd"/></svg>