<svg fill="none" height="25" viewBox="0 0 25 25" width="25"><path clip-rule="evenodd" d="m8.833 2.083a.5.5 0 1 0 -1 0v.542h-.708a4.5 4.5 0 0 0 -4.5 4.5v10.75a4.5 4.5 0 0 0 4.5 4.5h7.295a5.708 5.708 0 0 0 7.955-7.955v-7.295a4.5 4.5 0 0 0 -4.5-4.5h-.708v-.542a.5.5 0 0 0 -1 0v.542h-7.334zm12.632 12.787.02.027a4.708 4.708 0 1 1 -.02-.027zm-.09-1.537v-3.458h-17.75v8a3.5 3.5 0 0 0 3.5 3.5h6.208a5.708 5.708 0 0 1 8.042-8.042zm0-4.458v-1.75a3.5 3.5 0 0 0 -3.5-3.5h-.708v.542a.5.5 0 0 1 -1 0v-.542h-7.334v.542a.5.5 0 1 1 -1 0v-.542h-.708a3.5 3.5 0 0 0 -3.5 3.5v1.75zm-3.667 6.25a.5.5 0 0 1 .5.5v1.583h1.584a.5.5 0 0 1 0 1h-1.584v1.584a.5.5 0 1 1 -1 0v-1.584h-1.583a.5.5 0 1 1 0-1h1.583v-1.583a.5.5 0 0 1 .5-.5z" fill="#18303f" fill-rule="evenodd"/></svg>