<svg fill="none" height="25" viewBox="0 0 25 25" width="25"><path clip-rule="evenodd" d="m8.833 2.083a.5.5 0 1 0 -1 0v.542h-.708a4.5 4.5 0 0 0 -4.5 4.5v12.417a2.833 2.833 0 0 0 2.833 2.833.5.5 0 0 0 0-1 1.833 1.833 0 0 1 -1.833-1.833v-9.667h17.75v5.625a.5.5 0 0 0 1 0v-8.375a4.5 4.5 0 0 0 -4.5-4.5h-.708v-.542a.5.5 0 0 0 -1 0v.542h-7.334zm-1 1.542v.542a.5.5 0 0 0 1 0v-.542h7.334v.542a.5.5 0 1 0 1 0v-.542h.708a3.5 3.5 0 0 1 3.5 3.5v1.75h-17.75v-1.75a3.5 3.5 0 0 1 3.5-3.5zm4.357 16.145a.5.5 0 0 0 -.707-.707l-.72.718-.718-.718a.5.5 0 1 0 -.707.707l.719.718-.762.762a.5.5 0 0 0 .707.707l.762-.762.762.762a.5.5 0 0 0 .707-.707l-.762-.762zm5-.707a.5.5 0 0 1 0 .707l-.719.718.762.762a.5.5 0 0 1 -.707.707l-.762-.762-.762.762a.5.5 0 0 1 -.707-.707l.762-.762-.719-.718a.5.5 0 0 1 .707-.707l.719.718.719-.718a.5.5 0 0 1 .707 0zm1.841 2.03a.5.5 0 0 0 0 1h2.452a.5.5 0 0 0 0-1zm-12.031-2.593a1.5 1.5 0 0 1 1.5-1.5h14a1.5 1.5 0 0 1 1.5 1.5v4a1.5 1.5 0 0 1 -1.5 1.5h-14a1.5 1.5 0 0 1 -1.5-1.5zm1.5-.5a.5.5 0 0 0 -.5.5v4a.5.5 0 0 0 .5.5h14a.5.5 0 0 0 .5-.5v-4a.5.5 0 0 0 -.5-.5z" fill="#18303f" fill-rule="evenodd"/></svg>