<svg fill="none" height="25" viewBox="0 0 25 25" width="25"><path clip-rule="evenodd" d="m21.346 2.758c-.813-.812-2.103-.89-2.832-.16l-2.4 2.396c-.38.45-.494.918-.445 1.388.051.492.285 1.013.645 1.516l.805 1.126a.5.5 0 0 1 -.02.609 56.442 56.442 0 0 1 -7.63 7.62.5.5 0 0 1 -.67-.032l-.966-.964a.618.618 0 0 1 -.014-.015c-.469-.507-.987-.719-1.462-.728-.479-.009-.96.187-1.356.582l-2.4 2.397c-.766.906-.646 2.05.148 2.842a.553.553 0 0 1 .022.024c.482.55 1.362 1.064 2.334 1.34.967.275 1.909.28 2.554-.031 6.041-3.817 11.285-9.06 14.938-15.089a.462.462 0 0 1 .012-.018c.361-.542.392-1.4.117-2.362-.27-.946-.804-1.865-1.38-2.44zm-3.54-.868c1.201-1.2 3.129-.956 4.246.16.711.71 1.323 1.785 1.635 2.873.306 1.068.357 2.28-.24 3.183-3.742 6.172-9.105 11.527-15.277 15.422a.51.51 0 0 1 -.043.024c-.963.481-2.203.419-3.295.109-1.093-.31-2.157-.901-2.802-1.63-1.123-1.133-1.322-2.867-.175-4.203a.494.494 0 0 1 .026-.029l2.413-2.41c.57-.57 1.307-.89 2.081-.875.776.015 1.541.363 2.172 1.042l.636.636a55.503 55.503 0 0 0 6.898-6.9l-.58-.811c-.422-.59-.752-1.275-.827-1.996-.076-.739.119-1.486.694-2.156a.471.471 0 0 1 .026-.029l2.413-2.41z" fill="#18303f" fill-rule="evenodd"/></svg>