<svg fill="none" height="25" viewBox="0 0 25 25" width="25"><path clip-rule="evenodd" d="m10.554 2.27c-.73 0-1.383.467-1.77.853a.501.501 0 0 0 -.062.077l-1.386 2.08c-.316.304-.709.528-1.028.528h-2.654a.5.5 0 0 0 -.055.003c-1.856.206-3.099 1.667-3.099 3.504v10.262c0 1.691 1.462 3.154 3.154 3.154h17.692c1.692 0 3.154-1.463 3.154-3.154v-10.262c0-1.837-1.243-3.298-3.099-3.504a.5.5 0 0 0 -.055-.003h-2.476c-.32 0-.712-.224-1.028-.528l-1.388-2.08a.501.501 0 0 0 -.062-.077c-.386-.386-1.039-.854-1.769-.854h-4.07zm-2.415 3.606 1.387-2.08c.316-.304.708-.528 1.028-.528h4.07c.319 0 .711.224 1.027.528l1.387 2.08a.5.5 0 0 0 .062.077c.387.386 1.039.854 1.77.854h2.447c1.315.158 2.183 1.169 2.183 2.507v10.262c0 1.14-1.015 2.154-2.154 2.154h-17.692c-1.14 0-2.154-1.015-2.154-2.154v-10.261c0-1.338.868-2.35 2.183-2.507h2.625c.73 0 1.382-.468 1.769-.854a.5.5 0 0 0 .062-.077zm11.361 3.505a.5.5 0 1 0 0-1 .5.5 0 0 0 0 1zm-11.922 4.889a4.923 4.923 0 1 1 9.846 0 4.923 4.923 0 0 1 -9.846 0zm4.923-3.924a3.923 3.923 0 1 0 0 7.846 3.923 3.923 0 0 0 0-7.846z" fill="#18303f" fill-rule="evenodd"/></svg>