<svg fill="none" height="25" viewBox="0 0 25 25" width="25"><path clip-rule="evenodd" d="m3.5 1c-1.424 0-2.5 1.076-2.5 2.5a.5.5 0 0 1 -1 0c0-1.976 1.524-3.5 3.5-3.5a.5.5 0 0 1 0 1zm-.371 2.129c-.07.068-.129.185-.129.371a.5.5 0 0 1 -1 0c0-.414.14-.797.421-1.079.282-.28.665-.421 1.079-.421a.5.5 0 0 1 0 1c-.186 0-.303.06-.371.129zm-2.629 17.871a.5.5 0 0 1 .5.5c0 1.424 1.076 2.5 2.5 2.5a.5.5 0 0 1 0 1c-1.976 0-3.5-1.524-3.5-3.5a.5.5 0 0 1 .5-.5zm2 0a.5.5 0 0 1 .5.5c0 .186.06.303.129.371.068.07.185.129.371.129a.5.5 0 0 1 0 1c-.414 0-.797-.14-1.079-.421-.28-.282-.421-.665-.421-1.079a.5.5 0 0 1 .5-.5zm18.5-20.5a.5.5 0 0 1 .5-.5c1.976 0 3.5 1.524 3.5 3.5a.5.5 0 0 1 -1 0c0-1.424-1.076-2.5-2.5-2.5a.5.5 0 0 1 -.5-.5zm0 2a.5.5 0 0 1 .5-.5c.414 0 .797.14 1.079.421.28.282.421.665.421 1.079a.5.5 0 0 1 -1 0c0-.186-.06-.303-.129-.371-.068-.07-.185-.129-.371-.129a.5.5 0 0 1 -.5-.5zm3.5 18.5a.5.5 0 0 1 .5.5c0 1.976-1.524 3.5-3.5 3.5a.5.5 0 0 1 0-1c1.424 0 2.5-1.076 2.5-2.5a.5.5 0 0 1 .5-.5zm-2 0a.5.5 0 0 1 .5.5c0 .414-.14.797-.421 1.079-.282.28-.665.421-1.079.421a.5.5 0 0 1 0-1c.186 0 .303-.06.371-.129.07-.068.129-.185.129-.371a.5.5 0 0 1 .5-.5zm-10-11.034a3 3 0 1 0 0 6 3 3 0 0 0 0-6zm-2 3a2 2 0 1 1 4 0 2 2 0 0 1 -4 0zm6-2.5a.5.5 0 1 0 0-1 .5.5 0 0 0 0 1zm-6.254-3.954c.233-.232.654-.546 1.154-.546h2.3c.5 0 .921.314 1.154.546a.5.5 0 0 1 .062.076l.77 1.156c.158.147.32.222.414.222h1.4a.5.5 0 0 1 .055.003c1.163.13 1.945 1.052 1.945 2.197v5.8c0 1.076-.924 2-2 2h-10c-1.076 0-2-.924-2-2v-5.8c0-1.145.782-2.068 1.945-2.197a.5.5 0 0 1 .055-.003h1.5c.094 0 .256-.075.414-.222l.77-1.156a.5.5 0 0 1 .062-.076zm.74.676-.77 1.155a.5.5 0 0 1 -.062.076c-.233.233-.655.547-1.154.547h-1.47c-.623.08-1.03.553-1.03 1.2v5.8c0 .524.476 1 1 1h10c.524 0 1-.476 1-1v-5.8c0-.647-.407-1.12-1.03-1.2h-1.37c-.5 0-.921-.314-1.154-.547a.5.5 0 0 1 -.062-.076l-.77-1.155c-.158-.147-.32-.222-.414-.222h-2.3c-.094 0-.256.075-.414.222z" fill="#18303f" fill-rule="evenodd"/></svg>