<svg width="25" height="25" viewBox="0 0 25 25" fill="none"><g id="camera"><path id="iconDefault" fill-rule="evenodd" clip-rule="evenodd" d="M10.554 2.27c-.73 0-1.383.467-1.77.853a.501.501 0 0 0-.062.077L7.336 5.28c-.316.304-.709.528-1.028.528H3.654a.5.5 0 0 0-.055.003C1.743 6.017.5 7.478.5 9.315v10.262c0 1.691 1.462 3.154 3.154 3.154h17.692c1.692 0 3.154-1.463 3.154-3.154V9.315c0-1.837-1.243-3.298-3.099-3.504a.5.5 0 0 0-.055-.003H18.87c-.32 0-.712-.224-1.028-.528L16.454 3.2a.501.501 0 0 0-.062-.077c-.386-.386-1.039-.854-1.769-.854h-4.07ZM8.139 5.876l1.387-2.08c.316-.304.708-.528 1.028-.528h4.07c.319 0 .711.224 1.027.528l1.387 2.08a.5.5 0 0 0 .062.077c.387.386 1.039.854 1.77.854h2.447c1.315.158 2.183 1.169 2.183 2.507v10.262c0 1.14-1.015 2.154-2.154 2.154H3.654c-1.14 0-2.154-1.015-2.154-2.154V9.315c0-1.338.868-2.35 2.183-2.507h2.625c.73 0 1.382-.468 1.769-.854a.5.5 0 0 0 .062-.077ZM19.5 9.381a.5.5 0 1 0 0-1 .5.5 0 0 0 0 1ZM7.578 14.27a4.923 4.923 0 1 1 9.846 0 4.923 4.923 0 0 1-9.846 0Zm4.923-3.924a3.923 3.923 0 1 0 0 7.846 3.923 3.923 0 0 0 0-7.846Z" fill="#18303F"/></g></svg>