<svg width="25" height="25" viewBox="0 0 25 25" fill="none"><g yggColor="camera_scan"><path yggColor="iconDefault" fill-rule="evenodd" clip-rule="evenodd" d="M3.5 1C2.076 1 1 2.076 1 3.5a.5.5 0 0 1-1 0C0 1.524 1.524 0 3.5 0a.5.5 0 0 1 0 1Zm-.371 2.129C3.059 3.197 3 3.314 3 3.5a.5.5 0 0 1-1 0c0-.414.14-.797.421-1.079C2.703 2.141 3.086 2 3.5 2a.5.5 0 0 1 0 1c-.186 0-.303.06-.371.129ZM.5 21a.5.5 0 0 1 .5.5C1 22.924 2.076 24 3.5 24a.5.5 0 0 1 0 1C1.524 25 0 23.476 0 21.5a.5.5 0 0 1 .5-.5Zm2 0a.5.5 0 0 1 .5.5c0 .186.06.303.129.371.068.07.185.129.371.129a.5.5 0 0 1 0 1c-.414 0-.797-.14-1.079-.421C2.141 22.297 2 21.914 2 21.5a.5.5 0 0 1 .5-.5ZM21 .5a.5.5 0 0 1 .5-.5C23.476 0 25 1.524 25 3.5a.5.5 0 0 1-1 0C24 2.076 22.924 1 21.5 1a.5.5 0 0 1-.5-.5Zm0 2a.5.5 0 0 1 .5-.5c.414 0 .797.14 1.079.421.28.282.421.665.421 1.079a.5.5 0 0 1-1 0c0-.186-.06-.303-.129-.371-.068-.07-.185-.129-.371-.129a.5.5 0 0 1-.5-.5ZM24.5 21a.5.5 0 0 1 .5.5c0 1.976-1.524 3.5-3.5 3.5a.5.5 0 0 1 0-1c1.424 0 2.5-1.076 2.5-2.5a.5.5 0 0 1 .5-.5Zm-2 0a.5.5 0 0 1 .5.5c0 .414-.14.797-.421 1.079-.282.28-.665.421-1.079.421a.5.5 0 0 1 0-1c.186 0 .303-.06.371-.129.07-.068.129-.185.129-.371a.5.5 0 0 1 .5-.5Zm-10-11.034a3 3 0 1 0 0 6 3 3 0 0 0 0-6Zm-2 3a2 2 0 1 1 4 0 2 2 0 0 1-4 0Zm6-2.5a.5.5 0 1 0 0-1 .5.5 0 0 0 0 1Zm-6.254-3.954c.233-.232.654-.546 1.154-.546h2.3c.5 0 .921.314 1.154.546a.5.5 0 0 1 .062.076l.77 1.156c.158.147.32.222.414.222h1.4a.5.5 0 0 1 .055.003c1.163.13 1.945 1.052 1.945 2.197v5.8c0 1.076-.924 2-2 2h-10c-1.076 0-2-.924-2-2v-5.8c0-1.145.782-2.068 1.945-2.197a.5.5 0 0 1 .055-.003H9c.094 0 .256-.075.414-.222l.77-1.156a.5.5 0 0 1 .062-.076Zm.74.676-.77 1.155a.5.5 0 0 1-.062.076c-.233.233-.655.547-1.154.547H7.53c-.623.08-1.03.553-1.03 1.2v5.8c0 .524.476 1 1 1h10c.524 0 1-.476 1-1v-5.8c0-.647-.407-1.12-1.03-1.2H16.1c-.5 0-.921-.314-1.154-.547a.5.5 0 0 1-.062-.076l-.77-1.155c-.158-.147-.32-.222-.414-.222h-2.3c-.094 0-.256.075-.414.222Z" fill="#18303F"/></g></svg>