<svg fill="none" height="25" viewBox="0 0 25 25" width="25"><path clip-rule="evenodd" d="m1.602 1.856a.5.5 0 1 1 -1 0 .5.5 0 0 1 1 0zm.784.009a.5.5 0 0 1 .5-.5h19.512c.582 0 1.063.323 1.389.704a2.568 2.568 0 0 1 .604 1.42v.12c.005.005.007.01.007.01v5.025a2 2 0 0 1 -4 0v-4h-.423l-1.285 15.784a3.5 3.5 0 0 1 -3.488 3.216h-6.89a3.5 3.5 0 0 1 -3.488-3.216l-1.206-14.836a10.747 10.747 0 0 0 -1.833-1.71.5.5 0 1 1 .595-.804 11.73 11.73 0 0 1 2.11 1.998.496.496 0 0 1 .112.277l1.22 14.994a2.499 2.499 0 0 0 2.49 2.297h6.89c1.303 0 2.387-1 2.492-2.297l1.302-16c.005-.069.008-.137.008-.204a.5.5 0 0 1 .5-.499h1.394a.5.5 0 0 1 .5.5v4.5a1 1 0 1 0 2 0v-4.602l-.002-.014v-.015l-.002-.013v-.041l-.003-.44a1.588 1.588 0 0 0 -.364-.8c-.207-.242-.434-.354-.629-.354h-19.512a.5.5 0 0 1 -.5-.5zm4.012 6.28a.5.5 0 0 0 0 1h3a.5.5 0 1 0 0-1zm1 2.5a.5.5 0 0 0 0 1h2a.5.5 0 1 0 0-1zm0 2.5a.5.5 0 0 0 0 1h2a.5.5 0 1 0 0-1zm0 2.5a.5.5 0 0 0 0 1h2a.5.5 0 1 0 0-1zm0 2.5a.5.5 0 0 0 0 1h2a.5.5 0 1 0 0-1zm3.852-9.017a.5.5 0 1 0 0-1 .5.5 0 0 0 0 1z" fill="#18303f" fill-rule="evenodd"/></svg>