<svg width="24" height="24" viewBox="0 0 24 24" fill="none"><g yggColor="carbon_monoxide"><path yggColor="iconDefault" fill-rule="evenodd" clip-rule="evenodd" d="M12.001.845a5.963 5.963 0 0 0-4.393 1.933c-.506-.29-1.079-.433-1.707-.433-1.831 0-3.254 1.3-3.55 3.035-.799.124-1.562.577-1.985 1.317a2.855 2.855 0 0 0 0 2.797c.502.878 1.482 1.351 2.434 1.351h2.7a.5.5 0 0 0 0-1H2.8c-.648 0-1.268-.325-1.566-.847a1.857 1.857 0 0 1 0-1.805c.298-.522.919-.848 1.567-.848a.5.5 0 0 0 .499-.47c.085-1.453 1.182-2.53 2.601-2.53.598 0 1.085.168 1.487.49a.501.501 0 0 0 .709-.085 4.95 4.95 0 0 1 3.904-1.905 4.95 4.95 0 0 1 3.903 1.905.502.502 0 0 0 .709.085c.403-.322.89-.49 1.488-.49 1.445 0 2.6 1.098 2.6 2.5a.5.5 0 0 0 .5.5c.647 0 1.267.326 1.565.848a1.857 1.857 0 0 1 0 1.805c-.298.522-.918.847-1.566.847h-2.7a.5.5 0 0 0 0 1h2.7c.952 0 1.932-.473 2.434-1.351a2.855 2.855 0 0 0 0-2.797c-.419-.734-1.171-1.185-1.963-1.314-.231-1.762-1.77-3.038-3.57-3.038-.628 0-1.201.142-1.707.433A5.967 5.967 0 0 0 12.001.845ZM9 9.845a.5.5 0 0 0-1 0v2.5a.5.5 0 0 0 1 0v-2.5Zm3-.5a.5.5 0 0 1 .5.5v1.5a.5.5 0 0 1-1 0v-1.5a.5.5 0 0 1 .5-.5Zm3.5 0a.5.5 0 0 1 .5.5v2.5a.5.5 0 0 1-1 0v-2.5a.5.5 0 0 1 .5-.5Zm-9.271 7.582v3.612c0 .896.236 1.556.708 1.98.48.424 1.1.636 1.86.636.784 0 1.412-.2 1.884-.6.48-.408.72-.916.72-1.524 0-.216-.04-.364-.12-.444-.08-.08-.208-.12-.384-.12-.312 0-.48.116-.504.348-.024.2-.052.36-.084.48-.032.12-.1.264-.204.432a.912.912 0 0 1-.456.384c-.208.088-.468.132-.78.132-1.088 0-1.632-.568-1.632-1.704v-3.612c0-1.136.532-1.704 1.596-1.704.992 0 1.512.46 1.56 1.38.016.232.184.348.504.348.176 0 .304-.036.384-.108.08-.08.12-.228.12-.444 0-.6-.236-1.096-.708-1.488-.472-.4-1.1-.6-1.884-.6-.768 0-1.392.212-1.872.636-.472.424-.708 1.084-.708 1.98Zm6.375 3.612v-3.612c0-.904.232-1.564.696-1.98.472-.424 1.1-.636 1.884-.636.784 0 1.412.212 1.884.636.472.416.708 1.076.708 1.98v3.612c0 .904-.236 1.568-.708 1.992-.472.416-1.1.624-1.884.624-.784 0-1.412-.208-1.884-.624-.464-.424-.696-1.088-.696-1.992Zm1.008 0c0 1.136.524 1.704 1.572 1.704.504 0 .892-.14 1.164-.42.28-.288.42-.716.42-1.284v-3.612c0-.568-.14-.992-.42-1.272-.272-.288-.66-.432-1.164-.432-1.048 0-1.572.568-1.572 1.704v3.612Z" fill="#18303F"/></g></svg>