<svg fill="none" height="25" viewBox="0 0 25 25" width="25"><path clip-rule="evenodd" d="m12.501.88a6.212 6.212 0 0 0 -4.576 2.014c-.527-.303-1.124-.451-1.778-.451-1.907 0-3.39 1.355-3.698 3.161-.832.13-1.627.601-2.068 1.372a2.974 2.974 0 0 0 0 2.913c.523.915 1.544 1.408 2.536 1.408h2.812a.52.52 0 0 0 0-1.041h-2.812c-.675 0-1.321-.34-1.632-.883a1.934 1.934 0 0 1 0-1.88c.31-.544.958-.883 1.633-.883a.52.52 0 0 0 .52-.49c.088-1.513 1.23-2.635 2.709-2.635.623 0 1.13.175 1.549.51a.522.522 0 0 0 .738-.089 5.156 5.156 0 0 1 4.067-1.984c1.61 0 3.123.759 4.066 1.984a.523.523 0 0 0 .738.09c.42-.336.927-.511 1.55-.511 1.505 0 2.709 1.143 2.709 2.604 0 .288.233.52.52.52.674 0 1.32.34 1.63.884.326.569.326 1.31 0 1.88-.31.543-.956.883-1.63.883h-2.814a.52.52 0 0 0 0 1.041h2.812c.992 0 2.013-.493 2.536-1.408a2.974 2.974 0 0 0 0-2.913c-.437-.764-1.22-1.234-2.045-1.368-.24-1.836-1.844-3.165-3.719-3.165-.654 0-1.25.148-1.778.45a6.215 6.215 0 0 0 -4.575-2.011zm-3.126 9.376a.521.521 0 0 0 -1.042 0v2.604a.521.521 0 0 0 1.042 0zm3.125-.521a.52.52 0 0 1 .52.52v1.563a.52.52 0 0 1 -1.04 0v-1.562a.52.52 0 0 1 .52-.521zm3.646 0c.287 0 .52.233.52.52v2.605a.521.521 0 0 1 -1.041 0v-2.604a.52.52 0 0 1 .52-.521zm-9.657 7.897v3.762c0 .934.245 1.621.737 2.063.5.442 1.146.662 1.938.662.816 0 1.47-.208 1.962-.625.5-.425.75-.954.75-1.587 0-.225-.042-.38-.125-.463s-.217-.125-.4-.125c-.325 0-.5.121-.525.363a3.742 3.742 0 0 1 -.088.5 1.758 1.758 0 0 1 -.212.45.95.95 0 0 1 -.475.4c-.217.092-.487.137-.812.137-1.134 0-1.7-.591-1.7-1.775v-3.762c0-1.183.554-1.775 1.662-1.775 1.033 0 1.575.48 1.625 1.437.017.242.192.363.525.363.183 0 .317-.038.4-.113.083-.083.125-.237.125-.462 0-.625-.246-1.142-.737-1.55-.492-.417-1.146-.625-1.963-.625-.8 0-1.45.22-1.95.662-.492.442-.737 1.13-.737 2.063zm6.64 3.762v-3.762c0-.942.242-1.63.725-2.063.492-.441 1.146-.662 1.963-.662.816 0 1.47.22 1.962.662.492.434.738 1.121.738 2.063v3.762c0 .942-.246 1.634-.738 2.075-.491.434-1.146.65-1.962.65-.817 0-1.471-.216-1.963-.65-.483-.441-.725-1.133-.725-2.075zm1.05 0c0 1.184.546 1.775 1.638 1.775.525 0 .929-.145 1.212-.437.292-.3.438-.746.438-1.338v-3.762c0-.592-.146-1.033-.438-1.325-.283-.3-.687-.45-1.212-.45-1.092 0-1.638.592-1.638 1.775z" fill="#18303f" fill-rule="evenodd"/></svg>