<svg width="25" height="25" viewBox="0 0 25 25" fill="none"><path fill-rule="evenodd" clip-rule="evenodd" d="M8.108 3.183a5.963 5.963 0 0 1 4.393-1.933c1.691 0 3.293.725 4.393 1.933.506-.291 1.079-.433 1.707-.433 1.8 0 3.339 1.275 3.57 3.038.792.129 1.544.58 1.963 1.314a2.855 2.855 0 0 1 0 2.796c-.502.879-1.482 1.352-2.434 1.352h-1.201a.5.5 0 0 1 0-1H21.7c.648 0 1.268-.326 1.566-.848a1.857 1.857 0 0 0 0-1.804c-.298-.522-.918-.848-1.565-.848a.5.5 0 0 1-.5-.5c0-1.403-1.155-2.5-2.6-2.5-.598 0-1.085.168-1.488.49a.5.5 0 0 1-.709-.086 4.95 4.95 0 0 0-3.903-1.904 4.95 4.95 0 0 0-3.904 1.904.5.5 0 0 1-.709.086c-.402-.322-.889-.49-1.487-.49-1.419 0-2.516 1.077-2.601 2.53a.5.5 0 0 1-.499.47c-.648 0-1.269.326-1.567.848a1.857 1.857 0 0 0 0 1.804c.298.522.918.848 1.566.848H5a.5.5 0 0 1 0 1H3.3c-.952 0-1.932-.473-2.434-1.351a2.855 2.855 0 0 1 0-2.797c.423-.74 1.186-1.193 1.985-1.317C3.147 4.05 4.57 2.75 6.401 2.75c.628 0 1.201.142 1.707.433Zm-1.879 9.411v3.612c0 .896.236 1.556.708 1.98.48.424 1.1.636 1.86.636.784 0 1.412-.2 1.884-.6.48-.408.72-.916.72-1.524 0-.216-.04-.364-.12-.444-.08-.08-.208-.12-.384-.12-.312 0-.48.116-.504.348-.024.2-.052.36-.084.48-.032.12-.1.264-.204.432a.912.912 0 0 1-.456.384c-.208.088-.468.132-.78.132-1.088 0-1.632-.568-1.632-1.704v-3.612c0-1.136.532-1.704 1.596-1.704.992 0 1.512.46 1.56 1.38.016.232.184.348.504.348.176 0 .304-.036.384-.108.08-.08.12-.228.12-.444 0-.6-.236-1.096-.708-1.488-.472-.4-1.1-.6-1.884-.6-.768 0-1.392.212-1.872.636-.472.424-.708 1.084-.708 1.98Zm6.375 3.612v-3.612c0-.904.232-1.564.696-1.98.472-.424 1.1-.636 1.884-.636.784 0 1.412.212 1.884.636.472.416.708 1.076.708 1.98v3.612c0 .904-.236 1.568-.708 1.992-.472.416-1.1.624-1.884.624-.784 0-1.412-.208-1.884-.624-.464-.424-.696-1.088-.696-1.992Zm1.008 0c0 1.136.524 1.704 1.572 1.704.504 0 .892-.14 1.164-.42.28-.288.42-.716.42-1.284v-3.612c0-.568-.14-.992-.42-1.272-.272-.288-.66-.432-1.164-.432-1.048 0-1.572.568-1.572 1.704v3.612Zm4.93 6.356v.873c0 .09.045.165.135.225a.54.54 0 0 0 .288.09h3.204c.084 0 .156-.042.216-.126a.504.504 0 0 0 .099-.306.43.43 0 0 0-.099-.288c-.06-.084-.132-.126-.216-.126h-2.646v-.342c0-.186.099-.378.297-.576.204-.198.447-.393.729-.585.288-.198.573-.405.855-.621a3.1 3.1 0 0 0 .729-.801c.204-.318.306-.657.306-1.017 0-.528-.189-.957-.567-1.287-.372-.336-.825-.504-1.359-.504-.504 0-.939.15-1.305.45-.36.294-.54.675-.54 1.143 0 .354.144.531.432.531a.56.56 0 0 0 .36-.108c.096-.072.144-.156.144-.252 0-.294.084-.516.252-.666.168-.15.387-.225.657-.225.318 0 .558.096.72.288a.948.948 0 0 1 .252.657c0 .252-.102.504-.306.756a3.662 3.662 0 0 1-.729.693l-.864.63c-.294.21-.543.444-.747.702-.198.258-.297.522-.297.792Zm.724-11.812a.5.5 0 1 1-1 0 .5.5 0 0 1 1 0Z" fill="#18303F" yggColor="carbon_dioxide"/></svg>