<svg fill="none" height="25" viewBox="0 0 25 25" width="25"><path clip-rule="evenodd" d="m20.974 3.324a.5.5 0 1 0 -.948-.316l-1.367 4.102h-14.16a.5.5 0 0 0 -.478.644l2.668 8.892a.5.5 0 0 0 .479.356h8.888a.5.5 0 0 0 .474-.341l2.948-8.847a.498.498 0 0 0 .03-.093zm-15.802 4.786h13.154l-2.63 7.892h-8.156zm.605 11.946a2.276 2.276 0 1 1 2.276 2.278 2.273 2.273 0 0 1 -2.276-2.277v.001h.5zm2.276-1.274c-.705 0-1.276.571-1.276 1.276v.003a1.273 1.273 0 0 0 1.276 1.273 1.275 1.275 0 1 0 0-2.552zm7.113-1a2.275 2.275 0 0 0 -2.275 2.274l.5.002h-.5a2.272 2.272 0 0 0 2.275 2.276 2.275 2.275 0 1 0 0-4.552zm-1.275 2.276a1.275 1.275 0 1 1 2.55 0 1.275 1.275 0 0 1 -2.55.003z" fill="#18303f" fill-rule="evenodd"/></svg>