<svg width="25" height="25" viewBox="0 0 25 25" fill="none"><g id="cart"><path fill-rule="evenodd" clip-rule="evenodd" d="M20.974 3.324a.5.5 0 1 0-.948-.316L18.659 7.11H4.5a.5.5 0 0 0-.479.644l2.668 8.892a.5.5 0 0 0 .479.356h8.888a.5.5 0 0 0 .474-.341l2.948-8.847a.498.498 0 0 0 .031-.093l1.465-4.397ZM5.172 8.11h13.154l-2.63 7.892H7.54L5.172 8.11Zm.605 11.946a2.276 2.276 0 1 1 2.276 2.278 2.273 2.273 0 0 1-2.276-2.277v.001h.5l-.5-.002Zm2.276-1.274c-.705 0-1.276.571-1.276 1.276v.003a1.273 1.273 0 0 0 1.276 1.273 1.275 1.275 0 1 0 0-2.552Zm7.113-1a2.275 2.275 0 0 0-2.275 2.274l.5.002h-.5a2.272 2.272 0 0 0 2.275 2.276 2.275 2.275 0 1 0 0-4.552Zm-1.275 2.276a1.275 1.275 0 1 1 2.551 0 1.275 1.275 0 0 1-2.551.003v-.003Z" fill="#18303F" yggColor="iconDefault"/></g></svg>