<svg fill="none" height="25" viewBox="0 0 25 25" width="25"><path clip-rule="evenodd" d="m17.542 2.004a4.6 4.6 0 0 0 -4.146 2.604h-1.938a.6.6 0 0 0 -.6.6v.963h-5.65a4.767 4.767 0 0 0 0 9.533h6.25a.6.6 0 0 0 0-1.2h-6.25a3.567 3.567 0 0 1 0-7.133h5.65v.962a.6.6 0 0 0 .6.6h1.938a4.6 4.6 0 0 0 4.146 2.604h3.291a.6.6 0 0 0 .6-.6v-1.483h.442a.6.6 0 1 0 0-1.2h-.442v-2.967h2.004a.6.6 0 1 0 0-1.2h-2.004v-1.483a.6.6 0 0 0 -.6-.6zm-3.4 4.933v-.333a3.4 3.4 0 0 1 3.4-3.4h2.691v7.134h-2.691a3.4 3.4 0 0 1 -3.4-3.4zm-2.084-1.129h.884v1.925h-.884zm-5.808 15.988a.6.6 0 1 0 0 1.2h6.25a.6.6 0 1 0 0-1.2zm17.813-12.469a.625.625 0 1 1 -.884-.883.625.625 0 0 1 .884.883zm-6.355 3.773a4.608 4.608 0 1 0 0 9.217 4.608 4.608 0 0 0 0-9.217zm-5.808 4.608a5.808 5.808 0 1 1 11.617 0 5.808 5.808 0 0 1 -11.617 0zm5.808-1.767a.82.82 0 0 0 -.82.82.6.6 0 1 1 -1.2 0 2.02 2.02 0 1 1 2.62 1.93v.438a.6.6 0 0 1 -1.2 0v-.947a.6.6 0 0 1 .6-.6.82.82 0 0 0 0-1.641zm0 4.482a.6.6 0 0 1 .6.6v.094a.6.6 0 0 1 -1.2 0v-.094a.6.6 0 0 1 .6-.6z" fill="#18303f" fill-rule="evenodd"/></svg>