<svg width="26" height="26" viewBox="0 0 26 26" fill="none"><g id="charger_disabled"><path fill-rule="evenodd" clip-rule="evenodd" d="M25.854 25.146a.5.5 0 0 1-.708.708L8.478 9.186H5.61c-.898 0-1.795.253-2.467.789-.657.524-1.138 1.35-1.175 2.589-.031 1.07.437 1.896 1.135 2.467.71.58 1.65.89 2.507.89h7.126c1.484 0 2.62.33 3.388 1.02.778.7 1.09 1.692 1.09 2.817 0 1.168-.438 2.095-1.154 2.724-.707.622-1.65.922-2.62.922H9.288a.5.5 0 1 1 0-1h4.152c.772 0 1.466-.239 1.96-.673.485-.426.814-1.072.814-1.973 0-.945-.258-1.622-.759-2.073-.511-.46-1.363-.764-2.72-.764H5.61a5.064 5.064 0 0 1-3.14-1.116C1.56 15.062.926 13.95.968 12.535c.044-1.516.65-2.623 1.55-3.342.887-.707 2.02-1.007 3.091-1.007h1.87L.145.854A.5.5 0 1 1 .854.146l8.039 8.04h2.293l.01-1.175a.5.5 0 0 1 .496-.496l1.653-.014c.079-.001.154.017.22.049.692-1.59 2.205-2.751 4.02-2.85h.022l3.252-.028c.143-.002.297.015.453.074.16.06.293.153.411.27.118.119.211.253.271.412.058.155.075.308.074.45l.002 1.17 2.095-.018a.5.5 0 1 1 .008 1l-2.101.018.005 3.114.615-.005a.5.5 0 1 1 .009 1l-.622.005.002.956v.005a1.209 1.209 0 0 1-1.213 1.213c-.302.003-.707.001-1.17 0h-.012l-.26-.002c-.577-.002-1.228-.003-1.885.002h-.023a4.563 4.563 0 0 1-4-2.72.5.5 0 0 1-.192.04l-1.653.014a.5.5 0 0 1-.504-.504l.008-.98H9.893l15.96 15.96ZM13.224 9.657a4.441 4.441 0 0 1-.062-1.12c-.003-.354.032-.7.102-1.036l-1.072.01-.019 2.155 1.051-.009Zm7.643-4.985a.26.26 0 0 1 .092.01.164.164 0 0 1 .057.042c.033.034.04.05.042.057.003.008.01.031.01.091v.006l.013 7.239c-.002.132-.09.218-.222.22-.298.002-.699 0-1.167-.002h-.262a151.61 151.61 0 0 0-1.886.001c-1.958-.078-3.533-1.758-3.383-3.746a.504.504 0 0 0 .001-.045c-.027-2.029 1.518-3.734 3.466-3.845l3.24-.028Zm3.06 6.353a.5.5 0 1 0 .706-.706.5.5 0 0 0-.707.706Z" fill="#18303F" yggColor="iconDefault"/></g></svg>