<svg width="25" height="25" viewBox="0 0 25 25" fill="none"><g id="charger_question"><path fill-rule="evenodd" clip-rule="evenodd" d="M17.542 2.004a4.6 4.6 0 0 0-4.146 2.604h-1.938a.6.6 0 0 0-.6.6v.963h-5.65a4.767 4.767 0 0 0 0 9.533h6.25a.6.6 0 0 0 0-1.2h-6.25a3.567 3.567 0 0 1 0-7.133h5.65v.962a.6.6 0 0 0 .6.6h1.938a4.6 4.6 0 0 0 4.146 2.604h3.291a.6.6 0 0 0 .6-.6V9.454h.442a.6.6 0 1 0 0-1.2h-.442V5.287h2.005a.6.6 0 1 0 0-1.2h-2.005V2.604a.6.6 0 0 0-.6-.6h-3.291Zm-3.4 4.933v-.333a3.4 3.4 0 0 1 3.4-3.4h2.691v7.134h-2.691a3.4 3.4 0 0 1-3.4-3.4Zm-2.084-1.129h.884v1.925h-.884V5.808ZM6.25 21.796a.6.6 0 1 0 0 1.2h6.25a.6.6 0 1 0 0-1.2H6.25ZM24.063 9.327a.625.625 0 1 1-.884-.883.625.625 0 0 1 .884.883ZM17.708 13.1a4.608 4.608 0 1 0 0 9.217 4.608 4.608 0 0 0 0-9.217ZM11.9 17.708a5.808 5.808 0 1 1 11.617 0 5.808 5.808 0 0 1-11.617 0Zm5.808-1.767a.82.82 0 0 0-.82.82.6.6 0 0 1-1.2 0 2.02 2.02 0 1 1 2.62 1.93v.438a.6.6 0 0 1-1.2 0v-.947a.6.6 0 0 1 .6-.6.82.82 0 1 0 0-1.641Zm0 4.482a.6.6 0 0 1 .6.6v.094a.6.6 0 1 1-1.2 0v-.094a.6.6 0 0 1 .6-.6Z" fill="#18303F" yggColor="iconDefault"/></g></svg>