<svg fill="none" height="25" viewBox="0 0 25 25" width="25"><g clip-rule="evenodd" fill="#18303f" fill-rule="evenodd"><path d="m6.792 5.208a1.542 1.542 0 1 1 3.083 0 1.542 1.542 0 0 1 -3.083 0zm1.541-.541a.542.542 0 1 0 0 1.083.542.542 0 0 0 0-1.083zm8.334-1a1.542 1.542 0 1 0 0 3.083 1.542 1.542 0 0 0 0-3.083zm-.542 1.541a.542.542 0 1 1 1.083 0 .542.542 0 0 1 -1.083 0zm-1 5.209a.5.5 0 0 1 .5-.5h2.083a.5.5 0 0 1 .5.5v1.583h.542a.5.5 0 0 1 .5.5v2.083a.5.5 0 0 1 -.5.5h-4.167a.5.5 0 0 1 -.5-.5v-2.083a.5.5 0 0 1 .5-.5h.542zm2.083.5v1.083h-1.083v-1.083zm-2.125 2.083h3.167v1.083h-3.167zm-8.291 0h-.542a.5.5 0 0 1 -.5-.5v-2.083a.5.5 0 0 1 .5-.5h4.167a.5.5 0 0 1 .5.5v2.083a.5.5 0 0 1 -.5.5h-.542v1.583a.5.5 0 0 1 -.5.5h-2.083a.5.5 0 0 1 -.5-.5zm1 0v1.083h1.083v-1.083zm2.125-1v-1.083h-3.167v1.083zm-3.125 7.792a1.542 1.542 0 1 1 3.083 0 1.542 1.542 0 0 1 -3.083 0zm1.541-.542a.542.542 0 1 0 0 1.083.542.542 0 0 0 0-1.083zm8.334-1a1.542 1.542 0 1 0 0 3.083 1.542 1.542 0 0 0 0-3.083zm-.542 1.542a.542.542 0 1 1 1.083 0 .542.542 0 0 1 -1.083 0z"/><path d="m21.333 7.833v-4.75a1.5 1.5 0 0 0 -1.5-1.5h-14.666a1.5 1.5 0 0 0 -1.5 1.5v4.75h-.584a1.5 1.5 0 0 0 -1.5 1.5v6.334a1.5 1.5 0 0 0 1.5 1.5h.584v4.75a1.5 1.5 0 0 0 1.5 1.5h14.666a1.5 1.5 0 0 0 1.5-1.5v-4.75h.584a1.5 1.5 0 0 0 1.5-1.5v-6.334a1.5 1.5 0 0 0 -1.5-1.5zm-16.166-5.25a.5.5 0 0 0 -.5.5v4.75h7.333v-5.25zm7.833 5.25h7.333v-4.75a.5.5 0 0 0 -.5-.5h-6.833zm-9.917 1a.5.5 0 0 0 -.5.5v6.334a.5.5 0 0 0 .5.5h18.834a.5.5 0 0 0 .5-.5v-6.334a.5.5 0 0 0 -.5-.5zm2.084 13.584a.5.5 0 0 1 -.5-.5v-4.75h7.333v5.25zm7.833 0v-5.25h7.333v4.75a.5.5 0 0 1 -.5.5z"/></g></svg>