<svg fill="none" height="25" viewBox="0 0 25 25" width="25"><path clip-rule="evenodd" d="m6.792 5.208a1.542 1.542 0 1 1 3.083 0 1.542 1.542 0 0 1 -3.083 0zm1.541-.542a.542.542 0 1 0 0 1.084.542.542 0 0 0 0-1.084zm8.334-1a1.542 1.542 0 1 0 0 3.084 1.542 1.542 0 0 0 0-3.084zm-.542 1.542a.542.542 0 1 1 1.083 0 .542.542 0 0 1 -1.083 0zm-1 5.208a.5.5 0 0 1 .5-.5h2.083a.5.5 0 0 1 .5.5v1.584h.542a.5.5 0 0 1 .5.5v2.083a.5.5 0 0 1 -.5.5h-4.167a.5.5 0 0 1 -.5-.5v-2.083a.5.5 0 0 1 .5-.5h.542zm2.083.5v1.084h-1.083v-1.084zm-2.125 2.084h3.167v1.083h-3.167zm-8.291 0h-.542a.5.5 0 0 1 -.5-.5v-2.084a.5.5 0 0 1 .5-.5h4.167a.5.5 0 0 1 .5.5v2.084a.5.5 0 0 1 -.5.5h-.542v1.583a.5.5 0 0 1 -.5.5h-2.083a.5.5 0 0 1 -.5-.5zm1 0v1.083h1.083v-1.083zm2.125-1v-1.084h-3.167v1.084zm-3.125 7.79a1.542 1.542 0 1 1 3.083 0 1.542 1.542 0 0 1 -3.083 0zm1.541-.541a.542.542 0 1 0 0 1.083.542.542 0 0 0 0-1.083zm8.334-1a1.542 1.542 0 1 0 0 3.083 1.542 1.542 0 0 0 0-3.083zm-.542 1.541a.542.542 0 1 1 1.083 0 .542.542 0 0 1 -1.083 0zm5.208-11.958v-4.75a1.5 1.5 0 0 0 -1.5-1.5h-14.666a1.5 1.5 0 0 0 -1.5 1.5v4.75h-.584a1.5 1.5 0 0 0 -1.5 1.5v6.333a1.5 1.5 0 0 0 1.5 1.5h.584v4.75a1.5 1.5 0 0 0 1.5 1.5h14.666a1.5 1.5 0 0 0 1.5-1.5v-4.75h.584a1.5 1.5 0 0 0 1.5-1.5v-6.332a1.5 1.5 0 0 0 -1.5-1.5h-.584zm-16.166-5.249a.5.5 0 0 0 -.5.5v4.75h7.333v-5.25zm7.833 5.25h7.333v-4.75a.5.5 0 0 0 -.5-.5h-6.833zm-9.917 1a.5.5 0 0 0 -.5.5v6.333a.5.5 0 0 0 .5.5h18.834a.5.5 0 0 0 .5-.5v-6.333a.5.5 0 0 0 -.5-.5zm2.084 13.583a.5.5 0 0 1 -.5-.5v-4.75h7.333v5.25zm7.833 0v-5.25h7.333v4.75a.5.5 0 0 1 -.5.5z" fill="#18303f" fill-rule="evenodd"/></svg>