<svg width="25" height="25" viewBox="0 0 25 25" fill="none"><g id="circuit_breaker"><path fill-rule="evenodd" clip-rule="evenodd" d="M6.792 5.208a1.542 1.542 0 1 1 3.083 0 1.542 1.542 0 0 1-3.083 0Zm1.541-.542a.542.542 0 1 0 0 1.084.542.542 0 0 0 0-1.084Zm8.334-1a1.542 1.542 0 1 0 0 3.084 1.542 1.542 0 0 0 0-3.084Zm-.542 1.542a.542.542 0 1 1 1.083 0 .542.542 0 0 1-1.083 0Zm-1 5.208a.5.5 0 0 1 .5-.5h2.083a.5.5 0 0 1 .5.5V12h.542a.5.5 0 0 1 .5.5v2.083a.5.5 0 0 1-.5.5h-4.167a.5.5 0 0 1-.5-.5V12.5a.5.5 0 0 1 .5-.5h.542v-1.584Zm2.083.5V12h-1.083v-1.084h1.083ZM15.083 13h3.167v1.083h-3.167V13Zm-8.291 0H6.25a.5.5 0 0 1-.5-.5v-2.084a.5.5 0 0 1 .5-.5h4.167a.5.5 0 0 1 .5.5V12.5a.5.5 0 0 1-.5.5h-.542v1.583a.5.5 0 0 1-.5.5H7.292a.5.5 0 0 1-.5-.5V13Zm1 0v1.083h1.083V13H7.792Zm2.125-1v-1.084H6.75V12h3.167ZM6.792 19.79a1.542 1.542 0 1 1 3.083 0 1.542 1.542 0 0 1-3.083 0Zm1.541-.541a.542.542 0 1 0 0 1.083.542.542 0 0 0 0-1.083Zm8.334-1a1.542 1.542 0 1 0 0 3.083 1.542 1.542 0 0 0 0-3.083Zm-.542 1.541a.542.542 0 1 1 1.083 0 .542.542 0 0 1-1.083 0Zm5.208-11.958v-4.75a1.5 1.5 0 0 0-1.5-1.5H5.167a1.5 1.5 0 0 0-1.5 1.5v4.75h-.584a1.5 1.5 0 0 0-1.5 1.5v6.333a1.5 1.5 0 0 0 1.5 1.5h.584v4.75a1.5 1.5 0 0 0 1.5 1.5h14.666a1.5 1.5 0 0 0 1.5-1.5v-4.75h.584a1.5 1.5 0 0 0 1.5-1.5V9.333a1.5 1.5 0 0 0-1.5-1.5h-.584ZM5.167 2.583a.5.5 0 0 0-.5.5v4.75H12v-5.25H5.167ZM13 7.833h7.333v-4.75a.5.5 0 0 0-.5-.5H13v5.25Zm-9.917 1a.5.5 0 0 0-.5.5v6.333a.5.5 0 0 0 .5.5h18.834a.5.5 0 0 0 .5-.5V9.333a.5.5 0 0 0-.5-.5H3.083Zm2.084 13.583a.5.5 0 0 1-.5-.5v-4.75H12v5.25H5.167Zm7.833 0v-5.25h7.333v4.75a.5.5 0 0 1-.5.5H13Z" fill="#18303F" yggColor="iconDefault"/></g></svg>