<svg fill="none" height="25" viewBox="0 0 25 25" width="25"><path clip-rule="evenodd" d="m10.949 1c-1.361 0-2.5 1.06-2.5 2.413v12.669c-1.199.77-2 2.085-2 3.592 0 2.41 2.035 4.326 4.5 4.326 2.464 0 4.5-1.916 4.5-4.326 0-1.507-.803-2.821-2-3.592v-12.669c0-1.353-1.139-2.413-2.5-2.413zm-1.5 2.413c0-.76.65-1.413 1.5-1.413s1.5.653 1.5 1.413v12.952a.5.5 0 0 0 .258.438c1.049.581 1.742 1.654 1.742 2.87 0 1.817-1.546 3.327-3.5 3.327-1.955 0-3.5-1.51-3.5-3.326 0-1.218.692-2.29 1.742-2.871a.5.5 0 0 0 .258-.438zm1.5 2.313a.5.5 0 1 0 0-1 .5.5 0 0 0 0 1zm-.992 13.948c0-.557.464-.971.992-.971.527 0 .992.414.992.97 0 .558-.465.972-.992.972-.528 0-.992-.414-.992-.971zm.996.018a.059.059 0 0 0 .004-.018.059.059 0 0 0 -.004-.019l-.004-.006-.002.002-.002.004a.06.06 0 0 0 -.004.019.06.06 0 0 0 .004.019l.002.003.002.003.002-.004zm.496-12.466a.5.5 0 1 1 -1 0 .5.5 0 0 1 1 0zm0 2a.5.5 0 1 1 -1 0 .5.5 0 0 1 1 0zm0 2a.5.5 0 1 1 -1 0 .5.5 0 0 1 1 0zm0 2a.5.5 0 1 1 -1 0 .5.5 0 0 1 1 0zm0 2a.5.5 0 1 1 -1 0 .5.5 0 0 1 1 0zm0 2a.5.5 0 1 1 -1 0 .5.5 0 0 1 1 0zm3.102-13.813a.5.5 0 0 1 .5-.5h1a.5.5 0 0 1 0 1h-1a.5.5 0 0 1 -.5-.5zm.5 4.283a.5.5 0 1 0 0 1h3a.5.5 0 0 0 0-1zm-.5 5.281a.5.5 0 0 1 .5-.5h1a.5.5 0 0 1 0 1h-1a.5.5 0 0 1 -.5-.5z" fill="#18303f" fill-rule="evenodd"/></svg>