<svg width="25" height="25" viewBox="0 0 25 25" fill="none"><g id="closet"><path fill-rule="evenodd" clip-rule="evenodd" d="M6.752 22.083v-.333h11.5v.333a.5.5 0 0 0 1 0v-.333h.332c.364 0 .706-.123.957-.375.253-.253.375-.595.375-.958V3.75c0-.364-.122-.705-.375-.958a1.332 1.332 0 0 0-.957-.375H5.416c-.363 0-.705.123-.957.375a1.33 1.33 0 0 0-.375.958v16.667c0 .363.123.705.376.957.252.253.593.376.957.376h.335v.333a.5.5 0 0 0 1 0ZM5.167 3.5c-.04.04-.083.115-.083.251v16.667c0 .136.043.21.083.25.038.04.114.083.25.083h6.585V3.417H5.415c-.136 0-.21.043-.25.082Zm7.835-.082V20.75H19.584c.136 0 .21-.043.25-.083.04-.04.082-.114.082-.25V3.75c0-.136-.043-.211-.082-.25-.04-.04-.114-.083-.25-.083h-6.582Zm-1.875 8.666c0-.251-.252-.502-.503-.502-.25 0-.502.25-.502.502 0 .251.251.502.502.502s.503-.25.503-.502Zm3.255-.502c.252 0 .502.25.502.502 0 .251-.25.502-.502.502-.25 0-.502-.25-.502-.502 0-.251.252-.502.502-.502Z" fill="#B35F02" yggColor="iconWarning"/></g></svg>