<svg fill="none" height="25" viewBox="0 0 25 25" width="25"><path clip-rule="evenodd" d="m6.752 22.083v-.333h11.5v.333a.5.5 0 0 0 1 0v-.333h.332c.364 0 .706-.123.957-.375.253-.253.375-.595.375-.958v-16.667c0-.364-.122-.705-.375-.958a1.332 1.332 0 0 0 -.957-.375h-14.168c-.363 0-.705.123-.957.375a1.33 1.33 0 0 0 -.375.958v16.667c0 .363.123.705.376.957.252.253.593.376.957.376h.335v.333a.5.5 0 0 0 1 0zm-1.585-18.583c-.04.04-.083.115-.083.251v16.667c0 .136.043.21.083.25.038.04.114.083.25.083h6.585v-17.334h-6.587c-.136 0-.21.043-.25.082zm7.835-.082v17.332h6.582c.136 0 .21-.043.25-.083s.082-.114.082-.25v-16.667c0-.136-.043-.211-.082-.25-.04-.04-.114-.083-.25-.083h-6.582zm-1.875 8.666c0-.251-.252-.502-.503-.502-.25 0-.502.25-.502.502 0 .251.251.502.502.502s.503-.25.503-.502zm3.255-.502c.252 0 .502.25.502.502 0 .251-.25.502-.502.502-.25 0-.502-.25-.502-.502 0-.251.252-.502.502-.502z" fill="#18303f" fill-rule="evenodd"/></svg>