<svg width="25" height="25" viewBox="0 0 25 25" fill="none"><g id="cloud"><path fill-rule="evenodd" clip-rule="evenodd" d="M6.77 9.648C7.724 7.74 9.741 5.73 12.478 5.73c2.77 0 6.21 2.329 6.337 6.402a.503.503 0 0 0 .568.48c1.161-.16 2.141.067 2.826.654.682.585 1.16 1.604 1.16 3.22 0 .77-.19 1.29-.468 1.656-.28.368-.683.624-1.183.799-.96.334-2.152.332-3.212.33h-.229a.5.5 0 0 0 0 1h.255c1.024.003 2.385.008 3.515-.386.628-.219 1.22-.57 1.65-1.139.434-.571.672-1.317.672-2.26 0-1.81-.54-3.148-1.509-3.978-.836-.718-1.922-.998-3.079-.938-.416-4.36-4.196-6.84-7.303-6.84-3.123 0-5.358 2.18-6.46 4.202-1.71.073-3.032.757-3.94 1.778C1.123 11.78.651 13.194.63 14.589c-.02 1.396.41 2.81 1.307 3.885.906 1.085 2.27 1.796 4.04 1.796h7.137a.5.5 0 0 0 0-1H5.978c-1.479 0-2.559-.583-3.273-1.437-.723-.865-1.09-2.037-1.074-3.228.018-1.19.421-2.363 1.193-3.232.764-.858 1.914-1.448 3.5-1.448.19 0 .362-.107.446-.277Zm8.825 10.623a.5.5 0 1 0 .001-1 .5.5 0 0 0 0 1Z" fill="#18303F" yggColor="iconDefault"/></g></svg>