<svg width="25" height="25" viewBox="0 0 25 25" fill="none"><g id="color"><path fill-rule="evenodd" clip-rule="evenodd" d="M13.232 1.016c-1.802-.24-3.33 1.085-3.562 2.83a.486.486 0 0 0-.005.066v.6c0 .02.002.039.004.058l.634 5.442H5.365a2.506 2.506 0 0 0-2.5 2.5v1.5c0 .263.09.522.284.716.12.12.263.2.417.243v2.84c0 1.613-.466 3.32-1.295 4.634a1.062 1.062 0 0 0-.117.713c.049.246.188.472.417.64a.843.843 0 0 0 .603.214h1.482c1.159 0 2.184-.592 2.854-1.504a.54.54 0 0 0 .033-.052c.292-.52.625-1.096.928-1.615v2.17c0 .212.105.366.19.454.084.088.181.15.263.193.165.088.364.152.543.2.356.094.77.154.974.154h10.787a.986.986 0 0 0 .713-.288c.19-.194.279-.451.279-.712v-8.058a.951.951 0 0 0 .361-.226.998.998 0 0 0 .285-.716v-1.5c0-1.376-1.125-2.5-2.5-2.5h-4.938l.633-5.438c.238-1.8-1.085-3.325-2.83-3.558Zm-2.79 21.996h1.924v-3.5a.5.5 0 0 1 1 0v3.5h7.854v-8H4.566v2.8c0 1.774-.505 3.652-1.428 5.133a.03.03 0 0 0-.002.004v.005a.039.039 0 0 0 0 .012v.002c.002.002.01.014.034.03a.244.244 0 0 1 .02.014h1.466c.792 0 1.525-.399 2.03-1.073.392-.697.853-1.488 1.216-2.106l.022-.038.435-.736.134-.224.048-.08a.5.5 0 0 1 .93.257v3.798a3.806 3.806 0 0 0 .971.202Zm11.285-9h.139v-1.5c0-.824-.677-1.5-1.5-1.5h-5.5a.5.5 0 0 1-.498-.558l.7-6 .002-.008c.16-1.199-.716-2.271-1.97-2.439-1.188-.158-2.253.702-2.434 1.94v.536l.697 5.97a.502.502 0 0 1-.497.559h-5.5c-.824 0-1.5.676-1.5 1.5v1.5h17.862ZM13.366 4.21a.5.5 0 1 1-1 0 .5.5 0 0 1 1 0Z" fill="#18303F" yggColor="iconDefault"/></g></svg>