<svg fill="none" height="25" viewBox="0 0 25 25" width="25"><path clip-rule="evenodd" d="m13.232 1.016c-1.802-.24-3.33 1.085-3.562 2.83a.486.486 0 0 0 -.004.066v.6c0 .02 0 .039.003.058l.634 5.442h-4.937a2.506 2.506 0 0 0 -2.5 2.5v1.5c0 .264.09.522.284.716.119.12.263.2.417.243v2.84c0 1.614-.467 3.32-1.296 4.634a1.062 1.062 0 0 0 -.117.713c.049.246.188.472.418.64a.843.843 0 0 0 .602.214h1.482c1.159 0 2.184-.592 2.854-1.504a.528.528 0 0 0 .033-.052c.292-.52.625-1.096.928-1.615v2.17c0 .213.105.366.19.454.084.088.182.15.264.193.165.088.364.152.543.2.356.094.768.154.973.154h10.787a.986.986 0 0 0 .713-.288c.19-.194.279-.451.279-.712v-8.058a.951.951 0 0 0 .361-.226.998.998 0 0 0 .285-.716v-1.5c0-1.376-1.125-2.5-2.5-2.5h-4.938l.634-5.438c.238-1.8-1.087-3.325-2.83-3.558zm-2.79 21.996h1.924v-3.5a.5.5 0 0 1 1 0v3.5h7.854v-8h-16.653v2.8c0 1.774-.506 3.652-1.43 5.133a.03.03 0 0 0 0 .005l-.001.004a.039.039 0 0 0 0 .012v.002c.002.002.01.014.035.03a.244.244 0 0 1 .019.014h1.466c.792 0 1.525-.399 2.03-1.073.392-.697.853-1.488 1.216-2.106l.022-.038.436-.736.133-.223.049-.081a.5.5 0 0 1 .929.257v3.798c.064.026.15.054.253.081.306.081.627.12.717.12zm11.285-9h.139v-1.5c0-.824-.677-1.5-1.5-1.5h-5.5a.5.5 0 0 1 -.498-.558l.7-6 .002-.008c.16-1.198-.716-2.271-1.97-2.438-1.188-.159-2.253.7-2.434 1.94v.535l.697 5.971a.502.502 0 0 1 -.497.558h-5.5c-.824 0-1.5.676-1.5 1.5v1.5zm-8.361-9.8a.5.5 0 1 1 -1-.001.5.5 0 0 1 1 0z" fill="#18303f" fill-rule="evenodd"/></svg>