<svg fill="none" height="25" viewBox="0 0 25 25" width="25"><path clip-rule="evenodd" d="m13.231 1.016c-1.801-.24-3.329 1.085-3.561 2.83a.486.486 0 0 0 -.004.066v.6c0 .02.001.039.003.058l.635 5.442h-4.939a2.506 2.506 0 0 0 -2.5 2.5v1.5c0 .264.09.522.284.716.12.12.263.2.417.243v2.84c0 1.614-.467 3.32-1.296 4.634a1.062 1.062 0 0 0 -.117.713c.05.246.188.472.418.64a.843.843 0 0 0 .602.214h1.482c1.16 0 2.184-.592 2.854-1.504a.528.528 0 0 0 .033-.052c.292-.52.625-1.096.928-1.615v2.17c0 .213.105.366.19.454.084.088.182.15.264.193.165.088.364.152.543.2.356.094.77.154.974.154h10.787a.986.986 0 0 0 .713-.288c.19-.194.278-.451.278-.712v-8.058a.951.951 0 0 0 .362-.226.998.998 0 0 0 .284-.716v-1.5c0-1.376-1.124-2.5-2.5-2.5h-4.938l.634-5.438c.238-1.8-1.086-3.325-2.83-3.558zm-2.79 21.996h1.924v-3.5a.5.5 0 0 1 1 0v3.5h7.854v-8h-16.653v2.8c0 1.774-.506 3.652-1.429 5.133a.03.03 0 0 0 0 .005l-.002.004a.039.039 0 0 0 0 .012l.001.002c.001.002.01.014.034.03a.244.244 0 0 1 .02.014h1.465c.792 0 1.525-.399 2.031-1.073.391-.697.852-1.488 1.215-2.106l.023-.038.435-.736.133-.223.05-.081a.5.5 0 0 1 .928.257v3.798c.064.026.15.054.253.081.306.081.628.12.718.12zm11.286-9h.138v-1.5c0-.824-.676-1.5-1.5-1.5h-5.5a.5.5 0 0 1 -.497-.558l.7-6 .001-.008c.16-1.198-.715-2.271-1.97-2.438-1.188-.159-2.253.7-2.434 1.94v.535l.697 5.971a.502.502 0 0 1 -.497.558h-5.5c-.824 0-1.5.676-1.5 1.5v1.5zm-8.361-9.8a.5.5 0 1 1 -1-.001.5.5 0 0 1 1 0z" fill="#18303f" fill-rule="evenodd"/></svg>