<svg fill="none" height="25" viewBox="0 0 25 25" width="25"><path clip-rule="evenodd" d="m15.92 3.28c0-.128.173-.415.66-.415h5.146c.486 0 .66.287.66.415v18.84a.207.207 0 0 1 -.08.015h-8.833a.5.5 0 0 0 0 1h8.833c.481 0 1.08-.323 1.08-.958v-18.897c0-.889-.857-1.415-1.66-1.415h-5.146c-.803 0-1.66.526-1.66 1.415v2.235c0 .016 0 .031.002.047v.912a.214.214 0 0 1 -.08.014h-2.695c-.802 0-1.66.524-1.66 1.412l.001 3.441a.214.214 0 0 1 -.08.014h-2.696c-.802 0-1.66.524-1.66 1.412l.001 3.34a.21.21 0 0 1 -.08.014h-2.695c-.802 0-1.66.523-1.66 1.411v3.126a.5.5 0 0 0 1 0v-3.126c0-.124.172-.411.66-.411h2.695c.478 0 1.08-.32 1.08-.955l-.002-3.399c0-.124.173-.412.661-.412h2.695c.478 0 1.08-.32 1.08-.955l-.002-3.5c0-.125.173-.412.661-.412h2.695c.478 0 1.08-.32 1.08-.955v-3.05a.723.723 0 0 0 -.002-.047v-.156zm-11.569 18.855a.5.5 0 1 0 0 1h1.066a.5.5 0 1 0 0-1h-1.065zm-2.235 1a.5.5 0 1 0 0-1 .5.5 0 0 0 0 1z" fill="#18303f" fill-rule="evenodd"/></svg>