<svg fill="none" height="25" viewBox="0 0 25 25" width="25"><g fill="#038c6a"><path clip-rule="evenodd" d="m8.207 6.333a.5.5 0 0 0 -.5-.5l-.036.001a.525.525 0 0 0 -.206.061.504.504 0 0 0 -.258.438v3.084h-.164c-.693 0-1.25.557-1.25 1.25s.557 1.25 1.25 1.25h.164v2.417a.5.5 0 1 0 1 0v-2.417h.253c.692 0 1.25-.557 1.25-1.25s-.558-1.25-1.25-1.25h-.253zm.253 4.584c.14 0 .25-.11.25-.25s-.11-.25-.25-.25h-1.417c-.141 0-.25.11-.25.25s.109.25.25.25zm3.497-1.167v4.584a.507.507 0 0 0 .107.309.498.498 0 0 0 .886-.23l.005-.03a.49.49 0 0 0 .002-.05v-4.583h.253c.692 0 1.25-.557 1.25-1.25s-.558-1.25-1.25-1.25h-.253v-.917a.5.5 0 0 0 -1 0v.917h-.164c-.693 0-1.25.557-1.25 1.25 0 .654.52 1.25 1.167 1.25zm-.338-1.058c.049.054.091.058.091.058h1.5c.14 0 .25-.11.25-.25s-.11-.25-.25-.25h-1.417a.248.248 0 0 0 -.25.25c0 .074.03.142.076.192zm5.088 5.642v-.917h-.25c-.693 0-1.25-.557-1.25-1.25s.557-1.25 1.25-1.25h.25v-4.584a.498.498 0 0 1 .5-.5.5.5 0 0 1 .5.5v4.584h.167c.692 0 1.25.557 1.25 1.25s-.558 1.25-1.25 1.25h-.167v.917a.5.5 0 1 1 -1 0zm1.417-2.167a.255.255 0 0 1 -.013.081l-.01.025a.256.256 0 0 1 -.037.059l-.02.02a.25.25 0 0 1 -.17.065h-1.417a.247.247 0 0 1 -.25-.25c0-.14.109-.25.25-.25h1.417c.14 0 .25.11.25.25zm-.916 3.833c-.859 0-1.583.724-1.583 1.584 0 .859.724 1.582 1.583 1.582.86 0 1.584-.723 1.584-1.582 0-.86-.724-1.584-1.584-1.584zm-.309 1.096a.564.564 0 0 1 .309-.096c.307 0 .584.276.584.584a.604.604 0 0 1 -.584.582.603.603 0 0 1 -.583-.582.55.55 0 0 1 .065-.256.635.635 0 0 1 .21-.232zm-4.441-1.096c-.859 0-1.583.724-1.583 1.584 0 .859.724 1.582 1.583 1.582.86 0 1.584-.723 1.584-1.582 0-.86-.724-1.584-1.584-1.584zm-.583 1.584c0-.308.276-.584.583-.584s.584.276.584.584a.604.604 0 0 1 -.584.582.603.603 0 0 1 -.583-.582zm-4.167-1.584c-.859 0-1.583.724-1.583 1.584 0 .859.724 1.582 1.583 1.582.86 0 1.584-.723 1.584-1.582 0-.86-.724-1.584-1.584-1.584zm-.583 1.584c0-.308.276-.584.583-.584s.584.276.584.584a.604.604 0 0 1 -.584.582.603.603 0 0 1 -.583-.582z" fill-rule="evenodd"/><path clip-rule="evenodd" d="m12.457 1.25a.5.5 0 0 1 .5.5v1.917h7.168c.693 0 1.25.557 1.25 1.25v15.25c0 .693-.557 1.25-1.25 1.25h-2.082v1.833a.5.5 0 0 1 -.94.238l-.02-.04a.49.49 0 0 1 -.028-.088l-.008-.045a.507.507 0 0 1 -.004-.065v-1.833h-9.168v1.833a.499.499 0 0 1 -.862.344.499.499 0 0 1 -.138-.344v-1.833h-2c-.693 0-1.25-.557-1.25-1.25v-15.25c0-.693.557-1.25 1.25-1.25h7.082v-1.917a.5.5 0 0 1 .5-.5zm-7.582 3.417a.248.248 0 0 0 -.248.219l-.002.031v15.25c0 .14.109.25.25.25h15.25c.14 0 .25-.11.25-.25v-15.25a.249.249 0 0 0 -.25-.25z" fill-rule="evenodd"/><path d="m7.875 2.25a.5.5 0 1 1 -1 0 .5.5 0 0 1 1 0zm5.082 20.5a.5.5 0 1 1 -1 0 .5.5 0 0 1 1 0zm5.086-20.5a.5.5 0 1 1 -1 0 .5.5 0 0 1 1 0z"/></g></svg>