<svg fill="none" height="25" viewBox="0 0 25 25" width="25"><path clip-rule="evenodd" d="m6.697 3.329a1.5 1.5 0 0 1 1.5-1.5h8.663a1.5 1.5 0 0 1 1.5 1.5v16.46h.333c.346 0 .678.14.922.386s.38.579.38.925v1.174a.9.9 0 0 1 -.893.898h-13.222a.891.891 0 0 1 -.875-.898v-1.174c0-.346.136-.679.38-.925s.576-.385.922-.385h.39zm10.663 0v16.46h-9.663v-16.459a.5.5 0 0 1 .5-.5h8.663a.5.5 0 0 1 .5.5zm-11.264 17.55a.298.298 0 0 1 .211-.09h12.386c.078 0 .154.032.211.09.058.057.09.137.09.22v1.073h-12.988v-1.072c0-.084.033-.164.09-.221zm8.046-9.906a.5.5 0 0 1 .5-.5h.914a.5.5 0 0 1 .5.52v.92a.5.5 0 0 1 -1 0v-.44h-.414a.5.5 0 0 1 -.5-.5zm1.42 1.912c.25 0 .5.25.5.5s-.25.5-.5.5-.5-.25-.5-.5.25-.5.5-.5z" fill="#18303f" fill-rule="evenodd"/></svg>