<svg width="25" height="25" viewBox="0 0 25 25" fill="none"><g id="corridor"><path fill-rule="evenodd" clip-rule="evenodd" d="M6.697 3.329a1.5 1.5 0 0 1 1.5-1.5h8.663a1.5 1.5 0 0 1 1.5 1.5v16.46h.333c.346 0 .678.14.922.386s.38.579.38.925v1.174a.9.9 0 0 1-.893.898H5.88a.891.891 0 0 1-.875-.898V21.1c0-.346.136-.679.38-.925s.576-.385.922-.385h.39V3.329Zm10.663 0v16.46H7.697V3.33a.5.5 0 0 1 .5-.5h8.663a.5.5 0 0 1 .5.5ZM6.096 20.879a.298.298 0 0 1 .211-.09h12.386c.078 0 .154.032.211.09.058.057.09.137.09.22v1.073H6.006V21.1c0-.084.033-.164.09-.221Zm8.046-9.906a.5.5 0 0 1 .5-.5h.914a.5.5 0 0 1 .5.52v.92a.5.5 0 0 1-1 0v-.44h-.414a.5.5 0 0 1-.5-.5Zm1.42 1.912c.25 0 .5.25.5.5s-.25.5-.5.5-.5-.25-.5-.5.25-.5.5-.5Z" fill="#F28102" yggColor="backgroundWarningDefault"/></g></svg>