<svg width="15" height="15" viewBox="0 0 15 15" fill="none" xmlns="http://www.w3.org/2000/svg">
<path fill-rule="evenodd" clip-rule="evenodd" d="M2.73483 2.73483C2.88128 2.58839 3.11872 2.58839 3.26517 2.73483L7.5 6.96967L11.7348 2.73483C11.8813 2.58839 12.1187 2.58839 12.2652 2.73483C12.4116 2.88128 12.4116 3.11872 12.2652 3.26517L8.03033 7.5L12.2652 11.7348C12.4116 11.8813 12.4116 12.1187 12.2652 12.2652C12.1187 12.4116 11.8813 12.4116 11.7348 12.2652L7.5 8.03033L3.26517 12.2652C3.11872 12.4116 2.88128 12.4116 2.73483 12.2652C2.58839 12.1187 2.58839 11.8813 2.73483 11.7348L6.96967 7.5L2.73483 3.26517C2.58839 3.11872 2.58839 2.88128 2.73483 2.73483Z" fill="#18303F"/>
</svg>
