<svg width="25" height="25" viewBox="0 0 25 25" fill="none"><g id="cube_message_colorful" fill-rule="evenodd" clip-rule="evenodd"><path d="M12.316 11.535a1.5 1.5 0 0 0-1.5 1.5v5.582a1.5 1.5 0 0 0 1.5 1.5h2.572c.667 0 1.192.437 1.455.946a3.871 3.871 0 0 0 3.07 2.08 4.845 4.845 0 0 1-.603-1.396c-.24-.94.572-1.63 1.368-1.63h1.32a1.5 1.5 0 0 0 1.5-1.5v-5.582a1.5 1.5 0 0 0-1.5-1.5h-9.182Zm-2.5 1.5a2.5 2.5 0 0 1 2.5-2.5h9.182a2.5 2.5 0 0 1 2.5 2.5v5.582a2.5 2.5 0 0 1-2.5 2.5h-1.32a.454.454 0 0 0-.334.138.252.252 0 0 0-.065.245c.125.487.341.936.63 1.33a.865.865 0 0 1 .11.828.784.784 0 0 1-.735.503 4.87 4.87 0 0 1-4.33-2.64c-.137-.264-.363-.404-.566-.404h-2.572a2.5 2.5 0 0 1-2.5-2.5v-5.582Z" fill="#6D7B82" yggColor="iconWeak"/><path d="M14.748 2.21c-3.807-.485-6.6-.5-10.361-.011a2.367 2.367 0 0 0-2.041 2.068c-.447 3.726-.472 6.507-.009 10.366a2.363 2.363 0 0 0 2.084 2.068c1.453.162 2.772.26 4.056.294a.5.5 0 1 1-.026 1 48.619 48.619 0 0 1-4.142-.3 3.363 3.363 0 0 1-2.965-2.943C.871 10.81.897 7.95 1.354 4.149a3.367 3.367 0 0 1 2.904-2.94c3.851-.501 6.729-.485 10.616.01a3.375 3.375 0 0 1 2.923 2.929c.23 1.844.357 3.462.372 5.074a.5.5 0 1 1-1 .01c-.015-1.565-.137-3.144-.365-4.96a2.375 2.375 0 0 0-2.056-2.062Z" fill="#18303F" yggColor="iconDefault"/></g></svg>