<svg width="25" height="25" viewBox="0 0 25 25" fill="none"><g id="cube_unknown"><path d="M5.357 3.227c-.317.176-.475.355-.475.538a.269.269 0 0 0 .264.285c.063 0 .14-.042.232-.126.091-.085.225-.17.401-.254.183-.091.412-.137.687-.137.457 0 .81.12 1.056.359.246.24.37.57.37.993 0 .253-.054.492-.16.718-.098.225-.2.397-.305.517-.106.12-.257.271-.454.454-.19.176-.314.292-.37.349-.148.169-.26.383-.338.644-.077.253-.116.651-.116 1.193 0 .204.095.306.285.306.19 0 .285-.08.285-.242 0-.458.021-.796.063-1.014a1.2 1.2 0 0 1 .307-.592 4.24 4.24 0 0 1 .37-.37c.196-.19.358-.358.485-.506.134-.148.257-.36.37-.634.12-.281.18-.573.18-.876 0-.55-.177-1-.529-1.352-.345-.352-.834-.528-1.468-.528-.436 0-.816.092-1.14.275Zm1.108 7.507a.344.344 0 1 0 0-.688.344.344 0 0 0 0 .688ZM6.5.774a5.884 5.884 0 1 0 0 11.768 5.884 5.884 0 0 0 0-11.769ZM1.617 6.657a4.884 4.884 0 1 1 9.769 0 4.884 4.884 0 0 1-9.769 0ZM7.833 21.51c3.807.484 6.599.499 10.361.01a2.367 2.367 0 0 0 2.04-2.069c.448-3.726.473-6.506.01-10.366A2.363 2.363 0 0 0 18.16 7.02a47.638 47.638 0 0 0-4.056-.294.5.5 0 0 1 .026-1 48.63 48.63 0 0 1 4.141.3 3.363 3.363 0 0 1 2.965 2.942c.474 3.942.448 6.803-.008 10.605a3.367 3.367 0 0 1-2.905 2.94c-3.851.501-6.729.485-10.616-.01a3.375 3.375 0 0 1-2.923-2.929c-.23-1.844-.357-3.463-.372-5.075a.5.5 0 1 1 1-.009c.015 1.564.137 3.143.365 4.96a2.375 2.375 0 0 0 2.056 2.062Z" fill="#18303F" yggColor="iconDefault"/></g></svg>