<svg fill="none" height="25" viewBox="0 0 25 25" width="25"><path clip-rule="evenodd" d="m5.472 4.408a1.97 1.97 0 0 1 1.989-1.968h10.078a1.97 1.97 0 0 1 1.989 1.968v16.184a1.97 1.97 0 0 1 -1.988 1.968h-10.08a1.97 1.97 0 0 1 -1.988-1.968zm1.989-2.968a2.97 2.97 0 0 0 -2.989 2.968v16.184a2.97 2.97 0 0 0 2.989 2.968h10.078a2.97 2.97 0 0 0 2.989-2.968v-16.184a2.97 2.97 0 0 0 -2.988-2.968h-10.08zm.268 11.258c0-.06.055-.121.126-.121h2.952c.071 0 .126.06.126.121v3.349c0 .06-.055.121-.126.121h-2.952a.127.127 0 0 1 -.126-.121zm.126-1.121c-.616 0-1.126.5-1.126 1.121v3.349c0 .62.51 1.121 1.126 1.121h2.952c.616 0 1.126-.5 1.126-1.121v-3.349c0-.62-.51-1.121-1.126-1.121zm6.338 1a.127.127 0 0 0 -.126.121v3.349c0 .06.055.121.126.121h2.952c.071 0 .127-.06.127-.121v-3.349a.127.127 0 0 0 -.127-.121zm-1.126.121c0-.62.51-1.121 1.126-1.121h2.952c.616 0 1.127.5 1.127 1.121v3.349c0 .62-.511 1.121-1.127 1.121h-2.952c-.615 0-1.126-.5-1.126-1.121zm-5.338-7.001c0-.06.055-.122.126-.122h2.952c.071 0 .126.061.126.122v3.348c0 .061-.055.122-.126.122h-2.952a.127.127 0 0 1 -.126-.122zm.126-1.122c-.616 0-1.126.501-1.126 1.122v3.348c0 .621.51 1.122 1.126 1.122h2.952c.616 0 1.126-.5 1.126-1.122v-3.348c0-.62-.51-1.122-1.126-1.122zm6.338 1a.127.127 0 0 0 -.126.122v3.348c0 .061.055.122.126.122h2.952c.071 0 .127-.06.127-.122v-3.348a.127.127 0 0 0 -.127-.122zm-1.126.122c0-.62.51-1.122 1.126-1.122h2.952c.616 0 1.127.501 1.127 1.122v3.348c0 .621-.511 1.122-1.127 1.122h-2.952c-.615 0-1.126-.5-1.126-1.122zm-5.633 13.153a.5.5 0 0 0 0 1h10.132a.5.5 0 0 0 0-1z" fill="#18303f" fill-rule="evenodd"/></svg>