<svg fill="none" height="25" viewBox="0 0 25 25" width="25"><path clip-rule="evenodd" d="m23.264 1.382a.5.5 0 0 0 -.707 0l-2.159 2.158a2.979 2.979 0 0 0 -2.86-2.1h-10.077c-1.35 0-2.488.88-2.86 2.1l-2.158-2.158a.5.5 0 0 0 -.707.707l2.736 2.736v14.641l-3.444 3.445a.5.5 0 0 0 .707.707l2.75-2.75a2.973 2.973 0 0 0 2.975 2.692h10.078a2.973 2.973 0 0 0 2.976-2.692l2.75 2.75a.5.5 0 1 0 .707-.707l-3.444-3.445v-14.64l2.736-2.737a.5.5 0 0 0 0-.707zm-3.736 3.029v-.003a1.97 1.97 0 0 0 -1.989-1.968h-10.078a1.97 1.97 0 0 0 -1.989 1.968v.003l1.258 1.257a1.128 1.128 0 0 1 1.126-1.092h2.952c.616 0 1.126.5 1.126 1.121v3.348c0 .494-.322.912-.764 1.062l1.33 1.333 1.332-1.332a1.125 1.125 0 0 1 -.765-1.062v-3.349c0-.62.51-1.121 1.126-1.121h2.952c.606 0 1.11.484 1.126 1.091zm-2.256 2.256v-.97a.127.127 0 0 0 -.127-.121h-2.952a.127.127 0 0 0 -.126.121v3.348c0 .061.055.122.126.122h.579zm-1.086 2.5 1.086-1.086v.964c0 .061-.056.122-.127.122h-.96zm-1 1h1.959c.616 0 1.127-.5 1.127-1.122v-1.964l1.256-1.256v12.641l-1.608-1.606c.216-.204.352-.492.352-.812v-3.349c0-.62-.511-1.121-1.127-1.121h-2.952c-.21 0-.407.058-.576.16l1.569-1.57zm-9.714-4.342 1.258 1.256v1.964c0 .621.51 1.122 1.126 1.122h1.96l1.568 1.57a1.122 1.122 0 0 0 -.576-.16h-2.953c-.616 0-1.126.5-1.126 1.121v3.349c0 .32.135.608.35.812l-1.607 1.607v-12.64zm2.383 3.342h.96l-1.087-1.087v.964c0 .061.055.122.126.122zm-.126-2.5 2.5 2.5h.578c.071 0 .126-.06.126-.122v-3.348a.127.127 0 0 0 -.126-.121h-2.952a.127.127 0 0 0 -.126.121zm-2.257 13.214 2.712-2.713h2.623c.616 0 1.126-.5 1.126-1.121v-2.628l.567-.566.567.566v2.628c0 .62.51 1.121 1.126 1.121h2.623l2.712 2.713v.711a1.97 1.97 0 0 1 -1.989 1.968h-10.078a1.97 1.97 0 0 1 -1.989-1.968zm7.751-7.751-.016.016.004.004zm.844.875v-.307c0-.06.055-.121.126-.121h2.952c.071 0 .127.06.127.121v3.349c0 .04-.024.08-.061.102zm0 1.414 1.749 1.75h-1.623a.127.127 0 0 1 -.126-.122zm-3.134 1.628v-1.628l-1.749 1.75h1.623c.071 0 .126-.061.126-.122zm-3.144.102 3.144-3.144v-.307a.127.127 0 0 0 -.126-.121h-2.952a.127.127 0 0 0 -.126.121v3.349c0 .04.023.08.06.102zm4.004-4.003-.004.004-.012-.02zm-4.859 7.204a.5.5 0 0 1 .5-.5h10.132a.5.5 0 1 1 0 1h-10.132a.5.5 0 0 1 -.5-.5z" fill="#18303f" fill-rule="evenodd"/></svg>