<svg width="25" height="25" viewBox="0 0 25 25" fill="none"><g yggColor="dashboard_no"><path yggColor="iconDefault" fill-rule="evenodd" clip-rule="evenodd" d="M23.264 1.382a.5.5 0 0 0-.708 0L20.4 3.539a2.979 2.979 0 0 0-2.86-2.1H7.461c-1.35 0-2.488.88-2.86 2.1L2.443 1.382a.5.5 0 0 0-.707.707l2.736 2.736v14.641l-3.444 3.445a.5.5 0 0 0 .707.707l2.75-2.75A2.973 2.973 0 0 0 7.46 23.56h10.078a2.973 2.973 0 0 0 2.976-2.692l2.75 2.75a.5.5 0 1 0 .707-.707l-3.444-3.445V4.825l2.736-2.736a.5.5 0 0 0 0-.707Zm-3.736 3.029v-.003a1.97 1.97 0 0 0-1.989-1.968H7.461a1.97 1.97 0 0 0-1.989 1.968v.003L6.73 5.667a1.128 1.128 0 0 1 1.126-1.092h2.952c.616 0 1.126.501 1.126 1.122v3.348c0 .494-.323.912-.764 1.062l1.33 1.332 1.332-1.332a1.125 1.125 0 0 1-.764-1.062V5.697c0-.62.51-1.122 1.126-1.122h2.952c.606 0 1.11.485 1.126 1.092l1.257-1.256Zm-2.256 2.256v-.97a.127.127 0 0 0-.127-.122h-2.952a.127.127 0 0 0-.126.122v3.348c0 .061.055.122.126.122h.579l2.5-2.5Zm-1.086 2.5L17.27 8.08v.964c0 .061-.055.122-.126.122h-.96Zm-1 1h1.959c.616 0 1.127-.5 1.127-1.122V7.081l1.256-1.256v12.641L17.92 16.86c.216-.204.351-.492.351-.812v-3.349c0-.62-.51-1.121-1.126-1.121h-2.952c-.21 0-.407.058-.576.16l1.569-1.57ZM5.472 5.825 6.73 7.081v1.964c0 .621.51 1.122 1.126 1.122h1.959l1.57 1.569a1.122 1.122 0 0 0-.577-.16H7.855c-.616 0-1.126.502-1.126 1.122v3.349c0 .32.135.608.35.812l-1.607 1.607V5.825Zm2.383 3.342h.959L7.729 8.08v.964c0 .061.055.122.126.122Zm-.126-2.5 2.5 2.5h.578c.071 0 .126-.06.126-.122V5.697a.127.127 0 0 0-.126-.122H7.855a.127.127 0 0 0-.126.122v.97ZM5.472 19.88l2.712-2.712h2.623c.616 0 1.126-.5 1.126-1.121v-2.628l.567-.566.567.566v2.628c0 .62.51 1.121 1.126 1.121h2.623l2.712 2.713v.711a1.97 1.97 0 0 1-1.989 1.968H7.461a1.97 1.97 0 0 1-1.989-1.968v-.711Zm7.751-7.75-.016.016.004.004.012-.02Zm.844.875v-.307c0-.06.055-.121.126-.121h2.952c.071 0 .127.06.127.121v3.349c0 .04-.024.08-.061.102l-3.144-3.144Zm0 1.414 1.748 1.75h-1.622a.127.127 0 0 1-.126-.122v-1.628Zm-3.134 1.628v-1.628l-1.749 1.75h1.623c.071 0 .126-.061.126-.122Zm-3.144.102 3.144-3.144v-.307a.127.127 0 0 0-.126-.121H7.855a.127.127 0 0 0-.126.121v3.349c0 .04.023.08.06.102Zm4.004-4.003-.004.004-.012-.02.016.016ZM6.934 19.35a.5.5 0 0 1 .5-.5h10.132a.5.5 0 1 1 0 1H7.434a.5.5 0 0 1-.5-.5Z" fill="#18303F"/></g></svg>