<svg width="25" height="25" viewBox="0 0 25 25" fill="none"><g yggColor="dashboard"><path yggColor="iconDefault" fill-rule="evenodd" clip-rule="evenodd" d="M5.472 4.408A1.97 1.97 0 0 1 7.461 2.44h10.078a1.97 1.97 0 0 1 1.989 1.968v16.184a1.97 1.97 0 0 1-1.989 1.968H7.461a1.97 1.97 0 0 1-1.989-1.968V4.408ZM7.461 1.44a2.97 2.97 0 0 0-2.989 2.968v16.184a2.97 2.97 0 0 0 2.989 2.968h10.078a2.97 2.97 0 0 0 2.989-2.968V4.408a2.97 2.97 0 0 0-2.989-2.968H7.461Zm.267 11.258c0-.06.056-.121.127-.121h2.952c.071 0 .126.06.126.121v3.349c0 .06-.055.121-.126.121H7.855a.127.127 0 0 1-.127-.121v-3.349Zm.127-1.121c-.616 0-1.127.5-1.127 1.121v3.349c0 .62.511 1.121 1.127 1.121h2.952c.616 0 1.126-.5 1.126-1.121v-3.349c0-.62-.51-1.121-1.126-1.121H7.855Zm6.338 1a.127.127 0 0 0-.126.121v3.349c0 .06.055.121.126.121h2.952c.071 0 .127-.06.127-.121v-3.349a.127.127 0 0 0-.127-.121h-2.952Zm-1.126.121c0-.62.51-1.121 1.126-1.121h2.952c.616 0 1.127.5 1.127 1.121v3.349c0 .62-.511 1.121-1.127 1.121h-2.952c-.616 0-1.126-.5-1.126-1.121v-3.349ZM7.728 5.697c0-.06.056-.122.127-.122h2.952c.071 0 .126.061.126.122v3.348c0 .061-.055.122-.126.122H7.855a.127.127 0 0 1-.127-.122V5.697Zm.127-1.122c-.616 0-1.127.501-1.127 1.122v3.348c0 .621.511 1.122 1.127 1.122h2.952c.616 0 1.126-.5 1.126-1.122V5.697c0-.62-.51-1.122-1.126-1.122H7.855Zm6.338 1a.127.127 0 0 0-.126.122v3.348c0 .061.055.122.126.122h2.952c.071 0 .127-.06.127-.122V5.697a.127.127 0 0 0-.127-.122h-2.952Zm-1.126.122c0-.62.51-1.122 1.126-1.122h2.952c.616 0 1.127.501 1.127 1.122v3.348c0 .621-.511 1.122-1.127 1.122h-2.952c-.616 0-1.126-.5-1.126-1.122V5.697ZM7.434 18.85a.5.5 0 0 0 0 1h10.131a.5.5 0 0 0 0-1H7.435Z" fill="#18303F"/></g></svg>