<svg width="15" height="15" viewBox="0 0 15 15" fill="none" xmlns="http://www.w3.org/2000/svg">
<path fill-rule="evenodd" clip-rule="evenodd" d="M2.23483 2.10983C2.38128 1.96339 2.61872 1.96339 2.76517 2.10983L7.5 6.84467L12.2348 2.10983C12.3813 1.96339 12.6187 1.96339 12.7652 2.10983C12.9116 2.25628 12.9116 2.49372 12.7652 2.64017L7.76516 7.64016C7.61872 7.78661 7.38128 7.78661 7.23484 7.64016L2.23483 2.64017C2.08839 2.49372 2.08839 2.25628 2.23483 2.10983ZM2.23483 7.10984C2.38128 6.96339 2.61872 6.96339 2.76517 7.10984L7.5 11.8447L12.2348 7.10984C12.3813 6.96339 12.6187 6.96339 12.7652 7.10984C12.9116 7.25628 12.9116 7.49372 12.7652 7.64016L7.76516 12.6402C7.61872 12.7866 7.38128 12.7866 7.23484 12.6402L2.23483 7.64016C2.08839 7.49372 2.08839 7.25628 2.23483 7.10984Z" fill="#18303F"/>
</svg>
