<svg fill="none" height="25" viewBox="0 0 25 25" width="25"><path clip-rule="evenodd" d="m9.855 9.222a.5.5 0 0 0 -1 0v5.25a.5.5 0 0 0 1 0zm2.625 1.583a.5.5 0 0 1 .5.5v5.25a.5.5 0 0 1 -1 0v-5.25a.5.5 0 0 1 .5-.5zm3.625-1.583a.5.5 0 0 0 -1 0v5.25a.5.5 0 1 0 1 0zm-6.21 7.31a.5.5 0 1 1 -1 0 .5.5 0 0 1 1 0zm2.605 2.745a.5.5 0 1 0 0-1 .5.5 0 0 0 0 1zm.48-10.055a.5.5 0 1 1 -1 0 .5.5 0 0 1 1 0zm-3.585-4.536v.41h-4.108c-.602 0-1.1.487-1.1 1.094v3.683a.5.5 0 0 0 .015.119l2.64 10.824c.26 1.067.994 1.947 1.98 1.947h7.365c.988 0 1.711-.883 1.979-1.943l2.632-10.83a.5.5 0 0 0 .015-.118v-3.69c0-.604-.503-1.085-1.1-1.085h-4.11v-.41c0-1.572-1.473-2.715-3.104-2.715-1.632 0-3.104 1.143-3.104 2.714zm3.104-1.714c-1.238 0-2.104.841-2.104 1.714v.41h4.208v-.41c0-.873-.867-1.714-2.104-1.714zm-7.312 3.218c0-.046.041-.093.1-.093h14.426c.028 0 .054.01.073.03.02.02.026.04.026.055v3.631l-2.617 10.764c-.219.866-.694 1.186-1.008 1.186h-7.365c-.317 0-.8-.324-1.008-1.184l-2.627-10.766z" fill="#f28102" fill-rule="evenodd"/></svg>