<svg fill="none" height="25" viewBox="0 0 25 25" width="25"><path clip-rule="evenodd" d="m9.355 8.722a.5.5 0 0 1 .5.5v5.25a.5.5 0 0 1 -1 0v-5.25a.5.5 0 0 1 .5-.5zm3.625 2.583a.5.5 0 1 0 -1 0v5.25a.5.5 0 1 0 1 0zm2.625-2.583a.5.5 0 0 1 .5.5v5.25a.5.5 0 0 1 -1 0v-5.25a.5.5 0 0 1 .5-.5zm-6.21 8.31a.5.5 0 1 0 0-1 .5.5 0 0 0 0 1zm3.605 1.744a.5.5 0 1 1 -1 0 .5.5 0 0 1 1 0zm-.52-9.055a.5.5 0 1 0 0-1 .5.5 0 0 0 0 1zm-3.085-4.624v-.41c0-1.572 1.472-2.715 3.104-2.715 1.63 0 3.104 1.143 3.104 2.714v.41h4.11c.597 0 1.1.482 1.1 1.086v3.691a.5.5 0 0 1 -.015.118l-2.632 10.829c-.268 1.06-.99 1.943-1.98 1.943h-7.363c-.986 0-1.72-.88-1.98-1.947l-2.641-10.824a.5.5 0 0 1 -.014-.119v-3.683c0-.607.497-1.093 1.099-1.093zm1-.41c0-.874.866-1.715 2.104-1.715 1.237 0 2.104.841 2.104 1.714v.41h-4.208v-.41zm-5.108 1.41c-.059 0-.1.047-.1.093v3.623l2.627 10.766c.209.86.691 1.184 1.008 1.184h7.365c.314 0 .79-.32 1.008-1.186l2.617-10.764v-3.631a.078.078 0 0 0 -.026-.055.104.104 0 0 0 -.073-.03z" fill="#18303f" fill-rule="evenodd"/></svg>