<svg fill="none" height="25" viewBox="0 0 25 25" width="25"><g fill="#18303f"><path d="m13.855 11.664a.5.5 0 1 0 0-1 .5.5 0 0 0 0 1z"/><g clip-rule="evenodd" fill-rule="evenodd"><path d="m17.62 21.408a1.593 1.593 0 1 0 -2.253-2.253 1.593 1.593 0 0 0 2.253 2.253zm-.707-1.546a.593.593 0 1 1 -.839.84.593.593 0 0 1 .839-.84z"/><path d="m19.337 11.214a.5.5 0 0 0 -.505.496l-.018 2.154h-4.462l.011-1.246a.5.5 0 1 0 -1-.009l-.01 1.255h-1.434a1.327 1.327 0 0 0 -.977.414 1.43 1.43 0 0 0 -.367.973l-.016 1.815a9041.375 9041.375 0 0 1 -.02 2.415c.114 3.09 2.756 5.61 5.935 5.383 3.134.03 5.82-2.365 5.989-5.469v-.023l.036-4.112a1.435 1.435 0 0 0 -.085-.526 1.326 1.326 0 0 0 -.313-.473 1.325 1.325 0 0 0 -.472-.312 1.431 1.431 0 0 0 -.524-.085h-1.291l.018-2.145a.5.5 0 0 0 -.495-.505zm-7.412 3.65h7.262a.504.504 0 0 0 .244 0h1.681c.087-.001.134.01.164.02.027.011.064.031.118.085.054.053.074.09.084.118.011.03.022.077.021.164l-.035 4.101c-.144 2.54-2.364 4.547-4.999 4.512h-.044c-2.595.196-4.782-1.858-4.882-4.409l.02-2.38.016-1.815a.436.436 0 0 1 .099-.3c.046-.05.122-.095.252-.096z"/></g></g><path d="m8.947 5.092a.47.47 0 0 0 0-.68.514.514 0 0 0 -.707 0l-1.452 1.398-1.48-1.425a.514.514 0 0 0 -.706 0 .47.47 0 0 0 0 .681l1.478 1.425-1.546 1.49a.47.47 0 0 0 0 .68.514.514 0 0 0 .707 0l1.546-1.489 1.519 1.463a.514.514 0 0 0 .707 0 .47.47 0 0 0 0-.681l-1.518-1.463z" fill="#f28102"/><path clip-rule="evenodd" d="m6.771 11.228c2.698 0 4.885-2.107 4.885-4.706 0-2.598-2.187-4.705-4.885-4.705s-4.885 2.107-4.885 4.705c0 2.6 2.187 4.706 4.885 4.706zm5.885-4.706c0 3.131-2.635 5.669-5.885 5.669s-5.885-2.538-5.885-5.669c0-3.13 2.635-5.668 5.885-5.668s5.885 2.538 5.885 5.668z" fill="#6d7b82" fill-rule="evenodd"/></svg>