<svg fill="none" height="25" viewBox="0 0 25 25" width="25"><path d="m16.095 15.552h-.454a.115.115 0 0 0 -.116.114v.443c0 .307.256.557.57.557s.57-.25.57-.557a.565.565 0 0 0 -.57-.557zm-.151-5.63a2.28 2.28 0 0 0 -.35-.227l-2.14-1.126c-.117-.068-.257-.114-.385-.16a2.157 2.157 0 0 0 -1.14 0c-.14.035-.268.092-.385.16l-2.153 1.126a3.039 3.039 0 0 0 -.349.227c-.454.376-.71.921-.71 1.513v3.264c0 1.092.908 1.967 2.013 1.967h3.76c.314 0 .57-.25.57-.557v-.444a.115.115 0 0 0 -.116-.113h-4.213a.87.87 0 0 1 -.873-.853v-3.264c0-.319.174-.603.454-.75l2.21-1.15a.86.86 0 0 1 .71 0l2.212 1.15c.28.147.454.431.454.75v2.865c0 .307.256.557.57.557.315 0 .57-.25.57-.557v-2.866a1.91 1.91 0 0 0 -.71-1.513z" fill="#f9470b"/><g clip-rule="evenodd" fill-rule="evenodd"><path d="m17.063 6.71c-3.406-.455-5.789-.469-9.151-.008a1.432 1.432 0 0 0 -1.224 1.24c-.42 3.334-.444 5.707-.007 9.164a1.43 1.43 0 0 0 1.25 1.24c3.35.396 5.807.383 9.122-.004a1.431 1.431 0 0 0 1.253-1.23c.455-3.396.435-5.766-.01-9.165a1.437 1.437 0 0 0 -1.233-1.238zm-9.287-1c3.456-.473 5.93-.457 9.419.008a2.437 2.437 0 0 1 2.093 2.099c.456 3.481.476 5.94.009 9.428a2.431 2.431 0 0 1 -2.128 2.09c-3.39.396-5.926.41-9.355.004a2.43 2.43 0 0 1 -2.125-2.108c-.448-3.544-.423-6 .007-9.413a2.432 2.432 0 0 1 2.08-2.107z" fill="#18303f"/><path d="m25 12.5c0 6.904-5.596 12.5-12.5 12.5s-12.5-5.596-12.5-12.5 5.596-12.5 12.5-12.5 12.5 5.596 12.5 12.5zm-2.5 0c0 5.523-4.477 10-10 10a9.955 9.955 0 0 1 -6-2l14-14a9.955 9.955 0 0 1 2 6zm-17.797 6.262 14.06-14.059a9.958 9.958 0 0 0 -6.263-2.203c-5.523 0-10 4.477-10 10 0 2.37.825 4.548 2.203 6.262z" fill="#f28102"/></g></svg>