<svg fill="none" height="25" viewBox="0 0 25 25" width="25"><path d="m2 11.794c0-8.064 1.729-9.794 9.794-9.794h1.412c8.064 0 9.794 1.729 9.794 9.794v1.412c0 8.064-1.729 9.794-9.794 9.794h-1.412c-8.064 0-9.794-1.729-9.794-9.794z" fill="#fff"/><g clip-rule="evenodd" fill-rule="evenodd"><path d="m9.49 15.654a.916.916 0 0 1 .51.835v1.376a.271.271 0 0 1 -.274.267.271.271 0 0 1 -.274-.267v-1.376a.406.406 0 0 0 -.219-.36l-1.062-.552a.413.413 0 0 0 -.342 0l-1.063.552a.406.406 0 0 0 -.218.36v1.567c0 .223.19.409.42.409h2.025c.028 0 .056.022.056.055v.213a.271.271 0 0 1 -.274.267h-1.807a.957.957 0 0 1 -.968-.944v-1.567a.933.933 0 0 1 .51-.835l1.034-.54a.688.688 0 0 1 .185-.077 1.039 1.039 0 0 1 .57.007c.055.02.113.04.162.07l1.03.54zm.018 2.811h.218c.151 0 .274.12.274.268a.271.271 0 0 1 -.274.267.271.271 0 0 1 -.273-.267v-.213c0-.028.022-.055.055-.055z" fill="#f9470b"/><path d="m2.441 6.925c-.314 1.414-.441 3.23-.441 5.575s.127 4.16.441 5.575c.312 1.403.795 2.35 1.465 3.02.67.669 1.616 1.152 3.019 1.464 1.414.314 3.23.441 5.575.441s4.16-.127 5.575-.441c1.403-.312 2.35-.795 3.02-1.465.669-.67 1.152-1.616 1.464-3.019.314-1.414.441-3.23.441-5.575s-.127-4.16-.441-5.575c-.312-1.403-.795-2.35-1.465-3.02-.67-.669-1.616-1.152-3.019-1.464-1.414-.314-3.23-.441-5.575-.441s-4.16.127-5.575.441c-1.403.312-2.35.795-3.02 1.465-.669.67-1.152 1.616-1.464 3.019zm10.059-5.925c-9.47 0-11.5 2.03-11.5 11.5s2.03 11.5 11.5 11.5 11.5-2.03 11.5-11.5-2.03-11.5-11.5-11.5z" fill="#18303f"/></g></svg>