<svg width="25" height="25" viewBox="0 0 25 25" fill="none"><path fill-rule="evenodd" clip-rule="evenodd" d="M6.331 3.686c.78-1.277 2.634-1.277 3.414 0l4.072 6.667c.815 1.332-.145 3.042-1.706 3.042H3.965c-1.562 0-2.52-1.71-1.707-3.042l4.073-6.667Zm2.56.521a1 1 0 0 0-1.707 0l-4.072 6.667a1 1 0 0 0 .853 1.521h8.146a1 1 0 0 0 .853-1.521L8.891 4.207ZM7.537 8.55a.5.5 0 0 0 1 0V7.084a.5.5 0 1 0-1 0v1.465Zm.477 2.635a.585.585 0 1 0 0-1.17.585.585 0 0 0 0 1.17Zm10.18 10.337c-3.762.489-6.554.474-10.36-.01a2.375 2.375 0 0 1-2.057-2.062c-.045-.356-.085-.665-.122-.943-.15-1.139-.23-1.76-.243-3.017a.5.5 0 0 0-1 .01c.013 1.307.098 1.961.253 3.146l.12.928a3.375 3.375 0 0 0 2.922 2.93c3.887.494 6.765.51 10.616.01a3.367 3.367 0 0 0 2.905-2.941c.456-3.802.482-6.662.009-10.605a3.363 3.363 0 0 0-2.965-2.942 48.634 48.634 0 0 0-4.141-.3.5.5 0 0 0-.027 1c1.284.034 2.603.131 4.056.294a2.363 2.363 0 0 1 2.084 2.067c.463 3.86.438 6.64-.009 10.367a2.367 2.367 0 0 1-2.04 2.068Z" fill="#18303F" yggColor="device_hub_change"/></svg>