<svg fill="none" height="25" viewBox="0 0 25 25" width="25"><g fill="#f9470b"><path d="m15.953 15.43h-.436a.11.11 0 0 0 -.112.11v.425c0 .295.246.535.548.535.301 0 .547-.24.547-.535a.542.542 0 0 0 -.547-.535z"/><path d="m15.807 10.026a2.192 2.192 0 0 0 -.335-.219l-2.056-1.08c-.111-.066-.246-.11-.369-.153a2.07 2.07 0 0 0 -1.095 0 1.375 1.375 0 0 0 -.368.153l-2.067 1.08c-.1.055-.235.142-.335.219-.436.36-.682.884-.682 1.452v3.133c0 1.048.872 1.889 1.933 1.889h3.609c.302 0 .547-.24.547-.535v-.426a.11.11 0 0 0 -.111-.109h-4.045a.835.835 0 0 1 -.838-.819v-3.133c0-.306.168-.579.436-.72l2.123-1.103a.825.825 0 0 1 .681 0l2.123 1.102a.811.811 0 0 1 .436.72v2.752c0 .295.246.535.547.535.302 0 .548-.24.548-.535v-2.751a1.833 1.833 0 0 0 -.682-1.452z"/></g><path clip-rule="evenodd" d="m17.5.5a2 2 0 0 1 2 2v20a2 2 0 0 1 -2 2h-10a2 2 0 0 1 -2-2v-20a2 2 0 0 1 2-2zm-1.5 1h1.5a1 1 0 0 1 1 1v20a1 1 0 0 1 -1 1h-10a1 1 0 0 1 -1-1v-20a1 1 0 0 1 1-1h1.5a1.5 1.5 0 0 0 1.5 1.5h4a1.5 1.5 0 0 0 1.5-1.5zm-6 0a.5.5 0 0 0 .5.5h4a.5.5 0 0 0 .5-.5z" fill="#18303f" fill-rule="evenodd"/></svg>