<svg fill="none" height="25" viewBox="0 0 25 25" width="25"><path clip-rule="evenodd" d="m15.953 15.43h-.436a.11.11 0 0 0 -.112.11v.425c0 .295.246.535.548.535.301 0 .547-.24.547-.535a.542.542 0 0 0 -.547-.535zm-.146-5.404a2.192 2.192 0 0 0 -.335-.219l-2.056-1.08a1.882 1.882 0 0 0 -.325-.138l-.043-.015a2.07 2.07 0 0 0 -1.095 0 1.375 1.375 0 0 0 -.37.153l-2.066 1.08c-.1.055-.235.142-.335.219-.436.36-.682.884-.682 1.452v3.133c0 1.048.872 1.889 1.933 1.889h3.609c.302 0 .547-.24.547-.535v-.426a.11.11 0 0 0 -.111-.109h-4.045a.835.835 0 0 1 -.838-.819v-3.133c0-.306.168-.579.436-.72l2.123-1.103a.825.825 0 0 1 .681 0l2.123 1.102a.811.811 0 0 1 .436.72v2.752c0 .295.246.535.547.535.302 0 .548-.24.548-.535v-2.751a1.833 1.833 0 0 0 -.682-1.452zm-7.297-9.124a.5.5 0 0 1 .49-.402h7a.5.5 0 0 1 .49.402l.92 4.598h.06c1.118 0 2.03.912 2.03 2.03v9.94c0 1.118-.912 2.03-2.03 2.03h-.06l-.92 4.598a.5.5 0 0 1 -.49.402h-7a.5.5 0 0 1 -.49-.402l-.92-4.598h-.06a2.034 2.034 0 0 1 -2.03-2.03v-9.94c0-1.118.912-2.03 2.03-2.03h.06zm-2.01 16.568c0 .565.464 1.029 1.03 1.029h9.94c.566 0 1.03-.464 1.03-1.03v-9.939c0-.566-.464-1.03-1.03-1.03h-9.94c-.566 0-1.03.464-1.03 1.03zm2.11 2.03.8 4h6.18l.8-4zm6.98-18 .8 4h-7.78l.8-4z" fill="#18303f" fill-rule="evenodd"/></svg>