<svg width="25" height="25" viewBox="0 0 25 25" fill="none"><g id="device_included"><path fill-rule="evenodd" clip-rule="evenodd" d="M12.38 1.55a7.354 7.354 0 0 0-5.894 2.947.5.5 0 1 1-.8-.6A8.354 8.354 0 0 1 12.38.55c2.161 0 4.132.82 5.616 2.165a.5.5 0 0 1-.671.74 7.337 7.337 0 0 0-4.945-1.905Zm-.001 2.805a5.245 5.245 0 0 0-3.496 1.328.5.5 0 0 1-.664-.748 6.245 6.245 0 0 1 4.16-1.58c2.05 0 3.871.986 5.014 2.507a.5.5 0 0 1-.8.6 5.258 5.258 0 0 0-4.214-2.107ZM9.927 8.39a3.06 3.06 0 0 1 2.453-1.226c.514 0 .997.126 1.421.349a.5.5 0 1 0 .465-.886 4.05 4.05 0 0 0-1.886-.463A4.06 4.06 0 0 0 9.128 7.79a.5.5 0 1 0 .8.6Zm9.444-4.11a.5.5 0 1 1-1 0 .5.5 0 0 1 1 0ZM7.434 7.028a.5.5 0 1 0 0-1 .5.5 0 0 0 0 1Zm8.5 1.062a.5.5 0 1 1-1 0 .5.5 0 0 1 1 0Zm-2.938 2.562a.5.5 0 1 1-1 0 .5.5 0 0 1 1 0Zm-1.62 10.78a1.593 1.593 0 1 1 2.253-2.253 1.593 1.593 0 0 1-2.252 2.253Zm4.256-9.722a.5.5 0 0 0-1 .01l.02 2.247h-4.464l-.02-2.232a.5.5 0 0 0-1 .008l.02 2.224H7.97a1.572 1.572 0 0 0-.498.065c-.186.06-.349.162-.495.308-.273.273-.444.63-.44 1.037v4.043c.168 3.104 2.854 5.5 5.989 5.468 3.179.227 5.82-2.292 5.934-5.382v-.023l-.035-4.113a1.397 1.397 0 0 0-1.403-1.403h-1.371l-.02-2.257ZM7.685 15.05a.44.44 0 0 0-.148.322V19.38c.145 2.54 2.365 4.545 4.998 4.51h.045c2.594.196 4.781-1.859 4.881-4.409l-.035-4.1a.397.397 0 0 0-.41-.413H7.964a.614.614 0 0 0-.186.017.221.221 0 0 0-.093.064Zm4.399 5.677a.593.593 0 1 1 .838-.839.593.593 0 0 1-.838.839Z" fill="#18303F" yggColor="iconDefault"/></g></svg>