<svg width="25" height="25" viewBox="0 0 25 25" fill="none"><g id="device_unpaired"><path fill-rule="evenodd" clip-rule="evenodd" d="M25 12.5C25 19.404 19.404 25 12.5 25S0 19.404 0 12.5 5.596 0 12.5 0 25 5.596 25 12.5ZM6.646 16.82l1.726-1.727a1.935 1.935 0 0 1-.04-.394v-3.264c0-.591.256-1.137.71-1.513.105-.08.244-.17.35-.227l2.152-1.126c.117-.068.245-.125.384-.16a2.157 2.157 0 0 1 1.141 0l.045.017c.115.04.236.083.34.143l.945.497 2.393-2.392c-3.263-.42-5.608-.42-8.88.028a1.432 1.432 0 0 0-1.224 1.24c-.408 3.241-.442 5.574-.042 8.878Zm6.914-6.914-4.087 4.087v-2.558c0-.319.174-.603.454-.75l2.21-1.15a.86.86 0 0 1 .71 0l.713.37Zm3.635-4.188c.154.02.305.056.449.104l1.118-1.119A9.958 9.958 0 0 0 12.5 2.5c-5.523 0-10 4.477-10 10 0 2.37.825 4.548 2.203 6.262l1.086-1.085a2.433 2.433 0 0 1-.1-.446c-.448-3.544-.423-6 .007-9.413a2.432 2.432 0 0 1 2.08-2.107c3.456-.474 5.93-.458 9.419.007ZM8.582 18.419c3.026.32 5.374.285 8.47-.077a1.431 1.431 0 0 0 1.254-1.23c.424-3.167.436-5.442.074-8.491l-1.93 1.93c.137.27.21.57.204.884V14.3a.565.565 0 0 1-.57.557.565.565 0 0 1-.57-.557v-2.813l-4.065 4.064h3.11c.058 0 .116.045.116.114v.443a.565.565 0 0 1-.57.557H10.335L8.582 18.42Zm7.06-2.867h.453c.314 0 .57.25.57.557a.565.565 0 0 1-.57.557.565.565 0 0 1-.57-.557v-.444c0-.056.046-.113.116-.113ZM22.5 12.5c0 5.523-4.477 10-10 10a9.955 9.955 0 0 1-6-2l1.181-1.18c.044.008.088.014.133.02 3.43.405 5.966.391 9.355-.005a2.431 2.431 0 0 0 2.128-2.09c.467-3.489.447-5.947-.01-9.428a2.418 2.418 0 0 0-.013-.09L20.501 6.5a9.955 9.955 0 0 1 1.999 6Z" fill="#18303F" yggColor="iconDefault"/></g></svg>