<svg width="25" height="25" viewBox="0 0 25 25" fill="none"><g id="device_backup_colorful"><path d="M9.15 15.985c.104.057.255.148.348.227.454.376.722.922.71 1.513v2.866a.565.565 0 0 1-.57.557.565.565 0 0 1-.57-.557v-2.866a.845.845 0 0 0-.454-.75l-2.211-1.15a.86.86 0 0 0-.71 0l-2.212 1.15a.845.845 0 0 0-.454.75v3.264a.87.87 0 0 0 .873.853h4.213c.059 0 .117.045.117.114v.443a.565.565 0 0 1-.57.557H3.9c-1.105 0-2.013-.875-2.013-1.967v-3.264c0-.591.256-1.137.71-1.513.104-.08.244-.17.349-.227l2.153-1.126c.116-.068.244-.125.384-.16a2.158 2.158 0 0 1 1.14 0l.046.017c.115.04.236.083.339.143l2.141 1.126Zm.046 5.857h.454c.314 0 .57.25.57.557a.565.565 0 0 1-.57.557.565.565 0 0 1-.57-.557v-.444c0-.056.046-.113.116-.113Z" fill="#F9470B" yggColor="backgroundAccentDefault"/><path d="M20.611 5.264c-.39-2.086-2.305-3.567-4.437-3.567-1.517 0-3.01.896-3.788 2.207-.769.058-1.54.343-2.097.89-.763.62-1.07 1.41-1.07 2.31a3.202 3.202 0 0 0 2.976 3.21h4.48a.5.5 0 1 0 0-1H12.22a2.202 2.202 0 0 1-2-2.21c0-.643.203-1.137.716-1.547a.492.492 0 0 0 .041-.037c.401-.401 1.037-.628 1.712-.628a.5.5 0 0 0 .447-.276c.565-1.129 1.816-1.919 3.039-1.919 1.827 0 3.392 1.369 3.503 3.146a.5.5 0 0 0 .597.46c.518-.104 1.016.001 1.41.297.364.273.574.754.574 1.278 0 .23-.003.387-.057.556-.05.161-.161.368-.436.634-.096.093-.313.177-.674.218-.285.032-.577.03-.841.03l-.16-.002h-.363a.5.5 0 0 0 0 1h.362l.138.001c.264.002.626.004.976-.035.397-.045.907-.154 1.258-.494.37-.359.583-.702.693-1.048a2.65 2.65 0 0 0 .104-.843v-.017c0-.768-.306-1.577-.974-2.078a2.691 2.691 0 0 0-1.673-.536Zm-2.397 6.166a.498.498 0 0 0-.355.146L16.036 13.4a.5.5 0 0 0 .707.707l.972-.972v3.483c0 1.495-1.13 2.625-2.625 2.625h-2.588a.5.5 0 1 0 0 1h2.588c2.047 0 3.625-1.578 3.625-3.625V13.14l.967.967a.5.5 0 0 0 .707-.707l-1.79-1.791a.499.499 0 0 0-.384-.178Zm.5-1.58a.5.5 0 1 1-1 0 .5.5 0 0 1 1 0Z" fill="#18303F" yggColor="iconDefault"/></g></svg>