<svg fill="none" height="25" viewBox="0 0 25 25" width="25"><path d="m8.947 5.093a.47.47 0 0 0 0-.682.514.514 0 0 0 -.707 0l-1.452 1.4-1.48-1.426a.514.514 0 0 0 -.707 0 .47.47 0 0 0 0 .681l1.48 1.425-1.546 1.49a.47.47 0 0 0 0 .68.514.514 0 0 0 .707 0l1.546-1.489 1.519 1.463a.514.514 0 0 0 .707 0 .47.47 0 0 0 0-.68l-1.519-1.465 1.452-1.398zm-2.176 7.097c3.25 0 5.885-2.538 5.885-5.669 0-3.13-2.635-5.668-5.885-5.668s-5.885 2.539-5.885 5.669c0 3.131 2.635 5.669 5.885 5.669zm4.885-5.669c0 2.6-2.187 4.706-4.885 4.706s-4.885-2.107-4.885-4.704c0-2.6 2.187-4.706 4.885-4.706s4.885 2.107 4.885 4.705zm2.7 4.642a.5.5 0 1 1 -1 0 .5.5 0 0 1 1 0zm3.264 7.992a1.593 1.593 0 1 1 -2.253 2.253 1.593 1.593 0 0 1 2.253-2.253zm-.707 1.545a.593.593 0 1 0 -.839-.838.593.593 0 0 0 .839.838zm2.424-9.487a.5.5 0 0 0 -.505.496l-.018 2.154h-4.462l.011-1.246a.5.5 0 0 0 -1-.009l-.01 1.255h-1.434a1.327 1.327 0 0 0 -.977.414 1.43 1.43 0 0 0 -.367.973l-.016 1.815a9004.335 9004.335 0 0 1 -.02 2.415c.114 3.09 2.756 5.61 5.935 5.383 3.134.03 5.82-2.364 5.989-5.469a.43.43 0 0 0 0-.023l.036-4.112a1.433 1.433 0 0 0 -.085-.526 1.325 1.325 0 0 0 -.313-.473 1.326 1.326 0 0 0 -.472-.312 1.436 1.436 0 0 0 -.524-.085h-1.291l.018-2.145a.5.5 0 0 0 -.495-.505zm-7.412 3.65h7.262a.499.499 0 0 0 .244 0h1.681a.45.45 0 0 1 .164.02c.027.011.064.031.118.085.054.053.074.09.084.118.011.03.022.077.021.164l-.035 4.101c-.144 2.54-2.364 4.547-4.999 4.512l-.044.001c-2.595.195-4.782-1.86-4.882-4.41l.02-2.38.016-1.815c.001-.152.049-.247.099-.3.046-.05.122-.095.252-.096z" fill="#18303f"/></svg>