<svg width="25" height="25" viewBox="0 0 25 25" fill="none"><g id="device_restore_reverse"><path d="M21.7 8.3h.454c.314 0 .57.25.57.557a.565.565 0 0 1-.57.557.565.565 0 0 1-.57-.557v-.443c0-.057.046-.114.116-.114Zm-.047-5.857a1.91 1.91 0 0 1 1.06 1.74v2.866a.565.565 0 0 1-.571.557.565.565 0 0 1-.57-.557V4.183a.845.845 0 0 0-.454-.75l-2.211-1.15a.86.86 0 0 0-.71 0l-2.212 1.15a.845.845 0 0 0-.454.75v3.264a.87.87 0 0 0 .873.853h4.213c.058 0 .117.045.117.114v.443a.565.565 0 0 1-.57.557h-3.76c-1.106 0-2.013-.875-2.013-1.967V4.183c0-.591.256-1.137.71-1.513.104-.08.244-.17.349-.227l2.153-1.126c.116-.068.244-.125.384-.16a2.157 2.157 0 0 1 1.14 0l.046.017c.115.04.236.083.339.143l2.141 1.126ZM6.79 13.043a.498.498 0 0 0 .374-.168l1.8-1.8a.5.5 0 1 0-.706-.707l-.968.967V7.856c0-1.494 1.13-2.625 2.625-2.625h2.589a.5.5 0 1 0 0-1h-2.59c-2.046 0-3.624 1.578-3.624 3.625v3.482l-.971-.97a.5.5 0 1 0-.707.707l1.823 1.823a.5.5 0 0 0 .355.146Zm1.395 2.123a.5.5 0 1 1 .1-.995c2.1.212 3.64 1.809 3.988 3.593a2.691 2.691 0 0 1 1.675.536c.668.5.974 1.31.974 2.078v.017c0 .218 0 .516-.104.843-.11.346-.322.69-.693 1.048-.35.34-.861.45-1.258.494a8.34 8.34 0 0 1-.975.035H3.836l-.045-.003C2.106 22.66.883 21.276.883 19.604c0-.899.307-1.69 1.07-2.31.559-.547 1.332-.832 2.103-.89.29-.46.755-1 1.13-1.311a.5.5 0 0 1 .638.77c-.358.297-.845.894-1.025 1.254a.5.5 0 0 1-.447.276c-.675 0-1.31.227-1.712.628a.523.523 0 0 1-.041.037c-.513.41-.716.905-.716 1.546 0 1.161.832 2.097 1.977 2.211h7.893l.157.001h.005c.264.002.556.003.84-.029.36-.04.578-.125.674-.218.275-.266.385-.473.436-.634.054-.17.057-.327.057-.556 0-.524-.21-1.005-.574-1.278-.394-.296-.892-.4-1.41-.297a.5.5 0 0 1-.597-.46c-.094-1.508-1.357-2.995-3.156-3.177Zm-.895-.497a.5.5 0 1 1-1 0 .5.5 0 0 1 1 0Z" fill="#18303F" yggColor="iconDefault"/></g></svg>