<svg fill="none" height="25" viewBox="0 0 25 25" width="25"><path clip-rule="evenodd" d="m16.5 14.965a.542.542 0 0 0 -.547-.535h-.436a.11.11 0 0 0 -.112.11v.425c0 .295.246.535.548.535.301 0 .547-.24.547-.535zm-.693-5.94a2.195 2.195 0 0 0 -.335-.218l-2.056-1.08a1.883 1.883 0 0 0 -.325-.138l-.043-.015a2.07 2.07 0 0 0 -1.095 0 1.375 1.375 0 0 0 -.37.153l-2.066 1.08c-.1.055-.235.142-.335.219-.436.36-.682.884-.682 1.452v3.133c0 1.048.872 1.889 1.933 1.889h3.609c.302 0 .547-.24.547-.535v-.426a.11.11 0 0 0 -.111-.109h-4.045a.835.835 0 0 1 -.838-.819v-3.133c0-.306.168-.579.436-.72l2.123-1.103a.825.825 0 0 1 .681 0l2.123 1.102a.811.811 0 0 1 .436.72v2.752c0 .295.246.535.547.535.302 0 .548-.24.548-.535v-2.751a1.833 1.833 0 0 0 -.682-1.452zm-14.307 8.475v-11.5c0-1.376 1.124-2.5 2.5-2.5h17c1.376 0 2.5 1.124 2.5 2.5v11.5h.5a.5.5 0 0 1 .5.5v2c0 .414-.14.797-.421 1.079-.282.28-.665.421-1.079.421h-21c-.414 0-.797-.14-1.079-.421-.28-.282-.421-.665-.421-1.079v-2a.5.5 0 0 1 .5-.5zm1-11.5c0-.824.676-1.5 1.5-1.5h17c.824 0 1.5.676 1.5 1.5v11.5h-7.5a.5.5 0 0 0 -.5.5v.5h-4v-.5a.5.5 0 0 0 -.5-.5h-7.5zm13 12.5v.5a.5.5 0 0 1 -.5.5h-5a.5.5 0 0 1 -.5-.5v-.5h-8v1.5c0 .186.06.303.129.371.068.07.185.129.371.129h21c.186 0 .303-.06.371-.129.07-.068.129-.185.129-.371v-1.5z" fill="#18303f" fill-rule="evenodd"/></svg>