<svg width="25" height="25" viewBox="0 0 25 25" fill="none"><g id="device_connected_colorful" fill-rule="evenodd" clip-rule="evenodd"><path d="M21.24 15.382c.104.057.255.148.348.228.454.375.722.921.71 1.512v2.866a.565.565 0 0 1-.57.558.565.565 0 0 1-.57-.558v-2.866a.845.845 0 0 0-.454-.75l-2.212-1.149a.859.859 0 0 0-.71 0l-2.21 1.149a.845.845 0 0 0-.455.75v3.264a.87.87 0 0 0 .873.853h4.213c.059 0 .117.046.117.114v.444a.565.565 0 0 1-.57.557h-3.76c-1.106 0-2.013-.876-2.013-1.968v-3.264c0-.591.256-1.137.71-1.512.104-.08.244-.17.349-.228l2.153-1.125c.116-.069.244-.126.384-.16a2.156 2.156 0 0 1 1.14 0l.045.016c.116.04.237.083.34.144l2.141 1.125Zm.046 5.857h.454c.314 0 .57.25.57.558a.565.565 0 0 1-.57.557.565.565 0 0 1-.57-.557v-.444c0-.057.046-.114.116-.114Z" fill="#F9470B" yggColor="backgroundAccentDefault"/><path d="M5.999.773c-.408 0-.802.07-1.17.2a3.794 3.794 0 0 0-2.52 3.549c0 2.03 1.673 3.748 3.689 3.748.407 0 .801-.07 1.17-.2a3.794 3.794 0 0 0 2.52-3.549c0-2.03-1.673-3.748-3.69-3.748Zm-2.69 3.748A2.79 2.79 0 0 1 5.156 1.92c.267-.094.55-.145.843-.145 1.446 0 2.689 1.252 2.689 2.748a2.79 2.79 0 0 1-1.845 2.602c-.267.094-.551.145-.843.145-1.447 0-2.69-1.252-2.69-2.748Zm.287 5.996-.007.006c-.998.808-1.648 2.12-1.648 3.66v1.813a.5.5 0 0 1-1 0v-1.812c0-2.91 2-5.308 4.688-5.51.122-.008.246-.013.37-.013 2.872 0 5.056 2.48 5.056 5.523v1.812a.5.5 0 1 1-1 0v-1.812c0-1.536-.645-2.843-1.636-3.652a3.808 3.808 0 0 0-2.422-.871c-.882 0-1.701.304-2.37.83l-.03.026Zm4.182 7.145a.5.5 0 0 1 .499-.462h.653a.5.5 0 1 1 0 1h-.19l-.42 5.564a.5.5 0 0 1-.498.463h-.916a.57.57 0 0 1-.018 0H4.175a.5.5 0 0 1-.499-.462l-.42-5.565h-.19a.5.5 0 1 1 0-1h.653a.5.5 0 0 1 .499.462l.42 5.565h2.204a.57.57 0 0 1 .019 0h.497l.42-5.565ZM12.75 4.43h2.626c1.424 0 2.5 1.076 2.5 2.5v4.296l-.897-.898a.5.5 0 0 0-.708.707l1.749 1.749a.5.5 0 0 0 .707 0l1.748-1.749a.5.5 0 1 0-.707-.707l-.892.892V6.93c0-1.976-1.524-3.5-3.5-3.5H12.75a.5.5 0 1 0 0 1Zm-1.36-.471a.5.5 0 1 1-1 0 .5.5 0 0 1 1 0ZM1.95 17.684a.5.5 0 1 1-1 0 .5.5 0 0 1 1 0Zm9.1 0a.5.5 0 1 1-1 0 .5.5 0 0 1 1 0Z" fill="#18303F" yggColor="iconDefault"/></g></svg>