<svg fill="none" height="25" viewBox="0 0 25 25" width="25"><path clip-rule="evenodd" d="m11.039 5.887c-.045.066-.089-.029-.089-.108v-.612a.151.151 0 0 0 -.151-.151h-.303a.453.453 0 0 1 0-.908.454.454 0 0 0 .454-.453c0-.25.203-.454.453-.454h.038c.23 0 .416.215.416.444 0 .23.186.388.416.388h1.814c.23 0 .416-.186.416-.416v-.34a.076.076 0 0 0 -.075-.076h-2.495a.076.076 0 0 1 -.076-.075v-.378c0-.251.203-.454.454-.454.25 0 .453-.203.453-.454 0-.25.203-.453.454-.453h.038c.229 0 .416.214.416.444s.186.387.415.387h1.361c.48 0 .87.39.87.87v.416c0 .25-.204.453-.454.453a.454.454 0 0 0 -.454.454c0 .25-.203.453-.453.453h-1.739a.454.454 0 0 0 -.454.454c0 .25-.203.454-.453.454h-1.121c-.054 0-.12.07-.151.115zm-7.875-4.35h2.419c.983 0 1.815.832 1.815 1.89v2.42a1.84 1.84 0 0 1 -1.815 1.813h-2.419c-1.058 0-1.89-.832-1.89-1.814v-2.42c0-1.058.832-1.89 1.89-1.89zm1.966 5.293c.831 0 1.436-.604 1.436-1.436v-1.589c0-.756-.605-1.436-1.436-1.436h-1.588c-.756 0-1.436.68-1.436 1.436v1.588c0 .832.68 1.436 1.436 1.436h1.588zm-1.361-3.553h1.134c.453 0 .756.378.756.756v1.134a.758.758 0 0 1 -.756.756h-1.134a.758.758 0 0 1 -.756-.756v-1.134c0-.378.302-.756.756-.756zm17.615-1.74h-2.42c-.982 0-1.889.832-1.889 1.89v2.42c0 .982.83 1.89 1.89 1.89h2.419c.983 0 1.89-.832 1.89-1.89v-2.42c0-1.058-.832-1.89-1.89-1.89zm1.058 3.856c0 .832-.68 1.436-1.512 1.436h-1.512c-.831 0-1.512-.604-1.512-1.436v-1.588c0-.756.68-1.436 1.512-1.436h1.512c.832 0 1.512.68 1.512 1.436zm-2.797-2.116h1.135c.378 0 .756.378.756.756v1.134a.758.758 0 0 1 -.756.756h-1.135a.758.758 0 0 1 -.756-.756v-1.134c0-.378.303-.756.756-.756zm-14.062 14.062h-2.419c-1.058 0-1.89.832-1.89 1.89v2.42c0 .982.832 1.89 1.89 1.89h2.419c.983 0 1.89-.832 1.89-1.89v-2.42c-.075-1.058-.907-1.89-1.89-1.89zm.983 3.856c0 .832-.605 1.512-1.436 1.512h-1.588c-.756 0-1.436-.68-1.436-1.512v-1.512c0-.832.68-1.512 1.436-1.512h1.588c.831 0 1.436.68 1.436 1.512zm-2.797-2.116h1.134c.453 0 .756.378.756.756v1.134a.758.758 0 0 1 -.756.756h-1.134a.758.758 0 0 1 -.756-.756v-1.134c0-.378.302-.756.756-.756zm10.28 1.82a.466.466 0 0 1 -.454-.461.453.453 0 0 0 -.453-.454h-.832a.453.453 0 0 0 -.453.454.454.454 0 1 1 -.908 0 .453.453 0 0 0 -.453-.454h-.832a.453.453 0 0 0 0 .908.454.454 0 1 1 0 .907.453.453 0 0 0 -.453.454v.869c0 .23-.215.416-.445.416-.229 0-.387-.186-.387-.416v-3.1c0-.48.389-.87.869-.87h.416a.454.454 0 0 0 .454-.453.453.453 0 1 1 .907 0 .454.454 0 0 0 .907 0v-.831a.454.454 0 0 1 .907 0v.831a.454.454 0 0 0 .908 0v-1.323a.87.87 0 0 0 -.87-.87h-.416a.453.453 0 0 0 -.453.454c0 .25-.203.454-.454.454h-.416a.87.87 0 0 1 -.869-.87v-.453c0-.23.214-.416.444-.416s.388-.186.388-.416v-.037a.453.453 0 1 1 .907 0c0 .25.203.453.453.453h1.739a.454.454 0 0 0 .454-.453v-.038c0-.23-.215-.416-.444-.416-.23 0-.388-.186-.388-.416v-.454a.87.87 0 0 0 -.869-.869h-.416a.454.454 0 0 0 -.454.454.453.453 0 1 1 -.907 0 .453.453 0 0 0 -.453-.454h-.832a.454.454 0 1 1 0-.907h2.931a1 1 0 0 0 1-1v-.777a.87.87 0 0 0 -.869-.87h-.416a.454.454 0 0 1 0-.906h1.323c.48 0 .869.389.869.869v.416a.454.454 0 0 0 .908 0 .453.453 0 1 1 .907 0v1.21a.076.076 0 0 1 -.076.075h-.794a.87.87 0 0 0 -.869.87v1.322a.454.454 0 0 0 .907 0c0-.25.203-.453.454-.453.25 0 .453-.203.453-.454v-.831c0-.25.204-.454.454-.454a.454.454 0 0 0 .454-.454.453.453 0 0 1 .586-.433.452.452 0 0 1 -.133-.322v-.83a.453.453 0 1 1 .907 0v.831a.454.454 0 0 1 -.586.434.452.452 0 0 1 .133.321c0 .251.203.454.454.454.25 0 .453.203.453.454 0 .25.203.453.454.453a.453.453 0 0 1 0 .908.454.454 0 0 0 -.454.453v.038c0 .23.215.416.444.416.23 0 .388-.186.388-.416v-.038a.453.453 0 1 1 .907 0v2.117a.076.076 0 0 1 -.076.076h-.378a.453.453 0 0 1 -.453-.454.454.454 0 0 0 -.454-.454h-1.739a.453.453 0 0 1 0-.907.454.454 0 0 0 .454-.454v-.037c0-.23-.215-.416-.444-.416-.23 0-.388.186-.388.416v.037c0 .251-.203.454-.453.454a.454.454 0 0 0 -.454.454v.037c0 .23-.214.416-.444.416s-.388.187-.388.416v.416c0 .042.034.076.076.076h3.856c.25 0 .453.203.453.453s.203.454.454.454h.038c.229 0 .416-.215.416-.444 0-.23.186-.388.415-.388h.038c.251 0 .454.203.454.454v.416c0 .48.389.869.869.869h.416c.251 0 .454.203.454.454v.037c0 .23-.215.416-.445.416-.229 0-.387.186-.387.416v.907c0 .23.215.416.444.416.23 0 .388.186.388.416v2.137a1 1 0 0 1 -1 1h-4.708c-.23 0-.416-.214-.416-.444s-.186-.387-.416-.387h-.869a.454.454 0 1 1 0-.907c.25 0 .453-.204.453-.454v-.87c0-.23-.214-.415-.444-.415s-.387.186-.387.416v.869a.454.454 0 0 1 -.908 0v-.019a.468.468 0 0 0 -.433-.469 17.36 17.36 0 0 0 -.625-.035zm6.577.9v-1.285a.453.453 0 1 0 -.907 0v.037c0 .23-.214.416-.444.416s-.387.186-.387.416v.01c0 .255.224.453.479.436.44-.03.87-.03 1.259-.03zm0 0v.038c0 .48.418.87.898.87s.841-.39.841-.87v-.416a.453.453 0 0 0 -.453-.454h-.074a.38.38 0 0 0 -.38.38c0 .26-.261.463-.52.455-.102-.003-.207-.003-.312-.003zm-3.385-5.292a1 1 0 0 0 -1 1v.646a1 1 0 0 0 1 1h.647a1 1 0 0 0 1-1v-.646a1 1 0 0 0 -1-1zm-2.285.907a.453.453 0 0 0 -.453.454v.831a.453.453 0 1 0 .907 0v-.831a.454.454 0 0 0 -.454-.454zm6.115.832c-.23 0-.445.186-.445.415v.076c0 .23.215.416.445.416.229 0 .387-.186.387-.416v-.076c0-.23-.158-.415-.387-.415zm-3.922 3.109c0 .23.214.444.444.444s.387-.215.387-.444c0-.23-.214-.388-.444-.388a.369.369 0 0 0 -.387.388zm-14.59-10.14c.25 0 .453-.203.453-.454v-.491c0-.48.389-.87.87-.87h.415a.454.454 0 1 1 0 .907.453.453 0 0 0 0 .908h.416c.48 0 .87-.39.87-.87v-.775a1 1 0 0 0 -1-1h-2.385a1 1 0 0 0 -1 1v6.484a.453.453 0 1 0 .907 0v-4.385c0-.25.203-.453.454-.453zm4.005 1.285c0 .25.203.455.454.45a5.771 5.771 0 0 0 1.293-.148c.037 0 .068-.03.068-.067v-2.088c0-.23.157-.416.387-.416s.444-.186.444-.415v-.038c0-.25.203-.454.454-.454.25 0 .453-.203.453-.453s.203-.454.454-.454h.378a.076.076 0 0 0 .076-.076v-2.115a.454.454 0 0 0 -.908 0v.831c0 .25-.203.454-.453.454a.454.454 0 0 0 -.454.453c0 .25-.203.454-.453.454h-1.739a.454.454 0 0 0 -.454.454v.037c0 .23.158.416.388.416.229 0 .444.186.444.416v.076c0 .23-.158.415-.388.415-.229 0-.444.187-.444.416v.076c0 .23.158.416.388.416.229 0 .444.186.444.415v.076c0 .23-.158.416-.388.416-.229 0-.444.186-.444.416v.038zm14.46.445a.386.386 0 0 1 -.398-.393v-.054c0-.25.203-.454.454-.454h.831a.454.454 0 1 0 0-.907.454.454 0 0 1 -.453-.453v-1.74a.453.453 0 1 1 .907 0v.832c0 .25.203.454.454.454.25 0 .453.203.453.454v1.776c0 .23-.214.416-.444.416s-.387.186-.387.416v.075c0 .23.214.416.444.416.229 0 .387.186.387.416v.907c0 .23-.214.416-.444.416s-.387-.186-.387-.416v-.037a.454.454 0 0 0 -.454-.454.454.454 0 0 1 -.454-.454v-.772c0-.26-.249-.456-.509-.444zm-16.659-.824a.43.43 0 0 0 -.436.445l.001.022.001.022c.017.257-.176.494-.434.494a.409.409 0 0 0 -.408.408v.045c0 .25.203.454.453.454h.416c.48 0 .87.39.87.87v.415a.453.453 0 1 0 .907 0c0-.25.203-.454.453-.454h.832a.454.454 0 0 0 0-.907.454.454 0 0 1 -.454-.453.453.453 0 0 0 -.453-.454.454.454 0 0 1 -.454-.454.453.453 0 0 0 -.453-.453zm8.723-5.298a.388.388 0 0 1 -.399-.393v-.054c0-.25.203-.453.454-.453h1.739c.25 0 .453-.204.453-.454a.454.454 0 0 1 .908 0v1.777c0 .23-.215.415-.445.415-.229 0-.387-.214-.387-.444s-.186-.387-.416-.387h-.075c-.23 0-.416.214-.416.444s-.186.387-.416.387h-.094a.398.398 0 0 1 -.397-.397c0-.26-.25-.453-.509-.44zm-5.69 9.684a.907.907 0 0 0 .907-.907v-.454a.453.453 0 1 0 -.907 0c0 .25-.203.454-.454.454h-.831a.454.454 0 1 0 0 .907zm4.459 6.585c0-.23.187-.387.416-.387h1.815c.229 0 .416.215.416.444 0 .23-.187.388-.416.388h-1.815c-.23 0-.416-.215-.416-.445zm-3.55-6.132a.453.453 0 1 1 .906 0v.843c0 .244-.226.442-.47.442-.223 0-.383-.166-.401-.388a12.849 12.849 0 0 1 -.035-.897zm.453-9.223c.25 0 .454-.203.452-.454-.003-.308-.01-.612-.033-.9-.017-.222-.177-.385-.399-.385-.246 0-.474.2-.474.446v.84c0 .25.203.453.454.453zm2.643 2.645a.454.454 0 1 1 0-.908.454.454 0 0 1 0 .908zm-1.776 3.478c-.23 0-.416.215-.416.444 0 .23.186.388.416.388h.075c.23 0 .416-.158.416-.388s-.186-.444-.416-.444zm-.414-.453a.453.453 0 1 1 -.453-.454h.378c.041 0 .075.034.075.076zm-.002-8.809c0-.23-.215-.416-.445-.416-.229 0-.387.187-.387.416v.076c0 .23.158.416.387.416.23 0 .445-.187.445-.416zm7.485 4.867a.436.436 0 0 1 -.453-.444.453.453 0 1 1 .907 0v.014c0 .214-.146.404-.359.423a3.335 3.335 0 0 1 -.095.007zm3.098 1.304c0 .23.187.444.416.444h.076c.229 0 .416-.158.416-.388s-.187-.444-.416-.444h-.076c-.23 0-.416.158-.416.388zm-9.676-7.04a.454.454 0 1 1 -.907 0 .454.454 0 0 1 .907 0zm-6.652 8.392a.454.454 0 1 0 0-.907.454.454 0 0 0 0 .907zm16.328-3.11c0-.229.187-.443.416-.443h.076c.229 0 .416.214.416.444s-.187.387-.416.387h-.076c-.23 0-.416-.158-.416-.387zm-9.676-6.189c0 .25.146.454.397.454.25 0 .51-.203.51-.454a.454.454 0 0 0 -.907 0zm3.025 18.079a.437.437 0 0 1 .454.444.454.454 0 0 1 -.908 0v-.013c0-.215.146-.404.36-.424zm-4.383-17.624c.25 0 .459-.204.44-.453l-.007-.079-.001-.005a.395.395 0 0 0 -.402-.37c-.25 0-.484.203-.484.453s.203.454.454.454zm2.643-.832a.454.454 0 1 1 0-.909.454.454 0 0 1 0 .909zm1.286 4.838c0-.25-.204-.46-.453-.439l-.02.002c-.212.02-.36.21-.36.424v.051c0 .23.159.416.389.416s.444-.186.444-.416zm-2.193 3.112c.25-.022.453.19.453.44v.039c0 .23-.214.415-.444.415s-.387-.186-.387-.415v-.052c0-.214.145-.406.359-.426l.019-.002zm.066 12.311c-.23 0-.444.186-.444.416s.157.416.387.416.444-.158.444-.388-.158-.444-.387-.444z" fill="#18303f" fill-rule="evenodd"/></svg>