<svg width="25" height="25" viewBox="0 0 25 25" fill="none"><g id="device_hub_colorful" fill-rule="evenodd" clip-rule="evenodd"><path d="M15.482 9.807c.1.055.246.142.335.219.436.36.694.884.683 1.452v2.751a.543.543 0 0 1-.549.535.543.543 0 0 1-.548-.535v-2.751a.81.81 0 0 0-.436-.72L12.84 9.654a.827.827 0 0 0-.682 0l-2.126 1.102a.81.81 0 0 0-.437.72v3.134c0 .448.38.82.84.82h4.05a.11.11 0 0 1 .112.108v.426a.543.543 0 0 1-.549.535h-3.613c-1.063 0-1.936-.84-1.936-1.889v-3.133c0-.568.246-1.092.682-1.452.101-.077.235-.164.336-.219l2.07-1.08c.112-.066.235-.12.37-.153a2.076 2.076 0 0 1 1.096 0l.043.015c.11.039.227.08.326.138l2.059 1.08Zm.035 5.623h.436c.301 0 .547.24.547.535a.542.542 0 0 1-.547.535.542.542 0 0 1-.548-.535v-.426a.11.11 0 0 1 .112-.109Z" fill="#F9470B" yggColor="backgroundAccentDefault"/><path d="M2.441 6.925C2.127 8.339 2 10.155 2 12.5s.127 4.16.441 5.575c.312 1.403.795 2.35 1.465 3.02.67.669 1.616 1.152 3.019 1.464 1.414.314 3.23.441 5.575.441s4.16-.127 5.575-.441c1.403-.312 2.35-.795 3.02-1.465.669-.67 1.152-1.616 1.464-3.019.314-1.414.441-3.23.441-5.575s-.127-4.16-.441-5.575c-.312-1.403-.795-2.35-1.465-3.02-.67-.669-1.616-1.152-3.019-1.464C16.661 2.127 14.845 2 12.5 2s-4.16.127-5.575.441c-1.403.312-2.35.795-3.02 1.465-.669.67-1.152 1.616-1.464 3.019ZM12.5 1C3.03 1 1 3.03 1 12.5S3.03 24 12.5 24 24 21.97 24 12.5 21.97 1 12.5 1Z" fill="#18303F" yggColor="iconDefault"/></g></svg>