<svg fill="none" height="25" viewBox="0 0 25 25" width="25"><path d="m16.174 1.697c2.132 0 4.046 1.481 4.437 3.567.596-.01 1.18.166 1.673.536.668.5.974 1.31.974 2.078v.017c0 .218 0 .515-.104.843-.11.346-.323.69-.693 1.048-.35.34-.861.45-1.258.494-.35.04-.712.037-.976.035h-.5a.5.5 0 0 1 0-1h.522c.265.002.557.003.842-.029.36-.04.578-.125.674-.218.275-.266.385-.473.436-.634.054-.17.057-.327.057-.556 0-.524-.21-1.005-.574-1.278-.394-.296-.892-.401-1.41-.297a.5.5 0 0 1 -.597-.46c-.11-1.777-1.676-3.146-3.503-3.146-1.223 0-2.474.79-3.039 1.919a.5.5 0 0 1 -.447.276c-.675 0-1.31.227-1.712.628a.492.492 0 0 1 -.041.037c-.513.41-.716.904-.716 1.546 0 1.155.849 2.096 2 2.211h4.456a.5.5 0 1 1 0 1h-4.48a3.202 3.202 0 0 1 -2.977-3.211c0-.899.308-1.69 1.07-2.31.558-.546 1.33-.83 2.098-.89.779-1.31 2.271-2.206 3.788-2.206zm1.685 9.88a.498.498 0 0 1 .355-.147h.001c.154 0 .291.069.383.178l1.791 1.791a.5.5 0 0 1 -.707.707l-.967-.967v3.478c0 2.047-1.578 3.625-3.625 3.625h-2.588a.5.5 0 0 1 0-1h2.588c1.495 0 2.625-1.13 2.625-2.625v-3.483l-.972.972a.5.5 0 0 1 -.707-.707l1.823-1.823zm.356-1.227a.5.5 0 1 0 0-1 .5.5 0 0 0 0 1zm-8.717 5.862a2.286 2.286 0 0 0 -.349-.227l-2.141-1.126a1.956 1.956 0 0 0 -.339-.143l-.045-.016a2.158 2.158 0 0 0 -1.14 0c-.14.034-.269.09-.385.159l-2.153 1.126a3.046 3.046 0 0 0 -.35.227c-.453.376-.71.922-.71 1.513v3.264c0 1.092.909 1.967 2.014 1.967h3.76c.314 0 .57-.25.57-.557v-.443a.115.115 0 0 0 -.117-.114h-4.213a.87.87 0 0 1 -.873-.853v-3.264c0-.319.175-.603.454-.75l2.212-1.15a.86.86 0 0 1 .71 0l2.21 1.15c.28.147.455.431.455.75v2.866c0 .307.256.557.57.557s.57-.25.57-.557v-2.866a1.91 1.91 0 0 0 -.71-1.513zm.152 5.63h-.454a.115.115 0 0 0 -.117.114v.443c0 .307.257.557.57.557.315 0 .571-.25.571-.557a.565.565 0 0 0 -.57-.557z" fill="#18303f"/></svg>