<svg fill="none" height="25" viewBox="0 0 25 25" width="25"><g fill="#f9470b"><path d="m11.953 15.826h-.436a.11.11 0 0 0 -.112.109v.425c0 .295.246.535.548.535.301 0 .547-.24.547-.535a.542.542 0 0 0 -.547-.534z"/><path d="m11.807 10.421a2.19 2.19 0 0 0 -.335-.218l-2.056-1.08c-.112-.066-.246-.11-.369-.154a2.07 2.07 0 0 0 -1.094 0 1.375 1.375 0 0 0 -.37.153l-2.066 1.08a2.91 2.91 0 0 0 -.335.22c-.436.36-.682.884-.682 1.451v3.134c0 1.048.872 1.888 1.933 1.888h3.609c.302 0 .547-.24.547-.535v-.425a.11.11 0 0 0 -.111-.11h-4.045a.835.835 0 0 1 -.838-.818v-3.134c0-.305.168-.578.436-.72l2.123-1.103a.824.824 0 0 1 .681 0l2.123 1.103a.811.811 0 0 1 .436.72v2.752c0 .294.246.535.547.535.302 0 .548-.24.548-.535v-2.752a1.833 1.833 0 0 0 -.682-1.452z"/></g><g fill="#18303f"><path d="m14.63 3.629c-.068.068-.128.185-.128.371v1a.5.5 0 0 1 -1 0v-1c0-.414.14-.797.421-1.079.282-.28.665-.421 1.079-.421h8c.414 0 .797.14 1.079.421.28.282.421.665.421 1.079v17c0 .414-.14.797-.421 1.079-.282.28-.665.421-1.079.421h-8c-.414 0-.797-.14-1.079-.421-.281-.282-.421-.665-.421-1.079a.5.5 0 1 1 1 0c0 .186.06.303.128.371.07.07.186.129.372.129h8c.186 0 .303-.06.371-.129.069-.068.129-.185.129-.371v-10.5h-5.5a.5.5 0 1 1 0-1h5.5v-2h-5.5a.5.5 0 1 1 0-1h5.5v-2.5c0-.186-.06-.303-.129-.371-.068-.07-.185-.129-.371-.129h-8c-.186 0-.303.06-.372.129z"/><path clip-rule="evenodd" d="m.943 6.946c.294-.294.695-.441 1.13-.441h12.853c.435 0 .837.147 1.13.44.294.295.441.696.441 1.131v9.64c0 .435-.147.836-.44 1.13-.294.294-.696.441-1.13.441h-5.93v2.213h2.716a.5.5 0 0 1 0 1h-3.177a.52.52 0 0 1 -.076 0h-3.173a.5.5 0 0 1 0-1h2.711v-2.213h-5.925c-.435 0-.836-.147-1.13-.44-.294-.295-.441-.696-.441-1.131v-9.64c0-.435.147-.836.441-1.13zm.707.707c-.081.081-.148.215-.148.423v9.64c0 .208.067.342.148.423s.215.148.423.148h12.853c.208 0 .342-.067.423-.148s.149-.215.149-.423v-9.64c0-.208-.068-.342-.149-.423-.08-.081-.215-.148-.423-.148h-12.853c-.208 0-.342.067-.423.148z" fill-rule="evenodd"/><path d="m18.502 13a.5.5 0 1 0 0-1 .5.5 0 0 0 0 1z"/></g></svg>