<svg fill="none" height="25" viewBox="0 0 25 25" width="25"><g clip-rule="evenodd" fill-rule="evenodd"><path d="m15.482 9.807c.1.055.246.142.335.219.436.36.694.884.683 1.452v2.751a.543.543 0 0 1 -.549.535.543.543 0 0 1 -.548-.535v-2.751a.81.81 0 0 0 -.436-.72l-2.127-1.104a.827.827 0 0 0 -.682 0l-2.126 1.102a.811.811 0 0 0 -.437.72v3.134c0 .448.38.819.84.819h4.05a.11.11 0 0 1 .112.11v.425a.543.543 0 0 1 -.549.535h-3.613c-1.063 0-1.936-.84-1.936-1.889v-3.133c0-.568.246-1.092.682-1.452.101-.077.235-.164.336-.219l2.07-1.08c.112-.066.235-.12.37-.153a2.076 2.076 0 0 1 1.096 0l.043.015c.11.039.227.08.326.138l2.059 1.08zm.035 5.623h.436c.301 0 .547.24.547.535a.542.542 0 0 1 -.547.535.542.542 0 0 1 -.548-.535v-.426a.11.11 0 0 1 .112-.109z" fill="#f9470b"/><path d="m2.441 6.925c-.314 1.414-.441 3.23-.441 5.575s.127 4.16.441 5.575c.312 1.403.795 2.35 1.465 3.02.67.669 1.616 1.152 3.019 1.464 1.414.314 3.23.441 5.575.441s4.16-.127 5.575-.441c1.403-.312 2.35-.795 3.02-1.465.669-.67 1.152-1.616 1.464-3.019.314-1.414.441-3.23.441-5.575s-.127-4.16-.441-5.575c-.312-1.403-.795-2.35-1.465-3.02-.67-.669-1.616-1.152-3.019-1.464-1.414-.314-3.23-.441-5.575-.441s-4.16.127-5.575.441c-1.403.312-2.35.795-3.02 1.465-.669.67-1.152 1.616-1.464 3.019zm10.059-5.925c-9.47 0-11.5 2.03-11.5 11.5s2.03 11.5 11.5 11.5 11.5-2.03 11.5-11.5-2.03-11.5-11.5-11.5z" fill="#18303f"/></g></svg>