<svg fill="none" height="25" viewBox="0 0 25 25" width="25"><path d="m14.63 3.629c-.068.068-.128.185-.128.371v1a.5.5 0 0 1 -1 0v-1c0-.414.14-.797.421-1.079.282-.28.665-.421 1.079-.421h8c.414 0 .797.14 1.079.421.28.282.421.665.421 1.079v17c0 .414-.14.797-.421 1.079-.282.28-.665.421-1.079.421h-8c-.414 0-.797-.14-1.079-.421-.281-.282-.421-.665-.421-1.079a.5.5 0 1 1 1 0c0 .186.06.303.128.371.07.07.186.129.372.129h8c.186 0 .303-.06.371-.129.069-.068.129-.185.129-.371v-10.5h-5.5a.5.5 0 1 1 0-1h5.5v-2h-5.5a.5.5 0 1 1 0-1h5.5v-2.5c0-.186-.06-.303-.129-.371-.068-.07-.185-.129-.371-.129h-8c-.186 0-.303.06-.372.129zm-3.158 6.574c.1.055.246.142.335.218.436.36.693.885.682 1.452v2.752a.542.542 0 0 1 -.548.535.542.542 0 0 1 -.547-.535v-2.752a.811.811 0 0 0 -.436-.72l-2.123-1.103a.824.824 0 0 0 -.681 0l-2.124 1.103a.811.811 0 0 0 -.436.72v3.134c0 .447.38.819.838.819h4.045a.11.11 0 0 1 .111.109v.425a.542.542 0 0 1 -.547.535h-3.608c-1.061 0-1.933-.84-1.933-1.888v-3.134c0-.567.246-1.091.682-1.452.1-.076.234-.163.335-.218l2.067-1.08c.112-.066.234-.121.369-.154a2.07 2.07 0 0 1 1.094 0l.044.016c.11.038.227.08.325.137l2.056 1.08zm.045 5.623h.436c.301 0 .547.24.547.534a.542.542 0 0 1 -.547.535.542.542 0 0 1 -.548-.535v-.425a.11.11 0 0 1 .112-.11zm-10.574-8.88c.294-.294.695-.441 1.13-.441h12.853c.435 0 .837.147 1.13.44.294.295.441.696.441 1.131v9.64c0 .435-.147.836-.44 1.13-.294.294-.696.441-1.13.441h-5.93v2.213h2.716a.5.5 0 0 1 0 1h-3.177a.52.52 0 0 1 -.076 0h-3.173a.5.5 0 0 1 0-1h2.711v-2.213h-5.925c-.435 0-.836-.147-1.13-.44-.294-.295-.441-.696-.441-1.131v-9.64c0-.435.147-.836.441-1.13zm.707.707c-.081.081-.148.215-.148.423v9.64c0 .208.067.342.148.423s.215.148.423.148h12.853c.208 0 .342-.067.423-.148s.149-.215.149-.423v-9.64c0-.208-.068-.342-.149-.423-.08-.081-.215-.148-.423-.148h-12.853c-.208 0-.342.067-.423.148zm17.352 4.847a.5.5 0 1 1 -1 0 .5.5 0 0 1 1 0z" fill="#18303f"/></svg>