<svg fill="none" height="25" viewBox="0 0 25 25" width="25"><path clip-rule="evenodd" d="m.75 3.201a2.5 2.5 0 0 1 2.5-2.5h8.972a2.5 2.5 0 0 1 2.5 2.5v5.259a.5.5 0 0 1 -1 0v-5.259a1.5 1.5 0 0 0 -1.5-1.5h-1.52v.186a1.5 1.5 0 0 1 -1.5 1.5h-2.93a1.5 1.5 0 0 1 -1.5-1.5v-.187h-1.522a1.5 1.5 0 0 0 -1.5 1.5v18.24a1.5 1.5 0 0 0 1.5 1.5h4.486a.5.5 0 1 1 0 1h-4.486a2.5 2.5 0 0 1 -2.5-2.5zm5.023-1.5h3.927v.186a.5.5 0 0 1 -.5.5h-2.927a.5.5 0 0 1 -.5-.5v-.187zm7.307 19.497v-9.356c.095-.625.67-1.15 1.27-1.15.621 0 1.16.542 1.16 1.115v5.837a.5.5 0 0 0 .5.5h3.318c2.17 0 3.925 1.728 3.925 3.808v1.616a.5.5 0 1 0 1 0v-1.616c0-2.658-2.228-4.808-4.925-4.808h-2.818v-5.337c0-1.15-1.01-2.116-2.16-2.116-1.16 0-2.126.966-2.265 2.052a.502.502 0 0 0 -.004.064v8.023l-1.662-1.97-.003-.002c-.374-.437-.916-.675-1.453-.725-.536-.05-1.115.081-1.565.446-.876.71-1.027 2.11-.286 2.975l.007.008 2.987 3.339a.5.5 0 0 0 .745-.667l-2.982-3.334c-.362-.427-.291-1.18.16-1.544.213-.174.52-.258.84-.228s.607.17.786.379h.001l2.543 3.014a.5.5 0 0 0 .882-.323z" fill="#18303f" fill-rule="evenodd"/><path d="m10.755 13.983h-.381a.097.097 0 0 0 -.098.095v.373c0 .258.215.468.48.468.263 0 .478-.21.478-.468a.474.474 0 0 0 -.479-.468zm-.127-4.729a1.917 1.917 0 0 0 -.293-.191l-1.799-.946c-.098-.057-.215-.095-.323-.134a1.812 1.812 0 0 0 -.958 0 1.203 1.203 0 0 0 -.322.134l-1.809.946a2.554 2.554 0 0 0 -.293.191 1.634 1.634 0 0 0 -.597 1.27v2.742c0 .917.763 1.653 1.692 1.653h3.158c.264 0 .479-.21.479-.468v-.373a.097.097 0 0 0 -.098-.095h-3.54a.73.73 0 0 1 -.733-.717v-2.742a.71.71 0 0 1 .382-.63l1.857-.965a.722.722 0 0 1 .597 0l1.857.965a.71.71 0 0 1 .382.63v2.408c0 .258.215.468.479.468.263 0 .479-.21.479-.468v-2.408a1.604 1.604 0 0 0 -.597-1.27z" fill="#f9470b"/></svg>