<svg fill="none" height="25" viewBox="0 0 25 25" width="25"><path d="m17.042 1.697c2.132 0 4.046 1.481 4.437 3.567a2.69 2.69 0 0 1 1.672.536c.669.5.975 1.31.975 2.078v.017c0 .218 0 .515-.104.843-.11.346-.323.69-.694 1.048-.35.34-.86.45-1.258.494-.349.04-.712.037-.975.035h-.5a.5.5 0 1 1 0-1h.522c.265.002.557.003.841-.029.361-.04.578-.125.675-.218.274-.266.385-.473.436-.634.054-.17.057-.327.057-.556 0-.524-.21-1.005-.575-1.278-.393-.296-.892-.401-1.409-.297a.5.5 0 0 1 -.597-.46c-.111-1.777-1.676-3.146-3.503-3.146-1.224 0-2.475.79-3.039 1.919a.5.5 0 0 1 -.447.276c-.676 0-1.31.227-1.712.628a.508.508 0 0 1 -.041.037c-.513.41-.717.904-.717 1.546 0 1.155.85 2.096 2 2.211h4.457a.5.5 0 0 1 0 1h-4.48c-.015 0-.03 0-.045-.002a3.202 3.202 0 0 1 -2.932-3.209c0-.899.308-1.69 1.07-2.31.558-.546 1.329-.83 2.097-.89.78-1.31 2.272-2.206 3.789-2.206zm-11.248 11.303a.499.499 0 0 1 -.383-.178l-1.791-1.792a.5.5 0 1 1 .707-.708l.967.967v-3.476c0-2.047 1.578-3.625 3.625-3.625a.5.5 0 1 1 0 1c-1.495 0-2.625 1.13-2.625 2.625v3.483l.972-.973a.5.5 0 0 1 .707.708l-1.823 1.823a.499.499 0 0 1 -.355.146zm13.788-3.15a.5.5 0 1 1 -1 0 .5.5 0 0 1 1 0zm-10.518 11.992h.453c.315 0 .57.25.57.557a.565.565 0 0 1 -.57.557.565.565 0 0 1 -.57-.557v-.443c0-.057.047-.114.117-.114zm-.047-5.857a1.91 1.91 0 0 1 1.06 1.74v2.866a.565.565 0 0 1 -.571.557.565.565 0 0 1 -.57-.557v-2.866a.845.845 0 0 0 -.454-.75l-2.212-1.15a.86.86 0 0 0 -.71 0l-2.211 1.15a.845.845 0 0 0 -.454.75v3.264a.87.87 0 0 0 .873.853h4.212c.058 0 .117.045.117.114v.443a.565.565 0 0 1 -.57.557h-3.76c-1.106 0-2.014-.875-2.014-1.967v-3.264c0-.591.256-1.137.71-1.513.105-.08.245-.17.35-.227l2.153-1.126c.116-.068.244-.125.384-.16a2.158 2.158 0 0 1 1.14 0l.046.017c.115.04.236.083.338.143l2.142 1.126z" fill="#18303f"/></svg>