<svg fill="none" height="25" viewBox="0 0 25 25" width="25"><path d="m17.34 1.852a1.445 1.445 0 0 1 1.096-.471h3.992c.43 0 .819.163 1.095.47.273.304.403.708.403 1.14v7.772c0 .432-.13.836-.403 1.14a1.444 1.444 0 0 1 -1.095.47h-3.992c-.43 0-.82-.163-1.096-.47-.272-.304-.402-.708-.402-1.14v-7.773c0-.432.13-.836.402-1.14zm.744.668c-.077.086-.146.237-.146.471v7.772c0 .234.069.385.146.47.072.081.183.14.352.14h3.992c.168 0 .279-.059.351-.14.078-.085.147-.236.147-.47v-7.773c0-.234-.07-.385-.146-.47a.447.447 0 0 0 -.352-.14h-.68a.75.75 0 0 1 -.738.616h-1.15a.75.75 0 0 1 -.739-.616h-.685a.447.447 0 0 0 -.352.14zm-9.95 17.32h.219c.15 0 .273.12.273.267a.271.271 0 0 1 -.273.267.271.271 0 0 1 -.274-.267v-.213c0-.027.022-.054.056-.054zm-.021-2.812c.05.027.122.071.167.11.218.18.346.442.34.725v1.376a.271.271 0 0 1 -.273.268.271.271 0 0 1 -.274-.268v-1.376a.405.405 0 0 0 -.217-.36l-1.062-.551a.413.413 0 0 0 -.34 0l-1.062.551a.405.405 0 0 0 -.218.36v1.567c0 .224.19.41.419.41h2.022c.028 0 .056.021.056.054v.213a.271.271 0 0 1 -.274.267h-1.804a.956.956 0 0 1 -.967-.944v-1.567a.934.934 0 0 1 .509-.835l1.033-.54a.69.69 0 0 1 .185-.077c.178-.049.368-.049.547 0l.021.008c.056.02.114.04.164.069zm-4.816-4.054c2.398-.307 4.215-.297 6.634.006a2.413 2.413 0 0 1 2.093 2.099c.297 2.412.31 4.218.008 6.636a2.406 2.406 0 0 1 -2.127 2.09c-2.347.257-4.196.265-6.57.004a2.404 2.404 0 0 1 -2.124-2.109c-.29-2.452-.274-4.256.006-6.621a2.406 2.406 0 0 1 2.08-2.106zm6.51.999c-2.34-.294-4.072-.303-6.383-.007a1.406 1.406 0 0 0 -1.214 1.231c-.271 2.29-.286 4.016-.006 6.387.077.649.591 1.16 1.24 1.23 2.3.254 4.075.246 6.352-.003a1.406 1.406 0 0 0 1.244-1.22c.291-2.331.28-4.055-.009-6.39a1.413 1.413 0 0 0 -1.225-1.228zm-3.68-4.775a.5.5 0 0 1 -.5-.5v-.578c0-2.047 1.578-3.625 3.625-3.625h3.482l-.97-.969a.5.5 0 1 1 .708-.707l1.821 1.822a.498.498 0 0 1 .147.354c0 .15-.066.283-.17.375l-1.798 1.799a.5.5 0 1 1 -.707-.707l.966-.967h-3.479c-1.495 0-2.625 1.13-2.625 2.625v.578a.5.5 0 0 1 -.5.5zm0 1.13a.5.5 0 1 1 0 1 .5.5 0 0 1 0-1z" fill="#18303f"/></svg>