<svg width="25" height="25" viewBox="0 0 25 25" fill="none"><g id="device_transfer" fill-rule="evenodd" clip-rule="evenodd"><path id="backgroundAccentDefault" d="M8.825 2.963c.105.057.256.148.35.228.453.375.72.921.71 1.512V7.57a.565.565 0 0 1-.571.558.565.565 0 0 1-.57-.558V4.703a.845.845 0 0 0-.454-.75L6.078 2.804a.86.86 0 0 0-.71 0L3.157 3.953a.845.845 0 0 0-.454.75v3.264a.87.87 0 0 0 .873.853h4.213c.058 0 .117.046.117.114v.444a.565.565 0 0 1-.57.557h-3.76c-1.106 0-2.014-.876-2.014-1.968V4.703c0-.59.257-1.137.71-1.512.105-.08.245-.17.35-.228l2.153-1.125c.116-.069.244-.126.384-.16a2.157 2.157 0 0 1 1.14 0l.046.016c.115.04.236.083.339.144l2.141 1.125Zm.047 5.857h.454c.314 0 .57.25.57.558a.565.565 0 0 1-.57.557.565.565 0 0 1-.57-.557v-.444c0-.057.046-.114.116-.114Z" fill="#F9470B"/><path id="iconDefault" d="M13.11 2.554a.5.5 0 0 1 .5-.5h3.577c2.047 0 3.625 1.578 3.625 3.625V9.16l.97-.969a.5.5 0 1 1 .706.707l-1.821 1.822a.498.498 0 0 1-.73-.023L18.14 8.898a.5.5 0 0 1 .707-.707l.966.967v-3.48c0-1.494-1.13-2.624-2.625-2.624H13.61a.5.5 0 0 1-.5-.5Zm4.033 9.917c-.43 0-.82.163-1.096.47-.272.304-.402.708-.402 1.14v7.772c0 .431.13.836.402 1.139.277.308.665.471 1.096.471h3.992c.43 0 .819-.163 1.095-.471.273-.303.403-.707.403-1.14v-7.771c0-.432-.13-.836-.403-1.14a1.444 1.444 0 0 0-1.095-.47h-3.992Zm-.498 1.61c0-.234.069-.385.146-.47a.447.447 0 0 1 .352-.14h.685a.75.75 0 0 0 .738.616h1.151a.75.75 0 0 0 .738-.616h.68c.168 0 .279.059.352.14.077.085.146.236.146.47v7.772c0 .234-.07.385-.146.47a.447.447 0 0 1-.352.14h-3.992a.447.447 0 0 1-.352-.14c-.077-.085-.146-.236-.146-.47V14.08ZM4.688 11.949c.149 0 .282.065.374.169l1.8 1.8a.5.5 0 1 1-.706.708l-.968-.968v3.479c0 1.494 1.13 2.625 2.625 2.625h4.166a.5.5 0 0 1 0 1H7.813c-2.047 0-3.625-1.578-3.625-3.625v-3.482l-.971.97a.5.5 0 1 1-.707-.706l1.823-1.823a.5.5 0 0 1 .353-.147h.002Zm7.292-9.395a.5.5 0 1 1-1 0 .5.5 0 0 1 1 0Zm2.48 17.708a.5.5 0 1 1-.999 0 .5.5 0 0 1 1 0Z" fill="#18303F"/></g></svg>