<svg fill="none" height="25" viewBox="0 0 25 25" width="25"><path clip-rule="evenodd" d="m12.82 10.95c-.956.152-1.674.877-1.8 1.793-.34 3.188-.369 5.543.029 8.841a2.12 2.12 0 0 0 1.793 1.793c3.154.37 5.595.313 8.731-.029h.001c.943-.1 1.69-.845 1.815-1.765.427-3.212.427-5.593 0-8.804-.152-.957-.878-1.675-1.795-1.8-3.217-.426-5.596-.482-8.774-.029zm-.09-.621c3.245-.464 5.683-.405 8.947.028 1.204.163 2.141 1.106 2.334 2.327l.001.008c.434 3.268.434 5.705 0 8.973a2.69 2.69 0 0 1 -2.372 2.308c-3.172.346-5.663.404-8.874.028h-.006a2.748 2.748 0 0 1 -2.334-2.335v-.004c-.405-3.353-.376-5.758-.03-8.99l.001-.01c.163-1.204 1.107-2.14 2.328-2.333h.004z" fill="#18303f" fill-rule="evenodd"/><path clip-rule="evenodd" d="m7.99 1.696a7.014 7.014 0 0 0 -1.105 13.942c.166.026.308.14.372.297a6.43 6.43 0 0 0 5.96 4.013.76.76 0 0 0 .715-.49.87.87 0 0 0 -.112-.833 5.666 5.666 0 0 1 -1.061-2.668c-.018-.14.094-.319.33-.365a7.014 7.014 0 0 0 -1.363-13.896h-3.736z" fill="#6d7b82" fill-rule="evenodd"/><path d="m7.69 5.717c0-.22.19-.435.57-.647.39-.22.846-.33 1.37-.33.761 0 1.35.212 1.764.635.422.423.634.964.634 1.623 0 .364-.072.715-.216 1.053-.135.33-.283.584-.444.761-.152.178-.347.38-.583.61-.237.219-.385.367-.444.443a1.44 1.44 0 0 0 -.368.71c-.05.263-.076.668-.076 1.218 0 .195-.114.292-.343.292-.228 0-.342-.123-.342-.368 0-.651.046-1.129.14-1.433a2.04 2.04 0 0 1 .405-.774c.068-.068.216-.207.444-.419a8.19 8.19 0 0 0 .546-.545c.127-.144.25-.351.367-.622.127-.27.19-.558.19-.862 0-.508-.147-.905-.443-1.192-.296-.288-.719-.432-1.269-.432-.33 0-.604.055-.824.165a1.984 1.984 0 0 0 -.482.305c-.11.101-.203.152-.28.152a.323.323 0 0 1 -.316-.343zm2.312 7.959a.413.413 0 1 1 -.826 0 .413.413 0 0 1 .826 0zm-2.011-11.98a7.014 7.014 0 0 0 -1.106 13.942c.166.026.308.14.372.297a6.43 6.43 0 0 0 5.96 4.013.76.76 0 0 0 .715-.49.87.87 0 0 0 -.112-.833 5.666 5.666 0 0 1 -1.061-2.668c-.018-.14.094-.319.33-.365a7.014 7.014 0 0 0 -1.363-13.896h-3.736zm-6.284 7.014a6.284 6.284 0 0 1 6.283-6.284h3.735a6.284 6.284 0 0 1 1.221 12.45c-.51.1-.989.556-.913 1.17a6.396 6.396 0 0 0 1.198 3.011.141.141 0 0 1 .021.132.055.055 0 0 1 -.016.025s-.004.004-.02.004a5.7 5.7 0 0 1 -5.283-3.557 1.216 1.216 0 0 0 -.933-.744 6.286 6.286 0 0 1 -5.293-6.207z" fill="#18303f"/><path clip-rule="evenodd" d="m19.127 15.53c.036.021.072.043.1.071.259.258.46.574.517.918v1.72a.37.37 0 0 1 -.345.345.37.37 0 0 1 -.344-.344v-1.72a.615.615 0 0 0 -.286-.46l-1.32-.688c-.172-.057-.315-.086-.459 0l-1.319.688a.492.492 0 0 0 -.287.46v1.95c-.028.258.201.487.488.487h2.524c.028-.029.057 0 .057.057v.287a.37.37 0 0 1 -.344.344h-2.237c-.631 0-1.176-.487-1.176-1.176v-1.95c0-.401.115-.688.402-.918a.514.514 0 0 1 .2-.143l1.29-.66a.575.575 0 0 1 .23-.114 1.4 1.4 0 0 1 .689 0c.057.057.143.086.23.114l1.29.66c.028.029.064.05.1.072zm-.1 3.427h.286a.37.37 0 0 1 .344.344.37.37 0 0 1 -.344.344.37.37 0 0 1 -.344-.344v-.287c-.029-.028 0-.057.057-.057z" fill="#f9470b" fill-rule="evenodd"/></svg>