<svg fill="none" height="25" viewBox="0 0 25 25" width="25"><path clip-rule="evenodd" d="m11.377 19.18a1.593 1.593 0 1 0 2.252 2.253 1.593 1.593 0 0 0 -2.252-2.253zm.707 1.546a.593.593 0 1 1 .838-.839.593.593 0 0 1 -.838.839zm3.044-9.51a.5.5 0 0 1 .504.495l.02 2.257h1.37a1.397 1.397 0 0 1 1.404 1.403l.035 4.113a.43.43 0 0 1 0 .023c-.114 3.09-2.755 5.61-5.934 5.382-3.135.031-5.821-2.364-5.99-5.468v-4.043a1.438 1.438 0 0 1 .441-1.037c.146-.146.309-.249.495-.308.176-.056.349-.066.498-.065h1.217l-.02-2.224a.5.5 0 0 1 1-.008l.02 2.232h4.463l-.02-2.248a.5.5 0 0 1 .497-.504zm-7.59 4.155a.44.44 0 0 1 .147-.322.221.221 0 0 1 .093-.064c.03-.01.08-.018.186-.017h9.052c.24.003.408.171.41.412l.035 4.101c-.1 2.55-2.287 4.605-4.881 4.41a.506.506 0 0 0 -.045-.002c-2.633.036-4.853-1.97-4.998-4.51v-4.008z" fill="#18303f" fill-rule="evenodd"/><path d="m6.486 4.497a7.354 7.354 0 0 1 5.893-2.946c1.903 0 3.637.72 4.945 1.906a.5.5 0 0 0 .671-.741 8.338 8.338 0 0 0 -5.615-2.166 8.354 8.354 0 0 0 -6.693 3.345.5.5 0 0 0 .8.601zm2.397 1.186a5.245 5.245 0 0 1 3.496-1.328c1.723 0 3.252.827 4.214 2.107a.5.5 0 1 0 .8-.6 6.258 6.258 0 0 0 -5.014-2.507 6.245 6.245 0 0 0 -4.16 1.58.5.5 0 1 0 .664.748zm3.497 1.48a3.06 3.06 0 0 0 -2.453 1.227.5.5 0 1 1 -.8-.6 4.06 4.06 0 0 1 3.253-1.626c.68 0 1.322.167 1.886.463a.5.5 0 1 1 -.465.886 3.05 3.05 0 0 0 -1.421-.349zm6.491-2.385a.5.5 0 1 0 0-1 .5.5 0 0 0 0 1zm-10.937 1.75a.5.5 0 1 1 -1 0 .5.5 0 0 1 1 0zm7.5 2.063a.5.5 0 1 0 0-1 .5.5 0 0 0 0 1zm-2.938 2.562a.5.5 0 1 0 0-1 .5.5 0 0 0 0 1z" fill="#038c6a"/></svg>