<svg fill="none" height="25" viewBox="0 0 25 25" width="25"><path clip-rule="evenodd" d="m12.5.5c-6.627 0-12 5.373-12 12 0 2.185.584 4.235 1.606 6 .54.935 1.56 1.4 2.573 1.4h.46a1.8 1.8 0 0 1 1.801 1.8 2.8 2.8 0 0 0 2.8 2.8h5.52a2.8 2.8 0 0 0 2.8-2.8 1.8 1.8 0 0 1 1.8-1.8h.461c1.012 0 2.033-.465 2.573-1.4a11.947 11.947 0 0 0 1.606-6c0-6.627-5.373-12-12-12zm-11 12c0-6.075 4.925-11 11-11s11 4.925 11 11c0 2.004-.536 3.882-1.471 5.5-.33.569-.983.9-1.708.9h-.461a2.8 2.8 0 0 0 -2.8 2.8 1.8 1.8 0 0 1 -1.8 1.8h-5.52a1.8 1.8 0 0 1 -1.8-1.8 2.8 2.8 0 0 0 -2.8-2.8h-.461c-.725 0-1.378-.331-1.708-.9a10.947 10.947 0 0 1 -1.471-5.5zm11-9c-.119 0-.237.002-.354.007a.5.5 0 1 1 -.039-1 10.164 10.164 0 0 1 .786 0 .5.5 0 1 1 -.039 1 9.174 9.174 0 0 0 -.354-.007zm-2.82-.088a.5.5 0 0 1 -.296.642c-.222.082-.44.172-.653.27a.5.5 0 1 1 -.419-.907c.237-.11.48-.21.726-.301a.5.5 0 0 1 .642.296zm6.282-.296a.5.5 0 0 0 -.346.938c.222.082.44.172.653.27a.5.5 0 1 0 .419-.907c-.237-.11-.48-.21-.726-.301zm-9.544 2.068a.5.5 0 0 1 -.027.707c-.173.16-.34.327-.5.5a.5.5 0 1 1 -.734-.68c.178-.191.363-.376.555-.554a.5.5 0 0 1 .706.027zm12.87-.027a.5.5 0 0 0 -.679.734c.173.16.34.327.5.5a.5.5 0 0 0 .734-.68 10.036 10.036 0 0 0 -.555-.554zm-15.208 2.91a.5.5 0 0 1 .245.664c-.099.214-.19.431-.271.653a.5.5 0 1 1 -.938-.346c.09-.247.191-.489.3-.726a.5.5 0 0 1 .664-.244zm17.503.245a.5.5 0 0 0 -.907.42c.098.213.188.43.27.652a.5.5 0 1 0 .938-.346 9.955 9.955 0 0 0 -.3-.726zm-18.556 3.315a.5.5 0 0 1 .48.519 9.174 9.174 0 0 0 .004.798.5.5 0 0 1 -.999.049 10.154 10.154 0 0 1 -.004-.886.5.5 0 0 1 .519-.48zm19.465.48a.5.5 0 1 0 -.999.039 9.256 9.256 0 0 1 -.004.798.5.5 0 0 0 1 .049 10.205 10.205 0 0 0 .003-.886zm-18.788 4.024a.5.5 0 0 1 .667.236c.063.134.13.266.2.396a.5.5 0 0 1 -.88.474 9.949 9.949 0 0 1 -.223-.44.5.5 0 0 1 .236-.666zm17.828.666a.5.5 0 0 0 -.903-.43 9.01 9.01 0 0 1 -.2.396.5.5 0 0 0 .88.474 9.97 9.97 0 0 0 .223-.44zm-2.759-7.857a.5.5 0 0 0 -.705-.705l-7.975 6.874a.5.5 0 0 0 -.163.478l.185.915a.5.5 0 0 0 .391.39l.915.186a.5.5 0 0 0 .478-.164zm-7.743 7.038-.062-.303 2.64-2.276-2.276 2.64-.303-.06z" fill="#18303f" fill-rule="evenodd"/></svg>