<svg width="25" height="25" viewBox="0 0 25 25" fill="none"><g id="dial_medium_colorful" fill-rule="evenodd" clip-rule="evenodd"><path d="M16.019 6.485a1 1 0 0 1 1.333-.472c.39.186.76.397 1.11.63a1 1 0 1 1-1.112 1.663 6.86 6.86 0 0 0-.86-.488 1 1 0 0 1-.471-1.333Zm4.013 3.057a1 1 0 0 1 1.327.488c.177.384.327.784.449 1.198a1 1 0 0 1-1.92.564 6.715 6.715 0 0 0-.345-.923 1 1 0 0 1 .489-1.327Zm1.202 4.906a1 1 0 0 1 .863 1.12c-.026.201-.057.403-.093.607a1 1 0 0 1-1.97-.35c.032-.173.058-.345.08-.514a1 1 0 0 1 1.12-.863Z" fill="#C70546" yggColor="iconCritical"/><path d="M12.5 3.5C6.434 3.5 1.518 8.416 1.518 14.481c0 2.001.534 3.876 1.468 5.49.329.568.98.899 1.704.899h15.617c.723 0 1.375-.33 1.704-.899a10.928 10.928 0 0 0 1.468-5.49C23.48 8.416 18.564 3.5 12.5 3.5ZM.518 14.481C.519 7.864 5.883 2.5 12.499 2.5c6.617 0 11.981 5.364 11.981 11.981 0 2.182-.583 4.228-1.603 5.991-.54.933-1.558 1.398-2.569 1.398H4.691c-1.01 0-2.03-.465-2.57-1.398A11.928 11.928 0 0 1 .52 14.481Zm12-7.481c-.177 0-.351.004-.522.012a1 1 0 1 1-.09-1.998 13.681 13.681 0 0 1 1.223 0 1 1 0 1 1-.09 1.998A11.674 11.674 0 0 0 12.52 7Zm-3.5-.515a1 1 0 0 1-.472 1.333 6.857 6.857 0 0 0-.86.488 1 1 0 0 1-1.11-1.662c.349-.234.72-.445 1.11-.63a1 1 0 0 1 1.332.471ZM5.495 10.87a1 1 0 0 0-1.816-.839 8.721 8.721 0 0 0-.449 1.198 1 1 0 1 0 1.919.564c.095-.322.21-.63.346-.923Zm-1.691 3.579a1 1 0 0 1 1.12.863c.022.17.048.34.08.514a1 1 0 1 1-1.97.35 13.034 13.034 0 0 1-.093-.607 1 1 0 0 1 .863-1.12Zm10.715 2.963a2 2 0 0 0-1-1.733v-4.267a1 1 0 0 0-2 0v4.267a2 2 0 1 0 3 1.733Z" fill="#18303F" yggColor="iconDefault"/></g></svg>