<svg fill="none" height="25" viewBox="0 0 25 25" width="25"><g clip-rule="evenodd" fill-rule="evenodd"><path d="m16.019 6.485a1 1 0 0 1 1.333-.472c.39.186.76.397 1.11.63a1 1 0 1 1 -1.112 1.663 6.86 6.86 0 0 0 -.86-.488 1 1 0 0 1 -.471-1.333zm4.013 3.057a1 1 0 0 1 1.327.488c.177.384.327.784.449 1.198a1 1 0 0 1 -1.92.564 6.715 6.715 0 0 0 -.345-.923 1 1 0 0 1 .489-1.327zm1.202 4.906a1 1 0 0 1 .863 1.12c-.026.201-.057.403-.093.607a1 1 0 0 1 -1.97-.35c.032-.173.058-.345.08-.514a1 1 0 0 1 1.12-.863z" fill="#c70546"/><path d="m12.5 3.5c-6.066 0-10.982 4.916-10.982 10.981 0 2.001.534 3.876 1.468 5.49.329.568.98.899 1.704.899h15.617c.723 0 1.375-.33 1.704-.899a10.928 10.928 0 0 0 1.468-5.49c.001-6.065-4.915-10.981-10.979-10.981zm-11.982 10.981c.001-6.617 5.365-11.981 11.981-11.981 6.617 0 11.981 5.364 11.981 11.981 0 2.182-.583 4.228-1.603 5.991-.54.933-1.558 1.398-2.569 1.398h-15.617c-1.01 0-2.03-.465-2.57-1.398a11.928 11.928 0 0 1 -1.601-5.991zm12-7.481c-.177 0-.351.004-.522.012a1 1 0 1 1 -.09-1.998 13.681 13.681 0 0 1 1.223 0 1 1 0 1 1 -.09 1.998 11.674 11.674 0 0 0 -.519-.012zm-3.5-.515a1 1 0 0 1 -.472 1.333 6.857 6.857 0 0 0 -.86.488 1 1 0 0 1 -1.11-1.662c.349-.234.72-.445 1.11-.63a1 1 0 0 1 1.332.471zm-3.523 4.385a1 1 0 0 0 -1.816-.839 8.721 8.721 0 0 0 -.449 1.198 1 1 0 1 0 1.919.564c.095-.322.21-.63.346-.923zm-1.691 3.579a1 1 0 0 1 1.12.863c.022.17.048.34.08.514a1 1 0 1 1 -1.97.35 13.034 13.034 0 0 1 -.093-.607 1 1 0 0 1 .863-1.12zm10.715 2.963a2 2 0 0 0 -1-1.733v-4.267a1 1 0 0 0 -2 0v4.267a2 2 0 1 0 3 1.733z" fill="#18303f"/></g></svg>