<svg fill="none" height="25" viewBox="0 0 25 25" width="25"><path clip-rule="evenodd" d="m1.519 14.481c0-6.065 4.916-10.981 10.98-10.981 6.065 0 10.981 4.916 10.981 10.981a10.93 10.93 0 0 1 -1.468 5.49c-.329.568-.98.899-1.704.899h-15.617c-.723 0-1.375-.33-1.704-.899a10.928 10.928 0 0 1 -1.468-5.49zm10.98-11.981c-6.615 0-11.979 5.364-11.979 11.981 0 2.182.583 4.228 1.603 5.991.54.933 1.558 1.398 2.57 1.398h15.616c1.01 0 2.03-.465 2.57-1.398a11.929 11.929 0 0 0 1.602-5.991c-.001-6.617-5.365-11.981-11.981-11.981zm-.502 4.512a11.678 11.678 0 0 1 1.043 0 1 1 0 1 0 .09-1.998 13.681 13.681 0 0 0 -1.223 0 1 1 0 0 0 .09 1.998zm-3.45.806a1 1 0 0 0 -.86-1.805c-.39.186-.761.397-1.11.63a1 1 0 1 0 1.11 1.663c.269-.179.555-.342.86-.488zm-3.541 1.724a1 1 0 0 1 .489 1.327c-.136.293-.251.6-.346.923a1 1 0 0 1 -1.919-.564c.122-.414.272-.814.449-1.198a1 1 0 0 1 1.327-.488zm-.082 5.77a1 1 0 0 0 -1.983.256c.026.201.057.403.093.607a1 1 0 0 0 1.97-.35 11.06 11.06 0 0 1 -.08-.514zm8.595.366a2 2 0 1 1 -2 0v-4.267a1 1 0 0 1 2 0zm3.833-9.665a1 1 0 1 0 -.861 1.805c.305.146.591.309.86.488a1 1 0 0 0 1.11-1.663 8.859 8.859 0 0 0 -1.11-.63zm4.007 4.017a1 1 0 1 0 -1.816.839c.136.293.251.6.346.923a1 1 0 0 0 1.919-.564 8.715 8.715 0 0 0 -.45-1.198zm.738 5.538a1 1 0 1 0 -1.983-.257c-.022.17-.049.34-.08.514a1 1 0 0 0 1.97.35c.036-.204.067-.406.093-.607z" fill="#18303f" fill-rule="evenodd"/></svg>