<svg fill="none" height="25" viewBox="0 0 25 25" width="25"><g clip-rule="evenodd" fill-rule="evenodd"><path d="m1.519 14.481c0-6.065 4.916-10.981 10.98-10.981 6.065 0 10.981 4.916 10.981 10.981 0 2.001-.534 3.876-1.468 5.49-.329.568-.98.899-1.704.899h-15.617c-.723 0-1.375-.33-1.704-.899a10.928 10.928 0 0 1 -1.468-5.49zm10.98-11.981c-6.616 0-11.979 5.364-11.979 11.981 0 2.182.583 4.228 1.603 5.991.54.933 1.558 1.398 2.57 1.398h15.616c1.01 0 2.03-.465 2.57-1.398a11.929 11.929 0 0 0 1.602-5.991c-.001-6.617-5.365-11.981-11.981-11.981zm3.519 3.985a1 1 0 0 1 1.333-.472c.39.186.76.397 1.11.63a1 1 0 1 1 -1.112 1.663 6.86 6.86 0 0 0 -.86-.488 1 1 0 0 1 -.471-1.333zm4.013 3.057a1 1 0 0 1 1.327.488c.177.384.327.784.449 1.198a1 1 0 1 1 -1.919.564 6.715 6.715 0 0 0 -.346-.923 1 1 0 0 1 .489-1.327zm1.202 4.906a1 1 0 0 1 .863 1.12c-.026.201-.057.403-.093.607a1 1 0 1 1 -1.969-.35c.03-.173.057-.344.079-.514a1 1 0 0 1 1.12-.863zm-6.482 3.552a2 2 0 1 1 0-2h3.268a1 1 0 0 1 0 2h-3.269z" fill="#c70546"/><path d="m11.997 7.012a11.678 11.678 0 0 1 1.043 0 1 1 0 1 0 .09-1.998 13.681 13.681 0 0 0 -1.223 0 1 1 0 0 0 .09 1.998zm-2.978-.527a1 1 0 0 1 -.472 1.333 6.859 6.859 0 0 0 -.86.488 1 1 0 0 1 -1.11-1.663c.349-.233.72-.444 1.11-.63a1 1 0 0 1 1.332.472zm-3.524 4.385a1 1 0 0 0 -1.816-.839 8.721 8.721 0 0 0 -.449 1.198 1 1 0 1 0 1.92.564c.094-.322.21-.63.345-.923zm-1.691 3.58a1 1 0 0 1 1.12.862c.022.17.048.341.08.514a1 1 0 1 1 -1.97.35 13.034 13.034 0 0 1 -.093-.607 1 1 0 0 1 .863-1.12z" fill="#18303f"/></g></svg>