<svg fill="none" height="25" viewBox="0 0 25 25" width="25"><path clip-rule="evenodd" d="m22.58 2.052a.478.478 0 0 1 -.466.484.471.471 0 0 1 -.477-.466c.072-.32.2-.624.378-.899a.099.099 0 0 1 .142-.037.08.08 0 0 1 .044.037c.173.271.3.569.378.88zm-2.811.199a.478.478 0 0 0 .019-.199 2.964 2.964 0 0 0 -.379-.88.08.08 0 0 0 -.043-.038.112.112 0 0 0 -.149.037 2.98 2.98 0 0 0 -.378.881.478.478 0 0 0 .93.199zm-9.782-.932a1.43 1.43 0 0 0 -1.59 1.976 6.082 6.082 0 0 0 -4.752 5.44h-1.069a.5.5 0 0 0 0 1h.35l.727 1.107.002.003c.052.078.11.15.172.218a3.16 3.16 0 0 0 -.577.7 4.983 4.983 0 0 0 -.31.584l-1.596 3.503a.5.5 0 0 0 .744.615l.002-.002.011-.007.048-.032a11.677 11.677 0 0 1 .932-.548 12.57 12.57 0 0 1 1.652-.728l-2.47 7.241-.003.01a1.12 1.12 0 0 0 .536 1.323 1.002 1.002 0 0 0 1.332-.473l4.414-8.618c1.232.145 2.481.657 3.603 1.78 1.995 1.994 4.334 2.312 6.342 2.026l2.384 4.876a1.002 1.002 0 0 0 1.375.45 1.12 1.12 0 0 0 .492-1.3l-.003-.01-1.573-4.76a13.793 13.793 0 0 0 2.024-1.03 8.695 8.695 0 0 0 .278-.182l.016-.011.005-.003.001-.002-.288-.408.29.408a.5.5 0 0 0 .166-.615l-1.594-3.504c-.238-.524-.55-.993-.93-1.313a.499.499 0 0 0 -.332-.873h-.983v-2.08a3.422 3.422 0 0 0 2.915-3.25v-1.041a.5.5 0 0 0 -1 0v1.03a2.422 2.422 0 0 1 -1.915 2.246v-3.276a.5.5 0 1 0 -1 0v3.277a2.421 2.421 0 0 1 -1.922-2.247v-1.03a.5.5 0 0 0 -1 0v1.065a3.42 3.42 0 0 0 2.922 3.227v2.08h-.988a.5.5 0 0 0 -.496.435h-1.397l.572-.862h.335a.5.5 0 0 0 0-1h-1.074a6.082 6.082 0 0 0 -4.75-5.439l.011-.025a1.43 1.43 0 0 0 -1.042-1.95zm-.28 1.833h.019a.43.43 0 1 0 -.037 0zm-3.594 2.489a5.082 5.082 0 0 1 8.651 3.093h-10.114a5.083 5.083 0 0 1 1.464-3.093zm-1.981 4.093h11.174l-.368.556a.743.743 0 0 1 -.428.306h-9.521l-.069.001a.741.741 0 0 1 -.432-.305l-.366-.558zm10.184 1.862h.002v.024c.099 0 .196-.008.293-.024h5.406c.283 0 .73.273 1.133 1.164l1.416 3.112c-.165.1-.384.228-.648.367-.634.335-1.519.733-2.532.998-2.025.53-4.488.512-6.532-1.533-1.426-1.426-3.028-1.995-4.56-2.099a.619.619 0 0 0 -.019-.001c-1.029-.067-2.025.075-2.914.307-.96.25-1.808.61-2.46.934l.949-2.085c.36-.795.74-1.097 1.033-1.154.072.01.144.014.217.014h9.218-.002zm5.323 6.608c.2-.052.395-.108.584-.169l1.564 4.734a.12.12 0 0 1 -.018.104l-.004-.008-2.261-4.626zm-16.404 4.598 4.204-8.208a8.51 8.51 0 0 0 -1.53.213l-2.696 7.9a.12.12 0 0 0 .018.103zm6.45-17.098a.5.5 0 0 0 -.002-1 4.563 4.563 0 0 0 -2.174.557.5.5 0 0 0 .48.878 3.563 3.563 0 0 1 1.696-.435zm7.177-3.314a.478.478 0 0 0 .133-.337 2.966 2.966 0 0 0 -.378-.881.08.08 0 0 0 -.044-.037.1.1 0 0 0 -.142.037 2.81 2.81 0 0 0 -.379.9.472.472 0 0 0 .478.465.478.478 0 0 0 .332-.147z" fill="#18303f" fill-rule="evenodd"/></svg>