<svg width="25" height="25" viewBox="0 0 25 25" fill="none"><g id="direction"><path fill-rule="evenodd" clip-rule="evenodd" d="m2.27 2.27 20.485 8.452.002.002a.023.023 0 0 1 .006.007c0 .002 0 .003.002.005a.337.337 0 0 1-.084.069l-8.794 2.47a.787.787 0 0 0-.53.296.836.836 0 0 0-.18.411l-2.373 8.704c-.02.033-.027.038-.027.038a.236.236 0 0 1-.053.03h-.001L2.27 2.27Zm.348-.939a.688.688 0 0 0-.317-.1.964.964 0 0 0-.3.03c-.151.037-.346.12-.483.256-.176.176-.422.594-.203 1.058L9.81 23.161a1.05 1.05 0 0 0 .962.61.498.498 0 0 0 .158-.026 1.46 1.46 0 0 0 .487-.253c.149-.124.237-.267.302-.398a.44.44 0 0 0 .035-.092l2.389-8.76 8.864-2.49a.51.51 0 0 0 .089-.034c.154-.077.308-.192.43-.334a.954.954 0 0 0 .246-.613 1.051 1.051 0 0 0-.61-.962L2.619 1.33Z" fill="#18303F" yggColor="iconDefault"/></g></svg>