<svg fill="none" height="25" viewBox="0 0 25 25" width="25"><path clip-rule="evenodd" d="m12 1a.5.5 0 0 1 .5-.5c5.385 0 9.94 3.546 11.46 8.43a.5.5 0 1 1 -.955.297c-1.394-4.477-5.57-7.727-10.505-7.727a.5.5 0 0 1 -.5-.5zm-1.495.161a.5.5 0 0 1 -.381.596c-.29.064-.576.14-.856.225a.5.5 0 0 1 -.294-.956c.307-.094.618-.176.935-.245a.5.5 0 0 1 .596.38zm-3.413 1.175a.5.5 0 0 1 -.176.685 10.994 10.994 0 0 0 -5.416 9.479c0 3.709 1.835 6.988 4.648 8.982a.5.5 0 1 1 -.578.816 11.985 11.985 0 0 1 -5.07-9.798c0-4.404 2.373-8.253 5.907-10.34a.5.5 0 0 1 .685.176zm16.908 9.664a.5.5 0 0 1 .5.5c0 6.627-5.373 12-12 12-1.452 0-2.844-.258-4.133-.731a.5.5 0 1 1 .344-.939c1.181.433 2.457.67 3.789.67 6.075 0 11-4.925 11-11a.5.5 0 0 1 .5-.5z" fill="#18303f" fill-rule="evenodd"/></svg>