<svg width="25" height="25" viewBox="0 0 25 25" fill="none"><g id="donut" clip-path="url(#clip0_143_215)"><path id="iconDefault" fill-rule="evenodd" clip-rule="evenodd" d="M12 1a.5.5 0 0 1 .5-.5c5.385 0 9.94 3.546 11.46 8.43a.5.5 0 1 1-.955.297C21.611 4.75 17.435 1.5 12.5 1.5A.5.5 0 0 1 12 1Zm-1.495.161a.5.5 0 0 1-.381.596c-.29.064-.576.14-.856.225a.5.5 0 0 1-.294-.956c.307-.094.618-.176.935-.245a.5.5 0 0 1 .596.38ZM7.092 2.336a.5.5 0 0 1-.176.685A10.994 10.994 0 0 0 1.5 12.5c0 3.709 1.835 6.988 4.648 8.982a.5.5 0 1 1-.578.816A11.985 11.985 0 0 1 .5 12.5c0-4.404 2.373-8.253 5.907-10.34a.5.5 0 0 1 .685.176ZM24 12a.5.5 0 0 1 .5.5c0 6.627-5.373 12-12 12-1.452 0-2.844-.258-4.133-.731a.5.5 0 1 1 .344-.939c1.181.433 2.457.67 3.789.67 6.075 0 11-4.925 11-11a.5.5 0 0 1 .5-.5Z" fill="#18303F"/></g><defs><clipPath id="clip0_143_215"><path fill="#fff" d="M0 0h25v25H0z"/></clipPath></defs></svg>