<svg fill="none" height="25" viewBox="0 0 25 25" width="25"><path clip-rule="evenodd" d="m20.535 2.318c0-1.039-.989-1.818-2.003-1.818h-8.517c-.546 0-1.047.16-1.419.487a1.733 1.733 0 0 0 -.584 1.331v6.134a.5.5 0 0 0 1 0v-6.134c0-.26.095-.45.243-.58.154-.135.405-.238.76-.238h8.517c.589 0 1.003.45 1.003.818v17.397c0 .368-.414.819-1.003.819h-5.883a.5.5 0 0 0 0 1h5.883c1.014 0 2.003-.78 2.003-1.819v-17.396zm-14.211 17.443a1.182 1.182 0 1 0 -1-.001v.349a.5.5 0 0 0 1 0zm3.125-6.695v1.488h.071a1.64 1.64 0 0 1 1.636 1.636v4.048c0 .874-.4 1.688-.99 2.278s-1.405.99-2.278.99h-4.12c-.874 0-1.688-.4-2.279-.99-.59-.59-.99-1.404-.99-2.278v-4.048a1.64 1.64 0 0 1 1.636-1.636h.065v-1.488c0-1.98 1.644-3.625 3.625-3.625 1.98 0 3.624 1.644 3.624 3.625zm-3.624-2.626c1.428 0 2.624 1.197 2.624 2.625v1.488h-5.249v-1.488c0-1.428 1.197-2.625 2.625-2.625zm3.695 5.113h-.553a.54.54 0 0 1 -.018 0h-6.814a.64.64 0 0 0 -.636.636v4.048c0 .567.264 1.137.698 1.571.433.434 1.003.698 1.571.698h4.12c.567 0 1.137-.264 1.571-.698s.697-1.004.697-1.57v-4.05a.64.64 0 0 0 -.636-.635zm7.46-5.658a.5.5 0 0 1 1 0v1.405a.5.5 0 1 1 -1 0v-1.404zm.497 3.456a.5.5 0 1 1 -.001-1 .5.5 0 0 1 .001 1z" fill="#18303f" fill-rule="evenodd"/></svg>