<svg width="25" height="25" viewBox="0 0 25 25" fill="none"><g id="door_unlocked_colorful" fill-rule="evenodd" clip-rule="evenodd"><path d="M4.5 1.012a2.5 2.5 0 0 0-2.5 2.5V21.5A2.5 2.5 0 0 0 4.5 24h7.238a2.5 2.5 0 0 0 2.5-2.5v-2.123h6.631a2 2 0 0 0 2-2v-.397a2 2 0 0 0-2-2H7.339a2 2 0 0 0-2 2v.397a2 2 0 0 0 2 2h5.9V21.5a1.5 1.5 0 0 1-1.5 1.5H4.5A1.5 1.5 0 0 1 3 21.5V3.512a1.5 1.5 0 0 1 1.5-1.5h7.238a1.5 1.5 0 0 1 1.5 1.5v8.566a.5.5 0 0 0 1 0V3.512a2.5 2.5 0 0 0-2.5-2.5H4.5Zm2.84 14.967h13.529a1 1 0 0 1 1 1v.398a1 1 0 0 1-1 1H7.339a1 1 0 0 1-1-1v-.397a1 1 0 0 1 1-1Zm6.398-1.623a.5.5 0 1 0 0-1 .5.5 0 0 0 0 1ZM6.09 4.992a.5.5 0 1 1-1 0 .5.5 0 0 1 1 0Z" fill="#18303F" yggColor="iconDefault"/><path d="M5.264 7.146a.5.5 0 0 1 .707 0l2.146 2.147 2.147-2.147a.5.5 0 0 1 .707.708L8.824 10l2.146 2.146a.5.5 0 1 1-.707.707l-2.146-2.146-2.146 2.146a.5.5 0 1 1-.707-.707L7.41 10 5.264 7.854a.5.5 0 0 1 0-.708Z" fill="#F28102" yggColor="backgroundWarningDefault"/></g></svg>