<svg fill="none" height="25" viewBox="0 0 25 25" width="25"><path clip-rule="evenodd" d="m1.574 2.318c0-1.039.989-1.818 2.003-1.818h8.517c1.014 0 2.003.78 2.003 1.818v11.182a.5.5 0 0 1 -1 0v-10.743c0-.581-.535-1.03-1.277-.834l-5.711 1.494a2.265 2.265 0 0 0 -1.081.682c-.293.33-.45.701-.45 1.03v11.599c0 .33.157.7.45 1.03.291.328.682.577 1.078.682l2.851.702.006.001.01.003v-2.922c0-.898.732-1.63 1.63-1.63h7.35c.898 0 1.631.732 1.631 1.63v4.028c0 .87-.399 1.681-.986 2.269-.588.587-1.399.986-2.269.986h-4.101c-.87 0-1.681-.399-2.269-.986a3.466 3.466 0 0 1 -.722-1.048.5.5 0 0 1 -.16.027l-5.497.034h-.003c-1.014 0-2.003-.78-2.003-1.819v-17.396zm9.029 13.276a.634.634 0 0 0 -.63.63v4.028c0 .564.262 1.13.693 1.562.431.431.998.693 1.562.693h4.101c.564 0 1.13-.262 1.562-.693.431-.432.693-.998.693-1.562v-4.028a.634.634 0 0 0 -.631-.63zm4.198 4.225a1.17 1.17 0 1 0 -1 .002v.336a.5.5 0 1 0 1 0zm-.503-1.228a.17.17 0 0 0 -.012.34h.026a.17.17 0 0 0 -.014-.34zm-8.017-8.804a.5.5 0 0 0 -1 0v1.318a.5.5 0 0 0 1 0zm-.5 3.349a.5.5 0 1 0 0-1 .5.5 0 0 0 0 1zm11.562.095c0-1.4 1.173-2.572 2.572-2.572.909 0 1.728.495 2.189 1.237a.5.5 0 1 0 .849-.527c-.63-1.016-1.76-1.71-3.038-1.71-1.952 0-3.572 1.62-3.572 3.572v.47a.5.5 0 0 0 1 0zm5.826.369a.5.5 0 1 0 0-1 .5.5 0 0 0 0 1z" fill="#18303f" fill-rule="evenodd"/></svg>