<svg width="25" height="25" viewBox="0 0 25 25" fill="none"><g id="door_open"><path id="iconDefault" fill-rule="evenodd" clip-rule="evenodd" d="M8.503 1.5C7.489 1.5 6.5 2.28 6.5 3.318v17.397c0 1.04.989 1.819 2.003 1.819h8.517c1.014 0 2.003-.78 2.003-1.819V3.319c0-1.039-.989-1.818-2.003-1.818H8.503Zm9.52 2.257c0-.581-.534-1.03-1.277-.834l-5.711 1.494c-.397.104-.79.354-1.08.682-.294.33-.451.701-.451 1.03v11.599c0 .33.157.7.45 1.03.29.328.682.577 1.077.682l5.704 1.404h.002c.438.105.759.023.957-.118.194-.139.329-.375.329-.714V3.757Zm-7.316 6.53a.5.5 0 0 1 .5.5v1.318a.5.5 0 1 1-1 0v-1.318a.5.5 0 0 1 .5-.5Zm0 3.849a.5.5 0 1 0 0-1 .5.5 0 0 0 0 1Z" fill="#18303F"/></g></svg>