<svg fill="none" height="25" viewBox="0 0 25 25" width="25"><path clip-rule="evenodd" d="m1.574 2.318c0-1.039.989-1.818 2.003-1.818h8.517c.547 0 1.048.16 1.42.487.377.33.583.8.583 1.331v10.823a.5.5 0 0 1 -1 0v-10.823c0-.26-.095-.45-.243-.58-.154-.135-.404-.238-.76-.238h-8.517c-.589 0-1.003.45-1.003.818v17.397c0 .368.414.819 1.003.819h4.259a.5.5 0 0 1 0 1h-4.259c-1.014 0-2.003-.78-2.003-1.819v-17.396zm18.341 8.341c-1.399 0-2.572 1.173-2.572 2.572v.47a.5.5 0 0 1 -1 0v-.47c0-1.951 1.62-3.572 3.572-3.572 1.278 0 2.408.694 3.038 1.71a.5.5 0 1 1 -.849.527 2.595 2.595 0 0 0 -2.189-1.237zm-5.614 9.998a.501.501 0 0 1 -.484-.372.491.491 0 0 1 -.032-.176v-.296a1.17 1.17 0 1 1 1.016.006v.338a.5.5 0 0 1 -.5.5zm-.173-1.896a.17.17 0 1 1 .285.126.502.502 0 0 0 -.235-.005.17.17 0 0 1 -.05-.12zm-5.155-2.537c0-.898.732-1.63 1.63-1.63h7.35c.898 0 1.631.732 1.631 1.63v4.028c0 .87-.399 1.681-.986 2.269-.588.587-1.399.986-2.269.986h-4.101c-.87 0-1.681-.399-2.269-.986-.588-.588-.986-1.399-.986-2.269zm1.63-.63a.634.634 0 0 0 -.63.63v4.028c0 .564.262 1.13.693 1.562.431.431.998.693 1.562.693h4.101c.564 0 1.13-.262 1.562-.693.431-.432.693-.998.693-1.562v-4.028a.634.634 0 0 0 -.631-.63zm13.066-2.494a.5.5 0 1 1 -1 0 .5.5 0 0 1 1 0zm-18.989-3.226a.5.5 0 0 0 -1 0v1.406a.5.5 0 0 0 1 0zm-.496 3.456a.5.5 0 1 0 0-1 .5.5 0 0 0 0 1z" fill="#18303f" fill-rule="evenodd"/></svg>