<svg width="25" height="25" viewBox="0 0 25 25" fill="none"><g id="door_locked"><path fill-rule="evenodd" clip-rule="evenodd" d="M20.535 2.318c0-1.039-.989-1.818-2.003-1.818h-8.517c-.546 0-1.047.16-1.419.487a1.733 1.733 0 0 0-.584 1.331v6.134a.5.5 0 0 0 1 0V2.318c0-.26.095-.45.243-.58.154-.135.405-.238.76-.238h8.517c.589 0 1.003.45 1.003.818v17.397c0 .368-.414.819-1.003.819h-5.883a.5.5 0 0 0 0 1h5.883c1.014 0 2.003-.78 2.003-1.819V2.319ZM6.324 19.761a1.182 1.182 0 1 0-1-.001v.349a.5.5 0 0 0 1 0v-.348Zm3.125-6.695v1.488h.071a1.64 1.64 0 0 1 1.636 1.636v4.048c0 .874-.4 1.688-.99 2.278-.59.59-1.405.99-2.278.99h-4.12c-.874 0-1.688-.4-2.279-.99-.59-.59-.99-1.404-.99-2.278V16.19a1.64 1.64 0 0 1 1.636-1.636H2.2v-1.488c0-1.98 1.644-3.625 3.625-3.625 1.98 0 3.624 1.644 3.624 3.625ZM5.825 10.44c1.428 0 2.624 1.197 2.624 2.625v1.488H3.2v-1.488c0-1.428 1.197-2.625 2.625-2.625Zm3.695 5.113h-.553a.54.54 0 0 1-.018 0H2.135a.64.64 0 0 0-.636.636v4.048c0 .567.264 1.137.698 1.571.433.434 1.003.698 1.571.698h4.12c.567 0 1.137-.264 1.571-.698.434-.434.697-1.004.697-1.57v-4.05a.64.64 0 0 0-.636-.635Zm7.46-5.658a.5.5 0 0 1 1 0V11.3a.5.5 0 1 1-1 0V9.896Zm.497 3.456a.5.5 0 1 1-.001-1 .5.5 0 0 1 .001 1Z" fill="#18303F" yggColor="iconDefault"/></g></svg>