<svg fill="none" height="25" viewBox="0 0 25 25" width="25"><path d="m2 3.512a2.5 2.5 0 0 1 2.5-2.5h7.238a2.5 2.5 0 0 1 2.5 2.5v8.566a.5.5 0 1 1 -1 0v-8.566a1.5 1.5 0 0 0 -1.5-1.5h-7.238a1.5 1.5 0 0 0 -1.5 1.5v17.988a1.5 1.5 0 0 0 1.5 1.5h7.238a1.5 1.5 0 0 0 1.5-1.5v-2.123h-5.898a2 2 0 0 1 -2-2v-.397a2 2 0 0 1 2-2h13.529a2 2 0 0 1 2 2v.397a2 2 0 0 1 -2 2h-6.63v2.123a2.5 2.5 0 0 1 -2.5 2.5h-7.239a2.5 2.5 0 0 1 -2.5-2.5zm18.869 12.467h-13.53a1 1 0 0 0 -1 1v.398a1 1 0 0 0 1 1h13.53a1 1 0 0 0 1-1v-.397a1 1 0 0 0 -1-1zm-6.63-2.123a.5.5 0 1 1 -1 0 .5.5 0 0 1 1 0zm-8.65-8.364a.5.5 0 1 0 0-1 .5.5 0 0 0 0 1zm.382 1.654a.5.5 0 1 0 -.707.708l2.146 2.146-2.146 2.146a.5.5 0 1 0 .707.707l2.146-2.146 2.146 2.146a.5.5 0 1 0 .707-.707l-2.146-2.146 2.147-2.146a.5.5 0 0 0 -.707-.708l-2.147 2.147z" fill="#18303f"/></svg>