<svg fill="none" height="25" viewBox="0 0 25 25" width="25"><path clip-rule="evenodd" d="m8.503 1.5c-1.014 0-2.003.78-2.003 1.818v17.397c0 1.04.989 1.819 2.003 1.819h8.517c1.014 0 2.003-.78 2.003-1.819v-17.396c0-.53-.206-1-.584-1.331-.372-.327-.873-.487-1.419-.487h-8.517zm-1.003 1.818c0-.367.414-.818 1.003-.818h8.517c.355 0 .606.103.76.238.148.13.243.32.243.58v17.397c0 .368-.414.819-1.003.819h-8.517c-.589 0-1.003-.451-1.003-.819v-17.396zm1.605 7.056a.5.5 0 0 1 .5.5v1.406a.5.5 0 1 1 -1 0v-1.406a.5.5 0 0 1 .5-.5zm0 3.686a.5.5 0 1 0 .001-1 .5.5 0 0 0 -.001 1z" fill="#18303f" fill-rule="evenodd"/></svg>