<svg width="25" height="25" viewBox="0 0 25 25" fill="none"><path fill-rule="evenodd" clip-rule="evenodd" d="M4.565 1.006a2.5 2.5 0 0 0-2.5 2.5v17.988a2.5 2.5 0 0 0 2.5 2.5h7.238a2.5 2.5 0 0 0 2.5-2.5v-2.122h6.631a2 2 0 0 0 2-2v-.398a2 2 0 0 0-2-2H7.405a2 2 0 0 0-2 2v.398a2 2 0 0 0 2 2h5.898v2.122a1.5 1.5 0 0 1-1.5 1.5H4.565a1.5 1.5 0 0 1-1.5-1.5V3.506a1.5 1.5 0 0 1 1.5-1.5h7.238a1.5 1.5 0 0 1 1.5 1.5v8.566a.5.5 0 0 0 1 0V3.506a2.5 2.5 0 0 0-2.5-2.5H4.565Zm2.84 14.968h13.53a1 1 0 0 1 1 1v.398a1 1 0 0 1-1 1H7.404a1 1 0 0 1-1-1v-.398a1 1 0 0 1 1-1Zm6.898-2.21a.5.5 0 1 1-1 0 .5.5 0 0 1 1 0Zm-3.09-2.913a.5.5 0 1 1-.998.001.5.5 0 0 1 .998-.001Zm0-2.932a.5.5 0 1 1-.998.001.5.5 0 0 1 .998 0Zm0-2.931a.5.5 0 1 1-.998 0 .5.5 0 0 1 .998 0ZM8.698 10.85a.5.5 0 1 1-1 0 .5.5 0 0 1 1 0Zm0-2.932a.5.5 0 1 1-1 0 .5.5 0 0 1 1 0Zm0-2.931a.5.5 0 1 1-1 0 .5.5 0 0 1 1 0Zm-2.516 5.862a.5.5 0 1 1-1 0 .5.5 0 0 1 1 0Zm0-2.932a.5.5 0 1 1-1 0 .5.5 0 0 1 1 0Zm0-2.931a.5.5 0 1 1-1 0 .5.5 0 0 1 1 0Z" fill="#18303F" yggColor="door_lock_closed"/></svg>