<svg fill="none" height="25" viewBox="0 0 25 25" width="25"><g clip-rule="evenodd" fill-rule="evenodd"><path d="m4.5 1.012a2.5 2.5 0 0 0 -2.5 2.5v17.988a2.5 2.5 0 0 0 2.5 2.5h7.238a2.5 2.5 0 0 0 2.5-2.5v-1.346a.5.5 0 1 0 -1 0v1.346a1.5 1.5 0 0 1 -1.5 1.5h-7.238a1.5 1.5 0 0 1 -1.5-1.5v-17.988a1.5 1.5 0 0 1 1.5-1.5h7.238a1.5 1.5 0 0 1 1.5 1.5v8.191a.5.5 0 0 0 1 0v-8.191a2.5 2.5 0 0 0 -2.5-2.5zm2.84 14.478h13.529a1 1 0 0 1 1 1v.398a1 1 0 0 1 -1 1h-13.53a1 1 0 0 1 -1-1v-.398a1 1 0 0 1 1-1zm-2 1a2 2 0 0 1 2-2h13.529a2 2 0 0 1 2 2v.398a2 2 0 0 1 -2 2h-13.53a2 2 0 0 1 -2-2v-.398zm8.907-3.142a.5.5 0 1 1 -1 0 .5.5 0 0 1 1 0zm-3.599-1.993a.5.5 0 1 0 0-1 .5.5 0 0 0 0 1zm.5-3.431a.5.5 0 1 1 -1 0 .5.5 0 0 1 1 0zm-.5-2.432a.5.5 0 1 0 0-1 .5.5 0 0 0 0 1zm-2.015 5.362a.5.5 0 1 1 -1 0 .5.5 0 0 1 1 0zm-.5-2.431a.5.5 0 1 0 0-1 .5.5 0 0 0 0 1zm.5-3.432a.5.5 0 1 1 -1 0 .5.5 0 0 1 1 0zm-3.016 6.362a.5.5 0 1 0 0-1 .5.5 0 0 0 0 1zm.5-3.431a.5.5 0 1 1 -1 0 .5.5 0 0 1 1 0zm-.5-2.432a.5.5 0 1 0 0-1 .5.5 0 0 0 0 1z" fill="#18303f"/><path d="m5.617 5.491a.5.5 0 1 0 0-1 .5.5 0 0 0 0 1zm3.016-.499a.5.5 0 1 1 -1 0 .5.5 0 0 1 1 0zm2.015.501a.5.5 0 1 0 0-1 .5.5 0 0 0 0 1zm.5 2.432a.5.5 0 1 1 -1 0 .5.5 0 0 1 1 0zm0 2.931a.5.5 0 1 1 -1 0 .5.5 0 0 1 1 0zm-2.515 0a.5.5 0 1 1 -1 0 .5.5 0 0 1 1 0zm-.5-2.432a.5.5 0 1 0 0-1 .5.5 0 0 0 0 1zm-2.516 2.93a.5.5 0 1 0 0-1 .5.5 0 0 0 0 1zm.5-3.431a.5.5 0 1 1 -1 0 .5.5 0 0 1 1 0z" fill="#c70546"/></g></svg>