<svg fill="none" height="25" viewBox="0 0 25 25" width="25"><g clip-rule="evenodd" fill-rule="evenodd"><path d="m4.5 1.012a2.5 2.5 0 0 0 -2.5 2.5v17.988a2.5 2.5 0 0 0 2.5 2.5h7.238a2.5 2.5 0 0 0 2.5-2.5v-2.123h6.631a2 2 0 0 0 2-2v-.397a2 2 0 0 0 -2-2h-13.53a2 2 0 0 0 -2 2v.397a2 2 0 0 0 2 2h5.9v2.123a1.5 1.5 0 0 1 -1.5 1.5h-7.239a1.5 1.5 0 0 1 -1.5-1.5v-17.988a1.5 1.5 0 0 1 1.5-1.5h7.238a1.5 1.5 0 0 1 1.5 1.5v8.566a.5.5 0 0 0 1 0v-8.566a2.5 2.5 0 0 0 -2.5-2.5zm2.84 14.967h13.529a1 1 0 0 1 1 1v.398a1 1 0 0 1 -1 1h-13.53a1 1 0 0 1 -1-1v-.397a1 1 0 0 1 1-1zm6.398-1.623a.5.5 0 1 0 0-1 .5.5 0 0 0 0 1zm-7.648-9.364a.5.5 0 1 1 -1 0 .5.5 0 0 1 1 0z" fill="#18303f"/><path d="m5.264 7.146a.5.5 0 0 1 .707 0l2.146 2.147 2.147-2.147a.5.5 0 0 1 .707.708l-2.147 2.146 2.146 2.146a.5.5 0 1 1 -.707.707l-2.146-2.146-2.146 2.146a.5.5 0 1 1 -.707-.707l2.146-2.146-2.146-2.146a.5.5 0 0 1 0-.708z" fill="#f28102"/></g></svg>