<svg fill="none" height="25" viewBox="0 0 25 25" width="25"><path clip-rule="evenodd" d="m8.503 1.5c-1.014 0-2.003.78-2.003 1.818v17.397c0 1.04.989 1.819 2.003 1.819h8.517c1.014 0 2.003-.78 2.003-1.819v-17.396c0-1.039-.989-1.818-2.003-1.818h-8.517zm9.52 2.257c0-.581-.534-1.03-1.277-.834l-5.711 1.494c-.397.104-.79.354-1.08.682-.294.33-.451.701-.451 1.03v11.599c0 .33.157.7.45 1.03.29.328.682.577 1.077.682l5.704 1.404h.002c.438.105.759.023.957-.118.194-.139.329-.375.329-.714zm-7.316 6.53a.5.5 0 0 1 .5.5v1.318a.5.5 0 1 1 -1 0v-1.318a.5.5 0 0 1 .5-.5zm0 3.849a.5.5 0 1 0 0-1 .5.5 0 0 0 0 1z" fill="#18303f" fill-rule="evenodd"/></svg>