<svg fill="none" height="25" viewBox="0 0 25 25" width="25"><path clip-rule="evenodd" d="m4.565 1.006a2.5 2.5 0 0 0 -2.5 2.5v17.988a2.5 2.5 0 0 0 2.5 2.5h7.238a2.5 2.5 0 0 0 2.5-2.5v-2.122h6.631a2 2 0 0 0 2-2v-.398a2 2 0 0 0 -2-2h-13.529a2 2 0 0 0 -2 2v.398a2 2 0 0 0 2 2h5.898v2.122a1.5 1.5 0 0 1 -1.5 1.5h-7.238a1.5 1.5 0 0 1 -1.5-1.5v-17.988a1.5 1.5 0 0 1 1.5-1.5h7.238a1.5 1.5 0 0 1 1.5 1.5v8.566a.5.5 0 0 0 1 0v-8.566a2.5 2.5 0 0 0 -2.5-2.5zm2.84 14.968h13.53a1 1 0 0 1 1 1v.398a1 1 0 0 1 -1 1h-13.531a1 1 0 0 1 -1-1v-.398a1 1 0 0 1 1-1zm6.898-2.21a.5.5 0 1 1 -1 0 .5.5 0 0 1 1 0zm-3.09-2.913a.5.5 0 1 1 -.998.001.5.5 0 0 1 .998-.001zm0-2.932a.5.5 0 1 1 -.998.001.5.5 0 0 1 .998 0zm0-2.931a.5.5 0 1 1 -.998 0 .5.5 0 0 1 .998 0zm-2.515 5.862a.5.5 0 1 1 -1 0 .5.5 0 0 1 1 0zm0-2.932a.5.5 0 1 1 -1 0 .5.5 0 0 1 1 0zm0-2.931a.5.5 0 1 1 -1 0 .5.5 0 0 1 1 0zm-2.516 5.862a.5.5 0 1 1 -1 0 .5.5 0 0 1 1 0zm0-2.932a.5.5 0 1 1 -1 0 .5.5 0 0 1 1 0zm0-2.931a.5.5 0 1 1 -1 0 .5.5 0 0 1 1 0z" fill="#18303f" fill-rule="evenodd"/></svg>