<svg fill="none" height="25" viewBox="0 0 25 25" width="25"><path clip-rule="evenodd" d="m13.506.25a.5.5 0 0 1 .5.5v.975a.5.5 0 0 1 -.053.997h-.896a.5.5 0 0 1 -.05-.997v-.975a.5.5 0 0 1 .5-.5zm-2 6.788c0-.25-.25-.5-.5-.5s-.5.25-.5.5.25.5.5.5.5-.25.5-.5zm5 0c0-.25-.25-.5-.5-.5s-.5.25-.5.5.25.5.5.5.5-.25.5-.5zm-3 .888c.25 0 .5.25.5.5s-.25.5-.5.5-.5-.25-.5-.5.25-.5.5-.5zm-11.96.504a.827.827 0 0 0 -.483.152.895.895 0 0 0 -.315.428.743.743 0 0 0 -.013.564c.061.163.167.29.257.379.027.027.057.05.09.07l.534.335c.025.016.052.03.08.04.13.053.287.26.287.473v.018l.201 5.419v.005a3.164 3.164 0 0 0 1.506 2.554l-.583 1.512a.497.497 0 0 0 -.12.312l-1.067 2.768a.495.495 0 0 0 -.06.157l-.175.454a.5.5 0 0 0 .933.36l.128-.333 4.053-1.572 4.053 1.573.13.333a.5.5 0 0 0 .932-.362l-.177-.455a.48.48 0 0 0 -.06-.155l-1.067-2.754a.505.505 0 0 0 -.13-.338l-.402-1.036h1.504a.87.87 0 0 0 .782-.477l.003-.005.002-.006a.285.285 0 0 0 .005-.011l.731-1.662a.85.85 0 0 0 .097-.38.862.862 0 0 0 -.103-.39.5.5 0 0 0 -.43-.276l-.01-.003-.016-.005-.007-.003a.97.97 0 0 0 -.318-.056h-4.216a2.17 2.17 0 0 1 -2.064-1.521l-1.47-4.816a.35.35 0 0 1 -.01-.03c-.26-.69-.89-1.26-1.74-1.26h-1.273zm7.458 10.901h-3.644a3.3 3.3 0 0 1 -.744-.085l-.456 1.184 2.64 1.024 2.63-1.024-.427-1.1zm.788 2.033-1.612.625 2.182.846zm-6.56 1.472.568-1.474 1.615.627-2.184.847zm4.87-5.78h3.96l-.56 1.275h-6.144c-1.198 0-2.12-.92-2.176-2.063l-.2-5.408c-.004-.57-.36-1.142-.87-1.37l-.094-.06h.798c.351 0 .654.228.798.6l1.467 4.8.001.003a3.17 3.17 0 0 0 3.02 2.224zm13.252 3.46c.25 0 .5.25.5.5s-.25.5-.5.5-.5-.25-.5-.5.25-.5.5-.5zm0-5.061c.25 0 .5.25.5.5s-.25.5-.5.5-.5-.25-.5-.5.25-.5.5-.5zm-6.684-1.002v8.132c0 .532.416.948.948.948h.333v.716a.5.5 0 0 0 1 0v-.716h5.47v.716a.5.5 0 0 0 1 0v-.717a.936.936 0 0 0 .893-.947v-8.132a.937.937 0 0 0 -.948-.948h-7.748a.937.937 0 0 0 -.948.948zm1 8.08v-3.546h7.644v3.546zm0-8.028v3.482h7.644v-3.482zm-3.12-11.126a.628.628 0 0 1 .441-.187h1.088c.195 0 .348.092.442.187a.628.628 0 0 1 .186.441v.082c.6.485.794 1.313.47 2.042-.348.782-1.15 1.232-2.028 1.056-.87-.174-1.49-.952-1.49-1.771 0-.53.21-1.046.704-1.359v-.05c0-.194.092-.347.186-.441zm.777.84a.5.5 0 0 1 -.33.445c-.23.098-.339.276-.339.565 0 .334.276.708.687.79.402.08.753-.11.918-.48.16-.358.036-.728-.257-.91a.7.7 0 0 1 -.284-.436h-.386z" fill="#18303f" fill-rule="evenodd"/></svg>