<svg width="25" height="25" viewBox="0 0 25 25" fill="none"><path fill-rule="evenodd" clip-rule="evenodd" d="M13.61 7.218a.5.5 0 0 0-.513-.586l-3.576.15a.5.5 0 0 0-.34.845l.854.897c.074.078.171.13.278.149l2.29.39a.5.5 0 0 0 .558-.337l.387-1.184a.537.537 0 0 0 .017-.069l.045-.255Zm-.556-1.585a1.5 1.5 0 0 1 1.541 1.758l-.045.255a1.46 1.46 0 0 1-.05.206l-.388 1.184a1.5 1.5 0 0 1-1.678 1.013l-2.29-.39a1.503 1.503 0 0 1-.834-.445l-.854-.897c-.889-.934-.265-2.48 1.023-2.534l3.575-.15Zm3.494 2.158a.498.498 0 0 0-.475.346l-.64 1.97a.501.501 0 0 0 .128.514l1.832 1.768a.5.5 0 0 0 .84-.273l.394-2.26a.5.5 0 0 0-.015-.237l-.467-1.478a.5.5 0 0 0-.477-.35h-1.12Zm-1.427.037a1.5 1.5 0 0 1 1.427-1.037h1.12a1.5 1.5 0 0 1 1.43 1.049l.467 1.478c.073.23.09.473.047.71l-.394 2.26c-.207 1.184-1.654 1.656-2.52.82l-1.83-1.767a1.5 1.5 0 0 1-.386-1.543l.64-1.97Zm-7.463 2.373a.5.5 0 0 0-.849.28l-.202 1.386a.5.5 0 0 0 .713.522l1.696-.826c.234-.115.172-.465-.088-.491a1.26 1.26 0 0 1-.765-.364l-.505-.507Zm1.371-.124a.261.261 0 0 1-.158-.075l-.504-.507c-.872-.875-2.369-.38-2.547.842l-.203 1.386c-.174 1.192 1.058 2.093 2.142 1.565l1.695-.827c1.14-.555.836-2.256-.425-2.384Zm3.162 1.144a1.5 1.5 0 0 1 2.293.826l.602 2.116a1.5 1.5 0 0 1-.375 1.463l-1.359 1.379a1.5 1.5 0 0 1-1.733.291l-1.519-.751a1.535 1.535 0 0 1-.295-.192l-.774-.645a1.5 1.5 0 0 1 .11-2.388l3.05-2.099Zm1.331 1.1a.5.5 0 0 0-.764-.276l-3.05 2.099a.5.5 0 0 0-.037.796l.774.645c.03.025.063.046.098.064l1.52.75a.499.499 0 0 0 .577-.096L14 14.924a.502.502 0 0 0 .124-.487l-.602-2.117Zm3.623 2.668a.5.5 0 0 0-.824.382v.647c0 .509-.27.979-.709 1.235a.428.428 0 0 0 .162.795l2.027.255a.5.5 0 0 0 .556-.416l.221-1.365a.499.499 0 0 0-.17-.461l-1.263-1.072Zm-1.824.382c0-1.278 1.496-1.97 2.471-1.144l1.263 1.071c.401.34.594.865.51 1.383l-.22 1.366a1.5 1.5 0 0 1-1.669 1.248l-2.027-.255c-1.356-.17-1.72-1.964-.54-2.652a.428.428 0 0 0 .212-.37v-.647Zm-7.93 1.287a.321.321 0 0 0-.59.13l-.158 1.179a.298.298 0 0 0 .33.335l2.377-.28-1.536-.944a1.32 1.32 0 0 1-.424-.42Zm.844-.534c-.66-1.044-2.263-.692-2.426.531l-.158 1.18c-.112.84.598 1.56 1.44 1.46l2.904-.343c.941-.111 1.001-1.445.092-1.652l-1.749-1.074a.317.317 0 0 1-.103-.102Z" fill="#18303F" yggColor="dry"/></svg>