<svg fill="none" height="25" viewBox="0 0 25 25" width="25"><path clip-rule="evenodd" d="m13.61 7.218a.5.5 0 0 0 -.513-.586l-3.576.15a.5.5 0 0 0 -.341.845l.855.897c.074.078.171.13.278.149l2.289.39a.5.5 0 0 0 .559-.337l.387-1.184a.537.537 0 0 0 .017-.069zm-.556-1.585a1.5 1.5 0 0 1 1.541 1.758l-.045.255a1.46 1.46 0 0 1 -.051.206l-.387 1.184a1.5 1.5 0 0 1 -1.678 1.013l-2.29-.39a1.503 1.503 0 0 1 -.834-.445l-.854-.897c-.889-.934-.265-2.48 1.023-2.534zm3.494 2.158a.498.498 0 0 0 -.475.346l-.64 1.97a.501.501 0 0 0 .128.514l1.832 1.768a.5.5 0 0 0 .84-.273l.394-2.26a.5.5 0 0 0 -.015-.237l-.467-1.478a.5.5 0 0 0 -.477-.35zm-1.427.037a1.5 1.5 0 0 1 1.427-1.037h1.12a1.5 1.5 0 0 1 1.43 1.049l.467 1.478c.073.23.089.473.047.71l-.394 2.26c-.207 1.184-1.654 1.656-2.52.82l-1.831-1.767a1.5 1.5 0 0 1 -.385-1.543zm-7.463 2.373a.5.5 0 0 0 -.849.28l-.202 1.386a.5.5 0 0 0 .713.522l1.696-.826c.234-.115.172-.465-.088-.491a1.26 1.26 0 0 1 -.765-.364zm1.371-.124a.261.261 0 0 1 -.158-.075l-.504-.507c-.872-.875-2.369-.38-2.547.842l-.203 1.386c-.174 1.192 1.058 2.093 2.142 1.565l1.695-.827c1.139-.555.836-2.256-.425-2.384zm3.162 1.144a1.5 1.5 0 0 1 2.293.826l.602 2.116a1.5 1.5 0 0 1 -.375 1.463l-1.359 1.379a1.5 1.5 0 0 1 -1.733.291l-1.519-.751a1.534 1.534 0 0 1 -.295-.192l-.774-.645a1.5 1.5 0 0 1 .109-2.388zm1.331 1.1a.5.5 0 0 0 -.764-.276l-3.051 2.099a.5.5 0 0 0 -.036.796l.774.645c.03.025.063.046.098.064l1.52.75a.499.499 0 0 0 .577-.096l1.359-1.379a.502.502 0 0 0 .125-.487l-.602-2.117zm3.623 2.668a.5.5 0 0 0 -.824.382v.647c0 .509-.27.979-.709 1.235a.428.428 0 0 0 .162.795l2.027.255a.5.5 0 0 0 .556-.416l.221-1.365a.499.499 0 0 0 -.17-.461zm-1.824.382c0-1.278 1.496-1.97 2.471-1.144l1.263 1.071c.401.34.594.865.51 1.383l-.22 1.366a1.5 1.5 0 0 1 -1.669 1.248l-2.027-.255c-1.356-.17-1.721-1.964-.541-2.652a.428.428 0 0 0 .213-.37zm-7.931 1.287a.321.321 0 0 0 -.59.13l-.157 1.179a.298.298 0 0 0 .33.335l2.377-.28-1.536-.944a1.32 1.32 0 0 1 -.424-.42zm.845-.534c-.66-1.044-2.263-.692-2.426.531l-.158 1.18c-.112.84.598 1.56 1.44 1.46l2.904-.343c.941-.111 1.001-1.445.092-1.652l-1.749-1.074a.317.317 0 0 1 -.103-.102z" fill="#18303f" fill-rule="evenodd"/></svg>