<svg width="26" height="25" viewBox="0 0 26 25" fill="none"><g yggColor="edit"><path yggColor="iconDefault" fill-rule="evenodd" clip-rule="evenodd" d="M7.195 18.623a.5.5 0 0 1-.248.173l-5.552 1.727a.5.5 0 0 1-.626-.626l1.726-5.553a.5.5 0 0 1 .176-.25.51.51 0 0 1 .043-.049L15.933.826a2.5 2.5 0 0 1 3.535 0l.998.998a2.5 2.5 0 0 1 0 3.536L7.247 18.578a.508.508 0 0 1-.052.045Zm-3.515-4.13.505.504 1.479-.076 9.649-9.649a.5.5 0 1 1 .707.707l-9.638 9.638.005 1.582.412.413 12.96-12.96a1.5 1.5 0 0 0 0-2.12l-.998-.998a1.5 1.5 0 0 0-2.121 0L3.68 14.493Zm.334 1.514 1.369-.07.004 1.472a.5.5 0 0 0 .147.352l.326.326-3.326 1.034-.364-.363 1.035-3.326.43.43a.5.5 0 0 0 .379.146ZM17.579 4.213a.5.5 0 1 1-1 0 .5.5 0 0 1 1 0Z" fill="#18303F"/></g></svg>