<svg fill="none" height="25" viewBox="0 0 25 25" width="25"><path clip-rule="evenodd" d="m24.402 4.314a.5.5 0 0 0 -.009-1l-1.819.016-.001-.992c0-.132-.015-.275-.07-.422a1.083 1.083 0 0 0 -.255-.386 1.083 1.083 0 0 0 -.386-.254 1.16 1.16 0 0 0 -.424-.07l-2.907.025-.023.001c-1.626.088-2.983 1.117-3.617 2.532a.5.5 0 0 0 -.171-.029l-1.478.013a.5.5 0 0 0 -.496.496l-.008.998h-7.938c-1.165.01-2.292.597-3.12 1.424-.857.859-1.32 2.155-1.038 3.347.154.886.558 1.79 1.749 4.012l.367.655h-1.025c-.266 0-.512.087-.706.203-.19.114-.374.283-.48.496a.498.498 0 0 0 -.028.065c-.13.39-.158.855.028 1.226a.495.495 0 0 0 .018.034l1.286 2.144a3.116 3.116 0 0 0 -1.463 2.665 3.113 3.113 0 0 0 3.139 3.138 3.113 3.113 0 0 0 3.138-3.138v-.028h9.555v.028a3.113 3.113 0 0 0 3.138 3.138 3.113 3.113 0 0 0 3.139-3.138v-.028h.133c.357 0 .733-.105 1.055-.292.322-.186.624-.475.781-.867.144-.36.172-.765.124-1.134a2.237 2.237 0 0 0 -.4-1.04l-3.375-4.325a.503.503 0 0 0 -.103-.104c-4.2-3.122-9.264-4.848-14.441-4.848-.513 0-1.058.215-1.43.606a.5.5 0 0 0 -.205.264c-.107.169-.185.36-.225.572l-1.004 3.477-.138-.246c-1.21-2.259-1.525-3.017-1.645-3.72a.504.504 0 0 0 -.007-.033c-.195-.806.115-1.766.77-2.422.69-.69 1.579-1.123 2.42-1.131h7.922l-.007.823a.5.5 0 0 0 .504.504l1.478-.013a.5.5 0 0 0 .143-.022 4.134 4.134 0 0 0 3.626 2.419 135.36 135.36 0 0 1 1.685-.002h.236c.416.003.781.004 1.053.002a1.134 1.134 0 0 0 1.137-1.137l-.002-.807.504-.005a.5.5 0 0 0 -.01-1l-.495.005-.005-2.679zm-9.852 2.244a4.032 4.032 0 0 1 -.046-.951 4.413 4.413 0 0 1 .08-.87l-.842.007-.016 1.82zm6.897-4.352a.324.324 0 0 1 .063.006l.005.002c.004.003.013.01.026.023.014.014.02.023.023.027.003.003.003.005.003.005s.002.004.003.013c.001.01.003.025.003.05l.01 6.477c0 .052-.019.085-.038.105a.146.146 0 0 1 -.107.039c-.265.002-.623 0-1.041-.001h-.002l-.233-.001a136.87 136.87 0 0 0 -1.686.002c-1.722-.07-3.104-1.547-2.973-3.293a.504.504 0 0 0 .002-.044c-.025-1.787 1.335-3.286 3.045-3.386l2.896-.025zm-16.322 9.244-.83 2.872 1.61-.666zm.57-1.39.804 2.279c.13-.11.274-.198.43-.26.817-.327 1.722.16 2.022.911a.497.497 0 0 1 .008.02l1.888 5.365h3.023c.706 0 1.332-.26 1.889-.722l.438-.396-1.721-1.059-.494.823a.5.5 0 1 1 -.857-.514l.685-1.142a.499.499 0 0 1 .138-.23l.76-1.267a.5.5 0 0 1 .857.515l-.574.957 1.98 1.22 2.649-2.392c-3.932-2.771-8.595-4.292-13.35-4.292-.219 0-.42.072-.575.184zm4.812 9.315a.7.7 0 0 1 -.029 0h-2.214a2.97 2.97 0 0 1 -2.136-.885l-2.808-2.81h-1.587a.394.394 0 0 0 -.192.06.38.38 0 0 0 -.089.072c-.057.201-.038.344-.016.4l1.349 2.248c.237-.056.486-.086.742-.086a3.11 3.11 0 0 1 2.971 2.11h9.889a3.11 3.11 0 0 1 2.971-2.11 3.11 3.11 0 0 1 2.971 2.11h.3c.171 0 .376-.052.555-.156.18-.104.3-.238.354-.373.067-.168.091-.396.06-.634a1.253 1.253 0 0 0 -.205-.566l-3.043-3.9-2.913 2.63a.496.496 0 0 1 -.145.13l-.87.786-.016.013c-.707.59-1.556.96-2.536.96h-3.363zm-2.487-6.023 1.766 5.022h-1.156l-1.711-4.848a.628.628 0 0 1 .382-.52c.237-.095.594.047.719.346zm-3.61 2.004 2.426 2.426c.211.212.443.36.685.455l-1.284-3.637zm14.948 4.018a2.113 2.113 0 0 0 -2.139 2.139c0 1.201.938 2.138 2.139 2.138a2.113 2.113 0 0 0 2.139-2.138 2.113 2.113 0 0 0 -2.139-2.139zm-17.97 2.139c0-1.202.937-2.139 2.139-2.139 1.201 0 2.138.937 2.138 2.139a2.113 2.113 0 0 1 -2.138 2.138 2.113 2.113 0 0 1 -2.139-2.138zm22.72-13.657a.5.5 0 1 0 .707-.707.5.5 0 0 0 -.707.707z" fill="#18303f" fill-rule="evenodd"/></svg>