<svg width="31" height="31" viewBox="0 0 31 31" fill="none"><path fill-rule="evenodd" clip-rule="evenodd" d="M30.354 29.646a.5.5 0 0 1-.708.708l-4.46-4.461a3.112 3.112 0 0 1-2.828 1.758 3.113 3.113 0 0 1-3.139-3.138v-.028H9.665v.028a3.113 3.113 0 0 1-3.138 3.138 3.113 3.113 0 0 1-3.139-3.138c0-1.135.58-2.115 1.463-2.665l-1.286-2.144a.49.49 0 0 1-.018-.034c-.186-.371-.158-.836-.028-1.226a.498.498 0 0 1 .028-.065c.106-.213.29-.382.48-.496.194-.116.44-.203.706-.203h1.024l-.368-.655c-1.19-2.222-1.594-3.126-1.748-4.012-.281-1.192.181-2.488 1.04-3.347.767-.767 1.791-1.327 2.865-1.413l-6.9-6.9a.5.5 0 1 1 .708-.707l7.595 7.596h6.789l.008-.998a.5.5 0 0 1 .496-.496l1.478-.013a.5.5 0 0 1 .17.029c.635-1.415 1.992-2.444 3.618-2.532h.023l2.907-.026a1.16 1.16 0 0 1 .424.07c.15.056.277.145.386.254.11.11.198.236.255.386.055.147.07.29.07.422l.001.992 1.82-.016a.5.5 0 1 1 .008 1l-1.826.016.005 2.679.496-.005a.5.5 0 0 1 .008 1l-.503.005.002.807a1.134 1.134 0 0 1-1.137 1.137c-.272.002-.637 0-1.053-.001h-.004l-.232-.001a136.565 136.565 0 0 0-1.708.001 4.134 4.134 0 0 1-3.603-2.418.499.499 0 0 1-.143.022l-1.478.013a.5.5 0 0 1-.504-.504l.007-.823h-5.78l2.91 2.91c3.9.602 7.631 2.176 10.853 4.571.04.03.075.065.103.104l3.376 4.325c.221.295.351.672.399 1.04.048.369.02.775-.124 1.134-.157.392-.459.68-.78.867a2.148 2.148 0 0 1-1.056.292h-.134v.028c0 .09-.003.178-.01.266l4.868 4.867Zm-6.06-6.06a2.091 2.091 0 0 0-1.01-1.01l1.01 1.01Zm-2.202-2.201c.088-.007.176-.01.266-.01a3.11 3.11 0 0 1 2.971 2.11h.3c.171 0 .376-.053.555-.157.18-.104.3-.238.354-.373.067-.168.091-.396.06-.634a1.253 1.253 0 0 0-.205-.566l-3.043-3.9-2.517 2.271 1.259 1.259Zm-2.002-.588.888.888a3.096 3.096 0 0 0-1.591 1.8H9.498a3.11 3.11 0 0 0-2.971-2.11 3.22 3.22 0 0 0-.742.085l-1.349-2.248c-.022-.056-.04-.199.016-.4a.38.38 0 0 1 .09-.071.39.39 0 0 1 .19-.06H6.32l2.808 2.808a2.97 2.97 0 0 0 2.16.885h2.19a.7.7 0 0 0 .029 0h3.363c.98 0 1.828-.37 2.536-.96l.015-.013.67-.604Zm-1.703-3.118.178-.297a.5.5 0 1 0-.858-.515l-.05.084-3.548-3.549a23.546 23.546 0 0 1 8.51 3.765l-2.494 2.251-1.738-1.739Zm-6.001-4.586 4.741 4.741-.18.3a.499.499 0 0 0-.137.23l-.686 1.142a.5.5 0 1 0 .858.514l.494-.823 1.721 1.06-.438.395c-.557.461-1.183.722-1.89.722h-3.022l-1.888-5.365a.666.666 0 0 0-.008-.02c-.3-.75-1.205-1.238-2.022-.912a1.571 1.571 0 0 0-.43.26l-.804-2.278a.982.982 0 0 1 .576-.184c1.045 0 2.085.074 3.115.218Zm-1.134-1.134L8.535 9.242h-.728c-.841.008-1.73.441-2.42 1.131-.655.656-.965 1.616-.77 2.422a.525.525 0 0 1 .007.033c.12.703.435 1.461 1.645 3.72l.138.246 1.004-3.477a1.62 1.62 0 0 1 .225-.572.5.5 0 0 1 .206-.264 2.01 2.01 0 0 1 1.429-.606c.663 0 1.324.029 1.981.084Zm10.499 10.499 2.662 2.662a2.109 2.109 0 0 1-2.055 1.531 2.113 2.113 0 0 1-2.139-2.138c0-.99.636-1.8 1.532-2.055ZM17.504 8.607a4.04 4.04 0 0 0 .045.95l-.823.008.016-1.821.841-.008a4.413 4.413 0 0 0-.079.871Zm6.993-3.398a.324.324 0 0 0-.05-.003l-2.896.025c-1.71.099-3.07 1.598-3.047 3.385l-.001.044c-.131 1.746 1.251 3.223 2.973 3.293.59-.005 1.172-.004 1.686-.002h.234c.417.003.776.004 1.04.002.054 0 .088-.02.107-.04a.145.145 0 0 0 .04-.104l-.011-6.477a.333.333 0 0 0-.006-.063v-.002l-.003-.003a.187.187 0 0 0-.023-.027.185.185 0 0 0-.026-.023l-.006-.002-.012-.003ZM7.295 17.32l.83-2.872.779 2.206-1.609.666Zm5.491 4.053-1.766-5.022c-.126-.299-.482-.44-.72-.346a.628.628 0 0 0-.381.52l1.71 4.848h1.157Zm-2.95-.592L7.41 18.356l1.827-.756 1.284 3.637a1.994 1.994 0 0 1-.686-.455Zm-3.31 1.592a2.113 2.113 0 0 0-2.138 2.139c0 1.201.937 2.138 2.139 2.138a2.113 2.113 0 0 0 2.138-2.138 2.113 2.113 0 0 0-2.138-2.139Zm21.29-11.517a.5.5 0 1 1-.708-.708.5.5 0 0 1 .707.708Z" fill="#18303F" yggColor="electric_car_disabled"/></svg>