<svg fill="none" height="25" viewBox="0 0 25 25" width="25"><path clip-rule="evenodd" d="m12.5 1.5a.5.5 0 0 1 .5.5v3a.5.5 0 0 1 -1 0v-3a.5.5 0 0 1 .5-.5zm9.354 3.146a.5.5 0 0 0 -.708 0l-2 2a.5.5 0 0 0 .708.708l2-2a.5.5 0 0 0 0-.708zm-12.554 1.854c-1.322 0-2.382 1.211-2.498 2.585v.006l-.77 10.453a2.508 2.508 0 0 0 -2.032 2.456v.5a1 1 0 0 0 .284.716 1 1 0 0 0 .716.284h15a1 1 0 0 0 .716-.284 1 1 0 0 0 .284-.716v-.5a2.508 2.508 0 0 0 -2.032-2.456l-.77-10.453v-.006c-.116-1.374-1.176-2.585-2.498-2.585zm8.662 13-.76-10.333c-.085-.988-.824-1.667-1.502-1.667h-6.4c-.678 0-1.417.679-1.502 1.667l-.76 10.333h4.962v-1.5a.5.5 0 0 1 .004-.063 2.008 2.008 0 0 1 -1.504-1.937c0-1.1.9-2 2-2s2 .9 2 2c0 .929-.642 1.715-1.504 1.937a.5.5 0 0 1 .004.063v1.5zm-12.962 2.5c0-.824.676-1.5 1.5-1.5h12c.824 0 1.5.676 1.5 1.5v.5h-15zm19-8.5h-2.5a.5.5 0 0 1 0-1h2.5a.5.5 0 0 1 0 1zm-20.146-8.854a.5.5 0 1 0 -.708.708l2 2a.5.5 0 1 0 .708-.708zm-3.354 7.854a.5.5 0 0 1 .5-.5h2.5a.5.5 0 0 1 0 1h-2.5a.5.5 0 0 1 -.5-.5z" fill="#18303f" fill-rule="evenodd"/></svg>