<svg fill="none" height="25" viewBox="0 0 25 25" width="25"><path clip-rule="evenodd" d="m11.147 3.83v-.5a1.5 1.5 0 0 0 -1.5-1.5h-1.423a1.5 1.5 0 0 0 -1.5 1.5v.51a3.5 3.5 0 0 0 -3.224 3.49v12.34a3.5 3.5 0 0 0 3.5 3.5h11a3.5 3.5 0 0 0 3.5-3.5v-12.34a3.5 3.5 0 0 0 -3.224-3.49v-.51a1.5 1.5 0 0 0 -1.5-1.5h-1.423a1.5 1.5 0 0 0 -1.5 1.5v.5zm-3.423 0h2.423v-.5a.5.5 0 0 0 -.5-.5h-1.423a.5.5 0 0 0 -.5.5zm-3.224 3.5a2.5 2.5 0 0 1 2.5-2.5h11a2.5 2.5 0 0 1 2.5 2.5v12.34a2.5 2.5 0 0 1 -2.5 2.5h-11a2.5 2.5 0 0 1 -2.5-2.5zm12.776-4v.5h-2.423v-.5a.5.5 0 0 1 .5-.5h1.423a.5.5 0 0 1 .5.5zm-9.82 8.12a5.044 5.044 0 1 1 9.413 2.523c-.278.48-.792.704-1.279.704h-.182a.409.409 0 0 0 -.409.408c0 .778-.63 1.41-1.409 1.41h-2.18c-.778 0-1.41-.632-1.41-1.41a.409.409 0 0 0 -.408-.408h-.182c-.487 0-1.001-.225-1.278-.704a5.023 5.023 0 0 1 -.676-2.523zm5.044-4.042a4.044 4.044 0 0 0 -3.503 6.065c.066.114.213.205.413.205h.182c.778 0 1.409.63 1.409 1.408 0 .226.183.41.409.41h2.18a.409.409 0 0 0 .41-.41c0-.778.63-1.408 1.408-1.408h.182c.2 0 .347-.09.413-.205a4.044 4.044 0 0 0 -3.503-6.066zm-.221 1.35a2.853 2.853 0 0 1 .442 0 .5.5 0 1 0 .078-.997 3.86 3.86 0 0 0 -.598 0 .5.5 0 0 0 .078.997zm2.696-.096a.5.5 0 0 0 -.65.76c.112.096.217.2.313.313a.5.5 0 0 0 .76-.65 3.83 3.83 0 0 0 -.423-.423zm-4.245.055a.5.5 0 0 1 -.055.705c-.112.096-.217.2-.313.313a.5.5 0 0 1 -.76-.65c.13-.152.271-.293.423-.423a.5.5 0 0 1 .705.055zm5.57 2.544a.5.5 0 1 0 -.998.078c.006.073.009.146.009.22a.5.5 0 1 0 1 0c0-.1-.004-.2-.012-.298zm-7.062-.46a.5.5 0 0 1 .46.538 2.858 2.858 0 0 0 -.009.22.5.5 0 0 1 -1 0c0-.1.004-.2.012-.298a.5.5 0 0 1 .537-.46zm3.262-1.834a.5.5 0 0 1 .499.463l.237 3.205a.5.5 0 0 1 -.222.453l-.238.158a.5.5 0 0 1 -.552 0l-.238-.158a.5.5 0 0 1 -.222-.453l.237-3.205a.5.5 0 0 1 .499-.463zm2.494 9.924a.5.5 0 0 1 .5-.5h.99v-.997a.5.5 0 1 1 1 0v.997h1.01a.5.5 0 1 1 0 1h-1.01v1.003a.5.5 0 0 1 -1 0v-1.003h-.99a.5.5 0 0 1 -.5-.5zm-8.988 0a.5.5 0 0 1 .5-.5h3a.5.5 0 1 1 0 1h-3a.5.5 0 0 1 -.5-.5z" fill="#18303f" fill-rule="evenodd"/></svg>