<svg fill="none" height="25" viewBox="0 0 25 25" width="25"><path clip-rule="evenodd" d="m6 .5a5.5 5.5 0 0 0 -5.5 5.5v13a5.5 5.5 0 0 0 5.5 5.5h13a5.5 5.5 0 0 0 5.5-5.5v-13a5.5 5.5 0 0 0 -5.5-5.5zm-4.5 5.5a4.5 4.5 0 0 1 4.5-4.5h13a4.5 4.5 0 0 1 4.5 4.5v13a4.5 4.5 0 0 1 -4.5 4.5h-13a4.5 4.5 0 0 1 -4.5-4.5zm5-2a.5.5 0 0 0 -1 0v4.5h-.5c-.414 0-.797.14-1.079.421-.281.282-.421.665-.421 1.079s.14.797.421 1.079c.282.28.665.421 1.079.421h.5v3.5a.5.5 0 0 0 1 0v-3.5h.5c.414 0 .797-.14 1.079-.421.281-.282.421-.665.421-1.079s-.14-.797-.421-1.079c-.282-.28-.665-.421-1.079-.421h-.5zm.5 6.5c.186 0 .303-.06.371-.129.069-.068.129-.185.129-.371s-.06-.303-.129-.371c-.068-.07-.185-.129-.371-.129h-2c-.186 0-.303.06-.371.129-.069.068-.129.185-.129.371s.06.303.129.371c.068.07.185.129.371.129zm5-2v6.5a.5.5 0 0 0 1 0v-6.5h.5c.414 0 .797-.14 1.079-.421.281-.282.421-.665.421-1.079s-.14-.797-.421-1.079c-.282-.28-.665-.421-1.079-.421h-.5v-1.5a.5.5 0 0 0 -1 0v1.5h-.5c-.414 0-.797.14-1.079.421-.281.282-.421.665-.421 1.079s.14.797.421 1.079c.282.28.665.421 1.079.421zm1.5-1c.186 0 .303-.06.371-.129.069-.068.129-.185.129-.371s-.06-.303-.129-.371c-.068-.07-.185-.129-.371-.129h-2c-.186 0-.303.06-.371.129-.069.068-.129.185-.129.371s.06.303.129.371c.068.07.185.129.371.129zm5 7.5v-1.5h-.5c-.743 0-1.5-.592-1.5-1.5 0-.414.14-.797.421-1.079.282-.28.665-.421 1.079-.421h.5v-6.5a.5.5 0 0 1 1 0v6.5h.5c.414 0 .797.14 1.079.421.281.282.421.665.421 1.079s-.14.797-.421 1.079c-.282.28-.665.421-1.079.421h-.5v1.5a.5.5 0 0 1 -1 0zm1.871-2.629c-.068.07-.185.129-.371.129h-2a.502.502 0 0 1 -.5-.5c0-.186.06-.303.129-.371.068-.07.185-.129.371-.129h2c.186 0 .303.06.371.129.069.068.129.185.129.371s-.06.303-.129.371zm-1.371 5.506c-.875 0-1.623.748-1.623 1.623s.748 1.623 1.623 1.623 1.623-.748 1.623-1.623-.748-1.623-1.623-1.623zm-.623 1.623c0-.323.3-.623.623-.623s.623.3.623.623-.3.623-.623.623a.652.652 0 0 1 -.623-.623zm-5.896-1.627c-.876 0-1.625.75-1.625 1.625 0 .876.749 1.625 1.625 1.625s1.625-.749 1.625-1.625-.749-1.625-1.625-1.625zm-.625 1.625c0-.324.301-.625.625-.625s.625.301.625.625a.654.654 0 0 1 -.625.625.654.654 0 0 1 -.625-.625zm-5.856-1.621c-.875 0-1.623.748-1.623 1.623s.748 1.623 1.623 1.623 1.623-.748 1.623-1.623-.748-1.623-1.623-1.623zm-.623 1.623c0-.323.3-.623.623-.623s.623.3.623.623-.3.623-.623.623a.652.652 0 0 1 -.623-.623z" fill="#18303f" fill-rule="evenodd"/></svg>