<svg fill="none" height="25" viewBox="0 0 25 25" width="25"><path clip-rule="evenodd" d="m7.5 2.5.003-.102-2.506 1.687a.5.5 0 0 0 .28.915h2.223zm1 3.5h.75a.5.5 0 1 0 0-1h-.75v-1.958l3.138 2.896-3.138 2.895zm1.294 3h5.162l-2.58-2.382-2.583 2.382zm3.318-3.062 3.319 3.062h.07v-3h-.75a.5.5 0 0 1 0-1h.75v-2.189zm2.793-3.938h-6.905a.5.5 0 0 0 -.134.018l3.51 3.24 3.528-3.258zm-9.601 8h-1.028c-1.48 0-2.066-1.917-.837-2.744l1.865-1.256h-1.028c-1.48 0-2.066-1.917-.836-2.744l2.97-2a1.5 1.5 0 0 1 .837-.256h8.506c.299 0 .59.089.838.256l2.97 2c1.229.827.645 2.744-.836 2.744h-1.028l1.866 1.256c1.228.827.643 2.744-.838 2.744h-1.028l1.866 1.256c1.228.826.643 2.744-.838 2.744h-1.985l3.725 9.314a.5.5 0 0 1 -.845.51l-8.12-9.552-8.119 9.552a.5.5 0 0 1 -.845-.51l3.726-9.314h-1.986c-1.48 0-2.066-1.918-.837-2.744zm1.196 3h-2.224a.5.5 0 0 1 -.279-.915l2.503-1.685zm1 0v-3h8v3zm9 0h2.224a.5.5 0 0 0 .28-.915l-2.504-1.685zm-9.16 1-2.74 6.845 5.819-6.845h-3.08zm5.242 0 5.819 6.845-2.739-6.845zm6.422-5.915-2.504-1.685v2.6h2.224a.5.5 0 0 0 .28-.915zm-15.006 0 2.502-1.685v2.6h-2.224a.5.5 0 0 1 -.279-.915zm12.502-3.085h2.224a.5.5 0 0 0 .28-.915l-2.507-1.687.003.102z" fill="#18303f" fill-rule="evenodd"/></svg>