<svg width="25" height="25" viewBox="0 0 25 25" fill="none"><g id="energy_wind"><path id="iconDefault" fill-rule="evenodd" clip-rule="evenodd" d="M17.48 13.195c.99-4.243 1.446-8.157 1.33-11.03 0-.321-.024-.615-.047-.888V1.27a.88.88 0 0 0-.597-.76.502.502 0 0 0-.076-.019.885.885 0 0 0-.865.37c-.126.164-.248.365-.356.542-.043.072-.085.14-.123.2a.472.472 0 0 0-.01.015c-1.415 2.415-2.863 5.915-4.002 9.97-4.125.936-7.716 2.208-10.19 3.516l-.007.003-.005.003c-.253.138-.517.282-.759.427a.882.882 0 0 0-.4.879c.067.449.446.652.715.697a10.027 10.027 0 0 1 .422.047l.022.002c.142.018.297.036.46.049 2.8.256 6.593.009 10.735-.707 2.76 3.22 5.575 5.828 7.894 7.412l.013.01c.086.054.178.115.272.177.155.102.316.208.462.296.278.166.67.175.967-.062.328-.263.345-.673.255-.945l-.005-.013c-.097-.267-.217-.556-.332-.832l-.003-.006v-.002c-1.107-2.62-3.12-5.941-5.77-9.344Zm.32-11.396-.04.064a15 15 0 0 1-.165.269c-1.297 2.214-2.645 5.418-3.739 9.172a2.586 2.586 0 0 1 2.34.332.995.995 0 0 1 .145.129c.039.04.08.087.12.135.071.083.15.18.225.276.853-3.882 1.23-7.4 1.125-9.981v-.02c0-.128-.005-.252-.012-.376Zm-1.317 11.745a.502.502 0 0 0 .136.173c2.648 3.388 4.636 6.67 5.709 9.21.05.12.099.237.145.352-.09-.06-.185-.123-.295-.193-2.375-1.624-5.347-4.41-8.241-7.884a.509.509 0 0 0-.03-.033l-.014-.015c-.042-.046-.174-.192-.328-.365-.156-.178-.299-.342-.366-.426-.238-.638-.065-1.392.482-1.836a1.603 1.603 0 0 1 1.927-.082l.01.011c.02.02.048.051.082.092.068.08.15.182.231.286l.219.285.075.098.026.034.013.017.005.005.214.271Zm-3.518 2.074-.148-.167c-.172-.193-.387-.44-.464-.548a.505.505 0 0 1-.055-.098 2.677 2.677 0 0 1 .02-2.093c-3.794.905-7.054 2.086-9.305 3.274l-.338.186c.136.017.265.032.397.042h.007c2.553.235 6.028.034 9.886-.596Z" fill="#18303F"/></g></svg>