<svg fill="none" height="25" viewBox="0 0 25 25" width="25"><path clip-rule="evenodd" d="m3.125 18.75a3.125 3.125 0 1 0 0 6.25 3.125 3.125 0 0 0 0-6.25zm6.25 3.125a3.125 3.125 0 1 1 6.25 0 3.125 3.125 0 0 1 -6.25 0zm0-9.375a3.125 3.125 0 1 1 6.25 0 3.125 3.125 0 0 1 -6.25 0zm9.375 9.375a3.125 3.125 0 1 1 6.25 0 3.125 3.125 0 0 1 -6.25 0zm0-9.375a3.125 3.125 0 1 1 6.25 0 3.125 3.125 0 0 1 -6.25 0zm0-9.375a3.125 3.125 0 1 1 6.25 0 3.125 3.125 0 0 1 -6.25 0z" fill="#18303f" fill-rule="evenodd"/></svg>