<svg width="25" height="25" viewBox="0 0 25 25" fill="none"><g yggColor="energy_meter"><path yggColor="iconDefault" fill-rule="evenodd" clip-rule="evenodd" d="M6 .5A5.5 5.5 0 0 0 .5 6v13A5.5 5.5 0 0 0 6 24.5h13a5.5 5.5 0 0 0 5.5-5.5V6A5.5 5.5 0 0 0 19 .5H6ZM1.5 6A4.5 4.5 0 0 1 6 1.5h13A4.5 4.5 0 0 1 23.5 6v13a4.5 4.5 0 0 1-4.5 4.5H6A4.5 4.5 0 0 1 1.5 19V6Zm5-2a.5.5 0 0 0-1 0v4.5H5c-.414 0-.797.14-1.079.421C3.64 9.203 3.5 9.586 3.5 10c0 .414.14.797.421 1.079.282.28.665.421 1.079.421h.5V15a.5.5 0 0 0 1 0v-3.5H7c.414 0 .797-.14 1.079-.421.281-.282.421-.665.421-1.079 0-.414-.14-.797-.421-1.079C7.797 8.641 7.414 8.5 7 8.5h-.5V4Zm.5 6.5c.186 0 .303-.06.371-.129.069-.068.129-.185.129-.371s-.06-.303-.129-.371C7.303 9.559 7.186 9.5 7 9.5H5c-.186 0-.303.06-.371.129-.069.068-.129.185-.129.371s.06.303.129.371c.068.07.185.129.371.129h2Zm5-2V15a.5.5 0 0 0 1 0V8.5h.5c.414 0 .797-.14 1.079-.421C14.86 7.797 15 7.414 15 7c0-.414-.14-.797-.421-1.079-.282-.28-.665-.421-1.079-.421H13V4a.5.5 0 0 0-1 0v1.5h-.5c-.414 0-.797.14-1.079.421C10.14 6.203 10 6.586 10 7c0 .414.14.797.421 1.079.282.28.665.421 1.079.421h.5Zm1.5-1c.186 0 .303-.06.371-.129C13.94 7.303 14 7.186 14 7s-.06-.303-.129-.371c-.068-.07-.185-.129-.371-.129h-2c-.186 0-.303.06-.371.129C11.06 6.697 11 6.814 11 7s.06.303.129.371c.068.07.185.129.371.129h2Zm5 7.5v-1.5H18c-.743 0-1.5-.592-1.5-1.5 0-.414.14-.797.421-1.079.282-.28.665-.421 1.079-.421h.5V4a.5.5 0 0 1 1 0v6.5h.5c.414 0 .797.14 1.079.421.281.282.421.665.421 1.079 0 .414-.14.797-.421 1.079-.282.28-.665.421-1.079.421h-.5V15a.5.5 0 0 1-1 0Zm1.871-2.629c-.068.07-.185.129-.371.129h-2a.502.502 0 0 1-.5-.5c0-.186.06-.303.129-.371.068-.07.185-.129.371-.129h2c.186 0 .303.06.371.129.069.068.129.185.129.371s-.06.303-.129.371ZM19 17.877c-.875 0-1.623.748-1.623 1.623s.748 1.623 1.623 1.623 1.623-.748 1.623-1.623-.748-1.623-1.623-1.623Zm-.623 1.623c0-.323.3-.623.623-.623s.623.3.623.623-.3.623-.623.623a.652.652 0 0 1-.623-.623Zm-5.896-1.627c-.876 0-1.625.75-1.625 1.625 0 .876.749 1.625 1.625 1.625s1.625-.749 1.625-1.625-.749-1.625-1.625-1.625Zm-.625 1.625c0-.324.301-.625.625-.625s.625.301.625.625a.654.654 0 0 1-.625.625.654.654 0 0 1-.625-.625ZM6 17.877c-.875 0-1.623.748-1.623 1.623S5.125 21.123 6 21.123s1.623-.748 1.623-1.623S6.875 17.877 6 17.877ZM5.377 19.5c0-.323.3-.623.623-.623s.623.3.623.623-.3.623-.623.623a.652.652 0 0 1-.623-.623Z" fill="#18303F"/></g></svg>