<svg width="25" height="25" viewBox="0 0 25 25" fill="none"><path fill-rule="evenodd" clip-rule="evenodd" d="M17.48 13.195c.99-4.243 1.446-8.157 1.33-11.03 0-.32-.025-.615-.047-.888V1.27a.88.88 0 0 0-.597-.76.502.502 0 0 0-.076-.019.885.885 0 0 0-.866.37c-.125.164-.247.365-.355.542l-.123.2a.472.472 0 0 0-.01.015c-1.415 2.415-2.863 5.915-4.002 9.97-4.125.936-7.716 2.208-10.191 3.516l-.006.003-.005.003c-.253.138-.517.282-.759.427a.882.882 0 0 0-.4.879c.067.449.445.652.715.697a10.027 10.027 0 0 1 .422.047l.022.003c.142.017.296.035.46.048 2.799.256 6.593.009 10.735-.707 2.759 3.22 5.575 5.829 7.893 7.412l.014.01c.085.054.178.115.272.177.155.102.316.208.462.296.278.167.67.175.966-.062.33-.263.346-.673.256-.945l-.005-.013a19.417 19.417 0 0 0-.332-.831l-.003-.007v-.002c-1.107-2.62-3.12-5.94-5.77-9.344ZM17.799 1.8l-.039.064a15 15 0 0 1-.166.269c-1.296 2.214-2.644 5.419-3.738 9.172a2.586 2.586 0 0 1 2.34.332.995.995 0 0 1 .144.129c.04.04.08.087.121.135.071.083.15.18.224.276.853-3.882 1.23-7.4 1.126-9.981v-.02c0-.128-.005-.252-.012-.375Zm-1.316 11.745a.502.502 0 0 0 .135.173c2.65 3.388 4.637 6.67 5.71 9.21.05.12.099.237.145.352-.09-.06-.186-.123-.295-.193-2.375-1.623-5.348-4.41-8.242-7.883a.509.509 0 0 0-.03-.034l-.014-.015-.327-.365c-.156-.177-.3-.342-.367-.425-.238-.639-.064-1.393.483-1.837a1.603 1.603 0 0 1 1.926-.082l.011.011c.02.021.047.051.082.092a20.107 20.107 0 0 1 .45.571l.074.098.026.034.014.017.004.005.215.271Zm-3.518 2.074-.149-.167a10.53 10.53 0 0 1-.464-.548.505.505 0 0 1-.054-.098 2.677 2.677 0 0 1 .02-2.093c-3.794.905-7.055 2.086-9.305 3.275l-.338.185c.135.017.264.032.397.042h.007c2.552.235 6.027.034 9.886-.596Z" fill="#18303F" yggColor="energy_wind"/></svg>