<svg width="25" height="25" viewBox="0 0 25 25" fill="none"><g id="energy_solar"><path fill-rule="evenodd" clip-rule="evenodd" d="M7.255 1a.48.48 0 0 1 .481.48v.957a.48.48 0 0 1-.962 0V1.48A.48.48 0 0 1 7.255 1ZM3.887 7.23c0-1.895 1.467-3.355 3.368-3.355 1.902 0 3.368 1.46 3.368 3.354 0 1.894-1.466 3.354-3.368 3.354A3.37 3.37 0 0 1 3.887 7.23Zm3.368-2.397c-1.37 0-2.406 1.032-2.406 2.396a2.409 2.409 0 0 0 2.406 2.396c1.37 0 2.406-1.031 2.406-2.396 0-1.364-1.035-2.396-2.406-2.396Zm4.383-2.063a.478.478 0 0 1 0 .677l-.674.671a.483.483 0 0 1-.68 0 .478.478 0 0 1 0-.678l.673-.67a.483.483 0 0 1 .68 0Zm-.052 4.46a.48.48 0 0 1 .48-.48h.963a.48.48 0 1 1 0 .958h-.962a.48.48 0 0 1-.481-.479Zm-.622 3.014.673.671a.478.478 0 0 1 0 .678.482.482 0 0 1-.68 0l-.674-.67a.478.478 0 0 1 0-.679.483.483 0 0 1 .68 0Zm-3.709 1.298a.48.48 0 0 1 .481.479v.958a.48.48 0 0 1-.962 0v-.958a.48.48 0 0 1 .481-.48Zm-3.028-.62-.674.671a.482.482 0 0 1-.68 0 .478.478 0 0 1 0-.678l.674-.67a.483.483 0 0 1 .68 0 .478.478 0 0 1 0 .677ZM1 7.23a.48.48 0 0 1 .481-.479h.962a.48.48 0 1 1 0 .958h-.962A.48.48 0 0 1 1 7.23Zm1.873-4.46a.483.483 0 0 1 .68 0l.674.671a.478.478 0 0 1 0 .678.483.483 0 0 1-.68 0l-.674-.67a.478.478 0 0 1 0-.678Zm12.518-.766a.478.478 0 0 1 0 .677l-1.177 1.172c2.625.355 4.912 1.977 6.168 4.3a.478.478 0 0 1-.196.65.482.482 0 0 1-.651-.195c-1.064-1.968-2.954-3.359-5.132-3.755l.988.984a.478.478 0 0 1 0 .678.483.483 0 0 1-.68 0l-1.926-1.917a.477.477 0 0 1 0-.678l1.925-1.916a.483.483 0 0 1 .68 0Zm5.818 8.101a.483.483 0 0 0-.857-.299l-5.666 7.077a.834.834 0 0 0-.194.427 1.585 1.585 0 0 0-.02.265v.005c0 .127.052.25.142.34l.007.006c.043.043.113.113.189.17a.727.727 0 0 0 .433.155h2.02v5.27a.482.482 0 0 0 .857.299l5.667-7.076a.836.836 0 0 0 .194-.426c.019-.112.019-.216.019-.265v-.006a.478.478 0 0 0-.141-.339l-.008-.008a1.807 1.807 0 0 0-.187-.168.726.726 0 0 0-.434-.156h-2.02v-5.27Zm-.962 1.37-4.658 5.818h2.156a.48.48 0 0 1 .48.479v4.38l4.659-5.818h-2.156a.48.48 0 0 1-.481-.479v-4.38ZM6.065 15.049a.482.482 0 0 1 .651.195c1.064 1.967 2.955 3.358 5.133 3.753l-.988-.983a.478.478 0 0 1 0-.678.483.483 0 0 1 .68 0l1.925 1.917a.476.476 0 0 1-.005.682l-1.92 1.912a.483.483 0 0 1-.68 0 .478.478 0 0 1 0-.678l1.176-1.171c-2.625-.355-4.911-1.976-6.168-4.3a.478.478 0 0 1 .196-.649Z" fill="#18303F" yggColor="iconDefault"/></g></svg>