<svg fill="none" height="25" viewBox="0 0 25 25" width="25"><path d="m12.5 20.834c-6.888 0-12.5-1.666-12.5-3.689 0-2.022 5.108-11.935 12.036-11.935 6.927-.001 12.964 9.913 12.964 11.935 0 2.023-5.611 3.689-12.5 3.689zm0-1.068c6.253 0 11.458-1.539 11.458-2.62 0-.274-.336-1.15-.915-2.191a23.122 23.122 0 0 0 -2.705-3.826c-2.63-3.025-5.56-4.853-8.302-4.853-2.72 0-5.441 1.8-7.804 4.811-1.79 2.283-3.19 5.176-3.19 6.058 0 1.082 5.206 2.621 11.458 2.621zm5.186-7.022c.542 0 .27-.397.077-.635-.076-.08-.245-.25-.507-.506-2.27-2.126-4.546-2.447-6.923-1.635-2.477.832-4.8 4.084-4.412 4.52.503.556 3.599 2.935 7.198 2.776 2.67-.079 3.87-1.388 4.412-2.3a.635.635 0 0 1 .325-.277c.586-.198 1.071.088 1.107.201.068.088.066.165 0 .274-.929 1.389-3.135 2.975-5.186 3.173-2.516.238-4.76-.714-5.96-1.19-1.122-.436-3.328-1.427-3.792-1.705-.93-.555.31-1.586 1.393-2.974 1.819-2.26 4.063-3.688 6.618-3.886 1.973-.16 3.908.713 5.108 1.625.813.635 1.432 1.468 1.858 2.38.039.079.85.158 1.083.238s.697.159.697.317c0 .277-.039.516-.116.833-.06.122-.78-.014-1.234-.101a40.428 40.428 0 0 0 -1.672-.276 19.418 19.418 0 0 0 -2.551-.178c-1.78 0-4.334.317-4.49.277-1.122-.277 1.355-.833 3.561-1.11 1-.12 1.873-.052 2.504.029.505.077.805.12.902.13z" fill="#18303f"/></svg>