<svg width="25" height="25" viewBox="0 0 25 25" fill="none"><g id="enocean_colorful"><path fill-rule="evenodd" clip-rule="evenodd" d="M0 16.937c0 2.022 5.612 3.688 12.5 3.688 6.889 0 12.5-1.666 12.5-3.688C25 14.914 18.963 5 12.036 5 5.108 5 0 14.914 0 16.937ZM17.763 11.9c.194.239.465.635-.077.635a24.898 24.898 0 0 1-.902-.13 10.137 10.137 0 0 0-2.504-.029c-2.206.278-4.683.833-3.56 1.11.057.015.44-.018.99-.067.943-.083 2.375-.21 3.499-.21.854 0 1.708.067 2.551.179a40.45 40.45 0 0 1 1.672.276c.454.087 1.174.222 1.234.1.077-.317.116-.555.116-.833 0-.12-.27-.195-.502-.26-.072-.02-.14-.038-.195-.057a4.264 4.264 0 0 0-.511-.102c-.275-.045-.55-.09-.572-.136-.426-.912-1.045-1.745-1.858-2.38-1.2-.911-3.135-1.784-5.108-1.625-2.555.198-4.8 1.626-6.618 3.886-.224.286-.453.557-.67.812-.832.981-1.46 1.722-.723 2.163.464.277 2.67 1.268 3.792 1.705L7.98 17c1.233.492 3.392 1.353 5.798 1.126 2.051-.199 4.257-1.785 5.186-3.173.066-.11.068-.187 0-.274-.036-.113-.52-.4-1.107-.202a.635.635 0 0 0-.325.278c-.542.912-1.742 2.22-4.412 2.3-3.599.159-6.695-2.22-7.198-2.776-.387-.436 1.935-3.688 4.412-4.52 2.377-.813 4.653-.491 6.923 1.635.262.256.431.425.507.505Z" fill="#1F2A60" yggColor="iconCustom"/></g></svg>