<svg width="15" height="15" viewBox="0 0 15 15" fill="none" xmlns="http://www.w3.org/2000/svg">
<path fill-rule="evenodd" clip-rule="evenodd" d="M8.64899 2.67932C8.01439 2.04472 6.98549 2.04472 6.35089 2.67932L2.67932 6.35089C2.04472 6.9855 2.04472 8.01439 2.67932 8.64899L6.35089 12.3206C6.98549 12.9552 8.01439 12.9552 8.64899 12.3206L12.3206 8.64899C12.9552 8.01439 12.9552 6.98549 12.3206 6.35089L8.64899 2.67932ZM5.82056 2.14899C6.74806 1.2215 8.25182 1.22149 9.17932 2.14899L12.8509 5.82056C13.7784 6.74806 13.7784 8.25183 12.8509 9.17932L9.17932 12.8509C8.25182 13.7784 6.74806 13.7784 5.82056 12.8509L2.14899 9.17932C1.2215 8.25183 1.2215 6.74806 2.14899 5.82056L5.82056 2.14899ZM7.49994 4.62494C7.70705 4.62494 7.87494 4.79283 7.87494 4.99994V7.99994C7.87494 8.20705 7.70705 8.37494 7.49994 8.37494C7.29284 8.37494 7.12494 8.20705 7.12494 7.99994V4.99994C7.12494 4.79283 7.29284 4.62494 7.49994 4.62494ZM7.49994 9.62494C7.70705 9.62494 7.87494 9.79284 7.87494 9.99994V10.0999C7.87494 10.307 7.70705 10.4749 7.49994 10.4749C7.29284 10.4749 7.12494 10.307 7.12494 10.0999V9.99994C7.12494 9.79284 7.29284 9.62494 7.49994 9.62494Z" fill="#18303F"/>
</svg>
