<svg fill="none" height="25" viewBox="0 0 25 25" width="25"><path clip-rule="evenodd" d="m14.415 4.466a2.708 2.708 0 0 0 -3.83 0l-6.12 6.119a2.708 2.708 0 0 0 0 3.83l6.12 6.12a2.709 2.709 0 0 0 3.83 0l6.12-6.12a2.709 2.709 0 0 0 0-3.83l-6.12-6.12zm-4.714-.884a3.958 3.958 0 0 1 5.598 0l6.12 6.119a3.958 3.958 0 0 1 0 5.598l-6.12 6.12a3.958 3.958 0 0 1 -5.598 0l-6.12-6.12a3.958 3.958 0 0 1 0-5.598l6.12-6.12zm2.799 4.126c.345 0 .625.28.625.625v5a.625.625 0 1 1 -1.25 0v-5c0-.345.28-.625.625-.625zm0 8.334c.345 0 .625.28.625.625v.166a.625.625 0 1 1 -1.25 0v-.166c0-.346.28-.625.625-.625z" fill="#18303f" fill-rule="evenodd"/></svg>