<svg width="25" height="25" viewBox="0 0 25 25" fill="none"><g yggColor="export"><path yggColor="iconDefault" fill-rule="evenodd" clip-rule="evenodd" d="M24.432 2.229c.034.058.055.12.064.185l.004.044a.509.509 0 0 1-.012.13l-3.9 18.297a1.52 1.52 0 0 1-.765.943.48.48 0 0 1-.065.027c-.351.117-.871.178-1.27-.18l-4.713-3.108-2.338 3.956a.95.95 0 0 1-.541.444.948.948 0 0 1-.72-.04 1.402 1.402 0 0 1-.43-.334.949.949 0 0 1-.246-.613V15.86l-8.136-2.297-.022-.007C.916 13.413.5 13.068.5 12.48c0-.366.125-.957.724-1.167l22.58-9.293a.5.5 0 0 1 .628.209ZM10.5 16.409v5.528l.005.005a.306.306 0 0 0 .076.066l2.358-3.992-2.44-1.607Zm.307-.996L23.18 3.923l-3.563 16.722a.539.539 0 0 1-.214.273.555.555 0 0 1-.196.027c-.04-.003-.05-.013-.054-.018a.477.477 0 0 0-.08-.064l-8.267-5.45ZM21.635 3.994 9.865 14.923l-8.216-2.32a.316.316 0 0 1-.135-.077.051.051 0 0 1-.01-.015.47.47 0 0 1 .031-.232c.007-.014.012-.019.012-.019l.002-.001.01-.004a.978.978 0 0 0 .032-.012l20.044-8.249Z" fill="#18303F"/></g></svg>