<svg width="25" height="25" viewBox="0 0 25 25" fill="none"><path fill-rule="evenodd" clip-rule="evenodd" d="M24.432 2.23c.034.057.055.12.064.184l.004.044a.509.509 0 0 1-.012.13l-3.899 18.297a1.52 1.52 0 0 1-.765.943.48.48 0 0 1-.066.027c-.351.117-.871.178-1.269-.18l-4.714-3.107-2.338 3.955a.95.95 0 0 1-.541.445.948.948 0 0 1-.719-.04 1.402 1.402 0 0 1-.431-.334.949.949 0 0 1-.246-.613v-6.122l-8.136-2.297-.022-.007C.916 13.413.5 13.068.5 12.481c0-.366.125-.958.724-1.168l22.58-9.293a.5.5 0 0 1 .628.209ZM10.5 16.408v5.528l.005.005a.306.306 0 0 0 .076.066l2.358-3.991-2.439-1.608Zm.307-.995 12.374-11.49-3.563 16.722a.539.539 0 0 1-.214.274.555.555 0 0 1-.196.026c-.04-.003-.049-.013-.054-.017a.477.477 0 0 0-.079-.065l-8.268-5.45Zm10.828-11.42L9.866 14.925l-8.217-2.32a.316.316 0 0 1-.135-.078.051.051 0 0 1-.01-.015.47.47 0 0 1 .031-.232c.007-.014.012-.019.012-.019h.002l.01-.005a.978.978 0 0 0 .032-.012l20.044-8.248Z" fill="#18303F" yggColor="export"/></svg>