<svg fill="none" height="25" viewBox="0 0 25 25" width="25"><path clip-rule="evenodd" d="m24.432 2.229c.034.058.055.12.064.185l.004.044a.509.509 0 0 1 -.012.13l-3.9 18.297a1.52 1.52 0 0 1 -.765.943.48.48 0 0 1 -.065.027c-.351.117-.871.178-1.27-.18l-4.713-3.108-2.338 3.956a.95.95 0 0 1 -.541.444.948.948 0 0 1 -.72-.04 1.402 1.402 0 0 1 -.43-.334.949.949 0 0 1 -.246-.613v-6.12l-8.136-2.297-.022-.007c-.426-.143-.842-.488-.842-1.076 0-.366.125-.957.724-1.167l22.58-9.293a.5.5 0 0 1 .628.209zm-13.932 14.18v5.528l.005.005a.306.306 0 0 0 .076.066l2.358-3.992-2.44-1.607zm.307-.996 12.373-11.49-3.563 16.722a.539.539 0 0 1 -.214.273.555.555 0 0 1 -.196.027c-.04-.003-.05-.013-.054-.018a.477.477 0 0 0 -.08-.064l-8.267-5.45zm10.828-11.419-11.77 10.929-8.216-2.32a.316.316 0 0 1 -.135-.077.051.051 0 0 1 -.01-.015.47.47 0 0 1 .031-.232c.007-.014.012-.019.012-.019l.002-.001.01-.004a.978.978 0 0 0 .032-.012z" fill="#18303f" fill-rule="evenodd"/></svg>