<svg width="15" height="15" viewBox="0 0 15 15" fill="none" xmlns="http://www.w3.org/2000/svg">
<path fill-rule="evenodd" clip-rule="evenodd" d="M13.5548 7.50001C10.6887 11.8278 4.31144 11.8278 1.44531 7.50001C4.31144 3.1722 10.6887 3.1722 13.5548 7.50001ZM14.3145 7.70449C14.3911 7.58652 14.3978 7.43015 14.3189 7.30263C11.1836 2.23799 3.81646 2.23799 0.681202 7.30263C0.602263 7.43015 0.609003 7.58652 0.685595 7.70449C3.82187 12.7597 11.1782 12.7597 14.3145 7.70449ZM7.50005 6.37502C6.87873 6.37502 6.37505 6.87869 6.37505 7.50002C6.37505 8.12134 6.87873 8.62502 7.50005 8.62502C8.12137 8.62502 8.62505 8.12134 8.62505 7.50002C8.62505 6.87869 8.12137 6.37502 7.50005 6.37502ZM5.62505 7.50002C5.62505 6.46448 6.46452 5.62502 7.50005 5.62502C8.53559 5.62502 9.37505 6.46448 9.37505 7.50002C9.37505 8.53555 8.53559 9.37502 7.50005 9.37502C6.46452 9.37502 5.62505 8.53555 5.62505 7.50002Z" fill="#18303F"/>
</svg>
