<svg width="25" height="25" viewBox="0 0 25 25" fill="none" xmlns="http://www.w3.org/2000/svg">
<g id="eye-open">
<path id="iconDefault" fill-rule="evenodd" clip-rule="evenodd" d="M22.5912 12.5C17.8143 19.713 7.18565 19.713 2.40876 12.5C7.18565 5.28695 17.8143 5.28695 22.5912 12.5ZM23.8574 12.8408C23.9851 12.6442 23.9963 12.3835 23.8647 12.171C18.6393 3.72994 6.36068 3.72994 1.13525 12.171C1.00369 12.3835 1.01492 12.6442 1.14257 12.8408C6.36969 21.2661 18.6303 21.2661 23.8574 12.8408ZM12.5 10.625C11.4645 10.625 10.625 11.4645 10.625 12.5C10.625 13.5355 11.4645 14.375 12.5 14.375C13.5355 14.375 14.375 13.5355 14.375 12.5C14.375 11.4645 13.5355 10.625 12.5 10.625ZM9.375 12.5C9.375 10.7741 10.7741 9.37498 12.5 9.37498C14.2259 9.37498 15.625 10.7741 15.625 12.5C15.625 14.2259 14.2259 15.625 12.5 15.625C10.7741 15.625 9.375 14.2259 9.375 12.5Z" fill="#18303F"/>
</g>
</svg>
