<svg width="25" height="25" viewBox="0 0 25 25" fill="none"><g id="eye-open"><path id="iconDefault" fill-rule="evenodd" clip-rule="evenodd" d="M22.591 12.5c-4.777 7.213-15.405 7.213-20.182 0 4.777-7.213 15.405-7.213 20.182 0Zm1.266.34a.625.625 0 0 0 .008-.669c-5.226-8.441-17.504-8.441-22.73 0a.625.625 0 0 0 .008.67c5.227 8.425 17.487 8.425 22.714 0ZM12.5 10.626a1.875 1.875 0 1 0 0 3.75 1.875 1.875 0 0 0 0-3.75ZM9.375 12.5a3.125 3.125 0 1 1 6.25 0 3.125 3.125 0 0 1-6.25 0Z" fill="#18303F"/></g></svg>