<svg width="25" height="25" viewBox="0 0 25 25" fill="none"><g id="eye_closed"><path fill-rule="evenodd" clip-rule="evenodd" d="M1.338 6.76a.625.625 0 0 1 .86.203c4.737 7.651 15.867 7.651 20.604 0a.625.625 0 0 1 1.063.658 13.394 13.394 0 0 1-3.273 3.623l1.634 3.268a.625.625 0 0 1-1.118.56l-1.556-3.112a13.25 13.25 0 0 1-3.8 1.596l.688 2.75a.625.625 0 0 1-1.213.304l-.703-2.81a13.602 13.602 0 0 1-4.048 0l-.703 2.81a.625.625 0 0 1-1.213-.303l.688-2.75a13.25 13.25 0 0 1-3.8-1.597l-1.556 3.111a.625.625 0 1 1-1.118-.559l1.634-3.268a13.396 13.396 0 0 1-3.273-3.623.625.625 0 0 1 .203-.86Z" fill="#18303F" yggColor="iconDefault"/></g></svg>