<svg fill="none" height="25" viewBox="0 0 25 25" width="25"><path clip-rule="evenodd" d="m1.338 6.76a.625.625 0 0 1 .86.203c4.737 7.651 15.867 7.651 20.604 0a.625.625 0 0 1 1.063.658 13.399 13.399 0 0 1 -3.273 3.623l1.634 3.268a.625.625 0 0 1 -1.118.56l-1.556-3.112a13.245 13.245 0 0 1 -3.8 1.596l.688 2.75a.625.625 0 0 1 -1.213.304l-.703-2.81c-1.34.202-2.708.202-4.049 0l-.702 2.81a.625.625 0 0 1 -1.213-.303l.688-2.75a13.247 13.247 0 0 1 -3.8-1.597l-1.556 3.11a.625.625 0 0 1 -1.118-.559l1.634-3.268a13.397 13.397 0 0 1 -3.273-3.623.625.625 0 0 1 .203-.86z" fill="#18303f" fill-rule="evenodd"/></svg>