<svg width="25" height="25" viewBox="0 0 25 25" fill="none"><g id="face_id"><path fill-rule="evenodd" clip-rule="evenodd" d="M5.938 3.23c-1.05 0-1.9.873-1.9 2.11v2.527a.417.417 0 0 1-.834 0V5.34c0-1.627 1.157-2.944 2.734-2.944h2.316a.417.417 0 0 1 0 .833H5.938Zm10.393-.417c0-.23.187-.417.417-.417h2.316c1.576 0 2.733 1.317 2.733 2.944v2.527a.416.416 0 1 1-.833 0V5.34c0-1.237-.851-2.11-1.9-2.11h-2.316a.417.417 0 0 1-.417-.417ZM3.62 16.717c.23 0 .417.186.417.416v2.527c0 1.237.85 2.11 1.9 2.11h2.316a.417.417 0 0 1 0 .834H5.938c-1.577 0-2.734-1.316-2.734-2.944v-2.527c0-.23.187-.416.417-.416Zm17.76 0c.23 0 .416.186.416.416v2.527c0 1.628-1.157 2.944-2.733 2.944h-2.316a.417.417 0 0 1 0-.833h2.316c1.049 0 1.9-.874 1.9-2.11v-2.528c0-.23.187-.416.417-.416Zm-8.495-8.003c.23 0 .417.187.417.417v3.79c0 .87-.694 1.68-1.576 1.68h-.385a.416.416 0 0 1 0-.833h.385c.355 0 .742-.368.742-.847v-3.79c0-.23.188-.417.418-.417Zm-3.86 0c.23 0 .417.187.417.417v2.106a.417.417 0 0 1-.833 0V9.13c0-.23.186-.417.416-.417Zm7.722 0c.23 0 .416.187.416.417v2.106a.416.416 0 1 1-.833 0V9.13c0-.23.187-.417.417-.417Zm-7.47 7.698a.416.416 0 0 1 .589.011c1.458 1.514 3.733 1.514 5.19 0a.416.416 0 1 1 .6.578c-1.784 1.855-4.605 1.855-6.391 0a.417.417 0 0 1 .012-.59Z" fill="#18303F" yggColor="iconDefault"/></g></svg>