<svg width="25" height="25" viewBox="0 0 25 25" fill="none"><g yggColor="face_id"><path yggColor="iconDefault" fill-rule="evenodd" clip-rule="evenodd" d="M5.937 3.23c-1.05 0-1.9.873-1.9 2.11v2.527a.417.417 0 0 1-.834 0V5.34c0-1.628 1.157-2.944 2.734-2.944h2.316a.417.417 0 0 1 0 .833H5.937Zm10.393-.417c0-.23.188-.417.418-.417h2.315c1.576 0 2.733 1.316 2.733 2.944v2.527a.416.416 0 1 1-.833 0V5.34c0-1.237-.85-2.11-1.9-2.11h-2.316a.417.417 0 0 1-.417-.417ZM3.62 16.716c.23 0 .417.187.417.417v2.527c0 1.237.85 2.11 1.9 2.11h2.316a.417.417 0 0 1 0 .834H5.937c-1.577 0-2.734-1.316-2.734-2.944v-2.527c0-.23.187-.417.417-.417Zm17.76 0c.23 0 .416.187.416.417v2.527c0 1.628-1.157 2.944-2.733 2.944h-2.316a.417.417 0 0 1 0-.833h2.316c1.05 0 1.9-.874 1.9-2.11v-2.528c0-.23.188-.417.418-.417Zm-8.494-8.002c.23 0 .416.186.416.417v3.79c0 .87-.693 1.68-1.575 1.68h-.386a.416.416 0 0 1 0-.833h.386c.355 0 .742-.368.742-.847v-3.79c0-.23.187-.417.417-.417Zm-3.86 0c.23 0 .416.186.416.417v2.105a.417.417 0 0 1-.832 0V9.131c0-.23.185-.417.415-.417Zm7.721 0c.23 0 .416.186.416.417v2.105a.416.416 0 1 1-.833 0V9.131c0-.23.188-.417.418-.417Zm-7.47 7.698a.416.416 0 0 1 .59.01c1.457 1.515 3.732 1.515 5.19 0a.416.416 0 1 1 .6.579c-1.784 1.855-4.605 1.855-6.392 0a.417.417 0 0 1 .013-.59Z" fill="#18303F"/></g></svg>