<svg width="25" height="25" viewBox="0 0 25 25" fill="none" xmlns="http://www.w3.org/2000/svg">
<g id="failed">
<path id="iconDefault" fill-rule="evenodd" clip-rule="evenodd" d="M23 12.5C23 18.299 18.299 23 12.5 23C6.70101 23 2 18.299 2 12.5C2 6.70101 6.70101 2 12.5 2C18.299 2 23 6.70101 23 12.5ZM24 12.5C24 18.8513 18.8513 24 12.5 24C6.14873 24 1 18.8513 1 12.5C1 6.14873 6.14873 1 12.5 1C18.8513 1 24 6.14873 24 12.5ZM8.35355 7.64645C8.15829 7.45118 7.84171 7.45118 7.64645 7.64645C7.45118 7.84171 7.45118 8.15829 7.64645 8.35355L11.7929 12.5L7.64645 16.6464C7.45118 16.8417 7.45118 17.1583 7.64645 17.3536C7.84171 17.5488 8.15829 17.5488 8.35355 17.3536L12.5 13.2071L16.6464 17.3536C16.8417 17.5488 17.1583 17.5488 17.3536 17.3536C17.5488 17.1583 17.5488 16.8417 17.3536 16.6464L13.2071 12.5L17.3536 8.35355C17.5488 8.15829 17.5488 7.84171 17.3536 7.64645C17.1583 7.45118 16.8417 7.45118 16.6464 7.64645L12.5 11.7929L8.35355 7.64645Z" fill="#18303F"/>
</g>
</svg>
