<svg fill="none" height="25" viewBox="0 0 25 25" width="25"><path clip-rule="evenodd" d="m23 12.5c0 5.799-4.701 10.5-10.5 10.5s-10.5-4.701-10.5-10.5 4.701-10.5 10.5-10.5 10.5 4.701 10.5 10.5zm1 0c0 6.351-5.149 11.5-11.5 11.5s-11.5-5.149-11.5-11.5 5.149-11.5 11.5-11.5 11.5 5.149 11.5 11.5zm-15.646-4.854a.5.5 0 1 0 -.708.708l4.147 4.146-4.147 4.146a.5.5 0 0 0 .708.708l4.146-4.147 4.146 4.147a.5.5 0 0 0 .708-.708l-4.147-4.146 4.147-4.146a.5.5 0 0 0 -.708-.708l-4.146 4.147z" fill="#18303f" fill-rule="evenodd"/></svg>