<svg width="25" height="25" viewBox="0 0 25 25" fill="none"><g id="failed"><path fill-rule="evenodd" clip-rule="evenodd" d="M23 12.5C23 18.299 18.299 23 12.5 23S2 18.299 2 12.5 6.701 2 12.5 2 23 6.701 23 12.5Zm1 0C24 18.851 18.851 24 12.5 24S1 18.851 1 12.5 6.149 1 12.5 1 24 6.149 24 12.5ZM8.354 7.646a.5.5 0 1 0-.708.708l4.147 4.146-4.147 4.146a.5.5 0 0 0 .708.708l4.146-4.147 4.146 4.147a.5.5 0 0 0 .708-.708L13.207 12.5l4.147-4.146a.5.5 0 0 0-.708-.708L12.5 11.793 8.354 7.646Z" fill="#18303F" yggColor="iconDefault"/></g></svg>