<svg fill="none" height="25" viewBox="0 0 25 25" width="25"><path clip-rule="evenodd" d="m5.094 15.78a1.426 1.426 0 0 1 -.144-.17c-.723-.998-2.063-3.066-2.722-5.509a.504.504 0 0 1 -.016-.16c.172-2.954 1.511-6.48 2.395-8.528.498-1.156 2.054-1.149 2.615-.077l1.989 3.799c.051-.052.108-.1.169-.144.998-.723 3.067-2.063 5.51-2.722a.494.494 0 0 1 .159-.016c2.954.172 6.48 1.511 8.529 2.395 1.155.498 1.149 2.054.077 2.615l-3.744 1.96c.05.05.098.107.142.167.723.998 2.062 3.066 2.721 5.51.014.051.02.105.017.159-.173 2.954-1.512 6.48-2.395 8.528-.498 1.156-2.055 1.15-2.616.077l-1.986-3.795c-.051.051-.107.099-.168.143-.998.723-3.066 2.062-5.509 2.721a.505.505 0 0 1 -.16.017c-2.954-.173-6.48-1.512-8.528-2.395-1.156-.498-1.149-2.055-.077-2.616zm.431-13.97c.146-.338.618-.379.811-.01l2.404 4.593a.491.491 0 0 0 .113.143c.027.1.066.197.115.29l1.367 2.613a.5.5 0 1 0 .886-.464l-1.367-2.613a.433.433 0 0 1 .113-.561c.835-.605 2.426-1.64 4.326-2.301l-1.969 7.084a.5.5 0 0 0 .964.268l2.104-7.57c2.684.251 5.846 1.446 7.79 2.284.338.146.378.618.009.811l-4.592 2.404a.488.488 0 0 0 -.123.09 1.486 1.486 0 0 0 -.258.106l-2.612 1.368a.5.5 0 0 0 .463.886l2.613-1.368a.433.433 0 0 1 .561.114c.605.835 1.639 2.426 2.3 4.326l-7.084-1.97a.499.499 0 1 0 -.268.964l7.571 2.104c-.252 2.684-1.446 5.846-2.284 7.79-.146.339-.618.379-.812.01l-2.403-4.592a.513.513 0 0 0 -.109-.14 1.518 1.518 0 0 0 -.115-.292l-1.368-2.612a.5.5 0 1 0 -.886.464l1.368 2.612c.11.211.05.442-.114.56-.834.606-2.426 1.64-4.326 2.302l1.969-7.085a.5.5 0 0 0 -.963-.268l-2.104 7.57c-2.684-.251-5.846-1.445-7.79-2.284-.339-.145-.379-.617-.01-.81l4.592-2.404a.492.492 0 0 0 .128-.096 1.47 1.47 0 0 0 .249-.103l2.613-1.367a.5.5 0 0 0 -.464-.886l-2.612 1.367c-.212.11-.443.05-.561-.113-.605-.835-1.64-2.426-2.301-4.326l7.084 1.968a.5.5 0 0 0 .268-.963l-7.57-2.104c.251-2.684 1.446-5.846 2.284-7.79zm7.495 10.453a.57.57 0 1 1 -1.01.528.57.57 0 0 1 1.01-.528z" fill="#18303f" fill-rule="evenodd"/></svg>