<svg width="25" height="25" viewBox="0 0 25 25" fill="none"><g id="fan_alt"><path fill-rule="evenodd" clip-rule="evenodd" d="M23.057 13.027H19.66c.021.07.038.144.048.22.154 1.102.328 3.198-.141 5.309a.5.5 0 0 1-.06.148c-1.289 2.149-3.63 4.263-5.157 5.517-.976.802-2.35.07-2.35-1.138v-3.45c-.071.022-.145.038-.22.049-1.103.153-3.198.328-5.31-.142a.497.497 0 0 1-.148-.059c-2.148-1.29-4.263-3.63-5.517-5.157-.801-.976-.07-2.35 1.138-2.35H5.34a1.427 1.427 0 0 1-.048-.221c-.153-1.102-.328-3.197.141-5.309a.5.5 0 0 1 .06-.148C6.782 4.147 9.123 2.033 10.65.779 11.626-.023 13 .709 13 1.917v3.45c.071-.022.145-.038.221-.049 1.102-.153 3.197-.328 5.308.142a.5.5 0 0 1 .15.059c2.147 1.29 4.262 3.63 5.516 5.157.801.976.07 2.35-1.138 2.35ZM11.284 1.552c.281-.231.716-.054.716.365V11.351L6.569 6.463c1.23-1.874 3.285-3.737 4.715-4.911Zm7.462 15.923-4.942-4.448h4.503a.426.426 0 0 1 .41.358c.125.895.259 2.449.029 4.09Zm-7.55-5.502H6.694a.426.426 0 0 1-.41-.358c-.125-.895-.259-2.449-.029-4.09l4.943 4.448ZM13 18.301l.001-.05v-4.602l5.431 4.888c-1.23 1.875-3.285 3.737-4.715 4.911-.281.231-.716.054-.716-.365v-4.782Zm-6.326-5.328h-4.73c-.419 0-.596.435-.365.716 1.175 1.43 3.037 3.485 4.911 4.716l4.888-5.431H6.673Zm5.326.804L7.551 18.72c1.642.23 3.195.096 4.09-.028A.426.426 0 0 0 12 18.28v-4.503Zm11.058-1.75h-4.73l-.05-.001h-4.654l4.888-5.431c1.874 1.231 3.736 3.285 4.91 4.716.232.28.055.716-.364.716ZM13 11.223l4.448-4.942c-1.642-.23-3.195-.097-4.09.028a.426.426 0 0 0-.358.41v4.504Z" fill="#18303F" yggColor="iconDefault"/></g></svg>