<svg fill="none" height="25" viewBox="0 0 25 25" width="25"><path clip-rule="evenodd" d="m23.057 13.027h-3.397c.021.07.038.144.048.22.154 1.102.328 3.198-.141 5.309a.5.5 0 0 1 -.06.148c-1.289 2.149-3.63 4.263-5.157 5.517-.976.802-2.35.07-2.35-1.138v-3.45a1.461 1.461 0 0 1 -.22.049c-1.103.153-3.198.328-5.31-.142a.497.497 0 0 1 -.148-.059c-2.148-1.29-4.263-3.63-5.517-5.157-.801-.976-.07-2.35 1.138-2.35h3.397a1.427 1.427 0 0 1 -.048-.221c-.153-1.102-.328-3.197.141-5.309a.5.5 0 0 1 .06-.148c1.289-2.149 3.63-4.263 5.157-5.517.976-.802 2.35-.07 2.35 1.138v3.45c.071-.022.145-.038.221-.049 1.102-.153 3.197-.328 5.308.142a.5.5 0 0 1 .15.059c2.147 1.29 4.262 3.63 5.516 5.157.801.976.07 2.35-1.138 2.35zm-11.773-11.475c.281-.231.716-.054.716.365v9.434l-5.431-4.888c1.23-1.874 3.285-3.737 4.715-4.911zm7.462 15.923-4.942-4.448h4.503a.426.426 0 0 1 .41.358c.125.895.259 2.449.029 4.09zm-7.55-5.502h-4.502a.426.426 0 0 1 -.41-.358c-.125-.895-.259-2.449-.029-4.09l4.943 4.448zm1.804 6.328.001-.05v-4.602l5.431 4.888c-1.23 1.875-3.285 3.737-4.715 4.911-.281.231-.716.054-.716-.365v-4.782zm-6.326-5.328h-4.73c-.419 0-.596.435-.365.716 1.175 1.43 3.037 3.485 4.911 4.716l4.888-5.431h-4.705zm5.326.804-4.449 4.943c1.642.23 3.195.096 4.09-.028a.426.426 0 0 0 .359-.412zm11.058-1.75h-4.73l-.05-.001h-4.654l4.888-5.431c1.874 1.231 3.736 3.285 4.91 4.716.232.28.055.716-.364.716zm-10.058-.804 4.448-4.942c-1.642-.23-3.195-.097-4.09.028a.426.426 0 0 0 -.358.41z" fill="#18303f" fill-rule="evenodd"/></svg>