<svg fill="none" height="25" viewBox="0 0 25 25" width="25"><path clip-rule="evenodd" d="m8.983 6.861c-.197-.377-.65-.314-.778.007-.434 1.097-.901 2.503-1.046 3.744l1.99.553a.5.5 0 0 1 -.268.963l-1.482-.411c.318.79.727 1.468 1.041 1.93.107.156.329.22.542.11l1.283-.672a.5.5 0 0 1 .464.885l-1.283.672c-.111.058-.227.101-.346.13a.485.485 0 0 1 -.165.138l-2.066 1.082c-.377.197-.315.65.007.777 1.097.435 2.502.902 3.744 1.047l.553-1.99a.499.499 0 1 1 .963.268l-.412 1.482c.79-.318 1.469-.727 1.93-1.041.156-.107.222-.329.11-.542l-.672-1.283a.5.5 0 0 1 .886-.464l.672 1.283c.062.119.107.244.135.371a.5.5 0 0 1 .148.173l1.082 2.066c.197.377.65.314.777-.007.435-1.097.902-2.503 1.047-3.744l-1.99-.553a.5.5 0 0 1 .268-.963l1.482.412a10.44 10.44 0 0 0 -1.041-1.93c-.107-.157-.329-.222-.542-.11l-1.283.672a.5.5 0 0 1 -.464-.886l1.283-.672c.112-.059.229-.102.349-.13a.502.502 0 0 1 .164-.137l2.066-1.081c.377-.198.315-.65-.007-.778-1.097-.435-2.502-.902-3.743-1.046l-.553 1.989a.5.5 0 0 1 -.964-.268l.412-1.482c-.79.318-1.468.727-1.93 1.041-.156.107-.221.329-.11.542l.672 1.284a.5.5 0 1 1 -.886.463l-.672-1.283a1.482 1.482 0 0 1 -.134-.37.487.487 0 0 1 -.151-.174l-1.082-2.068zm-1.37 7.348c.046.067.097.13.15.185l-1.358.712c-1.064.557-1.088 2.121.103 2.593 1.235.49 2.955 1.063 4.453 1.15a.495.495 0 0 0 .159-.016c1.305-.352 2.429-1.017 3.096-1.471a1.43 1.43 0 0 0 .185-.15l.728 1.39c.557 1.065 2.121 1.089 2.593-.102.49-1.235 1.063-2.955 1.15-4.453a.504.504 0 0 0 -.016-.16c-.352-1.304-1.017-2.428-1.471-3.096a1.42 1.42 0 0 0 -.15-.184l1.36-.712c1.064-.557 1.088-2.12-.102-2.593-1.236-.49-2.956-1.063-4.454-1.15a.5.5 0 0 0 -.159.016c-1.305.352-2.429 1.017-3.096 1.471-.068.047-.13.097-.186.151l-.729-1.393c-.557-1.064-2.121-1.087-2.593.103-.49 1.236-1.063 2.955-1.15 4.453a.476.476 0 0 0 .016.16c.352 1.304 1.017 2.428 1.47 3.096zm4.476-1.709a.411.411 0 1 1 .823 0 .411.411 0 0 1 -.823 0zm.411-1.412a1.411 1.411 0 1 0 .001 2.823 1.411 1.411 0 0 0 -.001-2.823z" fill="#18303f" fill-rule="evenodd"/></svg>