<svg width="25" height="25" viewBox="0 0 25 25" fill="none"><g id="feather"><path id="iconDefault" fill-rule="evenodd" clip-rule="evenodd" d="M21.137.207a1.69 1.69 0 0 1 1.175.344.5.5 0 0 1 .106.12c.113.178.188.337.235.51.042.156.057.31.071.45l.002.019a.5.5 0 0 1-.003.122c-.197 1.345-1.045 3.856-2.194 6.454-1.152 2.603-2.638 5.368-4.149 7.216-1.918 2.433-3.82 3.826-5.511 4.417-1.39.485-2.656.43-3.63-.066l-4.086 4.83a.5.5 0 1 1-.763-.645l4.029-4.764c-1.967-1.767-2.063-4.139-1.437-6.256.645-2.18 2.073-4.195 3.195-5.293.158-.154.351-.34.596-.412.284-.084.534.008.694.07.313.119.495.343.592.585.079.2.1.416.114.556l.002.022.082.815c.257-.122.494-.317.714-.578.357-.423.644-.985.867-1.57a11.183 11.183 0 0 0 .565-2.117l.022-.142.005-.036.001-.008v-.002a.5.5 0 0 1 .255-.373c.392-.216.86-.483 1.375-.776.819-.466 1.754-.998 2.683-1.5 1.517-.82 3.1-1.607 4.296-1.973a.5.5 0 0 1 .097-.02ZM13.384 5.23c-.023.136-.057.32-.104.537-.1.467-.262 1.098-.507 1.74-.244.64-.58 1.318-1.038 1.86-.462.547-1.077.986-1.868 1.065a.5.5 0 0 1-.547-.448l-.14-1.4a3.135 3.135 0 0 0-.024-.198.555.555 0 0 0-.034-.125 1.688 1.688 0 0 0-.083-.03 2.286 2.286 0 0 0-.162.148c-1.024 1.001-2.348 2.873-2.936 4.861-.56 1.892-.434 3.79 1.124 5.209l7.3-8.632a.5.5 0 0 1 .764.645L7.91 19c.67.263 1.56.29 2.629-.084 1.457-.509 3.215-1.757 5.059-4.096l.005-.007c1.428-1.744 2.872-4.416 4.011-6.99 1.124-2.54 1.917-4.912 2.11-6.135a1.536 1.536 0 0 0-.036-.243.683.683 0 0 0-.066-.156.726.726 0 0 0-.344-.088c-1.085.34-2.564 1.072-4.059 1.88a137.32 137.32 0 0 0-2.636 1.473c-.431.246-.835.475-1.2.678Z" fill="#18303F"/></g></svg>