<svg fill="none" height="25" viewBox="0 0 25 25" width="25"><path clip-rule="evenodd" d="m4.5 1.49a2.5 2.5 0 0 0 -2.5 2.5.5.5 0 0 0 1 0 1.5 1.5 0 0 1 1.5-1.5h11a1.5 1.5 0 0 1 1.5 1.5.5.5 0 0 0 1 0 2.5 2.5 0 0 0 -2.5-2.5zm14.5 1a.5.5 0 0 0 0 1 3 3 0 1 1 0 6h-.5a.5.5 0 0 0 0 1h.5a4 4 0 1 0 0-8zm-15.5 2.41a.5.5 0 0 1 .5-.5h12a.5.5 0 0 1 0 1h-12a.5.5 0 0 1 -.5-.5zm-.5 1.083a.5.5 0 0 0 -1 .012c.052 4.424 2.497 8.233 5.93 9.355v5.333c0 .371.248.626.5.734a.885.885 0 0 0 .846-.08l2.442-1.668a.793.793 0 0 0 .353-.654v-3.665c3.433-1.123 5.877-4.93 5.929-9.354a.5.5 0 0 0 -1-.012c-.05 4.261-2.477 7.693-5.557 8.51a.5.5 0 0 0 -.372.482v3.925l-2.14 1.461v-5.384a.5.5 0 0 0 -.372-.484c-3.08-.816-5.509-4.248-5.559-8.51zm5.988 17.027a.5.5 0 1 1 -1 0 .5.5 0 0 1 1 0z" fill="#18303f" fill-rule="evenodd"/></svg>