<svg fill="none" height="25" viewBox="0 0 25 25" width="25"><path d="m12.5 24c6.351 0 11.5-5.149 11.5-11.5s-5.149-11.5-11.5-11.5-11.5 5.149-11.5 11.5 5.149 11.5 11.5 11.5z" fill="#f28102"/><path clip-rule="evenodd" d="m9.085 3.885a.407.407 0 1 0 0-.815.407.407 0 0 0 0 .815zm.748-.165a.5.5 0 0 1 .628-.324c3.988 1.273 6.874 4.805 7.354 9.059.019.163.033.375.044.59a8.976 8.976 0 0 0 .837-.44.5.5 0 1 1 .51.86 10.134 10.134 0 0 1 -1.65.787.5.5 0 0 1 -.671-.462c-.006-.344-.028-.91-.063-1.223-.437-3.87-3.059-7.067-6.665-8.219a.5.5 0 0 1 -.324-.628zm.28.903a.5.5 0 0 0 -.942.338 7.86 7.86 0 0 1 .474 2.66c0 .938-.18 1.883-.51 2.799a7.435 7.435 0 0 1 -.515-.91.5.5 0 0 0 -.903.43 8.938 8.938 0 0 0 1.155 1.806.5.5 0 0 0 .842-.105c.59-1.272.931-2.64.931-4.02 0-1.052-.196-2.06-.533-2.998zm-3.04 4.562a.5.5 0 0 1 .064.704c-1.049 1.264-1.638 3.299-1.64 5.019a7.137 7.137 0 0 0 4.073 6.201c-.492-.625-.73-1.403-.73-2.219 0-2.303 1.258-4.391 3.18-5.582a.5.5 0 1 1 .527.85c-1.65 1.022-2.708 2.8-2.708 4.732 0 .77.275 1.436.796 1.896a2.71 2.71 0 0 0 2.002.848c.015 0 .03 0 .046.002.716.065 1.373-.189 1.92-.735a3.047 3.047 0 0 0 .753-2.044 2.51 2.51 0 0 0 -1.09-2.245c-.221.443-.548.75-.845.975a.5.5 0 0 1 -.736-.153c-.504-.888-.58-1.896-.33-2.818a.5.5 0 1 1 .965.261c-.127.47-.14.957-.023 1.42.055-.086.102-.179.138-.28a.599.599 0 0 1 .11-.244.501.501 0 0 1 .46-.301h.16a.5.5 0 0 1 .226.053c1.298.654 2.05 1.97 1.964 3.382a4.024 4.024 0 0 1 -.6 2.107 7.29 7.29 0 0 0 3.945-6.502c0-.31-.015-.617-.052-.912a.5.5 0 1 1 .992-.122c.043.344.06.691.06 1.034 0 4.482-3.508 8.11-7.88 8.283h-.01a8.134 8.134 0 0 1 -8.313-7.878c0-1.894.636-4.178 1.871-5.667a.5.5 0 0 1 .704-.065zm13.317 3.13a.407.407 0 1 1 -.814 0 .407.407 0 0 1 .814 0zm-6.604.898a.407.407 0 1 1 -.814 0 .407.407 0 0 1 .815 0zm-6.066-4.247a.407.407 0 1 0 0-.815.407.407 0 0 0 0 .815zm4.78 16.034c6.904 0 12.5-5.596 12.5-12.5s-5.596-12.5-12.5-12.5-12.5 5.596-12.5 12.5 5.596 12.5 12.5 12.5zm0-1c6.351 0 11.5-5.149 11.5-11.5s-5.149-11.5-11.5-11.5-11.5 5.149-11.5 11.5 5.149 11.5 11.5 11.5z" fill="#18303f" fill-rule="evenodd"/></svg>