<svg width="25" height="25" viewBox="0 0 25 25" fill="none"><g id="fire_on"><path id="iconDefault" fill-rule="evenodd" clip-rule="evenodd" d="M8.685.945a.5.5 0 1 1-1 0 .5.5 0 0 1 1 0Zm1.156.009a.5.5 0 0 0-.304.952c4.472 1.428 7.72 5.393 8.262 10.188.044.39.071 1.09.078 1.513a.5.5 0 0 0 .672.462 11.95 11.95 0 0 0 2.007-.957.5.5 0 1 0-.51-.86 11.332 11.332 0 0 1-1.192.615 14.236 14.236 0 0 0-.061-.885C18.208 6.802 14.695 2.503 9.84.954Zm-1.14 1.135a.5.5 0 0 1 .639.301c.41 1.141.647 2.366.647 3.643 0 1.675-.415 3.34-1.132 4.89a.5.5 0 0 1-.842.104 10.86 10.86 0 0 1-1.404-2.196.5.5 0 0 1 .903-.43c.215.453.468.887.766 1.317.457-1.2.71-2.447.71-3.685a9.767 9.767 0 0 0-.59-3.305.5.5 0 0 1 .302-.64ZM5.705 8.746a.5.5 0 0 0-.77-.64c-1.495 1.803-2.27 4.58-2.27 6.887v.02a9.875 9.875 0 0 0 10.09 9.54h.01c5.309-.21 9.568-4.615 9.568-10.058 0-.417-.02-.84-.072-1.256a.5.5 0 1 0-.992.123c.045.368.064.748.064 1.133a9.062 9.062 0 0 1-5.288 8.27A4.837 4.837 0 0 0 17 19.889c.105-1.69-.795-3.263-2.35-4.047a.5.5 0 0 0-.225-.053h-.197a.5.5 0 0 0-.465.314.638.638 0 0 0-.124.272c-.078.217-.19.403-.326.566a3.52 3.52 0 0 1-.036-2.026.5.5 0 1 0-.965-.261c-.3 1.106-.208 2.313.394 3.374a.5.5 0 0 0 .737.153c.382-.29.8-.689 1.06-1.274A3.2 3.2 0 0 1 16 19.839l-.001.015V19.872c0 .964-.345 1.84-.954 2.547-.694.693-1.534 1.021-2.452.937a.494.494 0 0 0-.046-.002 3.44 3.44 0 0 1-2.533-1.07c-.668-.588-1.016-1.44-1.016-2.412 0-2.415 1.322-4.634 3.379-5.909a.5.5 0 0 0-.527-.85c-2.33 1.444-3.852 3.973-3.852 6.759 0 1.157.4 2.245 1.223 3.041a8.877 8.877 0 0 1-5.555-7.93c.002-2.132.73-4.659 2.04-6.237Zm15.862 3.552a.5.5 0 1 0 0-1 .5.5 0 0 0 0 1Zm-8.11 1.102a.5.5 0 1 0 0-1 .5.5 0 0 0 0 1ZM7.01 7.185a.5.5 0 1 1-1 0 .5.5 0 0 1 1 0Z" fill="#18303F"/></g></svg>