<svg fill="none" height="25" viewBox="0 0 25 25" width="25"><path clip-rule="evenodd" d="m9.176.945a.5.5 0 1 1 -1 0 .5.5 0 0 1 1 0zm.527.333a.5.5 0 0 1 .629-.325 12.93 12.93 0 0 1 7.34 6.015l4.884-4.884a.5.5 0 1 1 .708.707l-5.114 5.114c.581 1.264.97 2.636 1.133 4.077.027.24.048.567.062.885a11.337 11.337 0 0 0 1.19-.615.5.5 0 0 1 .511.86 12.278 12.278 0 0 1 -2.006.957.5.5 0 0 1 -.672-.462 19.693 19.693 0 0 0 -.079-1.513 12.336 12.336 0 0 0 -.897-3.431l-4.185 4.185 6.937 6.937a9.09 9.09 0 0 0 1.68-5.29c0-.385-.019-.765-.064-1.133a.5.5 0 0 1 .992-.123c.052.417.073.839.073 1.256 0 2.255-.731 4.332-1.965 6.005l3.112 3.113a.5.5 0 1 1 -.707.707l-3.04-3.041a9.902 9.902 0 0 1 -6.968 3.273h-.01a9.872 9.872 0 0 1 -7.98-3.764l-3.532 3.532a.5.5 0 0 1 -.707-.707l3.653-3.654a9.932 9.932 0 0 1 -1.525-4.966c0-2.306.775-5.084 2.271-6.886a.5.5 0 0 1 .77.639c-1.31 1.578-2.039 4.105-2.04 6.237a8.945 8.945 0 0 0 1.251 4.25l6.385-6.385-2.287-2.287c-.052.12-.106.241-.161.361a.5.5 0 0 1 -.842.105 10.86 10.86 0 0 1 -1.404-2.196.5.5 0 0 1 .104-.574l-5.467-5.466a.5.5 0 1 1 .707-.707l4.603 4.603a.5.5 0 0 1 .452.451l1.596 1.596a10 10 0 0 0 .384-2.701 9.767 9.767 0 0 0 -.59-3.305.5.5 0 0 1 .942-.338c.41 1.14.648 2.366.648 3.643 0 1.185-.208 2.364-.584 3.502l2.606 2.605 4.436-4.435a11.939 11.939 0 0 0 -6.909-5.799.5.5 0 0 1 -.324-.628zm-.66 15.734-3.064 3.063a8.862 8.862 0 0 0 3.732 2.838c-.823-.796-1.223-1.884-1.223-3.041 0-1 .196-1.965.555-2.86zm8.261 1.347 2.212 2.212a8.995 8.995 0 0 1 -2.98 2.195 4.837 4.837 0 0 0 .953-2.878 4.212 4.212 0 0 0 -.185-1.53zm-3.522-3.523.95.951h-.015a.5.5 0 0 0 -.464.315.652.652 0 0 0 -.112.218.588.588 0 0 0 -.012.054c-.079.217-.191.403-.326.566a3.521 3.521 0 0 1 -.036-2.026.507.507 0 0 0 .015-.078zm-.89-.89.34.34a.5.5 0 0 0 -.43.366c-.3 1.107-.208 2.314.394 3.375a.5.5 0 0 0 .736.153c.383-.29.8-.689 1.06-1.274a3.2 3.2 0 0 1 1.497 2.966c0 .964-.344 1.84-.953 2.546-.694.694-1.535 1.022-2.452.938a.497.497 0 0 0 -.046-.002 3.44 3.44 0 0 1 -2.534-1.07c-.667-.588-1.016-1.44-1.016-2.412 0-2.415 1.322-4.634 3.38-5.909a.48.48 0 0 0 .024-.016zm9.667-2.148a.5.5 0 1 1 -1 0 .5.5 0 0 1 1 0z" fill="#18303f" fill-rule="evenodd"/></svg>