<svg width="27" height="27" viewBox="0 0 27 27" fill="none"><path fill-rule="evenodd" clip-rule="evenodd" d="M23.916 1.295c.05.038.099.081.146.129.028.028.07.065.12.11l.023.02c.438.387 1.514 1.337 1.753 2.942.278 1.86-.555 4.426-4.06 7.946-.928.931-2.174 1.018-3.36.664-.906-.272-1.821-.809-2.638-1.488l-.855.86 1.549 1.555a.49.49 0 0 1-.695.691l-1.546-1.552-1.665 1.672 2.287 2.345a.49.49 0 1 1-.701.684l-2.278-2.334-1.55 1.557 1.604 1.61a.49.49 0 0 1-.695.692l-1.6-1.607-.89.892c.87 1.023 1.19 2.22 1.05 3.415-.15 1.3-.836 2.566-1.87 3.604-.185.186-.625.444-1.108.201-.112-.056-.312-.163-.431-.363a.712.712 0 0 1-.05-.624c.07-1.118-.402-2.254-1.27-3.127a.404.404 0 0 1-.036-.04c-.76-.954-1.9-1.435-3.15-1.338a.502.502 0 0 1-.038.001c-.421 0-.655-.235-.771-.352l-.01-.01a.481.481 0 0 1-.091-.127.79.79 0 0 1-.044-.658.988.988 0 0 1 .232-.33l.002-.002.01-.01c1.034-1.038 2.295-1.728 3.59-1.88A4.326 4.326 0 0 1 8.164 18l.9-.903-1.171-1.176a.49.49 0 0 1 .695-.692l1.168 1.173 1.557-1.563-2.341-2.4a.49.49 0 1 1 .7-.684l2.332 2.389 1.659-1.666-1.226-1.23a.49.49 0 0 1 .695-.693l1.222 1.228.824-.827c-.964-.974-1.754-2.161-2.102-3.336-.352-1.188-.266-2.438.66-3.369a.485.485 0 0 1 .184-.116l8.549-3.043.009-.003c.274-.092.637-.135.993-.025a.487.487 0 0 1 .446.232Zm-9.558 3.723 8.434-3.002a.853.853 0 0 1 .053-.015l-1.112 3.535a.49.49 0 1 0 .935.294l1.063-3.379c.463.43 1.095 1.1 1.258 2.19.209 1.402-.364 3.672-3.786 7.109-.587.59-1.411.707-2.383.416-.803-.24-1.657-.749-2.431-1.419a.485.485 0 0 0-.355-.325 8.562 8.562 0 0 1-.143-.14c-.893-.897-1.584-1.957-1.876-2.942-.278-.937-.182-1.737.343-2.322ZM2.188 19.42c1.452-.036 2.795.561 3.712 1.698 1.012 1.026 1.608 2.397 1.539 3.803.86-.897 1.387-1.932 1.503-2.935.119-1.022-.183-2.042-1.051-2.913-.867-.87-1.881-1.173-2.896-1.055-.955.112-1.941.6-2.807 1.402ZM18.195 7.342a.807.807 0 0 0 .566-.227l.002-.002.004-.004.01-.01v-.001a1.001 1.001 0 0 0 .099-.125.775.775 0 0 0 .135-.42v-.006a.695.695 0 0 0-.064-.321.736.736 0 0 0-.106-.153 1.841 1.841 0 0 0-.076-.079l-.005-.004a.479.479 0 0 0-.038-.035l-.01-.008a.85.85 0 0 0-.096-.074.767.767 0 0 0-.421-.137h-.006a.689.689 0 0 0-.322.066.68.68 0 0 0-.153.107 1.598 1.598 0 0 0-.078.075l-.005.005a.487.487 0 0 0-.038.043l-.003.004a.956.956 0 0 0-.073.096.765.765 0 0 0-.136.42v.007a.695.695 0 0 0 .065.321.666.666 0 0 0 .106.153c.018.021.04.044.06.063l.002.002a.797.797 0 0 0 .581.244Z" fill="#18303F" yggColor="fish_bone"/></svg>