<svg width="27" height="27" viewBox="0 0 27 27" fill="none"><g id="fish_bone"><path fill-rule="evenodd" clip-rule="evenodd" d="M23.916 1.295c.05.038.099.081.145.129l.12.11.023.02c.438.387 1.514 1.337 1.753 2.942.278 1.86-.555 4.426-4.06 7.946-.927.931-2.174 1.018-3.359.664-.907-.272-1.822-.809-2.639-1.488l-.854.86 1.548 1.555a.49.49 0 0 1-.694.691l-1.547-1.552-1.665 1.672 2.287 2.345a.49.49 0 1 1-.7.684l-2.279-2.334-1.55 1.557 1.604 1.61a.49.49 0 0 1-.694.692l-1.6-1.607-.89.892c.87 1.023 1.19 2.22 1.05 3.415-.15 1.3-.837 2.566-1.87 3.604-.186.186-.626.444-1.109.201-.112-.056-.312-.163-.43-.363a.712.712 0 0 1-.05-.624c.07-1.118-.403-2.254-1.27-3.127a.404.404 0 0 1-.037-.04C4.39 20.795 3.25 20.314 2 20.41a.502.502 0 0 1-.038.001c-.42 0-.655-.235-.77-.352l-.01-.01a.481.481 0 0 1-.092-.127.79.79 0 0 1-.044-.658c.066-.164.185-.283.233-.33l.001-.002.01-.01c1.034-1.038 2.295-1.728 3.591-1.88A4.326 4.326 0 0 1 8.162 18l.9-.903-1.17-1.176a.49.49 0 0 1 .694-.692l1.168 1.173 1.558-1.563-2.342-2.4a.49.49 0 1 1 .701-.684l2.332 2.389 1.659-1.666-1.227-1.23a.49.49 0 0 1 .695-.693l1.222 1.228.824-.827c-.964-.974-1.754-2.161-2.101-3.336-.352-1.188-.267-2.438.66-3.369a.485.485 0 0 1 .183-.116l8.55-3.043.009-.003a1.65 1.65 0 0 1 .992-.025.487.487 0 0 1 .447.232Zm-9.559 3.723 8.434-3.002a.853.853 0 0 1 .053-.015l-1.112 3.535a.49.49 0 0 0 .935.294l1.063-3.379c.463.43 1.096 1.1 1.258 2.19.21 1.402-.364 3.672-3.786 7.109-.587.59-1.41.707-2.383.416-.803-.24-1.656-.749-2.43-1.419a.486.486 0 0 0-.355-.325 8.556 8.556 0 0 1-.143-.14c-.893-.897-1.585-1.957-1.877-2.942-.277-.937-.182-1.737.343-2.322ZM2.187 19.42c1.452-.036 2.795.561 3.712 1.698 1.012 1.026 1.608 2.397 1.54 3.803.86-.897 1.386-1.932 1.502-2.935.12-1.022-.183-2.042-1.05-2.913-.868-.87-1.882-1.173-2.897-1.055-.955.112-1.94.6-2.807 1.402ZM18.194 7.342a.807.807 0 0 0 .566-.227h.001l.001-.002.004-.004.01-.01.002-.001.024-.028c.02-.023.046-.056.073-.097a.775.775 0 0 0 .135-.42l.001-.006a.695.695 0 0 0-.065-.321.736.736 0 0 0-.106-.153 1.841 1.841 0 0 0-.076-.079l-.005-.004a.479.479 0 0 0-.038-.035l-.01-.008a.85.85 0 0 0-.096-.074.767.767 0 0 0-.42-.137h-.007c-.034-.001-.18-.005-.322.066a.68.68 0 0 0-.153.107 1.598 1.598 0 0 0-.078.075l-.005.005a.487.487 0 0 0-.038.043l-.003.004a.956.956 0 0 0-.073.096.765.765 0 0 0-.136.42v.007a.695.695 0 0 0 .065.321.666.666 0 0 0 .106.153c.019.021.041.044.061.063l.001.002a.797.797 0 0 0 .581.244Z" fill="#18303F" yggColor="iconDefault"/></g></svg>