<svg width="25" height="25" viewBox="0 0 25 25" fill="none"><g yggColor="fishbone" clip-path="url(#clip0_149_2643)"><path yggColor="iconDefault" fill-rule="evenodd" clip-rule="evenodd" d="M22.916.295c.05.038.099.081.145.129l.12.11.023.02c.438.387 1.514 1.337 1.753 2.942.278 1.86-.555 4.426-4.06 7.946-.927.931-2.173 1.018-3.358.664-.908-.272-1.823-.809-2.64-1.488l-.854.86 1.549 1.555a.49.49 0 0 1-.695.691l-1.546-1.552-1.665 1.672 2.287 2.345a.49.49 0 1 1-.701.684l-2.278-2.334-1.55 1.557 1.604 1.61a.49.49 0 0 1-.696.692l-1.6-1.607-.888.892c.87 1.023 1.189 2.22 1.05 3.415-.15 1.3-.837 2.566-1.871 3.604-.185.186-.625.444-1.108.201-.112-.056-.312-.163-.431-.363a.712.712 0 0 1-.05-.624c.07-1.118-.402-2.254-1.27-3.127a.404.404 0 0 1-.036-.04c-.76-.954-1.9-1.435-3.15-1.338a.502.502 0 0 1-.038.001c-.421 0-.655-.235-.771-.352l-.01-.01a.481.481 0 0 1-.091-.127.79.79 0 0 1-.044-.658c.065-.164.184-.283.232-.33l.002-.002.01-.01c1.034-1.038 2.295-1.728 3.59-1.88A4.326 4.326 0 0 1 7.164 17l.9-.903-1.171-1.176a.49.49 0 0 1 .695-.692l1.168 1.173 1.556-1.563-2.34-2.4a.49.49 0 1 1 .7-.684l2.332 2.389 1.659-1.666-1.227-1.23a.49.49 0 0 1 .695-.693l1.222 1.228.825-.827c-.964-.974-1.755-2.161-2.102-3.336-.352-1.188-.266-2.438.66-3.369a.485.485 0 0 1 .184-.116L21.468.091l.009-.003c.274-.092.636-.135.992-.025a.487.487 0 0 1 .447.232Zm-9.559 3.723 8.434-3.002a.853.853 0 0 1 .053-.015l-1.111 3.535a.49.49 0 1 0 .934.294l1.063-3.379c.463.43 1.096 1.1 1.258 2.19.21 1.402-.363 3.672-3.785 7.109-.587.59-1.412.707-2.383.416-.803-.24-1.657-.749-2.431-1.419a.485.485 0 0 0-.355-.325 8.719 8.719 0 0 1-.143-.14c-.893-.897-1.585-1.957-1.877-2.942-.277-.937-.181-1.737.344-2.322ZM1.188 18.42c1.453-.036 2.796.561 3.713 1.698 1.012 1.026 1.608 2.397 1.539 3.803.86-.897 1.387-1.932 1.503-2.935.119-1.022-.183-2.042-1.051-2.913-.867-.87-1.881-1.173-2.896-1.055-.955.112-1.941.6-2.807 1.402ZM17.196 6.342a.807.807 0 0 0 .566-.227l.002-.002.003-.004.01-.01.002-.001.024-.028c.02-.023.047-.056.073-.097a.775.775 0 0 0 .136-.42v-.006a.695.695 0 0 0-.064-.321.736.736 0 0 0-.107-.153 1.841 1.841 0 0 0-.075-.079l-.006-.004a.479.479 0 0 0-.038-.035l-.01-.008a.85.85 0 0 0-.095-.074.767.767 0 0 0-.421-.137h-.006c-.035-.001-.182-.005-.323.066a.68.68 0 0 0-.152.107 1.598 1.598 0 0 0-.078.075l-.005.005a.487.487 0 0 0-.038.043l-.003.004a.956.956 0 0 0-.073.096.765.765 0 0 0-.136.42v.007a.695.695 0 0 0 .064.321.666.666 0 0 0 .107.153c.018.021.04.044.06.063l.002.002a.797.797 0 0 0 .581.244Z" fill="#18303F"/></g><defs><clipPath yggColor="clip0_149_2643"><path fill="#fff" d="M0 0h25v25H0z"/></clipPath></defs></svg>