<svg width="25" height="25" viewBox="0 0 25 25" fill="none"><g yggColor="flames"><path yggColor="iconDefault" fill-rule="evenodd" clip-rule="evenodd" d="M12.642 1.39a.499.499 0 0 0-.72-.6c-1.778 1.015-2.968 2.813-2.968 4.82 0 1.119.36 2.252 1.1 3.134 1.083 1.37 2.359 2.034 5.328 3.054l.006.002c2.023.666 3.607 2.248 3.607 4.223 0 .247-.004.397-.054.54a.5.5 0 0 0 .72.6c1.778-1.016 2.968-2.813 2.968-4.82a5.71 5.71 0 0 0-1.172-3.122c-.6-.787-1.352-1.301-2.22-1.714-.702-.334-1.506-.613-2.376-.916l-.573-.2c-2.503-.893-3.772-2.54-3.7-4.443V1.93c0-.246.004-.397.054-.539ZM9.954 5.61c0-1.28.61-2.491 1.632-3.367.064 2.323 1.727 4.148 4.367 5.09h.002l.598.21c.867.302 1.607.559 2.254.867.778.37 1.382.796 1.854 1.417v.001c.592.774.89 1.614.968 2.535-.006 1.276-.62 2.484-1.643 3.356-.154-2.408-2.116-4.153-4.282-4.868-2.95-1.013-3.978-1.602-4.87-2.732l-.01-.013c-.574-.682-.87-1.583-.87-2.497ZM6.06 8.436a.5.5 0 0 0-.72-.6c-1.778 1.016-2.968 2.814-2.968 4.82 0 1.12.36 2.252 1.1 3.134 1.083 1.371 2.359 2.035 5.328 3.055l.006.002c2.023.666 3.607 2.248 3.607 4.223 0 .246-.004.397-.054.54a.5.5 0 0 0 .72.599c1.778-1.015 2.968-2.813 2.968-4.82a5.71 5.71 0 0 0-1.172-3.122c-.6-.787-1.352-1.3-2.22-1.714-.702-.334-1.506-.613-2.376-.915a162.08 162.08 0 0 1-.573-.2c-2.503-.894-3.772-2.54-3.701-4.443v-.02c0-.246.005-.396.055-.539Zm-2.688 4.22c0-1.279.61-2.49 1.632-3.366.064 2.322 1.727 4.148 4.367 5.09h.002l.597.21c.868.301 1.607.558 2.255.867.778.37 1.382.795 1.854 1.416v.002c.592.773.89 1.613.968 2.535-.006 1.276-.62 2.484-1.643 3.355-.154-2.408-2.116-4.153-4.282-4.867-2.95-1.014-3.978-1.602-4.87-2.733l-.01-.012c-.574-.683-.87-1.583-.87-2.497Z" fill="#18303F"/></g></svg>