<svg width="25" height="25" viewBox="0 0 25 25" fill="none" xmlns="http://www.w3.org/2000/svg">
<g id="forbidden">
<path id="iconDefault" fill-rule="evenodd" clip-rule="evenodd" d="M6.91799 6.03408L18.9659 18.082C21.869 14.7263 21.727 9.6472 18.5399 6.4601C15.3528 3.273 10.2737 3.131 6.91799 6.03408ZM18.082 18.9659L6.03411 6.91797C3.13102 10.2737 3.27303 15.3527 6.46013 18.5398C9.64723 21.7269 14.7263 21.869 18.082 18.9659ZM5.57625 5.57622C9.40013 1.75234 15.5999 1.75234 19.4238 5.57622C23.2476 9.4001 23.2476 15.5998 19.4238 19.4237C15.5999 23.2476 9.40013 23.2476 5.57625 19.4237C1.75236 15.5998 1.75236 9.4001 5.57625 5.57622Z" fill="#18303F"/>
</g>
</svg>
