<svg width="15" height="15" viewBox="0 0 15 15" fill="none" xmlns="http://www.w3.org/2000/svg">
<path fill-rule="evenodd" clip-rule="evenodd" d="M4.1508 3.6205L11.3795 10.8492C13.1214 8.83582 13.0362 5.78837 11.1239 3.87611C9.21166 1.96385 6.16422 1.87865 4.1508 3.6205ZM10.8492 11.3796L3.62047 4.15083C1.87861 6.16425 1.96382 9.2117 3.87608 11.124C5.78834 13.0362 8.83578 13.1214 10.8492 11.3796ZM3.34575 3.34578C5.64008 1.05145 9.35992 1.05145 11.6543 3.34578C13.9486 5.64011 13.9486 9.35995 11.6543 11.6543C9.35992 13.9486 5.64008 13.9486 3.34575 11.6543C1.05142 9.35995 1.05142 5.64011 3.34575 3.34578Z" fill="#18303F"/>
</svg>
