<svg fill="none" height="25" viewBox="0 0 25 25" width="25"><path clip-rule="evenodd" d="m6.45 4.429a5.044 5.044 0 0 1 .81-1.54c.513-.595 1.178-.918 1.916-.918h1.9c.63 0 1.175.315 1.483.777a.591.591 0 0 1 -.013.614.422.422 0 0 0 -.039.082l-.478 1.283-.616.215-1.27-.427c.2-.344.295-.684.295-1.044a.5.5 0 0 0 -1 0c0 .239-.084.525-.478.967a.5.5 0 0 0 .214.807l2.083.7a.498.498 0 0 0 .324-.002l1-.35h.004l.01.003.006.006c-.125.312-.275.569-.518.787-.249.224-.63.438-1.266.597l-.006.001-1.605.421a.5.5 0 0 0 -.368.412l-1.395 9.58a.501.501 0 0 0 .86.414c1.974-2.093 4.057-4.047 6.188-5.272 2.105-1.21 4.196-1.674 6.258-.922 1.208.802 1.916 2.305 1.827 3.822v.028c0 1.586-.05 2.794-.426 3.763-.359.925-1.034 1.675-2.412 2.28-3.027 1.325-7.434 1.758-11.096 1.388-1.828-.185-3.428-.566-4.554-1.108-1.153-.555-1.65-1.19-1.65-1.823a.463.463 0 0 0 -.01-.098c-.02-.101-.02-.364.031-.82.05-.433.138-.985.26-1.625a76.466 76.466 0 0 1 1.033-4.545c.856-3.341 1.93-6.846 2.674-8.396a.596.596 0 0 0 .024-.058zm6.851.458a1.08 1.08 0 0 0 -.206-.156l.334-.9c.341-.61.22-1.251-.038-1.637a2.774 2.774 0 0 0 -2.316-1.224h-1.899c-1.06 0-1.995.474-2.68 1.274l-.012.013a6.051 6.051 0 0 0 -.973 1.825c-.792 1.663-1.879 5.236-2.728 8.551a77.629 77.629 0 0 0 -1.048 4.608c-.123.653-.217 1.231-.269 1.699-.048.418-.07.804-.027 1.076.023 1.211.986 2.087 2.215 2.678 1.271.612 3 1.011 4.888 1.202 3.775.382 8.367-.052 11.597-1.468 1.58-.692 2.473-1.62 2.943-2.834.452-1.166.493-2.555.493-4.11.104-1.859-.769-3.731-2.329-4.735a.508.508 0 0 0 -.095-.047c-2.459-.921-4.888-.333-7.159.972-1.859 1.069-3.653 2.64-5.336 4.334l1.124-7.718 1.282-.336c.748-.187 1.29-.463 1.69-.822.402-.362.626-.778.786-1.18a.976.976 0 0 0 -.237-1.066zm3.574 9.984a.5.5 0 0 0 0 1h.5v2.191l-1.277-.638a.499.499 0 1 0 -.447.894l1.991.996a.499.499 0 0 0 .465 0l1.991-.996a.5.5 0 0 0 -.447-.894l-1.276.638v-2.191h.5a.5.5 0 0 0 0-1h-.5v-1a.5.5 0 0 0 -1 0v1z" fill="#18303f" fill-rule="evenodd"/></svg>