<svg fill="none" height="25" viewBox="0 0 25 25" width="25"><path clip-rule="evenodd" d="m12.78 7.119a.583.583 0 1 0 0-1.166.583.583 0 0 0 0 1.166zm-1.079.693a.5.5 0 0 0 -.707-.707l-.457.456a3.083 3.083 0 0 0 0 4.36 2.083 2.083 0 0 1 0 2.945.5.5 0 0 0 .707.707 3.083 3.083 0 0 0 0-4.36 2.083 2.083 0 0 1 0-2.945zm-3.675 2.162a.5.5 0 0 0 -.707-.707 3.083 3.083 0 0 0 0 4.36 2.083 2.083 0 0 1 0 2.945.5.5 0 1 0 .707.707 3.083 3.083 0 0 0 0-4.36 2.083 2.083 0 0 1 0-2.945zm10.669-2.162a.5.5 0 0 0 -.708-.707l-.456.456a3.083 3.083 0 0 0 0 4.36 2.083 2.083 0 0 1 0 2.945.5.5 0 1 0 .707.707 3.083 3.083 0 0 0 0-4.36 2.083 2.083 0 0 1 0-2.945zm-3.676 2.162a.5.5 0 1 0 -.707-.707 3.083 3.083 0 0 0 0 4.36 2.083 2.083 0 0 1 0 2.945l-.507.507a.5.5 0 1 0 .707.707l.507-.507a3.083 3.083 0 0 0 0-4.36 2.083 2.083 0 0 1 0-2.945zm-7.995 8.49a.583.583 0 1 1 -1.165 0 .583.583 0 0 1 1.165 0z" fill="#18303f" fill-rule="evenodd"/></svg>