<svg width="25" height="25" viewBox="0 0 25 25" fill="none"><g id="futurehome"><path fill-rule="evenodd" clip-rule="evenodd" d="m20.738 6.266.052.05-.013.013c1.088.907 1.723 2.216 1.723 3.614v6.852c0 .73-.622 1.335-1.373 1.335s-1.373-.592-1.373-1.335V9.943c0-.755-.415-1.448-1.101-1.8l-5.168-2.708-.091-.063h-.04a1.984 1.984 0 0 0-1.709.012h-.039l-.09.038L6.347 8.13c-.673.365-1.1 1.045-1.1 1.8v7.847c0 1.121.945 2.04 2.098 2.04h10.142c.168 0 .298.139.298.29v1.058c0 .73-.609 1.335-1.373 1.335H7.358c-2.682 0-4.858-2.116-4.858-4.723V9.931c0-1.398.622-2.72 1.723-3.615l.065-.05.038-.025c.234-.19.48-.353.726-.479l5.168-2.708a5.037 5.037 0 0 1 3.666-.365c.324.088.648.214.933.365l5.168 2.708c.246.139.492.302.726.479l.025.025ZM20.093 19.8h1.07l-.013.013c.739 0 1.35.608 1.35 1.343 0 .736-.611 1.344-1.35 1.344-.739 0-1.35-.596-1.35-1.344v-1.064c0-.165.14-.292.293-.292Z" fill="#F9470B" yggColor="backgroundAccentDefault"/></g></svg>