<svg width="25" height="25" viewBox="0 0 25 25" fill="none"><path fill-rule="evenodd" clip-rule="evenodd" d="M19.954 5.769c.252.136.615.354.839.545 1.09.901 1.734 2.211 1.706 3.63v6.879c0 .737-.615 1.337-1.37 1.337-.756 0-1.371-.6-1.371-1.337V9.945a2.03 2.03 0 0 0-1.09-1.802l-5.315-2.757a2.067 2.067 0 0 0-1.707 0L6.332 8.143a2.028 2.028 0 0 0-1.09 1.802v7.833c0 1.12.95 2.047 2.097 2.047h10.125c.14 0 .28.11.28.273v1.065c0 .736-.615 1.337-1.37 1.337H7.338c-2.657 0-4.839-2.102-4.839-4.722V9.945c0-1.42.615-2.73 1.706-3.63a7.13 7.13 0 0 1 .84-.546l5.174-2.703c.28-.163.587-.3.923-.382a5.19 5.19 0 0 1 2.741 0l.109.039c.277.097.567.199.814.343l5.147 2.703Zm-.412 13.556h1.09c.754 0 1.369.6 1.369 1.338C22 21.4 21.386 22 20.63 22c-.753 0-1.368-.6-1.368-1.337v-1.065c0-.136.112-.273.28-.273Z" fill="#18303F" yggColor="futurehome"/></svg>