<svg width="25" height="25" viewBox="0 0 25 25" fill="none"><path fill-rule="evenodd" clip-rule="evenodd" d="M16.18 4.077a8.48 8.48 0 0 0-3.676-.751 8.473 8.473 0 0 0-3.675.711.363.363 0 0 0-.164.043L3.192 7.004l-.006.004a.845.845 0 0 0-.435.772v1.147a.84.84 0 0 0 .048.327.372.372 0 0 0-.046.179v11.485H1.144a.367.367 0 0 0 0 .735h1.95a.356.356 0 0 0 .053 0h2.277a.928.928 0 0 0 .217.026.37.37 0 0 0 .136-.026h13.454a.37.37 0 0 0 .136.026.928.928 0 0 0 .217-.026H21.7a.368.368 0 0 0 .092-.012.367.367 0 0 0 .463-.355V9.433a.36.36 0 0 0-.046-.179.82.82 0 0 0 .045-.33V7.78a.847.847 0 0 0-.435-.772l-.008-.005L16.34 4.12a.372.372 0 0 0-.16-.042Zm5.34 5.72a.38.38 0 0 1-.039.003H3.524c-.012 0-.024 0-.036-.002v11.12h1.296V20.9a.35.35 0 0 1 0-.016V13.21c0-.229.104-.436.27-.58a.899.899 0 0 1 .587-.214h13.726c.212 0 .424.072.588.215.165.143.27.35.27.579v7.69a.3.3 0 0 0 0 .017h1.295V9.798ZM9.058 4.74a7.743 7.743 0 0 1 3.453-.68 7.739 7.739 0 0 1 3.432.718.37.37 0 0 0 .132.033l5.387 2.84c.018.01.033.025.043.043a.12.12 0 0 1 .014.062v1.183l.001.033a.086.086 0 0 1-.065.092h-17.9a.101.101 0 0 1-.048-.031.099.099 0 0 1-.022-.068l.001-.027V7.756a.12.12 0 0 1 .014-.062.123.123 0 0 1 .043-.044l5.388-2.879a.368.368 0 0 0 .127-.031ZM6.99 11.384c0-.203.165-.367.368-.367h9.585a.368.368 0 1 1 0 .735H7.357a.368.368 0 0 1-.368-.368Zm11.234.368a.367.367 0 1 0 0-.734.367.367 0 0 0 0 .734Zm6 9.534a.368.368 0 1 1-.736 0 .368.368 0 0 1 .736 0Z" fill="#18303F" yggColor="garage_open"/></svg>