<svg width="25" height="25" viewBox="0 0 25 25" fill="none"><g id="garage_open"><path id="iconDefault" fill-rule="evenodd" clip-rule="evenodd" d="M16.179 4.077a8.48 8.48 0 0 0-3.675-.751 8.473 8.473 0 0 0-3.675.711.363.363 0 0 0-.164.043L3.192 7.004l-.006.004a.845.845 0 0 0-.435.772v1.147a.84.84 0 0 0 .048.327.372.372 0 0 0-.046.179v11.485H1.144a.367.367 0 0 0 0 .735h1.95a.356.356 0 0 0 .053 0h2.277a.928.928 0 0 0 .217.026.37.37 0 0 0 .136-.026h13.454a.37.37 0 0 0 .136.026.928.928 0 0 0 .217-.026H21.7a.368.368 0 0 0 .092-.012.367.367 0 0 0 .463-.355V9.433a.36.36 0 0 0-.046-.179.82.82 0 0 0 .045-.33V7.78a.847.847 0 0 0-.435-.772l-.008-.005-5.472-2.884a.372.372 0 0 0-.16-.042Zm5.341 5.721a.38.38 0 0 1-.039.002H3.524c-.012 0-.024 0-.036-.002v11.12h1.296a.341.341 0 0 0-.001-.033V13.21c0-.229.105-.436.27-.58a.899.899 0 0 1 .588-.214h13.726c.212 0 .424.072.588.215.165.143.27.35.27.579v7.69l-.001.017h1.296V9.798ZM9.058 4.74a7.744 7.744 0 0 1 3.453-.68 7.739 7.739 0 0 1 3.432.718.37.37 0 0 0 .132.033l5.387 2.84c.018.01.033.025.043.043a.12.12 0 0 1 .014.062V8.939l.001.033a.086.086 0 0 1-.065.092h-17.9a.101.101 0 0 1-.048-.031.1.1 0 0 1-.022-.068.232.232 0 0 0 .001-.027V7.756a.12.12 0 0 1 .014-.062.123.123 0 0 1 .043-.044l5.388-2.879a.368.368 0 0 0 .127-.031Zm-2.069 6.644c0-.203.165-.367.368-.367h9.585a.368.368 0 1 1 0 .735H7.357a.368.368 0 0 1-.368-.368Zm11.234.368a.367.367 0 1 0 0-.734.367.367 0 0 0 0 .734Zm6 9.534a.368.368 0 1 1-.736 0 .368.368 0 0 1 .736 0Z" fill="#18303F"/></g></svg>