<svg fill="none" height="25" viewBox="0 0 25 25" width="25"><path clip-rule="evenodd" d="m16.179 4.077a8.48 8.48 0 0 0 -3.675-.751 8.473 8.473 0 0 0 -3.675.711.363.363 0 0 0 -.164.043l-5.473 2.924-.006.004a.845.845 0 0 0 -.435.772v1.147a.84.84 0 0 0 .048.327.372.372 0 0 0 -.046.179v11.485h-1.609a.367.367 0 0 0 0 .735h1.95a.356.356 0 0 0 .053 0h2.277a.928.928 0 0 0 .217.026.37.37 0 0 0 .136-.026h13.454a.37.37 0 0 0 .136.026.928.928 0 0 0 .217-.026h2.116a.368.368 0 0 0 .092-.012.367.367 0 0 0 .463-.355v-11.853a.36.36 0 0 0 -.046-.179.82.82 0 0 0 .045-.33v-1.144a.847.847 0 0 0 -.435-.772l-.008-.005-5.472-2.884a.372.372 0 0 0 -.16-.042zm5.341 5.721a.38.38 0 0 1 -.039.002h-17.957c-.012 0-.024 0-.036-.002v11.12h1.296a.341.341 0 0 0 -.001-.033v-7.675c0-.229.105-.436.27-.58a.899.899 0 0 1 .588-.214h13.726c.212 0 .424.072.588.215.165.143.27.35.27.579v7.69l-.001.017h1.296zm-12.462-5.058a7.744 7.744 0 0 1 3.453-.68 7.739 7.739 0 0 1 3.432.718.37.37 0 0 0 .132.033l5.387 2.84c.018.01.033.025.043.043a.12.12 0 0 1 .014.062v1.183l.001.033a.086.086 0 0 1 -.065.092h-17.9a.101.101 0 0 1 -.048-.031.1.1 0 0 1 -.022-.068.232.232 0 0 0 .001-.027v-1.182a.12.12 0 0 1 .014-.062.123.123 0 0 1 .043-.044l5.388-2.879a.368.368 0 0 0 .127-.031zm-2.069 6.644c0-.203.165-.367.368-.367h9.585a.368.368 0 1 1 0 .735h-9.585a.368.368 0 0 1 -.368-.368zm11.234.368a.367.367 0 1 0 0-.734.367.367 0 0 0 0 .734zm6 9.534a.368.368 0 1 1 -.736 0 .368.368 0 0 1 .736 0z" fill="#18303f" fill-rule="evenodd"/></svg>