<svg fill="none" height="25" viewBox="0 0 25 25" width="25"><path clip-rule="evenodd" d="m12.505 3.205a8.907 8.907 0 0 1 3.895.809l5.484 2.89a.984.984 0 0 1 .502.89v1.138a.956.956 0 0 1 -.036.326.499.499 0 0 1 .037.187v11.855a.5.5 0 0 1 -.527.499h-18.712a.613.613 0 0 1 -.054 0h-1.95a.5.5 0 0 1 0-1h1.477v-11.354a.5.5 0 0 1 .036-.186.964.964 0 0 1 -.039-.323v-1.142a.983.983 0 0 1 .503-.89l.009-.004 5.472-2.923.03-.015a8.908 8.908 0 0 1 3.873-.756zm-8.885 6.74h17.766v10.853h-.977v-8.884a.994.994 0 0 0 -.994-.994h-13.827a.994.994 0 0 0 -.994.994v8.884h-.974v-10.854zm5.437-5.08-5.44 2.907v1.173h17.768v-1.174l-5.44-2.867a7.91 7.91 0 0 0 -3.46-.7 7.912 7.912 0 0 0 -3.428.66zm10.344 15.933h-13.807v-8.878h13.816v8.878h-.008zm-12.331-7.282a.5.5 0 0 0 0 1h9.081a.5.5 0 1 0 0-1h-9.08zm1.188 2.976a.5.5 0 0 1 .5-.5h9.179a.5.5 0 1 1 0 1h-9.18a.5.5 0 0 1 -.5-.5zm-1.188 1.978a.5.5 0 0 0 0 1h10.866a.5.5 0 1 0 0-1zm10.867-3.953a.5.5 0 1 0 0-1 .5.5 0 0 0 0 1zm6.418 6.782a.5.5 0 1 1 -1 0 .5.5 0 0 1 1 0zm-17.285-4.307a.5.5 0 1 0 0-1 .5.5 0 0 0 0 1z" fill="#b35f02" fill-rule="evenodd"/></svg>