<svg fill="none" height="25" viewBox="0 0 25 25" width="25"><path clip-rule="evenodd" d="m16.175 4.09a8.477 8.477 0 0 0 -3.675-.752 8.478 8.478 0 0 0 -3.675.712.368.368 0 0 0 -.164.043l-5.473 2.924-.006.003a.852.852 0 0 0 -.435.773v1.147a.832.832 0 0 0 .048.326.366.366 0 0 0 -.046.18v11.484h-1.609a.368.368 0 1 0 0 .736h1.95a.398.398 0 0 0 .053 0h2.407a.914.914 0 0 0 .062 0h13.78a.392.392 0 0 0 .061 0h2.244a.371.371 0 0 0 .092-.012.367.367 0 0 0 .463-.355v-11.854a.366.366 0 0 0 -.046-.178.823.823 0 0 0 .045-.33v-1.144a.851.851 0 0 0 -.435-.773l-.008-.004-5.472-2.885a.368.368 0 0 0 -.16-.042zm5.341 5.72a.372.372 0 0 1 -.039.003h-17.957a.37.37 0 0 1 -.036-.002v11.12h1.25a.873.873 0 0 1 -.01-.126v-8.89a.861.861 0 0 1 .862-.862h13.83a.862.862 0 0 1 .86.862v8.89a.873.873 0 0 1 -.008.125h1.248zm-12.462-5.057a7.742 7.742 0 0 1 3.453-.678 7.742 7.742 0 0 1 3.432.716c.042.02.086.03.132.034l5.387 2.84a.116.116 0 0 1 .057.105v1.18l.001.034a.087.087 0 0 1 -.065.092h-17.901a.097.097 0 0 1 -.07-.1l.001-.026v-1.18a.116.116 0 0 1 .057-.106l5.388-2.879a.368.368 0 0 0 .127-.032zm10.376 16.177h-13.858a.126.126 0 0 1 -.112-.125v-8.89a.126.126 0 0 1 .126-.126h13.83a.126.126 0 0 1 .125.126v8.89a.127.127 0 0 1 -.112.125zm-12.36-7.282a.368.368 0 0 0 0 .736h9.585a.368.368 0 0 0 0-.736h-9.586zm.79 2.845c0-.203.164-.367.367-.367h9.708a.368.368 0 0 1 0 .735h-9.709a.368.368 0 0 1 -.367-.368zm-1.16 2.477c0-.203.164-.368.367-.368h10.863a.368.368 0 1 1 0 .735h-10.864a.368.368 0 0 1 -.368-.367zm11.603-4.954a.368.368 0 1 1 -.735 0 .368.368 0 0 1 .735 0zm-11.246 2.844a.368.368 0 1 0 0-.735.368.368 0 0 0 0 .735zm17.162 4.438a.368.368 0 1 1 -.736 0 .368.368 0 0 1 .736 0z" fill="#18303f" fill-rule="evenodd"/></svg>