<svg width="25" height="25" viewBox="0 0 25 25" fill="none"><g id="gas"><path fill-rule="evenodd" clip-rule="evenodd" d="M8.108 2.337A5.963 5.963 0 0 1 12.501.405c1.691 0 3.293.725 4.393 1.932.506-.29 1.079-.432 1.707-.432 1.8 0 3.339 1.275 3.57 3.038.792.129 1.544.58 1.963 1.313a2.855 2.855 0 0 1 0 2.797c-.502.878-1.482 1.352-2.434 1.352H19a.5.5 0 0 1 0-1h2.7c.648 0 1.268-.326 1.566-.848a1.857 1.857 0 0 0 0-1.805c-.298-.522-.918-.847-1.565-.847a.5.5 0 0 1-.5-.5c0-1.403-1.155-2.5-2.6-2.5-.598 0-1.085.168-1.488.49a.5.5 0 0 1-.709-.086 4.95 4.95 0 0 0-3.903-1.904 4.95 4.95 0 0 0-3.904 1.904.5.5 0 0 1-.709.086c-.402-.322-.889-.49-1.487-.49-1.419 0-2.516 1.077-2.601 2.53a.5.5 0 0 1-.499.47c-.648 0-1.269.326-1.567.847a1.857 1.857 0 0 0 0 1.805c.298.522.918.848 1.566.848H6a.5.5 0 0 1 0 1H3.3c-.952 0-1.932-.474-2.434-1.352a2.855 2.855 0 0 1 0-2.797c.423-.74 1.186-1.192 1.985-1.316.296-1.735 1.719-3.035 3.55-3.035.628 0 1.201.142 1.707.432ZM9 8.905a.5.5 0 0 1 .5.5v2.5a.5.5 0 0 1-1 0v-2.5a.5.5 0 0 1 .5-.5Zm3.5 0a.5.5 0 0 1 .5.5v1.5a.5.5 0 0 1-1 0v-1.5a.5.5 0 0 1 .5-.5Zm3.5 0a.5.5 0 0 1 .5.5v2.5a.5.5 0 0 1-1 0v-2.5a.5.5 0 0 1 .5-.5Zm-5.92 4.5c.616-.617 1.562-1 2.42-1 .891 0 1.746.408 2.4 1h1.6c1.376 0 2.5 1.124 2.5 2.5s-1.124 2.5-2.5 2.5a.5.5 0 0 1 0-1c.824 0 1.5-.676 1.5-1.5s-.676-1.5-1.5-1.5h-1.8a.501.501 0 0 1-.354-.147c-.529-.53-1.209-.853-1.846-.853-.662 0-1.417.342-1.816.82a.5.5 0 0 1-.384.18H8.5c-.824 0-1.5.676-1.5 1.5s.676 1.5 1.5 1.5a.5.5 0 0 1 0 1 2.506 2.506 0 0 1-2.5-2.5c0-1.376 1.124-2.5 2.5-2.5h1.58ZM9 19.487a.5.5 0 0 1 .5.5c0 3.027-1.878 4.5-3.5 4.5a.5.5 0 0 1 0-1c.978 0 2.5-.928 2.5-3.5a.5.5 0 0 1 .5-.5Zm7 0a.5.5 0 0 1 .5.5c0 1.828.776 2.824 1.551 3.244a.501.501 0 0 1-.477.88c-1.144-.621-2.074-1.986-2.074-4.124a.5.5 0 0 1 .5-.5Zm-3.5-.73a.5.5 0 0 1 .5.5v4.73a.5.5 0 0 1-1 0v-4.73a.5.5 0 0 1 .5-.5ZM13 7.405a.5.5 0 1 1-1 0 .5.5 0 0 1 1 0Zm0 10a.5.5 0 1 1-1 0 .5.5 0 0 1 1 0Zm7 6.69a.5.5 0 1 1-1 0 .5.5 0 0 1 1 0Z" fill="#18303F" yggColor="iconDefault"/></g></svg>