<svg width="25" height="25" viewBox="0 0 25 25" fill="none"><g yggColor="gas_mask_on"><path yggColor="iconDefault" fill-rule="evenodd" clip-rule="evenodd" d="M18.431 17.008c-.31.396-.65.791-.849 1.001a2.992 2.992 0 0 1-.873 1.926l-2.12 2.12a3 3 0 0 1-4.243 0l-2.12-2.12a2.985 2.985 0 0 1-.876-1.999 16.488 16.488 0 0 1-.782-.928 9.507 9.507 0 0 1-.487-.677 3.319 3.319 0 0 1-.181-.314 1.511 1.511 0 0 1-.086-.209c-.468-.694-.819-1.67-1.055-2.646-.248-1.024-.384-2.105-.384-2.971a8.125 8.125 0 0 1 16.25 0c0 .866-.136 1.947-.384 2.97-.237.977-.588 1.953-1.056 2.647a1.4 1.4 0 0 1-.085.21 3.13 3.13 0 0 1-.182.313 9.2 9.2 0 0 1-.487.677ZM5.375 10.19a7.125 7.125 0 0 1 14.25 0c0 .775-.124 1.776-.356 2.735-.235.967-.567 1.837-.954 2.383a.483.483 0 0 0-.085.205l-.001.001a.511.511 0 0 1-.026.06 2.62 2.62 0 0 1-.126.216 8.618 8.618 0 0 1-.434.601c-.087.112-.176.221-.262.326a2.98 2.98 0 0 0-.672-1.025l-2.12-2.12a3 3 0 0 0-4.243 0l-2.12 2.12a2.994 2.994 0 0 0-.651.972c-.072-.088-.146-.18-.218-.273a8.3 8.3 0 0 1-.434-.6 2.147 2.147 0 0 1-.149-.268l-.004-.009v-.001a.51.51 0 0 0-.085-.205c-.388-.546-.72-1.416-.954-2.383-.233-.959-.356-1.96-.356-2.735ZM8.933 16.4l2.12-2.12a2 2 0 0 1 2.829 0l2.12 2.12a2 2 0 0 1 0 2.828l-2.12 2.12a2 2 0 0 1-2.829 0l-2.12-2.12a2 2 0 0 1 0-2.828ZM6.46 10.566c0-1.343 1.157-2.5 2.5-2.5s2.5 1.157 2.5 2.5c0 1.342-1.157 2.5-2.5 2.5s-2.5-1.158-2.5-2.5Zm2.5-1.5c-.79 0-1.5.71-1.5 1.5s.71 1.5 1.5 1.5c.791 0 1.5-.71 1.5-1.5s-.709-1.5-1.5-1.5Zm4.5 1.5c0-1.343 1.157-2.5 2.5-2.5s2.5 1.157 2.5 2.5c0 1.342-1.157 2.5-2.5 2.5s-2.5-1.158-2.5-2.5Zm2.5-1.5c-.79 0-1.5.71-1.5 1.5s.71 1.5 1.5 1.5c.791 0 1.5-.71 1.5-1.5s-.709-1.5-1.5-1.5Zm-4.638 7.16a.588.588 0 1 0 0-1.176.588.588 0 0 0 0 1.176Zm-.588 1.587a.588.588 0 1 1-1.176 0 .588.588 0 0 1 1.176 0Zm2.352 0a.589.589 0 1 1-1.177 0 .589.589 0 0 1 1.177 0Zm1.176-2.175a.589.589 0 1 1-1.178-.002.589.589 0 0 1 1.178.002Zm.587 2.763a.588.588 0 1 0 0-1.175.588.588 0 0 0 0 1.175Zm-.587 1.483a.589.589 0 1 1-1.177-.002.589.589 0 0 1 1.177.002Zm-2.94.588a.588.588 0 1 0 0-1.176.588.588 0 0 0 0 1.176Z" fill="#18303F"/></g></svg>