<svg width="25" height="25" viewBox="0 0 25 25" fill="none"><g id="gas_mask_off"><path fill-rule="evenodd" clip-rule="evenodd" d="M17.576 16.632c.199-.21.539-.605.849-1.002.177-.227.35-.464.488-.676.068-.106.13-.213.18-.314a1.4 1.4 0 0 0 .086-.21c.468-.694.819-1.67 1.056-2.646.248-1.024.384-2.104.384-2.97a8.104 8.104 0 0 0-.56-2.972l3.205-3.205a.5.5 0 0 0-.707-.708l-2.951 2.952A8.123 8.123 0 0 0 12.493.688a8.123 8.123 0 0 0-7.107 4.184L2.444 1.93a.501.501 0 0 0-.708.708l3.197 3.196a8.104 8.104 0 0 0-.564 2.98c0 .867.136 1.947.384 2.971.237.977.587 1.952 1.055 2.646.025.08.057.151.086.21.05.1.113.208.18.314.137.212.312.45.489.676.276.355.578.708.78.929a3 3 0 0 0 .067.517l-6.382 6.382a.5.5 0 0 0 .707.707l6.092-6.091c.112.17.243.333.393.484l2.12 2.12a3 3 0 0 0 4.243 0l2.12-2.12c.164-.164.306-.343.424-.531l6.138 6.138a.5.5 0 0 0 .707-.707l-6.446-6.445c.025-.126.041-.253.05-.381Zm-1.037-.607a1.992 1.992 0 0 0-.543-1.003l-2.12-2.12a1.999 1.999 0 0 0-.508-.37l-.161.161 3.332 3.332Zm-3.438-4.64a3.016 3.016 0 0 0-1.215-.013l-.842-.842a2.44 2.44 0 0 0 .41-1.342c0-1.343-1.157-2.5-2.5-2.5-.487 0-.95.152-1.341.41L6.127 5.613a7.125 7.125 0 0 1 6.367-3.924c2.787 0 5.2 1.6 6.371 3.933L17.35 7.136a2.447 2.447 0 0 0-1.396-.448c-1.342 0-2.5 1.157-2.5 2.5 0 .51.167.993.448 1.396l-.8.8Zm.998.416c.171.112.333.243.484.394l2.12 2.12c.302.302.526.652.673 1.025.085-.104.174-.214.26-.325.168-.215.322-.425.435-.601a2.36 2.36 0 0 0 .126-.217.511.511 0 0 0 .026-.06.483.483 0 0 1 .086-.205c.387-.546.719-1.416.954-2.383.232-.959.356-1.96.356-2.736 0-.764-.12-1.5-.343-2.189l-1.228 1.229c.255.39.406.85.406 1.335 0 1.343-1.157 2.5-2.5 2.5-.484 0-.945-.15-1.336-.406l-.52.52Zm1.252-1.252c.188.089.392.14.603.14.791 0 1.5-.71 1.5-1.5 0-.211-.05-.416-.14-.604l-1.963 1.964Zm1.274-2.687a1.42 1.42 0 0 0-.671-.174c-.79 0-1.5.71-1.5 1.5 0 .237.063.466.173.67l1.998-1.996ZM5.715 6.615a7.12 7.12 0 0 0-.346 2.198c0 .776.123 1.777.356 2.736.234.967.566 1.837.954 2.383a.51.51 0 0 1 .085.204v.002a.511.511 0 0 0 .027.059c.027.056.069.129.126.217a8.3 8.3 0 0 0 .434.6c.072.094.146.186.218.274a3.01 3.01 0 0 1 .65-.973l2.122-2.12c.164-.164.342-.305.53-.423l-.526-.527a2.446 2.446 0 0 1-1.391.443c-1.342 0-2.5-1.157-2.5-2.5 0-.507.165-.988.444-1.39L5.715 6.615Zm1.909 1.91c-.108.203-.17.43-.17.663 0 .79.71 1.5 1.5 1.5.234 0 .46-.062.664-.17L7.624 8.524Zm2.688 1.273c.09-.19.142-.397.142-.61 0-.79-.709-1.5-1.5-1.5-.213 0-.42.052-.61.143l1.968 1.967Zm1.295 2.71.186.185-3.427 3.427c.064-.402.251-.788.56-1.098l2.122-2.12a2 2 0 0 1 .56-.395Zm4.784 4.783-.971-.971a.588.588 0 1 1-.46-.46l-1.06-1.06a.589.589 0 0 1-.773-.773L12.5 13.4l-.639.64a.588.588 0 0 1-.766.766l-1.05 1.05a.588.588 0 1 1-.485.485l-1.002 1.002c.093.183.216.355.369.508l2.12 2.12a2 2 0 0 0 2.829 0l2.12-2.12c.167-.168.299-.358.395-.56Zm-3.9-.267a.588.588 0 1 0 .001-1.176.588.588 0 0 0 0 1.176Zm1.177 2.07a.589.589 0 1 0-.001-1.177.589.589 0 0 0 .001 1.177Zm-1.764-.588a.588.588 0 1 1-1.176 0 .588.588 0 0 1 1.176 0Z" fill="#18303F" yggColor="iconDefault"/></g></svg>