<svg fill="none" height="25" viewBox="0 0 25 25" width="25"><path clip-rule="evenodd" d="m1.153 21.027v-7.185a1.519 1.519 0 0 1 -.492-.21 1.064 1.064 0 0 1 -.493-.894v-1.983c0-.387.202-.699.493-.894a1.52 1.52 0 0 1 .492-.21v-1.934c0-1.742.34-3.125.936-4.09.604-.978 1.483-1.538 2.497-1.538s1.894.56 2.497 1.537c.242.391.441.85.593 1.374h9.649c.152-.524.351-.983.593-1.374.603-.977 1.483-1.537 2.496-1.537 1.014 0 1.894.56 2.497 1.537.597.966.937 2.349.937 4.091v1.934c.178.043.345.112.491.21.291.195.493.507.493.894v1.982c0 .388-.202.7-.493.895a1.517 1.517 0 0 1 -.491.21v7.185c0 .159-.024.336-.1.493-.063.133-.21.332-.466.38l-5.447 1.98a.498.498 0 0 1 -.17.03c-.33 0-.512-.238-.584-.39a1.154 1.154 0 0 1 -.1-.493v-1.027h-8.961v1.027c0 .159-.024.336-.1.493-.073.152-.254.39-.584.39a.498.498 0 0 1 -.17-.03l-5.448-1.98c-.256-.048-.403-.247-.466-.38a1.153 1.153 0 0 1 -.1-.493zm4.931-17.095a.5.5 0 0 0 -.389.488v6.457a1.602 1.602 0 0 0 0 3.042v1.783a.5.5 0 1 0 1 0v-1.782c.115-.038.223-.088.325-.149v8.992l-.325-.118v-2.539a.5.5 0 0 0 -1 0v2.175l-1.402-.51v-2.665a.5.5 0 0 0 -1 0v2.301l-1.14-.414v-7.56a.506.506 0 0 0 0-.07v-3.233a.506.506 0 0 0 0-.07v-2.344c0-1.628.32-2.81.787-3.565.11-.18.23-.334.353-.466v11.016a.5.5 0 0 0 1 0v-11.5a.503.503 0 0 0 -.007-.086c.1-.018.2-.027.3-.027.537 0 1.064.255 1.498.843zm.936 7.093v-3.308c0-1.003-.122-1.837-.325-2.506v5.665c.115.038.223.088.325.149zm10.96-3.308c0-1.002.121-1.835.324-2.504v5.663a1.593 1.593 0 0 0 -.324.148zm2.424 4.681c0-.71-.461-1.311-1.1-1.521v-6.457a.5.5 0 0 0 -.389-.488c.435-.588.962-.843 1.498-.843.101 0 .201.009.3.027a.507.507 0 0 0 -.007.086v11.5a.5.5 0 0 0 1 0v-11.016c.124.131.243.286.354.466.467.756.787 1.937.787 3.565v2.334a.497.497 0 0 0 0 .088v3.215a.495.495 0 0 0 0 .088v7.551l-1.141.415v-2.302a.5.5 0 1 0 -1 0v2.665l-1.402.51v-2.175a.5.5 0 0 0 -1 0v2.539l-.324.118v-8.991c.101.06.21.11.324.148v1.782a.5.5 0 1 0 1 0v-1.782c.639-.21 1.1-.811 1.1-1.521zm-1.6-.601a.601.601 0 1 0 0 1.202.601.601 0 0 0 0-1.202zm-12.008.601a.601.601 0 1 0 -1.202 0 .601.601 0 0 0 1.202 0zm-3.024 5.037a.5.5 0 1 0 0-1 .5.5 0 0 0 0 1z" fill="#18303f" fill-rule="evenodd"/></svg>