<svg width="25" height="25" viewBox="0 0 25 25" fill="none"><g id="gate_open_unlocked"><path id="iconDefault" fill-rule="evenodd" clip-rule="evenodd" d="M1.153 6.717v1.934a1.518 1.518 0 0 0-.492.21 1.064 1.064 0 0 0-.493.894v1.982c0 .388.202.7.493.895.146.098.314.167.492.21v7.185c0 .159.024.336.1.493.063.133.21.332.466.38l5.446 1.98c.055.02.113.03.171.03.33 0 .511-.238.584-.39.075-.157.1-.334.1-.493V21h.976a3.4 3.4 0 0 0 .889 1.52c.588.588 1.399.987 2.269.987h4.1c.871 0 1.682-.399 2.269-.986.588-.588.987-1.399.987-2.269v-4.028c0-.898-.733-1.63-1.631-1.63h-2.663c.059-2.557.687-4.29 2.237-5.354v-.036h.013l.015.001a.5.5 0 0 0 .5-.5V6.717c0-1.002.122-1.835.324-2.504V8.72a.5.5 0 0 0 1 0v-6a.503.503 0 0 0-.033-.179 1.698 1.698 0 0 1 1.142-.451c.101 0 .201.009.3.027a.605.605 0 0 0-.007.086v6.61a.5.5 0 0 0 1 0V2.686c.124.131.243.286.354.466.467.756.787 1.937.787 3.565v2.334c-.002.014-.002.029-.002.044 0 .015 0 .03.002.044v.905a.5.5 0 0 0 .984.125v1.569a.5.5 0 0 0 1 0V9.755c0-.387-.202-.699-.493-.894a1.516 1.516 0 0 0-.491-.21V6.717c0-1.742-.34-3.125-.937-4.09-.603-.978-1.483-1.538-2.497-1.538-1.013 0-1.893.56-2.497 1.537-.241.391-.44.85-.592 1.374H7.676a5.53 5.53 0 0 0-.593-1.374C6.48 1.65 5.6 1.09 4.586 1.09c-1.014 0-1.893.56-2.497 1.537-.596.966-.936 2.349-.936 4.091Zm5.542-2.506c.203.669.325 1.503.325 2.506v3.308a1.6 1.6 0 0 0-.325-.149V4.211Zm-1 5.666v-7.22c0-.046.006-.09.017-.131a1.69 1.69 0 0 0-1.426-.41.602.602 0 0 1 .007.086v11.5a.5.5 0 0 1-1 0V2.686a2.894 2.894 0 0 0-.353.466c-.467.756-.787 1.937-.787 3.565V9.06a.416.416 0 0 1 0 .071v3.233a.416.416 0 0 1 0 .07v7.56l1.14.415v-2.302a.5.5 0 0 1 1 0v2.665l1.402.51v-2.175a.5.5 0 0 1 1 0v2.539l.325.118V12.77a1.6 1.6 0 0 1-.325.149v1.782a.5.5 0 0 1-1 0V12.92a1.602 1.602 0 0 1 0-3.042Zm1.102 1.521a.601.601 0 1 0-1.202 0 .601.601 0 0 0 1.202 0Zm3.101 4.826c0-.345.285-.63.631-.63h7.35c.346 0 .631.285.631.63v4.028c0 .564-.262 1.13-.694 1.562-.431.431-.998.693-1.562.693h-4.1c-.564 0-1.131-.262-1.562-.693-.432-.432-.694-.998-.694-1.562v-4.028Zm-5.625-.29a.5.5 0 1 1-.999.002.5.5 0 0 1 .999-.001Zm10.453 3.885a1.17 1.17 0 1 0-1 .002v.336a.5.5 0 0 0 1 0v-.338Zm-.502-1.228a.17.17 0 0 0-.012.34h.025a.17.17 0 0 0-.013-.34Zm9.124-4.31a.5.5 0 0 1 .5.5v5.246c0 .159-.024.336-.1.493a.668.668 0 0 1-.466.38l-2.697.98a.5.5 0 1 1-.341-.94l.463-.169v-2.665a.5.5 0 0 1 1 0v2.302l1.141-.415v-5.212a.5.5 0 0 1 .5-.5Zm-6.079-1.05c0-1.4 1.172-2.572 2.572-2.572.909 0 1.728.495 2.188 1.237a.5.5 0 0 0 .85-.527c-.63-1.016-1.76-1.71-3.038-1.71-1.952 0-3.572 1.62-3.572 3.572v.47a.5.5 0 0 0 1 0v-.47Zm5.826.369a.5.5 0 1 0 0-1 .5.5 0 0 0 0 1Z" fill="#18303F"/></g></svg>