<svg fill="none" height="25" viewBox="0 0 25 25" width="25"><path clip-rule="evenodd" d="m23.803 21.027v-7.187a1.52 1.52 0 0 0 .489-.21c.291-.194.493-.506.493-.893v-1.983c0-.387-.202-.699-.493-.894a1.52 1.52 0 0 0 -.489-.21v-1.932c0-3.595-2.653-6.628-6.006-6.628-2.41 0-4.459 1.567-5.42 3.783-.947-2.215-2.964-3.783-5.346-3.783-3.315 0-5.924 3.04-5.924 6.628v1.655a.5.5 0 0 0 1 0v-1.656c0-1.94.861-3.624 2.141-4.632v5.144a.5.5 0 0 0 1 0v-5.753a4.338 4.338 0 0 1 1.783-.387c.563 0 1.109.111 1.62.317l-.001.014v6.877a.5.5 0 0 0 1 0v-6.337c1.125.813 1.957 2.134 2.218 3.7a7.216 7.216 0 0 0 -.077 1.056v13.314a.5.5 0 0 0 .325.88.859.859 0 0 0 .259-.04c.083.027.171.04.26.04h10.324c.234 0 .459-.09.621-.271a.906.906 0 0 0 .223-.612zm-6.006-18.938c-.534 0-1.052.097-1.54.276a.493.493 0 0 1 .003.055v6.877a.5.5 0 0 1 -1 0v-6.423c-1.209.805-2.106 2.167-2.381 3.789.05.344.076.696.076 1.054v13.193h2.311a.533.533 0 0 1 -.006-.08v-2.724a.5.5 0 0 1 1 0v2.723a.429.429 0 0 1 -.007.08h3.415a.533.533 0 0 1 -.006-.08v-2.723a.5.5 0 0 1 1 0v2.723a.533.533 0 0 1 -.006.08h2.147v-7.448a.428.428 0 0 1 0-.125v-3.179a.428.428 0 0 1 0-.125v-2.315c0-1.92-.858-3.593-2.141-4.605v10.59a.5.5 0 0 1 -1 0v-11.203a4.476 4.476 0 0 0 -1.865-.41zm-2.037 14.113a.5.5 0 0 0 .5-.5v-1.782a1.602 1.602 0 1 0 -1 0v1.783a.5.5 0 0 0 .5.5zm-.001-4.405a.601.601 0 1 0 0 1.202.601.601 0 0 0 0-1.202zm3.921 4.138a.5.5 0 1 0 1 0 .5.5 0 0 0 -1 0zm-14.651 3.253a.484.484 0 0 0 -.035.182v.739a.5.5 0 0 0 1 0v-.739a.503.503 0 0 0 -.034-.183.68.68 0 0 0 -.466-1.18.682.682 0 0 0 -.465 1.18zm4.161-4.634a1.64 1.64 0 0 1 1.636 1.636v4.048c0 .874-.4 1.688-.99 2.278s-1.405.99-2.278.99h-4.12c-.874 0-1.689-.4-2.279-.99s-.99-1.404-.99-2.278v-4.048a1.64 1.64 0 0 1 1.636-1.636h.065v-1.488c0-1.98 1.644-3.625 3.625-3.625 1.98 0 3.624 1.644 3.624 3.625v1.488zm-.571 1a.54.54 0 0 0 .018 0h.553a.64.64 0 0 1 .636.636v4.048c0 .567-.263 1.137-.697 1.571s-1.004.698-1.571.698h-4.12c-.568 0-1.138-.264-1.572-.698-.433-.434-.697-1.004-.697-1.57v-4.05a.64.64 0 0 1 .636-.635zm-5.749-2.488v1.488h5.249v-1.488c0-1.428-1.196-2.625-2.624-2.625s-2.625 1.197-2.625 2.625z" fill="#18303f" fill-rule="evenodd"/></svg>