<svg fill="none" height="25" viewBox="0 0 25 25" width="25"><path clip-rule="evenodd" d="m7.156 2.089c.534 0 1.052.097 1.54.276a.493.493 0 0 0 -.003.055v6.877a.5.5 0 0 0 1 0v-6.423c1.209.805 2.106 2.167 2.381 3.789-.05.344-.076.696-.076 1.054v6.655a.5.5 0 0 0 .052.222h-1.521c-.898 0-1.631.732-1.631 1.63v4.028c0 .87.399 1.681.987 2.269.588.587 1.399.986 2.269.986h4.1c.871 0 1.682-.399 2.269-.986.588-.588.987-1.399.987-2.269v-4.028c0-.898-.733-1.63-1.631-1.63h-4.769a.487.487 0 0 0 .052-.222v-6.655c0-.358-.026-.711-.077-1.056.261-1.566 1.093-2.887 2.218-3.7v7.336a.5.5 0 0 0 1 0v-7.891a4.314 4.314 0 0 1 1.619-.317c.623 0 1.226.137 1.783.387v5.754a.5.5 0 0 0 1 0v-5.145c1.28 1.008 2.141 2.691 2.141 4.632v1.655a.5.5 0 0 0 1 0v-1.655c0-3.587-2.609-6.628-5.924-6.628-2.382 0-4.399 1.57-5.346 3.783-.961-2.216-3.009-3.783-5.42-3.783-3.353 0-6.006 3.033-6.006 6.628v1.935a1.52 1.52 0 0 0 -.489.209 1.064 1.064 0 0 0 -.493.894v1.982c0 .388.202.7.493.895.146.098.312.166.489.21v7.185c0 .213.065.436.223.612.162.18.388.27.622.27h5.806a.5.5 0 0 0 0-1h-2.516a.533.533 0 0 0 .006-.08v-2.723a.5.5 0 0 0 -1 0v2.723c0 .028.002.055.006.08h-2.147v-7.448a.428.428 0 0 0 0-.125v-3.179a.428.428 0 0 0 0-.125v-2.315c0-1.92.858-3.593 2.141-4.605v10.59a.5.5 0 0 0 1 0v-11.203a4.476 4.476 0 0 1 1.865-.41zm3.373 13.505a.634.634 0 0 0 -.631.63v4.028c0 .564.262 1.13.694 1.562.431.431.998.693 1.562.693h4.1c.564 0 1.131-.262 1.562-.693.432-.432.694-.998.694-1.562v-4.028a.634.634 0 0 0 -.631-.63zm4.197 4.225a1.17 1.17 0 1 0 -1 .002v.336a.5.5 0 0 0 1 0zm-.502-1.228a.17.17 0 0 0 -.012.34h.025a.17.17 0 0 0 -.013-.34zm-3.429-6.193a1.601 1.601 0 1 0 -3.202 0 1.601 1.601 0 0 0 3.202 0zm-1.601-.601a.601.601 0 1 1 0 1.202.601.601 0 0 1 0-1.202zm-4.421 4.638a.5.5 0 1 0 .001-1 .5.5 0 0 0 -.001 1zm12.496-3.204c0-1.4 1.172-2.572 2.572-2.572.909 0 1.728.495 2.188 1.237a.5.5 0 0 0 .85-.527c-.63-1.016-1.76-1.71-3.038-1.71-1.952 0-3.572 1.62-3.572 3.572v.47a.5.5 0 0 0 1 0zm5.826.369a.5.5 0 1 0 0-1 .5.5 0 0 0 0 1z" fill="#18303f" fill-rule="evenodd"/></svg>