<svg fill="none" height="25" viewBox="0 0 25 25" width="25"><path clip-rule="evenodd" d="m1.15 14.841v7.186c0 .213.065.436.223.612.162.18.388.27.622.27h10.323a.87.87 0 0 0 .26-.038c.083.026.17.039.26.039h10.169c.235 0 .46-.093.62-.274a.91.91 0 0 0 .219-.61v-7.184c.179-.043.346-.112.493-.21.291-.195.493-.507.493-.894v-1.983c0-.387-.202-.699-.493-.894a1.52 1.52 0 0 0 -.493-.21v-1.934c0-3.587-2.61-6.628-5.924-6.628-2.382 0-4.399 1.57-5.346 3.783-.961-2.216-3.01-3.783-5.42-3.783-3.353 0-6.006 3.033-6.006 6.628v1.935a1.517 1.517 0 0 0 -.489.209 1.064 1.064 0 0 0 -.493.894v1.982c0 .388.202.7.493.895.146.098.312.166.49.21zm7.546-11.476a4.447 4.447 0 0 0 -3.405.134v11.203a.5.5 0 0 1 -1 0v-10.59c-1.283 1.012-2.14 2.685-2.14 4.605v2.315a.512.512 0 0 1 0 .125v3.179a.512.512 0 0 1 0 .124v7.45h2.146a.508.508 0 0 1 -.006-.08v-2.724a.5.5 0 1 1 1 0v2.723a.497.497 0 0 1 -.006.08h3.415a.508.508 0 0 1 -.007-.08v-2.723a.5.5 0 0 1 1 0v2.723a.508.508 0 0 1 -.006.08h2.311v-13.191c0-.358.026-.71.076-1.054-.275-1.622-1.172-2.984-2.38-3.79v6.424a.5.5 0 1 1 -1 0v-6.878c0-.019 0-.037.002-.055zm4.466 18.545v-13.193c0-.358-.026-.711-.077-1.056.261-1.566 1.093-2.887 2.218-3.7v6.336a.5.5 0 1 0 1 0v-6.891a4.319 4.319 0 0 1 1.619-.317c.623 0 1.226.137 1.783.387v11.226a.5.5 0 0 0 1 0v-10.617c1.28 1.008 2.14 2.691 2.14 4.632v13.193h-2.145a.508.508 0 0 0 .006-.08v-2.724a.5.5 0 1 0 -1 0v2.723c0 .028.002.055.007.08h-3.416a.497.497 0 0 0 .007-.08v-2.723a.5.5 0 0 0 -1 0v2.723c0 .028.002.055.006.08h-2.147zm-3.969-4.708a.5.5 0 0 1 -.5-.5v-1.782a1.602 1.602 0 1 1 1 0v1.783a.5.5 0 0 1 -.5.5zm0-4.405a.601.601 0 1 1 0 1.202.601.601 0 0 1 0-1.202zm-3.92 4.138a.5.5 0 1 1 -1 0 .5.5 0 0 1 1 0zm10.03-.233a.5.5 0 1 0 1 0v-1.782a1.602 1.602 0 1 0 -1 0v1.783zm-.102-3.304a.601.601 0 1 1 1.203 0 .601.601 0 0 1 -1.203 0z" fill="#18303f" fill-rule="evenodd"/></svg>