<svg width="25" height="25" viewBox="0 0 25 25" fill="none"><g yggColor="gear"><path yggColor="iconDefault" fill-rule="evenodd" clip-rule="evenodd" d="M21.303 10.764a2.48 2.48 0 0 0 .661-.975c.43-1.838-.97-2.924-2.12-3.002a5.655 5.655 0 0 0-1.076.034c-.397.043-.649.07-.947-.155-.4-.304-.498-.768-.48-1.244.104-2.604-3.396-3.542-4.608-1.235-.391.744-1.4.876-1.97.26-1.768-1.915-4.906-.104-4.132 2.385.25.802-.37 1.61-1.209 1.576-2.604-.103-3.542 3.396-1.235 4.609.744.39.876 1.4.26 1.969-1.915 1.769-.104 4.906 2.385 4.132.802-.25 1.61.37 1.576 1.21-.103 2.604 3.396 3.541 4.609 1.234.39-.743 1.4-.876 1.969-.259 1.769 1.915 4.906.103 4.132-2.386-.25-.802.37-1.609 1.21-1.576 2.604.104 3.541-3.396 1.234-4.608a1.216 1.216 0 0 1-.259-1.97Zm-5.19-5.39c.05-1.295-1.689-1.761-2.291-.614a2.446 2.446 0 0 1-3.962.521C8.98 4.33 7.42 5.23 7.806 6.467a2.446 2.446 0 0 1-2.433 3.17c-1.294-.051-1.76 1.688-.613 2.291a2.446 2.446 0 0 1 .521 3.962c-.952.879-.051 2.438 1.186 2.054a2.446 2.446 0 0 1 3.17 2.432c-.051 1.295 1.688 1.76 2.291.614a2.446 2.446 0 0 1 3.962-.522c.879.952 2.438.052 2.054-1.186a2.446 2.446 0 0 1 2.432-3.17c1.295.052 1.76-1.688.614-2.29a2.446 2.446 0 0 1-.522-3.962c.952-.88.052-2.439-1.186-2.054a2.446 2.446 0 0 1-3.17-2.433Zm-.223 5.39a.5.5 0 1 0 0-1 .5.5 0 0 0 0 1Zm-2.933-1.107a3.204 3.204 0 1 0 3.071 2.287c-.092-.31 0-.66.274-.83.305-.19.711-.084.832.255a4.435 4.435 0 1 1-2.324-2.537c.322.148.396.555.188.842-.192.265-.554.329-.858.208a3.196 3.196 0 0 0-1.183-.225Z" fill="#18303F"/></g></svg>