<svg fill="none" height="25" viewBox="0 0 25 25" width="25"><path clip-rule="evenodd" d="m13.592 1.732c0 .18-.044.35-.122.5l2.54 3.224a1.09 1.09 0 0 1 1.115.57l4.314.065a1.092 1.092 0 1 1 .901 1.78l-1.5 4.271a1.09 1.09 0 0 1 -.014 1.46l1.502 3.988a1.091 1.091 0 1 1 -.919 1.74l-4.243.064a1.092 1.092 0 0 1 -1.219.584l-2.447 2.852a1.092 1.092 0 1 1 -1.986-.03l-2.448-2.81a1.096 1.096 0 0 1 -1.292-.595l-4.178-.064a1.092 1.092 0 1 1 -.929-1.74l1.51-4.007a1.086 1.086 0 0 1 .036-1.28l-1.559-4.434a1.092 1.092 0 1 1 .905-1.78l4.397-.067a1.091 1.091 0 0 1 1.044-.575l2.547-3.184a1.092 1.092 0 1 1 2.046-.532zm-.868 20.467a1.105 1.105 0 0 0 -.412-.007l-2.425-2.782h5.231l-2.394 2.79zm-.224-19.375c-.039 0-.078-.002-.116-.006l-2.526 3.158a.553.553 0 0 1 .02.035h5.297l-2.52-3.198c-.05.007-.103.01-.155.01zm-8.93 4.634 1.507 4.29 2.823-4.722-4.138.063c-.04.136-.106.262-.192.37zm.008 10.55c.075.097.135.206.175.324l4.067.062.022-.037-2.748-4.297h-.029zm11.6-10.997h-5.274a1.138 1.138 0 0 1 -.112.183l2.787 4.556a1.044 1.044 0 0 1 .196.006l2.498-4.58a1.11 1.11 0 0 1 -.097-.165zm.988.618-2.56 4.695c.016.031.031.064.045.097h5.372a1.2 1.2 0 0 1 .061-.117l-2.797-4.682c-.04.004-.08.007-.12.007zm.952-.566 2.8 4.686 1.51-4.296a1.084 1.084 0 0 1 -.189-.365l-4.1-.062c-.008.012-.014.025-.02.037zm-8.232.566a1.103 1.103 0 0 1 -.17-.02l-2.79 4.67c.035.045.068.092.097.142h5.611c.023-.057.052-.112.084-.163l-2.832-4.63zm-2.908 5.957 2.726 4.262a1.104 1.104 0 0 1 .18.005l2.868-4.381a1.02 1.02 0 0 1 -.034-.051h-5.646a1.036 1.036 0 0 1 -.094.165zm13.123-.132a.52.52 0 0 1 -.02-.033h-5.5l2.57 4.4h.035c.04 0 .08.002.118.006zm-1.953 4.94 4.103-.062a1.12 1.12 0 0 1 .17-.316l-1.502-3.985-2.78 4.347.01.017zm-1.87-.085-2.558-4.38a1.143 1.143 0 0 1 -.074.003l-2.928 4.47.004.007h5.495a.999.999 0 0 1 .06-.1z" fill="#18303f" fill-rule="evenodd"/></svg>