<svg fill="none" height="25" viewBox="0 0 25 25" width="25"><path clip-rule="evenodd" d="m13.592 1.732c0 .18-.044.35-.122.501l2.54 3.223a1.09 1.09 0 0 1 1.115.57l4.314.065a1.092 1.092 0 1 1 .901 1.78l-1.501 4.271a1.09 1.09 0 0 1 -.013 1.46l1.502 3.988a1.091 1.091 0 1 1 -.919 1.74l-4.243.065a1.092 1.092 0 0 1 -1.219.583l-2.447 2.852a1.092 1.092 0 1 1 -1.986-.03l-2.448-2.811a1.096 1.096 0 0 1 -1.292-.595l-4.178-.064a1.092 1.092 0 1 1 -.929-1.74l1.509-4.007a1.086 1.086 0 0 1 .036-1.28l-1.557-4.433a1.092 1.092 0 1 1 .905-1.78l4.397-.067a1.092 1.092 0 0 1 1.042-.576l2.547-3.184a1.092 1.092 0 1 1 2.046-.532zm-.868 20.467a1.105 1.105 0 0 0 -.412-.007l-2.425-2.782h5.231l-2.394 2.79zm-.224-19.375c-.039 0-.078-.002-.116-.006l-2.526 3.158a.553.553 0 0 1 .02.036h5.297l-2.521-3.199c-.05.007-.102.01-.154.01zm-8.93 4.635 1.507 4.29 2.823-4.724-4.138.063c-.04.136-.106.262-.192.37zm.008 10.55c.075.096.135.205.175.323l4.067.062.022-.037-2.748-4.297h-.029l-1.487 3.95zm11.599-10.997h-5.272a1.138 1.138 0 0 1 -.112.183l2.787 4.555a1.044 1.044 0 0 1 .196.006l2.498-4.58a1.11 1.11 0 0 1 -.097-.164zm.989.617-2.561 4.695c.017.032.032.064.046.097h5.372a1.2 1.2 0 0 1 .061-.117l-2.797-4.682c-.04.005-.08.007-.121.007zm.952-.566 2.799 4.686 1.51-4.296a1.084 1.084 0 0 1 -.188-.365l-4.101-.062zm-8.232.566a1.103 1.103 0 0 1 -.171-.02l-2.79 4.67c.036.045.069.092.098.142h5.611c.023-.057.052-.112.084-.163l-2.832-4.63zm-2.908 5.957 2.726 4.262a1.104 1.104 0 0 1 .179.005l2.869-4.381a1.02 1.02 0 0 1 -.034-.051h-5.646a1.036 1.036 0 0 1 -.094.165zm13.123-.132a.52.52 0 0 1 -.02-.033h-5.5l2.569 4.4h.036c.04 0 .08.002.118.006zm-1.953 4.94 4.103-.062c.039-.115.097-.221.169-.315l-1.501-3.986-2.78 4.347.009.017zm-1.871-.085-2.557-4.38a1.143 1.143 0 0 1 -.074.003l-2.928 4.47.004.007h5.495a.999.999 0 0 1 .06-.1z" fill="#18303f" fill-rule="evenodd"/></svg>