<svg width="25" height="25" viewBox="0 0 25 25" fill="none"><path fill-rule="evenodd" clip-rule="evenodd" d="M13.592 1.732c0 .18-.044.35-.122.5l2.54 3.224a1.09 1.09 0 0 1 1.115.57l4.314.065a1.092 1.092 0 1 1 .901 1.78l-1.5 4.271a1.09 1.09 0 0 1-.014 1.46l1.502 3.988a1.091 1.091 0 1 1-.919 1.74l-4.243.064a1.092 1.092 0 0 1-1.219.584L13.5 22.83a1.092 1.092 0 1 1-1.986-.03l-2.448-2.81a1.096 1.096 0 0 1-1.292-.595l-4.178-.064a1.092 1.092 0 1 1-.929-1.74l1.51-4.007a1.086 1.086 0 0 1 .036-1.28L2.654 7.87a1.092 1.092 0 1 1 .905-1.78l4.397-.067A1.091 1.091 0 0 1 9 5.448l2.547-3.184a1.092 1.092 0 1 1 2.046-.532Zm-.868 20.467a1.105 1.105 0 0 0-.412-.007L9.887 19.41h5.231l-2.394 2.79ZM12.5 2.824c-.039 0-.078-.002-.116-.006L9.858 5.976a.553.553 0 0 1 .02.035h5.297l-2.52-3.198c-.05.007-.103.01-.155.01ZM3.57 7.458l1.507 4.29L7.9 7.026l-4.138.063c-.04.136-.106.262-.192.37Zm.008 10.55c.075.097.135.206.175.324l4.067.062.022-.037-2.748-4.297h-.029l-1.487 3.948Zm11.6-10.997H9.904a1.138 1.138 0 0 1-.112.183l2.787 4.556a1.044 1.044 0 0 1 .196.006l2.498-4.58a1.11 1.11 0 0 1-.097-.165Zm.988.618-2.56 4.695c.016.031.031.064.045.097h5.372a1.2 1.2 0 0 1 .061-.117l-2.797-4.682c-.04.004-.08.007-.12.007Zm.952-.566 2.8 4.686 1.51-4.296a1.084 1.084 0 0 1-.189-.365l-4.1-.062c-.008.012-.014.025-.02.037Zm-8.232.566a1.103 1.103 0 0 1-.17-.02l-2.79 4.67c.035.045.068.092.097.142h5.611c.023-.057.052-.112.084-.163l-2.832-4.63Zm-2.908 5.957 2.726 4.262a1.104 1.104 0 0 1 .18.005l2.868-4.381a1.02 1.02 0 0 1-.034-.051H6.072a1.036 1.036 0 0 1-.094.165Zm13.123-.132a.52.52 0 0 1-.02-.033h-5.5l2.57 4.4h.035c.04 0 .08.002.118.006l2.797-4.373Zm-1.953 4.94 4.103-.062a1.12 1.12 0 0 1 .17-.316l-1.502-3.985-2.78 4.347.01.017Zm-1.87-.085-2.558-4.38a1.143 1.143 0 0 1-.074.003l-2.928 4.47.004.007h5.495a.999.999 0 0 1 .06-.1Z" fill="#18303F" yggColor="general"/></svg>