<svg width="25" height="25" viewBox="0 0 25 25" fill="none"><path fill-rule="evenodd" clip-rule="evenodd" d="M9.628.682h.016c.504 0 .834.332 1.01.51l.028.028c.02.019.036.04.052.062.401.561 1.04.877 1.667.877.715 0 1.26-.307 1.667-.877a.534.534 0 0 1 .053-.062l.027-.027c.177-.179.506-.511 1.011-.511h.016c.136 0 .323 0 .503.032.187.034.402.11.587.28.436.328.807.816 1.117 1.36.321.56.594 1.21.817 1.878.177.53.324 1.08.438 1.616a.494.494 0 0 1 .063.319c.094.497.157.975.185 1.409h1.494a.493.493 0 0 1 0 .985h-1.477v1.477c0 1.459-.47 2.847-1.35 3.958.45.172 1.096.273 2.092.18a.484.484 0 0 1 .045-.002h.1c.271 0 .492.22.492.493v.098a.487.487 0 0 1-.026.156c-.132.396-.496 1.059-1.388 1.616-.887.555-2.265.986-4.397.986-.739 0-1.458-.342-1.97-.866-.512.524-1.23.866-1.97.866-4.188 0-5.504-1.757-5.785-2.602a.487.487 0 0 1-.026-.156v-.098c0-.272.221-.493.493-.493h.098a.49.49 0 0 1 .046.002c.887.083 1.497.012 1.937-.126-.907-1.12-1.392-2.53-1.392-4.012V8.561h-1.28a.492.492 0 0 1 0-.985h1.297c.064-.987.308-2.212.685-3.344a10.62 10.62 0 0 1 .817-1.879c.311-.543.682-1.03 1.117-1.359.186-.17.4-.246.588-.28.18-.032.366-.032.503-.032Zm7.942 4.924a13.266 13.266 0 0 0-.306-1.063 9.571 9.571 0 0 0-.737-1.7c-.283-.495-.58-.86-.872-1.074a.538.538 0 0 1-.057-.049c-.005-.005-.023-.023-.097-.036a2.026 2.026 0 0 0-.342-.017c-.028 0-.058.007-.109.04a1.512 1.512 0 0 0-.205.182c-.576.788-1.4 1.255-2.444 1.255A3.062 3.062 0 0 1 9.957 1.89a1.452 1.452 0 0 0-.205-.181c-.05-.034-.08-.04-.108-.04a2.04 2.04 0 0 0-.343.016c-.073.013-.092.03-.097.036a.454.454 0 0 1-.057.049c-.29.214-.588.579-.87 1.074a9.638 9.638 0 0 0-.739 1.7c-.117.351-.219.709-.306 1.063H17.57ZM7.027 6.59h10.748c.06.349.1.68.122.985H6.906c.022-.304.063-.636.121-.985Zm5.473 3.464c-.128.18-.276.344-.438.49a3.666 3.666 0 0 1-1.96.905c-.714.093-1.477-.04-2.07-.528-.603-.496-.949-1.293-.949-2.361h-.197v1.477c0 1.324.452 2.563 1.28 3.52a3.68 3.68 0 0 0 .297-.302c.087-.098.161-.187.238-.28l.174-.208c.144-.168.306-.346.5-.505.408-.333.92-.55 1.648-.55.571 0 1.055.213 1.45.507.434-.358.945-.508 1.504-.508.73 0 1.24.218 1.648.551.194.159.356.337.5.505.064.075.12.142.173.207.078.094.151.183.239.281.06.068.122.134.187.198.772-.941 1.192-2.14 1.192-3.416V8.661c-.021 1.018-.365 1.78-.948 2.26-.593.489-1.356.622-2.069.529a3.663 3.663 0 0 1-1.961-.904 3.072 3.072 0 0 1-.438-.491Zm4.432-1.494h-3.939c0 .472.225.907.608 1.256.386.35.907.588 1.425.656.518.067.985-.04 1.316-.312.321-.264.59-.748.59-1.6Zm-8.864 0h3.939c0 .472-.226.907-.608 1.256-.386.35-.907.588-1.425.656-.518.067-.985-.04-1.316-.312-.32-.264-.59-.748-.59-1.6Zm7.732 5.35c.143.16.302.324.491.478a.485.485 0 0 0 .391.276c.148.089.312.17.495.242.475.187 1.053.292 1.78.29a2.816 2.816 0 0 1-.612.505c-.689.43-1.872.836-3.875.836-.597 0-1.228-.385-1.542-.934a.493.493 0 0 0-.856 0c-.314.55-.946.934-1.542.934-2.686 0-3.922-.76-4.467-1.341.718 0 1.29-.105 1.76-.29.641-.251 1.053-.632 1.377-.996.093-.105.192-.224.281-.332h.001a7.5 7.5 0 0 1 .143-.171 2.95 2.95 0 0 1 .374-.381c.232-.19.522-.33 1.024-.33.414 0 .788.205 1.128.545a.495.495 0 0 0 .734-.04c.29-.362.632-.504 1.092-.504.502 0 .792.139 1.024.329.126.103.244.228.374.38l.143.172c.09.108.188.226.282.332Zm-3.3 4.006c-2.796 0-5.004.431-6.69.996a.494.494 0 0 0-.49.173c-1.498.556-2.534 1.204-3.166 1.69l-.007.006c-.6.48-.973 1.209-.973 1.96v1.084a.493.493 0 0 0 .985 0v-1.083c0-.43.218-.881.6-1.189a10.21 10.21 0 0 1 1.918-1.135l-.994 2.114a.492.492 0 0 0 .13.588l1.182.985a.493.493 0 0 0 .631-.757l-.889-.741 1.282-2.726a16 16 0 0 1 .96-.295l1.713 4.417a.493.493 0 0 0 .92-.356l-1.666-4.295c1.28-.273 2.79-.45 4.554-.45 1.722 0 3.204.169 4.463.43l-1.672 4.315a.492.492 0 1 0 .918.356l1.722-4.44c.308.082.601.17.877.26l1.357 2.882-.89.741a.493.493 0 0 0 .631.758l1.182-.985a.494.494 0 0 0 .131-.589l-1.08-2.296c.97.432 1.661.88 2.102 1.22.383.307.6.759.6 1.188v1.083a.492.492 0 1 0 .985 0v-1.083c0-.752-.372-1.48-.973-1.961l-.007-.006c-1.365-1.05-4.622-2.86-10.346-2.86Zm-.569 1.753a.97.97 0 0 1 .57-.178.94.94 0 0 1 .603.242c.141.12.254.273.33.425a.486.486 0 0 1 .04.11l.787 3.447a.492.492 0 1 1-.961.22l-.772-3.377-.017-.025-.024-.029-.005.012-.782 3.419a.492.492 0 1 1-.96-.22l.787-3.447a1.083 1.083 0 0 1 .404-.599Z" fill="#18303F" yggColor="grandfather"/></svg>