<svg fill="none" height="25" viewBox="0 0 25 25" width="25"><path clip-rule="evenodd" d="m7.397 3.724a4.108 4.108 0 0 0 -.152 8.212h.656a1.558 1.558 0 1 0 -1.01-2.744.499.499 0 1 1 -.649-.761 2.559 2.559 0 1 1 1.659 4.505h-.451a5.307 5.307 0 0 1 -.222 0h-5.368a.5.5 0 0 1 0-1h2.497a5.108 5.108 0 1 1 7.578-6.45 3.868 3.868 0 0 1 6.634 3.236 4.688 4.688 0 1 1 1.423 9.244 4.795 4.795 0 0 1 -8.66 2.316 4.377 4.377 0 0 1 -6.943.248.5.5 0 0 1 .771-.636c.306.37.695.681 1.16.9a3.376 3.376 0 0 0 4.455-1.52 4.794 4.794 0 0 1 4.439-6.585h.01a3.022 3.022 0 0 1 0 6.045.5.5 0 1 1 0-1 2.023 2.023 0 0 0 .006-4.045h-.007a3.794 3.794 0 1 0 3.793 3.794.5.5 0 0 1 .544-.498 3.688 3.688 0 1 0 -1.52-7.03.5.5 0 0 1 -.67-.654 2.868 2.868 0 0 0 -5.115-2.582.5.5 0 0 1 -.68.186.5.5 0 0 1 -.257-.3 4.11 4.11 0 0 0 -3.92-2.881zm-.713 14.344a1.366 1.366 0 0 1 -1.366-1.365.5.5 0 0 0 -1 0 2.366 2.366 0 1 0 2.366-2.366h-3.597a.5.5 0 0 0 0 1h3.597a1.365 1.365 0 0 1 0 2.731zm-5.476-2.73a.5.5 0 0 1 0-1h.111a.5.5 0 0 1 0 1z" fill="#18303f" fill-rule="evenodd"/></svg>