<svg width="25" height="25" viewBox="0 0 25 25" fill="none"><path fill-rule="evenodd" clip-rule="evenodd" d="M.451 1.176A.972.972 0 0 1 1.28.754h6.879a.97.97 0 0 1 .827.422.984.984 0 0 1 .112.899l-.001.003-1.81 5.23a.502.502 0 0 1-.024.056v1.252c0 .506-.407 1.008-1.017 1.008h-1.05v13.622h1.567a.5.5 0 0 1 0 1H2.624a.5.5 0 0 1 0-1h1.572L4.194 9.624H3.141c-.266 0-.528-.09-.725-.283a1.002 1.002 0 0 1-.292-.725V7.144c0-.018 0-.034.003-.051L.359 2.129a.797.797 0 0 1-.09-.527 1.09 1.09 0 0 1 .182-.426Zm.836.578 1.741 4.89h3.43l1.692-4.89H1.287Zm1.837 6.862v-.972h3.138v.97a.023.023 0 0 1-.005.006l-.002.002-.002.001H3.124v-.007Zm15.001 3.004a.5.5 0 0 1 .67.227l.771 1.561a3.075 3.075 0 0 1 .42.234c.425.304.81.693 1.093 1.153a4.958 4.958 0 0 1 1.476-2.532l.51-.5a.5.5 0 0 1 .7.713l-.516.508-.008.007-.007.007a3.962 3.962 0 0 0-1.193 2.075l-.002.01-.272 1.1a.824.824 0 0 1 .174.09.804.804 0 0 1 .296.408l.003.008a9.98 9.98 0 0 1 .49 3.098v.413h.996c.266 0 .528.09.725.283a1 1 0 0 1 .292.725v.508a1 1 0 0 1-.292.725 1.02 1.02 0 0 1-.725.283h-.477l.405.795a.5.5 0 0 1-.891.454l-.636-1.25h-7.663l-.637 1.25a.5.5 0 0 1-.89-.454l.405-.795h-.478c-.266 0-.528-.09-.725-.283a1.002 1.002 0 0 1-.292-.725v-.508a1 1 0 0 1 .292-.725 1.02 1.02 0 0 1 .725-.283h6.744v-.413a9.98 9.98 0 0 1 .49-3.098.51.51 0 0 1 .03-.074.962.962 0 0 1 .234-.295.8.8 0 0 1 .228-.136l-.124-.34-.005-.013-.002-.008c-.166-.53-.548-1.003-1.046-1.36a2.116 2.116 0 0 0-2.084-.117.5.5 0 1 1-.44-.898 3.14 3.14 0 0 1 1.423-.322l-.414-.836a.5.5 0 0 1 .227-.67Zm2.483 8.167c0-.912.132-1.78.397-2.648h.328a8.98 8.98 0 0 1 .396 2.648v.413h-1.12v-.413Zm-.517 1.413h-7.236l-.008.001v.522h1.282a.498.498 0 0 1 .058 0h8.217a.5.5 0 0 1 .057 0h1.282V21.2h-3.652Zm2.076-9.58a.5.5 0 1 1-1 0 .5.5 0 0 1 1 0Zm-3.871-1a.5.5 0 1 1-1 0 .5.5 0 0 1 1 0Zm5.523 4.03a.5.5 0 1 1-1 0 .5.5 0 0 1 1 0Zm-4.668.5a.5.5 0 1 1-1 0 .5.5 0 0 1 1 0Z" fill="#18303F" yggColor="hallway"/></svg>