<svg fill="none" height="25" viewBox="0 0 25 25" width="25"><path clip-rule="evenodd" d="m.451 1.176a.972.972 0 0 1 .829-.422h6.879c.267 0 .604.093.827.422a.984.984 0 0 1 .112.899l-.001.003-1.81 5.23a.504.504 0 0 1 -.024.056v1.252c0 .506-.407 1.008-1.017 1.008h-1.05v13.622h1.567a.5.5 0 0 1 0 1h-4.139a.5.5 0 0 1 0-1h1.572l-.002-13.622h-1.053c-.266 0-.528-.09-.725-.283a1.002 1.002 0 0 1 -.292-.725v-1.472c0-.018 0-.034.002-.051l-1.766-4.964a.797.797 0 0 1 -.09-.527 1.09 1.09 0 0 1 .182-.426zm.836.578 1.74 4.89h3.43l1.693-4.89zm1.837 6.862v-.972h3.138v.97a.023.023 0 0 1 -.005.006l-.002.002-.002.001h-3.129zm15.001 3.004a.5.5 0 0 1 .67.227l.771 1.561a3.075 3.075 0 0 1 .42.234c.425.304.81.693 1.093 1.153a4.958 4.958 0 0 1 1.476-2.532l.51-.5a.5.5 0 0 1 .7.713l-.517.508-.007.007-.007.007a3.962 3.962 0 0 0 -1.193 2.075l-.002.01-.272 1.1c.058.022.117.051.174.09a.804.804 0 0 1 .296.408l.003.008a9.98 9.98 0 0 1 .489 3.098v.413h.997c.266 0 .528.09.725.283.198.195.292.456.292.725v.508c0 .268-.093.53-.292.725-.197.194-.459.283-.725.283h-.477l.405.795a.5.5 0 0 1 -.891.454l-.637-1.25h-7.662l-.637 1.25a.5.5 0 0 1 -.89-.454l.405-.795h-.478c-.266 0-.528-.09-.725-.283a1.002 1.002 0 0 1 -.292-.725v-.508c0-.269.093-.53.292-.725.197-.194.459-.283.725-.283h6.744v-.413a9.98 9.98 0 0 1 .49-3.098.51.51 0 0 1 .03-.074.962.962 0 0 1 .234-.295.8.8 0 0 1 .228-.136l-.124-.34-.005-.013-.002-.008c-.166-.53-.548-1.003-1.046-1.36a2.116 2.116 0 0 0 -2.084-.117.5.5 0 1 1 -.44-.898c.448-.22.936-.328 1.422-.322l-.413-.836a.5.5 0 0 1 .227-.67zm2.483 8.167c0-.912.132-1.78.397-2.648h.328c.264.868.396 1.736.396 2.648v.413h-1.12v-.413zm-.517 1.413h-7.236l-.008.001v.522h1.282a.498.498 0 0 1 .058 0h8.217a.5.5 0 0 1 .057 0h1.282v-.523zm2.076-9.58a.5.5 0 1 1 -1 0 .5.5 0 0 1 1 0zm-3.871-1a.5.5 0 1 1 -1 0 .5.5 0 0 1 1 0zm5.523 4.03a.5.5 0 1 1 -1 0 .5.5 0 0 1 1 0zm-4.668.5a.5.5 0 1 1 -1 0 .5.5 0 0 1 1 0z" fill="#18303f" fill-rule="evenodd"/></svg>