<svg fill="none" height="25" viewBox="0 0 25 25" width="25"><path clip-rule="evenodd" d="m7.5 3a4.5 4.5 0 0 0 -4.5 4.5v9.492a4.5 4.5 0 0 0 4.5 4.5h9.492a4.5 4.5 0 0 0 4.5-4.5v-9.492a4.5 4.5 0 0 0 -4.5-4.5zm-3.5 4.5a3.5 3.5 0 0 1 3.5-3.5h9.492a3.5 3.5 0 0 1 3.5 3.5v9.492a3.5 3.5 0 0 1 -3.5 3.5h-9.492a3.5 3.5 0 0 1 -3.5-3.5zm8.246.824h.76c.115 0 .172-.036.198-.063.027-.027.063-.083.063-.198 0-.114-.036-.171-.063-.198-.026-.026-.083-.062-.197-.062h-1.521c-.115 0-.172.036-.198.062-.027.027-.063.084-.063.198 0 .115.036.171.063.198.026.027.083.063.198.063zm.5-1.521v-1.021a.5.5 0 0 0 -1 0v1.02h-.26a1.26 1.26 0 0 0 -.905.356c-.24.24-.356.563-.356.905s.116.665.356.905c.239.24.563.356.905.356h.26v4.823a.5.5 0 0 0 1 0v-4.823h.26c.342 0 .666-.117.905-.356.24-.24.356-.563.356-.905s-.116-.665-.356-.905a1.258 1.258 0 0 0 -.904-.355zm5.204 5.323h-1.521a.276.276 0 0 1 -.182-.075.243.243 0 0 1 -.08-.185c0-.115.037-.171.064-.198s.083-.063.198-.063h1.52c.115 0 .172.036.199.063.026.027.062.083.062.198 0 .114-.036.17-.062.197-.027.027-.084.063-.198.063zm-.261-6.344v4.823h.26c.343 0 .666.116.906.356.239.24.355.563.355.905 0 .341-.116.665-.355.905a1.26 1.26 0 0 1 -.905.355h-.261v1.021a.5.5 0 0 1 -1 0v-1.02h-.26c-.624 0-1.261-.497-1.261-1.261 0-.342.116-.666.356-.905.239-.24.563-.356.905-.356h.26v-4.823a.5.5 0 0 1 1 0zm-9.74 5.344h-.146v3.021a.5.5 0 0 1 -1 0v-3.021h-.374c-.623 0-1.261-.496-1.261-1.26 0-.342.117-.666.356-.905.239-.24.563-.356.905-.356h1.52c.343 0 .666.116.906.356.239.239.355.563.355.904 0 .342-.116.666-.355.905a1.26 1.26 0 0 1 -.905.356zm-1.717-1.458c-.027.026-.063.083-.063.197 0 .082.032.142.079.186.053.05.122.075.182.075h1.52c.115 0 .172-.036.199-.063.026-.026.062-.083.062-.198 0-.114-.036-.17-.062-.197-.027-.027-.084-.063-.198-.063h-1.522c-.115 0-.171.036-.198.063zm10.958 6.547c-.731 0-1.354.623-1.354 1.355 0 .731.623 1.354 1.354 1.354.732 0 1.355-.623 1.355-1.354 0-.732-.623-1.355-1.355-1.355zm-.354 1.355c0-.18.175-.355.354-.355.18 0 .355.175.355.355a.378.378 0 0 1 -.355.354.377.377 0 0 1 -.354-.354zm-5.96-.002c0-.732.624-1.355 1.357-1.355.732 0 1.355.623 1.355 1.355 0 .733-.623 1.356-1.355 1.356a1.377 1.377 0 0 1 -1.356-1.356zm1.357-.355a.38.38 0 0 0 -.356.355c0 .18.176.356.356.356s.355-.176.355-.356a.378.378 0 0 0 -.355-.355zm-4.93-.998c-.731 0-1.353.623-1.353 1.354 0 .732.622 1.355 1.354 1.355s1.354-.623 1.354-1.355c0-.731-.622-1.354-1.354-1.354zm-.353 1.355c0-.179.174-.354.354-.354.179 0 .354.175.354.354 0 .18-.175.355-.354.355a.377.377 0 0 1 -.354-.355z" fill="#18303f" fill-rule="evenodd"/></svg>