<svg width="25" height="25" viewBox="0 0 25 25" fill="none"><g id="han_unknown"><path fill-rule="evenodd" clip-rule="evenodd" d="M5.357 3.227c-.317.176-.475.355-.475.538a.269.269 0 0 0 .264.285c.063 0 .14-.042.232-.126.092-.085.225-.17.401-.254.183-.091.412-.137.687-.137.457 0 .81.12 1.056.359.246.24.37.57.37.993 0 .253-.053.492-.159.718-.099.225-.2.397-.306.517-.106.12-.257.271-.454.454-.19.176-.314.292-.37.349-.148.169-.26.383-.338.644-.077.253-.116.651-.116 1.193 0 .204.095.306.285.306.19 0 .285-.08.285-.242 0-.458.021-.796.064-1.014a1.2 1.2 0 0 1 .306-.592 4.24 4.24 0 0 1 .37-.37c.197-.19.359-.358.485-.506.134-.148.257-.36.37-.634.12-.281.18-.573.18-.876 0-.55-.177-1-.529-1.352-.345-.352-.834-.528-1.467-.528-.437 0-.817.092-1.141.275Zm1.108 7.507a.344.344 0 1 0 0-.688.344.344 0 0 0 0 .688Zm.036-9.96a5.884 5.884 0 1 0 0 11.768 5.884 5.884 0 0 0 0-11.769ZM1.617 6.657a4.884 4.884 0 1 1 9.769 0 4.884 4.884 0 0 1-9.769 0Zm12.137-1.15a.5.5 0 1 0 0 1H19.5a3.5 3.5 0 0 1 3.5 3.5V19.5a3.5 3.5 0 0 1-3.5 3.5h-9.492a3.5 3.5 0 0 1-3.5-3.5v-5.746a.5.5 0 0 0-1 0V19.5a4.5 4.5 0 0 0 4.5 4.5H19.5a4.5 4.5 0 0 0 4.5-4.5v-9.492a4.5 4.5 0 0 0-4.5-4.5h-5.746Zm1.5 3.803V8.29a.5.5 0 0 0-1 0v1.02h-.26a1.26 1.26 0 0 0-.906.356 1.26 1.26 0 0 0-.355.905c0 .342.116.666.355.905.24.24.563.356.905.356h.26v4.823a.5.5 0 1 0 1 0v-4.823h.261c.342 0 .666-.116.905-.356.24-.24.356-.563.356-.905a1.26 1.26 0 0 0-.356-.905 1.26 1.26 0 0 0-.905-.355h-.26Zm.26 1.52c.115 0 .171-.035.198-.062.027-.027.063-.083.063-.198 0-.114-.036-.17-.063-.197-.027-.027-.083-.063-.198-.063h-1.52c-.115 0-.172.036-.199.063-.026.026-.062.083-.062.197 0 .115.036.171.062.198.027.027.084.063.198.063h1.521Zm4.683-2.541v4.823h.26c.342 0 .666.117.905.356.24.24.356.563.356.905 0 .342-.116.665-.356.905a1.26 1.26 0 0 1-.904.355h-.261v1.021a.5.5 0 1 1-1 0v-1.02h-.26c-.624 0-1.261-.497-1.261-1.261 0-.342.116-.666.356-.905.239-.24.563-.356.904-.356h.261V8.29a.5.5 0 1 1 1 0Zm-9.626 5.823h-.26v2.542a.5.5 0 0 1-1 0v-2.542H9.05a.5.5 0 0 1 0-1h1.52c.115 0 .172-.036.199-.062.026-.027.062-.084.062-.198a.5.5 0 1 1 1 0c0 .342-.116.665-.355.905a1.26 1.26 0 0 1-.905.355Zm9.126 4.61c-.732 0-1.354.623-1.354 1.355s.622 1.354 1.354 1.354c.732 0 1.354-.622 1.354-1.354 0-.732-.622-1.354-1.354-1.354Zm-.354 1.355c0-.18.175-.354.354-.354.18 0 .354.174.354.354s-.175.354-.354.354a.377.377 0 0 1-.354-.354Zm-5.96-.002c0-.732.624-1.355 1.357-1.355.732 0 1.355.623 1.355 1.355 0 .733-.623 1.356-1.355 1.356a1.377 1.377 0 0 1-1.356-1.356Zm1.357-.355a.379.379 0 0 0-.356.355c0 .18.175.356.355.356s.356-.175.356-.356a.379.379 0 0 0-.356-.355Zm-4.93-.997c-.731 0-1.354.622-1.354 1.354 0 .732.623 1.354 1.354 1.354.732 0 1.355-.622 1.355-1.354 0-.732-.623-1.354-1.355-1.354Zm-.354 1.354c0-.18.175-.354.354-.354.18 0 .355.174.355.354s-.175.354-.355.354a.377.377 0 0 1-.354-.354Zm9.48-5.444h1.521c.115 0 .172-.036.198-.062.027-.027.063-.084.063-.198 0-.115-.036-.171-.063-.198-.026-.027-.083-.063-.198-.063h-1.52c-.115 0-.172.036-.198.063-.027.027-.063.083-.063.198 0 .081.031.141.079.186.052.049.122.074.181.074Z" fill="#18303F" yggColor="iconDefault"/></g></svg>