<svg fill="none" height="25" viewBox="0 0 25 25" width="25"><path clip-rule="evenodd" d="m8.333 1.667a2.292 2.292 0 1 0 0 4.583 2.292 2.292 0 0 0 0-4.583zm-1.042 2.291a1.042 1.042 0 1 1 2.084 0 1.042 1.042 0 0 1 -2.083 0zm1.042 6.042a2.292 2.292 0 1 0 0 4.583 2.292 2.292 0 0 0 0-4.583zm-1.042 2.292a1.042 1.042 0 1 1 2.084 0 1.042 1.042 0 0 1 -2.083 0zm-1.249 8.333a2.292 2.292 0 1 1 4.583 0 2.292 2.292 0 0 1 -4.583 0zm2.291-1.042a1.042 1.042 0 1 0 0 2.084 1.042 1.042 0 0 0 0-2.084zm8.333-17.916a2.292 2.292 0 1 0 0 4.583 2.292 2.292 0 0 0 0-4.583zm-1.041 2.291a1.042 1.042 0 1 1 2.083 0 1.042 1.042 0 0 1 -2.083 0zm-1.25 8.334a2.292 2.292 0 1 1 4.583 0 2.292 2.292 0 0 1 -4.583 0zm2.291-1.042a1.042 1.042 0 1 0 0 2.083 1.042 1.042 0 0 0 0-2.083zm0 7.083a2.292 2.292 0 1 0 0 4.584 2.292 2.292 0 0 0 0-4.584zm-1.041 2.292a1.042 1.042 0 1 1 2.083 0 1.042 1.042 0 0 1 -2.083 0z" fill="#18303f" fill-rule="evenodd"/></svg>