<svg width="25" height="25" viewBox="0 0 25 25" fill="none"><g id="handle"><path d="M8.333 1.667a2.292 2.292 0 1 0 0 4.583 2.292 2.292 0 0 0 0-4.583ZM7.291 3.958a1.042 1.042 0 1 1 2.084 0 1.042 1.042 0 0 1-2.083 0ZM8.333 10a2.292 2.292 0 1 0 0 4.583 2.292 2.292 0 0 0 0-4.583Zm-1.042 2.292a1.042 1.042 0 1 1 2.084 0 1.042 1.042 0 0 1-2.083 0Zm-1.249 8.333a2.292 2.292 0 1 1 4.583 0 2.292 2.292 0 0 1-4.583 0Zm2.291-1.042a1.042 1.042 0 1 0 0 2.084 1.042 1.042 0 0 0 0-2.084Zm8.333-17.916a2.292 2.292 0 1 0 0 4.583 2.292 2.292 0 0 0 0-4.583Zm-1.041 2.291a1.042 1.042 0 1 1 2.083 0 1.042 1.042 0 0 1-2.083 0Zm-1.25 8.334a2.292 2.292 0 1 1 4.583 0 2.292 2.292 0 0 1-4.583 0Zm2.291-1.042a1.042 1.042 0 1 0 0 2.083 1.042 1.042 0 0 0 0-2.083Zm0 7.083a2.292 2.292 0 1 0 0 4.584 2.292 2.292 0 0 0 0-4.584Zm-1.041 2.292a1.042 1.042 0 1 1 2.083 0 1.042 1.042 0 0 1-2.083 0Z" fill-rule="evenodd" clip-rule="evenodd" fill="#18303F" yggColor="iconDefault"/></g></svg>