<svg width="25" height="25" viewBox="0 0 25 25" fill="none" xmlns="http://www.w3.org/2000/svg">
<g id="handle">
<g id="iconDefault">
<path fill-rule="evenodd" clip-rule="evenodd" d="M8.33335 1.66663C7.0677 1.66663 6.04169 2.69264 6.04169 3.95829C6.04169 5.22395 7.0677 6.24996 8.33335 6.24996C9.59901 6.24996 10.625 5.22395 10.625 3.95829C10.625 2.69264 9.59901 1.66663 8.33335 1.66663ZM7.29169 3.95829C7.29169 3.383 7.75806 2.91663 8.33335 2.91663C8.90865 2.91663 9.37502 3.383 9.37502 3.95829C9.37502 4.53359 8.90865 4.99996 8.33335 4.99996C7.75806 4.99996 7.29169 4.53359 7.29169 3.95829Z" fill="#18303F"/>
<path fill-rule="evenodd" clip-rule="evenodd" d="M8.33335 9.99996C7.0677 9.99996 6.04169 11.026 6.04169 12.2916C6.04169 13.5573 7.0677 14.5833 8.33335 14.5833C9.59901 14.5833 10.625 13.5573 10.625 12.2916C10.625 11.026 9.59901 9.99996 8.33335 9.99996ZM7.29169 12.2916C7.29169 11.7163 7.75806 11.25 8.33335 11.25C8.90865 11.25 9.37502 11.7163 9.37502 12.2916C9.37502 12.8669 8.90865 13.3333 8.33335 13.3333C7.75806 13.3333 7.29169 12.8669 7.29169 12.2916Z" fill="#18303F"/>
<path fill-rule="evenodd" clip-rule="evenodd" d="M6.04169 20.625C6.04169 19.3593 7.0677 18.3333 8.33335 18.3333C9.59901 18.3333 10.625 19.3593 10.625 20.625C10.625 21.8906 9.59901 22.9166 8.33335 22.9166C7.0677 22.9166 6.04169 21.8906 6.04169 20.625ZM8.33335 19.5833C7.75806 19.5833 7.29169 20.0497 7.29169 20.625C7.29169 21.2003 7.75806 21.6666 8.33335 21.6666C8.90865 21.6666 9.37502 21.2003 9.37502 20.625C9.37502 20.0497 8.90865 19.5833 8.33335 19.5833Z" fill="#18303F"/>
<path fill-rule="evenodd" clip-rule="evenodd" d="M16.6667 1.66663C15.401 1.66663 14.375 2.69264 14.375 3.95829C14.375 5.22395 15.401 6.24996 16.6667 6.24996C17.9323 6.24996 18.9584 5.22395 18.9584 3.95829C18.9584 2.69264 17.9323 1.66663 16.6667 1.66663ZM15.625 3.95829C15.625 3.383 16.0914 2.91663 16.6667 2.91663C17.242 2.91663 17.7084 3.383 17.7084 3.95829C17.7084 4.53359 17.242 4.99996 16.6667 4.99996C16.0914 4.99996 15.625 4.53359 15.625 3.95829Z" fill="#18303F"/>
<path fill-rule="evenodd" clip-rule="evenodd" d="M14.375 12.2916C14.375 11.026 15.401 9.99996 16.6667 9.99996C17.9323 9.99996 18.9584 11.026 18.9584 12.2916C18.9584 13.5573 17.9323 14.5833 16.6667 14.5833C15.401 14.5833 14.375 13.5573 14.375 12.2916ZM16.6667 11.25C16.0914 11.25 15.625 11.7163 15.625 12.2916C15.625 12.8669 16.0914 13.3333 16.6667 13.3333C17.242 13.3333 17.7084 12.8669 17.7084 12.2916C17.7084 11.7163 17.242 11.25 16.6667 11.25Z" fill="#18303F"/>
<path fill-rule="evenodd" clip-rule="evenodd" d="M16.6667 18.3333C15.401 18.3333 14.375 19.3593 14.375 20.625C14.375 21.8906 15.401 22.9166 16.6667 22.9166C17.9323 22.9166 18.9584 21.8906 18.9584 20.625C18.9584 19.3593 17.9323 18.3333 16.6667 18.3333ZM15.625 20.625C15.625 20.0497 16.0914 19.5833 16.6667 19.5833C17.242 19.5833 17.7084 20.0497 17.7084 20.625C17.7084 21.2003 17.242 21.6666 16.6667 21.6666C16.0914 21.6666 15.625 21.2003 15.625 20.625Z" fill="#18303F"/>
</g>
</g>
</svg>
