<svg fill="none" height="25" viewBox="0 0 25 25" width="25"><path d="m8.334 1.666a2.292 2.292 0 1 0 -.001 4.584 2.292 2.292 0 0 0 .001-4.584zm8.332 0a2.292 2.292 0 1 0 .002 4.585 2.292 2.292 0 0 0 -.002-4.585zm-8.332 1.25a1.042 1.042 0 1 1 -.002 2.084 1.042 1.042 0 0 1 .002-2.084zm8.332 0a1.042 1.042 0 1 1 .002 2.083 1.042 1.042 0 0 1 -.002-2.083zm-8.332 7.084a2.292 2.292 0 1 0 -.001 4.584 2.292 2.292 0 0 0 .001-4.584zm8.332 0a2.292 2.292 0 1 0 .002 4.584 2.292 2.292 0 0 0 -.002-4.584zm-8.332 1.25a1.042 1.042 0 1 1 -.002 2.084 1.042 1.042 0 0 1 .002-2.084zm8.332 0a1.042 1.042 0 1 1 .002 2.084 1.042 1.042 0 0 1 -.002-2.084zm-8.332 7.084a2.292 2.292 0 1 0 -.001 4.584 2.292 2.292 0 0 0 .001-4.584zm8.332 0a2.29 2.29 0 1 0 0 4.582 2.292 2.292 0 1 0 0-4.582zm-8.332 1.25a1.04 1.04 0 1 1 0 2.082 1.042 1.042 0 1 1 0-2.082zm8.332 0a1.042 1.042 0 1 1 .002 2.084 1.042 1.042 0 0 1 -.002-2.084z" fill="#18303f"/></svg>