<svg fill="none" height="25" viewBox="0 0 25 25" width="25"><path clip-rule="evenodd" d="m18.903 2.275a.5.5 0 0 0 -.404.914.84.84 0 0 1 -.339 1.609 1.84 1.84 0 0 0 -.805 3.494.5.5 0 0 0 .438-.899.84.84 0 0 1 .367-1.595 1.84 1.84 0 0 0 .743-3.523zm-12.403 9.9a.5.5 0 0 1 .5.5v7.13a.5.5 0 0 1 -1 0v-7.13a.5.5 0 0 1 .5-.5zm3 0a.5.5 0 0 1 .5.5v7.13a.5.5 0 0 1 -1 0v-7.13a.5.5 0 0 1 .5-.5zm3 0a.5.5 0 0 1 .5.5v7.13a.5.5 0 0 1 -1 0v-7.13a.5.5 0 0 1 .5-.5zm3 0a.5.5 0 0 1 .5.5v7.13a.5.5 0 0 1 -1 0v-7.13a.5.5 0 0 1 .5-.5zm3 0a.5.5 0 0 1 .5.5v7.13a.5.5 0 0 1 -1 0v-7.13a.5.5 0 0 1 .5-.5zm4.56.526a2.97 2.97 0 0 0 -2.968-2.988h-15.184a2.97 2.97 0 0 0 -2.968 2.987v7.079a2.97 2.97 0 0 0 2.968 2.988h15.184a2.97 2.97 0 0 0 2.968-2.988v-7.079zm-2.968-1.989a1.97 1.97 0 0 1 1.968 1.989v7.079a1.97 1.97 0 0 1 -1.968 1.988h-15.184a1.97 1.97 0 0 1 -1.968-1.988v-7.08a1.97 1.97 0 0 1 1.968-1.987h15.184zm-6.848-8.182a.5.5 0 0 1 .659-.255 1.84 1.84 0 0 1 -.743 3.523.84.84 0 0 0 -.367 1.595.5.5 0 1 1 -.438.9 1.841 1.841 0 0 1 .805-3.495.84.84 0 0 0 .339-1.609.5.5 0 0 1 -.255-.659zm-5 0a.5.5 0 0 1 .659-.255 1.84 1.84 0 0 1 -.743 3.523.84.84 0 0 0 -.367 1.595.5.5 0 1 1 -.438.9 1.841 1.841 0 0 1 .805-3.495.84.84 0 0 0 .339-1.609.5.5 0 0 1 -.255-.659z" fill="#18303f" fill-rule="evenodd"/></svg>