<svg width="25" height="25" viewBox="0 0 25 25" fill="none"><g id="heater"><path fill-rule="evenodd" clip-rule="evenodd" d="M18.903 2.275a.5.5 0 0 0-.404.914.84.84 0 0 1-.339 1.609 1.84 1.84 0 0 0-.805 3.494.5.5 0 0 0 .438-.899.84.84 0 0 1 .367-1.595 1.84 1.84 0 0 0 .743-3.523ZM6.5 12.175a.5.5 0 0 1 .5.5v7.13a.5.5 0 0 1-1 0v-7.13a.5.5 0 0 1 .5-.5Zm3 0a.5.5 0 0 1 .5.5v7.13a.5.5 0 0 1-1 0v-7.13a.5.5 0 0 1 .5-.5Zm3 0a.5.5 0 0 1 .5.5v7.13a.5.5 0 0 1-1 0v-7.13a.5.5 0 0 1 .5-.5Zm3 0a.5.5 0 0 1 .5.5v7.13a.5.5 0 0 1-1 0v-7.13a.5.5 0 0 1 .5-.5Zm3 0a.5.5 0 0 1 .5.5v7.13a.5.5 0 0 1-1 0v-7.13a.5.5 0 0 1 .5-.5Zm4.56.526a2.97 2.97 0 0 0-2.968-2.988H4.908A2.97 2.97 0 0 0 1.94 12.7v7.079a2.97 2.97 0 0 0 2.968 2.988h15.184a2.97 2.97 0 0 0 2.968-2.988V12.7Zm-2.968-1.989a1.97 1.97 0 0 1 1.968 1.989v7.079a1.97 1.97 0 0 1-1.968 1.988H4.908A1.97 1.97 0 0 1 2.94 19.78V12.7a1.97 1.97 0 0 1 1.968-1.987h15.184ZM13.244 2.53a.5.5 0 0 1 .659-.255 1.84 1.84 0 0 1-.743 3.523.84.84 0 0 0-.367 1.595.5.5 0 1 1-.438.9 1.841 1.841 0 0 1 .805-3.495.84.84 0 0 0 .339-1.609.5.5 0 0 1-.255-.659Zm-5 0a.5.5 0 0 1 .659-.255 1.84 1.84 0 0 1-.743 3.523.84.84 0 0 0-.367 1.595.5.5 0 1 1-.438.9 1.841 1.841 0 0 1 .805-3.495.84.84 0 0 0 .339-1.609.5.5 0 0 1-.255-.659Z" fill="#18303F" yggColor="iconDefault"/></g></svg>