<svg width="25" height="25" viewBox="0 0 25 25" fill="none"><g yggColor="history"><path yggColor="iconDefault" fill-rule="evenodd" clip-rule="evenodd" d="M12.435 2.66c2.132 0 4.047 1.48 4.438 3.567.596-.01 1.18.165 1.672.535.668.501.975 1.31.975 2.078v.018c0 .218 0 .515-.104.843-.11.345-.323.689-.694 1.048-.35.339-.86.448-1.258.493-.35.04-.712.037-.976.035h-.499a.5.5 0 1 1 0-1h.523c.265.002.556.004.84-.028.361-.041.578-.125.674-.219.275-.266.386-.472.437-.633.054-.17.057-.327.057-.557 0-.523-.21-1.005-.575-1.278-.393-.295-.892-.4-1.41-.297a.5.5 0 0 1-.596-.46c-.111-1.777-1.676-3.145-3.504-3.145-1.223 0-2.474.79-3.038 1.918a.5.5 0 0 1-.447.276c-.676 0-1.311.227-1.712.629a.512.512 0 0 1-.042.037c-.512.41-.716.904-.716 1.546 0 1.16.832 2.096 1.977 2.21h4.494a.5.5 0 0 1 0 1H8.433a.49.49 0 0 1-.045-.001c-1.684-.153-2.908-1.537-2.908-3.21 0-.898.308-1.69 1.07-2.31.558-.545 1.329-.83 2.097-.889.779-1.31 2.271-2.206 3.788-2.206Zm1.298 17.004-.968.968v-3.48c0-1.494 1.13-2.624 2.625-2.624h2.59a.5.5 0 1 0 0-1h-2.59c-2.047 0-3.625 1.578-3.625 3.625v3.482l-.97-.971a.5.5 0 1 0-.707.707l1.823 1.823a.498.498 0 0 0 .729-.022l1.8-1.801a.5.5 0 1 0-.707-.707Zm1.27-8.876a.52.52 0 1 1-1.041 0 .52.52 0 0 1 1.042 0Z" fill="#18303F"/></g></svg>