<svg width="25" height="25" viewBox="0 0 25 25" fill="none"><path fill-rule="evenodd" clip-rule="evenodd" d="M15.164 1.833c-.2 0-.377.128-.44.317l-.175.525-.525.176a.463.463 0 0 0 0 .878l.525.175.175.525a.463.463 0 0 0 .879 0l.175-.525.525-.175a.463.463 0 0 0 0-.878l-.525-.176-.175-.525a.463.463 0 0 0-.44-.317ZM10.983 4.62a.462.462 0 0 0-.431.295l-.371.955-.955.37a.463.463 0 0 0 0 .864l.955.37.37.955a.462.462 0 0 0 .864 0l.37-.954.955-.371a.463.463 0 0 0 0-.863l-.954-.371-.371-.955a.463.463 0 0 0-.432-.295Zm0 1.74.014.035a.462.462 0 0 0 .263.264l.035.013-.035.014a.462.462 0 0 0-.263.263l-.014.035-.013-.035a.463.463 0 0 0-.264-.263l-.035-.014.035-.013a.463.463 0 0 0 .264-.264l.013-.035ZM6.295 3.626a.463.463 0 0 0-.44.317l-.174.525-.526.175a.463.463 0 0 0 0 .879l.526.175.175.525a.463.463 0 0 0 .878 0l.175-.525.526-.175a.462.462 0 0 0 0-.879l-.526-.175-.175-.525a.463.463 0 0 0-.44-.317Zm12.52-.298a.462.462 0 0 0 .01.53c.396.545.593 1.081.66 1.773.13 1.784-1.067 3.412-2.767 3.75a.47.47 0 0 0-.025.005c-.487.126-.92.069-1.398-.073a.463.463 0 0 0-.505.716c.987 1.359 2.654 2.152 4.352 1.802 2.185-.434 3.675-2.506 3.509-4.73v-.005c-.167-1.976-1.582-3.527-3.341-3.96a.462.462 0 0 0-.494.192Zm2.913 3.843c.132 1.785-1.067 3.415-2.768 3.752h-.003c-.885.184-1.784-.039-2.522-.555.154-.014.313-.04.476-.082 2.179-.44 3.664-2.507 3.498-4.729l-.001-.01c-.035-.36-.1-.691-.201-1.007a3.555 3.555 0 0 1 1.52 2.631ZM7.125 18.743v3.497H5.044c-.064 0-.083-.02-.083-.02s-.02-.02-.02-.083v-5.239a.504.504 0 0 0-.01-.096.463.463 0 0 0-.463-.445H3.52l5.795-5.427 2.262 2.046a.462.462 0 0 0 .773-.343v-1.008h.772v2.592c0 .125.05.245.14.332L15.06 16.3h-.966a.463.463 0 0 0-.463.463v2.234a.463.463 0 1 0 .926 0v-1.771h.95a.774.774 0 0 0 .698-.426c.182-.364-.014-.688-.143-.817l-.005-.004-2.01-1.957v-2.577a.746.746 0 0 0-.213-.532.744.744 0 0 0-.532-.214H12.17a.744.744 0 0 0-.532.214.746.746 0 0 0-.214.532v.145L9.83 10.146a.736.736 0 0 0-1.034.003L2.61 15.941a.65.65 0 0 0-.27.467.825.825 0 0 0 .082.449.774.774 0 0 0 .697.425h.895v4.855c0 .275.094.54.29.738.199.197.464.291.739.291h8.485c.275 0 .54-.094.738-.291a1.03 1.03 0 0 0 .29-.738.463.463 0 1 0-.925 0c0 .064-.02.083-.02.083s-.02.02-.083.02h-2.083v-3.497c0-.275-.094-.54-.291-.737a1.03 1.03 0 0 0-.738-.291H8.154c-.275 0-.54.093-.737.29a1.026 1.026 0 0 0-.292.738Zm.946-.082s-.02.019-.02.082v3.497h2.469v-3.497c0-.063-.02-.082-.02-.082s-.02-.02-.083-.02H8.154c-.063 0-.083.02-.083.02Zm6.487 1.924a.463.463 0 1 1-.926 0 .463.463 0 0 1 .926 0Z" fill="#18303F" yggColor="home_night"/></svg>