<svg fill="none" height="25" viewBox="0 0 25 25" width="25"><path clip-rule="evenodd" d="m6.232 4.653v.54a1.272 1.272 0 0 0 -.519.326c-.252.262-.374.616-.374.995v1.587a.372.372 0 0 0 -.028.043l-2.144 3.722a.373.373 0 0 0 -.016.03c-.287.597-.493 1.226-.493 1.969v3.26a.895.895 0 0 0 -.641.27.937.937 0 0 0 -.252.657v.28c0 .914.75 1.58 1.535 1.58h1.19c.208 1.047 1.106 1.86 2.205 1.86 1.098 0 1.996-.813 2.204-1.86h7.205c.208 1.047 1.106 1.86 2.205 1.86 1.098 0 1.996-.813 2.204-1.86h1.369c.379 0 .728-.135.981-.4.252-.262.375-.616.375-.994 0-.38-.123-.733-.375-.995-.029-.031-.06-.06-.092-.087l-.344-2.155c-.105-.653-.538-1.425-1.4-1.585l-2.446-1.019-1.359-3.627-.001-.004c-.25-.649-.961-1.134-1.683-1.134h-2.127v-1.398c0-.379-.123-.733-.375-.995a1.338 1.338 0 0 0 -.982-.398h-1.323v-.468c0-.379-.123-.733-.375-.995a1.334 1.334 0 0 0 -.981-.398h-1.787c-.379 0-.728.134-.981.398-.252.262-.375.616-.375.995zm1.042-.353c-.06.064-.116.175-.116.354v.468h2.647v-.468c0-.18-.056-.29-.117-.354-.059-.061-.156-.113-.313-.113h-1.787c-.157 0-.254.052-.314.113zm-.579 1.748h-.008c-.152.001-.248.052-.306.113-.061.063-.117.175-.117.354v1.398h.861v-1.866h-.43zm3.573 0h-2.217v1.865h2.648v-1.866h-.431zm-2.691 2.79.011.001h4.898v3.634h-1.324a.463.463 0 0 0 -.463.463v6.05h-1.8c-.208-1.048-1.106-1.86-2.205-1.86h-3.11v-3.26c0-.16.013-.316.037-.467h4.448a.463.463 0 0 0 0-.926h-4.164c.021-.05.045-.098.068-.148l.005-.011 2.001-3.475h1.598zm4.048-2.79v1.865h.86v-1.399c0-.18-.056-.29-.117-.354-.059-.061-.157-.113-.314-.113h-.429zm4.479 12.938h-4.479v-5.587h6.242a.476.476 0 0 0 .067-.005.446.446 0 0 0 .106.062l2.679 1.116a.488.488 0 0 0 .11.031c.348.052.611.376.683.825l.272 1.697h-3.475c-1.099 0-1.997.813-2.205 1.861zm1.411-6.513h-4.104v-3.635h2.127c.349 0 .709.258.818.539v.001l1.159 3.094zm.794 5.578c-.71 0-1.324.612-1.324 1.398s.614 1.398 1.324 1.398c.709 0 1.323-.612 1.323-1.398s-.614-1.398-1.323-1.398zm1.794 0h1.779c.157 0 .254.052.313.114.061.063.117.174.117.354s-.056.29-.117.354c-.059.061-.156.113-.313.113h-1.369a2.368 2.368 0 0 0 -.41-.935zm-15.203 0h-2.209v.281c0 .388.321.653.609.653h1.19c.068-.343.211-.662.41-.935zm1.794 0c.71 0 1.324.612 1.324 1.398s-.614 1.398-1.323 1.398c-.71 0-1.324-.612-1.324-1.398s.614-1.398 1.323-1.398zm3.379-5.115a.463.463 0 1 1 -.926 0 .463.463 0 0 1 .926 0zm4.474 2.328a.463.463 0 1 0 0 .926h.808a.463.463 0 0 0 0-.926zm-1.23.463a.463.463 0 1 1 -.926 0 .463.463 0 0 1 .926 0z" fill="#18303f" fill-rule="evenodd"/></svg>