<svg fill="none" height="25" viewBox="0 0 25 25" width="25"><path clip-rule="evenodd" d="m15.164 1.834c-.2 0-.377.127-.44.316l-.175.526-.525.175a.463.463 0 0 0 0 .878l.525.175.175.526a.463.463 0 0 0 .879 0l.175-.526.525-.175a.463.463 0 0 0 0-.878l-.525-.175-.175-.526a.463.463 0 0 0 -.44-.316zm-4.181 2.786a.462.462 0 0 0 -.431.295l-.371.955-.955.37a.463.463 0 0 0 0 .864l.955.371.37.954a.462.462 0 0 0 .864 0l.37-.954.955-.371a.463.463 0 0 0 0-.863l-.954-.371-.371-.955a.463.463 0 0 0 -.432-.295zm0 1.74.014.035a.462.462 0 0 0 .263.264l.035.013-.035.014a.462.462 0 0 0 -.263.264l-.014.034-.013-.034a.463.463 0 0 0 -.264-.264l-.035-.014.035-.013a.463.463 0 0 0 .264-.264l.013-.034zm-4.688-2.732a.463.463 0 0 0 -.44.316l-.174.525-.526.176a.463.463 0 0 0 0 .878l.526.175.175.525a.463.463 0 0 0 .878 0l.175-.525.526-.175a.462.462 0 0 0 0-.878l-.526-.176-.175-.525a.463.463 0 0 0 -.44-.316zm12.52-.3a.462.462 0 0 0 .01.531c.396.545.593 1.082.66 1.773.13 1.784-1.067 3.412-2.767 3.75a.47.47 0 0 0 -.025.005c-.487.126-.92.069-1.398-.073a.463.463 0 0 0 -.505.717c.987 1.358 2.654 2.151 4.352 1.801 2.185-.434 3.675-2.505 3.509-4.73v-.005c-.167-1.976-1.582-3.527-3.341-3.96a.462.462 0 0 0 -.494.192zm2.913 3.844c.132 1.785-1.067 3.415-2.768 3.752l-.003.001c-.885.183-1.784-.04-2.522-.555.154-.015.313-.041.476-.083 2.179-.44 3.664-2.507 3.498-4.729l-.001-.01c-.035-.359-.1-.69-.201-1.006a3.555 3.555 0 0 1 1.52 2.63zm-14.603 11.571v3.497h-2.081c-.064 0-.083-.02-.083-.02s-.02-.019-.02-.082v-5.24a.504.504 0 0 0 -.01-.096.463.463 0 0 0 -.463-.445h-.948l5.795-5.426 2.262 2.046a.462.462 0 0 0 .773-.344v-1.008h.772v2.592c0 .125.05.245.14.332l1.798 1.751h-.966a.463.463 0 0 0 -.463.463v2.234a.463.463 0 1 0 .926 0v-1.771h.95a.774.774 0 0 0 .698-.426c.182-.364-.014-.688-.143-.817l-.005-.004-2.01-1.957v-2.577a.746.746 0 0 0 -.213-.532.744.744 0 0 0 -.532-.214h-1.132a.744.744 0 0 0 -.532.214.746.746 0 0 0 -.214.532v.145l-1.594-1.444a.736.736 0 0 0 -1.034.004l-6.186 5.79a.65.65 0 0 0 -.27.468.825.825 0 0 0 .082.449.774.774 0 0 0 .697.426h.895v4.854c0 .275.094.54.29.738.199.198.464.291.739.291h8.485c.275 0 .54-.093.738-.291a1.03 1.03 0 0 0 .29-.738.463.463 0 1 0 -.925 0c0 .064-.02.083-.02.083s-.02.02-.083.02h-2.083v-3.497c0-.274-.094-.54-.291-.737a1.03 1.03 0 0 0 -.738-.291h-2.262c-.275 0-.54.093-.737.29a1.026 1.026 0 0 0 -.292.738zm.946-.082s-.02.019-.02.082v3.497h2.469v-3.497c0-.063-.02-.082-.02-.082s-.02-.02-.083-.02h-2.263c-.063 0-.083.02-.083.02zm6.487 1.925a.463.463 0 1 1 -.926 0 .463.463 0 0 1 .926 0z" fill="#18303f" fill-rule="evenodd"/></svg>