<svg fill="none" height="25" viewBox="0 0 25 25" width="25"><path clip-rule="evenodd" d="m8.214 2.025a.463.463 0 0 0 -.926 0v1.06a.463.463 0 1 0 .926 0zm-4.277 1.405a.463.463 0 0 0 -.655.654l.771.771a.462.462 0 1 0 .654-.655zm-2.06 4.005a.463.463 0 1 0 0 .926h1.06a.463.463 0 1 0 0-.926zm2.83 4.258a.463.463 0 1 0 -.654-.654l-.77.77a.463.463 0 1 0 .654.655l.77-.77zm3.507 1.021a.463.463 0 0 0 -.926 0v1.06a.463.463 0 1 0 .926 0zm3.333-1.676a.463.463 0 0 0 -.655.654l.771.77a.462.462 0 1 0 .654-.654zm1.022-3.603a.463.463 0 1 0 0 .926h1.06a.463.463 0 1 0 0-.926zm-.252-3.35a.463.463 0 1 0 -.654-.655l-.77.77a.463.463 0 1 0 .654.655zm-4.564.75a3.155 3.155 0 0 0 -3.16 3.16c0 1.829 1.493 3.063 3.16 3.063 1.689 0 3.16-1.352 3.16-3.16 0-1.818-1.386-3.063-3.16-3.063zm-2.234 3.16a2.23 2.23 0 0 1 2.234-2.234c1.308 0 2.234.874 2.234 2.138a2.23 2.23 0 0 1 -2.234 2.233c-1.223 0-2.234-.884-2.234-2.137zm9.941 9.99c-.275 0-.54.094-.738.291a1.03 1.03 0 0 0 -.291.738v3.497h-2.082c-.063 0-.082-.02-.082-.02s-.02-.02-.02-.083v-2.233a.463.463 0 0 0 -.926 0v2.233c0 .275.093.54.291.738.197.197.462.291.737.291h8.486c.275 0 .54-.094.738-.291a1.03 1.03 0 0 0 .291-.738l-.001-4.91h.952a.776.776 0 0 0 .697-.426c.182-.365-.014-.689-.144-.818l-.004-.004-2.01-1.957v-2.577a.742.742 0 0 0 -.214-.533.744.744 0 0 0 -.532-.212h-1.131a.747.747 0 0 0 -.532.212.746.746 0 0 0 -.214.533v.145l-1.596-1.444a.736.736 0 0 0 -1.034.004l-6.184 5.79a.648.648 0 0 0 -.27.468.815.815 0 0 0 .081.448.775.775 0 0 0 .697.426h1.415a.463.463 0 0 0 0-.925h-1.013l5.795-5.427 2.262 2.046a.462.462 0 0 0 .773-.343v-1.007h.771v2.591c0 .125.051.245.14.332l1.799 1.752h-.967a.463.463 0 0 0 -.462.462v5.374c0 .064-.02.083-.02.083s-.019.02-.083.02h-2.084v-3.497c0-.275-.093-.54-.291-.738a1.026 1.026 0 0 0 -.737-.291zm-.103 1.029c0-.064.02-.083.02-.083s.019-.02.083-.02h2.263c.063 0 .083.02.083.02s.02.02.02.083v3.497h-2.469zm-3.573.027a.463.463 0 1 0 0-.926.463.463 0 0 0 0 .926z" fill="#18303f" fill-rule="evenodd"/></svg>