<svg fill="none" height="25" viewBox="0 0 25 25" width="25"><path clip-rule="evenodd" d="m6.232 4.653v.54a1.272 1.272 0 0 0 -.519.326c-.252.262-.374.616-.374.995v1.587a.372.372 0 0 0 -.028.043l-2.144 3.722a.373.373 0 0 0 -.016.03c-.287.597-.493 1.226-.493 1.969v3.26a.895.895 0 0 0 -.64.27.937.937 0 0 0 -.253.657v.28c0 .914.75 1.58 1.535 1.58h1.19c.208 1.047 1.106 1.86 2.205 1.86 1.098 0 1.996-.813 2.204-1.86h7.205c.208 1.047 1.106 1.86 2.205 1.86 1.098 0 1.996-.813 2.204-1.86h1.37c.378 0 .727-.135.98-.4.252-.262.375-.616.375-.994 0-.38-.123-.733-.375-.995a1.077 1.077 0 0 0 -.092-.087l-.344-2.155c-.105-.653-.538-1.425-1.4-1.585l-2.446-1.019-1.359-3.627v-.004c-.25-.649-.962-1.134-1.684-1.134h-2.127v-1.398c0-.379-.123-.733-.375-.995a1.338 1.338 0 0 0 -.982-.398h-1.323v-.468c0-.379-.123-.733-.375-.995a1.334 1.334 0 0 0 -.98-.398h-1.789a1.33 1.33 0 0 0 -.98.398c-.253.262-.376.616-.376.995zm1.042-.353c-.06.064-.116.175-.116.354v.468h2.647v-.468c0-.18-.056-.29-.117-.354-.059-.061-.156-.113-.313-.113h-1.787c-.157 0-.254.052-.314.113zm-.579 1.748h-.008c-.152.001-.248.052-.306.113-.06.063-.117.175-.117.354v1.398h.861v-1.866h-.43zm3.573 0h-2.217v1.865h2.649v-1.866h-.431zm-2.69 2.79.01.001h4.898v3.634h-1.324a.463.463 0 0 0 -.463.463v6.05h-1.799c-.208-1.048-1.106-1.86-2.205-1.86h-3.11v-3.26c0-.16.013-.316.037-.467h4.448a.463.463 0 0 0 0-.926h-4.165l.068-.148.005-.011 2.002-3.476zm4.047-2.79v1.865h.86v-1.399c0-.18-.056-.29-.117-.354-.059-.061-.157-.113-.314-.113h-.429zm4.48 12.938h-4.48v-5.587h6.242a.476.476 0 0 0 .067-.005.446.446 0 0 0 .106.062l2.68 1.116a.488.488 0 0 0 .11.031c.347.052.61.376.682.825l.272 1.697h-3.474c-1.099 0-1.997.813-2.205 1.861zm1.41-6.513h-4.104v-3.635h2.127c.35 0 .71.258.818.539v.001l1.16 3.094zm.794 5.578c-.71 0-1.324.612-1.324 1.398s.614 1.398 1.324 1.398 1.323-.612 1.323-1.398-.614-1.398-1.323-1.398zm1.794 0h1.78c.156 0 .253.052.312.114.061.063.117.174.117.354s-.056.29-.117.354c-.059.061-.156.113-.313.113h-1.369a2.368 2.368 0 0 0 -.41-.935zm-15.203 0h-2.209v.281c0 .388.321.653.61.653h1.19c.067-.343.21-.662.41-.935zm1.794 0c.71 0 1.324.612 1.324 1.398s-.614 1.398-1.323 1.398c-.71 0-1.324-.612-1.324-1.398s.614-1.398 1.323-1.398zm3.38-5.115a.463.463 0 1 1 -.926 0 .463.463 0 0 1 .925 0zm4.473 2.328a.463.463 0 1 0 0 .926h.808a.463.463 0 0 0 0-.926zm-1.23.463a.463.463 0 1 1 -.926 0 .463.463 0 0 1 .926 0z" fill="#18303f" fill-rule="evenodd"/></svg>