<svg width="25" height="25" viewBox="0 0 25 25" fill="none"><g id="hourglass_full"><path id="iconDefault" fill-rule="evenodd" clip-rule="evenodd" d="M5 22.7c0 .224.176.4.4.4H20c.224 0 .4-.176.4-.4 0-.36-.211-.5-.4-.5H5.4c-.19 0-.4.14-.4.5Zm.4 1.4c-.776 0-1.4-.624-1.4-1.4 0-.84.589-1.5 1.4-1.5h.498v-2.7c0-1.646.762-3.387 1.968-4.712a7.299 7.299 0 0 1 2.35-1.738 7.299 7.299 0 0 1-2.35-1.739C6.695 9.025 5.943 7.347 5.9 5.745a.653.653 0 0 1-.001-.068 1.964 1.964 0 0 1-.001-.077V2.8H5.4C4.624 2.8 4 2.176 4 1.4 4 .624 4.624 0 5.4 0H20c.776 0 1.4.624 1.4 1.4 0 .776-.624 1.4-1.4 1.4h-.502v2.9c0 .015 0 .03-.002.045-.043 1.602-.795 3.28-1.965 4.566a7.31 7.31 0 0 1-2.35 1.739 7.31 7.31 0 0 1 2.35 1.738c1.205 1.325 1.967 3.066 1.967 4.711v2.7H20c.81 0 1.4.66 1.4 1.5 0 .777-.624 1.4-1.4 1.4H5.4ZM18.458 6.2h-2.26c-.343 0-.634.129-.982.387l-.974.877c-.908.897-2.302.862-3.273.012l-.005-.004-1-.9a.245.245 0 0 1-.019-.018c-.196-.196-.563-.354-.947-.354h-2.06c.155 1.187.754 2.435 1.668 3.438.901.99 2.075 1.709 3.371 1.907.074-.01.148-.018.222-.024v-.022a.5.5 0 0 1 1 0v.023c.074.006.147.013.221.023 1.295-.198 2.47-.916 3.371-1.907.913-1.003 1.512-2.251 1.667-3.438Zm-1.667 8.26c-.901-.99-2.076-1.707-3.371-1.905a5.786 5.786 0 0 1-1.443 0c-1.296.198-2.47.916-3.371 1.906-1.07 1.175-1.708 2.684-1.708 4.038v2.023c.658-.035 1.843-.121 2.667-.32.642-.155 1.068-.554 1.479-.94.489-.457.957-.896 1.741-.882.756.014 1.201.443 1.663.89.395.38.802.773 1.427.932.804.204 1.957.288 2.623.32V18.5c0-1.354-.638-2.863-1.707-4.038ZM5.4 1.8a.396.396 0 0 1-.4-.4c0-.224.176-.4.4-.4H20c.224 0 .4.176.4.4 0 .224-.176.4-.4.4H5.4ZM12.699 9a.5.5 0 1 1 0 1 .5.5 0 0 1 0-1Zm.5 5.5a.5.5 0 1 0-1 0 .5.5 0 0 0 1 0Zm-.5 1.5a.5.5 0 1 1 0 1 .5.5 0 0 1 0-1Z" fill="#18303F"/></g></svg>