<svg fill="none" height="25" viewBox="0 0 25 25" width="25"><path clip-rule="evenodd" d="m5 22.7c0 .224.176.4.4.4h14.6c.224 0 .4-.176.4-.4 0-.36-.211-.5-.4-.5h-14.6c-.19 0-.4.14-.4.5zm.4 1.4c-.776 0-1.4-.624-1.4-1.4 0-.84.589-1.5 1.4-1.5h.498v-2.7c0-1.646.762-3.387 1.968-4.712a7.299 7.299 0 0 1 2.35-1.738 7.299 7.299 0 0 1 -2.35-1.739c-1.171-1.286-1.923-2.964-1.966-4.566a.653.653 0 0 1 -.001-.068 1.964 1.964 0 0 1 -.001-.077v-2.8h-.498c-.776 0-1.4-.624-1.4-1.4s.624-1.4 1.4-1.4h14.6c.776 0 1.4.624 1.4 1.4s-.624 1.4-1.4 1.4h-.502v2.9c0 .015 0 .03-.002.045-.043 1.602-.795 3.28-1.965 4.566a7.31 7.31 0 0 1 -2.35 1.739 7.31 7.31 0 0 1 2.35 1.738c1.205 1.325 1.967 3.066 1.967 4.711v2.7h.502c.81 0 1.4.66 1.4 1.5 0 .777-.624 1.4-1.4 1.4h-14.6zm13.058-17.9h-2.26c-.343 0-.634.129-.982.387l-.974.877c-.908.897-2.302.862-3.273.012l-.005-.004-1-.9a.245.245 0 0 1 -.02-.018c-.195-.196-.562-.354-.946-.354h-2.06c.155 1.187.754 2.435 1.668 3.438.901.99 2.075 1.709 3.371 1.907.074-.01.148-.018.222-.024v-.022a.5.5 0 0 1 1 0v.023c.074.006.147.013.221.023 1.295-.198 2.47-.916 3.371-1.907.913-1.003 1.512-2.251 1.667-3.438zm-1.667 8.26c-.901-.99-2.076-1.707-3.371-1.905a5.787 5.787 0 0 1 -1.443 0c-1.296.198-2.47.916-3.371 1.906-1.07 1.175-1.708 2.684-1.708 4.038v2.023c.658-.035 1.843-.121 2.667-.32.642-.155 1.068-.554 1.479-.94.489-.457.957-.896 1.74-.882.757.014 1.202.443 1.664.89.395.38.802.773 1.427.932.804.204 1.957.288 2.623.32v-2.022c0-1.354-.638-2.863-1.707-4.038zm-11.391-12.66a.396.396 0 0 1 -.4-.4c0-.224.176-.4.4-.4h14.6c.224 0 .4.176.4.4s-.176.4-.4.4zm7.299 7.2a.5.5 0 1 1 0 1 .5.5 0 0 1 0-1zm.5 5.5a.5.5 0 1 0 -1 0 .5.5 0 0 0 1 0zm-.5 1.5a.5.5 0 1 1 0 1 .5.5 0 0 1 0-1z" fill="#18303f" fill-rule="evenodd"/></svg>