<svg width="25" height="25" viewBox="0 0 25 25" fill="none"><g id="hourglass_empty"><path fill-rule="evenodd" clip-rule="evenodd" d="M3.8 1.85c0-.776.624-1.4 1.4-1.4h14.6c.776 0 1.4.624 1.4 1.4 0 .84-.59 1.5-1.4 1.5h-.502v2.7c0 1.646-.762 3.387-1.967 4.712a7.31 7.31 0 0 1-2.35 1.738 7.31 7.31 0 0 1 2.35 1.739c1.17 1.286 1.922 2.964 1.965 4.566.002.015.002.03.002.045v2.9h.502c.776 0 1.4.624 1.4 1.4 0 .776-.624 1.4-1.4 1.4H5.2c-.776 0-1.4-.624-1.4-1.4 0-.776.624-1.4 1.4-1.4h.498v-2.8l.001-.076v-.024l.001-.045c.043-1.602.795-3.28 1.966-4.566a7.298 7.298 0 0 1 2.35-1.739 7.298 7.298 0 0 1-2.35-1.738C6.46 9.437 5.698 7.696 5.698 6.051v-2.7H5.2c-.81 0-1.4-.66-1.4-1.5Zm1.4-.4c-.224 0-.4.176-.4.4 0 .36.21.5.4.5h14.6c.189 0 .4-.14.4-.5 0-.224-.176-.4-.4-.4H5.2Zm1.498 17.9v2.3h11.6v-2.3h-2.3c-.651 0-1.156-.267-1.6-.6a.463.463 0 0 1-.034-.029l-1-.9a.255.255 0 0 1-.019-.018c-.492-.492-1.29-.524-1.915.02l-.988.89c-.405.399-1.032.637-1.644.637h-2.1Zm11.56-1h-2.26c-.343 0-.634-.129-.982-.387l-.974-.877c-.908-.897-2.302-.862-3.273-.012l-1.005.904a.234.234 0 0 0-.019.018c-.196.196-.563.354-.947.354h-2.06c.155-1.187.754-2.435 1.668-3.438.901-.99 2.075-1.709 3.371-1.907.074.01.148.018.222.024v.022a.5.5 0 0 0 1 0v-.022a5.91 5.91 0 0 0 .221-.024c1.295.198 2.47.916 3.371 1.907.913 1.003 1.512 2.251 1.667 3.438Zm-8.905-7.4h6.291c-.72.537-1.545.91-2.424 1.046a5.786 5.786 0 0 0-1.443 0c-.88-.135-1.704-.51-2.424-1.046Zm-2.655-4.9c0 1.302.59 2.747 1.584 3.9h8.432c.995-1.153 1.584-2.598 1.584-3.9v-2.7h-11.6v2.7ZM4.8 23.15c0-.224.176-.4.4-.4h14.6c.224 0 .4.176.4.4 0 .224-.176.4-.4.4H5.2a.396.396 0 0 1-.4-.4ZM13 15.05a.5.5 0 1 1-1 0 .5.5 0 0 1 1 0Z" fill="#18303F" yggColor="iconDefault"/></g></svg>