<svg width="25" height="25" viewBox="0 0 25 25" fill="none"><g id="house"><path fill-rule="evenodd" clip-rule="evenodd" d="M2.157 10.351c.19-.167 10.627-8.305 10.683-8.33a.479.479 0 0 1 .344.025c.082.04 2.05 1.569 4.157 3.223l.537.42.022-.914c.013-.499.039-.946.06-.989.09-.189.206-.201 1.616-.201 1.45 0 1.522.008 1.625.236.039.081.052.7.056 2.311v2.2l1.251.967c.684.533 1.303 1.03 1.372 1.108.137.155.154.297.064.473-.077.137-1.6 1.654-1.732 1.723-.13.064-.254.06-.4-.018l-.13-.068v1.74c0 1.259-.012 1.77-.05 1.852a.467.467 0 0 1-.38.236c-.124 0-.326-.112-.369-.202-.021-.043-.047-1.036-.06-2.204l-.021-2.123-7.803-6.088-7.802 6.093-.022 11.312h1.204v-2.062c0-2.208 0-2.23.219-2.346a.411.411 0 0 1 .421 0c.22.116.22.138.22 2.346v2.062h13.584v-2.04c0-2.188.004-2.209.22-2.325a.412.412 0 0 1 .42 0c.215.116.22.137.22 2.324v2.041h.989c.773 0 1.018.013 1.113.06.284.15.284.589 0 .74-.18.09-21.391.09-21.572 0-.284-.151-.284-.59 0-.74.095-.047.34-.06 1.114-.06h.988V12.517l-.129.069a.402.402 0 0 1-.421.004c-.193-.103-1.72-1.667-1.75-1.8-.043-.168.005-.314.142-.439Zm20.583.224c-.094-.078-2.317-1.813-4.943-3.863a732.83 732.83 0 0 0-4.798-3.729c-.021 0-9.784 7.618-9.866 7.695-.026.026.12.202.408.49.25.249.465.45.482.45.017 0 1.982-1.52 4.363-3.38 2.382-1.86 4.385-3.408 4.454-3.442a.376.376 0 0 1 .236-.03c.065.013 2.072 1.547 4.497 3.437a477.543 477.543 0 0 0 4.402 3.416c.017 0 .237-.206.482-.456l.451-.45-.168-.138Zm-2.398-2.978c.038.026.051-.3.051-1.56V4.445H18.76v1.929l.765.593c.417.33.787.61.817.631ZM8.592 11.46c.014-.01.03-.018.046-.027a1.38 1.38 0 0 0 .023-.012c.082-.047.903-.056 4.33-.06h.451c3.583 0 3.925 0 4.024.154.01.017.018.035.026.055l.012.027c.073.164.073 8.473 0 8.636a.83.83 0 0 0-.012.027c-.008.02-.016.038-.026.055-.099.155-.44.154-4.012.154h-.45c-3.178 0-4.244-.013-4.325-.051a.946.946 0 0 0-.015-.007l-.013-.005a.37.37 0 0 1-.054-.027c-.155-.098-.155-.44-.155-4.021V15.43c.004-3.556.004-3.865.15-3.97Zm.71 4.025h3.267V12.22H9.302v3.265Zm4.127 0h3.267V12.22H13.43v3.265ZM9.302 19.61h3.267v-3.265H9.302v3.265Zm4.127 0h3.267v-3.265H13.43v3.265Zm-6.9-2.522a.422.422 0 0 0-.137.27c-.022.155-.005.198.107.323.108.12.16.146.31.146s.202-.026.31-.146c.111-.125.128-.168.107-.322-.03-.232-.19-.37-.417-.37a.411.411 0 0 0-.28.1Zm14.724.975c-.426 0-.585-.593-.21-.799a.433.433 0 0 1 .64.374c0 .215-.21.425-.43.425Z" fill="#18303F" yggColor="iconDefault"/></g></svg>