<svg fill="none" height="25" viewBox="0 0 25 25" width="25"><path clip-rule="evenodd" d="m10.189 8.715c-1.011 0-2.006.34-3.066 1.066a.5.5 0 0 1 -.565-.825c1.186-.812 2.375-1.24 3.63-1.24 1.247 0 2.506.42 3.84 1.212 1.022.495 1.808.545 2.377.447a.5.5 0 0 1 .17.985c-.8.139-1.806.043-3.003-.542a.649.649 0 0 1 -.036-.02c-1.242-.739-2.33-1.083-3.347-1.083zm8.468.35a.5.5 0 1 1 -1 0 .5.5 0 0 1 1 0zm-11.817 7.617a.5.5 0 1 0 0-1 .5.5 0 0 0 0 1zm6.695-.015c-1.888-1.123-3.434-1.346-4.95-.79a.5.5 0 0 1 -.343-.94c1.873-.686 3.732-.358 5.786.86 1.293.628 2.217.544 2.806.335a2.45 2.45 0 0 0 .692-.378 1.64 1.64 0 0 0 .23-.214l.002-.002a.5.5 0 0 1 .8.6c-.091.122-.551.639-1.39.936-.861.306-2.07.36-3.597-.387a.636.636 0 0 1 -.036-.02zm-6.413-3.451c1.06-.726 2.055-1.066 3.066-1.066 1.017 0 2.105.344 3.347 1.083a.794.794 0 0 0 .036.02c1.528.746 2.736.692 3.597.387.839-.297 1.299-.815 1.39-.936a.5.5 0 1 0 -.8-.6l-.001.001a1.632 1.632 0 0 1 -.231.214 2.45 2.45 0 0 1 -.692.378c-.59.21-1.513.293-2.806-.334-1.335-.792-2.594-1.213-3.84-1.213-1.256 0-2.445.429-3.631 1.24a.5.5 0 1 0 .565.826z" fill="#18303f" fill-rule="evenodd"/></svg>