<svg width="15" height="15" viewBox="0 0 15 15" fill="none" xmlns="http://www.w3.org/2000/svg">
<path fill-rule="evenodd" clip-rule="evenodd" d="M2.23483 12.8902C2.38128 13.0366 2.61872 13.0366 2.76517 12.8902L7.5 8.15533L12.2348 12.8902C12.3813 13.0366 12.6187 13.0366 12.7652 12.8902C12.9116 12.7437 12.9116 12.5063 12.7652 12.3598L7.76516 7.35984C7.61872 7.21339 7.38128 7.21339 7.23484 7.35984L2.23483 12.3598C2.08839 12.5063 2.08839 12.7437 2.23483 12.8902ZM2.23483 7.89016C2.38128 8.03661 2.61872 8.03661 2.76517 7.89016L7.5 3.15533L12.2348 7.89016C12.3813 8.03661 12.6187 8.03661 12.7652 7.89016C12.9116 7.74372 12.9116 7.50628 12.7652 7.35984L7.76516 2.35983C7.61872 2.21339 7.38128 2.21339 7.23484 2.35983L2.23483 7.35984C2.08839 7.50628 2.08839 7.74372 2.23483 7.89016Z" fill="#18303F"/>
</svg>
