<svg width="15" height="15" viewBox="0 0 15 15" fill="none" xmlns="http://www.w3.org/2000/svg">
<path fill-rule="evenodd" clip-rule="evenodd" d="M7.5 2.375C4.66954 2.375 2.375 4.66954 2.375 7.5C2.375 10.3305 4.66954 12.625 7.5 12.625C10.3305 12.625 12.625 10.3305 12.625 7.5C12.625 4.66954 10.3305 2.375 7.5 2.375ZM1.625 7.5C1.625 4.25533 4.25533 1.625 7.5 1.625C10.7447 1.625 13.375 4.25533 13.375 7.5C13.375 10.7447 10.7447 13.375 7.5 13.375C4.25533 13.375 1.625 10.7447 1.625 7.5ZM7.5 4.625C7.70711 4.625 7.875 4.79289 7.875 5V5.1C7.875 5.30711 7.70711 5.475 7.5 5.475C7.29289 5.475 7.125 5.30711 7.125 5.1V5C7.125 4.79289 7.29289 4.625 7.5 4.625ZM7.5 6.625C7.70711 6.625 7.875 6.79289 7.875 7V10C7.875 10.2071 7.70711 10.375 7.5 10.375C7.29289 10.375 7.125 10.2071 7.125 10V7C7.125 6.79289 7.29289 6.625 7.5 6.625Z" fill="#18303F"/>
</svg>
