<svg width="25" height="25" viewBox="0 0 25 25" fill="none"><path fill-rule="evenodd" clip-rule="evenodd" d="M.769 2.986A1 1 0 0 1 .922 1.77l.866-.866A1 1 0 0 1 3.004.751l2.573 1.522a1 1 0 0 1 .198 1.567l-.003.004 6.504 6.503 3.404-3.404c-.704-1.664-.38-3.586.93-4.897a4.572 4.572 0 0 1 5.218-.903.5.5 0 0 1 .137.805l-1.898 1.898V5h1.152l1.899-1.9a.5.5 0 0 1 .804.138c.833 1.735.493 3.892-.912 5.227-1.3 1.235-3.214 1.622-4.887.92l-2.309 2.31 3.643 2.795 3.982 3.982a2.5 2.5 0 0 1 0 3.536l-1.414 1.414a2.5 2.5 0 0 1-3.536 0l-3.982-3.982-2.795-3.643-2.345 2.345c.702 1.673.314 3.587-.92 4.887-1.336 1.405-3.493 1.745-5.228.912a.5.5 0 0 1-.137-.804l1.899-1.9v-1.151H3.828L1.93 21.983a.5.5 0 0 1-.805-.137 4.573 4.573 0 0 1 .903-5.218c1.311-1.31 3.233-1.634 4.897-.93l3.44-3.44-6.503-6.504-.004.003a1 1 0 0 1-1.567-.198L.769 2.986Zm4.296.15.003-.003-.016-.01.013.014Zm-.206-.126-2.364-1.4-.866.866L3.028 4.84l1.831-1.83ZM3.142 5.034l.013.013-.004.003-.01-.016Zm1.427.013 6.462 6.462.068-.068.006-.007.348-.347.006-.006.068-.068L5.065 4.55l-.496.496Zm7.238 7.1a1.5 1.5 0 0 0-.125 1.969l3.579 4.662 3.935 3.936a1.5 1.5 0 0 0 2.121 0l1.415-1.415a1.5 1.5 0 0 0 0-2.12l-3.936-3.936-4.662-3.579a1.5 1.5 0 0 0-1.97.125l-.357.357Zm3.207-1.067 2.65-2.65a.5.5 0 0 1 .584-.09c1.352.703 2.982.436 4.073-.601.898-.853 1.24-2.17.947-3.375L21.78 5.852a.5.5 0 0 1-.354.147h-1.86a.5.5 0 0 1-.5-.5v-1.86a.5.5 0 0 1 .147-.353l1.49-1.49a3.58 3.58 0 0 0-3.386.957c-1.079 1.08-1.3 2.7-.591 4.064a.5.5 0 0 1-.09.585l-2.99 2.989c.388.067.765.226 1.096.48l.272.209Zm-3.916 3.916-.209-.272a2.493 2.493 0 0 1-.48-1.096l-3.025 3.026a.5.5 0 0 1-.585.09c-1.364-.71-2.985-.488-4.064.591a3.58 3.58 0 0 0-.956 3.385l1.489-1.489a.5.5 0 0 1 .353-.146h1.86a.5.5 0 0 1 .5.5v1.859a.5.5 0 0 1-.147.354l-1.488 1.488c1.205.294 2.522-.05 3.375-.947 1.037-1.091 1.304-2.721.6-4.073a.5.5 0 0 1 .09-.584l2.687-2.686Z" fill="#18303F" yggColor="install"/></svg>