<svg width="25" height="25" viewBox="0 0 25 25" fill="none"><g yggColor="doorphone"><path yggColor="iconDefault" fill-rule="evenodd" clip-rule="evenodd" d="M6 1.5A4.5 4.5 0 0 0 1.5 6v13A4.5 4.5 0 0 0 6 23.5h13a4.5 4.5 0 0 0 4.5-4.5V6A4.5 4.5 0 0 0 19 1.5H6ZM2.5 19v-3.171A4.49 4.49 0 0 0 6 17.5h13a4.49 4.49 0 0 0 3.5-1.671V19a3.5 3.5 0 0 1-3.5 3.5H6A3.5 3.5 0 0 1 2.5 19Zm20-13v7a3.5 3.5 0 0 1-3.5 3.5h-1.856c-.038-2.831-2.084-5.133-4.773-5.133-.116 0-.23.005-.344.013-2.519.186-4.395 2.41-4.431 5.12H6A3.5 3.5 0 0 1 2.5 13V6A3.5 3.5 0 0 1 6 2.5h13A3.5 3.5 0 0 1 22.5 6Zm-7.879 7.178c.906.738 1.501 1.924 1.523 3.322H8.596c.022-1.405.624-2.596 1.537-3.333l.003-.003.004-.003a3.537 3.537 0 0 1 2.835-.741 3.548 3.548 0 0 1 1.629.744l.009.008.008.006ZM12.37 3.969c-1.909 0-3.492 1.626-3.492 3.547 0 1.921 1.583 3.547 3.492 3.547 1.908 0 3.491-1.626 3.491-3.547 0-1.921-1.583-3.547-3.491-3.547ZM9.878 7.516c0-1.386 1.153-2.547 2.492-2.547s2.491 1.16 2.491 2.547c0 1.386-1.152 2.547-2.491 2.547-1.339 0-2.492-1.16-2.492-2.547ZM10 18.5a1.5 1.5 0 1 0 0 3 1.5 1.5 0 0 0 0-3ZM9.5 20a.5.5 0 1 1 1 0 .5.5 0 0 1-1 0Zm7 0a1.5 1.5 0 0 1 1.5-1.5h1a1.5 1.5 0 0 1 0 3h-1a1.5 1.5 0 0 1-1.5-1.5Zm1.5-.5a.5.5 0 0 0 0 1h1a.5.5 0 0 0 0-1h-1Zm-12-1a1.5 1.5 0 1 0 0 3 1.5 1.5 0 0 0 0-3ZM5.5 20a.5.5 0 1 1 1 0 .5.5 0 0 1-1 0Z" fill="#18303F"/></g></svg>