<svg fill="none" height="25" viewBox="0 0 25 25" width="25"><path clip-rule="evenodd" d="m5.5 2.5a3 3 0 0 0 -3 3v3a3 3 0 0 0 3 3h3a3 3 0 0 0 3-3v-3a3 3 0 0 0 -3-3zm3 1h-3a2 2 0 0 0 -2 2v3a2 2 0 0 0 2 2h3a2 2 0 0 0 2-2v-3a2 2 0 0 0 -2-2zm-6 13a3 3 0 0 1 3-3h3a3 3 0 0 1 3 3v3a3 3 0 0 1 -3 3h-3a3 3 0 0 1 -3-3zm3-2h3a2 2 0 0 1 2 2v3a2 2 0 0 1 -2 2h-3a2 2 0 0 1 -2-2v-3a2 2 0 0 1 2-2zm11-1a3 3 0 0 0 -3 3v3a3 3 0 0 0 3 3h3a3 3 0 0 0 3-3v-3a3 3 0 0 0 -3-3zm5 3a2 2 0 0 0 -2-2h-3a2 2 0 0 0 -2 2v3a2 2 0 0 0 2 2h3a2 2 0 0 0 2-2zm-3.5-14a.5.5 0 0 1 .5.5v3.5h3.5a.5.5 0 0 1 0 1h-3.5v3.5a.5.5 0 0 1 -1 0v-3.5h-3.5a.5.5 0 0 1 0-1h3.5v-3.5a.5.5 0 0 1 .5-.5z" fill="#18303f" fill-rule="evenodd"/></svg>