<svg width="25" height="25" viewBox="0 0 25 25" fill="none"><g id="inverter"><path fill-rule="evenodd" clip-rule="evenodd" d="M16.5 1.5A1.5 1.5 0 0 0 15 3v.5H9.743c-.929 0-1.819.369-2.475 1.025L4.025 7.768A3.501 3.501 0 0 0 3 10.243V19a3.501 3.501 0 0 0 3 3.465V23a.5.5 0 0 0 1 0v-.5h2v.5a.5.5 0 0 0 1 0v-.5h2v.5a.5.5 0 0 0 1 0v-.5h5.5A3.5 3.5 0 0 0 22 19V7a3.5 3.5 0 0 0-3-3.465V3a1.5 1.5 0 0 0-1.5-1.5h-1Zm1.5 2V3a.5.5 0 0 0-.5-.5h-1a.5.5 0 0 0-.5.5v.5h2Zm-3 1H9.743a2.5 2.5 0 0 0-1.768.732L4.732 8.475A2.5 2.5 0 0 0 4 10.243V19a2.5 2.5 0 0 0 2.5 2.5h12A2.5 2.5 0 0 0 21 19V7a2.5 2.5 0 0 0-2.5-2.5H15Zm-.896 1.528a.5.5 0 0 1 .335.472v5.071h1.915c.21 0 .364.103.439.159.076.056.144.125.185.166l.008.008c.093.094.146.22.146.353v.006c0 .046 0 .151-.018.262a.853.853 0 0 1-.196.43l-5.466 6.857a.5.5 0 0 1-.891-.312v-5.071H8.646a.737.737 0 0 1-.439-.158c-.076-.057-.144-.126-.185-.167l-.008-.007a.503.503 0 0 1-.146-.354v-.005c0-.047 0-.152.018-.263a.854.854 0 0 1 .196-.43l5.466-6.857a.5.5 0 0 1 .556-.16Zm-5.049 7.4 4.384-5.499v4.142a.5.5 0 0 0 .5.5h2.006l-4.384 5.5v-4.142a.5.5 0 0 0-.5-.5H9.055Z" fill="#18303F" yggColor="iconDefault"/></g></svg>