<svg fill="none" height="25" viewBox="0 0 25 25" width="25"><path clip-rule="evenodd" d="m16.5 1.5a1.5 1.5 0 0 0 -1.5 1.5v.5h-5.257c-.929 0-1.819.369-2.475 1.025l-3.243 3.243a3.501 3.501 0 0 0 -1.025 2.475v8.757a3.501 3.501 0 0 0 3 3.465v.535a.5.5 0 0 0 1 0v-.5h2v.5a.5.5 0 0 0 1 0v-.5h2v.5a.5.5 0 0 0 1 0v-.5h5.5a3.5 3.5 0 0 0 3.5-3.5v-12a3.5 3.5 0 0 0 -3-3.465v-.535a1.5 1.5 0 0 0 -1.5-1.5zm1.5 2v-.5a.5.5 0 0 0 -.5-.5h-1a.5.5 0 0 0 -.5.5v.5zm-3 1h-5.257a2.5 2.5 0 0 0 -1.768.732l-3.243 3.243a2.5 2.5 0 0 0 -.732 1.768v8.757a2.5 2.5 0 0 0 2.5 2.5h12a2.5 2.5 0 0 0 2.5-2.5v-12a2.5 2.5 0 0 0 -2.5-2.5zm-.896 1.528a.5.5 0 0 1 .335.472v5.071h1.915c.21 0 .364.103.439.159.076.056.144.125.185.166l.008.008c.093.094.146.22.146.353v.006c0 .046 0 .151-.018.262a.853.853 0 0 1 -.196.43l-5.466 6.857a.5.5 0 0 1 -.891-.312v-5.071h-1.915a.737.737 0 0 1 -.439-.158c-.076-.057-.144-.126-.185-.167l-.008-.007a.503.503 0 0 1 -.146-.354v-.005c0-.047 0-.152.018-.263a.854.854 0 0 1 .196-.43l5.466-6.857a.5.5 0 0 1 .556-.16zm-5.049 7.4 4.384-5.499v4.142a.5.5 0 0 0 .5.5h2.006l-4.384 5.5v-4.142a.5.5 0 0 0 -.5-.5h-2.006z" fill="#18303f" fill-rule="evenodd"/></svg>