<svg width="25" height="25" viewBox="0 0 25 25" fill="none"><g id="keytag"><path fill-rule="evenodd" clip-rule="evenodd" d="M19.962 4.384a5.002 5.002 0 0 1-3.166 5.284c.034.066.068.133.1.2C18.188 12.45 19 15.543 19 17.558 19 21.672 15.638 25 11.5 25S4 21.672 4 17.558c0-2.015.812-5.107 2.103-7.69.648-1.296 1.43-2.495 2.32-3.378.486-.481 1.018-.883 1.589-1.147a5.001 5.001 0 0 1 9.95-.959ZM13.872 7.2c.492.488.96 1.099 1.392 1.792a3.994 3.994 0 0 1-2.18-.48.51.51 0 0 0-.084-.036 1.5 1.5 0 1 0-.322.953 4.978 4.978 0 0 0 3.129.506c.066.125.13.252.195.38C17.245 12.802 18 15.739 18 17.558 18 21.112 15.094 24 11.5 24S5 21.112 5 17.558c0-1.819.755-4.756 1.998-7.243.619-1.24 1.344-2.335 2.129-3.115.79-.783 1.59-1.2 2.373-1.2.782 0 1.583.417 2.373 1.2Zm5.098-2.693a4.002 4.002 0 0 1-2.663 4.275c-.516-.872-1.096-1.662-1.73-2.292C13.69 5.612 12.65 5 11.5 5c-.17 0-.336.014-.5.039a4.001 4.001 0 0 1 7.97-.531ZM12 8.5a.5.5 0 1 1-1 0 .5.5 0 0 1 1 0Zm5 9a5.5 5.5 0 1 0-11 0 5.5 5.5 0 0 0 11 0ZM11.5 13a4.5 4.5 0 1 1 0 9 4.5 4.5 0 0 1 0-9Z" fill="#18303F" yggColor="iconDefault"/></g></svg>