<svg fill="none" height="25" viewBox="0 0 25 25" width="25"><path clip-rule="evenodd" d="m19.962 4.384a5.002 5.002 0 0 1 -3.166 5.284c.034.066.068.133.1.2 1.292 2.582 2.104 5.675 2.104 7.69 0 4.114-3.362 7.442-7.5 7.442s-7.5-3.328-7.5-7.442c0-2.015.812-5.107 2.103-7.69.648-1.296 1.43-2.495 2.32-3.378.486-.481 1.018-.883 1.589-1.147a5.001 5.001 0 0 1 9.95-.959zm-6.09 2.816c.492.488.96 1.099 1.392 1.792a3.994 3.994 0 0 1 -2.18-.48.51.51 0 0 0 -.084-.036 1.5 1.5 0 1 0 -.322.953 4.978 4.978 0 0 0 3.129.506c.066.125.13.252.195.38 1.243 2.487 1.998 5.424 1.998 7.243 0 3.554-2.906 6.442-6.5 6.442s-6.5-2.888-6.5-6.442c0-1.819.755-4.756 1.998-7.243.619-1.24 1.344-2.335 2.129-3.115.79-.783 1.59-1.2 2.373-1.2.782 0 1.583.417 2.373 1.2zm5.098-2.693a4.002 4.002 0 0 1 -2.663 4.275c-.516-.872-1.096-1.662-1.73-2.292-.887-.878-1.927-1.49-3.077-1.49-.17 0-.336.014-.5.039a4.001 4.001 0 0 1 7.97-.531zm-6.97 3.993a.5.5 0 1 1 -1 0 .5.5 0 0 1 1 0zm5 9a5.5 5.5 0 1 0 -11 0 5.5 5.5 0 0 0 11 0zm-5.5-4.5a4.5 4.5 0 1 1 0 9 4.5 4.5 0 0 1 0-9z" fill="#18303f" fill-rule="evenodd"/></svg>