<svg width="25" height="25" viewBox="0 0 25 25" fill="none"><path fill-rule="evenodd" clip-rule="evenodd" d="M11.532 9.047c-.495-.792-1.034-1.476-1.6-1.99-.724-.656-1.452-1.001-2.164-1.001-.783 0-1.584.417-2.373 1.2-.786.779-1.511 1.875-2.13 3.114-1.243 2.487-1.997 5.425-1.997 7.243 0 3.156 2.29 5.788 5.32 6.337a.5.5 0 0 1-.177.984c-3.492-.633-6.143-3.667-6.143-7.32 0-2.016.812-5.107 2.102-7.69.648-1.297 1.43-2.496 2.32-3.378.486-.482 1.018-.883 1.589-1.148A5.002 5.002 0 0 1 10.65.093a5 5 0 0 1 2.412 9.63c1.122 2.181 1.894 4.742 2.129 6.718a.5.5 0 1 1-.993.118c-.227-1.91-1.001-4.451-2.125-6.569a5.01 5.01 0 0 1-1.522.015 4.973 4.973 0 0 1-1.606-.52 1.5 1.5 0 0 1-2.68-.93 1.5 1.5 0 0 1 3-.024c.03.01.059.022.086.037a3.988 3.988 0 0 0 2.18.48Zm1.042-.21a4.001 4.001 0 1 0-5.307-3.743c.165-.025.33-.038.5-.038 1.05 0 2.007.508 2.837 1.261.73.663 1.392 1.542 1.97 2.52ZM9 17.5A1.5 1.5 0 0 0 7.5 19v4A1.5 1.5 0 0 0 9 24.5h14a1.5 1.5 0 0 0 1.5-1.5v-4a1.5 1.5 0 0 0-1.5-1.5H9ZM8.5 19a.5.5 0 0 1 .5-.5h14a.5.5 0 0 1 .5.5v4a.5.5 0 0 1-.5.5H9a.5.5 0 0 1-.5-.5v-4Zm4.19 1.27a.5.5 0 0 0-.707-.708l-.72.72-.718-.72a.5.5 0 1 0-.707.707l.719.72-.762.761a.5.5 0 0 0 .707.707l.762-.762.762.762a.5.5 0 1 0 .707-.707l-.762-.762.719-.718Zm5 0a.5.5 0 0 0-.707-.708l-.72.72-.718-.72a.5.5 0 1 0-.707.707l.719.72-.762.761a.5.5 0 0 0 .707.707l.762-.762.762.762a.5.5 0 1 0 .707-.707l-.762-.762.719-.718Zm1.84 1.324a.5.5 0 0 0 0 1h2.453a.5.5 0 0 0 0-1H19.53Zm-7.363-4.989a4.502 4.502 0 0 0-8.9.95 4.502 4.502 0 0 0 3.36 4.355.5.5 0 0 1-.253.968 5.5 5.5 0 1 1 6.771-6.483.5.5 0 0 1-.978.21Zm-4.4-7.55a.5.5 0 1 0 0-.998.5.5 0 0 0 0 .999Z" fill="#18303F" yggColor="keytag_pin"/></svg>