<svg fill="none" height="25" viewBox="0 0 26 25" width="26"><path clip-rule="evenodd" d="m11.545 9.047c-.495-.792-1.034-1.476-1.6-1.99-.724-.656-1.452-1.001-2.164-1.001-.783 0-1.584.417-2.373 1.2-.786.779-1.511 1.875-2.13 3.114-1.243 2.487-1.997 5.425-1.997 7.243 0 3.156 2.291 5.788 5.321 6.337a.5.5 0 0 1 -.178.984c-3.492-.633-6.143-3.667-6.143-7.32 0-2.016.812-5.107 2.102-7.69.648-1.297 1.431-2.496 2.321-3.378.485-.482 1.017-.883 1.588-1.148a5.002 5.002 0 0 1 4.372-5.305 5 5 0 0 1 2.412 9.63c1.122 2.181 1.894 4.742 2.129 6.718a.5.5 0 1 1 -.993.118c-.227-1.91-1.001-4.451-2.125-6.569a5.01 5.01 0 0 1 -1.522.015 4.973 4.973 0 0 1 -1.606-.52 1.5 1.5 0 0 1 -2.679-.93 1.5 1.5 0 0 1 3-.024c.029.01.058.022.085.037a3.988 3.988 0 0 0 2.18.48zm1.042-.21a4.001 4.001 0 1 0 -5.307-3.743c.165-.025.331-.038.501-.038 1.049 0 2.006.508 2.836 1.261.731.663 1.392 1.542 1.97 2.52zm-3.574 8.663a1.5 1.5 0 0 0 -1.5 1.5v4a1.5 1.5 0 0 0 1.5 1.5h14a1.5 1.5 0 0 0 1.5-1.5v-4a1.5 1.5 0 0 0 -1.5-1.5zm-.5 1.5a.5.5 0 0 1 .5-.5h14a.5.5 0 0 1 .5.5v4a.5.5 0 0 1 -.5.5h-14a.5.5 0 0 1 -.5-.5zm4.19 1.27a.5.5 0 0 0 -.707-.708l-.719.72-.719-.72a.5.5 0 1 0 -.707.707l.719.72-.762.761a.5.5 0 0 0 .707.707l.762-.762.762.762a.5.5 0 1 0 .707-.707l-.762-.762zm5 0a.5.5 0 0 0 -.707-.708l-.719.72-.719-.72a.5.5 0 1 0 -.707.707l.719.72-.762.761a.5.5 0 0 0 .707.707l.762-.762.762.762a.5.5 0 1 0 .707-.707l-.762-.762zm1.841 1.324a.5.5 0 0 0 0 1h2.452a.5.5 0 0 0 0-1zm-7.364-4.989a4.502 4.502 0 0 0 -8.9.95c0 2.091 1.426 3.85 3.36 4.355a.5.5 0 0 1 -.253.968 5.5 5.5 0 1 1 6.771-6.483.5.5 0 0 1 -.978.21zm-4.4-7.55a.5.5 0 1 0 .001-.998.5.5 0 0 0 -.001.999z" fill="#18303f" fill-rule="evenodd"/></svg>