<svg fill="none" height="25" viewBox="0 0 25 25" width="25"><path clip-rule="evenodd" d="m.5 9a8.5 8.5 0 0 1 8.5-8.5h7a8.5 8.5 0 0 1 8.5 8.5v7a8.5 8.5 0 0 1 -8.5 8.5h-7a8.5 8.5 0 0 1 -8.5-8.5zm8.5-7.5a7.5 7.5 0 0 0 -7.5 7.5v7a7.5 7.5 0 0 0 7.5 7.5h7a7.5 7.5 0 0 0 7.5-7.5v-7a7.5 7.5 0 0 0 -7.5-7.5zm3.5 3.485a.5.5 0 0 0 -.5.5v13.91a.5.5 0 0 0 1 0v-13.91a.5.5 0 0 0 -.5-.5zm-2 1.49a.5.5 0 0 1 .5.5v10.929a.5.5 0 0 1 -1 0v-10.928a.5.5 0 0 1 .5-.5zm-1.5 1.495a.5.5 0 0 0 -1 0v8.94a.5.5 0 0 0 1 0zm-2 1.49a.5.5 0 0 0 -1 0v5.958a.5.5 0 0 0 1 0zm7.5-2.985a.5.5 0 0 0 -.5.5v10.928a.5.5 0 0 0 1 0v-10.927a.5.5 0 0 0 -.5-.5zm2 .993a.5.5 0 0 0 -.5.5v8.94a.5.5 0 0 0 1 0v-8.94a.5.5 0 0 0 -.5-.5zm2 1.492a.5.5 0 0 0 -.5.5v5.958a.5.5 0 0 0 1 0v-5.958a.5.5 0 0 0 -.5-.5z" fill="#18303f" fill-rule="evenodd"/></svg>