<svg width="25" height="25" viewBox="0 0 25 25" fill="none"><g id="kitchen"><path fill-rule="evenodd" clip-rule="evenodd" d="M14.214 2.512a.5.5 0 1 0 0-1 .5.5 0 0 0 0 1Zm2.012 13.876a.5.5 0 1 0 0 1h.93a.5.5 0 1 0 0-1h-.93Zm-5.637 1.928a1.922 1.922 0 1 1 3.843 0 1.922 1.922 0 0 1-3.843 0Zm1.921-.921a.922.922 0 1 0 0 1.843.922.922 0 0 0 0-1.843Zm3.716 1.812a.5.5 0 1 0 0 1h.93a.5.5 0 1 0 0-1h-.93ZM9.67 7.951a.5.5 0 0 1 .5-.5h4.652a.5.5 0 0 1 0 1h-.43v.998c2.221.289 3.744 1.067 4.756 1.87a6.677 6.677 0 0 1 1.332 1.397 4.818 4.818 0 0 1 .367.618l.019.042.006.014.002.005v.001l.001.002a.5.5 0 0 1 .039.192v.448h2.29a.5.5 0 0 1 0 1h-2.29v6.07a2.39 2.39 0 0 1-.69 1.681 2.352 2.352 0 0 1-1.671.7H6.445a2.353 2.353 0 0 1-1.658-.707 2.389 2.389 0 0 1-.683-1.674v-6.07H1.796a.5.5 0 0 1 0-1h2.308v-.448a.5.5 0 0 1 .038-.19l.462.19-.462-.191.001-.002.002-.005.006-.013.02-.043a4.808 4.808 0 0 1 .363-.618 6.617 6.617 0 0 1 1.323-1.399c1.008-.803 2.525-1.58 4.744-1.87v-.998h-.43a.5.5 0 0 1-.5-.5Zm1.93.5v.905a15.67 15.67 0 0 1 1.792 0v-.905h-1.792ZM5.104 14.09h14.81v.408a.523.523 0 0 0 0 .08v6.53c0 .368-.144.72-.4.978a1.352 1.352 0 0 1-.96.402H6.452a1.352 1.352 0 0 1-.951-.407 1.389 1.389 0 0 1-.397-.973V14.09Zm.396-1c.221-.289.54-.637.98-.989 1.086-.865 2.948-1.77 6.018-1.77s4.938.905 6.03 1.771c.442.35.763.7.986.988H5.5Zm5.808-11.078a.5.5 0 1 1-1 0 .5.5 0 0 1 1 0Zm1.703 0a.5.5 0 1 1-1 0 .5.5 0 0 1 1 0Zm1.703 4a.5.5 0 1 1-1 0 .5.5 0 0 1 1 0Zm-3.406 0a.5.5 0 1 1-1 0 .5.5 0 0 1 1 0Zm1.703 0a.5.5 0 1 1-1 0 .5.5 0 0 1 1 0Zm.703-2a.5.5 0 1 1-1 0 .5.5 0 0 1 1 0Zm-3.406 0a.5.5 0 1 1-1 0 .5.5 0 0 1 1 0Zm1.703 0a.5.5 0 1 1-1 0 .5.5 0 0 1 1 0Z" fill="#18303F" yggColor="backgroundAccentDefault"/></g></svg>