<svg fill="none" height="25" viewBox="0 0 25 25" width="25"><path clip-rule="evenodd" d="m14.214 2.512a.5.5 0 1 0 0-1 .5.5 0 0 0 0 1zm2.011 13.876a.5.5 0 1 0 0 1h.93a.5.5 0 1 0 0-1zm-5.636 1.928a1.922 1.922 0 1 1 3.843 0 1.922 1.922 0 0 1 -3.843 0zm1.921-.921a.922.922 0 1 0 0 1.843.922.922 0 0 0 0-1.843zm3.715 1.812a.5.5 0 1 0 0 1h.93a.5.5 0 1 0 0-1zm-6.554-11.256a.5.5 0 0 1 .5-.5h4.652a.5.5 0 0 1 0 1h-.43v.998c2.221.289 3.743 1.067 4.756 1.87a6.677 6.677 0 0 1 1.332 1.397 4.818 4.818 0 0 1 .366.618l.02.042.006.014.002.005v.001l.001.002-.462.192.462-.192a.5.5 0 0 1 .038.192v.448h2.29a.5.5 0 0 1 0 1h-2.29v6.07a2.39 2.39 0 0 1 -.69 1.681 2.352 2.352 0 0 1 -1.67.7h-12.11a2.353 2.353 0 0 1 -1.658-.707 2.389 2.389 0 0 1 -.683-1.674v-6.07h-2.307a.5.5 0 0 1 0-1h2.308v-.448a.5.5 0 0 1 .038-.19l.462.19-.462-.191v-.002l.003-.005.006-.013.019-.043a4.808 4.808 0 0 1 .363-.618 6.617 6.617 0 0 1 1.324-1.399c1.008-.803 2.525-1.58 4.743-1.87v-.998h-.43a.5.5 0 0 1 -.5-.5zm1.93.5v.905a15.67 15.67 0 0 1 1.792 0v-.905h-1.793zm-6.498 5.639h14.81v.408a.523.523 0 0 0 0 .08v6.53c0 .368-.144.72-.4.978a1.352 1.352 0 0 1 -.96.402h-12.102a1.352 1.352 0 0 1 -.952-.407 1.389 1.389 0 0 1 -.396-.973zm.395-1c.222-.289.54-.637.981-.989 1.086-.865 2.948-1.77 6.017-1.77 3.07 0 4.938.905 6.03 1.771.443.35.763.7.987.988h-14.013zm5.808-11.078a.5.5 0 1 1 -1 0 .5.5 0 0 1 1 0zm1.704 0a.5.5 0 1 1 -1 0 .5.5 0 0 1 1 0zm1.703 4a.5.5 0 1 1 -1 0 .5.5 0 0 1 1 0zm-3.407 0a.5.5 0 1 1 -1 0 .5.5 0 0 1 1 0zm1.704 0a.5.5 0 1 1 -1 0 .5.5 0 0 1 1 0zm.703-2a.5.5 0 1 1 -1 0 .5.5 0 0 1 1 0zm-3.407 0a.5.5 0 1 1 -1 0 .5.5 0 0 1 1 0zm1.704 0a.5.5 0 1 1 -1 0 .5.5 0 0 1 1 0z" fill="#f9470b" fill-rule="evenodd"/></svg>