<svg fill="none" height="25" viewBox="0 0 25 25" width="25"><path clip-rule="evenodd" d="m4.083 20.417v-15.834c0-1.196.97-2.166 2.167-2.166h12.5c1.197 0 2.166.97 2.166 2.166v15.834c0 1.196-.97 2.166-2.166 2.166h-12.5a2.167 2.167 0 0 1 -2.167-2.166zm1-15.834c0-.644.522-1.166 1.167-1.166h12.5c.645 0 1.166.522 1.166 1.166v2.834h-14.832v-2.834zm14.833 3.834v12c0 .644-.521 1.166-1.166 1.166h-12.5a1.167 1.167 0 0 1 -1.167-1.166v-12zm-13.256-4.333h3.657a.917.917 0 0 1 .915.865.955.955 0 0 1 -.009.337.522.522 0 0 1 -.042.121l-.417.834v.002a.922.922 0 0 1 -.817.507h-3.123a.5.5 0 0 1 -.447-.276l-.533-1.067-.006-.012a.926.926 0 0 1 .417-1.215l.005-.002.012-.006a.955.955 0 0 1 .387-.088zm.141 1 .333.666h2.756l.335-.666h-3.425zm6.115-.232c.25 0 .5.25.5.5s-.25.5-.5.5-.5-.25-.5-.5.25-.5.5-.5zm2.493 0c.25 0 .5.25.5.5s-.25.5-.5.5-.5-.25-.5-.5.25-.5.5-.5zm2.495 0c.25 0 .5.25.5.5s-.25.5-.5.5-.5-.25-.5-.5.25-.5.5-.5zm-.321 10.148a5.084 5.084 0 0 0 -5.08-5.083h-.005a5.083 5.083 0 1 0 4.049 8.159l.005-.006c.007-.009.015-.018.021-.028a5.061 5.061 0 0 0 1.009-3.042zm-9.167 0a4.084 4.084 0 0 1 3.584-4.053v1.944a2.168 2.168 0 0 0 -1.494 2.958l-1.556 1.173a4.058 4.058 0 0 1 -.534-2.022zm8.166 0a4.084 4.084 0 0 0 -3.58-4.053v1.945a2.167 2.167 0 0 1 1.492 2.957l1.555 1.171c.34-.596.534-1.285.534-2.02zm-3.14.682a.331.331 0 0 1 .03-.036 1.166 1.166 0 1 0 -1.944 0l.03.036a.556.556 0 0 1 .034.05 1.166 1.166 0 0 0 1.816 0 .41.41 0 0 1 .035-.05zm-.941 1.485a2.16 2.16 0 0 1 -1.401-.513l-1.551 1.169a4.07 4.07 0 0 0 2.95 1.26 4.071 4.071 0 0 0 2.951-1.261l-1.55-1.168c-.377.32-.866.513-1.4.513z" fill="#02a8f1" fill-rule="evenodd"/></svg>