<svg width="25" height="25" viewBox="0 0 25 25" fill="none"><path fill-rule="evenodd" clip-rule="evenodd" d="M4.083 20.417V4.583c0-1.196.97-2.166 2.167-2.166h12.5c1.197 0 2.166.97 2.166 2.166v15.834c0 1.196-.97 2.166-2.166 2.166H6.25a2.167 2.167 0 0 1-2.167-2.166Zm1-15.834c0-.644.522-1.166 1.167-1.166h12.5c.645 0 1.166.522 1.166 1.166v2.834H5.084V4.583Zm14.833 3.834v12c0 .644-.521 1.166-1.166 1.166H6.25a1.167 1.167 0 0 1-1.167-1.166v-12h14.833ZM6.66 4.084h3.657a.917.917 0 0 1 .915.865.955.955 0 0 1-.009.337.522.522 0 0 1-.042.121l-.417.834v.002a.922.922 0 0 1-.817.507H6.824a.5.5 0 0 1-.447-.276l-.533-1.067-.006-.012a.926.926 0 0 1 .417-1.215l.005-.002.012-.006a.955.955 0 0 1 .387-.088Zm.141 1 .333.666H9.89l.335-.666H6.8Zm6.115-.232c.25 0 .5.25.5.5s-.25.5-.5.5-.5-.25-.5-.5.25-.5.5-.5Zm2.493 0c.25 0 .5.25.5.5s-.25.5-.5.5-.5-.25-.5-.5.25-.5.5-.5Zm2.495 0c.25 0 .5.25.5.5s-.25.5-.5.5-.5-.25-.5-.5.25-.5.5-.5ZM17.583 15a5.084 5.084 0 0 0-5.08-5.083h-.005a5.083 5.083 0 1 0 4.049 8.159l.005-.006c.007-.009.015-.018.021-.028A5.061 5.061 0 0 0 17.582 15Zm-9.167 0A4.084 4.084 0 0 1 12 10.947v1.944a2.168 2.168 0 0 0-1.494 2.958L8.95 17.022A4.058 4.058 0 0 1 8.416 15Zm8.166 0a4.084 4.084 0 0 0-3.58-4.053v1.945a2.167 2.167 0 0 1 1.492 2.957l1.555 1.171c.34-.596.534-1.285.534-2.02Zm-3.14.682a.331.331 0 0 1 .03-.036 1.166 1.166 0 1 0-1.944 0l.03.036a.556.556 0 0 1 .034.05 1.166 1.166 0 0 0 1.816 0 .41.41 0 0 1 .035-.05Zm-.941 1.485a2.16 2.16 0 0 1-1.401-.513l-1.551 1.169a4.07 4.07 0 0 0 2.95 1.26 4.071 4.071 0 0 0 2.951-1.261l-1.55-1.168c-.377.32-.866.513-1.4.513Z" fill="#18303F" yggColor="laundry"/></svg>