<svg width="25" height="25" viewBox="0 0 25 25" fill="none"><g id="leaf_refresh"><path id="iconDefault" fill-rule="evenodd" clip-rule="evenodd" d="M20.119 6.05C17.423 2.887 12.972 1.714 9.1 3.122c-3.87 1.407-6.566 5.157-6.566 9.38v1.576L1.16 12.703a.5.5 0 1 0-.707.708l2.222 2.221a.498.498 0 0 0 .718 0l2.222-2.221a.5.5 0 0 0-.707-.708l-1.374 1.374V12.5c0-3.796 2.428-7.174 5.907-8.44 3.479-1.264 7.491-.21 9.917 2.64a.5.5 0 0 0 .761-.65Zm1.347 4.873V12.5c0 3.796-2.427 7.174-5.907 8.44-3.478 1.264-7.49.21-9.917-2.64a.5.5 0 1 0-.761.65c2.696 3.164 7.147 4.337 11.019 2.929 3.87-1.407 6.566-5.157 6.566-9.379v-1.577l1.374 1.374a.5.5 0 1 0 .707-.707l-2.226-2.227-.013-.011a.496.496 0 0 0-.339-.136h-.003a.525.525 0 0 0-.191.038.502.502 0 0 0-.163.108l-2.227 2.228a.5.5 0 0 0 .707.707l1.374-1.374Zm-10.096 6.25c-.326-.239-.619-.574-.878-1.008-.398.726-.748 1.48-1.052 2.256a.5.5 0 1 1-.931-.364c.355-.908.772-1.788 1.25-2.632-1.041-.617-1.564-1.382-1.614-2.251-.056-.97.497-1.88 1.1-2.576.824-1.026 1.977-1.394 3.049-1.714l.164-.05c1.048-.311 2.048-.61 2.939-1.345a.5.5 0 0 1 .758.147c.649 1.199.801 2.858.651 4.372-.15 1.509-.614 3.011-1.331 3.883-.649.787-1.56 1.563-2.562 1.689a2.108 2.108 0 0 1-1.543-.408Zm2.22-6.536a.5.5 0 1 1 .67.742 18.129 18.129 0 0 0-3.17 3.769c.286.64.591 1.013.87 1.217.274.2.548.258.829.222.609-.076 1.309-.598 1.914-1.332.535-.65.967-1.923 1.108-3.346.116-1.172.026-2.353-.3-3.264-.91.597-1.877.884-2.73 1.137h-.002l-.199.06c-1.095.327-1.954.63-2.56 1.388l-.013.015c-.559.645-.897 1.3-.864 1.87.025.431.274.95 1.13 1.454a19.101 19.101 0 0 1 3.317-3.932Z" fill="#18303F"/></g></svg>