<svg width="25" height="25" viewBox="0 0 25 25" fill="none"><path fill-rule="evenodd" clip-rule="evenodd" d="M11.567 8.669c1.949 0 3.78-.488 5.485-1.459a.785.785 0 0 1 .054-.024.94.94 0 0 1 .139.198c-.12 1.341-.412 3.586-1.251 5.498-.853 1.946-2.207 3.42-4.427 3.42a3.825 3.825 0 0 1-2.474-.906 9.364 9.364 0 0 1 4.066-3.266.5.5 0 1 0-.385-.923 10.39 10.39 0 0 0-4.367 3.429 3.795 3.795 0 0 1-.657-2.15c0-2.175 1.643-3.817 3.817-3.817Zm-3.742 6.857a4.774 4.774 0 0 1-1.075-3.04c0-2.727 2.091-4.817 4.817-4.817a9.912 9.912 0 0 0 5.026-1.348c.14-.07.311-.14.515-.14.205 0 .376.07.516.14a.501.501 0 0 1 .13.094c.145.145.26.297.343.441.072.126.153.306.153.496a.626.626 0 0 1-.002.043c-.117 1.352-.414 3.783-1.338 5.89-.925 2.108-2.547 4.017-5.343 4.017a4.828 4.828 0 0 1-3.004-1.047 8.648 8.648 0 0 0-.826 2.176.5.5 0 1 1-.974-.225 9.634 9.634 0 0 1 1.062-2.68Zm9.432-8.114-.001-.002.001.002Z" fill="#18303F" yggColor="leaf_up"/></svg>