<svg width="25" height="25" viewBox="0 0 25 25" fill="none"><g id="leaf"><path fill-rule="evenodd" clip-rule="evenodd" d="M19.079.998a.5.5 0 0 1 .758.147c1.316 2.428 1.647 5.856 1.33 9.049-.316 3.187-1.293 6.278-2.728 8.021-1.366 1.66-3.2 3.179-5.124 3.42-.987.123-1.98-.093-2.902-.768-.82-.6-1.563-1.547-2.21-2.887a42.023 42.023 0 0 0-2.8 5.819.5.5 0 1 1-.931-.364 42.978 42.978 0 0 1 2.932-6.07c-2.47-1.313-3.575-2.915-3.675-4.647-.108-1.855.959-3.66 2.227-5.126C7.6 5.54 9.906 4.789 12.222 4.096l.377-.112c2.228-.663 4.477-1.332 6.48-2.986Zm-11.16 15.51c-2.317-1.218-3.12-2.58-3.192-3.848-.084-1.455.766-3.007 1.99-4.42a.154.154 0 0 0 .014-.016c1.427-1.784 3.439-2.47 5.777-3.17.136-.04.273-.08.41-.122 2.036-.604 4.268-1.266 6.304-2.776.967 2.15 1.233 5.087.95 7.939-.308 3.102-1.252 5.963-2.505 7.485-1.322 1.605-2.944 2.87-4.477 3.062-.742.093-1.477-.063-2.187-.582-.721-.528-1.443-1.452-2.093-2.939a.51.51 0 0 0-.101-.15 39.413 39.413 0 0 1 7.083-8.496.5.5 0 0 0-.67-.742 40.399 40.399 0 0 0-7.302 8.774Z" fill="#18303F" yggColor="iconDefault"/></g></svg>