<svg width="25" height="25" viewBox="0 0 25 25" fill="none"><g yggColor="leaf_water"><path yggColor="iconDefault" fill-rule="evenodd" clip-rule="evenodd" d="M21.706 5.658a52.396 52.396 0 0 0-2.274-3.714 52.074 52.074 0 0 0-2.273 3.714 21.38 21.38 0 0 0-1.094 2.255c-.286.713-.438 1.291-.438 1.683 0 2.114 1.667 3.775 3.805 3.775s3.805-1.66 3.805-3.775c0-.392-.152-.97-.438-1.683-.28-.7-.668-1.479-1.093-2.255ZM19.292.898a.827.827 0 0 1 .632.123.572.572 0 0 1 .314.328 53.735 53.735 0 0 1 2.345 3.828c.435.795.844 1.613 1.144 2.364.296.737.51 1.463.51 2.055 0 2.673-2.121 4.775-4.805 4.775-2.683 0-4.805-2.102-4.805-4.775 0-.592.215-1.318.51-2.055.3-.751.709-1.57 1.145-2.364a53.495 53.495 0 0 1 2.39-3.896.496.496 0 0 1 .063-.076c.139-.138.33-.262.557-.307ZM.79 12.166C.978 9.82 2.196 7.552 4.947 6.057a40.545 40.545 0 0 0-2.55-2.047.5.5 0 0 1 .594-.804 41.52 41.52 0 0 1 2.762 2.228l.024-.02C7.189 3.438 9.199 2.72 11.07 2.696c1.866-.023 3.645.642 4.632 1.482a.5.5 0 0 1-.65.762c-.777-.663-2.312-1.265-3.97-1.244-1.633.02-3.335.643-4.53 2.356a.503.503 0 0 1-.05.06 41.898 41.898 0 0 1 8.725 11.457c1.71 2.854 2.664 4.098 4.209 4.937-.608-1.798-.604-3.453-.601-4.69v-.259a.5.5 0 0 1 1 0v.249c-.002 1.271-.005 2.82.589 4.498.11.225.108.461.094.612a2.514 2.514 0 0 1-.08.405l-.002.007a.705.705 0 0 1-.275.383c-.09.063-.185.109-.255.14l-.122.05-.03.013-.051.02a1 1 0 0 0-.117.054.5.5 0 0 1-.21.065c-2.548.207-6.004-.06-9.154-.895-3.115-.825-6.067-2.24-7.461-4.428C1.46 16.956.6 14.538.79 12.166Zm13.572 5.903c1.57 2.621 2.593 4.057 4.12 5.034-2.331.089-5.286-.193-8.004-.913-3.071-.813-5.704-2.15-6.881-4.01a.374.374 0 0 0-.02-.03c-1.187-1.614-1.958-3.806-1.79-5.904.166-2.068 1.242-4.08 3.83-5.412a.516.516 0 0 0 .1-.07l.01-.008a40.9 40.9 0 0 1 8.635 11.313Zm5.07-1.99a.5.5 0 1 0 0-1 .5.5 0 0 0 0 1Z" fill="#18303F"/></g></svg>