<svg width="25" height="25" viewBox="0 0 25 25" fill="none"><g yggColor="leaf_down"><path yggColor="iconDefault" fill-rule="evenodd" clip-rule="evenodd" d="M8.669 11.567c0 1.95-.488 3.78-1.459 5.485a.617.617 0 0 0-.024.055c.063.056.121.096.166.122l.032.016c1.341-.12 3.586-.412 5.498-1.25 1.946-.854 3.42-2.208 3.42-4.428 0-.933-.337-1.802-.906-2.474a9.374 9.374 0 0 0-3.266 4.066.5.5 0 0 1-.923-.385 10.38 10.38 0 0 1 3.429-4.367 3.796 3.796 0 0 0-2.151-.657c-2.174 0-3.816 1.643-3.816 3.817Zm6.857-3.742a4.776 4.776 0 0 0-3.041-1.075c-2.726 0-4.816 2.09-4.816 4.817a9.916 9.916 0 0 1-1.334 5.002l-.014.024c-.069.14-.14.311-.14.515 0 .205.071.376.14.516a.5.5 0 0 0 .094.13c.145.145.297.26.441.343.126.072.306.153.496.153.014 0 .029 0 .043-.002 1.352-.117 3.783-.414 5.889-1.338 2.109-.925 4.018-2.546 4.018-5.343a4.822 4.822 0 0 0-1.048-3.004 8.646 8.646 0 0 1 2.177-.826.5.5 0 1 0-.225-.974 9.669 9.669 0 0 0-2.68 1.062Zm-8.114 9.432H7.41h.002Z" fill="#18303F"/></g></svg>