<svg fill="none" height="25" viewBox="0 0 25 25" width="25"><path clip-rule="evenodd" d="m17.906.712a.747.747 0 0 1 .446-.16c.212 0 .369.102.446.16.073.055.14.121.185.165l.008.008.007.007c.028.028.053.06.073.093.346.566.974 1.616 1.668 2.862l1.818-1.817a.5.5 0 1 1 .707.707l-2.024 2.024c.23.427.462.868.688 1.313.546 1.074 1.064 2.178 1.445 3.174.376.978.644 1.911.644 2.62 0 3.101-2.563 5.664-5.665 5.664a5.6 5.6 0 0 1 -.423-.016l6.043 6.043a.5.5 0 0 1 -.707.707l-7.243-7.244a5.756 5.756 0 0 1 -2.825-2.824l-.697-.698-1.246 1.246c.218.488.417.967.586 1.423.362.975.613 1.91.587 2.624-.005 3.098-2.566 5.655-5.665 5.655a5.637 5.637 0 0 1 -3.762-1.448l-1.265 1.265a.5.5 0 0 1 -.707-.707l1.287-1.287a5.621 5.621 0 0 1 -1.217-3.488c0-.708.268-1.635.644-2.607.382-.988.899-2.083 1.445-3.15.931-1.821 1.961-3.589 2.574-4.64l.017-.03c.099-.168.186-.317.259-.445a.503.503 0 0 1 .08-.103l.007-.007c.043-.043.114-.114.192-.173a.851.851 0 0 1 .199-.113l-4.779-4.778a.5.5 0 0 1 .707-.707l10.057 10.057.188-.188-.001-.032c0-.708.269-1.635.645-2.607.382-.988.899-2.083 1.445-3.15.933-1.824 1.964-3.595 2.576-4.645l.015-.025.086-.148.173-.296a.535.535 0 0 1 .079-.104l.008-.007c.043-.043.114-.114.192-.173zm.449 1.02c.385.635.994 1.666 1.649 2.851l-6.105 6.105c.093-.322.216-.68.365-1.067.365-.943.865-2.004 1.403-3.056.926-1.81 1.951-3.568 2.563-4.617l.125-.215zm-4.648 10.562c.044.465.158.913.331 1.33l2.557 2.557c.544.226 1.138.35 1.757.35 2.55 0 4.665-2.114 4.665-4.664 0-.51-.207-1.294-.577-2.261-.365-.95-.865-2.02-1.403-3.078-.176-.347-.356-.691-.536-1.028zm-2.903 1.488.989-.988-3.345-3.345a60.986 60.986 0 0 1 1.964 3.542c.133.263.265.527.392.791zm-.75.75-7.026 7.026a4.62 4.62 0 0 1 -.93-2.774c0-.509.206-1.287.577-2.246.364-.943.864-2.004 1.402-3.056.926-1.81 1.951-3.568 2.563-4.617l.131-.224c.616.949 1.75 2.84 2.749 4.804.185.363.364.727.534 1.087zm-6.345 7.76.982-.982a.5.5 0 1 0 .407-.407l5.397-5.397c.15.348.287.687.408 1.012.358.966.545 1.744.525 2.246l-.001.02c0 2.55-2.115 4.665-4.665 4.665a4.635 4.635 0 0 1 -3.053-1.157zm13.64-7.904a.5.5 0 1 1 -1.001 0 .5.5 0 0 1 1 0zm1.003 1a.5.5 0 1 0 0-1 .5.5 0 0 0 0 1zm-11.165 6.507a.5.5 0 1 1 -.999.002.5.5 0 0 1 .999-.002z" fill="#18303f" fill-rule="evenodd"/></svg>