<svg fill="none" height="25" viewBox="0 0 25 25" width="25"><path clip-rule="evenodd" d="m18.294.551a.747.747 0 0 0 -.445.161c-.079.059-.15.13-.192.173l-.009.007a.535.535 0 0 0 -.078.104c-.073.127-.16.276-.26.444l-.014.025c-.612 1.05-1.644 2.821-2.576 4.645-.546 1.067-1.064 2.162-1.446 3.15-.375.972-.643 1.899-.643 2.607 0 3.102 2.562 5.665 5.663 5.665 3.102 0 5.665-2.563 5.665-5.665 0-.708-.267-1.64-.643-2.62-.381-.995-.9-2.1-1.445-3.173a79.974 79.974 0 0 0 -2.857-5.089.473.473 0 0 0 -.073-.093l-.008-.007-.008-.008c-.044-.044-.111-.11-.184-.165a.744.744 0 0 0 -.447-.16zm-.122 1.397.125-.215a78.227 78.227 0 0 1 2.683 4.795c.537 1.058 1.037 2.128 1.402 3.078.37.967.577 1.751.577 2.261 0 2.55-2.114 4.665-4.665 4.665-2.55 0-4.664-2.115-4.664-4.665 0-.509.206-1.287.576-2.246.366-.943.866-2.004 1.404-3.056.925-1.81 1.95-3.568 2.563-4.617zm-.881 12.44a.5.5 0 1 1 -1 0 .5.5 0 0 1 1 0zm1.004 1a.5.5 0 1 0 0-1 .5.5 0 0 0 0 1zm-11.665 7.007a.5.5 0 1 0 0-1 .5.5 0 0 0 0 1zm-1.504-.5a.5.5 0 1 0 0-1 .5.5 0 0 0 0 1zm1.134-14.265a.75.75 0 0 1 .446-.16c.284 0 .668.146.768.506.617.937 1.824 2.936 2.881 5.016.546 1.075 1.059 2.181 1.429 3.179.362.975.613 1.91.587 2.624-.005 3.098-2.566 5.655-5.665 5.655-3.102 0-5.664-2.563-5.664-5.665 0-.708.268-1.635.644-2.607.382-.988.899-2.083 1.445-3.15.93-1.821 1.96-3.589 2.573-4.64l.018-.03c.099-.168.186-.317.259-.445a.503.503 0 0 1 .08-.103l.007-.007c.043-.043.114-.114.192-.173zm.455 1.012-.131.224c-.612 1.05-1.637 2.806-2.563 4.617-.538 1.053-1.038 2.113-1.402 3.056-.371.959-.577 1.737-.577 2.246 0 2.55 2.115 4.665 4.664 4.665 2.55 0 4.665-2.115 4.665-4.665v-.02c.02-.502-.166-1.28-.524-2.246-.353-.948-.845-2.017-1.383-3.074a58.179 58.179 0 0 0 -2.75-4.803z" fill="#18303f" fill-rule="evenodd"/></svg>