<svg fill="none" height="25" viewBox="0 0 25 25" width="25"><path clip-rule="evenodd" d="m17.906.712a.747.747 0 0 1 .446-.16c.212 0 .37.102.446.16.073.055.14.121.185.165l.008.008.007.008a.492.492 0 0 1 .073.092 83.93 83.93 0 0 1 1.668 2.862l1.818-1.817a.5.5 0 1 1 .707.707l-2.024 2.024c.23.428.462.869.688 1.313.546 1.074 1.064 2.178 1.445 3.174.376.979.644 1.911.644 2.62 0 3.101-2.563 5.664-5.665 5.664a5.6 5.6 0 0 1 -.423-.016l6.043 6.043a.5.5 0 0 1 -.707.707l-7.243-7.243a5.756 5.756 0 0 1 -2.825-2.825l-.697-.698-1.246 1.246c.218.488.417.967.586 1.423.362.975.613 1.91.587 2.624-.005 3.098-2.566 5.655-5.665 5.655a5.637 5.637 0 0 1 -3.762-1.447l-1.265 1.265a.5.5 0 0 1 -.707-.707l1.287-1.287a5.621 5.621 0 0 1 -1.217-3.487c0-.71.268-1.636.644-2.608.382-.988.899-2.083 1.445-3.15.931-1.82 1.961-3.589 2.574-4.64l.017-.03c.1-.168.186-.317.26-.444a.503.503 0 0 1 .08-.103l.006-.008c.043-.043.114-.114.192-.173a.851.851 0 0 1 .199-.113l-4.779-4.779a.5.5 0 0 1 .707-.707l10.057 10.057.188-.188v-.031c0-.71.268-1.636.644-2.608.382-.988.899-2.083 1.445-3.15.933-1.824 1.964-3.594 2.576-4.645l.015-.025a117.035 117.035 0 0 1 .26-.444.535.535 0 0 1 .078-.103l.008-.008c.043-.043.114-.114.192-.173zm.45 1.02c.384.636.993 1.666 1.648 2.851l-6.104 6.105c.093-.322.216-.68.365-1.067.365-.943.865-2.003 1.403-3.056.926-1.81 1.951-3.568 2.563-4.617l.125-.215zm-4.649 10.562c.044.465.158.913.331 1.33l2.557 2.557a4.572 4.572 0 0 0 1.757.351c2.55 0 4.665-2.115 4.665-4.665 0-.51-.207-1.294-.577-2.261-.365-.95-.865-2.02-1.403-3.078a54.838 54.838 0 0 0 -.536-1.028zm-2.903 1.488.99-.988-3.346-3.345a60.997 60.997 0 0 1 1.964 3.542c.133.263.265.527.392.791zm-.75.75-7.026 7.028a4.62 4.62 0 0 1 -.93-2.774c0-.51.206-1.288.577-2.247.364-.943.864-2.003 1.402-3.056.926-1.81 1.951-3.568 2.563-4.617l.131-.224c.616.949 1.75 2.84 2.75 4.804.184.363.363.727.533 1.087zm-6.345 7.76.982-.982a.5.5 0 1 0 .407-.407l5.397-5.397c.15.348.287.687.408 1.012.358.966.545 1.744.525 2.247v.02c0 2.55-2.116 4.664-4.666 4.664a4.635 4.635 0 0 1 -3.053-1.157zm13.64-7.904a.5.5 0 1 1 -1.001 0 .5.5 0 0 1 1 0zm1.003 1a.5.5 0 1 0 0-1 .5.5 0 0 0 0 1zm-11.165 6.507a.5.5 0 1 1 -.999.002.5.5 0 0 1 1-.002z" fill="#18303f" fill-rule="evenodd"/></svg>