<svg width="25" height="25" viewBox="0 0 25 25" fill="none"><g id="leak_water_on"><path fill-rule="evenodd" clip-rule="evenodd" d="M18.294.551a.747.747 0 0 0-.445.161c-.079.059-.15.13-.192.173l-.009.008a.535.535 0 0 0-.078.103c-.073.127-.16.276-.26.444l-.014.025c-.612 1.05-1.644 2.821-2.576 4.645-.546 1.067-1.064 2.162-1.446 3.15-.375.972-.643 1.899-.643 2.607 0 3.102 2.562 5.665 5.663 5.665 3.102 0 5.665-2.563 5.665-5.665 0-.708-.267-1.64-.643-2.62-.381-.995-.9-2.1-1.445-3.173A79.976 79.976 0 0 0 19.014.985a.473.473 0 0 0-.073-.092l-.008-.008-.008-.008c-.044-.044-.111-.11-.184-.165a.744.744 0 0 0-.447-.16Zm-.122 1.397.125-.215a78.227 78.227 0 0 1 2.683 4.795c.537 1.058 1.037 2.128 1.402 3.078.37.967.577 1.752.577 2.261 0 2.55-2.114 4.665-4.665 4.665-2.55 0-4.664-2.115-4.664-4.665 0-.509.206-1.287.576-2.246.366-.943.866-2.003 1.404-3.056.925-1.81 1.95-3.568 2.563-4.617Zm-.881 12.44a.5.5 0 1 1-1 0 .5.5 0 0 1 1 0Zm1.004 1a.5.5 0 1 0 0-1 .5.5 0 0 0 0 1ZM6.63 22.395a.5.5 0 1 0 0-1 .5.5 0 0 0 0 1Zm-1.504-.5a.5.5 0 1 0 0-1 .5.5 0 0 0 0 1ZM6.26 7.63a.75.75 0 0 1 .446-.16c.284 0 .668.146.768.507.617.936 1.824 2.935 2.881 5.015.546 1.075 1.059 2.181 1.429 3.179.362.975.613 1.91.587 2.624-.005 3.098-2.566 5.655-5.665 5.655-3.102 0-5.664-2.563-5.664-5.665 0-.708.268-1.635.644-2.607.382-.988.899-2.083 1.445-3.15.93-1.82 1.96-3.589 2.573-4.64l.018-.03.259-.444a.503.503 0 0 1 .08-.103l.007-.008c.043-.043.114-.114.192-.173Zm.455 1.012-.131.224c-.612 1.05-1.637 2.806-2.563 4.617-.538 1.053-1.038 2.113-1.402 3.056-.371.959-.577 1.737-.577 2.247 0 2.55 2.115 4.664 4.664 4.664 2.55 0 4.665-2.115 4.665-4.665v-.02c.02-.502-.166-1.28-.524-2.246-.353-.948-.845-2.017-1.383-3.073a58.183 58.183 0 0 0-2.75-4.804Z" fill="#18303F" yggColor="iconDefault"/></g></svg>