<svg width="25" height="25" viewBox="0 0 25 25" fill="none"><g id="leak_water_off"><path fill-rule="evenodd" clip-rule="evenodd" d="M17.906.712a.747.747 0 0 1 .446-.16c.212 0 .37.102.446.16.074.055.14.121.185.165l.008.008.007.008c.028.028.053.059.073.092a83.93 83.93 0 0 1 1.668 2.862l1.818-1.817a.5.5 0 1 1 .707.707L21.24 4.761c.23.428.462.869.688 1.313.546 1.074 1.064 2.178 1.445 3.174.376.979.644 1.911.644 2.62 0 3.101-2.563 5.664-5.665 5.664a5.6 5.6 0 0 1-.423-.016l6.043 6.043a.5.5 0 0 1-.707.707l-7.243-7.243a5.756 5.756 0 0 1-2.825-2.825L12.5 13.5l-1.246 1.246c.218.488.417.967.586 1.423.362.975.613 1.91.587 2.624-.005 3.098-2.566 5.655-5.665 5.655A5.637 5.637 0 0 1 3 23.001l-1.265 1.265a.5.5 0 0 1-.707-.707l1.287-1.287a5.621 5.621 0 0 1-1.217-3.487c0-.71.268-1.636.644-2.608.382-.988.9-2.083 1.445-3.15.931-1.82 1.961-3.589 2.574-4.64l.017-.03c.1-.168.186-.317.26-.444a.503.503 0 0 1 .08-.103l.006-.008c.043-.043.114-.114.192-.173a.851.851 0 0 1 .2-.113l-4.78-4.779a.5.5 0 0 1 .707-.707L12.5 12.087l.188-.188v-.031c0-.71.268-1.636.644-2.608.382-.988.9-2.083 1.445-3.15.933-1.824 1.964-3.594 2.576-4.645l.015-.025.086-.148.173-.296a.535.535 0 0 1 .08-.103l.007-.008c.043-.043.114-.114.192-.173Zm.45 1.02c.384.636.993 1.666 1.648 2.851L13.9 10.688c.093-.322.216-.68.365-1.067.365-.943.865-2.003 1.403-3.056.926-1.81 1.951-3.568 2.563-4.617l.125-.215Zm-4.649 10.562c.044.465.158.913.331 1.33l2.557 2.557c.544.226 1.138.351 1.757.351 2.55 0 4.665-2.115 4.665-4.665 0-.51-.207-1.294-.577-2.261-.365-.95-.865-2.02-1.403-3.078-.176-.347-.356-.691-.536-1.028l-6.794 6.794Zm-2.903 1.488.99-.988-3.346-3.345a60.98 60.98 0 0 1 1.964 3.542c.133.263.265.527.392.791Zm-.75.75L3.028 21.56a4.62 4.62 0 0 1-.93-2.774c0-.51.206-1.288.577-2.247.364-.943.864-2.003 1.402-3.056.926-1.81 1.951-3.568 2.563-4.617l.131-.224c.616.949 1.75 2.84 2.75 4.804.184.363.363.727.533 1.087Zm-6.345 7.76.982-.982a.5.5 0 1 0 .407-.407l5.397-5.397c.15.348.287.687.408 1.012.358.966.545 1.744.525 2.247v.02c0 2.55-2.116 4.664-4.666 4.664a4.635 4.635 0 0 1-3.053-1.157Zm13.64-7.904a.5.5 0 1 1-1.001 0 .5.5 0 0 1 1 0Zm1.003 1a.5.5 0 1 0 0-1 .5.5 0 0 0 0 1ZM7.187 21.895a.5.5 0 1 1-.999.002.5.5 0 0 1 1-.002Z" fill="#18303F" yggColor="iconDefault"/></g></svg>