<svg width="25" height="25" viewBox="0 0 25 25" fill="none"><path fill-rule="evenodd" clip-rule="evenodd" d="M12.5.5C8.07.5 4.514 4.186 4.508 8.715c-.157 3.27 2.109 6.005 4.147 7.566.055.07.116.182.181.35.066.168.122.355.183.557l.018.063c.064.212.138.455.233.655.05.105.13.252.257.376a.96.96 0 0 0-.027.23v2c0 1.672 1.328 3 3 3s3-1.328 3-3v-2c0-.08-.01-.157-.027-.23.127-.124.207-.271.257-.376.095-.2.17-.443.233-.655l.019-.063c.06-.202.116-.389.182-.558.065-.167.126-.28.181-.349 2.036-1.561 4.304-4.295 4.147-7.566C20.486 4.186 16.93.5 12.5.5Zm2.28 17.051.009-.004a.653.653 0 0 0 .038-.07c.057-.12.11-.288.178-.513l.02-.065a7.99 7.99 0 0 1 .207-.632c.09-.23.213-.488.402-.692a.506.506 0 0 1 .064-.058c1.952-1.484 3.934-3.96 3.795-6.765v-.025c0-4.011-3.14-7.227-6.993-7.227-3.852 0-6.992 3.216-6.992 7.227a.5.5 0 0 1-.001.025c-.14 2.805 1.841 5.281 3.794 6.765a.494.494 0 0 1 .065.058c.189.204.313.463.402.692.082.21.15.436.208.632l.02.065c.067.225.12.393.177.513.017.034.03.056.038.07l.01.004a1 1 0 0 1 .279-.04h4a1 1 0 0 1 .28.04Zm-.28 2.96c0 1.12-.88 2-2 2s-2-.88-2-2v-2h4v2Zm-5-14.855c-1.076 0-2 .924-2 2 0 1.077.924 2 2 2h1v2.517a.5.5 0 0 0 1 0V9.656h2V13a1.5 1.5 0 0 1-1.104 1.447.5.5 0 0 0 .263.965 2.502 2.502 0 0 0 1.825-2.13.5.5 0 0 0 .016-.126v-3.5h1c1.076 0 2-.924 2-2s-.924-2-2-2-2 .924-2 2v1h-2v-1c0-1.076-.924-2-2-2Zm0 3c-.524 0-1-.476-1-1 0-.523.476-1 1-1s1 .477 1 1v1h-1Zm5-1c0-.523.476-1 1-1s1 .477 1 1c0 .524-.476 1-1 1h-1v-1ZM11 14.418a.5.5 0 1 0 0-1 .5.5 0 0 0 0 1ZM13 24.5a.5.5 0 1 1-1 0 .5.5 0 0 1 1 0Z" fill="#18303F" yggColor="lighting"/></svg>