<svg fill="none" height="25" viewBox="0 0 25 25" width="25"><g fill="#18303f"><path d="m4.177 4.177a1.458 1.458 0 0 1 1.031-.427h5.209a.625.625 0 0 0 0-1.25h-5.209a2.708 2.708 0 0 0 -2.708 2.708v14.584a2.708 2.708 0 0 0 2.708 2.708h14.584a2.708 2.708 0 0 0 2.708-2.708v-5.209a.625.625 0 0 0 -1.25 0v5.209a1.458 1.458 0 0 1 -1.458 1.458h-14.584a1.458 1.458 0 0 1 -1.458-1.458v-14.584c0-.386.154-.757.427-1.03z"/><path d="m16.042 3.125c0-.345.28-.625.625-.625h5.208a.623.623 0 0 1 .625.625v5.208a.625.625 0 1 1 -1.25 0v-3.7l-6.746 6.746a.625.625 0 1 1 -.883-.883l6.745-6.746h-3.7a.625.625 0 0 1 -.624-.625z"/></g></svg>