<svg fill="none" height="25" viewBox="0 0 25 25" width="25"><path d="m5.209 2.5a2.71 2.71 0 0 0 -2.709 2.709v14.582a2.71 2.71 0 0 0 2.709 2.709h14.582a2.71 2.71 0 0 0 2.709-2.709v-5.207a.625.625 0 0 0 -1.25 0v5.207a1.46 1.46 0 0 1 -1.459 1.459h-14.582a1.459 1.459 0 0 1 -1.459-1.459v-14.582a1.459 1.459 0 0 1 1.459-1.459h5.207a.625.625 0 0 0 0-1.25zm11.457 0a.625.625 0 1 0 0 1.25h3.7l-6.745 6.746a.624.624 0 1 0 .883.883l6.746-6.744v3.699a.625.625 0 1 0 1.25 0v-5.209a.622.622 0 0 0 -.387-.578.618.618 0 0 0 -.238-.047z" fill="#18303f"/></svg>