<svg width="25" height="25" viewBox="0 0 25 25" fill="none"><g yggColor="link"><g yggColor="iconDefault" fill="#18303F"><path d="M4.177 4.177a1.458 1.458 0 0 1 1.031-.427h5.209a.625.625 0 0 0 0-1.25H5.208A2.708 2.708 0 0 0 2.5 5.208v14.584A2.708 2.708 0 0 0 5.208 22.5h14.584a2.708 2.708 0 0 0 2.708-2.708v-5.209a.625.625 0 0 0-1.25 0v5.209a1.458 1.458 0 0 1-1.458 1.458H5.208a1.458 1.458 0 0 1-1.458-1.458V5.208c0-.386.154-.757.427-1.03Z"/><path d="M16.042 3.125c0-.345.28-.625.625-.625h5.208a.623.623 0 0 1 .625.625v5.208a.625.625 0 1 1-1.25 0v-3.7l-6.746 6.746a.625.625 0 1 1-.883-.883l6.745-6.746h-3.7a.625.625 0 0 1-.624-.625Z"/></g></g></svg>