<svg width="15" height="15" viewBox="0 0 15 15" fill="none" xmlns="http://www.w3.org/2000/svg">
<path d="M2.50628 2.50628C2.67038 2.34219 2.89294 2.25 3.125 2.25H6.25C6.45711 2.25 6.625 2.08211 6.625 1.875C6.625 1.66789 6.45711 1.5 6.25 1.5H3.125C2.69402 1.5 2.2807 1.6712 1.97595 1.97595C1.6712 2.2807 1.5 2.69402 1.5 3.125V11.875C1.5 12.306 1.6712 12.7193 1.97595 13.024C2.2807 13.3288 2.69402 13.5 3.125 13.5H11.875C12.306 13.5 12.7193 13.3288 13.024 13.024C13.3288 12.7193 13.5 12.306 13.5 11.875V8.75C13.5 8.54289 13.3321 8.375 13.125 8.375C12.9179 8.375 12.75 8.54289 12.75 8.75V11.875C12.75 12.1071 12.6578 12.3296 12.4937 12.4937C12.3296 12.6578 12.1071 12.75 11.875 12.75H3.125C2.89294 12.75 2.67038 12.6578 2.50628 12.4937C2.34219 12.3296 2.25 12.1071 2.25 11.875V3.125C2.25 2.89294 2.34219 2.67038 2.50628 2.50628Z" fill="#18303F"/>
<path d="M9.625 1.875C9.625 1.66789 9.79289 1.5 10 1.5H13.125C13.1758 1.5 13.2243 1.51012 13.2685 1.52845C13.3128 1.54675 13.3542 1.57388 13.3902 1.60983C13.4634 1.68306 13.5 1.77903 13.5 1.875V5C13.5 5.20711 13.3321 5.375 13.125 5.375C12.9179 5.375 12.75 5.20711 12.75 5V2.78033L8.70266 6.82766C8.55622 6.97411 8.31878 6.97411 8.17234 6.82766C8.02589 6.68122 8.02589 6.44378 8.17234 6.29734L12.2197 2.25H10C9.79289 2.25 9.625 2.08211 9.625 1.875Z" fill="#18303F"/>
</svg>
