<svg width="15" height="15" viewBox="0 0 15 15" fill="none" xmlns="http://www.w3.org/2000/svg">
<path fill-rule="evenodd" clip-rule="evenodd" d="M7.5 1.375C6.3264 1.375 5.375 2.32639 5.375 3.5V4.625H12C12.7594 4.625 13.375 5.24061 13.375 6V12C13.375 12.7594 12.7594 13.375 12 13.375H3C2.24061 13.375 1.625 12.7594 1.625 12V6C1.625 5.24061 2.24061 4.625 3 4.625H4.625V3.5C4.625 1.91218 5.91218 0.625 7.5 0.625C9.08782 0.625 10.375 1.91218 10.375 3.5C10.375 3.70711 10.2071 3.875 10 3.875C9.79289 3.875 9.625 3.70711 9.625 3.5C9.625 2.32639 8.6736 1.375 7.5 1.375ZM3 5.375C2.65482 5.375 2.375 5.65482 2.375 6V12C2.375 12.3452 2.65482 12.625 3 12.625H12C12.3452 12.625 12.625 12.3452 12.625 12V6C12.625 5.65482 12.3452 5.375 12 5.375H3ZM7.5 7.375C6.87868 7.375 6.375 7.87868 6.375 8.5C6.375 9.12132 6.87868 9.625 7.5 9.625C8.12132 9.625 8.625 9.12132 8.625 8.5C8.625 7.87868 8.12132 7.375 7.5 7.375ZM5.625 8.5C5.625 7.46447 6.46447 6.625 7.5 6.625C8.53553 6.625 9.375 7.46447 9.375 8.5C9.375 9.40711 8.73084 10.1638 7.875 10.3375V11C7.875 11.2071 7.70711 11.375 7.5 11.375C7.29289 11.375 7.125 11.2071 7.125 11V10.3375C6.26916 10.1638 5.625 9.40711 5.625 8.5Z" fill="#18303F"/>
</svg>
