<svg fill="none" height="25" viewBox="0 0 25 25" width="25"><path clip-rule="evenodd" d="m12.5 2.5a3.818 3.818 0 0 0 -3.818 3.818v2.849h7.636v-2.849a3.818 3.818 0 0 0 -3.818-3.818zm0-1a4.818 4.818 0 0 1 4.818 4.818v2.87a3.584 3.584 0 0 1 3.182 3.562v1.75a8 8 0 1 1 -16 0v-1.75a3.584 3.584 0 0 1 3.182-3.561v-2.87a4.818 4.818 0 0 1 4.818-4.819zm0 20a7 7 0 0 0 7-7v-1.75a2.583 2.583 0 0 0 -2.583-2.583h-8.834a2.583 2.583 0 0 0 -2.583 2.583v1.75a7 7 0 0 0 7 7zm0-7a1 1 0 1 0 0 2 1 1 0 0 0 0-2zm.5 2.937a2 2 0 1 0 -1 0v.563a.5.5 0 1 0 1 0z" fill="#18303f" fill-rule="evenodd"/></svg>