<svg width="25" height="25" viewBox="0 0 25 25" fill="none"><g yggColor="lock_open"><path yggColor="iconDefault" fill-rule="evenodd" clip-rule="evenodd" d="M12.5 2.292A3.542 3.542 0 0 0 8.96 5.833v1.875H20A2.292 2.292 0 0 1 22.292 10v10A2.292 2.292 0 0 1 20 22.292H5A2.292 2.292 0 0 1 2.708 20V10A2.292 2.292 0 0 1 5 7.708h2.708V5.833a4.792 4.792 0 0 1 9.584 0 .625.625 0 1 1-1.25 0A3.542 3.542 0 0 0 12.5 2.292ZM5 8.958c-.575 0-1.042.467-1.042 1.042v10c0 .575.467 1.042 1.042 1.042h15c.576 0 1.042-.467 1.042-1.042V10c0-.575-.466-1.042-1.042-1.042H5Zm7.5 3.334a1.875 1.875 0 1 0 0 3.75 1.875 1.875 0 0 0 0-3.75Zm-3.125 1.875a3.125 3.125 0 1 1 3.75 3.062v1.104a.625.625 0 0 1-1.25 0V17.23a3.126 3.126 0 0 1-2.5-3.062Z" fill="#18303F"/></g></svg>