<svg width="25" height="25" viewBox="0 0 25 25" fill="none"><g id="lock_open_colorful"><path d="M12.5 25C19.404 25 25 19.404 25 12.5S19.404 0 12.5 0 0 5.596 0 12.5 5.596 25 12.5 25Z" fill="#C70546" yggColor="iconCritical"/><path fill-rule="evenodd" clip-rule="evenodd" d="M13.507 8.396c0-1.686 1.41-3.096 3.096-3.096 1.098 0 2.082.597 2.634 1.487.11.178.204.367.276.566a.36.36 0 0 0 .676-.249 3.831 3.831 0 0 0-.34-.697c-.675-1.087-1.883-1.827-3.246-1.827-2.084 0-3.816 1.732-3.816 3.816v.53a.36.36 0 1 0 .72 0v-.53Zm-2.109 6.221c0 .489-.314.904-.751 1.054v.517a.36.36 0 1 1-.72 0v-.515a1.115 1.115 0 1 1 1.471-1.056Zm-1.508 0a.394.394 0 1 1 .788 0 .394.394 0 0 1-.788 0Zm-3.693-4.382a1.62 1.62 0 0 0-1.617 1.617v4.479c0 .907.416 1.76 1.039 2.383s1.476 1.04 2.384 1.04h4.557c.908 0 1.762-.417 2.384-1.04.623-.622 1.04-1.476 1.04-2.383v-4.479a1.62 1.62 0 0 0-1.618-1.617h-8.17ZM5.3 11.852a.9.9 0 0 1 .897-.897h8.17a.9.9 0 0 1 .896.897v4.479c0 .686-.318 1.364-.828 1.874s-1.188.828-1.875.828H8.003c-.687 0-1.365-.318-1.875-.828S5.3 17.017 5.3 16.331v-4.479ZM20.42 8.37a.36.36 0 1 1-.72 0 .36.36 0 0 1 .72 0Z" fill="#fff" yggColor="iconInverse"/></g></svg>