<svg width="25" height="25" viewBox="0 0 25 25" fill="none"><g id="locked"><path fill-rule="evenodd" clip-rule="evenodd" d="M12.5 2.5a3.818 3.818 0 0 0-3.818 3.818v2.849h7.636V6.318A3.818 3.818 0 0 0 12.5 2.5Zm0-1a4.818 4.818 0 0 1 4.818 4.818v2.87A3.584 3.584 0 0 1 20.5 12.75v1.75a8 8 0 1 1-16 0v-1.75a3.584 3.584 0 0 1 3.182-3.561v-2.87A4.818 4.818 0 0 1 12.5 1.5Zm0 20a7 7 0 0 0 7-7v-1.75a2.583 2.583 0 0 0-2.583-2.583H8.083A2.583 2.583 0 0 0 5.5 12.75v1.75a7 7 0 0 0 7 7Zm0-7a1 1 0 1 0 0 2 1 1 0 0 0 0-2Zm.5 2.937a2 2 0 1 0-1 0V18a.5.5 0 0 0 1 0v-.563Z" fill="#18303F" yggColor="iconDefault"/></g></svg>