<svg fill="none" height="25" viewBox="0 0 25 25" width="25"><path clip-rule="evenodd" d="m12.5 24c6.351 0 11.5-5.149 11.5-11.5s-5.149-11.5-11.5-11.5-11.5 5.149-11.5 11.5 5.149 11.5 11.5 11.5zm0 1c6.904 0 12.5-5.596 12.5-12.5s-5.596-12.5-12.5-12.5-12.5 5.596-12.5 12.5 5.596 12.5 12.5 12.5z" fill="#6d7b82" fill-rule="evenodd"/><path d="m8.793 14.793a1 1 0 1 0 1.414 1.414l2.293-2.293 2.293 2.293a1 1 0 0 0 1.414-1.414l-2.293-2.293 2.293-2.293a1 1 0 0 0 -1.414-1.414l-2.293 2.293-2.293-2.293a1 1 0 0 0 -1.414 1.414l2.293 2.293z" fill="#f28102"/></svg>