<svg width="25" height="25" viewBox="0 0 25 25" fill="none" xmlns="http://www.w3.org/2000/svg">
<g id="lock_open">
<path id="iconDefault" fill-rule="evenodd" clip-rule="evenodd" d="M12.5 2.29163C10.544 2.29163 8.95834 3.87728 8.95834 5.83329V7.70829H20C21.2657 7.70829 22.2917 8.73431 22.2917 9.99996V20C22.2917 21.2656 21.2657 22.2916 20 22.2916H5.00001C3.73436 22.2916 2.70834 21.2656 2.70834 20V9.99996C2.70834 8.73431 3.73436 7.70829 5.00001 7.70829H7.70834V5.83329C7.70834 3.18693 9.85365 1.04163 12.5 1.04163C15.1464 1.04163 17.2917 3.18693 17.2917 5.83329C17.2917 6.17847 17.0119 6.45829 16.6667 6.45829C16.3215 6.45829 16.0417 6.17847 16.0417 5.83329C16.0417 3.87728 14.456 2.29163 12.5 2.29163ZM5.00001 8.95829C4.42471 8.95829 3.95834 9.42466 3.95834 9.99996V20C3.95834 20.5753 4.42471 21.0416 5.00001 21.0416H20C20.5753 21.0416 21.0417 20.5753 21.0417 20V9.99996C21.0417 9.42466 20.5753 8.95829 20 8.95829H5.00001ZM12.5 12.2916C11.4645 12.2916 10.625 13.1311 10.625 14.1666C10.625 15.2022 11.4645 16.0416 12.5 16.0416C13.5355 16.0416 14.375 15.2022 14.375 14.1666C14.375 13.1311 13.5355 12.2916 12.5 12.2916ZM9.37501 14.1666C9.37501 12.4407 10.7741 11.0416 12.5 11.0416C14.2259 11.0416 15.625 12.4407 15.625 14.1666C15.625 15.6785 14.5514 16.9396 13.125 17.2291V18.3333C13.125 18.6785 12.8452 18.9583 12.5 18.9583C12.1548 18.9583 11.875 18.6785 11.875 18.3333V17.2291C10.4486 16.9396 9.37501 15.6785 9.37501 14.1666Z" fill="#18303F"/>
</g>
</svg>
