<svg fill="none" height="25" viewBox="0 0 25 25" width="25"><path clip-rule="evenodd" d="m14.9.71c-5.64-1.149-11.167 1.883-13.457 7.09a.5.5 0 1 0 .915.402c2.109-4.795 7.183-7.562 12.343-6.512 5.165 1.052 8.799 5.545 8.799 10.81s-3.634 9.758-8.799 10.81c-5.166 1.052-10.332-1.722-12.34-6.504a.5.5 0 1 0 -.922.388c2.192 5.219 7.826 8.244 13.461 7.096s9.6-6.055 9.6-11.79-3.965-10.642-9.6-11.79zm-1.546 7.436a.5.5 0 1 0 -.707.708l3.146 3.146h-12.793a.5.5 0 0 0 0 1h12.793l-3.146 3.146a.5.5 0 0 0 .707.708l4-4a.5.5 0 0 0 0-.707l-4-4zm-12.354 4.854a.5.5 0 1 0 0-1 .5.5 0 0 0 0 1z" fill="#18303f" fill-rule="evenodd"/></svg>