<svg fill="none" height="25" viewBox="0 0 25 25" width="25"><path clip-rule="evenodd" d="m14.9.71c-5.64-1.149-11.167 1.883-13.457 7.09a.5.5 0 1 0 .915.403c2.109-4.796 7.183-7.564 12.343-6.513 5.165 1.052 8.799 5.546 8.799 10.81 0 5.265-3.634 9.758-8.799 10.81-5.166 1.052-10.332-1.722-12.34-6.503a.5.5 0 1 0 -.922.387c2.192 5.219 7.826 8.244 13.461 7.096s9.6-6.054 9.6-11.79c0-5.735-3.965-10.642-9.6-11.79zm-1.546 7.437a.5.5 0 1 0 -.707.707l3.146 3.146h-12.793a.5.5 0 0 0 0 1h12.793l-3.146 3.147a.5.5 0 0 0 .707.707l4-4a.5.5 0 0 0 0-.707zm-12.354 4.853a.5.5 0 1 0 0-1 .5.5 0 0 0 0 1z" fill="#18303f" fill-rule="evenodd"/></svg>