<svg fill="none" height="25" viewBox="0 0 25 25" width="25"><path clip-rule="evenodd" d="m10.1 24.29c5.64 1.149 11.167-1.883 13.457-7.089a.5.5 0 0 0 -.915-.402c-2.11 4.794-7.183 7.562-12.343 6.511-5.165-1.052-8.8-5.545-8.8-10.81s3.635-9.758 8.8-10.81c5.165-1.052 10.331 1.722 12.341 6.504a.5.5 0 0 0 .922-.388c-2.193-5.219-7.827-8.244-13.462-7.096s-9.6 6.054-9.6 11.79c0 5.735 3.965 10.642 9.6 11.79zm1.546-7.436a.5.5 0 0 0 .707-.707l-3.146-3.147h12.792a.5.5 0 1 0 0-1h-12.792l3.146-3.146a.5.5 0 0 0 -.707-.708l-4 4-.007.007a.498.498 0 0 0 -.14.347v.011l.001.013a.5.5 0 0 0 .146.33zm11.854-4.354a.5.5 0 1 1 1 0 .5.5 0 0 1 -1 0z" fill="#18303f" fill-rule="evenodd"/></svg>