<svg width="25" height="25" viewBox="0 0 25 25" fill="none"><g id="logout"><path fill-rule="evenodd" clip-rule="evenodd" d="M10.1 24.29c5.64 1.149 11.167-1.883 13.457-7.089a.5.5 0 0 0-.915-.402c-2.11 4.794-7.183 7.562-12.343 6.511-5.165-1.052-8.8-5.545-8.8-10.81 0-5.265 3.635-9.758 8.8-10.81C15.464.638 20.63 3.412 22.64 8.194a.5.5 0 0 0 .922-.388C21.369 2.587 15.735-.438 10.1.71 4.465 1.858.5 6.764.5 12.5c0 5.735 3.965 10.642 9.6 11.79Zm1.546-7.436a.5.5 0 0 0 .707-.707L9.207 13h12.792a.5.5 0 1 0 0-1H9.207l3.146-3.146a.5.5 0 0 0-.707-.708l-4 4-.007.007a.498.498 0 0 0-.14.347v.011l.001.013a.5.5 0 0 0 .146.33l4 4ZM23.5 12.5a.5.5 0 1 1 1 0 .5.5 0 0 1-1 0Z" fill="#18303F" yggColor="iconDefault"/></g></svg>