<svg width="25" height="25" viewBox="0 0 25 25" fill="none"><g id="lounge"><g id="backgroundAccentDefault" fill="#18303F"><path d="M9.855 8.613a.5.5 0 1 0-.722.692l.27.282-.27.282a.5.5 0 0 0 .722.692l.24-.251.24.25a.5.5 0 1 0 .723-.69l-.27-.283.27-.282a.5.5 0 1 0-.722-.692l-.24.251-.241-.25ZM14.666 8.607a.5.5 0 0 0-.711.704l.253.256-.253.256a.5.5 0 1 0 .71.703l.247-.248.246.248a.5.5 0 0 0 .71-.703l-.252-.256.253-.256a.5.5 0 1 0-.711-.704l-.246.25-.246-.25ZM13.018 8.96a.5.5 0 1 1-1-.001.5.5 0 0 1 1 0Z"/><path fill-rule="evenodd" clip-rule="evenodd" d="M12.52 1.177a8.786 8.786 0 0 0-3.858.893 8.868 8.868 0 0 0-3.085 2.5 9.006 9.006 0 0 0-1.771 7.098 3.3 3.3 0 0 0-2.115 1.646 3.338 3.338 0 0 0 .325 3.654c.312.392.707.707 1.155.922a2.37 2.37 0 0 0-.013.24v1.47a2.385 2.385 0 0 0 .7 1.664 2.335 2.335 0 0 0 1.663.68h.426v1.38a.5.5 0 0 0 1 0v-1.38h11.106v1.38a.5.5 0 0 0 1 0v-1.38h.428a2.324 2.324 0 0 0 1.667-.677 2.357 2.357 0 0 0 .697-1.668v-1.47c0-.08-.004-.16-.012-.24.446-.215.84-.53 1.15-.921a3.338 3.338 0 0 0 .326-3.652 3.307 3.307 0 0 0-2.076-1.637 8.997 8.997 0 0 0-1.77-7.108 8.868 8.868 0 0 0-3.085-2.5 8.782 8.782 0 0 0-3.858-.894Zm7.715 10.402a8.036 8.036 0 0 0-.051-3.188 7.976 7.976 0 0 0-1.508-3.204 7.863 7.863 0 0 0-2.737-2.218 7.783 7.783 0 0 0-6.837 0 7.875 7.875 0 0 0-2.738 2.218 8.011 8.011 0 0 0-1.558 6.395l.1.008a3.276 3.276 0 0 1 1.759.73 3.321 3.321 0 0 1 1.21 2.693 28.31 28.31 0 0 1 4.605-.615h.05c1.548.079 3.084.284 4.595.613a3.32 3.32 0 0 1 1.21-2.69 3.276 3.276 0 0 1 1.9-.742ZM6.447 20.944H19.49a1.323 1.323 0 0 0 .953-.387 1.36 1.36 0 0 0 .4-.962v-1.464c0-.294-.092-.58-.263-.817a1.367 1.367 0 0 0-.687-.498l-.01-.003c-.703-.239-1.416-.449-2.136-.63a.498.498 0 0 1-.256-.063 27.318 27.318 0 0 0-4.986-.722c-1.69.087-3.364.331-5.005.727a.503.503 0 0 1-.238.059c-.72.18-1.432.39-2.137.63l-.01.003c-.276.087-.518.26-.691.497a1.398 1.398 0 0 0-.267.817v1.463a1.387 1.387 0 0 0 .404.96 1.338 1.338 0 0 0 .953.39h.932Zm13.756-5.079a28.494 28.494 0 0 0-2.052-.61 2.341 2.341 0 0 1 .819-2.162 2.277 2.277 0 0 1 2.519-.248c.397.214.724.541.94.943a2.342 2.342 0 0 1-.228 2.558 2.313 2.313 0 0 1-.681.58 2.365 2.365 0 0 0-1.317-1.06Zm-13.354-.608c-.686.177-1.366.38-2.04.608a2.36 2.36 0 0 0-1.325 1.062 2.334 2.334 0 0 1-.912-3.14c.215-.4.543-.728.94-.942a2.268 2.268 0 0 1 2.519.248 2.329 2.329 0 0 1 .818 2.164Z"/></g></g></svg>