<svg width="26" height="25" viewBox="0 0 26 25" fill="none"><path fill-rule="evenodd" clip-rule="evenodd" d="M1.906 1.984c0-.196.06-.318.128-.388.065-.068.17-.124.336-.125 3.07.1 5.397.715 6.939 1.502.772.394 1.333.823 1.694 1.237.364.417.503.79.503 1.086v10.202a.49.49 0 1 0 .981 0V5.269c.01-.277.161-.636.545-1.046.392-.419.991-.851 1.791-1.248 1.596-.79 3.927-1.405 6.8-1.504.166.001.271.057.336.125.067.07.128.192.128.388v13.049a.49.49 0 0 0 .98 0V1.984c0-.406-.131-.786-.4-1.067A1.43 1.43 0 0 0 21.615.49H21.6c-2.99.103-5.466.742-7.211 1.607-.871.432-1.577.928-2.072 1.456-.11.117-.21.238-.302.363a3.811 3.811 0 0 0-.272-.35c-.465-.533-1.137-1.032-1.988-1.466C8.051 1.23 5.572.593 2.394.49h-.017c-.406 0-.78.144-1.05.427-.27.281-.402.66-.402 1.067v14.253c0 .403.189.77.437 1.03.246.256.605.462 1.01.464 2.132.044 3.899.358 5.296.808a.49.49 0 1 0 .3-.933c-1.499-.483-3.363-.81-5.58-.856h-.01c-.074 0-.194-.043-.308-.162a.542.542 0 0 1-.164-.351V1.984Zm13.546 9.38v9.929a.49.49 0 0 1-.865.316l-2.4-2.844v-.002a1.098 1.098 0 0 0-.73-.35 1.083 1.083 0 0 0-.782.21c-.417.339-.482 1.037-.148 1.432l2.816 3.148a.49.49 0 1 1-.73.653l-2.82-3.152-.008-.008c-.706-.825-.562-2.157.273-2.834.429-.348.98-.473 1.49-.425.51.048 1.028.273 1.384.69l.002.003 1.538 1.822v-8.623c0-.02.001-.042.004-.063.132-1.033 1.05-1.952 2.157-1.952 1.094 0 2.057.919 2.057 2.015v6.118h2.642c2.556 0 4.668 2.038 4.668 4.557v1.525a.49.49 0 0 1-.98 0v-1.525c0-1.953-1.648-3.576-3.688-3.576H18.2a.49.49 0 0 1-.49-.49v-6.609c0-.53-.499-1.035-1.076-1.035-.556 0-1.091.488-1.18 1.07Z" fill="#18303F" yggColor="manual_book"/></svg>