<svg fill="none" height="25" viewBox="0 0 26 25" width="26"><path clip-rule="evenodd" d="m.98 1.984c0-.196.061-.318.129-.388.064-.068.17-.124.336-.125 3.07.1 5.396.715 6.938 1.502.773.394 1.333.823 1.695 1.237.363.417.503.79.503 1.086v10.202a.49.49 0 1 0 .98 0v-10.229c.01-.277.162-.636.546-1.046.392-.419.99-.851 1.79-1.248 1.597-.79 3.927-1.405 6.8-1.504.167.001.272.057.337.125.067.07.128.192.128.388v13.049a.49.49 0 0 0 .98 0v-13.049c0-.406-.131-.786-.4-1.067a1.43 1.43 0 0 0 -1.052-.427h-.017c-2.99.103-5.465.742-7.21 1.607-.872.432-1.577.928-2.072 1.456-.11.117-.211.238-.302.363a3.811 3.811 0 0 0 -.272-.35c-.465-.533-1.137-1.032-1.988-1.466-1.703-.87-4.182-1.507-7.361-1.61h-.016c-.406 0-.78.144-1.051.427-.271.281-.401.66-.401 1.067v14.253c0 .403.189.77.437 1.03.246.256.604.462 1.01.464 2.132.044 3.899.358 5.296.808a.49.49 0 1 0 .3-.933c-1.499-.483-3.363-.81-5.58-.856h-.01c-.074 0-.194-.043-.308-.162a.542.542 0 0 1 -.165-.351zm13.547 9.38v9.929a.49.49 0 0 1 -.865.316l-2.4-2.844v-.002a1.098 1.098 0 0 0 -.73-.35c-.3-.028-.584.05-.782.21-.417.339-.482 1.037-.148 1.432l2.816 3.148a.49.49 0 1 1 -.731.653l-2.82-3.152-.007-.008c-.707-.825-.562-2.157.273-2.834.428-.348.98-.473 1.49-.425s1.027.273 1.384.69l.002.003 1.537 1.822v-8.623c0-.02.002-.042.004-.063.133-1.033 1.051-1.952 2.157-1.952 1.094 0 2.057.919 2.057 2.015v6.118h2.643c2.556 0 4.668 2.038 4.668 4.557v1.525a.49.49 0 0 1 -.98 0v-1.525c0-1.953-1.649-3.576-3.688-3.576h-3.133a.49.49 0 0 1 -.49-.49v-6.609c0-.53-.5-1.035-1.076-1.035-.556 0-1.092.488-1.181 1.07z" fill="#18303f" fill-rule="evenodd"/></svg>