<svg width="25" height="25" viewBox="0 0 25 25" fill="none"><g id="map"><path fill-rule="evenodd" clip-rule="evenodd" d="M6.823 5.81c0-3.082 2.582-5.55 5.729-5.55 3.147 0 5.729 2.468 5.729 5.55 0 .317-.027.628-.08.931a12.664 12.664 0 0 1-.882 3.421c.025.004.049.01.074.017l6.77 2.083.012.004c.24.08.444.216.585.413.139.195.188.41.188.602v10.52c0 .081-.02.161-.055.233-.08.158-.212.35-.424.483a.96.96 0 0 1-.821.096L17.27 22.76h-.08L8.08 24.728a.527.527 0 0 1-.11.011h-.21a.524.524 0 0 1-.145-.02l-6.77-1.98a1.145 1.145 0 0 1-.603-.419 1.027 1.027 0 0 1-.19-.602v-10.52c0-.081.02-.16.056-.233.078-.158.212-.35.424-.482a.961.961 0 0 1 .818-.096l6.53 1.836.864-.191a12.727 12.727 0 0 1-1.84-5.293 5.386 5.386 0 0 1-.08-.93Zm6.035 9.976a13.289 13.289 0 0 0 3.86-4.369v10.38l-8.333 1.799V13.178l.99-.22a13.4 13.4 0 0 0 2.87 2.828.522.522 0 0 0 .613 0Zm-.306-14.484c-2.606 0-4.688 2.035-4.688 4.508a4.375 4.375 0 0 0 .072.797c.364 3.268 2.084 6.15 4.616 8.107 2.53-1.956 4.25-4.838 4.615-8.105a.483.483 0 0 0 .005-.034c.044-.248.068-.504.068-.766 0-2.472-2.082-4.507-4.688-4.507Zm5.208 20.516V11.382l6.09 1.874c.03.01.047.02.056.025v10.322l-6.146-1.785ZM7.344 23.554v-10.4l-6.25-1.757v10.32a.239.239 0 0 0 .053.025l6.197 1.812Zm5.208-20.277c-1.421 0-2.604 1.117-2.604 2.533 0 1.415 1.183 2.532 2.604 2.532 1.42 0 2.604-1.117 2.604-2.532 0-1.416-1.183-2.533-2.604-2.533ZM10.99 5.81c0-.807.682-1.491 1.562-1.491s1.562.684 1.562 1.49c0 .807-.682 1.491-1.562 1.491s-1.562-.684-1.562-1.49Zm2.03 11.407a.52.52 0 1 1-1.042 0 .52.52 0 0 1 1.042 0Z" fill="#18303F" yggColor="iconDefault"/></g></svg>