<svg fill="none" height="25" viewBox="0 0 25 25" width="25"><path clip-rule="evenodd" d="m6.823 5.81c0-3.082 2.582-5.55 5.729-5.55s5.729 2.468 5.729 5.55a5.4 5.4 0 0 1 -.08.931 12.664 12.664 0 0 1 -.882 3.421c.025.004.049.01.074.017l6.771 2.083.011.004c.241.08.444.216.585.413.139.195.188.41.188.602v10.52a.522.522 0 0 1 -.055.233c-.079.158-.212.35-.424.483a.96.96 0 0 1 -.821.096l-6.378-1.853h-.079l-9.112 1.968a.527.527 0 0 1 -.11.011h-.209a.524.524 0 0 1 -.146-.02l-6.77-1.98a1.145 1.145 0 0 1 -.603-.419 1.027 1.027 0 0 1 -.189-.602v-10.52c0-.081.019-.16.055-.233.079-.158.213-.35.424-.482a.961.961 0 0 1 .818-.096l6.53 1.836.864-.191a12.727 12.727 0 0 1 -1.84-5.293 5.386 5.386 0 0 1 -.08-.93zm6.035 9.976a13.289 13.289 0 0 0 3.861-4.369v10.38l-8.334 1.799v-10.418l.99-.22a13.399 13.399 0 0 0 2.871 2.828.522.522 0 0 0 .612 0zm-.306-14.484c-2.606 0-4.688 2.035-4.688 4.508a4.376 4.376 0 0 0 .072.797c.364 3.268 2.084 6.15 4.616 8.107 2.531-1.956 4.251-4.838 4.615-8.105l.002-.017a4.391 4.391 0 0 0 .07-.783c.001-2.472-2.081-4.507-4.687-4.507zm5.208 20.516v-10.436l6.09 1.874c.03.01.047.02.056.025v10.322zm-10.416 1.736v-10.4l-6.25-1.757v10.32a.239.239 0 0 0 .053.025zm5.208-20.277c-1.421 0-2.604 1.117-2.604 2.533 0 1.415 1.183 2.532 2.604 2.532s2.604-1.117 2.604-2.532c0-1.416-1.183-2.533-2.604-2.533zm-1.562 2.533c0-.807.682-1.491 1.562-1.491s1.562.684 1.562 1.49c0 .807-.682 1.491-1.562 1.491s-1.562-.684-1.562-1.49zm2.03 11.407a.52.52 0 1 1 -1.042 0 .52.52 0 0 1 1.042 0z" fill="#18303f" fill-rule="evenodd"/></svg>