<svg fill="none" height="25" viewBox="0 0 25 25" width="25"><path clip-rule="evenodd" d="m19.697 1.38c.58-.762 1.796-.353 1.796.605v21.032a1 1 0 0 1 -1 1h-15.984a1 1 0 0 1 -.796-1.605zm.796 3.637v-3.032l-15.984 21.032h15.984v-.997h-.875a.5.5 0 0 1 0-1h.875v-1.286h-.875a.5.5 0 0 1 0-1h.875v-1.287h-.875a.5.5 0 0 1 0-1h.875v-1.286h-.875a.5.5 0 0 1 0-1h.875v-1.286h-.875a.5.5 0 0 1 0-1h.875v-1.285h-.875a.5.5 0 0 1 0-1h.875v-1.287h-.875a.5.5 0 0 1 0-1h.875v-1.286h-.875a.5.5 0 0 1 0-1zm-2.96 6.58v7.474a.5.5 0 0 1 -.5.5h-5.26a.5.5 0 0 1 -.41-.788l5.26-7.475a.5.5 0 0 1 .91.288zm-1 1.579-3.797 5.395h3.797v-5.396z" fill="#18303f" fill-rule="evenodd"/></svg>