<svg width="25" height="25" viewBox="0 0 25 25" fill="none"><g id="measure"><path fill-rule="evenodd" clip-rule="evenodd" d="M19.697 1.38c.58-.762 1.796-.353 1.796.605v21.032a1 1 0 0 1-1 1H4.509a1 1 0 0 1-.796-1.605L19.697 1.38Zm.796 3.637V1.985L4.509 23.017h15.984v-.997h-.875a.5.5 0 0 1 0-1h.875v-1.286h-.875a.5.5 0 0 1 0-1h.875v-1.287h-.875a.5.5 0 0 1 0-1h.875v-1.286h-.875a.5.5 0 0 1 0-1h.875v-1.286h-.875a.5.5 0 0 1 0-1h.875V10.59h-.875a.5.5 0 0 1 0-1h.875V8.303h-.875a.5.5 0 0 1 0-1h.875V6.017h-.875a.5.5 0 0 1 0-1h.875Zm-2.96 6.58v7.474a.5.5 0 0 1-.5.5h-5.26a.5.5 0 0 1-.41-.788l5.26-7.475a.5.5 0 0 1 .91.288Zm-1 1.579-3.797 5.395h3.797v-5.396Z" fill="#18303F" yggColor="iconDefault"/></g></svg>