<svg fill="none" height="25" viewBox="0 0 25 25" width="25"><path clip-rule="evenodd" d="m19.507 5.225v7.758h-2.507c-1.976 0-3.5 1.524-3.5 3.5s1.524 3.5 3.5 3.5h.031a3.726 3.726 0 0 0 3.468-3.469l.001-.015v-2.986a.466.466 0 0 0 .007-.083v-11c0-.405-.138-.873-.586-1.191a1.159 1.159 0 0 0 -.688-.27 1.777 1.777 0 0 0 -.716.098l-9.078 3.741c-.678.192-.939.856-.939 1.375v10.8h-2.5c-1.976 0-3.5 1.524-3.5 3.5s1.524 3.5 3.5 3.5h.031a3.726 3.726 0 0 0 3.468-3.469l.001-.031v-11.164zm-.628-3.226-9.088 3.746a.516.516 0 0 1 -.07.023.233.233 0 0 0 -.145.115.583.583 0 0 0 -.076.3v2.055l10.007-4.094v-1.714c0-.185-.055-.303-.177-.384a.428.428 0 0 1 -.071-.058.276.276 0 0 0 -.103-.022.783.783 0 0 0 -.277.033zm-4.379 14.484c0-1.424 1.076-2.5 2.5-2.5h2.5v2.484a2.726 2.726 0 0 1 -2.516 2.516c-1.416-.008-2.484-1.081-2.484-2.5zm-11 4c0-1.424 1.076-2.5 2.5-2.5h2.5v2.484a2.726 2.726 0 0 1 -2.516 2.516c-1.416-.008-2.484-1.081-2.484-2.5z" fill="#18303f" fill-rule="evenodd"/></svg>