<svg fill="none" height="25" viewBox="0 0 25 25" width="25"><path clip-rule="evenodd" d="m15.528 5.293h2.056a5.218 5.218 0 0 0 -10.167 0h2.059a1.508 1.508 0 0 1 0 3.017h-.708l.345.345h.363a1.508 1.508 0 0 1 1.473 1.835l3.07 3.07v-.034c0-.833.675-1.508 1.508-1.508h2.189v-.346h-2.189a1.508 1.508 0 0 1 0-3.017h2.189v-.345h-2.188a1.508 1.508 0 0 1 0-3.017zm-.035 9.741 1.362 1.363c.275-.416.492-.874.639-1.362h-2.001zm2.081 2.082a6.169 6.169 0 0 0 .898-1.861c.19-.656-.337-1.22-.942-1.22h-2.003a.508.508 0 0 1 0-1.017h2.189a1 1 0 0 0 1-1v-.346a1 1 0 0 0 -1-1h-2.189a.508.508 0 0 1 0-1.017h2.189a1 1 0 0 0 1-1v-.345a1 1 0 0 0 -1-1h-2.188a.508.508 0 0 1 0-1.017h2.087c.582 0 1.097-.523.957-1.162a6.217 6.217 0 0 0 -12.144 0c-.139.639.376 1.162.958 1.162h2.09a.509.509 0 0 1 0 1.017h-1.708l-5.07-5.07a.5.5 0 1 0 -.707.707l4.622 4.623a.996.996 0 0 0 -.328.741v.345a1 1 0 0 0 1 1h1.414l.977.977a.509.509 0 0 1 -.2.04h-2.191a1 1 0 0 0 -1 1v.346a1 1 0 0 0 1 1h2.191a.509.509 0 0 1 0 1.017h-2.005c-.605 0-1.132.564-.942 1.22a6.218 6.218 0 0 0 10.401 2.63l1.178 1.18c-1.363 1.333-3.354 2.185-5.607 2.185-4.207 0-7.5-2.97-7.5-6.5a.5.5 0 0 0 -1 0c0 4.203 3.87 7.5 8.5 7.5 2.484 0 4.749-.949 6.315-2.478l3.486 3.486a.5.5 0 1 0 .707-.707l-3.522-3.523c.952-1.206 1.514-2.676 1.514-4.278a.5.5 0 0 0 -1 0c0 1.305-.45 2.533-1.23 3.563l-1.197-1.197zm-1.351.063-5.823-5.823a1.5 1.5 0 0 1 -.924.316h-2.191v.346h2.191a1.508 1.508 0 0 1 0 3.017h-1.97a5.218 5.218 0 0 0 8.717 2.144zm-8.524-8.524-.345-.345h-.069v.345zm8.302 15.595a.5.5 0 0 0 -.5-.5h-6a.5.5 0 0 0 0 1h6a.5.5 0 0 0 .5-.5z" fill="#18303f" fill-rule="evenodd"/></svg>