<svg width="25" height="25" viewBox="0 0 25 25" fill="none"><g id="mic_on"><path fill-rule="evenodd" clip-rule="evenodd" d="M17.583 5.293h-2.056a1.508 1.508 0 0 0 0 3.017h2.188v.345h-2.189a1.508 1.508 0 0 0 0 3.017h2.189v.346h-2.189a1.508 1.508 0 0 0 0 3.017h1.967a5.218 5.218 0 0 1-9.988 0h1.97a1.508 1.508 0 0 0 0-3.017H7.284v-.346h2.191a1.508 1.508 0 0 0 0-3.017H7.284V8.31h2.191a1.508 1.508 0 0 0 0-3.017H7.416a5.218 5.218 0 0 1 10.167 0Zm.988-.162a6.217 6.217 0 0 0-12.144 0c-.139.639.376 1.162.958 1.162h2.09a.509.509 0 0 1 0 1.017H7.284a1 1 0 0 0-1 1v.345a1 1 0 0 0 1 1h2.191a.509.509 0 0 1 0 1.017H7.284a1 1 0 0 0-1 1v.346a1 1 0 0 0 1 1h2.191a.509.509 0 0 1 0 1.017H7.47c-.605 0-1.132.564-.942 1.22a6.218 6.218 0 0 0 11.943 0c.19-.656-.337-1.22-.942-1.22h-2.003a.508.508 0 0 1 0-1.017h2.189a1 1 0 0 0 1-1v-.346a1 1 0 0 0-1-1h-2.189a.508.508 0 0 1 0-1.017h2.189a1 1 0 0 0 1-1V8.31a1 1 0 0 0-1-1h-2.188a.508.508 0 0 1 0-1.017h2.087c.582 0 1.097-.523.957-1.162ZM20.5 14.25a.5.5 0 0 0-.5.5c0 3.53-3.293 6.5-7.5 6.5S5 18.28 5 14.75a.5.5 0 0 0-1 0c0 4.203 3.87 7.5 8.5 7.5s8.5-3.297 8.5-7.5a.5.5 0 0 0-.5-.5Zm-5 9.5a.5.5 0 0 1 0 1h-6a.5.5 0 0 1 0-1h6Z" fill="#18303F" yggColor="iconDefault"/></g></svg>