<svg width="25" height="25" viewBox="0 0 25 25" fill="none"><g yggColor="mic_off"><path yggColor="iconDefault" fill-rule="evenodd" clip-rule="evenodd" d="M15.528 5.293h2.056a5.218 5.218 0 0 0-10.167 0h2.059a1.508 1.508 0 0 1 0 3.017h-.708l.345.345h.363a1.508 1.508 0 0 1 1.473 1.835l3.07 3.07v-.034c0-.833.675-1.508 1.508-1.508h2.189v-.346h-2.189a1.508 1.508 0 0 1 0-3.017h2.189V8.31h-2.188a1.508 1.508 0 0 1 0-3.017Zm-.035 9.741 1.362 1.363c.275-.416.492-.874.639-1.362h-2.001Zm2.081 2.082c.397-.559.703-1.186.898-1.861.19-.656-.337-1.22-.942-1.22h-2.003a.508.508 0 0 1 0-1.017h2.189a1 1 0 0 0 1-1v-.346a1 1 0 0 0-1-1h-2.189a.508.508 0 0 1 0-1.017h2.189a1 1 0 0 0 1-1V8.31a1 1 0 0 0-1-1h-2.188a.508.508 0 0 1 0-1.017h2.087c.582 0 1.097-.523.957-1.162a6.217 6.217 0 0 0-12.144 0c-.139.639.376 1.162.958 1.162h2.09a.509.509 0 0 1 0 1.017H7.768l-5.07-5.07a.5.5 0 1 0-.707.707L6.613 7.57a.996.996 0 0 0-.328.741v.345a1 1 0 0 0 1 1h1.414l.977.977a.509.509 0 0 1-.2.04H7.285a1 1 0 0 0-1 1v.346a1 1 0 0 0 1 1h2.191a.509.509 0 0 1 0 1.017H7.471c-.605 0-1.132.564-.942 1.22a6.218 6.218 0 0 0 10.401 2.63l1.178 1.18c-1.363 1.333-3.354 2.185-5.607 2.185-4.207 0-7.5-2.97-7.5-6.5a.5.5 0 0 0-1 0c0 4.203 3.87 7.5 8.5 7.5 2.484 0 4.749-.949 6.315-2.478l3.486 3.486a.5.5 0 1 0 .707-.707l-3.522-3.523c.952-1.206 1.514-2.676 1.514-4.278a.5.5 0 0 0-1 0c0 1.305-.45 2.533-1.23 3.563l-1.197-1.197Zm-1.351.063L10.4 11.356a1.5 1.5 0 0 1-.924.316H7.285v.346h2.191a1.508 1.508 0 0 1 0 3.017h-1.97a5.218 5.218 0 0 0 8.717 2.144ZM7.699 8.655l-.345-.345h-.069v.345h.414Zm8.302 15.595a.5.5 0 0 0-.5-.5h-6a.5.5 0 0 0 0 1h6a.5.5 0 0 0 .5-.5Z" fill="#18303F"/></g></svg>