<svg fill="none" height="25" viewBox="0 0 25 25" width="25"><g fill="#038c6a"><path d="m11.375 11.282a.5.5 0 0 0 0 1h2.221a.5.5 0 1 0 0-1z"/><path clip-rule="evenodd" d="m17.753 1.272a.905.905 0 0 0 -.45.023l-.002.001a.894.894 0 0 0 -.397.257l-.951 1.103a1.904 1.904 0 0 0 -.461 1.418v.001c.032.345.157.67.358.947a6.893 6.893 0 0 0 -.76 1.243h-1.105a.873.873 0 0 0 -.615.243l-.005.005a.856.856 0 0 0 -.255.616v1.067a1.896 1.896 0 0 0 .237.918h-8.631c-.321.003-.634.128-.866.355a1.206 1.206 0 0 0 -.365.863v3.6l.015 5.568a1 1 0 0 0 1 1h.596l.437 2.04c.34 1.582 2.595 1.582 2.934 0l.437-2.04h7.192l.437 2.04c.34 1.582 2.595 1.582 2.934 0l.437-2.04h.596a1 1 0 0 0 1-1v-.002l-.012-5.567v-3.6c0-.33-.137-.64-.37-.867a1.255 1.255 0 0 0 -.873-.351h-2.674c.154-.279.237-.594.237-.918v-1.066a.839.839 0 0 0 -.253-.614.86.86 0 0 0 -.611-.25h-.725a5.91 5.91 0 0 1 .406-.61c.313.143.662.204 1.011.175a1.996 1.996 0 0 0 1.341-.677l.952-1.097v-.002a.855.855 0 0 0 .198-.43l.001-.007a.858.858 0 0 0 -.81-.976l-.74-.04-.167-.685a.843.843 0 0 0 -.23-.414.867.867 0 0 0 -.413-.227zm-3.045 7.782c.07.028.144.048.22.06h1.062a1 1 0 0 0 .539-.266c.18-.176.279-.41.279-.652v-.93h-1.048a5.76 5.76 0 0 0 -.283 1.23.5.5 0 1 1 -.994-.116c.045-.379.12-.752.227-1.115h-.6v.93a.896.896 0 0 0 .28.652l.001.001a.98.98 0 0 0 .317.206zm-9.985 1.06h10.14c.074.008.15.012.225.012h.768l4.566.057a.208.208 0 0 1 .066.15v3.098h-16.003v-3.099c0-.052.021-.106.064-.148h.001a.253.253 0 0 1 .173-.07zm11.332 0a2.03 2.03 0 0 1 -.199.012l-.994-.012zm0 0 4.367.07a.255.255 0 0 0 -.177-.07zm.655-6.804.789-.915.196.805a.5.5 0 0 0 .46.38l.824.044-.758.874a1.013 1.013 0 0 1 -1.392.115.922.922 0 0 1 -.341-.63.908.908 0 0 1 .222-.673zm-10.2 19.022-.392-1.832h1.764l-.393 1.832c-.113.527-.865.527-.978 0zm1.99-2.832h-.5v-3h.5zm-2-3h.5v3h-.5zm3 3v-3h.5v3zm2.794 0h-1.294v-1.78l1.294 1.781zm-1.216-3.375a1 1 0 0 0 -.117.1 1 1 0 0 0 -.961-.725h-3.5a1 1 0 0 0 -1 1v3h-1l-.014-5.068h16.004l.01 5.068h-5.765a1 1 0 0 0 -.092-1.02l-1.764-2.428a1 1 0 0 0 -1.396-.22zm6.433 6.207-.391-1.832h1.762l-.392 1.832c-.113.527-.865.527-.978 0zm-5.845-5.398.404-.294 1.764 2.427-.405.294z" fill-rule="evenodd"/></g></svg>