<svg width="25" height="25" viewBox="0 0 25 25" fill="none"><g id="miscellaneous_room"><g id="iconSuccess" fill="#038C6A"><path d="M11.375 11.282a.5.5 0 0 0 0 1h2.221a.5.5 0 1 0 0-1h-2.221Z"/><path fill-rule="evenodd" clip-rule="evenodd" d="M17.753 1.272a.905.905 0 0 0-.45.023l-.002.001a.894.894 0 0 0-.397.257l-.951 1.103a1.904 1.904 0 0 0-.461 1.418v.001c.032.345.157.67.358.947a6.893 6.893 0 0 0-.76 1.243h-1.105a.873.873 0 0 0-.615.243l-.005.005a.856.856 0 0 0-.255.616v1.067a1.896 1.896 0 0 0 .237.918H4.716c-.321.003-.634.128-.866.355a1.206 1.206 0 0 0-.365.863v3.6L3.5 19.5a1 1 0 0 0 1 1h.596l.437 2.04c.34 1.582 2.595 1.582 2.934 0l.437-2.04h7.192l.437 2.04c.34 1.582 2.595 1.582 2.934 0l.437-2.04h.596a1 1 0 0 0 1-1v-.002l-.012-5.567v-3.6c0-.33-.137-.64-.37-.867a1.255 1.255 0 0 0-.873-.351h-2.674c.154-.279.237-.594.237-.918V7.129a.839.839 0 0 0-.253-.614.86.86 0 0 0-.611-.25h-.725a5.91 5.91 0 0 1 .406-.61c.313.143.662.204 1.011.175a1.996 1.996 0 0 0 1.341-.677l.952-1.097v-.002a.855.855 0 0 0 .198-.43l.001-.007a.858.858 0 0 0-.81-.976l-.74-.04-.167-.685a.843.843 0 0 0-.23-.414.867.867 0 0 0-.413-.227l-.015-.003Zm-3.045 7.782c.07.028.144.048.22.06h1.062a1 1 0 0 0 .539-.266c.18-.176.279-.41.279-.652v-.93H15.76a5.76 5.76 0 0 0-.283 1.23.5.5 0 1 1-.994-.116c.045-.379.12-.752.227-1.115h-.6v.93a.896.896 0 0 0 .28.652l.001.001a.98.98 0 0 0 .317.206Zm-9.985 1.06h10.14c.074.008.15.012.225.012h.768l4.566.057a.208.208 0 0 1 .066.15v3.098H4.485v-3.099c0-.052.021-.106.064-.148h.001a.253.253 0 0 1 .173-.07Zm11.332 0a2.03 2.03 0 0 1-.199.012l-.994-.012h1.193Zm0 0 4.367.07a.255.255 0 0 0-.177-.07h-4.19Zm.655-6.804.789-.915.196.805a.5.5 0 0 0 .46.38l.824.044-.758.874a1.013 1.013 0 0 1-1.392.115.922.922 0 0 1-.341-.63.908.908 0 0 1 .222-.673ZM6.51 22.332 6.118 20.5h1.764l-.393 1.832c-.113.527-.865.527-.978 0ZM8.5 19.5H8v-3h.5v3Zm-2-3H7v3h-.5v-3Zm3 3v-3h.5v3h-.5Zm2.794 0H11V17.72l1.294 1.781Zm-1.216-3.375a1 1 0 0 0-.117.1A1 1 0 0 0 10 15.5H6.5a1 1 0 0 0-1 1v3h-1l-.014-5.068H20.49L20.5 19.5h-5.765a1 1 0 0 0-.092-1.02l-1.764-2.428a1 1 0 0 0-1.396-.22l-.405.293Zm6.433 6.207L17.12 20.5h1.762l-.392 1.832c-.113.527-.865.527-.978 0Zm-5.845-5.398.404-.294 1.764 2.427-.405.294-1.763-2.427Z"/></g></g></svg>