<svg width="25" height="25" viewBox="0 0 25 25" fill="none"><g id="miscellaneous_room"><path fill-rule="evenodd" clip-rule="evenodd" d="M11.375 11.282a.5.5 0 1 0 0 1h2.22a.5.5 0 1 0 0-1h-2.22Zm6.378-10.01a.905.905 0 0 0-.45.023l-.003.001a.894.894 0 0 0-.396.257l-.951 1.103a1.904 1.904 0 0 0-.461 1.418v.001c.032.345.157.67.357.947a6.893 6.893 0 0 0-.759 1.243h-1.105a.873.873 0 0 0-.615.243l-.005.005a.856.856 0 0 0-.255.616v1.067a1.895 1.895 0 0 0 .237.918H4.715c-.32.003-.633.128-.865.355a1.206 1.206 0 0 0-.365.863v3.6L3.5 19.5a1 1 0 0 0 1 1h.596l.437 2.04c.339 1.582 2.595 1.582 2.934 0l.437-2.04h7.192l.437 2.04c.339 1.582 2.595 1.582 2.934 0l.437-2.04h.596a1 1 0 0 0 1-1v-.002l-.012-5.567v-3.6c0-.33-.137-.64-.37-.867a1.255 1.255 0 0 0-.873-.351H17.57c.155-.279.238-.594.238-.918V7.129a.839.839 0 0 0-.253-.614.862.862 0 0 0-.611-.25h-.725a5.91 5.91 0 0 1 .406-.61c.313.143.662.204 1.011.175a1.996 1.996 0 0 0 1.34-.677l.953-1.097v-.002a.854.854 0 0 0 .198-.43l.001-.007a.857.857 0 0 0-.369-.826.878.878 0 0 0-.442-.15l-.739-.04-.167-.685a.844.844 0 0 0-.231-.414.867.867 0 0 0-.412-.227l-.015-.003Zm-3.045 7.782c.07.028.144.048.22.06h1.062a1 1 0 0 0 .539-.266c.18-.176.279-.41.279-.652v-.93H15.76a5.76 5.76 0 0 0-.284 1.23.5.5 0 0 1-.993-.116c.044-.379.12-.752.227-1.115h-.6v.93a.896.896 0 0 0 .28.652v.001a.98.98 0 0 0 .318.206Zm-9.985 1.06h10.14c.074.008.15.012.225.012h.768l4.566.057a.209.209 0 0 1 .066.15v3.098H4.485v-3.099c0-.052.021-.106.064-.148h.001a.253.253 0 0 1 .173-.07Zm11.332 0a2.03 2.03 0 0 1-.199.012l-.994-.012h1.193Zm0 0 4.367.07a.255.255 0 0 0-.177-.07h-4.19Zm.654-6.804.79-.915.196.805a.5.5 0 0 0 .46.38l.824.044-.758.874a1.013 1.013 0 0 1-1.392.115.922.922 0 0 1-.341-.63.907.907 0 0 1 .221-.673ZM6.511 22.332 6.118 20.5h1.763l-.392 1.832c-.113.527-.865.527-.978 0ZM8.5 19.5H8v-3h.5v3Zm-2-3H7v3h-.5v-3Zm3 3v-3h.5v3h-.5Zm2.794 0H11V17.72l1.294 1.781Zm-1.216-3.375a1 1 0 0 0-.117.1A1 1 0 0 0 10 15.5H6.5a1 1 0 0 0-1 1v3h-1l-.014-5.068H20.49l.01 5.068h-5.764a1 1 0 0 0-.092-1.02l-1.764-2.428a1 1 0 0 0-1.396-.22l-.405.293Zm6.433 6.207-.393-1.832h1.763l-.392 1.832c-.113.527-.865.527-.978 0Zm-5.845-5.398.404-.294 1.764 2.427-.405.294-1.763-2.427Z" fill="#18303F" yggColor="iconDefault"/></g></svg>