<svg fill="none" height="25" viewBox="0 0 25 25" width="25"><path clip-rule="evenodd" d="m4.539 2.04a2.5 2.5 0 0 0 -2.5 2.5v4.342a2.5 2.5 0 0 0 2.5 2.5h4.343a2.5 2.5 0 0 0 2.5-2.5v-4.342a2.5 2.5 0 0 0 -2.5-2.5zm-1.5 2.5a1.5 1.5 0 0 1 1.5-1.5h4.343a1.5 1.5 0 0 1 1.5 1.5v4.342a1.5 1.5 0 0 1 -1.5 1.5h-4.343a1.5 1.5 0 0 1 -1.5-1.5zm1.5 9.078a2.5 2.5 0 0 0 -2.5 2.5v4.343a2.5 2.5 0 0 0 2.5 2.5h4.343a2.5 2.5 0 0 0 2.5-2.5v-4.343a2.5 2.5 0 0 0 -2.5-2.5zm-1.5 2.5a1.5 1.5 0 0 1 1.5-1.5h4.343a1.5 1.5 0 0 1 1.5 1.5v4.343a1.5 1.5 0 0 1 -1.5 1.5h-4.343a1.5 1.5 0 0 1 -1.5-1.5zm13.079-14.079a2.5 2.5 0 0 0 -2.5 2.5v4.343a2.5 2.5 0 0 0 2.5 2.5h4.343a2.5 2.5 0 0 0 2.5-2.5v-4.342a2.5 2.5 0 0 0 -2.5-2.5h-4.343zm-1.5 2.5a1.5 1.5 0 0 1 1.5-1.5h4.343a1.5 1.5 0 0 1 1.5 1.5v4.343a1.5 1.5 0 0 1 -1.5 1.5h-4.343a1.5 1.5 0 0 1 -1.5-1.5v-4.342zm1.206 10.107c.095-.019.193-.028.294-.028h.543a.5.5 0 0 0 0-1h-.543c-.167 0-.33.016-.488.047a.5.5 0 1 0 .194.981zm3.594-.528a.5.5 0 0 1 .5-.5h.543c.166 0 .329.016.487.047a.5.5 0 0 1 -.194.981 1.5 1.5 0 0 0 -.293-.028h-.543a.5.5 0 0 1 -.5-.5zm-4.772 1.706a.5.5 0 1 0 -.981-.194 2.53 2.53 0 0 0 -.047.488v.543a.5.5 0 1 0 1 0v-.543c0-.101.009-.2.028-.294zm7.68-.587a.5.5 0 0 1 .587.393c.032.158.048.321.048.488v.543a.5.5 0 0 1 -1 0v-.543c0-.101-.01-.2-.029-.294a.5.5 0 0 1 .394-.587zm-7.708 4.681a.5.5 0 0 0 -1 0v.543c0 .166.016.33.047.487a.5.5 0 0 0 .981-.194 1.485 1.485 0 0 1 -.028-.293zm7.843-.5a.5.5 0 0 1 .5.5v.543c0 .166-.016.33-.048.487a.5.5 0 1 1 -.981-.194c.019-.094.029-.192.029-.293v-.543a.5.5 0 0 1 .5-.5zm-6.637 2.515a.5.5 0 1 0 -.194.98c.158.032.321.048.488.048h.543a.5.5 0 0 0 0-1h-.543c-.101 0-.199-.01-.294-.028zm5.518.393a.5.5 0 0 1 -.394.587 2.513 2.513 0 0 1 -.487.048h-.543a.5.5 0 0 1 0-1h.543a1.5 1.5 0 0 0 .293-.028.5.5 0 0 1 .588.393z" fill="#18303f" fill-rule="evenodd"/></svg>