<svg width="25" height="25" viewBox="0 0 25 25" fill="none"><path fill-rule="evenodd" clip-rule="evenodd" d="M3.158 2.27a2.224 2.224 0 0 0 0 4.448h.89a2.224 2.224 0 0 0 0-4.448h-.89Zm.89 1h-.89a1.224 1.224 0 0 0 0 2.448h.89a1.224 1.224 0 0 0 0-2.448Zm5.633-1a2.224 2.224 0 0 0 0 4.448h.89a2.224 2.224 0 0 0 0-4.448h-.89Zm.89 1h-.89a1.224 1.224 0 0 0 0 2.448h.89a1.224 1.224 0 0 0 0-2.448Zm5.634-1a2.224 2.224 0 0 0 0 4.448h.89a2.224 2.224 0 0 0 0-4.448h-.89Zm.89 1h-.89a1.224 1.224 0 0 0 0 2.448h.89a1.224 1.224 0 0 0 0-2.448Zm5.192-1a1.78 1.78 0 0 0-1.78 1.779v.89a1.78 1.78 0 0 0 3.56 0v-.89a1.78 1.78 0 0 0-1.78-1.78Zm.78 1.779a.78.78 0 0 0-1.56 0v.89a.78.78 0 0 0 1.56 0v-.89ZM2.713 8.497a1.78 1.78 0 0 0 0 3.558H9.83a1.779 1.779 0 1 0 0-3.558H2.713Zm0 1a.78.78 0 0 0 0 1.558H9.83a.779.779 0 1 0 0-1.558H2.713Zm12.457-1a1.78 1.78 0 0 0 0 3.558h7.117a1.779 1.779 0 1 0 0-3.558H15.17Zm7.117 1H15.17a.78.78 0 0 0 0 1.558h7.117a.779.779 0 1 0 0-1.558ZM2.713 13.835a1.78 1.78 0 0 0 0 3.558H9.83a1.779 1.779 0 1 0 0-3.558H2.713Zm0 1a.78.78 0 0 0 0 1.558H9.83a.779.779 0 1 0 0-1.558H2.713Zm12.457-1a1.78 1.78 0 0 0 0 3.558h7.117a1.779 1.779 0 1 0 0-3.558H15.17Zm7.117 1H15.17a.78.78 0 0 0 0 1.558h7.117a.779.779 0 1 0 0-1.558ZM2.713 19.172a1.78 1.78 0 0 0 0 3.558H9.83a1.779 1.779 0 1 0 0-3.558H2.713Zm0 1a.78.78 0 0 0 0 1.558H9.83a.779.779 0 1 0 0-1.558H2.713Zm12.457-1a1.78 1.78 0 0 0 0 3.558h7.117a1.779 1.779 0 1 0 0-3.558H15.17Zm7.117 1H15.17a.78.78 0 0 0 0 1.558h7.117a.779.779 0 1 0 0-1.558Z" fill="#18303F" yggColor="modes"/></svg>