<svg fill="none" height="25" viewBox="0 0 25 25" width="25"><path clip-rule="evenodd" d="m3.158 2.27a2.224 2.224 0 0 0 0 4.448h.89a2.224 2.224 0 0 0 0-4.448zm.89 1h-.89a1.224 1.224 0 0 0 0 2.448h.89a1.224 1.224 0 0 0 0-2.448zm5.633-1a2.224 2.224 0 0 0 0 4.448h.89a2.224 2.224 0 0 0 0-4.448zm.89 1h-.89a1.224 1.224 0 0 0 0 2.448h.89a1.224 1.224 0 0 0 0-2.448zm5.634-1a2.224 2.224 0 0 0 0 4.448h.89a2.224 2.224 0 0 0 0-4.448zm.89 1h-.89a1.224 1.224 0 0 0 0 2.448h.89a1.224 1.224 0 0 0 0-2.448zm5.192-1a1.78 1.78 0 0 0 -1.78 1.779v.89a1.78 1.78 0 0 0 3.56 0v-.89a1.78 1.78 0 0 0 -1.78-1.78zm.78 1.779a.78.78 0 0 0 -1.56 0v.89a.78.78 0 0 0 1.56 0zm-20.354 4.448a1.78 1.78 0 0 0 0 3.558h7.117a1.779 1.779 0 1 0 0-3.558zm0 1a.78.78 0 0 0 0 1.558h7.117a.779.779 0 1 0 0-1.558zm12.457-1a1.78 1.78 0 0 0 0 3.558h7.117a1.779 1.779 0 1 0 0-3.558zm7.117 1h-7.117a.78.78 0 0 0 0 1.558h7.117a.779.779 0 1 0 0-1.558zm-19.574 4.338a1.78 1.78 0 0 0 0 3.558h7.117a1.779 1.779 0 1 0 0-3.558zm0 1a.78.78 0 0 0 0 1.558h7.117a.779.779 0 1 0 0-1.558zm12.457-1a1.78 1.78 0 0 0 0 3.558h7.117a1.779 1.779 0 1 0 0-3.558zm7.117 1h-7.117a.78.78 0 0 0 0 1.558h7.117a.779.779 0 1 0 0-1.558zm-19.574 4.337a1.78 1.78 0 0 0 0 3.558h7.117a1.779 1.779 0 1 0 0-3.558zm0 1a.78.78 0 0 0 0 1.558h7.117a.779.779 0 1 0 0-1.558zm12.457-1a1.78 1.78 0 0 0 0 3.558h7.117a1.779 1.779 0 1 0 0-3.558zm7.117 1h-7.117a.78.78 0 0 0 0 1.558h7.117a.779.779 0 1 0 0-1.558z" fill="#18303f" fill-rule="evenodd"/></svg>