<svg fill="none" height="25" viewBox="0 0 25 25" width="25"><path clip-rule="evenodd" d="m6.387 1.06a.5.5 0 0 1 .5.5c0 1.139.934 2.073 2.074 2.073s2.073-.934 2.073-2.074a.5.5 0 0 1 1 0c0 1.14.935 2.074 2.075 2.074a2.082 2.082 0 0 0 2.074-2.074.5.5 0 0 1 1 0c0 1.14.936 2.074 2.075 2.074 1.14 0 2.075-.934 2.075-2.074a.5.5 0 1 1 1 0c0 1.14.934 2.074 2.074 2.074a.5.5 0 0 1 0 1 3.076 3.076 0 0 1 -2.575-1.398c-.55.84-1.5 1.398-2.575 1.398a3.078 3.078 0 0 1 -2.574-1.398c-.55.84-1.5 1.398-2.573 1.398a3.078 3.078 0 0 1 -2.575-1.398 3.076 3.076 0 0 1 -2.575 1.398 3.076 3.076 0 0 1 -2.574-1.398c-.55.84-1.5 1.398-2.575 1.398a.5.5 0 0 1 0-1c1.14 0 2.075-.934 2.075-2.074a.5.5 0 0 1 .5-.5zm-2.72 6.936a.5.5 0 0 0 -1 0c0 1.14-.934 2.074-2.073 2.074a.5.5 0 0 0 0 1 3.078 3.078 0 0 0 2.574-1.398c.55.84 1.5 1.398 2.574 1.398a3.078 3.078 0 0 0 2.575-1.398 3.076 3.076 0 0 0 2.573 1.398 3.076 3.076 0 0 0 2.574-1.398c.55.84 1.5 1.398 2.575 1.398a3.078 3.078 0 0 0 2.574-1.398c.55.84 1.5 1.398 2.575 1.398a.5.5 0 0 0 0-1 2.081 2.081 0 0 1 -2.075-2.074.5.5 0 0 0 -1 0c0 1.14-.934 2.074-2.073 2.074a2.082 2.082 0 0 1 -2.075-2.074.5.5 0 0 0 -1 0c0 1.14-.934 2.074-2.075 2.074a2.081 2.081 0 0 1 -2.073-2.074.5.5 0 0 0 -1 0c0 1.14-.935 2.074-2.075 2.074a2.082 2.082 0 0 1 -2.074-2.074zm3.22 6.435a.5.5 0 0 0 -1 0c0 1.14-.935 2.075-2.075 2.075a.5.5 0 0 0 0 1 3.078 3.078 0 0 0 2.575-1.398 3.076 3.076 0 0 0 2.574 1.398 3.076 3.076 0 0 0 2.573-1.398c.55.84 1.5 1.398 2.575 1.398a3.078 3.078 0 0 0 2.574-1.398c.55.84 1.5 1.398 2.575 1.398a3.078 3.078 0 0 0 2.575-1.398 3.076 3.076 0 0 0 2.574 1.398.5.5 0 0 0 0-1 2.081 2.081 0 0 1 -2.075-2.075.5.5 0 0 0 -1 0c0 1.14-.934 2.075-2.075 2.075a2.082 2.082 0 0 1 -2.074-2.075.5.5 0 0 0 -1 0c0 1.14-.934 2.075-2.073 2.075a2.082 2.082 0 0 1 -2.075-2.075.5.5 0 1 0 -1 0c0 1.14-.934 2.075-2.074 2.075a2.081 2.081 0 0 1 -2.074-2.075zm-3.72 5.936a.5.5 0 0 1 .5.5c0 1.14.936 2.074 2.075 2.074 1.14 0 2.075-.935 2.075-2.074a.5.5 0 0 1 1 0c0 1.14.934 2.074 2.073 2.074 1.14 0 2.074-.935 2.074-2.074a.5.5 0 0 1 1 0c0 1.14.935 2.074 2.075 2.074a2.082 2.082 0 0 0 2.074-2.074.5.5 0 0 1 1 0c0 1.14.934 2.074 2.075 2.074a.5.5 0 0 1 0 1 3.078 3.078 0 0 1 -2.575-1.398c-.55.84-1.5 1.398-2.573 1.398a3.078 3.078 0 0 1 -2.575-1.398 3.076 3.076 0 0 1 -2.575 1.398 3.076 3.076 0 0 1 -2.573-1.398c-.55.84-1.5 1.398-2.575 1.398a3.078 3.078 0 0 1 -2.574-1.398c-.55.84-1.5 1.398-2.574 1.398a.5.5 0 0 1 0-1 2.082 2.082 0 0 0 2.074-2.074.5.5 0 0 1 .5-.5z" fill="#18303f" fill-rule="evenodd"/></svg>