<svg width="25" height="25" viewBox="0 0 25 25" fill="none"><g id="money_bag"><path id="iconDefault" fill-rule="evenodd" clip-rule="evenodd" d="M19.924.921a.832.832 0 0 0-.431-.424 1.104 1.104 0 0 0-.415-.062h-5.686c-.418 0-.65.232-.764.346l-.01.01a.804.804 0 0 0-.225.577c0 .129.025.257.07.378l-1.506.788a.48.48 0 0 0-.122.09l-.01.009-.002.001-.036.028-.018.014-.11.088a1.29 1.29 0 0 0-.336.405l-1.257 2.41-.004.007a.572.572 0 0 1-.332.272l-2.602.755V6.23a.5.5 0 0 0-.5-.5H2.48a.5.5 0 0 0 0 1h2.648v.531a.207.207 0 0 0 0 .035v5.214a.164.164 0 0 0 0 .031v.533H2.48a.5.5 0 0 0 0 1h3.148a.5.5 0 0 0 .5-.5v-.473l5.852.836c-.6.532-1.098 1.23-1.484 1.961-.674 1.28-1.067 2.776-1.067 3.97 0 1.713.814 2.92 2.096 3.672 1.25.732 2.926 1.026 4.7 1.026 1.772 0 3.448-.294 4.698-1.026 1.283-.752 2.097-1.96 2.097-3.671 0-1.195-.393-2.691-1.069-3.97-.5-.95-1.19-1.845-2.05-2.39l.52-.816c.313-.471.302-.953.16-1.375l-.21-.63c-.066-.198-.057-.342.038-.493l.404-.505a.51.51 0 0 0 .026-.035c.17-.258.24-.57.24-.855 0-.284-.07-.596-.24-.854l-.016-.023-.306-.405a.59.59 0 0 1-.067-.291.59.59 0 0 1 .067-.292l.306-.405v-.002l.015-.02c.171-.259.241-.571.241-.855 0-.28-.067-.588-.233-.843l-.31-.516a.5.5 0 0 0-.076-.096c-.242-.243-.678-.567-1.193-.567h-.186l.845-1.741c.064-.127.13-.29.13-.483 0-.196-.068-.358-.132-.486Zm-1.066 12.153a.44.44 0 0 0-.023 0h-5.829l-6.878-.983V7.654l2.891-.84h.006a1.574 1.574 0 0 0 .93-.775l1.258-2.41.004-.008a.292.292 0 0 1 .082-.089c.023-.019.043-.035.072-.056l.028-.023.016-.012a1.74 1.74 0 0 0 .062-.05l1.42-.744.822 1.67a.5.5 0 0 0 .45.279h.191a.5.5 0 0 0 .187.035h4.72c.108 0 .28.082.445.234l.282.468a.576.576 0 0 1 .086.32.58.58 0 0 1-.069.29l-.303.407a1.554 1.554 0 0 0-.258.877 1.554 1.554 0 0 0 .258.877l.304.405a.58.58 0 0 1 .067.291c0 .126-.03.227-.064.286l-.404.504a.496.496 0 0 0-.024.035c-.316.472-.305.955-.163 1.38l.209.629c.069.205.058.351-.046.509l-.593.93h-.136Zm-5.183 1h5.098c.883.281 1.69 1.145 2.294 2.29.611 1.16.953 2.497.953 3.505 0 1.33-.604 2.222-1.602 2.808-1.032.605-2.505.889-4.194.889-1.688 0-3.16-.284-4.193-.89-1-.585-1.601-1.476-1.601-2.807 0-1.008.34-2.345.952-3.505.604-1.145 1.41-2.009 2.293-2.29ZM19.027 1.45l.008-.016h-5.62l.005.01v.003l1.06 2.148h3.508l1.04-2.145ZM16.12 20.42h1.05c.2 0 .33-.065.407-.142.078-.077.142-.206.142-.407 0-.201-.064-.33-.142-.407-.078-.078-.207-.143-.407-.143H15.07c-.428 0-.824-.144-1.114-.434-.29-.29-.434-.686-.434-1.115 0-.428.144-.824.434-1.114.29-.29.687-.435 1.114-.435h.55v-.55a.5.5 0 0 1 1 0v.55h1.598a.5.5 0 1 1 0 1H15.07c-.2 0-.33.065-.406.142-.078.078-.143.206-.143.407 0 .201.065.33.143.407.077.078.206.142.406.142h2.099c.428 0 .825.145 1.113.436.29.29.436.685.436 1.114 0 .428-.145.824-.436 1.114-.288.29-.684.435-1.113.435h-.55v.549a.5.5 0 1 1-1 0v-.55h-1.598a.5.5 0 0 1 0-1h2.098Z" fill="#18303F"/></g></svg>