<svg width="25" height="25" viewBox="0 0 25 25" fill="none"><path fill-rule="evenodd" clip-rule="evenodd" d="M4.167 10.625a1.875 1.875 0 1 0 0 3.75 1.875 1.875 0 0 0 0-3.75ZM1.042 12.5a3.125 3.125 0 1 1 6.25 0 3.125 3.125 0 0 1-6.25 0ZM12.5 10.625a1.875 1.875 0 1 0 0 3.75 1.875 1.875 0 0 0 0-3.75ZM9.375 12.5a3.125 3.125 0 1 1 6.25 0 3.125 3.125 0 0 1-6.25 0Zm11.458-1.875a1.875 1.875 0 1 0 0 3.75 1.875 1.875 0 0 0 0-3.75ZM17.708 12.5a3.125 3.125 0 1 1 6.25 0 3.125 3.125 0 0 1-6.25 0Z" fill="#18303F" yggColor="more"/></svg>