<svg width="25" height="25" viewBox="0 0 25 25" fill="none" xmlns="http://www.w3.org/2000/svg">
<g id="more">
<path id="iconDefault" fill-rule="evenodd" clip-rule="evenodd" d="M4.16669 10.625C3.13115 10.625 2.29169 11.4645 2.29169 12.5C2.29169 13.5355 3.13115 14.375 4.16669 14.375C5.20222 14.375 6.04169 13.5355 6.04169 12.5C6.04169 11.4645 5.20222 10.625 4.16669 10.625ZM1.04169 12.5C1.04169 10.7741 2.4408 9.375 4.16669 9.375C5.89258 9.375 7.29169 10.7741 7.29169 12.5C7.29169 14.2259 5.89258 15.625 4.16669 15.625C2.4408 15.625 1.04169 14.2259 1.04169 12.5ZM12.5 10.625C11.4645 10.625 10.625 11.4645 10.625 12.5C10.625 13.5355 11.4645 14.375 12.5 14.375C13.5356 14.375 14.375 13.5355 14.375 12.5C14.375 11.4645 13.5356 10.625 12.5 10.625ZM9.37502 12.5C9.37502 10.7741 10.7741 9.375 12.5 9.375C14.2259 9.375 15.625 10.7741 15.625 12.5C15.625 14.2259 14.2259 15.625 12.5 15.625C10.7741 15.625 9.37502 14.2259 9.37502 12.5ZM20.8334 10.625C19.7978 10.625 18.9584 11.4645 18.9584 12.5C18.9584 13.5355 19.7978 14.375 20.8334 14.375C21.8689 14.375 22.7084 13.5355 22.7084 12.5C22.7084 11.4645 21.8689 10.625 20.8334 10.625ZM17.7084 12.5C17.7084 10.7741 19.1075 9.375 20.8334 9.375C22.5592 9.375 23.9584 10.7741 23.9584 12.5C23.9584 14.2259 22.5592 15.625 20.8334 15.625C19.1075 15.625 17.7084 14.2259 17.7084 12.5Z" fill="#18303F"/>
</g>
</svg>
