<svg fill="none" height="25" viewBox="0 0 25 25" width="25"><path clip-rule="evenodd" d="m4.167 10.625a1.875 1.875 0 1 0 0 3.75 1.875 1.875 0 0 0 0-3.75zm-3.125 1.875a3.125 3.125 0 1 1 6.25 0 3.125 3.125 0 0 1 -6.25 0zm11.458-1.875a1.875 1.875 0 1 0 0 3.75 1.875 1.875 0 0 0 0-3.75zm-3.125 1.875a3.125 3.125 0 1 1 6.25 0 3.125 3.125 0 0 1 -6.25 0zm11.458-1.875a1.875 1.875 0 1 0 0 3.75 1.875 1.875 0 0 0 0-3.75zm-3.125 1.875a3.125 3.125 0 1 1 6.25 0 3.125 3.125 0 0 1 -6.25 0z" fill="#18303f" fill-rule="evenodd"/></svg>