<svg width="15" height="15" viewBox="0 0 15 15" fill="none" xmlns="http://www.w3.org/2000/svg">
<path fill-rule="evenodd" clip-rule="evenodd" d="M2.5 6.375C1.87868 6.375 1.375 6.87868 1.375 7.5C1.375 8.12132 1.87868 8.625 2.5 8.625C3.12132 8.625 3.625 8.12132 3.625 7.5C3.625 6.87868 3.12132 6.375 2.5 6.375ZM0.625 7.5C0.625 6.46447 1.46447 5.625 2.5 5.625C3.53553 5.625 4.375 6.46447 4.375 7.5C4.375 8.53553 3.53553 9.375 2.5 9.375C1.46447 9.375 0.625 8.53553 0.625 7.5ZM7.5 6.375C6.87868 6.375 6.375 6.87868 6.375 7.5C6.375 8.12132 6.87868 8.625 7.5 8.625C8.12132 8.625 8.625 8.12132 8.625 7.5C8.625 6.87868 8.12132 6.375 7.5 6.375ZM5.625 7.5C5.625 6.46447 6.46447 5.625 7.5 5.625C8.53553 5.625 9.375 6.46447 9.375 7.5C9.375 8.53553 8.53553 9.375 7.5 9.375C6.46447 9.375 5.625 8.53553 5.625 7.5ZM12.5 6.375C11.8787 6.375 11.375 6.87868 11.375 7.5C11.375 8.12132 11.8787 8.625 12.5 8.625C13.1213 8.625 13.625 8.12132 13.625 7.5C13.625 6.87868 13.1213 6.375 12.5 6.375ZM10.625 7.5C10.625 6.46447 11.4645 5.625 12.5 5.625C13.5355 5.625 14.375 6.46447 14.375 7.5C14.375 8.53553 13.5355 9.375 12.5 9.375C11.4645 9.375 10.625 8.53553 10.625 7.5Z" fill="#18303F"/>
</svg>
