<svg fill="none" height="25" viewBox="0 0 25 25" width="25"><path clip-rule="evenodd" d="m16.266 1.802a1.42 1.42 0 0 1 2.742.733l-.238.885a1.42 1.42 0 0 1 -2.742-.733zm1.48-.036a.422.422 0 0 0 -.514.294l-.238.886a.42.42 0 0 0 .297.51.422.422 0 0 0 .513-.294l.238-.885a.42.42 0 0 0 -.297-.51zm-3.175 1.2a1.422 1.422 0 0 0 -1.738 1.001l-.238.885a1.418 1.418 0 0 0 2.741.733l.238-.885a1.418 1.418 0 0 0 -1.003-1.735zm-.772 1.26a.42.42 0 0 1 .809.216l-.238.885a.421.421 0 0 1 -.513.294.42.42 0 0 1 -.296-.51l.238-.886zm4.57 1.415c-.419-.111-.794-.137-1.139-.066-.35.073-.629.236-.865.44a4.532 4.532 0 0 0 -.6.67l-.12.156-.005.007-.025.033c-.133.173-.265.345-.418.522-.246.266-.493.303-.888.361l-.013.002-.21.032c-.246.04-.562.11-.844.329-.292.224-.489.557-.61 1.006-.234.873-.079 1.51.294 1.942.345.398.803.529.975.575.746.2 1.248-.041 1.63-.223l.041-.02.035-.017c.194-.09.353-.158.536-.189.178-.03.404-.03.718.054s.51.197.648.311c.144.119.248.256.37.432l.028.04.02.028c.238.348.554.808 1.3 1.007.172.046.634.16 1.132-.012.54-.187.993-.662 1.228-1.535.121-.449.117-.835-.023-1.175-.136-.33-.374-.548-.567-.706l-.175-.14c-.315-.25-.51-.405-.59-.763a10.026 10.026 0 0 1 -.134-.798l-.016-.109a4.91 4.91 0 0 0 -.18-.87 1.858 1.858 0 0 0 -.517-.812c-.26-.235-.597-.4-1.016-.512zm-1.859 1.715v-.001l.046-.06c.178-.23.32-.4.464-.524a.885.885 0 0 1 .412-.217c.152-.031.364-.03.678.053.313.084.493.188.605.289a.855.855 0 0 1 .238.387c.061.182.098.4.14.693l.013.104c.036.259.078.56.148.879.163.733.662 1.116.982 1.361.047.036.09.069.127.1.163.132.238.22.276.312.033.081.064.232-.018.536-.17.631-.434.795-.59.849-.197.068-.406.027-.545-.01-.384-.102-.512-.287-.75-.63l-.002-.002-.033-.048a2.975 2.975 0 0 0 -.554-.631 2.633 2.633 0 0 0 -1.027-.507 2.641 2.641 0 0 0 -1.143-.073 2.997 2.997 0 0 0 -.796.27l-.052.025-.002.001c-.379.179-.583.275-.967.172-.138-.037-.34-.106-.477-.264-.108-.124-.255-.397-.085-1.029.082-.304.184-.419.253-.473.08-.06.19-.1.396-.133a5.27 5.27 0 0 1 .16-.023c.4-.053 1.024-.135 1.532-.689l.01-.011c.174-.201.329-.402.466-.582l.03-.04zm-9.515 4.538a1.418 1.418 0 0 0 -1.003 1.735l.238.885a1.418 1.418 0 0 0 2.741-.733l-.238-.885a1.422 1.422 0 0 0 -1.738-1.002zm-.037 1.476a.42.42 0 0 1 .296-.51.421.421 0 0 1 .513.294l.238.885a.42.42 0 0 1 -.296.51.421.421 0 0 1 -.513-.293zm-4.072 1.09a1.42 1.42 0 0 1 2.742-.733l.238.885a1.42 1.42 0 0 1 -2.742.733zm1.263-.77a.42.42 0 0 0 -.296.511l.237.886c.06.219.291.353.513.294a.42.42 0 0 0 .297-.51l-.238-.886a.421.421 0 0 0 -.513-.294zm-3.153 4.358a1.418 1.418 0 0 1 2.741-.732l.238.885a1.418 1.418 0 0 1 -2.74.733zm1.262-.768a.42.42 0 0 0 -.296.51l.238.885a.42.42 0 0 0 .809-.216l-.238-.885a.421.421 0 0 0 -.513-.294zm4.371-.543c-.419.112-.756.277-1.02.51a1.885 1.885 0 0 0 -.528.813c-.098.284-.146.59-.184.88l-.027.203c-.029.23-.058.457-.104.701-.08.354-.276.509-.588.756l-.024.02-.152.12c-.194.159-.432.377-.568.706-.14.34-.143.727-.023 1.175.235.874.69 1.348 1.23 1.536.497.172.96.058 1.131.012.745-.2 1.06-.658 1.299-1.005l.001-.002.047-.069c.122-.175.226-.313.37-.43.138-.115.334-.229.648-.313a1.65 1.65 0 0 1 .718-.053c.184.031.343.098.536.189l.076.036c.381.182.885.423 1.631.223.172-.046.63-.177.974-.575.373-.43.53-1.069.294-1.942-.12-.448-.317-.781-.609-1.006-.283-.218-.598-.288-.845-.328l-.202-.031-.02-.003h-.002c-.396-.06-.644-.096-.892-.366-.192-.21-.354-.417-.516-.625l-.067-.086a4.96 4.96 0 0 0 -.593-.665 1.858 1.858 0 0 0 -.855-.445c-.343-.073-.717-.048-1.136.064zm-.882 3.303c.053-.28.088-.55.118-.785l.008-.06.015-.122c.04-.287.076-.505.14-.685a.88.88 0 0 1 .247-.393c.116-.103.3-.209.614-.292.313-.084.521-.084.668-.052.142.03.266.097.401.216.144.128.285.298.467.531l.065.084.004.005c.16.204.346.442.565.682.508.553 1.133.636 1.533.689l.16.022c.207.034.316.073.395.134.07.054.171.169.253.473.17.631.023.904-.085 1.029-.136.157-.338.227-.477.264-.385.102-.589.006-.967-.173l-.054-.025a2.994 2.994 0 0 0 -.796-.27 2.638 2.638 0 0 0 -1.143.073c-.44.117-.768.292-1.027.506-.255.21-.423.443-.554.631l-.033.048c-.238.344-.367.53-.752.633-.138.037-.348.078-.545.01-.156-.055-.42-.218-.59-.85-.08-.304-.05-.454-.017-.535.037-.092.113-.18.275-.313l.09-.07.037-.03c.32-.244.82-.627.982-1.36zm3.682-4.245a1.42 1.42 0 0 1 2.742-.732l.238.885a1.42 1.42 0 0 1 -2.742.733zm1.263-.768a.42.42 0 0 0 -.297.51l.238.886c.06.219.291.353.513.294a.42.42 0 0 0 .297-.51l-.238-.886a.422.422 0 0 0 -.513-.294zm10.57-8.805a1.419 1.419 0 0 1 2.742.733l-.238.885a1.42 1.42 0 0 1 -2.742-.733zm1.48-.036a.422.422 0 0 0 -.514.294l-.237.886a.42.42 0 0 0 .81.216l.237-.885a.42.42 0 0 0 -.297-.511zm-3.366-3.553a1.418 1.418 0 0 1 2.741.733l-.238.885a1.418 1.418 0 0 1 -2.741-.733zm1.478-.036a.42.42 0 0 0 -.512.294l-.238.886a.42.42 0 0 0 .81.216l.237-.885a.42.42 0 0 0 -.297-.51z" fill="#18303f" fill-rule="evenodd"/></svg>