<svg width="25" height="25" viewBox="0 0 25 25" fill="none"><g id="movement_nothing"><path fill-rule="evenodd" clip-rule="evenodd" d="m15.145 6.96-.003-.002a14.403 14.403 0 0 0-1.364-.772c-.364-.18-.781-.357-1.13-.414-.164-.027-.406-.044-.627.065a.705.705 0 0 0-.309.291.792.792 0 0 0-.095.388v2.322H8.894c-1.087-.092-2.052-.03-3.245.446-.726.29-1.353.597-1.895 1.025-.548.435-.987.977-1.365 1.71-.317.62-.448 1.452-.506 2.08a11.944 11.944 0 0 0-.05 1.133l.001.02c0 .564-.068 1.01-.133 1.44-.025.17-.05.337-.071.507-.071.59-.075 1.192.318 1.816a.5.5 0 0 0 .505.226c.443-.073 1.161-.341 1.79-.84.215-.17.424-.372.609-.606.107.271.251.513.447.716.58.602 1.481.75 2.705.694h14.381a.5.5 0 0 0 .46-.305c.514-1.21.598-2.113.55-3.028-.017-.327-.052-.661-.087-1.001a68.167 68.167 0 0 1-.036-.354c-.046-.47-.086-.977-.086-1.567V6.563a.63.63 0 0 0-.135-.517.665.665 0 0 0-.526-.22c-.233.004-.517.1-.772.2-.389.152-.902.392-1.468.658l-.592.276h-4.548Zm-9.62 9.003c.082 1.047.218 1.568.495 1.855.254.264.75.444 1.949.387h4.137c-.104-.534-.263-.789-.457-.929-.274-.198-.771-.284-1.804-.189a.5.5 0 0 1-.092-.995c1.026-.095 1.876-.064 2.482.374.527.38.767.989.887 1.739h3.589a2.744 2.744 0 0 0-.372-.603c-.263-.337-.605-.68-.979-1.036h-.795a.5.5 0 0 1 0-1h.994a.5.5 0 0 1 .343.136c.137.13.276.261.413.396a.508.508 0 0 1 .093-.008c.123 0 .19-.038.24-.082a.672.672 0 0 0 .162-.268 1.623 1.623 0 0 0 .094-.486h-.425a.5.5 0 0 1 0-1h1.922a.5.5 0 1 1 0 1h-.496v.013a1.706 1.706 0 0 0 .093.473.672.672 0 0 0 .162.267.293.293 0 0 0 .128.07c.13-.128.26-.253.39-.375a.5.5 0 0 1 .343-.136h1.284a.5.5 0 1 1 0 1H19.22c-.371.355-.707.697-.963 1.032-.17.223-.29.424-.364.607h4.154a5.24 5.24 0 0 0 .35-2.28c-.016-.3-.047-.598-.082-.929l-.039-.382a16.59 16.59 0 0 1-.09-1.664V6.931a25.658 25.658 0 0 0-1.44.641c-.23.108-.475.223-.734.342a.5.5 0 0 1-.209.046H15a.5.5 0 0 1-.274-.082h-.001l-.005-.004-.023-.015a13.432 13.432 0 0 0-1.358-.776 4.515 4.515 0 0 0-.72-.294v2.55a.5.5 0 0 1-.5.5H8.871c-.014 0-.029-.001-.043-.003-.98-.085-1.787-.031-2.81.377-.69.275-1.214.54-1.644.88-.423.336-.776.761-1.096 1.383-.224.438-.344 1.106-.4 1.714a10.944 10.944 0 0 0-.045 1.03v.028c0 .647-.085 1.208-.152 1.655-.023.152-.044.291-.06.416-.041.344-.044.603.024.838.285-.102.645-.277.975-.54.478-.378.856-.904.904-1.611-.024-.321-.044-.674-.066-1.054l-.03-.523a.5.5 0 1 1 .998-.06l.031.539c.022.387.042.736.067 1.055Zm11.773 1.256a4.747 4.747 0 0 1 .291-.388 1.316 1.316 0 0 1-.185-.166 1.39 1.39 0 0 1-.327.258 4.927 4.927 0 0 1 .22.296Zm.606-1.984Zm.95-3.384a.5.5 0 0 1 .608.362c.007.03.044.089.12.128.07.037.116.028.136.018.103-.05.162-.081.209-.114.04-.027.045-.04.046-.041a.5.5 0 0 1 .89.453c-.173.342-.504.502-.674.585l-.03.014a1.148 1.148 0 0 1-1.042-.029 1.228 1.228 0 0 1-.624-.768.5.5 0 0 1 .36-.608Zm-2.828.036a.5.5 0 0 1 .36.608c-.094.372-.369.617-.648.744a1.42 1.42 0 0 1-.916.09.502.502 0 0 1-.101-.037l-.03-.014c-.17-.083-.502-.243-.676-.585a.5.5 0 1 1 .892-.453s.005.013.045.041c.037.026.082.05.15.084a.432.432 0 0 0 .22-.035c.081-.037.094-.076.096-.081a.5.5 0 0 1 .608-.362Z" fill="#18303F" yggColor="iconDefault"/></g></svg>