<svg width="25" height="25" viewBox="0 0 25 25" fill="none"><path fill-rule="evenodd" clip-rule="evenodd" d="M15.146 6.96a14.425 14.425 0 0 0-1.367-.774c-.365-.18-.782-.357-1.13-.414-.165-.027-.406-.044-.628.065a.705.705 0 0 0-.308.291.792.792 0 0 0-.096.388v2.322H8.894c-1.087-.092-2.051-.03-3.245.446-.725.29-1.353.597-1.895 1.025-.548.435-.987.977-1.364 1.71-.318.62-.449 1.452-.507 2.08a11.943 11.943 0 0 0-.049 1.133v.02c0 .564-.067 1.01-.133 1.44-.025.17-.05.337-.071.507-.071.59-.075 1.192.319 1.816a.5.5 0 0 0 .504.226c.443-.073 1.161-.341 1.79-.84.215-.17.424-.372.61-.606.107.271.25.513.446.716.58.602 1.481.75 2.705.694h14.381a.5.5 0 0 0 .46-.305c.514-1.21.598-2.113.55-3.028a19.92 19.92 0 0 0-.087-1.001 58.753 58.753 0 0 1-.036-.354c-.046-.47-.086-.977-.086-1.567V6.563a.63.63 0 0 0-.135-.517.665.665 0 0 0-.526-.22c-.233.004-.517.1-.771.2-.39.152-.902.392-1.469.658l-.591.276h-4.548Zm-9.621 9.003c.083 1.047.218 1.568.495 1.855.254.264.75.444 1.949.387h4.138c-.105-.534-.264-.789-.458-.929-.274-.198-.771-.284-1.804-.189a.5.5 0 0 1-.092-.995c1.026-.095 1.876-.064 2.482.374.527.38.767.989.887 1.739h3.589a2.77 2.77 0 0 0-.372-.603c-.263-.337-.604-.68-.979-1.036h-.795a.5.5 0 1 1 0-1h.994a.5.5 0 0 1 .343.136c.137.13.276.261.413.396a.51.51 0 0 1 .093-.008.331.331 0 0 0 .24-.082.673.673 0 0 0 .163-.268 1.622 1.622 0 0 0 .093-.486h-.425a.5.5 0 1 1 0-1h1.922a.5.5 0 0 1 0 1h-.496v.013a1.706 1.706 0 0 0 .093.473.673.673 0 0 0 .163.267.292.292 0 0 0 .128.07c.129-.128.26-.253.39-.375a.5.5 0 0 1 .342-.136h1.284a.5.5 0 0 1 0 1h-1.084c-.372.355-.708.697-.964 1.032a2.69 2.69 0 0 0-.364.607h4.154a5.24 5.24 0 0 0 .35-2.28c-.016-.3-.047-.598-.081-.929a70.365 70.365 0 0 1-.04-.382 16.59 16.59 0 0 1-.09-1.664V6.931a5.445 5.445 0 0 0-.069.027c-.356.139-.82.356-1.37.614-.23.108-.476.223-.734.342a.5.5 0 0 1-.21.046H15a.5.5 0 0 1-.273-.082h-.002l-.005-.004-.023-.015a12.23 12.23 0 0 0-.404-.25 13.436 13.436 0 0 0-.954-.526 4.514 4.514 0 0 0-.72-.294v2.55a.5.5 0 0 1-.5.5H8.871l-.043-.003c-.98-.085-1.787-.031-2.81.377-.69.275-1.214.54-1.644.88-.423.336-.776.761-1.096 1.383-.224.438-.344 1.106-.4 1.714a10.943 10.943 0 0 0-.045 1.03v.028c0 .647-.084 1.208-.152 1.655a19.11 19.11 0 0 0-.06.416c-.04.344-.044.603.024.838a3.48 3.48 0 0 0 .975-.54c.478-.378.856-.904.904-1.611-.024-.321-.044-.674-.066-1.054l-.03-.523a.5.5 0 1 1 .999-.06l.03.539c.022.387.042.736.067 1.055Zm11.773 1.256a4.818 4.818 0 0 1 .291-.388 1.318 1.318 0 0 1-.184-.166 1.303 1.303 0 0 1-.328.258 4.937 4.937 0 0 1 .221.296Zm.606-1.984Zm.95-3.384a.5.5 0 0 1 .608.362c.008.03.044.089.12.128.07.037.116.028.136.018.103-.05.163-.081.21-.114.038-.027.044-.04.045-.041a.5.5 0 0 1 .891.453c-.174.342-.505.502-.675.585l-.03.014a1.148 1.148 0 0 1-1.041-.029 1.228 1.228 0 0 1-.625-.768.5.5 0 0 1 .361-.608Zm-2.828.036a.5.5 0 0 1 .361.608 1.14 1.14 0 0 1-.648.744 1.42 1.42 0 0 1-.917.09.5.5 0 0 1-.101-.037l-.03-.014c-.17-.083-.502-.243-.675-.585a.5.5 0 1 1 .891-.453s.006.013.046.041c.036.026.081.05.15.084a.432.432 0 0 0 .219-.035c.082-.037.095-.076.096-.081a.5.5 0 0 1 .608-.362Z" fill="#18303F" yggColor="movement_nothing"/></svg>