<svg width="25" height="25" viewBox="0 0 25 25" fill="none"><g yggColor="movement_paws_filled"><path yggColor="iconDefault" fill-rule="evenodd" clip-rule="evenodd" d="M16.266 1.802a1.419 1.419 0 0 1 2.741.734l-.238.885a1.42 1.42 0 0 1-2.741-.734l.238-.885Zm3.11.83a1.42 1.42 0 0 1 2.741.734l-.238.885a1.419 1.419 0 0 1-2.741-.734l.238-.885Zm-4.806.333a1.421 1.421 0 0 0-1.736 1.002l-.239.885a1.419 1.419 0 0 0 2.741.734l.239-.886a1.42 1.42 0 0 0-1.005-1.735Zm6.692 3.255a1.419 1.419 0 0 1 2.741.734l-.236.886a1.42 1.42 0 0 1-2.742-.734l.238-.886Zm-2.893-.579c-.686-.183-1.235-.127-1.706.157-.412.247-.718.648-.989 1.004l-.03.04c-.142.186-.284.373-.447.56-.242.262-.505.31-.907.366l-.033.005c-.245.033-.59.082-.896.271-.353.218-.59.573-.729 1.088-.233.873-.079 1.511.295 1.943.345.398.803.529.975.575.743.198 1.24-.038 1.625-.221l.013-.007c.215-.102.379-.177.573-.215.184-.036.418-.04.748.048.332.088.532.21.674.332.148.13.253.276.387.472l.008.011c.242.352.555.805 1.297 1.003.172.046.634.16 1.133-.012.538-.187.992-.661 1.227-1.535.139-.514.11-.941-.084-1.306-.171-.317-.447-.53-.64-.681l-.002-.001-.026-.02c-.322-.252-.526-.424-.604-.775a9.914 9.914 0 0 1-.134-.8l-.007-.047c-.058-.423-.123-.903-.355-1.307-.264-.463-.701-.77-1.366-.948ZM6.996 11.894a1.422 1.422 0 0 1 1.737 1.001l.238.886a1.42 1.42 0 0 1-2.74.733l-.239-.885a1.418 1.418 0 0 1 1.004-1.735Zm-1.369 1.831a1.421 1.421 0 0 0-1.737-1.001 1.42 1.42 0 0 0-1.004 1.735l.238.886a1.419 1.419 0 0 0 2.741-.734l-.238-.886Zm4.806.335a1.421 1.421 0 0 1 1.737 1.001l.238.886a1.419 1.419 0 0 1-2.74.733l-.239-.885a1.42 1.42 0 0 1 1.004-1.735Zm-6.696 3.254a1.419 1.419 0 0 0-2.741.734l.238.885a1.42 1.42 0 0 0 2.741-.734l-.238-.885Zm5.513.515.03.038.002.002c.161.207.323.415.514.623.245.266.509.314.914.37l.032.005c.244.034.59.082.896.272.353.217.59.573.729 1.088.233.873.078 1.511-.296 1.942-.344.398-.801.53-.973.575-.744.199-1.24-.037-1.626-.22l-.014-.007c-.215-.102-.378-.177-.572-.215-.184-.036-.418-.041-.75.047-.33.09-.53.21-.672.333-.149.129-.253.276-.388.471l-.008.012c-.242.352-.554.804-1.297 1.003-.172.046-.634.16-1.132-.012-.539-.187-.993-.662-1.228-1.535-.138-.515-.11-.942.085-1.306.17-.315.443-.528.636-.679l.004-.004.027-.02c.32-.25.524-.421.603-.768.046-.244.076-.477.105-.71l.007-.048c.056-.443.12-.943.352-1.363.266-.482.713-.804 1.4-.987.664-.178 1.197-.13 1.658.139.4.233.697.614.96.95l.002.004Z" fill="#18303F"/></g></svg>