<svg width="25" height="25" viewBox="0 0 25 25" fill="none"><path fill-rule="evenodd" clip-rule="evenodd" d="M16.266 1.801a1.419 1.419 0 0 1 2.741.734l-.238.886a1.42 1.42 0 0 1-2.741-.734l.238-.886Zm3.11.83a1.42 1.42 0 0 1 2.741.734l-.238.886a1.419 1.419 0 0 1-2.741-.734l.238-.885Zm-4.806.334a1.421 1.421 0 0 0-1.737 1.001l-.238.886a1.419 1.419 0 0 0 2.741.734l.238-.886a1.42 1.42 0 0 0-1.004-1.735Zm6.692 3.255a1.419 1.419 0 0 1 2.741.734l-.237.886a1.42 1.42 0 0 1-2.742-.734l.238-.886Zm-2.894-.579c-.686-.183-1.235-.127-1.706.157-.41.247-.717.648-.988 1.004l-.03.039c-.142.187-.285.374-.447.562-.243.261-.506.309-.908.365l-.033.005c-.244.033-.589.081-.896.271-.352.218-.59.573-.728 1.088-.234.873-.079 1.511.294 1.943.345.398.803.529.975.575.743.198 1.24-.038 1.625-.221l.013-.007c.215-.102.38-.177.573-.215.184-.036.418-.04.75.048.331.088.531.21.672.332.15.13.253.276.388.472l.008.011c.242.352.554.805 1.297 1.003.172.046.634.16 1.132-.012.54-.187.993-.661 1.228-1.535.138-.514.11-.941-.085-1.306-.17-.317-.446-.53-.64-.681v-.001l-.027-.02c-.322-.252-.526-.424-.604-.775a9.914 9.914 0 0 1-.134-.8l-.007-.048c-.058-.422-.124-.902-.355-1.306-.264-.463-.702-.77-1.367-.948ZM6.996 11.894a1.422 1.422 0 0 1 1.737 1.001l.238.886a1.42 1.42 0 0 1-2.74.733l-.239-.885a1.418 1.418 0 0 1 1.004-1.735Zm-1.369 1.831a1.421 1.421 0 0 0-1.737-1.001 1.42 1.42 0 0 0-1.004 1.735l.238.885a1.419 1.419 0 0 0 2.741-.734l-.238-.885Zm4.806.335a1.421 1.421 0 0 1 1.737 1.001l.238.885a1.419 1.419 0 0 1-2.74.734l-.239-.885a1.42 1.42 0 0 1 1.004-1.735Zm-6.696 3.254a1.419 1.419 0 0 0-2.741.734l.238.885a1.42 1.42 0 0 0 2.741-.734l-.238-.885Zm5.513.515.03.038.002.002c.161.207.323.415.514.623.244.266.508.314.913.37l.033.005c.244.034.59.082.896.271.352.218.59.574.728 1.088.234.874.08 1.512-.295 1.943-.344.398-.802.53-.974.575-.743.199-1.24-.037-1.625-.22l-.014-.007c-.215-.102-.378-.178-.572-.215-.184-.036-.418-.041-.75.047-.33.089-.53.21-.672.333-.149.129-.253.275-.388.471l-.008.012c-.242.351-.554.804-1.297 1.003-.172.046-.634.16-1.132-.012-.539-.187-.993-.662-1.228-1.535-.138-.515-.11-.942.085-1.306.17-.315.443-.528.636-.679l.004-.004.027-.02c.32-.25.524-.421.603-.768.046-.244.076-.477.105-.71l.007-.048c.056-.444.12-.943.352-1.363.266-.482.713-.804 1.4-.987.664-.178 1.197-.13 1.658.139.4.233.697.614.96.95l.002.004Z" fill="#18303F" yggColor="movement_paws_filled"/></svg>