<svg width="25" height="25" viewBox="0 0 25 25" fill="none"><g id="nfc"><path id="iconDefault" fill-rule="evenodd" clip-rule="evenodd" d="M18.796 12.5c0-3.564-1.402-6.984-3.903-9.522a.75.75 0 1 1 1.068-1.053 15.066 15.066 0 0 1 0 21.15.75.75 0 0 1-1.069-1.053 13.564 13.564 0 0 0 3.904-9.522Zm-7.217-6.215a8.898 8.898 0 0 1 0 12.43.75.75 0 0 0 1.074 1.047 10.4 10.4 0 0 0 0-14.524.75.75 0 0 0-1.074 1.047ZM8.255 9.591a4.203 4.203 0 0 1 0 5.818.75.75 0 1 0 1.082 1.038 5.699 5.699 0 0 0 0-7.894.75.75 0 1 0-1.082 1.038Zm-2.77 3.69a.781.781 0 1 1 0-1.562.781.781 0 0 1 0 1.562Z" fill="#18303F"/></g></svg>