<svg width="25" height="25" viewBox="0 0 25 25" fill="none"><g yggColor="night"><path yggColor="iconDefault" fill-rule="evenodd" clip-rule="evenodd" d="M14 6a.5.5 0 0 1 .466.319l.48 1.234 1.235.48a.5.5 0 0 1 0 .933l-1.235.48-.48 1.235a.5.5 0 0 1-.932 0l-.48-1.235-1.235-.48a.5.5 0 0 1 0-.932l1.235-.48.48-1.235a.5.5 0 0 1 .466-.32Zm0 1.88-.094.241a.5.5 0 0 1-.285.285l-.242.094.242.094a.5.5 0 0 1 .285.285L14 9.12l.094-.241a.5.5 0 0 1 .285-.285l.241-.094-.241-.094a.5.5 0 0 1-.285-.285L14 7.879ZM17.5 11a.5.5 0 0 1 .474.342l.296.887.888.296a.5.5 0 0 1 0 .95l-.888.295-.296.888a.5.5 0 0 1-.948 0l-.296-.888-.888-.296a.5.5 0 0 1 0-.949l.888-.296.296-.887A.5.5 0 0 1 17.5 11Zm0 1.956a.635.635 0 0 1-.044.044c.015.014.03.028.044.044a.635.635 0 0 1 .044-.044.635.635 0 0 1-.044-.044Zm-7.258-4.161a.501.501 0 0 0-.523-.781c-2.21.54-3.993 2.48-4.203 4.956v.005c-.209 2.79 1.67 5.38 4.415 5.922 2.129.436 4.227-.551 5.473-2.255a.5.5 0 0 0-.545-.775c-.622.183-1.193.26-1.838.094a.439.439 0 0 0-.027-.006c-2.224-.44-3.784-2.554-3.614-4.862.088-.894.345-1.591.862-2.298Zm-.116 9.121c-2.225-.439-3.785-2.555-3.613-4.864a4.604 4.604 0 0 1 2.211-3.557 5.752 5.752 0 0 0-.339 1.507h-.001v.01c-.209 2.787 1.665 5.373 4.403 5.921.292.074.571.11.84.118-.997.77-2.255 1.121-3.497.866h-.004Z" fill="#18303F"/></g></svg>