<svg width="25" height="25" viewBox="0 0 25 25" fill="none"><g id="noise"><path fill-rule="evenodd" clip-rule="evenodd" d="M6.56 3.429c.27 0 .5.224.5.5v17.142c0 .276-.23.5-.5.5-.28 0-.5-.224-.5-.5V3.93c0-.276.22-.5.5-.5Zm3.96 6.214c.28 0 .5.224.5.5v4.714c0 .276-.22.5-.5.5s-.5-.224-.5-.5v-4.714c0-.276.22-.5.5-.5Zm-7.43.5c0-.276-.22-.5-.5-.5-.27 0-.5.224-.5.5v4.714c0 .276.23.5.5.5.28 0 .5-.224.5-.5v-4.714Zm5.45-3.786c.27 0 .5.224.5.5v11.286c0 .276-.23.5-.5.5-.28 0-.5-.224-.5-.5V6.857c0-.276.22-.5.5-.5Zm-3.47.5c0-.276-.22-.5-.5-.5-.27 0-.5.224-.5.5v11.286c0 .276.23.5.5.5.28 0 .5-.224.5-.5V6.857Zm7.43 4.74c.28 0 .5.223.5.5v.807c0 .276-.22.5-.5.5s-.5-.224-.5-.5v-.807c0-.277.22-.5.5-.5Zm-11.39.5c0-.277-.22-.5-.5-.5-.27 0-.5.223-.5.5v.807c0 .276.23.5.5.5.28 0 .5-.224.5-.5v-.807Zm13.37-2.454c.28 0 .5.224.5.5v4.714c0 .276-.22.5-.5.5-.27 0-.5-.224-.5-.5v-4.714c0-.276.23-.5.5-.5Zm2.48-1.178c0-.277-.22-.5-.5-.5-.27 0-.5.223-.5.5v8.07c0 .277.23.5.5.5.28 0 .5-.223.5-.5v-8.07Zm1.49-2.108c.27 0 .5.224.5.5v11.286c0 .276-.23.5-.5.5-.28 0-.5-.224-.5-.5V6.857c0-.276.22-.5.5-.5Zm2.48 2.108c0-.277-.23-.5-.5-.5-.28 0-.5.223-.5.5v8.07c0 .277.22.5.5.5.27 0 .5-.223.5-.5v-8.07Zm1.48 1.178c.27 0 .5.224.5.5v4.714c0 .276-.23.5-.5.5-.28 0-.5-.224-.5-.5v-4.714c0-.276.22-.5.5-.5Zm2.48 2.571c0-.276-.22-.5-.5-.5s-.5.224-.5.5v.572c0 .276.22.5.5.5s.5-.224.5-.5v-.572Z" fill="#18303F" yggColor="iconDefault"/></g></svg>