<svg fill="none" height="25" viewBox="0 0 25 25" width="25"><path clip-rule="evenodd" d="m6.56 3.429c.27 0 .5.224.5.5v17.142c0 .276-.23.5-.5.5-.28 0-.5-.224-.5-.5v-17.141c0-.276.22-.5.5-.5zm3.96 6.214c.28 0 .5.224.5.5v4.714c0 .276-.22.5-.5.5s-.5-.224-.5-.5v-4.714c0-.276.22-.5.5-.5zm-7.43.5c0-.276-.22-.5-.5-.5-.27 0-.5.224-.5.5v4.714c0 .276.23.5.5.5.28 0 .5-.224.5-.5zm5.45-3.786c.27 0 .5.224.5.5v11.286c0 .276-.23.5-.5.5-.28 0-.5-.224-.5-.5v-11.286c0-.276.22-.5.5-.5zm-3.47.5c0-.276-.22-.5-.5-.5-.27 0-.5.224-.5.5v11.286c0 .276.23.5.5.5.28 0 .5-.224.5-.5zm7.43 4.74c.28 0 .5.223.5.5v.807c0 .276-.22.5-.5.5s-.5-.224-.5-.5v-.807c0-.277.22-.5.5-.5zm-11.39.5c0-.277-.22-.5-.5-.5-.27 0-.5.223-.5.5v.807c0 .276.23.5.5.5.28 0 .5-.224.5-.5zm13.37-2.454c.28 0 .5.224.5.5v4.714c0 .276-.22.5-.5.5-.27 0-.5-.224-.5-.5v-4.714c0-.276.23-.5.5-.5zm2.48-1.178c0-.277-.22-.5-.5-.5-.27 0-.5.223-.5.5v8.07c0 .277.23.5.5.5.28 0 .5-.223.5-.5zm1.49-2.108c.27 0 .5.224.5.5v11.286c0 .276-.23.5-.5.5-.28 0-.5-.224-.5-.5v-11.286c0-.276.22-.5.5-.5zm2.48 2.108c0-.277-.23-.5-.5-.5-.28 0-.5.223-.5.5v8.07c0 .277.22.5.5.5.27 0 .5-.223.5-.5zm1.48 1.178c.27 0 .5.224.5.5v4.714c0 .276-.23.5-.5.5-.28 0-.5-.224-.5-.5v-4.714c0-.276.22-.5.5-.5zm2.48 2.571c0-.276-.22-.5-.5-.5s-.5.224-.5.5v.572c0 .276.22.5.5.5s.5-.224.5-.5z" fill="#18303f" fill-rule="evenodd"/></svg>