<svg width="25" height="25" viewBox="0 0 25 25" fill="none"><g id="noting_down"><path id="iconDefault" fill-rule="evenodd" clip-rule="evenodd" d="M8.55 2.5A2.509 2.509 0 0 1 11 .5c1.205 0 2.217.862 2.45 2H15c.264 0 .522.09.716.284A.999.999 0 0 1 16 3.5a.5.5 0 0 1-1 0h-2a.5.5 0 0 1-.5-.5c0-.824-.676-1.5-1.5-1.5S9.5 2.176 9.5 3a.5.5 0 0 1-.5.5H7v3h4a.5.5 0 0 1 0 1H7a.998.998 0 0 1-.716-.284A.999.999 0 0 1 6 6.5v-2H2.5c-.186 0-.303.06-.371.129C2.06 4.697 2 4.814 2 5v18c0 .186.06.303.129.371.068.07.185.129.371.129h17c.186 0 .303-.06.371-.129.069-.068.129-.185.129-.371V12a.5.5 0 0 1 1 0v11c0 .414-.14.797-.421 1.079-.282.28-.665.421-1.079.421h-17c-.414 0-.797-.14-1.079-.421C1.14 23.797 1 23.414 1 23V5c0-.414.14-.797.421-1.079.282-.28.665-.421 1.079-.421H6c0-.264.09-.522.284-.716A.998.998 0 0 1 7 2.5h1.55ZM19 13.979a.5.5 0 0 0-1 0v5.893c0 .254-.068.41-.139.493-.064.074-.166.135-.352.135H11a.5.5 0 0 0 0 1h6.509c.443 0 .836-.164 1.111-.485.267-.31.38-.72.38-1.143V13.98ZM4 5.5a.998.998 0 0 0-.716.284A.999.999 0 0 0 3 6.5v9.6a.5.5 0 0 0 1 0V6.5h.5a.5.5 0 0 0 0-1H4Zm16.381.118a.5.5 0 1 1-1 0 .5.5 0 0 1 1 0ZM9.749 20.202a.499.499 0 0 0 .249-.173.453.453 0 0 0 .051-.045L23.268 6.765a2.5 2.5 0 0 0 0-3.535l-.998-.998a2.5 2.5 0 0 0-3.535 0L5.516 15.451a.44.44 0 0 0-.043.05.495.495 0 0 0-.175.25l-1.727 5.552a.499.499 0 0 0 .626.626l5.552-1.727Zm-2.762-3.799-.505-.504 12.96-12.96a1.5 1.5 0 0 1 2.121 0l.998.998a1.501 1.501 0 0 1 0 2.121l-12.96 12.96-.412-.413-.005-1.582 9.638-9.638a.5.5 0 0 0-.707-.707l-9.649 9.649-1.479.076Zm1.198.94-1.369.07a.5.5 0 0 1-.379-.146l-.43-.43-1.035 3.326.364.364 3.326-1.034-.326-.326a.5.5 0 0 1-.147-.353l-.004-1.471Z" fill="#18303F"/></g></svg>