<svg fill="none" height="25" viewBox="0 0 25 25" width="25"><path clip-rule="evenodd" d="m8.55 2.5a2.509 2.509 0 0 1 2.45-2c1.205 0 2.217.862 2.45 2h1.55c.264 0 .522.09.716.284a.999.999 0 0 1 .284.716.5.5 0 0 1 -1 0h-2a.5.5 0 0 1 -.5-.5c0-.824-.676-1.5-1.5-1.5s-1.5.676-1.5 1.5a.5.5 0 0 1 -.5.5h-2v3h4a.5.5 0 0 1 0 1h-4a.998.998 0 0 1 -.716-.284.999.999 0 0 1 -.284-.716v-2h-3.5c-.186 0-.303.06-.371.129-.069.068-.129.185-.129.371v18c0 .186.06.303.129.371.068.07.185.129.371.129h17c.186 0 .303-.06.371-.129.069-.068.129-.185.129-.371v-11a.5.5 0 0 1 1 0v11c0 .414-.14.797-.421 1.079-.282.28-.665.421-1.079.421h-17c-.414 0-.797-.14-1.079-.421-.281-.282-.421-.665-.421-1.079v-18c0-.414.14-.797.421-1.079.282-.28.665-.421 1.079-.421h3.5c0-.264.09-.522.284-.716a.998.998 0 0 1 .716-.284zm10.45 11.479a.5.5 0 0 0 -1 0v5.893c0 .254-.068.41-.139.493-.064.074-.166.135-.352.135h-6.509a.5.5 0 0 0 0 1h6.509c.443 0 .836-.164 1.111-.485.267-.31.38-.72.38-1.143v-5.892zm-15-8.479a.998.998 0 0 0 -.716.284.999.999 0 0 0 -.284.716v9.6a.5.5 0 0 0 1 0v-9.6h.5a.5.5 0 0 0 0-1zm16.381.118a.5.5 0 1 1 -1 0 .5.5 0 0 1 1 0zm-10.632 14.584a.499.499 0 0 0 .249-.173.453.453 0 0 0 .051-.045l13.219-13.219a2.5 2.5 0 0 0 0-3.535l-.998-.998a2.5 2.5 0 0 0 -3.535 0l-13.219 13.219a.44.44 0 0 0 -.043.05.495.495 0 0 0 -.175.25l-1.727 5.552a.499.499 0 0 0 .626.626zm-2.762-3.799-.505-.504 12.96-12.96a1.5 1.5 0 0 1 2.121 0l.998.998a1.501 1.501 0 0 1 0 2.121l-12.96 12.96-.412-.413-.005-1.582 9.638-9.638a.5.5 0 0 0 -.707-.707l-9.649 9.649-1.479.076zm1.198.94-1.369.07a.5.5 0 0 1 -.379-.146l-.43-.43-1.035 3.326.364.364 3.326-1.034-.326-.326a.5.5 0 0 1 -.147-.353z" fill="#18303f" fill-rule="evenodd"/></svg>