<svg width="25" height="25" viewBox="0 0 25 25" fill="none"><g id="office"><path id="iconSuccess" fill-rule="evenodd" clip-rule="evenodd" d="M19.5 2.5a3 3 0 1 0 0 6 3 3 0 0 0 0-6Zm-4 3a4 4 0 1 1 8 0 4 4 0 0 1-8 0Zm4-2a.5.5 0 0 1 .5.5v1.465a.5.5 0 0 0 .223.416l1.054.703a.5.5 0 1 1-.554.832l-1.055-.703A1.5 1.5 0 0 1 19 5.465V4a.5.5 0 0 1 .5-.5ZM3 5.5a.5.5 0 0 0-.5.5v6a.5.5 0 0 0 .5.5h10a.5.5 0 0 0 .5-.5V6a.5.5 0 0 0-.5-.5H3ZM1.5 6A1.5 1.5 0 0 1 3 4.5h10A1.5 1.5 0 0 1 14.5 6v6a1.5 1.5 0 0 1-1.5 1.5h-3v2h8V14a1.5 1.5 0 0 1 1-1.415V11a.5.5 0 1 1 1 0v1.5h.023l1.6-1.83a.5.5 0 0 1 .753.66l-1.298 1.483c.259.23.422.564.422.937v1.754a1.5 1.5 0 0 1 1.224 2.167l-.582 1.163a.5.5 0 0 0-.02.399l.872 2.326a1.436 1.436 0 1 1-2.69 1.009l-1.029-2.744a.5.5 0 0 0-.468-.324H5.193a.5.5 0 0 0-.468.324l-1.029 2.744a1.436 1.436 0 1 1-2.69-1.009l.873-2.326a.5.5 0 0 0-.021-.4l-.582-1.162A1.5 1.5 0 0 1 2.618 15.5H6v-2H3A1.5 1.5 0 0 1 1.5 12V6ZM7 13.5v2h2v-2H7Zm-4.649 9a.436.436 0 0 0 .409-.283l1.029-2.744a1.5 1.5 0 0 1 1.404-.973h13.614a1.5 1.5 0 0 1 1.405.973l1.028 2.744a.436.436 0 0 0 .818-.306l-.873-2.327a1.5 1.5 0 0 1 .063-1.198l.581-1.162a.5.5 0 0 0-.447-.724H2.618a.5.5 0 0 0-.447.724l.581 1.162a1.5 1.5 0 0 1 .063 1.198l-.872 2.326a.436.436 0 0 0 .408.59Zm18.15-7v-1.75a.25.25 0 0 0-.25-.25h-.75a.5.5 0 0 0-.5.5v1.5h1.5ZM6.5 11a.5.5 0 0 1 .5-.5h2a.5.5 0 0 1 0 1H7a.5.5 0 0 1-.5-.5Z" fill="#038C6A"/></g></svg>