<svg width="25" height="25" viewBox="0 0 25 25" fill="none"><g id="office"><path fill-rule="evenodd" clip-rule="evenodd" d="M7.113 1.5c3.66.945 7.311 1.918 10.955 2.92a.44.44 0 0 1 .068.113c.022 1.086.03 2.173.022 3.26 1.721-.008 3.441 0 5.161.022.07.055.123.123.158.204.031 5.07.031 10.14 0 15.21a.345.345 0 0 1-.249.248c-7.152.03-14.304.03-21.456 0a.345.345 0 0 1-.249-.249 103.672 103.672 0 0 1 0-4.39c.076-.231.235-.314.475-.25l.002.003.156.156c.023 1.358.031 2.716.023 4.074h4.663v-1.63c-.936.008-1.872 0-2.807-.022a.341.341 0 0 1-.204-.204c-.03-.634-.03-1.267 0-1.901a.341.341 0 0 1 .204-.204c.935-.023 1.871-.03 2.807-.023v-1.63c-.951.008-1.902 0-2.852-.022a.403.403 0 0 1-.159-.158 21.06 21.06 0 0 1 0-1.947.213.213 0 0 1 .159-.158 89.77 89.77 0 0 1 2.852-.023v-1.63a31.986 31.986 0 0 1-2.898-.067.317.317 0 0 1-.113-.159c-.03-.633-.03-1.267 0-1.901a.528.528 0 0 1 .159-.204 89.77 89.77 0 0 1 2.852-.022v-1.63c-.936.008-1.872 0-2.807-.023a.341.341 0 0 1-.204-.203c-.03-.634-.03-1.268 0-1.902a.341.341 0 0 1 .204-.203c.935-.023 1.871-.03 2.807-.023v-1.63H2.179c.008 1.781 0 3.562-.023 5.342-.259.262-.471.232-.633-.09a172.151 172.151 0 0 1 0-5.659.33.33 0 0 1 .158-.204c1.72-.022 3.44-.03 5.161-.022-.008-.981 0-1.962.022-2.943a.37.37 0 0 1 .249-.226Zm.408.815c3.321.843 6.633 1.718 9.936 2.625.022 5.96.03 11.92.022 17.881H7.521V2.315Zm2.082 4.753h1.177-1.177V8.29 7.068Zm4.617 0h1.177V8.29 7.068H14.22Zm-9.732.543h2.354v.996H4.488v-.996Zm13.67.86h4.663v14.35h-4.663V8.471Zm1.404 2.082h1.856v.77-.77h-1.856Zm-9.959.408v1.177h1.177-1.177V10.96Zm5.794 0v1.177H14.22h1.177V10.96Zm-10.909.634h2.354v.995H4.488v-.995Zm5.115 3.259v1.177h1.177-1.177v-1.177Zm4.617 1.177h1.177v-1.177 1.177H14.22Zm-9.732-.498h2.354v.996H4.488v-.996Zm6.292 4.39v-1.176H9.603h1.177v1.177Zm8.782-2.308h1.856V16.8v.815h-1.856ZM4.488 19.517h2.354v.995H4.488v-.995Zm15.074 1.222h1.856v-.815.815h-1.856ZM9.241 6.389c.634-.008 1.267 0 1.901.022a.32.32 0 0 1 .294.25c.03.678.03 1.357 0 2.036a.517.517 0 0 1-.158.204c-.725.03-1.449.03-2.173 0a.42.42 0 0 1-.113-.068 14.605 14.605 0 0 1-.046-2.263.523.523 0 0 1 .295-.181Zm6.518.022c-.633-.022-1.267-.03-1.901-.022a.383.383 0 0 0-.294.271c-.044.714-.029 1.423.045 2.128l.113.113c.759.044 1.513.029 2.264-.045a.41.41 0 0 0 .067-.113c.031-.725.031-1.449 0-2.173a.347.347 0 0 0-.294-.159Zm3.305 3.463c.951-.007 1.901 0 2.852.023.07.055.123.123.158.204a8.893 8.893 0 0 1-.045 1.765.316.316 0 0 1-.159.113c-.954.045-1.905.03-2.851-.045a.313.313 0 0 1-.114-.158c-.03-.574-.03-1.147 0-1.72a.887.887 0 0 0 .159-.182Zm-7.877.43a45.815 45.815 0 0 0-2.037-.022c-.072.05-.14.11-.204.181-.043.759-.028 1.513.046 2.263a.417.417 0 0 0 .113.068c.724.03 1.448.03 2.173 0a.516.516 0 0 0 .158-.204c.043-.727.028-1.451-.045-2.172a.32.32 0 0 0-.204-.113Zm2.626-.022c.679-.008 1.358 0 2.037.023a.512.512 0 0 1 .203.158c.031.724.031 1.449 0 2.173a.41.41 0 0 1-.067.113 14.49 14.49 0 0 1-2.264.045 12.044 12.044 0 0 0-.113-.113 12.799 12.799 0 0 1-.045-2.127.332.332 0 0 1 .249-.272ZM2.156 12.545a.367.367 0 0 0-.339-.226.383.383 0 0 0-.294.271 6.357 6.357 0 0 0 0 1.087c.06.158.173.234.339.226.15.024.248-.037.294-.18a7.458 7.458 0 0 0 0-1.178Zm16.953.453c.955-.022 1.905.001 2.852.068.054.04.092.093.113.158a8.893 8.893 0 0 1-.045 1.766 12.05 12.05 0 0 0-.113.113 44.9 44.9 0 0 1-2.852 0l-.159-.159c-.03-.573-.03-1.146 0-1.72a.505.505 0 0 1 .204-.226Zm-7.876 1.2a47.907 47.907 0 0 0-2.083-.023c-.072.05-.14.11-.204.181-.043.759-.028 1.513.046 2.263a.417.417 0 0 0 .113.068l1.064.023c.389.006.774-.016 1.154-.068a.318.318 0 0 0 .113-.158c.043-.728.028-1.452-.045-2.173a.319.319 0 0 0-.158-.113Zm2.534-.023c.695-.008 1.389 0 2.083.023a.512.512 0 0 1 .203.158c.031.724.031 1.449 0 2.173a.41.41 0 0 1-.067.113c-.736.074-1.475.09-2.219.045a.319.319 0 0 1-.158-.113 12.799 12.799 0 0 1-.045-2.127.382.382 0 0 1 .203-.272ZM2.156 15.623a.384.384 0 0 0-.43-.18.382.382 0 0 0-.203.271 6.357 6.357 0 0 0 0 1.086c.11.214.283.282.52.204a.312.312 0 0 0 .113-.158 8.044 8.044 0 0 0 0-1.223Zm16.953.498c.955-.021 1.905.001 2.852.068.054.041.092.094.113.159a8.894 8.894 0 0 1-.045 1.765l-.113.113c-.985.045-1.966.03-2.943-.045a.44.44 0 0 1-.068-.113 16.45 16.45 0 0 1 0-1.72.505.505 0 0 1 .204-.227Zm-7.876 1.97c-.71-.023-1.419-.03-2.128-.023a.321.321 0 0 0-.159.18 26.24 26.24 0 0 0 0 2.174c.055.07.123.123.204.158a13.36 13.36 0 0 0 2.173-.045.317.317 0 0 0 .113-.204c.044-.713.029-1.422-.045-2.127a.319.319 0 0 0-.158-.114Zm2.534-.023c.71-.008 1.419 0 2.128.022.042.017.079.04.113.068.074.75.089 1.505.045 2.264a12.05 12.05 0 0 1-.113.113c-.72.074-1.444.089-2.173.045a.319.319 0 0 1-.158-.113 13.583 13.583 0 0 1-.045-2.173.497.497 0 0 1 .203-.226Zm8.194 1.245a30.469 30.469 0 0 0-2.807-.068.37.37 0 0 0-.249.226c-.03.574-.03 1.147 0 1.72a.314.314 0 0 0 .114.159c.918.073 1.838.088 2.761.045a.66.66 0 0 0 .249-.113 9.44 9.44 0 0 0 .045-1.81.318.318 0 0 0-.113-.16Z" fill="#18303F" yggColor="iconDefault"/></g></svg>