<svg width="25" height="25" viewBox="0 0 25 25" fill="none"><g id="old_man"><path fill-rule="evenodd" clip-rule="evenodd" d="M16.94 2.32C15.813 1.065 14.2.45 12.5.536A6.001 6.001 0 0 0 7.963 2.32a1.482 1.482 0 0 0-.784 0l-1.494.398C4.944 2.874 4.5 3.49 4.5 4.205v3.1c0 .579.292.999.546 1.253a.5.5 0 0 0 .196.12c.163.055.37.115.587.147l.037.005c-.14.159-.238.347-.3.538-.111.344-.121.73-.061 1.096.116.71.531 1.518 1.286 1.862a.583.583 0 0 0 .049.019c.085.028.158.13.158.226 0 .025.002.05.006.076.228 1.478 1.237 2.68 2.303 3.496a7.79 7.79 0 0 0 1.637.965c.518.222 1.033.363 1.454.363.417 0 .929-.132 1.449-.346a7.59 7.59 0 0 0 1.64-.942c1.06-.799 2.058-1.986 2.298-3.49.08-.214.194-.322.271-.348a.474.474 0 0 0 .049-.02c.756-.343 1.171-1.152 1.287-1.861a2.378 2.378 0 0 0-.062-1.096 1.51 1.51 0 0 0-.266-.499c.021 0 .041-.002.061-.003.214-.017.479-.083.689-.27.448-.319.586-.787.586-1.191v-3.2c0-.715-.445-1.331-1.185-1.487l-1.487-.397-.007-.001a1.485 1.485 0 0 0-.781 0Zm-.825.58c-.914-.96-2.2-1.44-3.588-1.363a.495.495 0 0 1-.055 0 5.009 5.009 0 0 0-3.698 1.386c.244.436.226.946.107 1.318l-.785 3.24a.9.9 0 0 1-.106.325 1.706 1.706 0 0 1-.693.658l-.387.166a.358.358 0 0 0 .036.117.5.5 0 0 1-.245.68c-.061.028-.133.093-.183.249-.052.16-.067.38-.026.627.083.506.359.94.696 1.104.481.176.791.64.809 1.119.183 1.109.967 2.095 1.918 2.822.474.363.972.648 1.422.841.46.197.833.282 1.061.282.234 0 .609-.081 1.068-.27.45-.186.947-.462 1.419-.817.954-.719 1.745-1.714 1.919-2.887a.493.493 0 0 1 .02-.085c.118-.355.386-.824.885-1.005.337-.163.613-.598.696-1.104a1.39 1.39 0 0 0-.026-.627c-.051-.156-.122-.221-.184-.248a.501.501 0 0 1-.297-.457c0-.158.036-.306.059-.398l-.254-.109a1.975 1.975 0 0 1-.507-.381 3.365 3.365 0 0 1-.412-.501.476.476 0 0 1-.069-.156l-.8-3.2c-.055-.22-.1-.473-.06-.735.034-.218.121-.414.26-.592Zm-8.69.389-1.496.399a.542.542 0 0 1-.031.007c-.249.05-.398.23-.398.51v3.1c0 .18.072.334.178.463.099.03.199.053.293.067a.692.692 0 0 0 .257 0l.656-.282a.905.905 0 0 0 .22-.212.506.506 0 0 1 .01-.054l.8-3.3a.294.294 0 0 1 .012-.04.718.718 0 0 0-.02-.528.573.573 0 0 0-.216-.137.48.48 0 0 0-.265.007Zm9.528.17a.648.648 0 0 1 .256-.177.484.484 0 0 1 .266.007l1.496.399.031.007c.249.05.398.23.398.51v3.2c0 .184-.055.302-.178.384a.475.475 0 0 0-.071.057c-.008.004-.036.018-.102.023a.778.778 0 0 1-.274-.033l-.66-.283a1.22 1.22 0 0 1-.212-.177 2.48 2.48 0 0 1-.241-.282l-.777-3.11c-.045-.18-.051-.278-.041-.34.007-.046.025-.101.109-.186ZM11 3.97a.5.5 0 0 1 .5-.5h2a.5.5 0 0 1 0 1h-2a.5.5 0 0 1-.5-.5Zm-.5 4.5c-.546 0-1.112.267-1.416.723a.5.5 0 0 0 .832.555c.096-.144.33-.278.584-.278.254 0 .488.134.584.278a.5.5 0 1 0 .832-.555c-.304-.456-.87-.723-1.416-.723Zm.8 4.6a.5.5 0 1 0-.6.8c.468.351 1.071.6 1.7.6h.3c.629 0 1.232-.249 1.7-.6a.5.5 0 1 0-.6-.8c-.332.25-.729.4-1.1.4h-.3c-.371 0-.768-.15-1.1-.4Zm3.2-4.6c-.546 0-1.112.267-1.416.723a.5.5 0 0 0 .832.555c.096-.144.33-.278.584-.278.254 0 .488.134.584.278a.5.5 0 1 0 .832-.555c-.304-.456-.87-.723-1.416-.723ZM11 5.97a.5.5 0 0 1 .5-.5h2a.5.5 0 0 1 0 1h-2a.5.5 0 0 1-.5-.5Zm5.028 11.436a.5.5 0 0 1 .636-.308l4.9 1.7a.5.5 0 1 1-.328.944l-4.9-1.7a.5.5 0 0 1-.308-.636Zm-7.053.009a.5.5 0 0 1-.32.63l-4.889 1.597C2.367 20.17 1.5 21.482 1.5 22.87v1a.5.5 0 0 1-1 0v-1c0-1.808 1.129-3.495 2.924-4.168a.576.576 0 0 1 .021-.007l4.9-1.6a.5.5 0 0 1 .63.32ZM11 18.47a.5.5 0 0 1 .5.5c0 .39.264.753.614.914l.008.002.012.003a.52.52 0 0 1 .104.042.895.895 0 0 0 .524 0 .52.52 0 0 1 .104-.042l.013-.003.007-.002c.35-.16.614-.524.614-.914a.5.5 0 0 1 1 0c0 .679-.367 1.297-.909 1.66l.891 3.207a.5.5 0 1 1-.964.267l-.872-3.14a1.856 1.856 0 0 1-.292 0l-.872 3.14a.5.5 0 0 1-.964-.267l.891-3.206c-.542-.364-.909-.982-.909-1.66a.5.5 0 0 1 .5-.5Zm11-5c-.824 0-1.5.676-1.5 1.5a.5.5 0 0 1-1 0c0-1.376 1.124-2.5 2.5-2.5s2.5 1.124 2.5 2.5v9a.5.5 0 0 1-1 0v-9c0-.824-.676-1.5-1.5-1.5Z" fill="#18303F" yggColor="iconDefault"/></g></svg>