<svg width="25" height="25" viewBox="0 0 25 25" fill="none"><g yggColor="panda"><path yggColor="iconDefault" fill-rule="evenodd" clip-rule="evenodd" d="M8.895 2.908a2.89 2.89 0 0 0-.535-.738C6.952.763 4.372 1.06 2.597 2.835.822 4.61.525 7.19 1.933 8.597c.238.24.511.429.807.57A7.631 7.631 0 0 0 1.4 11.87l-.236.886c-.952 3.562.775 7.072 3.745 8.677.937.506 1.934.65 2.928.57a3.467 3.467 0 0 0 2.999 1.715h3.328a3.468 3.468 0 0 0 2.999-1.715c.994.08 1.991-.064 2.928-.57 2.97-1.605 4.697-5.115 3.745-8.677l-.236-.886a7.631 7.631 0 0 0-1.364-2.734c.271-.138.522-.317.743-.538 1.408-1.408 1.11-3.988-.664-5.763C20.54 1.06 17.96.763 16.552 2.17c-.21.21-.382.446-.516.701a7.647 7.647 0 0 0-7.141.037Zm8.661 18.113c.722.016 1.418-.12 2.06-.468 2.585-1.396 4.08-4.448 3.254-7.539l-.236-.886a6.623 6.623 0 0 0-1.445-2.687L17.45 5.23c-2.633-2.966-7.267-2.966-9.9 0L3.811 9.441a6.623 6.623 0 0 0-1.445 2.687l-.236.886c-.826 3.091.669 6.143 3.254 7.54.642.346 1.338.483 2.06.467a3.47 3.47 0 0 1 .031-1.68l.099-.37c.14-.524.4-1.007.76-1.412l1.564-1.763a3.48 3.48 0 0 1 5.204 0l1.564 1.763c.36.405.62.888.76 1.412l.099.37a3.47 3.47 0 0 1 .031 1.68Zm-9.107-.11a2.458 2.458 0 0 1-.008-1.311l.099-.371c.1-.373.285-.718.542-1.006l1.041-1.174.149.168a2.98 2.98 0 0 0 4.456 0l.149-.168 1.041 1.174c.257.288.442.633.541 1.006l.099.37c.121.452.109.9-.007 1.312-.989-.19-2.007-.602-2.994-1.098a2.352 2.352 0 0 0-2.114 0c-.987.496-2.005.908-2.994 1.098Zm2.931.044c.174-.082.345-.165.512-.249a1.353 1.353 0 0 1 1.216 0c.167.084.338.167.512.249a1.819 1.819 0 0 1-2.24 0Zm-.953.409c-.484.188-.984.35-1.492.466a2.462 2.462 0 0 0 1.901.888h3.328c.776 0 1.451-.35 1.901-.888a10.744 10.744 0 0 1-1.491-.466l.033.03a2.817 2.817 0 0 1-4.213 0l.033-.03Zm-1.473-7.331c.92-1.095 1.905-2.767.524-3.137a3.264 3.264 0 1 0-1.69 6.306c.283.076.502-.212.451-.5a3.248 3.248 0 0 1 .062-1.414c.128-.477.355-.9.653-1.255Zm7.092 0c-.92-1.095-1.906-2.767-.524-3.137a3.264 3.264 0 1 1 1.69 6.306c-.283.076-.502-.212-.451-.5a3.248 3.248 0 0 0-.062-1.414 3.256 3.256 0 0 0-.653-1.255Z" fill="#18303F"/></g></svg>