<svg fill="none" height="25" viewBox="0 0 25 25" width="25"><path clip-rule="evenodd" d="m4.375 5a2.292 2.292 0 0 1 2.292-2.292h1.666a2.292 2.292 0 0 1 2.292 2.292v15a2.292 2.292 0 0 1 -2.292 2.292h-1.666a2.292 2.292 0 0 1 -2.292-2.292zm2.292-1.042c-.576 0-1.042.467-1.042 1.042v15c0 .575.466 1.042 1.042 1.042h1.666c.576 0 1.042-.467 1.042-1.042v-15c0-.575-.466-1.042-1.042-1.042zm7.708 1.042a2.292 2.292 0 0 1 2.292-2.292h1.666a2.292 2.292 0 0 1 2.292 2.292v15a2.292 2.292 0 0 1 -2.292 2.292h-1.666a2.292 2.292 0 0 1 -2.292-2.292zm2.292-1.042c-.576 0-1.042.467-1.042 1.042v15c0 .575.466 1.042 1.042 1.042h1.666c.576 0 1.042-.467 1.042-1.042v-15c0-.575-.466-1.042-1.042-1.042z" fill="#18303f" fill-rule="evenodd"/></svg>