<svg width="15" height="15" viewBox="0 0 15 15" fill="none" xmlns="http://www.w3.org/2000/svg">
<path fill-rule="evenodd" clip-rule="evenodd" d="M2.625 3C2.625 2.24061 3.24061 1.625 4 1.625H5C5.75939 1.625 6.375 2.24061 6.375 3V12C6.375 12.7594 5.75939 13.375 5 13.375H4C3.24061 13.375 2.625 12.7594 2.625 12V3ZM4 2.375C3.65482 2.375 3.375 2.65482 3.375 3V12C3.375 12.3452 3.65482 12.625 4 12.625H5C5.34518 12.625 5.625 12.3452 5.625 12V3C5.625 2.65482 5.34518 2.375 5 2.375H4ZM8.625 3C8.625 2.24061 9.24061 1.625 10 1.625H11C11.7594 1.625 12.375 2.24061 12.375 3V12C12.375 12.7594 11.7594 13.375 11 13.375H10C9.24061 13.375 8.625 12.7594 8.625 12V3ZM10 2.375C9.65482 2.375 9.375 2.65482 9.375 3V12C9.375 12.3452 9.65482 12.625 10 12.625H11C11.3452 12.625 11.625 12.3452 11.625 12V3C11.625 2.65482 11.3452 2.375 11 2.375H10Z" fill="#18303F"/>
</svg>
