<svg fill="none" height="25" viewBox="0 0 25 25" width="25"><path d="m6.25 12.5a3.125 3.125 0 1 1 -6.25 0c0 6.887 5.57 12.474 12.452 12.5a3.125 3.125 0 0 1 .048-6.25v-6.25z" fill="#fed6e4"/><g clip-rule="evenodd" fill-rule="evenodd"><path d="m3.125 13.702a1.202 1.202 0 1 0 0-2.404 1.202 1.202 0 0 0 0 2.404zm9.375 9.375a1.202 1.202 0 1 0 0-2.404 1.202 1.202 0 0 0 0 2.404zm-6.25-10.577a3.125 3.125 0 1 1 -6.25 0 3.125 3.125 0 0 1 6.25 0zm9.375 9.375a3.125 3.125 0 1 1 -6.25 0 3.125 3.125 0 0 1 6.25 0z" fill="#c70546"/><path d="m12.5 4.25a1.125 1.125 0 1 0 0-2.25 1.125 1.125 0 0 0 0 2.25zm9.375 9.375a1.125 1.125 0 1 0 0-2.25 1.125 1.125 0 0 0 0 2.25zm-6.25-10.5a3.125 3.125 0 1 1 -6.25 0 3.125 3.125 0 0 1 6.25 0zm9.375 9.375a3.125 3.125 0 1 1 -6.25 0 3.125 3.125 0 0 1 6.25 0z" fill="#18303f"/></g></svg>