<svg fill="none" height="25" viewBox="0 0 25 25" width="25"><path clip-rule="evenodd" d="m3.125 13.702a1.202 1.202 0 1 0 0-2.404 1.202 1.202 0 0 0 0 2.404zm9.375 9.375a1.202 1.202 0 1 0 0-2.404 1.202 1.202 0 0 0 0 2.404zm-6.25-10.577a3.125 3.125 0 1 1 -6.25 0 3.125 3.125 0 0 1 6.25 0zm9.375 9.375a3.125 3.125 0 1 1 -6.25 0 3.125 3.125 0 0 1 6.25 0zm-3.125-17.625a1.125 1.125 0 1 0 0-2.25 1.125 1.125 0 0 0 0 2.25zm9.375 9.375a1.125 1.125 0 1 0 0-2.25 1.125 1.125 0 0 0 0 2.25zm-6.25-10.5a3.125 3.125 0 1 1 -6.25 0 3.125 3.125 0 0 1 6.25 0zm9.375 9.375a3.125 3.125 0 1 1 -6.25 0 3.125 3.125 0 0 1 6.25 0z" fill="#18303f" fill-rule="evenodd"/></svg>