<svg width="25" height="25" viewBox="0 0 25 25" fill="none"><g id="permission_allow"><path d="M5.503.773c-.408 0-.802.07-1.17.2a3.794 3.794 0 0 0-2.52 3.549c0 2.03 1.673 3.748 3.689 3.748.407 0 .8-.07 1.17-.2a3.794 3.794 0 0 0 2.52-3.549c0-2.03-1.674-3.748-3.69-3.748Zm-2.69 3.748A2.79 2.79 0 0 1 4.659 1.92c.267-.094.551-.145.844-.145 1.446 0 2.688 1.252 2.688 2.748a2.79 2.79 0 0 1-1.844 2.602c-.267.094-.551.145-.843.145-1.447 0-2.69-1.252-2.69-2.748Zm.287 5.996-.007.006c-.998.808-1.648 2.12-1.648 3.66v1.813a.5.5 0 0 1-1 0v-1.812c0-2.91 2-5.308 4.688-5.51.122-.008.246-.013.37-.013 2.872 0 5.056 2.48 5.056 5.523v1.812a.5.5 0 1 1-1 0v-1.813c0-1.535-.645-2.842-1.636-3.65a3.808 3.808 0 0 0-2.422-.871c-.883 0-1.702.303-2.37.83l-.031.025ZM7.78 17.2a.5.5 0 0 0-.498.463l-.42 5.565h-2.72l-.42-5.565a.5.5 0 0 0-.499-.462H2.57a.5.5 0 0 0 0 1h.19l.42 5.565a.5.5 0 0 0 .499.462h3.646a.5.5 0 0 0 .499-.463l.42-5.565h.19a.5.5 0 0 0 0-1H7.78Zm2.822.477v.023a.5.5 0 0 1-.5.5h-.024a.5.5 0 0 1-.344-.863.499.499 0 0 1 .868.34Zm-10.2.012v.012a.5.5 0 0 0 .5.5h.024a.5.5 0 0 0 .345-.862.499.499 0 0 0-.869.338v.012Zm16.632 2.876.008.008.01.011a.498.498 0 0 0 .728-.02l3.685-3.685a.5.5 0 1 0-.707-.707l-3.351 3.351-1.71-1.71a.5.5 0 0 0-.707.708l2.044 2.044Zm-4.69-2.335a5.885 5.885 0 1 1 11.77 0 5.885 5.885 0 0 1-11.77 0Zm5.885-4.885a4.885 4.885 0 1 0 0 9.77 4.885 4.885 0 0 0 0-9.77Z" fill="#18303F" yggColor="iconDefault"/></g></svg>