<svg fill="none" height="25" viewBox="0 0 25 25" width="25"><path clip-rule="evenodd" d="m17.332.973a3.54 3.54 0 0 1 1.17-.2c2.016 0 3.69 1.718 3.69 3.748a3.794 3.794 0 0 1 -2.52 3.55 3.54 3.54 0 0 1 -1.17.199c-2.016 0-3.69-1.718-3.69-3.748a3.794 3.794 0 0 1 2.52-3.55zm.326.946a2.79 2.79 0 0 0 -1.844 2.602c0 1.496 1.242 2.748 2.689 2.748.292 0 .576-.05.843-.145a2.79 2.79 0 0 0 1.844-2.602c0-1.496-1.242-2.748-2.689-2.748-.292 0-.576.05-.843.145zm-1.565 8.604.007-.006.032-.025a3.803 3.803 0 0 1 3.067-.767 3.808 3.808 0 0 1 1.724.807c.991.809 1.636 2.116 1.636 3.652v1.812a.5.5 0 0 0 1 0v-1.813c0-3.041-2.184-5.522-5.056-5.522-.124 0-.248.005-.37.014-2.689.201-4.688 2.598-4.688 5.509v1.812a.5.5 0 0 0 1 0v-1.812c0-1.541.65-2.853 1.648-3.661zm4.19 7.139a.5.5 0 0 1 .498-.463h.653a.5.5 0 1 1 0 1h-.19l-.42 5.565a.5.5 0 0 1 -.499.463h-3.645a.5.5 0 0 1 -.499-.462l-.42-5.565h-.19a.5.5 0 1 1 0-1h.653a.5.5 0 0 1 .499.462l.42 5.565h2.719l.42-5.565zm3.319.023v-.01a.5.5 0 0 0 -.868-.339.498.498 0 0 0 .344.863h.024a.5.5 0 0 0 .5-.514zm-10.2.015v-.024a.5.5 0 0 1 .87-.338.499.499 0 0 1 -.346.862h-.024a.5.5 0 0 1 -.5-.5z" fill="#18303f" fill-rule="evenodd"/><path d="m4.327 8.304a.5.5 0 0 0 .707.707l1.454-1.453 1.48 1.48a.5.5 0 1 0 .707-.707l-1.48-1.48 1.544-1.544a.5.5 0 0 0 -.707-.707l-1.544 1.544-1.518-1.517a.5.5 0 0 0 -.707.707l1.517 1.516z" fill="#f28102"/><path clip-rule="evenodd" d="m6.501 1.773a4.884 4.884 0 1 0 0 9.769 4.884 4.884 0 0 0 0-9.769zm-5.884 4.885a5.884 5.884 0 1 1 11.769 0 5.884 5.884 0 0 1 -11.769 0z" fill="#6d7b82" fill-rule="evenodd"/></svg>