<svg fill="none" height="25" viewBox="0 0 25 25" width="25"><path d="m17.034 20.564a.498.498 0 0 0 .745 0l3.686-3.686a.5.5 0 1 0 -.707-.707l-3.351 3.351-1.71-1.71a.5.5 0 0 0 -.707.708z" fill="#038c6a"/><g clip-rule="evenodd" fill-rule="evenodd"><path d="m18.229 13.344a4.885 4.885 0 1 0 0 9.77 4.885 4.885 0 0 0 0-9.77zm-5.885 4.885a5.885 5.885 0 1 1 11.77 0 5.885 5.885 0 0 1 -11.77 0z" fill="#6d7b82"/><path d="m4.333.973a3.54 3.54 0 0 1 1.17-.2c2.015 0 3.688 1.718 3.688 3.748a3.794 3.794 0 0 1 -2.52 3.55 3.54 3.54 0 0 1 -1.17.199c-2.015 0-3.688-1.718-3.688-3.748a3.794 3.794 0 0 1 2.52-3.55zm.325.946a2.79 2.79 0 0 0 -1.844 2.601c0 1.496 1.242 2.748 2.689 2.748.292 0 .576-.05.843-.145a2.79 2.79 0 0 0 1.844-2.601c0-1.496-1.242-2.748-2.688-2.748-.293 0-.577.05-.844.145zm-1.565 8.604.007-.006.032-.025a3.803 3.803 0 0 1 3.067-.767 3.808 3.808 0 0 1 1.724.807c.991.809 1.636 2.116 1.636 3.652v1.812a.5.5 0 0 0 1 0v-1.813c0-3.041-2.184-5.522-5.056-5.522-.124 0-.248.005-.37.014-2.689.201-4.688 2.598-4.688 5.509v1.812a.5.5 0 0 0 1 0v-1.812c0-1.541.65-2.853 1.648-3.661zm4.19 7.139a.5.5 0 0 1 .498-.463h.653a.5.5 0 1 1 0 1h-.19l-.42 5.565a.5.5 0 0 1 -.499.463h-3.645a.5.5 0 0 1 -.499-.462l-.421-5.565h-.19a.5.5 0 1 1 0-1h.653a.5.5 0 0 1 .499.462l.42 5.565h2.72l.42-5.565zm3.318.023v-.01a.5.5 0 0 0 -.867-.339.499.499 0 0 0 .344.863h.024a.5.5 0 0 0 .5-.514zm-10.199.015v-.024a.5.5 0 0 1 .87-.338.499.499 0 0 1 -.346.862h-.024a.5.5 0 0 1 -.5-.5z" fill="#18303f"/></g></svg>