<svg width="25" height="25" viewBox="0 0 25 25" fill="none"><path fill-rule="evenodd" clip-rule="evenodd" d="M10.234 3.39c6.234-1.242 12.252 2.583 12.651 8.017a1.594 1.594 0 0 0 1.107-1.511.5.5 0 0 1 1 0c0 1.257-.907 2.31-2.1 2.54-.282 4.722-4.948 8.384-10.385 8.387-3.84.104-7.47-1.87-9.47-5.214H1.55c-.427 0-.82-.144-1.11-.433-.288-.289-.433-.683-.433-1.11v-2.085c0-.426.145-.82.433-1.11.29-.288.683-.433 1.11-.433h.74a8.773 8.773 0 0 1 3.88-5.44 3.325 3.325 0 0 0-.907-1.527.878.878 0 0 1-.233-.504 2.6 2.6 0 0 1-.018-.357v-.014a.496.496 0 0 1 .061-.24c.046-.092.121-.242.225-.366a.821.821 0 0 1 .553-.307c1.663-.42 3.401.285 4.382 1.707Zm-.125 1.05c6.144-1.41 11.791 2.532 11.797 7.534v.015c-.005 4.23-4.178 7.834-9.406 7.834h-.014a9.71 9.71 0 0 1-8.727-4.959.499.499 0 0 0-.435-.255H1.551c-.199 0-.326-.064-.403-.14-.076-.076-.14-.203-.14-.402V11.98c0-.2.064-.326.14-.402.077-.076.204-.14.403-.14h1.147a.5.5 0 0 0 .492-.411c.39-2.147 1.656-4.004 3.511-5.182a.947.947 0 0 0 .432-.459.842.842 0 0 0-.003-.67 4.295 4.295 0 0 0-1.11-1.903 1.075 1.075 0 0 1-.006-.099l.003-.005a.362.362 0 0 0 .02-.035l.005-.008.012-.003.005-.001c1.332-.356 2.776.263 3.504 1.537a.5.5 0 0 0 .546.24Zm2.419 2.826c1.769-.098 3.523.394 4.877 1.458a.5.5 0 0 0 .618-.786c-1.566-1.23-3.566-1.78-5.551-1.67a.5.5 0 1 0 .056.998ZM6.771 21.584a.5.5 0 0 0 .962.274l.33-1.154a.5.5 0 1 0-.962-.275l-.33 1.155Zm11.267.618a.5.5 0 0 0 .343-.618l-.33-1.155a.5.5 0 1 0-.961.275l.329 1.154a.5.5 0 0 0 .619.344ZM6.28 11.097a.75.75 0 1 0 0-1.5.75.75 0 0 0 0 1.5Zm.154 11.84a.5.5 0 1 1 1 0 .5.5 0 0 1-1 0Zm11.74-.5a.5.5 0 1 1 0 1 .5.5 0 0 1 0-1Z" fill="#18303F" yggColor="pig"/></svg>