<svg width="25" height="25" viewBox="0 0 25 25" fill="none"><path fill-rule="evenodd" clip-rule="evenodd" d="M4.5 9.24c0-4.29 3.598-7.74 8-7.74s8 3.45 8 7.74c0 .446-.039.882-.113 1.307-.591 5.256-3.446 9.85-7.594 12.858a.5.5 0 0 1-.587 0c-4.148-3.009-7.003-7.604-7.593-12.86A7.577 7.577 0 0 1 4.5 9.24Zm8-6.74c-3.883 0-7 3.034-7 6.74a6.542 6.542 0 0 0 .105 1.178c.539 4.842 3.116 9.102 6.895 11.96 3.779-2.857 6.355-7.116 6.895-11.958a6.565 6.565 0 0 0 .105-1.18c0-3.707-3.117-6.741-7-6.741Zm0 4.345c-1.397 0-2.5 1.089-2.5 2.396s1.103 2.396 2.5 2.396S15 10.548 15 9.241s-1.103-2.396-2.5-2.396ZM9 9.24c0-1.892 1.584-3.396 3.5-3.396S16 7.349 16 9.24s-1.584 3.396-3.5 3.396S9 11.133 9 9.241Z" fill="#18303F" yggColor="pin"/></svg>