<svg fill="none" height="25" viewBox="0 0 25 25" width="25"><path clip-rule="evenodd" d="m3.11 5.785c0-2.886 2.398-5.285 5.284-5.285 2.887 0 5.285 2.399 5.285 5.285v2.57h.413a2.251 2.251 0 0 1 2.246 2.245v5.687a.5.5 0 0 1 -1 0v-5.687c0-.684-.562-1.246-1.246-1.246h-11.346c-.684 0-1.246.562-1.246 1.246v6.22c0 .954.442 1.895 1.15 2.604.709.708 1.65 1.15 2.604 1.15h1.068a.5.5 0 0 1 0 1h-1.068c-1.26 0-2.446-.579-3.311-1.443-.865-.865-1.443-2.051-1.443-3.311v-6.22a2.251 2.251 0 0 1 2.246-2.246h.364v-2.57zm5.284-4.285c-2.334 0-4.284 1.951-4.284 4.285v2.545h8.569v-2.545c0-2.334-1.951-4.285-4.285-4.285zm1.546 12.898c0 .678-.437 1.254-1.045 1.462v.713a.5.5 0 0 1 -1 0v-.714a1.545 1.545 0 1 1 2.045-1.461zm-2.088 0a.544.544 0 1 1 .549.544h-.012a.544.544 0 0 1 -.537-.544zm4.838 5.872a.5.5 0 0 0 -.707-.707l-.72.718-.718-.718a.5.5 0 1 0 -.707.707l.719.718-.762.762a.5.5 0 0 0 .707.707l.762-.762.762.762a.5.5 0 0 0 .707-.707l-.762-.762zm5-.707a.5.5 0 0 1 0 .707l-.72.718.763.762a.5.5 0 0 1 -.707.707l-.762-.762-.762.762a.5.5 0 1 1 -.707-.707l.762-.762-.72-.718a.5.5 0 0 1 .708-.707l.719.718.719-.718a.5.5 0 0 1 .707 0zm1.84 2.03a.5.5 0 0 0 0 1h2.453a.5.5 0 0 0 0-1zm-10.53-4.093a1.5 1.5 0 0 0 -1.5 1.5v4a1.5 1.5 0 0 0 1.5 1.5h14a1.5 1.5 0 0 0 1.5-1.5v-4a1.5 1.5 0 0 0 -1.5-1.5zm-.5 1.5a.5.5 0 0 1 .5-.5h14a.5.5 0 0 1 .5.5v4a.5.5 0 0 1 -.5.5h-14a.5.5 0 0 1 -.5-.5z" fill="#18303f" fill-rule="evenodd"/></svg>