<svg width="26" height="25" viewBox="0 0 26 25" fill="none"><g yggColor="pincode"><path yggColor="iconDefault" fill-rule="evenodd" clip-rule="evenodd" d="M3.123 5.785C3.123 2.899 5.52.5 8.407.5c2.887 0 5.285 2.399 5.285 5.285v2.57h.413A2.251 2.251 0 0 1 16.35 10.6v5.687a.5.5 0 0 1-1 0V10.6c0-.684-.562-1.246-1.246-1.246H2.759c-.684 0-1.246.562-1.246 1.246v6.22c0 .954.442 1.895 1.15 2.604.709.708 1.65 1.15 2.604 1.15h1.068a.5.5 0 0 1 0 1H5.267c-1.26 0-2.446-.579-3.311-1.443C1.09 19.266.513 18.08.513 16.82V10.6a2.251 2.251 0 0 1 2.246-2.246h.364v-2.57ZM8.407 1.5c-2.333 0-4.284 1.951-4.284 4.285V8.33h8.569V5.785c0-2.334-1.951-4.285-4.285-4.285Zm1.546 12.898c0 .678-.437 1.254-1.045 1.462v.713a.5.5 0 0 1-1 0v-.714a1.545 1.545 0 1 1 2.045-1.461Zm-2.088 0a.544.544 0 1 1 .549.544h-.012a.544.544 0 0 1-.537-.544Zm4.838 5.872a.5.5 0 0 0-.707-.707l-.719.718-.719-.718a.5.5 0 1 0-.707.707l.719.718-.762.762a.5.5 0 0 0 .707.707l.762-.762.762.762a.5.5 0 0 0 .707-.707l-.762-.762.719-.718Zm5-.707a.5.5 0 0 1 0 .707l-.719.718.762.762a.5.5 0 0 1-.707.707l-.762-.762-.762.762a.5.5 0 1 1-.707-.707l.762-.762-.719-.718a.5.5 0 0 1 .707-.707l.719.718.719-.718a.5.5 0 0 1 .707 0Zm1.84 2.03a.5.5 0 0 0 0 1h2.453a.5.5 0 0 0 0-1h-2.452ZM9.014 17.5a1.5 1.5 0 0 0-1.5 1.5v4a1.5 1.5 0 0 0 1.5 1.5h14a1.5 1.5 0 0 0 1.5-1.5v-4a1.5 1.5 0 0 0-1.5-1.5h-14Zm-.5 1.5a.5.5 0 0 1 .5-.5h14a.5.5 0 0 1 .5.5v4a.5.5 0 0 1-.5.5h-14a.5.5 0 0 1-.5-.5v-4Z" fill="#18303F"/></g></svg>