<svg fill="none" height="25" viewBox="0 0 25 25" width="25"><path clip-rule="evenodd" d="m18.013 16.782-10.095-10.095c1.43-1.395 3.183-2.874 5.11-3.535 1.032-.354 2.103-.469 3.2-.215 1.096.253 2.256.883 3.454 2.081s1.828 2.358 2.082 3.455c.253 1.096.139 2.167-.216 3.2-.66 1.927-2.14 3.68-3.535 5.109zm-10.79-9.377 10.072 10.073c-1.062.913-2.05 1.11-3.013.908-1.128-.238-2.306-1.043-3.58-2.197l-.377-.342-.335.383-4.601 5.262a.928.928 0 0 1 -1.356.045l-.87-.87a.929.929 0 0 1 .045-1.356l5.262-4.6.384-.336-.342-.377c-1.155-1.273-1.96-2.451-2.197-3.58-.204-.962-.006-1.95.907-3.013zm13.166-3.094c-1.304-1.305-2.625-2.046-3.936-2.349-1.312-.303-2.575-.159-3.75.244-2.327.799-4.353 2.632-5.847 4.125-1.4 1.4-1.828 2.835-1.52 4.294.267 1.266 1.078 2.485 2.097 3.664l-4.883 4.27a1.928 1.928 0 0 0 -.094 2.815l.87.87c.79.79 2.081.746 2.816-.094l4.27-4.883c1.178 1.02 2.397 1.83 3.663 2.097 1.459.308 2.894-.12 4.294-1.52 1.494-1.493 3.327-3.52 4.125-5.846.403-1.175.547-2.439.244-3.75-.303-1.312-1.044-2.633-2.349-3.937zm.772 18.96a1.427 1.427 0 1 0 0-2.854 1.427 1.427 0 0 0 0 2.854z" fill="#18303f" fill-rule="evenodd"/></svg>