<svg width="15" height="15" viewBox="0 0 15 15" fill="none" xmlns="http://www.w3.org/2000/svg">
<path d="M2.22656 2.8125C2.22656 2.4889 2.4889 2.22656 2.8125 2.22656H3.98438C4.17854 2.22656 4.33594 2.06916 4.33594 1.875C4.33594 1.68084 4.17854 1.52344 3.98438 1.52344H2.8125C2.10057 1.52344 1.52344 2.10057 1.52344 2.8125V3.98437C1.52344 4.17854 1.68084 4.33594 1.875 4.33594C2.06916 4.33594 2.22656 4.17854 2.22656 3.98437V2.8125Z" fill="#18303F"/>
<path d="M6.32812 1.52344C6.13396 1.52344 5.97656 1.68084 5.97656 1.875C5.97656 2.06916 6.13396 2.22656 6.32812 2.22656H8.67188C8.86604 2.22656 9.02344 2.06916 9.02344 1.875C9.02344 1.68084 8.86604 1.52344 8.67188 1.52344H6.32812Z" fill="#18303F"/>
<path d="M11.0156 1.52344C10.8215 1.52344 10.6641 1.68084 10.6641 1.875C10.6641 2.06916 10.8215 2.22656 11.0156 2.22656H12.1875C12.5111 2.22656 12.7734 2.4889 12.7734 2.8125V3.98438C12.7734 4.17854 12.9308 4.33594 13.125 4.33594C13.3192 4.33594 13.4766 4.17854 13.4766 3.98438V2.8125C13.4766 2.10057 12.8994 1.52344 12.1875 1.52344H11.0156Z" fill="#18303F"/>
<path d="M2.22656 6.32812C2.22656 6.13396 2.06916 5.97656 1.875 5.97656C1.68084 5.97656 1.52344 6.13396 1.52344 6.32812V8.67188C1.52344 8.86604 1.68084 9.02344 1.875 9.02344C2.06916 9.02344 2.22656 8.86604 2.22656 8.67188V6.32812Z" fill="#18303F"/>
<path d="M13.4766 6.32812C13.4766 6.13396 13.3192 5.97656 13.125 5.97656C12.9308 5.97656 12.7734 6.13396 12.7734 6.32812V8.67188C12.7734 8.86604 12.9308 9.02344 13.125 9.02344C13.3192 9.02344 13.4766 8.86604 13.4766 8.67188V6.32812Z" fill="#18303F"/>
<path d="M2.22656 11.0156C2.22656 10.8215 2.06916 10.6641 1.875 10.6641C1.68084 10.6641 1.52344 10.8215 1.52344 11.0156V12.1875C1.52344 12.8994 2.10057 13.4766 2.8125 13.4766H3.98437C4.17854 13.4766 4.33594 13.3192 4.33594 13.125C4.33594 12.9308 4.17854 12.7734 3.98437 12.7734H2.8125C2.4889 12.7734 2.22656 12.5111 2.22656 12.1875V11.0156Z" fill="#18303F"/>
<path d="M13.4766 11.0156C13.4766 10.8215 13.3192 10.6641 13.125 10.6641C12.9308 10.6641 12.7734 10.8215 12.7734 11.0156V12.1875C12.7734 12.5111 12.5111 12.7734 12.1875 12.7734H11.0156C10.8215 12.7734 10.6641 12.9308 10.6641 13.125C10.6641 13.3192 10.8215 13.4766 11.0156 13.4766H12.1875C12.8994 13.4766 13.4766 12.8994 13.4766 12.1875V11.0156Z" fill="#18303F"/>
<path d="M6.32812 12.7734C6.13396 12.7734 5.97656 12.9308 5.97656 13.125C5.97656 13.3192 6.13396 13.4766 6.32812 13.4766H8.67188C8.86604 13.4766 9.02344 13.3192 9.02344 13.125C9.02344 12.9308 8.86604 12.7734 8.67188 12.7734H6.32812Z" fill="#18303F"/>
<path fill-rule="evenodd" clip-rule="evenodd" d="M7.5 4.33594C5.75254 4.33594 4.33594 5.75254 4.33594 7.5C4.33594 9.24746 5.75254 10.6641 7.5 10.6641C9.24746 10.6641 10.6641 9.24746 10.6641 7.5C10.6641 5.75254 9.24746 4.33594 7.5 4.33594ZM5.03906 7.5C5.03906 6.14086 6.14086 5.03906 7.5 5.03906C8.85914 5.03906 9.96094 6.14086 9.96094 7.5C9.96094 8.85914 8.85914 9.96094 7.5 9.96094C6.14086 9.96094 5.03906 8.85914 5.03906 7.5Z" fill="#18303F"/>
</svg>
