<svg width="25" height="25" viewBox="0 0 25 25" fill="none" xmlns="http://www.w3.org/2000/svg">
<g id="placeholder">
<g id="iconDefault">
<path d="M3.71094 4.6875C3.71094 4.14816 4.14816 3.71094 4.6875 3.71094H6.64062C6.96423 3.71094 7.22656 3.4486 7.22656 3.125C7.22656 2.8014 6.96423 2.53906 6.64062 2.53906H4.6875C3.50095 2.53906 2.53906 3.50095 2.53906 4.6875V6.64062C2.53906 6.96423 2.8014 7.22656 3.125 7.22656C3.4486 7.22656 3.71094 6.96423 3.71094 6.64062V4.6875Z" fill="#18303F"/>
<path d="M10.5469 2.53906C10.2233 2.53906 9.96094 2.8014 9.96094 3.125C9.96094 3.4486 10.2233 3.71094 10.5469 3.71094H14.4531C14.7767 3.71094 15.0391 3.4486 15.0391 3.125C15.0391 2.8014 14.7767 2.53906 14.4531 2.53906H10.5469Z" fill="#18303F"/>
<path d="M18.3594 2.53906C18.0358 2.53906 17.7734 2.8014 17.7734 3.125C17.7734 3.4486 18.0358 3.71094 18.3594 3.71094H20.3125C20.8518 3.71094 21.2891 4.14816 21.2891 4.6875V6.64062C21.2891 6.96423 21.5514 7.22656 21.875 7.22656C22.1986 7.22656 22.4609 6.96423 22.4609 6.64062V4.6875C22.4609 3.50095 21.4991 2.53906 20.3125 2.53906H18.3594Z" fill="#18303F"/>
<path d="M3.71094 10.5469C3.71094 10.2233 3.4486 9.96094 3.125 9.96094C2.8014 9.96094 2.53906 10.2233 2.53906 10.5469V14.4531C2.53906 14.7767 2.8014 15.0391 3.125 15.0391C3.4486 15.0391 3.71094 14.7767 3.71094 14.4531V10.5469Z" fill="#18303F"/>
<path d="M22.4609 10.5469C22.4609 10.2233 22.1986 9.96094 21.875 9.96094C21.5514 9.96094 21.2891 10.2233 21.2891 10.5469V14.4531C21.2891 14.7767 21.5514 15.0391 21.875 15.0391C22.1986 15.0391 22.4609 14.7767 22.4609 14.4531V10.5469Z" fill="#18303F"/>
<path d="M3.71094 18.3594C3.71094 18.0358 3.4486 17.7734 3.125 17.7734C2.8014 17.7734 2.53906 18.0358 2.53906 18.3594V20.3125C2.53906 21.4991 3.50095 22.4609 4.6875 22.4609H6.64062C6.96423 22.4609 7.22656 22.1986 7.22656 21.875C7.22656 21.5514 6.96423 21.2891 6.64062 21.2891H4.6875C4.14816 21.2891 3.71094 20.8518 3.71094 20.3125V18.3594Z" fill="#18303F"/>
<path d="M22.4609 18.3594C22.4609 18.0358 22.1986 17.7734 21.875 17.7734C21.5514 17.7734 21.2891 18.0358 21.2891 18.3594V20.3125C21.2891 20.8518 20.8518 21.2891 20.3125 21.2891H18.3594C18.0358 21.2891 17.7734 21.5514 17.7734 21.875C17.7734 22.1986 18.0358 22.4609 18.3594 22.4609H20.3125C21.4991 22.4609 22.4609 21.4991 22.4609 20.3125V18.3594Z" fill="#18303F"/>
<path d="M10.5469 21.2891C10.2233 21.2891 9.96094 21.5514 9.96094 21.875C9.96094 22.1986 10.2233 22.4609 10.5469 22.4609H14.4531C14.7767 22.4609 15.0391 22.1986 15.0391 21.875C15.0391 21.5514 14.7767 21.2891 14.4531 21.2891H10.5469Z" fill="#18303F"/>
<path fill-rule="evenodd" clip-rule="evenodd" d="M12.5 7.22656C9.58756 7.22656 7.22656 9.58756 7.22656 12.5C7.22656 15.4124 9.58756 17.7734 12.5 17.7734C15.4124 17.7734 17.7734 15.4124 17.7734 12.5C17.7734 9.58756 15.4124 7.22656 12.5 7.22656ZM8.39844 12.5C8.39844 10.2348 10.2348 8.39844 12.5 8.39844C14.7652 8.39844 16.6016 10.2348 16.6016 12.5C16.6016 14.7652 14.7652 16.6016 12.5 16.6016C10.2348 16.6016 8.39844 14.7652 8.39844 12.5Z" fill="#18303F"/>
</g>
</g>
</svg>
