<svg fill="none" height="25" viewBox="0 0 25 25" width="25"><path d="m4.688 2.54a2.148 2.148 0 0 0 -2.149 2.147v1.954a.586.586 0 0 0 1.172 0v-1.954c0-.539.437-.976.977-.976h1.952a.586.586 0 0 0 0-1.172h-1.953zm5.859 0a.586.586 0 0 0 0 1.17h3.906a.586.586 0 1 0 0-1.17zm7.812 0a.586.586 0 1 0 0 1.17h1.953c.54 0 .977.438.977.978v1.952a.586.586 0 1 0 1.172 0v-1.953a2.148 2.148 0 0 0 -2.148-2.148h-1.954zm-5.859 4.686a5.273 5.273 0 1 0 0 10.546 5.273 5.273 0 0 0 0-10.546zm0 1.171a4.102 4.102 0 1 1 0 8.204 4.102 4.102 0 0 1 0-8.204zm-9.375 1.564a.586.586 0 0 0 -.586.586v3.906a.586.586 0 1 0 1.172 0v-3.906a.586.586 0 0 0 -.586-.586zm18.75 0a.586.586 0 0 0 -.586.586v3.906a.586.586 0 1 0 1.172 0v-3.906a.586.586 0 0 0 -.586-.586zm-18.75 7.812a.586.586 0 0 0 -.586.586v1.953c0 1.187.962 2.149 2.148 2.149h1.954a.586.586 0 1 0 0-1.172h-1.954a.977.977 0 0 1 -.976-.977v-1.952a.586.586 0 0 0 -.586-.586zm18.75 0a.586.586 0 0 0 -.586.586v1.953c0 .54-.437.977-.977.977h-1.952a.586.586 0 1 0 0 1.172h1.953a2.148 2.148 0 0 0 2.149-2.148v-1.954a.586.586 0 0 0 -.586-.586zm-11.328 3.517a.586.586 0 1 0 0 1.172h3.906a.586.586 0 1 0 0-1.172z" fill="#18303f"/></svg>