<svg fill="none" height="25" viewBox="0 0 25 25" width="25"><g fill="#18303f"><path d="m3.71 4.688c0-.54.438-.977.978-.977h1.952a.586.586 0 0 0 0-1.172h-1.953a2.148 2.148 0 0 0 -2.147 2.148v1.954a.586.586 0 0 0 1.172 0v-1.954zm6.837-2.148a.586.586 0 0 0 0 1.17h3.906a.586.586 0 1 0 0-1.17zm7.813 0a.586.586 0 1 0 0 1.17h1.953c.539 0 .976.438.976.978v1.952a.586.586 0 1 0 1.172 0v-1.953a2.148 2.148 0 0 0 -2.148-2.148h-1.954zm-14.65 8.007a.586.586 0 0 0 -1.17 0v3.906a.586.586 0 1 0 1.17 0zm18.75 0a.586.586 0 1 0 -1.17 0v3.906a.586.586 0 1 0 1.17 0zm-18.75 7.813a.586.586 0 1 0 -1.17 0v1.953c0 1.186.961 2.148 2.147 2.148h1.954a.586.586 0 1 0 0-1.172h-1.954a.977.977 0 0 1 -.976-.977v-1.952zm18.75 0a.586.586 0 1 0 -1.17 0v1.953a.977.977 0 0 1 -.977.976h-1.954a.586.586 0 1 0 0 1.172h1.953a2.148 2.148 0 0 0 2.149-2.148v-1.954zm-11.913 2.93a.586.586 0 1 0 0 1.17h3.906a.586.586 0 1 0 0-1.17z"/><path clip-rule="evenodd" d="m12.5 7.227a5.273 5.273 0 1 0 0 10.546 5.273 5.273 0 0 0 0-10.546zm-4.102 5.273a4.102 4.102 0 1 1 8.204 0 4.102 4.102 0 0 1 -8.204 0z" fill-rule="evenodd"/></g></svg>