<svg fill="none" height="25" viewBox="0 0 25 25" width="25"><path clip-rule="evenodd" d="m15.006 3.604c1.787-1.32 3.421-2.317 4.75-2.885.696-.297 1.336-.49 1.889-.535.547-.045 1.095.049 1.484.437.578.579.552 1.485.315 2.366-.248.922-.782 2.032-1.529 3.25-1.499 2.44-3.925 5.416-6.915 8.353-2.986 2.934-5.958 5.357-8.384 6.868-1.209.753-2.308 1.296-3.222 1.553-.872.246-1.775.282-2.356-.299-.39-.39-.482-.947-.438-1.497.046-.56.237-1.21.535-1.913.571-1.35 1.576-2.994 2.907-4.749-1.088-2.513-.949-5.505.683-7.918 2.275-3.362 6.669-4.615 10.281-3.031zm-.292 1.011c.069.059.15.097.235.114.256.13.506.278.749.442l.003.002c.885.59 1.559 1.268 2.035 2.03a.521.521 0 1 0 .883-.552c-.565-.904-1.349-1.684-2.339-2.344a7.354 7.354 0 0 0 -.249-.162c1.588-1.143 3.003-1.985 4.134-2.468.646-.276 1.171-.422 1.565-.455.401-.033.582.056.662.136.151.15.268.534.046 1.358-.211.784-.687 1.796-1.411 2.975-1.443 2.35-3.809 5.26-6.757 8.156-2.952 2.9-5.864 5.269-8.204 6.727-1.174.73-2.178 1.216-2.954 1.434-.816.23-1.19.115-1.338-.032-.078-.08-.169-.264-.135-.677.033-.405.179-.94.455-1.59.485-1.146 1.331-2.569 2.479-4.127a8.394 8.394 0 0 0 2.479 2.61.522.522 0 0 0 .584-.863c-3.313-2.241-4.276-6.816-2.048-10.109 2.025-2.994 5.957-4.069 9.126-2.604zm-11.849-3.73a.521.521 0 0 0 -1.042 0v1.042h-1.042a.521.521 0 0 0 0 1.042h1.042v1.146a.52.52 0 1 0 1.042 0v-1.146h1.041a.52.52 0 1 0 0-1.042h-1.041v-1.041zm18.75 17.188a.521.521 0 0 0 -1.042 0c0 1.483-1.121 2.604-2.604 2.604a.52.52 0 1 0 0 1.042c1.483 0 2.604 1.121 2.604 2.604a.52.52 0 1 0 1.042 0c0-1.483 1.121-2.604 2.604-2.604a.521.521 0 0 0 0-1.042c-1.483 0-2.604-1.12-2.604-2.604zm.688 3.125a3.523 3.523 0 0 0 -1.209 1.209 3.54 3.54 0 0 0 -1.209-1.209 3.54 3.54 0 0 0 1.209-1.209c.298.497.712.91 1.209 1.21zm-2.772-10.417a.52.52 0 0 1 .521.521c0 4.559-3.775 8.334-8.333 8.334a.52.52 0 1 1 0-1.042c3.983 0 7.291-3.309 7.291-7.292 0-.287.234-.52.521-.52z" fill="#18303f" fill-rule="evenodd"/></svg>