<svg fill="none" height="25" viewBox="0 0 25 25" width="25"><path clip-rule="evenodd" d="m6.545 2.602a.6.6 0 0 0 -.895.523v18.75a.6.6 0 0 0 .895.523l4.63-2.604a.6.6 0 0 0 -.588-1.046l-3.737 2.101v-16.698l15.773 8.872a.6.6 0 1 0 .588-1.046zm6.555 15.106a4.608 4.608 0 1 1 9.217 0 4.608 4.608 0 0 1 -9.217 0zm4.608-5.808a5.808 5.808 0 1 0 0 11.617 5.808 5.808 0 0 0 0-11.617zm-.82 4.861a.82.82 0 1 1 .82.82.6.6 0 0 0 -.6.6v.948a.6.6 0 0 0 1.2 0v-.438a2.021 2.021 0 1 0 -2.62-1.93.6.6 0 0 0 1.2 0zm1.42 4.262a.6.6 0 1 0 -1.2 0v.094a.6.6 0 1 0 1.2 0z" fill="#18303f" fill-rule="evenodd"/></svg>