<svg fill="none" height="25" viewBox="0 0 25 25" width="25"><path clip-rule="evenodd" d="m17.34 3.439c-3.38-3.064-8.45-3.27-12.13-.531l-.01.004c-3.59 2.748-4.75 7.705-2.75 11.816a.5.5 0 0 0 .9-.438c-1.79-3.686-.75-8.127 2.45-10.58 3.32-2.459 7.85-2.265 10.87.47a.5.5 0 0 0 .67-.741zm5.52-1.255c.19-.064.32-.053.47.041.12.082.17.2.17.384v2.358a1.668 1.668 0 0 0 -.7-.158c-.46 0-.88.227-1.17.522-.29.286-.51.691-.53 1.137-.06.48.15.918.45 1.22.31.312.76.521 1.25.521 1.01 0 1.7-.85 1.7-1.7v-3.899c0-.415-.14-.897-.62-1.216-.45-.3-.91-.295-1.32-.163l-2.98.795c-.63.16-1.08.763-1.08 1.384v3.058a1.668 1.668 0 0 0 -.7-.158c-.46 0-.88.227-1.17.522-.29.286-.51.691-.53 1.137-.06.48.15.918.45 1.22.31.312.76.521 1.25.521 1.01 0 1.7-.85 1.7-1.7v-4.6c0-.177.15-.372.32-.415l.01-.001 3-.8a.566.566 0 0 0 .03-.01zm.64 4.309v.027c0 .348-.3.69-.7.69-.2 0-.41-.092-.54-.23-.14-.138-.18-.283-.16-.388v-.083c0-.137.08-.316.23-.471.16-.155.34-.229.47-.229.35 0 .69.295.7.684zm-6.4 1.516c0-.137.08-.316.23-.471.16-.155.34-.229.47-.229.36 0 .7.303.7.7 0 .351-.3.7-.7.7a.77.77 0 0 1 -.54-.228c-.14-.14-.18-.284-.16-.39v-.081zm-9.6 2.5c0-1.976 1.53-3.5 3.5-3.5 1.98 0 3.5 1.524 3.5 3.5 0 1.977-1.52 3.5-3.5 3.5-1.86 0-3.5-1.513-3.5-3.5zm3.5-2.5c-1.42 0-2.5 1.077-2.5 2.5 0 1.413 1.17 2.5 2.5 2.5 1.43 0 2.5-1.076 2.5-2.5 0-1.423-1.07-2.5-2.5-2.5zm-1.07 1.422c.28-.282.66-.422 1.07-.422.42 0 .8.14 1.08.422.28.281.42.665.42 1.078 0 .414-.14.798-.42 1.079s-.66.421-1.08.421c-.74 0-1.5-.591-1.5-1.5 0-.413.14-.797.43-1.078zm.7.707c-.07.069-.13.185-.13.371 0 .292.25.5.5.5.19 0 .31-.06.38-.128a.545.545 0 0 0 .12-.372.545.545 0 0 0 -.12-.371c-.07-.069-.19-.129-.38-.129-.18 0-.3.06-.37.129zm-6.13 8.871v1.43h5c.28 0 .5.224.5.5s-.22.5-.5.5h-5c-.23 0-.48-.064-.67-.223a.86.86 0 0 1 -.33-.682v-1.62a.86.86 0 0 1 .33-.682c.19-.159.44-.223.67-.223h10c.24 0 .48.064.68.223a.85.85 0 0 1 .32.682v1.62a.85.85 0 0 1 -.32.682c-.2.16-.44.223-.68.223h-1.5c-.27 0-.5-.224-.5-.5s.23-.5.5-.5h1.5v-1.43zm-3-.5c0-.823.68-1.5 1.5-1.5h19c.83 0 1.5.677 1.5 1.5v4c0 .21-.04.3-.06.334-.03.03-.06.068-.17.101-.12.037-.28.057-.51.064-.15.005-.31.004-.49.003l-.27-.002h-19l-.27.002a12.6 12.6 0 0 1 -.49-.003 2.026 2.026 0 0 1 -.5-.064c-.11-.033-.15-.07-.17-.1-.02-.036-.07-.125-.07-.335zm1.5-2.5a2.51 2.51 0 0 0 -2.5 2.5v4c0 .34.07.652.25.907.18.26.44.404.69.483.25.077.52.1.77.109.18.005.37.004.55.003h.01l.23-.002h19l.24.002c.19 0 .38.002.56-.003.25-.009.52-.032.76-.108.26-.08.51-.223.7-.484.17-.255.24-.567.24-.907v-4c0-1.376-1.12-2.5-2.5-2.5zm17-5.5c.28 0 .5.224.5.5 0 1.305-.43 2.582-.94 3.707a.5.5 0 0 1 -.91-.413c.49-1.075.85-2.198.85-3.294 0-.276.23-.5.5-.5zm-2.2 9c0 .277-.23.5-.5.5-.28 0-.5-.223-.5-.5 0-.276.22-.5.5-.5.27 0 .5.224.5.5zm-6.6 1.938c.28 0 .5-.224.5-.5s-.22-.5-.5-.5c-.27 0-.5.224-.5.5s.23.5.5.5zm8.6-1.938c0 .277-.23.5-.5.5-.28 0-.5-.223-.5-.5 0-.276.22-.5.5-.5.27 0 .5.224.5.5zm1.5.5c.27 0 .5-.223.5-.5 0-.276-.23-.5-.5-.5-.28 0-.5.224-.5.5 0 .277.22.5.5.5z" fill="#18303f" fill-rule="evenodd"/></svg>