<svg width="15" height="15" viewBox="0 0 15 15" fill="none" xmlns="http://www.w3.org/2000/svg">
<path fill-rule="evenodd" clip-rule="evenodd" d="M7.5 1.625C7.70711 1.625 7.875 1.79289 7.875 2V7.125H13C13.2071 7.125 13.375 7.29289 13.375 7.5C13.375 7.70711 13.2071 7.875 13 7.875H7.875V13C7.875 13.2071 7.70711 13.375 7.5 13.375C7.29289 13.375 7.125 13.2071 7.125 13V7.875H2C1.79289 7.875 1.625 7.70711 1.625 7.5C1.625 7.29289 1.79289 7.125 2 7.125H7.125V2C7.125 1.79289 7.29289 1.625 7.5 1.625Z" fill="#18303F"/>
</svg>
