<svg width="15" height="15" viewBox="0 0 15 15" fill="none" xmlns="http://www.w3.org/2000/svg">
<path fill-rule="evenodd" clip-rule="evenodd" d="M9.16413 0.662844C9.31752 0.737507 9.40118 0.906286 9.36772 1.07356L8.43785 5.72294L12.091 6.63622C12.217 6.66774 12.3178 6.7623 12.3573 6.88612C12.3968 7.00995 12.3693 7.14539 12.2847 7.24407L10.5704 9.24407C10.4357 9.40131 10.1989 9.41952 10.0417 9.28474C9.88443 9.14996 9.86622 8.91322 10.001 8.75597L11.3204 7.21666L7.90905 6.36382C7.71486 6.31527 7.59303 6.12276 7.63229 5.92648L8.35087 2.33357L6.28473 4.74407C6.14994 4.90131 5.91321 4.91952 5.75596 4.78474C5.59871 4.64996 5.5805 4.41322 5.71528 4.25597L8.71528 0.755972C8.8263 0.626451 9.01075 0.588181 9.16413 0.662844ZM2.75087 2.71974C2.90566 2.58215 3.14269 2.59609 3.28028 2.75088L11.2803 11.7509C11.4179 11.9057 11.4039 12.1427 11.2491 12.2803C11.0943 12.4179 10.8573 12.4039 10.7197 12.2492L9.33242 10.6884L6.28473 14.2441C6.17371 14.3736 5.98926 14.4119 5.83588 14.3372C5.68249 14.2625 5.59883 14.0938 5.63229 13.9265L6.56216 9.2771L2.90905 8.36382C2.78297 8.3323 2.68219 8.23774 2.64272 8.11391C2.60325 7.99009 2.6307 7.85465 2.71528 7.75597L4.68408 5.45905L2.71973 3.24916C2.58213 3.09436 2.59608 2.85734 2.75087 2.71974ZM5.18696 6.02479L3.6796 7.78338L7.09096 8.63622C7.28515 8.68476 7.40698 8.87728 7.36772 9.07356L6.64914 12.6665L8.82953 10.1227L5.18696 6.02479Z" fill="#18303F"/>
</svg>
