<svg width="25" height="25" viewBox="0 0 25 25" fill="none"><g yggColor="power"><path yggColor="iconDefault" fill-rule="evenodd" clip-rule="evenodd" d="M15.274 1.105a.625.625 0 0 1 .339.684l-1.55 7.75 6.089 1.521a.625.625 0 0 1 .322 1.013l-10 11.667a.625.625 0 0 1-1.087-.53l1.55-7.748-6.089-1.522a.625.625 0 0 1-.323-1.013l10-11.667a.625.625 0 0 1 .749-.155ZM6.133 12.972l5.685 1.422c.324.08.527.401.462.729l-1.198 5.988 7.785-9.083-5.685-1.422a.625.625 0 0 1-.462-.729l1.198-5.988-7.785 9.083Z" fill="#18303F"/></g></svg>