<svg width="15" height="15" viewBox="0 0 15 15" fill="none" xmlns="http://www.w3.org/2000/svg">
<path fill-rule="evenodd" clip-rule="evenodd" d="M9.16413 0.662844C9.31752 0.737507 9.40118 0.906286 9.36772 1.07356L8.43785 5.72294L12.091 6.63622C12.217 6.66774 12.3178 6.7623 12.3573 6.88612C12.3968 7.00995 12.3693 7.14539 12.2847 7.24407L6.28473 14.2441C6.17371 14.3736 5.98926 14.4119 5.83588 14.3372C5.68249 14.2625 5.59883 14.0938 5.63229 13.9265L6.56216 9.2771L2.90905 8.36382C2.78297 8.3323 2.68219 8.23774 2.64272 8.11391C2.60325 7.99009 2.6307 7.85465 2.71528 7.75597L8.71528 0.755972C8.8263 0.626451 9.01075 0.588181 9.16413 0.662844ZM3.6796 7.78338L7.09096 8.63622C7.28515 8.68476 7.40698 8.87728 7.36772 9.07356L6.64914 12.6665L11.3204 7.21666L7.90905 6.36382C7.71486 6.31527 7.59303 6.12276 7.63229 5.92648L8.35087 2.33357L3.6796 7.78338Z" fill="#18303F"/>
</svg>
