<svg width="25" height="25" viewBox="0 0 25 25" fill="none"><g yggColor="power_disabled"><path yggColor="iconDefault" fill-rule="evenodd" clip-rule="evenodd" d="M15.274 1.105a.625.625 0 0 1 .339.684l-1.55 7.75 6.089 1.521a.625.625 0 0 1 .322 1.013l-2.857 3.334a.625.625 0 1 1-.949-.814l2.2-2.565-5.686-1.422a.625.625 0 0 1-.462-.729l1.198-5.988-3.443 4.018a.625.625 0 1 1-.95-.814l5-5.833a.625.625 0 0 1 .749-.155ZM4.584 4.533a.625.625 0 0 1 .883.052l13.333 15a.625.625 0 1 1-.934.83l-2.312-2.601-5.08 5.926a.625.625 0 0 1-1.087-.53l1.55-7.748-6.089-1.522a.625.625 0 0 1-.323-1.013l3.282-3.829-3.274-3.683a.625.625 0 0 1 .052-.882Zm4.06 5.508-2.511 2.931 5.685 1.422c.324.08.527.401.462.729l-1.198 5.988 3.634-4.24-6.071-6.83Z" fill="#18303F"/></g></svg>