<svg fill="none" height="25" viewBox="0 0 25 25" width="25"><path clip-rule="evenodd" d="m15.274 1.105a.625.625 0 0 1 .339.684l-1.55 7.75 6.089 1.521a.625.625 0 0 1 .322 1.013l-2.857 3.334a.625.625 0 0 1 -.949-.814l2.2-2.565-5.686-1.421a.625.625 0 0 1 -.462-.73l1.198-5.988-3.443 4.018a.625.625 0 1 1 -.95-.814l5-5.833a.625.625 0 0 1 .749-.155zm-10.69 3.428a.625.625 0 0 1 .883.052l13.333 15a.625.625 0 1 1 -.934.83l-2.312-2.6-5.08 5.925a.625.625 0 0 1 -1.087-.53l1.55-7.748-6.089-1.522a.625.625 0 0 1 -.323-1.013l3.282-3.829-3.274-3.683a.625.625 0 0 1 .052-.882zm4.06 5.508-2.511 2.931 5.685 1.422c.324.08.527.402.462.729l-1.198 5.988 3.634-4.24-6.071-6.83z" fill="#18303f" fill-rule="evenodd"/></svg>