<svg fill="none" height="25" viewBox="0 0 25 25" width="25"><path clip-rule="evenodd" d="m15.505 3.5c0 1.306-.83 2.417-2 2.83v.016a9.1 9.1 0 0 1 8.1 9.05c0 5.028-4.07 9.104-9.1 9.104s-9.11-4.076-9.11-9.104c0-4.69 3.55-8.553 8.11-9.05v-.017a2.995 2.995 0 0 1 -2-2.829c0-1.657 1.34-3 3-3s3 1.343 3 3zm-1 0c0 .785-.45 1.465-1.11 1.792h-1.78a1.996 1.996 0 0 1 -1.11-1.792c0-1.105.9-2 2-2s2 .895 2 2zm6.1 11.896a8.105 8.105 0 0 0 -8.03-8.104h-.14c-4.45.04-8.04 3.652-8.04 8.104 0 4.476 3.63 8.104 8.11 8.104 4.47 0 8.1-3.628 8.1-8.104zm-12.42-4.547c-.14-.37.23-.672.57-.466.76.465 1.56 1.162 2.28 2.034.44.524.8 1.063 1.09 1.59a1.442 1.442 0 0 1 1.82 1.388c0 .269-.08.52-.2.736l1.99 2.244c.05.051.08.108.1.169.44-.173.95-.084 1.3.267.2.196.2.512 0 .707a.491.491 0 0 1 -.7 0c-.09-.08-.22-.08-.3 0s-.08.211 0 .291c.2.196.2.512 0 .708a.491.491 0 0 1 -.7 0 1.19 1.19 0 0 1 -.25-1.344.473.473 0 0 1 -.19-.133l-2.03-2.281a1.442 1.442 0 0 1 -1.9-1.364c0-.183.04-.359.1-.52-.48-.392-.95-.864-1.4-1.403-.72-.872-1.26-1.788-1.58-2.623z" fill="#18303f" fill-rule="evenodd"/></svg>