<svg fill="none" height="25" viewBox="0 0 25 25" width="25"><path clip-rule="evenodd" d="m14.9 18.89c3.86-1.051 6.71-4.586 6.71-8.786 0-5.028-4.08-9.104-9.11-9.104s-9.1 4.076-9.1 9.104a9.105 9.105 0 0 0 6.71 8.785v2.236h-7.19c-.8 0-1.44.644-1.44 1.438 0 .793.64 1.437 1.44 1.437h19.16c.8 0 1.44-.644 1.44-1.438 0-.793-.64-1.437-1.44-1.437h-7.18zm5.71-8.786c0 4.476-3.63 8.104-8.11 8.104-4.47 0-8.1-3.628-8.1-8.104s3.63-8.104 8.1-8.104c4.48 0 8.11 3.628 8.11 8.104zm-9.5 9.146h2.79v1.833h-2.79zm11.41 3.313c0 .241-.19.437-.44.437h-19.16a.44.44 0 0 1 -.44-.438c0-.241.2-.437.44-.437h19.16c.25 0 .44.196.44.438zm-10.02-11.022c.79 0 1.43-.634 1.44-1.42a6.215 6.215 0 0 0 1.76-1.471c.71-.863 1.15-1.845 1.32-2.8a.728.728 0 0 0 -.98-.814c-.91.338-1.8.953-2.51 1.817a6.457 6.457 0 0 0 -1.06 1.814 1.437 1.437 0 0 0 .03 2.875z" fill="#18303f" fill-rule="evenodd"/></svg>