<svg fill="none" height="25" viewBox="0 0 25 25" width="25"><path clip-rule="evenodd" d="m5 3a3.512 3.512 0 0 0 -3.5 3.5.5.5 0 0 1 -1 0c0-2.476 2.024-4.5 4.5-4.5a.5.5 0 0 1 0 1zm-1.5 3.5c0-.824.676-1.5 1.5-1.5a.5.5 0 0 0 0-1 2.506 2.506 0 0 0 -2.5 2.5.5.5 0 0 0 1 0zm2 2c0-.186.06-.303.129-.371.068-.07.185-.129.371-.129h13c.186 0 .303.06.371.129.069.068.129.185.129.371v2.5h-14zm-1 2.5v-2.5c0-.414.14-.797.421-1.079.282-.28.665-.421 1.079-.421h13c.414 0 .797.14 1.079.421.281.282.421.665.421 1.079v2.5h.079c.459 0 .93.185 1.349.431a6.06 6.06 0 0 1 1.217.968c.369.375.699.796.941 1.213.234.406.414.86.414 1.288v3.6c0 2.476-2.024 4.5-4.5 4.5h-15c-2.468 0-4.5-1.916-4.5-4.5v-3.6c0-.467.171-.94.412-1.367.243-.432.577-.85.949-1.215a5.683 5.683 0 0 1 1.224-.922c.422-.231.887-.396 1.336-.396zm-3 4.679v-.779c0-.233.09-.534.283-.876.19-.337.462-.682.778-.992.317-.31.666-.575 1.004-.759.343-.188.639-.273.856-.273h3.872l1.853 1.854a.501.501 0 0 0 .354.146h4c.133 0 .26-.053.354-.146l1.853-1.854h3.872c.206 0 .496.09.843.294.338.198.69.482 1.01.807s.596.68.788 1.012c.199.344.28.615.28.787v.779a4.497 4.497 0 0 0 -3.5-1.679 4.512 4.512 0 0 0 -4.5 4.5c0 1.451.641 2.691 1.639 3.5h-9.318a4.495 4.495 0 0 0 1.679-3.5c0-2.476-2.024-4.5-4.5-4.5-1.41 0-2.673.656-3.5 1.679zm22 2.821c0-1.924-1.576-3.5-3.5-3.5a3.512 3.512 0 0 0 -3.5 3.5c0 2.016 1.568 3.5 3.5 3.5 1.924 0 3.5-1.576 3.5-3.5zm-8.207-6.5h-5.586l1 1h3.586zm-13.793 6.5c0 2.016 1.568 3.5 3.5 3.5 1.924 0 3.5-1.576 3.5-3.5s-1.576-3.5-3.5-3.5a3.512 3.512 0 0 0 -3.5 3.5zm9.5-1.5a.5.5 0 0 0 0 1h3a.5.5 0 0 0 0-1zm7.921.421c.282-.28.665-.421 1.079-.421s.797.14 1.079.421c.281.282.421.665.421 1.079s-.14.797-.421 1.079c-.282.28-.665.421-1.079.421-.743 0-1.5-.592-1.5-1.5 0-.414.14-.797.421-1.079zm.708.708c-.069.068-.129.185-.129.371 0 .292.243.5.5.5.186 0 .303-.06.371-.129.069-.068.129-.185.129-.371s-.06-.303-.129-.371c-.068-.07-.185-.129-.371-.129s-.303.06-.371.129zm-14.629-1.129c-.414 0-.797.14-1.079.421-.281.282-.421.665-.421 1.079 0 .908.757 1.5 1.5 1.5.414 0 .797-.14 1.079-.421.281-.282.421-.665.421-1.079s-.14-.797-.421-1.079c-.282-.28-.665-.421-1.079-.421zm-.5 1.5c0-.186.06-.303.129-.371.068-.07.185-.129.371-.129s.303.06.371.129c.069.068.129.185.129.371s-.06.303-.129.371c-.068.07-.185.129-.371.129a.502.502 0 0 1 -.5-.5zm15.5-14.5a.5.5 0 0 0 0 1c.824 0 1.5.676 1.5 1.5a.5.5 0 0 0 1 0c0-1.376-1.124-2.5-2.5-2.5zm-.5-1.5a.5.5 0 0 1 .5-.5c2.476 0 4.5 2.024 4.5 4.5a.5.5 0 0 1 -1 0c0-1.924-1.576-3.5-3.5-3.5a.5.5 0 0 1 -.5-.5zm-8 18a.5.5 0 1 0 0-1 .5.5 0 0 0 0 1zm2.5-.5a.5.5 0 1 1 -1 0 .5.5 0 0 1 1 0z" fill="#18303f" fill-rule="evenodd"/></svg>