<svg width="25" height="25" viewBox="0 0 25 25" fill="none"><g id="radio"><path id="iconDefault" fill-rule="evenodd" clip-rule="evenodd" d="M5 3a3.512 3.512 0 0 0-3.5 3.5.5.5 0 0 1-1 0C.5 4.024 2.524 2 5 2a.5.5 0 0 1 0 1ZM3.5 6.5C3.5 5.676 4.176 5 5 5a.5.5 0 0 0 0-1 2.506 2.506 0 0 0-2.5 2.5.5.5 0 0 0 1 0Zm2 2c0-.186.06-.303.129-.371C5.697 8.059 5.814 8 6 8h13c.186 0 .303.06.371.129.069.068.129.185.129.371V11h-14V8.5Zm-1 2.5V8.5c0-.414.14-.797.421-1.079C5.203 7.141 5.586 7 6 7h13c.414 0 .797.14 1.079.421.281.282.421.665.421 1.079V11h.079c.459 0 .93.185 1.349.431a6.06 6.06 0 0 1 1.217.968c.369.375.699.796.941 1.213.234.406.414.86.414 1.288v3.6c0 2.476-2.024 4.5-4.5 4.5H5C2.532 23 .5 21.084.5 18.5v-3.6c0-.467.171-.94.412-1.367.243-.432.577-.85.949-1.215a5.683 5.683 0 0 1 1.224-.922c.422-.231.887-.396 1.336-.396H4.5Zm-3 4.679V14.9c0-.233.09-.534.283-.876.19-.337.462-.682.778-.992.317-.31.666-.575 1.004-.759.343-.188.639-.273.856-.273h3.872l1.853 1.854A.501.501 0 0 0 10.5 14h4c.133 0 .26-.053.354-.146L16.707 12h3.872c.206 0 .496.09.843.294.338.198.69.482 1.01.807.32.325.596.68.788 1.012.199.344.28.615.28.787v.779A4.497 4.497 0 0 0 20 14a4.512 4.512 0 0 0-4.5 4.5c0 1.451.641 2.691 1.639 3.5H7.821A4.495 4.495 0 0 0 9.5 18.5C9.5 16.024 7.476 14 5 14c-1.41 0-2.673.656-3.5 1.679Zm22 2.821c0-1.924-1.576-3.5-3.5-3.5a3.512 3.512 0 0 0-3.5 3.5c0 2.016 1.568 3.5 3.5 3.5 1.924 0 3.5-1.576 3.5-3.5ZM15.293 12H9.707l1 1h3.586l1-1ZM1.5 18.5C1.5 20.516 3.068 22 5 22c1.924 0 3.5-1.576 3.5-3.5S6.924 15 5 15a3.512 3.512 0 0 0-3.5 3.5ZM11 17a.5.5 0 0 0 0 1h3a.5.5 0 0 0 0-1h-3Zm7.921.421c.282-.28.665-.421 1.079-.421.414 0 .797.14 1.079.421.281.282.421.665.421 1.079 0 .414-.14.797-.421 1.079-.282.28-.665.421-1.079.421-.743 0-1.5-.592-1.5-1.5 0-.414.14-.797.421-1.079Zm.708.708c-.069.068-.129.185-.129.371 0 .292.243.5.5.5.186 0 .303-.06.371-.129.069-.068.129-.185.129-.371s-.06-.303-.129-.371c-.068-.07-.185-.129-.371-.129s-.303.06-.371.129ZM5 17c-.414 0-.797.14-1.079.421-.281.282-.421.665-.421 1.079 0 .908.757 1.5 1.5 1.5.414 0 .797-.14 1.079-.421.281-.282.421-.665.421-1.079 0-.414-.14-.797-.421-1.079C5.797 17.141 5.414 17 5 17Zm-.5 1.5c0-.186.06-.303.129-.371.068-.07.185-.129.371-.129s.303.06.371.129c.069.068.129.185.129.371s-.06.303-.129.371c-.068.07-.185.129-.371.129a.502.502 0 0 1-.5-.5ZM20 4a.5.5 0 0 0 0 1c.824 0 1.5.676 1.5 1.5a.5.5 0 0 0 1 0C22.5 5.124 21.376 4 20 4Zm-.5-1.5A.5.5 0 0 1 20 2c2.476 0 4.5 2.024 4.5 4.5a.5.5 0 0 1-1 0C23.5 4.576 21.924 3 20 3a.5.5 0 0 1-.5-.5Zm-8 18a.5.5 0 1 0 0-1 .5.5 0 0 0 0 1ZM14 20a.5.5 0 1 1-1 0 .5.5 0 0 1 1 0Z" fill="#18303F"/></g></svg>