<svg width="24" height="24" viewBox="0 0 24 24" fill="none"><g id="read"><path id="iconDefault" fill-rule="evenodd" clip-rule="evenodd" d="M3.288 5.46c-.822.473-1.333 1.183-1.402 2.215a.419.419 0 0 1-.008.062v9.14c.456-.322.982-.536 1.476-.681a9.032 9.032 0 0 1 2.387-.338c1.46 0 3.06.251 4.334.839a5.105 5.105 0 0 1 1.418.942l.007-9.902a.414.414 0 0 1-.008-.062c-.07-1.032-.58-1.742-1.402-2.216-.846-.488-2.033-.726-3.401-.726-1.367 0-2.554.238-3.401.726ZM12.5 7.642v.094a.424.424 0 0 0 .008-.062c.069-1.032.58-1.742 1.402-2.216.846-.488 2.033-.726 3.4-.726 1.368 0 2.555.238 3.402.726.822.474 1.333 1.184 1.402 2.216a.419.419 0 0 0 .008.062v9.35c-1.456-1.052-3.031-1.23-3.863-1.23-1.461 0-3.06.252-4.334.84a5.069 5.069 0 0 0-1.432.957l.007-9.917m-.491 12.03v-.001l.48-.032M12 7V5.955c.334-.569.82-1.02 1.41-1.362 1.058-.61 2.44-.86 3.902-.86 1.46 0 2.844.25 3.9.86 1.056.608 1.772 1.57 1.893 2.916l.007.1a3.25 3.25 0 0 0-.007-.1.53.53 0 0 1 .018.133v10.54a.501.501 0 0 1-.862.346c-1.384-1.446-3.137-1.67-4.001-1.67-1.367 0-2.812.238-3.915.747-1.105.51-1.772 1.238-1.836 2.195a.5.5 0 0 1-.5.467h-.017a.5.5 0 0 1-.5-.467c-.063-.957-.73-1.685-1.835-2.195-1.103-.51-2.548-.747-3.915-.747-.435 0-1.286.057-2.105.298-.84.246-1.522.647-1.807 1.242a.5.5 0 0 1-.951-.216V7.642a.53.53 0 0 1 .018-.133c.12-1.346.837-2.308 1.893-2.916 1.056-.61 2.44-.86 3.9-.86s2.844.25 3.9.86c.592.341 1.078.793 1.41 1.362" fill="#18303F"/></g></svg>