<svg fill="none" height="25" viewBox="0 0 25 25" width="25"><path clip-rule="evenodd" d="m3.425 5.687c-.856.493-1.389 1.233-1.46 2.308a.438.438 0 0 1 -.009.064v9.52c.475-.334 1.023-.557 1.538-.708a9.408 9.408 0 0 1 2.486-.353c1.522 0 3.188.262 4.515.875.55.254 1.061.578 1.477.98l.007-10.314a.421.421 0 0 1 -.008-.064c-.072-1.075-.604-1.815-1.46-2.308-.882-.508-2.118-.757-3.543-.757-1.424 0-2.66.249-3.543.757zm9.595 2.273v.099a.445.445 0 0 0 .008-.065c.072-1.075.604-1.815 1.46-2.308.882-.508 2.118-.757 3.543-.757 1.424 0 2.66.249 3.543.757.856.493 1.389 1.233 1.46 2.308a.44.44 0 0 0 .009.064v9.739c-1.517-1.095-3.158-1.28-4.024-1.28-1.522 0-3.188.262-4.515.875-.558.257-1.074.587-1.492.996l.008-10.33m-.512 12.532v-.002l.501-.033m-.509-13.263v-1.089c.347-.592.853-1.063 1.469-1.419 1.1-.634 2.541-.896 4.063-.896 1.521 0 2.963.262 4.063.896s1.846 1.636 1.972 3.038l.007.104a3.524 3.524 0 0 0 -.007-.104c.011.044.018.09.018.139v10.979a.522.522 0 0 1 -.898.36c-1.441-1.506-3.267-1.74-4.167-1.74-1.424 0-2.93.248-4.078.779-1.152.53-1.846 1.29-1.913 2.286a.521.521 0 0 1 -.52.486h-.018a.521.521 0 0 1 -.52-.486c-.067-.997-.762-1.755-1.913-2.287-1.149-.53-2.654-.778-4.078-.778-.453 0-1.34.06-2.193.31-.875.257-1.585.675-1.882 1.295a.52.52 0 0 1 -.99-.225v-10.98c0-.047.007-.094.018-.138.126-1.402.872-2.404 1.972-3.038s2.542-.896 4.063-.896 2.962.262 4.063.896c.616.356 1.122.827 1.469 1.419" fill="#18303f" fill-rule="evenodd"/></svg>