<svg fill="none" height="25" viewBox="0 0 25 25" width="25"><path clip-rule="evenodd" d="m12.291 5.625a8.523 8.523 0 0 0 -6.59 3.106.625.625 0 1 1 -.963-.796 9.773 9.773 0 0 1 7.553-3.56 9.778 9.778 0 0 1 7.917 4.029v-1.737a.625.625 0 1 1 1.25 0v4.166c0 .345-.28.625-.625.625h-4.375a.625.625 0 1 1 0-1.25h3.405a8.541 8.541 0 0 0 -7.572-4.583zm-8.75 10.208c0-.345.28-.625.626-.625h4.375a.625.625 0 0 1 0 1.25h-3.405a8.541 8.541 0 0 0 7.571 4.584 8.523 8.523 0 0 0 6.59-3.107.625.625 0 0 1 .964.796 9.773 9.773 0 0 1 -7.554 3.56 9.778 9.778 0 0 1 -7.917-4.028v1.737a.625.625 0 1 1 -1.25 0v-4.167z" fill="#18303f" fill-rule="evenodd"/></svg>