<svg width="25" height="25" viewBox="0 0 25 25" fill="none"><g yggColor="refresh"><path yggColor="iconDefault" fill-rule="evenodd" clip-rule="evenodd" d="M10.961 3.983a.52.52 0 1 0 0-1.042.52.52 0 0 0 0 1.042Zm8.252 7.577 1.205 1.205v-1.792c0-3.906-3.167-6.929-7.391-6.929a.5.5 0 0 1 0-1c4.719 0 8.391 3.415 8.391 7.929v1.793l1.205-1.206a.5.5 0 0 1 .707.707l-2.058 2.06a.498.498 0 0 1-.713-.007l-2.053-2.053a.5.5 0 1 1 .707-.707Zm-15.084-.882c.141 0 .269.058.36.152l2.053 2.053a.5.5 0 1 1-.708.707L4.63 12.385v1.793c0 3.905 3.167 6.928 7.392 6.928a.5.5 0 0 1 0 1c-4.72 0-8.392-3.415-8.392-7.928v-1.793L2.424 13.59a.5.5 0 0 1-.707-.707l2.059-2.059a.5.5 0 0 1 .344-.146h.01Zm10.474 11.01a.52.52 0 1 1-1.042 0 .52.52 0 0 1 1.042 0Z" fill="#18303F"/></g></svg>