<svg width="15" height="15" viewBox="0 0 15 15" fill="none" xmlns="http://www.w3.org/2000/svg">
<path fill-rule="evenodd" clip-rule="evenodd" d="M7.37494 3.375C5.78359 3.375 4.36185 4.09985 3.42124 5.23879C3.28936 5.39848 3.053 5.42102 2.89331 5.28914C2.73362 5.15726 2.71108 4.9209 2.84296 4.76121C3.91993 3.45714 5.55042 2.625 7.37494 2.625C9.3274 2.625 11.0569 3.57734 12.125 5.0422V4C12.125 3.79289 12.2929 3.625 12.5 3.625C12.7071 3.625 12.875 3.79289 12.875 4V6.5C12.875 6.70711 12.7071 6.875 12.5 6.875H9.87494C9.66783 6.875 9.49994 6.70711 9.49994 6.5C9.49994 6.29289 9.66783 6.125 9.87494 6.125H11.9177C11.0611 4.48988 9.34782 3.375 7.37494 3.375ZM2.125 9.5C2.125 9.29289 2.29289 9.125 2.5 9.125H5.12506C5.33217 9.125 5.50006 9.29289 5.50006 9.5C5.50006 9.70711 5.33217 9.875 5.12506 9.875H3.0823C3.93894 11.5101 5.65218 12.625 7.62506 12.625C9.21641 12.625 10.6381 11.9002 11.5788 10.7612C11.7106 10.6015 11.947 10.579 12.1067 10.7109C12.2664 10.8427 12.2889 11.0791 12.157 11.2388C11.0801 12.5429 9.44958 13.375 7.62506 13.375C5.6726 13.375 3.94314 12.4227 2.875 10.9578V12C2.875 12.2071 2.70711 12.375 2.5 12.375C2.29289 12.375 2.125 12.2071 2.125 12V9.5Z" fill="#18303F"/>
</svg>
