<svg width="25" height="25" viewBox="0 0 25 25" fill="none"><g id="rental"><path fill-rule="evenodd" clip-rule="evenodd" d="M3.497 4.81V1.113c0-.042.004-.082.01-.12a.5.5 0 0 1 .49-.601h16.637c.155 0 .346.023.516.12a.684.684 0 0 1 .354.6V4.81a.949.949 0 0 1-.413.777 1.415 1.415 0 0 1-.826.24H4.737c-.301 0-.594-.074-.827-.24a.949.949 0 0 1-.413-.777Zm1-3.419V2.61h5.656V1.39H4.497Zm5.656 2.218H4.497v1.168c.03.02.106.05.24.05h5.416V3.61Zm10.112 1.219h-3.936V1.39h4.175v3.386a.461.461 0 0 1-.24.05ZM15.329 1.39h-4.176v3.437h4.176V1.39Zm-1.625 1.737c0-.25-.25-.5-.5-.5s-.5.25-.5.5.25.5.5.5.5-.25.5-.5Zm4.676-.5c.25 0 .5.25.5.5s-.25.5-.5.5-.5-.25-.5-.5.25-.5.5-.5Zm-4.4 13.956a.5.5 0 0 1 .5.5v2.218a.5.5 0 1 1-1 0v-2.218a.5.5 0 0 1 .5-.5Zm-2.956 0a.5.5 0 0 1 .5.5v2.219a.5.5 0 1 1-1 0v-2.219a.5.5 0 0 1 .5-.5Zm7.526-5.176h1.344a.87.87 0 0 1 .48.14.7.7 0 0 1 .304.45.95.95 0 0 1 .068.344.728.728 0 0 1-.154.457l-.907 1.425 1.29 7.03c.117.393-.012.772-.244 1.027a1.15 1.15 0 0 1-.838.472l.468 1.17a.5.5 0 0 1-.93.372l-.612-1.535H6.188l-.613 1.535a.5.5 0 0 1-.93-.372l.47-1.173c-.356-.049-.643-.272-.802-.432a1.075 1.075 0 0 1-.281-1.065l1.288-7.01-.997-1.462a.984.984 0 0 1-.142-.494c0-.131.032-.297.14-.442a.938.938 0 0 1 .286-.298.786.786 0 0 1 .425-.14h.907a2.73 2.73 0 0 1-.59-1.717.5.5 0 0 1 .5-.5h5.545a.5.5 0 0 1 .5.5 2.73 2.73 0 0 1-.59 1.718h2.549V8.21a.5.5 0 0 1 .5-.5h3.697a.5.5 0 0 1 .5.5v.24h.163c.34 0 .649.116.887.338.233.217.368.51.42.819a1.267 1.267 0 0 1-.968 1.456l-.502.137v.207ZM6.11 13.626l-.831-1.218h9.043a.5.5 0 0 0 .03 0h5.304l-.775 1.218H6.11Zm11.438-4.675c0-.015 0-.03.002-.044v-.196h-2.697v2.697h2.697V8.994c-.002-.014-.002-.029-.002-.043Zm1.165.5h-.163v.713l.254-.069a.493.493 0 0 1 .033-.008.268.268 0 0 0 .197-.315.445.445 0 0 0-.116-.252c-.04-.037-.1-.07-.205-.07ZM8.022 11.408H9.22c.784-.018 1.406-.51 1.605-1.218h-4.41c.2.708.822 1.2 1.606 1.218ZM19.147 21.76h.604c.056 0 .094-.01.116-.02a.136.136 0 0 0 .059-.053.452.452 0 0 1 .063-.076.122.122 0 0 0 .028-.046.056.056 0 0 0-.001-.034.401.401 0 0 1-.018-.068l-1.256-6.837H13v7.134h6.146Zm-13.287 0H12v-7.134H6.267L5.01 21.463a.521.521 0 0 1-.017.068.05.05 0 0 0-.002.034c.004.013.013.03.029.046.047.047.1.09.154.118a.328.328 0 0 0 .06.027.096.096 0 0 0 .024.004h.602Z" fill="#18303F" yggColor="iconDefault"/></g></svg>