<svg width="25" height="25" viewBox="0 0 25 25" fill="none"><path fill-rule="evenodd" clip-rule="evenodd" d="M12.868 4.47a.5.5 0 1 0 0-1 .5.5 0 0 0 0 1Zm2.093-.86a.5.5 0 1 0-.175.985 8.033 8.033 0 0 1 6.197 5.31c1.439 4.197-.785 8.758-4.963 10.191-4.178 1.433-8.733-.803-10.172-5a8.03 8.03 0 0 1-.437-2.712l.919 1.093a.5.5 0 0 0 .765-.644l-1.66-1.973a.498.498 0 0 0-.704-.06l-1.973 1.66a.5.5 0 0 0 .644.765l1.009-.849a9.032 9.032 0 0 0 .49 3.045c1.619 4.715 6.74 7.234 11.444 5.62 4.703-1.612 7.2-6.745 5.582-11.46a9.03 9.03 0 0 0-6.966-5.97Z" fill="#18303F" yggColor="restart"/></svg>