<svg width="25" height="25" viewBox="0 0 25 25" fill="none"><path fill-rule="evenodd" clip-rule="evenodd" d="M.5 5.5a2 2 0 0 1 2-2h20a2 2 0 1 1 0 4h-20a2 2 0 0 1-2-2Zm2-1a1 1 0 0 0 0 2h20a1 1 0 0 0 0-2h-20Zm0 6a2 2 0 1 0 0 4h20a2 2 0 1 0 0-4h-20Zm-1 2a1 1 0 0 1 1-1h20a1 1 0 0 1 0 2h-20a1 1 0 0 1-1-1Zm1 5a2 2 0 1 0 0 4h20a2 2 0 1 0 0-4h-20Zm-1 2a1 1 0 0 1 1-1h20a1 1 0 0 1 0 2h-20a1 1 0 0 1-1-1ZM3.692 6.25a.75.75 0 1 0 .001-1.499.75.75 0 0 0-.001 1.499Zm13.75 6.25a.75.75 0 1 1-1.499.001.75.75 0 0 1 1.499-.001Zm-6.75 7.75a.75.75 0 1 0 .001-1.499.75.75 0 0 0-.001 1.499Z" fill="#18303F" yggColor="rgb"/></svg>