<svg fill="none" height="25" viewBox="0 0 25 25" width="25"><path clip-rule="evenodd" d="m.5 5.5a2 2 0 0 1 2-2h20a2 2 0 1 1 0 4h-20a2 2 0 0 1 -2-2zm2-1a1 1 0 0 0 0 2h20a1 1 0 0 0 0-2zm0 6a2 2 0 1 0 0 4h20a2 2 0 1 0 0-4zm-1 2a1 1 0 0 1 1-1h20a1 1 0 0 1 0 2h-20a1 1 0 0 1 -1-1zm1 5a2 2 0 1 0 0 4h20a2 2 0 1 0 0-4zm-1 2a1 1 0 0 1 1-1h20a1 1 0 0 1 0 2h-20a1 1 0 0 1 -1-1zm2.192-13.25a.75.75 0 1 0 .001-1.499.75.75 0 0 0 -.001 1.499zm13.75 6.25a.75.75 0 1 1 -1.499.001.75.75 0 0 1 1.499-.001zm-6.75 7.75a.75.75 0 1 0 .001-1.499.75.75 0 0 0 -.001 1.499z" fill="#18303f" fill-rule="evenodd"/></svg>