<svg width="25" height="25" viewBox="0 0 25 25" fill="none"><g id="rocket"><path fill-rule="evenodd" clip-rule="evenodd" d="M17.932 1.229c3.164-1.13 6.392 1.91 5.14 5.137-.507 1.613-1.4 3.216-2.58 4.627a.494.494 0 0 1-.092.207c-.043.057-.09.123-.142.196l-.072.1-.004.005c-.265.372-.62.869-1.001 1.25-.155.155-.282.275-.405.39l-.001.002-.034.032a14.68 14.68 0 0 0-.314.304l-.011.01-.027.026a.492.492 0 0 1-.083.067 17.65 17.65 0 0 1-1.036.814c-.012.69-.097 1.367-.18 2.024-.045.357-.089.709-.12 1.053a.488.488 0 0 1-.03.13c-.33.881-.876 1.64-1.515 2.278l-2.5 2.5a.983.983 0 0 1-1.407 0 1.043 1.043 0 0 1-.245-.396.737.737 0 0 1 .012-.52L11.723 17c-.996.23-1.985.333-2.939.301a.527.527 0 0 1-.066-.006c-.733-.123-1.512-.653-1.517-1.585a11.616 11.616 0 0 1 .316-3.04l-4.254.417a.737.737 0 0 1-.52.013 1.05 1.05 0 0 1-.396-.246.984.984 0 0 1 0-1.407l2.5-2.5a8.516 8.516 0 0 1 2.23-1.593.513.513 0 0 1 .134-.045c1.05-.19 2.017-.294 3.061-.307.237-.313.487-.622.75-.927a.5.5 0 0 1 .106-.093c.26-.34.646-.787.898-1.039.41-.41.618-.606 1.136-1.02a.45.45 0 0 1 .067-.045 16.867 16.867 0 0 1 4.695-2.645l.008-.003Zm4.203 4.788c.93-2.366-1.434-4.712-3.863-3.848a15.886 15.886 0 0 0-4.126 2.26c.658 1.13 1.542 2.251 2.508 3.217 1.057 1.058 2.108 1.87 3.227 2.515 1.03-1.275 1.8-2.697 2.242-4.11a.216.216 0 0 1 .012-.034Zm-4.117 6.465c-1.145-.661-2.284-1.556-3.264-2.535l-.007-.007a13.974 13.974 0 0 1-2.735-3.466c.222-.28.522-.625.721-.825.239-.239.399-.395.599-.57a16.779 16.779 0 0 0 2.615 3.375c.991.99 2.142 1.905 3.321 2.606-.24.336-.502.692-.794.984-.145.144-.263.256-.386.372l-.07.066Zm-4.171-1.928a18.475 18.475 0 0 1-2.56-3.23c-1.217 1.54-2.086 3.172-2.587 4.803a.5.5 0 0 1-.066.223 10.843 10.843 0 0 0-.434 3.334l.001.016c0 .257.208.518.651.602 2.636.077 5.637-.982 8.304-3.072-1.143-.707-2.279-1.646-3.309-2.676Zm2.386 4.542a15.445 15.445 0 0 1-3.477 1.62l-.481 4.9 2.443-2.442c.546-.546.99-1.167 1.262-1.861.037-.38.08-.732.124-1.072l.004-.035c.048-.378.094-.741.125-1.11Zm-8.427-3.46-4.695.46 2.443-2.443A7.502 7.502 0 0 1 7.461 8.28a17.423 17.423 0 0 1 2.09-.252 15.319 15.319 0 0 0-1.745 3.61Zm-3.052 5.427a.5.5 0 0 0-.302-.954c-.473.15-.92.454-1.304.838-.238.238-.449.603-.633.985-.19.395-.375.86-.546 1.337a43.162 43.162 0 0 0-.848 2.694.491.491 0 0 0-.019.137v.3a.5.5 0 0 0 .025.159c.068.201.187.432.4.591a.885.885 0 0 0 .821.129 43.37 43.37 0 0 0 2.685-.846c.477-.171.942-.356 1.337-.546.382-.184.747-.395.985-.633.403-.403.717-.917.814-1.467a1.81 1.81 0 0 0-.514-1.64.5.5 0 1 0-.707.707.81.81 0 0 1 .236.76c-.053.3-.239.636-.536.933-.112.112-.347.263-.712.439-.352.17-.78.34-1.24.506-.905.326-1.896.617-2.593.817l-.001-.003v-.135c.2-.695.487-1.672.808-2.564.165-.46.337-.89.506-1.241.176-.365.327-.6.44-.712.302-.303.616-.502.898-.591Zm1.273.32a.5.5 0 1 0 0-1 .5.5 0 0 0 0 1Z" fill="#18303F" yggColor="iconDefault"/></g></svg>