<svg width="25" height="25" viewBox="0 0 25 25" fill="none"><path fill-rule="evenodd" clip-rule="evenodd" d="M16.287 2.438c0 .132-.052.26-.146.353l-1.823 1.823a.5.5 0 1 1-.707-.707l.965-.965c-4.172.117-7.851 2.665-9.437 6.583l-.001.004c-1.618 3.902-.574 8.485 2.486 11.45 3.049 2.954 7.63 3.722 11.55 2.001a.5.5 0 1 1 .403.916c-4.28 1.879-9.298 1.047-12.649-2.199-3.339-3.235-4.496-8.25-2.715-12.549C5.953 4.853 10 2.056 14.583 1.942l-.972-.974a.5.5 0 0 1 .707-.707l1.823 1.823a.5.5 0 0 1 .146.354Zm-7.653 9.49a.5.5 0 0 1 .353.146l1.823 1.823a.5.5 0 0 1-.707.707l-.96-.96c.16 3.016 2.68 5.437 5.734 5.437 3.157 0 5.742-2.586 5.742-5.743 0-3.157-2.585-5.742-5.742-5.742a.5.5 0 0 1 0-1c3.709 0 6.742 3.033 6.742 6.742 0 3.71-3.033 6.743-6.742 6.743-3.613 0-6.583-2.877-6.736-6.454l-.977.977a.5.5 0 1 1-.707-.707l1.823-1.823a.5.5 0 0 1 .354-.147Z" fill="#18303F" yggColor="rotation"/></svg>