<svg width="15" height="15" viewBox="0 0 15 15" fill="none" xmlns="http://www.w3.org/2000/svg">
<path fill-rule="evenodd" clip-rule="evenodd" d="M7.5 2.375C4.66954 2.375 2.375 4.66954 2.375 7.5C2.375 10.3305 4.66954 12.625 7.5 12.625C10.3305 12.625 12.625 10.3305 12.625 7.5C12.625 7.29289 12.7929 7.125 13 7.125C13.2071 7.125 13.375 7.29289 13.375 7.5C13.375 10.7447 10.7447 13.375 7.5 13.375C4.25533 13.375 1.625 10.7447 1.625 7.5C1.625 4.25533 4.25533 1.625 7.5 1.625C9.32094 1.625 10.948 2.45348 12.0253 3.7532V2C12.0253 1.79289 12.1932 1.625 12.4003 1.625C12.6074 1.625 12.7753 1.79289 12.7753 2V5C12.7753 5.20711 12.6074 5.375 12.4003 5.375H10C9.79289 5.375 9.625 5.20711 9.625 5C9.625 4.79289 9.79289 4.625 10 4.625H11.7433C10.8211 3.26658 9.26443 2.375 7.5 2.375Z" fill="#18303F"/>
</svg>
