<svg fill="none" height="25" viewBox="0 0 25 25" width="25"><path clip-rule="evenodd" d="m12.14 1.604a.5.5 0 0 1 .352-.146h.015a.5.5 0 0 1 .353.146c.52.518 1.33 1.035 2.286 1.522.95.484 2.011.923 3.01 1.294a47.6 47.6 0 0 0 3.63 1.178l.056.016.014.004h.004a.5.5 0 0 1 .37.484c0 3.64-.11 7.165-1.364 10.188-1.272 3.064-3.694 5.566-8.194 7.221a.5.5 0 0 1 -.345 0c-4.499-1.655-6.921-4.157-8.193-7.22-1.254-3.025-1.364-6.551-1.364-10.191a.5.5 0 0 1 .372-.482l.003-.001.014-.004.056-.016.22-.061a47.569 47.569 0 0 0 3.41-1.117c.999-.37 2.06-.81 3.01-1.294.957-.487 1.766-1.004 2.286-1.522zm-8.37 4.877c.009 3.509.16 6.708 1.288 9.426 1.09 2.627 3.112 4.845 6.946 6.407l.034-6.12a.5.5 0 1 1 1 .005l-.034 6.111c3.828-1.561 5.849-3.778 6.938-6.403 1.128-2.718 1.28-5.917 1.288-9.426a48.56 48.56 0 0 1 -3.423-1.123c-1.019-.38-2.12-.833-3.115-1.34a13.682 13.682 0 0 1 -1.679-.995l.032 5.483a.5.5 0 1 1 -1 .006l-.032-5.508c-.507.362-1.092.701-1.705 1.013-.996.508-2.096.962-3.116 1.34a48.577 48.577 0 0 1 -3.422 1.125zm9.269 4.003a.5.5 0 1 1 -1 0 .5.5 0 0 1 1 0zm-.5 2.29a.5.5 0 1 0 0-1 .5.5 0 0 0 0 1zm0 1.791a.5.5 0 1 0 0-1 .5.5 0 0 0 0 1z" fill="#18303f" fill-rule="evenodd"/></svg>