<svg width="25" height="25" viewBox="0 0 25 25" fill="none"><g id="safety"><path fill-rule="evenodd" clip-rule="evenodd" d="M12.14 1.604a.5.5 0 0 1 .353-.146h.014a.5.5 0 0 1 .353.146c.52.518 1.33 1.035 2.286 1.522.95.484 2.011.923 3.01 1.294a47.6 47.6 0 0 0 3.63 1.178l.056.016.014.004h.004a.5.5 0 0 1 .37.484c0 3.64-.11 7.165-1.364 10.188-1.272 3.064-3.694 5.566-8.193 7.221a.5.5 0 0 1-.346 0c-4.499-1.655-6.921-4.157-8.193-7.22C2.88 13.266 2.77 9.74 2.77 6.1c0-.226.153-.424.372-.482l.003-.001.014-.004.057-.016.22-.061c.19-.055.467-.135.806-.239a47.572 47.572 0 0 0 2.603-.878c.999-.37 2.06-.81 3.01-1.294.957-.487 1.766-1.004 2.286-1.522ZM3.77 6.481c.009 3.509.16 6.708 1.288 9.426 1.09 2.627 3.112 4.845 6.946 6.407l.034-6.12a.5.5 0 1 1 1 .005l-.034 6.111c3.828-1.561 5.849-3.778 6.938-6.403 1.128-2.718 1.28-5.917 1.288-9.426a48.56 48.56 0 0 1-3.423-1.123c-1.019-.38-2.12-.833-3.115-1.34a13.682 13.682 0 0 1-1.678-.995l.03 5.483a.5.5 0 1 1-.999.006l-.032-5.508c-.507.362-1.092.701-1.705 1.013-.996.508-2.096.962-3.116 1.34A48.577 48.577 0 0 1 3.77 6.482Zm9.269 4.003a.5.5 0 1 1-1 0 .5.5 0 0 1 1 0Zm-.5 2.29a.5.5 0 1 0 0-1 .5.5 0 0 0 0 1Zm0 1.791a.5.5 0 1 0 0-1 .5.5 0 0 0 0 1Z" fill="#18303F" yggColor="iconDefault"/></g></svg>