<svg fill="none" height="25" viewBox="0 0 25 25" width="25"><path clip-rule="evenodd" d="m.501 5a4.5 4.5 0 0 1 4.5-4.5h15a4.5 4.5 0 0 1 4.5 4.5v2.962a.477.477 0 0 1 .002.038c0 1.123-.822 2.137-1.955 2.137-1.076 0-2.045 1.001-2.045 2.363 0 1.353.955 2.35 2.022 2.364h.023c1.133 0 1.955 1.013 1.955 2.136l-.001.019-.001.019v2.962a4.5 4.5 0 0 1 -4.5 4.5h-15a4.5 4.5 0 0 1 -4.5-4.5v-2.962a.478.478 0 0 1 -.001-.038c0-1.123.821-2.137 1.955-2.137h.023c1.067-.013 2.022-1.009 2.022-2.363 0-1.362-.97-2.363-2.045-2.363-1.134 0-1.955-1.014-1.955-2.137l.001-.038zm1 12-.001-.033c.015-.656.475-1.09.934-1.103h.021c1.735 0 3.045-1.563 3.045-3.364 0-1.8-1.31-3.363-3.045-3.363-.466 0-.94-.438-.955-1.104a.357.357 0 0 0 .001-.033v-3a3.5 3.5 0 0 1 3.5-3.5h15a3.5 3.5 0 0 1 3.5 3.5v3.017l.001.016c-.014.666-.488 1.104-.954 1.104-1.735 0-3.045 1.563-3.045 3.363 0 1.801 1.31 3.364 3.045 3.364h.021c.459.012.919.447.933 1.103v.01l-.002.023v3a3.5 3.5 0 0 1 -3.5 3.5h-15a3.5 3.5 0 0 1 -3.5-3.5v-3zm2.5-11.836a.5.5 0 0 1 -.5-.5v-.164a.5.5 0 0 1 .5-.5h.164a.5.5 0 0 1 .5.5v.164a.5.5 0 0 1 -.5.5zm11.93 8.418a1.25 1.25 0 0 0 0-2.165l-5.103-2.946a1.25 1.25 0 0 0 -1.875 1.082v5.893a1.25 1.25 0 0 0 1.875 1.083zm-5.603 2.08 5.103-2.946a.25.25 0 0 0 0-.433l-5.103-2.946a.25.25 0 0 0 -.375.216v5.893a.25.25 0 0 0 .375.216zm-1.827-10.497a.5.5 0 0 1 -.5-.5v-.165a.5.5 0 0 1 .5-.5h.164a.5.5 0 0 1 .5.5v.164a.5.5 0 0 1 -.5.5h-.164zm4 0a.5.5 0 0 1 -.5-.5v-.165a.5.5 0 0 1 .5-.5h.164a.5.5 0 0 1 .5.5v.164a.5.5 0 0 1 -.5.5h-.164zm4 0a.5.5 0 0 1 -.5-.5v-.165a.5.5 0 0 1 .5-.5h.164a.5.5 0 0 1 .5.5v.164a.5.5 0 0 1 -.5.5h-.164zm4 0a.5.5 0 0 1 -.5-.5v-.165a.5.5 0 0 1 .5-.5h.164a.5.5 0 0 1 .5.5v.164a.5.5 0 0 1 -.5.5h-.164zm-16.5 15.835a.5.5 0 0 1 -.5-.5v-.164a.5.5 0 0 1 .5-.5h.164a.5.5 0 0 1 .5.5v.164a.5.5 0 0 1 -.5.5zm4.5 0a.5.5 0 0 1 -.5-.5v-.164a.5.5 0 0 1 .5-.5h.164a.5.5 0 0 1 .5.5v.164a.5.5 0 0 1 -.5.5zm4 0a.5.5 0 0 1 -.5-.5v-.164a.5.5 0 0 1 .5-.5h.164a.5.5 0 0 1 .5.5v.164a.5.5 0 0 1 -.5.5zm4 0a.5.5 0 0 1 -.5-.5v-.164a.5.5 0 0 1 .5-.5h.164a.5.5 0 0 1 .5.5v.164a.5.5 0 0 1 -.5.5zm4 0a.5.5 0 0 1 -.5-.5v-.164a.5.5 0 0 1 .5-.5h.164a.5.5 0 0 1 .5.5v.164a.5.5 0 0 1 -.5.5z" fill="#18303f" fill-rule="evenodd"/></svg>