<svg fill="none" height="25" viewBox="0 0 25 25" width="25"><path clip-rule="evenodd" d="m1 5.68a4.68 4.68 0 0 1 4.68-4.68h13.637a4.68 4.68 0 0 1 4.68 4.68v2.444h-.634v-2.443a4.046 4.046 0 0 0 -4.046-4.047h-13.637a4.046 4.046 0 0 0 -4.046 4.047v2.443c0 .74.526 1.275 1.097 1.275 1.577 0 2.793 1.425 2.793 3.102s-1.216 3.101-2.793 3.101v-.634c1.158 0 2.158-1.069 2.158-2.467 0-1.4-1-2.468-2.158-2.468-.99 0-1.731-.891-1.731-1.909v-2.443zm23 2.445c0 1.018-.741 1.908-1.731 1.908-1.158 0-2.158 1.069-2.158 2.468 0 1.398 1 2.467 2.158 2.467.99 0 1.731.89 1.731 1.908h-.634c0-.74-.526-1.274-1.097-1.274-1.577 0-2.793-1.425-2.793-3.101 0-1.677 1.216-3.102 2.793-3.102.571 0 1.097-.535 1.097-1.274zm-23 8.75c0-1.017.741-1.907 1.731-1.907v.634c-.571 0-1.097.534-1.097 1.274v2.443a4.046 4.046 0 0 0 4.046 4.047h13.637a4.046 4.046 0 0 0 4.046-4.047v-2.443h.634v2.443a4.68 4.68 0 0 1 -4.68 4.681h-13.637a4.68 4.68 0 0 1 -4.68-4.68v-2.444z" fill="#0bf9bd" fill-rule="evenodd"/><path d="m12.762 15.585h-.722v-5.071l.009-.348c.005-.107.013-.216.022-.326a3.765 3.765 0 0 1 -.259.246l-.299.245-.745.598-.388-.504 1.767-1.36h.615z" fill="#027cb2"/></svg>