<svg fill="none" height="25" viewBox="0 0 25 25" width="25"><path clip-rule="evenodd" d="m1 5.677a4.677 4.677 0 0 1 4.677-4.677h13.643a4.677 4.677 0 0 1 4.677 4.677v2.445h-.623v-2.445a4.053 4.053 0 0 0 -4.054-4.053h-13.643a4.053 4.053 0 0 0 -4.053 4.053v2.445c0 .743.527 1.28 1.103 1.28 1.573 0 2.788 1.423 2.788 3.099 0 1.675-1.215 3.097-2.788 3.097-.576 0-1.103.537-1.103 1.28v2.445a4.053 4.053 0 0 0 4.053 4.053h13.643a4.053 4.053 0 0 0 4.054-4.053v-2.445h.623v2.445a4.677 4.677 0 0 1 -4.677 4.677h-13.643a4.677 4.677 0 0 1 -4.677-4.677v-2.445c0-1.016.74-1.904 1.727-1.904 1.162 0 2.164-1.072 2.164-2.473 0-1.402-1.002-2.475-2.164-2.475-.988-0-1.727-.888-1.727-1.904zm23 2.446c0 1.015-.74 1.903-1.727 1.903-1.162 0-2.164 1.073-2.164 2.475s1.002 2.474 2.164 2.474c.987 0 1.727.887 1.727 1.903h-.624c0-.742-.527-1.28-1.103-1.28-1.573 0-2.788-1.422-2.788-3.097 0-1.676 1.215-3.098 2.788-3.098.576 0 1.103-.538 1.103-1.28z" fill="#0bf9bd" fill-rule="evenodd"/><path d="m7.274 3.707a.613.613 0 1 1 1.226 0 .613.613 0 0 1 -1.226 0zm-4.18 0a.613.613 0 1 1 1.226 0 .613.613 0 0 1 -1.226 0zm8.973-.613a.613.613 0 1 0 0 1.225.613.613 0 0 0 0-1.225zm3.567.613a.613.613 0 1 1 1.226 0 .613.613 0 0 1 -1.226 0zm4.793-.613a.613.613 0 1 0 0 1.226.613.613 0 0 0 0-1.226zm-17.332 17.333a.613.613 0 1 1 1.226 0 .613.613 0 0 1 -1.226 0zm4.793-.613a.613.613 0 1 0 0 1.226.613.613 0 0 0 0-1.226zm3.567.613a.613.613 0 1 1 1.226 0 .613.613 0 0 1 -1.226 0zm4.793-.613a.613.613 0 1 0 0 1.226.613.613 0 0 0 0-1.226zm3.567.613a.613.613 0 1 1 1.227 0 .613.613 0 0 1 -1.227 0zm-7.588-4.444h.772v-6.962h-.658l-1.886 1.452.415.538.795-.638.32-.262a4.01 4.01 0 0 0 .275-.262c-.009.118-.017.234-.023.348-.004.111-.007.235-.01.372z" fill="#027cb2"/></svg>