<svg width="25" height="25" viewBox="0 0 25 25" fill="none"><g id="sea"><path fill-rule="evenodd" clip-rule="evenodd" d="M13.75 2.75a.5.5 0 0 0-.879-.326L5.03 11.527a1.16 1.16 0 0 0-.248.495 1.035 1.035 0 0 0-.03.311c.006.09.03.227.12.355.208.377.592.562.96.562h6.918v2H3.848c-.502 0-.761.367-.869.52l-.016.022c-.137.192-.178.425-.195.566-.018.154-.018.304-.018.386v.006l.001.036c.12 1.682.813 3.238 1.8 4.192a2.494 2.494 0 0 1-1.801.772.5.5 0 0 0 0 1c1.27 0 2.386-.684 3-1.702a3.506 3.506 0 0 0 3 1.702c1.27 0 2.386-.684 3-1.702a3.506 3.506 0 0 0 3 1.702c1.27 0 2.386-.684 3-1.702a3.506 3.506 0 0 0 3 1.702.5.5 0 0 0 0-1c-.33 0-.646-.065-.936-.183a3.593 3.593 0 0 0 .83-.422c1.213-.94 1.978-2.586 2.105-4.36l.001-.035v-.006c0-.082 0-.232-.018-.386-.017-.141-.058-.374-.195-.566a1.53 1.53 0 0 0-.573-.47.776.776 0 0 0-.311-.072H13.75V2.75Zm-7.97 9.438 6.97-8.091v8.153H5.832a.11.11 0 0 1-.055-.014.074.074 0 0 1-.014-.01.297.297 0 0 1 .012-.029l.003-.006.003-.003Zm-2 4.187a.186.186 0 0 1 .004-.011 1.881 1.881 0 0 1 .088-.114h17.712l.011.008.01.006a.634.634 0 0 1 .111.101l.004.01a.65.65 0 0 1 .019.101c.01.085.01.175.011.256-.115 1.542-.775 2.881-1.7 3.609a2.492 2.492 0 0 1-.586.288 3.103 3.103 0 0 1-.711.12 2.483 2.483 0 0 1-.503-1.499.5.5 0 0 0-1 0c0 1.374-1.126 2.5-2.5 2.5a2.509 2.509 0 0 1-2.5-2.5.5.5 0 0 0-1 0c0 1.374-1.126 2.5-2.5 2.5a2.509 2.509 0 0 1-2.5-2.5.5.5 0 0 0-1 0c0 .3-.054.589-.152.856-.705-.767-1.245-1.994-1.348-3.374 0-.08.001-.17.011-.256a.63.63 0 0 1 .02-.1Z" fill="#18303F" yggColor="iconDefault"/></g></svg>