<svg width="15" height="15" viewBox="0 0 15 15" fill="none" xmlns="http://www.w3.org/2000/svg">
<path fill-rule="evenodd" clip-rule="evenodd" d="M3.58318 3.58318C1.97227 5.1941 1.97227 7.8059 3.58318 9.41682C5.1941 11.0277 7.8059 11.0277 9.41682 9.41682C11.0277 7.8059 11.0277 5.1941 9.41682 3.58318C7.8059 1.97227 5.1941 1.97227 3.58318 3.58318ZM3.05285 9.94715C1.14905 8.04334 1.14905 4.95666 3.05285 3.05285C4.95666 1.14905 8.04334 1.14905 9.94715 3.05285C11.7617 4.86744 11.8468 7.75663 10.2023 9.67193L13.24 12.7097C13.3865 12.8562 13.3865 13.0936 13.24 13.24C13.0936 13.3865 12.8562 13.3865 12.7097 13.24L9.67193 10.2023C7.75663 11.8468 4.86744 11.7617 3.05285 9.94715Z" fill="#18303F"/>
</svg>
