<svg width="25" height="25" viewBox="0 0 25 25" fill="none" xmlns="http://www.w3.org/2000/svg">
<g id="search">
<path id="iconDefault" fill-rule="evenodd" clip-rule="evenodd" d="M5.97198 5.97201C3.28713 8.65687 3.28713 13.0099 5.97198 15.6947C8.65684 18.3796 13.0098 18.3796 15.6947 15.6947C18.3796 13.0099 18.3796 8.65687 15.6947 5.97201C13.0098 3.28716 8.65684 3.28716 5.97198 5.97201ZM5.0881 16.5786C1.91509 13.4056 1.91509 8.26114 5.0881 5.08813C8.26111 1.91512 13.4056 1.91512 16.5786 5.08813C19.6029 8.11244 19.7446 12.9278 17.0038 16.1199L22.0667 21.1829C22.3108 21.427 22.3108 21.8227 22.0667 22.0668C21.8227 22.3108 21.4269 22.3108 21.1829 22.0668L16.1199 17.0038C12.9277 19.7447 8.11241 19.6029 5.0881 16.5786Z" fill="#18303F"/>
</g>
</svg>
