<svg width="25" height="25" viewBox="0 0 25 25" fill="none"><g yggColor="search"><path yggColor="iconDefault" fill-rule="evenodd" clip-rule="evenodd" d="M5.085 15.504a7.36 7.36 0 0 1 0-10.443 7.439 7.439 0 0 1 10.488 0 7.362 7.362 0 0 1 .911 9.343.498.498 0 0 0 .003.561c.02.035.046.068.076.098l4.648 4.648a.994.994 0 0 1-.002 1.407 1.004 1.004 0 0 1-1.415 0L15.2 16.543a.502.502 0 0 0-.708 0 .497.497 0 0 0 0 .706l4.595 4.575c.782.778 2.05.778 2.832 0a1.988 1.988 0 0 0 .003-2.817l-4.387-4.387a8.357 8.357 0 0 0-1.252-10.265c-3.288-3.273-8.618-3.273-11.906 0a8.355 8.355 0 0 0 0 11.854 8.437 8.437 0 0 0 8.82 1.956.497.497 0 0 0 .3-.638.501.501 0 0 0-.64-.3 7.431 7.431 0 0 1-7.77-1.723Zm1.708-8.741a4.962 4.962 0 0 0 0 7.039 5.015 5.015 0 0 0 6.896.165.503.503 0 0 1 .708.033.497.497 0 0 1-.034.705 6.02 6.02 0 0 1-8.279-.198 5.958 5.958 0 0 1 0-8.45 6.02 6.02 0 0 1 8.487 0 5.955 5.955 0 0 1 1.528 5.867.501.501 0 0 1-.964-.273 4.962 4.962 0 0 0-1.272-4.888 5.015 5.015 0 0 0-7.07 0Zm8.718 6.395a.5.5 0 1 1-1 0 .5.5 0 0 1 1 0Z" fill="#18303F"/></g></svg>