<svg width="25" height="25" viewBox="0 0 25 25" fill="none"><path fill-rule="evenodd" clip-rule="evenodd" d="M12.492 1.458a.5.5 0 0 0-.352.146c-.52.517-1.33 1.034-2.286 1.522-.95.484-2.011.923-3.01 1.294a47.569 47.569 0 0 1-3.63 1.178l-.056.016-.014.003-.004.002a.5.5 0 0 0-.371.483c0 3.64.11 7.164 1.365 10.188 1.272 3.064 3.694 5.566 8.193 7.22a.5.5 0 0 0 .345 0c4.5-1.654 6.922-4.156 8.194-7.22 1.255-3.024 1.365-6.548 1.365-10.188a.501.501 0 0 0-.372-.484h-.003l-.014-.004-.057-.016a43.33 43.33 0 0 1-1.026-.3 47.6 47.6 0 0 1-2.603-.878 29.03 29.03 0 0 1-3.01-1.294c-.957-.488-1.766-1.005-2.286-1.522a.5.5 0 0 0-.353-.146h-.014ZM5.058 15.907C3.93 13.189 3.778 9.99 3.77 6.48a48.577 48.577 0 0 0 3.423-1.123c1.019-.38 2.12-.833 3.115-1.34.82-.419 1.593-.885 2.192-1.39.6.505 1.371.971 2.192 1.39.996.507 2.096.96 3.116 1.34A48.56 48.56 0 0 0 21.23 6.48c-.009 3.509-.16 6.708-1.288 9.426-1.136 2.738-3.285 5.032-7.442 6.601-4.157-1.57-6.306-3.863-7.442-6.601Zm2.525-8.085a3.706 3.706 0 0 1 5.262 0 3.716 3.716 0 0 1 .78 4.08l1.981 1.976.005.005.937.962.957.954.4.37a.54.54 0 0 1 .013.013c.313.312.242.796-.028 1.066l-.883.88-.566.565a.5.5 0 0 1-.706-.708l.566-.564.714-.713-.196-.181-.006-.006a.469.469 0 0 1-.008-.007l-.966-.964-.005-.005-.936-.961-2.234-2.227a.5.5 0 0 1-.082-.602A2.71 2.71 0 0 0 8.29 8.53a2.684 2.684 0 0 0 0 3.834 2.699 2.699 0 0 0 3.239.442.5.5 0 0 1 .6.081l1.51 1.505a.5.5 0 0 1 0 .708l-.79.789.589.587.11-.109a.5.5 0 1 1 .706.707l-.283.283a.755.755 0 0 1-.533.23.754.754 0 0 1-.532-.23l-.94-.935a.752.752 0 0 1-.229-.533c0-.22.1-.404.23-.533l.61-.61-.9-.897a3.698 3.698 0 0 1-4.093-.777 3.684 3.684 0 0 1 0-5.25Zm8.129 8.638a.5.5 0 0 1-.002.707l-.79.789.117.117a.5.5 0 0 1-.707.707l-.292-.292a.754.754 0 0 1-.23-.533c0-.22.1-.403.23-.533l.966-.963a.5.5 0 0 1 .708 0Zm-5.482-5.48a.514.514 0 1 0 0-1.027.514.514 0 0 0 0 1.027Zm0 1a1.514 1.514 0 1 0 0-3.027 1.514 1.514 0 0 0 0 3.027Z" fill="#18303F" yggColor="security_key"/></svg>