<svg fill="none" height="25" viewBox="0 0 25 25" width="25"><path clip-rule="evenodd" d="m12.453.372a.5.5 0 0 0 -.353.146c-.579.576-1.477 1.15-2.534 1.688-1.05.535-2.223 1.02-3.325 1.43a52.528 52.528 0 0 1 -4.008 1.3l-.063.018-.015.004-.004.001h-.001a.5.5 0 0 0 -.37.483c0 4.016.121 7.894 1.501 11.219 1.396 3.364 4.057 6.115 9.008 7.936a.5.5 0 0 0 .345 0c4.95-1.821 7.611-4.572 9.007-7.936 1.38-3.325 1.502-7.203 1.502-11.219a.5.5 0 0 0 -.37-.483h-.005l-.016-.005-.062-.017a47.717 47.717 0 0 1 -1.133-.331 52.53 52.53 0 0 1 -2.875-.97c-1.103-.41-2.276-.895-3.325-1.43-1.057-.539-1.957-1.112-2.535-1.688a.5.5 0 0 0 -.353-.146zm-8.248 15.906c-1.253-3.018-1.416-6.57-1.425-10.456a53.528 53.528 0 0 0 3.81-1.249c1.122-.417 2.334-.917 3.43-1.476.919-.468 1.78-.99 2.441-1.554.661.564 1.522 1.086 2.441 1.554 1.096.559 2.308 1.059 3.432 1.476a53.54 53.54 0 0 0 3.809 1.249c-.01 3.885-.173 7.437-1.425 10.456-1.261 3.038-3.648 5.58-8.257 7.316-4.608-1.736-6.995-4.278-8.256-7.316zm5.003-6.273v-1.135c0-1.801 1.493-3.294 3.294-3.294 1.8 0 3.294 1.493 3.294 3.294v1.135c.82.051 1.474.737 1.474 1.57v3.505c0 .804-.368 1.547-.904 2.083-.535.535-1.278.903-2.082.903h-3.568c-.804 0-1.547-.368-2.082-.903-.536-.536-.904-1.279-.904-2.083v-3.505c0-.835.656-1.52 1.478-1.57zm1.178-1.135a2.14 2.14 0 0 1 2.116-2.116 2.14 2.14 0 0 1 2.116 2.116v1.132h-4.232zm-.607 2.31h-.476a.398.398 0 0 0 -.395.395v3.505c0 .443.207.898.559 1.25.35.35.806.558 1.25.558h3.567c.443 0 .898-.207 1.25-.558.35-.352.558-.807.558-1.25v-3.505a.398.398 0 0 0 -.395-.395zm3.901 2.559c0 .436-.237.817-.588 1.02v.21a.589.589 0 1 1 -1.178 0v-.207a1.179 1.179 0 1 1 1.766-1.023z" fill="#18303f" fill-rule="evenodd"/></svg>