<svg width="25" height="25" viewBox="0 0 25 25" fill="none"><g id="security_pin_bad"><path fill-rule="evenodd" clip-rule="evenodd" d="M11.223.5a.5.5 0 0 0-.352.146c-.52.517-1.33 1.034-2.286 1.522-.95.484-2.011.923-3.01 1.294a47.58 47.58 0 0 1-3.63 1.178l-.056.015-.014.004-.003.001a.501.501 0 0 0-.372.483c0 5.405.236 10.572 4.158 14.242a.5.5 0 0 0 .684-.73C2.858 15.394 2.515 10.817 2.5 5.522A48.568 48.568 0 0 0 5.923 4.4c1.02-.38 2.12-.834 3.116-1.341.82-.418 1.593-.884 2.192-1.39.6.506 1.371.972 2.192 1.39.995.507 2.096.961 3.115 1.34a48.58 48.58 0 0 0 3.423 1.124c-.01 3.874-.194 7.369-1.668 10.25a.5.5 0 1 0 .89.455c1.647-3.219 1.779-7.084 1.779-11.085a.5.5 0 0 0-.371-.483h-.004l-.014-.005-.057-.015-.22-.062a47.552 47.552 0 0 1-3.41-1.117c-.998-.37-2.06-.81-3.01-1.293-.956-.488-1.765-1.005-2.285-1.522A.5.5 0 0 0 11.238.5h-.014Zm1.248 18.598a.5.5 0 0 1 0 .707l-.719.718.762.762a.5.5 0 1 1-.707.707l-.762-.762-.762.762a.5.5 0 1 1-.707-.707l.762-.762-.719-.718a.5.5 0 1 1 .707-.707l.719.718.719-.718a.5.5 0 0 1 .707 0Zm5 .707a.5.5 0 1 0-.707-.707l-.719.718-.719-.718a.5.5 0 0 0-.707.707l.719.718-.762.762a.5.5 0 0 0 .707.707l.762-.762.762.762a.5.5 0 1 0 .707-.707l-.762-.762.719-.718Zm1.345 1.824a.5.5 0 0 1 .5-.5h2.452a.5.5 0 0 1 0 1h-2.452a.5.5 0 0 1-.5-.5Zm-10.03-4.594a1.5 1.5 0 0 0-1.5 1.5v4a1.5 1.5 0 0 0 1.5 1.5h14a1.5 1.5 0 0 0 1.5-1.5v-4a1.5 1.5 0 0 0-1.5-1.5h-14Zm-.5 1.5a.5.5 0 0 1 .5-.5h14a.5.5 0 0 1 .5.5v4a.5.5 0 0 1-.5.5h-14a.5.5 0 0 1-.5-.5v-4Zm.482-9.531a.5.5 0 0 1 .707 0l1.79 1.791 1.792-1.791a.5.5 0 1 1 .707.707l-1.791 1.791 1.787 1.788a.5.5 0 0 1-.707.707l-1.787-1.788-1.788 1.788a.5.5 0 1 1-.707-.707l1.787-1.788-1.79-1.791a.5.5 0 0 1 0-.707Z" fill="#18303F" yggColor="iconDefault"/></g></svg>