<svg fill="none" height="25" viewBox="0 0 25 25" width="25"><path clip-rule="evenodd" d="m12.493 1.458a.5.5 0 0 0 -.353.146c-.52.517-1.33 1.034-2.286 1.522-.95.484-2.011.923-3.01 1.294a47.569 47.569 0 0 1 -3.63 1.178l-.056.016-.014.003-.004.002a.5.5 0 0 0 -.37.483c0 3.64.11 7.164 1.364 10.188 1.272 3.064 3.694 5.566 8.193 7.22a.5.5 0 0 0 .346 0c4.499-1.654 6.921-4.156 8.193-7.22 1.255-3.024 1.365-6.548 1.365-10.188a.501.501 0 0 0 -.372-.484h-.003l-.014-.004-.057-.016a43.33 43.33 0 0 1 -1.026-.3 47.6 47.6 0 0 1 -2.603-.878 29.03 29.03 0 0 1 -3.01-1.294c-.957-.488-1.766-1.005-2.286-1.522a.5.5 0 0 0 -.353-.146zm-7.435 14.449c-1.128-2.718-1.28-5.917-1.288-9.427a48.577 48.577 0 0 0 3.423-1.123c1.019-.38 2.12-.833 3.115-1.34.82-.419 1.593-.885 2.192-1.39.6.505 1.372.971 2.192 1.39.996.507 2.096.96 3.116 1.34a48.56 48.56 0 0 0 3.422 1.123c-.009 3.509-.16 6.708-1.288 9.426-1.136 2.738-3.285 5.032-7.442 6.601-4.157-1.57-6.306-3.863-7.442-6.601zm2.526-8.085a3.706 3.706 0 0 1 5.261 0 3.716 3.716 0 0 1 .78 4.08l1.982 1.976.005.005.936.962.957.954.4.37a.54.54 0 0 1 .013.013c.313.312.243.796-.028 1.066l-.883.88-.566.565a.5.5 0 0 1 -.706-.708l.566-.564.714-.713-.196-.181-.006-.006-.007-.007-.967-.964-.005-.005-.936-.961-2.234-2.227a.5.5 0 0 1 -.081-.602 2.71 2.71 0 0 0 -4.293-3.225 2.684 2.684 0 0 0 0 3.834 2.699 2.699 0 0 0 3.238.442.5.5 0 0 1 .6.081l1.51 1.505a.5.5 0 0 1 0 .708l-.79.789.589.587.11-.109a.5.5 0 1 1 .706.707l-.283.283a.755.755 0 0 1 -.533.23.754.754 0 0 1 -.532-.23l-.94-.935a.752.752 0 0 1 -.229-.533c0-.22.1-.404.23-.533l.611-.61-.901-.897a3.698 3.698 0 0 1 -4.092-.777 3.684 3.684 0 0 1 0-5.25zm8.128 8.638a.5.5 0 0 1 -.001.707l-.791.789.117.117a.5.5 0 0 1 -.707.707l-.292-.292a.754.754 0 0 1 -.23-.533c0-.22.1-.403.23-.533l.967-.963a.5.5 0 0 1 .707 0zm-5.482-5.48a.514.514 0 1 0 0-1.027.514.514 0 0 0 0 1.027zm0 1a1.514 1.514 0 1 0 0-3.027 1.514 1.514 0 0 0 0 3.027z" fill="#18303f" fill-rule="evenodd"/></svg>