<svg fill="none" height="25" viewBox="0 0 25 25" width="25"><g clip-rule="evenodd" fill-rule="evenodd"><path d="m12.454.372a.5.5 0 0 0 -.353.146c-.58.576-1.477 1.15-2.534 1.688-1.05.535-2.223 1.02-3.326 1.43a52.528 52.528 0 0 1 -4.007 1.3l-.063.018-.016.004-.004.001a.5.5 0 0 0 -.371.483c0 4.016.122 7.894 1.502 11.219 1.396 3.364 4.056 6.115 9.007 7.936a.5.5 0 0 0 .346 0c4.95-1.821 7.61-4.572 9.007-7.936 1.38-3.325 1.502-7.203 1.502-11.219a.5.5 0 0 0 -.37-.483h-.005l-.016-.005-.063-.017a47.75 47.75 0 0 1 -1.133-.331 52.53 52.53 0 0 1 -2.874-.97c-1.103-.41-2.276-.895-3.326-1.43-1.057-.539-1.955-1.112-2.534-1.688a.5.5 0 0 0 -.353-.146h-.016zm-8.249 15.906c-1.252-3.018-1.415-6.57-1.425-10.456a53.528 53.528 0 0 0 3.81-1.249c1.123-.417 2.335-.917 3.43-1.476.92-.468 1.781-.99 2.442-1.554.66.564 1.522 1.086 2.441 1.554 1.096.559 2.308 1.059 3.431 1.476a53.54 53.54 0 0 0 3.81 1.249c-.01 3.885-.173 7.437-1.425 10.456-1.262 3.038-3.648 5.58-8.257 7.316-4.609-1.736-6.996-4.278-8.256-7.316z" fill="#18303f"/><path d="m13.68 13.739c0 .436-.236.817-.588 1.02v.21a.589.589 0 1 1 -1.178 0v-.207a1.179 1.179 0 1 1 1.767-1.023zm-4.47-4.87v1.136a1.576 1.576 0 0 0 -1.478 1.57v3.505c0 .804.368 1.547.903 2.083.536.535 1.279.903 2.083.903h3.567c.805 0 1.548-.368 2.083-.903.536-.536.903-1.279.903-2.083v-3.505c0-.833-.653-1.518-1.473-1.57v-1.135c0-1.801-1.493-3.294-3.294-3.294s-3.295 1.493-3.295 3.294zm1.178 0a2.14 2.14 0 0 1 2.116-2.115 2.14 2.14 0 0 1 2.116 2.116v1.132h-4.232v-1.132zm-.59 2.311h-.493a.398.398 0 0 0 -.395.395v3.505c0 .443.207.898.558 1.25.352.35.807.558 1.25.558h3.567c.444 0 .9-.207 1.25-.558.352-.352.559-.807.559-1.25v-3.505a.398.398 0 0 0 -.395-.395h-5.9z" fill="#038c6a"/></g></svg>