<svg width="25" height="25" viewBox="0 0 25 25" fill="none"><g id="security_bad"><path fill-rule="evenodd" clip-rule="evenodd" d="M12.454 1.138a.5.5 0 0 0-.353.145c-.52.518-1.329 1.035-2.286 1.523-.95.484-2.01.922-3.01 1.293a47.569 47.569 0 0 1-3.63 1.179l-.056.015-.014.004-.004.001a.5.5 0 0 0-.37.483c0 3.64.11 7.165 1.365 10.189 1.27 3.063 3.694 5.565 8.193 7.22a.5.5 0 0 0 .345 0c4.5-1.655 6.922-4.157 8.193-7.22 1.255-3.024 1.365-6.549 1.365-10.189a.501.501 0 0 0-.371-.483l-.004-.001-.014-.004-.056-.015a43.33 43.33 0 0 1-1.026-.3 47.6 47.6 0 0 1-2.604-.879 29.03 29.03 0 0 1-3.01-1.293c-.956-.488-1.766-1.005-2.286-1.523a.5.5 0 0 0-.352-.145h-.015ZM5.019 15.586C3.891 12.87 3.74 9.67 3.731 6.16a48.577 48.577 0 0 0 3.423-1.123c1.02-.379 2.12-.833 3.115-1.34.82-.419 1.593-.885 2.192-1.39.6.505 1.372.971 2.192 1.39.996.507 2.096.961 3.116 1.34a48.56 48.56 0 0 0 3.423 1.123c-.01 3.509-.16 6.709-1.289 9.426-1.136 2.738-3.285 5.032-7.442 6.601-4.157-1.569-6.306-3.863-7.442-6.6Zm5.642-5.532a.429.429 0 0 0-.606.606l1.84 1.84-1.84 1.84a.429.429 0 1 0 .607.606l1.84-1.84 1.838 1.84a.428.428 0 1 0 .607-.606l-1.84-1.84 1.84-1.84a.429.429 0 0 0-.606-.606l-1.84 1.84-1.84-1.84Z" fill="#18303F" yggColor="iconDefault"/></g></svg>