<svg fill="none" height="25" viewBox="0 0 25 25" width="25"><path clip-rule="evenodd" d="m12.101 1.283a.5.5 0 0 1 .353-.145h.015a.5.5 0 0 1 .352.145c.52.518 1.33 1.035 2.286 1.523.95.484 2.011.922 3.01 1.293a47.6 47.6 0 0 0 3.63 1.179l.056.015.014.004h.004a.501.501 0 0 1 .371.484c0 3.64-.11 7.165-1.365 10.189-1.271 3.063-3.694 5.565-8.193 7.22a.5.5 0 0 1 -.345 0c-4.5-1.655-6.922-4.157-8.193-7.22-1.256-3.024-1.366-6.55-1.366-10.19a.5.5 0 0 1 .371-.483l.004-.001.014-.004.057-.015.22-.062a47.569 47.569 0 0 0 3.41-1.117c.998-.37 2.06-.81 3.01-1.293.956-.488 1.765-1.005 2.285-1.523zm-8.37 4.877c.01 3.509.16 6.709 1.288 9.426 1.136 2.738 3.285 5.032 7.442 6.601 4.157-1.569 6.306-3.863 7.442-6.6 1.128-2.718 1.28-5.918 1.289-9.427a48.56 48.56 0 0 1 -3.423-1.123c-1.02-.379-2.12-.833-3.116-1.34-.82-.419-1.592-.885-2.192-1.39-.599.505-1.371.971-2.192 1.39-.995.507-2.096.961-3.115 1.34a48.577 48.577 0 0 1 -3.424 1.123z" fill="#18303f" fill-rule="evenodd"/><path d="m11.034 14.564a.498.498 0 0 0 .745 0l3.686-3.686a.5.5 0 1 0 -.707-.707l-3.351 3.351-1.71-1.71a.5.5 0 0 0 -.707.708z" fill="#038c6a"/></svg>