<svg fill="none" height="25" viewBox="0 0 25 25" width="25"><path clip-rule="evenodd" d="m12.69 10.475a.5.5 0 0 1 -.189.038h-.006a.5.5 0 0 1 -.35-.146l-1.75-1.75a.5.5 0 1 1 .707-.708l.896.897v-3.293c0-1.976 1.524-3.5 3.5-3.5h2.486a.5.5 0 0 1 0 1h-2.486c-1.423 0-2.5 1.076-2.5 2.5v3.293l.897-.897a.5.5 0 1 1 .707.707l-1.75 1.75a.499.499 0 0 1 -.162.109zm-6.554 8.9c-3.482-3.48-3.482-9.245 0-12.727a.5.5 0 1 0 -.707-.707c-3.872 3.872-3.872 10.27 0 14.142s10.27 3.872 14.142 0 3.872-10.27 0-14.142a.5.5 0 1 0 -.707.707c3.482 3.482 3.482 9.246 0 12.728s-9.246 3.482-12.728 0zm4.392-8.01a.5.5 0 0 1 .224.67c-.472.944-.282 2.01.553 2.624.785.559 1.926.448 2.606-.232.597-.597.709-1.628.27-2.358a.5.5 0 1 1 .856-.516c.668 1.109.515 2.647-.42 3.582-1.016 1.016-2.702 1.189-3.896.336l-.005-.004c-1.285-.942-1.517-2.562-.859-3.88a.5.5 0 0 1 .671-.223zm-2.468-3.105c-1.916 1.764-2.605 4.595-1.685 7.05a6.48 6.48 0 0 0 5.899 4.213c2.671.076 5.055-1.38 6.13-3.835 1.068-2.444.611-5.211-1.308-7.13a.5.5 0 1 0 -.707.707c1.617 1.616 2.009 3.94 1.098 6.022-.905 2.07-2.906 3.301-5.185 3.236a5.48 5.48 0 0 1 -4.99-3.565c-.777-2.07-.193-4.472 1.425-5.962a.5.5 0 1 0 -.677-.736z" fill="#18303f" fill-rule="evenodd"/></svg>