<svg fill="none" height="25" viewBox="0 0 25 25" width="25"><path clip-rule="evenodd" d="m12.584 3.454a6.61 6.61 0 0 1 7.543-1.306.5.5 0 0 1 .137.805l-2.922 2.922v2.082h2.082l2.922-2.922a.5.5 0 0 1 .805.137c1.204 2.51.71 5.629-1.316 7.552-1.92 1.824-4.765 2.369-7.215 1.266l-9.14 9.139c-.939.94-2.37.94-3.31 0a.553.553 0 0 1 -.023-.024c-.788-.901-.943-2.32.023-3.287l9.14-9.139c-1.106-2.44-.658-5.293 1.274-7.225zm6.439-.674a5.616 5.616 0 0 0 -5.732 1.381c-1.7 1.7-2.045 4.25-.933 6.39a.5.5 0 0 1 -.09.584l-9.39 9.39c-.518.518-.492 1.323.01 1.909.55.536 1.34.532 1.885-.012l9.391-9.39a.5.5 0 0 1 .585-.091c2.127 1.106 4.686.684 6.398-.942 1.52-1.444 2.027-3.724 1.372-5.722l-2.534 2.533a.5.5 0 0 1 -.353.147h-2.79a.5.5 0 0 1 -.5-.5v-2.79a.5.5 0 0 1 .147-.353z" fill="#18303f" fill-rule="evenodd"/></svg>