<svg fill="none" height="25" viewBox="0 0 25 25" width="25"><path clip-rule="evenodd" d="m3.285 5.622a3.5 3.5 0 0 1 3.5-3.5h11.429a3.5 3.5 0 0 1 3.5 3.5v13.756a3.5 3.5 0 0 1 -3.5 3.5h-.737a.5.5 0 0 1 0-1h.737a2.5 2.5 0 0 0 2.5-2.5v-.586a1.493 1.493 0 0 1 -.5.085h-5.363a.974.974 0 0 1 -.973.946h-2.758a.972.972 0 0 1 -.972-.946h-5.362a1.5 1.5 0 0 1 -.501-.085v.586a2.5 2.5 0 0 0 2.5 2.5h7.114a.5.5 0 0 1 0 1h-7.114a3.5 3.5 0 0 1 -3.5-3.5zm3.215-.536a.5.5 0 1 0 0-1 .5.5 0 0 0 0 1zm0 2a.5.5 0 1 0 0-1 .5.5 0 0 0 0 1zm.5 1.5a.5.5 0 1 1 -1 0 .5.5 0 0 1 1 0zm-.5 2.5a.5.5 0 1 0 0-1 .5.5 0 0 0 0 1zm.5 1.5a.5.5 0 1 1 -1 0 .5.5 0 0 1 1 0zm-.5 2.5a.5.5 0 1 0 0-1 .5.5 0 0 0 0 1zm.5 1.5a.5.5 0 1 1 -1 0 .5.5 0 0 1 1 0zm11.5-11.5a.5.5 0 1 0 0-1 .5.5 0 0 0 0 1zm.5 1.5a.5.5 0 1 1 -1 0 .5.5 0 0 1 1 0zm-.5 2.5a.5.5 0 1 0 0-1 .5.5 0 0 0 0 1zm.5 1.5a.5.5 0 1 1 -1 0 .5.5 0 0 1 1 0zm-.5 2.5a.5.5 0 1 0 0-1 .5.5 0 0 0 0 1zm.5 1.5a.5.5 0 1 1 -1 0 .5.5 0 0 1 1 0zm-.5 2.5a.5.5 0 1 0 0-1 .5.5 0 0 0 0 1zm-2.871 5.792a.5.5 0 1 0 0-1 .5.5 0 0 0 0 1z" fill="#18303f" fill-rule="evenodd"/></svg>