<svg fill="none" height="25" viewBox="0 0 25 25" width="25"><path clip-rule="evenodd" d="m3.286 5.502a3.5 3.5 0 0 1 3.5-3.5h11.429a3.5 3.5 0 0 1 3.5 3.5v13.756a3.5 3.5 0 0 1 -3.5 3.5h-3.696a.97.97 0 0 1 -.64.24h-2.759a.968.968 0 0 1 -.639-.24h-3.694a3.5 3.5 0 0 1 -3.5-3.5v-13.756zm3.714-1.035a.5.5 0 1 1 -1 0 .5.5 0 0 1 1 0zm0 2a.5.5 0 1 1 -1 0 .5.5 0 0 1 1 0zm-.5 2.5a.5.5 0 1 0 0-1 .5.5 0 0 0 0 1zm.5 1.5a.5.5 0 1 1 -1 0 .5.5 0 0 1 1 0zm-.5 2.5a.5.5 0 1 0 0-1 .5.5 0 0 0 0 1zm.5 1.5a.5.5 0 1 1 -1 0 .5.5 0 0 1 1 0zm-.5 2.5a.5.5 0 1 0 0-1 .5.5 0 0 0 0 1zm.5 1.5a.5.5 0 1 1 -1 0 .5.5 0 0 1 1 0zm-.5 2.5a.5.5 0 1 0 0-1 .5.5 0 0 0 0 1zm12.5-16.5a.5.5 0 1 1 -1 0 .5.5 0 0 1 1 0zm-.5 2.5a.5.5 0 1 0 0-1 .5.5 0 0 0 0 1zm.5 1.5a.5.5 0 1 1 -1 0 .5.5 0 0 1 1 0zm-.5 2.5a.5.5 0 1 0 0-1 .5.5 0 0 0 0 1zm.5 1.5a.5.5 0 1 1 -1 0 .5.5 0 0 1 1 0zm-.5 2.5a.5.5 0 1 0 0-1 .5.5 0 0 0 0 1zm.5 1.5a.5.5 0 1 1 -1 0 .5.5 0 0 1 1 0zm-.5 2.5a.5.5 0 1 0 0-1 .5.5 0 0 0 0 1zm.5 1.5a.5.5 0 1 1 -1 0 .5.5 0 0 1 1 0z" fill="#18303f" fill-rule="evenodd"/></svg>