<svg fill="none" height="25" viewBox="0 0 25 25" width="25"><path clip-rule="evenodd" d="m3.285 5.622a3.5 3.5 0 0 1 3.5-3.5h11.429a3.5 3.5 0 0 1 3.5 3.5v4.561l.001.022v2.173l-.001.038v6.962a3.5 3.5 0 0 1 -3.5 3.5h-3.948a.5.5 0 1 1 0-1h3.948a2.5 2.5 0 0 0 2.5-2.5v-5.585a1.493 1.493 0 0 1 -.499.085h-5.364a.974.974 0 0 1 -.973.945h-2.757a.972.972 0 0 1 -.972-.945h-5.363a1.5 1.5 0 0 1 -.501-.086v5.586a2.5 2.5 0 0 0 2.5 2.5h3.996a.5.5 0 0 1 0 1h-3.996a3.5 3.5 0 0 1 -3.5-3.5zm3.215-.535a.5.5 0 1 0 0-1 .5.5 0 0 0 0 1zm0 2a.5.5 0 1 0 0-1 .5.5 0 0 0 0 1zm.5 1.5a.5.5 0 1 1 -1 0 .5.5 0 0 1 1 0zm-.5 2.5a.5.5 0 1 0 0-1 .5.5 0 0 0 0 1zm.5 1.5a.5.5 0 1 1 -1 0 .5.5 0 0 1 1 0zm11.5-7.5a.5.5 0 1 0 0-1 .5.5 0 0 0 0 1zm.5 1.5a.5.5 0 1 1 -1 0 .5.5 0 0 1 1 0zm-.5 2.5a.5.5 0 1 0 0-1 .5.5 0 0 0 0 1zm.5 1.5a.5.5 0 1 1 -1 0 .5.5 0 0 1 1 0zm-.5 2.5a.5.5 0 1 0 0-1 .5.5 0 0 0 0 1zm-6.5 9.29a.5.5 0 0 0 1 0v-.01a.5.5 0 0 0 -1 0z" fill="#18303f" fill-rule="evenodd"/></svg>