<svg fill="none" height="25" viewBox="0 0 25 25" width="25"><path clip-rule="evenodd" d="m3.285 5.622a3.5 3.5 0 0 1 3.5-3.5h11.429a3.5 3.5 0 0 1 3.5 3.5v13.756a3.5 3.5 0 0 1 -3.5 3.5h-3.948a.5.5 0 1 1 0-1h3.948a2.5 2.5 0 0 0 2.5-2.5v-11.586a1.494 1.494 0 0 1 -.5.085h-5.363a.974.974 0 0 1 -.973.946h-2.758a.972.972 0 0 1 -.972-.946h-5.362a1.5 1.5 0 0 1 -.501-.085v11.586a2.5 2.5 0 0 0 2.5 2.5h3.996a.5.5 0 0 1 0 1h-3.996a3.5 3.5 0 0 1 -3.5-3.5zm3.215-.536a.5.5 0 1 0 0-1 .5.5 0 0 0 0 1zm0 2a.5.5 0 1 0 0-1 .5.5 0 0 0 0 1zm12.5-2.5a.5.5 0 1 1 -1 0 .5.5 0 0 1 1 0zm-.5 2.5a.5.5 0 1 0 0-1 .5.5 0 0 0 0 1zm-6 15.792a.5.5 0 1 0 0-1 .5.5 0 0 0 0 1z" fill="#18303f" fill-rule="evenodd"/></svg>