<svg width="25" height="25" viewBox="0 0 25 25" fill="none"><path fill-rule="evenodd" clip-rule="evenodd" d="M3.285 5.622a3.5 3.5 0 0 1 3.5-3.5h11.43a3.5 3.5 0 0 1 3.5 3.5v13.756a3.5 3.5 0 0 1-3.5 3.5h-.738a.5.5 0 0 1 0-1h.737a2.5 2.5 0 0 0 2.5-2.5v-.586a1.493 1.493 0 0 1-.499.085h-5.364a.974.974 0 0 1-.973.946h-2.757a.972.972 0 0 1-.972-.946H4.786a1.5 1.5 0 0 1-.5-.085v.586a2.5 2.5 0 0 0 2.5 2.5h7.113a.5.5 0 0 1 0 1H6.785a3.5 3.5 0 0 1-3.5-3.5V5.622ZM6.5 5.086a.5.5 0 1 0 0-1 .5.5 0 0 0 0 1Zm0 2a.5.5 0 1 0 0-1 .5.5 0 0 0 0 1Zm.5 1.5a.5.5 0 1 1-1 0 .5.5 0 0 1 1 0Zm-.5 2.5a.5.5 0 1 0 0-1 .5.5 0 0 0 0 1Zm.5 1.5a.5.5 0 1 1-1 0 .5.5 0 0 1 1 0Zm-.5 2.5a.5.5 0 1 0 0-1 .5.5 0 0 0 0 1Zm.5 1.5a.5.5 0 1 1-1 0 .5.5 0 0 1 1 0Zm11.5-11.5a.5.5 0 1 0 0-1 .5.5 0 0 0 0 1Zm.5 1.5a.5.5 0 1 1-1 0 .5.5 0 0 1 1 0Zm-.5 2.5a.5.5 0 1 0 0-1 .5.5 0 0 0 0 1Zm.5 1.5a.5.5 0 1 1-1 0 .5.5 0 0 1 1 0Zm-.5 2.5a.5.5 0 1 0 0-1 .5.5 0 0 0 0 1Zm.5 1.5a.5.5 0 1 1-1 0 .5.5 0 0 1 1 0Zm-.5 2.5a.5.5 0 1 0 0-1 .5.5 0 0 0 0 1Zm-2.87 5.792a.5.5 0 1 0-.001-1 .5.5 0 0 0 0 1Z" fill="#18303F" yggColor="shading_75_percent"/></svg>