<svg width="25" height="25" viewBox="0 0 25 25" fill="none"><g id="shading_50_percent"><path fill-rule="evenodd" clip-rule="evenodd" d="M3.285 5.622a3.5 3.5 0 0 1 3.5-3.5h11.429a3.5 3.5 0 0 1 3.5 3.5v4.561l.001.022v2.173l-.001.038v6.962a3.5 3.5 0 0 1-3.5 3.5h-3.948a.5.5 0 1 1 0-1h3.948a2.5 2.5 0 0 0 2.5-2.5v-5.585a1.493 1.493 0 0 1-.499.085h-5.364a.974.974 0 0 1-.973.945h-2.757a.972.972 0 0 1-.972-.945H4.786a1.5 1.5 0 0 1-.501-.086v5.586a2.5 2.5 0 0 0 2.5 2.5h3.996a.5.5 0 0 1 0 1H6.785a3.5 3.5 0 0 1-3.5-3.5V5.622ZM6.5 5.087a.5.5 0 1 0 0-1 .5.5 0 0 0 0 1Zm0 2a.5.5 0 1 0 0-1 .5.5 0 0 0 0 1Zm.5 1.5a.5.5 0 1 1-1 0 .5.5 0 0 1 1 0Zm-.5 2.5a.5.5 0 1 0 0-1 .5.5 0 0 0 0 1Zm.5 1.5a.5.5 0 1 1-1 0 .5.5 0 0 1 1 0Zm11.5-7.5a.5.5 0 1 0 0-1 .5.5 0 0 0 0 1Zm.5 1.5a.5.5 0 1 1-1 0 .5.5 0 0 1 1 0Zm-.5 2.5a.5.5 0 1 0 0-1 .5.5 0 0 0 0 1Zm.5 1.5a.5.5 0 1 1-1 0 .5.5 0 0 1 1 0Zm-.5 2.5a.5.5 0 1 0 0-1 .5.5 0 0 0 0 1Zm-6.5 9.29a.5.5 0 0 0 1 0v-.01a.5.5 0 0 0-1 0v.01Z" fill="#18303F" yggColor="iconDefault"/></g></svg>