<svg width="25" height="25" viewBox="0 0 25 25" fill="none"><g id="shaking"><path id="iconDefault" fill-rule="evenodd" clip-rule="evenodd" d="m12.168 5 1.773-1.773a.5.5 0 0 0 0-.708L12.168.746a.5.5 0 1 0-.707.707l.92.92C6.89 2.439 2.374 6.995 2.374 12.5a.5.5 0 0 0 1 0c0-4.953 4.068-9.06 9.007-9.126l-.92.919a.5.5 0 1 0 .708.707Zm9.96 7a.5.5 0 0 1 .5.5c0 5.375-4.305 9.844-9.62 10.114l.934.933a.5.5 0 0 1-.708.707l-1.773-1.774a.5.5 0 0 1 0-.707L13.234 20a.5.5 0 0 1 .707.707l-.904.904c4.75-.284 8.59-4.298 8.59-9.11a.5.5 0 0 1 .5-.5Zm-7.358 1.798a.5.5 0 0 1-.371-.602c.247-1.045-.19-2.056-1.162-2.469a.5.5 0 1 1 .39-.92c1.483.629 2.088 2.17 1.745 3.62a.5.5 0 0 1-.602.37Zm-3.462 1.043a.5.5 0 0 1-.7.104c-1.192-.882-1.519-2.653-.744-3.906a.5.5 0 0 1 .85.526c-.504.815-.28 2.007.49 2.576a.5.5 0 0 1 .104.7Zm-2.04-7.917c-2.274 1.334-3.562 3.987-3.178 6.613a.5.5 0 0 0 .99-.145c-.326-2.22.77-4.476 2.694-5.605a.5.5 0 1 0-.505-.863Zm8.877 2.232a.5.5 0 0 0-.84.541c1.255 1.95 1.144 4.339-.206 6.207a.5.5 0 0 0 .81.586c1.582-2.189 1.723-5.024.236-7.334Zm-5.643-2.63a.5.5 0 1 1-1 0 .5.5 0 0 1 1 0Zm2.738 11.647a.5.5 0 1 0 0-1 .5.5 0 0 0 0 1Z" fill="#18303F"/></g></svg>