<svg width="25" height="25" viewBox="0 0 25 25" fill="none"><g id="shutter_both"><path fill-rule="evenodd" clip-rule="evenodd" d="M6.785 2.035a3.5 3.5 0 0 0-3.5 3.5v13.757a3.5 3.5 0 0 0 3.5 3.5h2.126a.5.5 0 0 0 0-1H6.785a2.5 2.5 0 0 1-2.5-2.5V8.705a1.5 1.5 0 0 0 .501.086h5.863c.014.248.22.445.472.445h2.757a.473.473 0 0 0 .472-.445h5.865c.175 0 .343-.03.499-.085v10.586a2.5 2.5 0 0 1-2.5 2.5h-6.371a.5.5 0 0 0 0 1h6.371a3.5 3.5 0 0 0 3.5-3.5V7.329l.001-.038V6.118l-.001-.021v-.562a3.5 3.5 0 0 0-3.5-3.5H6.785Zm13.929 5.278V5.535a2.5 2.5 0 0 0-2.5-2.5H6.785a2.5 2.5 0 0 0-2.5 2.5V6.107l.001.011v1.173a.5.5 0 0 0 .5.5h15.429a.5.5 0 0 0 .499-.478ZM6.5 5a.5.5 0 1 0 0-1 .5.5 0 0 0 0 1Zm0 2a.5.5 0 1 0 0-1 .5.5 0 0 0 0 1Zm12-2a.5.5 0 1 0 0-1 .5.5 0 0 0 0 1Zm0 2a.5.5 0 1 0 0-1 .5.5 0 0 0 0 1ZM8.801 17v-3.794l-1.092 1.092a.5.5 0 1 1-.707-.707l1.944-1.945a.501.501 0 0 1 .725.018l1.927 1.927a.5.5 0 0 1-.707.707l-1.09-1.09V17a.5.5 0 0 1-1 0Zm7.402-1.208 1.09-1.09a.5.5 0 1 1 .707.707l-1.926 1.926a.502.502 0 0 1-.725.019l-1.945-1.945a.5.5 0 0 1 .707-.707l1.092 1.092V12a.5.5 0 0 1 1 0v3.792Zm-5.319 6.5a.5.5 0 1 1-.999 0 .5.5 0 0 1 .999 0Z" fill="#18303F" yggColor="iconDefault"/></g></svg>