<svg fill="none" height="25" viewBox="0 0 25 25" width="25"><path clip-rule="evenodd" d="m6.785 2.035a3.5 3.5 0 0 0 -3.5 3.5v13.757a3.5 3.5 0 0 0 3.5 3.5h3.996a.5.5 0 0 0 0-1h-3.996a2.5 2.5 0 0 1 -2.5-2.5v-11.587a1.5 1.5 0 0 0 .5.086h5.364a.972.972 0 0 0 .972.945h2.757c.528 0 .958-.42.973-.945h5.364c.175 0 .343-.03.499-.085v11.586a2.5 2.5 0 0 1 -2.5 2.5h-3.948a.5.5 0 1 0 0 1h3.948a3.5 3.5 0 0 0 3.5-3.5v-12.963a.479.479 0 0 0 .001-.038v-.173a.16.16 0 0 0 -.001-.021v-.562a3.5 3.5 0 0 0 -3.5-3.5h-11.43zm.215 2.465a.5.5 0 1 1 -1 0 .5.5 0 0 1 1 0zm0 2a.5.5 0 1 1 -1 0 .5.5 0 0 1 1 0zm11.5-1.5a.5.5 0 1 0 0-1 .5.5 0 0 0 0 1zm.5 1.5a.5.5 0 1 1 -1 0 .5.5 0 0 1 1 0zm-6 15.792a.5.5 0 1 1 -1 0 .5.5 0 0 1 1 0zm-.676-6.605v-3.481l-.97.97a.501.501 0 0 1 -.708-.707l1.823-1.823a.501.501 0 0 1 .73.023l1.8 1.8a.5.5 0 0 1 -.707.707l-.968-.968v3.48c0 1.494 1.131 2.624 2.625 2.624h1.167a.5.5 0 0 1 0 1h-1.167c-2.047 0-3.625-1.578-3.625-3.625zm6.957 3.126a.5.5 0 1 1 -1 0 .5.5 0 0 1 1 0z" fill="#18303f" fill-rule="evenodd"/></svg>