<svg fill="none" height="25" viewBox="0 0 25 25" width="25"><path clip-rule="evenodd" d="m6.785 2.002a3.5 3.5 0 0 0 -3.5 3.5v13.756a3.5 3.5 0 0 0 3.5 3.5h3.697c.171.15.394.24.64.24h2.756a.97.97 0 0 0 .64-.24h3.696a3.5 3.5 0 0 0 3.5-3.5v-13.756a3.5 3.5 0 0 0 -3.5-3.5zm-.285 2.965a.5.5 0 1 0 0-1 .5.5 0 0 0 0 1zm0 2a.5.5 0 1 0 0-1 .5.5 0 0 0 0 1zm-.058 1.997a.507.507 0 0 0 .085.007h3.578c1.495 0 2.625 1.13 2.625 2.625v3.6l-.998-.998a.5.5 0 1 0 -.707.707l1.822 1.822a.5.5 0 0 0 .707 0l1.821-1.822a.5.5 0 0 0 -.707-.707l-.938.938v-3.54c0-2.047-1.578-3.625-3.625-3.625h-3.542a.5.5 0 1 0 -.121.993zm.058 2.003a.5.5 0 1 0 0-1 .5.5 0 0 0 0 1zm.5 1.5a.5.5 0 1 1 -1 0 .5.5 0 0 1 1 0zm-.5 2.5a.5.5 0 1 0 0-1 .5.5 0 0 0 0 1zm.5 1.5a.5.5 0 1 1 -1 0 .5.5 0 0 1 1 0zm-.5 2.5a.5.5 0 1 0 0-1 .5.5 0 0 0 0 1zm.5 1.5a.5.5 0 1 1 -1 0 .5.5 0 0 1 1 0zm11.5-15.5a.5.5 0 1 0 0-1 .5.5 0 0 0 0 1zm.5 1.5a.5.5 0 1 1 -1 0 .5.5 0 0 1 1 0zm-.5 2.5a.5.5 0 1 0 0-1 .5.5 0 0 0 0 1zm.5 1.5a.5.5 0 1 1 -1 0 .5.5 0 0 1 1 0zm-.5 2.5a.5.5 0 1 0 0-1 .5.5 0 0 0 0 1zm.5 1.5a.5.5 0 1 1 -1 0 .5.5 0 0 1 1 0zm-.5 2.5a.5.5 0 1 0 0-1 .5.5 0 0 0 0 1zm.5 1.5a.5.5 0 1 1 -1 0 .5.5 0 0 1 1 0zm-.5 2.5a.5.5 0 1 0 0-1 .5.5 0 0 0 0 1z" fill="#18303f" fill-rule="evenodd"/></svg>