<svg width="25" height="25" viewBox="0 0 25 25" fill="none"><g id="shutter_down"><path fill-rule="evenodd" clip-rule="evenodd" d="M6.785 2.002a3.5 3.5 0 0 0-3.5 3.5v13.756a3.5 3.5 0 0 0 3.5 3.5h3.697c.171.15.395.24.64.24h2.757a.97.97 0 0 0 .64-.24h3.696a3.5 3.5 0 0 0 3.5-3.5V5.502a3.5 3.5 0 0 0-3.5-3.5H6.785ZM6.5 4.967a.5.5 0 1 0 0-1 .5.5 0 0 0 0 1Zm0 2a.5.5 0 1 0 0-1 .5.5 0 0 0 0 1Zm-.058 1.997a.507.507 0 0 0 .085.007h3.578c1.495 0 2.625 1.13 2.625 2.625v3.6l-.998-.998a.5.5 0 1 0-.707.707l1.822 1.822a.5.5 0 0 0 .708 0l1.82-1.822a.5.5 0 0 0-.707-.707l-.938.938v-3.54c0-2.047-1.578-3.625-3.625-3.625H6.563a.5.5 0 1 0-.121.993Zm.058 2.003a.5.5 0 1 0 0-1 .5.5 0 0 0 0 1Zm.5 1.5a.5.5 0 1 1-1 0 .5.5 0 0 1 1 0Zm-.5 2.5a.5.5 0 1 0 0-1 .5.5 0 0 0 0 1Zm.5 1.5a.5.5 0 1 1-1 0 .5.5 0 0 1 1 0Zm-.5 2.5a.5.5 0 1 0 0-1 .5.5 0 0 0 0 1Zm.5 1.5a.5.5 0 1 1-1 0 .5.5 0 0 1 1 0Zm11.5-15.5a.5.5 0 1 0 0-1 .5.5 0 0 0 0 1Zm.5 1.5a.5.5 0 1 1-1 0 .5.5 0 0 1 1 0Zm-.5 2.5a.5.5 0 1 0 0-1 .5.5 0 0 0 0 1Zm.5 1.5a.5.5 0 1 1-1 0 .5.5 0 0 1 1 0Zm-.5 2.5a.5.5 0 1 0 0-1 .5.5 0 0 0 0 1Zm.5 1.5a.5.5 0 1 1-1 0 .5.5 0 0 1 1 0Zm-.5 2.5a.5.5 0 1 0 0-1 .5.5 0 0 0 0 1Zm.5 1.5a.5.5 0 1 1-1 0 .5.5 0 0 1 1 0Zm-.5 2.5a.5.5 0 1 0 0-1 .5.5 0 0 0 0 1Z" fill="#18303F" yggColor="iconDefault"/></g></svg>