<svg fill="none" height="25" viewBox="0 0 25 25" width="25"><path clip-rule="evenodd" d="m8.047.65c-3.576 0-6.5 2.924-6.5 6.5a.5.5 0 1 0 1 0c0-3.023 2.476-5.5 5.5-5.5a.5.5 0 0 0 0-1zm9.027 0a.5.5 0 0 0 0 1c3.53 0 6.42 2.89 6.42 6.42a.5.5 0 0 0 1 0c0-4.082-3.337-7.42-7.42-7.42zm-12.524 8.12c0-2.868 2.251-5.12 5.119-5.12a.5.5 0 1 1 0 1c-2.315 0-4.12 1.804-4.12 4.12a.5.5 0 0 1 -1 0zm11.826-5.12a.5.5 0 0 0 0 1c2.315 0 4.12 1.804 4.12 4.12a.5.5 0 0 0 1 0c0-2.868-2.252-5.12-5.12-5.12zm-10.192 16.415a2.275 2.275 0 0 0 3.843 2.219l2.798 1.615c.322.186.682.238 1.019.177.45-.082.86-.368 1.08-.814l3.248-6.597a6.476 6.476 0 0 0 -11.195-6.461l-4.09 6.111a1.5 1.5 0 0 0 .498 2.134zm1.537 1.777a1.274 1.274 0 0 1 -.628-1.252l2.027 1.17a1.271 1.271 0 0 1 -1.399.082zm5.607 1.19a.498.498 0 0 0 .696-.211l3.248-6.597a5.476 5.476 0 0 0 -9.462-5.465l-4.089 6.112a.5.5 0 0 0 .166.711l3.184 1.838.004.003.03.02 3.002 1.732.005.003.032.016 3.184 1.839z" fill="#18303f" fill-rule="evenodd"/></svg>