<svg fill="none" height="25" viewBox="0 0 25 25" width="25"><path clip-rule="evenodd" d="m16.574 1.15a.5.5 0 0 1 .5-.5c4.083 0 7.42 3.338 7.42 7.42a.5.5 0 1 1 -1 0c0-3.53-2.89-6.42-6.42-6.42a.5.5 0 0 1 -.5-.5zm-.199 2.5a.5.5 0 0 0 0 1c2.315 0 4.12 1.805 4.12 4.12a.5.5 0 0 0 1 0c0-2.868-2.252-5.12-5.12-5.12zm-6.207.5a.5.5 0 0 0 -.5-.5c-2.868 0-5.12 2.252-5.12 5.12a.5.5 0 1 0 1 0c0-2.315 1.805-4.12 4.12-4.12a.5.5 0 0 0 .5-.5zm-1.621-3a.5.5 0 0 0 -.5-.5c-3.576 0-6.5 2.924-6.5 6.5a.5.5 0 1 0 1 0c0-3.023 2.476-5.5 5.5-5.5a.5.5 0 0 0 .5-.5zm-1.328 21.56a2.275 2.275 0 0 1 -1.035-2.644l-2.8-1.616a1.5 1.5 0 0 1 -.496-2.134l4.089-6.112a6.462 6.462 0 0 1 4.211-2.768 6.476 6.476 0 0 1 6.984 9.23l-3.249 6.597c-.22.446-.629.732-1.08.814a1.492 1.492 0 0 1 -1.018-.177l-2.798-1.615a2.27 2.27 0 0 1 -2.808.425zm-.126-2.12a1.274 1.274 0 0 0 2.027 1.17zm6.573 2.503a.498.498 0 0 1 -.338-.06l-3.184-1.838a.5.5 0 0 0 -.037-.019l-3.001-1.733a.47.47 0 0 0 -.035-.022l-3.184-1.838a.5.5 0 0 1 -.166-.711l4.09-6.112a5.464 5.464 0 0 1 3.562-2.341 5.476 5.476 0 0 1 5.899 7.806l-3.248 6.597a.5.5 0 0 1 -.358.27z" fill="#18303f" fill-rule="evenodd"/><path d="m7.093 20.59a1.274 1.274 0 0 0 2.027 1.17zm6.573 2.502a.498.498 0 0 1 -.338-.06l-3.184-1.838a.5.5 0 0 0 -.037-.019l-3.001-1.733a.47.47 0 0 0 -.035-.022l-3.184-1.838a.5.5 0 0 1 -.166-.711l4.09-6.112a5.464 5.464 0 0 1 3.562-2.341 5.476 5.476 0 0 1 5.899 7.806l-3.248 6.597a.5.5 0 0 1 -.358.27z" fill="#f28102"/></svg>