<svg width="25" height="25" viewBox="0 0 25 25" fill="none"><g yggColor="siren_off"><path yggColor="iconDefault" fill-rule="evenodd" clip-rule="evenodd" d="M22.556 1.382a.5.5 0 0 1 .708.707l-5.357 5.356c.57.886.928 1.924 1.003 3.044l.48 7.259c.011.182-.01.358-.058.523l4.64 4.64a.5.5 0 1 1-.707.707l-4.53-4.53c-.24.163-.529.259-.842.259h-2.956a2.452 2.452 0 0 1-4.865 0H7.114c-.315 0-.606-.097-.847-.261l-4.532 4.532a.5.5 0 1 1-.707-.707l4.645-4.645a1.498 1.498 0 0 1-.056-.518l.48-7.259a6.395 6.395 0 0 1 1-3.04l-5.36-5.36a.5.5 0 1 1 .706-.707l5.263 5.263a6.41 6.41 0 0 1 4.797-2.153 6.41 6.41 0 0 1 4.794 2.15l5.26-5.26ZM16.588 7.35a5.412 5.412 0 0 0-4.085-1.858 5.412 5.412 0 0 0-4.088 1.862l4.085 4.084 4.088-4.088Zm-8.765.826a5.4 5.4 0 0 0-.728 2.38l-.445 6.733 5.143-5.143-3.97-3.97Zm-.808 10.161c.032.007.065.01.099.01h10.779a.508.508 0 0 0 .093-.009L12.5 12.853l-5.485 5.484Zm11.342-1.041-.445-6.74a5.401 5.401 0 0 0-.731-2.384l-3.974 3.974 5.15 5.15Zm-7.272 2.051a1.452 1.452 0 0 0 2.839 0h-2.839Z" fill="#18303F"/></g></svg>