<svg width="26" height="25" viewBox="0 0 26 25" fill="none"><g id="siren_cancel"><path fill-rule="evenodd" clip-rule="evenodd" d="M24 12.5C24 18.851 18.851 24 12.5 24S1 18.851 1 12.5 6.149 1 12.5 1 24 6.149 24 12.5Zm1 0C25 19.404 19.404 25 12.5 25S0 19.404 0 12.5 5.596 0 12.5 0 25 5.596 25 12.5Zm-4.8-8.42a.5.5 0 0 0-.707 0l-3.147 3.147a5.31 5.31 0 0 0-3.843-1.641A5.31 5.31 0 0 0 8.657 7.23l-3.15-3.15a.5.5 0 0 0-.707.707L8.032 8.02a5.3 5.3 0 0 0-.84 2.537l-.377 5.714a1.5 1.5 0 0 0 .038.45L4.092 19.48a.5.5 0 1 0 .707.707l2.616-2.616c.25.186.56.297.897.297h2.13a2.09 2.09 0 0 0 4.123 0h2.128c.336 0 .645-.11.894-.295l2.614 2.614a.5.5 0 1 0 .707-.707l-2.757-2.757a1.5 1.5 0 0 0 .039-.454l-.378-5.714a5.3 5.3 0 0 0-.841-2.54L20.2 4.787a.5.5 0 0 0 0-.707Zm-7.697 2.506c1.23 0 2.346.516 3.136 1.348l-3.14 3.139-3.135-3.136a4.313 4.313 0 0 1 3.139-1.351ZM8.19 10.622a4.305 4.305 0 0 1 .568-1.875l3.034 3.033-3.94 3.94.338-5.098Zm.12 6.247a.5.5 0 0 1-.165-.028l4.354-4.354 4.355 4.355a.498.498 0 0 1-.162.027H8.312Zm8.503-6.247.338 5.103-3.945-3.945 3.037-3.037c.323.558.525 1.196.57 1.88Zm-4.31 7.994a1.09 1.09 0 0 1-1.035-.747h2.07a1.09 1.09 0 0 1-1.035.747Z" fill="#18303F" yggColor="iconDefault"/></g></svg>