<svg fill="none" height="25" viewBox="0 0 25 25" width="25"><path d="m12.5 0c-6.904 0-12.5 5.596-12.5 12.5s5.596 12.5 12.5 12.5 12.5-5.596 12.5-12.5-5.596-12.5-12.5-12.5z" fill="#18303f"/><path d="m12.5 1c-6.351 0-11.5 5.149-11.5 11.5s5.149 11.5 11.5 11.5 11.5-5.149 11.5-11.5-5.149-11.5-11.5-11.5zm-7.346 2.934c.128 0 .256.048.354.146l3.148 3.15a5.31 5.31 0 0 1 3.846-1.644 5.31 5.31 0 0 1 3.844 1.64l3.146-3.146a.5.5 0 1 1 .707.707l-3.228 3.229c.478.738.78 1.605.841 2.54l.377 5.714c.01.157-.003.31-.039.455l2.758 2.755a.5.5 0 1 1 -.707.707l-2.615-2.613a1.49 1.49 0 0 1 -.893.295h-2.129a2.088 2.088 0 0 1 -4.12 0h-2.133c-.337 0-.647-.11-.896-.297l-2.617 2.616a.5.5 0 1 1 -.707-.707l2.762-2.76a1.507 1.507 0 0 1 -.04-.451l.38-5.713c.061-.935.362-1.8.84-2.537l-3.233-3.233a.5.5 0 0 1 .353-.853zm7.348 2.652a4.313 4.313 0 0 0 -3.139 1.351l3.137 3.135 3.139-3.138a4.313 4.313 0 0 0 -3.137-1.348zm3.742 2.158-3.037 3.035 3.945 3.946-.338-5.102a4.304 4.304 0 0 0 -.57-1.879zm-7.484.002a4.311 4.311 0 0 0 -.569 1.877l-.337 5.096 3.939-3.94zm3.74 3.74-4.354 4.354c.052.018.108.03.166.03h8.381c.057 0 .112-.01.162-.028zm-1.031 5.383a1.09 1.09 0 0 0 2.07 0z" fill="#038c6a"/></svg>