<svg fill="none" height="25" viewBox="0 0 25 25" width="25"><path clip-rule="evenodd" d="m16.108 2.318c-4.35-.566-7.475-.583-11.773-.01a2.38 2.38 0 0 0 -2.044 2.072c-.523 4.256-.552 7.368-.01 11.78a2.377 2.377 0 0 0 2.089 2.072c2.337.269 4.352.385 6.385.358a.5.5 0 1 1 .013 1c-2.083.028-4.141-.092-6.512-.364a3.377 3.377 0 0 1 -2.967-2.943c-.553-4.497-.523-7.691.011-12.025a3.38 3.38 0 0 1 2.904-2.942c4.39-.585 7.602-.566 12.034.01a3.388 3.388 0 0 1 2.923 2.93c.306 2.395.454 4.434.433 6.51a.5.5 0 1 1 -1-.01c.02-2.018-.123-4.01-.425-6.372a2.388 2.388 0 0 0 -2.06-2.066zm-5.87 3.734a4.188 4.188 0 1 0 1.396 8.137.5.5 0 1 1 .333.942 5.188 5.188 0 1 1 3.163-3.163.5.5 0 0 1 -.942-.333 4.188 4.188 0 0 0 -3.95-5.583zm-.562-2.083a.5.5 0 1 1 -1 0 .5.5 0 0 1 1 0zm2.086 0a.5.5 0 1 1 -1 0 .5.5 0 0 1 1 0zm5.207 6.25a.5.5 0 1 1 -1 0 .5.5 0 0 1 1 0zm1.043-1.042a.5.5 0 1 1 -1 0 .5.5 0 0 1 1 0zm-1.043-1.041a.5.5 0 1 1 -1 0 .5.5 0 0 1 1 0zm1.043-1.042a.5.5 0 1 1 -1 0 .5.5 0 0 1 1 0zm-9.375-4.167a.5.5 0 1 1 -1 0 .5.5 0 0 1 1 0zm2.082 0a.5.5 0 1 1 -1 0 .5.5 0 0 1 1 0zm-3.125 12.5a.5.5 0 1 1 -1 0 .5.5 0 0 1 1 0zm-2.082 0a.5.5 0 1 1 -1 0 .5.5 0 0 1 1 0zm1.039 1.042a.5.5 0 1 1 -1 0 .5.5 0 0 1 1 0zm0-2.083a.5.5 0 1 1 -1 0 .5.5 0 0 1 1 0zm-2.082 2.083a.5.5 0 1 1 -1 0 .5.5 0 0 1 1 0zm3.125 1.042a.5.5 0 1 1 -1 0 .5.5 0 0 1 1 0zm-2.082 0a.5.5 0 1 1 -1 0 .5.5 0 0 1 1 0zm12.717-4.167a4.885 4.885 0 1 0 0 9.77 4.885 4.885 0 0 0 0-9.77zm-5.885 4.885a5.885 5.885 0 1 1 11.77 0 5.885 5.885 0 0 1 -11.77 0zm4.69 2.335a.498.498 0 0 0 .745 0l3.686-3.686a.5.5 0 1 0 -.707-.707l-3.351 3.351-1.71-1.71a.5.5 0 0 0 -.707.708z" fill="#18303f" fill-rule="evenodd"/></svg>