<svg width="25" height="25" viewBox="0 0 25 25" fill="none"><g id="smoke_not_ok_colorful"><path d="M8.948 5.286a.5.5 0 0 0-.707-.707L6.789 6.032l-1.48-1.48a.5.5 0 0 0-.707.707l1.48 1.48-1.546 1.545a.5.5 0 1 0 .707.708l1.546-1.546 1.518 1.518a.5.5 0 0 0 .707-.707L7.496 6.74l1.452-1.453Z" fill="#F28102" yggColor="backgroundWarningDefault"/><path fill-rule="evenodd" clip-rule="evenodd" d="M6.772 11.657a4.885 4.885 0 1 0 0-9.77 4.885 4.885 0 0 0 0 9.77Zm5.885-4.885a5.885 5.885 0 1 1-11.77 0 5.885 5.885 0 0 1 11.77 0Z" fill="#6D7B82" yggColor="iconWeak"/><path d="M15.014 5.406c-.26-.001-.52 0-.78.004a.502.502 0 0 0-.494.508c.004.276.23.496.506.492 2.033-.027 4.05.09 6.387.357A2.378 2.378 0 0 1 22.72 8.84c.543 4.412.513 7.524-.01 11.781a2.38 2.38 0 0 1-2.045 2.072c-4.298.573-7.422.554-11.772-.012a2.388 2.388 0 0 1-2.06-2.064c-.302-2.362-.447-4.353-.426-6.371a.5.5 0 1 0-1-.012c-.021 2.076.128 4.116.434 6.51a3.388 3.388 0 0 0 2.924 2.93c4.431.576 7.644.595 12.033.01a3.38 3.38 0 0 0 2.904-2.942c.532-4.334.563-7.526.01-12.023a3.378 3.378 0 0 0-2.967-2.944c-2.075-.238-3.91-.36-5.732-.369Zm2.869 1.584a.501.501 0 1 0 .025 0h-.025Zm2.082 0a.5.5 0 1 0 .025 0h-.025Zm-1.018 1.041a.5.5 0 1 0 0 1 .5.5 0 0 0 0-1Zm2.086 0a.5.5 0 1 0 0 1 .5.5 0 0 0 0-1Zm-3.125 1.041a.5.5 0 1 0 0 1 .5.5 0 0 0 0-1Zm2.082 0a.5.5 0 1 0 0 1 .5.5 0 0 0 0-1Zm-5.23.5c-.606 0-1.187.106-1.729.297a.498.498 0 1 0 .332.941 4.188 4.188 0 1 1-2.553 2.555.5.5 0 0 0-.943-.334 5.187 5.187 0 1 0 4.893-3.459Zm4.162.543a.5.5 0 1 0 .025 0h-.025ZM8.533 14.281a.5.5 0 1 0 0 1 .5.5 0 0 0 0-1ZM7.49 15.322a.5.5 0 1 0 0 1 .5.5 0 0 0 0-1Zm1.018 1.043a.5.5 0 1 0 .025 0h-.025ZM7.49 17.406a.5.5 0 1 0 0 1 .5.5 0 0 0 0-1Zm6.25 3.125a.5.5 0 1 0 0 1 .5.5 0 0 0 0-1Zm2.082 0a.5.5 0 1 0 0 1 .5.5 0 0 0 0-1Zm-1.039 1.041a.5.5 0 1 0 0 1 .5.5 0 0 0 0-1Zm2.082 0a.5.5 0 1 0 0 1 .5.5 0 0 0 0-1Z" fill="#18303F" yggColor="iconDefault"/></g></svg>