<svg fill="none" height="25" viewBox="0 0 25 25" width="25"><path clip-rule="evenodd" d="m4.265 2.33c4.298-.572 7.423-.555 11.773.011a2.388 2.388 0 0 1 2.06 2.066c.302 2.362.446 4.354.425 6.372v.004c-.004 1.604-.107 3.233-.316 5.085a.5.5 0 1 0 .993.113c.213-1.882.319-3.548.323-5.194.021-2.075-.127-4.114-.433-6.507a3.39 3.39 0 0 0 -2.923-2.93c-4.432-.577-7.645-.596-12.034-.01a3.38 3.38 0 0 0 -2.904 2.94c-.275 2.24-.417 4.18-.412 6.157.004 1.841.136 3.707.402 5.87a3.377 3.377 0 0 0 2.966 2.943c.432.05.853.094 1.266.134a.501.501 0 0 0 .096-.996 65.187 65.187 0 0 1 -1.248-.131 2.375 2.375 0 0 1 -2.087-2.071c-.263-2.133-.391-3.958-.395-5.751-.005-1.925.133-3.822.404-6.031a2.38 2.38 0 0 1 2.044-2.074zm7.745 12.783a5.187 5.187 0 0 1 -7.015-4.47 5.187 5.187 0 1 1 10.347-.762c.003.04.001.08-.006.119.648.369 1.103 1.058 1.103 1.83v5.337h2.819c2.697 0 4.925 2.15 4.925 4.808v1.616a.5.5 0 0 1 -1 0v-1.616c0-2.08-1.755-3.808-3.925-3.808h-3.319a.5.5 0 0 1 -.5-.5v-5.837c0-.573-.538-1.115-1.159-1.115-.6 0-1.175.525-1.27 1.15v9.356a.5.5 0 0 1 -.882.323l-2.543-3.014-.001-.001c-.179-.209-.465-.348-.786-.378-.32-.03-.627.053-.841.227-.45.365-.521 1.117-.159 1.544l2.982 3.335a.499.499 0 1 1 -.745.666l-2.994-3.347c-.741-.866-.59-2.264.286-2.975.45-.365 1.029-.496 1.565-.446.537.05 1.079.288 1.453.725l.002.002 1.663 1.97v-4.74zm-6.018-4.543a4.188 4.188 0 0 1 8.328-.855h-.04c-1.161 0-2.127.966-2.266 2.051a.452.452 0 0 0 -.004.064v2.228a.496.496 0 0 0 -.159.04 4.188 4.188 0 0 1 -5.859-3.528zm3.114-6.078a.5.5 0 1 0 0-1 .5.5 0 0 0 0 1zm2.086 0a.5.5 0 1 0 0-1 .5.5 0 0 0 0 1zm5.207 6.25a.5.5 0 1 0 0-1 .5.5 0 0 0 0 1zm1.043-1.042a.5.5 0 1 0 0-1 .5.5 0 0 0 0 1zm-1.043-1.041a.5.5 0 1 0 0-1 .5.5 0 0 0 0 1zm1.043-1.042a.5.5 0 1 0 0-1 .5.5 0 0 0 0 1zm-9.375-4.167a.5.5 0 1 0 0-1 .5.5 0 0 0 0 1zm2.082 0a.5.5 0 1 0 0-1 .5.5 0 0 0 0 1zm-3.125 12.5a.5.5 0 1 0 0-1 .5.5 0 0 0 0 1zm-2.082 0a.5.5 0 1 0 0-1 .5.5 0 0 0 0 1zm1.04 1.042a.5.5 0 1 0 -.001-1 .5.5 0 0 0 0 1zm0-2.083a.5.5 0 1 0 -.001-1 .5.5 0 0 0 0 1zm-2.083 2.083a.5.5 0 1 0 0-1 .5.5 0 0 0 0 1zm.125-1.958a.5.5 0 1 0 0-1 .5.5 0 0 0 0 1zm.918 3a.5.5 0 1 0 0-1 .5.5 0 0 0 0 1z" fill="#18303f" fill-rule="evenodd"/></svg>