<svg fill="none" height="25" viewBox="0 0 25 25" width="25"><path clip-rule="evenodd" d="m6.772 11.657a4.885 4.885 0 1 0 0-9.77 4.885 4.885 0 0 0 0 9.77zm5.885-4.885a5.885 5.885 0 1 1 -11.77 0 5.885 5.885 0 0 1 11.77 0zm-3.71-1.486a.5.5 0 0 0 -.706-.707l-1.452 1.453-1.48-1.48a.5.5 0 0 0 -.707.707l1.48 1.48-1.546 1.545a.5.5 0 0 0 .707.708l1.546-1.546 1.518 1.518a.5.5 0 1 0 .707-.707l-1.518-1.517 1.452-1.453zm-.053 17.397c4.35.566 7.475.583 11.772.01a2.38 2.38 0 0 0 2.045-2.072c.522-4.257.552-7.368.009-11.781a2.377 2.377 0 0 0 -2.088-2.072c-2.337-.268-4.352-.385-6.385-.357a.5.5 0 0 1 -.014-1c2.084-.028 4.142.092 6.513.364a3.377 3.377 0 0 1 2.966 2.943c.554 4.497.523 7.69-.009 12.025a3.38 3.38 0 0 1 -2.904 2.942c-4.39.585-7.603.566-12.034-.01a3.388 3.388 0 0 1 -2.923-2.931c-.306-2.394-.455-4.433-.433-6.51a.5.5 0 1 1 1 .011c-.021 2.018.123 4.01.425 6.372a2.388 2.388 0 0 0 2.06 2.066zm5.866-3.735a4.187 4.187 0 1 0 -1.396-8.137.5.5 0 1 1 -.334-.943 5.188 5.188 0 1 1 -3.163 3.163.5.5 0 0 1 .943.334 4.187 4.187 0 0 0 3.95 5.583zm.562 2.084a.5.5 0 1 1 1 0 .5.5 0 0 1 -1 0zm-2.082 0a.5.5 0 1 1 1 0 .5.5 0 0 1 -1 0zm-5.207-6.25a.5.5 0 1 1 1 0 .5.5 0 0 1 -1 0zm-1.043 1.041a.5.5 0 1 1 1 0 .5.5 0 0 1 -1 0zm1.043 1.042a.5.5 0 1 1 1 0 .5.5 0 0 1 -1 0zm-1.043 1.042a.5.5 0 1 1 1 0 .5.5 0 0 1 -1 0zm9.375 4.166a.5.5 0 1 1 1 0 .5.5 0 0 1 -1 0zm-2.082 0a.5.5 0 1 1 1 0 .5.5 0 0 1 -1 0zm3.125-12.5a.5.5 0 1 1 1 0 .5.5 0 0 1 -1 0zm2.082 0a.5.5 0 1 1 1 0 .5.5 0 0 1 -1 0zm-1.043-1.041a.5.5 0 1 1 1 0 .5.5 0 0 1 -1 0zm0 2.083a.5.5 0 1 1 1 0 .5.5 0 0 1 -1 0zm2.086-2.083a.5.5 0 1 1 1 0 .5.5 0 0 1 -1 0zm-3.125-1.042a.5.5 0 1 1 1 0 .5.5 0 0 1 -1 0zm2.082 0a.5.5 0 1 1 1 0 .5.5 0 0 1 -1 0z" fill="#18303f" fill-rule="evenodd"/></svg>