<svg fill="none" height="25" viewBox="0 0 25 25" width="25"><path d="m17.034 20.564a.498.498 0 0 0 .745 0l3.686-3.686a.5.5 0 1 0 -.707-.707l-3.351 3.351-1.71-1.71a.5.5 0 0 0 -.707.708z" fill="#038c6a"/><path clip-rule="evenodd" d="m18.229 13.344a4.885 4.885 0 1 0 0 9.77 4.885 4.885 0 0 0 0-9.77zm-5.885 4.885a5.885 5.885 0 1 1 11.77 0 5.885 5.885 0 0 1 -11.77 0z" fill="#6d7b82" fill-rule="evenodd"/><path d="m10.203.887c-1.906-.004-3.806.137-6 .43a3.38 3.38 0 0 0 -2.903 2.939c-.533 4.335-.563 7.529-.01 12.026a3.378 3.378 0 0 0 2.967 2.944c2.37.272 4.428.39 6.511.363a.5.5 0 1 0 -.011-1c-2.033.027-4.05-.09-6.387-.357a2.378 2.378 0 0 1 -2.088-2.073c-.543-4.412-.513-7.524.01-11.781a2.38 2.38 0 0 1 2.045-2.072c4.298-.573 7.422-.555 11.771.011a2.388 2.388 0 0 1 2.06 2.065c.303 2.362.447 4.355.427 6.373a.5.5 0 0 0 1 .01c.021-2.076-.128-4.114-.434-6.508a3.39 3.39 0 0 0 -2.924-2.932c-2.215-.288-4.127-.436-6.033-.44zm-2.092 1.54a.5.5 0 1 0 .026 0h-.027zm2.082 0a.5.5 0 1 0 .026 0zm-1.043 1.043a.5.5 0 1 0 .026 0zm2.086 0a.5.5 0 1 0 .026 0zm-.998 1.584a5.187 5.187 0 1 0 1.729 10.078.498.498 0 1 0 -.332-.941 4.187 4.187 0 1 1 2.553-2.555.5.5 0 0 0 .943.334 5.187 5.187 0 0 0 -4.893-6.916zm7.248 1.54a.5.5 0 1 0 .026 0zm-1.016 1.042a.5.5 0 1 0 0 1 .5.5 0 0 0 0-1zm1.017 1.043a.5.5 0 1 0 .026 0zm-1.043 1.04a.5.5 0 1 0 .026 0zm-10.393 4.167a.5.5 0 1 0 0 1 .5.5 0 0 0 0-1zm-1.065 1.043a.5.5 0 1 0 .026 0zm2.082 0a.5.5 0 1 0 .026 0zm-3.125 1.04a.5.5 0 1 0 .026 0zm2.082 0a.5.5 0 1 0 .026 0zm-1.013 1.041a.5.5 0 1 0 0 1 .5.5 0 0 0 0-1zm2.082 0a.5.5 0 1 0 0 1 .5.5 0 0 0 0-1z" fill="#18303f"/></svg>