<svg fill="none" height="25" viewBox="0 0 25 25" width="25"><path clip-rule="evenodd" d="m8.88 1.839c-.78-1.277-2.636-1.277-3.415 0l-3.095 5.065c-.814 1.333.145 3.043 1.707 3.043h6.189c1.562 0 2.52-1.71 1.707-3.043l-3.094-5.064zm-2.56.521a1 1 0 0 1 1.706 0l3.094 5.066a1 1 0 0 1 -.853 1.521h-6.19a1 1 0 0 1 -.853-1.521zm.851 3.87a.5.5 0 0 1 -.5-.5v-1.251a.5.5 0 1 1 1 0v1.253a.5.5 0 0 1 -.5.5zm.533 16.456c4.35.566 7.475.584 11.773.01a2.38 2.38 0 0 0 2.044-2.071c.523-4.257.552-7.369.01-11.782a2.377 2.377 0 0 0 -2.088-2.071 57.68 57.68 0 0 0 -3.146-.28h-3.87a.5.5 0 0 1 0-1h3.885a3.377 3.377 0 0 1 6.21 3.23c.554 4.497.524 7.69-.008 12.025a3.38 3.38 0 0 1 -2.905 2.941c-4.389.585-7.602.566-12.034-.01a3.388 3.388 0 0 1 -2.923-2.93c-.243-1.902-.387-3.581-.425-5.232v-.008l-.003-.5a42.89 42.89 0 0 1 .165-4.046.5.5 0 0 1 .996.085 41.866 41.866 0 0 0 -.161 3.953l.003.497c.037 1.606.177 3.248.417 5.123a2.388 2.388 0 0 0 2.06 2.066zm6.428-1.65a.5.5 0 1 1 1 0 .5.5 0 0 1 -1 0zm-1.582-.5a.5.5 0 1 0 0 1 .5.5 0 0 0 0-1zm-6.75-4.71a.5.5 0 1 1 1 0 .5.5 0 0 1 -1 0zm1.543.543a.5.5 0 1 0 0 1 .5.5 0 0 0 0-1zm-1.543-2.543a.5.5 0 1 1 1 0 .5.5 0 0 1 -1 0zm1.543.542a.5.5 0 1 0 0 1 .5.5 0 0 0 0-1zm-1.543 3.542a.5.5 0 1 1 1 0 .5.5 0 0 1 -1 0zm9.875 3.666a.5.5 0 1 0 0 1 .5.5 0 0 0 0-1zm-2.582.5a.5.5 0 1 1 1 0 .5.5 0 0 1 -1 0zm3.625-13a.5.5 0 1 0 0 1 .5.5 0 0 0 0-1zm1.582.5a.5.5 0 1 1 1 0 .5.5 0 0 1 -1 0zm-.543-1.54a.5.5 0 1 0 0 1 .5.5 0 0 0 0-1zm-.5 2.582a.5.5 0 1 1 1 0 .5.5 0 0 1 -1 0zm2.586-2.583a.5.5 0 1 0 0 1 .5.5 0 0 0 0-1zm-3.625-.542a.5.5 0 1 1 1 0 .5.5 0 0 1 -1 0zm2.582-.5a.5.5 0 1 0 0 1 .5.5 0 0 0 0-1zm-11.148.49a.5.5 0 1 1 -1 0 .5.5 0 0 1 1 0zm1.73 7.28a4.188 4.188 0 1 1 8.377 0 4.188 4.188 0 0 1 -8.377 0zm4.189-5.188a5.189 5.189 0 1 0 0 10.377 5.189 5.189 0 0 0 0-10.378z" fill="#18303f" fill-rule="evenodd"/></svg>