<svg fill="none" height="25" viewBox="0 0 25 25" width="25"><path clip-rule="evenodd" d="m13.829.63c.356-.037.712.096.926.271a.477.477 0 0 1 .106.12c.084.133.143.257.18.396.032.113.043.224.053.316l.002.017v.016a.454.454 0 0 1 -.001.122c-.14.953-.734 2.706-1.531 4.507-.8 1.806-1.834 3.734-2.892 5.028-1.34 1.698-2.678 2.685-3.884 3.107-.942.329-1.821.315-2.523-.001l-2.75 3.252a.5.5 0 0 1 -.764-.645l2.694-3.186c-1.314-1.264-1.361-2.927-.93-4.386.455-1.538 1.46-2.955 2.252-3.73.098-.095.246-.236.445-.303a.88.88 0 0 1 .61.032c.263.1.418.291.498.493.063.159.08.329.089.424l.002.017.032.32c.084-.064.167-.144.248-.24.23-.274.422-.645.574-1.042a7.667 7.667 0 0 0 .4-1.56.501.501 0 0 1 .256-.373c.258-.143.569-.32.91-.514l.036-.02a98.807 98.807 0 0 1 1.863-1.042zm-5.212 3.728a8.873 8.873 0 0 1 -.418 1.532c-.172.45-.411.938-.745 1.332-.336.398-.795.73-1.394.79a.5.5 0 0 1 -.548-.448l-.096-.964c-.686.69-1.553 1.935-1.941 3.248-.363 1.227-.293 2.422.618 3.337l4.947-5.85a.5.5 0 0 1 .764.647l-4.848 5.732c.397.1.902.082 1.502-.127.973-.34 2.167-1.181 3.432-2.785l.005-.007c.975-1.192 1.969-3.027 2.755-4.804.77-1.742 1.31-3.356 1.446-4.187a.85.85 0 0 0 -.02-.124.19.19 0 0 0 -.01-.032.36.36 0 0 0 -.102-.023c-.733.234-1.734.729-2.758 1.282-.643.347-1.263.7-1.818 1.016-.274.156-.533.304-.771.437zm14.318 4.796c.566 4.35.583 7.475.01 11.773a2.38 2.38 0 0 1 -2.071 2.044c-4.257.523-7.37.552-11.782.01a2.376 2.376 0 0 1 -2.071-2.088 51.33 51.33 0 0 1 -.358-5.24.5.5 0 0 0 -1 .014c.023 1.695.143 3.414.364 5.34a3.377 3.377 0 0 0 2.943 2.966c4.498.553 7.69.523 12.026-.01a3.38 3.38 0 0 0 2.94-2.904c.586-4.389.567-7.602-.01-12.034a3.39 3.39 0 0 0 -2.93-2.923c-2.393-.306-4.433-.454-6.51-.433a.5.5 0 0 0 .012 1c2.018-.02 4.01.123 6.37.425a2.388 2.388 0 0 1 2.067 2.06zm-7.93 10.054a4.188 4.188 0 1 0 -.77-8.305.5.5 0 1 1 -.182-.983 5.188 5.188 0 1 1 -4.235 5.1.5.5 0 0 1 1 0 4.187 4.187 0 0 0 4.187 4.188zm.563 2.084a.5.5 0 1 1 1 0 .5.5 0 0 1 -1 0zm-2.082 0a.5.5 0 1 1 .999-.001.5.5 0 0 1 -1 0zm-5.207-6.25a.5.5 0 1 1 .999-.001.5.5 0 0 1 -1 0zm-1.043 1.041a.5.5 0 1 1 .999-.001.5.5 0 0 1 -1 .001zm1.043 1.042a.5.5 0 1 1 .999-.001.5.5 0 0 1 -1 0zm-1.043 1.042a.5.5 0 1 1 .999-.001.5.5 0 0 1 -1 0zm9.375 4.166a.5.5 0 1 1 .999-.001.5.5 0 0 1 -1 .001zm-2.082 0a.5.5 0 1 1 .999-.001.5.5 0 0 1 -1 .001zm3.125-12.5a.5.5 0 1 1 .999-.001.5.5 0 0 1 -1 .001zm2.082 0a.5.5 0 1 1 .999-.001.5.5 0 0 1 -1 .001zm-1.043-1.041a.5.5 0 1 1 1 0 .5.5 0 0 1 -1 0zm0 2.083a.5.5 0 1 1 1 0 .5.5 0 0 1 -1 0zm2.086-2.083a.5.5 0 1 1 .999-.001.5.5 0 0 1 -1 0zm-3.125-1.042a.5.5 0 1 1 .999-.001.5.5 0 0 1 -1 0zm2.082 0a.5.5 0 1 1 .999-.001.5.5 0 0 1 -1 0z" fill="#18303f" fill-rule="evenodd"/></svg>