<svg fill="none" height="25" viewBox="0 0 25 25" width="25"><path clip-rule="evenodd" d="m5.345.602a.56.56 0 0 0 0 1.12h.06v1.068a5.82 5.82 0 1 0 2.68 0v-1.067h.06a.56.56 0 0 0 0-1.12h-2.8zm1.74 2.043a5.857 5.857 0 0 0 -.68 0v-.923h.68zm2.171 1.694a4.82 4.82 0 1 1 -5.023 8.231 4.82 4.82 0 0 1 5.023-8.23zm13.398 16.61c.572-4.297.555-7.423-.012-11.772a2.388 2.388 0 0 0 -2.066-2.06c-2.36-.302-4.352-.446-6.37-.425a.5.5 0 1 1 -.011-1c2.075-.022 4.116.127 6.508.433a3.39 3.39 0 0 1 2.931 2.923c.576 4.431.596 7.645.01 12.033a3.38 3.38 0 0 1 -2.94 2.905c-4.335.532-7.529.563-12.026.01a3.377 3.377 0 0 1 -2.943-2.967 52.483 52.483 0 0 1 -.364-5.34.5.5 0 1 1 1-.013c.022 1.655.14 3.34.358 5.24a2.376 2.376 0 0 0 2.07 2.087c4.414.543 7.526.513 11.782-.01a2.38 2.38 0 0 0 2.073-2.044zm-3.754-5.906a4.188 4.188 0 0 1 -8.376 0 .5.5 0 0 0 -1 0 5.187 5.187 0 1 0 4.236-5.1.499.499 0 1 0 .182.983 4.188 4.188 0 0 1 4.958 4.117zm-3.126 5.771a.5.5 0 1 0 0 1 .5.5 0 0 0 0-1zm-2.082 0a.5.5 0 1 0 0 1 .5.5 0 0 0 0-1zm-5.207-6.25a.5.5 0 1 0 0 1 .5.5 0 0 0 0-1zm-1.043 1.041a.5.5 0 1 0 0 1 .5.5 0 0 0 0-1zm1.043 1.043a.5.5 0 1 0 0 .998.5.5 0 0 0 0-.998zm-1.043 1.041a.5.5 0 1 0 0 1 .5.5 0 0 0 0-1zm9.376 4.166a.5.5 0 1 0 -.002 1 .5.5 0 0 0 .002-1zm-2.082 0a.5.5 0 1 0 -.002 1 .5.5 0 0 0 .002-1zm3.124-12.5a.5.5 0 1 0 0 1 .5.5 0 0 0 0-1zm2.082 0a.5.5 0 1 0 0 1 .5.5 0 0 0 0-1zm-1.042-1.039a.5.5 0 1 0 0 1 .5.5 0 0 0 0-1zm0 2.083a.5.5 0 1 0 0 1 .5.5 0 0 0 0-1zm2.087-2.084a.5.5 0 1 0 -.002 1 .5.5 0 0 0 .002-1zm-3.125-1.042a.5.5 0 1 0 -.002 1 .5.5 0 0 0 .002-1zm2.082 0a.5.5 0 1 0 0 1 .5.5 0 0 0 0-1zm-8.47-3.837-.152.153a.5.5 0 0 0 .707.707l.153-.153a.5.5 0 0 0 .625-.773l-.27-.271-.01-.009-.008-.009-.271-.271a.5.5 0 0 0 -.773.626zm-6.984 2.102a.5.5 0 1 0 -.707.707l1.58 1.579a.5.5 0 1 0 .706-.707zm2.756 2.917a.5.5 0 1 1 -1 0 .5.5 0 0 1 1 0z" fill="#18303f" fill-rule="evenodd"/></svg>