<svg fill="none" height="25" viewBox="0 0 25 25" width="25"><path d="m17.034 20.564a.498.498 0 0 0 .745 0l3.686-3.686a.5.5 0 1 0 -.707-.707l-3.351 3.351-1.71-1.71a.5.5 0 0 0 -.707.708z" fill="#038c6a"/><g clip-rule="evenodd" fill-rule="evenodd"><path d="m18.229 13.344a4.885 4.885 0 1 0 0 9.77 4.885 4.885 0 0 0 0-9.77zm-5.885 4.885a5.885 5.885 0 1 1 11.77 0 5.885 5.885 0 0 1 -11.77 0z" fill="#6d7b82"/><path d="m10.893 1.684a5.964 5.964 0 0 1 4.793-.257 5.964 5.964 0 0 1 3.427 3.36c.576-.094 1.163-.024 1.75.198 1.685.636 2.674 2.373 2.267 4.103.695.4 1.24 1.088 1.373 1.922a2.842 2.842 0 0 1 -.273 1.714.5.5 0 1 1 -.894-.448c.173-.344.239-.736.18-1.108-.095-.594-.56-1.117-1.165-1.346a.5.5 0 0 1 -.292-.644c.496-1.313-.197-2.747-1.55-3.258-.559-.21-1.073-.226-1.564-.067a.5.5 0 0 1 -.633-.33 4.95 4.95 0 0 0 -2.98-3.16 4.95 4.95 0 0 0 -4.324.403.5.5 0 0 1 -.693-.17c-.263-.444-.66-.773-1.219-.984-1.326-.502-2.734.118-3.326 1.447a.5.5 0 0 1 -.634.264c-.606-.229-1.301-.143-1.765.24a1.856 1.856 0 0 0 -.637 1.688c.095.594.56 1.118 1.165 1.346a.5.5 0 1 1 -.353.936c-.89-.336-1.64-1.125-1.8-2.124-.155-.971.23-1.99.988-2.617.657-.543 1.531-.697 2.323-.53.89-1.518 2.68-2.233 4.392-1.586.588.222 1.074.557 1.444 1.008zm-.475 12.42a2.506 2.506 0 0 0 -2.5 2.5c0 1.377 1.124 2.5 2.5 2.5a.5.5 0 1 0 0-1c-.824 0-1.5-.676-1.5-1.5 0-.823.676-1.5 1.5-1.5h.8a.5.5 0 1 0 0-1zm-4.285 2a.5.5 0 1 1 -1 0 .5.5 0 0 1 1 0zm-2.014 2.41a.5.5 0 1 0 -.238.971c3.299.811 4.619 2.95 4.619 4.515a.5.5 0 1 0 1 0c0-2.13-1.744-4.593-5.381-5.486zm8.38 4.486a.5.5 0 0 0 -1 0v.633a.5.5 0 1 0 1 0zm-4.919-15.715a4.738 4.738 0 0 1 3.726.165c.293-.332.666-.58 1.109-.747 1.356-.512 2.772.035 3.5 1.21.622-.11 1.3.022 1.817.45.618.51.931 1.34.805 2.132a.5.5 0 1 1 -.988-.158c.07-.442-.11-.919-.455-1.204-.323-.267-.819-.333-1.257-.167a.5.5 0 0 1 -.633-.264c-.437-.98-1.466-1.43-2.436-1.063-.412.155-.698.395-.888.715a.5.5 0 0 1 -.693.17 3.725 3.725 0 0 0 -3.254-.303 3.725 3.725 0 0 0 -2.241 2.377.5.5 0 0 1 -.633.33c-.354-.114-.727-.105-1.139.05-.995.377-1.496 1.426-1.136 2.381a.5.5 0 0 1 -.29.644c-.438.165-.766.541-.832.956-.07.443.11.92.454 1.205.324.267.819.332 1.257.167a.5.5 0 0 1 .353.936c-.723.272-1.607.196-2.247-.333a2.326 2.326 0 0 1 -.805-2.132c.105-.656.517-1.197 1.048-1.527-.28-1.373.516-2.73 1.845-3.232a2.747 2.747 0 0 1 1.325-.172 4.738 4.738 0 0 1 2.688-2.586z" fill="#18303f"/></g></svg>