<svg width="25" height="25" viewBox="0 0 25 25" fill="none"><g id="snowflake"><path fill-rule="evenodd" clip-rule="evenodd" d="M13.05 1.077a.5.5 0 0 0-1 0v3.298l-1.745-1.672a.5.5 0 0 0-.693.722L12.05 5.76v1.77H11a.5.5 0 0 0 0 1h1.05v3.145L9.14 10.05l.522-.867a.5.5 0 0 0-.857-.516l-.539.895-1.619-.904-.869-3.144a.5.5 0 1 0-.964.266l.606 2.192-2.993-1.671a.5.5 0 1 0-.487.873L4.923 8.84l-2.34.594a.5.5 0 0 0 .245.969l3.366-.854 1.558.87-.5.83a.5.5 0 0 0 .856.517l.517-.859 2.85 1.592-2.807 1.567-.56-.93a.5.5 0 0 0-.857.516l.543.902-1.606.897-3.36-.852a.5.5 0 0 0-.246.97l2.336.592-2.977 1.663a.5.5 0 1 0 .488.873l2.993-1.672-.607 2.197a.5.5 0 0 0 .964.266l.87-3.149 1.661-.927.496.823a.5.5 0 1 0 .857-.516l-.479-.795 2.866-1.6v3.146H11a.5.5 0 0 0 0 1h1.05v1.771l-2.438 2.335a.5.5 0 0 0 .693.722l1.745-1.672v3.298a.5.5 0 0 0 1 0v-3.299l1.746 1.673a.499.499 0 1 0 .692-.722L13.05 19.24v-1.77h1.06a.5.5 0 0 0 0-1h-1.06V13.38l2.78 1.553-.488.78a.5.5 0 1 0 .847.53l.515-.822 1.651.922.87 3.146a.5.5 0 0 0 .963-.266l-.605-2.195 2.988 1.67a.5.5 0 1 0 .487-.873l-2.976-1.662 2.34-.593a.5.5 0 0 0-.246-.97l-3.364.853-1.577-.88.51-.813a.5.5 0 1 0-.848-.53l-.535.854-2.836-1.584 2.805-1.567.561.933a.5.5 0 1 0 .858-.516l-.546-.905 1.604-.895 3.367.854a.5.5 0 1 0 .247-.97l-2.345-.594 2.981-1.665a.5.5 0 1 0-.487-.873L19.583 7.97l.605-2.19a.5.5 0 1 0-.963-.266l-.869 3.14-1.668.933-.493-.82a.5.5 0 0 0-.857.515l.477.793-2.765 1.544V8.53h1.06a.5.5 0 0 0 0-1h-1.06V5.762l2.438-2.336a.499.499 0 1 0-.691-.722l-1.748 1.673v-3.3Z" fill="#18303F" yggColor="iconDefault"/></g></svg>