<svg fill="none" height="25" viewBox="0 0 25 25" width="25"><path clip-rule="evenodd" d="m13.05 1.077a.5.5 0 0 0 -1 0v3.298l-1.745-1.672a.5.5 0 0 0 -.693.722l2.438 2.335v1.77h-1.05a.5.5 0 0 0 0 1h1.05v3.145l-2.91-1.625.522-.867a.5.5 0 0 0 -.857-.516l-.539.895-1.619-.904-.869-3.144a.5.5 0 1 0 -.964.266l.606 2.192-2.993-1.671a.5.5 0 1 0 -.487.873l2.983 1.666-2.34.594a.5.5 0 0 0 .245.969l3.366-.854 1.558.87-.5.83a.5.5 0 0 0 .856.517l.517-.859 2.85 1.592-2.807 1.567-.56-.93a.5.5 0 0 0 -.857.516l.543.902-1.606.897-3.36-.852a.5.5 0 0 0 -.246.97l2.336.592-2.977 1.663a.5.5 0 1 0 .488.873l2.993-1.672-.607 2.197a.5.5 0 0 0 .964.266l.87-3.149 1.661-.927.496.823a.5.5 0 1 0 .857-.516l-.479-.795 2.866-1.6v3.146h-1.05a.5.5 0 0 0 0 1h1.05v1.771l-2.438 2.335a.5.5 0 0 0 .693.722l1.745-1.672v3.298a.5.5 0 0 0 1 0v-3.299l1.746 1.673a.499.499 0 1 0 .692-.722l-2.438-2.336v-1.77h1.06a.5.5 0 0 0 0-1h-1.06v-3.09l2.78 1.553-.488.78a.5.5 0 1 0 .847.53l.515-.822 1.651.922.87 3.146a.5.5 0 0 0 .963-.266l-.605-2.195 2.988 1.67a.5.5 0 1 0 .487-.873l-2.976-1.662 2.34-.593a.5.5 0 0 0 -.246-.97l-3.364.853-1.577-.88.51-.813a.5.5 0 1 0 -.848-.53l-.535.854-2.836-1.584 2.805-1.567.561.933a.5.5 0 1 0 .858-.516l-.546-.905 1.604-.895 3.367.854a.5.5 0 1 0 .247-.97l-2.345-.594 2.981-1.665a.5.5 0 1 0 -.487-.873l-2.988 1.668.605-2.19a.5.5 0 1 0 -.963-.266l-.869 3.14-1.668.933-.493-.82a.5.5 0 0 0 -.857.515l.477.793-2.765 1.544v-3.089h1.06a.5.5 0 0 0 0-1h-1.06v-1.768l2.438-2.336a.499.499 0 1 0 -.691-.722l-1.748 1.673v-3.3z" fill="#18303f" fill-rule="evenodd"/></svg>