<svg fill="none" height="25" viewBox="0 0 25 25" width="25"><path clip-rule="evenodd" d="m7.827.34a.5.5 0 0 1 .5.5v1.262a.5.5 0 0 1 -1 0v-1.262a.5.5 0 0 1 .5-.5zm-4.584 2.213a.5.5 0 0 0 -.707.707l.918.918a.5.5 0 0 0 .707-.707zm-2.916 5.288a.5.5 0 0 1 .5-.5h1.262a.5.5 0 1 1 0 1h-1.262a.5.5 0 0 1 -.5-.5zm3.834 4.484a.5.5 0 1 0 -.707-.707l-.918.918a.5.5 0 0 0 .707.707zm3.666.752a.5.5 0 0 1 .5.5v1.263a.5.5 0 1 1 -1 0v-1.263a.5.5 0 0 1 .5-.5zm4.482-1.459a.5.5 0 1 0 -.707.707l.918.918a.5.5 0 1 0 .707-.707zm.756-3.777a.5.5 0 0 1 .5-.5h1.262a.5.5 0 0 1 0 1h-1.262a.5.5 0 0 1 -.5-.5zm.162-4.58a.5.5 0 1 0 -.707-.708l-.918.918a.5.5 0 1 0 .707.707l.918-.918zm-8.943 4.579c0-2.027 1.648-3.545 3.543-3.545 1.991 0 3.544 1.397 3.544 3.436 0 2.028-1.649 3.545-3.544 3.545-1.87 0-3.543-1.385-3.543-3.436zm3.543-2.545a2.539 2.539 0 0 0 -2.543 2.545c0 1.429 1.153 2.436 2.543 2.436a2.539 2.539 0 0 0 2.544-2.545c0-1.44-1.056-2.436-2.544-2.436zm6.501 9.493a.5.5 0 0 1 -.05-.999c.47-.023 1.028 0 1.48.362.457.365.683.975.76 1.809.071.76.224.952.325 1.028a.848.848 0 0 0 .321.127c.125.029.258.05.424.077l.217.036c.65.066 1.195.216 1.576.613.381.395.508.942.572 1.548a.507.507 0 0 1 .003.05c.003.601.09.83.2.945.11.117.36.238 1.045.276a.5.5 0 0 1 -.055.998c-.714-.04-1.32-.167-1.716-.585-.393-.414-.469-.995-.474-1.603-.06-.554-.163-.8-.295-.936-.129-.133-.374-.254-.972-.313a22.171 22.171 0 0 0 -.224-.036h-.002a8.059 8.059 0 0 1 -.527-.097 1.818 1.818 0 0 1 -.693-.3c-.461-.347-.645-.924-.72-1.735-.069-.737-.25-1.01-.39-1.122-.144-.115-.37-.165-.805-.143zm3-3a.5.5 0 0 1 -.05-.999c.47-.023 1.029 0 1.48.362.457.365.683.975.76 1.809.071.76.224.952.325 1.028a.848.848 0 0 0 .321.127 8.31 8.31 0 0 0 .424.077l.023.004.025.004.169.028c.65.066 1.195.216 1.576.613.381.395.508.942.572 1.548a.507.507 0 0 1 .003.05c.003.601.09.83.2.945.11.117.36.238 1.045.276a.5.5 0 0 1 -.055.998c-.714-.04-1.32-.167-1.716-.585-.393-.414-.469-.995-.474-1.603-.06-.554-.163-.8-.295-.935-.129-.134-.374-.255-.972-.314a.519.519 0 0 1 -.038-.005l-.186-.03h-.002l-.237-.04a5.23 5.23 0 0 1 -.29-.058 1.818 1.818 0 0 1 -.693-.3 1.374 1.374 0 0 1 -.16-.141c-.345-.354-.494-.884-.56-1.594-.069-.738-.25-1.01-.39-1.122-.144-.115-.37-.165-.805-.143zm-6 6a.5.5 0 0 1 -.05-.999c.47-.023 1.028 0 1.48.362.457.365.683.975.76 1.809.071.76.224.952.325 1.028a.848.848 0 0 0 .321.127c.125.029.258.05.424.077l.024.004.148.024.045.008c.65.066 1.195.216 1.576.613.381.395.508.942.572 1.548a.507.507 0 0 1 .003.05c.003.601.09.83.2.945.11.117.36.238 1.045.276a.5.5 0 0 1 -.055.998c-.714-.04-1.32-.167-1.716-.585-.393-.414-.469-.995-.474-1.603-.06-.554-.163-.8-.295-.936-.129-.133-.374-.254-.972-.313a.519.519 0 0 1 -.035-.004l-.182-.03-.006-.001h-.002a8.025 8.025 0 0 1 -.528-.098 1.818 1.818 0 0 1 -.693-.3c-.461-.347-.645-.924-.72-1.735-.069-.737-.25-1.01-.39-1.122-.144-.115-.37-.165-.805-.143z" fill="#18303f" fill-rule="evenodd"/></svg>