<svg width="25" height="25" viewBox="0 0 25 25" fill="none"><g id="speed"><path fill-rule="evenodd" clip-rule="evenodd" d="M12.5.5C5.824.5.5 5.824.5 12.5s5.324 12 12 12 12-5.324 12-12-5.324-12-12-12Zm-11 12c0-6.124 4.876-11 11-11s11 4.876 11 11c0 2.655-.917 5.076-2.454 6.966-2.513-1.616-5.569-2.562-8.548-2.466-3.074-.096-6.041.85-8.545 2.464A10.983 10.983 0 0 1 1.5 12.5ZM12.515 18c2.708-.09 5.517.753 7.856 2.222C18.38 22.25 15.6 23.5 12.5 23.5c-3.101 0-5.882-1.25-7.872-3.28 2.329-1.468 5.054-2.31 7.854-2.22h.033ZM13 3a.5.5 0 0 0-1 0v2a.5.5 0 0 0 1 0V3Zm3.558.903a.5.5 0 0 0-.914-.406l-.8 1.8a.5.5 0 1 0 .914.406l.8-1.8Zm2.38 1.471a.5.5 0 0 1 .688.688L19.2 5.8l.426.262-.196.316a336.014 336.014 0 0 1-2.158 3.44c-.613.964-1.253 1.955-1.791 2.757-.269.4-.514.757-.718 1.04a5.942 5.942 0 0 1-.51.638c-1.022 1.023-2.525.86-3.482.023a.577.577 0 0 1-.025-.023c-.995-.995-.995-2.511 0-3.507.133-.132.366-.312.639-.509.283-.204.639-.45 1.04-.718.801-.538 1.793-1.178 2.757-1.791a335.949 335.949 0 0 1 3.44-2.158l.316-.196Zm-1.296 1.984c-.578.362-1.245.782-1.924 1.214-.96.611-1.944 1.246-2.736 1.778-.397.265-.742.503-1.011.698-.28.202-.45.338-.517.405-.601.601-.605 1.477-.012 2.082.642.552 1.53.585 2.104.011.068-.067.204-.237.406-.517.195-.27.433-.615.698-1.01.531-.793 1.166-1.776 1.778-2.738.432-.678.852-1.345 1.214-1.923ZM3 12.5a.5.5 0 0 0 0 1h2a.5.5 0 0 0 0-1H3Zm17 0a.5.5 0 0 0 0 1h2a.5.5 0 0 0 0-1h-2Zm1.503-3.143a.5.5 0 1 0-.406-.914l-1.8.8a.5.5 0 1 0 .406.914l1.8-.8ZM9.355 3.497a.5.5 0 1 0-.913.406l.8 1.8a.5.5 0 1 0 .913-.406l-.8-1.8Zm-3.2 1.95a.5.5 0 0 0-.708.706l1.4 1.4a.5.5 0 0 0 .707-.707l-1.4-1.4ZM3.901 8.442a.5.5 0 0 0-.406.914l1.8.8a.5.5 0 0 0 .406-.914l-1.8-.8Z" fill="#18303F" yggColor="iconDefault"/></g></svg>