<svg width="26" height="26" viewBox="0 0 26 26" fill="none"><g id="spider"><path fill-rule="evenodd" clip-rule="evenodd" d="M8.191 19.75a3.456 3.456 0 0 1 .553-1.876c-.418-.26-.8-.574-1.139-.93l-.359.06a3.874 3.874 0 0 0-2.708 1.819.5.5 0 1 1-.855-.518 4.865 4.865 0 0 1 3.221-2.255 5.62 5.62 0 0 1-.88-2.58c-1.076-.172-2.163.054-2.916.631l-1.194.969a.5.5 0 1 1-.63-.777l1.2-.972.01-.008c.975-.752 2.296-1.02 3.56-.848a5.925 5.925 0 0 1 1.197-2.866l-.34-.21c-1.275-.673-2.816-.655-3.949.093l-.01.008-.01.005-2.18 1.296a.5.5 0 1 1-.512-.86l2.171-1.29c1.48-.97 3.417-.956 4.973-.128.01.005.02.01.028.016l.518.32a6.416 6.416 0 0 1 4.088-1.69.484.484 0 0 1-.024-.153l-.025-6a.5.5 0 0 1 1 0l.025 6a.484.484 0 0 1-.024.153 6.416 6.416 0 0 1 4.09 1.686l.518-.321a.34.34 0 0 1 .028-.016c1.555-.83 3.493-.847 4.972.122l2.173 1.289a.5.5 0 0 1-.51.86l-2.183-1.294a.341.341 0 0 0-.016-.01l-.004-.003c-1.133-.747-2.674-.763-3.948-.09l-.342.212a5.92 5.92 0 0 1 1.2 2.864c1.265-.175 2.586.093 3.563.844l.01.008 1.2.97a.5.5 0 1 1-.629.778l-1.195-.967c-.754-.577-1.842-.802-2.917-.627a5.621 5.621 0 0 1-.878 2.58 4.866 4.866 0 0 1 3.225 2.251.5.5 0 0 1-.855.52 3.87 3.87 0 0 0-2.709-1.816l-.36-.06c-.344.36-.732.679-1.157.942.36.572.57 1.241.57 1.972.002 2.153-2.01 3.955-4.315 3.957-2.315 0-4.319-1.808-4.32-4.06Zm-1.184-6.686A4.954 4.954 0 0 1 8.28 9.93a.488.488 0 0 0 .201-.212 5.403 5.403 0 0 1 4.041-1.56 5.404 5.404 0 0 1 4.012 1.56.496.496 0 0 0 .195.206 4.952 4.952 0 0 1 1.278 3.137c-.002 1.062-.405 2.096-1.079 2.918a.497.497 0 0 0-.18.21c-.33.358-.712.668-1.136.914-.8-.751-1.916-1.202-3.105-1.202s-2.31.456-3.112 1.198a4.841 4.841 0 0 1-1.12-.902.507.507 0 0 0-.187-.215c-.673-.821-1.077-1.852-1.08-2.912v-.005Zm5.5 3.836c-1.862.001-3.317 1.351-3.316 2.849 0 1.634 1.49 3.062 3.32 3.06 1.84 0 3.316-1.439 3.315-2.956 0-1.615-1.468-2.954-3.319-2.953Zm.74 3.434a.496.496 0 0 1 .498-.495c.276 0 .5.221.501.494a.498.498 0 0 1-.5.496.497.497 0 0 1-.5-.495Zm-1.97-.494c-.277 0-.5.222-.5.495s.224.495.5.494c.276 0 .5-.221.5-.495a.497.497 0 0 0-.5-.494Z" fill="#18303F" yggColor="iconDefault"/></g></svg>