<svg fill="none" height="25" viewBox="0 0 25 25" width="25"><path clip-rule="evenodd" d="m16.713 9.287a.568.568 0 0 1 .037.037l4.075 4.074h1.432a.5.5 0 1 1 0 1h-1.136v4.727a.482.482 0 0 1 -.012.108.53.53 0 0 1 .01.098v3.74h2.19a.5.5 0 0 1 0 1h-19.607a.5.5 0 0 1 -.5-.5v-16.916a.5.5 0 0 1 .5-.5h3.728v-4.225h-.375a.5.5 0 0 1 0-1h1.097c.156 0 .296.071.387.183l8.175 8.175zm-8.283-2.66v-4.21l3.207 3.207v4.759h-3.207zm4.207 4.135v-4.138l3.243 3.242v4.744h-3.228v-3.727a.48.48 0 0 0 -.015-.121zm4.243 4.644v-4.54l3.242 3.242v4.723h-3.243v-3.412zm-12.677-8.25v15.914h15.917v-3.24h-3.74a.5.5 0 0 1 -.5-.5v-3.72h-3.73a.5.5 0 0 1 -.5-.5v-3.727h-3.72a.5.5 0 0 1 -.5-.5v-3.728h-3.228zm1.742-5.727a.5.5 0 1 1 -1 0 .5.5 0 0 1 1 0zm-3.754 22.141a.5.5 0 1 1 -1 0 .5.5 0 0 1 1 0z" fill="#18303f" fill-rule="evenodd"/></svg>