<svg width="25" height="25" viewBox="0 0 25 25" fill="none"><path fill-rule="evenodd" clip-rule="evenodd" d="M16.713 9.287a.568.568 0 0 1 .037.037l4.075 4.074h1.432a.5.5 0 1 1 0 1h-1.136v4.727a.482.482 0 0 1-.012.108.53.53 0 0 1 .01.098v3.74h2.19a.5.5 0 0 1 0 1H3.702a.5.5 0 0 1-.5-.5V6.655a.5.5 0 0 1 .5-.5H7.43V1.93h-.375a.5.5 0 0 1 0-1h1.097c.156 0 .296.071.387.183l8.175 8.175ZM8.43 6.627v-4.21l3.207 3.207v4.759H8.43V6.627Zm4.207 4.135V6.624l3.243 3.242v4.744h-3.228v-3.727a.48.48 0 0 0-.015-.121Zm4.243 4.644v-4.54l3.242 3.242v4.723h-3.243v-3.412l.001-.013ZM4.203 7.156V23.07H20.12v-3.24h-3.74a.5.5 0 0 1-.5-.5v-3.72h-3.73a.5.5 0 0 1-.5-.5v-3.727H7.93a.5.5 0 0 1-.5-.5V7.155H4.202Zm1.742-5.727a.5.5 0 1 1-1 0 .5.5 0 0 1 1 0ZM2.191 23.57a.5.5 0 1 1-1 0 .5.5 0 0 1 1 0Z" fill="#18303F" yggColor="stairs"/></svg>