<svg fill="none" height="25" viewBox="0 0 25 25" width="25"><path clip-rule="evenodd" d="m21.5 1c-1.03 0-2 .78-2 1.9 0 .262.066.514.177.743l-3.367 3.721a2.061 2.061 0 0 0 -2.446.638l-2.365-.739.001-.063c0-1.12-.97-1.9-2-1.9s-2 .78-2 1.9c0 .303.071.582.195.826l-3.023 2.436a2.09 2.09 0 0 0 -1.172-.362c-1.03 0-2 .78-2 1.9s.97 1.9 2 1.9 2-.78 2-1.9c0-.285-.063-.548-.173-.781l3.044-2.453c.33.214.725.334 1.129.334.676 0 1.327-.336 1.694-.884l2.313.723a1.712 1.712 0 0 0 -.007.16c0 1.12.97 1.9 2 1.9s2-.78 2-1.9c0-.436-.148-.822-.389-1.13l3.219-3.557c.326.235.732.388 1.17.388 1.03 0 2-.78 2-1.9s-.97-1.9-2-1.9zm-1 1.9c0-.48.43-.9 1-.9s1 .42 1 .9-.43.9-1 .9c-.254 0-.509-.113-.705-.3-.198-.188-.295-.414-.295-.6zm-10.007 4.407a.764.764 0 0 0 .007-.107c0-.48-.43-.9-1-.9s-1 .42-1 .9c0 .166.052.326.143.463a.5.5 0 0 1 .21.223c.172.132.396.214.647.214.404 0 .738-.212.898-.506a.512.512 0 0 1 .095-.287zm-6.993 3.793c-.57 0-1 .42-1 .9s.43.9 1 .9 1-.42 1-.9-.43-.9-1-.9zm12-2.9c-.57 0-1 .42-1 .9s.43.9 1 .9 1-.42 1-.9-.43-.9-1-.9zm5 .4a.998.998 0 0 0 -.716.284.999.999 0 0 0 -.284.716v13.4h-2v-6.7a.999.999 0 0 0 -.284-.716.999.999 0 0 0 -.716-.284h-2a.999.999 0 0 0 -.716.284.999.999 0 0 0 -.284.716v6.7h-2v-8.6a.999.999 0 0 0 -.284-.716.999.999 0 0 0 -.716-.284h-2a.999.999 0 0 0 -.716.284.999.999 0 0 0 -.284.716v8.6h-2v-3.8a.998.998 0 0 0 -.284-.716.998.998 0 0 0 -.716-.284h-2a.998.998 0 0 0 -.716.284.998.998 0 0 0 -.284.716v3.8h-.5a.5.5 0 0 0 0 1h23a.5.5 0 0 0 0-1h-.5v-13.4a.999.999 0 0 0 -.284-.716.998.998 0 0 0 -.716-.284zm2 14.4v-13.4h-2v13.4zm-14-8.6h2v8.6h-2zm-6 4.8v3.8h2v-3.8zm14-2.9h-2v6.7h2z" fill="#18303f" fill-rule="evenodd"/></svg>