<svg fill="none" height="25" viewBox="0 0 25 25" width="25"><path clip-rule="evenodd" d="m10 2.75a1 1 0 1 1 0-2h5a1 1 0 1 1 0 2h-.5v2.2a9.953 9.953 0 0 1 5.071 2.729c3.905 3.905 3.905 10.237 0 14.142s-10.237 3.905-14.142 0-3.905-10.237 0-14.142a9.953 9.953 0 0 1 5.071-2.729v-2.2zm3.5 2.05a10.06 10.06 0 0 0 -2 0v-2.05h2zm5.364 3.586a9.004 9.004 0 0 0 -12.728 0 9 9 0 1 0 12.728 0zm1.93-2.136-.538.538a.5.5 0 0 0 .707.707l.537-.537.146.146a.5.5 0 0 0 .708-.708l-.482-.481a.476.476 0 0 0 -.036-.036l-.482-.483a.5.5 0 0 0 -.708.708l.147.146zm-13.649 3.646a.5.5 0 0 1 .708 0l3.5 3.5a.5.5 0 0 1 -.708.708l-3.5-3.5a.5.5 0 0 1 0-.708zm5.355 4.854a.5.5 0 1 1 -1 0 .5.5 0 0 1 1 0z" fill="#18303f" fill-rule="evenodd"/></svg>