<svg width="15" height="15" viewBox="0 0 15 15" fill="none" xmlns="http://www.w3.org/2000/svg">
<path fill-rule="evenodd" clip-rule="evenodd" d="M2.625 4C2.625 3.24061 3.24061 2.625 4 2.625H11C11.7594 2.625 12.375 3.24061 12.375 4V11C12.375 11.7594 11.7594 12.375 11 12.375H4C3.24061 12.375 2.625 11.7594 2.625 11V4ZM4 3.375C3.65482 3.375 3.375 3.65482 3.375 4V11C3.375 11.3452 3.65482 11.625 4 11.625H11C11.3452 11.625 11.625 11.3452 11.625 11V4C11.625 3.65482 11.3452 3.375 11 3.375H4Z" fill="#18303F"/>
</svg>
