<svg width="25" height="25" viewBox="0 0 25 25" fill="none"><path fill-rule="evenodd" clip-rule="evenodd" d="M4.22 11.174c-.587-.19-.833-.816-.703-1.4l1.563-7.02c.138-.618.675-1.099 1.337-.952l12.254 2.73c.662.146.945.81.807 1.428l-1.563 7.02a1.399 1.399 0 0 1-.164.414h2.544c1.013 0 1.86.81 1.86 1.828v1.493h1.394v-.498c0-.277.224-.5.5-.498.276.001.5.226.5.502v3.986a.497.497 0 0 1-.5.498.503.503 0 0 1-.5-.503v-.494h-1.395v1.493c0 1.017-.846 1.828-1.859 1.828h-8.153c-.924 0-1.708-.674-1.84-1.564a.5.5 0 1 1-.02-.257v-5.994a.5.5 0 1 1 .02-.257c.132-.89.917-1.563 1.84-1.563h2.022l-5.6-1.247v3.239c0 .03 0 .062-.004.093l.001.001c.079.096.139.21.184.319.091.222.154.507.154.81v5.232a2.4 2.4 0 0 1-.121.79 1.088 1.088 0 0 1-.201.354.68.68 0 0 1-.51.24H1.756c-.273 0-.44-.188-.495-.255a1.269 1.269 0 0 1-.183-.319 2.177 2.177 0 0 1-.154-.81v-5.233c0-.247.03-.498.096-.713l-.235-.18a.985.985 0 0 1-.32-.539.757.757 0 0 1 .165-.644l1.905-2.755a.861.861 0 0 1 .547-.38.858.858 0 0 1 .56.079c.027.013.053.03.077.048l.005.004a.878.878 0 0 1 .496-.354Zm1.932-8.382c-.025.018-.07.068-.096.18l-1.563 7.02c-.025.11-.004.175.01.202.013.023.025.03.038.032l.874.195.504-2.262a.503.503 0 0 1 .025-.115l.6-2.691a.503.503 0 0 1 .026-.118l.503-2.262-.874-.195c-.013-.003-.026-.002-.047.014Zm.239 7.846.408-1.831 8.551 1.904-.408 1.832-8.551-1.905Zm10.044-.198a.433.433 0 0 1-.005.024l-.512 2.296.878.195c.013.003.026.003.047-.013.025-.018.071-.069.096-.18l1.563-7.02c.025-.11.004-.176-.01-.202-.013-.024-.025-.03-.038-.033l-.877-.195-1.137 5.105a.484.484 0 0 1-.005.023ZM7.016 7.83l8.552 1.905 1.033-4.64L8.049 3.19l-.408 1.833 5.571 1.24a.5.5 0 1 1-.217.977L7.424 6l-.408 1.83Zm-1.108 4.32h.328v3.076h-.328V12.15Zm-3.984 5.458v4.234c0 .148.027.284.061.383h2.392V19.44l-2.453-1.834Zm5.943-1.276-2.99 2.235-2.938-2.197a.942.942 0 0 1 .014-.085h.001a.864.864 0 0 0 .179-.058h5.704c.011.032.021.067.03.105Zm-2.49 3.11 2.522-1.885v4.285c0 .157-.018.29-.042.383h-2.48v-2.783Zm16.777-1.726h1.395v.993h-1.395v-.993ZM3.58 14.339l-.599.887h.599v-.887Zm1 .886v-2.511a.797.797 0 0 0 0-.178v-.387h.328v3.076H4.58Zm2.985 0h-.328V12.15h.328v3.076Zm-4.28-2.774-1.772 2.562.267.204 1.744-2.583-.24-.183Zm17.01 1.943c.482 0 .86.384.86.828v5.979c0 .444-.378.828-.86.828h-8.153c-.482 0-.86-.384-.86-.828v-5.979c0-.444.378-.828.86-.828h8.153ZM14.822 7.63a.5.5 0 1 0 0-1 .5.5 0 0 0 0 1Zm4.797 7.756a.5.5 0 0 1 .5.5v4.65a.5.5 0 0 1-1 0V17.05h-.178a.5.5 0 0 1 0-1h.178v-.164a.5.5 0 0 1 .5-.5Zm-3.578.832a.827.827 0 0 0-.244-.598.843.843 0 0 0-.596-.234h-1.699c-.314 0-.616.104-.842.325a1.155 1.155 0 0 0-.337.84v3.32c0 .317.11.618.337.84.226.22.528.325.842.325h1.7a.843.843 0 0 0 .595-.234.827.827 0 0 0 .244-.598v-3.986Zm-2.539.168h1.539v3.65h-1.539c-.093 0-.13-.029-.143-.04-.01-.011-.036-.042-.036-.125v-3.32c0-.083.025-.114.036-.125.012-.011.05-.04.143-.04Zm4.695.222a.5.5 0 1 1-1 0 .5.5 0 0 1 1 0Z" fill="#18303F" yggColor="storage"/></svg>