<svg fill="none" height="25" viewBox="0 0 25 25" width="25"><path clip-rule="evenodd" d="m4.22 11.174c-.587-.19-.833-.816-.703-1.4l1.563-7.02c.138-.618.676-1.099 1.337-.952l12.255 2.73c.66.146.944.81.806 1.428l-1.563 7.02a1.399 1.399 0 0 1 -.164.414h2.544c1.013 0 1.86.81 1.86 1.828v1.493h1.394v-.498c0-.277.224-.5.5-.498.276.001.5.226.5.502v3.986a.497.497 0 0 1 -.5.498.503.503 0 0 1 -.5-.503v-.494h-1.395v1.493c0 1.017-.846 1.828-1.859 1.828h-8.153c-.923 0-1.708-.674-1.84-1.564a.5.5 0 1 1 -.02-.257v-5.994a.5.5 0 1 1 .02-.257c.132-.89.917-1.563 1.84-1.563h2.022l-5.6-1.247v3.239c0 .03 0 .062-.004.093l.002.001c.078.096.138.21.183.319.091.222.154.507.154.81v5.232a2.4 2.4 0 0 1 -.121.79 1.088 1.088 0 0 1 -.201.354.68.68 0 0 1 -.51.24h-6.31c-.274 0-.44-.188-.496-.255a1.269 1.269 0 0 1 -.183-.319 2.176 2.176 0 0 1 -.154-.81v-5.233c0-.247.03-.498.096-.713l-.234-.18a.985.985 0 0 1 -.32-.539.757.757 0 0 1 .165-.644l1.904-2.755a.861.861 0 0 1 .547-.38.858.858 0 0 1 .56.079c.028.013.053.03.077.048l.005.004a.878.878 0 0 1 .496-.354zm1.932-8.382c-.024.018-.07.068-.096.18l-1.563 7.02c-.024.11-.004.175.01.202.013.023.025.03.038.032l.874.195.504-2.262a.503.503 0 0 1 .025-.115l.6-2.691a.503.503 0 0 1 .026-.118l.503-2.262-.873-.195c-.014-.003-.027-.002-.048.014zm.239 7.846.408-1.831 8.551 1.904-.408 1.832zm10.045-.198a.433.433 0 0 1 -.006.024l-.512 2.296.878.195c.013.003.026.003.048-.013.024-.018.07-.069.095-.18l1.563-7.02c.025-.11.004-.176-.01-.202-.012-.024-.024-.03-.038-.033l-.877-.195-1.137 5.105a.484.484 0 0 1 -.005.023zm-9.42-2.61 8.552 1.905 1.033-4.64-8.551-1.905-.41 1.833 5.571 1.24a.5.5 0 1 1 -.217.977l-5.57-1.24zm-1.106 4.32h.327v3.076h-.327zm-3.985 5.458v4.234c0 .148.027.284.061.383h2.392v-2.785l-2.453-1.834zm5.943-1.276-2.99 2.235-2.938-2.197.014-.085h.001a.864.864 0 0 0 .179-.058h5.705l.03.105zm-2.49 3.11 2.522-1.886v4.285c0 .157-.018.29-.042.383h-2.48v-2.783zm16.777-1.726h1.395v.993h-1.395zm-18.575-3.377-.599.887h.599zm1 .886v-2.511a.797.797 0 0 0 0-.178v-.387h.328v3.076zm2.985 0h-.328v-3.075h.328v3.076zm-4.28-2.774-1.771 2.562.266.204 1.744-2.583-.24-.183zm17.01 1.943c.482 0 .86.384.86.828v5.979c0 .444-.378.828-.86.828h-8.153c-.482 0-.86-.384-.86-.828v-5.979c0-.444.378-.828.86-.828zm-5.473-6.764a.5.5 0 1 0 0-1 .5.5 0 0 0 0 1zm4.797 7.756a.5.5 0 0 1 .5.5v4.65a.5.5 0 0 1 -1 0v-3.486h-.178a.5.5 0 0 1 0-1h.178v-.164a.5.5 0 0 1 .5-.5zm-3.578.832a.827.827 0 0 0 -.244-.598.843.843 0 0 0 -.596-.234h-1.699c-.314 0-.616.104-.842.325a1.155 1.155 0 0 0 -.337.84v3.32c0 .317.11.618.337.84.226.22.528.325.842.325h1.7c.211 0 .428-.071.595-.234a.827.827 0 0 0 .244-.598zm-2.539.168h1.539v3.65h-1.539c-.093 0-.13-.029-.143-.04-.01-.011-.036-.042-.036-.125v-3.32c0-.083.026-.114.037-.125s.049-.04.143-.04zm4.695.222a.5.5 0 1 1 -1 0 .5.5 0 0 1 1 0z" fill="#18303f" fill-rule="evenodd"/></svg>