<svg width="25" height="25" viewBox="0 0 25 25" fill="none" xmlns="http://www.w3.org/2000/svg">
<g id="success">
<path id="iconDefault" fill-rule="evenodd" clip-rule="evenodd" d="M23 12.5C23 18.299 18.299 23 12.5 23C6.70101 23 2 18.299 2 12.5C2 6.70101 6.70101 2 12.5 2C18.299 2 23 6.70101 23 12.5ZM24 12.5C24 18.8513 18.8513 24 12.5 24C6.14873 24 1 18.8513 1 12.5C1 6.14873 6.14873 1 12.5 1C18.8513 1 24 6.14873 24 12.5ZM17.6427 9.97715C17.8379 9.78189 17.8379 9.46531 17.6427 9.27004C17.4474 9.07478 17.1308 9.07478 16.9356 9.27004L11.5401 14.6656L9.01908 12.1446C8.82382 11.9493 8.50724 11.9493 8.31197 12.1446C8.11671 12.3398 8.11671 12.6564 8.31197 12.8517L11.1865 15.7262C11.2803 15.82 11.4075 15.8727 11.5401 15.8727C11.6727 15.8727 11.7998 15.82 11.8936 15.7262L17.6427 9.97715Z" fill="#18303F"/>
</g>
</svg>
