<svg width="15" height="15" viewBox="0 0 15 15" fill="none" xmlns="http://www.w3.org/2000/svg">
<path fill-rule="evenodd" clip-rule="evenodd" d="M2.66113 1.83941C2.72318 1.70848 2.85511 1.625 3 1.625H11C11.2071 1.625 11.375 1.79289 11.375 2V3C11.375 3.20711 11.2071 3.375 11 3.375C10.7929 3.375 10.625 3.20711 10.625 3V2.375H3.79135L7.79024 7.26254C7.90326 7.40067 7.90326 7.59933 7.79024 7.73746L3.79135 12.625H10.625V12C10.625 11.7929 10.7929 11.625 11 11.625C11.2071 11.625 11.375 11.7929 11.375 12V13C11.375 13.2071 11.2071 13.375 11 13.375H3C2.85511 13.375 2.72318 13.2915 2.66113 13.1606C2.59908 13.0296 2.61802 12.8747 2.70977 12.7625L7.01548 7.5L2.70977 2.23746C2.61802 2.12532 2.59908 1.97035 2.66113 1.83941Z" fill="#18303F"/>
</svg>
