<svg fill="none" height="25" viewBox="0 0 25 25" width="25"><path clip-rule="evenodd" d="m12.5 3.958a8.542 8.542 0 1 0 0 17.084 8.542 8.542 0 0 0 0-17.084zm-9.792 8.542c0-5.408 4.384-9.792 9.792-9.792s9.792 4.384 9.792 9.792-4.384 9.792-9.792 9.792-9.792-4.384-9.792-9.792zm9.792-3.542c-1.036 0-1.875.84-1.875 1.875a.625.625 0 1 1 -1.25 0 3.125 3.125 0 1 1 3.75 3.063v1.104a.625.625 0 1 1 -1.25 0v-1.667c0-.345.28-.625.625-.625a1.875 1.875 0 1 0 0-3.75zm0 8.75c.345 0 .625.28.625.625v.167a.625.625 0 1 1 -1.25 0v-.167c0-.345.28-.625.625-.625z" fill="#18303f" fill-rule="evenodd"/></svg>