<svg fill="none" height="25" viewBox="0 0 25 25" width="25"><path clip-rule="evenodd" d="m.336 9.607a9.607 9.607 0 0 1 9.607-9.607h5.116a9.607 9.607 0 0 1 9.608 9.607c0 4.668-3.329 8.557-7.741 9.426-.323.064-.475.308-.451.501a7.76 7.76 0 0 0 1.454 3.653c.256.348.294.784.152 1.141a1.04 1.04 0 0 1 -.98.672 8.808 8.808 0 0 1 -8.162-5.497.666.666 0 0 0 -.51-.407c-4.585-.726-8.092-4.696-8.092-9.489zm9.607-8.607a8.607 8.607 0 0 0 -1.357 17.108 1.666 1.666 0 0 1 1.28 1.02 7.808 7.808 0 0 0 7.236 4.872c.022 0 .027-.006.027-.006a.076.076 0 0 0 .022-.033.194.194 0 0 0 -.028-.181 8.761 8.761 0 0 1 -1.64-4.123c-.105-.842.55-1.467 1.25-1.605a8.607 8.607 0 0 0 -1.673-17.052h-5.118zm.37 3.622c-.521.29-.782.585-.782.886 0 .139.047.255.14.347a.442.442 0 0 0 .295.122c.104 0 .231-.07.382-.209.15-.139.37-.278.66-.417.301-.15.678-.225 1.13-.225.752 0 1.331.196 1.737.59.405.394.608.938.608 1.633 0 .417-.087.811-.26 1.182-.163.37-.33.654-.505.851-.173.197-.422.446-.747.747-.312.29-.515.481-.608.574-.243.278-.428.63-.556 1.06-.127.417-.19 1.07-.19 1.963 0 .336.155.504.468.504s.47-.133.47-.4c0-.753.034-1.309.104-1.668s.237-.683.503-.973c.082-.104.284-.307.609-.608.324-.313.59-.59.799-.834.22-.243.423-.59.608-1.042.197-.464.295-.944.295-1.442 0-.904-.29-1.645-.868-2.224-.568-.58-1.373-.87-2.415-.87-.719 0-1.344.152-1.877.453zm1.82 12.353a.566.566 0 1 0 0-1.132.566.566 0 0 0 0 1.132z" fill="#18303f" fill-rule="evenodd"/></svg>