<svg width="25" height="25" viewBox="0 0 25 25" fill="none"><g id="switch_button"><path fill-rule="evenodd" clip-rule="evenodd" d="M5.547 3.047a2.5 2.5 0 0 0-2.5 2.5v13.905a2.5 2.5 0 0 0 2.5 2.5h13.906a2.5 2.5 0 0 0 2.5-2.5V5.548a2.5 2.5 0 0 0-2.5-2.5H5.547Zm-1.5 2.5a1.5 1.5 0 0 1 1.5-1.5h13.906a1.5 1.5 0 0 1 1.5 1.5v13.905a1.5 1.5 0 0 1-1.5 1.5H5.547a1.5 1.5 0 0 1-1.5-1.5V5.548Zm4.614.613a2.5 2.5 0 0 0-2.5 2.5v7.68a2.5 2.5 0 0 0 2.5 2.5H16.339a2.5 2.5 0 0 0 2.5-2.5V8.66a2.5 2.5 0 0 0-2.5-2.5H8.66Zm-1.5 2.5a1.5 1.5 0 0 1 1.5-1.5h1.233V12H7.16V8.66Zm3.733 3.84V7.16h3.212v10.68h-3.212V12.5Zm4.212-.5V7.16h1.233a1.5 1.5 0 0 1 1.5 1.5V12h-2.733Zm0 1h2.733v3.34a1.5 1.5 0 0 1-1.5 1.5h-1.233V13Zm-5.212 0v4.84H8.66a1.5 1.5 0 0 1-1.5-1.5V13h2.733Zm-.755-3.334a.611.611 0 1 1-1.222-.001.611.611 0 0 1 1.222 0Zm7.294.587a.61.61 0 1 0 0-1.22.61.61 0 0 0 0 1.22ZM9.139 15.38a.611.611 0 1 1-1.222-.001.611.611 0 0 1 1.222.001Zm7.294.587a.61.61 0 1 0 0-1.22.61.61 0 0 0 0 1.22Z" fill="#18303F" yggColor="iconDefault"/></g></svg>