<svg fill="none" height="25" viewBox="0 0 25 25" width="25"><path clip-rule="evenodd" d="m5.547 3.047a2.5 2.5 0 0 0 -2.5 2.5v13.905a2.5 2.5 0 0 0 2.5 2.5h13.906a2.5 2.5 0 0 0 2.5-2.5v-13.904a2.5 2.5 0 0 0 -2.5-2.5h-13.906zm-1.5 2.5a1.5 1.5 0 0 1 1.5-1.5h13.906a1.5 1.5 0 0 1 1.5 1.5v13.905a1.5 1.5 0 0 1 -1.5 1.5h-13.906a1.5 1.5 0 0 1 -1.5-1.5v-13.904zm4.614.613a2.5 2.5 0 0 0 -2.5 2.5v7.68a2.5 2.5 0 0 0 2.5 2.5h7.678a2.5 2.5 0 0 0 2.5-2.5v-7.68a2.5 2.5 0 0 0 -2.5-2.5zm-1.5 2.5a1.5 1.5 0 0 1 1.5-1.5h1.233v4.84h-2.733zm3.733 3.84v-5.34h3.212v10.68h-3.212zm4.212-.5v-4.84h1.233a1.5 1.5 0 0 1 1.5 1.5v3.34zm0 1h2.733v3.34a1.5 1.5 0 0 1 -1.5 1.5h-1.233zm-5.212 0v4.84h-1.233a1.5 1.5 0 0 1 -1.5-1.5v-3.34zm-.755-3.334a.611.611 0 1 1 -1.222-.001.611.611 0 0 1 1.222 0zm7.294.587a.61.61 0 1 0 0-1.22.61.61 0 0 0 0 1.22zm-7.294 5.127a.611.611 0 1 1 -1.222-.001.611.611 0 0 1 1.222.001zm7.294.587a.61.61 0 1 0 0-1.22.61.61 0 0 0 0 1.22z" fill="#18303f" fill-rule="evenodd"/></svg>