<svg fill="none" height="25" viewBox="0 0 25 25" width="25"><path d="m4.75.5a4.25 4.25 0 0 0 -4.25 4.25v7.5a4.25 4.25 0 0 0 4.25 4.25h7.5a.5.5 0 0 0 0-1h-1.514a3 3 0 0 0 -2.236-5 2 2 0 1 1 0-4 3 3 0 0 0 2.236-5h1.514a3.25 3.25 0 0 1 3.25 3.25v7.5a.5.5 0 0 0 1 0v-7.5a4.25 4.25 0 0 0 -4.25-4.25zm0 1h3.75a2 2 0 0 1 0 4 3 3 0 0 0 0 6 2 2 0 1 1 0 4h-3.75a3.25 3.25 0 0 1 -3.25-3.25v-7.5a3.25 3.25 0 0 1 3.25-3.25zm13.916 11.67a5.885 5.885 0 0 0 0 11.77 5.883 5.883 0 0 0 5.883-5.885 5.883 5.883 0 0 0 -5.883-5.885zm0 1a4.883 4.883 0 0 1 4.883 4.885 4.883 4.883 0 1 1 -9.768 0 4.885 4.885 0 0 1 4.885-4.885zm2.883 2.68a.498.498 0 0 0 -.354.146l-3.351 3.35-1.71-1.71a.5.5 0 0 0 -.706.708l2.045 2.045.017.02a.5.5 0 0 0 .707 0l.012-.012 3.693-3.694a.5.5 0 0 0 -.353-.853z" fill="#18303f"/></svg>