<svg width="25" height="25" viewBox="0 0 25 25" fill="none"><g id="tamper_ok_colorful"><path d="M1.2.06a.5.5 0 1 0 0 1h3.698c0 .028.002.057.006.085l.494 2.96c-.43-.013-.874-.027-1.332-.043l-.015-.001A2.295 2.295 0 0 0 1.75 6.363v2.399c0 .473.281 1.035.648 1.457.373.428.943.835 1.635.841 1.082.07 2.085.13 3.037.176.103.246.3.439.49.58.294.218.693.405 1.159.559.937.31 2.241.516 3.781.516s2.845-.207 3.781-.516c.466-.154.866-.34 1.159-.559.188-.14.383-.332.486-.576.953-.047 1.96-.107 3.043-.18.659-.005 1.226-.325 1.62-.745.395-.42.661-.988.661-1.553v-2.4c0-.017 0-.033-.002-.05-.123-1.227-1.114-2.251-2.398-2.251l-.02.002-1.232.044.494-2.962a.52.52 0 0 0 .006-.084h1.726a.5.5 0 1 0 0-1H1.2Zm22.57 0a.5.5 0 0 0 0 1h.029a.5.5 0 1 0 0-1h-.03Zm-17.864 1H19.09l-.485 2.919a.508.508 0 0 0-.002.162c-4.528.142-7.714.124-12.21-.006a.502.502 0 0 0 0-.156L5.906 1.06ZM4.043 5.063c6.605.221 10.182.255 16.816 0 .705.005 1.304.569 1.391 1.327v2.373c0 .263-.135.596-.39.869-.252.268-.577.43-.91.43-.012 0-.023 0-.034.002-6.577.438-10.254.42-16.834 0-.01-.001-.02-.003-.031-.003-.3 0-.625-.183-.899-.498-.282-.324-.402-.661-.402-.8v-2.4c0-.722.573-1.295 1.293-1.3Zm4.666 6.245c2.628.099 4.94.103 7.566.005a4.988 4.988 0 0 1-.306.114c-.813.268-2.009.465-3.469.465s-2.656-.197-3.469-.465a5.022 5.022 0 0 1-.322-.12Z" fill="#18303F" yggColor="iconDefault"/><path d="M17.222 21.389a.5.5 0 0 0 .736.008l3.694-3.694a.5.5 0 1 0-.707-.707l-3.35 3.35-1.71-1.709a.5.5 0 0 0-.707.707l2.044 2.044Z" fill="#038C6A" yggColor="iconSuccess"/><path fill-rule="evenodd" clip-rule="evenodd" d="M18.416 14.17a4.884 4.884 0 1 0 0 9.769 4.884 4.884 0 0 0 0-9.77Zm-5.885 4.884a5.884 5.884 0 1 1 11.769 0 5.884 5.884 0 0 1-11.769 0Z" fill="#6D7B82" yggColor="iconWeak"/></g></svg>