<svg fill="none" height="25" viewBox="0 0 25 25" width="25"><path clip-rule="evenodd" d="m11.67 6.616a4.884 4.884 0 1 1 -9.768 0 4.884 4.884 0 0 1 9.769 0zm-4.882 5.884a5.884 5.884 0 1 0 0-11.769 5.884 5.884 0 0 0 0 11.769zm5.57-10.308a.5.5 0 0 1 .5-.5h11.2a.5.5 0 0 1 0 1h-3.7a.511.511 0 0 1 -.007.083l-.106.634a.5.5 0 0 1 -.986-.164l.091-.553h-6.493a.5.5 0 0 1 -.5-.5zm-6.43 14.658a.507.507 0 0 1 -.058-.05l-1.054-1.056a.5.5 0 0 1 .708-.706l1.054 1.056c.042.042.074.09.098.14 3.807-3.142 6.37-5.39 10.457-9.245a.458.458 0 0 1 .014-.012c.968-.845 2.386-.726 3.286.118a.5.5 0 0 1 .035.036l.001.002.003.003.003.003.001.001.005.006 1.565 1.793c.372.425.544 1.028.524 1.604s-.238 1.191-.73 1.63c-.769.765-1.486 1.471-2.173 2.134.082.251.061.525.011.755-.077.357-.254.76-.504 1.182-.503.849-1.35 1.862-2.51 2.874-1.16 1.013-2.279 1.716-3.188 2.1-.451.19-.875.312-1.238.34-.237.019-.513.003-.752-.115-.748.59-1.543 1.207-2.404 1.867-.526.45-1.222.518-1.785.44-.554-.075-1.136-.315-1.447-.671l-1.544-1.769-.004-.004-.03-.035a2.292 2.292 0 0 1 .22-3.245l.012-.011c.496-.405.97-.792 1.424-1.165zm-.785 1.934a1.292 1.292 0 0 0 -.118 1.83l.01.01 1.568 1.797c.092.105.404.28.83.34.414.056.779-.019 1.005-.216a.513.513 0 0 1 .024-.02c5.233-4.011 8.016-6.416 12.682-11.072a.577.577 0 0 1 .024-.022c.252-.22.39-.556.402-.924.014-.374-.104-.712-.277-.91l-1.557-1.787-.003-.004c-.564-.513-1.387-.544-1.92-.084-4.831 4.555-7.548 6.882-12.668 11.06zm7.624 1.636c.1-.035.207-.076.32-.124.79-.332 1.819-.97 2.919-1.931 1.1-.96 1.871-1.894 2.307-2.63a5.06 5.06 0 0 0 .159-.288 96.975 96.975 0 0 1 -5.705 4.973zm6.588-14.924a.5.5 0 1 0 .001-.999.5.5 0 0 0 0 .999zm-10.329 2.604a.5.5 0 0 1 -.707.707l-1.517-1.516-1.542 1.543a.5.5 0 0 1 -.707-.707l1.543-1.543-1.48-1.481a.5.5 0 0 1 .706-.708l1.481 1.481 1.454-1.454a.5.5 0 1 1 .707.708l-1.454 1.454z" fill="#18303f" fill-rule="evenodd"/></svg>