<svg width="25" height="25" viewBox="0 0 25 25" fill="none"><g id="tamper_not_ok_colorful"><path d="M12.855 1.691a.5.5 0 0 0 0 1h6.495l-.092.553a.5.5 0 1 0 .986.164l.106-.633a.536.536 0 0 0 .007-.084h3.702a.5.5 0 0 0 0-1H12.855Zm6.5 2.805a.499.499 0 1 0 0 .998.499.499 0 1 0 0-.998Zm-.76 1.904a2.323 2.323 0 0 0-1.447.575l-.013.013c-4.088 3.855-6.65 6.102-10.457 9.244a.496.496 0 0 0-.1-.138l-1.053-1.057a.5.5 0 1 0-.709.707L5.871 16.8a.523.523 0 0 0 .059.05c-.455.374-.928.76-1.424 1.165l-.014.011a2.291 2.291 0 0 0-.219 3.245l.03.035.004.003 1.545 1.77c.31.357.893.596 1.447.672.563.077 1.259.009 1.785-.442.86-.66 1.654-1.276 2.402-1.867.24.118.516.134.752.116.364-.03.787-.15 1.239-.34.909-.384 2.027-1.087 3.187-2.1 1.16-1.013 2.01-2.026 2.512-2.875.25-.422.426-.825.504-1.182.05-.23.07-.502-.012-.753.687-.663 1.404-1.369 2.172-2.135.492-.438.71-1.054.73-1.631.02-.576-.151-1.178-.523-1.604l-1.565-1.793-.005-.005-.003-.004h-.002l-.002-.004h-.002a.472.472 0 0 0-.034-.037 2.553 2.553 0 0 0-1.838-.694Zm.167 1c.343.015.689.15.97.407l.004.004 1.557 1.785c.173.198.293.536.28.91-.014.368-.152.704-.403.924a.623.623 0 0 0-.026.023c-4.665 4.655-7.449 7.06-12.681 11.07l-.024.022c-.225.197-.592.272-1.005.215-.427-.059-.739-.235-.83-.34l-1.567-1.797-.012-.012a1.291 1.291 0 0 1 .12-1.828c5.12-4.177 7.837-6.505 12.668-11.06.267-.23.606-.337.949-.323Zm-.29 8.045c-.045.09-.098.186-.158.287-.436.737-1.206 1.671-2.306 2.631-1.1.96-2.13 1.6-2.918 1.932a5.1 5.1 0 0 1-.322.123 97.015 97.015 0 0 0 5.705-4.973Z" fill="#18303F" yggColor="iconDefault"/><path d="M9.026 8.1a.5.5 0 0 1-.707.707L6.802 7.291 5.26 8.834a.5.5 0 0 1-.707-.707l1.543-1.543-1.48-1.481a.5.5 0 0 1 .706-.708l1.481 1.481 1.454-1.454a.5.5 0 0 1 .707.708L7.51 6.584 9.026 8.1Z" fill="#F28102" yggColor="backgroundWarningDefault"/><path fill-rule="evenodd" clip-rule="evenodd" d="M6.787 11.5a4.884 4.884 0 1 0 0-9.769 4.884 4.884 0 0 0 0 9.769Zm5.884-4.884a5.884 5.884 0 1 1-11.769 0 5.884 5.884 0 0 1 11.769 0Z" fill="#6D7B82" yggColor="iconWeak"/></g></svg>