<svg fill="none" height="25" viewBox="0 0 25 25" width="25"><path d="m17.472 21.389a.5.5 0 0 0 .736.008l3.694-3.694a.5.5 0 1 0 -.707-.707l-3.35 3.35-1.71-1.709a.5.5 0 0 0 -.707.707l2.044 2.044z" fill="#038c6a"/><g clip-rule="evenodd" fill-rule="evenodd"><path d="m18.666 14.17a4.884 4.884 0 1 0 0 9.769 4.884 4.884 0 0 0 0-9.77zm-5.885 4.884a5.884 5.884 0 1 1 11.769 0 5.884 5.884 0 0 1 -11.769 0z" fill="#6d7b82"/><path d="m.5 4.75a4.25 4.25 0 0 1 4.25-4.25h7.5a4.25 4.25 0 0 1 4.25 4.25v7.5a.5.5 0 0 1 -1 0v-7.5a3.25 3.25 0 0 0 -3.25-3.25h-1.514a3 3 0 0 1 -2.236 5 2 2 0 1 0 0 4 3 3 0 0 1 2.236 5h1.514a.5.5 0 0 1 0 1h-7.5a4.25 4.25 0 0 1 -4.25-4.25zm8 10.75a2 2 0 1 0 0-4 3 3 0 1 1 0-6 2 2 0 0 0 0-4h-3.75a3.25 3.25 0 0 0 -3.25 3.25v7.5a3.25 3.25 0 0 0 3.25 3.25z" fill="#18303f"/></g></svg>