<svg width="25" height="25" viewBox="0 0 25 25" fill="none"><g yggColor="tamper_bad"><path yggColor="iconDefault" fill-rule="evenodd" clip-rule="evenodd" d="M1.2 1.795a.5.5 0 1 0 0 1h3.699a.46.46 0 0 0 .007.083l.5 3a.5.5 0 1 0 .986-.165l-.486-2.918H19.09l-.092.553a.5.5 0 0 0 .987.164l.105-.634a.46.46 0 0 0 .007-.083H23.8a.5.5 0 0 0 0-1H1.2Zm5.086 6.112a.5.5 0 1 0 0-.999.5.5 0 0 0 0 1Zm12.812-2.614a.5.5 0 1 0 .001-.999.5.5 0 0 0-.001 1ZM9.02 22.736c.861-.66 1.656-1.276 2.404-1.867.239.118.515.134.752.116.364-.03.787-.15 1.239-.34.909-.384 2.027-1.088 3.187-2.1 1.16-1.013 2.008-2.026 2.51-2.875.25-.422.427-.825.505-1.182.05-.23.071-.503-.012-.755.687-.662 1.405-1.368 2.173-2.135.492-.437.709-1.053.73-1.63.021-.575-.152-1.177-.524-1.603L20.435 6.59l-.001-.002-.005-.006-.01-.01-.009-.012-.003-.002-.001-.002a.551.551 0 0 0-.035-.036c-.899-.844-2.318-.963-3.286-.118l-.008.007a.231.231 0 0 1-.006.006c-4.816 4.542-7.515 6.853-12.628 11.025l-.013.01a2.292 2.292 0 0 0-.219 3.247l.033.038 1.544 1.769c.312.357.893.596 1.447.672.563.078 1.259.01 1.785-.44ZM4.963 20.04l.001.001.001.001.008.01 1.569 1.796c.091.105.403.28.83.34.413.056.778-.018 1.004-.215a.71.71 0 0 1 .024-.02c5.233-4.012 8.016-6.417 12.682-11.072a.365.365 0 0 1 .025-.023c.251-.22.389-.556.402-.924.013-.374-.105-.712-.278-.91l-1.536-1.76-.02-.022-.005-.006c-.564-.514-1.386-.545-1.92-.085-4.831 4.556-7.548 6.883-12.668 11.06a1.293 1.293 0 0 0-.119 1.83Zm13.447-5.166a96.92 96.92 0 0 1-5.705 4.973c.1-.035.207-.075.321-.123.789-.333 1.818-.971 2.918-1.932 1.1-.96 1.871-1.894 2.307-2.63.06-.102.113-.198.159-.288Z" fill="#18303F"/></g></svg>