<svg fill="none" height="25" viewBox="0 0 25 25" width="25"><path d="m18.602 1c-1.361 0-2.5 1.059-2.5 2.412v12.67c-1.2.77-2 2.085-2 3.592 0 2.41 2.035 4.326 4.5 4.326 2.463 0 4.5-1.916 4.5-4.326 0-1.508-.804-2.821-2-3.592v-12.67c0-1.353-1.14-2.412-2.5-2.412zm0 1c.85 0 1.5.652 1.5 1.412v12.953a.5.5 0 0 0 .257.438c1.05.581 1.743 1.653 1.743 2.87 0 1.817-1.546 3.327-3.5 3.327-1.955 0-3.5-1.51-3.5-3.326 0-1.218.691-2.29 1.742-2.871a.5.5 0 0 0 .258-.438v-12.953c0-.76.65-1.412 1.5-1.412zm-.026 2.727a.5.5 0 1 0 .026 0zm0 2a.5.5 0 1 0 .026 0zm0 2a.5.5 0 1 0 .026 0zm0 2a.5.5 0 1 0 .026 0zm0 2a.5.5 0 1 0 .026 0zm0 2a.5.5 0 1 0 .026 0zm0 2a.5.5 0 1 0 .026 0zm-.023 1.976a.98.98 0 0 0 -.944.97c0 .558.465.972.993.972.526 0 .992-.414.992-.971s-.466-.97-.992-.97c-.017 0-.033-.002-.05 0zm.049.945a.056.056 0 0 1 .007.026.056.056 0 0 1 -.008.025l-.003-.006a.05.05 0 0 1 0-.039c0-.002.003-.004.004-.006z" fill="#18303f"/><path d="m8.268.613a.5.5 0 1 0 .025 0zm-1.637.764a.498.498 0 0 0 -.281.08c-2.638 1.708-4.35 4.618-4.35 7.814 0 1.413.51 2.73 1.559 3.662a5.157 5.157 0 0 0 3.709 1.55c1.44.124 2.744-.412 3.767-1.444a5.659 5.659 0 0 0 1.43-3.752c.123-1.963-.92-3.792-2.729-4.703a.497.497 0 0 0 -.224-.053h-.235a.5.5 0 0 0 -.468.326.686.686 0 0 0 -.14.3 2.354 2.354 0 0 1 -.509.823c-.311-.833-.33-1.736-.096-2.597a.5.5 0 1 0 -.964-.263c-.35 1.288-.242 2.691.457 3.924a.5.5 0 0 0 .736.152c.467-.353.972-.842 1.268-1.568 1.287.773 2.002 2.146 1.906 3.61l-.002.032a4.656 4.656 0 0 1 -1.152 3.077c-.84.839-1.86 1.239-2.977 1.136a.481.481 0 0 0 -.045-.002 4.16 4.16 0 0 1 -3.059-1.289c-.812-.715-1.232-1.747-1.232-2.921 0-2.831 1.52-5.437 3.895-6.974a.5.5 0 0 0 -.264-.92z" fill="#f28102"/></svg>