<svg width="25" height="25" viewBox="0 0 25 25" fill="none"><path fill-rule="evenodd" clip-rule="evenodd" d="M3 1a.503.503 0 0 0-.355.146L.823 2.97a.5.5 0 1 0 .707.707l.97-.97v3.482c0 2.046 1.578 3.625 3.625 3.625h4.167a.5.5 0 0 0 0-1H6.125c-1.494 0-2.625-1.13-2.625-2.626v-3.48l.968.968a.5.5 0 1 0 .707-.707l-1.8-1.8A.5.5 0 0 0 3 1Zm12.684 4.226a.5.5 0 1 1-1 0 .5.5 0 0 1 1 0Zm-.5 2.5a.5.5 0 1 0 0-1 .5.5 0 0 0 0 1Zm0 2a.5.5 0 1 0 0-1 .5.5 0 0 0 0 1Zm0 2a.5.5 0 1 0 0-1 .5.5 0 0 0 0 1Zm0 2a.5.5 0 1 0 0-1 .5.5 0 0 0 0 1Zm0 2a.5.5 0 1 0 0-1 .5.5 0 0 0 0 1Zm0 2a.5.5 0 1 0 0-1 .5.5 0 0 0 0 1Zm-1.02 1.948c0-.557.465-.971.993-.971.526 0 .992.414.992.97 0 .558-.466.972-.992.972-.528 0-.993-.414-.993-.971Zm.996.018a.04.04 0 0 0 .004-.018.04.04 0 0 0-.004-.019.014.014 0 0 0-.004-.006l-.003.006a.041.041 0 0 0-.004.019c0 .006.001.013.004.019a.012.012 0 0 0 .004.006l.002-.003.001-.002v-.002ZM15.157 1c-1.36 0-2.5 1.06-2.5 2.413v12.669c-1.199.77-2 2.085-2 3.592 0 2.41 2.035 4.326 4.5 4.326 2.464 0 4.5-1.916 4.5-4.326 0-1.507-.804-2.821-2-3.592V3.413c0-1.353-1.14-2.413-2.5-2.413Zm-1.5 2.413c0-.76.65-1.413 1.5-1.413s1.5.653 1.5 1.413v12.952a.5.5 0 0 0 .257.438c1.05.581 1.743 1.654 1.743 2.87 0 1.817-1.546 3.327-3.5 3.327-1.955 0-3.5-1.51-3.5-3.326 0-1.218.691-2.29 1.742-2.871a.5.5 0 0 0 .258-.438V3.413Zm5 0a.5.5 0 0 1 .5-.5h4.667a.5.5 0 1 1 0 1h-4.667a.5.5 0 0 1-.5-.5Zm.5 4.283a.5.5 0 0 0 0 1h3a.5.5 0 0 0 0-1h-3Zm-.5 5.282a.5.5 0 0 1 .5-.5h1a.5.5 0 0 1 0 1h-1a.5.5 0 0 1-.5-.5Z" fill="#18303F" yggColor="temperature_high"/></svg>