<svg fill="none" height="25" viewBox="0 0 25 25" width="25"><path d="m18.602 1c-1.361 0-2.5 1.06-2.5 2.414v12.668c-1.2.771-2 2.085-2 3.592 0 2.41 2.035 4.326 4.5 4.326 2.463 0 4.5-1.916 4.5-4.326 0-1.508-.804-2.821-2-3.592v-12.668c0-1.353-1.14-2.414-2.5-2.414zm0 1c.85 0 1.5.654 1.5 1.414v12.951a.5.5 0 0 0 .257.438c1.05.581 1.743 1.653 1.743 2.87 0 1.817-1.547 3.327-3.5 3.327-1.955 0-3.5-1.51-3.5-3.326 0-1.218.691-2.29 1.742-2.871a.5.5 0 0 0 .258-.438v-12.95c0-.76.65-1.415 1.5-1.415zm-.026 12.621a.5.5 0 1 0 .026 0zm0 2a.5.5 0 1 0 .026 0zm.026 2.082c-.528 0-.993.414-.993.97 0 .558.465.972.993.972.526 0 .992-.414.992-.971s-.466-.97-.992-.97zm0 .945.003.008a.042.042 0 0 1 .004.018.05.05 0 0 1 -.004.02l-.003.005-.004-.006a.05.05 0 0 1 -.004-.02l.002-.01.002-.009z" fill="#18303f"/><path d="m7.578 1.559a.5.5 0 1 0 .026 0zm-1.328 1.044a.5.5 0 0 0 -.354.854l1.206 1.205v2.219a.5.5 0 1 0 1 0v-2.213l1.21-1.211a.5.5 0 1 0 -.707-.707l-1 1-1.001-1a.498.498 0 0 0 -.354-.147zm-2.457 1.4a.499.499 0 0 0 -.453.629l.367 1.368-1.367.367a.499.499 0 1 0 .258.965l1.65-.441 1.879 1.084a.5.5 0 1 0 .5-.866l-1.879-1.084-.441-1.65a.503.503 0 0 0 -.514-.371zm7.57 0a.5.5 0 0 0 -.463.372l-.441 1.648-1.88 1.086a.5.5 0 0 0 .5.866l1.878-1.084 1.652.441a.499.499 0 1 0 .258-.965l-1.367-.367.367-1.367a.499.499 0 0 0 -.504-.63zm-9.175.604a.5.5 0 1 0 .041 0h-.042zm10.747 0a.5.5 0 1 0 .026 0zm-6.917.334a.5.5 0 1 0 0 1 .5.5 0 0 0 0-1zm3.171 0a.5.5 0 1 0 0 1 .5.5 0 0 0 0-1zm-4.804 2.852a.5.5 0 1 0 .025 0zm6.386 0a.5.5 0 1 0 .026 0zm-1.957.648a.502.502 0 0 0 -.263.934l1.908 1.101.443 1.649a.499.499 0 1 0 .965-.26l-.367-1.365 1.37-.367a.499.499 0 1 0 -.26-.965l-1.653.441-1.906-1.101a.496.496 0 0 0 -.237-.067zm-2.443.002a.495.495 0 0 0 -.217.065l-1.906 1.101-1.65-.441a.496.496 0 0 0 -.612.353.497.497 0 0 0 .354.612l1.367.365-.367 1.367a.501.501 0 0 0 .967.26l.441-1.65 1.906-1.1a.5.5 0 0 0 -.283-.932zm1.23.66a.5.5 0 0 0 -.5.5v2.233l-1.205 1.207a.5.5 0 1 0 .708.707l1-1.002 1.001 1.002a.5.5 0 0 0 .707-.707l-1.21-1.211v-2.229a.5.5 0 0 0 -.5-.5zm-1.609 1.432a.5.5 0 1 0 .026 0zm3.172 0a.5.5 0 1 0 .025 0zm-6.959.215a.502.502 0 0 0 -.22.938.5.5 0 1 0 .242-.938zm10.73 0a.501.501 0 1 0 .026 0zm-5.357 3.215a.5.5 0 1 0 .026 0z" fill="#02a8f1"/></svg>