<svg width="26" height="25" viewBox="0 0 26 25" fill="none"><g id="temporary_pin"><path id="iconDefault" fill-rule="evenodd" clip-rule="evenodd" d="M2.214 24.5h20.799a1.5 1.5 0 0 0 1.5-1.5v-4a1.5 1.5 0 0 0-1.5-1.5h-14a1.5 1.5 0 0 0-1.5 1.5v2.6h-1.48l-.02-.001H3.712v-2.7c0-1.355.638-2.864 1.708-4.039.9-.99 2.076-1.708 3.371-1.906a5.77 5.77 0 0 0 1.442 0c1.85.284 3.455 1.628 4.35 3.284a.5.5 0 0 0 .88-.476c-.751-1.387-1.97-2.63-3.468-3.313a7.3 7.3 0 0 0 2.35-1.738c1.17-1.286 1.922-2.964 1.965-4.567a.33.33 0 0 0 .002-.044V3.199h.502c.776 0 1.4-.623 1.4-1.4 0-.776-.624-1.4-1.4-1.4h-14.6c-.776 0-1.4.624-1.4 1.4 0 .777.624 1.4 1.4 1.4h.498V6a1.885 1.885 0 0 0 .001.077v.012l-.001.012c0 .015 0 .03.002.044.043 1.603.796 3.28 1.966 4.567a7.31 7.31 0 0 0 2.35 1.738 7.31 7.31 0 0 0-2.35 1.738c-1.206 1.325-1.968 3.066-1.968 4.712v2.7h-.498c-.81 0-1.4.66-1.4 1.5 0 .776.624 1.4 1.4 1.4Zm-.4-1.4c0 .223.176.4.4.4h5.384a1.5 1.5 0 0 1-.085-.5v-.4h-5.3c-.19 0-.399.14-.399.5Zm7.199.4h14a.5.5 0 0 0 .5-.5v-4a.5.5 0 0 0-.5-.5h-14a.5.5 0 0 0-.5.5v4a.5.5 0 0 0 .472.5h.028ZM3.712 5.6V3.3h11.6v2.3h-2.3c-.651 0-1.156.267-1.6.6a.457.457 0 0 0-.034.028l-1 .9a.247.247 0 0 0-.02.018c-.491.492-1.29.524-1.914-.02l-.988-.89C7.05 5.837 6.424 5.6 5.812 5.6h-2.1Zm11.56 1h-2.26c-.342 0-.634.128-.982.387l-.974.876c-.907.897-2.302.863-3.273.013L6.778 6.97a.25.25 0 0 1-.02-.018c-.195-.195-.562-.353-.946-.353h-2.06c.156 1.186.754 2.434 1.668 3.438.9.99 2.076 1.708 3.371 1.906a5.8 5.8 0 0 1 .223-.024l-.001-.021a.5.5 0 0 1 1 0v.022a5.9 5.9 0 0 1 .22.023c1.296-.198 2.47-.916 3.372-1.906.914-1.004 1.512-2.252 1.667-3.438ZM2.214 2.2a.396.396 0 0 1-.4-.4c0-.224.176-.4.4-.4h14.6c.224 0 .4.176.4.4 0 .223-.176.4-.4.4h-14.6Zm7.799 7.698a.5.5 0 1 0-1 0 .5.5 0 0 0 1 0Zm2.69 9.665a.5.5 0 0 1 0 .707l-.719.718.762.762a.5.5 0 0 1-.707.707l-.762-.762-.762.762a.5.5 0 1 1-.707-.707l.762-.762-.719-.718a.5.5 0 0 1 .707-.707l.719.718.719-.718a.5.5 0 0 1 .707 0Zm5 0a.5.5 0 0 1 0 .707l-.719.718.762.762a.5.5 0 0 1-.707.707l-.762-.762-.762.762a.5.5 0 1 1-.707-.707l.762-.762-.719-.718a.5.5 0 0 1 .707-.707l.719.718.719-.718a.5.5 0 0 1 .707 0Zm1.84 2.03a.5.5 0 0 0 0 1h2.453a.5.5 0 0 0 0-1h-2.452Zm-10.03-8.195a.5.5 0 1 1 0 1 .5.5 0 0 1 0-1Zm0 2a.5.5 0 1 1 0 1 .5.5 0 0 1 0-1Z" fill="#18303F"/></g></svg>