<svg width="25" height="25" viewBox="0 0 25 25" fill="none"><g id="temperature_low_critical"><path fill-rule="evenodd" clip-rule="evenodd" d="M16.102 3.413C16.102 2.06 17.24 1 18.602 1c1.36 0 2.5 1.06 2.5 2.413v12.67c1.196.77 2 2.084 2 3.59 0 2.41-2.037 4.327-4.5 4.327-2.465 0-4.5-1.916-4.5-4.326 0-1.507.8-2.821 2-3.592V3.413ZM18.602 2c-.85 0-1.5.653-1.5 1.413v12.952a.5.5 0 0 1-.258.438c-1.05.581-1.742 1.653-1.742 2.87 0 1.817 1.545 3.327 3.5 3.327 1.954 0 3.5-1.51 3.5-3.326 0-1.217-.694-2.29-1.743-2.871a.5.5 0 0 1-.257-.438V3.413c0-.76-.65-1.413-1.5-1.413Zm.5 13.121a.5.5 0 1 1-1 0 .5.5 0 0 1 1 0Zm-1.493 4.553c0-.557.465-.971.993-.971.526 0 .992.414.992.97 0 .558-.466.972-.992.972-.528 0-.993-.414-.993-.971Zm.996.018a.048.048 0 0 0 .004-.018.048.048 0 0 0-.004-.019l-.001-.003-.002-.002v-.001a.047.047 0 0 0 0 .049.037.037 0 0 0 .003-.006Zm-.003-2.07a.5.5 0 1 0 0-1.001.5.5 0 0 0 0 1ZM8.104 2.057a.5.5 0 1 1-1 0 .5.5 0 0 1 1 0ZM2.728 5.107a.5.5 0 1 1-1 0 .5.5 0 0 1 1 0Zm10.733 0a.5.5 0 1 1-1 0 .5.5 0 0 1 1 0Zm-6.943.335a.5.5 0 1 1-1 0 .5.5 0 0 1 1 0ZM2.727 11.25a.5.5 0 1 1-1 0 .5.5 0 0 1 1 0Zm10.734 0a.5.5 0 1 1-1 0 .5.5 0 0 1 1 0Zm-5.357 3.214a.5.5 0 1 1-1 0 .5.5 0 0 1 1 0ZM9.69 5.442a.5.5 0 1 1-1 0 .5.5 0 0 1 1 0Zm0 5.593a.5.5 0 1 1-1 0 .5.5 0 0 1 1 0Zm-3.172 0a.5.5 0 1 1-1 0 .5.5 0 0 1 1 0ZM4.911 8.293a.5.5 0 1 1-1 0 .5.5 0 0 1 1 0Zm6.386 0a.5.5 0 1 1-1 0 .5.5 0 0 1 1 0ZM6.604 2.75a.5.5 0 1 0-.707.707l1.205 1.205v2.22a.5.5 0 1 0 1 0V4.667l1.21-1.21a.5.5 0 0 0-.707-.707l-1 1-1-1Zm.998 6.354a.5.5 0 0 1 .5.5v2.228l1.21 1.21a.5.5 0 1 1-.707.707l-1-1-1 1a.5.5 0 1 1-.708-.707l1.205-1.206V9.604a.5.5 0 0 1 .5-.5ZM8.58 7.11l1.88-1.085.442-1.65a.5.5 0 1 1 .966.26L11.5 6l1.367.365a.5.5 0 1 1-.258.966l-1.652-.441-1.878 1.084a.5.5 0 1 1-.5-.866ZM6.838 8.692a.5.5 0 0 1-.183.683l-1.907 1.1-.442 1.65a.5.5 0 0 1-.966-.259l.367-1.367-1.367-.366a.5.5 0 1 1 .258-.966l1.65.442 1.907-1.1a.5.5 0 0 1 .683.183Zm-.711-.717L4.248 6.891l-1.65.441a.5.5 0 1 1-.259-.965L3.707 6 3.34 4.634a.5.5 0 0 1 .966-.26l.442 1.65L6.627 7.11a.5.5 0 0 1-.5.866Zm2.424 1.4a.5.5 0 1 1 .5-.866l1.907 1.1 1.652-.442a.5.5 0 0 1 .258.966L11.5 10.5l.367 1.366a.5.5 0 0 1-.965.26l-.444-1.65-1.907-1.101Z" fill="#18303F" yggColor="iconDefault"/></g></svg>