<svg fill="none" height="25" viewBox="0 0 25 25" width="25"><path clip-rule="evenodd" d="m16.102 3.413c0-1.353 1.138-2.413 2.5-2.413 1.36 0 2.5 1.06 2.5 2.413v12.67c1.196.77 2 2.084 2 3.59 0 2.41-2.037 4.327-4.5 4.327-2.465 0-4.5-1.916-4.5-4.326 0-1.507.8-2.821 2-3.592zm2.5-1.413c-.85 0-1.5.653-1.5 1.413v12.952a.5.5 0 0 1 -.258.438c-1.05.581-1.742 1.653-1.742 2.87 0 1.817 1.545 3.327 3.5 3.327 1.954 0 3.5-1.51 3.5-3.326 0-1.217-.694-2.29-1.743-2.871a.5.5 0 0 1 -.257-.438v-12.952c0-.76-.65-1.413-1.5-1.413zm.5 13.121a.5.5 0 1 1 -1 0 .5.5 0 0 1 1 0zm-1.493 4.553c0-.557.465-.971.993-.971.526 0 .992.414.992.97 0 .558-.466.972-.992.972-.528 0-.993-.414-.993-.971zm.996.018a.048.048 0 0 0 .004-.018.048.048 0 0 0 -.004-.019l-.001-.003-.002-.002v-.001a.047.047 0 0 0 0 .049.037.037 0 0 0 .003-.006zm-.003-2.07a.5.5 0 1 0 0-1.001.5.5 0 0 0 0 1zm-10.498-15.565a.5.5 0 1 1 -1 0 .5.5 0 0 1 1 0zm-5.376 3.05a.5.5 0 1 1 -1 0 .5.5 0 0 1 1 0zm10.733 0a.5.5 0 1 1 -1 0 .5.5 0 0 1 1 0zm-6.943.335a.5.5 0 1 1 -1 0 .5.5 0 0 1 1 0zm-3.791 5.808a.5.5 0 1 1 -1 0 .5.5 0 0 1 1 0zm10.734 0a.5.5 0 1 1 -1 0 .5.5 0 0 1 1 0zm-5.357 3.214a.5.5 0 1 1 -1 0 .5.5 0 0 1 1 0zm1.586-9.022a.5.5 0 1 1 -1 0 .5.5 0 0 1 1 0zm0 5.593a.5.5 0 1 1 -1 0 .5.5 0 0 1 1 0zm-3.172 0a.5.5 0 1 1 -1 0 .5.5 0 0 1 1 0zm-1.607-2.742a.5.5 0 1 1 -1 0 .5.5 0 0 1 1 0zm6.386 0a.5.5 0 1 1 -1 0 .5.5 0 0 1 1 0zm-4.693-5.543a.5.5 0 1 0 -.707.707l1.205 1.205v2.22a.5.5 0 1 0 1 0v-2.215l1.21-1.21a.5.5 0 0 0 -.707-.707l-1 1-1-1zm.998 6.354a.5.5 0 0 1 .5.5v2.228l1.21 1.21a.5.5 0 1 1 -.707.707l-1-1-1 1a.5.5 0 1 1 -.708-.707l1.205-1.206v-2.232a.5.5 0 0 1 .5-.5zm.978-1.994 1.88-1.085.442-1.65a.5.5 0 1 1 .966.26l-.368 1.365 1.367.365a.5.5 0 1 1 -.258.966l-1.652-.441-1.878 1.084a.5.5 0 1 1 -.5-.866zm-1.742 1.582a.5.5 0 0 1 -.183.683l-1.907 1.1-.442 1.65a.5.5 0 0 1 -.966-.259l.367-1.367-1.367-.366a.5.5 0 1 1 .258-.966l1.65.442 1.907-1.1a.5.5 0 0 1 .683.183zm-.711-.717-1.879-1.084-1.65.441a.5.5 0 1 1 -.259-.965l1.368-.367-.367-1.366a.5.5 0 0 1 .966-.26l.442 1.65 1.879 1.086a.5.5 0 0 1 -.5.866zm2.424 1.4a.5.5 0 1 1 .5-.866l1.907 1.1 1.652-.442a.5.5 0 0 1 .258.966l-1.368.367.367 1.366a.5.5 0 0 1 -.965.26l-.444-1.65z" fill="#18303f" fill-rule="evenodd"/></svg>