<svg fill="none" height="25" viewBox="0 0 25 25" width="25"><path clip-rule="evenodd" d="m4.5 3.913c0-1.353 1.14-2.413 2.5-2.413s2.5 1.06 2.5 2.413v12.67c1.197.77 2 2.084 2 3.59 0 2.41-2.036 4.327-4.5 4.327-2.465 0-4.5-1.916-4.5-4.326 0-1.507.801-2.821 2-3.592zm2.5-1.413c-.85 0-1.5.653-1.5 1.413v12.952a.5.5 0 0 1 -.258.438c-1.05.581-1.742 1.653-1.742 2.87 0 1.817 1.545 3.327 3.5 3.327 1.954 0 3.5-1.51 3.5-3.326 0-1.217-.693-2.29-1.742-2.871a.5.5 0 0 1 -.258-.438v-12.952c0-.76-.65-1.413-1.5-1.413zm.5 9.226a.5.5 0 1 1 -1 0 .5.5 0 0 1 1 0zm-1.492 8.448c0-.557.464-.971.992-.971.527 0 .992.414.992.97 0 .558-.465.972-.992.972-.528 0-.992-.414-.992-.971zm.996.018a.047.047 0 0 0 .004-.018.047.047 0 0 0 -.006-.023l-.002-.001-.002.003-.002.003a.048.048 0 0 0 -.004.019.048.048 0 0 0 .007.023l.001.002.004-.007zm-.004-5.966a.5.5 0 1 0 0-1 .5.5 0 0 0 0 1zm0 2a.5.5 0 1 0 0-1 .5.5 0 0 0 0 1zm0 2a.5.5 0 1 0 0-1 .5.5 0 0 0 0 1zm4.102-14.813a.5.5 0 1 0 0 1h1a.5.5 0 0 0 0-1zm0 4.783a.5.5 0 1 0 0 1h3a.5.5 0 0 0 0-1zm-.5 5.281a.5.5 0 0 1 .5-.5h1a.5.5 0 0 1 0 1h-1a.5.5 0 0 1 -.5-.5z" fill="#18303f" fill-rule="evenodd"/><path d="m17.034 20.564a.498.498 0 0 0 .745 0l3.686-3.686a.5.5 0 1 0 -.707-.707l-3.351 3.351-1.71-1.71a.5.5 0 0 0 -.707.708z" fill="#038c6a"/><path clip-rule="evenodd" d="m18.229 13.344a4.885 4.885 0 1 0 0 9.77 4.885 4.885 0 0 0 0-9.77zm-5.885 4.885a5.885 5.885 0 1 1 11.77 0 5.885 5.885 0 0 1 -11.77 0z" fill="#6d7b82" fill-rule="evenodd"/></svg>