<svg fill="none" height="25" viewBox="0 0 25 25" width="25"><path clip-rule="evenodd" d="m12.657 3.413c0-1.353 1.14-2.413 2.5-2.413s2.5 1.06 2.5 2.413v12.67c1.196.77 2 2.084 2 3.59 0 2.41-2.036 4.327-4.5 4.327-2.465 0-4.5-1.916-4.5-4.326 0-1.507.801-2.821 2-3.592zm2.5-1.413c-.85 0-1.5.653-1.5 1.413v12.952a.5.5 0 0 1 -.258.438c-1.05.581-1.742 1.653-1.742 2.87 0 1.817 1.545 3.327 3.5 3.327 1.954 0 3.5-1.51 3.5-3.326 0-1.217-.694-2.29-1.743-2.871a.5.5 0 0 1 -.257-.438v-12.952c0-.76-.65-1.413-1.5-1.413zm.527 11.226a.5.5 0 1 1 -1 0 .5.5 0 0 1 1 0zm-.527 5.477c-.528 0-.993.414-.993.97 0 .558.465.972.993.972.526 0 .992-.414.992-.971s-.466-.971-.992-.971zm.007.97a.04.04 0 0 1 -.004.02l-.001.003-.002.003a.012.012 0 0 1 -.004-.006.041.041 0 0 1 -.004-.02c0-.006.001-.012.004-.018l.003-.006a.014.014 0 0 1 .004.006.04.04 0 0 1 .004.019zm.02-3.947a.5.5 0 1 0 0-1 .5.5 0 0 0 0 1zm0 2a.5.5 0 1 0 0-1 .5.5 0 0 0 0 1zm3.973-14.813a.5.5 0 0 0 0 1h1a.5.5 0 0 0 0-1zm-.5 5.283a.5.5 0 0 1 .5-.5h3a.5.5 0 0 1 0 1h-3a.5.5 0 0 1 -.5-.5zm.5 4.282a.5.5 0 0 0 0 1h4.667a.5.5 0 1 0 0-1zm-15.657 7.626.968-.968a.5.5 0 0 1 .707.707l-1.8 1.8a.5.5 0 0 1 -.375.17h-.001a.501.501 0 0 1 -.354-.147l-1.822-1.823a.5.5 0 0 1 .707-.707l.97.97v-3.481c0-2.047 1.578-3.625 3.625-3.625h4.167a.5.5 0 0 1 0 1h-4.167c-1.494 0-2.625 1.13-2.625 2.625v3.48z" fill="#18303f" fill-rule="evenodd"/></svg>