<svg fill="none" height="25" viewBox="0 0 26 25" width="26"><path clip-rule="evenodd" d="m7.678 8.656a.681.681 0 0 0 .032-.184v-3.464a4.008 4.008 0 0 0 -4-4.008h-2.728a.475.475 0 0 0 -.184.04l-.048.024a.627.627 0 0 0 -.12.08l-.016.012-.016.012c-.04.048-.08.096-.104.152 0 .008 0 .024-.008.024a.623.623 0 0 0 -.032.168v6.96c0 .296.232.528.528.528a.527.527 0 0 0 .528-.528v-5.552l5.28 5.904a.873.873 0 0 0 .144.112c.008.008.024.016.04.024a.6.6 0 0 0 .208.04.538.538 0 0 0 .192-.032l.008-.008a.06.06 0 0 0 .032-.016.448.448 0 0 0 .12-.08c.016-.016.032-.032.04-.048a.304.304 0 0 0 .072-.104.129.129 0 0 0 .032-.056zm-3.968-6.592a2.946 2.946 0 0 1 2.944 2.944v2.08l-4.488-5.024zm7.522 0h2.728c.296 0 .536-.24.536-.528a.536.536 0 0 0 -.536-.536h-2.728c-.696 0-1.264.576-1.264 1.272v5.464c0 .696.568 1.272 1.264 1.272h2.728a.533.533 0 0 0 0-1.064h-2.728a.212.212 0 0 1 -.208-.208v-2.2h2.448a.533.533 0 0 0 0-1.064h-2.448v-2.2c0-.112.096-.208.208-.208zm6.512 6.408a.52.52 0 0 1 -.52.528.52.52 0 0 1 -.512-.528v-6.936c0-.296.232-.536.512-.536.288 0 .52.24.52.536v4.248l.04-.052a.865.865 0 0 1 .072-.084l1.896-1.936c.24-.248.56-.368.88-.368s.64.12.88.368l1.896 1.928c.02.024.038.048.056.072s.036.048.056.072v-4.248c0-.296.232-.536.52-.536.28 0 .52.24.52.536v6.936c0 .296-.24.528-.52.528a.52.52 0 0 1 -.52-.528 2.97 2.97 0 0 0 -.848-2.08l-1.896-1.928a.203.203 0 0 0 -.288 0l-1.896 1.928a2.97 2.97 0 0 0 -.848 2.08zm-1.237 2.626a1 1 0 0 1 .716.284 1 1 0 0 1 .284.716v10.6h2v-6.8a1 1 0 0 1 .284-.716 1 1 0 0 1 .716-.284h2a1 1 0 0 1 .716.284 1 1 0 0 1 .284.716v6.8h.5a.5.5 0 0 1 0 1h-23a.5.5 0 1 1 0-1h.5v-9.4c0-.263.09-.522.284-.716a.999.999 0 0 1 .716-.284h2c.263 0 .522.09.716.284a.999.999 0 0 1 .284.716v9.4h2v-8.7c0-.264.09-.522.284-.716a.999.999 0 0 1 .716-.284h2a1 1 0 0 1 .716.284 1 1 0 0 1 .284.716v8.7h2v-10.6c0-.164.034-.326.108-.472l-.001-.028a.5.5 0 0 1 .5-.5zm-1.454 1h-.546v10.6h2v-10.6zm-12.546 10.6h2v-9.4h-2zm18-6.8h2v6.8h-2zm-12-1.9h2v8.7h-2zm-8.507-2.4a.5.5 0 0 1 .5-.5h.47a.5.5 0 0 1 0 1h-.47a.5.5 0 0 1 -.5-.5zm4.225 0a.5.5 0 0 1 .5-.5h.939a.5.5 0 0 1 0 1h-.939a.5.5 0 0 1 -.5-.5zm4.694 0a.5.5 0 0 1 .5-.5h.94a.5.5 0 1 1 0 1h-.94a.5.5 0 0 1 -.5-.5zm9.39 0a.5.5 0 0 1 .5-.5h.938a.5.5 0 0 1 0 1h-.939a.5.5 0 0 1 -.5-.5zm4.694 0a.5.5 0 0 1 .5-.5h.47a.5.5 0 0 1 0 1h-.47a.5.5 0 0 1 -.5-.5z" fill="#18303f" fill-rule="evenodd"/></svg>