<svg width="25" height="25" viewBox="0 0 25 25" fill="none"><g id="threshold_warning_colorful"><path fill-rule="evenodd" clip-rule="evenodd" d="M23.216.784A1 1 0 0 0 22.5.5h-4a1 1 0 0 0-.716.284 1 1 0 0 0-.284.716v11h-.626a.5.5 0 1 0 0 1h.626v9.6h-2v-6.6a1 1 0 0 0-.284-.716 1 1 0 0 0-.716-.284h-4a.999.999 0 0 0-.716.284.999.999 0 0 0-.284.716v6.6h-2v-3.6a.999.999 0 0 0-.284-.716.999.999 0 0 0-.716-.284h-4a.999.999 0 0 0-.716.284.999.999 0 0 0-.284.716v3.6H1a.5.5 0 0 0 0 1h23a.5.5 0 1 0 0-1h-.5V1.5a1 1 0 0 0-.284-.716ZM6.5 23.1h-4v-3.6h4v3.6Zm12-21.6h4v21.6h-4V1.5Zm-4 15h-4v6.6h4v-6.6Zm-14.007-4a.5.5 0 0 0 0 1h1.092a.5.5 0 1 0 0-1H.493Zm3.276 0a.5.5 0 0 0 0 1h2.184a.5.5 0 1 0 0-1H3.77Zm4.368 0a.5.5 0 0 0 0 1h2.184a.5.5 0 1 0 0-1H8.137Zm4.368 0a.5.5 0 0 0 0 1h2.184a.5.5 0 1 0 0-1h-2.184Z" fill="#18303F" yggColor="iconDefault"/><path fill-rule="evenodd" clip-rule="evenodd" d="M4.467 1.835C5.247.558 7.1.558 7.88 1.835L10.975 6.9c.814 1.333-.145 3.043-1.707 3.043h-6.19c-1.56 0-2.52-1.71-1.706-3.043l3.095-5.065Zm2.56.521a1 1 0 0 0-1.707 0L2.225 7.422a1 1 0 0 0 .854 1.521h6.189a1 1 0 0 0 .853-1.521L7.027 2.356Z" fill="#6D7B82" yggColor="iconWeak"/><g id="backgroundWarningDefault" fill="#F28102"><path d="M5.672 5.726a.5.5 0 1 0 1 0V4.474a.5.5 0 1 0-1 0v1.252ZM6.153 7.98a.5.5 0 1 0 0-1 .5.5 0 0 0 0 1Z"/></g></g></svg>