<svg width="25" height="25" viewBox="0 0 25 25" fill="none"><g id="threshold_new_colorful"><path fill-rule="evenodd" clip-rule="evenodd" d="M17.216 11.784a1 1 0 0 0-.716-.284h-2.393a.5.5 0 0 0-.499.528 1.052 1.052 0 0 0-.108.472v10.6h-2v-8.7a1 1 0 0 0-.284-.716 1 1 0 0 0-.716-.284h-2a1 1 0 0 0-.716.284 1 1 0 0 0-.284.716v8.7h-2v-9.4a1 1 0 0 0-.284-.716A1 1 0 0 0 4.5 12.7h-2a1 1 0 0 0-.716.284 1 1 0 0 0-.284.716v9.4H1a.5.5 0 0 0 0 1h23a.5.5 0 0 0 0-1h-.5v-6.8a1 1 0 0 0-.284-.716 1 1 0 0 0-.716-.284h-2a1 1 0 0 0-.716.284 1 1 0 0 0-.284.716v6.8h-2V12.5a1 1 0 0 0-.284-.716ZM14.5 12.5h2v10.6h-2V12.5Zm-10 10.6h-2v-9.4h2v9.4Zm18-6.8h-2v6.8h2v-6.8Zm-12-1.9h-2v8.7h2v-8.7ZM.493 11.5a.5.5 0 0 0 0 1h.47a.5.5 0 0 0 0-1h-.47Zm4.225 0a.5.5 0 0 0 0 1h.94a.5.5 0 0 0 0-1h-.94Zm4.695 0a.5.5 0 0 0 0 1h.939a.5.5 0 1 0 0-1h-.94Zm9.389 0a.5.5 0 0 0 0 1h.939a.5.5 0 0 0 0-1h-.94Zm4.694 0a.5.5 0 0 0 0 1h.47a.5.5 0 0 0 0-1h-.47Z" fill="#18303F" yggColor="iconDefault"/><g id="iconCritical" fill="#C70546"><path d="M7.671 9.058a.681.681 0 0 0 .032-.184V5.41a4.008 4.008 0 0 0-4-4.008H.975a.475.475 0 0 0-.184.04l-.048.024a.626.626 0 0 0-.12.08c-.008.008-.024.016-.032.024-.04.048-.08.096-.104.152 0 .008 0 .024-.008.024-.016.056-.032.112-.032.168v6.96c0 .296.232.528.528.528a.527.527 0 0 0 .528-.528V3.322l5.28 5.904c0 .008.008.008.008.008.04.04.088.072.136.104.008.008.024.016.04.024a.6.6 0 0 0 .208.04.538.538 0 0 0 .192-.032l.008-.008a.06.06 0 0 0 .032-.016.448.448 0 0 0 .12-.08c.016-.016.032-.032.04-.048a.304.304 0 0 0 .072-.104.129.129 0 0 0 .032-.056ZM3.703 2.466A2.946 2.946 0 0 1 6.647 5.41v2.08L2.16 2.466h1.544ZM11.226 2.466h2.728c.296 0 .536-.24.536-.528a.536.536 0 0 0-.536-.536h-2.728c-.696 0-1.264.576-1.264 1.272v5.464c0 .696.568 1.272 1.264 1.272h2.728a.533.533 0 0 0 0-1.064h-2.728a.212.212 0 0 1-.208-.208v-2.2h2.448a.533.533 0 0 0 0-1.064h-2.448v-2.2c0-.112.096-.208.208-.208ZM17.217 9.402a.52.52 0 0 0 .52-.528c0-.784.304-1.52.848-2.08l1.896-1.928c.08-.08.208-.08.288 0l1.896 1.928a2.97 2.97 0 0 1 .848 2.08.52.52 0 0 0 .52.528c.28 0 .52-.232.52-.528V1.938a.533.533 0 0 0-.52-.536c-.288 0-.52.24-.52.536v4.248c-.04-.048-.072-.096-.112-.144l-1.896-1.928a1.216 1.216 0 0 0-.88-.368c-.32 0-.64.12-.88.368L17.85 6.05c-.04.04-.072.088-.112.136V1.938a.528.528 0 0 0-.52-.536c-.28 0-.512.24-.512.536v6.936a.52.52 0 0 0 .512.528Z"/></g></g></svg>