<svg fill="none" height="25" viewBox="0 0 26 25" width="26"><path clip-rule="evenodd" d="m18.216 11.784a1 1 0 0 0 -.716-.284h-2.393a.5.5 0 0 0 -.499.528 1.052 1.052 0 0 0 -.108.472v10.6h-2v-8.7a1 1 0 0 0 -.284-.716 1 1 0 0 0 -.716-.284h-2a1 1 0 0 0 -.716.284 1 1 0 0 0 -.284.716v8.7h-2v-9.4a1 1 0 0 0 -.284-.716 1 1 0 0 0 -.716-.284h-2a1 1 0 0 0 -.716.284 1 1 0 0 0 -.284.716v9.4h-.5a.5.5 0 0 0 0 1h23a.5.5 0 0 0 0-1h-.5v-6.8a1 1 0 0 0 -.284-.716 1 1 0 0 0 -.716-.284h-2a1 1 0 0 0 -.716.284 1 1 0 0 0 -.284.716v6.8h-2v-10.6a1 1 0 0 0 -.284-.716zm-2.716.716h2v10.6h-2zm-10 10.6h-2v-9.4h2zm18-6.8h-2v6.8h2zm-12-1.9h-2v8.7h2zm-10.007-2.9a.5.5 0 0 0 0 1h.47a.5.5 0 0 0 0-1zm4.225 0a.5.5 0 0 0 0 1h.94a.5.5 0 0 0 0-1zm4.695 0a.5.5 0 0 0 0 1h.939a.5.5 0 1 0 0-1h-.94zm9.389 0a.5.5 0 0 0 0 1h.939a.5.5 0 0 0 0-1h-.94zm4.694 0a.5.5 0 0 0 0 1h.47a.5.5 0 0 0 0-1z" fill="#18303f" fill-rule="evenodd"/></svg>