<svg width="26" height="25" viewBox="0 0 26 25" fill="none"><g id="threshold_warning"><path fill-rule="evenodd" clip-rule="evenodd" d="M23.223 1.284A1 1 0 0 0 22.507 1h-4a1 1 0 0 0-.716.284 1 1 0 0 0-.284.716v11h-.627a.5.5 0 1 0 0 1h.627v9.6h-2V17a1 1 0 0 0-.284-.716 1 1 0 0 0-.716-.284h-4a1 1 0 0 0-.716.284 1 1 0 0 0-.284.716v6.6h-2V20a1 1 0 0 0-.284-.716.999.999 0 0 0-.716-.284h-4a.999.999 0 0 0-.716.284 1 1 0 0 0-.284.716v3.6h-.5a.5.5 0 1 0 0 1h23a.5.5 0 0 0 0-1h-.5V2a1 1 0 0 0-.284-.716ZM6.507 23.6h-4V20h4v3.6Zm12-21.6h4v21.6h-4V2Zm-4 15h-4v6.6h4V17ZM.5 13a.5.5 0 0 0 0 1h1.092a.5.5 0 0 0 0-1H.5Zm3.276 0a.5.5 0 0 0 0 1H5.96a.5.5 0 0 0 0-1H3.776Zm4.368 0a.5.5 0 0 0 0 1h2.184a.5.5 0 0 0 0-1H8.144Zm4.368 0a.5.5 0 0 0 0 1h2.184a.5.5 0 1 0 0-1h-2.184ZM4.473 2.335c.78-1.277 2.634-1.277 3.414 0L10.98 7.4c.814 1.333-.145 3.043-1.707 3.043H3.085c-1.561 0-2.52-1.71-1.706-3.043l3.094-5.065Zm2.56.52a1 1 0 0 0-1.706 0L2.232 7.922a1 1 0 0 0 .853 1.522h6.19a1 1 0 0 0 .853-1.522L7.033 2.856ZM6.18 6.727a.5.5 0 0 1-.5-.5V4.973a.5.5 0 0 1 1 0v1.253a.5.5 0 0 1-.5.5Zm.48 1.253a.5.5 0 1 1-1 0 .5.5 0 0 1 1 0Z" fill="#18303F" yggColor="iconDefault"/></g></svg>