<svg width="25" height="25" viewBox="0 0 25 25" fill="none"><g id="threshold_warning"><path fill-rule="evenodd" clip-rule="evenodd" d="M23.216.784A.999.999 0 0 0 22.5.5h-4a.999.999 0 0 0-.716.284.999.999 0 0 0-.284.716v11h-.627a.5.5 0 0 0 0 1h.627v9.6h-2v-6.6a1 1 0 0 0-.284-.716 1 1 0 0 0-.716-.284h-4a1 1 0 0 0-.716.284 1 1 0 0 0-.284.716v6.6h-2v-3.6a1 1 0 0 0-.284-.716.999.999 0 0 0-.716-.284h-4a.999.999 0 0 0-.716.284 1 1 0 0 0-.284.716v3.6H1a.5.5 0 1 0 0 1h23a.5.5 0 0 0 0-1h-.5V1.5a.999.999 0 0 0-.284-.716ZM6.5 23.1h-4v-3.6h4v3.6Zm12-21.6h4v21.6h-4V1.5Zm-4 15h-4v6.6h4v-6.6Zm-14.007-4a.5.5 0 0 0 0 1h1.092a.5.5 0 0 0 0-1H.493Zm3.276 0a.5.5 0 0 0 0 1h2.184a.5.5 0 0 0 0-1H3.77Zm4.368 0a.5.5 0 0 0 0 1h2.184a.5.5 0 0 0 0-1H8.137Zm4.368 0a.5.5 0 1 0 0 1h2.184a.5.5 0 0 0 0-1h-2.184ZM4.466 1.835C5.246.558 7.1.558 7.88 1.835L10.974 6.9c.815 1.333-.145 3.043-1.706 3.043h-6.19c-1.561 0-2.52-1.71-1.706-3.043l3.094-5.065Zm2.56.52a1 1 0 0 0-1.706 0L2.225 7.422a1 1 0 0 0 .853 1.522h6.19a1 1 0 0 0 .853-1.522L7.026 2.356Zm-.854 3.871a.5.5 0 0 1-.5-.5V4.473a.5.5 0 0 1 1 0v1.253a.5.5 0 0 1-.5.5Zm.48 1.253a.5.5 0 1 1-1 0 .5.5 0 0 1 1 0Z" fill="#18303F" yggColor="iconDefault"/></g></svg>