<svg fill="none" height="25" viewBox="0 0 26 25" width="26"><path clip-rule="evenodd" d="m23.223 1.284a1 1 0 0 0 -.716-.284h-4a1 1 0 0 0 -.716.284 1 1 0 0 0 -.284.716v11h-.627a.5.5 0 1 0 0 1h.627v9.6h-2v-6.6a1 1 0 0 0 -.284-.716 1 1 0 0 0 -.716-.284h-4a1 1 0 0 0 -.716.284 1 1 0 0 0 -.284.716v6.6h-2v-3.6a1 1 0 0 0 -.284-.716.999.999 0 0 0 -.716-.284h-4a.999.999 0 0 0 -.716.284 1 1 0 0 0 -.284.716v3.6h-.5a.5.5 0 1 0 0 1h23a.5.5 0 0 0 0-1h-.5v-21.6a1 1 0 0 0 -.284-.716zm-16.716 22.316h-4v-3.6h4zm12-21.6h4v21.6h-4zm-4 15h-4v6.6h4zm-14.007-4a.5.5 0 0 0 0 1h1.092a.5.5 0 0 0 0-1zm3.276 0a.5.5 0 0 0 0 1h2.184a.5.5 0 0 0 0-1zm4.368 0a.5.5 0 0 0 0 1h2.184a.5.5 0 0 0 0-1zm4.368 0a.5.5 0 0 0 0 1h2.184a.5.5 0 1 0 0-1zm-8.039-10.665c.78-1.277 2.634-1.277 3.414 0l3.093 5.065c.814 1.333-.145 3.043-1.707 3.043h-6.188c-1.561 0-2.52-1.71-1.706-3.043zm2.56.52a1 1 0 0 0 -1.706 0l-3.095 5.067a1 1 0 0 0 .853 1.522h6.19a1 1 0 0 0 .853-1.522l-3.095-5.066zm-.853 3.872a.5.5 0 0 1 -.5-.5v-1.254a.5.5 0 0 1 1 0v1.253a.5.5 0 0 1 -.5.5zm.48 1.253a.5.5 0 1 1 -1 0 .5.5 0 0 1 1 0z" fill="#18303f" fill-rule="evenodd"/></svg>