<svg width="25" height="25" viewBox="0 0 25 25" fill="none"><g id="threshold_new"><path fill-rule="evenodd" clip-rule="evenodd" d="M7.671 9.058a.681.681 0 0 0 .032-.184V5.41a4.008 4.008 0 0 0-4-4.008H.975a.475.475 0 0 0-.184.04l-.048.024a.626.626 0 0 0-.136.092l-.016.012a.641.641 0 0 0-.104.152c0 .008 0 .024-.008.024-.016.056-.032.112-.032.168v6.96c0 .296.232.528.528.528a.527.527 0 0 0 .528-.528V3.322l5.28 5.904c0 .008.008.008.008.008.04.04.088.072.136.104.008.008.024.016.04.024a.6.6 0 0 0 .208.04.538.538 0 0 0 .192-.032l.008-.008a.06.06 0 0 0 .032-.016.448.448 0 0 0 .12-.08c.016-.016.032-.032.04-.048a.304.304 0 0 0 .072-.104.129.129 0 0 0 .032-.056ZM3.703 2.466A2.946 2.946 0 0 1 6.647 5.41v2.08L2.16 2.466h1.544Zm7.523 0h2.728c.296 0 .536-.24.536-.528a.536.536 0 0 0-.536-.536h-2.728c-.696 0-1.264.576-1.264 1.272v5.464c0 .696.568 1.272 1.264 1.272h2.728a.533.533 0 0 0 0-1.064h-2.728a.212.212 0 0 1-.208-.208v-2.2h2.448a.533.533 0 0 0 0-1.064h-2.448v-2.2c0-.112.096-.208.208-.208Zm6.511 6.408a.52.52 0 0 1-.52.528.52.52 0 0 1-.512-.528V1.938c0-.296.232-.536.512-.536.288 0 .52.24.52.536v4.248c.015-.017.028-.035.041-.052a.864.864 0 0 1 .071-.084l1.896-1.936c.24-.248.56-.368.88-.368.32 0 .64.12.88.368l1.896 1.928c.02.024.038.048.056.072.018.024.036.048.056.072V1.938c0-.296.232-.536.52-.536.28 0 .52.24.52.536v6.936c0 .296-.24.528-.52.528a.52.52 0 0 1-.52-.528 2.97 2.97 0 0 0-.848-2.08L20.77 4.866a.203.203 0 0 0-.288 0l-1.896 1.928a2.97 2.97 0 0 0-.848 2.08ZM16.5 11.5a1 1 0 0 1 .716.284 1 1 0 0 1 .284.716v10.6h2v-6.8a1 1 0 0 1 .284-.716 1 1 0 0 1 .716-.284h2a1 1 0 0 1 .716.284 1 1 0 0 1 .284.716v6.8h.5a.5.5 0 0 1 0 1H1a.5.5 0 0 1 0-1h.5v-9.4a1 1 0 0 1 .284-.716A1 1 0 0 1 2.5 12.7h2a1 1 0 0 1 .716.284 1 1 0 0 1 .284.716v9.4h2v-8.7a1 1 0 0 1 .284-.716A1 1 0 0 1 8.5 13.4h2a1 1 0 0 1 .716.284 1 1 0 0 1 .284.716v8.7h2V12.5c0-.164.035-.326.108-.472V12a.5.5 0 0 1 .5-.5H16.5Zm-1.454 1H14.5v10.6h2V12.5h-1.454ZM2.5 23.1h2v-9.4h-2v9.4Zm18-6.8h2v6.8h-2v-6.8Zm-12-1.9h2v8.7h-2v-8.7ZM-.007 12a.5.5 0 0 1 .5-.5h.47a.5.5 0 0 1 0 1h-.47a.5.5 0 0 1-.5-.5Zm4.225 0a.5.5 0 0 1 .5-.5h.94a.5.5 0 0 1 0 1h-.94a.5.5 0 0 1-.5-.5Zm4.695 0a.5.5 0 0 1 .5-.5h.939a.5.5 0 1 1 0 1h-.94a.5.5 0 0 1-.5-.5Zm9.389 0a.5.5 0 0 1 .5-.5h.939a.5.5 0 0 1 0 1h-.94a.5.5 0 0 1-.5-.5Zm4.694 0a.5.5 0 0 1 .5-.5h.47a.5.5 0 0 1 0 1h-.47a.5.5 0 0 1-.5-.5Z" fill="#18303F" yggColor="iconDefault"/></g></svg>