<svg width="26" height="25" viewBox="0 0 26 25" fill="none"><g yggColor="threshold"><path yggColor="iconDefault" fill-rule="evenodd" clip-rule="evenodd" d="M18.216 11.784a1 1 0 0 0-.716-.284h-2.393a.5.5 0 0 0-.499.528 1.052 1.052 0 0 0-.108.472v10.6h-2v-8.7a1 1 0 0 0-.284-.716 1 1 0 0 0-.716-.284h-2a1 1 0 0 0-.716.284 1 1 0 0 0-.284.716v8.7h-2v-9.4a1 1 0 0 0-.284-.716A1 1 0 0 0 5.5 12.7h-2a1 1 0 0 0-.716.284 1 1 0 0 0-.284.716v9.4H2a.5.5 0 0 0 0 1h23a.5.5 0 0 0 0-1h-.5v-6.8a1 1 0 0 0-.284-.716 1 1 0 0 0-.716-.284h-2a1 1 0 0 0-.716.284 1 1 0 0 0-.284.716v6.8h-2V12.5a1 1 0 0 0-.284-.716ZM15.5 12.5h2v10.6h-2V12.5Zm-10 10.6h-2v-9.4h2v9.4Zm18-6.8h-2v6.8h2v-6.8Zm-12-1.9h-2v8.7h2v-8.7ZM1.493 11.5a.5.5 0 0 0 0 1h.47a.5.5 0 0 0 0-1h-.47Zm4.225 0a.5.5 0 0 0 0 1h.94a.5.5 0 0 0 0-1h-.94Zm4.695 0a.5.5 0 0 0 0 1h.939a.5.5 0 1 0 0-1h-.94Zm9.389 0a.5.5 0 0 0 0 1h.939a.5.5 0 0 0 0-1h-.94Zm4.694 0a.5.5 0 0 0 0 1h.47a.5.5 0 0 0 0-1h-.47Z" fill="#18303F"/></g></svg>