<svg width="25" height="25" viewBox="0 0 25 25" fill="none"><g id="tide"><path fill-rule="evenodd" clip-rule="evenodd" d="M12.403 1.024a.898.898 0 0 1 .697.139.59.59 0 0 1 .337.353c.644.963 1.824 2.78 2.856 4.663.53.965 1.024 1.957 1.389 2.866.358.894.612 1.762.612 2.46 0 3.194-2.534 5.704-5.74 5.704-3.209 0-5.74-2.51-5.74-5.704 0-.698.252-1.566.611-2.46.364-.91.86-1.901 1.388-2.866 1.06-1.932 2.273-3.794 2.905-4.735a.57.57 0 0 1 .063-.076c.159-.157.373-.295.622-.344ZM9.69 6.66c1.02-1.86 2.192-3.662 2.825-4.608a.332.332 0 0 1 .041-.028l.01-.005.004.002c.63.938 1.816 2.759 2.846 4.64.52.946.994 1.9 1.337 2.756.349.871.54 1.591.54 2.09 0 2.634-2.079 4.703-4.74 4.703-2.662 0-4.74-2.069-4.74-4.704 0-.498.191-1.218.54-2.089.343-.857.818-1.81 1.337-2.757Zm-4.9 11.35a.5.5 0 0 1 .687-.164c2.136 1.313 4.554 2.107 7.054 2.008h.04c2.513.1 4.925-.598 7.04-2a.5.5 0 1 1 .552.835c-2.279 1.509-4.89 2.269-7.611 2.165-2.734.103-5.339-.767-7.599-2.156a.5.5 0 0 1-.164-.688ZM1.322 19.43a.5.5 0 1 0-.598.802c3.44 2.562 7.526 3.845 11.82 3.742 4.21.21 8.295-1.186 11.722-3.632a.5.5 0 1 0-.581-.814c-3.276 2.338-7.15 3.648-11.108 3.447a.514.514 0 0 0-.038-.001c-4.081.101-7.954-1.114-11.217-3.544Z" fill="#18303F" yggColor="iconDefault"/></g></svg>