<svg width="25" height="25" viewBox="0 0 25 25" fill="none"><g yggColor="timeline"><path yggColor="iconDefault" fill-rule="evenodd" clip-rule="evenodd" d="M3.5 4A1.5 1.5 0 0 1 5 2.5h1.657a.5.5 0 1 0 0-1H5A2.5 2.5 0 0 0 2.5 4v16A2.5 2.5 0 0 0 5 22.5h15a2.5 2.5 0 0 0 2.5-2.5V4A2.5 2.5 0 0 0 20 1.5h-1.45a.5.5 0 0 0 0 1H20A1.5 1.5 0 0 1 21.5 4v16a1.5 1.5 0 0 1-1.5 1.5H5A1.5 1.5 0 0 1 3.5 20V4ZM9 1.5a.5.5 0 0 0 0 1h1a.5.5 0 0 0 0-1H9Zm2.5.5a.5.5 0 0 1 .5-.5h1a.5.5 0 0 1 0 1h-1a.5.5 0 0 1-.5-.5Zm3.5-.5a.5.5 0 0 0 0 1h1a.5.5 0 0 0 0-1h-1Zm-5 5a.5.5 0 0 1 .5-.5h8a.5.5 0 0 1 0 1h-8a.5.5 0 0 1-.5-.5Zm0 8a.5.5 0 0 1 .5-.5h8a.5.5 0 0 1 0 1h-8a.5.5 0 0 1-.5-.5Zm0-4a.5.5 0 0 1 .5-.5h5a.5.5 0 0 1 0 1h-5a.5.5 0 0 1-.5-.5Zm0 8a.5.5 0 0 1 .5-.5h5a.5.5 0 0 1 0 1h-5a.5.5 0 0 1-.5-.5ZM7 5a1 1 0 1 0 0 2 1 1 0 0 0 0-2Zm0 4a1 1 0 1 0 0 2 1 1 0 0 0 0-2Zm0 4a1 1 0 1 0 0 2 1 1 0 0 0 0-2Zm0 4a1 1 0 1 0 0 2 1 1 0 0 0 0-2Z" fill="#18303F"/></g></svg>