<svg fill="none" height="25" viewBox="0 0 25 25" width="25"><path clip-rule="evenodd" d="m3.5 4a1.5 1.5 0 0 1 1.5-1.5h1.657a.5.5 0 1 0 0-1h-1.657a2.5 2.5 0 0 0 -2.5 2.5v16a2.5 2.5 0 0 0 2.5 2.5h15a2.5 2.5 0 0 0 2.5-2.5v-16a2.5 2.5 0 0 0 -2.5-2.5h-1.45a.5.5 0 0 0 0 1h1.45a1.5 1.5 0 0 1 1.5 1.5v16a1.5 1.5 0 0 1 -1.5 1.5h-15a1.5 1.5 0 0 1 -1.5-1.5zm5.5-2.5a.5.5 0 0 0 0 1h1a.5.5 0 0 0 0-1zm2.5.5a.5.5 0 0 1 .5-.5h1a.5.5 0 0 1 0 1h-1a.5.5 0 0 1 -.5-.5zm3.5-.5a.5.5 0 0 0 0 1h1a.5.5 0 0 0 0-1zm-5 5a.5.5 0 0 1 .5-.5h8a.5.5 0 0 1 0 1h-8a.5.5 0 0 1 -.5-.5zm0 8a.5.5 0 0 1 .5-.5h8a.5.5 0 0 1 0 1h-8a.5.5 0 0 1 -.5-.5zm0-4a.5.5 0 0 1 .5-.5h5a.5.5 0 0 1 0 1h-5a.5.5 0 0 1 -.5-.5zm0 8a.5.5 0 0 1 .5-.5h5a.5.5 0 0 1 0 1h-5a.5.5 0 0 1 -.5-.5zm-3-13.5a1 1 0 1 0 0 2 1 1 0 0 0 0-2zm0 4a1 1 0 1 0 0 2 1 1 0 0 0 0-2zm0 4a1 1 0 1 0 0 2 1 1 0 0 0 0-2zm0 4a1 1 0 1 0 0 2 1 1 0 0 0 0-2z" fill="#18303f" fill-rule="evenodd"/></svg>