<svg width="25" height="25" viewBox="0 0 25 25" fill="none" xmlns="http://www.w3.org/2000/svg">
<g id="tip">
<path id="iconDefault" fill-rule="evenodd" clip-rule="evenodd" d="M12.5 3.95825C7.78255 3.95825 3.95831 7.78249 3.95831 12.4999C3.95831 17.2174 7.78255 21.0416 12.5 21.0416C17.2174 21.0416 21.0416 17.2174 21.0416 12.4999C21.0416 7.78249 17.2174 3.95825 12.5 3.95825ZM2.70831 12.4999C2.70831 7.09213 7.09219 2.70825 12.5 2.70825C17.9078 2.70825 22.2916 7.09213 22.2916 12.4999C22.2916 17.9077 17.9078 22.2916 12.5 22.2916C7.09219 22.2916 2.70831 17.9077 2.70831 12.4999ZM12.5 8.95825C11.4644 8.95825 10.625 9.79772 10.625 10.8333C10.625 11.1784 10.3452 11.4583 9.99998 11.4583C9.6548 11.4583 9.37498 11.1784 9.37498 10.8333C9.37498 9.10736 10.7741 7.70825 12.5 7.70825C14.2259 7.70825 15.625 9.10736 15.625 10.8333C15.625 12.3451 14.5514 13.6062 13.125 13.8957V14.9999C13.125 15.3451 12.8452 15.6249 12.5 15.6249C12.1548 15.6249 11.875 15.3451 11.875 14.9999V13.3333C11.875 12.9881 12.1548 12.7083 12.5 12.7083C13.5355 12.7083 14.375 11.8688 14.375 10.8333C14.375 9.79772 13.5355 8.95825 12.5 8.95825ZM12.5 17.7083C12.8452 17.7083 13.125 17.9881 13.125 18.3333V18.4999C13.125 18.8451 12.8452 19.1249 12.5 19.1249C12.1548 19.1249 11.875 18.8451 11.875 18.4999V18.3333C11.875 17.9881 12.1548 17.7083 12.5 17.7083Z" fill="#18303F"/>
</g>
</svg>
