<svg width="25" height="25" viewBox="0 0 25 25" fill="none"><g yggColor="toilet"><path yggColor="backgroundHighlightDefault" fill-rule="evenodd" clip-rule="evenodd" d="m16.645 17.3-.002-.026V14.98h2.336c1.037 0 1.881-.716 2.439-1.673.564-.97.896-2.275.896-3.688 0-1.413-.334-2.719-.9-3.688-.556-.954-1.397-1.67-2.428-1.673H9.26c-1.038 0-1.882.716-2.44 1.674-.564.969-.896 2.274-.896 3.687v7.07l-1.26.489-.68-.312a.898.898 0 0 0-1.212.41l-.005.012a.913.913 0 0 0 .019.79 5.855 5.855 0 0 0 2.896 2.568.5.5 0 0 0 .186.037l7.296.055a3.36 3.36 0 0 0 1.518-.292 3.34 3.34 0 0 0 1.963-3.146ZM7.684 6.435c-.46.79-.76 1.916-.76 3.184v6.832a1.255 1.255 0 0 1 .235.052l1.672.67.869-.427a.768.768 0 0 1 .345-.1h.009a.897.897 0 0 1 .918.832 2.337 2.337 0 0 0 2.218 2.26l.2.002a2.338 2.338 0 0 0 2.255-2.32.507.507 0 0 1-.003-.056V9.62c0-1.413.334-2.719.9-3.688.14-.242.3-.469.477-.673H9.26c-.534 0-1.108.374-1.575 1.177Zm9.331 7.545h-.373v-.503c.114.179.239.348.373.503Zm1.955 0h.015c.532-.003 1.102-.377 1.568-1.176.46-.791.76-1.916.76-3.185 0-1.268-.302-2.393-.763-3.184-.47-.804-1.043-1.177-1.572-1.177-.53 0-1.104.373-1.573 1.177-.461.791-.763 1.916-.763 3.184 0 1.269.3 2.394.76 3.185.461.79 1.024 1.165 1.552 1.176h.016Zm-8.984 3.74c.071.751.396 1.457.92 2.001l-4.932-.037a4.855 4.855 0 0 1-2.125-1.78l.59.271a.5.5 0 0 0 .39.012l1.91-.74a.26.26 0 0 1 .085 0l1.842.738a.5.5 0 0 0 .407-.016l.913-.45Zm7.966-9.47c.173-.347.505-.751 1.02-.751s.847.404 1.02.75c.188.377.29.862.29 1.37 0 .508-.102.993-.29 1.37-.173.346-.505.75-1.02.75s-.847-.404-1.02-.75c-.188-.377-.29-.862-.29-1.37 0-.508.102-.993.29-1.37Zm.894.447c-.105.21-.184.535-.184.922 0 .386.079.712.184.922.054.109.1.16.126.183a.594.594 0 0 0 .125-.183c.105-.21.185-.536.185-.922 0-.387-.08-.712-.185-.922a.594.594 0 0 0-.125-.183.595.595 0 0 0-.126.183Zm-9.602.922a.5.5 0 1 1-1 0 .5.5 0 0 1 1 0Zm4.77 0a.5.5 0 1 1-1 0 .5.5 0 0 1 1 0Zm.5 5.345a.5.5 0 1 0 0-1 .5.5 0 0 0 0 1Zm-1.888-.484a.5.5 0 1 1-1 0 .5.5 0 0 1 1 0Zm-2.382 0a.5.5 0 1 1-1 0 .5.5 0 0 1 1 0Zm1.382-4.861a.5.5 0 1 1-1 0 .5.5 0 0 1 1 0Z" fill="#02A8F1"/></g></svg>