<svg fill="none" height="25" viewBox="0 0 25 25" width="25"><path clip-rule="evenodd" d="m7.708 3.333a2.292 2.292 0 0 1 2.292-2.291h5a2.292 2.292 0 0 1 2.292 2.291v1.042h4.375a.625.625 0 1 1 0 1.25h-1.042v12.708a3.958 3.958 0 0 1 -3.958 3.959h-8.334a3.958 3.958 0 0 1 -3.958-3.959v-12.708h-1.042a.625.625 0 0 1 0-1.25h4.375zm1.25 1.042h7.084v-1.042c0-.575-.467-1.041-1.042-1.041h-5c-.575 0-1.042.466-1.042 1.041zm-3.333 1.25v12.708a2.708 2.708 0 0 0 2.708 2.709h8.334a2.708 2.708 0 0 0 2.708-2.709v-12.708zm4.375 3.75c.345 0 .625.28.625.625v6.667a.625.625 0 1 1 -1.25 0v-6.667c0-.345.28-.625.625-.625zm5 0c.345 0 .625.28.625.625v6.667a.625.625 0 1 1 -1.25 0v-6.667c0-.345.28-.625.625-.625z" fill="#18303f" fill-rule="evenodd"/></svg>