<svg width="25" height="25" viewBox="0 0 25 25" fill="none"><g id="trash"><path id="iconDefault" fill-rule="evenodd" clip-rule="evenodd" d="M7.708 3.333A2.292 2.292 0 0 1 10 1.042h5a2.292 2.292 0 0 1 2.292 2.291v1.042h4.375a.625.625 0 1 1 0 1.25h-1.042v12.708a3.958 3.958 0 0 1-3.958 3.959H8.333a3.958 3.958 0 0 1-3.958-3.959V5.625H3.333a.625.625 0 0 1 0-1.25h4.375V3.333Zm1.25 1.042h7.084V3.333c0-.575-.467-1.041-1.042-1.041h-5c-.575 0-1.042.466-1.042 1.041v1.042Zm-3.333 1.25v12.708a2.708 2.708 0 0 0 2.708 2.709h8.334a2.708 2.708 0 0 0 2.708-2.709V5.625H5.625ZM10 9.375c.345 0 .625.28.625.625v6.667a.625.625 0 1 1-1.25 0V10c0-.345.28-.625.625-.625Zm5 0c.345 0 .625.28.625.625v6.667a.625.625 0 1 1-1.25 0V10c0-.345.28-.625.625-.625Z" fill="#18303F"/></g></svg>