<svg width="25" height="25" viewBox="0 0 25 25" fill="none"><g id="tree"><path fill-rule="evenodd" clip-rule="evenodd" d="M14 6.5h-1V9c0 .672.249 1.284.738 1.731l.007.007.008.008c.464.464 1.14.754 1.747.754h2.993c.729 0 1.598.194 2.297.745.719.566 1.203 1.466 1.203 2.755v3.5H23c.414 0 .797.14 1.079.421.281.282.421.665.421 1.079v3c0 .414-.14.797-.421 1.079-.282.28-.665.421-1.079.421h-3c-.414 0-.797-.14-1.079-.421-.281-.282-.421-.665-.421-1.079v-3c0-.414.14-.797.421-1.079.282-.28.665-.421 1.079-.421h.993V15c0-1.011-.365-1.61-.822-1.97-.476-.374-1.106-.53-1.678-.53H15.5c-.889 0-1.81-.407-2.446-1.039a6.324 6.324 0 0 1-.054-.05V18.5h1c.414 0 .797.14 1.079.421.281.282.421.665.421 1.079v3c0 .414-.14.797-.421 1.079-.282.28-.665.421-1.079.421h-3c-.414 0-.797-.14-1.079-.421C9.64 23.797 9.5 23.414 9.5 23v-3c0-.414.14-.797.421-1.079.282-.28.665-.421 1.079-.421h1v-7.09a6.324 6.324 0 0 1-.054.051c-.636.632-1.557 1.039-2.446 1.039h-3c-.572 0-1.202.156-1.678.53C4.366 13.39 4 13.99 4 15v3.5h1c.414 0 .797.14 1.079.421.281.282.421.665.421 1.079v3c0 .414-.14.797-.421 1.079-.282.28-.665.421-1.079.421H2c-.414 0-.797-.14-1.079-.421C.64 23.797.5 23.414.5 23v-3c0-.414.14-.797.421-1.079.282-.28.665-.421 1.079-.421h1V15c0-1.289.484-2.19 1.203-2.755.699-.55 1.569-.745 2.297-.745h3c.607 0 1.283-.29 1.747-.754l.005-.005.01-.01C11.751 10.284 12 9.671 12 9V6.5h-1c-.414 0-.797-.14-1.079-.421C9.64 5.797 9.5 5.414 9.5 5V2c0-.414.14-.797.421-1.079C10.203.641 10.586.5 11 .5h3c.414 0 .797.14 1.079.421.281.282.421.665.421 1.079v3c0 .414-.14.797-.421 1.079-.282.28-.665.421-1.079.421Zm-3.371-4.871c-.069.068-.129.185-.129.371v3c0 .186.06.303.129.371.068.07.185.129.371.129h3c.186 0 .303-.06.371-.129.069-.068.129-.185.129-.371V2c0-.186-.06-.303-.129-.371-.068-.07-.185-.129-.371-.129h-3c-.186 0-.303.06-.371.129ZM20 19.5c-.186 0-.303.06-.371.129-.069.068-.129.185-.129.371v3c0 .186.06.303.129.371.068.07.185.129.371.129h3c.186 0 .303-.06.371-.129.069-.068.129-.185.129-.371v-3c0-.186-.06-.303-.129-.371-.068-.07-.185-.129-.371-.129h-3Zm-18 0h3c.186 0 .303.06.371.129.069.068.129.185.129.371v3c0 .186-.06.303-.129.371-.068.07-.185.129-.371.129H2c-.186 0-.303-.06-.371-.129-.069-.068-.129-.185-.129-.371v-3c0-.186.06-.303.129-.371.068-.07.185-.129.371-.129Zm9 0c-.186 0-.303.06-.371.129-.069.068-.129.185-.129.371v3c0 .186.06.303.129.371.068.07.185.129.371.129h3c.186 0 .303-.06.371-.129.069-.068.129-.185.129-.371v-3c0-.186-.06-.303-.129-.371-.068-.07-.185-.129-.371-.129h-3Z" fill="#18303F" yggColor="iconDefault"/></g></svg>