<svg fill="none" height="25" viewBox="0 0 25 25" width="25"><path clip-rule="evenodd" d="m14 6.5h-1v2.5c0 .672.249 1.284.738 1.731l.007.007.008.008c.464.464 1.14.754 1.747.754h2.993c.729 0 1.598.194 2.297.745.719.566 1.203 1.466 1.203 2.755v3.5h1.007c.414 0 .797.14 1.079.421.281.282.421.665.421 1.079v3c0 .414-.14.797-.421 1.079-.282.28-.665.421-1.079.421h-3c-.414 0-.797-.14-1.079-.421-.281-.282-.421-.665-.421-1.079v-3c0-.414.14-.797.421-1.079.282-.28.665-.421 1.079-.421h.993v-3.5c0-1.011-.365-1.61-.822-1.97-.476-.374-1.106-.53-1.678-.53h-2.993c-.889 0-1.81-.407-2.446-1.039a6.324 6.324 0 0 1 -.054-.05v7.089h1c.414 0 .797.14 1.079.421.281.282.421.665.421 1.079v3c0 .414-.14.797-.421 1.079-.282.28-.665.421-1.079.421h-3c-.414 0-.797-.14-1.079-.421-.281-.282-.421-.665-.421-1.079v-3c0-.414.14-.797.421-1.079.282-.28.665-.421 1.079-.421h1v-7.09a6.324 6.324 0 0 1 -.054.051c-.636.632-1.557 1.039-2.446 1.039h-3c-.572 0-1.202.156-1.678.53-.456.36-.822.96-.822 1.97v3.5h1c.414 0 .797.14 1.079.421.281.282.421.665.421 1.079v3c0 .414-.14.797-.421 1.079-.282.28-.665.421-1.079.421h-3c-.414 0-.797-.14-1.079-.421-.281-.282-.421-.665-.421-1.079v-3c0-.414.14-.797.421-1.079.282-.28.665-.421 1.079-.421h1v-3.5c0-1.289.484-2.19 1.203-2.755.699-.55 1.569-.745 2.297-.745h3c.607 0 1.283-.29 1.747-.754l.005-.005.01-.01c.489-.447.738-1.06.738-1.731v-2.5h-1c-.414 0-.797-.14-1.079-.421-.281-.282-.421-.665-.421-1.079v-3c0-.414.14-.797.421-1.079.282-.28.665-.421 1.079-.421h3c.414 0 .797.14 1.079.421.281.282.421.665.421 1.079v3c0 .414-.14.797-.421 1.079-.282.28-.665.421-1.079.421zm-3.371-4.871c-.069.068-.129.185-.129.371v3c0 .186.06.303.129.371.068.07.185.129.371.129h3c.186 0 .303-.06.371-.129.069-.068.129-.185.129-.371v-3c0-.186-.06-.303-.129-.371-.068-.07-.185-.129-.371-.129h-3c-.186 0-.303.06-.371.129zm9.371 17.871c-.186 0-.303.06-.371.129-.069.068-.129.185-.129.371v3c0 .186.06.303.129.371.068.07.185.129.371.129h3c.186 0 .303-.06.371-.129.069-.068.129-.185.129-.371v-3c0-.186-.06-.303-.129-.371-.068-.07-.185-.129-.371-.129zm-18 0h3c.186 0 .303.06.371.129.069.068.129.185.129.371v3c0 .186-.06.303-.129.371-.068.07-.185.129-.371.129h-3c-.186 0-.303-.06-.371-.129-.069-.068-.129-.185-.129-.371v-3c0-.186.06-.303.129-.371.068-.07.185-.129.371-.129zm9 0c-.186 0-.303.06-.371.129-.069.068-.129.185-.129.371v3c0 .186.06.303.129.371.068.07.185.129.371.129h3c.186 0 .303-.06.371-.129.069-.068.129-.185.129-.371v-3c0-.186-.06-.303-.129-.371-.068-.07-.185-.129-.371-.129z" fill="#18303f" fill-rule="evenodd"/></svg>