<svg width="25" height="25" viewBox="0 0 25 25" fill="none"><path fill-rule="evenodd" clip-rule="evenodd" d="M20.535 4.646a.5.5 0 0 1 .694.139l1.746 2.62a.498.498 0 0 1 0 .565l-1.747 2.62a.5.5 0 1 1-.832-.555l1.232-1.848H17.75c-.893 0-1.7.488-2.507 1.347-.809.86-1.549 2.02-2.321 3.234l-.016.026c-.754 1.184-1.54 2.42-2.42 3.357-.889.945-1.942 1.661-3.236 1.661H2.437a.5.5 0 0 1 0-1H7.25c.893 0 1.7-.487 2.507-1.346.809-.861 1.549-2.02 2.321-3.235l.016-.025c.754-1.185 1.54-2.42 2.42-3.357.889-.946 1.942-1.662 3.236-1.662h3.878L20.396 5.34a.5.5 0 0 1 .14-.694ZM1.937 7.687a.5.5 0 0 1 .5-.5H7.25c1.522 0 2.633.89 3.333 1.706a7.385 7.385 0 0 1 1.044 1.615l.014.03.004.01.001.003v.001a.5.5 0 0 1-.918.396l-.002-.005-.009-.02a5.742 5.742 0 0 0-.21-.404 6.391 6.391 0 0 0-.684-.975c-.612-.714-1.47-1.357-2.573-1.357H2.437a.5.5 0 0 1-.5-.5Zm11.16 6.584a.5.5 0 0 1 .694.139l.002.003.012.017.053.073a7.156 7.156 0 0 0 1.046 1.117c.721.619 1.703 1.192 2.846 1.192h3.878l-1.232-1.847a.5.5 0 1 1 .832-.555l1.747 2.62c.05.072.08.158.087.252v.056a.496.496 0 0 1-.087.257l-1.747 2.62a.5.5 0 1 1-.832-.555l1.232-1.848H17.75c-1.482 0-2.688-.739-3.497-1.433a8.17 8.17 0 0 1-1.2-1.282 4.893 4.893 0 0 1-.067-.093l-.019-.027-.005-.008-.002-.003-.001-.001a.5.5 0 0 1 .139-.694Z" fill="#18303F" yggColor="triggers"/></svg>