<svg fill="none" height="25" viewBox="0 0 25 25" width="25"><path clip-rule="evenodd" d="m6.977 8.969a2.137 2.137 0 0 1 2.983-1.964 3.467 3.467 0 0 0 -.214.052.503.503 0 0 0 -.214.122l-.02.017-.002.002c-.019.015-.058.046-.096.085a.696.696 0 0 0 -.215.497c0 .262.119.507.267.655l.023.022 1.576 1.39a2.139 2.139 0 0 1 -4.087-.878zm4.86 1.56c-.098.17-.21.33-.338.479.26-.057.518-.09.77-.098zm-2.465 1.567a3.137 3.137 0 1 1 2.235-5.032 3.767 3.767 0 0 1 1.633.956c.558.502.972 1.093 1.204 1.699a4.559 4.559 0 0 1 1.338-1.104c1.106-.685 2.491-.757 3.614-.196a.501.501 0 0 1 .13.094l.007.007c.071.07.26.258.26.588a.716.716 0 0 1 -.155.455.87.87 0 0 1 -.29.227l-3.379 1.9c.6.218 1.179.603 1.673 1.094a3.533 3.533 0 0 1 1.113 3.432.502.502 0 0 1 -.129.24l-.017.02v.002c-.017.02-.048.058-.087.096a.71.71 0 0 1 -.37.203c-.352.12-.655-.068-.782-.195l-.005-.006-2.852-2.943-.128.311-.004.009a12.403 12.403 0 0 0 -.98 4.08.5.5 0 1 1 -.998-.066c.008-.111.017-.223.027-.334h-1.414c-.038.16-.073.323-.106.486a.5.5 0 1 1 -.98-.197c.051-.256.109-.512.174-.766l-.001-.023a.5.5 0 0 1 .078-.267c.22-.796.514-1.574.91-2.295a.503.503 0 0 1 .104-.183c.083-.144.171-.284.262-.422l-2.03.905a.89.89 0 0 1 -.385.092.677.677 0 0 1 -.482-.192l-.007-.007c-.071-.07-.26-.258-.26-.588 0-.027.002-.055.007-.082.13-.778.521-1.47 1.072-1.998zm4.285-1.294-3.237-2.857c.771-.076 1.554.222 2.124.792a.264.264 0 0 0 .02.019c.515.461.851.99 1.002 1.48.062.201.092.391.092.566zm-2.362 5.831a9.37 9.37 0 0 1 .584-1.414h.995c-.13.465-.235.937-.315 1.414zm2.167-3.074c-.094.217-.182.437-.264.66h-.696c.174-.231.362-.45.567-.655l.572-.572.066-.03zm5.012-4.425a2.78 2.78 0 0 0 -2.175.337l-.025.015c-.862.47-1.36 1.136-1.508 1.734zm.431-.241.002-.001zm-7.92 3.328c.621-.27 1.24-.357 1.752-.294.201.025.38.071.534.136l-3.854 1.717c.266-.688.836-1.258 1.558-1.555zm3.823.28 3.026 3.122a2.518 2.518 0 0 0 -.886-2.119c-.729-.73-1.525-1.045-2.14-1.003zm-5.127 7.046a.5.5 0 0 1 .5-.5h2.715a.5.5 0 1 1 0 1h-2.715a.5.5 0 0 1 -.5-.5z" fill="#18303f" fill-rule="evenodd"/></svg>