<svg width="25" height="25" viewBox="0 0 25 25" fill="none"><g id="trumpet"><path fill-rule="evenodd" clip-rule="evenodd" d="M23.007 6.147c0-.634-.493-1.126-1.127-1.126-.52 0-.999.255-1.337.593a.366.366 0 0 0-.04.045c-2.502 3.192-6.205 4.999-10.165 4.999h-.537a.5.5 0 0 0-.143.02l-4.832.042a12.684 12.684 0 0 0-.346-.088l-.124-.03a8.81 8.81 0 0 1-.631-.177 2.893 2.893 0 0 1-.544-.232c-.151-.088-.225-.165-.257-.219a.5.5 0 0 0-.931.253v3.98a.5.5 0 0 0 .888.316c.04-.05.125-.12.28-.203a4.08 4.08 0 0 1 .54-.23c.191-.068.39-.13.588-.193l.015-.005.033-.01c.173-.055.351-.111.509-.168l1.1.006c-.726 1.964.045 4.304 1.871 5.428l.011.007.008.004c.686.381 1.417.634 2.316.558h2.039c2.539 0 4.53-1.991 4.53-4.53 0-1.84-1.075-3.335-2.584-4.06 2.775-.794 5.266-2.454 7.132-4.825.194-.185.422-.281.611-.281.051 0 .079.017.094.032s.033.043.033.094v12.706c0 .05-.018.079-.033.094a.11.11 0 0 1-.057.029c-.324-.074-.561-.2-.734-.365a12.766 12.766 0 0 0-1.507-1.67.5.5 0 0 0-.681.732c.508.472.98.994 1.412 1.57a.448.448 0 0 0 .046.053c.351.351.805.569 1.329.674.033.006.065.01.098.01.634 0 1.127-.493 1.127-1.127V6.147ZM8.332 18.29c-1.523-.945-2.091-2.993-1.3-4.563l1.227.007a2.646 2.646 0 0 0-.537 1.418c-.089 1.335.972 2.584 2.408 2.584h2.061c1.407 0 2.48-1.072 2.48-2.48 0-1.406-1.071-2.477-2.476-2.48l-2.021-.032h-.005l-5.409-.032a.504.504 0 0 0-.184.034 9.14 9.14 0 0 1-.54.181l-.037.012-.008.002c-.197.062-.415.131-.627.207a6.597 6.597 0 0 0-.371.145v-2.078c.139.06.281.113.418.158.246.082.493.146.704.198l.147.036c.148.037.262.065.349.091a.496.496 0 0 0 .15.022l7.424-.065c1.944.068 3.536 1.567 3.536 3.53 0 1.987-1.544 3.531-3.53 3.531H10.13c-.015 0-.03 0-.045.002-.643.059-1.176-.11-1.753-.428Zm.388-3.071c.055-.826.746-1.473 1.443-1.475l2.02.032h.008c.855 0 1.48.625 1.48 1.48 0 .856-.625 1.48-1.48 1.48H10.13c-.827 0-1.463-.73-1.41-1.517Zm-.888-5.993a.5.5 0 1 1-.999 0 .5.5 0 0 1 .999 0Zm2.278 0a.5.5 0 1 1-1 0 .5.5 0 0 1 1 0Zm8.457 7.055a.5.5 0 1 1-1 0 .5.5 0 0 1 1 0Zm-6.18-7.055a.5.5 0 1 1-1 0 .5.5 0 0 1 1 0Z" fill="#18303F" yggColor="iconDefault"/></g></svg>