<svg width="25" height="25" viewBox="0 0 25 25" fill="none"><g id="tv"><path fill-rule="evenodd" clip-rule="evenodd" d="M7.334 6.725a.57.57 0 0 0-.409.177.646.646 0 0 0-.178.448v7.883c0 .171.066.332.178.448a.57.57 0 0 0 .409.178h10.332a.57.57 0 0 0 .409-.178.646.646 0 0 0 .178-.448V7.35a.646.646 0 0 0-.178-.448.57.57 0 0 0-.409-.177H7.334Zm7.465 10.133h2.867c.426 0 .832-.175 1.128-.482.296-.306.459-.717.459-1.143V7.35c0-.425-.163-.837-.459-1.143a1.569 1.569 0 0 0-1.128-.482H7.334c-.426 0-.832.176-1.128.482a1.644 1.644 0 0 0-.459 1.143v7.883c0 .426.163.837.459 1.143.296.307.702.482 1.128.482h2.869l-.832 1.697a.498.498 0 0 0 .448.72h5.362a.501.501 0 0 0 .449-.72l-.831-1.697Zm-1.114 0h-2.368l-.695 1.417h3.757l-.694-1.416Z" fill="#18303F" yggColor="iconDefault"/></g></svg>