<svg fill="none" height="25" viewBox="0 0 25 25" width="25"><path clip-rule="evenodd" d="m7.334 6.725a.57.57 0 0 0 -.409.177.646.646 0 0 0 -.178.448v7.883c0 .171.066.332.178.448a.57.57 0 0 0 .41.178h10.331a.57.57 0 0 0 .41-.178.646.646 0 0 0 .177-.448v-7.883a.646.646 0 0 0 -.178-.448.57.57 0 0 0 -.409-.177zm7.466 10.133h2.867c.426 0 .832-.175 1.128-.482.296-.306.46-.717.46-1.143v-7.883c0-.425-.164-.837-.46-1.143a1.569 1.569 0 0 0 -1.128-.482h-10.333c-.426 0-.832.176-1.128.482a1.644 1.644 0 0 0 -.459 1.143v7.883c0 .426.163.837.46 1.143.295.307.701.482 1.127.482h2.87l-.833 1.697a.498.498 0 0 0 .448.72h5.362a.501.501 0 0 0 .45-.72l-.832-1.697zm-1.114 0h-2.368l-.695 1.417h3.757l-.694-1.416z" fill="#18303f" fill-rule="evenodd"/></svg>