<svg width="25" height="25" viewBox="0 0 25 25" fill="none"><g id="ultraviolet_uv"><path fill-rule="evenodd" clip-rule="evenodd" d="M13.608 1.47a1.542 1.542 0 0 0-2.216 0L8.95 3.912H5.49c-.437 0-.84.148-1.135.443-.295.295-.443.698-.443 1.135v3.46L1.47 11.392a1.542 1.542 0 0 0 0 2.216l2.442 2.442v3.46c0 .437.148.84.443 1.135.295.295.698.443 1.135.443h3.46l2.442 2.442a1.542 1.542 0 0 0 2.216 0l2.442-2.442h4.538a.5.5 0 0 0 .5-.5V16.05l2.442-2.442a1.543 1.543 0 0 0 0-2.216L21.088 8.95V5.49c0-.437-.148-.84-.443-1.135-.294-.295-.697-.443-1.134-.443h-3.46L13.608 1.47Zm-1.508.707a.543.543 0 0 1 .802 0l2.588 2.588a.5.5 0 0 0 .354.147h3.667c.209 0 .346.068.428.15.081.082.15.218.15.428v3.667c0 .133.053.26.146.354l2.588 2.588a.544.544 0 0 1 0 .802l-2.588 2.589a.503.503 0 0 0-.146.353v4.245h-4.245a.5.5 0 0 0-.354.147l-2.588 2.588a.543.543 0 0 1-.802 0l-2.59-2.588a.498.498 0 0 0-.353-.147H5.49c-.21 0-.346-.068-.428-.15-.082-.082-.15-.218-.15-.428v-3.667a.5.5 0 0 0-.147-.353L2.177 12.9a.544.544 0 0 1 0-.802L4.765 9.51a.5.5 0 0 0 .147-.354V5.49c0-.21.068-.346.15-.428.082-.082.218-.15.428-.15h3.667c.132 0 .26-.053.353-.147l2.59-2.588ZM8.03 16.02c-.413-.36-.62-.923-.62-1.69v-4.8c0-.113.05-.197.15-.25a.765.765 0 0 1 .38-.09c.147 0 .27.03.37.09.107.053.16.137.16.25v4.8c0 .434.107.757.32.97.214.213.514.32.9.32.82 0 1.23-.43 1.23-1.29v-4.8c0-.113.05-.197.15-.25a.765.765 0 0 1 .38-.09c.147 0 .27.03.37.09.107.053.16.137.16.25v4.8c0 .767-.21 1.33-.63 1.69-.413.36-.966.54-1.66.54-.686 0-1.24-.18-1.66-.54Zm4.921-6.7c-.14.087-.21.19-.21.31 0 .04.003.07.01.09l2 6.48c.08.24.303.36.67.36.16 0 .303-.03.43-.09a.454.454 0 0 0 .24-.27l1.98-6.48a.33.33 0 0 0 .02-.09c0-.12-.073-.223-.22-.31a.84.84 0 0 0-.45-.13c-.194 0-.314.073-.36.22l-1.64 5.7-1.65-5.7c-.046-.147-.17-.22-.37-.22a.84.84 0 0 0-.45.13Z" fill="#18303F" yggColor="iconDefault"/></g></svg>