<svg fill="none" height="25" viewBox="0 0 25 25" width="25"><path clip-rule="evenodd" d="m13.608 1.47a1.542 1.542 0 0 0 -2.216 0l-2.442 2.442h-3.46c-.437 0-.84.148-1.135.443s-.443.698-.443 1.135v3.46l-2.442 2.442a1.542 1.542 0 0 0 0 2.216l2.442 2.442v3.46c0 .437.148.84.443 1.135s.698.443 1.135.443h3.46l2.442 2.442a1.542 1.542 0 0 0 2.216 0l2.442-2.442h4.538a.5.5 0 0 0 .5-.5v-4.538l2.442-2.442a1.543 1.543 0 0 0 0-2.216l-2.442-2.442v-3.46c0-.437-.148-.84-.443-1.135-.294-.295-.697-.443-1.134-.443h-3.46zm-1.508.707a.543.543 0 0 1 .802 0l2.588 2.588a.5.5 0 0 0 .354.147h3.667c.209 0 .346.068.428.15.081.082.15.218.15.428v3.667c0 .133.053.26.146.353l2.588 2.589a.544.544 0 0 1 0 .802l-2.588 2.588a.503.503 0 0 0 -.146.354v4.245h-4.245a.5.5 0 0 0 -.354.147l-2.588 2.588a.543.543 0 0 1 -.802 0l-2.59-2.588a.498.498 0 0 0 -.353-.147h-3.667c-.21 0-.346-.068-.428-.15s-.15-.218-.15-.428v-3.667a.5.5 0 0 0 -.147-.354l-2.588-2.588a.544.544 0 0 1 0-.802l2.588-2.589a.5.5 0 0 0 .147-.353v-3.667c0-.21.068-.346.15-.428s.218-.15.428-.15h3.667c.132 0 .26-.053.353-.147zm-4.068 13.843c-.413-.36-.62-.923-.62-1.69v-4.8c0-.113.05-.197.15-.25a.766.766 0 0 1 .38-.09c.146 0 .27.03.37.09.107.053.16.137.16.25v4.8c0 .433.107.757.32.97s.514.32.9.32c.82 0 1.23-.43 1.23-1.29v-4.8c0-.113.05-.197.15-.25a.766.766 0 0 1 .38-.09c.146 0 .27.03.37.09.107.053.16.137.16.25v4.8c0 .767-.21 1.33-.63 1.69-.414.36-.966.54-1.66.54-.687 0-1.24-.18-1.66-.54zm4.92-6.7c-.14.087-.21.19-.21.31 0 .04.003.07.01.09l2 6.48c.08.24.303.36.67.36.16 0 .303-.03.43-.09a.454.454 0 0 0 .24-.27l1.98-6.48a.33.33 0 0 0 .02-.09c0-.12-.073-.223-.22-.31a.84.84 0 0 0 -.45-.13c-.194 0-.314.073-.36.22l-1.64 5.7-1.65-5.7c-.046-.147-.17-.22-.37-.22a.84.84 0 0 0 -.45.13z" fill="#18303f" fill-rule="evenodd"/></svg>