<svg width="25" height="25" viewBox="0 0 25 25" fill="none"><g id="unlocked"><g id="default" fill="#18303F"><path d="M18.199 2.5c-2.342 0-4.3 1.958-4.3 4.3v.735a.5.5 0 1 1-1 0V6.8c0-2.894 2.405-5.3 5.3-5.3 1.893 0 3.57 1.028 4.508 2.538.188.304.347.628.472.967a.5.5 0 1 1-.938.346 4.32 4.32 0 0 0-.384-.786C21.09 3.33 19.723 2.5 18.199 2.5Z"/><path fill-rule="evenodd" clip-rule="evenodd" d="M9.926 16.904a1.548 1.548 0 1 0-1 .002v.716a.5.5 0 0 0 1 0v-.718Zm-.504-2.01a.547.547 0 1 0 0 1.094.547.547 0 0 0 0-1.095Z"/><path fill-rule="evenodd" clip-rule="evenodd" d="M1.5 11.6a2.25 2.25 0 0 1 2.246-2.246h11.346a2.25 2.25 0 0 1 2.246 2.246v6.22c0 1.26-.579 2.446-1.443 3.31-.865.866-2.05 1.444-3.311 1.444h-6.33c-1.26 0-2.446-.579-3.311-1.443-.865-.865-1.443-2.05-1.443-3.311V11.6Zm2.246-1.245A1.25 1.25 0 0 0 2.5 11.6v6.22c0 .954.442 1.895 1.15 2.604.709.708 1.65 1.15 2.604 1.15h6.33c.954 0 1.895-.442 2.604-1.15.708-.709 1.15-1.65 1.15-2.604V11.6a1.25 1.25 0 0 0-1.246-1.245H3.746Z"/><path d="M23 7.264a.5.5 0 1 0 0-1 .5.5 0 0 0 0 1Z"/></g></g></svg>