<svg fill="none" height="25" viewBox="0 0 25 25" width="25"><path clip-rule="evenodd" d="m13.898 6.8c0-2.342 1.959-4.3 4.3-4.3 1.525 0 2.892.83 3.659 2.065.153.248.282.51.384.786a.5.5 0 0 0 .938-.346 5.307 5.307 0 0 0 -.472-.967c-.937-1.51-2.615-2.538-4.508-2.538-2.895 0-5.3 2.406-5.3 5.3v.735a.5.5 0 0 0 1 0v-.735zm-2.928 8.64c0 .679-.437 1.255-1.044 1.464v.718a.5.5 0 0 1 -1 0v-.716a1.548 1.548 0 1 1 2.044-1.466zm-2.095 0a.547.547 0 1 1 .572.547h-.047a.547.547 0 0 1 -.526-.547zm-7.375-3.84a2.25 2.25 0 0 1 2.246-2.246h11.346a2.25 2.25 0 0 1 2.246 2.246v6.22c0 1.26-.579 2.446-1.443 3.31-.865.866-2.05 1.444-3.311 1.444h-6.33c-1.26 0-2.446-.579-3.311-1.443-.865-.865-1.443-2.05-1.443-3.311zm2.246-1.245a1.25 1.25 0 0 0 -1.246 1.245v6.22c0 .954.442 1.895 1.15 2.604.709.708 1.65 1.15 2.604 1.15h6.33c.954 0 1.895-.442 2.604-1.15.708-.709 1.15-1.65 1.15-2.604v-6.22a1.25 1.25 0 0 0 -1.246-1.245zm19.754-3.592a.5.5 0 1 1 -1 0 .5.5 0 0 1 1 0z" fill="#18303f" fill-rule="evenodd"/></svg>