<svg fill="none" height="25" viewBox="0 0 25 25" width="25"><g fill="#18303f"><path d="m15.09 1.372c.25 0 .5.25.5.5a.479.479 0 0 1 -.108.29.556.556 0 0 1 -.284.195.398.398 0 0 1 -.107.015c-.25 0-.5-.25-.5-.5s.25-.5.5-.5z"/><path clip-rule="evenodd" d="m8.969 6.364h3.894c.71 0 1.4.26 1.914.736a2.48 2.48 0 0 1 .812 1.822v3.085c0 .691-.297 1.346-.812 1.822a2.822 2.822 0 0 1 -1.914.736h-3.894a2.82 2.82 0 0 1 -1.913-.736 2.484 2.484 0 0 1 -.813-1.825l.017-3.082c0-.69.295-1.34.805-1.816a2.82 2.82 0 0 1 1.904-.742zm.002 1a1.817 1.817 0 0 0 -1.224.474 1.48 1.48 0 0 0 -.487 1.086l-.017 3.083c0 .4.172.792.492 1.088.32.297.764.47 1.234.47h3.894c.47 0 .914-.173 1.235-.47.32-.296.49-.688.49-1.088v-3.085c0-.4-.17-.793-.49-1.089a1.755 1.755 0 0 0 -.557-.344 1.888 1.888 0 0 0 -.678-.125h-3.893z" fill-rule="evenodd"/><path d="m17.032 7.694a.5.5 0 0 1 .5.5v4.785a.5.5 0 1 1 -1 0v-4.785a.5.5 0 0 1 .5-.5zm-5.617 11.91c.25 0 .5.25.5.5s-.25.5-.5.5a.495.495 0 0 1 -.327-.14.577.577 0 0 1 -.16-.257.404.404 0 0 1 -.013-.103c0-.25.25-.5.5-.5zm8.477.001c.25 0 .5.25.5.5s-.25.5-.5.5-.5-.25-.5-.5.25-.5.5-.5z"/><path clip-rule="evenodd" d="m7.377 1.767a.497.497 0 0 1 .707-.002l3.12 3.102h.239l2.263-2.245a.5.5 0 1 1 .704.71l-1.547 1.535h5.113c.24 0 .477.047.696.138.186.078.359.187.509.326.327.302.519.721.519 1.168v7.927c0 .446-.192.864-.52 1.167-.325.301-.76.464-1.204.464h-.098c-.06.2-.179.37-.322.503h2.958a1.264 1.264 0 0 1 1.263 1.258v4.552a1.264 1.264 0 0 1 -1.263 1.259h-16.031a1.268 1.268 0 0 1 -1.26-1.256v-4.558a1.26 1.26 0 0 1 .766-1.15 1.27 1.27 0 0 1 .494-.105h2.447a1.137 1.137 0 0 1 -.321-.503h-.267c-.445 0-.88-.163-1.205-.464a1.64 1.64 0 0 1 -.352-.466 1.558 1.558 0 0 1 -.167-.701v-7.927a1.57 1.57 0 0 1 .454-1.105 1.777 1.777 0 0 1 1.27-.527h3.444l-2.407-2.393a.5.5 0 0 1 -.002-.707zm7.713 14.793a1.136 1.136 0 0 1 -.321-.503h-5.051c-.06.2-.179.37-.321.503zm-9.274-10.495a.777.777 0 0 1 .526-.198h11.634c.122 0 .238.027.34.074a.719.719 0 0 1 .186.124.59.59 0 0 1 .198.434v7.927a.56.56 0 0 1 -.054.237.63.63 0 0 1 -.144.196.777.777 0 0 1 -.526.198h-11.634a.78.78 0 0 1 -.526-.198.59.59 0 0 1 -.198-.433v-7.927a.59.59 0 0 1 .198-.434zm-1.592 16.302v-1.773h5.082v2.034h-4.817a.275.275 0 0 1 -.188-.078.258.258 0 0 1 -.077-.183zm0-2.773h5.082v-2.034h-4.817a.272.272 0 0 0 -.188.079.262.262 0 0 0 -.077.182zm6.082 3.034h4.367v-5.068h-4.367zm5.367-5.068h4.84a.265.265 0 0 1 .23.132.257.257 0 0 1 .034.126v4.552a.255.255 0 0 1 -.109.209.26.26 0 0 1 -.154.05h-4.841z" fill-rule="evenodd"/></g></svg>