<svg width="25" height="25" viewBox="0 0 25 25" fill="none"><g id="upstairs"><g id="backgroundWarningDefault" fill="#F28102"><path d="M15.09 1.372c.25 0 .5.25.5.5a.479.479 0 0 1-.108.29.556.556 0 0 1-.285.195.4.4 0 0 1-.106.015c-.25 0-.5-.25-.5-.5s.25-.5.5-.5Z"/><path fill-rule="evenodd" clip-rule="evenodd" d="M8.969 6.364h3.894c.71 0 1.4.26 1.914.736s.812 1.13.812 1.822v3.085c0 .691-.298 1.346-.813 1.822a2.822 2.822 0 0 1-1.913.736H8.969a2.82 2.82 0 0 1-1.913-.736 2.484 2.484 0 0 1-.813-1.825l.017-3.082c0-.69.295-1.34.805-1.816a2.82 2.82 0 0 1 1.904-.742Zm.002 1a1.817 1.817 0 0 0-1.224.474 1.48 1.48 0 0 0-.487 1.086l-.017 3.083c0 .4.172.792.491 1.088.322.297.765.47 1.235.47h3.894c.47 0 .914-.173 1.235-.47.32-.296.49-.688.49-1.088V8.922c0-.4-.17-.793-.49-1.089a1.753 1.753 0 0 0-.557-.344 1.888 1.888 0 0 0-.678-.125H8.97Z"/><path d="M17.032 7.694a.5.5 0 0 1 .5.5v4.785a.5.5 0 1 1-1 0V8.194a.498.498 0 0 1 .5-.5ZM11.415 19.604c.25 0 .5.25.5.5s-.25.5-.5.5a.495.495 0 0 1-.327-.14.576.576 0 0 1-.16-.257.404.404 0 0 1-.013-.103c0-.25.25-.5.5-.5ZM19.892 19.605c.25 0 .5.25.5.5s-.25.5-.5.5-.5-.25-.5-.5.25-.5.5-.5Z"/><path fill-rule="evenodd" clip-rule="evenodd" d="M7.377 1.767a.497.497 0 0 1 .707-.002l3.12 3.102h.239l2.263-2.245a.5.5 0 1 1 .704.71l-1.547 1.535h5.113c.24 0 .477.047.696.138.186.078.359.187.508.326.328.302.52.721.52 1.168v7.927c0 .446-.192.864-.52 1.167-.325.301-.76.464-1.204.464h-.098c-.06.2-.18.37-.322.503h2.957a1.265 1.265 0 0 1 1.263 1.258v4.552c0 .335-.133.655-.37.89a1.264 1.264 0 0 1-.892.368H4.483a1.268 1.268 0 0 1-1.26-1.255v-4.558a1.26 1.26 0 0 1 .766-1.15 1.27 1.27 0 0 1 .494-.105h2.446a1.137 1.137 0 0 1-.32-.503h-.267c-.445 0-.88-.163-1.205-.464a1.64 1.64 0 0 1-.352-.466 1.558 1.558 0 0 1-.167-.701V6.499a1.57 1.57 0 0 1 .454-1.105 1.777 1.777 0 0 1 1.27-.527h3.444L7.379 2.474a.5.5 0 0 1-.002-.707Zm7.712 14.793a1.135 1.135 0 0 1-.32-.503H9.718c-.06.2-.18.37-.322.503h5.693ZM5.816 6.065a.777.777 0 0 1 .526-.198h11.634c.121 0 .238.027.34.074a.719.719 0 0 1 .186.124.591.591 0 0 1 .198.434v7.927c0 .08-.018.16-.054.237a.627.627 0 0 1-.144.196.777.777 0 0 1-.526.198H6.342a.78.78 0 0 1-.526-.198.59.59 0 0 1-.198-.433V6.499a.59.59 0 0 1 .198-.434ZM4.224 22.367v-1.773h5.082v2.034H4.489a.275.275 0 0 1-.188-.078.258.258 0 0 1-.077-.183Zm0-2.773h5.082V17.56H4.489a.272.272 0 0 0-.188.079.262.262 0 0 0-.077.182v1.773Zm6.082 3.034h4.367V17.56h-4.367v5.068Zm5.367-5.068h4.84a.265.265 0 0 1 .23.132.257.257 0 0 1 .034.126v4.552a.255.255 0 0 1-.109.209.262.262 0 0 1-.154.05h-4.841V17.56Z"/></g></g></svg>