<svg width="25" height="25" viewBox="0 0 25 25" fill="none"><g id="valves"><path fill-rule="evenodd" clip-rule="evenodd" d="M20.512 8.776c-.293-.18-.547-.442-.665-.775h-3.05c-.959 0-1.875.721-2.002 1.594v.726c.325.12.585.366.764.654.255.406.386.937.386 1.505 0 .568-.132 1.099-.386 1.505-.227.366-.583.665-1.04.722v.227c0 4.237-3.296 7.84-7.678 8.153a.584.584 0 0 1-.035 0H5.164c-.112.35-.372.626-.676.814-.405.25-.935.38-1.502.38s-1.097-.13-1.503-.38c-.405-.25-.733-.658-.733-1.19v-5.355c0-.533.328-.94.733-1.19.406-.25.936-.38 1.503-.38.567 0 1.097.13 1.502.38.292.18.543.44.661.77h1.592c.952-.263 1.625-1.098 1.625-2.002v-.353a1.62 1.62 0 0 1-.629-.596c-.253-.406-.385-.937-.385-1.505 0-.568.132-1.099.385-1.505.18-.287.437-.532.76-.652v-.761a.456.456 0 0 1 0-.037c.315-4.233 3.915-7.675 8.3-7.675h3.058c.122-.324.37-.579.657-.754.407-.248.936-.377 1.502-.377s1.096.129 1.5.377c.405.248.736.653.736 1.185v5.31c0 .532-.33.937-.735 1.185-.405.248-.936.377-1.502.377s-1.095-.13-1.5-.377Zm.265-6.495c0-.075.043-.2.258-.332.215-.132.552-.23.979-.23.425 0 .765.098.979.23.215.131.257.257.257.332v5.31c0 .075-.043.2-.258.332-.213.131-.553.23-.979.23-.426 0-.764-.099-.979-.23-.214-.132-.256-.257-.256-.332V2.28Zm-11.28 7.3c.283-3.708 3.45-6.731 7.3-6.731h2.98V7h-2.98c-1.385 0-2.815 1.03-2.998 2.499a.43.43 0 0 0-.003.062v.66h-4.3V9.58Zm-2.57 8.34c1.373-.343 2.44-1.554 2.44-2.987v-.197h4.151v.197c0 3.705-2.879 6.87-6.73 7.154H5.23v-4.152h1.576a.495.495 0 0 0 .121-.015Zm1.66-6.416c-.135.214-.235.551-.235.975 0 .424.1.761.234.975.133.213.264.261.35.261h5.425c.086 0 .217-.048.35-.26.134-.215.234-.552.234-.976 0-.424-.1-.761-.234-.975-.133-.213-.264-.26-.35-.26H8.936c-.086 0-.217.047-.35.26Zm-6.578 5.512c-.215.132-.259.26-.259.34v5.353c0 .08.044.208.26.34.213.132.551.231.976.231.425 0 .763-.1.977-.231.215-.132.26-.26.26-.34v-5.354c0-.08-.045-.207-.26-.34-.214-.132-.552-.23-.977-.23-.425 0-.763.098-.977.23Z" fill="#18303F" yggColor="iconDefault"/></g></svg>