<svg fill="none" height="25" viewBox="0 0 25 25" width="25"><path clip-rule="evenodd" d="m13.397 4.413a1.042 1.042 0 0 0 -1.794 0l-7.912 13.39c-.41.695.09 1.572.897 1.572h15.825c.806 0 1.307-.877.897-1.572zm-2.87-.636c.887-1.501 3.06-1.501 3.946 0l7.913 13.39c.902 1.528-.199 3.458-1.973 3.458h-15.825c-1.775 0-2.876-1.93-1.973-3.457zm1.973 3.931c.345 0 .625.28.625.625v5a.625.625 0 1 1 -1.25 0v-5c0-.345.28-.625.625-.625zm0 8.334c.345 0 .625.28.625.625v.166a.625.625 0 1 1 -1.25 0v-.166c0-.346.28-.625.625-.625z" fill="#18303f" fill-rule="evenodd"/></svg>