<svg width="25" height="25" viewBox="0 0 25 25" fill="none"><g id="water"><path id="iconDefault" fill-rule="evenodd" clip-rule="evenodd" d="M11.995 1.046a.847.847 0 0 1 .504-.185c.355 0 .786.182.886.589.849 1.286 2.543 4.087 4.025 7.003.76 1.495 1.47 3.029 1.983 4.41.503 1.358.84 2.632.806 3.586-.006 4.211-3.488 7.69-7.7 7.69-4.216 0-7.7-3.484-7.7-7.7 0-.948.362-2.211.885-3.563.528-1.369 1.246-2.889 2.005-4.373 1.307-2.553 2.751-5.03 3.603-6.491l.004-.008v-.001l.362-.62a.503.503 0 0 1 .08-.104l.009-.009c.06-.061.15-.151.248-.224Zm.163 1.465-.018.03c-.854 1.466-2.275 3.905-3.56 6.417-.752 1.47-1.452 2.956-1.964 4.278-.517 1.34-.817 2.454-.817 3.203 0 3.663 3.036 6.7 6.7 6.7 3.663 0 6.7-3.037 6.7-6.7v-.02c.03-.742-.243-1.859-.744-3.208-.494-1.332-1.185-2.828-1.936-4.305-1.495-2.939-3.207-5.76-4.016-6.977l-.012.012-.333.57Zm-1.676 19.074a.5.5 0 1 0 .001-1 .5.5 0 0 0-.001 1Zm1.504.5a.5.5 0 1 0 0-1 .5.5 0 0 0 0 1Z" fill="#18303F"/></g></svg>