<svg fill="none" height="25" viewBox="0 0 25 25" width="25"><path clip-rule="evenodd" d="m12.5 1.443c-6.107 0-11.057 4.95-11.057 11.057s4.95 11.057 11.057 11.057c6.106 0 11.057-4.95 11.057-11.057a.5.5 0 0 1 1 0c0 6.66-5.398 12.057-12.057 12.057s-12.057-5.397-12.057-12.057c0-6.659 5.398-12.057 12.057-12.057 1.633 0 3.192.325 4.614.914a.5.5 0 0 1 -.383.924 11.025 11.025 0 0 0 -4.231-.838zm-.499 2.572a8.464 8.464 0 0 0 -2.234.435l.174.392a.5.5 0 0 1 -.914.406l-.187-.42a8.525 8.525 0 0 0 -1.982 1.316l.341.34a.5.5 0 0 1 -.707.707l-.341-.34a8.523 8.523 0 0 0 -1.321 1.983l.419.186a.5.5 0 1 1 -.407.913l-.39-.173a8.455 8.455 0 0 0 -.436 2.238h.468a.5.5 0 0 1 0 1h-.469c.048.821.212 1.612.477 2.354l.448-.199a.5.5 0 1 1 .406.914l-.463.206a8.454 8.454 0 0 0 1.008 1.57c.021-.033.044-.066.07-.1l3.801-4.836a.993.993 0 0 1 .231-.214l1.661-1.107a.996.996 0 0 0 .377-.47l.29-.745a1 1 0 0 1 1.639-.345l1.123 1.123a1 1 0 0 1 -.345 1.64l-.745.289a1 1 0 0 0 -.47.377l-1.107 1.66a.99.99 0 0 1 -.214.232l-4.837 3.8a1.253 1.253 0 0 1 -.084.061 8.53 8.53 0 0 0 1.292.832l.173-.389a.5.5 0 1 1 .914.406l-.175.392c.79.3 1.635.485 2.516.536v-.468a.5.5 0 0 1 1 0v.468a8.46 8.46 0 0 0 2.521-.538l-.173-.39a.5.5 0 1 1 .914-.406l.171.386a8.525 8.525 0 0 0 1.716-1.186l-.338-.339a.5.5 0 1 1 .707-.707l.338.338c.5-.561.926-1.19 1.263-1.87l-.463-.206a.5.5 0 1 1 .407-.914l.447.199c.157-.441.279-.9.362-1.37a.5.5 0 1 1 .984.172c-.783 4.459-4.673 7.846-9.356 7.846a9.5 9.5 0 0 1 -9.5-9.5 9.5 9.5 0 0 1 9.5-9.5c1.451 0 2.828.326 4.059.909a.5.5 0 0 1 -.395.918l-.187.42a.5.5 0 0 1 -.914-.405l.174-.392a8.467 8.467 0 0 0 -2.237-.435v.463a.5.5 0 0 1 -1 0zm-4.802 13.791a.51.51 0 0 1 .093.129l4.292-3.373.789-1.182a.888.888 0 0 1 -.715-.594l-1.11.74-3.357 4.272zm6.432-5.659c-.094.036-.184.08-.271.13a.893.893 0 0 0 -.493-.587 1.98 1.98 0 0 0 .096-.21l.29-.745 1.122 1.122zm-2.958 6.796a.5.5 0 1 0 0-1 .5.5 0 0 0 0 1zm4.5-.5a.5.5 0 1 1 -1 0 .5.5 0 0 1 1 0zm4.714-18a.678.678 0 0 0 -.405.144c-.06.044-.113.097-.145.129l-.008.007-.006.006a.498.498 0 0 0 -.079.103l-.027.046-.159.274a70.348 70.348 0 0 0 -1.867 3.364c-.394.77-.768 1.562-1.045 2.28-.271.7-.473 1.387-.473 1.925 0 2.308 1.906 4.213 4.214 4.213 2.305 0 4.208-1.9 4.214-4.204.019-.543-.171-1.236-.431-1.938a22.754 22.754 0 0 0 -1.034-2.3 42.064 42.064 0 0 0 -2.066-3.602c-.1-.325-.451-.448-.683-.448zm-1.806 4.529a68.548 68.548 0 0 1 1.817-3.276 42.609 42.609 0 0 1 1.847 3.248c.385.758.737 1.52.987 2.195.257.693.382 1.23.369 1.562v.02c0 1.755-1.458 3.213-3.214 3.213s-3.214-1.458-3.214-3.213c0-.339.14-.877.405-1.565.26-.672.617-1.43 1.003-2.184z" fill="#18303f" fill-rule="evenodd"/></svg>