<svg width="25" height="25" viewBox="0 0 25 25" fill="none"><path fill-rule="evenodd" clip-rule="evenodd" d="M.54.803A.5.5 0 0 1 1.198.54C3.554 1.55 4.5 3.894 4.5 6.5v9.4c0 1.282.456 2.438 1.335 3.228a.5.5 0 0 1-.67.744C4.045 18.862 3.5 17.418 3.5 15.9V6.5c0-2.394-.854-4.25-2.697-5.04A.5.5 0 0 1 .54.802ZM13.455 21.69a.5.5 0 0 0-.854-.09c-.804 1.072-2.153 1.798-3.5 1.898-1.342-.098-2.474-.723-3.174-1.86a.5.5 0 0 0-.816-.051l-.003.003-.013.016-.06.069a6.53 6.53 0 0 1-1.132 1.001c-.76.527-1.745.945-2.804.733a.5.5 0 1 0-.196.98c1.44.289 2.706-.293 3.57-.891.405-.28.737-.574.975-.808.9 1.113 2.189 1.713 3.62 1.808a.485.485 0 0 0 .066 0 5.993 5.993 0 0 0 3.786-1.742 4.139 4.139 0 0 0 3.38 1.743h.034a5.168 5.168 0 0 0 3.57-1.781c.2.226.468.5.8.761.777.614 1.948 1.2 3.395.91a.499.499 0 1 0-.196-.98c-1.053.21-1.932-.203-2.58-.715a5.15 5.15 0 0 1-.99-1.047l-.01-.015-.001-.002a.5.5 0 0 0-.837-.008 4.189 4.189 0 0 1-3.2 1.877 3.129 3.129 0 0 1-2.83-1.81ZM4.54.803A.5.5 0 0 1 5.197.54C7.554 1.55 8.5 3.894 8.5 6.5v9.4c0 1.282.456 2.438 1.335 3.228a.5.5 0 0 1-.67.744C8.045 18.862 7.5 17.418 7.5 15.9V6.5c0-2.394-.854-4.25-2.697-5.04A.5.5 0 0 1 4.54.802ZM9.197.54a.5.5 0 1 0-.394.92c1.843.79 2.697 2.646 2.697 5.04v9.4c0 1.518.544 2.962 1.666 3.972a.5.5 0 1 0 .669-.744c-.88-.79-1.335-1.946-1.335-3.228V6.5c0-2.606-.946-4.95-3.303-5.96Zm3.344.263a.5.5 0 0 1 .656-.263C15.554 1.55 16.5 3.894 16.5 6.5v9.4c0 1.282.456 2.438 1.335 3.228a.5.5 0 0 1-.67.744c-1.121-1.01-1.665-2.454-1.665-3.972V6.5c0-2.394-.854-4.25-2.697-5.04a.5.5 0 0 1-.262-.657ZM17.197.54a.5.5 0 1 0-.394.92c1.843.79 2.697 2.646 2.697 5.04v9.4c0 1.518.544 2.962 1.666 3.972a.5.5 0 1 0 .669-.744c-.88-.79-1.335-1.946-1.335-3.228V6.5c0-2.606-.946-4.95-3.303-5.96Z" fill="#18303F" yggColor="water_flow"/></svg>