<svg width="25" height="25" viewBox="0 0 25 25" fill="none"><path fill-rule="evenodd" clip-rule="evenodd" d="M12.995 3.927a.5.5 0 0 0-.99 0L9.952 17.888 7.992 6.912a.5.5 0 0 0-.983-.004L5.795 13.38a.5.5 0 1 0 .983.184l.71-3.787 2.02 11.31a.5.5 0 0 0 .987-.014L12.5 7.437l1.782 12.117a.5.5 0 0 0 .99-.146l-2.277-15.48ZM17.498 6.5a.5.5 0 0 1 .493.408l1.424 7.592H24a.5.5 0 0 1 0 1h-5a.5.5 0 0 1-.491-.408l-.997-5.315-1.218 6.82a.5.5 0 1 1-.984-.176l1.698-9.509a.5.5 0 0 1 .49-.412ZM.5 15a.5.5 0 0 1 .5-.5h3.324a.5.5 0 0 1 0 1H1a.5.5 0 0 1-.5-.5Zm5.957.004a.5.5 0 1 1-1 0 .5.5 0 0 1 1 0Zm8.559 6.496a.5.5 0 1 0 0-1 .5.5 0 0 0 0 1Z" fill="#18303F" yggColor="watts"/></svg>