<svg fill="none" height="25" viewBox="0 0 25 25" width="25"><path clip-rule="evenodd" d="m12.995 3.927a.5.5 0 0 0 -.99 0l-2.053 13.961-1.96-10.976a.5.5 0 0 0 -.983-.004l-1.214 6.472a.5.5 0 1 0 .983.184l.71-3.787 2.02 11.31a.5.5 0 0 0 .987-.014l2.005-13.636 1.782 12.117a.5.5 0 0 0 .99-.146l-2.277-15.48zm4.503 2.573a.5.5 0 0 1 .493.408l1.424 7.592h4.585a.5.5 0 0 1 0 1h-5a.5.5 0 0 1 -.491-.408l-.997-5.315-1.218 6.82a.5.5 0 1 1 -.984-.176l1.698-9.509a.5.5 0 0 1 .49-.412zm-16.998 8.5a.5.5 0 0 1 .5-.5h3.324a.5.5 0 0 1 0 1h-3.324a.5.5 0 0 1 -.5-.5zm5.957.004a.5.5 0 1 1 -1 0 .5.5 0 0 1 1 0zm8.559 6.496a.5.5 0 1 0 0-1 .5.5 0 0 0 0 1z" fill="#18303f" fill-rule="evenodd"/></svg>