<svg fill="none" height="25" viewBox="0 0 25 25" width="25"><path clip-rule="evenodd" d="m14.242 7.884c-1.024-1.748-2.976-2.884-5.112-2.884-1.995 0-3.965 1.199-4.964 2.943-1.028.061-2.059.433-2.791 1.154-.98.793-1.375 1.802-1.375 2.962 0 2.15 1.572 3.926 3.734 4.123a.49.49 0 0 0 .046.002h1.274a.5.5 0 0 0 0-1h-1.251c-1.623-.159-2.803-1.486-2.803-3.125 0-.903.29-1.614 1.021-2.199a.564.564 0 0 0 .041-.036c.575-.576 1.472-.89 2.408-.89a.5.5 0 0 0 .447-.276c.782-1.564 2.512-2.658 4.213-2.658 1.786 0 3.407.952 4.249 2.39a.5.5 0 0 0 .863-.506zm6.951 6.057c-.445-2.779-2.967-4.774-5.791-4.774-1.995 0-3.965 1.199-4.964 2.943-1.028.061-2.059.433-2.792 1.154-.98.794-1.374 1.802-1.374 2.962 0 2.15 1.571 3.926 3.734 4.123l.045.002h6.483a.5.5 0 0 0 0-1h-6.459c-1.624-.159-2.803-1.486-2.803-3.125 0-.903.29-1.614 1.02-2.199a.426.426 0 0 0 .042-.036c.575-.576 1.471-.89 2.408-.89a.5.5 0 0 0 .447-.276c.782-1.564 2.511-2.658 4.213-2.658 2.523 0 4.697 1.89 4.852 4.364a.501.501 0 0 0 .597.46c.735-.148 1.451.001 2.018.427.539.404.836 1.103.836 1.844 0 .305-.003.54-.084.795-.079.246-.243.545-.627.917-.171.166-.511.283-1 .338a9.783 9.783 0 0 1 -1.147.04l-.21-.001h-.484a.5.5 0 0 0 0 1h.671c.353.003.826.006 1.282-.045.525-.06 1.158-.202 1.584-.614.479-.464.746-.9.884-1.331.131-.413.131-.788.131-1.08v-.02c0-.984-.393-2.012-1.236-2.643a3.441 3.441 0 0 0 -2.276-.677zm-2.355 5.911a.5.5 0 1 1 -1 0 .5.5 0 0 1 1 0z" fill="#18303f" fill-rule="evenodd"/></svg>