<svg fill="none" height="25" viewBox="0 0 25 25" width="25"><path clip-rule="evenodd" d="m12.5 1a.5.5 0 0 1 .5.5v3a.5.5 0 0 1 -1 0v-3a.5.5 0 0 1 .5-.5zm-5.5 11.5a5.5 5.5 0 1 1 11 0 5.5 5.5 0 0 1 -11 0zm5.5-4.5a4.5 4.5 0 1 0 0 9 4.5 4.5 0 0 0 0-9zm0 12a.5.5 0 0 1 .5.5v3a.5.5 0 0 1 -1 0v-3a.5.5 0 0 1 .5-.5zm-11.5-7.5a.5.5 0 0 1 .5-.5h3a.5.5 0 0 1 0 1h-3a.5.5 0 0 1 -.5-.5zm22.5.5h-3a.5.5 0 0 1 0-1h3a.5.5 0 0 1 0 1zm-19.354-8.854a.501.501 0 0 1 .708 0l2.121 2.122a.5.5 0 0 1 -.707.707l-2.122-2.121a.5.5 0 0 1 0-.708zm13.435 13.435a.501.501 0 0 1 .708 0l2.121 2.122a.5.5 0 0 1 -.707.707l-2.122-2.121a.5.5 0 0 1 0-.708zm3.273-13.435a.5.5 0 0 1 0 .708l-2.122 2.12a.5.5 0 1 1 -.707-.706l2.12-2.122a.501.501 0 0 1 .709 0zm-13.435 13.435a.5.5 0 0 1 0 .708l-2.122 2.12a.5.5 0 1 1 -.707-.706l2.121-2.122a.501.501 0 0 1 .708 0z" fill="#18303f" fill-rule="evenodd"/></svg>