<svg fill="none" height="25" viewBox="0 0 25 25" width="25"><path clip-rule="evenodd" d="m9.278 1.156c2.135 0 4.087 1.136 5.111 2.884a.5.5 0 0 1 -.862.506c-.843-1.439-2.464-2.39-4.25-2.39-1.7 0-3.43 1.094-4.212 2.658a.5.5 0 0 1 -.448.276c-.936 0-1.832.314-2.408.89a.502.502 0 0 1 -.04.036c-.731.584-1.022 1.296-1.022 2.199 0 1.64 1.18 2.966 2.803 3.125h1.252a.5.5 0 1 1 0 1h-1.275l-.045-.002c-2.163-.198-3.735-1.972-3.735-4.123 0-1.16.395-2.168 1.375-2.963.733-.72 1.763-1.092 2.792-1.153.999-1.745 2.969-2.943 4.964-2.943zm6.271 4.167c2.825 0 5.347 1.995 5.792 4.774a3.442 3.442 0 0 1 2.276.677c.842.631 1.235 1.658 1.235 2.643v.02c0 .292 0 .667-.131 1.08-.137.43-.404.867-.884 1.33-.425.413-1.058.555-1.583.614-.456.052-.929.049-1.281.046h-.673a.5.5 0 1 1 0-1h.697c.353.002.756.005 1.145-.04.488-.055.828-.171 1-.338.383-.37.548-.67.626-.916.081-.255.084-.49.084-.796 0-.74-.297-1.44-.835-1.843-.568-.426-1.284-.575-2.019-.428a.5.5 0 0 1 -.597-.46c-.154-2.472-2.328-4.363-4.851-4.363-1.702 0-3.432 1.094-4.214 2.658a.5.5 0 0 1 -.447.276c-.936 0-1.833.314-2.408.89a.504.504 0 0 1 -.041.036c-.73.584-1.02 1.296-1.02 2.199 0 1.64 1.179 2.966 2.802 3.125h6.46a.5.5 0 1 1 0 1h-6.483l-.046-.003c-2.162-.196-3.734-1.972-3.734-4.122 0-1.16.395-2.168 1.375-2.963.732-.72 1.763-1.092 2.791-1.153 1-1.745 2.97-2.943 4.964-2.943zm-12.897 17.667a.5.5 0 1 0 .707.707l3.829-3.829a.5.5 0 0 0 -.707-.707l-3.831 3.83zm4.426-.008a.5.5 0 1 0 .707.707l3.82-3.82a.5.5 0 0 0 -.707-.707zm4.594-.176a.5.5 0 1 0 .707.707l3.643-3.643a.5.5 0 1 0 -.707-.707zm4.5-.083a.5.5 0 1 0 .707.707l3.561-3.561a.5.5 0 1 0 -.707-.707zm2.314-6.216a.5.5 0 1 0 0-1 .5.5 0 0 0 0 1z" fill="#18303f" fill-rule="evenodd"/></svg>