<svg fill="none" height="25" viewBox="0 0 25 25" width="25"><path clip-rule="evenodd" d="m6.87 11.88h-2.94c-1.88-.173-3.246-1.709-3.246-3.587 0-1.024.341-1.878 1.195-2.56.683-.683 1.707-1.025 2.731-1.025.854-1.707 2.732-2.902 4.61-2.902 2.475 0 4.671 1.683 5.187 4.032.324-.07.654-.107.984-.107 2.732 0 5.122 2.049 5.292 4.78.854-.17 1.708 0 2.39.512.683.513 1.025 1.366 1.025 2.22 0 .593 0 1.222-.854 2.048-.542.525-1.71.518-2.479.513h-10.665c-1.878-.171-3.243-1.708-3.243-3.586 0-.115.004-.229.013-.34z" fill="#e0e5f0" fill-rule="evenodd"/><path d="m13.796 15.804h6.772l.198.001c.769.005 1.937.012 2.479-.513.854-.826.854-1.455.854-2.049 0-.853-.342-1.707-1.025-2.219-.682-.512-1.536-.683-2.39-.512a4.715 4.715 0 0 0 -.048-.449 7.002 7.002 0 0 0 -6.84 5.741z" fill="#fff"/><path clip-rule="evenodd" d="m14.242 3.884c-1.024-1.748-2.976-2.884-5.111-2.884-1.995 0-3.965 1.199-4.964 2.943-1.029.061-2.059.433-2.792 1.154-.98.793-1.375 1.802-1.375 2.962 0 2.15 1.572 3.926 3.735 4.123l.045.002h1.275a.5.5 0 0 0 0-1h-1.252c-1.623-.159-2.803-1.486-2.803-3.125 0-.903.291-1.614 1.021-2.199a.566.566 0 0 0 .041-.036c.576-.576 1.472-.89 2.408-.89a.5.5 0 0 0 .448-.276c.781-1.564 2.511-2.658 4.213-2.658 1.785 0 3.406.952 4.249 2.39a.5.5 0 1 0 .862-.506zm6.952 6.057c-.445-2.778-2.967-4.774-5.791-4.774-1.996 0-3.966 1.199-4.965 2.943-1.028.061-2.059.433-2.791 1.154-.98.794-1.375 1.802-1.375 2.962 0 2.15 1.572 3.926 3.735 4.123l.045.002h6.483a.5.5 0 0 0 0-1h-6.46c-1.623-.159-2.803-1.486-2.803-3.125 0-.903.291-1.614 1.021-2.199a.569.569 0 0 0 .041-.036c.576-.576 1.472-.89 2.408-.89.19 0 .363-.107.447-.276.782-1.564 2.512-2.658 4.214-2.658 2.523 0 4.697 1.89 4.851 4.364a.499.499 0 0 0 .598.46c.734-.148 1.45.001 2.018.427.539.404.836 1.103.836 1.844 0 .304-.003.54-.085.795-.078.246-.243.545-.626.917-.172.166-.511.283-1 .338-.39.044-.79.042-1.145.04h-.043l-.17-.001h-.484a.5.5 0 0 0 0 1h.671c.353.003.827.006 1.283-.045.525-.06 1.158-.202 1.583-.614.48-.464.747-.9.884-1.331.132-.413.132-.788.132-1.08v-.02c0-.984-.394-2.012-1.236-2.643a3.441 3.441 0 0 0 -2.276-.677zm-18.69 13.601a.5.5 0 0 1 0-.707l3.829-3.829a.5.5 0 1 1 .707.708l-3.83 3.828a.5.5 0 0 1 -.706 0zm4.426-.008a.5.5 0 0 1 0-.707l3.82-3.82a.5.5 0 1 1 .707.708l-3.82 3.82a.5.5 0 0 1 -.707 0zm4.594-.176a.5.5 0 0 1 0-.707l3.643-3.643a.5.5 0 1 1 .707.707l-3.643 3.643a.5.5 0 0 1 -.707 0zm4.5-.083a.5.5 0 0 1 0-.707l3.56-3.561a.5.5 0 1 1 .708.707l-3.561 3.561a.5.5 0 0 1 -.707 0zm2.814-7.422a.5.5 0 1 1 -1 0 .5.5 0 0 1 1 0z" fill="#18303f" fill-rule="evenodd"/></svg>