<svg fill="none" height="25" viewBox="0 0 25 25" width="25"><path d="m10.347 22.48h-5.598c-1.878-.171-3.244-1.707-3.244-3.585 0-1.025.342-1.878 1.195-2.561.683-.683 1.707-1.024 2.732-1.024.853-1.707 2.73-2.902 4.609-2.902 2.73 0 5.12 2.048 5.292 4.78.853-.171 1.707 0 2.39.512s1.024 1.365 1.024 2.219c0 .593 0 1.222-.853 2.049-.591.572-1.925.512-2.676.512" fill="#e0e5f0"/><path d="m8.444 22.48h6.971c.77.005 1.937.012 2.48-.513.852-.826.852-1.455.852-2.048 0-.854-.34-1.707-1.024-2.22-.683-.512-1.537-.682-2.39-.512a5.07 5.07 0 0 0 -.049-.448 7.003 7.003 0 0 0 -6.84 5.74z" fill="#fff"/><path d="m15.924 14.98a4.15 4.15 0 1 0 0-8.3 4.15 4.15 0 0 0 0 8.3z" fill="#f28102"/><g clip-rule="evenodd" fill-rule="evenodd"><path d="m15.924 14.98a4.15 4.15 0 0 0 4.11-4.724 4.15 4.15 0 0 0 -6.221 4.148c.619.366 1.34.576 2.11.576z" fill="#ffead2"/><path d="m16.507 2.5a.5.5 0 0 0 -1 0v2.157a.5.5 0 0 0 1 0zm-.739 14.13c-.443-2.749-2.939-4.722-5.733-4.722-1.974 0-3.923 1.186-4.913 2.911-1.016.061-2.036.43-2.761 1.142-.971.787-1.361 1.786-1.361 2.934 0 2.13 1.556 3.889 3.698 4.083.015.002.03.002.045.002h5.599a.5.5 0 0 0 0-1h-5.575c-1.603-.156-2.767-1.466-2.767-3.085 0-.891.286-1.593 1.007-2.17a.413.413 0 0 0 .041-.037c.568-.568 1.453-.878 2.378-.878.19 0 .363-.107.447-.276.773-1.545 2.481-2.626 4.162-2.626 2.493 0 4.641 1.868 4.793 4.311a.499.499 0 0 0 .597.46c.726-.146 1.432.001 1.992.421.531.399.825 1.088.825 1.82 0 .301-.003.533-.083.784-.078.243-.24.538-.619.905-.168.163-.502.278-.985.333a9.679 9.679 0 0 1 -1.135.039h-.686a.5.5 0 0 0 0 1h.667c.349.002.815.005 1.266-.046.519-.058 1.147-.199 1.569-.608.475-.46.739-.892.875-1.319.131-.41.131-.78.131-1.07v-.018c0-.976-.39-1.994-1.225-2.62a3.407 3.407 0 0 0 -2.249-.67zm-3.288 6.352a.5.5 0 1 0 0-1 .5.5 0 0 0 0 1zm-2.95-18.678a.5.5 0 0 1 .706 0l1.83 1.83a.5.5 0 1 1 -.707.707l-1.83-1.83a.499.499 0 0 1 0-.707zm-2.304 6.285a.5.5 0 0 1 .5-.5h2.157a.5.5 0 0 1 0 1h-2.157a.5.5 0 0 1 -.5-.5zm12.869 4.28a.5.5 0 0 1 .707 0l1.837 1.836a.5.5 0 0 1 -.707.707l-1.837-1.837a.5.5 0 0 1 0-.707zm1.416-4.092a.5.5 0 0 1 .5-.5h2.27a.5.5 0 0 1 0 1h-2.27a.5.5 0 0 1 -.5-.5zm1.121-6.473a.5.5 0 0 1 0 .707l-1.83 1.83a.5.5 0 1 1 -.707-.708l1.83-1.83a.5.5 0 0 1 .707 0zm-11.42 6.247c.197-2.55 2.337-4.413 4.782-4.413 2.706 0 4.796 1.888 4.796 4.643 0 2.305-1.578 4.125-3.603 4.645a.5.5 0 0 1 -.25-.968 3.78 3.78 0 0 0 2.853-3.677c0-2.155-1.593-3.643-3.796-3.643-1.941 0-3.63 1.479-3.785 3.49a.5.5 0 0 1 -.997-.077z" fill="#18303f"/></g></svg>