<svg fill="none" height="25" viewBox="0 0 25 25" width="25"><path clip-rule="evenodd" d="m6.87 10.88h-2.942c-1.878-.173-3.243-1.709-3.243-3.587 0-1.024.341-1.878 1.194-2.56.683-.683 1.708-1.025 2.732-1.025.853-1.706 2.731-2.901 4.609-2.901 2.475 0 4.67 1.683 5.187 4.032.324-.07.654-.107.984-.107 2.731 0 5.121 2.049 5.292 4.78.854-.17 1.707 0 2.39.512.683.513 1.024 1.366 1.024 2.22 0 .593 0 1.222-.853 2.048-.542.525-1.71.518-2.48.513h-10.664c-1.878-.171-3.244-1.708-3.244-3.586 0-.115.005-.229.014-.34z" fill="#e0e5f0" fill-rule="evenodd"/><path d="m13.795 14.804h6.773l.198.001c.769.005 1.937.012 2.479-.513.853-.826.853-1.455.853-2.049 0-.853-.341-1.707-1.024-2.219s-1.537-.683-2.39-.512a4.922 4.922 0 0 0 -.049-.449 7.002 7.002 0 0 0 -6.84 5.741z" fill="#fff"/><path d="m11.997 19.616 1.118-4.722h3.46l-.782 2.833h1.454l-4.132 6.667.448-4.778z" fill="#f28102"/><path clip-rule="evenodd" d="m9.13 0c2.136 0 4.088 1.136 5.112 2.884a.5.5 0 0 1 -.863.506c-.842-1.438-2.463-2.39-4.249-2.39-1.7 0-3.43 1.094-4.213 2.658a.5.5 0 0 1 -.447.276c-.936 0-1.833.314-2.408.89a.512.512 0 0 1 -.041.036c-.731.585-1.021 1.296-1.021 2.2 0 1.638 1.18 2.965 2.803 3.124h1.251a.5.5 0 1 1 0 1h-1.274a.49.49 0 0 1 -.045-.002c-2.164-.197-3.735-1.972-3.735-4.123 0-1.159.394-2.168 1.375-2.962.732-.721 1.763-1.093 2.791-1.154 1-1.743 2.97-2.943 4.964-2.943zm6.272 4.167c2.824 0 5.346 1.996 5.791 4.774a3.441 3.441 0 0 1 2.276.677c.842.631 1.236 1.659 1.236 2.644v.018c0 .293 0 .668-.131 1.08-.138.431-.405.868-.884 1.332-.426.412-1.059.554-1.584.614-.455.051-.928.048-1.281.046h-.043l-.145-.001h-.484a.5.5 0 1 1 0-1h.697a9.36 9.36 0 0 0 1.144-.04c.489-.054.828-.171 1-.337.384-.372.548-.671.627-.917.081-.255.084-.49.084-.795 0-.741-.297-1.44-.836-1.844-.567-.426-1.283-.575-2.018-.428a.5.5 0 0 1 -.597-.459c-.155-2.473-2.329-4.364-4.852-4.364-1.702 0-3.431 1.094-4.213 2.658a.5.5 0 0 1 -.447.276c-.937 0-1.833.314-2.408.89a.494.494 0 0 1 -.042.036c-.73.585-1.02 1.296-1.02 2.199 0 1.64 1.18 2.966 2.803 3.125h6.46c.152 0 .288.068.38.176a.498.498 0 0 1 .143.5l-.608 2.2h.797a.5.5 0 0 1 .425.764l-4.132 6.666a.5.5 0 0 1 -.923-.31l.396-4.23h-1.016a.5.5 0 0 1 -.487-.616l.983-4.15h-2.442c-.015 0-.03 0-.045-.002-2.163-.197-3.734-1.972-3.734-4.123 0-1.16.394-2.168 1.374-2.962.733-.721 1.764-1.093 2.792-1.154.999-1.745 2.969-2.943 4.964-2.943zm-2.773 14.95.882-3.723h2.408l-.608 2.2a.5.5 0 0 0 .482.633h.556l-2.538 4.094.25-2.658a.5.5 0 0 0 -.498-.547h-.934zm5.709-3.765a.5.5 0 1 0 0-1 .5.5 0 0 0 0 1z" fill="#18303f" fill-rule="evenodd"/></svg>