<svg fill="none" height="25" viewBox="0 0 25 25" width="25"><path clip-rule="evenodd" d="m12.354 1.198a.5.5 0 0 1 .5.5v3a.5.5 0 0 1 -1 0v-3a.5.5 0 0 1 .5-.5zm-5.5 11.5a5.5 5.5 0 1 1 10.999 0 5.5 5.5 0 0 1 -11 0zm5.5-4.5a4.5 4.5 0 1 0 0 9 4.5 4.5 0 0 0 0-9zm0 12a.5.5 0 0 1 .5.5v3a.5.5 0 0 1 -1 0v-3a.5.5 0 0 1 .5-.5zm-11.5-7.5a.5.5 0 0 1 .5-.5h3a.5.5 0 0 1 0 1h-3a.5.5 0 0 1 -.5-.5zm22.5.5h-3a.5.5 0 0 1 0-1h3a.5.5 0 0 1 0 1zm-19.354-8.853a.501.501 0 0 1 .708 0l2.12 2.121a.5.5 0 0 1 -.706.707l-2.122-2.121a.5.5 0 0 1 0-.707zm13.435 13.435a.501.501 0 0 1 .708 0l2.12 2.121a.5.5 0 0 1 -.706.707l-2.122-2.121a.5.5 0 0 1 0-.707zm3.272-13.435a.5.5 0 0 1 0 .707l-2.122 2.121a.5.5 0 1 1 -.707-.707l2.122-2.121a.501.501 0 0 1 .708 0zm-13.434 13.435a.5.5 0 0 1 0 .707l-2.123 2.121a.5.5 0 1 1 -.707-.707l2.12-2.121a.501.501 0 0 1 .709 0z" fill="#18303f" fill-rule="evenodd"/><path d="m12.354 17.198a4.5 4.5 0 1 0 0-9 4.5 4.5 0 0 0 0 9z" fill="#f28102"/><path clip-rule="evenodd" d="m12.354 17.198a4.5 4.5 0 0 0 4.457-5.122 4.5 4.5 0 0 0 -6.746 4.498 4.48 4.48 0 0 0 2.289.624z" fill="#ffead2" fill-rule="evenodd"/></svg>