<svg width="25" height="26" viewBox="0 0 25 26" fill="none"><path fill-rule="evenodd" clip-rule="evenodd" d="M9.277.802c2.135 0 4.087 1.136 5.112 2.884a.5.5 0 0 1-.863.506c-.843-1.439-2.464-2.39-4.25-2.39-1.7 0-3.43 1.094-4.212 2.658a.5.5 0 0 1-.448.276c-.936 0-1.832.314-2.408.89a.512.512 0 0 1-.04.036c-.731.584-1.022 1.296-1.022 2.199 0 1.64 1.18 2.966 2.803 3.125h1.252a.5.5 0 1 1 0 1H3.926a.49.49 0 0 1-.045-.003C1.718 11.787.146 10.011.146 7.861c0-1.16.395-2.168 1.375-2.963.732-.72 1.763-1.092 2.791-1.153C5.312 2 7.282.802 9.277.802Zm6.272 4.167c2.824 0 5.346 1.995 5.79 4.774a3.441 3.441 0 0 1 2.277.677c.842.631 1.236 1.658 1.236 2.643v.02c0 .291 0 .666-.132 1.08-.137.43-.404.867-.884 1.33-.425.413-1.058.555-1.583.614-.456.052-.929.049-1.282.046h-.672a.5.5 0 1 1 0-1h.697c.354.002.755.005 1.145-.04.488-.054.828-.171 1-.338.383-.37.548-.67.626-.916.082-.255.085-.49.085-.796 0-.74-.297-1.44-.836-1.843-.568-.426-1.284-.575-2.019-.428a.5.5 0 0 1-.597-.46c-.154-2.472-2.328-4.362-4.85-4.362-1.702 0-3.432 1.094-4.214 2.658a.5.5 0 0 1-.447.276c-.936 0-1.833.314-2.408.89a.494.494 0 0 1-.041.036c-.73.584-1.02 1.296-1.02 2.199 0 1.64 1.179 2.966 2.802 3.124h6.46c.152 0 .289.069.38.177a.498.498 0 0 1 .143.5l-.608 2.2h.797a.5.5 0 0 1 .425.763l-4.131 6.667a.5.5 0 0 1-.923-.31l.396-4.231h-1.017a.5.5 0 0 1-.486-.615l.983-4.15h-2.442l-.046-.002c-2.162-.197-3.734-1.973-3.734-4.123 0-1.16.395-2.169 1.375-2.963.732-.72 1.763-1.092 2.791-1.153 1-1.745 2.97-2.943 4.965-2.943Zm-2.774 14.949.882-3.722h2.408l-.608 2.2a.5.5 0 0 0 .482.633h.556l-2.537 4.094.249-2.659a.5.5 0 0 0-.498-.546h-.934Zm5.71-3.764a.5.5 0 1 0 0-1 .5.5 0 0 0 0 1Z" fill="#18303F" yggColor="weather_thunder"/></svg>