<svg fill="none" height="25" viewBox="0 0 25 25" width="25"><path clip-rule="evenodd" d="m14.388 3.686c-1.024-1.748-2.976-2.884-5.111-2.884-1.995 0-3.965 1.198-4.964 2.943-1.029.061-2.059.433-2.792 1.153-.98.795-1.375 1.803-1.375 2.963 0 2.15 1.572 3.926 3.735 4.122l.045.003h1.275a.5.5 0 0 0 0-1h-1.252c-1.623-.159-2.803-1.486-2.803-3.126 0-.903.291-1.615 1.021-2.199a.566.566 0 0 0 .041-.037c.576-.575 1.472-.889 2.408-.889a.5.5 0 0 0 .448-.276c.781-1.564 2.511-2.658 4.213-2.658 1.785 0 3.406.951 4.249 2.39a.5.5 0 1 0 .862-.506zm6.952 6.057c-.445-2.779-2.967-4.774-5.791-4.774-1.996 0-3.966 1.198-4.965 2.943-1.028.061-2.059.433-2.791 1.153-.98.794-1.375 1.803-1.375 2.963 0 2.15 1.572 3.926 3.735 4.123l.045.002h6.483a.5.5 0 0 0 0-1h-6.46c-1.623-.159-2.803-1.486-2.803-3.125 0-.903.291-1.615 1.021-2.199a.564.564 0 0 0 .041-.037c.576-.575 1.472-.889 2.408-.889.19 0 .363-.107.447-.276.782-1.564 2.512-2.658 4.214-2.658 2.523 0 4.697 1.89 4.851 4.364a.499.499 0 0 0 .598.459c.734-.147 1.45.002 2.018.428.539.404.836 1.102.836 1.843 0 .305-.003.54-.085.796-.078.246-.243.545-.626.916-.172.167-.511.284-1 .339-.39.044-.79.041-1.145.04h-.043l-.17-.002h-.484a.5.5 0 0 0 0 1h.484l.146.001h.042c.353.003.826.006 1.282-.046.525-.059 1.158-.201 1.583-.613.48-.464.747-.9.884-1.332.132-.413.132-.787.132-1.08v-.019c0-.985-.394-2.012-1.236-2.643a3.44 3.44 0 0 0 -2.276-.677zm-2.356 5.911a.5.5 0 1 1 -1 .001.5.5 0 0 1 1 0zm-12.984 3.346a1 1 0 1 1 -2 0 1 1 0 0 1 2 0zm5 2a1 1 0 1 1 -2 0 1 1 0 0 1 2 0zm7-2a1 1 0 1 1 -2 0 1 1 0 0 1 2 0zm-14 4a1 1 0 1 1 -2 0 1 1 0 0 1 2 0zm12 0a1 1 0 1 1 -2 0 1 1 0 0 1 2 0z" fill="#18303f" fill-rule="evenodd"/></svg>