<svg width="25" height="25" viewBox="0 0 25 25" fill="none"><g id="weather_fog_colorful"><path fill-rule="evenodd" clip-rule="evenodd" d="M6.87 11.88H3.928C2.05 11.707.685 10.171.685 8.293c0-1.024.341-1.878 1.195-2.56.682-.683 1.707-1.025 2.73-1.025.854-1.707 2.732-2.902 4.61-2.902 2.476 0 4.671 1.683 5.188 4.032.324-.07.654-.107.984-.107 2.731 0 5.121 2.049 5.292 4.78.854-.17 1.707 0 2.39.512.683.513 1.024 1.366 1.024 2.22 0 .593 0 1.222-.853 2.048-.542.525-1.71.518-2.48.513H10.1c-1.878-.171-3.244-1.708-3.244-3.586 0-.115.005-.229.014-.34Z" fill="#E0E5F0" yggColor="backgroundDisabled"/><path d="M13.795 15.804h6.773l.198.001c.769.005 1.937.012 2.479-.513.853-.826.853-1.455.853-2.049 0-.853-.341-1.707-1.024-2.219-.683-.512-1.537-.683-2.39-.512a4.918 4.918 0 0 0-.049-.449 7.002 7.002 0 0 0-6.84 5.741Z" fill="#fff" yggColor="iconInverse"/><path fill-rule="evenodd" clip-rule="evenodd" d="M14.242 3.884C13.218 2.136 11.266 1 9.13 1 7.135 1 5.165 2.199 4.166 3.943c-1.028.061-2.059.433-2.791 1.154C.395 5.89 0 6.899 0 8.059c0 2.15 1.572 3.926 3.734 4.123l.046.002h1.274a.5.5 0 0 0 0-1H3.803C2.18 11.025 1 9.698 1 8.059c0-.903.29-1.614 1.02-2.199a.502.502 0 0 0 .042-.036c.575-.576 1.472-.89 2.408-.89a.5.5 0 0 0 .447-.276C5.7 3.094 7.43 2 9.13 2c1.785 0 3.407.952 4.25 2.39a.5.5 0 0 0 .862-.506Zm6.951 6.057c-.445-2.778-2.967-4.774-5.791-4.774-1.995 0-3.965 1.199-4.964 2.943-1.028.061-2.06.433-2.792 1.154-.98.794-1.374 1.802-1.374 2.962 0 2.15 1.571 3.926 3.734 4.123l.045.002h6.483a.5.5 0 1 0 0-1h-6.46c-1.623-.159-2.802-1.486-2.802-3.125 0-.903.29-1.614 1.02-2.199a.504.504 0 0 0 .042-.036c.575-.576 1.471-.89 2.408-.89a.5.5 0 0 0 .447-.276c.782-1.564 2.511-2.658 4.213-2.658 2.523 0 4.697 1.89 4.852 4.364a.5.5 0 0 0 .597.46c.735-.148 1.45.001 2.018.427.539.404.836 1.103.836 1.844 0 .304-.003.54-.084.795-.079.246-.243.545-.627.917-.172.166-.511.283-1 .338a9.78 9.78 0 0 1-1.144.04h-.044l-.17-.001h-.483a.5.5 0 0 0 0 1h.671c.354.003.827.006 1.282-.045.525-.06 1.158-.202 1.584-.614.48-.464.746-.9.883-1.331.132-.413.132-.788.132-1.08v-.02c0-.984-.393-2.012-1.236-2.643a3.442 3.442 0 0 0-2.276-.677Zm-17.84 9.257a.5.5 0 0 1 .5-.5h7a.5.5 0 1 1 0 1h-7a.5.5 0 0 1-.5-.5Zm12 0a.5.5 0 0 1 .5-.5h3a.5.5 0 1 1 0 1h-3a.5.5 0 0 1-.5-.5Zm-7 4a.5.5 0 0 1 .5-.5h8a.5.5 0 1 1 0 1h-8a.5.5 0 0 1-.5-.5Zm10.485-7.346a.5.5 0 1 1-1 0 .5.5 0 0 1 1 0Z" fill="#18303F" yggColor="iconDefault"/></g></svg>