<svg width="25" height="25" viewBox="0 0 25 25" fill="none"><g id="weather_cloud"><path fill-rule="evenodd" clip-rule="evenodd" d="M14.242 7.884C13.218 6.136 11.266 5 9.13 5 7.135 5 5.165 6.199 4.166 7.943c-1.028.061-2.059.433-2.791 1.154C.395 9.89 0 10.899 0 12.059c0 2.15 1.572 3.926 3.734 4.123a.49.49 0 0 0 .046.002h1.274a.5.5 0 0 0 0-1H3.803C2.18 15.025 1 13.698 1 12.059c0-.903.29-1.614 1.021-2.199a.564.564 0 0 0 .041-.036c.575-.576 1.472-.89 2.408-.89a.5.5 0 0 0 .447-.276C5.699 7.094 7.429 6 9.13 6c1.786 0 3.407.952 4.249 2.39a.5.5 0 0 0 .863-.506Zm6.951 6.057c-.445-2.779-2.967-4.774-5.791-4.774-1.995 0-3.965 1.199-4.964 2.943-1.028.061-2.059.433-2.792 1.154-.98.794-1.374 1.802-1.374 2.962 0 2.15 1.571 3.926 3.734 4.123l.045.002h6.483a.5.5 0 0 0 0-1h-6.459c-1.624-.159-2.803-1.486-2.803-3.125 0-.903.29-1.614 1.02-2.199a.426.426 0 0 0 .042-.036c.575-.576 1.471-.89 2.408-.89a.5.5 0 0 0 .447-.276c.782-1.564 2.511-2.658 4.213-2.658 2.523 0 4.697 1.89 4.852 4.364a.501.501 0 0 0 .597.46c.735-.148 1.451.001 2.018.427.539.404.836 1.103.836 1.844 0 .305-.003.54-.084.795-.079.246-.243.545-.627.917-.171.166-.511.283-1 .338a9.783 9.783 0 0 1-1.147.04l-.21-.001h-.484a.5.5 0 0 0 0 1H20.824c.353.003.826.006 1.282-.045.525-.06 1.158-.202 1.584-.614.479-.464.746-.9.884-1.331.131-.413.131-.788.131-1.08v-.02c0-.984-.393-2.012-1.236-2.643a3.441 3.441 0 0 0-2.276-.677Zm-2.355 5.911a.5.5 0 1 1-1 0 .5.5 0 0 1 1 0Z" fill="#18303F" yggColor="iconDefault"/></g></svg>