<svg fill="none" height="25" viewBox="0 0 25 25" width="25"><path clip-rule="evenodd" d="m16.028 2.29a.5.5 0 0 0 -1 0v2.157a.5.5 0 1 0 1 0zm-.74 14.13c-.443-2.749-2.938-4.722-5.732-4.722-1.975 0-3.924 1.185-4.913 2.911-1.017.061-2.037.43-2.762 1.142-.97.787-1.361 1.786-1.361 2.934 0 2.13 1.556 3.889 3.698 4.083.015.002.03.002.046.002h5.598a.5.5 0 0 0 0-1h-5.575c-1.603-.156-2.767-1.466-2.767-3.085 0-.891.287-1.593 1.007-2.17a.425.425 0 0 0 .042-.037c.567-.568 1.452-.878 2.377-.878a.5.5 0 0 0 .448-.276c.772-1.545 2.481-2.626 4.162-2.626 2.493 0 4.64 1.868 4.793 4.311a.498.498 0 0 0 .597.46c.725-.146 1.431.001 1.992.421.531.399.824 1.088.824 1.82 0 .301-.003.533-.083.784-.077.243-.24.538-.619.905-.168.163-.502.278-.985.333a9.662 9.662 0 0 1 -1.134.039h-.687a.5.5 0 0 0 0 1h.667c.349.002.816.005 1.266-.046.519-.058 1.147-.199 1.569-.608.475-.46.739-.892.876-1.319.13-.409.13-.78.13-1.07v-.018c0-.976-.39-1.994-1.224-2.62a3.41 3.41 0 0 0 -2.25-.67zm-3.288 6.351a.5.5 0 1 0 0-1 .5.5 0 0 0 0 1zm-2.95-18.676a.5.5 0 0 1 .706 0l1.83 1.83a.5.5 0 0 1 -.708.706l-1.828-1.831a.5.5 0 0 1 0-.706zm-2.304 6.285a.5.5 0 0 1 .5-.5h2.157a.5.5 0 0 1 0 1h-2.157a.5.5 0 0 1 -.5-.5zm12.869 4.28a.5.5 0 0 1 .707 0l1.837 1.836a.5.5 0 1 1 -.707.707l-1.837-1.837a.5.5 0 0 1 0-.707zm1.416-4.092a.5.5 0 0 1 .5-.5h2.27a.5.5 0 0 1 0 1h-2.27a.5.5 0 0 1 -.5-.5zm1.121-6.473a.5.5 0 0 1 0 .707l-1.83 1.83a.5.5 0 1 1 -.707-.708l1.83-1.83a.5.5 0 0 1 .707 0zm-11.42 6.247c.197-2.55 2.337-4.413 4.782-4.413 2.707 0 4.796 1.888 4.796 4.643 0 2.305-1.577 4.125-3.603 4.645a.5.5 0 0 1 -.25-.968 3.78 3.78 0 0 0 2.853-3.677c0-2.155-1.593-3.643-3.796-3.643-1.941 0-3.629 1.479-3.785 3.49a.5.5 0 0 1 -.997-.077z" fill="#18303f" fill-rule="evenodd"/></svg>