<svg width="26" height="25" viewBox="0 0 26 25" fill="none"><g id="weather_cloud_colorful"><path fill-rule="evenodd" clip-rule="evenodd" d="M7.87 15.777H4.928c-1.878-.171-3.243-1.708-3.243-3.585 0-1.025.341-1.878 1.194-2.561.683-.683 1.708-1.024 2.732-1.024.853-1.707 2.731-2.902 4.61-2.902 2.475 0 4.67 1.683 5.187 4.032.324-.07.653-.107.984-.107 2.732 0 5.122 2.048 5.291 4.78.855-.17 1.709 0 2.39.512.683.512 1.026 1.366 1.026 2.22 0 .592 0 1.221-.855 2.048-.541.525-1.71.517-2.479.513l-.197-.001H11.1c-1.878-.17-3.244-1.707-3.244-3.585 0-.116.005-.23.014-.34Z" fill="#E0E5F0" yggColor="backgroundDisabled"/><path d="M14.795 19.702h6.97c.77.005 1.937.012 2.48-.513.853-.826.853-1.455.853-2.048 0-.854-.342-1.707-1.025-2.22-.682-.511-1.536-.682-2.39-.511a4.72 4.72 0 0 0-.048-.45 7.002 7.002 0 0 0-6.84 5.742Z" fill="#fff" yggColor="iconInverse"/><path fill-rule="evenodd" clip-rule="evenodd" d="M15.095 8.083c-1.024-1.749-2.976-2.885-5.111-2.885-1.995 0-3.965 1.199-4.964 2.944-1.028.06-2.06.432-2.792 1.153-.98.794-1.374 1.802-1.374 2.962 0 2.151 1.571 3.926 3.734 4.123l.045.002h1.275a.5.5 0 0 0 0-1H4.657c-1.624-.158-2.803-1.485-2.803-3.125 0-.903.29-1.614 1.02-2.198a.496.496 0 0 0 .041-.037c.576-.576 1.472-.89 2.409-.89a.5.5 0 0 0 .447-.276c.781-1.563 2.511-2.658 4.213-2.658 1.785 0 3.406.952 4.248 2.39a.5.5 0 0 0 .864-.505Zm6.951 6.056c-.445-2.778-2.967-4.774-5.79-4.774-1.996 0-3.966 1.199-4.965 2.944-1.028.06-2.059.432-2.791 1.153-.98.794-1.375 1.802-1.375 2.962 0 2.151 1.572 3.926 3.735 4.123l.045.002h6.482a.5.5 0 0 0 0-1h-6.459c-1.623-.158-2.803-1.485-2.803-3.125 0-.903.29-1.614 1.02-2.198a.498.498 0 0 0 .042-.037c.576-.576 1.472-.89 2.408-.89a.5.5 0 0 0 .447-.276c.782-1.563 2.511-2.658 4.213-2.658 2.523 0 4.697 1.891 4.852 4.364a.501.501 0 0 0 .597.46c.735-.148 1.451.001 2.018.427.54.404.836 1.103.836 1.844 0 .305-.003.54-.084.795-.079.246-.242.546-.627.917-.17.166-.51.283-1 .338a9.785 9.785 0 0 1-1.147.04h-.004l-.206-.001h-.484a.5.5 0 0 0 0 1h.671c.354.003.827.006 1.282-.045.525-.06 1.158-.202 1.584-.614.48-.464.746-.9.884-1.331.131-.413.131-.788.131-1.08v-.02c0-.984-.393-2.011-1.236-2.643a3.441 3.441 0 0 0-2.276-.677Zm-2.355 5.912a.5.5 0 1 1-1 0 .5.5 0 0 1 1 0Z" fill="#18303F" yggColor="iconDefault"/></g></svg>