<svg width="25" height="25" viewBox="0 0 25 25" fill="none"><g id="weight"><path fill-rule="evenodd" clip-rule="evenodd" d="M6.697 9.062a3 3 0 0 0 3-3v-.255a1 1 0 0 0-1-1H1.122a1 1 0 0 0-1 1v.255a3 3 0 0 0 3 3h.755a.451.451 0 0 0 .007.098 1 1 0 0 0-.57.902v.128a1 1 0 0 0 1 1h1.192a1 1 0 0 0 .887-.538c.189.04.379.063.572.068.972.025 1.907-.416 3.02-1.236.319-.215.607-.391.873-.531l-.001.036a1.5 1.5 0 0 0 1.168 1.463.495.495 0 0 0-.113.316v5.17H6.646a3 3 0 0 0-3 3v.255a1 1 0 0 0 1 1h15.733a1 1 0 0 0 1-1v-.256a3 3 0 0 0-3-3h-5.467v-4.735c.568.076 1.22.367 2.103.965 1.113.82 2.048 1.26 3.02 1.236.193-.005.383-.028.572-.068.166.32.501.538.887.538h1.191a1 1 0 0 0 1-1v-.128a1 1 0 0 0-.569-.903.526.526 0 0 0 .007-.097h.755a3 3 0 0 0 3-3v-.256a1 1 0 0 0-1-1h-7.575a1 1 0 0 0-1 1v.256a3 3 0 0 0 3 3h1.191a1 1 0 0 0-.9.563c-.203.06-.395.09-.584.095-.636.016-1.347-.263-2.41-1.047a.092.092 0 0 0-.005-.003l-.011-.009c-.874-.592-1.639-.976-2.389-1.11a1.5 1.5 0 0 0-1.097-2.722c-.846.078-1.695.48-2.682 1.15a.264.264 0 0 1-.007.005l-.009.006c-1.063.785-1.775 1.064-2.41 1.048a2.25 2.25 0 0 1-.584-.096 1.001 1.001 0 0 0-.9-.563h1.191Zm-5.575-3a2 2 0 0 0 2 2h3.575a2 2 0 0 0 2-2v-.255H1.122v.255ZM11.857 8.99a.5.5 0 0 1 .382-.486c.042-.003.084-.004.125-.005.02 0 .04-.002.059-.004a.5.5 0 1 1-.566.495Zm-7.211 9.948a2 2 0 0 1 2-2h11.733a2 2 0 0 1 2 2v.256H4.646v-.256ZM16.303 8.745a2 2 0 0 0 2 2h3.575a2 2 0 0 0 2-2v-.256h-7.575v.256Z" fill="#18303F" yggColor="iconDefault"/></g></svg>