<svg fill="none" height="25" viewBox="0 0 25 25" width="25"><g clip-rule="evenodd" fill-rule="evenodd"><path d="m2.978 10.124a13.566 13.566 0 0 1 19.044 0 .75.75 0 0 0 1.053-1.068 15.067 15.067 0 0 0 -21.15 0 .75.75 0 0 0 1.053 1.068zm3.307 3.313a8.898 8.898 0 0 1 12.43 0 .75.75 0 1 0 1.047-1.073 10.399 10.399 0 0 0 -14.524 0 .75.75 0 0 0 1.047 1.073z" fill="#9ca8ad"/><path d="m9.591 16.762a4.201 4.201 0 0 1 5.818 0 .75.75 0 0 0 1.038-1.082 5.701 5.701 0 0 0 -7.894 0 .75.75 0 1 0 1.038 1.082zm3.69 2.77a.781.781 0 1 1 -1.562 0 .781.781 0 0 1 1.562 0z" fill="#18303f"/></g></svg>