<svg width="25" height="25" viewBox="0 0 25 25" fill="none"><path fill-rule="evenodd" clip-rule="evenodd" d="M8.396 5.505c0-.416.36-.824 1.08-1.224.736-.416 1.6-.624 2.592-.624 1.44 0 2.552.4 3.336 1.2.8.8 1.2 1.824 1.2 3.072 0 .688-.136 1.352-.408 1.992-.256.624-.536 1.104-.84 1.44-.288.336-.656.72-1.104 1.152-.448.416-.728.696-.84.84-.368.4-.6.848-.696 1.344-.096.496-.144 1.264-.144 2.304 0 .368-.216.552-.648.552-.432 0-.648-.232-.648-.696 0-1.232.088-2.136.264-2.712.176-.592.432-1.08.768-1.464.128-.128.408-.392.84-.792.448-.416.792-.76 1.032-1.032s.472-.664.696-1.176c.24-.512.36-1.056.36-1.632 0-.96-.28-1.712-.84-2.256-.56-.544-1.36-.816-2.4-.816-.624 0-1.144.104-1.56.312-.4.192-.704.384-.912.576-.208.192-.384.288-.528.288a.611.611 0 0 1-.408-.168.651.651 0 0 1-.192-.48Zm4.38 15.057a.782.782 0 1 1-1.563 0 .782.782 0 0 1 1.563 0Z" fill="#18303F" yggColor="wifi_unknown"/></svg>