<svg width="25" height="25" viewBox="0 0 25 25" fill="none"><g id="wifi_excellent"><path fill-rule="evenodd" clip-rule="evenodd" d="M2.978 10.124a13.566 13.566 0 0 1 19.044 0 .75.75 0 0 0 1.053-1.068 15.067 15.067 0 0 0-21.15 0 .75.75 0 0 0 1.053 1.068Zm9.522.783a8.898 8.898 0 0 0-6.215 2.53.75.75 0 1 1-1.047-1.074 10.399 10.399 0 0 1 14.524 0 .75.75 0 0 1-1.047 1.074 8.898 8.898 0 0 0-6.215-2.53Zm-2.909 5.855a4.201 4.201 0 0 1 5.818 0 .75.75 0 0 0 1.038-1.082 5.701 5.701 0 0 0-7.894 0 .75.75 0 0 0 1.038 1.082Zm2.909 3.55a.781.781 0 1 0 0-1.562.781.781 0 0 0 0 1.563Z" fill="#18303F" yggColor="iconDefault"/></g></svg>