<svg width="25" height="25" viewBox="0 0 25 25" fill="none"><g id="wifi_ok" fill-rule="evenodd" clip-rule="evenodd"><path d="M12.5 6.22a13.566 13.566 0 0 0-9.522 3.904.75.75 0 0 1-1.053-1.068 15.066 15.066 0 0 1 21.15 0 .75.75 0 0 1-1.053 1.068A13.566 13.566 0 0 0 12.5 6.22Z" fill="#9CA8AD" yggColor="iconDisabled"/><path d="M12.5 10.908a8.898 8.898 0 0 0-6.215 2.53.75.75 0 1 1-1.047-1.074 10.398 10.398 0 0 1 14.524 0 .75.75 0 0 1-1.047 1.073 8.898 8.898 0 0 0-6.215-2.53Zm0 4.684c-1.084 0-2.126.42-2.909 1.17a.75.75 0 1 1-1.038-1.082 5.701 5.701 0 0 1 7.894 0 .75.75 0 1 1-1.038 1.082 4.201 4.201 0 0 0-2.909-1.17Zm0 4.72a.781.781 0 1 0 0-1.562.781.781 0 0 0 0 1.563Z" fill="#18303F" yggColor="iconDefault"/></g></svg>