<svg fill="none" height="25" viewBox="0 0 25 25" width="25"><g clip-rule="evenodd" fill-rule="evenodd"><path d="m12.5 6.22a13.566 13.566 0 0 0 -9.522 3.904.75.75 0 0 1 -1.053-1.068 15.066 15.066 0 0 1 21.15 0 .75.75 0 0 1 -1.053 1.068 13.566 13.566 0 0 0 -9.522-3.904z" fill="#9ca8ad"/><path d="m12.5 10.908a8.898 8.898 0 0 0 -6.215 2.53.75.75 0 1 1 -1.047-1.074 10.398 10.398 0 0 1 14.524 0 .75.75 0 0 1 -1.047 1.073 8.898 8.898 0 0 0 -6.215-2.53zm0 4.684c-1.084 0-2.126.42-2.909 1.17a.75.75 0 1 1 -1.038-1.082 5.701 5.701 0 0 1 7.894 0 .75.75 0 1 1 -1.038 1.082 4.201 4.201 0 0 0 -2.909-1.17zm0 4.72a.781.781 0 1 0 0-1.562.781.781 0 0 0 0 1.563z" fill="#18303f"/></g></svg>