<svg fill="none" height="25" viewBox="0 0 25 25" width="25"><path clip-rule="evenodd" d="m4.482 3.195a.75.75 0 0 1 1.06.05l5.85 6.437a.795.795 0 0 1 .018.02l5.068 5.574a.747.747 0 0 1 .096.105l4.592 5.052a.75.75 0 0 1 -1.11 1.009l-4.618-5.08a4.22 4.22 0 0 0 -5.549.245.75.75 0 0 1 -1.036-1.085 5.72 5.72 0 0 1 4.398-1.566l-2.665-2.931a8.85 8.85 0 0 0 -4 2.255.75.75 0 0 1 -1.05-1.071 10.35 10.35 0 0 1 3.93-2.416l-2.287-2.517a13.479 13.479 0 0 0 -3.9 2.69.75.75 0 0 1 -1.056-1.065 14.978 14.978 0 0 1 3.902-2.785l-1.694-1.861a.75.75 0 0 1 .05-1.06zm17.838 6.771a13.469 13.469 0 0 0 -9.52-3.904h-.002c-.647 0-1.292.046-1.932.14a.75.75 0 0 1 -.216-1.485c.711-.104 1.43-.155 2.148-.155h-.001l.002.75v-.75c3.96-.01 7.764 1.55 10.577 4.339a.75.75 0 0 1 -1.056 1.065zm-7.896.147a.75.75 0 0 1 .909-.548 10.273 10.273 0 0 1 4.73 2.644.75.75 0 1 1 -1.052 1.07 8.77 8.77 0 0 0 -4.039-2.258.75.75 0 0 1 -.548-.908zm-.844 9.262a.781.781 0 1 1 -1.563 0 .781.781 0 0 1 1.563 0z" fill="#18303f" fill-rule="evenodd"/></svg>