<svg fill="none" height="25" viewBox="0 0 25 25" width="25"><path clip-rule="evenodd" d="m6.785 2.122a3.5 3.5 0 0 0 -3.5 3.5v13.756a3.5 3.5 0 0 0 3.5 3.5h11.43a3.5 3.5 0 0 0 3.5-3.5v-13.756a3.5 3.5 0 0 0 -3.5-3.5zm-2.478 3.24a.505.505 0 0 0 -.005-.027 2.5 2.5 0 0 1 2.483-2.213h11.43a2.5 2.5 0 0 1 2.483 2.214.462.462 0 0 0 -.004.027l-1.84 11.859a.5.5 0 0 1 -.494.423h-3.525a.973.973 0 0 0 -.972-.945h-2.757a.973.973 0 0 0 -.973.945h-3.49a.5.5 0 0 1 -.493-.423z" fill="#18303f" fill-rule="evenodd"/></svg>