<svg width="25" height="25" viewBox="0 0 25 25" fill="none"><path fill-rule="evenodd" clip-rule="evenodd" d="M8.569 4c-.736 0-1.333.597-1.333 1.333a.5.5 0 1 1-1 0 2.333 2.333 0 1 1 2.333 2.332h-5.38a.5.5 0 0 1 0-1h5.38a1.333 1.333 0 1 0 0-2.665Zm6.5 1.044a2.201 2.201 0 0 0-2.2 2.201.5.5 0 0 1-1 0 3.201 3.201 0 1 1 3.2 3.202H7.141a.5.5 0 0 1 0-1h7.928a2.201 2.201 0 0 0 0-4.403ZM4.21 9.447a.5.5 0 0 0 0 1h1.27a.5.5 0 0 0 0-1H4.21Zm16.08 7.438a2.001 2.001 0 0 1-2.002-2.002.5.5 0 1 0-1 0 3.001 3.001 0 1 0 3.002-3.001h-7.343a.5.5 0 1 0 0 1h7.342a2.001 2.001 0 1 1 0 4.003ZM9.68 12.882a.5.5 0 0 1 0-1h1.175a.5.5 0 1 1 0 1H9.68Zm3.854 5.767a1.333 1.333 0 1 0 1.333-1.333H9.488a.5.5 0 0 1 0-1h5.38a2.333 2.333 0 1 1-2.334 2.333.5.5 0 0 1 1 0ZM1.979 16.816a.5.5 0 0 1 .5-.5h4.309a.5.5 0 0 1 0 1h-4.31a.5.5 0 0 1-.5-.5Zm3-2a.5.5 0 0 1 .5-.5h4.309a.5.5 0 0 1 0 1h-4.31a.5.5 0 0 1-.5-.5ZM2 7.166a.5.5 0 1 1-1 0 .5.5 0 0 1 1 0Zm6.401 5.216a.5.5 0 1 1-1 0 .5.5 0 0 1 1 0Z" fill="#18303F" yggColor="wind"/></svg>