<svg width="25" height="25" viewBox="0 0 25 25" fill="none"><g yggColor="window_locked"><path yggColor="iconDefault" fill-rule="evenodd" clip-rule="evenodd" d="M4.57 4.782a3.5 3.5 0 0 1 3.5-3.5H19.5a3.5 3.5 0 0 1 3.5 3.5v13.756a3.5 3.5 0 0 1-3.5 3.5h-5.093a.973.973 0 0 1 0-1.945h.757c.528 0 .958.42.972.945H19.5a2.5 2.5 0 0 0 2.5-2.5V4.782a2.5 2.5 0 0 0-2.5-2.5H8.07a2.5 2.5 0 0 0-2.5 2.5v3.756a.5.5 0 1 1-1 0V4.782Zm6.38 8.495v1.488h.071a1.64 1.64 0 0 1 1.636 1.636v4.049c0 .873-.4 1.688-.99 2.278-.59.59-1.404.99-2.278.99h-4.12c-.874 0-1.688-.4-2.278-.99C2.4 22.138 2 21.323 2 20.449v-4.048a1.64 1.64 0 0 1 1.636-1.636h.066v-1.488c0-1.98 1.644-3.624 3.624-3.624 1.98 0 3.624 1.644 3.624 3.624Zm-3.624-2.624c1.428 0 2.624 1.196 2.624 2.624v1.488H4.702v-1.488c0-1.428 1.196-2.624 2.624-2.624Zm3.695 5.112H3.636a.64.64 0 0 0-.636.636v4.049c0 .567.264 1.137.698 1.57.433.434 1.003.698 1.571.698h4.12c.567 0 1.137-.264 1.571-.697.434-.434.697-1.004.697-1.572v-4.048a.64.64 0 0 0-.636-.636Zm-2.512 3.136c0 .475-.28.884-.684 1.072v.347a.5.5 0 0 1-1 0v-.349a1.182 1.182 0 1 1 1.684-1.07Z" fill="#18303F"/></g></svg>