<svg fill="none" height="25" viewBox="0 0 25 25" width="25"><path clip-rule="evenodd" d="m21.43 5.5a3.5 3.5 0 0 0 -3.5-3.5h-11.429a3.5 3.5 0 0 0 -3.5 3.5v7.561a.16.16 0 0 0 -.001.022v.173l.001.038v5.962a3.5 3.5 0 0 0 3.5 3.5h5.984a.5.5 0 1 0 0-1h-5.984a2.5 2.5 0 0 1 -2.5-2.5v-4.585c.156.055.324.085.499.085h5.865c.014.248.22.445.472.445h2.757a.473.473 0 0 0 .472-.445h5.863a1.5 1.5 0 0 0 .501-.086v4.586a2.5 2.5 0 0 1 -2.5 2.5h-1.61a.5.5 0 0 0 0 1h1.61a3.5 3.5 0 0 0 3.5-3.5zm-17.429 0v7.778a.5.5 0 0 0 .499.478h15.429a.5.5 0 0 0 .5-.5v-.183l.001-.012v-7.561a2.5 2.5 0 0 0 -2.5-2.5h-11.429a2.5 2.5 0 0 0 -2.5 2.5zm10.862 16.757a.5.5 0 1 1 -.999 0 .5.5 0 0 1 .999 0z" fill="#18303f" fill-rule="evenodd"/></svg>