<svg fill="none" height="25" viewBox="0 0 25 25" width="25"><path clip-rule="evenodd" d="m6.797 1.035a3.5 3.5 0 0 0 -3.5 3.5v3.878a.5.5 0 0 0 1 0v-3.878a2.5 2.5 0 0 1 2.5-2.5h11.429a2.5 2.5 0 0 1 2.5 2.5v7.794a.5.5 0 0 1 -.499.462h-8.065a.5.5 0 0 0 -.5.5v.945a.5.5 0 0 0 .5.5h1.729c.528 0 .957-.42.972-.945h5.364a1.5 1.5 0 0 0 .499-.085v4.586a2.5 2.5 0 0 1 -2.5 2.5h-5.492a.5.5 0 0 0 0 1h5.492a3.5 3.5 0 0 0 3.5-3.5v-5.936l.001-.064v-.174l-.001-.037v-7.546a3.5 3.5 0 0 0 -3.5-3.5zm-1.245 18.725a1.182 1.182 0 1 1 1 0v.349a.5.5 0 0 1 -1 0v-.35zm4.196-5.206a1.64 1.64 0 0 1 1.636 1.636v4.048c0 .874-.4 1.688-.99 2.278s-1.405.99-2.279.99h-4.12c-.874 0-1.688-.4-2.278-.99s-.99-1.404-.99-2.278v-4.048a1.64 1.64 0 0 1 1.636-1.636h.065v-1.488c0-1.98 1.644-3.625 3.624-3.625 1.981 0 3.625 1.644 3.625 3.625v1.488zm-6.32-1.488v1.488h5.25v-1.488c0-1.428-1.198-2.625-2.626-2.625s-2.624 1.197-2.624 2.625zm-1.065 2.488h.547a.54.54 0 0 0 .018 0h6.82a.64.64 0 0 1 .636.636v4.048c0 .567-.264 1.137-.698 1.571s-1.003.698-1.57.698h-4.12c-.568 0-1.138-.264-1.572-.698s-.697-1.004-.697-1.57v-4.05a.64.64 0 0 1 .636-.635z" fill="#18303f" fill-rule="evenodd"/></svg>