<svg fill="none" height="25" viewBox="0 0 25 25" width="25"><path clip-rule="evenodd" d="m15.93 1a3.5 3.5 0 0 1 3.5 3.5v3.878a.5.5 0 0 1 -1 0v-3.878a2.5 2.5 0 0 0 -2.5-2.5h-11.43a2.5 2.5 0 0 0 -2.5 2.5v13.756a2.5 2.5 0 0 0 2.5 2.5h3.295a.473.473 0 0 1 .472-.448h.922l-.002-.091v-4.028c0-.898.733-1.63 1.631-1.63h7.35c.898 0 1.631.732 1.631 1.63v4.028c0 .87-.399 1.681-.987 2.269-.587.587-1.398.986-2.269.986h-4.1c-.87 0-1.681-.399-2.269-.986a3.505 3.505 0 0 1 -.561-.73.49.49 0 0 1 -.025 0h-5.088a3.5 3.5 0 0 1 -3.5-3.5v-13.756a3.5 3.5 0 0 1 3.5-3.5zm-5.112 14.559a.634.634 0 0 0 -.631.63v4.028c0 .564.262 1.13.694 1.561.431.432.998.694 1.562.694h4.1c.564 0 1.131-.262 1.562-.694.432-.43.694-.997.694-1.561v-4.028a.634.634 0 0 0 -.631-.63zm4.197 4.224a1.171 1.171 0 1 0 -1 .002v.337a.5.5 0 0 0 1 0zm-.502-1.228a.17.17 0 0 0 -.012.34h.025a.171.171 0 0 0 .158-.17.171.171 0 0 0 -.171-.17zm3.045-5.359c0-1.4 1.173-2.572 2.572-2.572.91 0 1.728.495 2.188 1.237a.5.5 0 0 0 .85-.528c-.63-1.015-1.76-1.71-3.038-1.71-1.952 0-3.572 1.621-3.572 3.573v.47a.5.5 0 0 0 1 0zm5.826.369a.5.5 0 1 0 0-1 .5.5 0 0 0 0 1z" fill="#18303f" fill-rule="evenodd"/></svg>