<svg fill="none" height="25" viewBox="0 0 25 25" width="25"><path clip-rule="evenodd" d="m6.785 2.002a3.5 3.5 0 0 0 -3.5 3.5v13.756a3.5 3.5 0 0 0 3.5 3.5h3.696a.97.97 0 0 0 .64.24h2.757a.972.972 0 0 0 0-1.945h-2.757a.973.973 0 0 0 -.936.705h-3.4a2.5 2.5 0 0 1 -2.5-2.5v-13.756a2.5 2.5 0 0 1 2.5-2.5h11.43a2.5 2.5 0 0 1 2.5 2.5v13.756a2.5 2.5 0 0 1 -2.5 2.5h-.783a.5.5 0 1 0 0 1h.782a3.5 3.5 0 0 0 3.5-3.5v-13.756a3.5 3.5 0 0 0 -3.5-3.5zm9.578 20.257a.5.5 0 1 1 -1 0 .5.5 0 0 1 1 0z" fill="#18303f" fill-rule="evenodd"/></svg>