<svg width="24" height="24" viewBox="0 0 24 24" fill="none"><g id="work"><path fill-rule="evenodd" clip-rule="evenodd" d="M19.59 19.408c.303 0 .587-.112.79-.3a.923.923 0 0 0 .307-.677V8.088a.922.922 0 0 0-.307-.677 1.166 1.166 0 0 0-.79-.3h-2.298v12.297h2.298Zm-3.298 0V7.111H7.368v12.297h8.924Zm-9.924 0V7.111H4.41c-.303 0-.586.112-.79.3a.922.922 0 0 0-.307.677V18.43c0 .246.105.49.307.677.204.188.487.3.79.3h1.958Zm14.691.435a2.167 2.167 0 0 1-1.469.565H4.41c-.544 0-1.073-.2-1.469-.565a1.922 1.922 0 0 1-.628-1.412V8.088c0-.538.231-1.044.628-1.412a2.167 2.167 0 0 1 1.469-.565h4.872v-.02a2.5 2.5 0 0 1 2.5-2.5h.436a2.5 2.5 0 0 1 2.5 2.5v.02h4.872c.544 0 1.073.2 1.469.565.397.368.628.874.628 1.412V18.43c0 .538-.231 1.044-.628 1.412ZM13.717 6.046a1.5 1.5 0 0 0-1.499-1.454h-.436a1.5 1.5 0 0 0-1.499 1.454h3.434Z" fill="#18303F" yggColor="iconDefault"/></g></svg>