<svg fill="none" height="24" viewBox="0 0 24 24" width="24"><path clip-rule="evenodd" d="m19.59 19.408c.303 0 .587-.112.79-.3a.923.923 0 0 0 .307-.677v-10.343a.922.922 0 0 0 -.307-.677 1.166 1.166 0 0 0 -.79-.3h-2.298v12.297zm-3.298 0v-12.297h-8.924v12.297zm-9.924 0v-12.297h-1.958c-.303 0-.586.112-.79.3a.922.922 0 0 0 -.307.677v10.342c0 .246.105.49.307.677.204.188.487.3.79.3h1.958zm14.691.435a2.167 2.167 0 0 1 -1.469.565h-15.18a2.17 2.17 0 0 1 -1.469-.565 1.922 1.922 0 0 1 -.628-1.412v-10.343c0-.538.231-1.044.628-1.412a2.167 2.167 0 0 1 1.469-.565h4.872v-.02a2.5 2.5 0 0 1 2.5-2.5h.436a2.5 2.5 0 0 1 2.5 2.5v.02h4.872c.544 0 1.073.2 1.469.565.397.368.628.874.628 1.412v10.342c0 .538-.231 1.044-.628 1.412zm-7.342-13.797a1.5 1.5 0 0 0 -1.499-1.454h-.436a1.5 1.5 0 0 0 -1.499 1.454z" fill="#18303f" fill-rule="evenodd"/></svg>