<svg fill="none" height="25" viewBox="0 0 25 25" width="25"><path clip-rule="evenodd" d="m20.406 20.217c.316 0 .612-.117.823-.312.21-.195.32-.45.32-.706v-10.774c0-.256-.11-.511-.32-.706a1.214 1.214 0 0 0 -.823-.312h-2.393v12.81zm-3.435 0v-12.81h-9.296v12.81zm-10.338 0v-12.81h-2.04c-.315 0-.61.117-.822.313a.96.96 0 0 0 -.32.705v10.774c0 .256.11.511.32.706.212.195.507.312.823.312h2.04zm15.303.452a2.257 2.257 0 0 1 -1.53.59h-15.812a2.257 2.257 0 0 1 -1.53-.59 2.002 2.002 0 0 1 -.655-1.47v-10.774c0-.56.241-1.088.655-1.47a2.257 2.257 0 0 1 1.53-.59h5.075v-.02a2.604 2.604 0 0 1 2.604-2.604h.454a2.604 2.604 0 0 1 2.604 2.605v.02h5.075c.567 0 1.118.208 1.53.589.414.382.655.91.655 1.47v10.774c0 .56-.241 1.088-.655 1.47zm-7.646-14.372a1.562 1.562 0 0 0 -1.562-1.514h-.454c-.847 0-1.537.674-1.562 1.514z" fill="#18303f" fill-rule="evenodd"/></svg>