<svg fill="none" height="25" viewBox="0 0 25 25" width="25"><path clip-rule="evenodd" d="m21.424 4.176a1.186 1.186 0 0 0 -.913-.14 1.14 1.14 0 0 0 -.736.535 7.817 7.817 0 0 1 -1.178 1.486l-5.079 5.036a.711.711 0 0 1 -.522.202.711.711 0 0 1 -.523-.202l-5.078-5.036a7.87 7.87 0 0 1 -1.17-1.477 1.143 1.143 0 0 0 -.745-.536 1.169 1.169 0 0 0 -.904.14c-.283.17-.464.417-.54.739-.077.316-.03.615.141.897a9.945 9.945 0 0 0 1.525 1.924l5.078 5.028c.295.293.635.518 1.02.676v7.366c0 .328.114.609.345.843.236.229.52.343.85.343.331 0 .615-.114.851-.343.237-.234.355-.515.355-.843v-7.366a3.25 3.25 0 0 0 1.019-.676l5.07-5.028a9.652 9.652 0 0 0 1.533-1.933c.17-.282.218-.58.141-.897a1.135 1.135 0 0 0 -.54-.738zm-2.924 13.824a.5.5 0 0 0 -.5.5v1.5a2 2 0 1 0 2-2z" fill="#18303f" fill-rule="evenodd"/></svg>