<svg fill="none" height="24" viewBox="0 0 24 24" width="24" xmlns="http://www.w3.org/2000/svg">
  <path
    d="m19.5109 3.03537c.325-.07618.6292-.0293.9128.14062s.4638.41601.5406.73827c.0768.3164.0296.61523-.1418.89647-.4135.6914-.9246 1.33593-1.5332 1.93358l-5.0693 5.02729c-.2836.2812-.6233.5068-1.0191.6767v7.3652c0 .3281-.1182.6094-.3545.8437-.2364.2285-.52.3428-.8508.3428-.3309 0-.6145-.1143-.8508-.3428-.2304-.2343-.3457-.5156-.3457-.8437v-7.3652c-.384-.1582-.7237-.3837-1.01914-.6767l-5.07816-5.02729c-.60265-.59765-1.11076-1.23925-1.52434-1.92479-.17134-.28124-.21861-.58007-.1418-.89647.07681-.32226.25701-.56835.54061-.73827s.58492-.2168.90397-.14063c.32495.07618.5731.25488.74444.53613.33086.53906.72081 1.03124 1.16984 1.47655l5.07818 5.03607c.1359.1348.3102.2021.5229.2021s.387-.0673.5229-.2021l5.0781-5.03607c.4609-.45703.8538-.95214 1.1787-1.48534.1714-.28125.4166-.45995.7356-.53612z"
    fill="#18303f" yggColor="iconDefault" />
  <path d="m17 17.5c0-.2761.2239-.5.5-.5h1.5c1.1046 0 2 .8954 2 2 0 1.1046-.8954 2-2 2-1.1046 0-2-.8954-2-2z"
    fill="#f94409" yggColor="backgroundAccentDefault" />
</svg>
