<svg width="25" height="25" viewBox="0 0 25 25" fill="none"><g id="zigbee"><path id="iconDefault" fill-rule="evenodd" clip-rule="evenodd" d="M5.611 5.41c.137-.139.255-.259.378-.366 1.596-1.418 3.449-2.26 5.572-2.48.052-.003.1-.02.15-.036.031-.01.062-.02.095-.028h1.608c.184.037.37.07.555.104.37.068.74.135 1.105.226 3.919.99 6.865 4.356 7.348 8.407.27 2.272-.16 4.395-1.313 6.369a.58.58 0 0 1-.47.317c-2.316.31-4.638.557-6.974.576-.977.005-1.956-.007-2.935-.02l-1.164-.012a.828.828 0 0 0-.012-.052l-.013-.052c.122-.126.241-.252.36-.378.119-.127.238-.253.36-.38 2.999-3.093 5.997-6.187 8.989-9.293a.648.648 0 0 0 .154-.453c-.109-1.055-.707-1.748-1.634-2.188-.831-.393-1.734-.449-2.628-.505l-.1-.006c-3.076-.194-6.145-.006-9.201.362-.057.005-.116.003-.191.002a7.97 7.97 0 0 0-.15-.002l.111-.112ZM6.98 18.77c.633.356 1.33.463 2.026.53 2.879.269 5.758.135 8.625-.188l.33-.037c.484-.055.983-.112 1.539-.177-.087.094-.167.185-.245.272a8.038 8.038 0 0 1-.508.54c-2.816 2.666-6.065 3.465-9.616 2.209-3.506-1.235-5.664-3.928-6.423-7.809-.54-2.766-.019-5.351 1.43-7.708.088-.141.283-.282.44-.302 2.672-.39 5.356-.625 8.053-.598.56.005 1.12.034 1.71.065.276.015.558.03.85.043-.276.302-.54.595-.799.88-.388.43-.763.843-1.14 1.255l-1.91 2.1c-1.9 2.087-3.8 4.175-5.692 6.266a.668.668 0 0 0-.144.443c.094 1.034.633 1.746 1.474 2.216Z" fill="#18303F"/></g></svg>