<svg width="25" height="25" viewBox="0 0 25 25" fill="none"><g id="zwave"><path fill-rule="evenodd" clip-rule="evenodd" d="M17.863 10.726a7.136 7.136 0 0 1 2.732 13.73 7.137 7.137 0 1 1-2.732-13.73Zm2.14 10.612 1.407-2.25h-3.183l3.183-5.065h-5.967l-1.359 2.18h3.14l-3.275 5.135h6.054Zm-2.14-18.93c-8.531.01-15.445 6.924-15.455 15.455H0C.011 8.003 8.002.01 17.863 0v2.408Zm0 2.353v2.408C11.96 7.176 7.177 11.96 7.17 17.863H4.762c.007-7.233 5.868-13.094 13.1-13.102Z" fill="#18303F" yggColor="iconDefault"/></g></svg>