<svg fill="none" height="25" viewBox="0 0 25 25" width="25" xmlns="http://www.w3.org/2000/svg"><g fill="#18303f"><path d="m18.2091 7.42914c0 .22269-.1806.40322-.4033.40322s-.4032-.18053-.4032-.40322c0-.2227.1805-.40323.4032-.40323s.4033.18053.4033.40323z"/><g clip-rule="evenodd" fill-rule="evenodd"><path d="m9.72545 18.9403c-.03132.0487-.07912.0858-.13604.1035l-4.478 1.3925c-.08868.0276-.18534.0037-.25101-.0619-.06567-.0657-.08952-.1624-.06195-.251l1.39257-4.478c.01783-.0574.05535-.1055.10459-.1368.00951-.0148.02073-.0288.03367-.0417l10.38652-10.38647c.8786-.87868 2.3033-.87868 3.1819 0l.257.257c.8787.87868.8787 2.30331 0 3.18198l-10.38644 10.38649c-.01325.0132-.02762.0247-.04281.0344zm-2.94196-3.2205.56324.5632 1.31958-.0681 7.82309-7.82312c.0977-.09763.256-.09763.3536 0s.0976.25592 0 .35355l-7.81753 7.81757.00428 1.4032.48562.4856 10.28583-10.28584c.6834-.68342.6834-1.79145 0-2.47487l-.257-.25701c-.6834-.68342-1.7915-.68342-2.4749 0zm.47798 1.0683 1.26449-.0653.00411 1.3479c.0002.066.02653.1293.07322.176l.44249.4425-3.01292.937-.42424-.4243.93696-3.0129.52622.5262c.05006.0501.11898.0766.18967.0729zm-1.82058 2.9532.0526.0526-.07634.0237z"/><path d="m0 7c0-3.86599 3.13401-7 7-7h11c3.866 0 7 3.13401 7 7v11c0 3.866-3.134 7-7 7h-11c-3.86599 0-7-3.134-7-7zm7-6.5h11c3.5899 0 6.5 2.91015 6.5 6.5v11c0 3.5899-2.9101 6.5-6.5 6.5h-11c-3.58985 0-6.5-2.9101-6.5-6.5v-11c0-3.58985 2.91015-6.5 6.5-6.5z"/></g></g></svg>