<svg fill="none" height="18" viewBox="0 0 14 18" width="14" xmlns="http://www.w3.org/2000/svg"><g clip-rule="evenodd" fill="#03a9f1" fill-rule="evenodd"><path d="m2.01562 16.281c0-.5523.44772-1 1-1h6.99998c.5523 0 1 .4477 1 1s-.4477 1-1 1h-6.99998c-.55228 0-1-.4477-1-1z"/><path d="m5.85758 12.4756-3.53614-3.53619c-.40775-.40775-.40775-1.06885 0-1.47661.40776-.40775 1.06886-.40775 1.47661 0l1.70195 1.70195v-5.6909c0-.60488.49035-1.09524 1.09524-1.09524.60488 0 1.09524.49036 1.09524 1.09524v5.6922l1.70324-1.70325c.40776-.40775 1.06888-.40775 1.47658 0 .4078.40776.4078 1.06886 0 1.47661l-3.53551 3.53559-.00059.0006c-.40776.4077-1.06886.4077-1.47662 0z"/></g></svg>