<svg fill="none" height="25" viewBox="0 0 25 25" width="25" xmlns="http://www.w3.org/2000/svg"><g fill="#18303f"><path d="m10.8918 22.0411c0 .8017.6499 1.4515 1.4515 1.4515s1.4514-.6498 1.4514-1.4515h1c0 1.3539-1.0975 2.4515-2.4514 2.4515s-2.45145-1.0976-2.45145-2.4515z"/><g clip-rule="evenodd" fill-rule="evenodd"><path d="m5.93416 13.489c.22306-3.3741 3.02489-5.99681 6.40634-5.99681 3.3814 0 6.1832 2.62271 6.4063 5.99681l.4799 7.2588c.0572.8655-.6294 1.599-1.4967 1.599h-10.779c-.86737 0-1.55396-.7335-1.49674-1.599zm6.40634-4.99681c-2.85477 0-5.2202 2.21421-5.40852 5.06271l-.4799 7.2589c-.01907.2885.20979.533.49892.533h10.779c.2891 0 .518-.2445.4989-.533l-.4799-7.2589c-.1883-2.8485-2.5538-5.06271-5.4085-5.06271z"/><path d="m15.5283 4.51549c.0616-.2692.3297-.43752.5989-.37597 1.879.42965 3.3335 1.86598 3.7885 3.73445.0653.26831-.0992.53877-.3675.6041s-.5388-.09921-.6041-.36751c-.3654-1.50059-1.5302-2.65102-3.0398-2.9962-.2692-.06155-.4375-.32968-.376-.59887z"/><path d="m16.4961 1.15039c0-.276142.2239-.499999.5-.499999 3.5761 0 6.5 2.923859 6.5 6.499999 0 .27614-.2239.5-.5.5s-.5-.22386-.5-.5c0-3.02386-2.4761-5.5-5.5-5.5-.2761 0-.5-.22386-.5-.5z"/><path d="m9.4834 4.51549c-.06155-.2692-.32967-.43752-.59887-.37597-1.879.42965-3.33352 1.86598-3.78849 3.73445-.06533.26831.09921.53877.36752.6041.2683.06533.53876-.09921.60409-.36751.36539-1.50059 1.53016-2.65102 3.03979-2.9962.26919-.06155.43752-.32968.37596-.59887z"/><path d="m8.51562 1.15039c0-.276142-.22385-.499999-.5-.499999-3.57614 0-6.5 2.923859-6.5 6.499999 0 .27614.22386.5.5.5.27615 0 .5-.22386.5-.5 0-3.02386 2.47615-5.5 5.5-5.5.27615 0 .5-.22386.5-.5z"/></g></g></svg>