<svg fill="none" height="25" viewBox="0 0 26 25" width="26" xmlns="http://www.w3.org/2000/svg"><path d="m10.1501 21.8414h-.45389c-.06983 0-.11639.0568-.11639.1137v.4435c0 .3071.25605.5573.57028.5573.3143 0 .5703-.2502.5703-.5573 0-.307-.256-.5572-.5703-.5572z" fill="#f94409"/><path d="m9.99882 16.2119c-.09311-.0796-.24442-.1706-.34917-.2275l-2.14152-1.1259c-.11639-.0682-.25605-.1137-.38408-.1592-.37244-.1023-.76816-.1023-1.1406 0-.13966.0341-.26769.091-.38407.1592l-2.15317 1.1259c-.10475.0569-.24441.1479-.34916.2275-.45391.3753-.70997.9212-.70997 1.5126v3.2639c0 1.0918.90783 1.9675 2.01351 1.9675h3.75931c.31424 0 .5703-.2502.5703-.5573v-.4435c0-.0682-.0582-.1137-.11639-.1137h-4.21322c-.47719 0-.87291-.3867-.87291-.853v-3.2639c0-.3185.17458-.6028.45391-.7506l2.21136-1.1487c.23278-.1023.47719-.1023.70996 0l2.21136 1.1487c.27933.1478.45391.4321.45391.7506v2.8659c0 .307.25606.5572.57032.5572.3142 0 .5703-.2502.5703-.5572v-2.8659c.0116-.5914-.2561-1.1373-.70998-1.5126z" fill="#f94409"/><g stroke="#18303f" stroke-linecap="round" stroke-linejoin="round"><path d="m18.7139 11.9292v4.6875c0 1.7708-1.3542 3.125-3.125 3.125h-2.5889"/><path d="m16.891 13.7521 1.8229-1.8229 1.823 1.8229"/><path d="m17.2129 9.81399h-4.5437c-1.4201-.1291-2.453-1.29105-2.453-2.71121 0-.77463.2582-1.42016.9038-1.93658.5164-.51642 1.291-.77463 2.0656-.77463.6456-1.29106 2.0657-2.19479 3.4859-2.19479 2.0657 0 3.8731 1.54926 4.0023 3.61495.6455-.12911 1.291 0 1.8074.38731.5164.38732.7747 1.03285.7747 1.67837 0 .44858 0 .92413-.6456 1.54926-.4466.43257-1.4552.38732-2.0235.38732h-.362" stroke-miterlimit="10"/><path d="m18.7328 9.8042h-.038"/></g></svg>