<svg fill="none" height="35" viewBox="0 0 25 35" width="25" xmlns="http://www.w3.org/2000/svg"><g stroke="#18303f"><rect height="11" rx="1.5" width="10" x=".5" y=".5"/><rect height="11" rx="1.5" width="10" x="14.5" y=".5"/><rect height="11" rx="1.5" width="10" x=".5" y="15.5"/><rect height="11" rx="1.5" width="10" x="14.5" y="15.5"/><rect height="4" rx="1.5" width="24" x=".5" y="30.5"/></g><g fill="#18303f"><rect height="1" rx=".5" width="1" x="2" y="2"/><rect height="1" rx=".5" width="4" x="4" y="2"/><rect height="1" rx=".5" width="4" x="18" y="2"/><rect height="1" rx=".5" width="4" x="18" y="17"/><rect height="1" rx=".5" width="4" x="4" y="17"/><rect height="1" rx=".5" width="1" x="16" y="2"/><rect height="1" rx=".5" width="1" x="16" y="17"/><rect height="1" rx=".5" width="1" x="2" y="17"/><rect height="1" rx=".5" width="5" x="10" y="32"/><rect height="1" rx=".5" width="1" x="2" y="32"/></g></svg>