<svg fill="none" height="45" viewBox="0 0 45 45" width="45" xmlns="http://www.w3.org/2000/svg"><g stroke="#18303f" stroke-linecap="round" stroke-linejoin="round"><path d="m12.3125 33.5986h27.3717"/><path d="m12.3127 24.3736 11.4792-4.6124"/><path d="m14.6423 23.4868v10.1094"/><path d="m22.0903 11.7354 16.6511 10.3621"/><path d="m36.4634 20.7068v12.8895"/><path d="m32.9893 18.0984v-2.2182c0-.2394.2522-.431.5676-.431h1.1353c.3154 0 .5677.1916.5677.431v3.7984"/><path d="m33.5646 33.5978c.3154 0 .5676-.2528.5676-.5687v-3.4751c0-.3159-.2522-.5686-.5676-.5686h-6.8749c-.3153 0-.5676.2527-.5676.5686v3.4751c0 .3159.2523.5687.5676.5687"/><path d="m30.729 28.9854v4.6124"/><path d="m28.9578 23.8035c.9461 0 1.703-.7582 1.703-1.7059 0-.9478-.7569-1.706-1.703-1.706-.946 0-1.7029.7582-1.7029 1.706 0 .9477.7569 1.7059 1.7029 1.7059z"/><path d="m20.9446 33.5979c.3153 0 .5676-.2528.5676-.5687v-4.6124c0-.3159-.2523-.5687-.5676-.5687h-3.469c-.3154 0-.5676.2528-.5676.5687v4.6124c0 .3159.2522.5687.5676.5687"/><path d="m23.7925 12.8101v20.7874"/><g stroke-miterlimit="10"><path d="m4 20.3364v6"/><path d="m7 23.3364h-6"/></g></g></svg>