<svg fill="none" height="24" viewBox="0 0 24 24" width="24" xmlns="http://www.w3.org/2000/svg"><g clip-rule="evenodd" fill-rule="evenodd"><path d="m9.49963.552246c-4.75826 0-8.615597 3.857344-8.615597 8.615604 0 4.28375 3.126347 7.83725 7.221857 8.50345.40118.0653.7414.338.89599.714 1.17542 2.8584 3.98762 4.8708 7.26992 4.8708.4792 0 .6851-.5754.4012-.9614-.7672-1.043-1.2829-2.2823-1.4578-3.6289-.0672-.5168.3368-.951.8475-1.0547 3.9325-.7984 6.8923-4.2752 6.8923-8.44325 0-4.75826-3.8574-8.615604-8.6156-8.615604z" fill="#1b9cd4"/><path d="m.883911 9.16785c0-4.75826 3.857339-8.615604 8.615599-8.615604h4.83969c4.7583 0 8.6156 3.857344 8.6156 8.615604 0 4.16805-2.9597 7.64485-6.8922 8.44325-.5108.1037-.9147.5379-.8476 1.0547.1749 1.3466.6907 2.5859 1.4579 3.6289.2839.386.0779.9614-.4012.9614-3.2823 0-6.0945-2.0124-7.26995-4.8708-.15458-.376-.4948-.6487-.89598-.714-4.09551-.6662-7.221859-4.2197-7.221859-8.50345z" fill="#1b9cd4"/><path d="m12.3563.552246h-2.92429v7.386084h-8.547977v2.93937h8.547977v7.8981l2.92429 3.4825v-11.3806h10.7914v-2.93937h-10.7914z" fill="#e7f265"/></g><g fill="#c4c4c4"><path d="m16.0627 17.6111.0995.49zm.6103 4.6836-.4028.2963zm-8.56711-4.6234.08027-.4935zm-6.72186-8.50345c0-4.48212 3.63348-8.1156 8.1156-8.1156v-1.0000039c-5.0344 0-9.115597 4.0811939-9.115597 9.1156039zm6.80213 8.00995c-3.85742-.6274-6.80213-3.9753-6.80213-8.00995h-.999997c0 4.53285 3.307997 8.29205 7.641587 8.99695zm8.08564 5.5783c-3.0726 0-5.7065-1.8835-6.8075-4.561l-.92485.3803c1.24987 3.0394 4.24045 5.1807 7.73235 5.1807zm-1.5525-4.0259c.1861 1.4329.735 2.7516 1.5509 3.8608l.8056-.5926c-.7185-.9767-1.2011-2.1367-1.3648-3.397zm7.7357-9.56235c0 3.92555-2.7877 7.20125-6.4918 7.95325l.199.98c4.1609-.8448 7.2928-4.5227 7.2928-8.93325zm-8.1156-8.1156c4.4821 0 8.1156 3.63348 8.1156 8.1156h1c0-5.03441-4.0812-9.1156039-9.1156-9.1156039zm-4.83977 0h4.83977v-1.0000039h-4.83977zm6.21137 17.54915c-.0245-.189.1248-.4341.4512-.5003l-.199-.98c-.6951.1411-1.3536.7645-1.2439 1.6091zm.5608 5.1547c.4706 0 .8104-.2944.9518-.6522.1368-.3463.0998-.7689-.1478-1.1055l-.8056.5926c.0363.0493.0383.1075.0233.1454-.0066.0169-.0132.021-.0115.0198.0044-.0032.0051-.0001-.0102-.0001zm-8.24618-5.5913c.22773.0371.42452.1934.51383.4106l.92485-.3803c-.21985-.5346-.7035-.9238-1.27814-1.0173z"/><path d="m16.0626 17.6111.0995.49zm-.8476 1.0547-.4958.0644zm1.4579 3.6289-.4028.2963zm-7.67115-3.9094.46243-.1902zm-.89598-.714-.08027.4935zm1.39374-16.61905c-4.48212 0-8.1156 3.63348-8.1156 8.1156h-.999999c0-5.03441 4.081199-9.1156039 9.115599-9.1156039zm4.83969 0h-4.83969v-1.0000039h4.83969zm8.1156 8.1156c0-4.48212-3.6334-8.1156-8.1156-8.1156v-1.0000039c5.0344 0 9.1156 4.0811939 9.1156 9.1156039zm-6.4917 7.95325c3.704-.752 6.4917-4.0277 6.4917-7.95325h1c0 4.41055-3.1318 8.08845-7.2927 8.93325zm-1.2439 1.6091c-.1097-.8446.5488-1.468 1.2439-1.6091l.199.98c-.3264.0662-.4758.3113-.4512.5003zm1.5509 3.8608c-.8159-1.1092-1.3648-2.4279-1.5509-3.8608l.9917-.1288c.1637 1.2603.6463 2.4203 1.3647 3.397zm.0016.1651c.0152 0 .0145-.0031.0101.0001-.0016.0012.0049-.0029.0116-.0198.015-.0379.013-.0961-.0233-.1454l.8055-.5926c.2477.3366.2847.7592.1479 1.1055-.1414.3578-.4812.6522-.9518.6522zm-6.80752-4.561c1.10102 2.6775 3.73492 4.561 6.80752 4.561v1c-3.4919 0-6.48251-2.1413-7.73237-5.1807zm-1.27814-1.0173c.57464.0935 1.05829.4827 1.27814 1.0173l-.92485.3803c-.08932-.2172-.2861-.3735-.51383-.4106zm-6.80213-8.00995c0 4.03465 2.94471 7.38255 6.80213 8.00995l-.16054.987c-4.33359-.7049-7.641589-4.4641-7.641589-8.99695z"/></g></svg>