<svg fill="none" height="24" viewBox="0 0 24 24" width="24" xmlns="http://www.w3.org/2000/svg"><path clip-rule="evenodd" d="m9.90759.732422c-4.75826 0-8.6156 3.857338-8.6156 8.615608 0 4.28387 3.12647 7.83747 7.22209 8.50347.40117.0653.74139.338.89599.7139 1.17553 2.8583 3.98763 4.8705 7.26973 4.8705.4792 0 .6852-.5755.4012-.9615-.7671-1.0428-1.2828-2.282-1.4577-3.6283-.0672-.5169.3367-.9512.8475-1.0549 3.9324-.7984 6.8921-4.2751 6.8921-8.44317 0-4.75827-3.8573-8.615608-8.6156-8.615608z" fill="#f03434" fill-rule="evenodd"/><path d="m16.4708 17.7912.0995.49zm.6102 4.6832-.4027.2963zm-8.56692-4.6229.08026-.4935zm.89599.7139.46242-.1902zm-7.61808-9.21737c0-4.48213 3.63348-8.11561 8.1156-8.11561v-.999998c-5.0344 0-9.115598 4.081198-9.115598 9.115608zm6.80235 8.00997c-3.85753-.6273-6.80235-3.9752-6.80235-8.00997h-.999998c0 4.53287 3.308118 8.29227 7.641828 8.99697zm8.08546 5.5779c-3.0724 0-5.7062-1.8834-6.80731-4.5607l-.92484.3804c1.24995 3.0392 4.24045 5.1803 7.73215 5.1803zm-1.5524-4.0254c.1862 1.4326.735 2.7512 1.5509 3.8602l.8055-.5925c-.7184-.9766-1.201-2.1365-1.3647-3.3966zm7.7355-9.56247c0 3.92557-2.7876 7.20117-6.4916 7.95317l.199.98c4.1608-.8448 7.2926-4.5227 7.2926-8.93317zm-8.1156-8.11561c4.4821 0 8.1156 3.63348 8.1156 8.11561h1c0-5.03441-4.0812-9.115608-9.1156-9.115608zm-4.83971 0h4.83971v-.999998h-4.83971zm6.21151 17.54918c-.0246-.189.1248-.4341.4512-.5004l-.199-.98c-.6951.1412-1.3536.7646-1.2439 1.6093zm.5607 5.1543c.4706 0 .8104-.2944.9518-.6523.1368-.3462.0998-.7688-.1478-1.1054l-.8055.5925c.0363.0494.0383.1075.0233.1455-.0067.0169-.0132.0209-.0116.0197.0044-.0032.0051 0-.0102 0zm-8.24598-5.5909c.22773.0371.42451.1934.51383.4106l.92484-.3804c-.21988-.5346-.70353-.9238-1.27815-1.0172z" fill="#c4c4c4"/><rect fill="#f03232" height="16.9582" opacity=".88" rx="8.47908" width="21.7752" x="1.58838" y=".552246"/><path clip-rule="evenodd" d="m12.7934.55249h-2.85626v7.10212h-8.34925v2.82639h8.34925v9.6421l2.85626 2.0349v-11.677h10.5697v-2.82639h-10.5697z" fill="#fff" fill-rule="evenodd"/><path d="m15.6232 18.8455.4958-.0644zm.8475-1.0548.0995.49zm-7.95681.0603-.08027.4935zm.89599.714.46243-.1902zm-7.61789-9.21746c0-4.48212 3.63348-8.11561 8.1156-8.11561v-.999996c-5.0344 0-9.115598 4.081196-9.115598 9.115606zm6.80217 8.00996c-3.85745-.6274-6.80217-3.9753-6.80217-8.00996h-.999998c0 4.53286 3.308018 8.29206 7.641628 8.99696zm8.08564 5.5784c-3.0726 0-5.7065-1.8836-6.80749-4.5611l-.92486.3803c1.24985 3.0395 4.24045 5.1808 7.73235 5.1808zm-1.5524-4.026c.186 1.4329.7349 2.7516 1.5509 3.8608l.8055-.5925c-.7185-.9767-1.2011-2.1368-1.3648-3.3971zm7.7355-9.56236c0 3.92556-2.7876 7.20116-6.4916 7.95316l.1989.98c4.1609-.8447 7.2927-4.5226 7.2927-8.93316zm-8.1156-8.11561c4.4821 0 8.1156 3.63349 8.1156 8.11561h1c0-5.03441-4.0812-9.115606-9.1156-9.115606zm-4.83971 0h4.83971v-.999996h-4.83971zm6.21141 17.54917c-.0245-.189.1249-.4341.4512-.5004l-.1989-.98c-.6952.1412-1.3536.7646-1.2439 1.6092zm.5608 5.1548c.4706 0 .8104-.2944.9518-.6523.1368-.3462.0998-.7688-.1478-1.1054l-.8055.5925c.0363.0494.0383.1075.0233.1455-.0067.0169-.0132.0209-.0116.0197.0044-.0032.0051 0-.0102 0zm-8.24618-5.5914c.22773.0371.42452.1934.51383.4106l.92486-.3803c-.21985-.5346-.70351-.9239-1.27815-1.0173z" fill="#c4c4c4"/></svg>