<svg fill="none" height="24" viewBox="0 0 24 24" width="24" xmlns="http://www.w3.org/2000/svg"><path clip-rule="evenodd" d="m14.1312.64209c4.7583 0 8.6156 3.85734 8.6156 8.6156 0 4.28381-3.1264 7.83731-7.2219 8.50351-.4012.0652-.7414.338-.896.7139-1.1754 2.8584-3.9877 4.8708-7.26988 4.8708-.47918 0-.68515-.5754-.40121-.9614.76719-1.0429 1.28293-2.2823 1.45782-3.6288.06713-.5168-.33679-.9511-.84754-1.0548-3.93243-.7984-6.892187-4.2752-6.892187-8.44321 0-4.75826 3.857337-8.6156 8.615597-8.6156z" fill="#f03434" fill-rule="evenodd"/><path d="m8.41563 18.7557-.49583-.0644zm-.84754-1.0548.09948-.49zm-.61028 4.6836.40276.2963zm8.56709-4.6233-.0803-.4936zm-.896.7139.4624.1902zm7.6179-9.21741c0-4.48212-3.6335-8.1156-8.1156-8.1156v-1c5.0344 0 9.1156 4.0812 9.1156 9.1156zm-6.8022 8.00991c3.8575-.6274 6.8022-3.9752 6.8022-8.00991h1c0 4.53291-3.308 8.29211-7.6416 8.99701zm-8.08558 5.5783c3.07258 0 5.70638-1.8835 6.80748-4.561l.9248.3804c-1.2498 3.0394-4.2404 5.1806-7.73228 5.1806zm1.55245-4.0258c-.1861 1.4328-.73498 2.7515-1.5509 3.8607l-.80552-.5926c.71846-.9767 1.20106-2.1366 1.36475-3.3969zm-7.73557-9.56241c0 3.92561 2.78767 7.20121 6.49167 7.95321l-.19897.98c-4.16085-.8448-7.292697-4.5227-7.292697-8.93321zm8.1156-8.1156c-4.48212 0-8.1156 3.63348-8.1156 8.1156h-.999997c0-5.0344 4.081197-9.1156 9.115597-9.1156zm4.8397 0h-4.8397v-1h4.8397zm-6.2114 17.54921c.02454-.189-.12483-.4341-.4512-.5004l.19897-.98c.69513.1411 1.3536.7645 1.2439 1.6092zm-.56078 5.1546c-.47059 0-.81043-.2944-.9518-.6522-.1368-.3463-.09981-.7688.14783-1.1055l.80552.5926c-.0363.0493-.03829.1075-.0233.1454.00666.0169.01321.021.01157.0198-.0044-.0032-.0051-.0001.01018-.0001zm8.24618-5.5912c-.2278.037-.4245.1934-.5139.4106l-.9248-.3804c.2198-.5346.7035-.9238 1.2781-1.0173z" fill="#c4c4c4"/><g clip-rule="evenodd" fill-rule="evenodd"><path d="m12.1065.552246h-4.53381v6.159874h-6.975034v4.71058h6.975034v6.0876l1.13345 1.0579-1.13345 2.977v1.903l2.44771-.4856 2.0861-1.2206v-10.3193h10.5621v-4.71058h-10.5621z" fill="#fff"/><path d="m12.1065.552246h-4.53381v6.159874h-6.975034v4.71058h6.975034v6.0876l1.13345 1.0579-1.13345 2.977v1.903l2.44771-.4856 2.0861-1.2206v-10.3193h10.5621v-4.71058h-10.5621z" fill="#fff"/><path d="m11.2694.552246h-2.72029v7.101964h-7.951454v2.82639h7.951454v12.7182l2.72029-1.041v-11.6772h11.3992v-2.82639h-11.3992z" fill="#26448f"/></g><path d="m8.41539 18.7557-.49584-.0644zm-.84755-1.0548.09949-.49zm-.61027 4.6836.40276.2963zm8.56713-4.6233-.0803-.4936zm-.896.7139.4624.1902zm7.6179-9.21741c0-4.48212-3.6335-8.1156-8.1156-8.1156v-1c5.0344 0 9.1156 4.0812 9.1156 9.1156zm-6.8022 8.00991c3.8574-.6274 6.8022-3.9752 6.8022-8.00991h1c0 4.53291-3.3081 8.29211-7.6417 8.99701zm-8.08563 5.5783c3.07263 0 5.70643-1.8835 6.80743-4.561l.9249.3804c-1.2499 3.0394-4.2405 5.1806-7.73233 5.1806zm1.55245-4.0258c-.18609 1.4328-.73497 2.7515-1.55089 3.8607l-.80553-.5926c.71847-.9767 1.20107-2.1366 1.36475-3.3969zm-7.73556-9.56241c0 3.92561 2.78767 7.20121 6.49167 7.95321l-.19897.98c-4.16085-.8448-7.292701-4.5227-7.292701-8.93321zm8.1156-8.1156c-4.48212 0-8.1156 3.63348-8.1156 8.1156h-1.000001c0-5.0344 4.081191-9.1156 9.115601-9.1156zm4.83974 0h-4.83974v-1h4.83974zm-6.21145 17.54921c.02455-.189-.12482-.4341-.45119-.5004l.19897-.98c.69513.1411 1.35359.7645 1.24389 1.6092zm-.56078 5.1546c-.47059 0-.81042-.2944-.95179-.6522-.1368-.3463-.09981-.7688.14782-1.1055l.80553.5926c-.0363.0493-.03829.1075-.0233.1454.00666.0169.01321.021.01156.0198-.00439-.0032-.0051-.0001.01018-.0001zm8.24613-5.5912c-.2277.037-.4245.1934-.5138.4106l-.9249-.3804c.2199-.5346.7036-.9238 1.2782-1.0173z" fill="#03a9f1"/><path d="m7.56796 17.7009-.09948.49zm.84755 1.0548.49583.0644zm-1.45782 3.6288-.40277-.2963zm7.67111-3.9094.4624.1902zm.896-.7139.0803.4935zm-1.3937-16.61911c4.4821 0 8.1156 3.63348 8.1156 8.1156h1c0-5.0344-4.0812-9.1156-9.1156-9.1156zm-4.83972 0h4.83972v-1h-4.83972zm-8.1156 8.1156c0-4.48212 3.63348-8.1156 8.1156-8.1156v-1c-5.03441 0-9.115599 4.0812-9.115599 9.1156zm6.49167 7.95321c-3.704-.752-6.49167-4.0276-6.49167-7.95321h-.999999c0 4.41051 3.131849 8.08841 7.292699 8.93321zm1.24389 1.6092c.10971-.8447-.54876-1.4681-1.24389-1.6092l-.19897.98c.32637.0663.47574.3114.45119.5004zm-1.55089 3.8607c.81592-1.1092 1.3648-2.4279 1.55089-3.8607l-.99167-.1288c-.16368 1.2603-.64628 2.4202-1.36475 3.3969zm-.00155.1651c-.01528 0-.01458-.0031-.01019.0001.00165.0012-.0049-.0029-.01156-.0198-.01499-.0379-.013-.0961.0233-.1454l-.80553-.5926c-.24763.3367-.28462.7592-.14782 1.1055.14137.3578.48121.6522.9518.6522zm6.8075-4.561c-1.1011 2.6775-3.7349 4.561-6.8075 4.561v1c3.4919 0 6.4824-2.1412 7.7323-5.1806zm1.2781-1.0173c-.5746.0935-1.0583.4827-1.2781 1.0173l.9248.3804c.0893-.2172.2861-.3736.5139-.4106zm6.8022-8.00991c0 4.03471-2.9447 7.38251-6.8022 8.00991l.1606.9871c4.3336-.7049 7.6416-4.4641 7.6416-8.99701z" fill="#c4c4c4"/></svg>