<svg fill="none" height="24" viewBox="0 0 25 24" width="25" xmlns="http://www.w3.org/2000/svg"><g fill="#18303f"><g clip-rule="evenodd" fill-rule="evenodd"><path d="m4.16908 19.1833c.27411.3176.32084.7725.11702 1.1392l-1.48405 2.6698h9.26705c.0118 0 .0236.0002.0353.0006.1312.0047.2631.007.3956.007 6.0751 0 10.9999-4.9248 10.9999-10.9999 0-6.07515-4.9248-11-10.9999-11-6.07515 0-11 4.92485-11 11 0 2.7464 1.0052 5.2555 2.66908 7.1833zm-3.067 4.809 2.30997-4.1557c-1.81466-2.1025-2.91205-4.8414-2.91205-7.8366 0-6.62744 5.37256-12 12-12 6.6274 0 11.9999 5.37256 11.9999 12 0 6.6274-5.3725 11.9999-11.9999 11.9999-.1443 0-.2879-.0025-.4309-.0076z"/><path d="m12.8531 7.45704c-.2679-.47273-.8723-.47273-1.1402 0l-.0021.00366-4.24552 7.3456c-.23136.4442.08585.9952.5962.9952h8.38562c.5564 0 .8591-.5309.599-.9902 0-.0001.0001.0001 0 0l-4.1923-7.35316zm.87-.4931c.0001.00019-.0001-.00019 0 0l4.1928 7.35386c.6586 1.1619-.1875 2.4837-1.4688 2.4837h-8.38562c-1.32514 0-2.04118-1.4124-1.47488-2.4727l.00813-.0146 4.24927-7.35223c.6516-1.14644 2.2283-1.1454 2.8791.00197z"/><path d="m12.3116 8.96876c.2761 0 .5.22386.5.5v3.24264c0 .2762-.2239.5-.5.5-.2762 0-.5-.2238-.5-.5v-3.24264c0-.27614.2238-.5.5-.5z"/></g><path d="m11.9671 14.5064c0 .1738.1148.2896.2871.2896s.2872-.1158.2872-.2896c0-.1737-.1149-.2895-.2872-.2895-.1148 0-.2871.1158-.2871.2895z"/><path clip-rule="evenodd" d="m11.9022 14.1091c.0929-.082.2214-.1422.352-.1422.1436 0 .2824.0494.3857.1536.1032.104.1515.2429.1515.3859 0 .1431-.0483.282-.1515.386-.1033.1042-.2421.1536-.3857.1536-.1435 0-.2823-.0494-.3857-.1536-.1031-.104-.1514-.2429-.1514-.386 0-.1747.0873-.3111.1851-.3973zm.3164.3922c-.0015.003-.0015.0042-.0015.0051 0 .0159.0026.0252.0042.0295.0015.004.0026.0048.0022.0044s.0001.0004.0036.0018c.0036.0014.0121.0039.0271.0039s.0236-.0025.0272-.0039c.0034-.0014.004-.0022.0035-.0018-.0004.0004.0008-.0004.0023-.0044.0016-.0043.0042-.0136.0042-.0295 0-.0158-.0026-.0251-.0042-.0294-.0011-.0028-.002-.0041-.0022-.0044-.0004-.0003-.0014-.0009-.0036-.0018-.0031-.0012-.0097-.0031-.0208-.0037-.0008.0003-.0017.0006-.0029.0011-.0074.0031-.0165.0086-.0247.0158-.0081.0072-.0125.0135-.0144.0173z" fill-rule="evenodd"/></g></svg>