<svg fill="none" height="25" viewBox="0 0 26 25" width="26" xmlns="http://www.w3.org/2000/svg"><path d="m22.6502 8.30011h-.4539c-.0698 0-.1164.05686-.1164.11373v.44353c0 .30706.2561.55726.5703.55726.3143 0 .5703-.2502.5703-.55726s-.256-.55726-.5703-.55726z" fill="#f94409"/><path d="m22.4989 2.67063c-.0931-.07961-.2444-.17059-.3491-.22745l-2.1415-1.1259c-.1164-.06823-.2561-.11372-.3841-.15922-.3725-.10235-.7682-.10235-1.1406 0-.1397.03412-.2677.09099-.3841.15922l-2.1532 1.1259c-.1047.05686-.2444.14784-.3491.22745-.4539.3753-.71.92119-.71 1.51257v3.26396c0 1.09178.9078 1.96747 2.0135 1.96747h3.7593c.3143 0 .5703-.2502.5703-.55726v-.44353c0-.06824-.0582-.11373-.1164-.11373h-4.2132c-.4772 0-.8729-.38667-.8729-.85295v-3.26396c0-.31844.1746-.60275.4539-.7506l2.2114-1.14864c.2327-.10235.4772-.10235.7099 0l2.2114 1.14864c.2793.14785.4539.43216.4539.7506v2.86591c0 .30707.2561.55727.5703.55727s.5703-.2502.5703-.55727v-2.86591c.0116-.59138-.256-1.13727-.71-1.51257z" fill="#f94409"/><g stroke="#18303f" stroke-linecap="round" stroke-linejoin="round"><path d="m7.28613 12.5444v-4.68747c0-1.77083 1.35417-3.125 3.12497-3.125h2.5889"/><path d="m9.10909 10.7215-1.82292 1.8229-1.82291-1.8229"/><path d="m8.73526 14.6685c2.04984.2068 3.49604 1.8975 3.60514 3.6433.6455-.1291 1.291 0 1.8075.3873.5164.3873.7746 1.0328.7746 1.6784 0 .4485 0 .9241-.6455 1.5492-.4467.4326-1.4552.3873-2.0236.3873h-3.68375-4.2338c-1.42016-.1291-2.453-1.291-2.453-2.7112 0-.7746.25821-1.4201.90373-1.9366.51643-.5164 1.29106-.7746 2.06569-.7746.21513-.4302.74903-1.0801 1.15309-1.4152" stroke-miterlimit="10"/><path d="m7.33473 14.7394-.04533.0101"/></g></svg>