<svg fill="none" height="25" viewBox="0 0 26 25" width="26" xmlns="http://www.w3.org/2000/svg"><path d="m9.82554 8.81988h-.45392c-.06983 0-.11638.05687-.11638.11373v.44354c0 .30706.25605.55726.5703.55726.31426 0 .57026-.2502.57026-.55726 0-.30707-.256-.55727-.57026-.55727z" fill="#f94409"/><path d="m9.67423 3.19041c-.09311-.07961-.24441-.17059-.34916-.22746l-2.14153-1.12589c-.11638-.06824-.25605-.11373-.38407-.15922-.37244-.10235-.76816-.10235-1.1406 0-.13967.03412-.26769.09098-.38408.15922l-2.15317 1.12589c-.10474.05687-.24441.14785-.34916.22746-.45391.3753-.70996.92118-.70996 1.51256v3.26396c0 1.09178.90782 1.96748 2.0135 1.96748h3.75931c.31425 0 .5703-.2502.5703-.55726v-.44354c0-.06823-.05819-.11373-.11639-.11373h-4.21322c-.47719 0-.8729-.38667-.8729-.85295v-3.26396c0-.31843.17458-.60275.45391-.75059l2.21136-1.14864c.23277-.10236.47718-.10236.70996 0l2.21136 1.14864c.27933.14784.45391.43216.45391.75059v2.86592c0 .30706.25605.55726.5703.55726.3142 0 .5703-.2502.5703-.55726v-2.86592c.0116-.59138-.2561-1.13726-.70997-1.51256z" fill="#f94409"/><g stroke="#18303f" stroke-linecap="round" stroke-linejoin="round"><path d="m16.6459 14.0802c0-.6661.3992-1.1102.998-1.1102h3.9923c.5988 0 .998.4441.998 1.1102v7.7718c0 .6661-.3992 1.1102-.998 1.1102h-3.9923c-.5988 0-.998-.4441-.998-1.1102z"/><path d="m19.0651 13.3364h1.1508" stroke-width="1.5"/><path d="m14.1097 2.55322 3.5779.00008c1.7708 0 3.125 1.35417 3.125 3.125v4.6875"/><path d="m5.1875 12.449v4.6875c0 1.7708 1.35417 3.125 3.125 3.125h4.1667"/><path d="m18.9916 8.54443 1.8213 1.82127 1.8212-1.82127"/><path d="m7.01046 14.2719-1.82292-1.8229-1.82292 1.8229"/><path d="m14.4594 20.3013h.0451"/><path d="m11.9502 2.60449h.0451"/></g></svg>